<svg id="Layer_1" data-name="Layer 1" xmlns="http://www.w3.org/2000/svg" width="1000" height="1000" viewBox="0 0 1000 1000"><defs><style>.cls-1{fill:#a8542a;}.cls-2{fill:#ffc41f;}.cls-3{fill:#fff;}.cls-4{fill:#fc7272;}.cls-5{fill:#458dc9;}.cls-6{fill:#fc7f3a;}.cls-7{stroke:#000;stroke-miterlimit:10;stroke-width:1.2217px;}</style></defs><path class="cls-1" d="M721.894,260.6882l-.2108-30.4485c4.62-1.7931,8.15-4.31,9.8632-7.5685,8.44-16.0524,4.0772-76.538,4.0772-76.538l-70.7379-3.7682s-13.8321,58.6493-4.0771,76.538c3.3051,6.0613,11.525,10.288,21.2748,12.6065l-2.0392,33.6427,10.602,23.9939"/><path d="M723.7265,260.6882l-.1843-26.6342-.0264-3.8143-1.3454,1.7671c4.4519-1.7606,8.9647-4.356,11.1628-8.8131a32.52,32.52,0,0,0,2.377-7.0338,115.7908,115.7908,0,0,0,2.4335-19.68,394.74,394.74,0,0,0-.1627-41.1714c-.1461-3.06-.3049-6.12-.5248-9.1751a1.8819,1.8819,0,0,0-1.8326-1.8325L711.7713,143.03l-38.1583-2.0327-8.7273-.4649a1.8462,1.8462,0,0,0-1.767,1.3454c-2.2358,9.4885-3.9453,19.1347-5.3153,28.7824a215.0065,215.0065,0,0,0-2.2616,24.2638c-.188,6.8144-.09,14.0122,1.9164,20.5883a19.99,19.99,0,0,0,6.8726,10.1335c4.9929,3.9227,11.15,6.1558,17.2655,7.6306l-1.3454-1.767-1.5975,26.355-.35,5.7734a5.006,5.006,0,0,0,.2281,2.5969c1.6878,3.88,3.42,7.7412,5.1306,11.6115l5.4016,12.2247a1.8473,1.8473,0,0,0,2.5073.6574,1.876,1.876,0,0,0,.6574-2.5073l-9.2717-20.9833-1.33-3.01.25.9249,1.783-29.4161.2562-4.2266a1.8456,1.8456,0,0,0-1.3454-1.7671c-5.3411-1.2882-10.6833-3.1321-15.1885-6.3552a16.79,16.79,0,0,1-6.0912-7.93c-2.1085-6.0922-2.225-12.7414-2.1148-19.16.2507-14.61,2.5569-29.2058,5.3724-43.5179.6527-3.3179,1.3287-6.6353,2.1043-9.9271l-1.7671,1.3454,23.8524,1.2706,38.1582,2.0327,8.7273.4649-1.8325-1.8326c.5858,8.1383.8844,16.3067,1.0413,24.4631.1383,7.1808.1318,14.3682-.1475,21.5457a144.2407,144.2407,0,0,1-1.8353,19.74,44.3207,44.3207,0,0,1-2.1593,8.2767q-.0757.1949-.1548.3883-.0756.1834.0267-.06-.0634.1471-.129.2933c-.1077.2348-.2159.4693-.3323.7a10.448,10.448,0,0,1-1.8148,2.5785,19.853,19.853,0,0,1-7.09,4.4143,1.9054,1.9054,0,0,0-1.3454,1.767l.1843,26.6342.0264,3.8143c.0164,2.3575,3.6815,2.3628,3.6651,0Z"/><path d="M696.5805,230.0734c.9842-.1331.2529-.0355.0214-.01-.4078.0455-.8165.0834-1.2254.117q-2.0437.1681-4.0964.1851a40.771,40.771,0,0,1-11.4385-1.3343c-2.2746-.6382-3.2455,2.8969-.9743,3.5341a46.9324,46.9324,0,0,0,18.6876,1.0418,1.8435,1.8435,0,0,0,1.28-2.2542,1.8823,1.8823,0,0,0-2.2543-1.28Z"/><path d="M732.5105,220.6478,721.0831,204.393c3.8126-2.6656,9.65-13.3145,9.9839-19.5846.5046-9.4725-4.4617-11.9722-11.078-12.3246s-14.596,11.7569-15.0878,20.989l.9566-28.4473s-28.73.2168-43.9392-5.7179a18.062,18.062,0,0,1-10.5226-22.7829c3.6737-10.5273,23.2756-29.9409,29.8665-34.276,10.4243-6.8567-2.77,20.5276-2.77,20.5276s15.9418-26.5314,20.9567-26.2643-7.7618,30.32-7.7618,30.32,18.995-31.3979,25.7111-31.5989-9.5818,33.0169-9.5818,33.0169,20.726-32.4232,27.97-32.0374-9.1137,34.7182-9.1137,34.7182,24.0288-32.1875,29.5119-30.2191-14.296,38.2939-14.296,38.2939,20.9864-26.8215,29.1367-22.4758-23.199,47.3788-23.199,47.3788,20.1917-22.3935,25.6153-19.3106S745.9793,209.0719,732.5105,220.6478Z"/><path d="M734.0929,219.7229l-11.4275-16.2548-.6574,2.5072c3.9632-2.8632,6.5806-7.888,8.4617-12.2738,2.076-4.8406,3.5125-10.4856,1.6425-15.6489-1.5652-4.3218-5.3041-6.5428-9.7045-7.1609a10.9312,10.9312,0,0,0-6.5693.726,17.1331,17.1331,0,0,0-5.556,4.5946,30.5658,30.5658,0,0,0-7.2138,17.2605h3.6651l.8359-24.8572.1207-3.59a1.8539,1.8539,0,0,0-1.8325-1.8325,191.7978,191.7978,0,0,1-24.7958-1.4721,81.94,81.94,0,0,1-17.6049-3.7874,16.5847,16.5847,0,0,1-11.1292-13.4667c-.69-5.6909,1.8568-10.3672,4.9928-14.8756A114.3728,114.3728,0,0,1,669,115.74a113.15,113.15,0,0,1,11.5519-10.73c.0406-.0317.1174-.0929.3087-.2366q.2454-.1844.4937-.3648c.3279-.2372.66-.47,1.0015-.6869a10.3923,10.3923,0,0,1,1.066-.5988c.3111-.1494-.2757.0643.1442-.0519.1516-.0419.3-.0831.4534-.1194.0893-.0211-.4257.139-.046.0287.213-.0619-.3342-.1033-.1547-.0147-.1689-.0834-.3878-.1545-.47-.3661.1127.2887.0737.1006-.0185-.0956a.73.73,0,0,1,.0894.3193c-.0952.3388-.0084-.3133.0026-.0148.0059.1587.0173.3164.0176.4755a9.3609,9.3609,0,0,1-.0587.9452c-.0323.3242.0532-.2862-.0277.1887-.0365.2137-.0737.427-.1158.64-.1648.8339-.38,1.6576-.6166,2.4738-.5591,1.93-1.244,3.8233-1.9719,5.6953-1.0986,2.8255-2.1876,5.3377-3.5237,8.1714-.0713.1513-.1426.3026-.2151.4533-1.012,2.1023,1.9331,3.8983,3.1647,1.85,1.7967-2.9885,3.6818-5.927,5.6078-8.8334,3.2009-4.83,6.4869-9.7765,10.51-13.973.3667-.3825.7416-.7574,1.131-1.1168.186-.1716.3774-.3363.5676-.5032.4058-.3562.0769-.09.3476-.2808a10.0934,10.0934,0,0,1,.9332-.5811c.2734-.1515-.1025.0315-.1347.0472a.6821.6821,0,0,1,.2411-.0856c.5236.0567-.2754-.07.0475-.0306.3851.0465-.4559-.1758-.0784-.0117a4.4447,4.4447,0,0,1-.461-.2588c.1445.1084-.3347-.4-.0485-.0434-.3419-.4265.07-.1734-.0074.0538a.8508.8508,0,0,0,.05.2434c-.0075-.03-.045-.4809-.0239-.1655.0106.1586.022.3166.0257.4756a11.76,11.76,0,0,1-.066,1.328,9.153,9.153,0,0,1-.1619,1.0857c-.1064.5959-.2323,1.1883-.3685,1.7781-.3027,1.31-.66,2.6065-1.0427,3.8949-.8225,2.7709-1.7636,5.5064-2.752,8.222q-1.4373,3.95-3.0112,7.8476-.5034,1.2525-1.02,2.5c-.1041.251-.21.5014-.3137.7524-.1745.421.19-.4482.0587-.1389-.8959,2.1089,1.9054,3.93,3.1647,1.85,2.1054-3.4782,4.32-6.8942,6.5829-10.2717,3.8518-5.75,7.83-11.5759,12.6147-16.6022a27.948,27.948,0,0,1,2.8914-2.7042c-.2758.2176.2913-.2115.3823-.2743.1952-.1345.3936-.2648.5978-.3852.1861-.11.376-.2081.5684-.306.3642-.1852-.3017.1043-.0587.02a3.6434,3.6434,0,0,0,.3631-.1226,1.4489,1.4489,0,0,1,.2-.05c.2842-.0853-.3329-.1136-.1048.0093a.7987.7987,0,0,0,.224-.0037c.2011-.0189-.4616-.1625-.2017-.03.3924.2-.42-.17-.0247-.0146-.3278-.1293-.3235-.2807-.1728-.126.256.2628-.22-.3766-.0754-.1025.2061.3918-.1113-.4336.0219.0256.0456.1572.073.3138.11.4726-.1372-.5835-.0026.003-.0035.1768-.0013.255.0032.5076-.01.7625-.0125.2357-.0359.47-.0606.7049-.0508.4827.0416-.2671-.0038.0417-.0194.1314-.0388.263-.062.3939-.1119.6322-.241,1.26-.3914,1.8843-.3363,1.3959-.7518,2.7724-1.1991,4.1364-1.0237,3.1218-2.2236,6.1856-3.4829,9.219-1.7717,4.2678-3.6946,8.5426-5.74,12.7142a1.834,1.834,0,0,0,3.1647,1.85c2.2805-3.5658,4.6808-7.06,7.1323-10.51,4.1394-5.8253,8.4375-11.7081,13.5455-16.733.5082-.5,1.0271-.9892,1.5624-1.46a17.6358,17.6358,0,0,1,1.3764-1.1221,12.7479,12.7479,0,0,1,1.2887-.8288c.1275-.07.895-.4147.3968-.22.2194-.0859.4444-.1454.6663-.2215.0678-.0233.1417-.03.2113-.047.3806-.093-.4486.0984-.0814.0134.4292-.0993.2961.2205.0744-.0344a1.5441,1.5441,0,0,0,.2489.0665c-.39.0913-.3512-.2126-.2121-.0851.252.2312-.0691-.0276-.1053-.1037.0724.1526.117.2533.0822.054-.05-.29.08.1336.1274.2681-.2179-.6116-.017-.0016.004.1289.0229.1422.0969.7558.047.1838.0223.2559.0379.5109.04.7678a27.1158,27.1158,0,0,1-1.4933,7.6142c-.99,3.3219-2.1913,6.5806-3.4626,9.804-1.7718,4.4928-3.6559,8.88-5.7581,13.2952a1.834,1.834,0,0,0,3.1647,1.85c2.66-3.5612,5.2415-6.8213,8.2468-10.4964,4.6468-5.6824,9.4173-11.5157,15.0109-16.3045a15.8727,15.8727,0,0,1,2.8418-2.0778c.2028-.1155.41-.2207.618-.3255.4294-.2158-.2843.0545.2839-.1049.1562-.0438.31-.0795.4681-.1167-.6068.1435-.2857.0043-.143.0287.3362.0576.168.1082-.0965-.0374.4515.2485-.2887-.1742-.0093-.0235.1772.0956-.3622-.3587-.1834-.1443.1817.218-.047.04-.1074-.1608.1518.5032-.0536-.3952.0426.0451.0381.1741.0991.7689.0577.1344a10.437,10.437,0,0,1-.003,1.2343c-.0067.1293-.0259.2586-.04.3872.0557-.5116.005-.0338-.0124.0606-.0638.3475-.1248.6946-.2005,1.04-1.449,6.6059-4.6415,12.95-7.5492,19.0085-2.2782,4.7465-4.6568,9.4532-7.1739,14.0781-.9465,1.7391,1.5438,3.9245,2.8781,2.2207a134.9529,134.9529,0,0,1,11.1465-12.5062,56.059,56.059,0,0,1,9.2166-7.7476,14.2021,14.2021,0,0,1,4.0735-1.9565c.1581-.0427.3178-.0766.4768-.1153.0711-.0173.5162-.09.2979-.061s.2119-.0182.2826-.02c.1695-.0032.3388-.0039.5084-.0056.1919-.0018.3982.04.071-.0129.1352.0218.2689.0494.402.0818.1313.0319.2592.0755.3869.1192-.3285-.1124-.0735-.0151.0914.0554.4412.1887-.0014-.0569.1.0611.295.3428-.1382-.3525.0979.1183.2352.4689-.0157-.27.0662.1228.0421.2023.1013.4027.1435.6059-.0714-.3439-.0026-.0833-.0023.252,0,.2548-.0038.508-.0226.7623-.0093.1255-.0235.25-.036.3756-.0351.3537.0562-.3255-.0066.0358-.0526.302-.1077.6027-.1744.9019a37.2081,37.2081,0,0,1-3.2853,8.5167,189.8139,189.8139,0,0,1-12.1668,20.5983q-2.7192,4.1286-5.5479,8.1838c-.9587,1.3755-2.0212,2.7088-2.92,4.1237-.0422.0664-.0931.1287-.1395.1924-1.2244,1.6814,1.4935,3.7552,2.8782,2.2207a129.509,129.509,0,0,1,15.3907-14.7657,33.1881,33.1881,0,0,1,4.9749-3.3641,6.8309,6.8309,0,0,1,1.9416-.81c.1582-.0424.3176-.0766.4776-.111.3309-.0713-.3318-.0078.0889-.0076.1389,0,.2786-.0012.4175-.0018.0632,0,.2623.0364-.0191-.0084-.381-.0606.0771.0135.0777.0306,0-.0123.3342.2982-.0008-.011.1661.1534.1113.1712-.18-.1577.2683.303-.2851-.4253-.0581-.0682-.0675-.1061-.1462-.4462-.0367-.0138.1124.4441.0353-.4754.006.0915-.01.1894.0044.3812-.0051.5714-.0094.1884-.1122.9494-.016.3173q-.121.7953-.3075,1.5767a60.053,60.053,0,0,1-3.26,9.2679c-1.6548,3.9387-3.687,8.2049-5.6729,12.1758q-7.1235,14.2439-15.5479,27.8032c-4.417,7.1032-8.9124,14.4254-14.7614,20.3054-.4564.4589-.927.9031-1.4165,1.3267-1.7867,1.5461.8151,4.1289,2.5916,2.5916a51.0392,51.0392,0,0,0,6.9881-7.946c2.8875-3.8092,5.5517-7.7875,8.12-11.8172,5.9248-9.2971,11.363-18.9231,16.3536-28.7522,2.202-4.3369,4.3184-8.7223,6.2361-13.1931a72.46,72.46,0,0,0,3.7782-10.2827c.4955-1.9136,1.2524-4.8271-.3193-6.4644-2.4671-2.57-6.9475.0687-9.2247,1.5571-7.05,4.6079-13.14,10.9541-18.8114,17.1334q-.1987.2166-.3961.4342l2.8781,2.2207c2.6062-3.5788,5.1079-7.2378,7.5623-10.9217a204.4771,204.4771,0,0,0,12.8171-21.3807,48.7764,48.7764,0,0,0,3.9092-9.6026c.5807-2.2648,1.022-5.1934-.6727-7.1125-1.9941-2.2582-5.4867-1.7263-7.955-.7013-3.8181,1.5854-7.1214,4.3335-10.1618,7.08a116.7707,116.7707,0,0,0-8.9906,9.192,71.7672,71.7672,0,0,0-5.08,6.0143c-.0754.1067-.164.2058-.2446.3088l2.8782,2.2207c2.2883-4.2046,4.4568-8.4793,6.549-12.7843,1.7758-3.6541,3.479-7.3436,5.0487-11.0912a63.7342,63.7342,0,0,0,3.385-9.6111c.4914-2.0433,1.1516-5.0278-.5216-6.7342-1.7706-1.8058-4.47-.57-6.21.59a46.4927,46.4927,0,0,0-7.4653,6.6372c-2.8351,2.9464-5.521,6.0358-8.1454,9.17-3.7941,4.5312-7.4838,9.1628-11.0206,13.8985l3.1647,1.85c1.9412-4.0769,3.73-8.2336,5.4264-12.4175,1.3688-3.3768,2.6657-6.789,3.7658-10.2638a38.5651,38.5651,0,0,0,1.9948-9.0246c.1392-2.1476-.2748-4.8552-2.647-5.6052-2.3605-.7464-4.7932.96-6.544,2.3355a50.4409,50.4409,0,0,0-7.041,7.1107c-2.627,3.085-5.0966,6.3059-7.4942,9.5711-3.2954,4.4878-6.4811,9.0719-9.4814,13.7632l3.1647,1.85c1.8753-3.8246,3.6242-7.7167,5.2889-11.637,2.5-5.8883,5.3814-12.1781,6.0908-18.6023.2235-2.0243-.0324-4.68-2.3274-5.3918-2.2222-.689-4.4868,1.0324-6.0745,2.3619a48.3944,48.3944,0,0,0-6.5211,7.0532c-2.4459,3.0635-4.7513,6.2378-6.9807,9.4615-3.0485,4.4083-5.9943,8.9008-8.77,13.4867l3.1647,1.85q2.2092-5.2,4.1657-10.5048c2-5.3874,4.1563-11,4.88-16.7338.2107-1.67.3573-3.815-.9889-5.0826-1.7315-1.63-4.0846-.3049-5.6021.9012a34.1414,34.1414,0,0,0-5.2328,5.57c-2.0882,2.6164-4.0467,5.3345-5.94,8.0943-2.6576,3.8738-5.22,7.8236-7.641,11.85l3.1647,1.85c1.1363-2.3609,2.18-4.7693,3.1808-7.19a49.526,49.526,0,0,0,3.6781-11.4252c.2145-1.4575.3731-3.14-.4885-4.4331-1.1143-1.6728-3.1208-1.5005-4.7368-.7569a22.9078,22.9078,0,0,0-4.7248,3.3082c-2.0532,1.6867-4.0171,3.4831-5.9369,5.3193a145.4519,145.4519,0,0,0-13.4,14.56c-3.5094,4.4178-7.3393,9.3582-8.5974,14.9832A20.0561,20.0561,0,0,0,655.07,157.186c4.9225,4.4326,11.919,5.8922,18.2563,7.0432a180.9552,180.9552,0,0,0,31.938,2.63c.1977,0,.3955.0006.5933-.0008l-1.8326-1.8326-.8358,24.8572-.1208,3.59c-.08,2.37,3.52,2.3386,3.6651,0a26.5767,26.5767,0,0,1,4.997-13.1638c2.0254-2.909,5.056-6.2352,8.8212-5.9571,3.1779.2347,6.5328,1.2134,7.9059,4.3667,1.7233,3.9573.62,8.6213-.8771,12.4466a41.0234,41.0234,0,0,1-3.5758,6.9751,17.861,17.861,0,0,1-3.8467,4.67,1.86,1.86,0,0,0-.6574,2.5073l11.4274,16.2548C732.2745,223.4877,735.4536,221.6584,734.0929,219.7229Z"/><path d="M683.6329,174.7518c.09-.0492.1828-.0935.2755-.1373.2022-.0957.4578-.3416.0056-.01a1.8991,1.8991,0,0,1,.4328-.1694q.6193-.2295,1.2591-.3981.42-.1114.846-.1971.1908-.0383.3826-.0713c.0532-.0092.5412-.0805.32-.0523-.2435.031.2158-.0213.2611-.0256q.2628-.0249.5265-.04.5067-.0286,1.0146-.0192c.3581.0066.7137.0327,1.07.0628a1.1033,1.1033,0,0,1,.3223.0412c.1729.03.3455.0606.5175.0961a12.6215,12.6215,0,0,1,4.7054,2.0873,1.8494,1.8494,0,0,0,2.5073-.6574,1.87,1.87,0,0,0-.6574-2.5073c-4.45-3.0926-10.7769-3.8232-15.6389-1.1667a1.8328,1.8328,0,1,0,1.85,3.1647Z"/><path d="M659.9416,177.7316c4.4849-1.77,11.3474-1.27,12.6463,4.2666.62,2.6413-.7387,5.5913-2.0715,7.806a23.63,23.63,0,0,1-3.3756,4.3027,3.9833,3.9833,0,0,0-1.4159,2.1252,5.3973,5.3973,0,0,0-.0282,2.0349c.6678,3.33,4.546,3.6115,7.2919,3.4408,2.3429-.1457,2.3594-3.8118,0-3.6651-1.1325.07-2.7546.2008-3.638-.3623a.6213.6213,0,0,1-.08-.1484c.037.2037.0086-.4484-.0112-.3256.0166-.1028.146-.3418.0108-.1234-.2055.3319.5506-.4735.6245-.55a25.0281,25.0281,0,0,0,5.6114-8.7305,11.1521,11.1521,0,0,0-.2359-9.051,10.0742,10.0742,0,0,0-7.7037-5.34,18.0171,18.0171,0,0,0-8.5989.786,1.8908,1.8908,0,0,0-1.28,2.2542,1.8442,1.8442,0,0,0,2.2543,1.28Z"/><path d="M713.5888,195.1668c.1247-.3905.264-.7766.4057-1.1611q.2322-.63.4839-1.2526c.0458-.1132.0924-.2261.1388-.3391.1893-.4612-.1437.3289.0207-.05.115-.2649.23-.53.35-.7925a28.9817,28.9817,0,0,1,1.7568-3.3321q.25-.4015.519-.7906.1247-.18.254-.3558c.0427-.058.0878-.1144.1293-.1732.1051-.1487-.286.347-.0236.035a10.4634,10.4634,0,0,1,1.1788-1.2349c.3859-.3309-.1777.1019.03-.0316.1254-.0807.244-.1707.3719-.248.1233-.0745.2547-.1332.3788-.2054.2088-.1216-.4723.14-.0138.0123.1174-.0328.2345-.0654.3522-.0971.4252-.1144-.45-.0023-.01.0033a1.5451,1.5451,0,0,0,.4028.01c-.0239.0089-.493-.106-.2431-.0306.08.0241.1649.036.2456.0573a1.833,1.833,0,1,0,.9743-3.5342c-3.0561-.8052-5.4755,1.5215-7.0969,3.8077a31.7946,31.7946,0,0,0-3.555,7.0928c-.2065.54-.4077,1.0844-.5837,1.6356a1.8481,1.8481,0,0,0,1.28,2.2542,1.873,1.873,0,0,0,2.2542-1.28Z"/><circle cx="664.8476" cy="185.2152" r="2.4883"/><path d="M666.4161,185.3476l-.0046.07q-.0162.1572.0076-.0387a1.0428,1.0428,0,0,0-.0257.1335,3.0588,3.0588,0,0,1-.0942.3211c-.0708.2095.0978-.1667-.012.0236-.0218.0378-.04.078-.0613.1159q-.048.0854-.1028.1667l-.037.0536q-.0886.1206.0243-.0312c-.0132.0646-.1761.1909-.2233.2345-.0084.0077-.0771.0814-.0975.0853l.0837-.0631q-.0519.0389-.1058.0749c-.0906.0607-.1862.11-.2813.1628-.1479.0822.0248-.0014.04-.0125a.7651.7651,0,0,1-.2177.0752c-.0531.0156-.1065.03-.1605.0418-.014.0031-.2305.0479-.0761.0185.1523-.0291-.063.0033-.08.0043-.0572.0032-.1145.0042-.1718.0036s-.1158-.0062-.1737-.0079c-.2228-.0064.1388.0346.0051.0017-.12-.03-.24-.0521-.3584-.0918l-.0627-.0221q-.1417-.0554.0357.0164a.5191.5191,0,0,1-.1177-.0584c-.0969-.0512-.1864-.1112-.2777-.1711-.1687-.1106.0781.1007.0065.0031a1.0841,1.0841,0,0,0-.12-.1093c-.0386-.0377-.0736-.079-.1119-.1169-.163-.1615.0574.1061-.0387-.0421-.0592-.0913-.119-.18-.17-.2767a.5243.5243,0,0,1-.0578-.1169l.0406.0986q-.0243-.061-.0455-.1232c-.0357-.1054-.0577-.2128-.0851-.32-.0183-.0719-.0632-.1115.0022.0442a.7475.7475,0,0,1-.0148-.2382.8767.8767,0,0,1,.0142-.3117l-.0142.1075q.0111-.067.0257-.1334c.01-.0438.0206-.0875.0327-.1307.018-.0645.04-.1269.0615-.19.0562-.17-.0167.0244-.0163.0357-.0031-.0863.1439-.27.1924-.3419.0119-.0177.1441-.1646.0441-.0642-.1042.1046.0448-.0452.0544-.0555.0455-.0491.1682-.207.235-.2225l-.0837.0631q.0389-.0294.0792-.0566c.0458-.0288.09-.06.1365-.0877.0372-.0222.0751-.0435.1134-.0637s.0775-.04.117-.0578q-.179.0721-.0374.017c.1054-.0334.2086-.0692.3169-.0934a.7229.7229,0,0,0,.1312-.0256c-.0655.065-.1651.0162-.0087.0052a2.51,2.51,0,0,1,.3447,0c.0918.0062.1721-.04-.0038-.0053a.5877.5877,0,0,1,.1991.0412q.0975.0243.1928.0565.0473.0158.0936.0341.0956.037-.0667-.0283c.09,0,.2715.1451.342.1925a.7318.7318,0,0,1,.106.0754c-.1769-.18.0244.0324.0606.0678.0308.03.061.0612.09.0929s.0577.0642.0853.0974l-.063-.0837a1.215,1.215,0,0,1,.2079.3291c.031.0587.1481.1962.0172.0183a.6819.6819,0,0,1,.0659.1859c.0163.0528.0306.1061.0434.16.008.0323.0151.0649.0214.0976q.0261.1538-.0023-.0442a1.0881,1.0881,0,0,1,.0118.4115.9232.9232,0,0,0,.9163.9162.9354.9354,0,0,0,.9163-.9162,3.4068,3.4068,0,0,0-5.8956-2.4479,3.458,3.458,0,0,0-.4989,3.937,3.4066,3.4066,0,0,0,6.3945-1.4891.9212.9212,0,0,0-.9163-.9163A.9381.9381,0,0,0,666.4161,185.3476Z"/><circle cx="688.0812" cy="186.381" r="2.4883"/><path d="M689.6444,186.5908c-.0231.2349.0475-.1973-.0056.03-.01.0442-.0186.0886-.03.1326-.0191.0751-.1134.2416-.1042.318l.0395-.0975q-.0279.06-.059.1178c-.0206.0385-.0423.0766-.0649.1139s-.07.144-.1079.1634l.0646-.0818q-.0407.0507-.0838.0992c-.0724.0814-.1516.1527-.2305.2274-.1227.1163.0236-.0082.0338-.0218a.66.66,0,0,1-.1607.1093.8529.8529,0,0,1-.2863.1539c.12-.0046.1258-.0455.0374-.0181-.0735.0228-.1453.0489-.22.0684-.0536.014-.108.0235-.1617.0367-.2107.052.1489-.0048.0113,0-.1143.0039-.2265.0134-.3412.0085a.6755.6755,0,0,1-.1734-.0133c.1994.0683.0727.0083.0062-.0057a2.9334,2.9334,0,0,1-.3553-.1029c-.2091-.0724.1654.0984-.0238-.0134-.0376-.0222-.078-.04-.1159-.062-.057-.0324-.11-.07-.1664-.1037-.0453-.0269-.1457-.064.0283.0273a1.1555,1.1555,0,0,1-.2393-.2186,1.3835,1.3835,0,0,0-.1082-.1205q-.0645-.0775.0428.0586-.0385-.0522-.0743-.1062c-.06-.0908-.1093-.1863-.1612-.2818-.0825-.152.0039.0286.0135.04a.6225.6225,0,0,1-.0648-.1859c-.0239-.0785-.0985-.2452-.0751-.3227-.0029.01.0154.2273.0084.0434-.003-.08-.0087-.1587-.0074-.2386.0009-.0579.0056-.1153.0085-.1731.009-.1853-.01.0245-.0068.0375a.8353.8353,0,0,1,.0789-.3295.9583.9583,0,0,1,.0674-.1884c-.107.184-.034.0781-.0107.0381.0454-.0777.12-.2887.2031-.3357l-.0647.0818q.03-.0381.0626-.0747c.0371-.0393.0719-.0806.11-.1191s.0793-.0734.1176-.1113c.0491-.0486.1131-.154-.01,0a1.03,1.03,0,0,1,.2727-.1753c.0379-.021.0776-.0389.1154-.06q.1372-.0632-.04.0135.0609-.0241.1232-.0449c.1052-.0351.2123-.0571.32-.0834.0879-.0216.0753-.0578-.045.0031a.5107.5107,0,0,1,.1689-.0121c.1159-.0046.2292.0048.3447.01.1391.0065-.2184-.0533-.0049.0021.0656.017.1325.0288.1978.0474s.1273.0409.1909.0625c.2047.07-.1628-.0928.0238.0134.0823.0469.2889.12.3357.203-.051-.09-.1037-.0893-.0316-.0233.0639.0586.1289.1147.1891.1773.03.0311.0573.0648.0873.0957.1371.1411-.0813-.1345.016.0188.07.11.1339.2214.1976.3354.1059.19-.0541-.1869.01.0216.0192.0629.0424.1244.06.188q.0219.08.0384.1611c.0488.2385.0052-.1362.01.0548.0034.1382.0088.2733-.001.4117a.9211.9211,0,0,0,.9163.9163.9384.9384,0,0,0,.9162-.9163,3.4066,3.4066,0,0,0-1.9082-3.2688,3.4014,3.4014,0,0,0-4.516,4.6113,3.3993,3.3993,0,0,0,3.331,1.8341,3.4709,3.4709,0,0,0,2.1167-.9908,3.5251,3.5251,0,0,0,.9765-2.1858.9192.9192,0,0,0-.9162-.9163A.9413.9413,0,0,0,689.6444,186.5908Z"/><circle cx="681.4316" cy="209.5677" r="3.6043"/><path d="M684.1145,209.7594a2.99,2.99,0,0,1-.184.8125,1.8824,1.8824,0,0,1-.1477.3q-.07.1236-.1488.2415c-.0155.023-.1719.2234-.0827.1156a2.7066,2.7066,0,0,1-3.0331.87,2.9152,2.9152,0,0,1-.71-.3822c-.2423-.1737.0574.0542-.0737-.06-.0591-.0514-.1172-.1035-.1733-.1583a2.6721,2.6721,0,0,1-.2824-.3136,2.9417,2.9417,0,0,1-.3783-.7039,2.2833,2.2833,0,0,1-.1562-.8541,3.181,3.181,0,0,1,.0206-.4514c-.0206.1623.0326-.1525.0314-.1468.0141-.0634.03-.1267.0473-.1893a2.3218,2.3218,0,0,1,.3856-.8175,1.1089,1.1089,0,0,1,.2069-.2566,3.4558,3.4558,0,0,1,.34-.3223c-.104.0852.05-.0369.0766-.0547.0652-.0437.13-.0869.1977-.1271q.0809-.0483.1643-.0923t.1694-.0838q-.1114.0433.044-.0166a2.669,2.669,0,0,1,1.6373-.1137,2.2883,2.2883,0,0,1,.9116.41,1.4235,1.4235,0,0,1,.3246.2716q.0669.0656.1307.1346c.0057.0062.1845.2161.0965.1031a3.217,3.217,0,0,1,.3012.4767c-.0016-.0031.13.2751.0664.1246.0368.0876.0672.1787.0953.2694a2.3658,2.3658,0,0,1,.1224,1.0141.9163.9163,0,0,0,1.8326,0,4.5226,4.5226,0,1,0-3.8924,4.2782,4.5507,4.5507,0,0,0,3.8924-4.2782.9163.9163,0,0,0-1.8326,0Z"/><path class="cls-2" d="M538.8223,658.7566l-.2975,90.9535-124.8365-.0056s-2.1225-35.3711,44.3348-39.1719a16.7206,16.7206,0,0,0,15.408-16.8019c-.11-11.0555-.2654-21.7519-.2654-21.7519"/><path d="M536.99,658.7566l-.03,9.0315-.0709,21.6943-.0859,26.2576-.0744,22.7211-.0246,7.53a30.9129,30.9129,0,0,0-.0116,3.5549,1.453,1.453,0,0,1,0,.1643l1.8325-1.8326-12.4288-.0005-29.8426-.0014-35.9708-.0015-31.2121-.0014-10.3148,0a47.2527,47.2527,0,0,0-4.8552,0,2.0575,2.0575,0,0,1-.2122,0l1.8325,1.8325a17.9685,17.9685,0,0,1,.0122-1.85c.0319-.7143.09-1.4275.1685-2.1381.0192-.1728.0408-.3453.0613-.5179.0557-.4689-.06.3529.0392-.2795.0811-.5154.1629-1.03.26-1.5428a34.0918,34.0918,0,0,1,5.9367-14.02c4.17-5.849,10.6347-10.3573,17.5043-12.9944a63.9039,63.9039,0,0,1,15.4182-3.6889c2.9161-.343,5.7983-.4491,8.56-1.5531a18.53,18.53,0,0,0,11.1709-12.4958c.9568-3.6357.5855-7.4972.5431-11.213q-.0877-7.7165-.1978-15.4327c-.0343-2.3564-3.6995-2.3632-3.6651,0q.0938,6.447.1683,12.8943c.0732,6.16,1.0619,12.7312-2.8967,17.9693a15.1072,15.1072,0,0,1-5.9207,4.6649c-2.6011,1.1471-5.3648,1.2071-8.14,1.5462a67.7054,67.7054,0,0,0-15.7406,3.67,42.765,42.765,0,0,0-19.1427,13.6707,38.1107,38.1107,0,0,0-6.8953,14.8584,31.2349,31.2349,0,0,0-.91,8.4518,1.8678,1.8678,0,0,0,1.8326,1.8326l12.4287,0,29.8427.0014,35.9708.0015,31.2121.0014c5.0438,0,10.1285.1888,15.17.0007.0706-.0026.1417,0,.2123,0a1.86,1.86,0,0,0,1.8325-1.8325l.03-9.0316.0709-21.6942.0859-26.2576.0744-22.7212c.012-3.6821.1847-7.4045.0362-11.0847-.0022-.0545,0-.11.0006-.1642a1.8336,1.8336,0,0,0-3.6651,0Z"/><path class="cls-3" d="M444.8974,749.706l93.6274.0041.0853-26.0792.008-2.4429-12.348,0a13.0382,13.0382,0,0,0-11.853,7.6054h0a13.0388,13.0388,0,0,1-11.853,7.6054l-51.9857-1.0412-.0326-.2057a37.2247,37.2247,0,0,0-8.9559-18.9269l-1.4386-1.6172-1.2149.0254c-13.58,5.24-19.8809,14.2066-22.7892,21.7641q-.1295.3363-.25.6687l-.0083.0229a36.815,36.815,0,0,0-2.2067,11.2963l0,.0026q-.0036.1383-.0055.2634l0,.0087c-.0048.3141-.0026.56.0012.736l.0011.0524.0021.0725.002.0609.0015.0391.0023.0552,0,.0045.0013.0246Z"/><path d="M444.8974,751.5385l9.2781,0,22.4125.001,27.0014.0012,23.3585.001c3.7925,0,7.6272.1661,11.4172,0,.053-.0023.1066,0,.16,0a1.86,1.86,0,0,0,1.8325-1.8325l.08-24.5641.0129-3.958a1.8587,1.8587,0,0,0-1.8325-1.8325l-11.1408,0a17.4444,17.4444,0,0,0-6.723,1.0749,14.9908,14.9908,0,0,0-7.92,7.4381l2.0695-.8422h0a1.8921,1.8921,0,0,0-2.0695.8422,11.4587,11.4587,0,0,1-8.8286,6.6181,19.0617,19.0617,0,0,1-2.8357.0518l-10.8792-.2179-31.7768-.6365-7.9361-.159,1.767,1.3454a38.8655,38.8655,0,0,0-6.82-16.64,28.835,28.835,0,0,0-4.0657-4.9043c-1.9047-1.6466-5.216.4006-7.0081,1.2593a39.5278,39.5278,0,0,0-19.7942,20.6273,34.8005,34.8005,0,0,0-2.8011,14.4929,1.8668,1.8668,0,0,0,1.8326,1.8326l27.3178.0011,3.8913,0a1.8336,1.8336,0,0,0,0-3.6651l-27.3179-.0012-3.8912,0,1.8325,1.8325a32.1584,32.1584,0,0,1,3.4367-15.2131,34.5725,34.5725,0,0,1,11.4075-13.3094,42.8165,42.8165,0,0,1,5.3775-3.16c1.0049-.4981,2.0272-.95,3.063-1.3784a3.5117,3.5117,0,0,1,1.3457-.2034l-1.2958-.5368a44.326,44.326,0,0,1,5.95,8.0358,36.3837,36.3837,0,0,1,4.0061,11.9053,1.8435,1.8435,0,0,0,1.7671,1.3454l22.0079.4408,28.3561.568a22.7274,22.7274,0,0,0,4.0828-.1841,14.9091,14.9091,0,0,0,10.9743-8.2965l-2.07.8422h0a1.8919,1.8919,0,0,0,2.07-.8422,11.4451,11.4451,0,0,1,6.8851-6.1754,17.23,17.23,0,0,1,5.27-.5223l10.4639,0-1.8326-1.8326q-.04,12.3391-.0807,24.6783l-.0125,3.8438,1.8325-1.8326-9.2781,0-22.4125-.001-27.0014-.0011-23.3585-.0011c-3.7925,0-7.6272-.1661-11.4172-.0005-.053.0023-.1066,0-.16,0A1.8336,1.8336,0,0,0,444.8974,751.5385Z"/><path d="M470.1357,705.4814a5.9847,5.9847,0,0,1,.5822.1607c.2184.0692.4343.1463.6477.23.0554.0217.11.0447.1658.0663.2972.1159-.4393-.1934-.214-.0905.151.0689.3029.1352.4522.2076a12.334,12.334,0,0,1,1.8872,1.1484c.2166.158-.1924-.1423-.1834-.1425a.7618.7618,0,0,1,.1249.1q.1261.1023.2492.2082.2538.2186.4933.453.2489.2436.4807.5037.1042.1168.2047.2371c.0387.0463.0766.0934.115.14.1887.2285-.0356-.0335-.0887-.1176.3125.4947.6561.9519.924,1.4765q.0934.1827.1794.3693a1.8867,1.8867,0,0,0,.0855.19c-.238-.3893-.0979-.2352-.0424-.0947.1286.3255.2392.6571.3374.9929a1.833,1.833,0,0,0,3.5342-.9743,12.0388,12.0388,0,0,0-3.8183-5.9251,13.8582,13.8582,0,0,0-4.34-2.4394,6.7181,6.7181,0,0,0-.8021-.2333,1.833,1.833,0,1,0-.9744,3.5341Z"/><path d="M462.9208,710.5534c.1745.0921.3418.2.5061.309.1878.1245.3636.266.55.3918-.0723-.0488-.4008-.3182-.174-.1334.0514.0419.1034.083.1545.1251q.1929.159.379.326.3741.336.7184.7031.1959.209.3813.4275c.0593.07.1163.1417.1752.2119.181.2154-.2555-.3492-.0268-.0358a11.57,11.57,0,0,1,.711,1.0858q.1705.2993.321.6093c.0475.098.0916.1976.1377.2963.1263.271-.1358-.363.0072.025a10.9579,10.9579,0,0,1,.4767,1.6394c.0286.143.0495.2872.0764.43.0385.2051-.0211-.1709-.0211-.1718a2.2486,2.2486,0,0,0,.0288.2575c.0356.3573.05.7155.0527,1.0744a1.8326,1.8326,0,1,0,3.6651,0,12.6394,12.6394,0,0,0-5.57-10.2955,6.7031,6.7031,0,0,0-.6994-.4407,1.8328,1.8328,0,0,0-1.85,3.1647Z"/><path d="M451.6751,712.7577c.1745.0922.3418.2.5061.3091.1878.1245.3636.2659.55.3917-.0723-.0488-.4008-.3181-.174-.1333.0514.0418.1034.0829.1545.125q.1929.159.379.3261.3741.336.7184.7031.1959.2089.3813.4275c.0593.07.1163.1416.1752.2118.181.2155-.2555-.3491-.0268-.0357a11.5444,11.5444,0,0,1,.711,1.0858q.1705.2991.321.6092c.0475.0981.0916.1976.1377.2964.1263.2709-.1358-.363.0072.025a10.951,10.951,0,0,1,.4767,1.6394c.0286.1429.0495.2871.0764.43.0385.2052-.0211-.1709-.0211-.1717a2.2469,2.2469,0,0,0,.0288.2574c.0356.3573.05.7156.0527,1.0745a1.8326,1.8326,0,0,0,3.6651,0,12.64,12.64,0,0,0-5.57-10.2956,6.72,6.72,0,0,0-.6994-.4407,1.8328,1.8328,0,0,0-1.85,3.1647Z"/><path class="cls-4" d="M680.0442,428.0873l-149.3251.4212a69.7882,69.7882,0,0,0-67.2814,68.567l-5.4763,179.7751,94.3015-.4546s1.674-110.4834,1.674-152.3332l160.7031-2.232"/><path d="M680.0442,426.2548l-6.4586.0182-16.9216.0477-24.0176.0678-27.393.0772-27.4972.0776-23.8492.0673-16.8973.0476c-2.2148.0063-4.4391-.0478-6.6529.0316a71.3291,71.3291,0,0,0-36.1236,11.4734A72.1566,72.1566,0,0,0,469.56,465.4071a73.3673,73.3673,0,0,0-7.9586,31.7918c-.0622,2.2962-.14,4.592-.21,6.8878l-.4814,15.8046-.6753,22.1681-.8015,26.3114-.847,27.8058-.8265,27.1316-.725,23.8009-.5564,18.2651-.3093,10.1534-.04,1.323a1.8546,1.8546,0,0,0,1.8325,1.8325l9.417-.0454,22.4788-.1084,27.1825-.131,23.6162-.1139c3.8009-.0183,7.6426.1248,11.44-.0551.0554-.0026.1113,0,.1667-.0008a1.8627,1.8627,0,0,0,1.8326-1.8325q.0853-5.64.1662-11.28.2065-14.2622.3992-28.5246.2554-18.897.4833-37.7945.2346-19.6182.42-39.2369c.0976-10.7891.1841-21.5786.2029-32.3682q.0027-1.5643.0028-3.1286l-1.8325,1.8325,16.0619-.2231,38.2991-.5319,46.5566-.6466,40.0144-.5558c6.49-.09,13.014.0078,19.4992-.2708.09-.0039.1814-.0025.2719-.0038,2.3565-.0327,2.3632-3.6979,0-3.6651l-16.0619.2231-38.299.532-46.5567.6466-40.0144.5557c-6.49.09-13.0139-.0077-19.4992.2709-.09.0038-.1814.0025-.2719.0037a1.8611,1.8611,0,0,0-1.8325,1.8326c-.0007,10.3308-.0784,20.6616-.1663,30.992q-.1644,19.3422-.3992,38.6837-.2244,19.2007-.4833,38.401-.2019,15.1182-.4195,30.2362-.068,4.7236-.1376,9.4472a36.1417,36.1417,0,0,0-.0653,4.3845,1.5644,1.5644,0,0,1-.0028.1886l1.8325-1.8326-9.417.0454-22.4787.1084-27.1826.131-23.6161.1139-7.7215.0372a29.746,29.746,0,0,0-3.7189.0179,1.3239,1.3239,0,0,1-.1667.0008l1.8326,1.8326.1627-5.3426.4427-14.5335.6463-21.2154.7792-25.5782.8438-27.7021.8285-27.196.7447-24.4475.5911-19.4059.36-11.81a87.8131,87.8131,0,0,1,1.357-14.6162,68.0444,68.0444,0,0,1,47.2248-51.8807,67.0225,67.0225,0,0,1,18.931-2.7866l12.5549-.0354,21.0192-.0593,26.0763-.0735,27.8192-.0785,25.8539-.0729,20.5748-.058,11.885-.0336,1.5553-.0044c2.358-.0066,2.3625-3.6717,0-3.665Z"/><path class="cls-1" d="M584.0687,140.7189l-39.06,22.32-10.7874,11.0728-12.59,12.9236a197.8561,197.8561,0,0,0,22.3577,22.573,201.3891,201.3891,0,0,0,24.3154,18.3509l11.7741-14.0417.0845-.1008,15.6239-29.5739Z"/><path d="M583.1438,139.1365,553.26,156.2129l-6.9666,3.981a13.84,13.84,0,0,0-2.7093,1.6814c-3.7228,3.505-7.1668,7.3563-10.7355,11.0195l-12.5134,12.8445a1.8833,1.8833,0,0,0,0,2.5916A207.1984,207.1984,0,0,0,556.7487,222.23c3.4542,2.5642,6.9912,5.0168,10.6306,7.3113a1.8447,1.8447,0,0,0,2.2207-.2866l6.2881-7.4992,4.0491-4.8289a23.16,23.16,0,0,0,1.8125-2.194c1.2378-1.9223,2.1769-4.12,3.2436-6.14l6.4135-12.14,5.1922-9.8281a7.2958,7.2958,0,0,0,.9875-2.1389,5.2338,5.2338,0,0,0-.3585-1.9407l-5.9545-22.1166c-1.78-6.6124-3.3954-13.2965-5.3471-19.8607-.0331-.1112-.06-.2244-.0906-.3365-.6125-2.2751-4.1491-1.31-3.5341.9743l3.945,14.6529,6.3263,23.4977L594.02,184.73l.1847-1.4121-10.28,19.46-4.9705,9.4083a3.7158,3.7158,0,0,0-.3626.6864c-.0209.08.3791-.4317.166-.22-.11.1095-.2043.2437-.3039.3624l-3.4336,4.0949-8.0108,9.5537,2.2207-.2865A206.17,206.17,0,0,1,531.31,195.0838c-2.9077-3.0109-5.7174-6.1166-8.3827-9.3445v2.5916q11.1609-11.4563,22.322-22.9125c.2889-.2966.6207-.5827.8817-.9051.3347-.4134-.2.0821-.14.0752a4.5515,4.5515,0,0,0,1.198-.6846l6.1122-3.4927,18.9766-10.8437,12.716-7.2663C587.0413,141.1311,585.197,137.9633,583.1438,139.1365Z"/><path class="cls-1" d="M665.5363,319.8359,500.9209,373.7127c-33.4735,8.0609-51.406-1.56-66.46-22.5122h0c-16.8189-23.4078-14.6479-58.9024,5.0869-79.91L545.0089,163.0387l39.06-22.32,11.718,43.5237-15.6239,29.5739-75.33,89.8375,99.5773-39.9249a103.3968,103.3968,0,0,1,38.8843-7.4258l20.8209.0815"/><path d="M665.0491,318.0688l-7.23,2.3663-18.9378,6.1981-26.81,8.7746-30.5173,9.9879-30.3666,9.9387L524.8324,363.96,506.6,369.9274a92.2469,92.2469,0,0,1-10.3215,2.9446c-13.7626,2.8155-28.5714,2.9865-41.0762-4.2069a56.2263,56.2263,0,0,1-14.3707-12.2823A64.5475,64.5475,0,0,1,429.416,338.18a65.4308,65.4308,0,0,1-.7741-45.2054,59.2011,59.2011,0,0,1,13.6572-21.8827l10.9547-11.2446,18.508-18.9976,22.3355-22.9263,22.1678-22.7543,18.325-18.81,10.5175-10.7957c.3252-.3339.67-.6568.9795-1.0055.4663-.5252-.3689.1308.0035-.0264a24.1409,24.1409,0,0,0,2.4422-1.3955l4.7683-2.7248,26.2271-14.9869,5.4655-3.1231-2.692-1.0952,3.945,14.6529,6.3263,23.4977L594.02,184.73l.1847-1.4121-15.0088,28.41c-.0916.1734-.6644.9517-.6105,1.1555-.0323-.1221.4826-.587.0849-.1271-.5465.6318-1.0741,1.281-1.6109,1.9211L569.74,223.406l-24.9309,29.7324-26.7469,31.8982c-4.769,5.6874-9.5809,11.3417-14.3082,17.0639-.0714.0864-.1441.1718-.2161.2577-1.0357,1.2351-.0931,3.815,1.7829,3.0629l16.6155-6.6619,35.9551-14.416,34.2972-13.7512c7.5087-3.01,15.0073-6.3253,22.7947-8.5474a106.7376,106.7376,0,0,1,29.8775-3.9027l17.7584.07,1.497.0059c2.3587.0092,2.3618-3.6558,0-3.6651-13.3976-.0525-26.9555-.7576-40.2,1.6491a108.81,108.81,0,0,0-21.0441,6.1821l-8.3155,3.3341-32.7948,13.1488-37.0079,14.8381L511.298,299.1c-2.19.8778-4.5461,1.6072-6.6555,2.6684-.094.0473-.1987.08-.2965.1189l1.783,3.0629,5.3735-6.4085,13.5646-16.177,17.6835-21.0892,17.9788-21.4414,14.164-16.8919c2.1622-2.5786,4.3649-5.1287,6.4891-7.7388a24.4135,24.4135,0,0,0,2.2809-4.0927l6.01-11.3765,5.9339-11.2321c.7506-1.4208,2.2664-3.3437,1.8736-5.0159-1.5422-6.5642-3.5153-13.0568-5.2681-19.5672l-6.0279-22.389-.3494-1.2979a1.8529,1.8529,0,0,0-2.692-1.0952l-18.9874,10.85L550.8509,157.59c-2.2258,1.2719-4.5856,2.4319-6.7272,3.8441a11.4242,11.4242,0,0,0-1.734,1.6677l-4.2169,4.3284-15.205,15.6073L501.9,204.6625l-22.944,23.5511-20.8046,21.355-14.89,15.2835a117.0133,117.0133,0,0,0-8.0143,8.6194c-9.8069,12.3356-14.5108,28.2956-13.86,43.978a66.56,66.56,0,0,0,4.96,22.8484A70.2105,70.2105,0,0,0,438.34,359.09a59.3962,59.3962,0,0,0,14.6474,12.5271,48.9863,48.9863,0,0,0,18.309,6.2173,75.5618,75.5618,0,0,0,23.54-.9622,57.5645,57.5645,0,0,0,7.6757-1.7544l12.2547-4.0108,22.6971-7.4286,29.0328-9.5021,31.1663-10.2,29.4635-9.6432,23.56-7.7108L664.23,322.19l1.7935-.5869c2.2317-.7305,1.2763-4.2708-.9744-3.5342Z"/><path class="cls-1" d="M579.8371,214.2886l21.3477-26.8575,12.5939-42.786s-4.6-21.2241,30.627-27.2084c-7.94-29.66-52.9963-27.5837-64.1652-5.1311-4.5561,9.159-8.7759,16.6569-12.1756,22.3248A113.3083,113.3083,0,0,1,552.64,154.8168l-8.6427,9.0038"/><path d="M581.1329,215.5844l16.2453-20.4382,3.8368-4.8271a10.52,10.52,0,0,0,1.74-2.4124c.963-2.4949,1.5364-5.22,2.2907-7.7826l8.9262-30.3255,1.1736-3.9871a3.7823,3.7823,0,0,0,.1682-1.8247c-.0177-.1106-.0726-.4923-.0136-.0656.0618.4467-.0138-.1341-.0242-.2656-.0323-.41-.0566-.82-.0612-1.2317q-.01-.8689.0675-1.736c.0184-.21.1343-1.0742.0509-.5216.0582-.3855.1225-.7693.2016-1.1511a18.37,18.37,0,0,1,5.2472-9.51c4.6218-4.6388,10.9587-7.2163,17.1886-8.8616,2.2172-.5856,4.4627-1.0508,6.7221-1.44a1.8517,1.8517,0,0,0,1.28-2.2543,30.5644,30.5644,0,0,0-16.6021-19.77,42.62,42.62,0,0,0-25.96-2.8526c-8.1564,1.5611-16.3327,5.5071-21.6555,12.034a28.4576,28.4576,0,0,0-3.4076,5.2412c-1.7547,3.4962-3.5459,6.9728-5.4086,10.4129a194.5128,194.5128,0,0,1-10.3982,17.518c-5.6085,8.1761-12.5156,15.1535-19.351,22.2746l-.689.7177c-1.6336,1.702.9544,4.2973,2.5916,2.5916,5.4518-5.68,11.0939-11.2311,15.9657-17.4283a140.7958,140.7958,0,0,0,11.36-17.2043c3.3975-5.9332,6.3577-12.0818,9.6331-18.0755,3.74-6.8433,10.7319-11.2985,18.0715-13.5043a40.3359,40.3359,0,0,1,24.0527.1254,27.4117,27.4117,0,0,1,18.2626,18.8945l1.28-2.2543c-9.5175,1.6409-19.9861,4.8384-26.575,12.3641a21.8312,21.8312,0,0,0-5.5912,13.8569,14.2739,14.2739,0,0,0,.2592,3.2416v-.9743l-9.7183,33.0165-2.2217,7.5481c-.1835.6232-.4121,1.2493-.5544,1.8833-.2185.9733.74-.87.2257-.2868-1.3155,1.4916-2.4918,3.135-3.7289,4.6915l-6.6434,8.358-10.8293,13.6243a1.8928,1.8928,0,0,0,0,2.5916,1.8437,1.8437,0,0,0,2.5916,0Z"/><path class="cls-1" d="M596.3447,98.3111s29.245-10.6861,50.52-6.5125c13.1405,2.7941,11.4988,11.0144-1.4334,11.6515-6.9058.34-24.3371,3.6438-36.0614,7.1519"/><path d="M596.8318,100.0782c3.6453-1.3293,7.4034-2.3926,11.1562-3.3657a118.446,118.446,0,0,1,24.6789-3.9777,59.5714,59.5714,0,0,1,13.0254.702,19.471,19.471,0,0,1,5.9932,1.9409,7.3834,7.3834,0,0,1,1.6761,1.204,3.1006,3.1006,0,0,1,.7023,1.041c.03.0867.1179.4608.0486.0833a1.77,1.77,0,0,1,.014.3245c-.0062.3547.0127.0716.0183-.0044a1.4652,1.4652,0,0,1-.0767.318,2.8844,2.8844,0,0,1-.7356.9891,9.4272,9.4272,0,0,1-3.9537,1.7524,36.8573,36.8573,0,0,1-5.4334.636c-1.7413.1512-3.4759.3815-5.206.6282a207.8388,207.8388,0,0,0-29.8565,6.4851c-2.2553.6714-1.2949,4.21.9743,3.5342a212.1165,212.1165,0,0,1,28.45-6.2772c3.7663-.575,7.6619-.5718,11.3871-1.3271,3.082-.6248,7.09-2.19,7.9508-5.6049.8584-3.4057-2.1514-6.0525-4.914-7.3573-4.3211-2.0408-9.2851-2.5609-14.0089-2.75-9.2149-.3683-18.5067,1.0345-27.4679,3.0893a129.32,129.32,0,0,0-15.3968,4.4018c-2.1982.8016-1.2489,4.3449.9743,3.5342Z"/><path class="cls-1" d="M603.5888,107.5259s27.04-12.49,48.5947-10.1544c13.3315,1.6583,12.4,9.989-.43,11.7316-6.8513.9305-23.9355,5.7151-35.3162,10.2146"/><path d="M604.5137,109.1083c1.2362-.57,1.632-.7222,2.741-1.175q4.005-1.6352,8.1069-3.02a110.5,110.5,0,0,1,24.5451-5.661,49.8073,49.8073,0,0,1,13.204.0961,14.92,14.92,0,0,1,5.25,1.73,4.4641,4.4641,0,0,1,1.234,1.0284c-.1112-.1377.2142.3406.27.4562-.0886-.1819.1049.4282.0936.3322-.0329-.2805-.0627.7512-.0011.2184-.0141.1217-.2135.63-.0853.3486a2.7164,2.7164,0,0,1-.8944,1.14,10.5008,10.5008,0,0,1-4.0587,1.9792c-3.3195.963-6.8589,1.2625-10.2317,2.0554a209.5236,209.5236,0,0,0-28.7378,8.913,1.8907,1.8907,0,0,0-1.28,2.2543,1.8443,1.8443,0,0,0,2.2543,1.28,212.8644,212.8644,0,0,1,27.4914-8.6143c1.7924-.4373,3.5922-.85,5.4046-1.1957,1.8571-.3543,3.7444-.5385,5.5756-1.0216,3.1106-.8205,6.97-2.4852,8.014-5.8487.95-3.0613-1.4349-5.6635-3.9953-6.9257-4.2273-2.084-9.237-2.2988-13.867-2.2224-9.3214.1537-18.607,2.1828-27.4825,4.93a125.2542,125.2542,0,0,0-15.4013,5.7569c-2.14.9865-.28,4.1466,1.85,3.1647Z"/><path class="cls-1" d="M608.6316,117.8171s26.4324-13.73,48.072-12.395c13.3941,1.0388,12.8495,9.4037.1139,11.7389-6.8008,1.2469-24.203,5.702-33.689,12.9559"/><path d="M609.5565,119.3994a111.9935,111.9935,0,0,1,11.0475-4.8742,109.3274,109.3274,0,0,1,24.9625-6.8077c4.4028-.5849,9.1669-.981,13.5613-.1513a10.7685,10.7685,0,0,1,4.7335,1.7927,2.2986,2.2986,0,0,1,.7121.8216c.177.33.0666-.0474.1459.4036.0626.3566.0128.0527.0027-.0162a1.5431,1.5431,0,0,1-.01.476c.0946-.4922-.1815.4417-.1006.2512.0206-.0483-.2509.4359-.3515.5726a7.8738,7.8738,0,0,1-1.1814,1.073,15.1177,15.1177,0,0,1-5.2042,2.1271c-3.1654.7636-6.3657,1.32-9.5164,2.1655-9.0369,2.4255-18.613,5.5955-26.1541,11.3013a1.8947,1.8947,0,0,0-.6574,2.5072,1.8434,1.8434,0,0,0,2.5072.6575c7.1159-5.384,16.01-8.3873,24.5254-10.7274,3.3989-.9341,6.85-1.545,10.27-2.37,3.3046-.7972,7.4727-2.3582,9.0242-5.6758,1.4176-3.031-.44-5.9089-3.16-7.3519-4.0592-2.1542-9.0531-2.2186-13.5321-2.02-9.5306.423-18.94,2.8746-27.8893,6.0715a125.7766,125.7766,0,0,0-15.585,6.6087c-2.0946,1.0862-.2432,4.25,1.85,3.1647Z"/><path class="cls-1" d="M614.2006,130.1169s22.8248-14.967,44.4873-15.8543c13.43-.3375,13.7445,8.0392,1.3148,11.6655a188.6068,188.6068,0,0,0-23.082,8.7682,33.7649,33.7649,0,0,0-18.7779,22.5859l-2.5339,10.1535a33.83,33.83,0,0,1-7.2949,14.0069l-28.1512,32.3739"/><path d="M615.1255,131.6993a103.46,103.46,0,0,1,11.4516-6.3347,93.8545,93.8545,0,0,1,25.8507-8.6375c4.0293-.65,8.9839-1.3889,12.8792.2568a7.4126,7.4126,0,0,1,1.2063.685c.1361.1143.496.508.4766.4809a2.4016,2.4016,0,0,1,.1881.4012,1.3674,1.3674,0,0,1,.0687.3092c-.0016-.0745-.0209-.3648-.0269-.0125a1.9964,1.9964,0,0,1-.0172.3224c.0716-.3761-.0209-.0012-.0484.0862a4.12,4.12,0,0,1-.6376,1.11c-2.4708,2.9446-6.8388,3.69-10.2932,4.8131-5.1763,1.6828-10.26,3.6492-15.2728,5.7678-4.4558,1.8835-8.721,3.8263-12.5122,6.88a35.2091,35.2091,0,0,0-8.566,10.1753c-3.0171,5.3892-4.1662,11.4748-5.6457,17.4032a37.51,37.51,0,0,1-3.6193,9.6423,35.562,35.562,0,0,1-4.1434,5.7357l-7.9336,9.1236L579.2589,212.07l-.3919.4508c-1.5414,1.7725,1.04,4.3754,2.5916,2.5916l17.4823-20.1047,9.405-10.8158a39.6106,39.6106,0,0,0,9.0375-16.299c1.2575-4.9432,2.1165-10.2149,4.1147-14.9277a32.262,32.262,0,0,1,7.8754-11.12c3.62-3.3261,7.9018-5.3711,12.379-7.2874,5.0586-2.1652,10.2117-4.1421,15.4453-5.8437,4.0075-1.3029,8.4176-2.2665,11.5184-5.3411,2.089-2.0714,3.0074-5.1661,1.0129-7.63-2.2815-2.8184-6.6492-3.29-10.0093-3.3205-9.7383-.0874-19.6461,3.1205-28.5268,6.8556a121.9766,121.9766,0,0,0-17.08,8.727c-.2806.1743-.5611.3491-.8374.53-1.9658,1.2866-.1314,4.4615,1.85,3.1647Z"/><line class="cls-1" x1="513.975" y1="292.7515" x2="492.5572" y2="318.1619"/><path d="M512.6792,291.4557l-18.764,22.2619-2.6538,3.1485c-1.511,1.7927,1.0689,4.3982,2.5916,2.5916l18.764-22.2619,2.6538-3.1485c1.511-1.7927-1.0689-4.3981-2.5916-2.5916Z"/><path class="cls-3" d="M664.1157,256.385l-20.8209-.0818a103.395,103.395,0,0,0-38.8843,7.4259L539.429,291.378,596.3445,237.81l-28.04-9.8513a201.3891,201.3891,0,0,1-24.3154-18.3509,197.8561,197.8561,0,0,1-22.3577-22.573L439.5475,271.29c-19.7348,21.008-21.9058,56.5027-5.0869,79.91l0,0c15.0542,20.9516,41.363,33.6117,74.8364,25.551l156.2392-47.9878Z"/><path d="M664.1157,254.5524c-6.94-.0272-13.8792-.0663-20.8189-.0817a104.7349,104.7349,0,0,0-41.137,8.24l-19.4506,8.276-27.63,11.7562-10.8557,4.619c-1.7981.7651-3.7363,1.41-5.4651,2.3253-.0805.0426-.1705.0726-.2544.1083l2.2207,2.8781,19.2338-18.1024,30.6521-28.8492,7.03-6.6161a1.8529,1.8529,0,0,0-.8087-3.0629l-21.7252-7.6326-4.938-1.7349a13.6635,13.6635,0,0,1-3.53-1.9676,202.8879,202.8879,0,0,1-22.1005-17.0488,192.9009,192.9009,0,0,1-21.6109-21.92,1.8479,1.8479,0,0,0-2.5916,0l-5.04,5.1734-12.866,13.2064-17.2244,17.68-18.3773,18.8635-16.0756,16.5008L440.39,267.8a66.6946,66.6946,0,0,0-10.2734,13.1815,68.8055,68.8055,0,0,0-5.3821,55.0221,63.5793,63.5793,0,0,0,3.7312,8.889q1.0473,2.0413,2.2541,3.9956c.8258,1.336,1.7705,2.6276,2.4464,3.634a62.1977,62.1977,0,0,0,11.8677,12.7523,67.0349,67.0349,0,0,0,15.09,9.5328,72.6324,72.6324,0,0,0,38.0187,5.7433,78.2532,78.2532,0,0,0,14.4837-2.9046l11.7323-3.6035,18.514-5.6864,23.0807-7.0891,25.1756-7.7325L616,345.8954l22.0745-6.78,17.0962-5.251,9.6065-2.9506,1.2467-.3829a1.8728,1.8728,0,0,0,1.3453-1.7671l-.4813-24.5227-.7639-38.9222-.1753-8.9339c-.0463-2.3554-3.7115-2.3633-3.6651,0l.4813,24.5227.7639,38.9222.1754,8.9339,1.3453-1.767-5.0324,1.5456-13.5422,4.1594-19.616,6.0249-23.5537,7.2344-25.0789,7.7028-24.2721,7.455L532.82,367.61l-15.6049,4.7929-7.9023,2.4271a58.82,58.82,0,0,1-9.0258,1.789,75.11,75.11,0,0,1-20.1252.1687,64.0034,64.0034,0,0,1-32.2844-13.8955,60.669,60.669,0,0,1-19.8295-28.5341,65.5237,65.5237,0,0,1-.9035-36.4749,57.9429,57.9429,0,0,1,13.9434-25.5485c2.2822-2.3589,4.5809-4.7021,6.8712-7.053l13.8812-14.2484,17.5172-17.9806,18.046-18.5234,15.2109-15.6133,9.089-9.3295,1.2232-1.2555h-2.5916a188.1064,188.1064,0,0,0,19.0456,19.6351,220.9506,220.9506,0,0,0,22.5672,17.99c1.9872,1.3714,4.0629,3.1357,6.3567,3.9416l4.0268,1.4147,13.7907,4.845,9.735,3.42-.8087-3.0629L575.8149,254.617l-30.6521,28.8491-7.03,6.6161a1.8312,1.8312,0,0,0-.1433,2.4062,1.8724,1.8724,0,0,0,2.364.472l13.3277-5.6708,27.136-11.5461,21.675-9.2224a103.2445,103.2445,0,0,1,34.31-8.2068c8.7748-.5175,17.6463-.1347,26.4312-.1l.8818.0034C666.4744,258.2268,666.4775,254.5617,664.1157,254.5524Z"/><path d="M595.7867,237.81c2.4911-2.8605-7.0534-13.6488-15.7084-23.893L568.3042,227.959C579.4978,234.9939,593.317,240.6464,595.7867,237.81Z"/><path d="M597.0825,239.1061c2.6431-3.3147-1.0224-8.0822-2.962-10.8067-3.9049-5.485-8.4045-10.5416-12.7464-15.6779a1.8385,1.8385,0,0,0-2.5916,0l-11.7741,14.0417a1.8641,1.8641,0,0,0,.3709,2.8782,96.4794,96.4794,0,0,0,17.941,8.9933,29.1605,29.1605,0,0,0,7.0465,1.7956c1.6221.1616,3.5249.0384,4.7157-1.2242,1.6177-1.7152-.9692-4.3118-2.5916-2.5916-.0972.1031-.36.264-.005.03-.1548.102-.3955.0717-.0549.0428-.1224.01-.2407.0855-.3653.0978-.199.02.2688-.0161-.0916.0185a8.3012,8.3012,0,0,1-2.0587-.1049,34.0063,34.0063,0,0,1-6.6093-1.9692,94.9877,94.9877,0,0,1-16.077-8.2528l.3709,2.8781,11.7741-14.0417h-2.5916c3.8248,4.5247,7.7684,8.9808,11.3028,13.74a38.6835,38.6835,0,0,1,3.5322,5.436,7.9472,7.9472,0,0,1,.7035,1.8556c.0916.39.0116-.0226.03.507-.0033-.0961-.0164-.0411.14-.2376a1.8923,1.8923,0,0,0,0,2.5916A1.8438,1.8438,0,0,0,597.0825,239.1061Z"/><path class="cls-2" d="M784.9546,785.0749l13.2082,89.99-123.454,18.527s-7.35-34.6641,38.0283-45.32a16.7207,16.7207,0,0,0,12.743-18.9031c-1.75-10.9166-5.26-32.4458-5.26-32.4458"/><path d="M783.1876,785.5621l1.3115,8.9359,3.15,21.4644,3.8131,25.9794,3.3,22.48,1.0935,7.45a34.7131,34.7131,0,0,0,.5162,3.5172,1.6267,1.6267,0,0,1,.0239.1625l1.28-2.2542-12.2911,1.8446-29.5122,4.4289L720.3,884.91l-30.8665,4.6322-10.2005,1.5308c-1.5754.2364-3.2528.3386-4.8015.7206-.0677.0167-.1407.0211-.21.0315l2.2543,1.28c-.043-.204-.0718-.41-.1074-.6158-.1181-.6819.0291.357-.04-.2827-.036-.3348-.0744-.669-.1032-1.0046a36.2016,36.2016,0,0,1,.005-6.0882q.0386-.4642.0884-.9275c.0158-.1465.0334-.2927.05-.4391.0084-.0741.0181-.148.0271-.222.0442-.3609-.0287.1961.0042-.0375q.1427-1.0143.3384-2.02a36.6433,36.6433,0,0,1,1.1767-4.49,33.8307,33.8307,0,0,1,4.7632-9.226c5.84-8.0674,15.1448-13.1181,24.5335-16.07,3.1782-.9992,6.5448-1.5134,9.587-2.8957a18.5416,18.5416,0,0,0,7.1372-5.8657,18.1594,18.1594,0,0,0,3.378-8.229,28.755,28.755,0,0,0-.542-8.7643q-2.322-14.4222-4.679-28.8388l-.1062-.6516c-.3786-2.322-3.911-1.3368-3.5342.9744q2.0848,12.786,4.1536,25.5748c.4069,2.5183.9729,5.0683,1.1909,7.6105a14.935,14.935,0,0,1-1.7649,8.5256,15.1013,15.1013,0,0,1-6.0109,5.9661c-2.8851,1.5713-6.3126,1.985-9.4276,2.9484-9.8759,3.0545-19.5107,8.17-25.9912,16.4275a38.382,38.382,0,0,0-7.8718,19.0614,29.5285,29.5285,0,0,0,.18,10.3965c.0129.0517.0195.1055.03.1577a1.8786,1.8786,0,0,0,2.2542,1.28l12.2912-1.8445,29.5121-4.429,35.5725-5.3385,30.8664-4.6322,10.2006-1.5308c1.586-.238,3.2349-.3715,4.8014-.7205.0685-.0153.14-.0211.21-.0315,1.06-.1591,1.4088-1.3764,1.28-2.2543l-1.3115-8.9358-3.15-21.4645-3.8131-25.9793-3.2995-22.4805-1.0935-7.45c-.17-1.1583-.2525-2.3754-.5162-3.5172-.0122-.0527-.016-.1089-.0239-.1625a1.8464,1.8464,0,0,0-2.2542-1.28,1.8776,1.8776,0,0,0-1.28,2.2542Z"/><path d="M748.9283,412.238s26.9571,5.1841,30.0676,20.7363-36.2885,19.181-36.2885,19.181"/><path d="M748.4411,414.0051a62.8,62.8,0,0,1,11.7134,3.608c6.1629,2.5176,12.9088,6.3151,15.9687,12.5186a12.8705,12.8705,0,0,1,.84,2.2252q.1663.592.2831,1.1958c.0154.0793.0743.4739.0325.1447.0224.1761.0366.3536.0465.5309a8.2573,8.2573,0,0,1,.0035.8632c-.0084.1687-.0211.3375-.041.5052.0436-.368-.0034-.0022-.0222.09-.0551.27-.1167.538-.1961.8026-.0378.1262-.3278.8821-.19.5674a11.8343,11.8343,0,0,1-4.8386,5.0651c-5.2057,3.3145-11.4169,4.9773-17.4391,6.2808-2.8692.6211-5.7627,1.1237-8.6692,1.5346-.1156.0163-.2313.032-.347.048-.4272.0589.3419-.0446-.0378.0051q-.3574.0468-.7152.0921-.5729.0717-1.1466.1369c-.3259.0368-.652.0731-.9787.1034-2.3289.2157-2.3514,3.8829,0,3.6651a107.8792,107.8792,0,0,0,11.1972-1.7029c6.4748-1.2968,13.1531-3.0464,18.921-6.3555,5.223-2.9965,9.382-7.8275,7.7694-14.1829-1.9519-7.6929-9.0538-12.8177-15.8432-16.0735a64.0374,64.0374,0,0,0-15.3363-5.2021c-2.3045-.4455-3.2914,3.0862-.9744,3.5341Z"/><path class="cls-4" d="M681.3725,393.6046l-4.928,138.3578a338.3591,338.3591,0,0,0,3.7607,63.7569l32.7709,211.9022,92.0594-14.0462s-24.3534-166.0554-33.48-206.4589l-1.674-176.885"/><path d="M679.54,393.6046l-.8545,23.9893-1.8228,51.1775-1.7038,47.8365c-.4612,12.9469-1.0051,25.8717-.5681,38.8327a396.579,396.579,0,0,0,4.8534,47.271l5.0822,32.8624,7.6817,49.6714,8.2672,53.4574,6.928,44.7973,3.6385,23.5272.1672,1.0814c.1633,1.0557,1.373,1.4144,2.2543,1.28l31.1549-4.7535,49.5987-7.5677,11.3058-1.725c1.06-.1617,1.409-1.3743,1.28-2.2542q-1.2943-8.8254-2.6138-17.647-3.2461-21.7858-6.5686-43.56-4.23-27.7133-8.6142-55.4024c-2.8193-17.74-5.6929-35.4728-8.75-53.1736-1.2309-7.126-2.4909-14.2473-3.83-21.3538q-.7989-4.24-1.6481-8.4711-.38-1.8792-.7776-3.7549-.176-.8271-.3566-1.6533c-.0632-.2886-.3119-1.5443-.2553-.9587-.1493-1.5448-.03-3.1643-.0446-4.714l-.1178-12.4512-.3861-40.7963-.4712-49.7929-.4179-44.155-.2257-23.8463-.0106-1.1261c-.0223-2.3571-3.6875-2.363-3.6651,0l.1588,16.7837.386,40.79.4711,49.7787.4189,44.2607.2282,24.1083c.0271,2.8644.9655,5.7042,1.5313,8.5016,1.2577,6.2187,2.4058,12.46,3.5242,18.7045,3.0073,16.7926,5.7754,33.6282,8.4915,50.47q4.5257,28.0614,8.8247,56.1589,3.6737,23.8809,7.2487,47.7769,1.8957,12.66,3.7633,25.3237.0864.587.1726,1.174l1.28-2.2543-31.155,4.7536L723.7947,804.13l-11.3058,1.725,2.2543,1.28L712.2093,790.75l-6.3016-40.7471-8.1192-52.5-7.9868-51.6439-5.9042-38.1775c-1.4007-9.0571-2.8763-18.1025-3.865-27.217-2.034-18.7506-2.1469-37.5093-1.4767-56.3257l1.5155-42.55,1.8866-52.9672,1.19-33.4012.0575-1.6149c.0841-2.359-3.5811-2.3556-3.665,0Z"/><path class="cls-1" d="M832.2328,398.7c-4.8455-15.8174-10.7647-29.4161-16.0489-37.7493l-13.3478,3.8221L754.2673,378.68l59.0519,42.93,2.822-.5452,20.8994-4.0367C835.7983,411.2733,834.19,405.0879,832.2328,398.7Z"/><path d="M834,398.2132a222.6254,222.6254,0,0,0-7.9639-21.93,114.45,114.45,0,0,0-8.27-16.2574,1.8778,1.8778,0,0,0-2.07-.8422l-19.4682,5.5745-33.1805,9.5006-9.2679,2.6536a1.8578,1.8578,0,0,0-.4377,3.3494l10.0338,7.2945,21.5084,15.6365,20.41,14.8383,5.88,4.2747c.3782.2749.75.6005,1.1535.8385,1.1309.668,3.0621-.0735,4.2747-.3077q10.1145-1.9539,20.2292-3.9073l.6954-.1343a1.863,1.863,0,0,0,1.28-2.2543c-1.34-6.1755-2.963-12.2844-4.8078-18.3278-.6866-2.2495-4.2254-1.29-3.5341.9743,1.8447,6.0435,3.4675,12.1524,4.8077,18.3278l1.28-2.2542-20.1548,3.8929-3.5666.689,1.4121.1848-19.9953-14.5365-31.82-23.1329-7.2366-5.261-.4378,3.35,24.1646-6.919,24.4027-6.9872,13.3493-3.8225-2.07-.8422c7.1991,11.41,11.92,24.4809,15.8643,37.3115C831.1568,401.4354,834.6958,400.4766,834,398.2132Z"/><path class="cls-3" d="M778.9959,431.6379c-76.6318-5.2246-159.7734-4.1086-159.7734-4.1086l26.384-153.2548c1.0318-10.18,9.0086-17.89,18.5092-17.89l29.8784,26.6233L727.51,256.3848c10.3227,0,15.7156,4.2686,20.1464,19.4181C747.6566,275.8029,774.33,381.3484,778.9959,431.6379Z"/><path d="M711.85,257.4988l15.0263.69a24.5448,24.5448,0,0,1,7.7883,1.1287,14.2356,14.2356,0,0,1,6.9082,6.2864c3.9955,6.69,5.3911,14.9335,7.2167,22.4293q4.784,19.6423,9.2391,39.3629c3.8641,17.1086,7.5477,34.2609,10.8772,51.4821,3.0667,15.8624,5.958,31.81,7.7554,47.8731q.2731,2.4412.5021,4.8871l1.8326-1.8325q-24.3287-1.1514-48.6717-1.9639-21.5625-.7259-43.1321-1.2149-17.2577-.393-34.5183-.6371-11.7451-.1646-23.4913-.2491-3.405-.0231-6.81-.0362a22.8665,22.8665,0,0,0-3.0244-.0074.9763.9763,0,0,1-.1257,0l1.7671,2.32,2.3414-13.1236,5.6223-31.5141,6.8007-38.12,5.8768-32.94c.95-5.324,1.9634-10.6411,2.85-15.976.0121-.0726.0259-.145.0388-.2175.4115-2.3064-3.12-3.2962-3.5342-.9743l-2.3413,13.1236-5.6223,31.5141-6.8008,38.12-5.8767,32.94c-.95,5.3239-1.9634,10.641-2.85,15.976-.0121.0726-.0259.145-.0388.2174a1.86,1.86,0,0,0,1.767,2.32c2.6277,0,5.2555.0148,7.8831.03q11.0136.0656,22.0266.2145,16.6524.2174,33.3026.5794,21.01.4539,42.0142,1.1272,24.1721.7768,48.3325,1.8685,3.1074.1414,6.2144.2887a1.84,1.84,0,0,0,1.8325-1.8326c-1.4858-15.9268-4.2472-31.7435-7.1926-47.4553-3.3112-17.6637-7.0369-35.2492-10.9556-52.7872q-4.6714-20.9074-9.7227-41.7278c-1.7733-7.3186-3.2119-14.9051-6.1878-21.8568-1.5468-3.6132-3.616-7.1411-6.7528-9.5963a18.1386,18.1386,0,0,0-9.8107-3.5514c-5.4324-.4784-10.9507-.49-16.3988-.74l-1.9574-.09c-2.358-.1082-2.3525,3.5571,0,3.6651Z"/><rect class="cls-3" x="606.8324" y="407.0517" width="186.3085" height="21.3797" rx="10.6898"/><path d="M782.4511,426.5989H618.3082a10.313,10.313,0,0,1-4.5407-.8272,8.9571,8.9571,0,0,1-3.1588-13.58,9.1457,9.1457,0,0,1,7.2749-3.3077c.8985-.0025,1.797,0,2.6955,0H780.3807c.6618,0,1.3241-.0069,1.9859,0a8.8575,8.8575,0,1,1,.0845,17.7146c-2.3561.0374-2.3632,3.7026,0,3.6651a12.5219,12.5219,0,0,0,2.5185-24.7866,39.2653,39.2653,0,0,0-7.318-.2582H625.769c-2.6371,0-5.2744-.0074-7.9115,0a12.8968,12.8968,0,0,0-9.0753,3.5548,12.5325,12.5325,0,0,0,8.9494,21.49c.8173.0037,1.6348,0,2.4521,0H782.4511A1.8336,1.8336,0,0,0,782.4511,426.5989Z"/><path class="cls-3" d="M706.8281,256.2242c.6918.1089,12.0672.0249,19.45-.0086,4.0231-.0183,21.2541-.8271,25.1894.0086L914.53,294.8821a44.7475,44.7475,0,0,1,38.8784,31.8563v0L911.613,359.4537l-165.1671-19.53"/><path d="M706.8281,258.0568a52.5449,52.5449,0,0,0,6.5551.0509c3.858-.01,7.7159-.0342,11.5738-.0533,5.5627-.0275,11.1214-.3054,16.6841-.363,2.716-.028,5.4533-.0669,8.1632.1525a6.4861,6.4861,0,0,1,1.4175.2046c1.0847.242,2.1638.513,3.2452.7693l16.0018,3.7937,25.22,5.979,30.2644,7.175,31.2511,7.4088,27.81,6.5931,20.3163,4.8164c2.8752.6817,5.7516,1.4924,8.6539,2.0517,2.4691.4758,4.947.6541,7.3976,1.2978a42.9022,42.9022,0,0,1,30.2589,29.2923l.4713-1.7829-14.13,11.06-22.5114,17.6207-5.1543,4.0346,1.2958-.5368L895.16,355.6757l-39.5021-4.6709-47.7665-5.648L766.8154,340.5l-13.6745-1.6169c-2.1244-.2512-4.2766-.6317-6.4131-.7583-.0939-.0056-.1884-.0223-.2819-.0334a1.8449,1.8449,0,0,0-1.8326,1.8326,1.8745,1.8745,0,0,0,1.8326,1.8325l7.5653.8946,19.8424,2.3462,27.7212,3.2778,31.5492,3.7305,31.0017,3.6658,26.0872,3.0846,17.1092,2.0231c1.2672.15,2.5364.3371,3.8075.45,1.1655.1037,1.9416-.6067,2.8186-1.2932l19.76-15.4671,19.8535-15.54,1.1424-.8942a1.79,1.79,0,0,0,.4713-1.783,47.012,47.012,0,0,0-30.797-31.2705,44.4539,44.4539,0,0,0-5.4694-1.3419c-.9794-.1755-1.9651-.3163-2.9527-.4375-.2364-.029-.4746-.0613-.7117-.0815-.027-.0023-.6119-.0757-.228-.005l-.0142-.0033c-.2233-.0379-.4456-.1057-.6657-.1579l-4.1425-.982-17.54-4.1584-26.3449-6.2457-30.8782-7.32-31.2543-7.41L777.07,260.4112l-18.81-4.4593a58.2214,58.2214,0,0,0-8.3644-1.7655c-5.96-.5054-12.0448-.1156-18.0131.0575-6.22.18-12.44.1844-18.6625.1991a51.28,51.28,0,0,1-6.3921-.0513,1.844,1.844,0,0,0-1.8326,1.8325,1.8761,1.8761,0,0,0,1.8326,1.8326Z"/><path class="cls-1" d="M895.3164,338.2933,754.2673,378.68l59.0518,42.93,103.82-20.053c30.6647-11.4623,45.9814-43.4756,36.27-74.8186v0"/><path d="M894.8293,336.5262,880.8,340.5433,847.1086,350.19l-40.7578,11.67-35.2291,10.0871c-5.6921,1.63-11.464,3.0959-17.105,4.8976-.078.0249-.1578.0452-.2366.0678a1.8578,1.8578,0,0,0-.4377,3.3494l12.806,9.31,25.5757,18.5934L810.77,422.0113c1.1141.81,1.8413,1.5777,3.3247,1.31,1.6016-.2887,3.197-.6175,4.7948-.9261l23.0034-4.4432,31.5236-6.0889,28.7627-5.5556c5.0164-.9689,10.0735-1.8194,15.0653-2.91a21.7046,21.7046,0,0,0,3.8792-1.4917,61.0229,61.0229,0,0,0,36.4624-64.5678,72.1242,72.1242,0,0,0-2.41-11.0871c-.6684-2.2564-4.2066-1.2957-3.5342.9743a61.8119,61.8119,0,0,1,1.7053,29.9168,56.9365,56.9365,0,0,1-23.5055,35.7521,61.3029,61.3029,0,0,1-6.6562,3.9916,34.7809,34.7809,0,0,1-6.5362,2.9045c-1.8.4875-3.714.7173-5.5436,1.0707l-33.3668,6.4449-41.3389,7.9848-15.44,2.9823c-2.5807.4985-5.2242.8753-7.7777,1.5023-.1147.0282-.2332.0451-.3492.0675l1.4121.1847-19.9954-14.5365-31.82-23.1329-7.2366-5.261-.4378,3.3494,14.0294-4.017,33.6913-9.6468,40.7578-11.67,35.2291-10.0871c5.6922-1.63,11.464-3.0959,17.105-4.8976.078-.025.1578-.0452.2366-.0678,2.2635-.6481,1.3011-4.1857-.9743-3.5342Z"/><path class="cls-5" d="M762.5986,521.5857a37.05,37.05,0,0,0,8.3279-.9539l-.6829-72.1623a36.9576,36.9576,0,1,0-7.645,73.1162Z"/><path d="M762.5986,523.4182a41.5379,41.5379,0,0,0,8.8151-1.0193,1.8528,1.8528,0,0,0,1.3454-1.7671l-.2309-24.3974-.3679-38.8683-.0842-8.8966a1.8578,1.8578,0,0,0-1.3453-1.7671,39.3545,39.3545,0,0,0-26.5643,3.79,38.7938,38.7938,0,0,0,18.4321,72.9257c2.3587.011,2.3616-3.6541,0-3.6651a35.1268,35.1268,0,1,1,7.1578-69.5165L768.411,448.47l.2309,24.3974.3679,38.8683.0842,8.8966,1.3454-1.7671a36.7824,36.7824,0,0,1-7.8408.8884C760.241,519.7685,760.2358,523.4336,762.5986,523.4182Z"/><path class="cls-1" d="M786.0466,369.755l-69.2248,18.4981c-8.9749,2.341-9.4818,14.9589-.695,17.9288,3.6312,1.2273,12.5667,1.0677,19.1591.7015,0,0,5.2946,37.4894,6.9317,69.7809,32.0176,9.87,34.4849-5.4851,39.3644-45.6554l39.8928-10.9141"/><path d="M785.56,367.9879l-12.2056,3.2615-26.0232,6.9539-23.9506,6.4c-4.9672,1.3273-10.9045,2.0626-13.7961,6.8749a11.4253,11.4253,0,0,0,1.9078,14.07,13.3123,13.3123,0,0,0,7.69,3.0835,73.549,73.549,0,0,0,10.5417.3088c1.8553-.0445,3.71-.1236,5.5625-.2248l-1.7671-1.3454c.222,1.5727.3214,2.3342.496,3.653q.712,5.3754,1.3629,10.7587c1.3464,11.0923,2.5349,22.2054,3.4971,33.3378.62,7.1726,1.1424,14.354,1.51,21.5442a1.8941,1.8941,0,0,0,1.3453,1.767c8.3451,2.559,19.4514,5.3938,27.2834-.1219,7.4191-5.2248,9.5543-15.4029,11.0976-23.7613,1.4385-7.7909,2.3478-15.6781,3.3031-23.5392l-1.3453,1.7671c13.1492-3.5974,26.3655-7.0118,39.4628-10.7965.1427-.0412.2867-.0784.43-.1176a1.8341,1.8341,0,0,0-.9744-3.5341L802.1207,423.49l-21.0259,5.7523a1.9033,1.9033,0,0,0-1.3453,1.7671c-.8157,6.7123-1.613,13.434-2.7382,20.1031a81.5449,81.5449,0,0,1-3.5862,14.7555,20.7857,20.7857,0,0,1-5.4662,8.6488q-.218.19-.4432.3712c-.2759.2215-.0782.06-.0192.0161-.0875.0657-.1758.1311-.2654.1939-.3369.2358-.6792.462-1.0338.6707a12.169,12.169,0,0,1-1.9009.9212,16.1241,16.1241,0,0,1-4.9937,1.0035c-5.6313.3108-11.2566-1.1579-16.5979-2.7957l1.3453,1.7671c-1.112-21.7392-3.4455-43.4334-6.2869-65.01-.2309-1.7534-.4631-3.5068-.71-5.258a1.8287,1.8287,0,0,0-1.7671-1.3454c-3.5585.1943-7.1255.3156-10.69.2466-2.7205-.0527-5.8316.0165-8.3994-1.0346a7.5871,7.5871,0,0,1-3.75-10.3906c1.2057-2.37,3.3231-3.4408,5.7643-4.0932l6.0672-1.6212,22.8274-6.1,25.379-6.7818c4.6-1.2291,9.2819-2.2976,13.8338-3.6966.0709-.0218.1437-.0384.2154-.0576,2.2764-.6083,1.3106-4.1447-.9743-3.5341Z"/><path class="cls-1" d="M773.557,428.7094c.1874,8.1393-7.898,24.533-13.1584,37.2055s7.5618,18.948,16.1762,7.5213c9.6915-13.275,10.5118-31.7861,12.0085-40.6672.6032-3.5791,6.6357-5.3289,10.4951-6.3589l37.763-10.0407"/><path d="M771.7245,428.7094a27.646,27.646,0,0,1-1.5981,8.4171c-1.13,3.6582-2.5348,7.23-3.9937,10.7673-1.5973,3.8734-3.2913,7.706-4.9554,11.5509-1.4916,3.4462-3.3488,6.9325-3.7595,10.7122-.6137,5.6471,2.9979,10.9784,8.9557,11.0963,7.3283.145,12.2375-6.7117,15.2454-12.5147,3.5238-6.7986,5.4841-14.279,6.7591-21.7939.5383-3.1722.9532-6.3627,1.3742-9.552.1584-1.2.3191-2.4.51-3.5961a3.66,3.66,0,0,1,1.783-2.7378c2.8942-1.9426,6.5114-2.6132,9.8458-3.5l11.665-3.1016c7.7735-2.0668,15.5918-4.0107,23.3308-6.2034.1466-.0415.2947-.0783.4419-.1175,2.2773-.6055,1.3113-4.1418-.9743-3.5341l-19.484,5.1806c-6.6146,1.7587-13.2727,3.4017-19.8511,5.2934-2.9814.8573-6.4438,1.9333-8.6173,4.2813-1.9074,2.06-1.9108,4.9871-2.2611,7.63A133.1067,133.1067,0,0,1,782.4974,456.5a56.2455,56.2455,0,0,1-4.2226,10.7316c-1.6628,3.1457-3.6408,6.4757-6.62,8.5459-3.7644,2.616-9.2745,2.5774-10.4694-2.5265-.72-3.0746.654-6.1062,1.8312-8.8723,1.5831-3.72,3.2208-7.416,4.809-11.1336,2.8194-6.5994,5.9613-13.4438,7.1908-20.5641a21.647,21.647,0,0,0,.3731-3.9713c-.0323-2.3564-3.6975-2.3631-3.6651,0Z"/><path class="cls-1" d="M776.1,423.1244s.9113,29.7607-9.6754,48.7566c-6.7445,11.6669-19.6468,7.0048-16.2286-5.5072s8.0226-31.4151,6.8445-39.0967"/><path d="M774.2672,423.1244a116.353,116.353,0,0,1-.4194,12.5221,107.727,107.727,0,0,1-4.873,25.7657c-1.3593,4.0648-2.9812,8.7408-5.86,12-2.049,2.32-5.0931,4.0373-8.0266,3.0485-2.6615-.8972-3.76-3.9486-3.6072-6.8205a32.7376,32.7376,0,0,1,1.4719-6.4636q.9093-3.4442,1.7561-6.9044c1.3335-5.4683,2.5613-10.9756,3.4273-16.5394.6611-4.2478,1.2939-8.6542.6713-12.9434a1.8463,1.8463,0,0,0-2.2543-1.28,1.8779,1.8779,0,0,0-1.28,2.2542,27.6157,27.6157,0,0,1,.0321,4.9193c-.1466,2.2111-.4348,4.41-.7857,6.5972-.8233,5.1317-1.9436,10.2151-3.1625,15.2658q-.9266,3.8388-1.9386,7.6563a40.1623,40.1623,0,0,0-1.5828,7.1306c-.2816,3.6973,1.023,7.5766,4.2128,9.6829,3.067,2.0252,7.051,1.6784,10.1389-.1011,4.1181-2.3731,6.3781-6.7375,8.1873-10.9514,3.8152-8.8862,5.7039-18.4694,6.7408-28.0475a122.576,122.576,0,0,0,.8169-16.7919c-.0705-2.3532-3.7359-2.3632-3.6651,0Z"/><path class="cls-1" d="M764.03,422.9065s2.05,29.7149-7.803,49.0272c-6.2939,11.8688-19.367,7.6089-16.43-5.0015s7.3895-34.4876,5.918-42.1282"/><path d="M762.1978,422.9065a118.3515,118.3515,0,0,1,.0123,13.63,101.1073,101.1073,0,0,1-4.6424,27.428c-1.3565,4.0362-2.99,8.8144-6.4949,11.5061a7.5579,7.5579,0,0,1-4.1712,1.6273,5.1845,5.1845,0,0,1-3.376-1.0492c-2.8464-2.2556-2.4992-6.2917-1.7615-9.49q1.577-6.8376,2.9206-13.7268c1.0524-5.4357,1.993-10.9015,2.6234-16.4038.4551-3.9724.9056-8.1436.1745-12.1113-.4269-2.3164-3.96-1.3352-3.5342.9744a5.3777,5.3777,0,0,1,.1075.723c.039.3886.0665.778.0852,1.1681.0429.8976.0395,1.7974.0136,2.6954-.0614,2.1352-.2532,4.2663-.4933,6.388-.5711,5.0476-1.4489,10.0615-2.4062,15.0485q-1.403,7.3092-3.0922,14.56c-.9506,4.1081-.9727,8.6737,1.9907,12.0047a9.0454,9.0454,0,0,0,9.6127,2.3825c4.4824-1.5151,7.2386-5.46,9.0951-9.6013,4.1542-9.2671,5.9166-19.4659,6.7222-29.5326a123.711,123.711,0,0,0,.2792-18.2211c-.16-2.34-3.8262-2.3582-3.6651,0Z"/><path class="cls-1" d="M735.2859,401.8614s1.2369,45.3564-3.9859,66.1878c-5.2688,18.0034,20.6522,19.86,20.4762-46.736"/><path d="M733.4534,401.8614c.2366,8.7282.1735,17.4748-.058,26.2018-.3553,13.3973-.79,27.189-4.0654,40.2446-1.0226,4.0754-.9669,11.0025,4.2986,12.1575,5.9625,1.3079,10.3355-5.9644,12.4025-10.3834a68.5173,68.5173,0,0,0,4.9333-16.062A156.4422,156.4422,0,0,0,753.51,428.911c.0748-2.5319.1029-5.0648.0985-7.5978a1.8336,1.8336,0,0,0-3.6651,0,181.3637,181.3637,0,0,1-1.6132,26.3907,84.8973,84.8973,0,0,1-4.197,17.4864,37.2164,37.2164,0,0,1-2.54,5.5185c-.4151.732-.8593,1.448-1.3413,2.138-.1073.1536-.2182.3043-.3273.4567-.0531.0742-.109.1465-.1637.22-.1552.207.1994-.2519.0408-.0525-.2378.2989-.4812.5928-.7364.877a16.4006,16.4006,0,0,1-1.3386,1.3126c-.1032.0915-.2131.1758-.3205.2622.4658-.375.0417-.0318-.0663.039-.2207.1449-.4365.2943-.666.4257-.2006.1149-.4093.21-.6141.3162-.2073.1077.4551-.15.0613-.0278-.1244.0385-.2452.0888-.37.1263-.19.0572-.3883.0847-.578.14-.3877.1123.4-.0193.1358-.0165-.1142.0013-.2286.0262-.3432.02-.1759-.0092-.3548-.02-.5306-.0266.5905.0215.1631-.0033-.1412-.0668-.0827-.0173-.1585-.0608-.24-.0829-.2308-.0629.4439.2705.1484.0575a3.6305,3.6305,0,0,0-.4647-.2749c-.2765-.1376.3266.32.1144.0911-.0587-.0632-.1355-.1113-.1957-.1738-.099-.1026-.5078-.5661-.286-.2887.225.2814-.1264-.193-.1965-.3086-.11-.181-.1928-.3738-.2946-.5584-.2008-.3639.1216.3464.0336.08-.0377-.1141-.088-.2239-.1214-.34-.066-.2285-.1369-.4538-.19-.6859s-.09-.4639-.13-.6971c.12.6836-.0163-.2419-.0279-.4515a12.6657,12.6657,0,0,1,.031-1.7564c.0124-.1472.0294-.2939.044-.4409.0464-.4684-.0335.1807.01-.0781.0558-.333.1116-.665.1818-.9954.497-2.3394,1.1094-4.6392,1.5177-7.0014.5637-3.2619.9844-6.55,1.3318-9.8415.7523-7.1289,1.1476-14.2947,1.3927-21.4575q.5007-14.6277.1791-29.2794-.0059-.2535-.0124-.5071c-.0639-2.3538-3.7292-2.3632-3.6651,0Z"/><path class="cls-3" d="M705.5723,888.96l92.59-13.8953-3.7871-25.8029-.3548-2.4169L781.81,848.6775a13.0383,13.0383,0,0,0-10.5927,9.2808h0a13.0391,13.0391,0,0,1-10.5927,9.2808L709.06,873.9269l-.0627-.1986a37.2258,37.2258,0,0,0-11.6665-17.3877l-1.6628-1.3856-1.1976.2054c-12.652,7.1984-17.5516,17.0007-19.3057,24.9061q-.0782.3519-.1479.6984l-.0048.0239a36.8146,36.8146,0,0,0-.5053,11.4987l0,.0026q.0171.1372.0337.2613l.0012.0086c.0419.3114.0806.5544.11.7277l.0089.0516.0128.0714.011.06.0073.0384.0106.0542.0009.0045.0049.0241Z"/><path d="M706.06,890.7272l9.1753-1.377,22.1643-3.3262,26.7024-4.0073,23.1-3.4667,7.6572-1.1491c1.1962-.1795,2.455-.2677,3.6336-.5453.0513-.0121.1057-.0159.1579-.0237,1.06-.1591,1.4088-1.3764,1.28-2.2543l-3.5671-24.3038-.5748-3.916c-.1554-1.0582-1.38-1.4112-2.2543-1.28L782.44,846.7427a16.7947,16.7947,0,0,0-6.4243,2.1239,15.1773,15.1773,0,0,0-6.5659,8.6045l1.7671-1.3453h0a1.8748,1.8748,0,0,0-1.7671,1.3453,11.31,11.31,0,0,1-7.5935,7.623,14.4,14.4,0,0,1-2.6143.4917l-10.791,1.4-31.5193,4.088-7.8717,1.0209,1.767,1.3454a39.7854,39.7854,0,0,0-8.8445-15.2251,48.1583,48.1583,0,0,0-4.9127-4.4671c-2.0369-1.65-4.7827.5176-6.4991,1.6622-8.3767,5.5861-14.7268,13.801-17.0606,23.6782a35.6554,35.6554,0,0,0-.5685,14.9912,1.8779,1.8779,0,0,0,2.2542,1.28l27.0154-4.0543,3.8482-.5775a1.8469,1.8469,0,0,0,1.28-2.2543,1.8771,1.8771,0,0,0-2.2543-1.28L678.07,891.2473l-3.8482.5775,2.2543,1.28a2.5294,2.5294,0,0,1-.0564-.3042c-.0107-.14-.1464-1.0669-.08-.5118-.0253-.2115-.05-.423-.0709-.6349a34.8917,34.8917,0,0,1-.1491-4.5086,35.5764,35.5764,0,0,1,1.6165-9.6042,34.5076,34.5076,0,0,1,9.3033-14.6938,39.8967,39.8967,0,0,1,4.8581-3.9187,27.4422,27.4422,0,0,1,2.9172-1.85,4.4941,4.4941,0,0,1,1.3407-.3567l-1.783-.4713a45.6206,45.6206,0,0,1,7.1809,7.0853,35.8848,35.8848,0,0,1,5.74,11.0779,1.8546,1.8546,0,0,0,1.7671,1.3454l21.9523-2.8471,28.1859-3.6557a20.8011,20.8011,0,0,0,4.2957-.8413,15.15,15.15,0,0,0,9.49-9.97l-1.7671,1.3453h0a1.8748,1.8748,0,0,0,1.7671-1.3453,11.3834,11.3834,0,0,1,6.0892-7.0684,17.86,17.86,0,0,1,4.996-1.1985l10.4387-1.5666-2.2542-1.28q1.7921,12.2083,3.5838,24.4168l.5582,3.8031,1.28-2.2543-9.1754,1.377-22.1642,3.3262-26.7024,4.0073-23.1,3.4667-7.6573,1.1491c-1.1962.1795-2.455.2677-3.6335.5453-.0513.0121-.1058.0159-.158.0237a1.8469,1.8469,0,0,0-1.28,2.2543A1.8771,1.8771,0,0,0,706.06,890.7272Z"/><path d="M724.1851,841.4916c.0536.0031.1072.0085.1606.0139.0584.0059.117.0164.1754.02.1185.0081-.5986-.0892-.3507-.0468.0521.0089.1046.0157.1567.0242a11.17,11.17,0,0,1,1.5319.3651c.3274.1022.6451.2256.9652.3482.2007.0768-.4072-.1817-.211-.0887.0377.0179.0768.0332.1146.0507.0772.0359.1549.0707.2317.1073q.2992.1428.59.3032a10.6336,10.6336,0,0,1,1.0776.6818c.04.0288.0788.06.1194.0876.1868.1282-.3085-.25-.1329-.1042.0781.0649.1585.1271.2363.1924q.3.2521.58.527.2916.2865.559.5964.0547.0634.1086.1278c.0418.05.2481.3175.07.08-.1718-.2291.0885.1229.1331.1858a10.9147,10.9147,0,0,1,.984,1.7168,1.8406,1.8406,0,0,0,2.5073.6574,1.8838,1.8838,0,0,0,.6574-2.5073,12.4078,12.4078,0,0,0-8.9951-6.8354,10.7459,10.7459,0,0,0-1.2691-.1688,1.8441,1.8441,0,0,0-1.8326,1.8326,1.8742,1.8742,0,0,0,1.8326,1.8325Z"/><path d="M717.7762,847.6306c.051.0179.1007.0391.1512.058.3189.1191-.4739-.21-.2454-.1038.08.0372.1612.0719.2411.11a11.1844,11.1844,0,0,1,1.3779.7783q.2008.1323.396.2729c.0684.0492.1345.1024.2039.15.152.1046-.2625-.2069-.2236-.1738.048.0408.1.0782.1487.1177a11.2449,11.2449,0,0,1,.8721.7795c.3156.3135.5889.6561.8808.99.019.0218-.2542-.3462-.1459-.1868.0351.0517.0744.1006.1109.1513q.097.135.19.2732.2043.3046.3858.6237.2143.3766.3956.7707c.0217.0474.0408.0969.0643.1434.1011.2-.1538-.3978-.0412-.095.05.1356.1037.27.1513.4067a10.9176,10.9176,0,0,1,.4681,1.911,1.8388,1.8388,0,0,0,2.2543,1.28,1.8877,1.8877,0,0,0,1.28-2.2543,12.4051,12.4051,0,0,0-6.7886-9.04,10.5788,10.5788,0,0,0-1.1527-.4959,1.844,1.844,0,0,0-2.2542,1.28,1.878,1.878,0,0,0,1.28,2.2542Z"/><path d="M706.9824,851.48c.051.0179.1006.0391.1512.058.3189.1191-.4739-.21-.2454-.1039.08.0373.1612.072.241.11a11.1856,11.1856,0,0,1,1.378.7783q.2007.1323.396.2729c.0684.0492.1345.1024.2038.15.152.1046-.2624-.2069-.2235-.1738.048.0408.0995.0782.1486.1177a11.2082,11.2082,0,0,1,.8721.7795c.3156.3135.589.6561.8808.99.0191.0218-.2541-.3462-.1458-.1868.035.0517.0744.1006.1108.1513q.0972.135.19.2732.2042.3047.3858.6237.2142.3767.3955.7707c.0218.0474.0408.0969.0644.1434.1011.2-.1538-.3978-.0412-.095.05.1356.1037.27.1513.4067a10.9176,10.9176,0,0,1,.4681,1.911,1.8387,1.8387,0,0,0,2.2542,1.28,1.8878,1.8878,0,0,0,1.28-2.2543,12.4056,12.4056,0,0,0-6.7886-9.0405,10.5788,10.5788,0,0,0-1.1527-.4959,1.844,1.844,0,0,0-2.2542,1.28,1.8779,1.8779,0,0,0,1.28,2.2542Z"/><path class="cls-3" d="M693.8215,288.2336l-7.1454-32.972c-1.0248-4.7291-5.027-9.3442-9.8506-9.7283l-15.0721-1.2c-6.3818-.5082-14.631,3.815-14.631,10.217v1.674l14.22,3.3a20.0635,20.0635,0,0,1,13.72,13.0022l13.3518,30.0114"/><path d="M695.5886,287.7464l-6.4555-29.7887c-.2792-1.2882-.5077-2.6028-.8609-3.8741-1.316-4.7369-5.23-9.367-10.26-10.2314-2.2538-.3873-4.6019-.4233-6.8766-.6044l-8.6653-.69a18.3776,18.3776,0,0,0-11.4864,2.7976,12.8153,12.8153,0,0,0-4.8023,5.2555,12.9676,12.9676,0,0,0-.892,5.6134,1.86,1.86,0,0,0,1.3453,1.7671l11.9984,2.7845a23.5106,23.5106,0,0,1,5.8051,1.918,18.5127,18.5127,0,0,1,7.93,8.0847c.6475,1.2849,1.1092,2.6693,1.6957,3.9876l2.181,4.9024,6.385,14.3519,4.2009,9.4425a1.8477,1.8477,0,0,0,2.5073.6574,1.8754,1.8754,0,0,0,.6574-2.5072l-10.0686-22.6317-2.4565-5.5216c-.5032-1.1311-.8589-2.0813-1.2436-3.001A21.9759,21.9759,0,0,0,661.05,257.5762l-13.44-3.1191,1.3453,1.7671a9.6077,9.6077,0,0,1,.4505-3.8977,9.1406,9.1406,0,0,1,3.701-3.98,14.9116,14.9116,0,0,1,9.1531-2.1408c4.8266.3844,9.6868.6265,14.5,1.1546,4.0817.4479,7.1285,4.2606,8.07,8.0424.2781,1.1177.4938,2.2539.7377,3.3793l3.65,16.8416,2.8382,13.0968c.4993,2.3041,4.0333,1.329,3.5342-.9743Z"/><path class="cls-3" d="M908.265,334.3438l-92.0811,26.6073c5.2842,8.3332,16.37,40.1589,21.2155,55.9763,1.9567,6.3875,2.79,26.2258-1.116,34.5958l90.3955-28.4579c54.1257-20.6459,54.1257-60.2636,41.2918-91.5115h0a73.2437,73.2437,0,0,0-46.7064-35.4087l-2.282-.5512-15.6435-3.3649"/><path d="M907.7778,332.5767l-9.1658,2.6485-22.0086,6.36-26.5027,7.6581L827.07,355.8977c-3.7276,1.0771-7.5277,2.0215-11.2125,3.24-.0528.0175-.1072.031-.1606.0464a1.8508,1.8508,0,0,0-1.0952,2.692c2.5746,4.0942,4.3651,8.743,6.1658,13.2112,2.6037,6.4607,5.0009,13.005,7.3148,19.5743q3.3753,9.5828,6.4626,19.265a48.8894,48.8894,0,0,1,1.83,6.8743,69.9821,69.9821,0,0,1,.7771,8.88,85.4548,85.4548,0,0,1-.3379,11.5969,30.103,30.103,0,0,1-2.1132,9.32c-.617,1.35.4141,3.2131,2.0695,2.692l10.7655-3.3892,25.08-7.8955,28.57-8.9943,21.2363-6.6855a106.9783,106.9783,0,0,0,20.5478-8.811c11.0389-6.2251,21.0311-14.8238,27.1355-26.0781a58.3221,58.3221,0,0,0,6.6522-30.59,81.0357,81.0357,0,0,0-2.3382-15.6029q-.93-3.7581-2.1664-7.4312a42.2848,42.2848,0,0,0-9.2981-17.0173,73.2531,73.2531,0,0,0-7.7565-8.4229,74.966,74.966,0,0,0-18.9217-12.8387c-9.2052-4.349-19.022-6.1827-28.8877-8.3048l-3.5634-.7665c-2.3-.4947-3.2828,3.0376-.9744,3.5342,7.0164,1.5092,14.1578,2.7532,21.0589,4.747a71.7953,71.7953,0,0,1,36.6855,24.9406c1.1384,1.4732,2.2113,3,3.2284,4.5587q.78,1.1949,1.5119,2.42.3428.5728.6753,1.1519c.1254.2186.2616.44.3768.6647-.1826-.3567-.0264-.0561.0526.1448.9253,2.3552,1.8157,4.7182,2.5955,7.1264a87.2513,87.2513,0,0,1,3.4944,14.9254,58.8639,58.8639,0,0,1-3.0149,29.3985c-4.2306,10.8666-12.3738,19.7259-21.9048,26.247a91.5953,91.5953,0,0,1-24.0023,11.7906l-18.4212,5.7993L877.66,436.5766l-26.33,8.2891-14.83,4.6688-.7039.2216,2.0695,2.692c2.6964-5.9009,2.9971-12.9121,3.0079-19.3007.01-5.8183-.2334-11.9436-1.9634-17.54-4.0979-13.2557-8.6534-26.413-13.7426-39.3211-2.1581-5.4737-4.2541-11.2555-7.4014-16.26l-1.0952,2.692,9.1659-2.6485,22.0086-6.36,26.5026-7.6581,23.0309-6.6549c3.7277-1.0771,7.5278-2.0215,11.2126-3.24.0528-.0175.1071-.031.1605-.0464,2.2617-.6535,1.3-4.1913-.9743-3.5342Z"/><path d="M836.6811,451.6785c4.5636-1.398,4.2541-16.3435.16-35.3091l-21.7619,5.58C822.5294,441.1267,831.9415,453.13,836.6811,451.6785Z"/><path d="M837.1683,453.4456c4.5461-1.5206,4.6349-8.33,4.67-12.2026.0775-8.5046-1.4526-17.0762-3.23-25.3608a1.8577,1.8577,0,0,0-2.2542-1.28l-19.0155,4.8758-2.7464.7041a1.8428,1.8428,0,0,0-1.28,2.2543,111.286,111.286,0,0,0,9.6233,19.5758c2.4395,3.8152,5.3373,8.0468,9.2912,10.4494a6.3357,6.3357,0,0,0,4.9414.9839c2.2664-.64,1.3033-4.177-.9743-3.5342-.1525.043-.6273.07-.0847.0431a2.2327,2.2327,0,0,1-.4862.001c-.2921-.0518.3466.137-.1546-.0388-.1768-.062-.3616-.1038-.5391-.1664-.2507-.0884.1676.1047-.2665-.1252-.1471-.0779-.2938-.1556-.4378-.2394-.3039-.1769-.9207-.6018-1.0054-.6673a26.9508,26.9508,0,0,1-5.1023-5.5866,96.5006,96.5006,0,0,1-11.2708-21.67l-1.28,2.2542,19.0156-4.8758,2.7463-.7042-2.2542-1.28a118.8111,118.8111,0,0,1,3.0953,23.1089,28.478,28.478,0,0,1-.5962,7.29,6.66,6.66,0,0,1-.8024,2.0793c-.0516.0882-.33.4361-.0534.1058a3.1769,3.1769,0,0,1-.3245.3458c-.3539.3133.2158-.1316-.0829.06-.4275.2745.1667-.0295-.1162.0652C833.9683,450.6558,834.9225,454.1967,837.1683,453.4456Z"/><line x1="565.3791" y1="266.9543" x2="503.1592" y2="323.7419"/><path d="M564.0833,265.6585l-21.1252,19.2808-33.4259,30.5075-7.6688,6.9993c-1.746,1.5935.8517,4.18,2.5916,2.5916L525.58,305.7569l33.4259-30.5075,7.6688-6.9993c1.7459-1.5935-.8517-4.18-2.5916-2.5916Z"/><path class="cls-3" d="M712.966,284.6821l5.2477-6.9269a33.7974,33.7974,0,0,1,23.016-13.16l28.652-3.3489-.98-3.6263a20.674,20.674,0,0,0-22.1324-15.1652l-26.8234,2.8371A20.6739,20.6739,0,0,0,702.3184,259.91L688.4142,302.538l-6.753,103.5975"/><path d="M714.5484,285.607c2.0776-2.7425,4.0546-5.6065,6.3021-8.2139a32.3754,32.3754,0,0,1,18.3774-10.645c2.6812-.518,5.44-.7223,8.1492-1.0389l13.612-1.5911,8.8926-1.0394a1.8627,1.8627,0,0,0,1.7671-2.32,51.8527,51.8527,0,0,0-1.8353-6.14,22.4777,22.4777,0,0,0-6.1488-8.6235,22.7546,22.7546,0,0,0-17.11-5.3508c-7.9628.8221-15.9218,1.684-23.8825,2.526-4.3435.4594-8.4981,1.1433-12.3109,3.49a23.4124,23.4124,0,0,0-9.9262,13.1179c-2.2847,7.0711-4.6088,14.13-6.9132,21.1946l-4.3447,13.32c-.81,2.4827-1.7276,4.9563-2.4366,7.47a11.8606,11.8606,0,0,0-.2686,2.454l-.4243,6.5093L684.5152,334.24l-1.9408,29.774-1.7479,26.8141-.9538,14.6326-.044.6751c-.1535,2.3549,3.5122,2.3456,3.6651,0l.65-9.9728,1.5612-23.9508,1.9156-29.3876,1.6872-25.8843.9032-13.8555a4.2751,4.2751,0,0,0,.0288-.4417c-.0141-.3429-.1031.3783-.0471.3468.2664-.15.5047-1.5471.5944-1.8221l3.2765-10.0451,8.4244-25.8275c.6239-1.9128,1.2117-3.8426,1.8719-5.7433a19.0094,19.0094,0,0,1,14.841-12.3242c2.7608-.45,5.59-.6156,8.37-.91L741.61,244.833c3.2508-.3439,6.66-.9566,9.92-.4991a19.0117,19.0117,0,0,1,14.9454,11.7486,56.8386,56.8386,0,0,1,1.64,5.6509l1.7671-2.32-21.659,2.5315c-2.6854.3139-5.38.5849-8.0585.9561A35.6975,35.6975,0,0,0,720.1,272.83c-3.2912,3.253-5.9284,7.2468-8.7163,10.9269a1.8454,1.8454,0,0,0,.6574,2.5072,1.8755,1.8755,0,0,0,2.5073-.6574Z"/><path d="M714.5484,285.607c2.0776-2.7425,4.0546-5.6065,6.3021-8.2139a32.3754,32.3754,0,0,1,18.3774-10.645c2.6812-.518,5.44-.7223,8.1492-1.0389l13.612-1.5911,8.8926-1.0394a1.8627,1.8627,0,0,0,1.7671-2.32,45.5675,45.5675,0,0,0-2.37-7.3779,22.5174,22.5174,0,0,0-7.3108-8.7131c-4.8551-3.5035-10.6428-4.5277-16.4913-3.9091-8.474.8963-16.9547,1.7434-25.4232,2.689a22.8483,22.8483,0,0,0-17.5331,11.3384,48.7175,48.7175,0,0,0-3.3661,8.92l-9.4061,28.8371c-.9884,3.03-2.06,6.0468-2.9689,9.102a11.4145,11.4145,0,0,0-.3072,2.5341l-1.1519,17.279-1.9668,29.501L681.15,384.0136l-1.8909,28.3632-1.0008,15.0119-.0465.6986c-.157,2.3546,3.5087,2.345,3.6651,0l.678-10.1711,1.684-25.2592,2.1386-32.08,2.0684-31.0255,1.444-21.66.3232-4.8486a3.2141,3.2141,0,0,0,.0279-.4186c-.0226-.3292-.213.516-.0394.3383a7.6939,7.6939,0,0,0,.7663-2.349l8.88-27.226,3.6812-11.2858q.3057-.9371.6087-1.8748a19.179,19.179,0,0,1,6.2133-9.1022,18.9174,18.9174,0,0,1,9.602-4.0016c1.04-.1216,2.0831-.22,3.1243-.33l15.0292-1.59c3.45-.3649,6.9618-.9557,10.4362-1.0278a19.05,19.05,0,0,1,17.5711,11.0553,40.6249,40.6249,0,0,1,2,6.5024l1.7671-2.32-21.659,2.5315c-2.6854.3139-5.38.5849-8.0585.9561A35.6975,35.6975,0,0,0,720.1,272.83c-3.2912,3.253-5.9284,7.2468-8.7163,10.9269a1.8454,1.8454,0,0,0,.6574,2.5072,1.8755,1.8755,0,0,0,2.5073-.6574Z"/><path d="M650.1766,362.92c-.0063.1683-.0255.3356-.0387.5034-.021.267-.1021.7282-.0107.1467-.0447.2843-.0856.5688-.1372.8521a24.9251,24.9251,0,0,1-1.3491,4.6609,24.5535,24.5535,0,0,1-1.2562,2.5779,23.966,23.966,0,0,1-1.8965,2.87,23.5621,23.5621,0,0,1-6.3308,5.5525,33.6314,33.6314,0,0,1-12.2532,4.1752,1.8477,1.8477,0,0,0-1.28,2.2542,1.8752,1.8752,0,0,0,2.2542,1.28c7.3068-1.1546,14.5347-4.154,19.4911-9.82a26.6438,26.6438,0,0,0,6.0631-12.1033,18.3243,18.3243,0,0,0,.409-2.949c.0889-2.3588-3.5763-2.355-3.6651,0Z"/><path d="M664.82,428.0873l-1.6812,31.944q-.3619,6.8777-.724,13.7552a78.64,78.64,0,0,0,5.4115,33.2868c2.1214,5.2946,4.4216,10.5223,6.637,15.7781a1.8975,1.8975,0,0,0,2.2543,1.28,1.8423,1.8423,0,0,0,1.28-2.2542q-2.994-7.103-5.988-14.206a76.2657,76.2657,0,0,1-5.9478-33.5382q.8409-16.4115,1.7274-32.8207l.696-13.2249c.1241-2.3571-3.5414-2.35-3.6651,0Z"/><line class="cls-6" x1="553.913" y1="528.6609" x2="553.9369" y2="489.467"/><path d="M555.7455,528.6609l.021-34.324.0029-4.87a1.8336,1.8336,0,0,0-3.665,0l-.021,34.3239-.0029,4.87a1.8336,1.8336,0,0,0,3.665,0Z"/><path d="M366.6535,753.6761h207.707a14.8946,14.8946,0,0,0,2.8234,0,1.929,1.929,0,0,1,.3668,0l-1.8326-1.8325V893.446a1.8592,1.8592,0,0,0,1.8326,1.8325H801.0518c10.2879,0,20.6536.3711,30.9368,0,.1484-.0053.2979,0,.4464,0a1.8336,1.8336,0,0,0,0-3.6651H581.4357a21.0107,21.0107,0,0,0-3.4386,0,2.7157,2.7157,0,0,1-.4464,0l1.8325,1.8326V751.8436a1.8592,1.8592,0,0,0-1.8325-1.8326H375.3125c-2.7408,0-5.5559-.1864-8.2922,0-.1211.0083-.2453,0-.3668,0a1.8336,1.8336,0,0,0,0,3.6651Z"/><path d="M156.9614,612.0737H359.2786c2.7032,0,5.5361.2441,8.2315,0,.1142-.01.2336,0,.3485,0l-1.8325-1.8325V734.37c0,5.7265-.22,11.502,0,17.2255.0031.0826,0,.1659,0,.2486a1.8591,1.8591,0,0,0,1.8325,1.8325h77.1281a1.8336,1.8336,0,0,0,0-3.6651H367.8586l1.8325,1.8326V627.7152c0-5.7265.22-11.5019,0-17.2254-.0031-.0826,0-.1659,0-.2486a1.8592,1.8592,0,0,0-1.8325-1.8326H165.5414c-2.74,0-5.4927-.0792-8.2315,0-.1159.0034-.2325,0-.3485,0a1.8336,1.8336,0,0,0,0,3.6651Z"/><path d="M25,470.4713H144.6545a47.1877,47.1877,0,0,0,4.8635,0,2.0652,2.0652,0,0,1,.2126,0l-1.8325-1.8325V592.8672c0,5.7015-.1994,11.4435,0,17.1425.0027.0769,0,.1544,0,.2315a1.8591,1.8591,0,0,0,1.8325,1.8325h77.1282a1.8336,1.8336,0,0,0,0-3.6651H149.7306l1.8326,1.8326V486.0127c0-5.7015.1993-11.4435,0-17.1425-.0027-.0769,0-.1544,0-.2314a1.8592,1.8592,0,0,0-1.8326-1.8326H40.3211c-5.0234,0-10.0875-.1876-15.1085,0-.0706.0026-.1418,0-.2126,0a1.8336,1.8336,0,0,0,0,3.6651Z"/><circle class="cls-7" cx="698.6283" cy="318.2091" r="3.0542"/><circle class="cls-7" cx="696.9324" cy="358.4894" r="3.0542"/><circle class="cls-7" cx="695.2365" cy="398.7696" r="3.0542"/><path class="cls-5" d="M778.8765,626.046a36.9539,36.9539,0,1,0,11.694,72.08C786.6738,673.1612,782.5288,647.3144,778.8765,626.046Z"/><path d="M778.8765,624.2135a38.7876,38.7876,0,1,0,12.1812,75.68,1.8936,1.8936,0,0,0,1.28-2.2542q-4.4783-28.6851-9.2024-57.3313-1.2282-7.3774-2.4916-14.7488c-.3982-2.32-3.9308-1.3363-3.5342.9744,3.1667,18.4493,6.15,36.93,9.0759,55.419q1.3182,8.3291,2.6181,16.661l1.28-2.2543a35.1233,35.1233,0,1,1-11.2069-68.48C781.2335,627.854,781.24,624.1889,778.8765,624.2135Z"/><path class="cls-5" d="M728.0857,565.8721a36.9623,36.9623,0,0,0-51.6409-33.9166l0,.0068a338.36,338.36,0,0,0,3.7607,63.757l.8842,5.7174a36.9508,36.9508,0,0,0,46.9963-35.5646Z"/><path d="M729.9182,565.8721a38.7844,38.7844,0,0,0-54.3983-35.499,1.8087,1.8087,0,0,0-.9076,1.5824,336.9454,336.9454,0,0,0,3.6768,63.2775c.3385,2.2312.6883,4.4607,1.0332,6.6909a1.7973,1.7973,0,0,0,1.28,1.28,38.8006,38.8006,0,0,0,49.3159-37.3317c.011-2.3587-3.6541-2.3616-3.6651,0A35.0974,35.0974,0,0,1,681.5766,599.67l1.28,1.28a376.0315,376.0315,0,0,1-4.75-51.519c-.0933-5.8239-.05-11.6543.1711-17.4751l-.9076,1.5823a35.3251,35.3251,0,0,1,28.5776.4716,35.7334,35.7334,0,0,1,17.3211,17.6447,35.1167,35.1167,0,0,1,2.9847,14.218C726.2641,568.23,729.9292,568.2348,729.9182,565.8721Z"/><path class="cls-5" d="M649.8972,522.502a36.9563,36.9563,0,1,0-73.9126,0c0,.4205.0178.8369.0317,1.2542l73.8751-1.0261C649.8918,522.6538,649.8972,522.5783,649.8972,522.502Z"/><path d="M651.73,522.502a38.7831,38.7831,0,1,0-77.5459,1.2542,1.8613,1.8613,0,0,0,1.8325,1.8325l25.0257-.3476,39.7266-.5517,9.1228-.1267a1.8659,1.8659,0,0,0,1.8325-1.8326l.0058-.2281c.06-2.3594-3.6054-2.3582-3.6651,0l-.0058.2281,1.8326-1.8325-25.0257.3476-39.7266.5517-9.1228.1267,1.8326,1.8326a35.1193,35.1193,0,1,1,70.2157-1.2542C648.0756,524.86,651.7407,524.8646,651.73,522.502Z"/><path class="cls-5" d="M575.9846,433.929a37.2433,37.2433,0,0,0-.4155-5.5471l-44.85.1265a69.5477,69.5477,0,0,0-28.6007,7.2565,36.9559,36.9559,0,0,0,73.8662-1.8359Z"/><path d="M577.8171,433.929a44.0769,44.0769,0,0,0-.4809-6.0343,1.8369,1.8369,0,0,0-1.7671-1.3453l-21.6776.0611c-7.7021.0217-15.416-.0811-23.1169.0652a70.4622,70.4622,0,0,0-29.5811,7.5068,1.7925,1.7925,0,0,0-.9076,1.5824,38.7877,38.7877,0,0,0,77.5312-1.8359c.011-2.3587-3.654-2.3616-3.665,0a35.1246,35.1246,0,0,1-70.2011,1.8359l-.9076,1.5823a66.185,66.185,0,0,1,27.6766-7.0063c2.2414-.0442,4.4869-.0126,6.7287-.019l29.9589-.0844,8.1615-.0231-1.7671-1.3453a37.04,37.04,0,0,1,.35,5.06C574.1669,436.2866,577.8321,436.2918,577.8171,433.929Z"/><path class="cls-5" d="M462.8217,517.2966l-2.1173,69.5087a36.9549,36.9549,0,1,0,2.1173-69.5087Z"/><path d="M460.9892,517.2966l-.7148,23.4657-1.14,37.4238-.2625,8.6192a1.8852,1.8852,0,0,0,1.3453,1.7671,38.7848,38.7848,0,1,0,2.1174-73.0429c-2.2383.7149-1.2816,4.2547.9743,3.5342a35.1285,35.1285,0,1,1-2.1173,65.9745l1.3453,1.7671.7148-23.4657,1.14-37.4237.2626-8.6193C464.7262,514.9374,461.061,514.94,460.9892,517.2966Z"/><path class="cls-5" d="M553.1214,614.2284a36.9493,36.9493,0,0,0-34.4582,62.33l33.6-.162S552.6959,647.82,553.1214,614.2284Z"/><path d="M553.6086,612.4613a38.8013,38.8013,0,0,0-47.6763,33.8864,38.3343,38.3343,0,0,0,2.4788,17.9656,38.967,38.967,0,0,0,4.2137,7.9075,41.1682,41.1682,0,0,0,2.8957,3.6873c.8309.941,1.8158,2.3968,3.1525,2.4823,1.6381.1047,3.3219-.0161,4.9623-.024l10.5813-.051,18.0463-.087a1.8627,1.8627,0,0,0,1.8326-1.8325q.31-20.4745.5809-40.9495.143-10.6091.2776-21.218c.03-2.3592-3.6352-2.3605-3.6651,0q-.3693,29.13-.8,58.2585-.029,1.9545-.0583,3.909l1.8325-1.8325-29.4259.1418-4.1738.02,1.2958.5368a35.1083,35.1083,0,0,1,32.6753-59.2666C554.9293,616.5282,555.9089,612.9952,553.6086,612.4613Z"/><path class="cls-5" d="M765.3474,785.1665a36.9519,36.9519,0,0,0-60.2769-28.6643l7.9056,51.12,49.2134-7.5092A36.81,36.81,0,0,0,765.3474,785.1665Z"/><path d="M767.18,785.1665A38.7876,38.7876,0,0,0,712.8135,749.65a37.0878,37.0878,0,0,0-4.7847,2.5012q-1.1838.7339-2.3106,1.5557a7.8562,7.8562,0,0,0-2.23,1.87,3.4968,3.4968,0,0,0-.0507,2.2784l1.1372,7.3535,3.9028,25.2363,1.763,11.4c.3066,1.9825.5073,4.0191.9252,5.982.02.0922.029.1876.0434.2809.1633,1.0557,1.373,1.4144,2.2543,1.28l20.3058-3.0983,27.0928-4.1339c.94-.1434,2.1323-.1119,2.7666-.9336a13.69,13.69,0,0,0,1.5737-3.8307,36.6086,36.6086,0,0,0,1.0459-3.77,40.3911,40.3911,0,0,0,.9318-8.4556c.0144-2.3589-3.6507-2.3616-3.6651,0a35.5829,35.5829,0,0,1-2.9077,14.0211l1.0952-.8421-16.5917,2.5316-26.4866,4.0414-6.1351.9361,2.2543,1.28-2.6771-17.3105-4.2469-27.4612-.9817-6.3477-.4712,1.783a35.1159,35.1159,0,0,1,57.1485,27.3684C763.5258,787.5242,767.1909,787.5291,767.18,785.1665Z"/><circle cx="756.7955" cy="827.6204" r="8.5519"/><circle cx="507.5697" cy="699.9532" r="8.5519"/><path d="M158.1648,909.1685a11.1829,11.1829,0,0,0-1.2452-5.0676c-1.5923-3.006-4.6807-3.8284-7.8557-3.1461l1.16.8836c.448-3.8266-.2055-8.2763-4.3516-9.6585-2.8109-.9371-6.0666-.25-8.7965.655a22.2024,22.2024,0,0,0-2.28.8821l.925,1.5824a76.0246,76.0246,0,0,0,8.7224-7.3c4.0426-3.8973,8.7532-8.8779,9.7006-14.6486.9611-5.8543-3.9082-10.6666-9.6138-10.9787-6.3013-.3447-12.199,4.1008-16.6434,8.0683a69.7623,69.7623,0,0,0-9.6069,10.4725l1.5823.9249a154.7149,154.7149,0,0,0,7.37-13.72c3.7709-7.8493,7.5455-16.4127,8.2441-25.1957.2555-3.2127.01-6.8132-1.9234-9.5227a8.3233,8.3233,0,0,0-8.0878-3.4669c-3.3811.5785-6.2014,3.1088-8.4054,5.5818a58.2093,58.2093,0,0,0-7.2259,10.5952c-1.9881,3.5839-3.7571,7.2889-5.3795,11.0514q-.8975,2.0814-1.7356,4.188a17.11,17.11,0,0,0-.9082,2.363,2.8631,2.8631,0,0,1-.1156.3163l1.7671.4872c1.1357-4.9085,1.9889-9.8974,2.7041-14.8822,1.27-8.85,2.2674-18.0666,1.0521-26.9781-.831-6.0936-3.67-14.2131-11.3373-13.2209-3.3739.4367-5.88,2.9538-7.6227,5.71a39.6525,39.6525,0,0,0-4.5069,11.47,97.66,97.66,0,0,0-2.1735,11.9453q-.2772,2.2173-.4724,4.4438a17.8064,17.8064,0,0,0-.1931,2.5955,3.2046,3.2046,0,0,1-.0189.348l1.8-.2436c-1.5012-6.1352-3.2933-12.2145-5.2542-18.2168-1.6156-4.9451-3.3809-9.85-5.4648-14.6186C70.24,808.9,68.3057,804.83,65.4853,801.5051c-1.722-2.03-4.3251-4.0938-7.1321-3.0125-3.2024,1.2337-4.4755,5.0385-4.9452,8.13-.7339,4.83-.2255,9.8059.48,14.6081a152.5125,152.5125,0,0,0,3.6,16.8781c1.318,4.9733,2.8,9.9033,4.4,14.7926q.8283,2.53,1.7029,5.0443A22.2567,22.2567,0,0,0,64.6,860.7817a3.46,3.46,0,0,1,.1374.3734l1.346-1.0347c-4.1726-2.575-9.2963-5.1442-14.2666-5.3568-2.4926-.1067-5.5611.8433-6.0265,3.6628-.4947,2.9972,2.0007,5.9488,3.9295,7.9247a28.32,28.32,0,0,0,10.7708,7.05c1.1178.3837,1.5979-1.3858.4872-1.7671a25.84,25.84,0,0,1-8.5894-5.269c-1.9178-1.7115-4.5586-4.2043-4.8151-6.9437-.24-2.5639,2.8387-2.956,4.73-2.7929a24.8069,24.8069,0,0,1,8.1186,2.5561,46.4649,46.4649,0,0,1,4.7369,2.5181c.6427.3967,1.63-.2719,1.346-1.0347-2.1951-5.893-4.0968-11.9111-5.8388-17.9513-1.5272-5.2952-2.9019-10.6407-3.9782-16.0468a77.5153,77.5153,0,0,1-1.79-15.29c.01-3.2829.1887-7.5713,2.6019-10.1084,1.8585-1.9539,3.8644-1.3136,5.69.4534,2.7664,2.677,4.576,6.3925,6.19,9.8311a134.6812,134.6812,0,0,1,5.4826,13.9866c2.2708,6.6934,4.0828,13.4913,5.9753,20.2935.0324.1167.0588.2353.0876.3529a.9207.9207,0,0,0,1.8-.2436,99.85,99.85,0,0,1,1.935-15.075,54.5924,54.5924,0,0,1,3.4673-11.5741c1.2925-2.87,3.0939-6.0673,6.0564-7.4842a6.6453,6.6453,0,0,1,7.4914,1.3095c2.1906,2.2205,3.0325,5.5645,3.549,8.5416,1.45,8.36.54,17.2111-.56,25.5581-.7332,5.56-1.7955,11.045-2.9086,16.5372-.0182.09-.04.1793-.061.2687a.9171.9171,0,0,0,1.7671.4872,122.8486,122.8486,0,0,1,6.0448-13.8714,78.9146,78.9146,0,0,1,6.457-10.8485c2.0313-2.7954,4.4543-5.6885,7.5831-7.29a6.491,6.491,0,0,1,7.5733.88c2.2356,2.0718,2.6749,5.3072,2.596,8.205A41.9218,41.9218,0,0,1,131.377,853.19a107.1541,107.1541,0,0,1-4.9056,12.2632c-2.4293,5.2214-5.2447,10.1942-8.0448,15.2159-.0461.0826-.0979.1626-.1472.2434-.6294,1.0294.8978,1.8506,1.5823.9249.5114-.6916,1.1892-1.5258,1.8831-2.3558,1.6155-1.9324,3.3187-3.7939,5.1128-5.562,4.1186-4.0589,9.1558-8.4045,15.0051-9.5314,4.8766-.94,10.8622,2.1618,10.5909,7.69a14.5936,14.5936,0,0,1-2.7556,7.0051,42.9829,42.9829,0,0,1-5.6358,6.7218,72.4536,72.4536,0,0,1-9.2667,7.9124.9171.9171,0,0,0,.925,1.5824,4.2643,4.2643,0,0,1,.5207-.2182c.5433-.2106,1.0906-.4087,1.6463-.5846a17.4341,17.4341,0,0,1,4.7366-.9,5.89,5.89,0,0,1,4.4392,1.3746c1.7368,1.736,1.59,4.6333,1.3279,6.8668-.0737.6294.6415.9949,1.16.8835,2.6515-.57,4.9385.2449,6.031,2.812a9.5941,9.5941,0,0,1,.75,3.6346.9168.9168,0,0,0,1.8326,0Z"/><path d="M131.158,773.4557c.4836-2.9822,1.105-5.9461,1.7452-8.8977q2.4048-11.0878,5.6866-21.9635a227.8738,227.8738,0,0,1,10.3067-27.9259A130.4565,130.4565,0,0,1,164.53,687.9019c5.8346-7.4768,12.9307-14.2148,21.5682-18.3207A40.8292,40.8292,0,0,1,199.35,665.82a38.581,38.581,0,0,1,16.1312,1.47A23.1912,23.1912,0,0,1,230.4408,684.34a39.7233,39.7233,0,0,1,.1752,17.5233c-2.6389,12.0092-10.57,22.0658-19.5213,30.1476-10.3894,9.38-22.5884,16.6819-35.0958,22.8605a263.21,263.21,0,0,1-37.8231,15.0483q-4.0526,1.2708-8.145,2.4093a.917.917,0,0,0,.4872,1.767,272.2781,272.2781,0,0,0,37.2954-13.3813c13.1984-5.8454,26.0785-12.7741,37.5527-21.5835,10.071-7.7322,19.5276-17.2171,24.5384-29.0831a42.3737,42.3737,0,0,0,3.4373-17.3184c-.1411-6.8817-1.7616-14.0151-6.1711-19.45-7.8861-9.7194-22.1828-11.1147-33.6684-8.2824-9.37,2.3106-17.5576,7.8756-24.2485,14.7019-7.2886,7.4359-13.0227,16.3207-17.8135,25.5244a202.0752,202.0752,0,0,0-12.0965,28.97c-2.75,8.1808-5.0959,16.4988-7.0793,24.898-1.0377,4.3948-1.998,8.8154-2.77,13.2656-.0354.2037-.0707.4074-.1038.6115C129.2038,774.1222,130.9694,774.6187,131.158,773.4557Z"/><path d="M101.6984,758.8629c-2.2387-2.3689-4.3551-4.8617-6.4427-7.3632q-7.7722-9.3132-14.6339-19.341a198.424,198.424,0,0,1-15.7547-27.1065c-4.6292-9.7951-8.327-20.1738-9.8966-30.9278-1.4836-10.1648-.8323-20.7774,3.2148-30.3087a49.1258,49.1258,0,0,1,8.8405-13.72,28.7847,28.7847,0,0,1,7.7787-6.5475,21.0485,21.0485,0,0,1,11.414-2.2252A24.054,24.054,0,0,1,96.96,625.2864a57.9913,57.9913,0,0,1,7.9864,5.9035,51.8919,51.8919,0,0,1,11.2279,14.095c5.7,10.5154,7.51,22.645,7.2,34.4831-.3359,12.8132-3.0174,25.493-6.6888,37.7362A275.5466,275.5466,0,0,1,103.6207,751.82q-1.6427,3.6319-3.3613,7.2287c-.5052,1.0591,1.0743,1.99,1.5823.9249a316.979,316.979,0,0,0,13.8458-33.3982,173.07,173.07,0,0,0,8.9763-38.4783c1.2479-12.23.6849-24.969-3.6623-36.58a55.7569,55.7569,0,0,0-23.8175-28.24,25.1762,25.1762,0,0,0-10.6-3.7527,22.8415,22.8415,0,0,0-11.2135,1.7382c-5.9062,2.5387-10.5409,7.989-14.1181,13.192a52.4259,52.4259,0,0,0-8.8441,30.1249c.0606,10.9565,2.8433,21.78,6.7962,31.9394A172.7943,172.7943,0,0,0,74.33,725.9215,250.9924,250.9924,0,0,0,90.4686,748.517c3.0415,3.81,6.1724,7.5624,9.4764,11.1492.1518.1648.3037.33.4576.4926C101.2143,761.0177,102.5085,759.72,101.6984,758.8629Z"/><path d="M158.0121,804.41a93.2526,93.2526,0,0,1,11.9612-4.4514c7.1506-2.1772,15.1418-4.0483,22.636-2.7758a15.0511,15.0511,0,0,1,8.8343,4.3812,12.86,12.86,0,0,1,2.6174,4.5793,18.8761,18.8761,0,0,1,.7339,3.0492,8.7746,8.7746,0,0,1,.1415,3.5165c-1.129,3.9059-4.9077,6.6868-8.6193,7.8341a27.3656,27.3656,0,0,1-13.4719.2145,42.4674,42.4674,0,0,1-13.7313-5.4477,26.6483,26.6483,0,0,1-9.51-9.26,14.993,14.993,0,0,1-1.1706-2.6751c-.3625-1.117-2.1326-.6391-1.7671.4872,3.0071,9.2651,13.2157,15.066,21.9873,17.72,8.4015,2.5419,20.13,3.2583,26.034-4.6192a14.1449,14.1449,0,0,0,1.6641-2.8925,6.75,6.75,0,0,0,.4272-3.6626,20.2022,20.2022,0,0,0-1.6014-6.4077,14.3961,14.3961,0,0,0-7.87-7.4128c-7.4665-3.029-16.4308-1.4271-23.9626.5168a101.951,101.951,0,0,0-10.3827,3.3085,54.5878,54.5878,0,0,0-5.6086,2.2935c-.0867.0442-.1782.08-.2666.1214C156.0187,803.3245,156.9484,804.9046,158.0121,804.41Z"/><path d="M105.5992,858.7118c3.95-10.5009,8.704-20.8249,15.13-30.0606a63.47,63.47,0,0,1,17.2823-17.36,47.1477,47.1477,0,0,1,19.6323-7.1447,67.7466,67.7466,0,0,1,21.4992,1.0652,150.72,150.72,0,0,1,26.7293,8.3268c1.0951.4374,1.5708-1.3343.4871-1.767-14.7076-5.8731-30.7907-11.1087-46.8437-9.66a49.5226,49.5226,0,0,0-20.3308,6.3155,61.5885,61.5885,0,0,0-18.0109,16.5048c-7.581,10.0155-12.939,21.5879-17.3424,33.2927-.4157,1.1051,1.355,1.5825,1.7671.4872Z"/><path d="M222.2073,669.366c-3.291,2.0457-6.4358,4.3537-9.5386,6.6692a278.4572,278.4572,0,0,0-23.5221,19.7441A302.3968,302.3968,0,0,0,159,728.3962a281.1113,281.1113,0,0,0-29.699,45.5942,254.9782,254.9782,0,0,0-21.669,57.8965q-.9521,3.9777-1.7721,7.985c-.2365,1.1511,1.5295,1.6434,1.7671.4872a251.9408,251.9408,0,0,1,20.25-59.46,276.4607,276.4607,0,0,1,28.9342-46.74,299.72,299.72,0,0,1,30.3115-33.9352,281.6338,281.6338,0,0,1,24.4159-21.0556c3.7262-2.8445,7.6333-5.3943,11.4355-8.1209.05-.0361.1056-.067.1584-.1,1-.6213.0805-2.2073-.925-1.5824Z"/><path d="M79.8185,620.8857c.95,3.5884,1.7976,7.2057,2.6342,10.8216q3.32,14.3487,6.0263,28.8313,3.9224,20.804,6.6946,41.8048c2.1537,16.4648,3.7434,33.01,4.5724,49.5959a428.768,428.768,0,0,1-.3137,51.85q-.2289,3.2133-.52,6.4215c-.106,1.1742,1.7272,1.167,1.8325,0a407.017,407.017,0,0,0,1.1094-52.0015c-.6387-16.8378-2.0972-33.641-4.1505-50.3634q-2.6517-21.5955-6.5714-43.01Q88.31,649.334,84.8465,633.9569q-1.0448-4.61-2.1642-9.2033c-.3373-1.3777-.5944-2.8282-1.0492-4.1739-.02-.0587-.0316-.1212-.0475-.1812a.9171.9171,0,0,0-1.7671.4872Z"/><path d="M183.1477,704.1964a38.208,38.208,0,0,1,8.9861-2.157,43.328,43.328,0,0,1,20.7071,2.1016,40.2762,40.2762,0,0,1,13.3964,8.3716c.8634.8017,2.1623-.4913,1.2958-1.2958A42.136,42.136,0,0,0,203.9138,700.13a47.9872,47.9872,0,0,0-17.86,1.2428,28.781,28.781,0,0,0-3.3929,1.057c-1.0826.431-.61,2.204.4872,1.7671Z"/><path d="M197.6294,665.1423a29.241,29.241,0,0,1,2.4675,5.9706,30.2565,30.2565,0,0,1,1.0908,14.22c-.2073,1.1532,1.5585,1.6479,1.7671.4872a33.003,33.003,0,0,0-3.7431-21.6024.9169.9169,0,0,0-1.5823.9249Z"/><path d="M154.9113,699.8626a41.8132,41.8132,0,0,1,3.1975,7.9313,50.1078,50.1078,0,0,1,2.1471,19.3517c-.1077,1.1739,1.7255,1.1666,1.8325,0a51.5175,51.5175,0,0,0-2.2125-19.8389,44.2091,44.2091,0,0,0-3.3822-8.369c-.5717-1.0318-2.155-.1086-1.5824.9249Z"/><path d="M152.1092,740.3712a3.5231,3.5231,0,0,1,.416-.18q.8058-.3246,1.6289-.6031a43.7918,43.7918,0,0,1,6.0385-1.5625,50.4144,50.4144,0,0,1,20.8812.5716,57.3812,57.3812,0,0,1,15.3669,6.2207.9169.9169,0,0,0,.9249-1.5823c-12.9186-7.4578-28.7546-10.2431-43.1451-5.598a25.6466,25.6466,0,0,0-3.0362,1.1511c-1.0665.5014-.1373,2.0817.9249,1.5824Z"/><path d="M100.2424,732.8641c.0248-.0884.055-.1754.0848-.2621.0344-.1.073-.199.11-.2984a1.6335,1.6335,0,0,1,.1115-.2749,17.0129,17.0129,0,0,1,1.4054-2.5415,21.3137,21.3137,0,0,1,7.4128-6.6466,30.7493,30.7493,0,0,1,8.0821-3.0111c1.1483-.2663.6623-2.0337-.4872-1.7671-7.2312,1.6774-14.6207,5.7619-17.87,12.7636a10.4674,10.4674,0,0,0-.6164,1.5509.9171.9171,0,0,0,1.7671.4872Z"/><path d="M62.351,702.0429c7.4148-2.7024,16.3785-3.383,23.9547-1.1352a24.07,24.07,0,0,1,9.5607,5.4022c.8642.8006,2.1632-.4923,1.2958-1.2958C88.48,696.9708,75.7187,696.576,64.7985,699.4c-.9863.255-1.9766.5272-2.9346.8764-1.0993.4006-.6246,2.1722.4871,1.767Z"/><path d="M93.8656,681.2859A42.0226,42.0226,0,0,1,109.6,660.3283a30.4411,30.4411,0,0,1,11.8875-4.3787c1.1624-.1732.6684-1.9393-.4871-1.767-13.0025,1.9378-22.7508,11.85-27.7445,23.5717a30.2525,30.2525,0,0,0-1.1573,3.0445.9171.9171,0,0,0,1.7671.4871Z"/><path d="M57.3319,644.9787c6.5786-2.3895,14.8849-2.6118,21.2042.5536a19.8778,19.8778,0,0,1,7.6738,6.9318c.6467.98,2.2344.0633,1.5823-.9249a21.9642,21.9642,0,0,0-14.716-9.679,33.6526,33.6526,0,0,0-13.4539.5616,24.7638,24.7638,0,0,0-2.7775.79c-1.1.3995-.625,2.1711.4871,1.7671Z"/><path d="M85.3462,636.6682a25.04,25.04,0,0,1,1.2527-4.0733,16.577,16.577,0,0,1,4.2949-6.6065,7.2,7.2,0,0,1,4.0483-1.78c1.1661-.1,1.1767-1.9338,0-1.8326-6.145.5289-9.3937,6.8958-10.9391,12.1624-.159.5419-.311,1.0894-.4239,1.6431-.2348,1.1513,1.5312,1.6437,1.7671.4872Z"/><path d="M207.8005,682.1135c-.3916.1691.33-.1252.4741-.178.518-.19,1.0433-.36,1.5724-.5166a28.3315,28.3315,0,0,1,5.6041-1.0778c5.5018-.47,10.9326.8881,15.0621,4.6834.8671.7969,2.1664-.4957,1.2958-1.2958-6.6445-6.1068-16.8462-6.6893-24.9334-3.1975-1.08.4662-.1476,2.0454.9249,1.5823Z"/><path d="M81.7761,893.0429a26.5127,26.5127,0,0,1-.8182-4.9815c-.187-2.5735-.2-5.9033,1.6855-7.92,1.7265-1.8472,4.2546-1.7378,5.566.4028,1.329,2.17,1.7189,4.94,1.958,7.4274a40.9934,40.9934,0,0,1,.1933,5.3151c-.0385,1.1174,1.433,1.1293,1.8.2436-.0576.139-.0239.0533.0586-.1311.1271-.2843.2568-.5674.3914-.8483.3916-.8174.8143-1.62,1.2732-2.4021.9667-1.6465,2.3062-3.925,4.2238-4.5873,4.281-1.4785,1.2912,7.4671.7745,8.8516a40.5582,40.5582,0,0,1-1.6769,3.9088.9206.9206,0,0,0,1.4391,1.11c.96-.8122,3.11-2.2244,3.8895-.5813a4.7053,4.7053,0,0,1-1.52,5.394c-.9134.7471.39,2.0369,1.2958,1.2958,2.2378-1.83,3.29-5.643,1.5145-8.1181-1.6662-2.3223-4.7842-.7172-6.4754.7138l1.4391,1.11c1.7177-3.4475,3.5644-7.6279,3.4745-11.5431-.0468-2.0385-1.0929-4.0479-3.3747-4.1-2.4539-.0563-4.32,2.2293-5.5862,4.0494a28.6474,28.6474,0,0,0-2.9077,5.39l1.8.2436a40.9832,40.9832,0,0,0-.2035-5.4194c-.2834-2.8714-.7321-6.1133-2.3956-8.5547a4.9849,4.9849,0,0,0-6.9876-1.4794c-2.8095,1.6917-3.5089,5.2355-3.5452,8.2708a27.5552,27.5552,0,0,0,.9477,7.4263.9171.9171,0,0,0,1.7671-.4872Z"/></svg>