<svg id="Layer_1" data-name="Layer 1" xmlns="http://www.w3.org/2000/svg" width="1000" height="1000" viewBox="0 0 1000 1000"><defs><style>.cls-1{fill:#ffc41f;}.cls-2{fill:none;stroke:#000;stroke-miterlimit:10;stroke-width:1.2136px;}.cls-3{fill:#fff;}.cls-4{fill:#fc7f3a;}.cls-5{fill:#fc7272;}.cls-6{fill:#a8542a;}.cls-7{fill:#ea2f2f;}.cls-8{fill:#389b48;}.cls-9{fill:#458dc9;}</style></defs><rect class="cls-1" x="48.6658" y="472.9515" width="30.0021" height="140.1746"/><rect class="cls-1" x="107.4935" y="462.6356" width="30.0021" height="150.4904"/><rect class="cls-1" x="166.3212" y="426.2266" width="30.0021" height="186.8994"/><rect class="cls-1" x="225.1488" y="341.8791" width="30.0021" height="271.2469"/><rect class="cls-1" x="283.9765" y="292.727" width="30.0021" height="320.399"/><rect class="cls-1" x="342.8042" y="276.343" width="30.0021" height="336.783"/><rect class="cls-1" x="401.6318" y="265.4203" width="30.0021" height="347.7057"/><rect class="cls-1" x="460.4595" y="235.6863" width="30.0021" height="377.4397"/><rect class="cls-1" x="519.2872" y="178.0387" width="30.0021" height="435.0873"/><line class="cls-2" x1="48.6658" y1="448.072" x2="48.6658" y2="497.8309"/><path class="cls-3" d="M48.6658,448.072l62.5153-12.6887A144.4751,144.4751,0,0,0,204.22,371.5347l45.3178-70.9891a115.5076,115.5076,0,0,1,75.3687-51.2421l109.4126-21.2194a115.5076,115.5076,0,0,0,68.73-41.8991l39.99-50.7436a18.795,18.795,0,0,1,14.7621-7.1616h0v49.7589h0A18.7953,18.7953,0,0,0,543.0386,185.2l-39.99,50.7437a115.5079,115.5079,0,0,1-68.73,41.899L324.9063,299.0624a115.5079,115.5079,0,0,0-75.3687,51.2421L204.22,421.2937a144.4753,144.4753,0,0,1-93.0387,63.8485l-76.472,16.33"/><path d="M49.15,449.8274l49.1792-9.9819c6.9853-1.4178,14.0457-2.6716,20.9468-4.4668a146.301,146.301,0,0,0,81.6806-55.8249c3.771-5.1983,7.1319-10.6978,10.5863-16.1089l32.6386-51.1276c2.9393-4.6043,5.7926-9.2825,8.8717-13.796a113.8494,113.8494,0,0,1,37.6542-34.6522A116.9511,116.9511,0,0,1,326.39,250.865q8.4724-1.6458,16.9459-3.2864l61.8363-11.9925c14.9484-2.8991,30.6761-4.9285,45.1218-9.8843a118.0154,118.0154,0,0,0,43.842-26.91c6.0192-5.8493,11.0949-12.4551,16.2726-19.0252,11.1543-14.1538,22.261-28.3466,33.4636-42.4622,3.457-4.356,8.2432-7.2041,13.9286-7.2041a1.8215,1.8215,0,0,0,0-3.6409,20.8559,20.8559,0,0,0-16.2066,7.8942c-1.4709,1.8367-2.9134,3.6969-4.37,5.545L518.317,163.89,502.8148,183.561a118.6366,118.6366,0,0,1-29.5958,27.1344,115.7238,115.7238,0,0,1-39.8831,15.73q-7.6971,1.5-15.397,2.9861L356.55,241.3172l-24.7922,4.8082c-6.1582,1.1943-12.31,2.3264-18.3342,4.1214-27.865,8.3033-50.9854,26.7086-66.5468,51.0852l-29.73,46.5716c-10.1715,15.9335-19.6977,32.425-33.0535,45.98-20.7792,21.0895-47.21,34.429-76.0835,40.2895L52.999,445.3389l-4.8171.9777c-2.2946.4657-1.3234,3.9759.9679,3.5108Z"/><path d="M585.0914,135.5616V646.59a68.1276,68.1276,0,0,0,0,6.93,8.5213,8.5213,0,0,1,0,.87l1.82-1.82H47.81c-7.28,0-14.5745-.13-21.8542,0-.3182.0057-.6371,0-.9554,0a1.8215,1.8215,0,0,0,0,3.6409H564.1023c7.28,0,14.5745.13,21.8541,0,.3183-.0057.6372,0,.9555,0a1.8469,1.8469,0,0,0,1.82-1.8205V156.6111c0-6.7216.1352-13.4592,0-20.18-.0058-.29,0-.58,0-.87a1.8215,1.8215,0,0,0-3.6409,0Z"/><path class="cls-4" d="M799.5634,903.2746l53.5379-65.4833-9.2266-26.4054h0a35.3107,35.3107,0,0,1,22.6685,4.5742l2.9735,1.7531L884.02,799.9738l-23.0862-18.9994-51.9783-42.777-58.9229,41.9175L793.66,815.97c12.25,11.4044,9.5675,29.6854-1.3975,57.6336a24.5732,24.5732,0,0,0,2.6643,22.99Z"/><path d="M800.8507,904.5619l9.0877-11.1154,19.4979-23.8484L847.9449,846.96l5.333-6.523c.35-.4276.7043-.8518,1.0492-1.2832.7971-.9972.5606-1.7577.2022-2.7832L845.88,811.6166l-.25-.7146-1.2715,2.2393a34.0139,34.0139,0,0,1,15.1538,1.5681,49.5021,49.5021,0,0,1,9.0855,4.5757A1.8383,1.8383,0,0,0,870.804,819l12.6908-15.5224,1.8125-2.2169a1.8468,1.8468,0,0,0,0-2.5745l-16.0509-13.21-9.0622-7.4579-16.3436-13.4505L822.59,747.0713c-4.0542-3.3365-8.0833-6.7064-12.1639-10.0106-.0614-.05-.122-.1-.1829-.15a1.869,1.869,0,0,0-2.2061-.2847l-19.9426,14.1871-31.7465,22.5843-7.2339,5.1461a1.8415,1.8415,0,0,0-.3684,2.8592l13.0623,10.7352,22.516,18.5046c4.5959,3.7771,9.8362,7.2443,12.716,12.6094,2.6411,4.9207,3.1379,10.623,2.7582,16.1093-.5213,7.5333-2.643,14.9392-5.02,22.0708-1.4648,4.3941-3.3272,8.6579-4.7611,13.0559A26.7041,26.7041,0,0,0,789.1,886.92a26.1134,26.1134,0,0,0,4.3047,10.6636c1.1769,1.7092,2.3663,3.41,3.5494,5.1146l1.0376,1.4952c1.3268,1.9118,4.4841.0937,3.1438-1.8377-2.4939-3.5937-5.5466-7.2221-7.1537-11.3219a22.8318,22.8318,0,0,1-1.3333-11.99c.756-4.5272,2.8921-8.7923,4.4185-13.0964a113.2077,113.2077,0,0,0,6.0326-23.2176c.7635-5.9217.7272-12.1791-1.3669-17.8451a25.043,25.043,0,0,0-7.0511-10.4208c-1.8016-1.52-3.6435-2.9943-5.4644-4.4908l-22.0011-18.0815L757.05,783.5368c-1.805-1.4835-3.5592-3.1729-5.4812-4.5048-.0872-.06-.1665-.1368-.2487-.2044l-.3684,2.8592L770.8941,767.5l31.7465-22.5843,7.2338-5.1461-2.206-.2846,10.0805,8.296L838.6475,764.98,856.35,779.5484l7.9637,6.554,18.0221,14.8317.3972.327v-2.5745L870.042,814.209l-1.8125,2.2169,2.206-.2846a52.9231,52.9231,0,0,0-10.3679-5.0805,37.4781,37.4781,0,0,0-16.6769-1.43,1.8274,1.8274,0,0,0-1.2715,2.2394L850.2,834.997l1.1454,3.2782.4682-1.7712-18.21,22.2733-28.7764,35.1971-6.5512,8.013C796.8049,903.7869,799.3662,906.3776,800.8507,904.5619Z"/><path d="M792.665,813.9667c.0617-.1567-.2686.5993-.1107.2654.0674-.1424.134-.2847.2064-.4247a11.9169,11.9169,0,0,1,.8749-1.4259c.05-.07.1015-.14.1524-.21.17-.2329-.006.0193-.0976.1231.1345-.1524.2551-.3181.3882-.4721a12.05,12.05,0,0,1,.8594-.8971q.2426-.2282.498-.4423c.0871-.0729.1847-.1383.2666-.2166.0135-.0129-.3306.24-.17.1325.0695-.0468.1356-.1009.2038-.15a10.8281,10.8281,0,0,1,1.2586-.7783q.1962-.1035.3967-.1987c.0509-.0242.1024-.047.1533-.0711.2429-.1152.1153.0549-.0684.0246.091.015.348-.1364.4352-.1679q.1963-.0708.3953-.1339.471-.15.9541-.2562.2509-.0555.5041-.1c.0645-.0113.1291-.0213.1936-.0323.4512-.0765-.4168.0482.0455-.0056a1.8659,1.8659,0,0,0,1.82-1.82c-.04-.892-.8073-1.9383-1.82-1.8205a13.2392,13.2392,0,0,0-7.2164,3.0817,13.5416,13.5416,0,0,0-3.0856,3.8378,10.9891,10.9891,0,0,0-.5478,1.19,1.8271,1.8271,0,0,0,1.2715,2.2394,1.8736,1.8736,0,0,0,2.2394-1.2715Z"/><path d="M799.83,821.7439c.0618-.1568-.2686.5992-.1107.2653.0674-.1424.134-.2847.2064-.4246a11.9181,11.9181,0,0,1,.8749-1.426c.05-.07.1015-.14.1525-.21.17-.233-.0061.0192-.0976.123.1344-.1524.255-.318.3881-.472a12.0114,12.0114,0,0,1,.8594-.8971q.2425-.2283.4981-.4423c.0871-.073.1846-.1383.2665-.2166.0135-.0129-.33.24-.17.1325.07-.0468.1356-.1009.2038-.15a10.8417,10.8417,0,0,1,1.2586-.7783q.1962-.1033.3967-.1986c.0509-.0242.1024-.0471.1533-.0712.2429-.1152.1154.055-.0683.0246.091.015.3479-.1364.4352-.1679q.1962-.0708.3952-.1338.471-.15.9541-.2563.2509-.0555.5041-.1c.0645-.0112.1291-.0213.1937-.0322.4511-.0766-.4169.0482.0454-.0056a1.8663,1.8663,0,0,0,1.82-1.8205c-.04-.8919-.8074-1.9383-1.82-1.82a13.2383,13.2383,0,0,0-7.2164,3.0816,13.543,13.543,0,0,0-3.0856,3.8378,10.9708,10.9708,0,0,0-.5477,1.19,1.8269,1.8269,0,0,0,1.2714,2.2393,1.8734,1.8734,0,0,0,2.2394-1.2714Z"/><path d="M835.0769,830.7711h0a15.05,15.05,0,0,1-2.7553,13.8791L792.8411,892.94a24.4462,24.4462,0,0,0,2.0853,3.653l4.637,6.6819,53.5379-65.4833-9.2266-26.4054a35.31,35.31,0,0,1,22.6685,4.5742l2.9735,1.7531,14.5034-17.74L864.6782,784.056l-26.8459,32.836A15.05,15.05,0,0,0,835.0769,830.7711Z"/><path d="M833.3215,831.255A13.3981,13.3981,0,0,1,831.0044,843.4c-.5233.6642-1.0713,1.31-1.6065,1.9649l-8.74,10.69-23.3734,28.5886-5.7307,7.0093a1.9251,1.9251,0,0,0-.2847,2.2061c1.753,3.6908,4.4,6.9886,6.7223,10.3349a1.84,1.84,0,0,0,2.8592.3685l9.0877-11.1154,19.4979-23.8484L847.9449,846.96l5.333-6.523c.35-.4277.7043-.8518,1.0492-1.2833.7972-.9971.5606-1.7576.2023-2.7831l-8.65-24.7539-.25-.7146-1.7554,2.3044a34.5541,34.5541,0,0,1,15.6377,1.5031,49.4986,49.4986,0,0,1,9.0855,4.5756A1.8383,1.8383,0,0,0,870.804,819l12.6908-15.5225,1.8126-2.2169a1.8469,1.8469,0,0,0,0-2.5745l-16.908-13.9147-2.4339-2.003a1.8458,1.8458,0,0,0-2.5745,0l-11.5336,14.107-14.6437,17.9111a23.1049,23.1049,0,0,0-2.5215,3.5184,17.1633,17.1633,0,0,0-1.3707,12.95c.6463,2.2478,4.1606,1.292,3.5108-.9679a13.8127,13.8127,0,0,1,2.903-12.8611l5.5854-6.8316,16.48-20.1565,4.1653-5.0946H863.391l16.9079,13.9147,2.434,2.003v-2.5745L870.042,814.209l-1.8125,2.2169,2.206-.2846a54.0375,54.0375,0,0,0-9.9552-4.9427,37.0144,37.0144,0,0,0-16.6056-1.6331,1.8461,1.8461,0,0,0-1.7555,2.3044L850.2,834.997l1.1455,3.2782.4681-1.7712-18.21,22.2733-28.7764,35.197-6.5513,8.0131,2.8591.3684c-2.3219-3.3459-4.97-6.6447-6.7223-10.3349l-.2846,2.206,15.8932-19.4393,21.705-26.5479c.6229-.7619,1.2521-1.519,1.8689-2.2859a17.116,17.116,0,0,0,3.2368-15.6667C836.1565,828.05,832.6412,829.0034,833.3215,831.255Z"/><path d="M803.28,843.9133l7.9635-9.74a26.0713,26.0713,0,0,0,4.3341-7.1277,22.3364,22.3364,0,0,0,1.1175-11.5355c-.9313-5.8883-4.2935-10.625-8.8172-14.3235L796.8494,792.17l-9.44-7.7182c-1.7995-1.4712-4.39,1.09-2.5745,2.5745L803.8584,802.58c3.5049,2.8655,6.781,5.7479,8.3735,10.1761a18.894,18.894,0,0,1-3.17,18.3622q-4.17,5.1174-8.3564,10.2208c-1.4712,1.8,1.09,4.39,2.5745,2.5745Z"/><path d="M854.64,794.7365q-4.1385-3.3835-8.277-6.7671c-4.939-4.0468-7.423-10.3123-5.7336-16.611a62.1681,62.1681,0,0,1,2.28-6.178c.8452-2.187-2.6737-3.134-3.5108-.9679-.6777,1.7536-1.43,3.4952-2.0137,5.2831a19.2934,19.2934,0,0,0,6.036,20.7481c1.3348,1.1105,2.689,2.1986,4.0333,3.2976l4.6108,3.77c1.8,1.4712,4.39-1.09,2.5745-2.5746Z"/><path class="cls-5" d="M722.2185,231.5938h-53.258a33.0189,33.0189,0,0,0-23.9718,10.312L538.95,353.85,424.2516,246.9087l-41.5574,45.99,111.83,103.352a68.0245,68.0245,0,0,0,87.0133,4.4409L705.18,299.548"/><path d="M722.2185,229.7734H674.2419c-1.9409,0-3.8841-.0281-5.8249.0044a35.155,35.155,0,0,0-23.1733,9.316c-2.32,2.1477-4.4231,4.566-6.5948,6.8586L604.757,281.7318l-42.5253,44.8935-16.1442,17.0433c-2.6539,2.8016-5.6673,5.4965-8.071,8.52-.1054.1325-.2371.25-.3537.3734h2.5745l-11.44-10.6666-27.3434-25.4941-33.1921-30.9472-28.5893-26.6558c-4.6368-4.3231-9.1746-8.7937-13.93-12.9875-.07-.0613-.1359-.1266-.2037-.19a1.8443,1.8443,0,0,0-2.5745,0l-14.0627,15.5627-22.311,24.6908-5.1837,5.7367a1.8484,1.8484,0,0,0,0,2.5745l14.8869,13.7583,33.9415,31.3683,36.81,34.0191,23.8434,22.0358a95.1812,95.1812,0,0,0,9.891,8.2414,69.7093,69.7093,0,0,0,84.1048-3.3146l23.7041-19.3908,38.1587-31.2153,37.4678-30.65,21.2424-17.377,1.01-.8259c1.8146-1.4844-.7746-4.0469-2.5745-2.5745l-14.9037,12.1917-34.5146,28.2343-39.1722,32.0444-28.8763,23.6219c-1.9693,1.6109-3.9136,3.26-5.9113,4.8357A64.0841,64.0841,0,0,1,554.2712,411.1a66.9226,66.9226,0,0,1-58.9474-16.5876q-9.4253-8.703-18.8428-17.4143l-35.2137-32.544-35.5788-32.8816-20.73-19.1585-.9769-.9028v2.5745l14.0627-15.5627,22.3109-24.6908,5.1838-5.7367h-2.5745l11.44,10.6666,27.3434,25.4941L494.94,315.3038,523.53,341.96c4.6368,4.3232,9.1746,8.7938,13.93,12.9876.07.0613.1359.1266.2037.19a1.8484,1.8484,0,0,0,2.5745,0l19.9173-21.0265,41.4669-43.7762,36.3628-38.3879q3.969-4.19,7.938-8.38a32.233,32.233,0,0,1,11.46-7.9352,35.3377,35.3377,0,0,1,13.2443-2.2169h51.5917a1.8215,1.8215,0,0,0,0-3.6409Z"/><path class="cls-3" d="M662.6375,231.622a40.343,40.343,0,0,0-30.6755,14.14L545.9,346.5124l-6.95,7.3372-56.7887-52.9479c-4.23,8.1409-12.4238,18.8363-23.0121,29.4245-8.497,8.4971-35.0825,20.15-42.3429,24.7538l65.6057,66.2021c31.61,22.6638,66.89,10.467,93.1614-9.2584l16.1108-13.9389,74.4238-56.7223,36.3813-109.74Z"/><path d="M662.6375,229.8016a42.6166,42.6166,0,0,0-31.9628,14.6734c-1.0937,1.2687-2.176,2.5474-3.2639,3.8211l-21.0515,24.6444-29.3735,34.3867-24.711,28.9285c-4.0808,4.7774-8.1377,9.472-12.458,14.0328l-2.1539,2.2739h2.5745l-19.1516-17.8563L490.4479,306.14l-6.9993-6.5259a1.84,1.84,0,0,0-2.8591.3684,95.8407,95.8407,0,0,1-10.6454,15.7024c-2.5056,3.0912-5.1339,6.0831-7.8543,8.9869a67.0573,67.0573,0,0,1-6.327,6.2446,87.4522,87.4522,0,0,1-12.6261,8.1207c-4.9088,2.7592-9.9191,5.3331-14.9327,7.8952-4.13,2.1106-8.3862,4.1015-12.3164,6.5754a1.8435,1.8435,0,0,0-.3684,2.8592l21.752,21.95,34.9958,35.314c2.8631,2.8891,5.6656,5.8585,8.5988,8.6769a17.0136,17.0136,0,0,0,2.3474,1.7427,67.2841,67.2841,0,0,0,10.4457,5.7946,64.1742,64.1742,0,0,0,20.8215,5.29c13.9873,1.1208,27.9288-2.5075,40.5119-8.44a113.8953,113.8953,0,0,0,25.9815-16.9432l9.56-8.2715a29.0068,29.0068,0,0,0,2.3771-2.0567c-.3379.3652-.3286.2472.087-.0686q4.9562-3.767,9.9022-7.5471l39.6164-30.1938,17.398-13.26c2.3584-1.7974,4.8516-3.4991,7.112-5.42a5.3765,5.3765,0,0,0,1.3806-2.729l1.657-4.9981,5.8542-17.6585,16.3074-49.19,11.4255-34.4639.5932-1.7894a1.8358,1.8358,0,0,0-1.7554-2.3044H662.6375a1.8215,1.8215,0,0,0,0,3.6409h39.8519l-1.7554-2.3044-3.6355,10.9661-8.6816,26.187L677.9215,299.95l-9.077,27.38-3.0063,9.0679a39.0988,39.0988,0,0,0-1.42,4.2841,1.8051,1.8051,0,0,1-.0654.1971l.8366-1.0879-12.4909,9.52L625.71,369.88l-25.76,19.6332c-3.5867,2.7336-7.314,5.3476-10.7266,8.3l-12.1719,10.531A100.09,100.09,0,0,1,561.35,419.2612c-16.359,9.4172-35.7265,15.2025-54.5884,11.082a60.108,60.108,0,0,1-13.8936-4.874,67.878,67.878,0,0,1-6.9542-3.99,21.1509,21.1509,0,0,1-2.3117-1.5833c-1.4326-1.2423-2.7092-2.7338-4.0428-4.0795l-20.31-20.4946-24.9147-25.1413-15.486-15.6267-.7545-.7614-.3685,2.8591c3.4436-2.1676,7.1536-3.9371,10.7724-5.7865,5.0784-2.5953,10.1619-5.1842,15.1527-7.9458a106.7047,106.7047,0,0,0,13.4324-8.441c5.2292-4.013,9.6339-9.2663,13.85-14.2953a104.5473,104.5473,0,0,0,12.8007-18.3627l-2.8592.3684,19.1516,17.8563,30.6379,28.5657,6.9993,6.5259a1.8484,1.8484,0,0,0,2.5745,0c4.2757-4.5138,8.394-9.0274,12.4269-13.7487l22.9773-26.8989,29.3292-34.3349,22.8979-26.806q2.5276-2.9591,5.0554-5.9182a39.4453,39.4453,0,0,1,20.8519-12.9557,38.9733,38.9733,0,0,1,8.8615-1.032C664.98,233.4294,664.9846,229.7884,662.6375,229.8016Z"/><path d="M416.7655,355.4192c2.5974,2.5973,9.4016.4493,18.0625-5.0421l-12.521-13.8047C416.4436,345.6074,414.09,352.7435,416.7655,355.4192Z"/><path d="M415.4783,356.7064c2.1924,2.1022,5.4823,1.8059,8.1908,1.0746a45.4753,45.4753,0,0,0,12.0778-5.832,1.8478,1.8478,0,0,0,.3684-2.8591l-10.9506-12.0733-1.57-1.7315a1.84,1.84,0,0,0-2.8591.3685,48.1126,48.1126,0,0,0-6.2553,12.58c-.7907,2.7752-1.1768,6.2063.9985,8.4732,1.6254,1.6939,4.1978-.8828,2.5745-2.5745-.3221-.3356.0062.1493-.2025-.2558-.0513-.1-.1075-.1984-.16-.2978-.0968-.1838.0892.3133,0-.0167-.0646-.239-.1334-.4722-.1785-.7162.0736.3978-.0194-.3232-.0227-.4811a11.2086,11.2086,0,0,1,.7077-3.8429,47.5988,47.5988,0,0,1,5.6818-11.03l-2.8592.3684L431.97,349.9329l1.57,1.7315.3684-2.8592a44.8436,44.8436,0,0,1-10.5257,5.2677,10.6871,10.6871,0,0,1-3.5779.62c-.1474-.0032-.7987-.0779-.4192-.0136-.2509-.0425-.488-.1134-.7337-.1762-.331-.0847.1561.0922-.0272-.0006-.1025-.0518-.2022-.1093-.3044-.1613-.4188-.213.0737.1182-.2683-.21C416.3612,352.51,413.783,355.0809,415.4783,356.7064Z"/><path class="cls-5" d="M470.7785,290.2887l-46.5268-43.38-41.5574,45.99,39.6127,43.6736,12.521,13.8047a148.7623,148.7623,0,0,0,24.3213-20.0509c10.5883-10.5882,18.782-21.2836,23.0121-29.4245Z"/><path d="M472.0658,289.0015,456.352,274.35l-25.0532-23.3587-5.76-5.37a1.8443,1.8443,0,0,0-2.5745,0l-14.02,15.515-22.37,24.7564-5.1676,5.7187a1.8666,1.8666,0,0,0,0,2.5745l20.6454,22.7619L421.3013,338.17l12.2395,13.4943a1.8369,1.8369,0,0,0,2.2061.2846,142.3124,142.3124,0,0,0,21.5464-17.2648,167.448,167.448,0,0,0,19.5379-22.0065,85.5508,85.5508,0,0,0,6.9021-10.8571,1.8646,1.8646,0,0,0-.2847-2.2061l-11.3828-10.613c-1.7124-1.5966-4.2927.9725-2.5745,2.5745l11.3828,10.613-.2846-2.2061a104.56,104.56,0,0,1-13.9761,19.6726,177.2273,177.2273,0,0,1-21.2067,20.73,117.2174,117.2174,0,0,1-11.4975,8.42l2.2061.2847L419.56,330.8374,391.9525,300.4l-7.971-8.7882v2.5745l14.02-15.515,22.37-24.7563,5.1676-5.7188h-2.5745l15.7138,14.6511,25.0531,23.3587,5.76,5.37C471.2036,293.1725,473.784,290.6035,472.0658,289.0015Z"/><path class="cls-5" d="M407.2638,319.8915l-24.4307-27.3468-16.0689-44.882S325.7609,252.65,332.41,220.5118s54.8558-32.6918,68.1542-9.42c5.4247,9.4933,10.3885,17.2348,14.3646,23.0739A121.111,121.111,0,0,0,432.63,254.7584l9.7759,9.0765"/><path d="M408.551,318.6043l-23.6919-26.52c-.1864-.2086-.3641-.4337-.5632-.63-.4472-.4417.2284-.0812.2874.5922a5.5271,5.5271,0,0,0-.4238-1.1836l-2.42-6.76-7.8679-21.9759L368.52,247.1787a1.8545,1.8545,0,0,0-1.7555-1.3365,50.2622,50.2622,0,0,1-7.1459.2636,41.9026,41.9026,0,0,1-14.0993-2.4c-4.536-1.6649-8.8458-4.8343-10.7051-9.3684-2.5838-6.3-1.2621-14.2722,1.652-20.2875,6.114-12.6207,20.4652-17.98,33.82-17.3173a40.6016,40.6016,0,0,1,19.057,5.6194,29.3245,29.3245,0,0,1,7.1617,6.0765,26.8585,26.8585,0,0,1,2.7336,4.013q2.451,4.2672,5.0054,8.4735c5.9365,9.7488,12.1892,19.3675,19.8835,27.8379,4.8123,5.2977,10.189,10.0541,15.4288,14.9191l1.5622,1.45c1.7154,1.5927,4.296-.9761,2.5745-2.5745-3.9113-3.6315-7.8887-7.2034-11.7187-10.9209-8.6344-8.3805-15.5115-18.0494-21.8934-28.1972q-2.4492-3.8944-4.7969-7.8516c-1.4129-2.38-2.6856-4.8759-4.2483-7.1623a31.427,31.427,0,0,0-7.22-7.428,41.9568,41.9568,0,0,0-19.7754-7.5583c-14.3153-1.8476-30.3782,2.8169-38.7035,15.264a32.6768,32.6768,0,0,0-5.1556,22.4413,19.5789,19.5789,0,0,0,9.841,14.0092c4.797,2.7548,10.3644,3.9222,15.8234,4.3978a57.3973,57.3973,0,0,0,10.3915-.004c.1758-.0167.3516-.0334.5269-.0546l-1.7554-1.3365,12.4631,34.8108,2.8353,7.9191a9.6654,9.6654,0,0,0,1.3842,3.1183c3.8448,4.4886,7.8837,8.8248,11.8211,13.2321l12.464,13.9519c1.5643,1.751,4.132-.8311,2.5745-2.5745Z"/><path class="cls-5" d="M333.5183,218.2954s-1.224-15.7969,13.24-16.764,30.5333,2.9116,46.0481,21.7509"/><path d="M335.3388,218.2954a14.915,14.915,0,0,1-.0107-1.6743,15.5029,15.5029,0,0,1,.5207-3.8084c.8453-3.4941,2.7124-6.6553,6.1694-8.3043a17.3472,17.3472,0,0,1,7.0839-1.2689,53.2614,53.2614,0,0,1,7.9354.3457,45.2747,45.2747,0,0,1,15.9793,5.1274c7.2327,3.9059,13.2873,9.559,18.5028,15.857,1.4958,1.8062,4.059-.782,2.5745-2.5745-9.0381-10.9139-20.9169-19.6684-35.2023-21.8012a55.19,55.19,0,0,0-8.6082-.617,25.3581,25.3581,0,0,0-8.4448,1.09,14.9167,14.9167,0,0,0-9.0465,9.5979,20.94,20.94,0,0,0-1.0944,8.0308c.1744,2.3221,3.8167,2.3411,3.6409,0Z"/><path class="cls-5" d="M385.6036,233.81s-6.6492-5.541-20.5016-15.5148c-27.1509-19.9475-58.7345,8.8656-58.7345,8.8656-12.19,5.541-1.1082,18.8394,12.7443,11.6361s26.5967-13.2984,39.8951,0-7.2816,22.3828-21.0558,27.1508c-14.4065,4.9869-9.9738,17.1771,7.2033,14.9607a54.951,54.951,0,0,1,6.1936-.4459,44.6258,44.6258,0,0,1,30.8831,12.0057l25.0327,27.4231"/><path d="M386.8909,232.5229c-2.18-1.8148-4.4339-3.5441-6.6819-5.2726q-4.0923-3.1466-8.2521-6.2038a94.8306,94.8306,0,0,0-10.0857-6.9858c-11.37-6.2875-24.6555-5.5381-36.4052-.7321a73.642,73.642,0,0,0-13.2853,7.123c-2.366,1.5954-4.5048,3.4458-6.7848,5.1431a3.1321,3.1321,0,0,0-.2858.2086,16.7839,16.7839,0,0,0-3.4626,2.366,7.5905,7.5905,0,0,0-2.2015,6.7186c.9721,5.32,7.0539,7.8907,11.9125,7.8167,3.6722-.056,6.8915-1.4211,10.1012-3.0761a92.3249,92.3249,0,0,1,10.2454-4.7276c6.4393-2.3774,13.3015-3.1689,19.5454.2254a24.6738,24.6738,0,0,1,8.6049,7.4849,7.6122,7.6122,0,0,1,1.4056,6.2234c-1.3391,4.9265-7.1477,8.0689-11.3526,10.221a84.2114,84.2114,0,0,1-8.6816,3.7806c-2.8744,1.0839-5.9083,1.9093-8.5208,3.5727-3.7368,2.3791-6.8419,6.9034-4.2466,11.2692,2.8609,4.8126,9.7052,5.59,14.7258,5.247,4.3363-.2965,8.53-.8676,12.8895-.4534a42.2876,42.2876,0,0,1,11.37,2.771c5.0477,1.9769,10.3275,5.0389,14.013,9.0763l6.4547,7.0711,16.9413,18.5591,1.1224,1.23c1.5831,1.7343,4.1522-.8462,2.5745-2.5745L395.53,304.34l-8.6823-9.5114a53.0132,53.0132,0,0,0-5.1918-5.2785,46.134,46.134,0,0,0-33.1027-10.7932c-3.6575.2427-7.2971.9919-10.9568.3118a9.6735,9.6735,0,0,1-5.6213-2.7,3.4838,3.4838,0,0,1-.8322-1.79c.0537.3074-.005-.08-.0075-.1936a5.1907,5.1907,0,0,1,.0168-.602c.0282-.2974-.0484.2613.0085-.0364.0167-.0871.0335-.1756.0568-.2612a5.9,5.9,0,0,1,.2219-.6979c.002-.0049.38-.6944.5627-.9527a8.0571,8.0571,0,0,1,.9593-1.0636,12.8978,12.8978,0,0,1,3.1277-2.09c2.6482-1.3289,5.6031-2.1048,8.3536-3.2072,8.2487-3.3058,24.6911-10.5452,19.8526-22.2475a21.5687,21.5687,0,0,0-6.5738-8.0565,26.21,26.21,0,0,0-9.9924-5.3273c-6.7359-1.7359-13.5647.03-19.8047,2.6718-3.4509,1.4611-6.7334,3.2344-10.0888,4.8927a14.1587,14.1587,0,0,1-8.9173,1.4554,8.2355,8.2355,0,0,1-5.2467-3.1262,3.5912,3.5912,0,0,1,.0611-4.4334c1.0723-1.4585,2.7735-1.8917,4.0931-3.0067.6414-.542,1.2788-1.0861,1.937-1.6082.21-.1668.7055-.55.5334-.4181q.4857-.3713.9769-.7353,1.06-.7841,2.1464-1.531,2.7461-1.8889,5.6476-3.5381c9.63-5.4632,21.1162-9.0856,32.2033-6.59,7.35,1.6547,13.07,6.0518,19.0175,10.4387,4.2331,3.1221,8.4391,6.2865,12.5435,9.5769.4976.3989.9951.7981,1.4852,1.2062,1.7886,1.489,4.3778-1.0732,2.5746-2.5746Z"/><path class="cls-6" d="M793.7924,177.9305l-.0149,5.8744a31.667,31.667,0,0,0,10.8141,23.9122h0a31.6673,31.6673,0,0,0,29.6134,6.5993l59.634-17.1674a49.383,49.383,0,0,1,59.0358,27.966v0a49.3829,49.3829,0,0,1-29.2829,66.1773L850.9968,316.313,710.8392,252.4966l15.5068-32.8029"/><path d="M791.9719,177.9305c-.0049,1.9581-.0194,3.9163-.0149,5.8744a34.24,34.24,0,0,0,2.9823,13.87,33.6437,33.6437,0,0,0,20.1131,18.0427,34.2518,34.2518,0,0,0,20.2345.1818l8.7651-2.5233,32.1574-9.2574c6.7735-1.95,13.53-4.183,20.392-5.8124a47.5663,47.5663,0,0,1,27.4974,90.8773c-5.6255,2.0727-11.3424,3.9209-17.01,5.8742l-32.465,11.1894-22.9192,7.8993-1.1918.4108,1.4027.1835-13.9992-6.3741-33.3807-15.1989-40.59-18.4813-34.9-15.8905-11.6214-5.2914c-1.7807-.8108-3.58-1.8358-5.4327-2.4736-.08-.0276-.157-.0715-.2341-.1066l.6531,2.4907,13.5825-28.7322,1.9243-4.0706c.996-2.1069-2.142-3.957-3.1438-1.8377l-13.5825,28.7323-1.9243,4.0706a1.8457,1.8457,0,0,0,.6531,2.4907l6.21,2.8276,16.3321,7.4363,22.9,10.4267,26.2278,11.942L807.6124,298.55l22.287,10.1477,15.307,6.97,3.9088,1.78a3.6433,3.6433,0,0,0,2.4876.58c1.4628-.39,2.9-1,4.3306-1.4926l9.2293-3.181,26.1537-9.0141,24.3124-8.38c4.9573-1.7086,10.0844-3.2314,14.7914-5.5641a51.2087,51.2087,0,0,0-5.3865-93.8929,52.0947,52.0947,0,0,0-32.5075-.87l-18.7453,5.3964-27.0577,7.7893c-4.9541,1.4262-9.9117,3.1273-14.9514,4.2379a30.121,30.121,0,0,1-35.0842-21.18c-1.274-4.5865-1.0867-9.2414-1.0748-13.9451a1.8215,1.8215,0,0,0-3.6409,0Z"/><path class="cls-6" d="M719.1213,137.0513l-1.1251,94.5707s-54.3775,6.3288-59.6415-23.26a46.2006,46.2006,0,0,1,13.1211-37.5741c-5.3677-14.314-2.9821-30.4172,5.9642-47.1168"/><path d="M717.3008,137.0513l-.1121,9.4234L716.921,168.98l-.3254,27.3521-.2814,23.6514-.0927,7.7913a29.2929,29.2929,0,0,0-.0437,3.6782,1.3519,1.3519,0,0,1-.0021.17l1.8205-1.82a99.5271,99.5271,0,0,1-10.0427.5553,101.1235,101.1235,0,0,1-21.58-1.7711c-7.2616-1.48-14.8176-4.0234-20.181-9.2137a20.46,20.46,0,0,1-5.49-8.9625,25.7136,25.7136,0,0,1-.5942-2.5378c-.008-.0428-.0118-.0865-.0206-.1291-.0878-.4219.021.1964.01.0907-.1038-1.0255-.1961-2.0459-.2272-3.0773a45.1371,45.1371,0,0,1,9.3125-28.5484,49.57,49.57,0,0,1,3.5789-4.1328,1.8047,1.8047,0,0,0,.4682-1.7712c-5.6876-15.3782-1.6869-31.6887,5.7807-45.714,1.1007-2.0674-2.0411-3.9089-3.1439-1.8377-7.8928,14.8241-12.1644,32.2513-6.1476,48.52l.4681-1.7712a49.6447,49.6447,0,0,0-13.9407,32.255c-.2478,6.17.9228,12.1556,4.7384,17.1907,4.9241,6.4977,12.6059,10.11,20.31,12.1839a94.41,94.41,0,0,0,23.4911,2.8735,107.0245,107.0245,0,0,0,13.0136-.54c.0649-.0073.13-.0139.1948-.0214a1.8683,1.8683,0,0,0,1.82-1.82l.1122-9.4233.2677-22.5049.3254-27.352.2814-23.6514c.0453-3.8071.2746-7.6634.1364-11.47-.002-.0562.0014-.1132.002-.1695.0279-2.3436-3.613-2.3451-3.6409,0Z"/><path class="cls-4" d="M646.2452,903.1858h84.5835l14.6026-23.8566h0a35.31,35.31,0,0,1,10.807,20.4449l.5249,3.4117h22.9136l.0965-29.8989.2172-67.3168-69.7477-19.0853-.1441,56.47c-1.0751,16.7026-16.9261,26.1967-45.5036,35.3977a24.573,24.573,0,0,0-16.1119,16.6142Z"/><path d="M646.2452,905.0062h82.8289c.55,0,1.1084.0289,1.6576,0,1.2-.0631,1.6455-.8633,2.187-1.748l13.6893-22.3646.3952-.6456-2.8591.3684A33.4335,33.4335,0,0,1,752.6,893.1108a51.3123,51.3123,0,0,1,2.4076,10.5589,1.8268,1.8268,0,0,0,1.7554,1.3365h22.9136a1.8475,1.8475,0,0,0,1.82-1.82l.0671-20.7875.0379-11.7364.0683-21.1665.0888-27.535c.0169-5.24.2175-10.5157.0509-15.7534-.0025-.0788,0-.1581.0007-.2369a1.8549,1.8549,0,0,0-1.3365-1.7555l-23.6062-6.4594L719.29,787.4724l-8.5628-2.343a1.84,1.84,0,0,0-2.3044,1.7554l-.0458,17.9554L708.3,834.6714,708.28,842.76a21.1035,21.1035,0,0,1-2.7836,10.0848c-2.6868,4.7893-6.977,8.4362-11.5513,11.36a103.959,103.959,0,0,1-20.4382,9.58c-4.0942,1.4971-8.4052,2.5911-12.3821,4.3771a25.8989,25.8989,0,0,0-9.146,6.92,27.0645,27.0645,0,0,0-5.2577,9.8252c-.569,1.9427-1.1141,3.8926-1.6711,5.8388l-.56,1.9566c-.646,2.2567,2.8662,3.22,3.5108.9679,1.2132-4.2388,2.1-8.8567,4.2923-12.7188a22.7653,22.7653,0,0,1,7.6525-8.0315c3.6-2.2621,7.8016-3.2468,11.7788-4.64a126.0991,126.0991,0,0,0,21.679-9.4841c5.1812-3.0045,10.0659-6.7027,13.6126-11.5831a25.6027,25.6027,0,0,0,4.9034-13.8755c.071-1.9306.01-3.8754.0148-5.8069l.0737-28.8553.0353-13.8392c.0064-2.51.1728-5.0785.0193-7.5847-.0074-.1208.0006-.2444.0009-.3655l-2.3044,1.7554L733.3651,795.1l37.5787,10.2827,8.5627,2.3431L778.17,805.97l-.0421,13.0552-.0873,27.0657-.074,22.9263-.0333,10.3137-.0753,23.34-.0017.5145,1.82-1.82H756.7632l1.7554,1.3365a49.6312,49.6312,0,0,0-2.6982-11.3,37.4824,37.4824,0,0,0-9.1018-13.36,1.8452,1.8452,0,0,0-2.8592.3684l-12.79,20.8949-1.8129,2.9618,1.5719-.9017H646.2452A1.8215,1.8215,0,0,0,646.2452,905.0062Z"/><path d="M655.6083,428.6044l-16.7816.4138s-5.8181,18.5623,9.9738,26.5967C664.1418,463.42,655.6083,428.6044,655.6083,428.6044Z"/><path d="M655.6083,426.784l-16.7816.4138a1.8728,1.8728,0,0,0-1.7554,1.3365,28.2976,28.2976,0,0,0-.9658,11.1162,21.6891,21.6891,0,0,0,11.7761,17.5364c2.0781,1.0473,4.578,1.8827,6.88,1.0519a7.061,7.061,0,0,0,4.0461-4.5746c1.6332-4.5338,1.0672-9.9525.4912-14.63a94.7435,94.7435,0,0,0-1.9348-10.914c-.5563-2.2749-4.0683-1.3115-3.5109.9679.6231,2.548,1.0965,5.1409,1.4951,7.7323.606,3.94,1.1675,9.3431.5962,13.1723a14.6842,14.6842,0,0,1-.7,2.8443c-.08.22.0874-.143-.1005.2358-.0926.1866-.1859.3718-.2924.5512-.1018.1714-.21.3381-.3281.4989.2515-.3431-.0628.0519-.168.1637-.0955.1014-.55.4435-.1427.1574-.1333.0936-.2707.1773-.41.26-.4161.2478.1509-.0209-.1255.0662a6.0445,6.0445,0,0,1-.6149.1606c.5078-.1032-.1253.0052-.2582.0025-.2214-.0045-.4387-.01-.6594-.0328.4116.0434-.1982-.0442-.3067-.07-.288-.07-.5724-.1493-.8532-.2439-5.8776-1.98-10.0461-7.7413-11.093-13.893a23.7875,23.7875,0,0,1-.29-4.1653q.01-1.0124.09-2.0224.0365-.464.0868-.9265.0193-.1764.04-.3526a.8873.8873,0,0,1,.0235-.1879,22.752,22.752,0,0,1,.74-3.5371l-1.7554,1.3365,16.7816-.4138C657.9471,430.3672,657.956,426.7261,655.6083,426.784Z"/><path class="cls-7" d="M662.0988,398.3775s-67.6,135.7542-57.6262,198.9214S742.151,818.1966,742.151,818.1966l80.2179-80.8143-94.83-117.4938,67.5437-158.3438-3.44-74.1166"/><path class="cls-3" d="M624.9554,522.6728a23.7876,23.7876,0,0,0,17.4948-7.6437,23.8566,23.8566,0,1,0,0-32.426,23.8157,23.8157,0,0,0-13.3429-7.2764c-5.3571,14.39-10.5468,29.6774-14.84,44.8167A23.7486,23.7486,0,0,0,624.9554,522.6728Z"/><path class="cls-3" d="M630.92,642.2628a23.7872,23.7872,0,0,0,12.8164-14.15,23.8568,23.8568,0,1,0-13.3079-29.5692,23.854,23.854,0,0,0-24.9244,3.9352c2.7666,11.7545,8.86,26.1371,17.0131,41.8463A23.7879,23.7879,0,0,0,630.92,642.2628Z"/><path class="cls-3" d="M748.15,670.9086a23.8525,23.8525,0,0,0-44.3624,2.1866,23.8567,23.8567,0,1,0,13.308,29.5692A23.8525,23.8525,0,0,0,748.15,670.9086Z"/><path d="M660.5269,397.4587c-3.0893,6.2063-5.9989,12.5064-8.873,18.8143Q641.1454,439.337,631.89,462.95a613.5749,613.5749,0,0,0-20.0624,59.1444c-5.1445,18.543-9.4464,37.7069-10.1058,57.0062a91.6873,91.6873,0,0,0,1.6635,22.2615,119.0706,119.0706,0,0,0,6.0516,19.0745c6.3463,15.9435,14.5545,31.13,23.1969,45.9283,10.0214,17.16,20.835,33.8533,32.003,50.2858q16.2525,23.9139,33.4754,47.15,13.606,18.4489,27.6668,36.5569,7.15,9.2133,14.4355,18.3213.3243.4032.6494.8057a1.8365,1.8365,0,0,0,2.5745,0l27.1355-27.3373,43.2137-43.5349,9.8686-9.9421a1.8721,1.8721,0,0,0,0-2.5745l-9.4-11.6461L791.5429,696.307l-27.3523-33.8894-23.6553-29.3088-7.8392-9.7126c-1.1576-1.4343-2.2874-3.3837-3.6991-4.5832a1.5456,1.5456,0,0,1-.1709-.2118l.2846,2.2061,12.9209-30.2905,26.9007-63.0639L792.02,473.3272c1.5115-3.5434,3.2156-7.0623,4.554-10.6762a8.3481,8.3481,0,0,0,.2166-3.5176l-.506-10.904-2.7575-59.4186-.0642-1.3827c-.1083-2.333-3.75-2.3463-3.6409,0l2.4642,53.0974.6527,14.0645.2069,4.4593a7.7336,7.7336,0,0,0,.1073,2.3118c.2268.4763.5532-1.1822.1485-.4806a12.13,12.13,0,0,0-.5541,1.299l-2.389,5.6006-21.4554,50.2982-27.2983,63.9959q-7.748,18.1635-15.4958,36.3271-.121.2842-.2425.5683a1.949,1.949,0,0,0,.2847,2.2061l9.4,11.6462,22.7135,28.1419,27.3523,33.8893,23.6554,29.3089,7.8391,9.7126c1.1557,1.432,2.2866,3.3889,3.6991,4.5832a1.5254,1.5254,0,0,1,.1709.2117V736.095l-27.1355,27.3374-43.2137,43.5349-9.8686,9.942h2.5745c-3.3193-4.1-6.5822-8.2469-9.8369-12.3983q-12.5847-16.0515-24.7981-32.39-16.5759-22.1513-32.4332-44.83c-11.41-16.3771-22.4977-32.9914-32.9426-50.003-9.4106-15.3269-18.4132-30.99-25.953-47.3339-5.6771-12.306-10.87-25.3255-11.9075-38.9636-1.37-18.0113,1.972-36.309,6.1155-53.7641a518.09,518.09,0,0,1,18.5554-59.7336c6.2849-17.0081,13.17-33.7943,20.5124-50.3723,3.9555-8.9311,8.022-17.8193,12.3148-26.5941q.3013-.616.6056-1.2307c1.041-2.0912-2.0985-3.9376-3.1438-1.8376Z"/><path d="M777.9054,421.0676s28.8132,5.9146,32.1378,23.6583S771.2563,466.61,771.2563,466.61"/><path d="M777.4215,422.8231a61.9733,61.9733,0,0,1,12.3849,4.0645c6.8031,3.0066,13.9408,7.3582,17.2268,14.3324a15.6515,15.6515,0,0,1,.8964,2.4547,11.84,11.84,0,0,1,.46,2.38,7.2468,7.2468,0,0,1-.5534,3.602c-.1175.309.177-.3808-.05.1259-.0712.159-.1478.3159-.2273.4709q-.2006.3911-.432.7654a8.1266,8.1266,0,0,1-1.1282,1.5094,17.1848,17.1848,0,0,1-3.1826,2.7741c-5.5274,3.8074-12.2186,5.7574-18.7105,7.2638q-4.5952,1.0664-9.2675,1.7592-.83.1245-1.6623.2372c.6156-.0837-.1911.024-.3468.0438q-.2587.0327-.5174.064c-.3515.0424-.7031.0842-1.0553.1191-2.31.2283-2.3339,3.8715,0,3.6409a108.1517,108.1517,0,0,0,11.9513-1.9375c6.9742-1.4923,14.2-3.5193,20.31-7.3056a19.7807,19.7807,0,0,0,6.9336-6.634,12.4544,12.4544,0,0,0,1.0577-9.5946c-2.1973-8.3067-9.5233-14.05-16.8524-17.7851a65.5206,65.5206,0,0,0-16.2672-5.8612c-2.2868-.4716-3.2648,3.0371-.9679,3.5109Z"/><path class="cls-7" d="M704.7644,414.7234l-4.4328,403.6609,90.4273-.4859s15.2735-294.0193,12.0359-338.1741S789.9714,376.74,789.9714,376.74"/><path class="cls-3" d="M702.914,583.228a23.8443,23.8443,0,0,0,27.2093-5.5752,23.8567,23.8567,0,1,0,0-32.4261,23.867,23.867,0,0,0-26.7284-5.79Z"/><path class="cls-3" d="M800.8819,458.32a23.7887,23.7887,0,0,0-15.8884,7.5839,23.8566,23.8566,0,1,0,0,32.426,23.7884,23.7884,0,0,0,17.4949,7.6436c.2436,0,.4845-.0111.7263-.0183.0931-11.7848-.0262-20.86-.42-26.23C802.2908,472.8525,801.6331,465.6251,800.8819,458.32Z"/><path class="cls-3" d="M791.1565,630.6239a23.7884,23.7884,0,0,0-17.4949,7.6436,23.8567,23.8567,0,1,0,0,32.4261,23.8451,23.8451,0,0,0,23.8008,6.7949c.6585-14.9648,1.31-30.2574,1.9251-45.4058A23.8071,23.8071,0,0,0,791.1565,630.6239Z"/><path class="cls-3" d="M700.9247,764.3793a23.8377,23.8377,0,0,0,22.0416-7.2055,23.8566,23.8566,0,1,0,0-32.426A23.8139,23.8139,0,0,0,701.44,717.45Z"/><path d="M702.944,414.7234l-.1186,10.7994-.3228,29.39-.4773,43.4669-.5824,53.0315-.6378,58.0832-.6437,58.622-.5981,54.457-.5073,46.2013-.3648,33.2183c-.0575,5.2357-.2374,10.4867-.1727,15.7227.0028.2228-.0049.4462-.0073.669a1.8445,1.8445,0,0,0,1.82,1.82l30.4836-.1638,48.6667-.2615,11.277-.0606a1.8579,1.8579,0,0,0,1.82-1.82q.2934-5.6477.5778-11.2958.77-15.1781,1.5142-30.3574,1.0838-22.0618,2.1217-44.1258,1.2367-26.2983,2.4-52.6,1.2306-27.8878,2.35-55.78,1.0691-26.8305,1.9713-53.6672c.5089-15.475.9646-30.9526,1.2669-46.4333.2172-11.1247.3993-22.2586.2235-33.3853-.2656-16.8073-2.3552-33.5851-4.3483-50.2554q-3.6234-30.3064-8.4075-60.466-.2584-1.6384-.5228-3.2761c-.3756-2.3068-3.8847-1.328-3.5109.9679,2.4379,14.9716,4.5793,29.9977,6.5648,45.0351,1.7543,13.2861,3.3562,26.5947,4.6707,39.9319.7439,7.5482,1.5243,15.1174,1.7842,22.7018.3393,9.9028.2043,19.8266.06,29.7318-.2123,14.59-.6044,29.1773-1.05,43.7618q-.8015,26.2079-1.8351,52.4079-1.07,27.7645-2.2808,55.5235-1.1648,26.9211-2.4183,53.8383-1.0784,23.2261-2.2095,46.45-.8318,17.0924-1.6917,34.1835c-.2725,5.4117-.9687,10.984-.8351,16.4052.0057.2327-.0244.4712-.0365.7041l1.8205-1.8205-30.4836.1638-48.6667.2615-11.277.0606,1.8205,1.8205.1186-10.7994.3227-29.39.4773-43.467.5824-53.0314.6379-58.0832.6437-58.622.598-54.4571.5074-46.2012.3648-33.2184c.0575-5.2356.2373-10.4866.1726-15.7227-.0027-.2227.0049-.4461.0074-.6689.0257-2.3436-3.6152-2.3452-3.6409,0Z"/><path class="cls-3" d="M669.0251,231.7937h85.9876c11.0334,0,16.7977,4.87,21.5335,22.1543,0,0,28.51,132.5139,33.497,189.89-16.623-19.1253-171.2165-.25-171.2165-.25l25.5929-167.01"/><path d="M669.0251,233.6142H747.787c5.89,0,12.7111-.8,17.6311,2.8124a18.9218,18.9218,0,0,1,5.2049,6.6018,51.1074,51.1074,0,0,1,4.1679,11.4041c.2382.9812.4232,1.9785.6331,2.966q2.18,10.2592,4.2909,20.5332,3.576,17.3583,7,34.7475,4.1648,21.1626,8.06,42.377c2.6342,14.4117,5.1572,28.8451,7.4576,43.3141,1.9962,12.5556,3.8592,25.1422,5.2329,37.783q.4172,3.8383.7569,7.6845l3.1077-1.2873c-2.3071-2.6255-5.9257-3.9937-9.1776-4.9854A82.9083,82.9083,0,0,0,787.19,434.791c-13.8825-1.5563-27.9561-1.5106-41.903-1.1911-15.8111.3622-31.6083,1.2848-47.3774,2.4714q-19.9167,1.4988-39.7856,3.5648-6.47.6671-12.9331,1.3929a58.7378,58.7378,0,0,0-6.1.7067c-.0854.0189-.1775.0213-.2646.032l1.7554,2.3044,2.5464-16.6169,6.1148-39.903,7.3967-48.268,6.392-41.7116c1.0335-6.7445,2.0962-13.4853,3.1007-20.2342.0137-.0921.0282-.1841.0423-.2762a1.8817,1.8817,0,0,0-1.2715-2.2394,1.8325,1.8325,0,0,0-2.2393,1.2715l-2.5464,16.6168-6.1148,39.9031-7.3967,48.2679-6.392,41.7117c-1.0335,6.7445-2.0963,13.4852-3.1007,20.2341-.0137.0922-.0282.1842-.0423.2763-.1564,1.0205.4539,2.4632,1.7554,2.3044,5.132-.6264,10.2734-1.1823,15.4147-1.7261q18.7833-1.9868,37.6131-3.5c15.5989-1.2467,31.2236-2.2446,46.865-2.7576,14.3706-.4714,28.8259-.65,43.17.5018a104.3289,104.3289,0,0,1,15.8184,2.2288,43.5944,43.5944,0,0,1,5.92,1.7577c.2251.0869.4487.1771.6718.269-.51-.21.0926.0409.2077.0939.4029.1851.8035.3736,1.1959.58a17.1979,17.1979,0,0,1,1.9476,1.21c.1188.0845-.3091-.2767.0626.0528.1318.1167.2688.2271.3983.3465a8.78,8.78,0,0,1,.6435.6593,1.8373,1.8373,0,0,0,3.1077-1.2872c-1.0594-12.1378-2.7363-24.223-4.5462-36.2685-2.1534-14.3317-4.5758-28.6227-7.1189-42.89Q796.3,342.81,792.0427,321.0069q-3.6132-18.6139-7.4116-37.1912-2.505-12.2671-5.0888-24.5181c-1.3962-6.6078-2.9485-13.1735-6.33-19.1276-2.977-5.2419-7.5359-8.9438-13.5815-9.855a48.3091,48.3091,0,0,0-7.2464-.3417h-83.36a1.8215,1.8215,0,0,0,0,3.6409Z"/><path class="cls-3" d="M669.0251,231.7937h85.9876c11.0334,0,16.7977,4.87,21.5335,22.1543,0,0,28.51,132.5139,33.497,189.89-16.623-19.1253-171.2165-.25-171.2165-.25l25.5929-167.01"/><path d="M669.0251,233.6142H747.787c5.89,0,12.7111-.8,17.6311,2.8124a18.9218,18.9218,0,0,1,5.2049,6.6018,51.1074,51.1074,0,0,1,4.1679,11.4041c.2382.9812.4232,1.9785.6331,2.966q2.18,10.2592,4.2909,20.5332,3.576,17.3583,7,34.7475,4.1648,21.1626,8.06,42.377c2.6342,14.4117,5.1572,28.8451,7.4576,43.3141,1.9962,12.5556,3.8592,25.1422,5.2329,37.783q.4172,3.8383.7569,7.6845l3.1077-1.2873c-2.3071-2.6255-5.9257-3.9937-9.1776-4.9854A82.9083,82.9083,0,0,0,787.19,434.791c-13.8825-1.5563-27.9561-1.5106-41.903-1.1911-15.8111.3622-31.6083,1.2848-47.3774,2.4714q-19.9167,1.4988-39.7856,3.5648-6.47.6671-12.9331,1.3929a58.7378,58.7378,0,0,0-6.1.7067c-.0854.0189-.1775.0213-.2646.032l1.7554,2.3044,2.5464-16.6169,6.1148-39.903,7.3967-48.268,6.392-41.7116c1.0335-6.7445,2.0962-13.4853,3.1007-20.2342.0137-.0921.0282-.1841.0423-.2762a1.8817,1.8817,0,0,0-1.2715-2.2394,1.8325,1.8325,0,0,0-2.2393,1.2715l-2.5464,16.6168-6.1148,39.9031-7.3967,48.2679-6.392,41.7117c-1.0335,6.7445-2.0963,13.4852-3.1007,20.2341-.0137.0922-.0282.1842-.0423.2763-.1564,1.0205.4539,2.4632,1.7554,2.3044,5.132-.6264,10.2734-1.1823,15.4147-1.7261q18.7833-1.9868,37.6131-3.5c15.5989-1.2467,31.2236-2.2446,46.865-2.7576,14.3706-.4714,28.8259-.65,43.17.5018a104.3289,104.3289,0,0,1,15.8184,2.2288,43.5944,43.5944,0,0,1,5.92,1.7577c.2251.0869.4487.1771.6718.269-.51-.21.0926.0409.2077.0939.4029.1851.8035.3736,1.1959.58a17.1979,17.1979,0,0,1,1.9476,1.21c.1188.0845-.3091-.2767.0626.0528.1318.1167.2688.2271.3983.3465a8.78,8.78,0,0,1,.6435.6593,1.8373,1.8373,0,0,0,3.1077-1.2872c-1.0594-12.1378-2.7363-24.223-4.5462-36.2685-2.1534-14.3317-4.5758-28.6227-7.1189-42.89Q796.3,342.81,792.0427,321.0069q-3.6132-18.6139-7.4116-37.1912-2.505-12.2671-5.0888-24.5181c-1.3962-6.6078-2.9485-13.1735-6.33-19.1276-2.977-5.2419-7.5359-8.9438-13.5815-9.855a48.3091,48.3091,0,0,0-7.2464-.3417h-83.36a1.8215,1.8215,0,0,0,0,3.6409Z"/><path d="M679.92,576.0538A220.3443,220.3443,0,0,1,697.12,604.3313a49.5264,49.5264,0,0,1,3.8625,9.6869c.5766,2.2695,4.089,1.3077,3.5108-.9679-1.68-6.6136-5.2522-12.8465-8.63-18.7158-3.2875-5.7134-6.8251-11.2849-10.5018-16.7551-.7574-1.1267-1.5182-2.2515-2.2975-3.3632-1.335-1.9045-4.493-.0871-3.1438,1.8376Z"/><path d="M691.7227,425.457c-.1392,6.46-.0189,12.9348.2315,19.39.4213,10.86,1.0023,22.1,3.82,32.6455,1.0293,3.8523,2.4884,8.6343,6.0446,10.9213,1.9766,1.2711,3.8042-1.8791,1.8376-3.1438-.1711-.11-.3883-.278-.0876-.038-.121-.0966-.2419-.1959-.3539-.3029a9.8948,9.8948,0,0,1-.72-.7716c.0017.0021.1157.1745-.08-.107-.1061-.1527-.2129-.3045-.3142-.4605-.23-.3536-.44-.7193-.6379-1.0915a25.1287,25.1287,0,0,1-1.9589-5.1817A90.0591,90.0591,0,0,1,696.86,462.65a285.994,285.994,0,0,1-1.5342-30.4818c-.01-2.2368-.01-4.475.0379-6.7115.05-2.3438-3.59-2.3433-3.6409,0Z"/><path d="M712.0324,831.42c.0786-.0416.16-.0779.24-.1162.3414-.163.0434-.0115-.0824.0317.1374-.0472.2711-.1071.4078-.1566a15.5087,15.5087,0,0,1,2.416-.605c.2208-.0418-.3472.029.0121.0025.1482-.0109.2958-.0282.4441-.0382q.3868-.026.7751-.0263.4491,0,.8971.0354c.1406.0112.2807.0257.4209.0413-.3849-.0428.1755.0335.2047.0389a10.5557,10.5557,0,0,1,1.9665.5612c-.2073-.0818.1479.0654.2059.0926q.2326.1091.46.2284a12.6637,12.6637,0,0,1,1.1082.6663,1.833,1.833,0,0,0,2.4907-.6531,1.8633,1.8633,0,0,0-.6531-2.4907,13.1939,13.1939,0,0,0-13.1514-.756,1.8356,1.8356,0,0,0-.6531,2.4908,1.8606,1.8606,0,0,0,2.4907.653Z"/><path d="M710.7672,841.407a7.5657,7.5657,0,0,1,.9839-.227c.0748-.0133.15-.0247.2248-.0375.3259-.0555-.0289.0228-.1542.0181a6.1434,6.1434,0,0,0,.6535-.0665,12.4944,12.4944,0,0,1,1.3738-.0278q.4.014.7992.0542c.1421.0144.4884-.0355.031-.0014a1.9141,1.9141,0,0,1,.396.0649,11.0279,11.0279,0,0,1,1.7875.4808q.2133.0774.4234.1635c-.3765-.154.0527.0306.1327.0691a10.6886,10.6886,0,0,1,.9947.5449,9.7726,9.7726,0,0,1,.8461.5808c-.252-.1953.1416.1255.1881.1656.1881.1623.3691.3316.5479.504a1.82,1.82,0,1,0,2.5745-2.5745,13.1213,13.1213,0,0,0-8.4806-3.682,12.2486,12.2486,0,0,0-4.29.46,1.8209,1.8209,0,1,0,.9679,3.5109Z"/><path d="M709.2816,851.8769a7.5657,7.5657,0,0,1,.9839-.227c.0748-.0133.15-.0247.2248-.0375.3259-.0555-.0289.0228-.1542.0181a6.1175,6.1175,0,0,0,.6535-.0665,12.4944,12.4944,0,0,1,1.3738-.0278q.4.0139.7992.0542c.1421.0144.4884-.0355.031-.0014a1.9141,1.9141,0,0,1,.396.0649,11.0279,11.0279,0,0,1,1.7875.4808q.2133.0774.4234.1635c-.3765-.154.0527.0306.1327.0691a10.6886,10.6886,0,0,1,.9947.5449,9.7726,9.7726,0,0,1,.8461.5808c-.252-.1953.1416.1255.1881.1656.1881.1623.3691.3316.5479.504a1.82,1.82,0,1,0,2.5745-2.5745,13.1216,13.1216,0,0,0-8.4806-3.682,12.2486,12.2486,0,0,0-4.29.46,1.8209,1.8209,0,0,0,.9679,3.5109Z"/><polygon class="cls-5" points="708.835 236.393 712.431 206.038 752.953 193.949 750.073 234.556 731.117 234.604 719.189 244.147 708.835 236.393"/><path d="M710.6553,236.3934l3.15-26.5906.4461-3.765-1.3365,1.7554,35.4814-10.5846,5.0406-1.5037-2.3044-1.7554L748.61,229.5073l-.3581,5.0484,1.82-1.8205-15.3132.0392c-1.5536.0039-3.7407-.3947-5.0313.624-1.9641,1.55-3.9083,3.1266-5.8623,4.69l-5.9641,4.7713,2.206-.2846-10.3541-7.7534a1.834,1.834,0,0,0-2.4907.6531,1.862,1.862,0,0,0,.6531,2.4907l10.3541,7.7534a1.8492,1.8492,0,0,0,2.2061-.2847l11.9283-9.5426-1.2873.5332,18.9554-.0485a1.8616,1.8616,0,0,0,1.82-1.82l2.5223-35.5579.3581-5.0483a1.8337,1.8337,0,0,0-2.3044-1.7555l-35.4815,10.5847-5.0405,1.5037a1.8994,1.8994,0,0,0-1.3365,1.7554l-3.15,26.5906-.4461,3.765a1.8326,1.8326,0,0,0,1.82,1.82A1.8622,1.8622,0,0,0,710.6553,236.3934Z"/><path class="cls-5" d="M731.2457,209.5657a66.6538,66.6538,0,0,1-24.9412,3.8094c-39.9019-8.1327-16.5544-77.5532-16.5544-77.5532l75.734,3.17s8.553,16.9256,7.2531,24.3132c-2.2388,12.7224-15.4429,20.9309-20.1781,37.19"/><path d="M730.7617,207.81a63.8807,63.8807,0,0,1-21.166,3.7527,16.3313,16.3313,0,0,1-4.5094-.3369,29.8948,29.8948,0,0,1-2.9534-.9294,24.23,24.23,0,0,1-4.8755-2.5111c-5.8859-3.9137-9.2472-10.42-10.9148-17.2633-1.8273-7.4987-1.8421-15.4407-1.1785-23.1877a139.4493,139.4493,0,0,1,3.4435-20.5877q.8382-3.5,1.8326-6.96c.316-1.0942.7958-2.2143,1.0159-3.3311a1.2648,1.2648,0,0,1,.0494-.15l-1.7554,1.3365,25.7033,1.0759,40.6641,1.7021,9.3666.3921-1.5719-.9016c3.0236,5.9938,5.8993,12.5912,6.9433,19.2523.635,4.0514-.73,7.8053-2.7417,11.4436-2.4221,4.38-5.6074,8.2846-8.503,12.35a58.05,58.05,0,0,0-8.8071,17.0542c-.6675,2.2511,2.8452,3.2127,3.5108.9679a53.9632,53.9632,0,0,1,8.04-15.62c2.9485-4.1857,6.2337-8.1729,8.7526-12.6452,2.161-3.837,3.9528-8.28,3.4935-12.76a50.4372,50.4372,0,0,0-3.7695-13.3926c-1.1483-2.8715-2.3818-5.7256-3.7754-8.4882a1.8251,1.8251,0,0,0-1.5719-.9016l-25.7032-1.0759-40.6642-1.7021-9.3666-.3921a1.8564,1.8564,0,0,0-1.7554,1.3365c-.9774,2.91-1.769,5.891-2.5128,8.8671a150.8384,150.8384,0,0,0-3.7789,21.2178,80.3089,80.3089,0,0,0,.7672,24.4642c1.5452,7.4229,4.9047,14.7837,10.9639,19.5843a28.923,28.923,0,0,0,11.1625,5.3859,20.052,20.052,0,0,0,5.23.3422c2.0178-.04,4.0347-.1521,6.0432-.3506a67.1723,67.1723,0,0,0,10.88-1.933q2.5268-.681,4.98-1.5947c2.1787-.8062,1.2364-4.3266-.9679-3.5108Z"/><path d="M745.3543,174.4934c.0405-.1066.0829-.2125.1255-.3183.0436-.1082.0883-.216.1326-.324.1176-.2865-.02.0545-.078.1835.0426-.0943.0812-.1905.1223-.2854q.5932-1.37,1.2826-2.6959a28.367,28.367,0,0,1,1.902-3.1762q.1379-.1967.28-.39c.0419-.0568.0855-.1125.1268-.17.1461-.2021-.2936.3618-.06.0773.1961-.2383.3893-.4778.5966-.7067.1766-.195.3592-.3847.5495-.5665q.1548-.1479.3163-.2882c.0469-.0406.0952-.08.1421-.12.2257-.1962-.0285.0427-.1177.0861.2531-.1231.4777-.337.73-.472.0489-.0262.0993-.05.1481-.0761.225-.1214.1864.0295-.1368.0512a2.3014,2.3014,0,0,0,.3757-.1261c.267-.0729.4916.0151-.0292-.0247.1224.0093.2574-.022.3817-.02.0505.0008.1031.0081.1532.0067.28-.0079-.4137-.0939-.2152-.0319.1383.0432.2844.0626.4236.1075a1.8356,1.8356,0,0,0,2.2393-1.2715,1.8612,1.8612,0,0,0-1.2714-2.2394c-2.7826-.8971-5.3131,1.1487-6.9248,3.2a31.1466,31.1466,0,0,0-3.8983,6.6925c-.2822.6372-.5605,1.2786-.8081,1.93a1.8285,1.8285,0,0,0,1.2715,2.2394,1.8709,1.8709,0,0,0,2.2394-1.2715Z"/><path d="M713.3982,157.5389c.0947-.0545.1925-.1039.29-.1529.128-.0641.2587-.1225.3883-.1833.3835-.18-.3483.1286.1018-.0427a16.3033,16.3033,0,0,1,3.1451-.8606c.11-.0182.4-.0522.1408-.0223.1864-.0215.3731-.04.56-.0551q.5394-.0426,1.0808-.0447a12.0542,12.0542,0,0,1,2.0774.1607,13.5509,13.5509,0,0,1,5.1,2.1149,1.8208,1.8208,0,0,0,1.8377-3.1438c-4.7664-3.1562-11.48-3.8394-16.56-.914-2.03,1.169-.1985,4.3163,1.8377,3.1438Z"/><path d="M686.82,155.5036c4.8693-1.8743,12.26-1.2087,13.5941,4.7835.6088,2.7349-.7456,5.7551-2.1078,8.0622a24.7744,24.7744,0,0,1-3.5829,4.6278c-.7231.7463-1.5052,1.2949-1.7424,2.3476a5.6193,5.6193,0,0,0-.1051,1.9517c.4726,3.7019,4.6957,4.0649,7.6627,3.9058,2.3307-.1251,2.3454-3.7667,0-3.6409-1.2058.0646-2.924.2373-3.94-.45a.3181.3181,0,0,1-.14-.3033,1.6224,1.6224,0,0,0,.0086-.3727c.0568-.2237.18-.299-.0042-.0314a5.8891,5.8891,0,0,1,.6741-.6665,26.5085,26.5085,0,0,0,6.0706-9.2421,11.7864,11.7864,0,0,0-.1175-9.4672,10.5592,10.5592,0,0,0-7.8763-5.7449,19.1985,19.1985,0,0,0-9.3618.7293c-2.1642.8331-1.2242,4.3546.9679,3.5109Z"/><circle cx="691.9979" cy="163.6591" r="2.6524"/><path d="M693.735,163.8234c-.0038.05-.0535.2733-.0017.05-.0109.047-.0178.095-.0287.142-.0269.117-.0673.2275-.1034.3415.0666-.21,0-.0039-.0218.04q-.0315.0623-.0664.123c-.0348.0605-.075.1171-.1111.1767-.0954.1576.11-.1105-.0259.0358-.0789.0849-.1542.17-.24.2479-.0342.031-.07.06-.1046.09.171-.1463-.0019-.003-.0385.0211-.0971.0637-.1988.1167-.3014.1708-.1451.0765-.0044.0026.0258-.0083-.0773.0277-.1538.0556-.2328.0781-.0566.0162-.1137.0307-.1714.0431-.01.0022-.2387.035-.09.019.1508-.0162-.0867.0035-.0947.0039-.061.0029-.1221.0035-.1832.0022s-.1233-.0068-.1851-.01c-.2323-.0118.1237.0352-.0119-.0029-.1266-.0355-.2549-.0628-.3811-.1011-.2217-.0673.16.0913-.0438-.0152-.0414-.0216-.0837-.041-.1249-.0633a3.3966,3.3966,0,0,1-.2944-.185c.1847.1253-.09-.0852-.1317-.1263s-.0781-.0845-.1182-.1258c-.1587-.1635.0426.0878-.0495-.06-.0613-.0983-.1251-.1931-.1785-.2965-.0213-.0413-.0405-.0832-.0605-.1251.0986.2072.0043-.001-.01-.0431-.0371-.1125-.0608-.227-.0877-.3421-.0126-.0537-.0044-.1619.0018.0293-.0027-.0848-.013-.169-.0136-.2541a2.7908,2.7908,0,0,1,.0181-.3321c-.0264.2326.0337-.116.0532-.1839s.0484-.1343.0674-.2024c-.0473.1694-.0348.0726-.009.0229.065-.1253.1354-.2421.2083-.3626.1107-.1831-.0908.0773.0039-.0092.0414-.038.0756-.0886.1143-.13a3.281,3.281,0,0,1,.2526-.235c-.1713.147.107-.0652.1562-.0939q.06-.0351.1215-.0669t.1252-.0605q-.1662.0683-.0233.0132c.113-.0336.223-.0718.3387-.0966.0465-.01.0933-.0172.14-.0261-.21.04-.0495.0089.0086.0053a2.6843,2.6843,0,0,1,.3676.0028c.0591.0045.2158.0426.0132-.0011.0708.0153.1418.0276.212.0458s.1363.0418.2049.0621c.2168.0641-.1567-.0861.0437.0151.1259.0636.2431.1335.3626.2084.1369.0858.008.0029-.0174-.0182.071.059.14.1193.2058.1845.0326.0324.0644.0658.0953.1.0624.0689.1189.1534.0323.03a3.09,3.09,0,0,1,.2186.3527c.0208.04.1.2509.0228.0364.0238.066.0482.1315.0684.1989.0169.0564.0317.1133.0448.1707.0126.0551.037.3112.02.0751a3.6279,3.6279,0,0,1,.0087.4387.9165.9165,0,0,0,.91.91.93.93,0,0,0,.91-.91,3.5637,3.5637,0,0,0-6.154-2.6027,3.6178,3.6178,0,0,0-.5479,4.1127,3.5643,3.5643,0,0,0,6.7019-1.51.9146.9146,0,0,0-.91-.91A.9327.9327,0,0,0,693.735,163.8234Z"/><circle cx="716.9317" cy="165.2069" r="2.6524"/><path d="M718.6688,165.3712c-.0038.05-.0535.2733-.0018.05-.0109.047-.0178.095-.0286.1421-.027.117-.0673.2274-.1034.3414.0666-.21,0-.0039-.0218.04q-.0315.0624-.0664.123c-.0348.06-.0751.1171-.1111.1767-.0954.1576.11-.1105-.026.0359-.0788.0848-.1541.17-.24.2478-.0342.031-.07.06-.1046.09.171-.1463-.0019-.003-.0386.0211-.097.0637-.1987.1167-.3013.1708-.1451.0765-.0044.0026.0258-.0082-.0773.0276-.1538.0555-.2328.0781-.0567.0162-.1137.0306-.1714.043-.01.0022-.2387.035-.09.0191.1508-.0163-.0867.0035-.0947.0039-.0611.0029-.1221.0034-.1832.0022s-.1233-.0069-.1851-.01c-.2324-.0118.1236.0353-.0119-.0028-.1266-.0356-.2549-.0629-.3812-.1012-.2217-.0673.16.0913-.0437-.0151-.0414-.0217-.0837-.0411-.1249-.0633a3.4392,3.4392,0,0,1-.2945-.1851c.1848.1254-.09-.0852-.1316-.1263s-.0781-.0845-.1182-.1257c-.1587-.1635.0426.0878-.05-.06-.0613-.0983-.1251-.193-.1785-.2964-.0213-.0414-.0406-.0833-.06-.1252.0986.2073.0042-.001-.01-.043-.0371-.1126-.0608-.2271-.0878-.3421-.0126-.0538-.0043-.162.0019.0292-.0027-.0848-.013-.169-.0136-.2541a2.7919,2.7919,0,0,1,.0181-.3321c-.0264.2326.0336-.116.0532-.1839s.0483-.1342.0674-.2024c-.0474.1694-.0349.0726-.0091.0229.0651-.1253.1355-.2421.2084-.3626.1106-.183-.0908.0774.0039-.0092.0414-.0379.0756-.0886.1143-.13a3.28,3.28,0,0,1,.2526-.2349c-.1713.1469.107-.0653.1562-.094q.06-.035.1215-.0669t.1252-.06q-.1662.0682-.0233.0132c.113-.0336.223-.0718.3387-.0966.0465-.01.0933-.0172.14-.026-.21.04-.0495.0089.0086.0053a2.6671,2.6671,0,0,1,.3675.0027c.0592.0045.2159.0426.0133-.0011.0707.0153.1418.0276.2119.0458s.1364.0418.2049.0621c.2168.0641-.1567-.0861.0437.0151.126.0637.2432.1335.3627.2084.1369.0858.0079.0029-.0174-.0182.071.059.14.1193.2058.1845q.0489.0486.0953.1c.0624.0688.1189.1533.0322.03a3.0711,3.0711,0,0,1,.2186.3527c.0208.04.1.2509.0228.0364.0239.0661.0483.1315.0685.1989.0169.0564.0317.1133.0448.1707.0125.0551.037.3112.02.0751a3.6287,3.6287,0,0,1,.0087.4387.9166.9166,0,0,0,.91.91.93.93,0,0,0,.91-.91,3.5636,3.5636,0,0,0-6.1539-2.6027,3.6176,3.6176,0,0,0-.5479,4.1127,3.5642,3.5642,0,0,0,6.7018-1.51.9146.9146,0,0,0-.91-.91A.9328.9328,0,0,0,718.6688,165.3712Z"/><path d="M711.2908,183.62a4.2115,4.2115,0,0,1-.2755.4264c-.0581.0814-.2609.3456-.0184.0316.25-.3244-.0033-.0009-.0722.08q-.2344.2754-.4945.5278-.1409.1366-.2887.266-.0775.0678-.1569.1335c-.0271.0223-.0549.0438-.0816.0666-.1767.15.1956-.15.1987-.1523-.2806.1813-.5421.382-.8356.545q-.2165.12-.4411.2249c-.2631.1223-.0387.0011.1209-.0471-.0972.0294-.1918.075-.2878.1089a8.4773,8.4773,0,0,1-1.1285.2926c-.286.0588.4423-.04.0384-.0039-.1379.0124-.2752.0251-.4136.0319q-.3818.0186-.764-.001-.2009-.01-.4012-.03c-.0588-.0058-.1174-.0137-.1761-.0194-.244-.0235.37.0657.1247.0147-.3146-.0654-.6284-.12-.94-.2a1.8209,1.8209,0,1,0-.9679,3.5109,9.7094,9.7094,0,0,0,6.6709-.5322,9.1238,9.1238,0,0,0,3.3253-2.831,4.9731,4.9731,0,0,0,.4087-.6067,1.8207,1.8207,0,1,0-3.1438-1.8376Z"/><path class="cls-3" d="M769.8843,305.5776l101.9871,47.1168,30.3176,72.68A61.3788,61.3788,0,0,0,971.1023,386.58v0a61.3786,61.3786,0,0,0-21.7355-71.4031L845.533,240.7745a46.99,46.99,0,0,0-27.8637-9.1525H754.974"/><path d="M768.9655,307.15l10.1752,4.7008,24.3159,11.2336,29.408,13.5862,25.529,11.7941,8.4093,3.885a32.9511,32.9511,0,0,0,3.9805,1.8389,1.4033,1.4033,0,0,1,.1692.0782l-.8367-1.088,3.8854,9.3143,8.9264,21.399L892.8,407.5594l6.7245,16.1207c.461,1.105.9558,3.0487,2.18,3.45a25.4662,25.4662,0,0,0,4.81.7276q2.4144.2833,4.8464.3738a61.1313,61.1313,0,0,0,9.38-.37A63.19,63.19,0,0,0,950.59,313.8238c-1.8612-1.3516-3.7391-2.6807-5.6089-4.02l-13.9456-9.9927-19.2978-13.8279-21.3611-15.3063-20.1356-14.4281-15.5631-11.1517q-3.9311-2.8169-7.8621-5.6337a50.0515,50.0515,0,0,0-29.22-9.6614c-4.5175-.0089-9.035,0-13.5525,0H754.974a1.8215,1.8215,0,0,0,0,3.6409h59.5637a55.708,55.708,0,0,1,15.69,1.7812A50.3828,50.3828,0,0,1,845.6,243.0529l17.5407,12.5688,30.4473,21.8169,31.591,22.6365,20.6957,14.83c1.7407,1.2472,3.5053,2.47,5.1681,3.8207a59.5622,59.5622,0,0,1-48.37,104.8936l1.2715,1.2715-4.3294-10.3788L889.89,391.199l-10.1857-24.4181-5.8607-14.05a3.1736,3.1736,0,0,0-1.6213-1.8707l-3.9772-1.8374-16.6333-7.6844L827.9028,330.385l-25.0691-11.5816-20.6887-9.5579-10.8477-5.0115-.4941-.2284c-2.113-.9761-3.9648,2.1612-1.8377,3.1439Z"/><path class="cls-3" d="M698.3145,276.3532l5.1819,16.5814L647.6192,340.17l-55.4667,19.6818L561.7354,316.313s-2.9821-7.157,1.7892-8.9462a13.5085,13.5085,0,0,1,9.5427-10.7355l67.3949,19.6817,36.9778-39.96s4.7713-3.5785,7.1569,0C686.9826,274.564,696.5252,274.564,698.3145,276.3532Z"/><path d="M696.5591,276.8371l5.1819,16.5814.4681-1.7712-15.917,13.4552L658.0828,328.949l-9.514,8.0425c-.6839.5781-1.4292,1.1248-2.0708,1.7505-.4928.4806.7178-.327.59-.311a4.162,4.162,0,0,0-.775.275l-27.6161,9.7992-16.91,6c-3.2093,1.1388-6.4942,2.16-9.656,3.4263-.1514.0607-.3085.11-.4622.164l2.0559.8366L578.0153,336.447l-10.557-15.1111-3.215-4.6018a12.9578,12.9578,0,0,0-.7886-1.1289c-.4283-.49.1706.6986-.1366-.2387a9.3714,9.3714,0,0,1-.6484-4.2657,2.602,2.602,0,0,1,.7946-1.6459c.4119-.3447.9586-.422,1.3476-.8009a2.7991,2.7991,0,0,0,.622-1.503,12.0461,12.0461,0,0,1,8.1173-8.7643h-.9679l22.8525,6.6738,36.1656,10.5616,8.3768,2.4463a1.8091,1.8091,0,0,0,1.7712-.4681l14.3643-15.5226,20.3714-22.0144a21.0966,21.0966,0,0,0,2.13-2.3016c.0379-.0564.2538-.384-.0671.0176-.2344.2934-.1137.0751.0678-.0325.2327-.1381.4568-.2889.6941-.42,1.0877-.6006,2.8116-1.3023,3.7152-.0548a1.848,1.848,0,0,0,2.4908.6531c1.4282-1.0026,4.0828-1.083,6.0157-1.093a20.9072,20.9072,0,0,1,3.43.2156,11.1556,11.1556,0,0,1,1.5618.367c-.0025-.0008.58.2013.2594.0941a3.104,3.104,0,0,1,.2818.1572q-.2507-.2178-.0374-.0256c1.7248,1.5807,4.3064-.9872,2.5745-2.5745-1.95-1.7872-5.2881-1.8616-7.7746-1.8747-2.5641-.0135-5.9573.0515-8.149,1.59l2.4907.6531c-2.8334-3.9117-7.9674-2.5824-10.837.5187l-7.6556,8.2729-22.8186,24.6588-5.6827,6.141,1.7712-.4682-28.21-8.2382L575.779,295.5265c-.61-.178-1.2169-.37-1.83-.5345a4.8414,4.8414,0,0,0-3.3041.6445,15.4854,15.4854,0,0,0-8.8755,11.2464l1.2715-1.2715c-3.6134,1.4777-4.4486,4.9332-3.8127,8.5088a9.3484,9.3484,0,0,0,1.1309,3.3914c1.7356,2.7,3.691,5.2832,5.529,7.9141l19.5868,28.0359,5.1059,7.3086a1.8664,1.8664,0,0,0,2.0559.8366l22.7051-8.0567,30.5052-10.8244c.7394-.2624,1.5138-.4834,2.2352-.7932a6.8919,6.8919,0,0,0,1.6942-1.2108l7.861-6.6453,27.7515-23.4594c6.3521-5.37,12.914-10.5673,19.0913-16.1386.0983-.0886.2026-.1712.3036-.2566a1.7845,1.7845,0,0,0,.4682-1.7712L700.07,275.8693C699.3733,273.64,695.8574,274.5918,696.5591,276.8371Z"/><path class="cls-6" d="M793.741,186.2945c1.1928-63.22-15.5068-68.5878-44.409-81.5946-41.7368-18.7828-62.0605-1.0438-71.7045,18.74l-2.039,4.3749,6.93,10.9988a13.99,13.99,0,0,0,8.5021,3.14c13.2829.3587,28.3917.3682,36.2134.0383a10.2893,10.2893,0,0,1,10.7075,10.8367l-1.0575,19.6331c.9693-9.0169,9.4249-20.4566,15.8869-19.7619s11.1946,3.4054,10.2,12.657c-.5115,4.7577-4.416,11.9287-7.95,16.0215a19.8355,19.8355,0,0,0-4.2354,8.3505h0a20.2112,20.2112,0,0,0,15.1086,24.41l3.3937.7832"/><path d="M681.2312,140.1008a16.9661,16.9661,0,0,0,10.4478,3.6909q6.15.16,12.3019.2194c7.0566.0714,14.1206.0918,21.1751-.124,2.8543-.0873,5.49-.12,7.8334,1.7861a8.6463,8.6463,0,0,1,3.1309,7.1661c-.1211,3.02-.3253,6.04-.4878,9.058l-.569,10.5646a1.8412,1.8412,0,0,0,1.82,1.82,1.8619,1.8619,0,0,0,1.82-1.82,24.9781,24.9781,0,0,1,4.0157-10.3128,19.2994,19.2994,0,0,1,6.9769-6.9791c2.2471-1.1519,5.0285-.6085,7.3063.3531a6.8569,6.8569,0,0,1,4.19,5.7679c.4908,3.8127-.7035,7.4955-2.3678,10.874a43.3385,43.3385,0,0,1-3.1983,5.4509c-1.1858,1.719-2.6454,3.2277-3.7761,4.9844a22.0545,22.0545,0,0,0,8.1756,31.2659,35.0011,35.0011,0,0,0,8.7775,2.8116c2.28.5263,3.2537-2.9833.9679-3.5108a32.4266,32.4266,0,0,1-7.6007-2.2849,18.4483,18.4483,0,0,1-9.9994-18.69,18.2956,18.2956,0,0,1,1.7133-5.7919,33.5282,33.5282,0,0,1,3.7972-5.4462c4.6044-6.0454,9.3715-15.1584,6.4445-22.9142a10.374,10.374,0,0,0-6.2951-6.0808c-2.8532-1.0882-6.1626-1.565-9.0357-.36-3.7826,1.5863-6.7052,4.9217-8.9287,8.2673a29.0472,29.0472,0,0,0-4.8038,12.5956h3.6409c.35-6.4944.7635-12.9885,1.05-19.486a12.2308,12.2308,0,0,0-9.6554-12.5657c-2.9029-.5516-6.0413-.12-8.981-.07-3.6682.0624-7.3372.0779-11.0058.0691q-6.8816-.0165-13.7621-.1519c-4.4248-.0868-8.8724.1745-12.5439-2.7308a1.881,1.881,0,0,0-2.5745,0,1.8314,1.8314,0,0,0,0,2.5745Z"/><polygon class="cls-8" points="599.756 442.515 561.644 316.292 641.202 325.273 698.216 276.555 743.747 417.803 676.247 462.435 599.756 442.515"/><path d="M601.511,442.0307,597.7032,429.42l-9.0692-30.0368-11.0387-36.56-9.51-31.4968-3.1415-10.4044c-.4841-1.6034-.8359-3.3506-1.4793-4.9-.0282-.0679-.0435-.1439-.0648-.2145l-1.7554,2.3044,25.785,2.9109,42.1236,4.7553,11.0272,1.2449c1.91.2155,3.6024-1.9094,4.9492-3.06l29.2584-25.0012L699.1083,278.18l.3954-.3379-3.0426-.8033,4.5309,14.0563,10.88,33.7532,13.16,40.8268,11.3712,35.2767,3.7431,11.6124c.58,1.7988,1.0168,3.7547,1.77,5.491.0318.0732.05.1554.0747.2317l.8366-2.0559-22.8833,15.1308-36.2414,23.9635-8.3749,5.5376,1.4028-.1835L650.73,453.9082l-41.0959-10.7024-9.3948-2.4466c-2.2692-.5909-3.2372,2.92-.9679,3.5108l26.6933,6.9516,41.3739,10.7747c2.7848.7252,5.5837,1.63,8.4082,2.19,1.1175.2213,1.8559-.4683,2.7154-1.0365l4.4183-2.9215,34.6631-22.92,26.6825-17.6429.4392-.2905a1.8642,1.8642,0,0,0,.8366-2.0558l-4.5309-14.0563-10.88-33.7533-13.16-40.8267L705.56,293.4059c-1.8361-5.6961-3.5519-11.4486-5.5131-17.1033-.0266-.0766-.05-.1545-.0747-.2317a1.8461,1.8461,0,0,0-3.0427-.8033l-19.3419,16.5276L646.98,317.9494l-7.0643,6.0364,1.2873-.5332-26.9606-3.0436-42.7943-4.831-9.8033-1.1067a1.8318,1.8318,0,0,0-1.7554,2.3044l3.8078,12.6112,9.0692,30.0368,11.0386,36.56,9.51,31.4969c1.538,5.0938,2.9383,10.2554,4.6208,15.3039.0235.0708.0432.1431.0647.2145C598.6756,445.2358,602.1908,444.2824,601.511,442.0307Z"/><path d="M795.5614,186.2945a225.0279,225.0279,0,0,0-.9471-27.8541,94.8414,94.8414,0,0,0-3.911-19.7107,45.7022,45.7022,0,0,0-16.4593-23.1836,76.6006,76.6006,0,0,0-11.7761-6.8334c-5.2467-2.5491-10.5961-4.9744-15.9832-7.209-15.078-6.2544-32.7624-9.7532-48.143-2.523-10.6149,4.99-18.0827,14.5212-22.9437,24.9512l-1.3814,2.9641c-.9837,2.1107,2.1538,3.9618,3.1438,1.8376a81.5257,81.5257,0,0,1,7.0372-12.8841,42.2658,42.2658,0,0,1,12.1232-11.6336c12.9518-8.0064,28.7678-6.3853,42.6017-1.6921a189.919,189.919,0,0,1,18.956,8.0258,98.8523,98.8523,0,0,1,11.9663,6.3846,41.0287,41.0287,0,0,1,16.1314,19.4148c5.3237,13.3223,5.9393,28.3521,6.0014,42.5147q.0163,3.7157-.0571,7.4308c-.0427,2.3438,3.5982,2.344,3.6409,0Z"/><path class="cls-5" d="M971.1023,386.58v0a61.3788,61.3788,0,0,1-68.9133,38.7947L718.3426,390.5369l5.3143-61.7565,178.0352,17.95"/><path d="M969.3469,386.0958a59.56,59.56,0,0,1-66.9944,37.4625q-4.9192-.9294-9.8375-1.8641l-20.8815-3.9569-28.2677-5.3565L811.37,406.3179l-32.065-6.0761-28.4763-5.3961L729.6,390.8229c-3.4272-.6494-6.869-1.4706-10.3243-1.9563-.15-.0212-.3-.0568-.4488-.0851l1.3365,1.7554,1.8043-20.9678,2.8509-33.13.659-7.6588-1.82,1.8205,4.7434.4782,12.9906,1.31,19.1273,1.9285,23.331,2.3523,25.6826,2.5893,25.8018,2.6014,24.0629,2.426,20.4327,2.06,14.62,1.4741c2.303.2322,4.6269.58,6.9393.7.101.0052.2024.02.3031.0306,2.3293.2348,2.3129-3.4077,0-3.6409l-4.7434-.4783-12.9906-1.31-19.1273-1.9285L841.5,338.8411l-25.6826-2.5894L790.0155,333.65l-24.063-2.426-20.4327-2.06-14.62-1.474c-2.303-.2322-4.6269-.58-6.9393-.7-.101-.0052-.2024-.02-.3031-.0305-1.0375-.1046-1.7432.9226-1.82,1.82l-1.8043,20.9679-2.8509,33.13-.659,7.6587a1.8207,1.8207,0,0,0,1.3365,1.7555l7.2733,1.3782,19.2063,3.6394,27.3969,5.1916,31.9693,6.0579,32.5471,6.1674,29.4968,5.5894,22.7721,4.3152,12.1221,2.2971a65.222,65.222,0,0,0,30.84-1.2333,63.06,63.06,0,0,0,41.3749-38.6316c.8222-2.1972-2.6958-3.1461-3.5108-.9679Z"/><path class="cls-3" d="M901.6921,346.73l-90.2765-9.1019c1.0862,8.9282.8078,21.244-1.096,34.6747-1.9341,13.6427-15.3718,37.1129-18.9643,45.4006l103.18,11.9284c39.96,5.3677,66.0977-15.0734,76.5671-43.0522v0"/><path d="M901.6921,344.91l-8.9948-.9069-21.4764-2.1653-26.1086-2.6323-22.5791-2.2765-7.4132-.7474c-1.171-.1181-2.3751-.3323-3.5528-.3582-.05-.0011-.1015-.01-.1516-.0153a1.8213,1.8213,0,0,0-1.8205,1.82,111.5052,111.5052,0,0,1,.4525,18.7052c-.3156,6.3658-.686,12.9959-2.2229,19.2025-2.529,10.2136-7.478,19.8429-12.1483,29.2088-1.9915,3.9938-4.1091,7.9469-5.893,12.04a1.8541,1.8541,0,0,0,1.5719,2.7393l21.0075,2.4286,42.6359,4.929,34.5456,3.9937c2.61.3017,5.2189.6423,7.8312.9178a80.5128,80.5128,0,0,0,32.719-2.8977,67.1732,67.1732,0,0,0,40.3458-36.054c.4934-1.0632.959-2.1389,1.4084-3.2214a9.1691,9.1691,0,0,0,1.0741-3.04,1.8215,1.8215,0,0,0-3.6409,0c0-.5776-.242.3227-.2615.3732q-.1656.4271-.3364.8522-.2529.63-.5187,1.2544-.7174,1.6767-1.522,3.3151-1.4625,2.9894-3.1953,5.836a64.8917,64.8917,0,0,1-7.8666,10.4223,61.1336,61.1336,0,0,1-22.1666,15.2254,73.5159,73.5159,0,0,1-30.5013,4.7164c-3.9475-.1824-7.8645-.7038-11.7872-1.1573l-32.0554-3.7058-42.7116-4.9378-16.3708-1.8925c-2.7361-.3164-5.5066-.7955-8.2575-.9547-.1252-.0072-.251-.029-.3757-.0434l1.5719,2.7393c3.7919-8.7,8.5295-16.9707,12.374-25.6552a110.2182,110.2182,0,0,0,5.6624-15.0486c1.6908-6.098,2.1507-12.6039,2.5685-18.8935a116.0306,116.0306,0,0,0-.2961-21.3969l-1.82,1.82,8.9948.9069,21.4764,2.1652,26.1087,2.6324,22.579,2.2765,7.4132.7474c1.171.118,2.3751.3323,3.5528.3582.05.0011.1015.01.1516.0153a1.8348,1.8348,0,0,0,1.8205-1.82,1.8588,1.8588,0,0,0-1.8205-1.82Z"/><path d="M791.5171,417.8277c3.19.4523,6.773-3.9587,10.0506-11.52l-16.602-3.146C785.9677,411.7982,788.2237,417.3609,791.5171,417.8277Z"/><path d="M791.5171,419.6482c2.4227.2945,4.6423-1.4245,6.1451-3.133a35.1058,35.1058,0,0,0,5.4774-9.2889,1.8471,1.8471,0,0,0-1.0879-2.6743l-14.5069-2.7489-2.0952-.397c-1.0273-.1947-2.4548.4838-2.3044,1.7554a39.04,39.04,0,0,0,2.7046,11.405c.97,2.1737,2.6463,4.6088,5.1833,5.0166a1.8767,1.8767,0,0,0,2.2394-1.2714,1.8347,1.8347,0,0,0-1.2715-2.2394c-.1964-.0316-.3833-.1026-.577-.1371-.3108-.0554.217.1267.0443.0239-.0877-.0522-.1839-.0927-.2724-.1443-.0913-.0533-.1768-.1155-.2665-.1711-.1889-.117.2946.2956.0046.0039-.1641-.1651-.342-.3138-.5-.4863-.0663-.0724-.129-.1478-.1935-.2218-.3137-.36.12.1761-.0448-.0571-.1582-.2245-.31-.4516-.4509-.6872a14.2086,14.2086,0,0,1-.7767-1.5224,36.1118,36.1118,0,0,1-2.182-9.5113l-2.3044,1.7554,14.5069,2.749,2.0952.397-1.088-2.6742a34.5909,34.5909,0,0,1-4.6391,8.2375,13.5229,13.5229,0,0,1-1.1417,1.2192c-.193.18-.3915.3593-.6013.52.2361-.1812-.2629.1672-.3621.2276a6.134,6.134,0,0,1-.593.3175c.3652-.1707-.1438.0341-.2827.0744-.1063.0308-.2154.0465-.3232.07.1267-.0279.325,0,.0988-.0215-.21-.02-.4226-.0009-.6344-.0266a1.83,1.83,0,0,0-1.8205,1.82A1.8651,1.8651,0,0,0,791.5171,419.6482Z"/><path class="cls-5" d="M811.4156,338.8212l-17.0025-1.7142-70.7562-7.1338L718.3426,391.73l66.6231,12.6246,16.602,3.146c3.5925-8.2877,6.8178-20.3618,8.7519-34.0045C812.2234,360.0651,812.5018,347.7493,811.4156,338.8212Z"/><path d="M811.4156,337.0007l-17.0031-1.7142-10.5469-1.0633-23.34-2.3532-23.942-2.4139-8.5711-.8642c-1.3757-.1387-2.78-.3759-4.1631-.42-.0641-.002-.1289-.013-.1928-.0194-1.0375-.1046-1.7432.9225-1.82,1.82l-1.7929,20.8339-2.8606,33.2434-.6608,7.6792a1.82,1.82,0,0,0,1.3365,1.7554l32.2067,6.103,34.2976,6.4992,16.7208,3.1684a1.8592,1.8592,0,0,0,2.0558-.8366,122.6119,122.6119,0,0,0,7.3677-25.0986,175.8777,175.8777,0,0,0,3.3417-30.5533,102.866,102.866,0,0,0-.613-13.946,1.88,1.88,0,0,0-1.82-1.82,1.83,1.83,0,0,0-1.8205,1.82,123.5852,123.5852,0,0,1-.0968,26.25,169.2457,169.2457,0,0,1-5.2251,28.9551,96.7171,96.7171,0,0,1-4.2774,12.5549l2.0559-.8366-26.151-4.9554-44.7155-8.4733-12.3587-2.3419,1.3366,1.7554,1.7928-20.8338,2.8606-33.2434.6609-7.6793-1.8205,1.82,10.4562,1.0542,23.3068,2.35,24.0662,2.4265,12.719,1.2823,16.4663,1.66.7442.075a1.8346,1.8346,0,0,0,1.82-1.82A1.8588,1.8588,0,0,0,811.4156,337.0007Z"/><path d="M630.48,343.1578l-16.0244-2.4653-25.4187-3.9106-5.8886-.9059a1.8454,1.8454,0,0,0-2.2393,2.2394l5.4824,19.58,10.981,39.2177,8.28,29.5712c.2273.8118.4279,1.6373.6834,2.4408a2.517,2.517,0,0,0,2.11,1.6912l13.324,3.5418,33.1549,8.8133.6806.1809a1.8384,1.8384,0,0,0,2.2394-2.2393l-2.59-9.5756-6.2211-23.0033-7.5624-27.9633-6.5093-24.07c-1.0518-3.8891-1.9495-7.8636-3.1657-11.7056-.0173-.0547-.03-.1112-.045-.1665-.611-2.2594-4.1243-1.3-3.5109.9679l2.59,9.5755,6.2211,23.0034,7.5624,27.9632,6.5093,24.07,2.146,7.935a35.2886,35.2886,0,0,0,1.02,3.7706,1.5605,1.5605,0,0,1,.045.1666l2.2394-2.2394-16.1365-4.2895-25.8719-6.8773-5.93-1.5763,1.2715,1.2714-2.54-9.07L601.3014,397.44,593.93,371.1138l-6.3739-22.764-2.1-7.499a29.7811,29.7811,0,0,0-.9912-3.54,1.3565,1.3565,0,0,1-.0457-.1631l-2.2394,2.2393,16.0245,2.4653,25.4187,3.9106,5.8885.9059a1.8815,1.8815,0,0,0,2.2394-1.2714A1.8326,1.8326,0,0,0,630.48,343.1578Z"/><line class="cls-3" x1="639.2694" y1="316.313" x2="676.2471" y2="462.4348"/><path d="M637.5139,316.797l3.69,14.5818,8.828,34.8848,10.6743,42.18,9.25,36.5521c1.4867,5.875,2.771,11.85,4.471,17.6677.0245.0839.043.17.0645.2548.5745,2.27,4.0868,1.3082,3.5108-.9678l-3.69-14.5819-8.8279-34.8847L654.81,370.3037l-9.25-36.552c-1.4867-5.8751-2.7711-11.85-4.471-17.6678-.0245-.0839-.0431-.17-.0645-.2548-.5745-2.27-4.0868-1.3082-3.5109.9679Z"/><path class="cls-5" d="M720.9783,390.865H695.3324l-29.6206-44.4309a9.3833,9.3833,0,0,1,5.4983-14.3l37.6383-9.5561a30.984,30.984,0,0,1,16.9244.6279l22.8012,7.4024a30.9782,30.9782,0,0,0,6.5018,1.3621l29.1225,4.024"/><path d="M720.9783,389.0445H695.3324l1.5719.9016-18.9811-28.4716-9.66-14.49a11.4548,11.4548,0,0,1-2.2535-4.6816,7.6909,7.6909,0,0,1,5.8483-8.455c11.7491-3.0583,23.5365-5.9757,35.3037-8.9633a36.8547,36.8547,0,0,1,8.5749-1.3687,35.2569,35.2569,0,0,1,11.5136,2.0824l19.28,6.2593c5.0913,1.653,10.3167,2.18,15.6113,2.9116l20.2248,2.7946,1.3475.1862a1.886,1.886,0,0,0,2.2393-1.2715,1.8316,1.8316,0,0,0-1.2714-2.2394l-20.3391-2.81q-4.2939-.5934-8.5878-1.1867a56.5162,56.5162,0,0,1-9.9106-2.4322c-6.8167-2.2131-13.6-4.6227-20.479-6.6338a33.5823,33.5823,0,0,0-17.7114-.1732l-8.5849,2.18-24.6738,6.2645c-2.3683.6013-4.965,1.032-7.0265,2.4107a11.3387,11.3387,0,0,0-3.2258,15.5c2.8059,4.3478,5.7439,8.6159,8.6142,12.9213l14.87,22.3057,4.9855,7.4781c.3538.5308.6965,1.0715,1.0626,1.5939a2.4149,2.4149,0,0,0,2.2536,1.0283h25.0486a1.8215,1.8215,0,0,0,0-3.6409Z"/><path class="cls-5" d="M698.0664,380.3923c-7.6238,5.5987-30.3044,12.1389-45.51,16.11s-16.3293,15.1514-.2923,14.879c12.4907-.3975,26.2694-4.827,37.19-9.3078a84.62,84.62,0,0,1,27.9605-6.2424l.5813-.0287c6.7681-.3334,54.0172,6.0777,60.67,7.3648"/><path d="M697.1476,378.82a40.7764,40.7764,0,0,1-8.0441,4.2589c-3.6792,1.5666-7.4607,2.9-11.2531,4.1631-8.2268,2.74-16.5831,5.0905-24.968,7.2927a26.7725,26.7725,0,0,0-10.43,4.8006c-1.9579,1.6062-3.7309,4.033-3.5757,6.69a6.8546,6.8546,0,0,0,4.3339,5.6392c3.7453,1.7207,8.0676,1.6873,12.0909,1.3646,10.2845-.8248,20.348-3.728,29.9651-7.36,4.8372-1.8267,9.5592-3.84,14.56-5.2047a81.8874,81.8874,0,0,1,15.73-2.7013,67.9788,67.9788,0,0,1,11.5688.4573c5.8729.5793,11.7337,1.2842,17.5894,2.0148,10.6361,1.327,21.2985,2.6511,31.8743,4.4067.5318.0883,1.0633.1785,1.5927.28,2.2895.44,3.27-3.0687.9679-3.5108-9.2719-1.7808-18.7427-2.7982-28.1-4.0109-6.1175-.7928-12.24-1.5539-18.3709-2.235-4.3012-.4778-8.6251-.9979-12.9523-1.17a50.4175,50.4175,0,0,0-7.64.4474,87.1906,87.1906,0,0,0-15.2347,3.0848c-4.8357,1.4494-9.437,3.5-14.1711,5.2322a135.2746,135.2746,0,0,1-14.3631,4.4228,79.9955,79.9955,0,0,1-14.9736,2.3332c-3.1046.1545-7.01.1656-9.6569-1.7573a2.5777,2.5777,0,0,1-1.17-1.7348c.0761.374-.0079-.2116-.0082-.3258a3.2639,3.2639,0,0,1,.018-.3312c-.0342.3365-.0029.05.0123-.0191a3.0134,3.0134,0,0,1,.5073-1.2732c1.3962-2.3529,4.3694-3.8976,6.9289-4.8534,3.7652-1.406,7.7982-2.2045,11.6682-3.2811,4.22-1.1739,8.426-2.4,12.6055-3.7116,7.2439-2.2728,14.6584-4.6545,21.39-8.22a27.9812,27.9812,0,0,0,3.3469-2.0452c1.8788-1.3625.0637-4.5227-1.8377-3.1439Z"/><path class="cls-5" d="M703.65,380.4723S672.2046,398.64,646.3,399.4638c-16.037.2724-14.9136-10.9075.2923-14.879s37.8864-10.5117,45.51-16.11"/><path d="M702.7311,378.9c-4.4378,2.5608-9.0849,4.8-13.7477,6.9139a144.3757,144.3757,0,0,1-30.4152,10.3029c-5.2156,1.0686-10.9844,2.1035-16.3061,1.3139a9.9506,9.9506,0,0,1-4.7941-1.801,2.1721,2.1721,0,0,1-.8539-2.3685,7.2233,7.2233,0,0,1,2.6514-3.4322,19.99,19.99,0,0,1,5.9536-2.9469c5.3651-1.7469,10.9366-2.9549,16.3552-4.54,6.1726-1.806,12.3231-3.7288,18.3418-6.0013,4.4735-1.689,9.2038-3.4655,13.105-6.2946,1.8788-1.3624.0637-4.5226-1.8376-3.1438-3.5649,2.5852-7.8229,4.25-11.91,5.8044-5.6368,2.1439-11.3942,3.9693-17.174,5.6846-5.6791,1.6854-11.4507,3.0593-17.1236,4.7545-4.1872,1.2511-9.1746,3.4822-11.2712,7.603-1.719,3.3789-.3384,6.913,2.9163,8.6894,4.7066,2.5689,10.7132,1.9909,15.8228,1.3534,11.6049-1.4479,22.8185-5.19,33.5547-9.7248a167.4083,167.4083,0,0,0,18.5705-9.0228c2.0289-1.1708.1975-4.3182-1.8376-3.1438Z"/><path class="cls-9" d="M768.6915,232.2185c0,23.3867-20.0268,42.3455-44.7311,42.3455s-44.7312-18.9588-44.7312-42.3455l26.2423-3.5785L717.4,244.1468l15.5068-11.3319Z"/><path d="M766.8711,232.2185c-.0724,17.3306-11.9108,32.4841-28.1251,38.0583-16.7347,5.7531-36.0592,1.1376-47.8408-12.2117a39.4009,39.4009,0,0,1-9.8556-25.8466l-1.3365,1.7554,22.9874-3.1347,3.2549-.4438-2.0558-.8366,11.9283,15.5068a1.8493,1.8493,0,0,0,2.4907.6531l9.0512-6.6144,5.2877-3.8641c.2891-.2112.9467-.5166,1.1373-.8311-.2321.383-1.38.2008-.4528.219,3.4179.0671,6.8593-.1144,10.2769-.1713l15.6094-.26,9.4632-.1577c2.34-.039,2.3477-3.68,0-3.6409l-23.4278.3905-11.4858.1914a3.5432,3.5432,0,0,0-2.149.5253c-1.5168,1.0334-2.9721,2.1719-4.4538,3.2547l-10.6941,7.815,2.4907.6531-11.9283-15.5068a1.9625,1.9625,0,0,0-2.0559-.8367L682,230.0192l-3.255.4438a1.8231,1.8231,0,0,0-1.3365,1.7555c.0792,18.9444,12.9653,35.3727,30.6375,41.514,17.9567,6.24,39.0493,1.1729,51.6513-13.2147a43.2775,43.2775,0,0,0,10.8145-28.2993C770.5217,229.8753,766.8809,229.8723,766.8711,232.2185Z"/><path class="cls-5" d="M697.9593,367.3654s-31.45,15.69-56.69,17.7055c-15.6363,1.0153-15.0626-9.9466-.41-14.5327s36.4787-12.028,43.6565-17.8475"/><path d="M697.0405,365.7935c-4.5006,2.243-9.146,4.2247-13.8084,6.1016a183.5656,183.5656,0,0,1-30.2927,9.5838c-2.7211.5775-5.4652,1.0766-8.2265,1.4187a31.6514,31.6514,0,0,1-8.1279.2645,8.4059,8.4059,0,0,1-4.2958-1.6331,2.0675,2.0675,0,0,1-.676-2.2442,7.5332,7.5332,0,0,1,2.5687-3.4123,20.0822,20.0822,0,0,1,6.0434-3.2073c5.0909-1.796,10.2924-3.293,15.3961-5.06,5.9753-2.069,11.9131-4.2653,17.7171-6.7793,4.3283-1.8747,8.759-3.881,12.4644-6.8478a1.8336,1.8336,0,0,0,0-2.5745,1.862,1.862,0,0,0-2.5745,0c-3.18,2.5466-7.5479,4.4564-11.4093,6.14-5.2574,2.2926-10.6526,4.2755-16.065,6.1676-5.4657,1.9108-11.04,3.515-16.4967,5.4432-4.023,1.4217-8.7482,3.7711-10.6588,7.8541A6.196,6.196,0,0,0,631.58,385.42c4.7465,2.4242,10.5942,1.52,15.6371.7795,11.3547-1.6682,22.4315-5.1838,33.1242-9.2781,6.2714-2.4014,12.5225-4.9869,18.5371-7.9844,2.0973-1.0452.2553-4.1868-1.8376-3.1438Z"/><path class="cls-5" d="M691.2843,356.4427S659.8167,371.489,634.53,372.7881c-15.6588.5721-14.7747-10.3692.0017-14.5384s36.8047-10.99,44.1445-16.6037"/><path d="M690.3655,354.8708c-4.5385,2.1676-9.0826,3.9944-13.7981,5.7865a176.1108,176.1108,0,0,1-30.6644,8.9258c-2.6807.4913-5.377.8886-8.0908,1.1441a30.7047,30.7047,0,0,1-7.7864.0355,8.4821,8.4821,0,0,1-4.408-1.8064,2.0927,2.0927,0,0,1-.5618-2.275,7.3006,7.3006,0,0,1,2.5332-3.2048,20.2076,20.2076,0,0,1,6.2984-3.1316c5.1411-1.6479,10.3814-3,15.5334-4.6221,5.88-1.8512,11.7364-3.8138,17.4621-6.1035,4.3494-1.7393,8.9442-3.5561,12.7119-6.4014a1.8819,1.8819,0,0,0,.6531-2.4907,1.8314,1.8314,0,0,0-2.4907-.6531c-3.43,2.5905-7.56,4.31-11.52,5.9051-5.3469,2.1535-10.8128,4.0107-16.3025,5.7631-5.5193,1.7619-11.1115,3.2678-16.6453,4.9755-4.1142,1.27-9.03,3.489-11.1355,7.5226a6.2021,6.2021,0,0,0,2.5329,8.5414c4.5,2.63,10.4158,1.9393,15.3426,1.3485,11.4516-1.3732,22.64-4.581,33.4709-8.4707a200.9584,200.9584,0,0,0,18.7028-7.645c2.1134-1.0093.2683-4.15-1.8376-3.1438Z"/><path d="M724.855,884.7881h0a15.05,15.05,0,0,1-12.489,6.6518H649.9914a24.4515,24.4515,0,0,0-1.5082,3.9266l-2.238,7.8193h84.5835l14.6026-23.8566a35.3106,35.3106,0,0,1,10.807,20.4449l.5249,3.4117h22.9136l.0807-25.0495H737.344A15.05,15.05,0,0,0,724.855,884.7881Z"/><path d="M723.2831,883.8693a13.3387,13.3387,0,0,1-10.9337,5.75c-.7858.0082-1.5722,0-2.3581,0h-60a1.7952,1.7952,0,0,0-1.5719.9017c-1.8211,3.8483-2.762,8.1009-3.93,12.1807a1.8386,1.8386,0,0,0,1.7554,2.3044h82.8289c.55,0,1.1084.0289,1.6576,0,1.2-.0631,1.6455-.8633,2.187-1.748l13.6893-22.3646.3952-.6456-2.8591.3684a33.753,33.753,0,0,1,8.5266,12.6806,51.7907,51.7907,0,0,1,2.3371,10.3727,1.8269,1.8269,0,0,0,1.7554,1.3365h22.9136a1.8475,1.8475,0,0,0,1.8205-1.82l.0705-21.8973.01-3.1522a1.8466,1.8466,0,0,0-1.82-1.82H738.2366a17.5485,17.5485,0,0,0-14.9535,7.5534c-1.3348,1.9325,1.82,3.755,3.1438,1.8376,2.7292-3.9516,7.0488-5.75,11.7327-5.75h41.5979l-1.82-1.8205-.0706,21.8973-.01,3.1522,1.82-1.82H756.7632l1.7554,1.3365a50.1271,50.1271,0,0,0-2.6235-11.1158,37.8114,37.8114,0,0,0-9.1765-13.5441,1.8446,1.8446,0,0,0-2.8592.3684l-12.79,20.8949-1.8129,2.9618,1.5719-.9017H646.2452l1.7554,2.3044c1.0737-3.7511,1.8885-7.7731,3.5628-11.311l-1.572.9016h59.6807c.8974,0,1.7952.0094,2.6925,0a17.1285,17.1285,0,0,0,14.0623-7.5534C727.738,883.7572,724.5853,881.9329,723.2831,883.8693Z"/><path d="M694.736,868.4988h12.6495c6.7362,0,13.1675-2.4187,17.6507-7.5942,3.9379-4.546,5.5159-10.0453,5.5159-15.966V818.3843a1.8215,1.8215,0,0,0-3.6409,0v24.7385c0,1.0374.0076,2.075,0,3.1123a18.6062,18.6062,0,0,1-18.8907,18.6228c-4.4281.0087-8.8564,0-13.2845,0a1.8215,1.8215,0,0,0,0,3.6409Z"/><path d="M765.1442,876.9435c0-3.5978-.0065-7.1957,0-10.7935a15.9634,15.9634,0,0,1,9.163-14.6515,53.8363,53.8363,0,0,1,6.0327-2.0722c2.2167-.7262,1.2677-4.2433-.9679-3.5109-1.828.5989-3.7,1.1256-5.49,1.833a19.7086,19.7086,0,0,0-8.9981,7.1134,19.3544,19.3544,0,0,0-3.3789,10.7292c-.0231,1.7165-.0019,3.4346-.0019,5.1512v6.2013a1.8215,1.8215,0,0,0,3.6409,0Z"/><path class="cls-9" d="M703.4418,241.0491,700.7,246.5324l-13.7176-14.91c0-5.3677,5.4224-7.1569,8.8984-7.1569h9.0472a7.5666,7.5666,0,0,1,7.1177,4.9994l4.1216,11.3029a16.0056,16.0056,0,0,1,.9,6.9611l-2.4035,25.9177"/><path d="M701.87,240.13l-2.7417,5.4833,2.8592-.3684-13.7176-14.91.5332,1.2872c.1369-6.2034,8.2267-5.3365,12.4605-5.3365,2.3254,0,4.9344-.358,6.9554,1.03,1.86,1.2779,2.3867,3.4967,3.1151,5.4942,1.74,4.7729,4.3554,9.881,3.8993,15.0682-.3684,4.1888-.7767,8.3744-1.1649,12.5613l-1.2248,13.2065c-.2163,2.3321,3.426,2.3173,3.6409,0l1.6832-18.15c.2355-2.5393.4831-5.0778.7065-7.6182.3433-3.9045-.8456-7.305-2.1474-10.875-1.0967-3.0076-1.9874-6.2174-3.3779-9.1075a9.3886,9.3886,0,0,0-6.5466-5.0579,24.1984,24.1984,0,0,0-4.593-.1934c-3.3465,0-7.0787-.4108-10.3191.6127a9.5941,9.5941,0,0,0-5.7864,4.4342c-.86,1.6675-1.4981,3.9864-.1471,5.5019,4.4068,4.9432,8.9724,9.7526,13.4562,14.6263a1.8331,1.8331,0,0,0,2.8592-.3685l2.7416-5.4833c1.0449-2.09-2.0947-3.9358-3.1438-1.8376Z"/><path class="cls-9" d="M719.189,244.1468l8.9974-13.1917a10.399,10.399,0,0,1,9.6364-6.49h18.9187a10.399,10.399,0,0,1,10.2294,8.5283l-27.5037,14.1354-4.175-8.9462"/><path d="M720.7609,245.0656l5.4068-7.9273,3.0363-4.4517c1.04-1.5249,1.6639-3.1939,3.13-4.4236,2.856-2.3957,6.501-1.9775,9.9572-1.9775h12.3694a16.4012,16.4012,0,0,1,4.3081.2932,8.736,8.736,0,0,1,6.2469,6.8986l.8366-2.0558-24.0837,12.3777-3.42,1.7577,2.4908.6531-4.175-8.9462c-.99-2.1214-4.13-.2747-3.1438,1.8376l4.1749,8.9463a1.8494,1.8494,0,0,0,2.4908.653L764.47,236.323l3.42-1.7577a1.8591,1.8591,0,0,0,.8367-2.0559,12.4224,12.4224,0,0,0-12.3961-9.8648c-3.9174-.01-7.835,0-11.7524,0-3.52,0-7.7034-.5105-11.05.7881a12.5509,12.5509,0,0,0-4.2815,2.7269,16.7232,16.7232,0,0,0-2.6436,3.8936c-.6264,1.0841-1.4312,2.0984-2.1362,3.132l-6.85,10.0428c-1.3236,1.9407,1.83,3.764,3.1438,1.8376Z"/><line class="cls-3" x1="519.3277" y1="335.5543" x2="548.6142" y2="363.4298"/><path d="M518.04,336.8416l25.7148,24.4758,3.5718,3.4c1.697,1.6153,4.2758-.9551,2.5745-2.5745l-25.7148-24.4758-3.5718-3.4c-1.6971-1.6153-4.2759.9551-2.5745,2.5745Z"/><circle class="cls-9" cx="312.9343" cy="260.2623" r="22.1488"/><path d="M333.2627,260.2623a20.3272,20.3272,0,1,1-16.3486-19.9433,20.5179,20.5179,0,0,1,16.3486,19.9433c.0182,2.3419,3.6592,2.3473,3.6409,0a23.9717,23.9717,0,1,0-19.1884,23.4871,24.2664,24.2664,0,0,0,19.1884-23.4871C336.9218,257.919,333.281,257.9167,333.2627,260.2623Z"/><circle class="cls-9" cx="58.6783" cy="444.7345" r="22.1488"/><path d="M79.0067,444.7345a20.3272,20.3272,0,1,1-16.3486-19.9434,20.5182,20.5182,0,0,1,16.3486,19.9434c.0182,2.3418,3.6591,2.3473,3.6408,0a23.9628,23.9628,0,0,0-42.4512-15.2493,23.9654,23.9654,0,1,0,42.4512,15.2493C82.6658,442.3911,79.0249,442.3888,79.0067,444.7345Z"/><circle class="cls-9" cx="548.3791" cy="123.7287" r="22.1488"/><path d="M568.7074,123.7287a20.3271,20.3271,0,1,1-16.3485-19.9434,20.518,20.518,0,0,1,16.3485,19.9434c.0182,2.3418,3.6592,2.3473,3.6409,0a23.9717,23.9717,0,1,0-19.1884,23.487,24.266,24.266,0,0,0,19.1884-23.487C572.3666,121.3853,568.7257,121.383,568.7074,123.7287Z"/></svg>