<svg id="Layer_1" data-name="Layer 1" xmlns="http://www.w3.org/2000/svg" width="1000" height="1000" viewBox="0 0 1000 1000"><defs><style>.cls-1{fill:#fc7272;}.cls-2{fill:#fff;}.cls-3{fill:#ffc41f;}.cls-4{fill:#458dc9;}.cls-5{fill:#389b48;}</style></defs><path d="M652.7186,149.4275a1.8048,1.8048,0,0,0,0-3.6075,1.8048,1.8048,0,0,0,0,3.6075Z"/><path class="cls-1" d="M877.9014,720.2594,961.063,764.87,900.2023,879.2085S866.77,863.91,885.9361,819.5054a17.3489,17.3489,0,0,0-7.8781-22.3032c-10.1794-5.289-20.0525-10.3606-20.0525-10.3606"/><path d="M876.991,721.8169l8.2445,4.4227,19.9135,10.6823L929.1379,749.79,949.8847,760.92l6.873,3.6869a29.701,29.701,0,0,0,3.2453,1.7409,1.3733,1.3733,0,0,1,.15.08l-.6471-2.4679-6.0615,11.3877L938.89,802.6892l-17.5993,33.0637-15.1584,28.4779-5.0122,9.4163a45.87,45.87,0,0,0-2.3685,4.45,2.0786,2.0786,0,0,1-.1072.2013l2.4679-.6471a18.9092,18.9092,0,0,1-1.7463-.9473q-.9534-.5663-1.8672-1.1958-.5872-.4027-1.1588-.8276-.2577-.1916-.5123-.3874c.3657.2813-.3607-.29-.4848-.3907A36.0275,36.0275,0,0,1,885.2325,861.1c-3.4431-7.2734-4.0922-15.7764-2.8166-23.7332a72.5,72.5,0,0,1,4.907-16.553,19.8839,19.8839,0,0,0,.1243-16.1787,18.7065,18.7065,0,0,0-5.442-6.9945c-2.9669-2.35-6.6051-3.8493-9.9494-5.58q-6.5655-3.3969-13.14-6.7769c-2.0616-1.059-3.8887,2.0527-1.8208,3.115q5.3634,2.7552,10.7192,5.5252c3.2159,1.6619,6.4789,3.2586,9.65,5.0041a15.5161,15.5161,0,0,1,5.7763,5.4479,15.9937,15.9937,0,0,1,.8833,14.8151,74.6763,74.6763,0,0,0-5.1333,16.89c-1.4247,8.5706-.9415,17.3946,2.5008,25.4428A39.2922,39.2922,0,0,0,891.8,875.6172a32.4637,32.4637,0,0,0,7.4921,5.1488,1.8406,1.8406,0,0,0,2.4679-.6471l6.0615-11.3877L922.3749,841.39l17.5993-33.0636,15.1584-28.478c2.4575-4.6167,5.04-9.1887,7.3808-13.8661.0339-.0679.0714-.1342.1071-.2012a1.8315,1.8315,0,0,0-.6471-2.4679l-8.2445-4.4226-19.9136-10.6823-23.9888-12.8685L889.08,724.21c-3.3672-1.8063-6.6977-3.7237-10.1183-5.4278-.0506-.0252-.1-.0535-.15-.08-2.0456-1.0972-3.87,2.016-1.8208,3.115Z"/><path class="cls-2" d="M885.1727,806.993a17.8762,17.8762,0,0,1,.2911,14.8561c-19.6712,45.5749,14.6423,61.277,14.6423,61.277l37.9265-89.8011-5.742-.7576a59.3256,59.3256,0,0,0-47.1179,14.4256Z"/><path d="M883.6152,807.9034a16.3579,16.3579,0,0,1,1.4886,7.8855,23.7669,23.7669,0,0,1-2.2054,7.5548,75.9886,75.9886,0,0,0-4.1339,13.45,50.3837,50.3837,0,0,0,.023,21.7166,40.8609,40.8609,0,0,0,15.5814,23.1771,27.8585,27.8585,0,0,0,4.8268,2.9962,1.8267,1.8267,0,0,0,2.4678-.6471l3.76-8.9015,9.0793-21.4977,10.9395-25.9021,9.4623-22.4046q2.3109-5.4717,4.6218-10.9434l.0642-.1518a1.84,1.84,0,0,0-1.5575-2.7141c-5.8221-.7682-11.5738-1.53-17.469-1.1347a61.0744,61.0744,0,0,0-36.6663,15.331c-1.7407,1.5433.8183,4.087,2.5508,2.5509a58.1088,58.1088,0,0,1,45.8425-13.8973c1.9146.2473,3.828.505,5.742.7576l-1.5575-2.7142-3.7594,8.9015-9.0794,21.4977L912.6968,848.716l-9.4623,22.4045-3.1455,7.448a29.507,29.507,0,0,0-1.4763,3.4954,1.2808,1.2808,0,0,1-.0641.1519l2.4678-.6471a25.8434,25.8434,0,0,1-3.8581-2.3026q-.4131-.2864-.8188-.5833c-.1693-.124-.3369-.25-.5049-.376a2.5327,2.5327,0,0,1-.2608-.2016c-.6757-.5376-1.338-1.0909-1.98-1.6681a39.9011,39.9011,0,0,1-4.284-4.4951,38.3043,38.3043,0,0,1-3.7871-5.7457,35.2855,35.2855,0,0,1-2.9235-7.3553,45.0412,45.0412,0,0,1-.5185-20.2517,75.4907,75.4907,0,0,1,4.5377-14.8751,23.2419,23.2419,0,0,0,2.1233-8.7973,20.3836,20.3836,0,0,0-2.0111-8.8343C885.75,803.98,882.64,805.81,883.6152,807.9034Z"/><path class="cls-2" d="M909.48,890.5462c6.64,3.46,9.8974-3.187,13.4369-9.7849s-2.8182-10.0086.7213-16.6065,9.8969-3.1861,13.436-9.783-2.8189-10.0074.72-16.604,9.8968-3.1859,13.4357-9.7826-2.8189-10.0074.72-16.604,9.8963-3.185,13.4347-9.7808-2.8194-10.0064.7189-16.6021a8.9642,8.9642,0,0,1,5.5014-4.4863,5.1108,5.1108,0,0,0,.7653-9.2827l-18.04-10.0425L892.8035,878.02S900.5258,885.8806,909.48,890.5462Z"/><path d="M908.57,892.1037c3.352,1.6724,6.7479,1.5165,9.6214-.9907,2.8159-2.4571,4.5953-6.1777,6.2834-9.4413,1.7-3.2855,1.4686-6.3767.5041-9.83-.8972-3.2119-.9-6.3711,1.7576-8.8255,2.2113-2.0418,5.5682-2.1292,8.091-3.6649a11.036,11.036,0,0,0,5.1629-9.2077c-.0162-3.03-1.8-5.8766-1.473-8.9027.3679-3.402,2.9055-5.45,5.935-6.4506,3.3378-1.1019,6.28-2.3664,8.14-5.5451,1.87-3.196,1.7391-6.4587.776-9.9054-.8955-3.2047-1.1148-6.2951,1.4487-8.8726,2.1477-2.1594,5.4986-2.2865,8.0689-3.74a11.0384,11.0384,0,0,0,5.4115-9.0556c.0923-3.0654-1.65-5.8564-1.49-8.8962a7.5131,7.5131,0,0,1,2.2-4.73c1.2447-1.2385,2.8447-1.5208,4.3226-2.3409a6.9785,6.9785,0,0,0,3.1853-8.0072c-1.152-3.7732-5.6855-5.3911-8.84-7.1468l-11.658-6.49-.7758-.4318a1.8274,1.8274,0,0,0-2.4679.6471l-6.133,11.6458L931.9168,799.88l-17.7436,33.6932-15.34,29.13c-2.4917,4.7316-5.1,9.4205-7.4824,14.2084-.0332.0667-.07.132-.1043.198a1.8565,1.8565,0,0,0,.282,2.1858A70.4722,70.4722,0,0,0,908.57,892.1037c2.0523,1.0814,3.8776-2.0311,1.8208-3.115a67.2223,67.2223,0,0,1-16.3115-12.2443l.2821,2.1858,6.1329-11.6458,14.7233-27.9578,17.7437-33.6932,15.34-29.13,5.0751-9.637a50.6743,50.6743,0,0,0,2.4074-4.5714,2.1752,2.1752,0,0,1,.1043-.198l-2.4679.6471c5.9948,3.3373,12.0741,6.5549,17.9965,10.0185a3.3707,3.3707,0,0,1,1.026,5.0737c-.9142,1.1012-2.5518,1.3228-3.7578,1.99a10.5021,10.5021,0,0,0-3.9243,3.88c-1.8223,3.088-1.8,6.3046-.8708,9.6634.8439,3.05,1.29,5.809-.8113,8.5214-1.8827,2.4306-5.0908,2.7239-7.7258,3.9128a10.9291,10.9291,0,0,0-6.1452,7.9512c-.561,3.2294.858,5.9217,1.2714,9.0336a7.3739,7.3739,0,0,1-4.0824,7.479c-2.6954,1.3085-5.618,1.6262-7.9387,3.7028a10.9988,10.9988,0,0,0-3.4324,9.669c.393,2.721,1.896,5.4128,1.14,8.2a7.5546,7.5546,0,0,1-2.7856,4.1561,13.6149,13.6149,0,0,1-3.7729,1.6161c-3.2547,1.0606-6,2.6608-7.6178,5.8117-1.6448,3.204-1.3484,6.3-.4124,9.6513a11.5677,11.5677,0,0,1,.6309,4.06c-.1451,1.7569-1.14,3.2781-1.9608,4.79-1.3791,2.5422-3.0329,6.1957-5.8524,7.4566a4.6458,4.6458,0,0,1-4.004-.3921C908.319,887.9552,906.49,891.0659,908.57,892.1037Z"/><path class="cls-2" d="M932.9963,795.2454l5.9949-54.5713a7.4648,7.4648,0,0,0-8.9538-7.7817h0a6.3057,6.3057,0,0,0-6.9566,5.5794l-5.9949,54.5713Z"/><path d="M934.8,795.2454l2.5089-22.8384,3.2875-29.9262c.0736-.67.1772-1.3435.2172-2.0165a9.3215,9.3215,0,0,0-4.725-8.3445c-2.0088-1.11-3.9451-1.109-6.16-1.0188.3392-.0138-.2254-.0407-.2365-.0409-.2281-.0042-.453-.0131-.6808-.0011a8.7039,8.7039,0,0,0-1.79.2737,8.0323,8.0323,0,0,0-2.7285,1.3511,8.6257,8.6257,0,0,0-3.2677,6.2574c-1.0112,8.9353-1.9639,17.8776-2.9459,26.8162l-1.87,17.0258c-.3579,3.2576-.8207,6.5228-1.0755,9.7905-.0123.1567-.0344.3132-.0516.4694a1.7948,1.7948,0,0,0,1.3242,1.7393l15.91,2.2024a1.8688,1.8688,0,0,0,2.2188-1.26,1.8149,1.8149,0,0,0-1.26-2.2189l-15.91-2.2023,1.3243,1.7393,2.3881-21.7391,3.3028-30.0647c.0958-.8725.1713-1.75.2878-2.62.0065-.0484.0086-.0976.016-.1458a7.7262,7.7262,0,0,0,.228-.8508,4.5187,4.5187,0,0,1,.6473-1.2c1.2444-1.6356,2.9059-1.6573,4.7572-1.7907,3.1562-.2275,6.0126,1.3353,6.6289,4.6359a9.0029,9.0029,0,0,1-.0805,2.5185L934.0538,769.2c-.9359,8.5193-2.141,17.0563-2.8125,25.6013-.0116.1483-.0325.2965-.0488.4444a1.8168,1.8168,0,0,0,1.8038,1.8038A1.8434,1.8434,0,0,0,934.8,795.2454Z"/><circle cx="925.5576" cy="792.4782" r="12.2415"/><path d="M922.17,806.1085a14.2658,14.2658,0,0,0,15.0051-5.7414,14.0424,14.0424,0,1,0-15.0051,5.7414c2.2488.5828,3.2082-2.8957.959-3.4786a10.435,10.435,0,1,1,11.9869-5.9293,10.5731,10.5731,0,0,1-11.9869,5.9293C920.87,802.11,919.905,805.5874,922.17,806.1085Z"/><path d="M709.8214,133.3679s19.24-44.4923,69.1435-32.4674c35.4737,9.62,49.0017,70.0454,49.0017,70.0454s24.5088-5.1106,31.8662,22.8475c9.0187,34.2711-46.2961,53.511-57.72,16.2336-9.0187,27.0562-31.2649,12.025-35.7743-14.1293-2.8767-16.6851-7.215-55.916-49.9036-48.1"/><path d="M711.3789,134.2783a56.3377,56.3377,0,0,1,9.5817-14.4107c8.3716-9.4912,19.4034-16.2424,31.96-18.4392a61.15,61.15,0,0,1,25.5653,1.2115c6.5941,1.7139,12.5342,5.5292,17.4967,10.1176,10.1506,9.3854,17.1082,22.02,22.3541,34.67a187.1419,187.1419,0,0,1,7.8032,23.62c.0332.1248.06.2521.0879.3781a1.8386,1.8386,0,0,0,2.2188,1.26c.1052-.0217.2112-.0406.3172-.0572.1174-.0185.2357-.0339.3526-.0545.3412-.06-.2846.0353-.1889.0248.0994-.011.1984-.0259.2979-.0365a30.2883,30.2883,0,0,1,3.2847-.1783q1.0691.0027,2.136.08.5661.0414,1.1305.1041c.074.0082.715.09.3616.0413q.346.048.6909.1054a27.4054,27.4054,0,0,1,5.4506,1.4775c9.64,3.7383,15.7407,14.4562,16.6326,24.6117.781,8.8936-3.2031,17-10.0838,22.5558a32.5345,32.5345,0,0,1-23.7376,6.96c-8.8262-1.0129-16.1433-6.7609-19.85-15.0081a33.1342,33.1342,0,0,1-1.3883-3.764,1.82,1.82,0,0,0-3.4786,0c-1.57,4.6431-4.0447,10.06-8.7656,12.2453a8.755,8.755,0,0,1-4.7473.6673,13.1191,13.1191,0,0,1-5.4594-2.3142c-4.1733-2.8573-7.15-7.355-9.3109-11.8429a55.7241,55.7241,0,0,1-4.4088-15.2424c-1.1747-7.0727-2.47-14.1508-4.9044-20.9174-2.7537-7.6537-6.9222-14.995-13.432-20.0571-8.0941-6.2941-18.4654-7.886-28.4571-6.7551q-2.4778.2805-4.9326.7276c-2.2811.4115-1.3146,3.8888.959,3.4786,9.9973-1.8035,20.7905-1.3623,29.3269,4.7031,6.5027,4.6205,10.6131,11.9219,13.2041,19.2745,2.3954,6.7977,3.6569,13.892,4.8364,20.98,1.7664,10.6149,5.9214,22.1739,15.0967,28.6256,3.4822,2.4485,7.9277,3.787,12.1194,2.5432,4.9441-1.467,8.3195-5.8751,10.4365-10.3553a44.8663,44.8663,0,0,0,1.9177-4.802h-3.4786c3.1077,10.007,10.3186,18.1993,20.7215,20.7322,9.1969,2.2393,19.2786.0946,27.1514-5.0365,8.1285-5.2978,13.8681-13.8542,14.3474-23.6893a36.2989,36.2989,0,0,0-4.25-17.8083,27.7749,27.7749,0,0,0-23.3812-15.8234,24.3471,24.3471,0,0,0-7.1369.2645c-.1117.0249-.2264.0376-.3386.0608l2.2188,1.26a144.7816,144.7816,0,0,0-6.5722-20.7182c-5.13-13.1641-11.8118-26.197-21.582-36.5493a51.2823,51.2823,0,0,0-17.4377-12.435,50.4087,50.4087,0,0,0-12.72-3.1033,64.9861,64.9861,0,0,0-13.0678-.4868A58.0328,58.0328,0,0,0,721.29,114.2533,63.4008,63.4008,0,0,0,708.4082,132.14c-.0487.1057-.098.2112-.1443.3179a1.8659,1.8659,0,0,0,.6471,2.4679,1.8153,1.8153,0,0,0,2.4679-.6471Z"/><path d="M772.2541,400.7438s26.3349,5.0644,29.3736,20.2576S766.1768,439.74,766.1768,439.74"/><path d="M771.7746,402.4831a61.421,61.421,0,0,1,11.3975,3.5061c6.045,2.4619,12.6677,6.1858,15.6543,12.2771a11.7968,11.7968,0,0,1,1.1571,3.989,8.0307,8.0307,0,0,1-.0006.8625q-.0095.1688-.026.3373c-.0541.5448.0758-.3507-.03.1822-.0539.2707-.1165.5384-.196.803-.08.2669-.24.6723-.1963.5736a11.6009,11.6009,0,0,1-4.75,4.9386c-5.0962,3.23-11.169,4.8509-17.0426,6.1192-2.78.6-5.5825,1.0868-8.3979,1.4854-.1159.0164-.2319.0321-.3478.0481-.4241.0585.33-.043-.0461.0062q-.357.0468-.7142.0919-.5484.0687-1.0976.1311c-.32.0361-.6406.0718-.9616.1016-2.2923.2123-2.3145,3.8219,0,3.6074a105.4015,105.4015,0,0,0,10.9569-1.6669c6.33-1.2687,12.8576-2.9809,18.4944-6.22,5.106-2.9337,9.1538-7.6645,7.5709-13.8741-1.9126-7.5027-8.8339-12.5041-15.4578-15.6843a62.5579,62.5579,0,0,0-15.0076-5.094c-2.2682-.4385-3.24,3.0377-.959,3.4786Z"/><path class="cls-1" d="M704.0588,782.578l-1.94,94.3516L572.6112,874.685s-1.5675-36.7329,46.6963-39.8427a17.3489,17.3489,0,0,0,16.2859-17.1542c.0846-11.4711.1148-22.5706.1148-22.5706"/><path d="M702.255,782.578l-.1923,9.3539-.4645,22.593-.56,27.2167-.484,23.5384-.16,7.7978a31.1205,31.1205,0,0,0-.0757,3.682,1.4176,1.4176,0,0,1-.0035.17l1.8038-1.8038-12.8986-.2235-30.9691-.5368-37.45-.6491-32.2562-.559-10.6655-.1849a48.0759,48.0759,0,0,0-5.04-.0873,2.169,2.169,0,0,1-.2279-.004l1.8037,1.8038a18.5573,18.5573,0,0,1,.0445-1.897c.0444-.7245.12-1.4453.2055-2.166.0543-.4586-.0622.3726.0346-.2456.0343-.22.0663-.4393.1024-.6586q.1267-.77.2846-1.5346a35.52,35.52,0,0,1,6.4182-14.501c4.4013-5.9673,11.14-10.51,18.2472-13.1372a65.8727,65.8727,0,0,1,16.0662-3.6077c3.0325-.313,6.0675-.3411,8.9605-1.4189a19.5418,19.5418,0,0,0,7.1047-4.546,19.2481,19.2481,0,0,0,4.7605-8.0886c1.0884-3.7288.7728-7.7312.7956-11.5681q.048-8.099.0725-16.1982a1.8048,1.8048,0,0,0-3.6075,0q-.0183,6.7014-.0567,13.403c-.0343,6.348.8667,13.2052-3.3017,18.5384a15.8052,15.8052,0,0,1-6.2305,4.7867c-2.735,1.1576-5.5928,1.1844-8.4974,1.4842a70.3385,70.3385,0,0,0-16.4736,3.5361c-7.63,2.727-14.7372,7.147-19.83,13.5315a40.0118,40.0118,0,0,0-7.6228,15.5556,32.3084,32.3084,0,0,0-1.0847,8.732,1.8393,1.8393,0,0,0,1.8038,1.8037l12.8985.2236,30.9692.5367,37.45.6491,32.2561.5591c5.2186.09,10.4866.4,15.7057.2722.0758-.0019.1522.0026.228.0039a1.8315,1.8315,0,0,0,1.8037-1.8037l.1923-9.3539.4645-22.593.56-27.2168.484-23.5383c.0783-3.81.3468-7.67.236-11.48-.0016-.0563.0023-.1133.0035-.17.0477-2.3223-3.56-2.322-3.6075,0Z"/><path class="cls-2" d="M630.1059,828.4754a17.8759,17.8759,0,0,1-13.1007,7.0114c-49.5362,3.1918-47.9274,40.893-47.9274,40.893l97.2277-7.0318-1.9349-5.4589a59.3255,59.3255,0,0,0-34.2646-35.4137Z"/><path d="M628.8305,827.2a17.06,17.06,0,0,1-5.8056,4.8486,18.6908,18.6908,0,0,1-7.2019,1.718,80.5592,80.5592,0,0,0-14.4352,2.3406,51.0954,51.0954,0,0,0-19.639,9.7375,40.47,40.47,0,0,0-13.9361,24.4,30.243,30.243,0,0,0-.5386,6.1354,1.8234,1.8234,0,0,0,1.8037,1.8037l9.6377-.697,23.2755-1.6833,28.0443-2.0283,24.2574-1.7543c3.9467-.2855,7.9078-.494,11.8484-.8569.0547-.0051.11-.008.1644-.0119a1.8235,1.8235,0,0,0,1.7393-2.2833c-2.0763-5.8578-4.14-11.65-7.4-16.9866a61.101,61.101,0,0,0-30.0593-25.1458c-2.1622-.8477-3.1,2.6394-.959,3.4786a57.7717,57.7717,0,0,1,32.7489,33.4459c.7547,2.0465,1.4622,4.1111,2.1909,6.1669l1.7393-2.2832-9.6377.697-23.2755,1.6834-28.0443,2.0282-24.2574,1.7543-8.0639.5832a30.611,30.611,0,0,0-3.7845.2737,1.3183,1.3183,0,0,1-.1644.0119l1.8038,1.8038c-.0171-.4109-.0046-.8241.01-1.2348.0173-.4737.0473-.947.0866-1.4194q.0348-.4178.08-.8345c.0171-.1593.0365-.3182.0545-.4774.0094-.0828.021-.1654.0309-.2482.0529-.4438-.0562.3812-.0027.0178a42.2071,42.2071,0,0,1,.9936-4.8527q.385-1.4272.8741-2.8236c.3893-1.1113.7145-1.9174,1.0769-2.7226,5.0329-11.1811,15.1516-18.4311,26.8921-21.82a74.5225,74.5225,0,0,1,15.4341-2.6336,20.2623,20.2623,0,0,0,14.97-7.58,1.8662,1.8662,0,0,0,0-2.5509A1.8141,1.8141,0,0,0,628.8305,827.2Z"/><path class="cls-3" d="M637.6266,401.5715l-11.093,391.7156,115.5123,1.3893s10.2419-279.5773,7.8423-322.4881-28.9215-106.05-28.9215-106.05"/><path class="cls-3" d="M637.6266,401.5715l-11.093,391.7156,115.5123,1.3893s10.2419-279.5773,7.8423-322.4881-28.9215-106.05-28.9215-106.05"/><path class="cls-2" d="M744.269,730.88a42.978,42.978,0,0,0-58.0649,63.1243l55.8418.6717S743.0059,768.4718,744.269,730.88Z"/><path class="cls-2" d="M633.7635,723.7934a42.9892,42.9892,0,1,0,0-85.9784c-.9518,0-1.8935.0419-2.83.1029l-2.4225,85.5447A43.3555,43.3555,0,0,0,633.7635,723.7934Z"/><circle class="cls-2" cx="684.2684" cy="531.0934" r="42.9892"/><path d="M635.8228,401.5715l-.2968,10.48-.8076,28.52-1.1945,42.1807-1.4574,51.4621L630.47,590.5784l-1.611,56.8872-1.4965,52.8456-1.27,44.834-.9129,32.2353c-.1438,5.08-.4212,10.1755-.432,15.2575,0,.2162-.0123.4329-.0184.6491a1.8286,1.8286,0,0,0,1.8037,1.8038l39.0245.4693,62.2048.7481,14.283.1718a1.8353,1.8353,0,0,0,1.8038-1.8037q.21-5.7213.4121-11.4427.549-15.3959,1.0778-30.7924.7624-22.1587,1.488-44.3188.861-26.31,1.6626-52.6212.8334-27.4578,1.5764-54.9182.6947-25.9363,1.2514-51.8763c.3005-14.48.5608-28.9617.6817-43.4445.0808-9.6912.1639-19.3954-.14-29.0838-.619-19.7106-5.2784-39.181-10.7725-58.0385a526.7462,526.7462,0,0,0-17.3084-49.8629c-.3532-.8745-.7073-1.7488-1.0724-2.6185-.885-2.1087-4.3773-1.1824-3.4786.959,5,11.9142,9.3531,24.1367,13.3877,36.406,7.2753,22.1242,14.0295,45.2643,15.4381,68.6273.51,8.4564.4168,16.9631.3882,25.43-.0456,13.4883-.2584,26.9761-.51,40.462q-.47,25.1793-1.1391,50.3546Q746.09,615.25,745.27,642.5992q-.7932,26.7522-1.6592,53.5023-.7536,23.3793-1.55,46.7573-.5868,17.2337-1.196,34.4666c-.1941,5.4874-.8076,11.1389-.5956,16.63.0092.2381-.0176.4826-.0263.7211l1.8037-1.8038-39.0244-.4693-62.2048-.7481-14.2831-.1718,1.8038,1.8037.2968-10.48.8076-28.52,1.1945-42.1806,1.4574-51.4622L633.69,604.28l1.611-56.8872,1.4965-52.8455,1.27-44.8341.9128-32.2353c.1439-5.0795.4213-10.1755.4321-15.2575.0005-.2162.0123-.4329.0184-.6491.0658-2.3222-3.5418-2.32-3.6075,0Z"/><path d="M775.3574,384.69a1.8048,1.8048,0,0,0,0-3.6075,1.8048,1.8048,0,0,0,0,3.6075Z"/><path class="cls-3" d="M673.7465,440.0044l8.4211,190.7079A150.5286,150.5286,0,0,0,757.784,732.8849L862.6081,789.85l50.51-90.0837s-86.5844-54.6767-125.4556-73.01l5.1048-149.7132a155.0247,155.0247,0,0,0-3.072-36.434l-10.7306-52.3114L666.5316,357.6334"/><path class="cls-2" d="M763.3325,644.7293a42.9876,42.9876,0,0,0-81.3983-19.3033l.2334,5.2863a150.4565,150.4565,0,0,0,22.752,54.1443,42.99,42.99,0,0,0,58.4129-40.1273Z"/><path class="cls-2" d="M891.0762,686.0479c-19.364-11.9339-48.229-29.4372-73.0189-43.3082a42.9864,42.9864,0,0,0,73.0189,43.3082Z"/><path class="cls-2" d="M882.3744,754.5969a42.98,42.98,0,0,0-70.6921,7.578L862.6081,789.85Z"/><path class="cls-2" d="M792.7275,478.2142l.04-1.1717a155.0255,155.0255,0,0,0-3.072-36.4341l-9.7033-47.3032a42.9893,42.9893,0,1,0,12.7353,84.909Z"/><path class="cls-2" d="M723.65,493.8161a43.0058,43.0058,0,0,0-49.4046-42.5106l3.7715,85.4111c.8753.0531,1.7553.0887,2.6439.0887A42.9892,42.9892,0,0,0,723.65,493.8161Z"/><path d="M671.9428,440.0044l.791,17.9131,1.916,43.3906,2.3649,53.5586,2.1006,47.57,1.1806,26.7376c.0222.5029.0166,1.0164.067,1.5175a52.7878,52.7878,0,0,0,1.6653,7.49q1.2364,4.8695,2.7979,9.6488a152.3439,152.3439,0,0,0,72.1629,86.6747q12.714,6.9332,25.4482,13.8293l45.96,24.9762,31.6845,17.2183,1.6157.8781a1.8333,1.8333,0,0,0,2.4679-.6471l17.0534-30.4143,27.1955-48.5025,6.2613-11.1669a1.8412,1.8412,0,0,0-.6471-2.4679q-15.72-9.9258-31.6056-19.5886c-20.751-12.687-41.622-25.2023-62.8409-37.0942-10.186-5.7086-20.4484-11.3358-31.0091-16.3273l.8933,1.5575.9932-29.1285,2.0426-59.9031,1.7437-51.1414q.1614-4.73.3226-9.4595a166.1272,166.1272,0,0,0-3.5309-38.93l-10.0513-49-.2821-1.3749a1.7865,1.7865,0,0,0-1.26-1.26L741.46,376.1984l-60.5467-16.5127-13.9023-3.7916a1.8053,1.8053,0,0,0-.959,3.4786l37.9842,10.3594,60.5467,16.5127,13.9024,3.7916-1.26-1.26,9.4842,46.2351c2.3141,11.2814,4.1248,22.5576,4.3211,34.1151.08,4.6934-.1171,9.3794-.2769,14.0684l-1.6155,47.3768-2.0766,60.9021c-.394,11.557-1.2166,23.19-1.1851,34.7559,0,.1749-.0119.3508-.0179.5257a1.7653,1.7653,0,0,0,.8934,1.5575c20.402,9.6428,39.9412,21.2217,59.36,32.6786q27.7279,16.36,55.0392,33.4145,5.5372,3.4443,11.057,6.917l-.6471-2.4679L894.5075,729.27,867.312,777.7722l-6.2614,11.1669,2.4679-.6471-22.8013-12.3909L795.4108,751.28l-33.9159-18.431c-16.9574-9.2152-32.1832-20.7707-44.7914-35.4683A149.1723,149.1723,0,0,1,695,663.7792a147.047,147.047,0,0,1-7.286-18.756c-1.4485-4.6385-3.1049-9.5934-3.7477-14.4154-.2606-1.9549-.1775-4.02-.2644-5.9883l-.6178-13.99-1.9554-44.2832-2.3416-53.0295-2.0716-46.916-1.1138-25.2223-.0518-1.1739c-.1021-2.3123-3.71-2.325-3.6075,0Z"/><path class="cls-2" d="M566.7289,888.102c-.0639,7.487,7.3372,7.3675,14.823,7.5217s7.6342-7.0593,15.12-6.9052,7.3362,7.3675,14.8209,7.5217,7.6329-7.0594,15.1172-6.9053,7.3359,7.3676,14.82,7.5217,7.6328-7.0594,15.1171-6.9053,7.3349,7.3676,14.8183,7.5217,7.6318-7.0594,15.115-6.9053a8.9644,8.9644,0,0,1,6.4966,2.8612,5.1107,5.1107,0,0,0,8.6163-3.5372l.7463-20.6331-132.0327-1.7044S566.8151,878.0056,566.7289,888.102Z"/><path d="M564.9252,888.102a8.145,8.145,0,0,0,5.2719,8.0151c3.4206,1.3575,7.3848,1.242,11.0039,1.3033,3.6176.0611,6.3031-1.3321,8.9134-3.722,2.3-2.1061,4.564-3.6962,7.8726-3.0471,2.9385.5764,4.5386,3.1023,6.7246,4.88a11.0878,11.0878,0,0,0,10.0618,2.1061c3.0477-.8851,4.8192-3.2669,7.266-5.0623a7.3837,7.3837,0,0,1,8.5621-.1511c2.3531,1.6608,3.89,4.15,6.6148,5.3388a10.9843,10.9843,0,0,0,10.4-.8868c2.3118-1.5845,4.0588-4.203,6.8841-4.9178,3.1972-.8089,5.7315.59,7.9184,2.7664,2.4334,2.4218,4.8664,4.2853,8.4264,4.528,3.6324.2476,6.4868-1.3311,9.08-3.7049,2.3574-2.1576,4.71-3.7777,8.0972-2.999,1.9738.4538,3.0462,1.828,4.6336,2.922a6.8123,6.8123,0,0,0,5.0827,1.0382,7.01,7.01,0,0,0,5.66-6.68c.0874-1.5182.11-3.0429.1651-4.5625l.5407-14.9505.0383-1.0571a1.8281,1.8281,0,0,0-1.8038-1.8038l-13.1609-.17-31.5951-.4079-38.0766-.4915-32.9195-.425c-5.3374-.0689-10.72-.347-16.0568-.2073-.0744.002-.1493-.0019-.2238-.0028a1.8478,1.8478,0,0,0-1.7393,1.3242,70.5977,70.5977,0,0,0-3.6427,21.0273c-.0314,2.3221,3.5761,2.3233,3.6075,0a67.2736,67.2736,0,0,1,3.5138-20.0683l-1.7393,1.3242,13.1609.17,31.5951.4079,38.0766.4915,32.9195.425,10.8908.1406c1.6914.0218,3.4783.2124,5.1661.0666.0731-.0063.15.002.2237.0029l-1.8037-1.8037-.4137,11.4377-.26,7.1758c-.0473,1.3079.1005,2.8092-.7655,3.8963a3.4154,3.4154,0,0,1-3.2428,1.2112c-1.5582-.2957-2.6254-1.8634-3.9243-2.6769a11.0009,11.0009,0,0,0-10.8825-.2257c-2.4451,1.3686-4.0677,3.94-6.6486,5.0668a7.4555,7.4555,0,0,1-7.9234-1.4988c-2.25-2.04-4.1391-4.34-7.2161-5.1395a11.1232,11.1232,0,0,0-9.7695,2.0768c-2.0985,1.65-3.7947,3.9393-6.588,4.3912-3.1508.51-5.4007-.95-7.5193-3.0655-2.3663-2.3628-4.8024-4.1175-8.2525-4.3527-3.467-.2364-6.3,1.1868-8.8076,3.4543-2.268,2.0511-4.2548,3.7087-7.52,3.3912-2.9276-.2846-4.58-2.472-6.5969-4.3216a11.2149,11.2149,0,0,0-9.1848-3.0693c-3.2778.4092-5.4641,2.3539-7.8231,4.4715a8.7255,8.7255,0,0,1-3.3236,2.0609,17.2388,17.2388,0,0,1-5.2829.2121c-2.7514-.0833-6.59.0144-8.774-1.9808a4.7733,4.7733,0,0,1-1.2845-3.6716C568.5163,885.7815,564.9087,885.7763,564.9252,888.102Z"/><path class="cls-2" d="M662.3059,865.7348,713.64,846.272a7.4649,7.4649,0,0,0,2.8621-11.5123h0a6.3057,6.3057,0,0,0-8.1316-3.6607l-51.334,19.4627Z"/><path d="M662.7854,867.4741l21.0231-7.9707L712.04,848.8c.6855-.26,1.3752-.5111,2.0573-.78a9.1011,9.1011,0,0,0,5.0622-12.21,13.336,13.336,0,0,0-.8269-1.5676c-.1727-.2895-.4715-.9038-.7125-1.3206a8.156,8.156,0,0,0-5.0134-3.7843,8.8988,8.8988,0,0,0-5.3991.481l-25.45,9.6491c-8.2526,3.1289-16.52,6.2211-24.7587,9.387-.147.0565-.2944.1116-.4416.1674a1.8328,1.8328,0,0,0-1.26,2.2189l5.27,15.173c.7569,2.18,4.2431,1.2423,3.4786-.959l-5.2695-15.1731-1.26,2.2189,19.8781-7.5367,28.337-10.7436c2.7886-1.0573,6.2325-2.8116,8.5032.2988a19.4752,19.4752,0,0,1,1.4477,2.53,5.6893,5.6893,0,0,1,.63,3.253,5.8111,5.8111,0,0,1-2.7092,4.1859,11.3354,11.3354,0,0,1-1.8381.7737l-26.02,9.8651c-7.8407,2.9728-15.7,5.9014-23.5235,8.9187-.1312.0507-.2631.1-.3946.15C659.6764,864.8106,660.6086,868.2994,662.7854,867.4741Z"/><circle cx="661.3899" cy="857.8511" r="12.2415"/><path d="M647.737,861.1449a14.0495,14.0495,0,1,0,7.85-16.0734,14.194,14.194,0,0,0-7.85,16.0734c.5025,2.2655,3.9812,1.3067,3.4787-.959a10.4389,10.4389,0,1,1,10.6544,8.0958,10.5237,10.5237,0,0,1-10.6544-8.0958C650.6513,857.9353,647.1713,858.8888,647.737,861.1449Z"/><path d="M742.6772,766.7761l-11.5434-.1815-27.7143-.4358-33.39-.5251-28.97-.4556c-4.6668-.0734-9.38-.3463-14.0467-.2209-.0677.0018-.1361-.0021-.204-.0032-2.3222-.0365-2.3229,3.571,0,3.6075l11.5434.1815,27.7143.4358,33.39.5251,28.9705.4556c4.6667.0734,9.38.3463,14.0466.2209.0678-.0018.1361.0021.204.0032,2.3222.0365,2.3229-3.571,0-3.6075Z"/><path class="cls-4" d="M695.4575,305.577l-109.19,45.8935c-.4748-8.6718,2.0913-39.7028-.8116-51.1635-3.7156-14.6683-8.63-27.3907-13.3673-35.5769l68.342-32.4505a36.6617,36.6617,0,0,1,16.419-3.5373l23.7523.45"/><path d="M694.978,303.8377,684.09,308.414,657.9531,319.4l-31.4839,13.233-27.2183,11.44-9.0074,3.7859a39.5887,39.5887,0,0,0-4.271,1.7951,1.7018,1.7018,0,0,1-.1843.0774l2.2833,1.7394c-.2148-4.117.0231-8.2713.1537-12.3873.186-5.8627.3877-11.7258.4329-17.5917a137.6262,137.6262,0,0,0-.587-16.3952c-.7516-6.6973-2.9423-13.2521-5.0808-19.6136a119.8065,119.8065,0,0,0-9.344-21.6629l-.6471,2.4678,12.42-5.8975,26.255-12.4665,23.5815-11.1971q2.82-1.339,5.64-2.6779a35.8574,35.8574,0,0,1,16.0088-3.5015c7.64.1231,15.28.2891,22.92.4337l.7774.0147c2.3223.044,2.3223-3.5635,0-3.6075l-22.6619-.4288a40.9328,40.9328,0,0,0-18.4322,3.7688c-1.3028.6117-2.6,1.2347-3.9006,1.8521L613.63,243.0155l-26.9633,12.8029-10.1936,4.84c-1.6785.797-3.4259,1.5189-5.0609,2.4031-.0755.0408-.1562.0741-.2338.111a1.8242,1.8242,0,0,0-.6471,2.4678,109.9471,109.9471,0,0,1,8.1244,18.3168q2.0842,5.9024,3.7586,11.9392a61.7923,61.7923,0,0,1,1.9323,8.231,114.7991,114.7991,0,0,1,.7126,15.5651c-.01,5.8717-.1962,11.7413-.3845,17.6094-.151,4.7058-.4563,9.4611-.2107,14.1685.0538,1.0316,1.1328,2.2228,2.2833,1.7393l10.8879-4.5763,26.137-10.9856,31.4838-13.233,27.2183-11.44q6.6392-2.79,13.2784-5.581l.1843-.0775a1.8674,1.8674,0,0,0,1.26-2.2188,1.8134,1.8134,0,0,0-2.2188-1.26Z"/><path d="M577.9314,335.0534q-2.9252.8918-5.8761,1.6649c4.781,9.916,9.6544,15.7564,13.2205,14.8531,3.65-.9245,5.1417-8.7115,4.5165-20.1344Z"/><path d="M577.4519,333.3141q-2.9227.8868-5.8761,1.6649a1.83,1.83,0,0,0-1.078,2.65,58.7923,58.7923,0,0,0,6.2747,10.5352c1.5866,2.0425,3.5174,4.1711,6.0425,5.0163,5.3553,1.7925,7.65-4.55,8.3128-8.5979a61.36,61.36,0,0,0,.4682-13.1453,1.8247,1.8247,0,0,0-2.2832-1.7393l-11.8609,3.6164c-2.2144.6752-1.27,4.1584.959,3.4787l11.8609-3.6165-2.2832-1.7393a67.9214,67.9214,0,0,1-.1379,10.66,25.4786,25.4786,0,0,1-.6657,3.7635,10.2173,10.2173,0,0,1-.965,2.584c-.1069.19-.2232.3719-.3432.5538-.2221.3369.0646-.04-.1342.1716-.129.1374-.2592.2691-.3972.3975-.0742.0689-.2666.177.05-.0339a2.2658,2.2658,0,0,0-.2734.1729c-.2761.2525.15-.0144-.0858.0535a4.6648,4.6648,0,0,1-.5.1253c.4094-.0706-.0183-.0335-.19-.0317-.1005.001-.3319-.06.0654.0157a2.336,2.336,0,0,1-.2811-.0606c-.1921-.0619-.3856-.1112-.5735-.1872.3454.14-.2365-.1348-.3063-.1741a7.8564,7.8564,0,0,1-1.0129-.6893,18.3109,18.3109,0,0,1-2.5824-2.7205,55.1229,55.1229,0,0,1-6.0429-10.23l-1.078,2.65q2.9526-.7812,5.8761-1.6648C580.6265,336.1206,579.6821,332.6375,577.4519,333.3141Z"/><path class="cls-1" d="M365.524,303.2678l126.31,33.705a159.3243,159.3243,0,0,0,80.221-.2545q2.95-.777,5.8761-1.6649l11.8609-3.6164a167.48,167.48,0,0,0-5.0712-30.8973c-3.7155-14.6683-8.63-27.3907-13.3673-35.5769l-15.0793,7.16-20.72,9.8381L388.343,243.77a37.4052,37.4052,0,0,0-15.886-.6308L355.7121,246.09"/><path d="M365.0445,305.0072l5.8435,1.5592,15.3136,4.0864,21.5735,5.7567,24.2841,6.48,23.7625,6.3408,19.9158,5.3144,12.7438,3.4006a173.1373,173.1373,0,0,0,17.7852,3.8446,162.5159,162.5159,0,0,0,48.1266.3362c11.2259-1.5983,21.9944-4.7165,32.8037-8.0123l3.075-.9376a1.8349,1.8349,0,0,0,1.3242-1.7393,162.5827,162.5827,0,0,0-4.3122-28.0086,180.4469,180.4469,0,0,0-8.7647-27.7314,100.0308,100.0308,0,0,0-5.6078-11.6445,1.8489,1.8489,0,0,0-2.4678-.6471l-28.978,13.7594-6.821,3.2387,1.39-.1818-5.15-1.336-13.867-3.5975-19.94-5.173-23.6811-6.1436-24.6825-6.4034-23.2924-6.0427-19.4838-5.0547-12.9759-3.3663a73.385,73.385,0,0,0-9.2475-2.0322,48.0134,48.0134,0,0,0-14.4925.8131l-11.5089,2.0285-2.4805.4372c-2.2823.4023-1.3151,3.8794.959,3.4786l11.13-1.9617c5.4621-.9627,10.7889-1.9429,16.38-1.19a93.4666,93.4666,0,0,1,10.7949,2.5518l19.1008,4.9553,26.9686,6.9965,30.1931,7.8329,28.6689,7.4376,22.7454,5.9009,12.0586,3.1283c.2655.0689.5319.1533.8008.2078a4.0866,4.0866,0,0,0,2.5573-.7049l12.2365-5.81,19.048-9.0445,3.39-1.6095-2.4678-.6471a117.26,117.26,0,0,1,9.4016,22.07,196.2609,196.2609,0,0,1,7.1211,28.9084,135.6759,135.6759,0,0,1,1.6695,14.5852l1.3242-1.7393c-7.9461,2.4228-15.8589,4.9988-23.9781,6.7917a157.9956,157.9956,0,0,1-48.0011,3.058,155.9718,155.9718,0,0,1-26.3788-4.6765l-10.7143-2.859-18.5145-4.9405-23.1854-6.1869L414.2013,314.39,391.88,308.4334l-17.0931-4.5612c-2.8-.7472-5.5926-1.5494-8.4069-2.2433-.1259-.031-.2508-.0669-.3762-.1-2.2455-.5992-3.2035,2.88-.959,3.4787Z"/><path class="cls-2" d="M693.6851,125.6194s15.2633-11.9926,29.9815,8.1768c8.7219,16.8986-9.8121,25.62-9.8121,25.62"/><path d="M694.9605,126.8948c-.7381.5766-.122.1022.0657-.0259.3811-.26.7768-.4988,1.1789-.7245a14.9906,14.9906,0,0,1,3.8412-1.5975,16.8046,16.8046,0,0,1,12.9283,1.6055,28.77,28.77,0,0,1,8.1083,7.2123,14.8573,14.8573,0,0,1,3.1,8.57,15.2611,15.2611,0,0,1-4.9537,11.4019,22.311,22.311,0,0,1-6.2855,4.5229c-2.0973.9922-.2685,4.1034,1.8207,3.115,6.7706-3.2032,12.6422-10.0089,13.0207-17.6751a20.22,20.22,0,0,0-2.0735-9.4158,21.6008,21.6008,0,0,0-4.1131-5.4064,32.52,32.52,0,0,0-4.5434-3.9862,20.9723,20.9723,0,0,0-16.204-3.8386,19.7662,19.7662,0,0,0-8.4418,3.6919,1.8153,1.8153,0,0,0,0,2.5508,1.8471,1.8471,0,0,0,2.5508,0Z"/><path class="cls-4" d="M653.498,271.5427,630.1063,419.9241s157.1141-18.08,172.3073.2391c-3.04-36.6515-17.0007-110.5262-25.9637-155.6725a45.0456,45.0456,0,0,0-46.1817-36.2232L673.834,230.77"/><path d="M651.7587,271.0632l-2.3242,14.7431-5.5825,35.4113-6.7553,42.8517-5.8431,37.0647c-.9485,6.0163-1.93,12.0286-2.8455,18.05-.0132.087-.0274.1737-.0411.2606-.1606,1.0186.4535,2.4311,1.7393,2.2832,5.2165-.6,10.4413-1.1331,15.6661-1.6546q19.0616-1.9024,38.165-3.3544c15.784-1.1925,31.5912-2.1491,47.4137-2.64a402.28,402.28,0,0,1,43.4125.4876,105.92,105.92,0,0,1,15.6577,2.1227,42.6053,42.6053,0,0,1,5.853,1.6937c.2157.0819.43.1679.6438.2537.2863.1146-.0879-.0384-.12-.0521.1014.0435.2034.0858.3037.1317.3837.1755.7662.3515,1.14.5468a15.96,15.96,0,0,1,1.8425,1.1386c.2777.1966-.3493-.2884-.0921-.0715.0642.0541.1331.1036.1952.16.101.0921.2071.1785.3072.2719a7.6558,7.6558,0,0,1,.6431.6768,1.82,1.82,0,0,0,3.0791-1.2754c-1.7306-20.7485-5.133-41.3849-8.5671-61.9062-4.0148-23.9919-8.45-47.9133-13.0635-71.7966q-1.5436-7.9916-3.1175-15.9773c-1.0482-5.32-1.989-10.5851-4.1216-15.6053a46.967,46.967,0,0,0-21.8647-23.3791,48.4574,48.4574,0,0,0-24.2316-4.99l-15.88.7042-38.7288,1.7174-.8085.0359c-2.3122.1025-2.3249,3.71,0,3.6074l33.3112-1.4771,19.2833-.8551c6.0315-.2675,11.9171-.224,17.7986,1.4662A43.4675,43.4675,0,0,1,768.93,250.3241c5.619,9.004,6.7942,19.7013,8.7866,29.9219,4.56,23.3915,8.9505,46.8184,12.9859,70.3064,3.6335,21.1487,7.1815,42.3786,9.3611,63.7353q.3,2.9354.5468,5.8755l3.0791-1.2754c-2.149-2.5607-5.7063-3.8474-8.8058-4.7741a82.99,82.99,0,0,0-14.9109-2.6781c-13.9121-1.4956-28.0029-1.4427-41.9741-1.1405-15.9839.3458-31.9552,1.23-47.9011,2.3643q-20.2024,1.4371-40.362,3.4158-6.5755.64-13.1456,1.3356c-2.0376.2165-4.2014.263-6.2112.6785-.0881.0182-.1823.0207-.272.031l1.7393,2.2833L634.17,405.66l5.5824-35.4113,6.7554-42.8517,5.8431-37.0646c.9485-6.0164,1.93-12.0286,2.8455-18.05.0132-.0869.0274-.1737.0411-.26a1.8633,1.8633,0,0,0-1.26-2.2189,1.816,1.816,0,0,0-2.2188,1.26Z"/><path d="M612.5032,150.0482l-.73,5.75a51.591,51.591,0,0,0,1.5046,20.0412l-5.54,8.5471a25.0221,25.0221,0,0,0,.113,27.394v0a25.0226,25.0226,0,0,0,25.0372,10.8919l38.9929-6.5632c7.9747-5.1995,33.6574-59.3219,13.7572-82.5281"/><path d="M610.7,150.0482c-.332,2.6147-.7335,5.2323-.95,7.86a54.2173,54.2173,0,0,0,1.7893,18.4106l.1818-1.39c-3.1878,4.9177-7.05,9.8329-8.7285,15.5161a27.0164,27.0164,0,0,0,8.93,28.4431c6.42,5.1011,14.308,6.7249,22.3024,5.3793l14.37-2.4186L666.9,218.7673c1.6679-.2807,3.3581-.5042,5.0153-.8441a5.8436,5.8436,0,0,0,2.97-2.1137c3.489-3.8808,6.0045-8.737,8.2645-13.3976a127.7583,127.7583,0,0,0,8.0055-21.0481,89.6064,89.6064,0,0,0,3.6815-23.5688c.0482-7.2823-1.1561-14.8325-4.8618-21.2037a29.7976,29.7976,0,0,0-3.0613-4.286c-1.5047-1.7723-4.0458.79-2.5509,2.5509,4.7871,5.6389,6.5641,13.1567,6.8294,20.3982a81.3826,81.3826,0,0,1-3.3162,24.435,121.7363,121.7363,0,0,1-8.2721,21.7806,81.34,81.34,0,0,1-4.5116,8.0512q-.4756.7355-.9765,1.4544-.2328.3327-.472.6607c-.0831.1136-.5877.7743-.3582.4821a17.2426,17.2426,0,0,1-1.75,1.9642c-.1333.1247-.2745.24-.4093.3627-.25.2281.3692-.1943-.089.0617.3174-.1774.47-.1132.1218-.0966a14.7266,14.7266,0,0,0-1.683.2833l-7.2509,1.22L642.2272,219.28c-4.0643.6841-8.2486,1.7233-12.38,1.9113a23.2271,23.2271,0,0,1-21.9575-33.4326,81.0071,81.0071,0,0,1,4.84-7.7608c.6643-1.0248,1.395-2.0314,2.0035-3.0908a2.9849,2.9849,0,0,0,.0441-2.4605q-.6374-2.51-1.0366-5.0735a55.6086,55.6086,0,0,1,.0935-15.5992l.4731-3.7257a1.8148,1.8148,0,0,0-1.8038-1.8037,1.8468,1.8468,0,0,0-1.8037,1.8037Z"/><path class="cls-1" d="M673.1453,228.9664l-5.8781-19.5429,31.5754-22.4368,11.196,42.2051,11.8078-.2254-18.9094,19.75a25.2643,25.2643,0,0,1-19.9016,7.738h0a25.264,25.264,0,0,1-23.5742-26.5726l.0588-1.0887Z"/><path d="M674.8846,228.4868l-5.8781-19.5428-.829,2.0369,27.6993-19.6825,3.8762-2.7543-2.65-1.0779,3.7695,14.21,6.0454,22.7889,1.3811,5.2065a1.8321,1.8321,0,0,0,1.7393,1.3242l11.8078-.2254-1.2755-3.0792-16.9428,17.6959c-.6555.6846-1.3065,1.3737-1.9666,2.0539a23.79,23.79,0,0,1-10.8957,6.4627,23.473,23.473,0,0,1-27.9074-14.0265,26.022,26.022,0,0,1-1.5347-11.084l-1.8037,1.8037,13.6253.1735c2.3221.03,2.3234-3.5779,0-3.6075l-13.6253-.1735a1.8388,1.8388,0,0,0-1.8038,1.8038,27.9481,27.9481,0,0,0,6.9071,20.6145,27.1625,27.1625,0,0,0,21.1948,8.88,27.8912,27.8912,0,0,0,18.9877-8.9152L714.44,239.31l8.6819-9.0678a1.8243,1.8243,0,0,0-1.2754-3.0792l-11.8078.2254,1.7393,1.3243-3.7695-14.21-6.0454-22.789-1.3811-5.2064a1.8165,1.8165,0,0,0-2.65-1.078l-27.6993,19.6825-3.8761,2.7543a1.8638,1.8638,0,0,0-.829,2.037l5.8782,19.5429C672.073,231.6634,675.5559,230.7186,674.8846,228.4868Z"/><path class="cls-1" d="M684.6241,206.9328a61.0564,61.0564,0,0,1-20.5056,10.661c-37.0026,4.7178-37.2337-62.372-37.2337-62.372L693.4977,135.63s12.41,12.1552,13.4621,18.9453c1.8115,11.6935-7.2178,22.7071-6.5281,38.2039"/><path d="M683.3487,205.6574a57.9687,57.9687,0,0,1-17.55,9.48,12.8166,12.8166,0,0,1-3.5776.8345,27.0219,27.0219,0,0,1-2.944.0287,20.4114,20.4114,0,0,1-4.9086-.8006c-6.1628-1.7552-10.9264-6.3886-14.3171-11.8137-3.7765-6.0424-6.0633-12.7808-7.7549-19.7015a126.2376,126.2376,0,0,1-3.0542-18.695c-.2988-3.242-.5412-6.51-.5537-9.7679l-1.3243,1.7393,22.5771-6.64,35.8215-10.5355,8.2143-2.416-1.7549-.4638a66.3591,66.3591,0,0,1,11.2416,13.7667,13.1433,13.1433,0,0,1,1.74,4.2849,20.3788,20.3788,0,0,1-.0521,6.2437c-.6789,4.6865-2.3788,9.1774-3.7468,13.6894a54.4,54.4,0,0,0-2.7771,17.889c.09,2.3138,3.6978,2.3254,3.6075,0a49.904,49.904,0,0,1,2.4362-16.2244c1.3843-4.6577,3.1346-9.2568,3.9084-14.0718.6733-4.1893.6553-8.3713-1.2507-12.2339a49.7026,49.7026,0,0,0-7.1373-10.0536c-1.7281-2.0129-3.5242-3.9824-5.4188-5.8409a1.8142,1.8142,0,0,0-1.755-.4639l-22.577,6.64L634.62,151.0665l-8.2143,2.416a1.8434,1.8434,0,0,0-1.3242,1.7393c.0108,2.82.2046,5.6478.4387,8.4567a138.3689,138.3689,0,0,0,2.9733,19.5974A73.5313,73.5313,0,0,0,636.39,204.31c3.6339,6.1291,8.7661,11.4559,15.5844,13.9071a25.9629,25.9629,0,0,0,11.1867,1.2875c3.3818-.3232,6.8126-2.0125,9.8875-3.3977a58.6576,58.6576,0,0,0,8.8981-4.94c1.3614-.9258,2.6747-1.92,3.9525-2.9583a1.8177,1.8177,0,0,0,0-2.5508,1.8433,1.8433,0,0,0-2.5509,0Z"/><path d="M686.652,172.4538c.0128-.3626.0388-.725.0673-1.0866q.0485-.6157.1168-1.23c.0243-.2194.0514-.4384.0785-.6574.0534-.4311-.0519.35-.0042.0314.0232-.1549.0447-.31.0686-.4647a26.0428,26.0428,0,0,1,.7038-3.2834c.0783-.27.1623-.5384.2538-.8043q.0629-.1827.1306-.3639c.0329-.0878.2009-.5147.0891-.2384-.1178.291.0495-.108.08-.1735q.0874-.1878.1825-.3718a7.4791,7.4791,0,0,1,.4-.6848c.0279-.0422.19-.3155.2183-.3086.0257.0063-.3207.3586-.11.15.0422-.0417.0785-.091.1187-.1348.0891-.0971.1841-.1859.2791-.277.0308-.0295.0664-.0542.0967-.0841.2085-.2057-.2763.1681-.1317.1039a3.3445,3.3445,0,0,0,.3155-.1919c.3412-.2037-.3017.0716-.059.0223a2.7841,2.7841,0,0,0,.3141-.0844c.2408-.0805-.2035.0423-.2341.0278a.8746.8746,0,0,0,.254-.0128,1.8038,1.8038,0,1,0,0-3.6075c-2.89.0525-4.4714,2.633-5.3489,5.0613a28.5361,28.5361,0,0,0-1.376,7.0648c-.049.5313-.0923,1.0647-.1111,1.5981a1.8183,1.8183,0,0,0,1.8038,1.8038,1.8409,1.8409,0,0,0,1.8037-1.8038Z"/><path d="M653.814,167.2625a8.43,8.43,0,0,1,.8761-.8361c.0871-.0743.5449-.4423.3-.25-.2694.2108.0863-.0626.1363-.099q.1294-.0943.261-.1857a13.9245,13.9245,0,0,1,1.4493-.881c.283-.1493.5722-.2835.8629-.417-.404.1855.0414-.0155.1022-.0392q.2432-.0946.49-.1795a14.94,14.94,0,0,1,2.0862-.5282q.3207-.0482.0254-.0083.1721-.0211.3447-.0377.264-.0252.529-.0393a12.7735,12.7735,0,0,1,1.2892-.0038,10.6731,10.6731,0,0,1,2.53.4187,1.8042,1.8042,0,1,0,.959-3.4786,15.1787,15.1787,0,0,0-10.8023,1.0757,13.3166,13.3166,0,0,0-3.99,2.9386,1.8475,1.8475,0,0,0,0,2.5509,1.8205,1.8205,0,0,0,2.5509,0Z"/><path d="M630.4873,173.05c.2269-.19-.4213.2773.0606-.04.3775-.2486.7483-.5008,1.1408-.7265a16.442,16.442,0,0,1,3.9885-1.6249,6.5124,6.5124,0,0,1,7.1633,2.1074c1.5549,2.0654,1.5016,4.9547,1.07,7.39a22.28,22.28,0,0,1-1.456,4.8608,21.9978,21.9978,0,0,0-1.2256,2.5785,4.0073,4.0073,0,0,0,.248,2.1942c1.2586,3.5947,5.3031,2.8646,8.0869,1.7472a1.86,1.86,0,0,0,1.26-2.2188,1.8161,1.8161,0,0,0-2.2188-1.26,15.3608,15.3608,0,0,1-2.1778.7286,4.4416,4.4416,0,0,1-.6524.1152c-.0805.0067-.6938.0005-.4538.024-.0729-.0071-.5268-.1628-.2343-.0408-.16-.0669-.1053-.12-.0732-.0114a3.3916,3.3916,0,0,1-.2413-.7989l-.2463.91c2.4232-4.6032,4.5494-10.9686,2.4617-16.1033a9.9329,9.9329,0,0,0-5.613-5.5246,11.5737,11.5737,0,0,0-8.2729.3305,17.1437,17.1437,0,0,0-5.1652,2.8113,1.8179,1.8179,0,0,0,0,2.5509,1.843,1.843,0,0,0,2.5509,0Z"/><circle cx="637.0458" cy="178.6996" r="2.4297"/><path d="M638.5205,178.3009c.0166.0646.03.1294.0446.1944.0409.1785,0-.0406-.004-.0456.0458.06.0139.279.0108.3531-.0014.0316.0081.1368-.0117.1583l.0153-.1147q-.0073.0467-.0171.0928c-.0229.1133-.06.2207-.0916.3314-.0581.2022.0939-.1711-.0043.0147-.0193.0366-.0365.0744-.0561.1109q-.0443.0822-.0947.1607c-.0091.0143-.108.1887-.0368.0614.0678-.1212-.03.0352-.0472.054-.0345.0391-.07.0769-.1073.1136s-.0774.0705-.1145.1071c-.137.135.134-.0817-.016.0149-.09.0579-.1777.1166-.2727.1662-.0612.032-.1866.1446-.021.0168a.5622.5622,0,0,1-.1557.0548c-.1065.0337-.2143.0537-.3228.0787-.1316.03.2251-.0085.0134-.0037-.0644.0015-.1284.0074-.1929.0072s-.1271-.0056-.1908-.008c-.1839-.0071.053.0083.0516.0093-.0444.0316-.2833-.063-.3353-.0793-.0306-.01-.1306-.0262-.1474-.051l.1.0433q-.0427-.0187-.0845-.04c-.1-.0549-.1971-.1136-.2957-.1714-.18-.1058.1391.1315-.0162-.0091-.0386-.0349-.0784-.0682-.1161-.1042s-.0745-.0731-.11-.1116c-.0094-.01-.1518-.16-.0512-.053.0976.1043-.0308-.0461-.0415-.0621-.0295-.0443-.0573-.09-.0838-.1358s-.0495-.0952-.0756-.1421c-.095-.1706.0422.1492-.0109-.0249-.0357-.1173-.0739-.2315-.0982-.3522l-.0065-.0324q-.0252-.1522.0039.0456c-.02-.03-.01-.1236-.0112-.1612-.004-.1071.0048-.2119.0092-.3186.0055-.1333-.05.2232-.0015.0211.0148-.061.0257-.1227.042-.1833s.0384-.1189.0559-.1789c.056-.1925-.0749.1194-.0088.0136.0545-.0871.0926-.1856.1474-.2735.0173-.0278.0575-.1185.0863-.1294l-.066.0831q.0289-.0366.06-.0719c.0861-.0921.1764-.1766.2662-.2647.0922-.0905-.1813.1168-.008.0055.0446-.0287.0878-.0594.1331-.0871s.0921-.0543.1395-.0791c.0115-.0059.2042-.096.0687-.0368s.0641-.0207.0764-.0248c.0528-.0175.1062-.0329.16-.0468s.1081-.0234.162-.0363c.1835-.044-.1878.0113.0512-.004.118-.0075.2338,0,.3515.0029.2164.006-.2-.0447.01.0016.0615.0135.1225.0256.1833.042s.1189.0383.1789.0558c.1719.05-.1566-.0861.0146.0042.1111.0586.2158.1213.3236.1851.172.1017-.095-.1-.0079-.0106.05.0515.1112.0947.1629.1455.03.0293.059.0593.0872.09s.056.0624.0828.0947q-.1128-.1509-.0259-.032c.07.1086.1327.2176.1953.33.0334.06.086.0908-.0124-.0366a.839.839,0,0,1,.0834.2517.9021.9021,0,0,0,1.7393-.48,3.39,3.39,0,0,0-2.984-2.4429,3.3212,3.3212,0,0,0-3.23,1.8815,3.33,3.33,0,1,0,6.2141.5614.9021.9021,0,0,0-1.7393.48Z"/><circle cx="659.1254" cy="172.6866" r="2.4297"/><path d="M660.6,172.288c.0167.0646.03.1294.0446.1944.041.1785,0-.0406-.0039-.0456.0457.06.0139.279.0107.3531-.0013.0316.0082.1368-.0117.1583l.0153-.1147q-.0072.0467-.017.0928c-.0229.1133-.06.2207-.0916.3314-.0581.2021.0939-.1711-.0043.0146-.0194.0367-.0365.0745-.0562.111q-.0443.0822-.0946.1607c-.0092.0143-.1081.1887-.0369.0614.0679-.1212-.0305.0351-.0471.054-.0346.0391-.07.0768-.1074.1136s-.0773.0705-.1145.1071c-.137.135.1341-.0817-.0159.0149-.09.0578-.1778.1166-.2727.1662-.0613.032-.1866.1446-.021.0168a.5617.5617,0,0,1-.1558.0548c-.1065.0337-.2142.0537-.3227.0787-.1317.03.225-.0085.0133-.0037-.0643.0015-.1284.0074-.1928.0072s-.1271-.0056-.1909-.008c-.1838-.0071.053.0083.0516.0093-.0443.0316-.2832-.063-.3353-.0793-.0306-.01-.13-.0262-.1473-.051l.1.0433q-.0428-.0187-.0844-.04c-.1005-.0549-.1972-.1136-.2957-.1714-.18-.1058.139.1315-.0162-.0091-.0386-.035-.0784-.0682-.1162-.1042s-.0744-.0732-.11-.1116c-.0094-.01-.1518-.16-.0512-.053.0976.1043-.0309-.0461-.0415-.0621-.03-.0443-.0573-.09-.0838-.1358s-.05-.0952-.0756-.1421c-.095-.1706.0422.1492-.0109-.0249-.0358-.1173-.074-.2316-.0982-.3522l-.0065-.0324q-.0252-.1522.0039.0455c-.02-.03-.01-.1235-.0112-.1611-.004-.1071.0048-.212.0092-.3187.0054-.1332-.05.2232-.0015.0212.0148-.061.0256-.1227.042-.1834s.0384-.1188.0558-.1788c.0561-.1925-.0748.1194-.0087.0136.0544-.0871.0925-.1856.1474-.2736.0173-.0277.0575-.1185.0862-.1293l-.0659.0831q.029-.0368.06-.0719c.086-.0922.1764-.1766.2661-.2647.0922-.0905-.1812.1168-.008.0055.0447-.0287.0878-.0595.1332-.0871s.0921-.0543.1395-.0791c.0114-.006.2042-.0961.0687-.0368s.0641-.0207.0764-.0248q.0792-.0262.16-.0468c.0537-.0139.1082-.0234.162-.0363.1835-.044-.1877.0113.0513-.004.118-.0076.2337,0,.3515.0029.2163.006-.2-.0447.01.0015.0614.0135.1225.0257.1833.042s.1188.0383.1788.0559c.1719.05-.1566-.0861.0147.0042.1111.0586.2158.1213.3236.1851.1719.1017-.095-.1-.008-.0107.05.0516.1112.0948.163.1456q.0447.0438.0872.09t.0827.0946q-.1127-.1507-.0258-.0319c.0694.1086.1326.2176.1952.33.0334.06.086.0907-.0123-.0366a.8417.8417,0,0,1,.0833.2517.9021.9021,0,0,0,1.7393-.48,3.39,3.39,0,0,0-2.9839-2.4429,3.3211,3.3211,0,0,0-3.23,1.8815,3.33,3.33,0,1,0,6.2141.5614.9021.9021,0,0,0-1.7393.48Z"/><path d="M659.56,190.1727a3.7646,3.7646,0,0,1-.1066.429q-.0708.2391-.16.472c-.0176.046-.0364.0915-.0543.1375-.0822.212.2223-.5078.1132-.2684-.05.1092-.0988.2184-.1525.3258a6.8569,6.8569,0,0,1-.3771.6609q-.106.1638-.2215.3213c-.2154.2938.1875-.2332.1173-.15-.0539.064-.1056.13-.16.1931a6.292,6.292,0,0,1-.671.6674c-.0555.0473-.1131.0921-.1689.1391-.1508.1271.3754-.2807.2137-.1655-.035.0249-.0693.0511-.1043.0761q-.23.1645-.4751.3078-.2733.16-.5615.2925c-.0331.0152-.067.0289-.1.0448-.1877.0909.45-.179.1915-.0818-.1072.04-.2138.0814-.3223.1182a8.0612,8.0612,0,0,1-1.5038.3448l.48-.0644q-.2758.0348-.5528.0555a1.8038,1.8038,0,1,0,0,3.6075,9.0222,9.0222,0,0,0,5.7679-2.4106,8.6863,8.6863,0,0,0,2.1166-3.4605,4.3316,4.3316,0,0,0,.171-.6333,1.9525,1.9525,0,0,0-.1818-1.39,1.8041,1.8041,0,0,0-3.2968.4309Z"/><path d="M612.2417,152.4554l.4776-4.3954c2.5274-20.0017,14.7379-38.1824,56.6552-37.4038,0,0,17.2241.79,35.213,16.0534l5.4511,4.9061a36.124,36.124,0,0,1,5.5618,8.7559,49.7941,49.7941,0,0,1,4.639,25.7715q-.0606.7017-.1038,1.4032l-2.5249,43.93a11.6948,11.6948,0,0,1-8.6623,10.629h0l-13.7272-43.501c2.65-3.2328,5.11-13.8635,3.8744-19.3685-1.8667-8.3165-6.77-9.2713-12.5793-7.9675s-9.7672,13.7189-7.9479,21.8244l-4.8745-17.3381a9.4251,9.4251,0,0,0-12.4824-6.2392c-6.6858,2.5935-19.7912,7.0422-31.4161,10.65a12.8157,12.8157,0,0,1-8.2995-.2153"/><path d="M614.0454,152.4554c.6047-5.5645,1.3961-11.1838,3.5706-16.3617a33.3225,33.3225,0,0,1,11.7-14.5648c6.9919-4.8537,15.4423-7.2095,23.8027-8.2852a90.4556,90.4556,0,0,1,16.279-.7826c.4979.0272.9941.0869,1.4889.147.4067.0494-.3231-.0461-.0424-.0063.1142.0161.2285.0316.3425.0491.254.0389.508.0777.7615.12q1.0611.1769,2.1133.4023a66.8365,66.8365,0,0,1,26.9759,12.9537c2.535,1.9853,4.8787,4.2017,7.27,6.3543,2.1986,1.9788,3.7244,4.8376,5.1055,7.5291a47.4643,47.4643,0,0,1,5.1069,18.5443,81.35,81.35,0,0,1-.2419,9.9272l-.89,15.4885-1.1565,20.1221c-.2381,4.1431.2136,9.3451-2.4786,12.7938a9.9856,9.9856,0,0,1-5.2839,3.48l2.2188,1.26-4.6451-14.72-7.37-23.3544-1.7122-5.4262-.4639,1.7549c2.76-3.4876,3.8036-8.4191,4.3887-12.7278.6495-4.7835.4932-10.1017-2.4545-14.1748-2.6348-3.6407-6.7658-4.39-10.9851-3.72-4.352.6907-6.987,3.9261-8.6807,7.81a27.5983,27.5983,0,0,0-1.936,16.5051l3.4787-.959c-1.6106-5.7284-3.1845-11.4684-4.8319-17.1863a11.357,11.357,0,0,0-11.8074-8.3069c-2.678.2591-5.21,1.5306-7.7191,2.4363-3.1448,1.1351-6.3049,2.2276-9.4718,3.2994q-5.9327,2.0076-11.9,3.9124c-2.0355.65-4.0829,1.4154-6.1648,1.9031a11.3763,11.3763,0,0,1-6.4377-.4609c-2.194-.7728-3.1377,2.7113-.959,3.4786,3.7223,1.311,7.2475.8479,10.9284-.3055q5.3006-1.6609,10.5745-3.4052c6.0018-1.9827,11.9978-4.0061,17.9112-6.2412,2.4166-.9134,4.7078-1.528,7.2045-.4456a7.7538,7.7538,0,0,1,4.3305,4.9814c.816,2.7446,1.5508,5.5161,2.3258,8.2725l2.5378,9.0269c.6318,2.2473,3.9636,1.3016,3.4787-.959a23.553,23.553,0,0,1,1.8289-14.2987,11.2252,11.2252,0,0,1,3.4706-4.6923,9.2048,9.2048,0,0,1,5.2546-1.0178c4.395.2,6.4011,4.62,6.7026,8.541a30.1543,30.1543,0,0,1-2.6079,14.3736c-.5928,1.2717-1.7878,2.2721-1.4312,3.7025.1263.5066.3175,1.0062.4745,1.5037l2.1859,6.9272,6.5916,20.8887,4.4317,14.0437a1.838,1.838,0,0,0,2.2188,1.26,13.5828,13.5828,0,0,0,9.8153-10.8453c.2248-1.434.2507-2.9053.3339-4.3523l1.0784-18.7627,1.0981-19.1068c.0709-1.2328.1306-2.4669.2165-3.6988a55.7575,55.7575,0,0,0-1.8668-20.0053,46.8221,46.8221,0,0,0-7.893-15.67,41.9528,41.9528,0,0,0-5.0928-4.84,72.9922,72.9922,0,0,0-27.0865-15.5585,53.3885,53.3885,0,0,0-9.1447-2.0042,58.7952,58.7952,0,0,0-10.0757-.03c-9.8712.4843-19.9723,2.1717-28.832,6.7523a37.7861,37.7861,0,0,0-15.4631,14.51,46.6022,46.6022,0,0,0-5.643,18.223c-.1478,1.3328-.29,2.6661-.4346,3.9991a1.817,1.817,0,0,0,1.8038,1.8038,1.8432,1.8432,0,0,0,1.8037-1.8038Z"/><path class="cls-4" d="M688.7918,264.3778,637.87,331.538c7.9761,5.0833,18.1986,14.1115,28.2538,25.4189,7.8563,8.8349,19.8739,37.5592,24.29,45.0372l75.7714-91.0347"/><path d="M687.2343,263.4674,669.9452,286.27l-27.356,36.08-6.2763,8.2777a1.8259,1.8259,0,0,0,.6471,2.4679,110.5028,110.5028,0,0,1,15.8328,12.7085q4.5358,4.2606,8.7743,8.8241a58.5641,58.5641,0,0,1,5.3734,6.3066,119.7372,119.7372,0,0,1,7.88,13.6352c2.6681,5.1695,5.1835,10.4159,7.6962,15.662,2.0338,4.2463,3.9536,8.6077,6.34,12.6726a1.8174,1.8174,0,0,0,2.8329.365l7.5556-9.0776,18.1376-21.7911,21.848-26.249,18.8879-22.6927c3.0708-3.6894,6.1836-7.3481,9.2144-11.0706.0421-.0516.0853-.1024.1279-.1536,1.4751-1.7723-1.0636-4.3378-2.5509-2.5509l-7.5556,9.0776-18.1375,21.7912-21.848,26.249-18.8879,22.6926-6.2507,7.51a40.2325,40.2325,0,0,0-2.9638,3.5608,1.7235,1.7235,0,0,1-.1278.1537l2.8329.365c-2.0873-3.5551-3.79-7.352-5.57-11.0654-2.512-5.24-5.0107-10.4869-7.6453-15.6668a139.86,139.86,0,0,0-8.0786-14.3234c-3.7022-5.5489-8.6378-10.3168-13.4073-14.9369a120.2062,120.2062,0,0,0-18.49-15.1107l.6471,2.4679,17.2891-22.8026,27.3561-36.08,6.2762-8.2777a1.8166,1.8166,0,0,0-.6471-2.4679,1.8462,1.8462,0,0,0-2.4679.6471Z"/><path d="M675.4524,391.2632q-2.1855,2.139-4.4485,4.1847c8.8116,6.5986,15.8276,9.5373,18.5766,7.0927,2.8137-2.5019.55-10.1007-5.2667-19.9512Z"/><path d="M674.177,389.9878q-2.1857,2.1335-4.4486,4.1847a1.83,1.83,0,0,0,.3651,2.8329,58.1392,58.1392,0,0,0,10.004,6.266c2.31,1.0784,4.9815,2.1669,7.589,1.881a5.1926,5.1926,0,0,0,4.6437-3.8663c.6581-2.4537.0193-5.1891-.7337-7.5427a60.5911,60.5911,0,0,0-5.7253-12.0644,1.8245,1.8245,0,0,0-2.8329-.3651l-8.8613,8.6739c-1.6619,1.6267.89,4.1768,2.5508,2.5509l8.8614-8.6739-2.8329-.365a63.8162,63.8162,0,0,1,4.7189,9.3831,16.586,16.586,0,0,1,1.4917,6.7426c-.0073.1224-.0854.6136-.0178.2533-.0376.2-.0909.3926-.1377.59a2.539,2.539,0,0,1-.0917.2732c.0054-.0149.1387-.2886.0449-.1109a4.2808,4.2808,0,0,1-.3065.5174c.2088-.29.021-.0362-.1056.0721-.3264.28.2148-.0969-.1672.112-.1421.0777-.4592.186-.1259.0758a5.69,5.69,0,0,1-.6283.165c-.2661.0557.3039-.0226.023-.0043-.0793.0052-.1594.0159-.239.0158-.2253,0-.4485.0031-.6739-.0071a5.8866,5.8866,0,0,1-1.2184-.2009,17.5789,17.5789,0,0,1-3.2812-1.1639,57.6762,57.6762,0,0,1-10.1273-6.323l.365,2.8329q2.2608-2.0535,4.4485-4.1846C678.392,390.9142,675.84,388.3643,674.177,389.9878Z"/><path class="cls-1" d="M472.2834,460.9023,599.92,432.63a159.3252,159.3252,0,0,0,71.0844-37.1818q2.26-2.0485,4.4485-4.1847l8.8614-8.6738a167.4791,167.4791,0,0,0-18.7347-25.0873c-10.0552-11.3075-20.2777-20.3357-28.2538-25.419L627.24,345.3849l-13.8579,18.277-161.184,36.1517"/><path d="M472.763,462.6416l6.1835-1.37,16.0461-3.5544,22.4642-4.976,25.2132-5.585,24.3488-5.3935,19.7924-4.3842,11.8275-2.62a160.9849,160.9849,0,0,0,59.9633-26.9325c8.8942-6.467,16.7749-13.9653,24.61-21.635l2.3769-2.3266a1.8359,1.8359,0,0,0,.282-2.1858,162.1362,162.1362,0,0,0-16.5747-22.6561,180.9507,180.9507,0,0,0-20.5977-20.664,100.3794,100.3794,0,0,0-10.4631-7.8332,1.8506,1.8506,0,0,0-2.4679.6471l-19.3813,25.5619-4.5621,6.0168,1.078-.8289L596.82,365.53l-38.6031,8.6583L511.7965,384.6l-40.3138,9.0419-13.207,2.9622c-2.086.4679-4.2138.8527-6.2788,1.4083-.0916.0246-.1859.0416-.2785.0624-2.2643.5079-1.306,3.9867.959,3.4786l6.5573-1.4707,17.36-3.8937,24.6968-5.5392,28.5664-6.4071,28.9691-6.4975,25.9051-5.81,19.3122-4.3315c3.1381-.7038,6.3055-1.3313,9.4252-2.1139,1.4083-.3533,2.21-1.8927,3.0483-2.999l8.2785-10.9183,12.0073-15.8364,2.0789-2.7419-2.4679.6471a117.9568,117.9568,0,0,1,18.73,15.493,192.9165,192.9165,0,0,1,19.5343,22.3312,138.8359,138.8359,0,0,1,8.0776,12.035l.282-2.1859c-6.0051,5.8781-11.9093,11.8761-18.3733,17.258a157.9788,157.9788,0,0,1-36.7214,22.8043,153.0788,153.0788,0,0,1-29.1226,9.6513l-9.5466,2.1146-18.3307,4.06-23.4332,5.1906-25.2147,5.5853-23.3311,5.1681-17.8861,3.9619c-2.956.6548-5.9411,1.2347-8.8792,1.9669-.1309.0326-.2638.0584-.3955.0876-2.2656.5018-1.3068,3.9805.9591,3.4786Z"/><path class="cls-5" d="M445.9053,158.4868l54.41,34.4274a81.1737,81.1737,0,0,1,25.192,111.9987L352.6946,578.028l-191.6-121.2341L333.9066,183.6788A81.1737,81.1737,0,0,1,445.9053,158.4868Z"/><path d="M444.9949,160.0443l41.2362,26.0919c5.14,3.2522,10.3811,6.3873,15.4141,9.8052a79.3252,79.3252,0,0,1,22.143,108.3159q-5.3661,8.5029-10.7524,16.9932l-24.0287,37.9754-32.1025,50.7353-34.8707,55.11L389.4482,516.57,364.23,556.4253l-12.545,19.8264-.548.8659,2.4679-.6471L334.51,564.3885l-45.8411-29.0057L233.4168,500.422l-47.7741-30.2288-15.77-9.9782c-2.4142-1.5275-4.9182-3.6162-7.5411-4.7716a2.7037,2.7037,0,0,1-.3272-.207l.6471,2.4679,6.4739-10.2315,17.1639-27.126L211.0155,381.27,239.88,335.6523l29.8525-47.1793,27.7055-43.7861L319.55,209.74l13.4287-21.2229q1.1992-1.8955,2.3987-3.791a79.2776,79.2776,0,0,1,92.1669-32.9817,80.7152,80.7152,0,0,1,17.45,8.3c1.9721,1.2378,3.7846-1.8823,1.8208-3.115a83.5964,83.5964,0,0,0-73.2241-7.6227,84.4839,84.4839,0,0,0-41.8489,34.42L321.6671,199.65l-20.1113,31.7842L275.0278,273.36l-29.87,47.2063-29.7833,47.07-26.2706,41.5183-19.6228,31.0123c-3.1747,5.0173-6.45,9.9852-9.53,15.0616-.1339.2208-.2764.4368-.4144.655a1.8336,1.8336,0,0,0,.6471,2.4679l19.0946,12.082,45.841,29.0057L280.3722,534.4l47.7741,30.2288c7.7422,4.8988,15.3556,10.2,23.3107,14.75.1117.0638.2185.1382.3272.207a1.8337,1.8337,0,0,0,2.4679-.6471l8.8024-13.9114,22.8773-36.1557L417.5892,478.84l35.1426-55.54,33.333-52.68,26.2285-41.4519,13.8291-21.8558c11.366-17.963,16.1566-38.9511,12.5319-60.02a83.28,83.28,0,0,0-18.3192-39.31c-6.3959-7.6031-14.1406-13.4806-22.4785-18.7564l-47.01-29.7454-4.0309-2.55C444.8481,155.6843,443.0361,158.8048,444.9949,160.0443Z"/><path class="cls-5" d="M382.5612,559.715h0a17.6533,17.6533,0,0,0-5.4786-24.3569L189.2117,416.4837a17.6532,17.6532,0,0,0-24.3569,5.4786h0l-21.2381,33.565L362.7979,590.9491Z"/><path d="M384.1186,560.6254a19.64,19.64,0,0,0-4.975-26.0324c-1.0114-.75-2.1055-1.3966-3.1687-2.0694l-15.6265-9.8876L333.12,505.4074,299.2084,483.95l-35.911-22.7225-33.1617-20.9829-25.6641-16.2388-13.4178-8.49a21,21,0,0,0-11.0979-3.5728,19.6808,19.6808,0,0,0-13.1673,4.9664,23.7891,23.7891,0,0,0-4.1906,5.2478l-18.84,29.7749-1.6988,2.6848a1.8317,1.8317,0,0,0,.6471,2.4679l5.8643,3.6233,15.9592,9.86,23.6034,14.5834L216.93,502.9442l31.54,19.4869,31.8319,19.6673,29.5812,18.2769,25.0833,15.4978,18.0316,11.1408c2.8375,1.7532,5.6461,3.5691,8.5192,5.2637.125.0737.2472.1527.3707.229a1.835,1.835,0,0,0,2.4678-.6471l17.3-27.3409,2.4634-3.8932c1.245-1.9676-1.8755-3.78-3.1149-1.8208l-17.3,27.3409-2.4634,3.8932,2.4678-.6471-5.8643-3.6233-15.9592-9.86-23.6034-14.5834-28.7968-17.7922-31.54-19.4869L226.1131,504.378l-29.5813-18.2769-25.0833-15.4978-18.0316-11.1408c-2.8277-1.7472-5.61-3.6539-8.5192-5.2637-.1266-.07-.2475-.1529-.3706-.229l.6471,2.4679,16.84-26.6137c2.1851-3.4535,4.23-7.6192,7.3255-10.3638a16.0247,16.0247,0,0,1,19.1-1.3316c3.41,2.142,6.8065,4.3068,10.21,6.46L221.6306,439.13l31.4656,19.91,35.2629,22.3124,34.4763,21.8148,29.0322,18.37,19.15,12.1172,4.4712,2.8292a16.5213,16.5213,0,0,1,7.524,9.9216,15.9223,15.9223,0,0,1-2.0093,12.4C379.7587,560.7722,382.8792,562.5842,384.1186,560.6254Z"/><path d="M253.9447,393.2591h0a17.6532,17.6532,0,0,1,17.6532,17.6532V633.2332a17.6533,17.6533,0,0,1-17.6533,17.6533h0a17.6532,17.6532,0,0,1-17.6532-17.6532V410.9123a17.6533,17.6533,0,0,1,17.6533-17.6533Z" transform="translate(-323.0131 457.5163) rotate(-57.6766)"/><path d="M168.5381,449.2753l6.2175,3.934,16.7019,10.5681L215.626,479.07l28.9885,18.3424,30.5,19.2985,29.3973,18.601,25.2658,15.9869,18.1619,11.4918q4.1331,2.6153,8.2662,5.23a15.8578,15.8578,0,0,1-6.0535,29.1875,16.3947,16.3947,0,0,1-11.2493-2.622l-3.1729-2.0077-14.4792-9.1616-22.6213-14.3136-28.0348-17.7388L240.1372,532.093l-29.8559-18.8913-26.5436-16.7953L163.537,483.6246l-10.9139-6.9058a20.886,20.886,0,0,1-4.2157-3.2772,15.8521,15.8521,0,0,1,20.1307-24.1663c1.9794,1.2256,3.793-1.8938,1.8208-3.115a19.4543,19.4543,0,0,0-27.7829,25.111c2.4249,4.9952,6.7338,7.6181,11.1658,10.4224l15.1466,9.584,23.4628,14.8459,28.8343,18.2448L252.14,543.9549l30.118,19.057,26.3126,16.6492,19.3233,12.2267q4.6221,2.9245,9.2443,5.8493a19.4583,19.4583,0,1,0,21.0757-32.7122c-.6559-.4226-1.319-.8346-1.9783-1.2518l-12.6543-8.0069-21.7142-13.74L294.04,524.419l-30.802-19.49L232.64,485.5685l-27.4471-17.367L183.8864,454.72,171.92,447.1482l-1.5613-.9879C168.3913,444.9153,166.5792,448.0358,168.5381,449.2753Z"/><rect class="cls-2" x="274.3247" y="354.1717" width="306.7255" height="24.2732" rx="12.1366" transform="translate(-110.5424 531.8588) rotate(-57.6766)"/><path d="M508.78,238.2676c5.0461,3.1929,5.9765,9.7387,2.9149,14.601q-1.0546,1.6747-2.1166,3.345l-10.1665,16.0673L482.9861,298.24,462.2377,331.031l-23.0119,36.3683-23.1891,36.6484-21.43,33.8691-17.76,28.0678-11.8688,18.7576-3.1563,4.9882a16.6648,16.6648,0,0,1-2.7151,3.59,10.3415,10.3415,0,0,1-16.5636-11.4394,20.71,20.71,0,0,1,1.9568-3.4269l8.3464-13.1907,15.0909-23.85,19.8976-31.4465,22.6495-35.7956,23.3141-36.846,22.041-34.8339,18.8638-29.8126,13.4534-21.2619c2.0546-3.2472,4.1-6.5006,6.164-9.7418a10.4815,10.4815,0,0,1,14.46-3.4072c1.9853,1.2156,3.8-1.9032,1.8208-3.115a14.1309,14.1309,0,0,0-19.3181,4.5794c-.6341.9921-1.2593,1.99-1.8889,2.9852L479.38,258.5435,462.92,284.5564l-20.9978,33.1851L418.6446,354.53,395.123,391.7037,373.3907,426.05l-17.72,28.0052-11.6833,18.4643c-2.5328,4.0029-5.6765,7.9756-5.7535,12.9314a13.9412,13.9412,0,0,0,21.5609,11.8725,17.363,17.363,0,0,0,4.9772-5.5122l8.0925-12.7894,15.1643-23.966,19.9991-31.6069,22.968-36.2989L454.65,349.7661l22.3129-35.2635,18.9277-29.9137,13.3358-21.0761c1.9043-3.01,3.8364-6.0033,5.7136-9.03a14.1084,14.1084,0,0,0-4.34-19.33C508.6329,233.9076,506.8209,237.0281,508.78,238.2676Z"/><rect class="cls-2" x="220.7139" y="320.2498" width="306.7255" height="24.2732" rx="12.1366" transform="translate(-106.8221 470.7714) rotate(-57.6766)"/><path d="M455.169,204.3456c5.046,3.1929,5.9765,9.7388,2.9148,14.601q-1.0547,1.6748-2.1166,3.345l-10.1665,16.0673-16.4254,25.959L408.6269,297.109,385.615,333.4773l-23.1891,36.6485-21.43,33.869-17.76,28.0678L311.3668,450.82l-3.1562,4.9882a16.67,16.67,0,0,1-2.7152,3.59,10.3415,10.3415,0,0,1-16.5636-11.4393,20.7109,20.7109,0,0,1,1.9569-3.427l8.3463-13.1907,15.0909-23.85,19.8976-31.4466,22.65-35.7956,23.3141-36.846,22.041-34.8339,18.8637-29.8126,13.4534-21.2618c2.0546-3.2473,4.1-6.5006,6.1641-9.7418a10.4815,10.4815,0,0,1,14.46-3.4073c1.9852,1.2157,3.8-1.9032,1.8207-3.1149a14.1307,14.1307,0,0,0-19.3181,4.5793c-.6341.9922-1.2593,1.99-1.8889,2.9853l-10.014,15.8263-16.46,26.0128L388.3115,283.82l-23.2777,36.7883-23.5216,37.1739L319.78,392.1279,302.06,420.133l-11.6832,18.4644c-2.5329,4.0029-5.6766,7.9756-5.7536,12.9313a13.9412,13.9412,0,0,0,21.5609,11.8725,17.3607,17.3607,0,0,0,4.9772-5.5122L319.2536,445.1l15.1644-23.966,19.999-31.6068,22.968-36.299,23.6544-37.3837,22.3128-35.2635L442.28,250.667l13.3358-21.0762c1.9043-3.01,3.8364-6.0033,5.7136-9.03a14.1083,14.1083,0,0,0-4.34-19.33C455.0221,199.9857,453.21,203.1062,455.169,204.3456Z"/><rect class="cls-2" x="167.1031" y="286.3278" width="306.7255" height="24.2732" rx="12.1366" transform="translate(-103.1018 409.6839) rotate(-57.6766)"/><path d="M401.5582,170.4237c5.0461,3.1928,5.9765,9.7387,2.9148,14.6009q-1.0546,1.6749-2.1166,3.3451L392.19,204.4369l-16.4255,25.959L355.0161,263.187l-23.0119,36.3684-23.1891,36.6484-21.43,33.869-17.76,28.0678-11.8688,18.7577L254.6,421.8865a16.671,16.671,0,0,1-2.7152,3.59,10.3415,10.3415,0,0,1-16.5636-11.4394,20.71,20.71,0,0,1,1.9569-3.4269l8.3464-13.1908,15.0908-23.85,19.8977-31.4465,22.6495-35.7957,23.3141-36.8459,22.041-34.834,18.8638-29.8126,13.4533-21.2618c2.0547-3.2472,4.1-6.5006,6.1641-9.7418a10.4814,10.4814,0,0,1,14.46-3.4072c1.9853,1.2156,3.8-1.9033,1.8207-3.115a14.1307,14.1307,0,0,0-19.318,4.5794c-.6342.9921-1.2593,1.99-1.8889,2.9852L372.1579,190.7l-16.4595,26.0128-20.9977,33.1852L311.423,286.686,287.9015,323.86l-21.7324,34.3461-17.72,28.0051-11.6832,18.4644c-2.5328,4.0029-5.6766,7.9756-5.7536,12.9314a13.9413,13.9413,0,0,0,21.561,11.8725,17.3641,17.3641,0,0,0,4.9772-5.5122l8.0924-12.79,15.1644-23.966,19.9991-31.6068,22.9679-36.2989,23.6544-37.3837,22.3128-35.2636,18.9277-29.9136,13.3359-21.0762c1.9042-3.0094,3.8363-6.0033,5.7135-9.03a14.1083,14.1083,0,0,0-4.34-19.33C401.4113,166.0637,399.5993,169.1842,401.5582,170.4237Z"/><path class="cls-1" d="M455.4935,403.3283,398.9228,470.967,430.49,484.95c-17.1363,15.9946-26.407,24.7794-37.02,33.405s-5.9054,17.6188,6.6992,11.6237c13.1166-7.8514,34.9716-24.56,47.2008-34.1157a34.3576,34.3576,0,0,0,11.9768-17.9846h0a34.3767,34.3767,0,0,1,9.9461-16.266l17.6418-3.9557"/><path d="M454.2181,402.0528l-5.63,6.731-13.5179,16.1627-16.3511,19.55-14.0737,16.8272c-2.2986,2.7484-4.6348,5.47-6.898,8.2476-.033.04-.067.08-.1.12-.6623.7918-.788,2.3221.365,2.8329l27.6185,12.234,3.9489,1.7492-.365-2.8329c-10.8049,10.0855-21.4824,20.3532-32.78,29.8921-2.5416,2.1459-5.3716,4.1127-7.4871,6.7-1.8125,2.217-3.4377,5.0267-3.0978,8.0009a6.0249,6.0249,0,0,0,4.6914,5.18c3.3692.8408,7.0979-.2671,10.1348-1.7235a68.0368,68.0368,0,0,0,8.1217-5.1235c3.0544-2.049,6.0693-4.1564,9.0626-6.2936,6.3183-4.5111,12.542-9.1546,18.7186-13.8575q4.217-3.2107,8.4041-6.46a59.8025,59.8025,0,0,0,7.9806-6.8679,36.1744,36.1744,0,0,0,6.4572-10.054c1.5485-3.6272,2.2968-7.4994,4.1236-11.0189a33.1651,33.1651,0,0,1,3.19-5.0259c.6156-.7949,1.2786-1.5559,1.9662-2.2891q.4833-.5152.9871-1.0108c-.0407.04.5623-.5715.5838-.56.0316.017-.55.1279-.47.1824.1392.0949,1.0325-.2315,1.19-.2669l2.653-.5949L486.5039,459.6l.91-.2041c2.2644-.5077,1.3061-3.9865-.959-3.4786l-9.9109,2.2222-6.0929,1.3662c-.491.11-1,.1922-1.4835.3326-1.181.3429-2.1419,1.6127-2.9565,2.4915a35.8766,35.8766,0,0,0-6.5359,9.8906c-1.527,3.47-2.2431,7.2171-3.8973,10.6339a32.9746,32.9746,0,0,1-6.6637,9.27,86.49,86.49,0,0,1-7.6273,6.2009c-11.39,8.8094-22.8914,17.5435-34.8736,25.5376-2.5323,1.6895-5.15,3.7236-7.957,4.9248-2.2487.9621-5.7323,2.0932-7.9456.8006a2.226,2.226,0,0,1-1.082-1.5618,5.2556,5.2556,0,0,1,.54-2.781c1.3923-3.05,4.1714-5.1011,6.6829-7.178,10.4043-8.6037,20.2051-17.9173,30.0666-27.1286q2.5233-2.3568,5.0469-4.7131a1.8147,1.8147,0,0,0-.365-2.833l-27.6185-12.2339-3.9489-1.7493.365,2.833,5.63-6.731,13.5179-16.1627,16.3511-19.55,14.0737-16.8272c2.2987-2.7484,4.6348-5.47,6.898-8.2476.033-.0405.067-.08.1005-.12,1.48-1.7693-1.0592-4.3345-2.5509-2.5509Z"/><path class="cls-1" d="M442.9055,482.2634s-33.1487,28.692-52.5543,39.2682c-12.8364,5.4813-17.1774-3.6946-6.2245-11.8847s20.5706-16.5935,38.3386-31.8833"/><path d="M441.63,480.9879c-11.0113,9.5283-22.4079,18.6931-34.1965,27.24-3.97,2.8782-7.9993,5.6817-12.15,8.2939-3.7642,2.369-8.2431,5.5206-12.944,4.7979-1.5553-.2391-2.4856-.9383-2.6554-2.255.0163.1261.0088-.58.0281-.7465a7.6832,7.6832,0,0,1,.2806-1.0937,9.5082,9.5082,0,0,1,1.5415-2.6672,32.0435,32.0435,0,0,1,6.0461-5.2769q2.8457-2.1771,5.645-4.4137c10.4085-8.32,20.4174-17.1379,30.5151-25.8277,1.7627-1.5169-.7987-4.0588-2.5508-2.5509-9.5719,8.2372-19.0688,16.5786-28.8895,24.52q-2.788,2.2547-5.6224,4.4516a62.1151,62.1151,0,0,0-6.5337,5.2521c-2.9267,2.9732-6.0176,8.3719-2.5247,12.1218,3.5189,3.7779,10.4292,2.0485,14.3088-.1127,4.2448-2.3645,8.3115-5.0477,12.3029-7.8138,8.8153-6.1093,17.2943-12.7085,25.6317-19.4508,4.8274-3.9039,9.6228-7.8553,14.318-11.9181,1.7586-1.5218-.8023-4.064-2.5509-2.5509Z"/><path class="cls-1" d="M433.391,474.85s-34.3509,27.2414-54.193,36.9739c-13.06,4.9249-17.0028-4.4291-5.7081-12.1411s21.2645-15.6944,39.673-30.2066"/><path d="M432.1155,473.5743c-11.1427,8.834-23.3025,17.7721-35.4841,25.82-4.1258,2.7258-8.3092,5.3732-12.6093,7.8168-3.7683,2.1415-8.4559,5.1187-12.9992,4.01a3.9528,3.9528,0,0,1-1.6258-.7483,2.1006,2.1006,0,0,1-.7208-1.3335c-.1727-1.657.9542-3.4685,2.1324-4.7875a34.1034,34.1034,0,0,1,6.2154-4.9247q2.8083-1.9631,5.572-3.9885c10.8373-7.9308,21.2985-16.3748,31.8423-24.6874a1.8159,1.8159,0,0,0,0-2.5508,1.8462,1.8462,0,0,0-2.5509,0c-9.9137,7.8158-19.7543,15.7435-29.9129,23.2418q-2.9478,2.1759-5.942,4.2881a58.9182,58.9182,0,0,0-6.7028,4.9749c-3.0208,2.8458-6.1419,7.9886-2.924,11.84,3.249,3.8885,10.113,2.5743,14.0424.6682a133.354,133.354,0,0,0,12.7-7.2792c9.037-5.6881,17.7546-11.8854,26.3359-18.2351q4.9546-3.6661,9.8419-7.4225c1.6993-1.3061,3.5032-2.555,5.1138-3.9727.0718-.0632.1512-.1193.2262-.1788a1.8162,1.8162,0,0,0,0-2.5508,1.8456,1.8456,0,0,0-2.5509,0Z"/><path class="cls-1" d="M472.7522,395.2035l-49.1248,8.1248-36.0723,5.2278A9.9119,9.9119,0,0,0,379.92,414.34v0a9.9114,9.9114,0,0,0,7.0452,13.73l4.1509.8605a17.12,17.12,0,0,1,12.7674,11.3536v0a17.1243,17.1243,0,0,1-6.5787,19.54c-14.5568,9.97-29.4249,20.6688-38.4171,25.73-11.9185,6.7075-8.7984,16.3671,4.6382,12.5887,20.6085-7.9823,57.184-32.1549,57.184-32.1549"/><path d="M472.2727,393.4642,454.8861,396.34,428.21,400.7517c-3.9293.65-7.8582,1.2425-11.8,1.8138l-26.31,3.813c-3.619.5245-7.0345,1.1128-9.6912,3.9985a11.8526,11.8526,0,0,0,2.0227,17.7065c2.1154,1.461,4.6019,1.84,7.0568,2.3485a17.4738,17.4738,0,0,1,7.7145,3.285,15.4623,15.4623,0,0,1,4.2943,18.509c-1.794,3.7165-4.7761,5.81-8.0832,8.0883q-5.8948,4.0617-11.771,8.1507c-6.7108,4.646-13.4136,9.34-20.3818,13.5967-2.88,1.759-5.9518,3.2638-8.341,5.7044-1.7661,1.8041-3.3419,4.2415-3.2411,6.8674.2453,6.3916,8.1526,6.6353,12.7632,5.6383a41.0326,41.0326,0,0,0,8.2331-3.2408c2.7822-1.2836,5.5257-2.6508,8.2446-4.0631,5.8227-3.0245,11.5376-6.2552,17.1937-9.5795q12.2959-7.2269,24.2517-15.0217.6281-.4093,1.2544-.8216c1.9286-1.2742.1237-4.4-1.8208-3.1149-5.6259,3.717-11.3489,7.2935-17.1037,10.8066a348.4675,348.4675,0,0,1-32.6469,18.1221,48.2437,48.2437,0,0,1-7.4025,3.1537c-2.4127.6685-5.7122,1.2243-7.9723.0119a2.43,2.43,0,0,1-.8717-.6571c-.181-.1962-.0189.0115-.2069-.28a2.5625,2.5625,0,0,1-.1693-.3105c-.1333-.2874.14.3793-.0427-.1441a3.1541,3.1541,0,0,1,.2272-2.1867c1.0726-2.6047,3.8115-4.4731,6.1874-5.8346,6.3393-3.6325,12.3808-7.77,18.4018-11.9005q5.5626-3.8164,11.0966-7.6741,2.967-2.0571,5.9388-4.1074a49.8818,49.8818,0,0,0,5.0994-3.7057,18.9188,18.9188,0,0,0-8.8921-32.5639,26.9869,26.9869,0,0,1-5.9357-1.4576,8.11,8.11,0,0,1-.4189-14.4514,10.944,10.944,0,0,1,3.8366-1.0841l23.9137-3.4657c4.4128-.64,8.8347-1.2306,13.234-1.9582l23.46-3.88,22.4458-3.7123,1.2542-.2074c2.2851-.378,1.3157-3.8549-.959-3.4787Z"/><path d="M827.7877,168.906c-6.2185,1.259-11.4533,6.5077-13.2846,12.4447a24.5787,24.5787,0,0,0-.6658,10.3383,1.8623,1.8623,0,0,0,1.8037,1.8037,1.8141,1.8141,0,0,0,1.8038-1.8037c-.6307-4.9179-.0861-10.12,2.8833-13.9339a15.1332,15.1332,0,0,1,3.4923-3.1979,18.15,18.15,0,0,1,1.8887-1.0793c.2824-.14.5694-.2688.8572-.3969-.5077.2261.2562-.1.4293-.1639a11.8007,11.8007,0,0,1,1.7512-.5325c2.2736-.46,1.3113-3.9383-.9591-3.4786Z"/><path class="cls-1" d="M317.179,167.7528l-20.317,28.3059a14.8,14.8,0,0,0-1.6755,14.2318h0a40.1815,40.1815,0,0,0,13.4073,17.1774l12.678,9.3111,4.6182.6656a9.8925,9.8925,0,0,0,10.587-6.0945l.6442-1.5989h0a9.8926,9.8926,0,0,0,10.8827-6.261l1.2292-3.2533,2.932-.6293a9.8928,9.8928,0,0,0,7.7473-8.5039l.4377-3.68a8.2806,8.2806,0,0,0,10.21-2.842h0a8.3026,8.3026,0,0,0-3.1825-12.1927c-11.0047-5.3809-21.08-9.8873-28.3718-16.7578l6.587-12.6229h0A20.4229,20.4229,0,0,0,317.179,167.7528Z"/><path d="M315.6215,166.8424l-19.8481,27.6527a17.1183,17.1183,0,0,0-3.4373,11.4639c.5346,6.212,4.49,12.2323,8.4925,16.8182a53.2962,53.2962,0,0,0,8.8734,7.7307l8.79,6.4556A7.84,7.84,0,0,0,320.94,238.54a45.0892,45.0892,0,0,0,4.95.7088,11.76,11.76,0,0,0,9.0195-2.7194c2.0077-1.69,2.9959-3.9278,3.951-6.2983l-2.2188,1.26a11.8218,11.8218,0,0,0,10.7151-3.58c1.8626-2.055,2.656-4.6539,3.6156-7.1937l-1.26,1.26c1.2551-.2694,2.55-.4725,3.7774-.8516a11.8035,11.8035,0,0,0,5.9048-4.1285c2.1631-2.8326,2.3554-6.1789,2.7591-9.5725l-2.7142,1.5575a10.0928,10.0928,0,0,0,14.0691-11.7043,10.1358,10.1358,0,0,0-2.7156-4.6643,19.8821,19.8821,0,0,0-5.4444-3.211c-4.3734-2.1217-8.7614-4.2264-13.0082-6.5952a60.8873,60.8873,0,0,1-12.06-8.4507l.2821,2.1859,6.587-12.623a1.859,1.859,0,0,0-.6471-2.4678,22.23,22.23,0,0,0-30.8815,5.3917c-1.3715,1.8765,1.7573,3.6784,3.1149,1.8208a18.8251,18.8251,0,0,1,25.9458-4.0976l-.6471-2.4678-6.587,12.6229a1.8479,1.8479,0,0,0,.282,2.1858c5.7429,5.3614,12.703,9.1444,19.6886,12.6228,1.8913.9418,3.7926,1.8634,5.6936,2.7855,1.6153.7836,3.5331,1.4309,4.8957,2.63a6.5036,6.5036,0,0,1-6.7475,10.9209,1.838,1.838,0,0,0-2.7141,1.5575l-.2615,2.198a16.6007,16.6007,0,0,1-.3316,2.203,8.12,8.12,0,0,1-5.2563,5.77c-1.7059.556-4.3925.3283-5.2073,2.1734a31.6177,31.6177,0,0,1-2.0084,4.7168,8.1124,8.1124,0,0,1-7.8806,3.527,1.8782,1.8782,0,0,0-2.2188,1.26,10.281,10.281,0,0,1-3.0232,4.7064,8.7144,8.7144,0,0,1-6.0565,1.7175c-.6665-.0764-1.3307-.1918-1.9948-.2875a8.2366,8.2366,0,0,0-2.4084-.3471c-.3289.0854.2842.1953.2461.1333-.05-.0817-.2093-.1473-.2827-.2076-.3807-.3128-.8-.5876-1.1971-.8792l-8.2525-6.0609a58.792,58.792,0,0,1-7.5407-6.2022,38.15,38.15,0,0,1-5.4361-7.0743,24.3473,24.3473,0,0,1-3.3676-7.8928c-.7018-3.87.5905-7.4553,2.82-10.5614l10.27-14.3081,9.5782-13.3446C320.0924,166.7741,316.9647,164.971,315.6215,166.8424Z"/><path d="M341.1288,175.1711c-.1918-.1114-.3761-.2369-.5575-.3642q-.1356-.0952-.2684-.1941c-.3588-.267.3392.2767.0137.01-.24-.1965-.4759-.397-.7017-.61a10.0038,10.0038,0,0,1-.6966-.7242c-.0617-.0712-.1209-.1445-.1816-.2165-.2109-.25.1431.2025.0809.1072-.1057-.1617-.226-.3136-.33-.4772-.097-.1534-.1883-.31-.2721-.4715q-.0583-.1119-.112-.2264c-.0178-.0381-.0335-.0776-.0522-.1152-.09-.18.1339.3921.0849.1965-.0443-.1769-.1239-.3475-.1708-.5251q-.0327-.1242-.0586-.25c-.0116-.0562-.02-.113-.0315-.1693-.0481-.2434.031.1929.0295.2217.0115-.2183-.0293-.4424-.018-.6635.0023-.0452.0073-.09.0088-.1357.0083-.2471-.0214.1645-.0326.2049.029-.1047.0372-.2186.0613-.3252.0525-.2314.1955-.4829.2237-.7132,0,.0007-.1711.349-.0768.1884.0455-.0776.0783-.1646.12-.2447.0708-.1349.1478-.2659.2272-.3958a1.804,1.804,0,1,0-3.1149-1.8208,6.5516,6.5516,0,0,0-.2224,6.5569,11.1519,11.1519,0,0,0,3.4,3.7134,8.8348,8.8348,0,0,0,.8259.5583,1.8041,1.8041,0,0,0,1.8208-3.115Z"/><path class="cls-1" d="M360.0024,207.4l-21.92-13.4895a27.3351,27.3351,0,0,1-8.9935-9.0188"/><path d="M360.9128,205.8422q-10.8021-6.6477-21.6043-13.2953a26.4155,26.4155,0,0,1-8.6619-8.5659c-1.2233-1.9676-4.3455-.1584-3.115,1.8208a30.0583,30.0583,0,0,0,9.665,9.6809c1.1963.7454,2.4011,1.4776,3.6016,2.2164l14.3377,8.8235,3.9561,2.4345c1.9827,1.22,3.7967-1.8989,1.8208-3.1149Z"/><path class="cls-1" d="M350.3285,219.256l-21.92-13.4895a27.3358,27.3358,0,0,1-8.9935-9.0187"/><path d="M351.2389,217.6985q-10.8021-6.6475-21.6043-13.2953a26.4162,26.4162,0,0,1-8.6619-8.5658c-1.2233-1.9676-4.3454-.1584-3.115,1.8207a30.0573,30.0573,0,0,0,9.665,9.6809c1.1963.7455,2.4011,1.4777,3.6016,2.2164l14.3377,8.8235,3.9561,2.4346c1.9827,1.22,3.7967-1.899,1.8208-3.115Z"/><path class="cls-1" d="M337.1527,230.06l-20.3786-13.5352a27.3354,27.3354,0,0,1-8.9936-9.0188"/><path d="M338.0631,228.502c-6.7192-4.4627-13.4086-8.9738-20.1589-13.3892a27.4658,27.4658,0,0,1-8.5662-8.5177c-1.2233-1.9676-4.3454-.1584-3.1149,1.8208a30.9712,30.9712,0,0,0,9.6476,9.6705c1.0532.6838,2.0926,1.39,3.1386,2.0846l13.5275,8.9848,3.7055,2.4612c1.9394,1.2881,3.7479-1.835,1.8208-3.115Z"/><path d="M658.7153,417.157l.9755,27.314.4813,13.4758a34.6521,34.6521,0,0,0,5.6661,18.28l8.4748,12.7879c1.2767,1.9266,4.4024.1219,3.1149-1.8208l-7.692-11.6067a36.2035,36.2035,0,0,1-4.33-8.1566,30.6962,30.6962,0,0,1-1.6073-8.9628l-1.0839-30.348-.3915-10.9627c-.0826-2.3148-3.6905-2.3257-3.6075,0Z"/><path d="M169.4485,447.7178a17.6532,17.6532,0,0,0-24.3569,5.4786l0,0a17.6532,17.6532,0,0,0,5.4787,24.3568l67.71,42.8431c14.6846-6.0321,29.455-11.7562,41.0088-15.8326Z"/><path d="M170.3589,446.16a19.4543,19.4543,0,0,0-27.7829,25.111c1.8976,3.9089,5.0687,6.5645,8.6452,8.8274l8.5862,5.433,28.9671,18.3288,25.02,15.8312,2.818,1.783c.21.1327.4159.28.633.4,1.155.6411,2.236-.0364,3.35-.4918,10.7158-4.3809,21.49-8.6285,32.3565-12.6223q3.4006-1.25,6.8165-2.458a1.829,1.829,0,0,0,.4308-3.2968l-8.9282-5.6493-21.4436-13.5683L203.8794,467.37l-22.4411-14.1995c-3.6237-2.2929-7.1854-4.8053-10.9228-6.9114-.0536-.03-.1046-.0662-.1566-.0991-1.9676-1.245-3.78,1.8755-1.8208,3.115l8.9283,5.6493L198.91,468.4929l25.948,16.4185,22.441,14.1994,7.4244,4.6978a37.529,37.529,0,0,0,3.4984,2.2136,1.6833,1.6833,0,0,1,.1567.0991l.4308-3.2968c-13.8159,4.8809-27.4555,10.2686-41.0087,15.8326l1.39.1818-11.18-7.0738-24.3638-15.4162-23.3848-14.7966-7.0053-4.4326a21.8181,21.8181,0,0,1-5.6233-4.56,15.8622,15.8622,0,0,1,16.1714-25.3163,16.5225,16.5225,0,0,1,4.7332,2.0323C170.5175,450.5009,172.3311,447.3814,170.3589,446.16Z"/><path d="M357.3193,566.5922l-60.1956-38.0886c9.5429,21.7937,19.4429,48.4014,19.0432,53.83l22.2741,14.0939a17.6531,17.6531,0,0,0,24.3569-5.4786l0,0A17.6532,17.6532,0,0,0,357.3193,566.5922Z"/><path d="M358.23,565.0347l-20.3418-12.8712-32.4185-20.5127-7.4353-4.7046c-1.6764-1.0607-3.1288.9569-2.4679,2.4678q5.5933,12.7877,10.5588,25.84c2.6291,6.9283,5.2327,13.9254,7.16,21.0878.3326,1.2359.644,2.48.8771,3.7392a6.6432,6.6432,0,0,1,.2009,2.2529,1.8043,1.8043,0,0,0,.8934,1.5575l20.5654,13.0127a35.3587,35.3587,0,0,0,3.5341,2.0923A19.4545,19.4545,0,0,0,358.23,565.0347c-1.9554-1.2642-3.7659,1.8575-1.8208,3.115a15.85,15.85,0,0,1-16.4574,27.0841c-.8675-.5035-1.7054-1.063-2.5527-1.5991l-11.378-7.1994-8.9435-5.6589.8933,1.5574a19.7172,19.7172,0,0,0-.9071-5.8019c-.7717-3.0693-1.7357-6.0909-2.7374-9.0917-2.8017-8.3938-5.9989-16.6589-9.3264-24.8565q-3.0591-7.5367-6.3186-14.99l-2.4678,2.4678,20.3418,12.8712,32.4185,20.5127,7.4353,4.7047C358.3765,569.3946,360.1886,566.2741,358.23,565.0347Z"/><path class="cls-3" d="M288.3562,522.6026l-26.6083-16.8363c-8.1255,2.8669-18.5131,6.8925-28.8405,11.1347-21.1969,8.7071-42.1379,18.3263-42.7337,20.71-1.1823,4.7305,15.794,56.3093,24.5675,59.3124s85.1058-31.9671,86.9129-36a1.4362,1.4362,0,0,0,.0947-.4635C302.03,556.6421,295.0676,537.93,288.3562,522.6026Z"/><path d="M289.2666,521.0451l-21.16-13.3888-4.4934-2.8431c-.2971-.1881-.59-.4035-.9-.57-1.3835-.7409-3.434.4895-4.7845.98-9.8032,3.5636-19.4991,7.4294-29.1282,11.4377-9.1622,3.814-18.2956,7.7339-27.2344,12.05-2.9594,1.429-5.92,2.8872-8.7533,4.5568-1.4508.855-3.5522,1.8984-4.25,3.5409a6.8325,6.8325,0,0,0-.0318,3.5885c.25,1.6531.6334,3.2863,1.04,4.9069,1.2372,4.9356,2.77,9.8,4.3983,14.6194,1.9244,5.6968,4.0209,11.34,6.3463,16.8857a113.3675,113.3675,0,0,0,6.952,14.3606c1.5964,2.6745,3.7868,6.504,6.9941,7.4921,2.3271.7169,5.1388-.0452,7.42-.5851,9.1759-2.1718,18.07-5.836,26.7827-9.3759q16.1232-6.5506,31.8587-14.0214c4.2375-2.0086,8.4551-4.0635,12.6134-6.232a80.1137,80.1137,0,0,0,7.9726-4.5322,7.4369,7.4369,0,0,0,2.1847-1.8964c.9761-1.5091.2779-3.8191-.1091-5.4212-1.82-7.5323-4.8212-14.8578-7.6875-22.0363q-2.5868-6.478-5.3833-12.87a1.8179,1.8179,0,0,0-2.4679-.6471,1.8474,1.8474,0,0,0-.6471,2.4679c3.1293,7.1574,6.0719,14.4032,8.7486,21.7425,1.0681,2.9286,2.0981,5.8744,3.0037,8.8578.346,1.14.6751,2.2861.9549,3.4442.1032.4273.2007.8562.2841,1.2878q.0581.3.107.6016c.0723.4422.0069-.1421.0309.2638a3.2106,3.2106,0,0,0,.0172.7493c-.0025-.0024.2137-.5918.1029-.3583-.1154.2435.2249-.26.1761-.2234a5.7079,5.7079,0,0,0-.4963.469c-.3286.32.3338-.2221-.069.0532-.1555.1063-.3064.22-.4618.3267-.3746.2573-.758.5021-1.1439.7421-2.3239,1.4448-4.7513,2.7274-7.1777,3.9891-7.4789,3.8888-15.1248,7.4633-22.8075,10.9284-8.7494,3.9463-17.5789,7.7262-26.5235,11.21-6.9246,2.6969-13.9794,5.4465-21.2423,7.1-.6031.1373-1.2089.2641-1.8181.3716-.2528.0447-.5064.0835-.76.1236-.4147.0656.305-.0325-.0144.0024-.1387.0152-.2771.0327-.416.0462a11.0212,11.0212,0,0,1-1.2387.0611c-.1792-.0029-.36-.0269-.5382-.0276-.1294-.0006.4262.15-.0447-.0186-.1039-.0371-.57-.2018-.28-.0769.278.12-.2848-.1777-.4125-.2511-.1057-.0607-.2019-.1393-.3012-.21.22.156.1913.1632.0148.0045-.2283-.2053-.4565-.4069-.6729-.6253a16.65,16.65,0,0,1-2.486-3.2174c-4.8486-7.4527-8.1284-16.0395-11.2033-24.3372a184.65,184.65,0,0,1-7.643-24.579c-.14-.6411-.271-1.2845-.3819-1.9313-.0433-.253-.0822-.5065-.12-.76.0688.4627-.0141-.1179-.0351-.3751-.0286-.3481-.0052-.6892-.0148-1.0353.0013.0467-.1031.5382-.0331.274.0794-.3-.1438.2937-.0882.1935.158-.2851-.2765.281-.0677.08.0853-.0822.161-.1735.2506-.2516.106-.0926.2115-.1851.3192-.2758.2206-.1857-.1961.1345.147-.108q.4977-.3518,1.01-.6809c.8953-.5719,1.8193-1.099,2.7495-1.6119,2.6164-1.4425,5.3-2.7632,7.9946-4.053,15.461-7.4016,31.3914-13.92,47.4062-20.0177q5.28-2.01,10.6034-3.904l-1.39-.1818,23.25,14.7115,3.3579,2.1248C289.4134,525.4051,291.2255,522.2846,289.2666,521.0451Z"/><path d="M189.0045,539.4253c5.3432,2.721,10.7348,5.35,16.1428,7.94,10.0331,4.8037,20.15,9.5009,30.5152,13.551a84.6745,84.6745,0,0,0,11.9939,3.9766c2.4585.5564,5.4524,1.17,7.3882-.8774,2.548-2.6954,4.0238-6.6241,5.4672-9.9676,2.2561-5.2262,4.2619-10.5584,6.1874-15.9139,2.898-8.0605,5.842-16.1943,8.21-24.4316.0412-.1431.0894-.2845.1338-.4267.6922-2.2216-2.7892-3.1719-3.4787-.959-2.1065,6.7606-4.3507,13.4818-6.6833,20.1675-1.88,5.3886-3.8256,10.7582-5.9543,16.0543a72.2518,72.2518,0,0,1-5.4175,11.5243c-.1823.2909-.3785.571-.5689.8564-.2118.3178-.1132.1568-.0572.0885-.097.1184-.1917.2384-.2942.3522-.1564.1737-.3246.3278-.4945.4873.1584-.1487.3441-.1961.0984-.088-.3538.1557.17-.0532.1387-.0475-.1256.0232-.69.1568-.3291.1.3368-.0533-.338.0125-.5091.0126-.2634,0-.5256-.02-.788-.04-.1455-.0111-.29-.03-.4351-.0468.4555.0511.04.0059-.1617-.0283a60.4025,60.4025,0,0,1-10.8061-3.2476c-10.044-3.7392-19.8036-8.265-29.4824-12.8525-6.2758-2.9746-12.4722-6.1028-18.71-9.1537-.0956-.0468-.19-.0964-.2849-.1447-2.0646-1.0514-3.8924,2.06-1.8208,3.115Z"/><path d="M216.3269,598.4417l6.973-13.0291L234.4278,564.62l2.5729-4.8075c1.0952-2.0464-2.0179-3.8706-3.115-1.8208l-6.9729,13.0291-11.1279,20.7928-2.5729,4.8076c-1.0952,2.0464,2.0179,3.8706,3.1149,1.8207Z"/><path d="M302.2566,559.2557l-34.1074-13.8029-4.7443-1.92a1.8174,1.8174,0,0,0-2.2188,1.26,1.8456,1.8456,0,0,0,1.26,2.2188l34.1074,13.8029,4.7443,1.92a1.8174,1.8174,0,0,0,2.2188-1.26,1.8455,1.8455,0,0,0-1.26-2.2188Z"/><circle class="cls-2" cx="246.0753" cy="549.0732" r="3.7727"/><path class="cls-2" d="M248.0442,549.0605c-.001.1052-.0091.21-.0118.3146-.0077.2963.0123-.14.0273-.1719a3.7872,3.7872,0,0,0-.115.4942,1.922,1.922,0,0,0-.0993.2838c.0039-.0332.2-.4054.061-.1579-.0975.1741-.1938.3416-.3019.5093-.187.29.2428-.2447.0711-.0932-.06.0527-.1091.1246-.1647.182-.1134.1172-.2531.212-.3634.33.2779-.2968.25-.1809.1271-.1074-.0847.0508-.1655.1072-.2516.156-.0573.0326-.1178.06-.1748.0932-.2906.1676.4251-.13.0183-.0062-.1618.0493-.32.1024-.4856.1376-.1916.0405-.2766-.0383.125-.0066a2.25,2.25,0,0,0-.26.02c-.1761.0079-.3487-.0043-.5243-.0125-.2489-.0115.4794.0926.1228.0144-.1-.0218-.1982-.0421-.2966-.0691s-.1911-.0616-.2872-.0919c-.1666-.0526-.0969-.1309.1542.0681-.1212-.0961-.3008-.1509-.435-.2353-.0689-.0433-.1336-.0978-.2039-.1381-.2-.1148.3439.3086.0957.0682-.1425-.1379-.2787-.2733-.4123-.42-.1923-.2117.0947.1055.1014.1319a1.3338,1.3338,0,0,0-.1624-.2472q-.051-.0846-.0975-.1721c-.0884-.1658-.0817-.3651.0137.0707-.0351-.1605-.1153-.3165-.1563-.4774-.0168-.0659-.03-.1323-.0448-.1985-.079-.3448.0352.4655.003.0195a3.848,3.848,0,0,1-.0052-.473c.0087-.1667.11-.4263-.02.0677.017-.0646.0238-.1349.0382-.2006.0362-.1653.0907-.3228.1406-.4839.1083-.35-.2038.3823-.0255.0645.0484-.0864.0906-.1758.1412-.2612.042-.0708.09-.1376.1329-.2076.11-.1789.2039-.1089-.0751.09a4.2571,4.2571,0,0,0,.3367-.357c.06-.0555.1276-.1042.1852-.1612.1639-.1625-.3865.2534-.0891.0762a2.8362,2.8362,0,0,0,.5159-.2923c-.02.02-.4307.1561-.155.0662.0958-.0312.19-.0664.2865-.0939.0986-.0279.5875-.1028.2591-.0718-.3394.0321.0141.0033.07,0,.0877-.0051.1754-.0068.2632-.0059s.1745.0088.2619.0113c.3634.0106-.398-.0881-.0711-.01.1981.0476.39.1.5837.1611.3343.1046-.3031-.1736-.1093-.0468.0949.062.2077.1042.3059.1625q.0848.05.167.105c.4.2662-.1921-.1964.0255.0164.1172.1146.2391.2225.3481.3457l.0641.0745q.1764.2171-.1013-.1319a1.7028,1.7028,0,0,0,.1623.2471c.0512.0851.0941.1741.143.26.161.2831-.1322-.399-.023-.0655.0636.1941.115.3845.165.5826.04.159-.0472.2058-.0172-.1748-.01.1327.022.2833.0243.4179a1.8038,1.8038,0,0,0,3.6075,0,5.6761,5.6761,0,0,0-3.7562-5.2538,5.5579,5.5579,0,0,0-6.0341,1.6251,5.5722,5.5722,0,1,0,9.79,3.6287,1.8038,1.8038,0,1,0-3.6075,0Z"/><path d="M457.2973,890.94c0-11.4667-2.4736-22.5026-8.5036-32.3643a58.4776,58.4776,0,0,0-26.506-23.0774,61.965,61.965,0,0,0-19.1027-4.683l1.7393,2.2832c1.4441-6.659,2.93-13.31,4.3326-19.9782a44.401,44.401,0,0,0-11.7187-40.3243c-4.2424-4.2756-9.3457-7.1715-14.4989-10.1666l.8289,1.0779a44.0166,44.0166,0,0,0-56.0648-28.83q-5.2407,1.6957-10.4752,3.41l2.2189,1.26L312.1579,709.17a46.9193,46.9193,0,0,0-9.2658-19.1542A44.0706,44.0706,0,0,0,278.7849,675.22c-5.9322-1.3327-11.7709-1.0537-17.7517-.59l-19.4992,1.5128-7.8236.607c-1.2728.0988-2.6618-.0359-3.4772,1.1113a30.8748,30.8748,0,0,0-1.7814,3.3222l-3.5913,6.6973-16.8349,31.3946,2.037-.8289-14.6888-2.5181c-5.4422-.9329-10.9648-2.1695-16.4986-2.319A49.6979,49.6979,0,0,0,133.04,741.8328c-2.5488,5.4442-4.3237,11.3084-6.3646,16.9547l1.7393-1.3242c-5.1482.66-10.3794,1.1247-15.4678,2.1684a65.2752,65.2752,0,0,0-23.6975,10.0607,66.3659,66.3659,0,0,0-27.4626,41.3884c-1.5548,7.7993-1.284,15.4747-.7118,23.3422l.8933-1.5574a117.1794,117.1794,0,0,0-12.15,8.23,64.4283,64.4283,0,0,0-14.7926,17.291A65.2318,65.2318,0,0,0,27.2334,879.23c-.6244,3.2924-1.2205,6.5905-1.8307,9.8855l-2.142,11.5671c-.42,2.2694,3.0558,3.2423,3.4786.959q1.9275-10.4082,3.8549-20.8165a62.3657,62.3657,0,0,1,19.2978-35.049c4.24-3.8434,9.0686-6.7773,13.897-9.7951a1.7963,1.7963,0,0,0,.8934-1.5575c-.4675-6.4274-.9006-12.79.0339-19.2082a62.35,62.35,0,0,1,46.27-51.4346c5.6971-1.4509,11.609-1.9634,17.428-2.7094a1.9192,1.9192,0,0,0,1.7394-1.3242c1.5038-4.1608,2.984-8.3308,4.5118-12.4828a45.7119,45.7119,0,0,1,42.3769-30.0609c5.4577-.0636,10.7978,1.0772,16.1506,1.9949l15.91,2.7274a1.866,1.866,0,0,0,2.037-.8289l19.4616-36.2933,2.7846-5.1928-1.5575.8934,19.1148-1.4831c6.8586-.5321,14.0137-1.6375,20.9055-1.1887a40.6158,40.6158,0,0,1,31.2948,18.6229c4.2675,6.74,5.7138,14.41,7.567,22.0285l5.357,22.0234a1.8205,1.8205,0,0,0,2.2189,1.26c8.0268-2.6134,15.9342-5.7661,24.5209-5.5651a40.3531,40.3531,0,0,1,36.2166,24.6825c.5364,1.2762.7946,3.0656,1.5466,4.2137a4.88,4.88,0,0,0,1.7871,1.31c4.5131,2.6231,8.9137,5.1958,12.6289,8.94a40.6476,40.6476,0,0,1,10.7909,36.8144c-1.4021,6.668-2.8885,13.3192-4.3327,19.9782a1.8359,1.8359,0,0,0,1.7394,2.2832c22.6855,2.0861,42.29,17.5669,48.488,39.7126A61.61,61.61,0,0,1,453.69,890.94a1.8048,1.8048,0,0,0,3.6075,0Z"/><path class="cls-2" d="M222.6,745.9624c-4.2485,1.5531-84.3912-29.4806-88.451-38.06s21.66-57.8526,25.9737-60.3621S246.847,680.9566,248.5736,685.6,226.8483,744.4093,222.6,745.9624Z"/><path d="M222.12,744.2231c-.4035.1368.5243.0723.1058-.009a3.7648,3.7648,0,0,0-.5718-.03c-.3977-.0092.4925.088.0873.013-.1225-.0227-.2462-.04-.3689-.0613-.3154-.0558-.6289-.1222-.9415-.1919-1.72-.3836-3.4137-.8878-5.097-1.4048-5.3021-1.6284-10.5305-3.5027-15.7324-5.4236-13.3916-4.9454-26.6532-10.3108-39.642-16.237-5.4748-2.4979-10.93-5.084-16.1809-8.0288a60.44,60.44,0,0,1-5.433-3.3561c-.166-.1178-.3294-.2391-.4947-.358-.0947-.0681-.1869-.14-.28-.21.3652.2758.1774.1388.098.0756-.2948-.2346-.5871-.472-.8665-.7249-.2178-.197-.4222-.4042-.6281-.6132-.09-.0917-.1671-.1958-.255-.29-.0168-.018.198.3738-.0065-.02a2.7083,2.7083,0,0,0-.1562-.2606c-.244-.3607.0574.2348-.002.0044-.0389-.1514-.0871-.3045-.1311-.4549-.0284-.097-.0385-.1993-.06-.2977-.0792-.3574.0359.4041.005.0542a13.8116,13.8116,0,0,1,.0616-2.7271c.0073-.0662.0775-.567.0145-.1273.015-.1044.03-.209.0471-.3131.0441-.27.0892-.5408.1393-.81.1193-.6414.2589-1.2789.4113-1.9132.3311-1.3783.7246-2.7413,1.1506-4.093a158.809,158.809,0,0,1,7.9284-19.5668c3.0015-6.3994,6.2206-12.7112,9.75-18.8369,1.2615-2.19,2.5579-4.3676,3.9877-6.4525q.3741-.5456.7651-1.0789c.1108-.1512.4319-.5572.1354-.1848.1265-.1589.2523-.3182.384-.4729.18-.211.3768-.4032.5608-.6093.44-.4931-.2677.103.1538-.1284.1607-.0883-.5715.2108-.2489.117.3447-.1-.4485-.0013-.2411.0274a4.9011,4.9011,0,0,0,.5789.0024c.1078.001.2147.0241.3221.03.1547.0092-.513-.0963-.0458-.0044.3078.0606.6175.1094.9246.1749,1.6714.3565,3.3129.8616,4.94,1.3813,5.1085,1.6321,10.1267,3.5546,15.117,5.5138,12.9665,5.0909,25.7706,10.62,38.4249,16.4414,5.4732,2.518,10.9249,5.0919,16.287,7.84a67.4875,67.4875,0,0,1,9.4823,5.4539c-.5578-.4127.0394.0487.1841.1726.2378.2036.4186.65.1044.0494.2384.4558-.1342-.4705-.014-.0758.099.3253.0173-.5219-.0194-.1608-.013.1283.007.2687.0039.3992s-.0218.2611-.0274.3919c-.0226.53.0358-.1742-.0039.06-.0667.3928-.1371.7837-.2221,1.1731-.2091.9582-.47,1.9053-.746,2.8461-1.6983,5.7857-3.9342,11.4267-6.1969,17.01q-4.04,9.9687-8.6138,19.7129a127.6354,127.6354,0,0,1-7.6246,14.6043c-.2167.3388-.4382.6747-.67,1.0034-.1011.1434-.2054.2843-.3087.4261s.2552-.2769-.0639.0765c-.1744.1932-.3714.3822-.5372.5811-.21.2521-.1568.0477.0992-.0644-.1656.0725-.4967.223.1784-.0439a1.8612,1.8612,0,0,0-1.26,2.2188,1.8151,1.8151,0,0,0,2.2188,1.26c1.4713-.5817,2.3764-1.99,3.216-3.2633a70.3916,70.3916,0,0,0,3.5154-6.1521c3.1829-6.0807,6.04-12.3365,8.7874-18.6239,2.9019-6.6409,5.683-13.3449,8.1722-20.1526.9486-2.5945,1.8638-5.2068,2.6324-7.861a20.4456,20.4456,0,0,0,1.0641-5.2742c.0337-2.7862-3.0816-4.2215-5.1563-5.435-4.3089-2.52-8.8145-4.7164-13.3071-6.8853-12.9242-6.24-26.0911-12.0009-39.3593-17.4673-5.9327-2.4442-11.8947-4.8267-17.925-7.0207a77.6917,77.6917,0,0,0-11.8533-3.7031,5.511,5.511,0,0,0-3.6289.1057c-1.3.711-2.2373,2.2554-3.055,3.4241a136.0616,136.0616,0,0,0-8.89,15.3465c-3.6064,6.9352-6.9533,14.0163-9.9059,21.2553-2.3,5.6392-4.675,11.5781-5.3633,17.6765a8.7183,8.7183,0,0,0,.6768,5.3446,11.671,11.671,0,0,0,3.2364,3.1641,83.5481,83.5481,0,0,0,12.811,7.3507c12.9979,6.478,26.48,12.04,40.0059,17.3078,6.2548,2.4359,12.5436,4.7923,18.8922,6.9732a102.2247,102.2247,0,0,0,12.19,3.6894,6.5607,6.5607,0,0,0,3.2444.2006C225.2661,746.96,224.3276,743.4748,222.12,744.2231Z"/><path d="M158.01,648.0128c2.1509,6.9353,4.4346,13.8319,6.7827,20.7025,3.9609,11.59,8.0066,23.2677,13.2095,34.3709,1.5053,3.2125,3.133,7.1228,5.8185,9.5644,2.3554,2.1414,5.5572,1.0387,8.2681.2069a150.4422,150.4422,0,0,0,14.7923-5.7021c5.9946-2.5582,11.9263-5.2634,17.8306-8.0226,8.1494-3.8084,16.4-7.5531,24.3528-11.7652.138-.0731.28-.14.4194-.21,2.0753-1.0412.2507-4.1542-1.8208-3.1149q-9.9238,4.979-19.97,9.7139c-10.82,5.13-21.7139,10.344-32.9872,14.4156a56.4962,56.4962,0,0,1-5.6116,1.7774c-.3462.0855-.6939.1657-1.044.2336-.1557.03-.3128.054-.4685.0842-.5541.1074.31-.0062-.1321.0176-.2357.0126-.4784.0132-.713.0324-.6086.05.4033.0705-.1486-.0267.341.06.1646.18-.1314-.11-.242-.2377.3585.3442.037.0277-.1-.0985-.2091-.1884-.3094-.2872-.207-.204-.3924-.4261-.5822-.6457-.2142-.2478-.1746-.2248-.0891-.1083-.1289-.1757-.2576-.351-.382-.53a40.39,40.39,0,0,1-2.8158-4.9014c-5.2333-10.3729-9.0409-21.5381-12.8538-32.5227-2.739-7.89-5.2342-15.8546-7.8558-23.7826-.0413-.1248-.0784-.2511-.1174-.3766-.6855-2.21-4.169-1.2672-3.4786.959Z"/><path d="M134.2024,710.096,148.8,705.8927l23.1419-6.6635,5.3565-1.5423c2.2268-.6412,1.28-4.1233-.959-3.4787l-14.5976,4.2033L138.6,705.075l-5.3565,1.5423c-2.2268.6412-1.28,4.1233.959,3.4787Z"/><path d="M224.3745,745.6241l-5.4593-13.3873L210.1975,710.86l-2.0228-4.96a1.8643,1.8643,0,0,0-2.2188-1.26,1.8143,1.8143,0,0,0-1.26,2.2188l5.4593,13.3873,8.7177,21.3774,2.0228,4.96a1.8642,1.8642,0,0,0,2.2188,1.26,1.8143,1.8143,0,0,0,1.26-2.2188Z"/><circle cx="191.6187" cy="696.731" r="3.8617"/><path d="M193.0458,698.2141a4.66,4.66,0,0,1-.3623.3138l.3651-.282a4.1385,4.1385,0,0,1-.8709.5l.4309-.1819a4.15,4.15,0,0,1-.9473.2542l.48-.0644a4.1549,4.1549,0,0,1-1.0482-.0007l.48.0645a4.1551,4.1551,0,0,1-.9461-.2548l.4309.1819a4.14,4.14,0,0,1-.8685-.499l.3651.282a4.1957,4.1957,0,0,1-.7317-.7319l.282.365a4.13,4.13,0,0,1-.5-.8708l.1818.4309a4.1509,4.1509,0,0,1-.2542-.9473l.0645.48a4.151,4.151,0,0,1,.0006-1.0483l-.0645.48a4.1608,4.1608,0,0,1,.2548-.946l-.1818.4308a4.1278,4.1278,0,0,1,.499-.8684l-.2821.3651a4.1991,4.1991,0,0,1,.7319-.7317l-.365.282a4.1352,4.1352,0,0,1,.8708-.5l-.4309.1819a4.1509,4.1509,0,0,1,.9473-.2542l-.48.0644a4.16,4.16,0,0,1,1.0483.0006l-.48-.0644a4.1527,4.1527,0,0,1,.9461.2548l-.4309-.1819a4.1366,4.1366,0,0,1,.8684.499l-.3651-.282a4.1922,4.1922,0,0,1,.7317.7319l-.282-.365a4.1309,4.1309,0,0,1,.5.8708l-.1818-.4309a4.1558,4.1558,0,0,1,.2541.9473l-.0644-.48a4.16,4.16,0,0,1-.0006,1.0483l.0644-.48a4.1548,4.1548,0,0,1-.2547.9461l.1818-.4308a4.1322,4.1322,0,0,1-.499.8684l.282-.3651a4.5112,4.5112,0,0,1-.37.4179,1.8037,1.8037,0,0,0,2.5508,2.5509,5.5666,5.5666,0,0,0,1.5641-2.88,5.6255,5.6255,0,0,0,.0883-1.6764,6.4889,6.4889,0,0,0-.5458-1.963,5.6271,5.6271,0,0,0-5.4572-3.1625,5.9993,5.9993,0,0,0-3.3669,1.3986,5.5179,5.5179,0,0,0-1.7384,2.8,5.6086,5.6086,0,0,0,.1113,3.2557,5.9832,5.9832,0,0,0,2.2422,2.9154,5.454,5.454,0,0,0,3.46.9285,5.8763,5.8763,0,0,0,3.6425-1.6168,1.8037,1.8037,0,0,0-2.5508-2.5509Z"/><path class="cls-2" d="M340.1039,829.937c-2.1017,4.0055-82.3,34.8966-91.0725,31.2729S226.1822,803.8168,227.69,799.059s86.6727-33.5508,91.0724-31.273S342.2055,825.9314,340.1039,829.937Z"/><path d="M338.5464,829.0266c-.17.3062.3255-.49.0426-.0728a.9533.9533,0,0,1-.1971.1725c-.2131.1667.4552-.2929.0683-.0564-.4748.29-.93.6065-1.4152.8827-1.5311.8718-3.1243,1.6372-4.7182,2.3859-5.0445,2.37-9.942,4.395-15.08,6.4647-13.3135,5.3628-26.8148,10.3249-40.4889,14.6911-5.7326,1.8305-11.51,3.5823-17.3771,4.9316-1.1255.2588-2.2551.5008-3.39.7124q-.7191.1341-1.4416.25c-.2251.0357-.45.0692-.676.1023-.0967.0141-.5533.07-.0391.0061-.1252.0157-.25.0328-.3757.0463a21.8338,21.8338,0,0,1-2.2967.1578c-.2937,0-.5844-.0245-.8773-.0318-.5081-.0128.2078.0527.024.0106a3.0553,3.0553,0,0,0-.4006-.0806,1.8986,1.8986,0,0,1-.2908-.088c.0783.02.3487.2267.0082-.01-.1273-.0885-.27-.167-.4029-.2486-.1032-.0634-.3657-.3013.0381.0371-.0826-.0692-.17-.1349-.2477-.21-.2889-.2794-.5748-.5532-.84-.856-.1471-.1678-.2884-.34-.4278-.5146.2636.33-.2336-.3191-.3243-.4473a42.6486,42.6486,0,0,1-3.76-6.8339,158.9414,158.9414,0,0,1-7.2549-19.8268c-2.0791-6.7557-3.9382-13.5927-5.4426-20.5-.5378-2.4692-1.0419-4.953-1.3846-7.4579.0663.4851-.0241-.202-.0393-.3327-.0242-.2068-.047-.4137-.0669-.6208-.0376-.3911-.07-.7833-.0822-1.176-.0089-.275.0184-.5544.0057-.828-.0209-.4527-.069.2159-.0227.1.0334-.0839.037-.1857.0665-.273-.1957.58-.189.4406-.0906.26.0226-.0412-.4059.3425-.13.1775a3.3883,3.3883,0,0,0,.43-.3874c-.5329.4844.0718-.0379.2554-.159.2618-.1727.531-.3343.8021-.492,1.4771-.8595,3.032-1.5889,4.5857-2.2974,2.3289-1.0621,4.1043-1.8027,6.3983-2.7351q4.12-1.6745,8.2818-3.2421c13.0994-4.9687,26.3716-9.5094,39.73-13.7288,5.7449-1.8146,11.5115-3.5733,17.3288-5.1427,2.1243-.5731,4.2565-1.1235,6.4056-1.5964.8084-.1779,1.6194-.3455,2.4351-.4865.318-.0549.6368-.1036.956-.1506-.6734.0992.2658-.0274.4826-.0434.2136-.0158.4264-.0176.64-.0267.0862-.0036.1777.0182.2628.009.4053-.044-.4651-.1083-.1776-.0263.4657.1328-.49-.2455-.068-.0317.0237.012-.32-.3809-.1175-.0764a2.2058,2.2058,0,0,0,.2712.293c.3.2978-.2387-.3585.0116.0121.0855.1265.1763.2494.2612.3764.2212.3309.4256.673.6241,1.0178.4893.85.9328,1.7266,1.3607,2.6088a177.7778,177.7778,0,0,1,6.7511,16.5679q3.7391,10.1986,6.94,20.5874a127.6463,127.6463,0,0,1,4.1711,15.938c.0351.2067.0664.4138.0994.6207.0832.5216-.024-.2842.0278.2018.0345.3242.0713.6479.0853.9738.0112.2626-.0215.531-.0072.7913.0183.333.1222-.5287.0139-.14-.1118.4019.1409-.2674.0876-.159-1.0212,2.0758,2.0891,3.9061,3.1149,1.8208.6971-1.417.36-3.1406.1286-4.63a70.4261,70.4261,0,0,0-1.5324-6.9179c-1.7305-6.6416-3.82-13.1938-6.012-19.6957-2.2888-6.7893-4.7142-13.5419-7.4228-20.1761-1.0753-2.6338-2.1825-5.2616-3.4338-7.8176a19.1389,19.1389,0,0,0-2.7647-4.587c-1.8653-2.0352-5.19-.96-7.5176-.4693-4.8843,1.03-9.6965,2.4326-14.4806,3.8465-13.6927,4.0464-27.2472,8.6012-40.6746,13.452-6.0169,2.1737-12.0143,4.4124-17.9347,6.8385a79.8135,79.8135,0,0,0-11.5192,5.3349,5.2164,5.2164,0,0,0-2.5379,2.5266,10.5193,10.5193,0,0,0,.037,4.29,140.0771,140.0771,0,0,0,3.78,17.6814c1.9731,7.49,4.22,14.9232,6.8861,22.1971,2.0669,5.6394,4.2435,11.7074,7.8161,16.6032,1.0988,1.5058,2.4329,3.1364,4.29,3.7023a10.9555,10.9555,0,0,0,4.2059.1761,86.86,86.86,0,0,0,14.7883-3.2213c13.9106-3.9214,27.5633-8.84,41.0517-14.0121,6.3337-2.4285,12.6356-4.9454,18.8672-7.6259a102.2278,102.2278,0,0,0,11.5054-5.462,6.3584,6.3584,0,0,0,2.4741-2.0347C342.7893,828.8158,339.6747,826.9943,338.5464,829.0266Z"/><path d="M226.4986,800.8623c6.2541,3.6892,12.5806,7.26,18.9373,10.7693,10.7267,5.921,21.57,11.8321,32.89,16.5546,3.2885,1.3719,7.1141,3.1673,10.7622,3.1542,3.1438-.0112,4.7858-3.0685,6.2071-5.4614a147.388,147.388,0,0,0,7.0247-13.9626c2.746-5.993,5.3437-12.0534,7.8894-18.1337q3.3726-8.0551,6.6062-16.1676c1.1826-2.96,2.4488-5.9086,3.5168-8.9124.0523-.1471.1132-.2915.1694-.4372.8372-2.167-2.6494-3.1054-3.4786-.959-2.6674,6.9046-5.4359,13.7717-8.2564,20.615-4.5629,11.0713-9.1393,22.2474-14.7493,32.8394a56.4586,56.4586,0,0,1-2.96,5.0879c-.1991.2963-.4063.586-.616.8747-.3028.4171.182-.2044-.0711.09-.1123.1308-.2188.2659-.3349.3936-.1607.1768-.3423.3309-.5061.5033-.2551.2686.3092-.1692.1074-.0807-.0777.0341-.45.24-.08.0732.3207-.1452-.7023.0282.0379.0043-.2563.0082-.5072.0293-.7647.0187-.1391-.0057-.2773-.0234-.4162-.0311-.5075-.0283.1491.0316-.0737-.0069-.3779-.0653-.7537-.1349-1.1277-.2209a40.3923,40.3923,0,0,1-5.3794-1.7364c-10.6432-4.0843-21.2-9.9043-31.3708-15.4552-7.3312-4.0009-14.5092-8.2642-21.8022-12.3285-.1148-.0639-.2269-.1332-.34-.2-2.0041-1.1822-3.8212,1.9349-1.8208,3.1149Z"/><path d="M250.5792,862.7432l7.9829-12.924L271.2176,829.33l2.9293-4.7423c1.2234-1.9807-1.8959-3.7945-3.115-1.8208l-7.9829,12.924L250.3935,856.18l-2.9292,4.7423c-1.2235,1.9807,1.8958,3.7945,3.1149,1.8208Z"/><path d="M341.1353,828.46l-13.04-6.2425L307.2712,812.25l-4.8316-2.3129c-2.084-.9976-3.9162,2.1119-1.8208,3.1149l13.04,6.2425,20.8236,9.9683,4.8317,2.3129c2.0839.9976,3.9161-2.1118,1.8207-3.1149Z"/><circle cx="284.0739" cy="814.3099" r="3.8617"/><path d="M286.1253,814.5359c-.013.1789-.1241.4046.016-.0538-.02.0645-.0259.14-.041.2069a4.6258,4.6258,0,0,1-.1488.4976c-.1231.3531.2052-.3766.0178-.0555-.0341.0584-.0626.1206-.0961.1794-.05.0883-.1084.1711-.1609.2578-.1687.2789.2743-.3012.0382-.0438-.114.1243-.2236.2481-.3485.3621a1.0814,1.0814,0,0,0-.1519.1316l.2065-.1584q-.081.06-.1649.1153c-.1412.0934-.29.1684-.4379.25-.2512.1391.1175-.0569.1523-.0593a1.9754,1.9754,0,0,0-.3385.1148c-.0825.0239-.1655.0453-.2494.0635-.0556.0122-.4005.0662-.0677.02s-.0174-.0047-.0741-.0018c-.0889.0046-.1778.0057-.2667.0042s-.18-.01-.27-.0136c-.3751-.0154.3514.0724.11.0142-.1871-.045-.3729-.0828-.5554-.1453l-.0971-.0349q-.266-.1047.1472.0624a.9865.9865,0,0,0-.1822-.0915,2.8913,2.8913,0,0,0-.43-.268c.2812.0819.2577.2245.0886.0631-.0606-.0578-.125-.1116-.1848-.1706s-.1136-.1232-.1727-.1824c-.2982-.3.181.2934.0015.01-.09-.1425-.1831-.28-.2613-.4308a1.1639,1.1639,0,0,0-.0887-.1819l.1025.2439q-.0374-.095-.07-.1917c-.0546-.1637-.0895-.33-.1295-.4976-.0425-.1781.0673-.1466.0187.17a2.5342,2.5342,0,0,0-.021-.37,4.1211,4.1211,0,0,0,.0247-.4836c.0538.387-.0451.2875.0064.0617.0155-.0679.0327-.1356.0518-.2026.0284-.1.0645-.1965.0971-.295.0927-.281-.04.1283-.0624.1472a2.76,2.76,0,0,0,.3015-.529c.1815-.3007-.2359.2452-.07.0827.0591-.0579.109-.1286.1659-.1892a3.9117,3.9117,0,0,0,.3665-.3434c-.19.2743-.2658.1826-.0832.0714.0717-.0436.14-.0924.2126-.1351q.0868-.0512.1766-.0979t.1819-.0887q-.4144.169-.1486.0665c.1641-.05.3243-.1058.4926-.1424.0667-.0145.1383-.0212.2038-.0386-.4546.1207-.2771.0341-.1147.0235a3.8845,3.8845,0,0,1,.5351.0022c.2456.0178.1578.1219-.1077-.02a1.5443,1.5443,0,0,0,.3087.0656q.1511.0385.2986.0894.0734.0247.1451.0536.1941.0762-.1952-.0811a3.1848,3.1848,0,0,0,.529.3015c.2425.1452-.0989-.0724-.1216-.1022a3.1569,3.1569,0,0,0,.3006.2676c.0476.0471.0942.0955.1393.1449.2139.2344.0356.1117-.0268-.0545a5.56,5.56,0,0,0,.32.5124c.1051.2019.0315.31-.0138-.0619a1.9292,1.9292,0,0,0,.1007.2892c.0249.082.0467.1648.0661.2483q.0182.0754.0323.1518.0486.2892-.0187-.17a5.6918,5.6918,0,0,0,.0149.6388,1.8166,1.8166,0,0,0,1.8037,1.8037,1.8425,1.8425,0,0,0,1.8038-1.8037,5.67,5.67,0,0,0-9.7865-4.1046,5.76,5.76,0,0,0-.8572,6.57,5.6764,5.6764,0,0,0,5.7413,2.9083,5.6059,5.6059,0,0,0,3.3371-1.6835,5.8924,5.8924,0,0,0,1.5653-3.69,1.813,1.813,0,0,0-1.8038-1.8038A1.8477,1.8477,0,0,0,286.1253,814.5359Z"/><path class="cls-2" d="M190.9444,770.09s0-39.6824,40.8849-35.4736c1.2025-12.6262,25.8537-19.8412,32.4674-7.215"/><path d="M192.7482,770.09a32.1282,32.1282,0,0,1,.2872-3.78c.0075-.062.0753-.5786.0313-.2518s.03-.2116.04-.2743c.0514-.3444.1041-.6884.1618-1.0318q.1855-1.1055.4224-2.2015a46.1421,46.1421,0,0,1,1.3439-4.91,35.3346,35.3346,0,0,1,5.3816-10.299,28.115,28.115,0,0,1,10.6754-8.3881c6.4579-2.91,13.79-3.2286,20.7378-2.5332,1.0414.1043,1.7091-.9162,1.8037-1.8037.4862-4.5609,4.73-7.9878,8.7215-9.8756,4.4336-2.0966,9.9226-2.9244,14.6349-1.3072a10.1982,10.1982,0,0,1,5.75,4.8782c1.0993,2.0458,4.2149.2261,3.115-1.8208-6.1812-11.5026-23.9134-8.3757-31.6693-.4166a14.3353,14.3353,0,0,0-4.1594,8.542l1.8038-1.8038c-11.9467-1.1958-24.58,1.2728-32.8294,10.6165-5.2139,5.9055-8.2089,13.5435-9.3549,21.2786a37.2289,37.2289,0,0,0-.5043,5.3823,1.8048,1.8048,0,0,0,3.6075,0Z"/><path class="cls-2" d="M348.4714,868.6942C328.63,862.08,311.194,879.5166,311.194,879.5166s-8.4174-24.6511-30.6636-19.8411a96.4374,96.4374,0,0,0-11.5619-12.4022,44.2366,44.2366,0,0,0-68.4041,12.4021v0s-17.4362-10.8225-27.0562,2.4049"/><path d="M348.9509,866.9549c-12.9105-4.2087-26.3906.88-36.5252,9.0863a32.43,32.43,0,0,0-2.5071,2.2l3.0147.7959c-3.0852-8.9925-10.2388-17.678-19.4386-20.6557a26.1257,26.1257,0,0,0-13.4438-.4453l1.7549.4639c-4.91-6.1923-10.43-12.266-17.0773-16.6344A45.0246,45.0246,0,0,0,247.59,835.02a46.053,46.053,0,0,0-48.5833,23.7448l2.4679-.6471c-6.12-3.7815-14.7617-5.958-21.6441-3.2271a18.0773,18.0773,0,0,0-7.88,6.2792,1.8176,1.8176,0,0,0,.6471,2.4678,1.844,1.844,0,0,0,2.4678-.6471c3.731-5.029,9.6733-6.474,15.6008-5.2337a27.2777,27.2777,0,0,1,8.9875,3.4758,1.8221,1.8221,0,0,0,2.4679-.6471A42.4829,42.4829,0,0,1,261.25,843.8429c7.1307,4.2444,12.8974,10.6656,18.0054,17.108a1.7964,1.7964,0,0,0,1.755.4639,21.6283,21.6283,0,0,1,18.649,4.4423,34.0941,34.0941,0,0,1,8.6978,11.5668c.1965.4077.3829.82.568,1.2328.0629.14.29.6913.0565.1248.0537.13.1093.26.1608.3918.1069.2732.2175.5452.3127.8228a1.825,1.825,0,0,0,3.0148.796,38.5931,38.5931,0,0,1,6.5912-5.1431,39.2347,39.2347,0,0,1,16.818-6.4651,28.8067,28.8067,0,0,1,12.1132,1.25c2.2124.7212,3.16-2.761.959-3.4786Z"/><path class="cls-2" d="M124.8072,818.1893s-33.67,3.0063-26.455,34.2712c-16.2336,8.4174-12.6262,15.0312-12.6262,15.0312"/><path d="M124.8072,816.3856a40.2279,40.2279,0,0,0-11.857,3.1174c-7.1671,3.0239-13.3171,8.2388-15.9734,15.7256-2.0176,5.6869-1.6792,11.9113-.3639,17.7114l.829-2.037c-5.0337,2.6341-11.01,6.1876-13.23,11.75a7.045,7.045,0,0,0-.0436,5.749c1.097,2.047,4.2124.2271,3.1149-1.8208-.1072-.2.133.5746.0549.1194a2.885,2.885,0,0,0-.1043-.3782c-.1455-.4425-.017.0063-.0188-.0371-.0081-.2-.0285-.3965-.0264-.5974.0016-.1591.0963-.8969.0039-.3416a7.7662,7.7662,0,0,1,.1789-.82c.0454-.1621.316-.9011.2008-.6316,2.0027-4.6839,7.4136-7.6386,11.69-9.8764a1.8378,1.8378,0,0,0,.829-2.037,29.1793,29.1793,0,0,1-.0654-14.4507,20.38,20.38,0,0,1,5.5912-9.17,28.5659,28.5659,0,0,1,8.203-5.3324c.5969-.2669,1.02-.4412,1.8316-.7442q.9949-.3718,2.0081-.6921,1.7874-.5661,3.6189-.9777c.94-.2115,1.8869-.3876,2.839-.5361.3636-.0567.4869-.06.058-.0114.115-.013.23-.0292.3448-.043.0953-.0115.1908-.0221.2864-.0307,2.2934-.2074,2.3152-3.8169,0-3.6075Z"/><line class="cls-2" x1="182.527" y1="513.3566" x2="121.1997" y2="625.79"/><path d="M180.97,512.4463l-6.09,11.1646L160.2513,550.43l-17.7631,32.5658-15.303,28.0555c-2.476,4.5393-5.0879,9.03-7.4382,13.6366-.0331.0649-.07.1282-.1048.1922-1.1121,2.0389,2.0017,3.8617,3.115,1.8208l6.09-11.1647,14.6283-26.8186,17.7631-32.5657,15.3031-28.0556c2.4759-4.5392,5.0878-9.03,7.4381-13.6366.0331-.0649.07-.1282.1048-.1922,1.1122-2.0389-2.0017-3.8617-3.1149-1.8207Z"/><line class="cls-2" x1="184.932" y1="565.064" x2="151.8633" y2="625.79"/><path d="M183.3745,564.1536,172.1914,584.69l-17.8128,32.7108-4.0728,7.479c-1.1106,2.04,2.0032,3.8625,3.115,1.8208l11.1831-20.5362,17.8128-32.7108,4.0727-7.4791c1.1107-2.0395-2.0031-3.8625-3.1149-1.8207Z"/><line class="cls-2" x1="295.5616" y1="601.1388" x2="266.7017" y2="654.0487"/><path d="M294.0041,600.2285l-9.7244,17.828-15.571,28.5469-3.5645,6.5349c-1.1121,2.0389,2.0017,3.8617,3.115,1.8207l9.7244-17.8281,15.571-28.5468,3.5645-6.5349c1.1121-2.0389-2.0018-3.8617-3.115-1.8207Z"/><line class="cls-2" x1="338.2502" y1="564.4627" x2="302.1753" y2="630.6"/><path d="M336.6927,563.5523l-12.2186,22.4009-19.44,35.6407-4.4159,8.0957c-1.1121,2.0389,2.0017,3.8617,3.115,1.8208L315.9514,609.11l19.44-35.6407,4.4159-8.0957c1.1121-2.0389-2.0018-3.8617-3.115-1.8208Z"/><path d="M786.5658,606.0245l-.74,15.8147-1.1791,25.2124-.2709,5.7946c-.1086,2.3208,3.4992,2.3153,3.6074,0l.74-15.8147,1.1791-25.2124.271-5.7946c.1085-2.3208-3.4992-2.3153-3.6075,0Z"/><path d="M841.7163,778.56l5.08-9.1385L858.9311,747.59l14.7364-26.5111,12.6889-22.8279c2.06-3.7051,4.26-7.3651,6.1918-11.1391.0266-.0521.057-.1026.0854-.1538,1.129-2.031-1.9856-3.8525-3.1149-1.8208l-5.08,9.1385-12.1351,21.8316-14.7363,26.5111-12.689,22.8279c-2.0595,3.7051-4.26,7.3651-6.1917,11.1391-.0267.0521-.0571.1026-.0855.1538-1.129,2.031,1.9856,3.8525,3.1149,1.8208Z"/></svg>