<svg id="Layer_1" data-name="Layer 1" xmlns="http://www.w3.org/2000/svg" width="1000" height="1000" viewBox="0 0 1000 1000"><defs><style>.cls-1{fill:#fc7272;}.cls-2{fill:#458dc9;}.cls-3{fill:#a8542a;}.cls-4{fill:#fff;}.cls-5{fill:#ffc41f;}.cls-6{fill:#fc7f3a;}</style></defs><path d="M800.46,477.3072l1.9215,13.6607a18.0768,18.0768,0,0,1-10.0855,18.818L758.555,525.9632,613.9243,512.5611a19.1692,19.1692,0,0,1-17.4-19.0875v-3.17l10.6352-15.64"/><path d="M798.65,477.8061l1.8292,13.0045c.0283.2013.0595.4024.0849.604-.0186-.1478.0232.2288.0444.4662a18.0569,18.0569,0,0,1,.0709,1.815,16.2772,16.2772,0,0,1-1.23,6.0177,16.5092,16.5092,0,0,1-8.1026,8.4528c-7.9255,3.879-15.9158,7.6309-23.8723,11.4457l-9.8667,4.7306.9472-.2563-17.6072-1.6315L700.34,518.6919l-45.9374-4.2567-33.6521-3.1184c-2.2-.2039-4.4015-.402-6.6014-.6117a17.4615,17.4615,0,0,1-15.72-16.1771c-.0764-1.4039-.0286-2.819-.0286-4.2242l-.2563.9472,10.6353-15.64c1.3619-2.0028-1.8891-3.8829-3.2411-1.8946L598.17,484.5521c-1.0519,1.547-2.236,3.0637-3.1817,4.679a5.378,5.378,0,0,0-.3415,2.7761,32.096,32.096,0,0,0,.2444,4.5743,21.1747,21.1747,0,0,0,15.6179,17.2912,36.364,36.364,0,0,0,5.5376.7619l18.4585,1.71,30.8549,2.8592,35.4685,3.2866,32.266,2.99,21.2932,1.9731c1.3245.1228,2.6825.3474,4.0135.3719a3.7238,3.7238,0,0,0,1.6818-.52l4.235-2.03,27.5841-13.2253a26.2521,26.2521,0,0,0,4.1521-2.318,20.28,20.28,0,0,0,7.5205-10.4505c1.723-5.601.2259-11.5879-.5683-17.2339l-.7369-5.2387a1.8878,1.8878,0,0,0-2.3087-1.3109,1.9277,1.9277,0,0,0-1.3108,2.3087Z"/><path class="cls-1" d="M504.4076,382.6367l-70.5319-1.81A29.3526,29.3526,0,0,0,407.507,396.39l-12.34,43.9426s-.2006,19.02,20.1855,8.29c0,0,5.3648,11.2659,19.85,2.1459,5.3648,5.9012,18.7767,4.8282,21.4591,0,6.4377,4.8282,13.7961,2.1663,17.3593-7.5l2.26-3.78c1.2147-2.032,3.5349-3.6689,6.1245-4.9549a30.12,30.12,0,0,1,19.4282-2.3729l36.51,7.4689,11.2608-55.0531Z"/><path d="M504.4076,380.76l-29.6728-.7614-38.6444-.9917c-6.8264-.1751-13.4277,1.0256-19.2995,4.7366a31.1921,31.1921,0,0,0-6.6537,5.6236c-1.6527,1.8626-3.6039,4.1566-4.4419,6.5313-.44,1.2475-.7235,2.5761-1.0809,3.8488L393.91,437.866a10.6155,10.6155,0,0,0-.6164,2.6977,16.66,16.66,0,0,0,.8064,4.9317,12.0682,12.0682,0,0,0,4.55,6.5766c2.9926,2.0325,6.8165,1.987,10.2048,1.1552a33.7234,33.7234,0,0,0,7.4447-2.9834l-2.5678-.6733a12.2774,12.2774,0,0,0,5.3388,5.2555c5.67,2.8788,12.0158.7053,17.0786-2.4363l-2.2744-.2934c3.3011,3.5229,8.5329,4.7469,13.2109,4.5676,3.9577-.1516,9.0245-1.2411,11.1958-4.9475l-2.5678.6733c3.085,2.26,7.1173,3.3529,10.8211,2.0221,4.14-1.4874,6.9484-5.1147,8.6479-9.04,1.0189-2.3532,2.5157-5.3254,4.66-7.0635,4.1812-3.3895,10.0809-4.865,15.37-4.9143,4.3792-.0408,8.6975,1.1034,12.9641,1.9762l17.6545,3.6116,12.0124,2.4575a1.9048,1.9048,0,0,0,2.3087-1.3109l3.811-18.6312,6.067-29.6608,1.3829-6.761a1.9064,1.9064,0,0,0-1.81-2.3758l-15.2419-.6543-24.3266-1.0442-5.6274-.2416c-2.4153-.1037-2.41,3.65,0,3.7536l15.242.6543,24.3266,1.0443,5.6273.2415-1.81-2.3757-3.811,18.6312-6.067,29.6608-1.3829,6.7611,2.3087-1.3109L511.33,432.192c-3.429-.7015-6.8575-1.5238-10.3144-2.0815a32.2679,32.2679,0,0,0-16.6669,1.5413,25.1079,25.1079,0,0,0-7.16,4.0027,14.5441,14.5441,0,0,0-3.1146,3.867,31.2745,31.2745,0,0,0-2.1644,4.027,15.1677,15.1677,0,0,1-4.0228,5.8406c-3.2017,2.693-7.0811,2.1019-10.2782-.24a1.8944,1.8944,0,0,0-2.5678.6733,5.6911,5.6911,0,0,1-2.8452,2.0962,15.9385,15.9385,0,0,1-5.4067,1.0013c-3.6358.0879-7.681-.7255-10.26-3.4773a1.9,1.9,0,0,0-2.2743-.2935c-4.0518,2.5142-9.3936,4.61-13.63,2.2551a10.8189,10.8189,0,0,1-1.0115-.64c-.4661-.3312.26.2228-.1707-.1279q-.2238-.1826-.4374-.3773a12.3094,12.3094,0,0,1-1.28-1.3686c.2122.2615-.05-.0687-.2074-.3014-.1039-.1535-.2048-.3093-.2993-.4687-.0861-.145-.172-.2913-.2452-.4434a1.9066,1.9066,0,0,0-2.5678-.6733,28.4166,28.4166,0,0,1-7.0888,2.73,10.8567,10.8567,0,0,1-4.5647.087,6.1283,6.1283,0,0,1-2.8048-1.4932,7.7328,7.7328,0,0,1-1.76-2.5625c-.0359-.0742-.2267-.5273-.0425-.0806-.0541-.1313-.1082-.2635-.1559-.3972-.0781-.2189-.1571-.4367-.2279-.6581-.16-.4986-.2923-1.0056-.4021-1.5174-.0882-.4114-.1568-.8254-.22-1.2412.0991.655-.0409-.4253-.0585-.6676-.0151-.208,0-.4325-.0331-.6381-.0949-.5911.1889.4068-.0683.261a9.5906,9.5906,0,0,1,.2874-1.0237l10.2966-36.6664,1.5751-5.6091a4.6971,4.6971,0,0,1,.8126-1.6339,27.6032,27.6032,0,0,1,5.1232-6.1726c5.5641-5.0237,12.7-7.172,20.09-6.9823l35.4749.91,33.1942.8518.575.0147C506.824,384.5755,506.8226,380.8219,504.4076,380.76Z"/><path class="cls-1" d="M475.9744,439.5032,486.69,419.1166c1.6554-3.7536-1.5954-11.2655-10.5177-4.8406.5456-6.4373-5.54-5.9078-12.7289-3.2336-.0076-6.4379-8.3046-4.838-13.8322-.5523a6.5454,6.5454,0,0,0-6.4076-5.2845,7.4732,7.4732,0,0,0-6.78,3.6946l-11.7862,20.5619a6.9561,6.9561,0,0,1-10.7834,1.4787h0"/><path d="M477.595,440.45,484.77,426.8c1.1162-2.1236,2.2612-4.2348,3.35-6.3729a7.6845,7.6845,0,0,0-.2268-7.4331c-2.9591-4.8447-8.8749-3.01-12.6681-.338l2.8241,1.62c.2148-3.142-1.196-6.0939-4.4855-6.7807-3.53-.7369-7.3394.5312-10.6191,1.7374l2.3757,1.81a5.9776,5.9776,0,0,0-6.2127-6.183c-3.7352-.0651-7.539,1.7974-10.4436,4.01l2.7571,1.1217a8.5,8.5,0,0,0-8.21-6.6625,9.4422,9.4422,0,0,0-7.8141,3.7454,20.8749,20.8749,0,0,0-1.3451,2.1891l-10.2841,17.9414a8.9942,8.9942,0,0,1-1.8734,2.6539,5.1574,5.1574,0,0,1-6.7134-.2448c-1.744-1.672-4.4021.9785-2.6542,2.6542a8.9284,8.9284,0,0,0,13.7328-1.8615c1.1461-1.9,2.21-3.8554,3.3134-5.7805l5.81-10.1364,2.0337-3.548a9.5893,9.5893,0,0,1,1.6361-2.3676,5.6622,5.6622,0,0,1,3.7866-1.4966c.2061-.0031.4082.008.6133.0132.0962.0024.192.0169.2878.0239.2445.0178-.3629-.1052.1682.0341a4.7581,4.7581,0,0,1,3.8926,3.84,1.8866,1.8866,0,0,0,2.7571,1.1217,16.12,16.12,0,0,1,7.5124-3.4489,4.1735,4.1735,0,0,1,2.6977.3575,2.3426,2.3426,0,0,1,.798,2.0231,1.8924,1.8924,0,0,0,2.3757,1.81c2.531-.9308,5.3889-2.0016,8.136-1.7945a2.5369,2.5369,0,0,1,1.8206.7073,2.6223,2.6223,0,0,1,.3255.7312,5.8091,5.8091,0,0,1,.0711,1.78,1.8874,1.8874,0,0,0,2.824,1.6206c1.5888-1.119,3.7344-2.57,5.8084-2.221a2.6564,2.6564,0,0,1,2.0029,1.7345,4.3314,4.3314,0,0,1,.1352,2.7056c-.1577.6828.1769-.2087-.099.2484-.1434.2378-.261.4966-.39.7423l-7.6816,14.6144-2.5414,4.8351c-1.1229,2.1364,2.1156,4.0359,3.2412,1.8945Z"/><path class="cls-1" d="M443.7858,392.2933,425.5191,411.41a6.68,6.68,0,0,0,.41,9.6235h0a6.68,6.68,0,0,0,8.2037.4957l21.4556-14.7508s16.6308,16.0943,39.1627,4.2918"/><path d="M442.4587,390.9662c-6.0322,6.3128-12.1083,12.5863-18.0978,18.94a8.7349,8.7349,0,0,0-1.7516,9.7454,8.64,8.64,0,0,0,11.8228,3.8918,36.3922,36.3922,0,0,0,3.3714-2.266l6.8787-4.7291,11.8534-8.1492-2.2744-.2935a31.4451,31.4451,0,0,0,7.51,5.1194,35.5081,35.5081,0,0,0,19.3382,3.9065,39.7863,39.7863,0,0,0,14.5887-4.4406c2.1464-1.11.25-4.35-1.8945-3.2411a32.9451,32.9451,0,0,1-21.8409,3.448,34.211,34.211,0,0,1-13.0949-5.8482c-.1752-.1273-.3482-.2574-.5215-.387-.3439-.2572.2041.1693-.1723-.135-.2326-.1881-.4654-.3756-.6926-.57-.192-.1646-.384-.33-.5662-.5059a1.9052,1.9052,0,0,0-2.2743-.2934L433.8086,419.48c-2.0288,1.3948-4.4648,1.9735-6.5525.2262a4.8734,4.8734,0,0,1-.241-7.1461c2.9668-3.1469,5.9765-6.2545,8.9645-9.3814l9.1334-9.5582c1.6689-1.7466-.9814-4.4049-2.6543-2.6542Z"/><path class="cls-2" d="M508.9393,460.9l143.8888,13.1377c28.1521,6.256,90.7262-26.5891,91.338-26.6123L699.1227,255.7026H643.7449a38.014,38.014,0,0,0-36.5608,48.4243l22.4966,79.0084-112.2377.1636s5.7813,20.3592.5156,57.426"/><path d="M508.9393,462.7772l8.2337.7518,21.2706,1.9421,28.8217,2.6315,31.1352,2.8428,28.1488,2.57,19.9179,1.8186,5.1382.4692c.3614.033.726.0545,1.0862.0991.2634.0327-.0017.0274-.1632-.011a30.1185,30.1185,0,0,0,3.62.5676,59.9737,59.9737,0,0,0,15.5609-.6732,134.3735,134.3735,0,0,0,17.4836-3.9963,291.8307,291.8307,0,0,0,34.2629-12.7015c6.8936-2.9883,13.68-6.1985,20.4391-9.4762.2774-.1345.5575-.264.8338-.4005.5754-.2842-.3713.0659-.563.0913a1.913,1.913,0,0,0,1.81-2.3757l-1.2062-5.1343-3.2825-13.9713L736.6566,407.26l-5.9184-25.1912-6.4839-27.5979-6.545-27.8581-6.077-25.8665-5.1595-21.9608-3.71-15.7905c-.5842-2.4864-1.0914-5.0071-1.7559-7.4737-.0282-.1049-.05-.2119-.0746-.3177a1.9024,1.9024,0,0,0-1.81-1.3779H644.8159a39.9447,39.9447,0,0,0-40.8378,36.5063c-.54,6.0563.6893,11.8111,2.3295,17.5715l4.788,16.8155,6.7229,23.6108,6.3429,22.2765,3.5419,12.439.1677.5889,1.81-2.3757-11.15.0162-26.7816.0391-32.5317.0474-27.9156.0407c-4.5447.0066-9.13-.1643-13.6719.02-.0621.0025-.1247,0-.1868,0a1.8959,1.8959,0,0,0-1.81,2.3757c.213.7529.3745,1.5225.5333,2.2882.4356,2.1012.8229,4.5755,1.0488,6.36a157.55,157.55,0,0,1,.9215,26.17c-.2944,7.23-.9775,14.4452-1.9879,21.61a1.9434,1.9434,0,0,0,1.3108,2.3087,1.8886,1.8886,0,0,0,2.3087-1.3109,208.0833,208.0833,0,0,0,2.1869-35.9831A122.3979,122.3979,0,0,0,519.92,385.75c-.1941-.9871-.3927-1.9811-.6667-2.95l-1.81,2.3757,11.15-.0163,26.7815-.039,32.5318-.0474,27.9155-.0407c4.5447-.0066,9.13.1643,13.672-.02.062-.0025.1246,0,.1867,0a1.8958,1.8958,0,0,0,1.81-2.3757l-2.4235-8.5115-5.7458-20.1792L616.54,330.13l-5.53-19.42c-.9739-3.42-2.1222-6.8618-2.7986-10.3581a36.1412,36.1412,0,0,1,35.6055-42.7725c4.5049-.0137,9.01,0,13.5151,0h41.79l-1.81-1.3779,1.2063,5.1342,3.2824,13.9714,4.8307,20.5613,5.9184,25.1912,6.4838,27.5979,6.545,27.8581,6.0771,25.8664,5.1595,21.9609,3.71,15.7905c.58,2.47,1.0073,5.0476,1.7558,7.4737.0319.1031.05.2124.0747.3176l1.81-2.3757c-1.6241.2151-3.3059,1.3789-4.7551,2.082q-5.0521,2.4513-10.1577,4.79A341.3,341.3,0,0,1,697.46,465.234c-11.0078,3.7476-22.59,7.184-34.281,7.6706-4.8142.2-9.0321-.6229-13.7583-1.0545l-17.0114-1.5532-26.7193-2.44-30.8985-2.8211-29.868-2.7271L521.3855,460.16l-11.9075-1.0872-.5387-.0492c-2.4047-.22-2.39,3.5354,0,3.7536Z"/><path d="M508.9393,460.9c3.804,0,7.14-9.1111,9.0193-22.801l-18.4658-3.4169C501.2625,450.2533,504.8271,460.9,508.9393,460.9Z"/><path d="M508.9393,462.7772c3.6493-.1016,5.571-4.0557,6.7692-6.9671,2.2414-5.4465,3.2529-11.4095,4.06-17.2118a1.9125,1.9125,0,0,0-1.3108-2.3087l-18.4659-3.4169c-1.0619-.1965-2.5272.4952-2.3757,1.81.7743,6.72,1.7463,13.6331,4.1146,20.0064,1.1831,3.1838,3.1666,7.9805,7.2087,8.0883,2.4164.0645,2.4148-3.6892,0-3.7536-.106-.0028-.5539-.0447-.0069.0131a1.2073,1.2073,0,0,1-.3754-.11c.5.3356-.4154-.29-.2228-.1512a7.1315,7.1315,0,0,1-1.054-1.1735,20.84,20.84,0,0,1-2.3324-5.0508,87.55,87.55,0,0,1-3.5782-17.8685l-2.3757,1.81,18.4658,3.4168L516.1489,437.6a77.9,77.9,0,0,1-3.5213,15.8206,17.5139,17.5139,0,0,1-2.1947,4.4178,6.5471,6.5471,0,0,1-.4407.514c-.1906.1972-.5127.4579-.3742.3627a2.9777,2.9777,0,0,1-.32.2019c-.3224.1655.1973-.0812-.0041.0182a1.2284,1.2284,0,0,1-.3264.0964c-.3875.0639.3945-.02-.0287-.0084C506.5288,459.0907,506.519,462.8446,508.9393,462.7772Z"/><path class="cls-3" d="M874.7917,730.7023l81.0223,44.425L893.2929,890.1816s-30.69-18.9324-11.5258-62.2361a16.9869,16.9869,0,0,0-7.5131-21.9077c-9.919-5.27-19.54-10.324-19.54-10.324"/><path d="M873.8444,732.3229l8.0791,4.43,19.2895,10.5765,23.4425,12.8537,20.1872,11.0688,6.72,3.6845a29.84,29.84,0,0,0,3.1623,1.734,1.3374,1.3374,0,0,1,.1417.0776l-.6733-2.5678-6.26,11.5194L933.03,813.1256l-18.0139,33.15L899.3437,875.117l-5.1267,9.4344a48.8759,48.8759,0,0,0-2.4369,4.4845,2.1413,2.1413,0,0,1-.1078.1984l2.5678-.6733c-.1525-.0944-.3-.196-.4484-.2973-.1685-.1155-.3348-.2344-.5-.3545-.1937-.1409-.8609-.6585-.3447-.2521a40.7441,40.7441,0,0,1-12.9787-17.8038,47.0133,47.0133,0,0,1-1.6209-25.2125,68.9024,68.9024,0,0,1,2.07-7.96c.9808-3.0391,2.2727-5.9251,3.4338-8.8924a19.0449,19.0449,0,0,0-.7387-15.2307,18.6567,18.6567,0,0,0-5.5507-6.6261c-2.8963-2.1808-6.4026-3.6609-9.5982-5.3512q-6.1471-3.2516-12.3025-6.4877c-2.1366-1.1225-4.0361,2.116-1.8945,3.2411q4.9727,2.6124,9.9383,5.238c3.2016,1.6914,6.4245,3.35,9.602,5.0861a15.09,15.09,0,0,1,6.9879,18.9677c-1.1216,2.9018-2.4008,5.7173-3.3738,8.6793a69.3412,69.3412,0,0,0-2.1586,8.164c-1.7289,8.73-1.6442,17.8871,1.23,26.3708a45.0947,45.0947,0,0,0,9.4074,15.9195,33.9344,33.9344,0,0,0,6.9463,6.0424,1.8974,1.8974,0,0,0,2.5678-.6733l6.26-11.5194,14.9036-27.4262,18.0139-33.15,15.6725-28.8413c2.5178-4.6333,5.1726-9.2181,7.5636-13.9188.0341-.067.0719-.1324.1078-.1985a1.9058,1.9058,0,0,0-.6733-2.5678l-8.079-4.43L929.3926,758.5,905.95,745.6467l-20.1873-11.0688c-3.2873-1.8024-6.5357-3.7272-9.8823-5.4185-.048-.0242-.0945-.0518-.1416-.0777-2.1193-1.162-4.0156,2.0782-1.8946,3.2412Z"/><path class="cls-4" d="M912.7607,852.7577,878.9445,835.18c-11.6128,34.3676,9.3,51.4243,13.596,54.49l-.0373.0678,14.6072,9.5048c2.9169-1.7034,10.0117-4.2751,12.2094-8.2828,2.8981-5.2848-2.5874-8.293.3108-13.5778s8.383-2.2759,11.2806-7.56-2.5876-8.2925.31-13.5771,8.3834-2.2765,11.2814-7.5612-2.5871-8.2934.3113-13.5786,8.3828-2.2758,11.28-7.56c2.8985-5.2857-2.587-8.2939.3116-13.5795s8.3841-2.2779,11.2827-7.5638-2.5863-8.2947.3128-13.5814c1.77-3.2274,4.5032-3.3635,7.0239-4.1825a2.8429,2.8429,0,0,0,.3721-5.2643l-6.6384-3.213-11.4979-4.99Z"/><path d="M913.708,851.1371l-29.6839-15.43-4.1323-2.148a1.9068,1.9068,0,0,0-2.7571,1.1216c-3.6159,10.8038-4.91,22.6143-1.612,33.67a44.8585,44.8585,0,0,0,10.9933,18.584,39.1048,39.1048,0,0,0,5.0772,4.356l-.6733-2.5679-.0372.0678a1.92,1.92,0,0,0,.6733,2.5679l14.6072,9.5047a1.8726,1.8726,0,0,0,1.8945,0c5.3061-3.0432,13.9284-5.604,14.0126-13.0739.0323-2.8611-2.1342-5.7589-1.2068-8.5783,1.1226-3.4133,4.4643-3.4049,7.29-4.5746a8.8262,8.8262,0,0,0,5.4885-8.5659c-.2153-2.9015-2.3132-5.8609-.8886-8.7074,1.5175-3.0321,5.026-2.8639,7.7366-4.1908a8.7937,8.7937,0,0,0,4.6789-8.81c-.3815-3.0468-2.38-5.8813-.4418-8.7984,1.7247-2.5963,5.374-2.3286,7.8629-3.8031a8.9227,8.9227,0,0,0,4.0568-9.3166c-.5519-2.9985-2.2982-5.7193.0074-8.4776,1.9286-2.3072,5.6278-1.9886,8.0223-3.67a9.0069,9.0069,0,0,0,3.4474-9.5515,31.2319,31.2319,0,0,1-1.1-4.1717,5.1471,5.1471,0,0,1,1.7955-4.3235c2.5163-2.1033,6.7711-1.1315,7.8662-4.9868a4.7755,4.7755,0,0,0-1.1428-4.6271,7.8063,7.8063,0,0,0-2.2779-1.4059c-1.8388-.89-3.664-1.818-5.52-2.6717-3.3965-1.5623-6.8659-2.9817-10.2955-4.47l-1.2406-.5384a1.9217,1.9217,0,0,0-2.5678.6733l-4.2147,7.6941L939.3,800.4032l-12.319,22.4887L916.38,842.2451c-1.7181,3.1364-3.5518,6.2357-5.1646,9.4281-.0235.0464-.05.0915-.0752.1372-1.1611,2.12,2.0791,4.016,3.2412,1.8945l4.2147-7.694,10.1259-18.4852,12.3189-22.4886,10.6015-19.3532,3.5107-6.409a29.0978,29.0978,0,0,0,1.6539-3.0191,1.3163,1.3163,0,0,1,.0751-.1372l-2.5678.6733,10.3311,4.4836c1.0438.4531,2.0629.94,3.0877,1.4362l3.19,1.5438a8.7158,8.7158,0,0,1,1.8312.91c.7633.6525.252,1.4687-.5188,1.7548a32.5147,32.5147,0,0,0-4.506,1.5579,8.8894,8.8894,0,0,0-4.3034,9.3042c.5016,2.9307,2.234,5.5228.25,8.3164-1.7409,2.4519-5.3421,2.215-7.7646,3.6507a8.9109,8.9109,0,0,0-4.081,9.1774c.4982,2.9187,2.2466,5.5365.2514,8.3149-1.729,2.4078-5.225,2.21-7.637,3.577a8.888,8.888,0,0,0-4.23,9.1066c.4683,2.9777,2.2894,5.6185.2751,8.4548-1.71,2.4071-5.2344,2.2235-7.6377,3.578a8.8824,8.8824,0,0,0-4.23,9.1065c.4576,2.9128,2.2364,5.492.3755,8.2985-1.6651,2.511-5.1583,2.3422-7.6108,3.6614a8.8339,8.8339,0,0,0-4.3894,8.9279c.4064,2.8458,2.241,5.53.56,8.3036-1.6262,2.6839-5.1068,4.2059-7.8024,5.5412-1.203.5959-2.4277,1.1563-3.593,1.8247h1.8945l-14.6072-9.5048.6733,2.5679.0372-.0678a1.9309,1.9309,0,0,0-.6733-2.5679c-.2428-.1738-.4809-.3534-.72-.5324.2935.22.1363.1107-.1144-.0918-.1839-.1487-.3685-.2964-.5506-.4473q-1.1988-.9936-2.3138-2.0827a39.4888,39.4888,0,0,1-5.3965-6.4522,42.1863,42.1863,0,0,1-7.0371-23.139,59.9844,59.9844,0,0,1,3.3989-19.6253l-2.7571,1.1216,29.6839,15.43,4.1323,2.1479C913.9541,855.491,915.8544,852.2528,913.708,851.1371Z"/><path d="M892.2743,842l7.2148-14.2162c.9078-1.7887,1.8317-3.57,2.7237-5.3669a19.7643,19.7643,0,0,0,1.5114-13.8874,19.5526,19.5526,0,0,0-8.6494-11.5877c-1.1949-.73-2.4654-1.3506-3.7-2.0091l-16.7788-8.9512-13.2072-7.0458c-2.1306-1.1366-4.0289,2.1025-1.8945,3.2411l27.7739,14.8169q2.3379,1.2473,4.6759,2.4945a16.2766,16.2766,0,0,1,6.9234,6.8192,15.7666,15.7666,0,0,1,.6355,13.0533c-.6963,1.7457-1.674,3.4129-2.5228,5.0854l-7.9472,15.6594c-1.0908,2.1493,2.1464,4.0515,3.2411,1.8945Z"/><path d="M941.7822,799.2632a27.222,27.222,0,0,1-6.1935-4.3934,18.8853,18.8853,0,0,1-4.6668-18.1091,24.7353,24.7353,0,0,1,2.7-5.8764l3.1456-5.4425c1.2111-2.0953-2.0314-3.9875-3.2411-1.8945-2.1761,3.765-4.8176,7.5239-6.0815,11.7216a22.8562,22.8562,0,0,0,4.4676,21.1274,28.4258,28.4258,0,0,0,7.9749,6.108c2.097,1.2078,3.99-2.0344,1.8946-3.2411Z"/><path class="cls-3" d="M884.1872,817.6109a16.3994,16.3994,0,0,1,10.6628.99"/><path d="M884.6862,819.4207a7.379,7.379,0,0,1,.8064-.1936q.1941-.0381.3895-.07a1.426,1.426,0,0,0,.2666-.0411c-.0943.04-.4881.0579-.1577.022.4217-.0459.8428-.0835,1.2668-.1q.7276-.0284,1.4561.0065.4244.02.8473.0617c.1342.0131.2679.03.402.0438-.4389-.0436.1155.0185.1655.0265a17.5713,17.5713,0,0,1,1.9441.4272q.47.1313.9322.2887.2874.0978.5715.2051a3.3279,3.3279,0,0,0,.3262.124,1.9306,1.9306,0,0,0,2.5679-.6733,1.897,1.897,0,0,0-.6734-2.5678,19.8891,19.8891,0,0,0-8.4106-1.7005,13.8893,13.8893,0,0,0-3.6983.5213,1.8773,1.8773,0,0,0,.9979,3.62Z"/><path class="cls-3" d="M880.9239,810.45a16.4,16.4,0,0,1,9.0807-5.6758"/><path d="M882.5445,811.3974c.2215-.3153-.2568.3161-.1459.1848.1367-.1618.2684-.327.41-.485a14.8377,14.8377,0,0,1,1.6252-1.55c.0986-.0813.2031-.1571.2993-.241-.4245.37-.1722.1322-.0608.0489q.3424-.2562.6976-.4947a17.2629,17.2629,0,0,1,1.5239-.9137q.3988-.2121.8084-.4034a4.9588,4.9588,0,0,1,.49-.22c-.4947.1675.0982-.0356.1931-.072a18.7271,18.7271,0,0,1,2.1184-.6677,1.8773,1.8773,0,0,0-.9979-3.6195,19.7855,19.7855,0,0,0-7.6533,3.8689,13.5484,13.5484,0,0,0-2.549,2.6695,1.8862,1.8862,0,0,0,.6733,2.5678,1.926,1.926,0,0,0,2.5679-.6733Z"/><path class="cls-3" d="M872.6716,804.8386a16.4,16.4,0,0,1,5.762-9.0262"/><path d="M874.4813,805.3376a7.419,7.419,0,0,1,.2034-.8271c.0881-.302.1877-.6006.2964-.8959.0671-.1822.1408-.3615.2116-.5422.1145-.2922-.2095.4778-.009.0284q.0691-.1551.1416-.3087a17.0626,17.0626,0,0,1,1.6906-2.8331q.0786-.1069.1589-.2126-.2148.2758-.0864.1128c.102-.1248.2015-.2516.305-.3754q.3225-.3858.6669-.7528a18.6047,18.6047,0,0,1,1.7-1.5915,1.8838,1.8838,0,0,0,0-2.6542,1.928,1.928,0,0,0-2.6542,0,18.9156,18.9156,0,0,0-5.0224,6.4123,13.74,13.74,0,0,0-1.2223,3.4421,1.9224,1.9224,0,0,0,1.3108,2.3087,1.9,1.9,0,0,0,2.3087-1.3108Z"/><path class="cls-3" d="M862.92,799.5654a16.4,16.4,0,0,1,5.762-9.0263"/><path d="M864.73,800.0643a7.434,7.434,0,0,1,.2034-.827c.0881-.3021.1877-.6007.2964-.8959.0671-.1822.1408-.3615.2116-.5422.1145-.2923-.21.4778-.009.0283q.0692-.1551.1416-.3086a17.0544,17.0544,0,0,1,1.6906-2.8331q.0786-.1069.1589-.2127-.2148.2758-.0864.1128c.102-.1248.2015-.2516.305-.3753q.3225-.3859.6669-.7529a18.6187,18.6187,0,0,1,1.7-1.5915,1.8838,1.8838,0,0,0,0-2.6542,1.9281,1.9281,0,0,0-2.6542,0,18.9175,18.9175,0,0,0-5.0224,6.4123,13.7414,13.7414,0,0,0-1.2223,3.4421,1.9224,1.9224,0,0,0,1.3108,2.3087,1.9,1.9,0,0,0,2.3087-1.3108Z"/><path d="M794.84,452.142l.4916,7.62a14.2661,14.2661,0,0,1-10.6619,14.73l-41.7548,10.8071-2.5024-52.5506"/><path d="M792.9632,452.142c.3258,5.05,1.4557,10.5777-1.3739,15.1253a12.5388,12.5388,0,0,1-7.4847,5.4319c-.9115.2448-1.8278.4731-2.7416.71L751.7,481.0862l-9.2844,2.403,2.3757,1.81-.8479-17.8061-1.3446-28.2365-.31-6.508c-.1145-2.4049-3.8688-2.4188-3.7536,0l.8479,17.8062,1.3446,28.2364.31,6.508a1.9017,1.9017,0,0,0,2.3758,1.81l24.3691-6.3073,14.2475-3.6876c4.2788-1.1074,8.35-2.3774,11.3329-5.9507a16.473,16.473,0,0,0,3.8289-11.6513c-.1508-2.4571-.317-4.9133-.4755-7.37-.1547-2.3986-3.9095-2.416-3.7536,0Z"/><path class="cls-3" d="M612.6335,801.4751,586.0466,889.97,460.4985,852.7671s12.13-33.9583,58.4737-24.2279a16.987,16.987,0,0,0,19.864-11.9087c3.09-10.7987,6.0306-21.2612,6.0306-21.2612"/><path d="M610.8237,800.9762,608.1726,809.8l-6.33,21.0685L594.15,856.4734l-6.6243,22.0491-2.2051,7.34a31.0836,31.0836,0,0,0-1.0377,3.454,1.3664,1.3664,0,0,1-.0465.1548l2.3087-1.3109-12.57-3.7248-29.9277-8.8682-36.1737-10.7192-31.4718-9.3258-10.2949-3.0506a51.0034,51.0034,0,0,0-4.8934-1.45,2.2548,2.2548,0,0,1-.2166-.0642l1.3109,2.3087c.0564-.1574.1264-.31.1835-.4669.141-.3876-.2175.483-.0629.149.0473-.1023.0889-.2073.1359-.31.1161-.2528.2309-.506.3516-.7567a38.1581,38.1581,0,0,1,2.496-4.3825,35.6,35.6,0,0,1,4.4806-5.6359A39.7343,39.7343,0,0,1,476.7,836.1a45.6364,45.6364,0,0,1,22.6267-7.3208,69.6378,69.6378,0,0,1,16.76,1.1018c2.8421.5181,5.5721,1.1163,8.48.7795a18.8192,18.8192,0,0,0,14.4039-9.4951c1.806-3.2423,2.5341-7.0342,3.541-10.5741q2.0931-7.3584,4.1655-14.7226c.6548-2.3293-2.9657-3.3235-3.62-.9978q-1.6983,6.0412-3.414,12.0778c-1.6721,5.89-2.5618,12.5125-7.5155,16.6514a15.3283,15.3283,0,0,1-7.0436,3.2187c-2.8812.5331-5.5669-.126-8.3916-.6279a74.174,74.174,0,0,0-16.7364-1.2008,50.1069,50.1069,0,0,0-24.0594,7.1633,45.1483,45.1483,0,0,0-12.9429,12.302,33.5213,33.5213,0,0,0-4.2649,7.8132A1.9,1.9,0,0,0,460,854.5768l12.57,3.7248,29.9277,8.8683L538.671,877.889l31.4718,9.3258c5.0462,1.4953,10.0819,3.22,15.1883,4.5007.0728.0182.1446.0428.2166.0642a1.9079,1.9079,0,0,0,2.3087-1.3109l2.6511-8.8241,6.33-21.0686,7.6925-25.6045,6.6243-22.0491c1.0757-3.5805,2.3528-7.161,3.2428-10.7937.0127-.0521.031-.1033.0465-.1547.6965-2.3185-2.9252-3.3092-3.62-.9979Z"/><path class="cls-2" d="M633.2273,420.4037,534.4834,791.1759l98.0683,24.6674S700.9075,544.6948,708.28,503.2646s12.3389-97.8662,12.3389-97.8662"/><path d="M631.4175,419.9048l-2.6407,9.9156L621.59,456.8055l-10.6293,39.912-12.9687,48.6961-14.2049,53.3378-14.3378,53.8367L556.0821,702.781l-11.2937,42.4066-8.1168,30.4777c-1.2763,4.7924-2.6495,9.5707-3.8317,14.3875-.0513.209-.1108.4162-.1662.6242a1.9034,1.9034,0,0,0,1.3108,2.3087l33.19,8.3483,52.8365,13.29,12.0421,3.029a1.9055,1.9055,0,0,0,2.3087-1.3109q1.3217-5.2431,2.6388-10.4875,3.5225-14.0142,7.0317-28.0316,5.12-20.4472,10.2155-40.9,6.0462-24.2694,12.0541-48.5485,6.3921-25.8387,12.7254-51.692,6.0591-24.7518,12.03-49.5249,5.1523-21.4144,10.1683-42.8617c2.396-10.3025,4.7747-20.6117,6.961-30.9611,3.312-15.6779,5.54-31.5735,7.6223-47.454q3.7494-28.5864,6.3968-57.309.1476-1.5863.29-3.173c.2119-2.4058-3.5429-2.3915-3.7536,0-1.244,14.1184-2.7694,28.217-4.4272,42.2921-2.3461,19.9192-4.7781,39.9479-8.7126,59.6271-1.8418,9.2122-3.9413,18.3744-6.0429,27.53q-4.6607,20.3049-9.5412,40.5585-5.7889,24.199-11.7,48.3687-6.28,25.7386-12.6354,51.4591-6.1341,24.8481-12.3148,49.6847-5.355,21.5262-10.738,43.0455-3.945,15.7727-7.9048,31.5416c-1.2588,5.0124-2.91,10.0812-3.8155,15.1729-.04.2235-.1122.4454-.1678.6659l2.3087-1.3109-33.19-8.3483-52.8365-13.29-12.042-3.0289,1.3108,2.3087,2.6407-9.9157,7.1867-26.9851L556.75,714.8622l12.9688-48.6962,14.2048-53.3378,14.3378-53.8366,13.3674-50.193,11.2937-42.4066,8.1168-30.4776c1.2763-4.7925,2.6495-9.5707,3.8316-14.3876.0513-.2089.1109-.4162.1663-.6242.6223-2.3367-2.9975-3.3336-3.62-.9978Z"/><path class="cls-2" d="M686.6106,444.6347,669.1631,602.1612c-5.8718,53.0141,16.37,105.5465,59.2118,137.32a135.7119,135.7119,0,0,0,15.9963,10.2551L847.008,805.5121l49.4562-88.204s-84.7777-53.5357-122.8378-71.4866l14.4685-141.7268a117.8,117.8,0,0,0-4.2673-45.506l-12.1355-40.8549"/><path d="M684.7338,444.6347l-2.1013,18.9718-4.8643,43.9181-5.5428,50.0432-4.0688,36.736c-1.3943,12.5885-2.3277,25.1053-1.2323,37.7895a153.3447,153.3447,0,0,0,25.5993,72.5978,148.2543,148.2543,0,0,0,51.5752,47.0324q13.4726,7.3266,26.9494,14.6451l43.9667,23.8929,29.53,16.0474,1.5159.8238a1.9075,1.9075,0,0,0,2.5678-.6733L865.35,776.6377l26.6384-47.509,6.0967-10.8733a1.9157,1.9157,0,0,0-.6733-2.5678q-15.393-9.72-30.9483-19.1812c-20.3188-12.4227-40.7551-24.6773-61.532-36.3214-9.9719-5.5886-20.0185-11.0982-30.3576-15.9841l.93,1.6206,2.7184-26.6288,5.6518-55.3622,4.9714-48.6966q.5409-5.2985,1.0818-10.597a120.8251,120.8251,0,0,0-3.1177-42.2157c-1.7312-6.7386-3.89-13.3846-5.8708-20.0518l-6.9906-23.5341-.4457-1.5c-.6862-2.31-4.31-1.3266-3.62.9978q5.9607,20.067,11.9214,40.134a118.86,118.86,0,0,1,4.4143,45.7294c-.25,2.5013-.5107,5.0016-.766,7.5025l-4.6382,45.4335-5.7591,56.4135-2.167,21.2274c-.3611,3.5368-.8992,7.1051-1.0879,10.6563-.0087.1641-.0336.3287-.05.4922a1.8143,1.8143,0,0,0,.93,1.6206c19.9776,9.4405,39.11,20.78,58.1233,31.9981q27.1494,16.0184,53.891,32.7176,5.42,3.3716,10.8236,6.7709l-.6733-2.5678-16.7212,29.8217-26.6384,47.509-6.0967,10.8733,2.5678-.6733-21.1474-11.4922-42.9921-23.3632-34.1613-18.5643c-3.564-1.9367-7.1347-3.8507-10.586-5.9877a143.9126,143.9126,0,0,1-31.8347-26.9223,148.6928,148.6928,0,0,1-34.1811-68.98c-3.3346-16.5125-3.48-33.1741-1.6316-49.8615l3.4522-31.1682,5.3591-48.3854,5.1858-46.82,2.9321-26.4726.1373-1.2391c.2655-2.3974-3.49-2.3785-3.7537,0Z"/><path d="M639.2863,789.0907l-9.8-2.4925-23.4023-5.952-28.2917-7.1956-24.4683-6.2231c-3.9685-1.0094-7.93-2.1649-11.9322-3.0348-.0591-.0128-.1175-.03-.1761-.0448-2.3421-.5957-3.3412,3.0235-.9979,3.6195l9.8,2.4925,23.4023,5.952,28.2918,7.1956,24.4683,6.2232c3.9685,1.0093,7.93,2.1648,11.9321,3.0348.0591.0128.1176.03.1762.0448,2.342.5956,3.3411-3.0236.9978-3.62Z"/><path d="M874.6507,704.5638l-4.9146,8.7713L857.9336,734.399l-14.2784,25.4828-12.3424,22.0275c-1.9919,3.5551-4.1184,7.0663-5.9885,10.6878-.0278.0539-.0594.106-.089.1589-1.1822,2.11,2.0589,4.0044,3.2411,1.8945l4.9147-8.7712,11.8024-21.0639,14.2784-25.4828,12.3424-22.0275c1.992-3.5551,4.1185-7.0664,5.9886-10.6878.0278-.0539.0594-.1061.089-.1589,1.1821-2.11-2.059-4.0044-3.2412-1.8946Z"/><path class="cls-2" d="M666.25,255.7026h71.0752c11.5734,0,17.62,4.7857,22.5874,21.7706,0,0,36.5782,154.5712,41.8091,210.9538-116.9878-21.8962-205.1978,1.8768-205.1978,1.8768l45.83-195.954"/><path d="M666.25,257.5794H733.388c2.374,0,4.7807-.0826,7.1459.1411a16.3224,16.3224,0,0,1,7.6287,2.5471,18.46,18.46,0,0,1,5.565,6.5195,47.216,47.216,0,0,1,4.5585,11.9622q1.7626,7.4835,3.4845,14.9766,3.4275,14.8657,6.7592,29.7534,4.39,19.61,8.6084,39.2575,4.6221,21.5655,8.9633,43.19c2.7555,13.8036,5.4044,27.63,7.8192,41.4975,1.9912,11.4357,3.8755,22.9673,5.2134,34.3133q.3939,3.34.7107,6.6893l2.3758-1.81a547.9952,547.9952,0,0,0-120.85-8.961q-21.8912.8148-43.6646,3.4692c-9.8943,1.2242-19.76,2.73-29.5415,4.6633-2.7771.549-5.5479,1.1322-8.3062,1.7694a27.4689,27.4689,0,0,0-3.6852.8967,1.47,1.47,0,0,1-.148.0392l2.3087,2.3087,1.2265-5.244,3.3377-14.2708,4.9362-21.1059,6.0222-25.7493,6.5673-28.0795,6.6572-28.4646,6.2077-26.5423,5.2455-22.4281,3.7586-16.0705c.5972-2.5538,1.24-5.1017,1.7928-7.6656.024-.1115.052-.2223.078-.3334.55-2.35-3.0688-3.3528-3.62-.9978l-1.2264,5.2439L635.98,313.3656l-4.9362,21.106-6.0223,25.7493-6.5672,28.08-6.6573,28.4646-6.2077,26.5422-5.2454,22.4282-3.7586,16.07c-.5973,2.5538-1.24,5.1016-1.7928,7.6656-.024.1115-.052.2223-.078.3333a1.8972,1.8972,0,0,0,2.3087,2.3087c3.1829-.8569,6.42-1.5367,9.6468-2.2021,8.8287-1.8206,17.7418-3.2781,26.6716-4.4715,13.949-1.8643,27.9843-3.0916,42.04-3.7734q26.894-1.3044,53.83.072a540.752,540.752,0,0,1,63.74,7.0169q4.1418.7082,8.272,1.4813c1.0849.2026,2.498-.4979,2.3758-1.81-1.0186-10.93-2.6865-21.8038-4.4695-32.6318-2.2334-13.5635-4.7482-27.08-7.3771-40.5723q-4.27-21.9163-8.9226-43.7562-4.3171-20.4074-8.848-40.7689-3.6338-16.3656-7.3808-32.7058-2.1362-9.3153-4.3142-18.6209c-.3174-1.3529-.6348-2.6741-1.0483-4.0027-2.1449-6.8923-5.1507-14.5792-11.56-18.587-6.2353-3.8989-14.4492-2.9557-21.515-2.9557H666.25a1.878,1.878,0,0,0,0,3.7537Z"/><path class="cls-2" d="M753.7881,158.4263l-99.9107-.55.1093-19.8617c.1169-21.2308,7.9131-49.3673,50.2269-49.0586h0c27.59.1519,49.9651,10.9745,49.6837,49.6086Z"/><path d="M753.7881,156.55l-9.9157-.0546-23.82-.1311-28.9564-.1594-24.9244-.1373-8.2168-.0452A35.5486,35.5486,0,0,0,654.05,156a1.5745,1.5745,0,0,1-.1724-.0009l1.8768,1.8768.081-14.7124a125.5615,125.5615,0,0,1,.5311-13.779c1.3909-12.0241,6.5339-24.1016,17.1391-31.0409,6.8844-4.5047,15.0651-6.5872,23.1957-7.2463a80.238,80.238,0,0,1,23.8415,1.4c6.3986,1.4344,12.68,3.9709,17.7322,8.2384a36.534,36.534,0,0,1,11.0958,17.32c2.22,7.163,2.6826,14.5963,2.6415,22.05l-.0927,16.8489-.0081,1.4712c-.0133,2.4158,3.74,2.4186,3.7536,0l.084-15.2547c.0389-7.0716-.027-14.1114-1.4673-21.074a43.9591,43.9591,0,0,0-10.12-20.9053A40.7629,40.7629,0,0,0,726.5724,90.255a73.392,73.392,0,0,0-22.3587-3.1758c-9.4178-.0573-19.0062,1.2263-27.6035,5.2463a39.6229,39.6229,0,0,0-15.9867,13.5779,48.174,48.174,0,0,0-7.1106,17.6617,81.436,81.436,0,0,0-1.4093,15.5943l-.0949,17.2456-.0081,1.4713a1.9043,1.9043,0,0,0,1.8768,1.8768l9.9156.0546,23.82.1311,28.9564.1594,24.9244.1372c4.0269.0222,8.0962.2178,12.1215.0668.0572-.0022.1151.0006.1724.0009C756.2039,160.3164,756.2067,156.5628,753.7881,156.55Z"/><path class="cls-2" d="M760.1528,166.1343l-114.1137-.6282a73.805,73.805,0,0,1-14.9726-1.6156l-9.1819-1.9576c-8.309-1.7716-14.1539-8.3646-14.1123-15.9189h0c.0576-10.4638,11.1106-18.1467,22.63-15.73l1.4738.3092c4.831,1.0135,82.9282,12.4735,87.8917,12.5009"/><path d="M760.1528,164.2575l-11.948-.0658-28.46-.1566-33.8971-.1867-28.2588-.1555c-4.255-.0234-8.5152.0127-12.7695-.0808-7.0521-.1548-13.8153-1.6511-20.6715-3.1129a22.7846,22.7846,0,0,1-7.775-2.81,14.5,14.5,0,0,1-6.3633-8.6c-1.7864-7.1966,3.2092-13.9534,9.8647-16.2974a19.6844,19.6844,0,0,1,10.7659-.5436c.8022.1683,1.6044.3179,2.4128.4529,8.0441,1.3436,16.1229,2.4957,24.19,3.6883q17.6,2.6019,35.2175,5.0824c8.3887,1.1768,16.784,2.4451,25.21,3.3295.6948.0729,1.3973.1623,2.0968.1694,2.4161.0242,2.418-3.7294,0-3.7536a57.788,57.788,0,0,1-6.5125-.69c-4.5451-.5691-8.4978-1.1095-12.9787-1.7267q-17.7336-2.4429-35.4428-5.0606c-9.4159-1.38-18.834-2.7551-28.2331-4.2459-2.73-.4329-5.473-1.1062-8.2134-1.4083-7.8887-.87-16.4453,2.8274-20.3725,9.9065A17.047,17.047,0,0,0,612.04,159.111c4.7993,4.1156,10.8111,4.944,16.7636,6.2131a86.5711,86.5711,0,0,0,17.5813,2.0607q2.6384.0162,5.2768.0291l24.6686.1358,33.9952.1871,31.4792.1733,17.5329.0965.8155.0045c2.4158.0133,2.4186-3.74,0-3.7536Z"/><polyline class="cls-1" points="727.275 251.323 724.772 208.782 679.729 218.166 679.729 288.234"/><path d="M729.1517,251.3233l-2.1956-37.3246-.3068-5.2164a1.9077,1.9077,0,0,0-2.3758-1.81L709.071,210.14l-24.25,5.0521-5.5911,1.1648a1.8956,1.8956,0,0,0-1.3779,1.81v70.0675a1.8779,1.8779,0,0,0,3.7536,0V218.1664l-1.3779,1.81,15.2025-3.1672,24.25-5.052,5.5911-1.1648-2.3758-1.81,2.1956,37.3247.3068,5.2163c.1413,2.4009,3.8958,2.4171,3.7537,0Z"/><path class="cls-1" d="M725.9972,218.7815c3.7711-16.4047,16.4057-25.304,17.9013-38.0568.8685-7.4053-9.34-28.6117-9.34-28.6117l-73.5006-2.5566s-28.122,65.1919,13.4218,82.4485c0,0,21.0915,5.7523,30.6785-7.03"/><path d="M727.8069,219.28c1.4845-6.316,4.49-11.9479,7.9557-17.3811,3.0829-4.8333,6.4627-9.5477,8.5081-14.9457a21.17,21.17,0,0,0,1.5565-7.15,24.4163,24.4163,0,0,0-.9124-6.0369,98.8465,98.8465,0,0,0-4.8367-13.8027c-1.2318-2.96-2.5087-5.9081-3.8986-8.7984a1.869,1.869,0,0,0-1.62-.9295l-24.9656-.8684-39.4691-1.3728-9.0659-.3154a1.8253,1.8253,0,0,0-1.6206.93,112.5913,112.5913,0,0,0-4.1923,11.742,121.3524,121.3524,0,0,0-5.1306,26.2352c-.736,9.8423.0969,20.1054,4.3579,29.1314a35.0827,35.0827,0,0,0,8.8475,11.6716A37.4779,37.4779,0,0,0,670.0816,232a19.4658,19.4658,0,0,0,4.598,1.9855c9.5009,2.1906,20.9752,1.946,28.8044-4.5336a21.1458,21.1458,0,0,0,3.2953-3.53,1.89,1.89,0,0,0-.6733-2.5678,1.9215,1.9215,0,0,0-2.5678.6733c-3.3734,4.4182-8.8324,6.5945-14.2253,7.1773a41.9581,41.9581,0,0,1-12.5577-.6084c-3.4033-.6764-6.5094-2.6183-9.2731-4.6566a31.3032,31.3032,0,0,1-8.8655-10.3311c-4.4046-8.1413-5.3388-17.7064-4.8837-26.85a111.7382,111.7382,0,0,1,4.5327-25.3889c1.2841-4.4471,2.8109-8.798,4.5119-13.1.1263-.3194-.234.5484-.0986.2341l-1.62.9295,24.9656.8684,39.469,1.3728,9.066.3154-1.6206-.93a128.2481,128.2481,0,0,1,7.8758,19.9242,31.7733,31.7733,0,0,1,1.2115,5.6877,15.581,15.581,0,0,1-.9694,6.1415c-1.6989,5.1516-4.9742,9.6685-7.8883,14.1839-3.8768,6.0072-7.3317,12.27-8.9806,19.2851-.5522,2.3494,3.0662,3.3522,3.62.9978Z"/><path class="cls-5" d="M706.6124,166.7794l.6432,3.2155-.5068,1.2669a21.1225,21.1225,0,0,0,.1927,16.1546l1.9006,4.441c.4472-9.0032,8.1853-20.8379,14.6376-20.5174s11.3032,2.74,10.8443,11.9782c-.3038,6.1146-5.958,16.5178-9.6661,19.13l1.3578,25.0213,12.01-4.9842a17.5519,17.5519,0,0,0,9.923-10.6607l.5971-1.7913,2.8172-1.9368a15.5841,15.5841,0,0,0,6.7337-13.661l-.1669-3.17c3.8316-4.8561,8.1329-11.8864,2.1967-17.9288l1.7489-3.5828a15.0453,15.0453,0,0,0,.4343-12.2231l-2.1832-5.4177H708.9935l-4.866.365C702.5234,156.2491,700.3739,163.7389,706.6124,166.7794Z"/><path d="M704.8027,167.2783l.6431,3.2155v-.9978a24.5547,24.5547,0,0,0-1.5646,14.4547c.6478,3.0813,2.1069,5.9719,3.34,8.854.7939,1.8551,3.3995.7136,3.4974-.9473a25.2389,25.2389,0,0,1,3.9487-11.4863c1.655-2.6905,4.0654-5.9388,7.2284-6.9321a10.1779,10.1779,0,0,1,7.8265,1.51c2.6138,1.8955,2.93,5.6238,2.709,8.6264-.2676,3.6292-1.9766,7.2849-3.69,10.4359a34.0109,34.0109,0,0,1-2.9062,4.572,15.5047,15.5047,0,0,1-1.5417,1.73c-.6666.637-1.4651.9691-1.513,2.1355-.0472,1.15.1276,2.3519.19,3.499l.4283,7.8945.7395,13.6278c.0585,1.0774,1.1757,2.3078,2.3758,1.81l8.9633-3.72c1.09-.4525,2.1826-.9005,3.27-1.3589a19.4287,19.4287,0,0,0,7.7812-5.8888,24.8585,24.8585,0,0,0,3.8255-7.7794l-.8625,1.1217c3.3948-2.3339,6.6279-4.6048,8.558-8.3982a17.69,17.69,0,0,0,1.9439-8.0664c-.0056-1.3074-.12-2.619-.1883-3.9241l-.55,1.3271c2.2648-2.8876,4.4887-6.0444,5.3262-9.6826a11.5974,11.5974,0,0,0-3.13-10.9l.2935,2.2743c.58-1.1879,1.1739-2.37,1.74-3.5646a17.1986,17.1986,0,0,0,1.6776-9.4c-.4043-3.4088-1.9571-6.55-3.2284-9.7048a1.9566,1.9566,0,0,0-1.81-1.3778H711.8435c-2.5933,0-5.1235.1705-7.716.365a1.9908,1.9908,0,0,0-1.81,1.3779c-2.3765,5.65-3.0107,13.1724,3.3474,16.4208,2.147,1.097,4.0486-2.1406,1.8945-3.2411-4.7653-2.4347-3.3127-8.1635-1.6224-12.1819l-1.81,1.3779c5.9857-.449,11.9334-.365,17.9381-.365h38.06l-1.81-1.3779c1.0845,2.6911,2.5235,5.4768,3.0311,8.35.751,4.2509-1.0518,7.76-2.8419,11.4277a1.95,1.95,0,0,0,.2935,2.2744,7.8742,7.8742,0,0,1,1.89,8.2493,17.34,17.34,0,0,1-1.8634,3.8631c-.4034.6523-.8334,1.288-1.2819,1.91a10.8578,10.8578,0,0,0-1.3292,1.856,6.3951,6.3951,0,0,0-.06,2.6613c.048.9116.1107,1.8222.0715,2.7355a13.6177,13.6177,0,0,1-3.3959,8.37,26.8127,26.8127,0,0,1-4.8967,3.8737c-1.6268,1.1413-1.8,3.5387-2.6851,5.2415a15.8356,15.8356,0,0,1-6.181,6.4639,29.4014,29.4014,0,0,1-3.6358,1.6572l-9.9149,4.115,2.3758,1.81-1.1869-21.8727-.1709-3.1486-.93,1.6205c3.8-2.7675,6.2994-7.536,8.1252-11.7523,2.0523-4.7395,3.45-10.12,1.81-15.221-1.3844-4.3047-5.0125-6.7041-9.3569-7.3573a11.0573,11.0573,0,0,0-6.671.6334,16.4585,16.4585,0,0,0-5.3855,4.3817,29.8725,29.8725,0,0,0-7.1617,17.104l3.4974-.9472c-1.7145-4.0064-3.4276-7.7044-3.3428-12.2023a19.0185,19.0185,0,0,1,.73-4.8666c.3108-1.0919.8265-2.1081,1.152-3.1876.3882-1.2876-.3215-3.0847-.5792-4.3733C707.9489,163.9137,704.33,164.9155,704.8027,167.2783Z"/><path d="M676.6477,206.4277a66.8344,66.8344,0,0,0,6.7113-3.5182s2.5271,2.3655-1.4913,5.1123C678.98,209.8942,676.6477,206.4277,676.6477,206.4277Z"/><path d="M677.595,208.0483a61.3011,61.3011,0,0,0,6.7112-3.5182l-2.2743-.2935c.0325.0308.0627.0642.0924.0976.1266.142.235.3783-.1694-.2282.0386.0579.0823.1124.12.1707q.0671.1026.1254.21c.1514.28.0576.1687-.0533-.1593a3.4088,3.4088,0,0,1,.1665.6326l-.067-.4989a2.6539,2.6539,0,0,1,.0007.6094l.0671-.4989a2.7945,2.7945,0,0,1-.09.4256c-.0251.0838-.0729.17-.09.2549.02-.0964.2216-.4828.0677-.1856a4.5431,4.5431,0,0,1-.2962.4768c-.1858.2711.3182-.3828.0409-.0632q-.112.1291-.2322.2511c-.18.1826-.3728.3481-.5682.5133-.3183.2691.351-.241-.0111.0056-.128.0871-.2513.1781-.3856.2558-.0833.0482-.1682.0909-.2537.1349-.2905.1494.4831-.1682.0332-.0214a3.2089,3.2089,0,0,1-.5628.126l.4989-.0671a3.1764,3.1764,0,0,1-.76-.0084l.4989.067a3.416,3.416,0,0,1-.6328-.1592.7828.7828,0,0,0-.1332-.0509c.0023,0,.4641.2125.254.104-.0933-.0481-.1874-.0931-.2788-.145-.1777-.1008-.3383-.2215-.5081-.334-.164-.1086.37.3043.2261.174-.039-.0353-.0819-.0667-.122-.1008q-.1041-.0888-.204-.1821a6.5137,6.5137,0,0,1-.5942-.6332c-.0623-.0759-.2141-.273.0412.0575.2453.3176.1266.1717.077.0978-.0193-.0289-.0411-.0561-.0605-.0849a1.8771,1.8771,0,0,0-3.2412,1.8945c1.1638,1.72,3.1868,3.2471,5.36,3.0659a6.785,6.785,0,0,0,4.7849-3.0374,4.5446,4.5446,0,0,0,.6795-3.8325,4.6117,4.6117,0,0,0-1.1649-1.9885,1.924,1.924,0,0,0-2.2744-.2934,61.2927,61.2927,0,0,1-6.7113,3.5181,1.8754,1.8754,0,0,0-.8625,1.1216,1.9184,1.9184,0,0,0,.1892,1.4462,1.8942,1.8942,0,0,0,1.1217.8625A2.1956,2.1956,0,0,0,677.595,208.0483Z"/><path d="M717.4037,193.5089c.12-.3811.2547-.7581.3915-1.1335q.2242-.6151.4675-1.223.0663-.1659.1341-.3311c.0268-.0656.2259-.5442.0855-.2081-.141.3377.0509-.1156.0785-.179q.0908-.2079.1838-.4147a28.2508,28.2508,0,0,1,1.7013-3.255q.2424-.3924.5033-.7727.1209-.1755.2464-.3478c.0414-.0566.0857-.1115.1255-.1693.1083-.1571-.3015.3683-.0383.0514a10.0457,10.0457,0,0,1,1.145-1.2081c.3879-.335-.2028.1214.01-.0182.1216-.08.2373-.1673.3618-.2431.12-.073.248-.1306.3686-.2016.2139-.1258-.4957.1506-.0356.02q.1714-.0488.3431-.0958c.4254-.1165-.4744.0017-.0344.0047a1.6524,1.6524,0,0,0,.3928.0087c-.0182.0057-.512-.1079-.2609-.0338.0779.0229.1609.0345.24.0549a1.8773,1.8773,0,0,0,.9979-3.6195c-3.0266-.7859-5.4117,1.4992-7.011,3.7715a31.0972,31.0972,0,0,0-3.4521,6.9489c-.1994.5276-.3937,1.0587-.5634,1.5967a1.8935,1.8935,0,0,0,1.3108,2.3087,1.9176,1.9176,0,0,0,2.3087-1.3108Z"/><line class="cls-1" x1="638.0495" y1="148.2782" x2="708.9935" y2="152.113"/><path d="M638.05,150.155l24.0666,1.3009,38.0769,2.0582,8.8005.4757c2.4139.13,2.4066-3.6236,0-3.7536l-24.0666-1.3009L646.85,146.877l-8.8005-.4757c-2.4139-.13-2.4066,3.6236,0,3.7537Z"/><path d="M683.8033,173.9907a9.7931,9.7931,0,0,1,1.1858-.6231c.1094-.05.22-.0979.33-.1468-.4779.2123-.0374.0174.0472-.0145.2342-.0881.4677-.1768.7047-.2574a16.4916,16.4916,0,0,1,1.9482-.5316,9.8843,9.8843,0,0,1,1.952-.249,13.1271,13.1271,0,0,1,7.9705,2.0811c2.0782,1.2429,3.9679-2.0011,1.8945-3.2412a17.74,17.74,0,0,0-12.4338-2.285,15.6571,15.6571,0,0,0-5.4933,2.0264c-2.03,1.2963-.1494,4.5464,1.8945,3.2411Z"/><path d="M655.3041,172.8844c-.6623.2909-.0967.0455.213-.0615a17.0062,17.0062,0,0,1,1.7161-.4856,20.2478,20.2478,0,0,1,5.73-.44,7.7384,7.7384,0,0,1,7.0344,5.4994c.8771,3.0342-.3573,6.404-1.7773,9.0855a26.9965,26.9965,0,0,1-3.59,5.1693c-.6759.77-1.6105,1.455-1.8373,2.4924a6.12,6.12,0,0,0-.06,2.3658c.6848,3.8736,5.2211,4.0478,8.323,3.736a1.93,1.93,0,0,0,1.8768-1.8768,1.89,1.89,0,0,0-1.8768-1.8768,9.23,9.23,0,0,1-4.3732-.2632c-.26-.1183-.2093-.0759-.277-.4229a2.56,2.56,0,0,1-.0011-.5579c.0557-.4724.0131-.1257.008-.1063-.1372.525.4289-.34.56-.4861a28.7329,28.7329,0,0,0,6.2356-10.4073c1.095-3.439,1.1955-7.041-.6026-10.2713a11.5761,11.5761,0,0,0-9.1705-5.8,20.837,20.837,0,0,0-10.0257,1.4665,1.8918,1.8918,0,0,0-.6733,2.5679,1.9217,1.9217,0,0,0,2.5678.6733Z"/><circle cx="659.4541" cy="184.8339" r="2.8832"/><path d="M661.3985,184.88c-.0024.08-.0113.16-.0137.24.0055-.1843.012-.0663.0006-.015-.0284.1267-.055.2522-.0953.3759-.0117.036-.1109.2668-.0159.061-.0212.0461-.0427.0918-.066.1369a3.1256,3.1256,0,0,1-.2383.3847c.1153-.1615.0182-.0232-.0184.0146-.0435.045-.0841.0925-.1286.1366-.0354.0353-.0719.07-.1091.103-.03.0265-.2262.1676-.0439.0418a3.492,3.492,0,0,1-.3186.2005c-.0446.0241-.09.0452-.135.0686-.157.082.1328-.0294-.0937.0335-.1245.0345-.2457.0734-.3731.0978-.0569.0109-.2264.0172-.0223.0054-.0664.0038-.1323.01-.1988.0115s-.1343.0014-.2015-.0016c-.0014,0-.2634-.0189-.1133-.0045.1467.0142-.1031-.02-.108-.0213q-.1138-.0241-.2256-.0572c-.0739-.0219-.1457-.0482-.218-.0745.0334.0122.168.0833.0144.0035a3.6937,3.6937,0,0,1-.3289-.1862c-.0026-.0017-.2007-.1466-.0882-.0586s-.0761-.0687-.0783-.0707a3.3385,3.3385,0,0,1-.3087-.3272c.1214.1443.0344.0458.0122.0091-.0392-.0645-.0827-.1258-.12-.1913q-.0376-.0654-.072-.1329c-.0188-.0371-.1019-.2644-.0284-.0536a3.64,3.64,0,0,1-.1124-.3671c-.0118-.05-.0211-.1014-.0312-.1523-.037-.1848.0065.1459-.0066-.103-.0063-.1211.0022-.2406.0031-.3615.002-.2544-.0453.1817.0062-.0645.0107-.051.02-.102.0322-.1527a3.342,3.342,0,0,1,.1146-.3676c-.0769.2107.0121-.0182.03-.0535q.0521-.1008.1118-.1974c.0323-.052.077-.1024.1046-.1567.0611-.12-.1412.1474.0155-.0171.0869-.0911.1686-.1835.2626-.2677.003-.0027.1937-.1536.0791-.07s.0868-.056.0888-.0573a2.892,2.892,0,0,1,.3986-.2157c-.0345.0153-.1754.06-.0117.01.0737-.0224.1458-.0478.22-.0674.05-.0131.1-.0248.1508-.0353.0068-.0014.2534-.03.1071-.02-.1507.0107.11-.0032.1122-.0032.0671-.0026.1341-.0026.2012-.0006s.1332.0078.2.0125c-.22-.0157.0093.0034.0618.0145a3.26,3.26,0,0,1,.4436.1317c-.1875-.0683-.028-.0128.0195.0134.0775.0427.156.0821.2314.1288.0428.0265.0834.056.126.0827q.1277.0927-.01-.0109.0582.0476.1138.098c.0931.0844.1757.1774.2609.2694.1628.1759-.0887-.1566.0357.0487.0391.0646.0826.1257.12.1913s.07.1337.1054.2009c.09.172-.0364-.1467.0212.0574.0424.15.085.2946.1174.4476.0117.0551-.0007.1638-.0019-.0159.0007.1064.0126.2128.0123.32a.9384.9384,0,0,0,1.8768,0,3.879,3.879,0,0,0-2.4947-3.6265,3.82,3.82,0,0,0-4.2,1.0649,3.8193,3.8193,0,1,0,6.6947,2.5616.9463.9463,0,0,0-.9384-.9384A.9572.9572,0,0,0,661.3985,184.88Z"/><circle cx="685.0609" cy="185.2719" r="2.8832"/><path d="M687.0054,185.3184c-.0024.08-.0114.16-.0138.24.0056-.1843.0121-.0663.0006-.015-.0283.1267-.055.2522-.0952.3759-.0118.036-.1109.2668-.0159.061-.0213.0461-.0428.0918-.066.1369a3.1377,3.1377,0,0,1-.2383.3847c.1153-.1615.0181-.0232-.0185.0146-.0435.045-.0841.0925-.1285.1366q-.0532.053-.1092.103c-.03.0265-.2262.1676-.0438.0418a3.4936,3.4936,0,0,1-.3187.2005c-.0445.0241-.09.0452-.135.0686-.157.082.1328-.0294-.0936.0335-.1246.0345-.2458.0734-.3731.0978-.057.0109-.2264.0172-.0223.0054-.0664.0038-.1323.01-.1989.0115s-.1343.0014-.2015-.0016c-.0013,0-.2633-.0189-.1133-.0045.1468.0142-.103-.02-.108-.0213q-.1139-.0241-.2256-.0572c-.0738-.0219-.1457-.0482-.218-.0745.0334.0122.168.0833.0144.0035a3.7078,3.7078,0,0,1-.3289-.1862c-.0026-.0017-.2006-.1466-.0881-.0586s-.0761-.0687-.0783-.0707a3.3147,3.3147,0,0,1-.3087-.3272c.1214.1443.0344.0458.0121.0091-.0391-.0645-.0827-.1258-.12-.1913q-.0376-.0654-.0719-.1329c-.0189-.0371-.1019-.2644-.0285-.0536a3.6143,3.6143,0,0,1-.1123-.3671c-.0118-.05-.0211-.1014-.0313-.1523-.0369-.1848.0066.1459-.0065-.103-.0064-.1211.0021-.2406.0031-.3615.002-.2544-.0454.1817.0061-.0645.0107-.051.02-.102.0322-.1527a3.3211,3.3211,0,0,1,.1147-.3676c-.077.2107.0121-.0182.03-.0535q.0519-.1008.1118-.1974c.0322-.052.077-.1024.1046-.1567.061-.12-.1412.1474.0155-.0171.0868-.0911.1685-.1835.2625-.2677.003-.0027.1937-.1536.0791-.07s.0868-.056.0889-.0573a2.8851,2.8851,0,0,1,.3985-.2157c-.0344.0153-.1754.06-.0116.01.0736-.0224.1457-.0478.22-.0674.05-.0131.1-.0248.1508-.0353.0068-.0014.2534-.03.1071-.02-.1507.0107.11-.0032.1122-.0032.0671-.0026.1342-.0026.2013-.0006s.1331.0078.2.0125c-.22-.0157.0092.0034.0617.0145a3.261,3.261,0,0,1,.4437.1317c-.1876-.0683-.0281-.0128.0195.0134.0774.0427.156.0821.2313.1288.0428.0265.0834.056.1261.0827q.1275.0927-.01-.0109.0581.0476.1138.098c.093.0844.1756.1774.2608.2694.1629.1759-.0887-.1566.0357.0487.0392.0646.0826.1257.12.1913s.07.1337.1054.2009c.09.172-.0363-.1467.0213.0574.0423.15.085.2946.1173.4476.0117.0551-.0007.1638-.0019-.0159.0007.1064.0126.2128.0124.32a.9384.9384,0,0,0,1.8768,0,3.8791,3.8791,0,0,0-2.4948-3.6265,3.82,3.82,0,0,0-4.2,1.0649,3.8193,3.8193,0,1,0,6.6948,2.5616.9464.9464,0,0,0-.9384-.9384A.9571.9571,0,0,0,687.0054,185.3184Z"/><path class="cls-4" d="M661.53,107.9447a45.7136,45.7136,0,0,0-5.5567,13.2532H690.99V107.9447Z"/><path d="M659.9091,106.9975a48.8055,48.8055,0,0,0-5.7458,13.7014,1.8978,1.8978,0,0,0,1.81,2.3758H690.99a1.9041,1.9041,0,0,0,1.8768-1.8768V107.9447a1.9041,1.9041,0,0,0-1.8768-1.8768H661.53a1.8779,1.8779,0,0,0,0,3.7536h29.46l-1.8768-1.8768v13.2532l1.8768-1.8769H655.973l1.81,2.3758A45.3309,45.3309,0,0,1,663.15,108.892C664.4333,106.837,661.1871,104.9506,659.9091,106.9975Z"/><path class="cls-2" d="M747.2942,141.8428h8.7584a5.0048,5.0048,0,0,1,5.0048,5.0048h0a5.0048,5.0048,0,0,1-5.0048,5.0048H744.1661"/><path d="M747.2942,143.72h5.8682c.897,0,1.7942-.0048,2.6913,0a3.3176,3.3176,0,0,1,2.6175,1.1195,3.1612,3.1612,0,0,1-2.4954,5.1365c-1.9546.029-3.9117,0-5.8664,0h-5.9433a1.8779,1.8779,0,0,0,0,3.7536c3.9559,0,7.919.0759,11.874,0a6.8827,6.8827,0,0,0,1.8782-13.5073,11.4818,11.4818,0,0,0-3.1716-.2559h-7.4525a1.8779,1.8779,0,0,0,0,3.7536Z"/><path class="cls-4" d="M501.1549,864.0186l10.1537-36.7343c-36.032-4.2048-48.362,19.8006-50.4667,24.64l-.074-.0223-6.2561,16.2656c2.2732,2.4985,6.2654,8.9025,10.6428,10.2179,5.7723,1.7346,7.5727-4.2569,13.3451-2.5223s3.9709,7.7257,9.7423,9.46,7.5723-4.2571,13.3443-2.5226,3.9718,7.7259,9.7439,9.46,7.5733-4.2567,13.346-2.522,3.9708,7.7255,9.7421,9.46c5.7732,1.7348,7.5737-4.2567,13.3469-2.5218s3.9731,7.7263,9.7467,9.4612,7.5746-4.2563,13.3489-2.521c3.5251,1.059,4.2272,3.7044,5.553,5.9994a2.8429,2.8429,0,0,0,5.2265-.7319l1.7608-7.1618,2.4874-12.2848Z"/><path d="M502.9647,864.5176l8.9129-32.2454,1.2408-4.489a1.9069,1.9069,0,0,0-1.81-2.3757c-11.2438-1.2816-22.9161-.07-32.9983,5.35a44.826,44.826,0,0,0-16.0043,14.6459,36.4277,36.4277,0,0,0-3.0846,5.5743l2.1195-.8625-.0741-.0223a1.9232,1.9232,0,0,0-2.3087,1.3108l-6.256,16.2657a1.87,1.87,0,0,0,.4826,1.826c4.2161,4.71,9.1276,13.4024,16.806,10.5928,2.7627-1.0108,5.0547-3.399,8.1787-2.36,2.9015.9651,3.4927,4.2762,5.1993,6.4617a8.8006,8.8006,0,0,0,9.5851,2.8793c2.6616-.9247,4.9651-3.3364,7.9628-2.5056,3.1144.8631,3.6529,4.0754,5.3931,6.3741a8.8339,8.8339,0,0,0,9.6087,3.1129c2.6318-.866,4.9693-3.3381,7.9172-2.596,3.1735.7988,3.7045,3.8643,5.4035,6.2118a8.8788,8.8788,0,0,0,9.5152,3.4007c2.6138-.7582,4.9572-3.2962,7.8378-2.7517,3.3311.63,3.9023,3.6474,5.5869,6.0766a8.9269,8.9269,0,0,0,9.4125,3.6844c2.6271-.6545,4.9381-3.2212,7.7722-2.881a5.3163,5.3163,0,0,1,4.038,2.7734c.8668,1.4752,1.4187,3.2432,2.93,4.2085a4.79,4.79,0,0,0,7.1909-3.09c.5528-2.1459,1.0671-4.3039,1.5878-6.4579.8941-3.6993,1.5312-7.4753,2.2865-11.2052l.301-1.4866a1.9221,1.9221,0,0,0-1.3108-2.3087l-8.4028-2.5208-20.1881-6.0564-24.56-7.3681L512.1,865.3428c-3.4158-1.0248-6.8314-2.24-10.2966-3.089-.05-.0123-.1-.03-.15-.0449-2.3187-.6957-3.31,2.926-.9979,3.62l8.4028,2.5208,20.188,6.0564,24.56,7.3681,21.1361,6.3408,6.9993,2.1a30.3341,30.3341,0,0,0,3.2972.9892,1.3623,1.3623,0,0,1,.15.0449l-1.3108-2.3087-2.3462,11.5873c-.2667,1.3168-.613,2.6163-.9338,3.9208l-.8211,3.34c-.1517.6169-.2718,1.3719-1.07,1.4-1.0711.038-1.6275-1.9683-2.0479-2.7289a9.5684,9.5684,0,0,0-3.5107-3.8077c-3.3117-1.8979-6.7149-1.2856-9.8826.4788a9.32,9.32,0,0,1-3.4555,1.4346,5.1526,5.1526,0,0,1-4.044-1.4254,14.4289,14.4289,0,0,1-2.13-3.4865,10.1711,10.1711,0,0,0-2.9876-3.5556c-2.9985-2.1306-6.6611-1.929-9.7914-.2822-2.51,1.32-5.0271,2.8285-7.7121.8085a8.5452,8.5452,0,0,1-2.1775-3.1013,12.5457,12.5457,0,0,0-2.5924-3.7178,8.978,8.978,0,0,0-9.7883-1.3293c-2.6084,1.182-4.7814,3.1182-7.7573,1.6723-2.549-1.2385-3.1353-4.573-4.8836-6.6068a8.807,8.807,0,0,0-9.5179-2.3943c-2.6593,1.0039-4.8682,3.2554-7.8873,2.3677-2.91-.8557-3.4668-3.9283-5.062-6.1171a8.8931,8.8931,0,0,0-9.3863-3.4355c-2.5655.6916-4.8538,3.1761-7.6414,2.847-3.3864-.4-5.9845-3.9609-7.9458-6.4127-.95-1.1877-1.8514-2.42-2.8666-3.5546l.4827,1.8261,6.256-16.2657-2.3087,1.3108.0741.0223a1.888,1.888,0,0,0,2.1195-.8625,37.7269,37.7269,0,0,1,7.5784-11.16,42.2,42.2,0,0,1,21.3442-11.8154,60.08,60.08,0,0,1,19.9235-.7358l-1.81-2.3757-8.9129,32.2454-1.2408,4.4889A1.8784,1.8784,0,0,0,502.9647,864.5176Z"/><path d="M507.5031,841.7692l15.2976,4.0686c1.9689.5237,3.9342,1.064,5.9074,1.5712a19.7835,19.7835,0,0,0,13.75-1.4019,19.5383,19.5383,0,0,0,9.6321-10.9832c.47-1.3229.8111-2.7014,1.1993-4.0492L558.5521,812.7l4.1424-14.3845c.67-2.3257-2.9512-3.3186-3.6195-.9979l-8.7112,30.25q-.7254,2.5191-1.4508,5.0381a16.3751,16.3751,0,0,1-5.1225,8.084,15.6259,15.6259,0,0,1-12.6668,3.4184c-1.9051-.3478-3.7834-.9477-5.6521-1.4447L508.501,838.15c-2.3369-.6216-3.3338,2.9982-.9979,3.6195Z"/><path d="M559.5461,881.1791a27.2916,27.2916,0,0,1,2.9647-6.8642,18.8835,18.8835,0,0,1,16.9931-8.3407,25.3872,25.3872,0,0,1,6.27,1.469l5.8712,1.9091c2.3026.7487,3.289-2.8745.9979-3.62-4.1162-1.3385-8.2776-3.0881-12.6211-3.4732a22.7233,22.7233,0,0,0-19.7534,8.7743,29.0842,29.0842,0,0,0-4.3424,9.1474c-.7453,2.3037,2.8778,3.29,3.62.9978Z"/><path class="cls-3" d="M529.5842,828.7551a16.4,16.4,0,0,1,1.2512,10.6353"/><path d="M527.9637,829.7024c.1317.2321.2221.4838.3448.72-.3275-.63-.0617-.1441.0082.0386q.0966.2526.1836.5089.2011.5914.3542,1.1979.1843.7268.3033,1.4679c.0177.1106.0719.5519.0146.07.0177.1485.0356.2969.05.4458q.0428.4278.0641.8575a17.5548,17.5548,0,0,1-.011,1.9492c-.0224.3656-.0551.7311-.1011,1.0945.0343-.2714-.01.0547-.0273.1622-.0365.2263-.0782.4515-.1219.6765a1.8773,1.8773,0,1,0,3.62.9978,19.9431,19.9431,0,0,0-.1418-8.6023,13.8036,13.8036,0,0,0-1.2986-3.4791,1.8771,1.8771,0,0,0-3.2411,1.8945Z"/><path class="cls-3" d="M535.9089,824.0727a16.4,16.4,0,0,1,7.4417,7.7"/><path d="M534.9616,825.6933a10.12,10.12,0,0,1,1.6983.98q.1851.1261.3666.2578.0889.0645.1771.13c.04.03.08.0608.1206.0908.1969.1463-.1954-.1445-.1955-.151.0009.06.3856.3115.4446.3612q.2343.1971.4612.4027a17.2426,17.2426,0,0,1,1.8875,2.0083c.0344.043.0673.0879.103.13-.3306-.3889-.1267-.1644-.0544-.0678q.1377.1839.2706.3713.2577.3636.497.74a18.6813,18.6813,0,0,1,.9918,1.7743,1.8879,1.8879,0,0,0,2.5679.6733,1.9244,1.9244,0,0,0,.6733-2.5678,18.7,18.7,0,0,0-7.48-8.0524,6.8975,6.8975,0,0,0-.6353-.3212,2.0609,2.0609,0,0,0-1.4462-.1892,1.8773,1.8773,0,0,0-.4483,3.43Z"/><path class="cls-3" d="M539.68,814.8331a16.4,16.4,0,0,1,10.0279,3.757"/><path d="M539.68,816.71a7.3439,7.3439,0,0,1,.8152.0242q.22.0157.44.0392c.0691.0073.1381.0162.2072.0234.341.0357-.47-.073-.1394-.0189.4235.0694.8447.1422,1.263.2388q.7227.1669,1.4285.3977.3745.1223.7433.2614c.14.0531.28.1092.4191.1647-.4038-.1605.0356.0166.1234.0561a17.6092,17.6092,0,0,1,1.784.9308q.4675.2788.9173.5863.1942.1328.3848.2706c.0525.0379.5088.3863.3143.233a1.9264,1.9264,0,0,0,2.6542,0,1.8964,1.8964,0,0,0,0-2.6542,19.8469,19.8469,0,0,0-7.6545-3.8386,13.8737,13.8737,0,0,0-3.7-.4681,1.8768,1.8768,0,0,0,0,3.7536Z"/><path class="cls-3" d="M542.8077,804.1979a16.4,16.4,0,0,1,10.028,3.7569"/><path d="M542.8077,806.0747a7.32,7.32,0,0,1,.8152.0241q.2205.0158.44.0392c.0692.0073.1381.0163.2072.0235.341.0356-.47-.073-.1393-.0189.4234.0693.8446.1421,1.263.2387q.7225.167,1.4284.3978.3745.1221.7433.2614c.14.053.28.1092.4191.1646-.4038-.1605.0356.0166.1234.0562a17.6084,17.6084,0,0,1,1.784.9307q.4675.2788.9173.5864.1943.1326.3849.27c.0524.0379.5087.3864.3142.233a1.9264,1.9264,0,0,0,2.6543,0,1.8966,1.8966,0,0,0,0-2.6542,19.8492,19.8492,0,0,0-7.6546-3.8385,13.8687,13.8687,0,0,0-3.7005-.4682,1.8769,1.8769,0,0,0,0,3.7537Z"/><path class="cls-2" d="M740.4125,320.14l62.5238,62.9956L671.19,384.21c2.1688,8.2461,3.534,20.208,3.534,33.5238,0,12.2191-8.77,36.9289-10.6353,45.0434l176.9086,4.7144q.9231-.0115,1.8408-.0465c45.9354-1.7493,72.7431-66.6026,33.6973-111.9127l-52.4215-71.75a68.477,68.477,0,0,0-55.2918-28.08H731.0285"/><path d="M739.0854,321.4668l6.2124,6.2592,14.9213,15.034,18.0565,18.1927,15.6181,15.7359,5.1528,5.1917a31.418,31.418,0,0,0,2.453,2.4715,1.3965,1.3965,0,0,1,.11.1106l1.3271-3.2039-13.1153.107-31.4916.2569-37.9662.31-33.0237.2694c-5.2976.0432-10.6307-.0892-15.9249.13-.0746.0031-.15.0012-.2244.0018a1.8983,1.8983,0,0,0-1.81,2.3758,105.3616,105.3616,0,0,1,2.806,17.3656c.5445,6.2131,1.082,12.6863.4916,18.9129a94.2862,94.2862,0,0,1-2.6994,13.9789c-1.26,5.0168-2.7024,9.986-4.173,14.9445-1.217,4.1033-2.5577,8.1958-3.5264,12.3675a1.9021,1.9021,0,0,0,1.81,2.3757l6.4169.171,17.131.4566,24.5538.6543,29.0113.7731,30.0794.8015,28.2281.7523,22.9936.6127,14.781.3939a61.8927,61.8927,0,0,0,13.1114-.7977,53.2177,53.2177,0,0,0,28.8567-16.263A67.602,67.602,0,0,0,895.386,421.207a74.4684,74.4684,0,0,0-1.2715-37.7421,77.6005,77.6005,0,0,0-8.5021-18.7728,85.0969,85.0969,0,0,0-6.5435-9.0556c-.5938-.7205-.7836-.8747-1.2734-1.5451l-9.4285-12.9049-16.716-22.8793-16.5362-22.6333q-4.5543-6.2334-9.1086-12.467a70.4343,70.4343,0,0,0-51.9747-29.1828c-3.1293-.2384-6.2636-.1984-9.3988-.1984H731.0285a1.878,1.878,0,0,0,0,3.7537h20.5184c7.4567,0,15.04-.3689,22.4846.1983a66.8,66.8,0,0,1,40.5132,17.9744c4.5383,4.2917,8.1339,9.231,11.7912,14.2368l13.9622,19.11L857.67,332.8759l13.6835,18.7287c3.6888,5.049,7.8149,9.8218,11.1115,15.132a72.3981,72.3981,0,0,1,11.0144,37.0953,68.3071,68.3071,0,0,1-8.3576,33.9049A55.5162,55.5162,0,0,1,862.08,460.5787a46.1338,46.1338,0,0,1-21.9292,5.0135l-10.3766-.2765-19.7688-.5268-26.0983-.6955-29.3652-.7826-29.6886-.7911-26.6925-.7113-20.7586-.5532-11.788-.3141-1.5254-.0407,1.81,2.3758c.8521-3.67,2.0113-7.2728,3.0848-10.8813,1.4916-5.0135,2.9683-10.033,4.2753-15.0984a116.486,116.486,0,0,0,3.0239-14.9432c.7357-6.0266.2728-12.26-.1809-18.2926A115.0554,115.0554,0,0,0,673,383.711l-1.81,2.3758,13.1153-.107,31.4917-.2569,37.9662-.31,33.0236-.2694c5.2977-.0432,10.6308.0894,15.925-.13.0746-.003.15-.0012.2243-.0018a1.898,1.898,0,0,0,1.3272-3.2039l-6.2124-6.2592L783.13,360.515l-18.0566-18.1927-15.618-15.7359c-2.5267-2.5458-4.971-5.228-7.6058-7.6632-.038-.0352-.0733-.0738-.11-.1106-1.7041-1.717-4.3585.937-2.6542,2.6542Z"/><path d="M664.0889,462.7772c2.9888,0,5.6876-5.2282,7.62-13.6343l.5132-3.257-17.5169-2.5024C654.7049,456.5212,661.1191,462.7772,664.0889,462.7772Z"/><path d="M664.0889,464.654c3.87-.0966,5.89-4.3688,7.1393-7.4422a48.4291,48.4291,0,0,0,2.8033-10.8269c.1418-.8994-.2212-2.1531-1.3108-2.3087l-15.2985-2.1855-2.2184-.3169a1.9089,1.9089,0,0,0-2.3757,1.81c.0231,5.4063,1.0091,11.0984,3.9388,15.738,1.5584,2.4679,4.13,5.4741,7.322,5.5325,2.4164.0443,2.4166-3.7094,0-3.7536-.5351-.01.3837.183-.1737-.0256a2.1689,2.1689,0,0,0-.2744-.0826c-.4715-.1057.2464.1427-.0313-.007-.2218-.1195-.4448-.23-.6586-.3648-.125-.0788-.2448-.1647-.3672-.2474-.3709-.2507.3085.2643-.0482-.034a12.4577,12.4577,0,0,1-1.4759-1.4567c-.1306-.1526-.2593-.3073-.3823-.4661.2147.2773-.1328-.19-.139-.1985-.2559-.37-.506-.7422-.7381-1.1282-2.4023-3.9965-3.1985-8.8321-3.2185-13.506l-2.3758,1.81,15.2985,2.1855,2.2184.3169-1.3108-2.3087a51.5432,51.5432,0,0,1-2.2962,9.4973,18.669,18.669,0,0,1-2.3458,4.73,4.2371,4.2371,0,0,1-.469.5416c-.1158.12-.2389.2308-.36.3454-.1318.1253-.2643.192-.0452.0446-.1745.1174-.8716.4-.4189.267-.1258.037-.2511.07-.378.1039.2607-.0686.2731-.0233-.01-.0162C661.6778,460.9606,661.6686,464.7145,664.0889,464.654Z"/><path class="cls-1" d="M672.2218,445.26c1.865-8.1145,2.5024-15.3074,2.5024-27.5265,0-13.3158-1.3652-25.2777-3.534-33.5238l-14.2343.116-18.5074.1509,1.2419,53.9018Z"/><path d="M674.0315,445.7593a108.6479,108.6479,0,0,0,2.4937-21.46,183.6981,183.6981,0,0,0-1.1934-27.9163A100.8,100.8,0,0,0,673,383.711a1.9075,1.9075,0,0,0-1.81-1.3779l-26.4169.2155-6.3248.0515a1.901,1.901,0,0,0-1.8768,1.8768l.42,18.234.669,29.0371.1528,6.6307a1.9082,1.9082,0,0,0,1.3779,1.81l28.5006,6.0289,4.0307.8527c2.3564.4985,3.3637-3.1191.9979-3.62l-28.5006-6.029-4.0308-.8527,1.3779,1.81-.42-18.2339-.669-29.0371-.1528-6.6308-1.8768,1.8768,25.3763-.2069,7.3654-.06-1.81-1.3779a116.7357,116.7357,0,0,1,3.2257,23.4445,172.4871,172.4871,0,0,1-.3922,25.7443,87.7656,87.7656,0,0,1-1.8019,10.8637C669.8754,447.1131,673.4935,448.1172,674.0315,445.7593Z"/><path class="cls-1" d="M670.9706,383.9512l-72.082-.1143a30.2485,30.2485,0,0,0-27.1734,16.0384L559.706,422.45a28.5,28.5,0,0,0,3.539,31.9524s5.4984,7.5925,14.3439,2.064c9.9513,3.3171,11.057,3.3171,16.0326,0,4.9756,4.4228,14.374,3.3171,17.1382,1.6585,3.87,4.4228,9.8,6.1835,14.575,1.4332l3.4553-11.7075c2.6356-8.93,9.6492-10.0976,25.2893-6.344"/><path d="M670.9706,382.0744l-23.6595-.0375-38.5755-.0612q-4.7515-.0075-9.503-.015a32.9215,32.9215,0,0,0-22.4487,8.3769c-4.5815,4.1495-7.1859,9.524-10.03,14.8712l-8.2377,15.4852c-4.1793,7.8562-5.321,16.9376-2.2327,25.4084,2.33,6.39,7.2177,14.299,15.0343,14.256a14.1785,14.1785,0,0,0,7.2189-2.2713l-1.4462.1892c3.309,1.1009,6.9291,2.6019,10.4826,2.5542,2.6394-.0354,4.8579-1.3233,6.9961-2.7434l-2.2743-.2935a16.6513,16.6513,0,0,0,10.5673,3.6556c2.9.0818,6.2761-.2264,8.8453-1.7036l-2.2744-.2935c3.7646,4.1975,9.7837,6.4365,14.9291,3.2617,1.0241-.6318,2.3692-1.502,2.79-2.6818.1247-.3495.2118-.7178.3168-1.0734l1.3334-4.5179a72.3973,72.3973,0,0,1,2.3607-7.7163,8.066,8.066,0,0,1,6.2312-5.0663c5.2022-1.08,11.1111.4489,16.1863,1.6584,2.3484.56,3.3505-3.0589.9979-3.62-5.0024-1.1922-10.3227-2.3993-15.5016-2.02-3.445.2521-6.8825,1.342-9.1906,4.0466-1.8432,2.16-2.6586,4.7908-3.4459,7.4585l-2.7089,9.1782c-.0536.1817-.1127.363-.1611.5461a.4887.4887,0,0,0-.0378.1279c-.0562-.3935.5691-.6209-.1538-.22-1.3718.7609-2.3324,1.5973-3.9871,1.6835-2.9272.1525-5.4338-1.6137-7.3046-3.7a1.9009,1.9009,0,0,0-2.2743-.2934c-1.66.9547-4.4469,1.2277-6.6349,1.1977-2.8676-.0394-5.995-.643-8.229-2.5628a1.9266,1.9266,0,0,0-2.2744-.2935,14.2367,14.2367,0,0,1-4.0725,2.1175,5.5375,5.5375,0,0,1-1.6533.0984,14.542,14.542,0,0,1-2.782-.52c-1.1662-.3024-2.3178-.6609-3.4651-1.028-.7142-.2285-1.4248-.4988-2.1462-.702a2.968,2.968,0,0,0-2.6634.476,8.8218,8.8218,0,0,1-6.422,1.0982,8.9854,8.9854,0,0,1-3.6012-1.9348c-.3675-.3281-.6913-.6869-1.0283-1.0437-.124-.1314-.4438-.5466.0555.0875-.2725-.3461-.5532-.6833-.83-1.0261a26.57,26.57,0,0,1-5.7641-14.8159A26.9717,26.9717,0,0,1,561.357,423.34c.9057-1.7227,1.8283-3.4367,2.7423-5.1549l8.6815-16.3192a32.2962,32.2962,0,0,1,5.4776-7.7469,28.5175,28.5175,0,0,1,13.2851-7.5634c3.9057-.9821,7.8738-.841,11.8587-.8347l37.1255.0589c9.9786.0158,19.973.1994,29.9507.0474.1639-.0024.3282.0006.4922.0008a1.8779,1.8779,0,0,0,0-3.7536Z"/><path class="cls-2" d="M654.4165,255.7026l2.5454-10.243a7.9367,7.9367,0,0,1,7.7025-6.0227h9.49a7.9367,7.9367,0,0,1,7.466,5.2441l11.872,32.9177,13.1913-31.3542a10.9079,10.9079,0,0,1,10.108-6.8076h19.8445a10.908,10.908,0,0,1,10.73,8.9456l1.3387,7.32v19.3937l-50.8334,35.6593-34.4082-23.7729Z"/><path d="M711.891,253.5218l5.0048,10.6353a1.8966,1.8966,0,0,0,2.12.8625l26.4713-6.5829,3.7173-.9244a1.9213,1.9213,0,0,0,1.3108-2.3087c-.4461-2.4392-.856-4.8878-1.3387-7.32A12.88,12.88,0,0,0,738.27,237.6812a53.8317,53.8317,0,0,0-6.89-.1211H720.77c-2.5757,0-5.2914-.21-7.7777.5793a13.371,13.371,0,0,0-8.2944,8.0249q-3.2832,7.8008-6.5642,15.6025L691.6825,277.1h3.62l-9.9206-27.5073-1.7783-4.93a10.3085,10.3085,0,0,0-6.2054-6.5456c-2.5646-.9253-5.6836-.5562-8.3626-.5562-2.9073,0-5.9342-.2965-8.6387.9837a9.902,9.902,0,0,0-5.0459,5.7455c-.34.9868-.5376,2.0363-.7888,3.047l-1.955,7.8673a1.9024,1.9024,0,0,0,.8625,2.12l15.3029,6.8817a1.912,1.912,0,0,0,2.5678-.6733l5.0049-10.01c1.0772-2.1545-2.16-4.0577-3.2412-1.8945l-5.0048,10.01,2.5678-.6733-15.3028-6.8816.8625,2.12,1.5685-6.3121c.5413-2.1781.8306-4.9707,2.4422-6.6551,2.041-2.1332,4.66-1.9206,7.3425-1.9206,2.3468,0,4.7677-.1779,7.1087.02,4.7246.3992,5.668,5.3594,6.9774,8.99l5.8786,16.3,4.1383,11.4744a1.8964,1.8964,0,0,0,3.62,0l12.3274-29.3007c.84-1.9976,1.2989-3.4235,2.9214-4.981,2.2684-2.1774,5.039-2.5022,7.9972-2.5022h17.5325c4.0738,0,7.8529,2.1882,9.1406,6.2213a69.9879,69.9879,0,0,1,1.6741,8.6665l1.3108-2.3087-26.4713,6.5828-3.7172.9244,2.1195.8625-5.0048-10.6352c-1.0279-2.1842-4.2649-.2809-3.2412,1.8945Z"/><path d="M318.28,482.3293H462.4912c6.6187,0,13.2692.19,19.8859,0,.0955-.0028.1914,0,.2869,0a1.8779,1.8779,0,0,0,0-3.7536H338.4525c-6.6187,0-13.2691-.19-19.8859,0-.0954.0027-.1913,0-.2868,0a1.8779,1.8779,0,0,0,0,3.7536Z"/><line class="cls-1" x1="693.4923" y1="277.5987" x2="682.857" y2="383.9512"/><path d="M691.6155,277.5987l-1.06,10.6035-2.5336,25.3361-3.077,30.77-2.6506,26.5066-.8809,8.8084c-.1369,1.3691-.3748,2.7688-.4145,4.1451-.0017.0608-.0122.1225-.0183.1831a1.89,1.89,0,0,0,1.8768,1.8768,1.9183,1.9183,0,0,0,1.8768-1.8768l1.06-10.6035,2.5336-25.3361,3.077-30.77,2.6506-26.5066.8809-8.8085c.1369-1.369.3748-2.7687.4145-4.145.0017-.0608.0122-.1225.0183-.1831a1.89,1.89,0,0,0-1.8768-1.8768,1.9183,1.9183,0,0,0-1.8768,1.8768Z"/><polygon class="cls-4" points="633.395 332.652 664.715 332.652 668.468 312.632 638.078 312.632 633.395 332.652"/><path d="M633.3953,334.5286h31.3192a1.8974,1.8974,0,0,0,1.81-1.3779l3.7536-20.0193a1.9044,1.9044,0,0,0-1.81-2.3758H638.0775a1.9054,1.9054,0,0,0-1.81,1.3779l-4.6822,20.0193c-.55,2.35,3.0687,3.3528,3.62.9979l4.6823-20.0193-1.81,1.3779h30.3907l-1.81-2.3758-3.7536,20.0193,1.81-1.3779H633.3953A1.878,1.878,0,0,0,633.3953,334.5286Z"/><path d="M181.0792,782.0587l37.91,20.9084,60.462,33.3469,13.9291,7.6823a1.9012,1.9012,0,0,0,2.5678-.6733l6.5953-12.6738,17.7326-34.0762,25.79-49.56,30.7686-59.1268,32.667-62.7752,31.486-60.5054,27.2253-52.3178,19.8848-38.212,9.4649-18.1884c4.4754-8.6,12.6377-14.7305,22.4682-15.5355,3.435-.2813,6.9481-.0959,10.3889-.0959h26.0655a1.8779,1.8779,0,0,0,0-3.7536H529.7346a93.7611,93.7611,0,0,0-10.8785.2147A31.4907,31.4907,0,0,0,497.5694,448.79c-3.6588,4.7785-6.1372,10.755-8.8992,16.0626l-17.4178,33.4711-25.61,49.2139-30.7308,59.0543L382.0731,669.696l-31.7323,60.9789-27.4251,52.7017-20.1046,38.6343-9.6877,18.6166-.4168.801,2.5678-.6733-37.91-20.9085L196.9027,786.5l-13.929-7.6824c-2.1168-1.1674-4.0126,2.073-1.8945,3.2412Z"/><path d="M24.0527,761.4138l37.91,20.9084,60.4621,33.3468,13.9291,7.6824a1.9055,1.9055,0,0,0,2.5678-.6733l7.2457-13.1049,19.2963-34.9,28.0311-50.698,33.2963-60.2211L261.8246,600.39l33.6307-60.8257,28.4373-51.4329,20.0349-36.2359c2.7452-4.9651,5.46-9.9486,8.2362-14.8964,6.3722-11.3564,17.95-17.3887,30.7795-17.3887h39.0373a1.8779,1.8779,0,0,0,0-3.7536H395.608c-10.7608,0-21.5814-.8836-31.4678,4.3077a38.94,38.94,0,0,0-15.8337,16.0544l-4.0046,7.2428-17.2212,31.147-26.6539,48.2074L267.8,581.8268l-35.14,63.5564L198.375,707.3911l-29.8445,53.9781-21.87,39.5553-10.5262,19.038-.4539.8211,2.5678-.6734-37.91-20.9084L39.8763,765.855l-13.929-7.6824c-2.1168-1.1674-4.0126,2.073-1.8946,3.2412Z"/><polygon class="cls-6" points="286.18 645.516 162.355 616.676 248.063 454.644 358.004 465.058 370.288 485.339 286.18 645.516"/><path d="M286.6788,643.7065l-12.3219-2.87-29.5887-6.8917-35.79-8.336-30.9254-7.203-10.1286-2.3591a46.5343,46.5343,0,0,0-4.8669-1.1335,1.959,1.959,0,0,1-.2035-.0474l1.1217,2.757,2.2957-4.34,6.2471-11.81,9.19-17.3741,11.2628-21.2926L205.31,539.4791,217.7087,516.04l11.6173-21.9625,9.8179-18.561,7.0586-13.3443c1.1-2.08,2.3906-4.1454,3.334-6.3029.0415-.095.0982-.1858.1468-.2777l-1.62.93,10.9448,1.0367,26.28,2.4892,31.6633,2.999,27.4923,2.604,9.0389.8562c1.4214.1346,2.9035.4093,4.333.41.0624,0,.1267.012.189.0179l-1.6206-.9295,10.7584,17.7621,1.5259,2.5193v-1.8946l-2.2475,4.28-6.1167,11.6487-9.0474,17.23-11.0395,21.0238-12.0932,23.03-12.2083,23.25L304.53,606.536l-9.6229,18.326-6.9224,13.1831c-1.0939,2.0832-2.2255,4.1511-3.2834,6.2529-.0459.0911-.0949.1807-.1423.271-1.1221,2.1369,2.1164,4.0364,3.2411,1.8946l6.5565-12.4863,16.1845-30.8219,20.9393-39.8771L351.9379,524.32l15.1482-28.8483,3.9287-7.4819c.2722-.5184.56-1.0317.8178-1.5575.678-1.3817-.0893-2.3133-.7748-3.4451l-10.2847-16.98c-.7652-1.2634-1.2939-2.6646-2.9353-2.8414-.8447-.0909-1.6924-.16-2.5382-.24l-31.7032-3.0028-44.9079-4.2536-29.1751-2.7634-1.4506-.1374a1.8307,1.8307,0,0,0-1.6206.9295l-2.2957,4.34-6.2471,11.81-9.19,17.3741-11.2629,21.2926-12.3388,23.3268L192.7092,555.28l-11.6173,21.9625-9.8179,18.561-7.0586,13.3443c-1.1107,2.1-2.26,4.1841-3.334,6.3029-.0473.0933-.0979.1851-.1469.2777a1.8985,1.8985,0,0,0,1.1217,2.757l12.3219,2.87,29.5886,6.8916,35.79,8.336,30.9255,7.203c4.9916,1.1626,9.9732,2.4668,14.9954,3.4927.0682.0139.1357.0316.2035.0474C288.0311,647.8735,289.0342,644.2552,286.6788,643.7065Z"/><polygon class="cls-4" points="308.067 460.328 287.918 458.419 278.717 475.915 299.565 478.196 308.067 460.328"/><path d="M308.067,458.451l-20.1491-1.9084a1.83,1.83,0,0,0-1.62.93l-9.2006,17.4955a1.9045,1.9045,0,0,0,1.6205,2.8241l20.8475,2.2806a1.8125,1.8125,0,0,0,1.62-.9295l8.5023-17.8677c1.0326-2.17-2.2027-4.077-3.2412-1.8945l-8.5022,17.8677,1.6206-.93-20.8475-2.2806,1.6206,2.8241,9.2006-17.4955-1.6206.93,20.1491,1.9084C310.4706,462.4323,310.455,458.6772,308.067,458.451Z"/><polygon class="cls-5" points="354.207 678.192 276.156 626.286 358.129 464.953 433.867 519.707 354.207 678.192"/><path d="M355.1547,676.5712l-7.7744-5.17-18.6659-12.4132-22.4706-14.9433-19.5212-12.982-6.4344-4.279a33.0208,33.0208,0,0,0-3.0526-2.03,1.4279,1.4279,0,0,1-.1327-.0883l.6733,2.5679,2.19-4.311L285.928,611.19l8.8177-17.3543L305.505,572.66l11.7862-23.1965L329.19,526.0458l11.0959-21.8378L349.664,485.75l6.7467-13.2782c1.0549-2.0763,2.3085-4.1443,3.2-6.2981.0386-.0933.0928-.1827.1387-.2729l-2.5678.6733,7.53,5.4438,18.0842,13.0737,21.88,15.818,18.9176,13.6762,6.214,4.4923a34.3248,34.3248,0,0,0,2.9823,2.1561,1.47,1.47,0,0,1,.13.0937l-.6733-2.5678-2.1306,4.2387-5.7982,11.5357-8.5757,17.0615L405.279,572.4122l-11.46,22.8-11.5127,22.9047-10.79,21.4667L362.3955,657.73l-6.5616,13.0544c-1.037,2.0632-2.1039,4.1143-3.1122,6.1917-.0437.09-.09.1789-.1348.2684-1.0821,2.1527,2.1549,4.0555,3.2411,1.8945l2.1305-4.2388,5.7982-11.5356,8.5757-17.0616,10.463-20.8163,11.46-22.8,11.5127-22.9048,10.79-21.4667,9.1208-18.146,6.5615-13.0544c1.0371-2.0632,2.1039-4.1143,3.1122-6.1918.0437-.09.09-.1789.1349-.2683a1.94,1.94,0,0,0-.6733-2.5678l-7.53-5.4438L409.2,499.569l-21.88-15.818L368.402,470.0748l-6.214-4.4923c-.9841-.7115-1.9472-1.519-2.9823-2.1561-.045-.0277-.0867-.0626-.13-.0937a1.8864,1.8864,0,0,0-2.5679.6733l-2.19,4.311L348.3564,480.05l-8.8177,17.3543L328.7794,518.58,316.9933,541.776l-11.8984,23.4174-11.0958,21.8378-9.3786,18.4582-6.7467,13.2782c-1.0663,2.0986-2.1642,4.1843-3.2,6.2981-.0449.0916-.0925.182-.1387.2729a1.9287,1.9287,0,0,0,.6733,2.5679l7.7743,5.17L301.6486,645.49l22.4707,14.9434,19.5212,12.9819c3.1407,2.0887,6.2222,4.416,9.487,6.3091.0457.0265.0887.0589.1327.0882C355.2773,681.1537,357.159,677.9041,355.1547,676.5712Z"/><polygon class="cls-4" points="393.738 520.34 379.603 510.308 390.506 488.85 404.333 499.26 393.738 520.34"/><path d="M394.6849,518.7193,380.55,508.6875l.6734,2.5679,9.5442-18.7843,1.3587-2.674-2.5678.6733,13.8273,10.4106-.6733-2.5678L393.45,516.7405l-1.3331,2.6522c-1.082,2.1527,2.155,4.0555,3.2412,1.8945L404.62,502.86l1.333-2.6521a1.9455,1.9455,0,0,0-.6733-2.5678l-13.8273-10.4107a1.8848,1.8848,0,0,0-2.5678.6733l-9.5443,18.7843-1.3587,2.674a1.9367,1.9367,0,0,0,.6733,2.5679l14.135,10.0318C394.764,523.3612,396.6409,520.1076,394.6849,518.7193Z"/><polygon class="cls-6" points="189.749 815.539 52.699 771.862 145.464 597.908 270.37 612.978 284.159 635.743 189.749 815.539"/><path d="M190.248,813.729l-13.6793-4.36-32.72-10.4275-39.5609-12.6078-34.285-10.9264-11.2247-3.5772c-1.7542-.5591-3.5419-1.3027-5.3413-1.7023-.0805-.0179-.16-.0511-.239-.0761l1.1216,2.757,2.48-4.6508,6.7495-12.657,9.9832-18.7207,12.1807-22.8416,13.3423-25.02,13.4678-25.2553,12.5574-23.548,10.6111-19.8981,7.6286-14.3053c1.1921-2.2357,2.58-4.4533,3.61-6.77.0437-.0985.1026-.1924.1534-.2877l-1.6206.93,12.4394,1.5009,29.8667,3.6035,35.9976,4.3432L254.9958,613l10.2625,1.2382c1.6113.1944,3.2784.5387,4.9024.5915.0694.0023.14.0169.21.0253l-1.6206-.93,12.0534,19.9,1.7354,2.8652v-1.8945l-2.5235,4.8057-6.8678,13.0791-10.1581,19.3453L250.5946,695.63l-13.5769,25.856-13.7053,26.1005-12.78,24.338-10.8,20.5681-7.7668,14.7911c-1.2259,2.3346-2.4895,4.6536-3.6793,7.0069-.051.1009-.1052.2-.1577.3-1.1221,2.1368,2.1164,4.0363,3.2411,1.8945l1.9625-3.7375,5.4116-10.3059,8.1471-15.5153,10.2211-19.4652,11.4812-21.8649,12.072-22.99,11.9491-22.7559,11.1124-21.1626,9.562-18.21,7.2978-13.898,4.32-8.227c.2735-.5207.565-1.0358.8218-1.565.7641-1.5745-.5908-3.0529-1.3826-4.36L272.7961,613.36c-.4419-.73-.88-1.7507-1.7027-2.0974a4.21,4.21,0,0,0-1.1093-.2082c-1.0819-.1328-2.1643-.2611-3.2464-.3917l-14.5523-1.7558-22.0065-2.6551-25.4866-3.0751L179.7,600.1614l-20.6044-2.486-12.03-1.4514-1.6019-.1933a1.8233,1.8233,0,0,0-1.62.93l-2.48,4.6508-6.75,12.657L124.63,632.9888,112.45,655.83,99.1074,680.85,85.64,706.1053l-12.5574,23.548L62.4711,749.5514l-7.6286,14.3054c-1.2027,2.2554-2.447,4.4939-3.61,6.77-.0494.0968-.1023.1919-.1534.2878a1.9042,1.9042,0,0,0,1.1216,2.757l13.6793,4.36,32.7195,10.4275L138.16,801.0665l34.285,10.9264c5.503,1.7537,10.99,3.7669,16.566,5.2795.0805.0218.16.0508.239.0761C191.557,818.0837,192.5446,814.4609,190.248,813.729Z"/><polygon class="cls-4" points="161.104 671.729 125.998 664.684 153.13 613.805 189.664 618.213 161.104 671.729"/><path d="M161.6028,669.9189l-30.8061-6.1817-4.2994-.8628,1.1216,2.757,9.1682-17.1925,14.6119-27.4,3.3521-6.2859-1.6206.9295,31.9417,3.8539,4.5915.554-1.6206-2.8241-9.648,18.0786-15.38,28.8184-3.5323,6.6187c-1.1369,2.13,2.1022,4.0287,3.2412,1.8945l9.648-18.0786,15.38-28.8184,3.5322-6.6187a1.9051,1.9051,0,0,0-1.6206-2.8241l-31.9417-3.8538-4.5915-.554a1.8235,1.8235,0,0,0-1.6206.9295L142.3417,630.05,127.73,657.451l-3.3521,6.2859a1.8963,1.8963,0,0,0,1.1216,2.757l30.8062,6.1818,4.2994.8628C162.9638,674.0118,163.9731,670.3946,161.6028,669.9189Z"/><polygon class="cls-5" points="277.241 833.084 178.497 793.953 270.51 612.861 359.42 666.098 277.241 833.084"/><path d="M277.74,831.2742l-9.8131-3.8888-23.5686-9.34-28.5195-11.3019-24.665-9.7745-8.16-3.2337a40.6668,40.6668,0,0,0-3.8451-1.5238,1.8333,1.8333,0,0,1-.1722-.0682l1.1217,2.757,2.4594-4.84,6.6934-13.1735,9.9-19.4848,12.08-23.7745,13.2322-26.0425L237.84,681.2958l12.4553-24.5136,10.5261-20.7165,7.57-14.8978c1.1847-2.3316,2.5656-4.6473,3.5859-7.0574.0437-.1034.1028-.2024.1537-.3026l-2.5678.6733,8.8523,5.3006,21.2549,12.727,25.6016,15.33,22.2347,13.3138,7.3086,4.3762a36.2362,36.2362,0,0,0,3.5052,2.0989,1.562,1.562,0,0,1,.1526.0914L357.8,665.151l-2.1949,4.46L349.6308,681.75l-8.8364,17.9552-10.7826,21.91-11.8124,24.0025-11.926,24.233L295.15,792.4519l-9.4416,19.185-6.7541,13.7241c-1.0657,2.1654-2.1584,4.32-3.1979,6.4981-.0444.093-.0911.185-.1366.2776-1.0629,2.16,2.1734,4.0641,3.2411,1.8945l2.1949-4.46,5.9739-12.1386,8.8364-17.9552,10.7826-21.91,11.8124-24.0025,11.926-24.233L341.5105,706.73l9.4416-19.185,6.7541-13.7241c1.0657-2.1654,2.1583-4.32,3.1979-6.4981.0444-.093.0911-.185.1366-.2776a1.92,1.92,0,0,0-.6733-2.5678l-8.8523-5.3006L330.26,646.45l-25.6016-15.33-22.2347-13.3137c-3.5919-2.1507-7.13-4.4841-10.8138-6.4751-.052-.0281-.1018-.061-.1526-.0914a1.895,1.895,0,0,0-2.5678.6733l-2.4594,4.84-6.6935,13.1735-9.9,19.4848-12.08,23.7745L224.5245,699.229l-13.3573,26.2889-12.4554,24.5135-10.526,20.7165-7.57,14.8978c-1.195,2.3518-2.4215,4.69-3.5859,7.0575-.05.1015-.1025.2017-.1538.3026a1.9138,1.9138,0,0,0,1.1217,2.757l9.813,3.8888,23.5687,9.34,28.5194,11.3019,24.665,9.7744,8.16,3.2338c1.2689.5028,2.5415,1.1159,3.8451,1.5238.0584.0182.1152.0456.1722.0682a1.8919,1.8919,0,0,0,2.3087-1.3109A1.9191,1.9191,0,0,0,277.74,831.2742Z"/><polygon points="294.357 842.518 137.331 821.873 25.348 759.313 182.374 780.584 294.357 842.518"/><path d="M294.3574,840.6416,281.413,838.94l-32.0512-4.2139-40.57-5.3339-38.8109-5.1026L143.23,820.7722c-1.84-.2419-3.6824-.543-5.529-.7269-1.0388-.1035.9126.4957.4323.1264a13.6388,13.6388,0,0,0-1.6695-.9326L115.03,807.2649,80.41,787.9244,46.5035,768.9821l-19.2954-10.78-.9128-.51-1.4462,3.43,12.9443,1.7535,31.9295,4.3251,40.559,5.494,38.8331,5.26,26.7517,3.6237c1.8567.2515,3.74.6234,5.6093.76.0594.0044.32.0859.37.05-.0552.0394-.5979-.35-.3-.12a12.5652,12.5652,0,0,0,1.6087.89l21.3432,11.8043,34.5675,19.1183,34.0358,18.8243,19.3912,10.7248.9178.5076c2.1156,1.17,4.0112-2.0705,1.8946-3.2412L281.6035,833.32l-31.8756-17.63-35.7931-19.7962-25.7755-14.2557c-1.5805-.8742-3.1405-1.8285-4.7587-2.6319a9.7737,9.7737,0,0,0-3.0224-.5709l-22.24-3.0126-36.8442-4.9909L80.201,764.8661,45.2154,760.127l-18.5229-2.5091-.8456-.1145a1.9179,1.9179,0,0,0-2.2141,1.0867,1.8737,1.8737,0,0,0,.7679,2.3436l13.7915,7.7048,31.6986,17.7087,35.7077,19.9484,25.922,14.4816c1.5845.8852,3.148,1.849,4.77,2.6647a11.2674,11.2674,0,0,0,3.3906.6174l22.0856,2.9037,36.8834,4.8492,41.0983,5.4033,35.1492,4.6212,18.6144,2.4473.8455.1112c1.0135.1333,1.8672-.9582,1.8768-1.8768A1.9226,1.9226,0,0,0,294.3574,840.6416Z"/><circle cx="285.2862" cy="880.3674" r="27.2137"/><path d="M310.6231,880.3674a25.3363,25.3363,0,1,1-20.3514-24.8511,25.57,25.57,0,0,1,20.3514,24.8511c.0153,2.4145,3.7689,2.42,3.7536,0a29.1557,29.1557,0,1,0-.3806,4.6433,31.9538,31.9538,0,0,0,.3806-4.6433C314.392,877.9516,310.6384,877.9489,310.6231,880.3674Z"/><circle class="cls-4" cx="285.2862" cy="880.3674" r="9.0712"/><circle cx="141.3974" cy="864.1017" r="27.2137"/><path d="M166.7343,864.1017a25.3362,25.3362,0,1,1-20.3513-24.8511,25.5694,25.5694,0,0,1,20.3513,24.8511c.0153,2.4145,3.769,2.42,3.7537,0a29.1557,29.1557,0,1,0-.3806,4.6433,31.9678,31.9678,0,0,0,.3806-4.6433C170.5033,861.6859,166.75,861.6832,166.7343,864.1017Z"/><circle class="cls-4" cx="141.3974" cy="864.1017" r="9.0712"/><polygon class="cls-4" points="314.286 668.608 300.151 658.576 311.054 637.118 324.881 647.528 314.286 668.608"/><path d="M315.2332,666.9873l-14.135-10.0318.6733,2.5678,9.5443-18.7842,1.3587-2.6741-2.5678.6734L323.934,649.149l-.6734-2.5679-9.2621,18.4274-1.3331,2.6521c-1.082,2.1527,2.155,4.0556,3.2412,1.8945l9.2621-18.4273,1.3331-2.6521a1.9457,1.9457,0,0,0-.6733-2.5679l-13.8273-10.4106a1.8847,1.8847,0,0,0-2.5678.6733l-9.5443,18.7843-1.3587,2.674a1.9366,1.9366,0,0,0,.6733,2.5678l14.135,10.0319C315.3124,671.6292,317.1893,668.3756,315.2332,666.9873Z"/><path d="M152.3551,632.484a17.7885,17.7885,0,0,0,4.2875-1.0142c1.3146-.5137,3.0924-1.1444,3.9046-2.3764a2.3422,2.3422,0,0,0-1.5407-3.637c-1.4842-.3-3.3342.3024-3.8249,1.8593-1.0915,3.4632,3.2181,4.3643,5.6036,4.9138a53.3336,53.3336,0,0,0,9.2535,1.2721c2.4143.1227,2.4077-3.6312,0-3.7537a47.261,47.261,0,0,1-6.9249-.851q-1.6683-.3352-3.3109-.7856a5.8414,5.8414,0,0,0-1.2-.3791q-.08-.0558.066.1082.5126.6313-.6343,1.3153c.0474.0535.3029-.0051.3747.0234l-.8281-.4827.1417.1385-.4827-.8282.0639.2145v-.9978q.52-.5419.1417-.2828-.1338.0815-.2708.1574-.3407.1934-.69.37a11.2874,11.2874,0,0,1-1.2795.5478,13.7832,13.7832,0,0,1-2.85.7151,1.9374,1.9374,0,0,0-1.8768,1.8768,1.8878,1.8878,0,0,0,1.8768,1.8768Z"/><path d="M149.38,638.279a128.6233,128.6233,0,0,0,17.2442,2.5079,1.8929,1.8929,0,0,0,1.8768-1.8769,1.9139,1.9139,0,0,0-1.8768-1.8768,121.05,121.05,0,0,1-16.2463-2.3738,1.9206,1.9206,0,0,0-2.3087,1.3109,1.8964,1.8964,0,0,0,1.3108,2.3087Z"/><path d="M146.3483,646.1321a40.04,40.04,0,0,0,10.3905,2.283,1.8842,1.8842,0,0,0,1.8768-1.8768,1.9257,1.9257,0,0,0-1.8768-1.8768c-.43-.0376-.8589-.0806-1.2873-.132-.0717-.0086-.5648-.0746-.2343-.0283q-.3662-.0513-.7313-.11-1.1865-.19-2.3592-.4559a38.2926,38.2926,0,0,1-4.7806-1.4228,1.8862,1.8862,0,0,0-2.3086,1.3108,1.9267,1.9267,0,0,0,1.3108,2.3087Z"/><path d="M140.9094,653.843a7.8179,7.8179,0,0,0,.8835.7136,4.468,4.468,0,0,0,.6138.3678,6.086,6.086,0,0,0,1.7523.6,1.4215,1.4215,0,0,0,.7484.0335,1.3959,1.3959,0,0,0,.6978-.2227,2.1,2.1,0,0,0,.8625-1.1216,1.9,1.9,0,0,0-.1892-1.4462l-.2934-.38a1.8748,1.8748,0,0,0-.8282-.4826,4.5486,4.5486,0,0,1-1.0691-.3029l.4484.1892a4.6028,4.6028,0,0,1-.9923-.5828l.38.2935a4.7405,4.7405,0,0,1-.36-.3132,1.95,1.95,0,0,0-1.3272-.55,2.088,2.088,0,0,0-1.3271.55,1.8885,1.8885,0,0,0-.55,1.3271,1.9287,1.9287,0,0,0,.55,1.3271Z"/></svg>