<svg id="Layer_1" data-name="Layer 1" xmlns="http://www.w3.org/2000/svg" width="1000" height="1000" viewBox="0 0 1000 1000"><defs><style>.cls-1{fill:#458dc9;}.cls-2{stroke:#000;stroke-miterlimit:10;stroke-width:1.4577px;}.cls-3{fill:#fc7272;}.cls-4{fill:#fff;}.cls-5{fill:#ffc41f;}.cls-6{fill:#389b48;}</style></defs><path d="M331.2412,786.85l8.0711,33.9321a19.14,19.14,0,0,1-18.6206,23.5692H292.4411L274.22,789.6871"/><path d="M329.1327,787.4309l7.779,32.7039a19.0014,19.0014,0,0,1,.4,8.501,17.202,17.202,0,0,1-8.0447,11.2111c-5.3206,3.1273-11.88,2.3175-17.8068,2.3175H292.4411L294.55,843.77l-6.1571-18.4714-9.813-29.4389-2.2512-6.7536c-.8856-2.6567-5.11-1.518-4.2169,1.1625l6.1572,18.4715,9.8129,29.4389,2.2512,6.7536a2.25,2.25,0,0,0,2.1085,1.6052h26.47a25.2768,25.2768,0,0,0,9.3813-1.3989A21.6013,21.6013,0,0,0,341.3944,820.09c-1.2465-5.3834-2.5576-10.7527-3.8363-16.1285l-4.2085-17.693c-.6509-2.7368-4.8688-1.5781-4.2169,1.1625Z"/><path d="M13.6817,805.8151l-3.6765,24.73A23.4736,23.4736,0,0,0,33.2236,857.47H95.651l9.475-90.3777"/><path d="M11.5733,805.2338,8.1266,828.417a42.4636,42.4636,0,0,0-.5566,4.8961,25.5335,25.5335,0,0,0,2.0942,10.8274,25.8884,25.8884,0,0,0,15.2911,14.1553,30.76,30.76,0,0,0,10.2006,1.3611H75.2228c6.6911,0,13.4075.1714,20.0969,0,.11-.0028.221,0,.3313,0a2.2449,2.2449,0,0,0,2.1865-2.1866l.9409-8.9743,2.26-21.557,2.7354-26.0913,2.3669-22.5773c.3813-3.637,1.0362-7.3567,1.1548-11.0145.0017-.0542.0114-.1093.0171-.1633a2.2009,2.2009,0,0,0-2.1866-2.1865,2.236,2.236,0,0,0-2.1865,2.1865l-.9409,8.9744-2.26,21.5569-2.7354,26.0914-2.3669,22.5773-.7844,7.4821c-.1217,1.16-.353,2.3645-.37,3.5324-.0008.0539-.0115.11-.0171.1632l2.1866-2.1865H49.4085c-5.4527,0-10.9083.0512-16.3608-.0013a21.3825,21.3825,0,0,1-16.9139-8.5733,21.6181,21.6181,0,0,1-3.9692-15.926c1.1288-7.8919,2.3449-15.7723,3.5172-23.658l.1084-.7288a2.2582,2.2582,0,0,0-1.5272-2.69,2.2027,2.2027,0,0,0-2.69,1.5271Z"/><path class="cls-1" d="M161.1059,523.2885l228.301-56.47c74.218-17.7478,75.6332-47.9563,90.3383-89.8892l46.378-194.3638-78.8015-28.63-69.3132,200.47L246.9856,390.3642a43.1519,43.1519,0,0,1-10.6075,1.5312l-80.1125,1.5116"/><path d="M161.6872,525.3969l7.4785-1.85,19.981-4.9423,29.1933-7.2209,34.6618-8.5736,36.8043-9.1036,35.6621-8.821,30.7138-7.597,22.5793-5.585q5.3825-1.3314,10.7647-2.6627c14.0155-3.4468,27.9488-7.5757,40.8658-14.1279,11.5248-5.8459,21.8476-13.7911,29.4611-24.3074,6.6936-9.2457,10.899-19.9734,14.55-30.7088,1.9812-5.8265,3.8232-11.6991,5.7856-17.5318.6826-2.0288,1.4649-4.0136,1.9615-6.0949l3.447-14.4457,6.3614-26.66,8.1855-34.3042,8.7858-36.82,8.3193-34.865L523.8762,201.4l3.8483-16.1279.5071-2.1252a2.2472,2.2472,0,0,0-1.5271-2.69l-26.6116-9.6685L457.662,155.3725l-9.759-3.5457a2.2232,2.2232,0,0,0-2.69,1.5272l-6.887,19.9187-16.5416,47.8422L401.7674,279.01l-17.3139,50.076-5.7123,16.5214c-.89,2.573-2.0937,5.2114-2.7194,7.8651-.028.1188-.0817.2363-.1217.352l1.5272-1.5272-30.8487,8.4663-59.8819,16.4345-39.21,10.7609A59.5419,59.5419,0,0,1,232.626,389.78l-24.4475.4613-50.9527.9613-.96.0181c-2.8106.0531-2.82,4.4264,0,4.3732l43.5649-.822,27.7372-.5234c6.7392-.1271,13.4219-.0112,20.0043-1.7769,10.2455-2.7484,20.4607-5.6154,30.69-8.4228l58.8712-16.1571,39.9431-10.9622c1.32-.3623,2.4115-.5,3.0451-1.9555.2388-.5488.3972-1.1489.5926-1.7139l3.8222-11.0549L399.9378,297.66l20.31-58.74,18.5555-53.6671,10.1485-29.3516.4787-1.3846-2.69,1.5272,26.6116,9.6685,42.4309,15.4159,9.759,3.5457-1.5272-2.69-2.0542,8.6089-5.37,22.5054-7.6028,31.8624-8.6765,36.362-8.61,36.0837-7.3724,30.8968-5.0712,21.2524c-.9092,3.81-1.8519,7.3988-3.1063,11.1129-3.7519,11.1088-6.9281,22.5033-11.78,33.2036a73.7772,73.7772,0,0,1-20.0936,26.973c-12.2,10.0491-27.4366,15.9928-42.4394,20.412-5.86,1.7261-11.7983,3.1524-17.7264,4.6187l-17.4881,4.3257-27.3523,6.7656-33.7125,8.3388-36.4455,9.0148-36.1,8.9293L200.88,511.1982l-24.7187,6.1142L162.34,520.7309l-1.8157.4491c-2.7305.6754-1.5739,4.8938,1.1626,4.2169Z"/><path class="cls-1" d="M419.1144,235.5181,378.0085,354.4053l-131.023,35.959a43.1565,43.1565,0,0,1-10.6075,1.5311l-80.1124,1.5116,15.3276,159.73L407.1547,493.44c74.218-17.7477,95.0086-71.8143,109.7135-113.7471l28.2351-125.0412c-11.9239-1.3574-62.9653-.0748-77.7265-3.6452C448.55,246.4527,431.6863,240.9335,419.1144,235.5181Z"/><path d="M417.006,234.9368l-13.9355,40.3044L381,339.0733l-5.1,14.7507,1.5272-1.5272-31.014,8.5118L286.5062,377.25l-39.0237,10.71a59.834,59.834,0,0,1-14.9379,1.8213l-24.3662.46-50.9555.9615-.9573.018a2.2032,2.2032,0,0,0-2.1865,2.1866l1.5235,15.8767,3.6591,38.1316,4.4274,46.1387,3.8286,39.8978c.6207,6.468,1.1639,12.949,1.8625,19.4092.01.0919.0177.184.0265.276a2.2217,2.2217,0,0,0,2.7678,2.1085l21.5384-5.4584L246.09,536.5134l64.86-16.4371,58.9857-14.9484,34.7551-8.8078c5.8344-1.4786,11.6647-2.9463,17.38-4.8543a138.9055,138.9055,0,0,0,41.6408-21.9974c20.7116-16.1663,34.9465-38.4985,45.1128-62.4439,2.3022-5.4225,4.4392-10.9115,6.4685-16.4415,1.2827-3.4955,2.8266-7.0419,3.76-10.6464,1.1676-4.5086,2.0569-9.1091,3.0825-13.6514l13.5552-60.03L546.623,257.84l.5888-2.6073a2.2269,2.2269,0,0,0-2.1085-2.7678c-5.4716-.6068-11.0406-.57-16.5376-.6663-8.2258-.1442-16.4526-.22-24.6779-.3936-8.05-.17-16.1105-.3836-24.1419-.9831-2.9606-.2211-5.9307-.4736-8.8628-.95a136.1549,136.1549,0,0,1-13.8252-3.3753,280.04,280.04,0,0,1-36.84-12.467c-2.5585-1.0974-4.7888,2.6687-2.2072,3.776a276.9243,276.9243,0,0,0,32.2958,11.3388c8.5071,2.46,17.0008,4.8977,25.8352,5.7455,16.2569,1.56,32.6935,1.3759,49.0073,1.6258,6.6264.1015,13.3577-.01,19.9542.722l-2.1084-2.7678-8.0528,35.6621L520.68,352.8945l-4.8122,21.3112a120.4636,120.4636,0,0,1-4.724,15.0306c-8.4843,23.1488-19.1666,45.8483-36.1843,64.0262a124.709,124.709,0,0,1-34.1782,25.68c-11.0277,5.6577-22.7072,9.5032-34.7007,12.514-8.9435,2.2452-17.8771,4.5305-26.8155,6.7957l-54.8142,13.8913L259.4981,528.604,202.7328,542.99,172.3865,550.68l-1.3745.3484,2.7678,2.1084L172.2563,537.26l-3.6591-38.1316L164.17,452.99l-3.8285-39.8979-1.2625-13.156a42.3423,42.3423,0,0,0-.6-6.2532,1.87,1.87,0,0,1-.0264-.276l-2.1866,2.1866,30.8272-.5817,44.1179-.8325c5.5356-.1044,10.9422-.2567,16.36-1.7076,1.9543-.5235,3.9025-1.0711,5.8535-1.6065l35.9947-9.8787,47.8462-13.1313,35.7153-9.802a53.8763,53.8763,0,0,0,5.61-1.54c2.0431-.812,2.6991-4.9165,3.3354-6.7569l12.3694-35.7749,16.1583-46.7333,10.2589-29.6708.5112-1.4784C422.1444,233.434,417.9215,232.2888,417.006,234.9368Z"/><path d="M513.8635,233.9435l-5.8416,24.4821c21.3079,2.4257,36.1112,1.229,37.3536-3.9079C546.62,249.3747,533.9668,241.5324,513.8635,233.9435Z"/><path d="M511.7551,233.3622,506.64,254.8005l-.7263,3.0439a2.2257,2.2257,0,0,0,2.1085,2.7678,149.5185,149.5185,0,0,0,22.0637,1.1493c4.5873-.1643,9.7751-.4425,13.9145-2.6555,3.1512-1.6848,4.4781-4.8868,2.9064-8.1786-1.8428-3.86-6.2586-6.5478-9.7745-8.6588a140.4158,140.4158,0,0,0-22.6872-10.4336,2.2044,2.2044,0,0,0-2.69,1.5272,2.2349,2.2349,0,0,0,1.5271,2.69,149.93,149.93,0,0,1,19.0006,8.4805,58.0072,58.0072,0,0,1,6.5939,4.12,23.3149,23.3149,0,0,1,1.8591,1.5291c.3187.291.63.5907.9272.9033.1381.145.274.2923.406.4429.06.0688.5574.6973.2479.2817a8.5134,8.5134,0,0,1,.5616.8452c.0776.1355.1451.2754.22.4123.2439.4466-.1325-.4536.0086.0162a7.8273,7.8273,0,0,1,.2035.7827c-.1234-.6432-.0342-.25-.0374-.077-.0111.6149.0477-.3634.02.0287-.0168.24-.3336.7215-.005.1636-.1042.1769-.5716.79-.1287.2942-.1839.2058-.3744.392-.5771.5789-.3642.336.4068-.2553-.0292.0173-.18.1127-.3551.2317-.54.3376a9.7934,9.7934,0,0,1-.9353.4665c.4706-.2065-.1217.0426-.1831.064-.1905.0665-.38.1362-.5712.1994a22.76,22.76,0,0,1-2.6355.6784,44.9368,44.9368,0,0,1-6.93.7443,145.8032,145.8032,0,0,1-22.7366-1.1224l2.1084,2.7678,5.1154-21.4383.7263-3.0439C516.6247,231.789,512.409,230.6215,511.7551,233.3622Z"/><path class="cls-1" d="M191.1306,974.8155,168.5767,639.4582,283.8284,588.081s12.9659,79.5739,17.3451,139.298c2.1276,29.0172-2.424,143.2556-8.0036,247.4365"/><path d="M193.3172,974.8155l-.6047-8.9913-1.6454-24.4659-2.4225-36.019-2.9539-43.9227-3.2484-48.3015-3.2792-48.7588-3.0458-45.2874-2.5841-38.4232-1.8513-27.5279c-.2894-4.3034-.208-8.8347-.881-13.1-.0288-.1822-.0253-.375-.0377-.56l-1.0829,1.8881,39.0505-17.4081,61.9934-27.6356,14.2078-6.3336-3.2121-1.3067c2.3223,14.2581,4.41,28.5574,6.4183,42.8626,4.01,28.5663,7.6131,57.2168,10.0626,85.963,1.5723,18.451,1.4146,36.88,1.07,55.384-.5328,28.6275-1.5867,57.2462-2.7559,85.8538q-2.113,51.702-4.8586,103.3759-.3327,6.3572-.6731,12.7139c-.1506,2.8124,4.223,2.804,4.3731,0q2.7825-51.9887,5.0276-104.0046c1.2689-29.8354,2.413-59.6809,3.0864-89.5365.4037-17.895,1.17-36.0175-.1105-53.8954-2.097-29.2878-5.7342-58.4786-9.6974-87.5648-2.3446-17.207-4.84-34.3983-7.6012-51.5439q-.0621-.3853-.1246-.7706c-.25-1.5324-2.0679-1.8168-3.212-1.3067l-39.0506,17.408-61.9934,27.6356L167.4731,637.57a2.1183,2.1183,0,0,0-1.083,1.888l.6047,8.9914,1.6454,24.4658,2.4224,36.0191,2.954,43.9227,3.2484,48.3015,3.2792,48.7588,3.0458,45.2874,2.5841,38.4232,1.8513,27.5279c.2936,4.3654.5336,8.7384.881,13.1.0149.1863.0251.373.0377.56.1878,2.7931,4.5623,2.814,4.3731,0Z"/><path d="M79.9367,652.0374s-38.9729,7.4948-43.47,29.9792,52.4636,27.7307,52.4636,27.7307"/><path d="M79.3554,649.929a92.8941,92.8941,0,0,0-18.52,5.8787c-9.7329,4.1334-20.2623,10.4164-24.77,20.4656-1.8657,4.1593-2.8313,8.848-1.085,13.2144,1.5765,3.942,4.6733,6.92,8.12,9.2824,7.8287,5.3656,17.5521,8.053,26.7159,10.0769q5.9483,1.3139,11.9833,2.1875c2.25.33,4.5431.7367,6.8173.8687.1045.006.209.0211.3133.0307a2.2028,2.2028,0,0,0,2.1865-2.1866,2.2331,2.2331,0,0,0-2.1865-2.1865c-1.3887-.1284-2.7732-.3071-4.1559-.4871-.5913-.077.3091.0437-.0762-.01-.1613-.0226-.3228-.0443-.4841-.0668q-.588-.0819-1.1755-.1679-1.266-.1852-2.5293-.3886-2.8922-.4658-5.7677-1.0272a135.8568,135.8568,0,0,1-13.26-3.2416,65.9023,65.9023,0,0,1-12.6241-5.0286c-.9212-.4959-1.8261-1.0231-2.7063-1.5889q-.6362-.4089-1.2538-.8457c-.1883-.1335-.3742-.27-.56-.4065a3.0116,3.0116,0,0,1-.4035-.3126,24.5134,24.5134,0,0,1-2.0782-1.8831q-.4683-.4823-.9023-.9965c-.0729-.0868-.4127-.5123-.2689-.3259.1178.1527-.2583-.3585-.34-.477a14.2083,14.2083,0,0,1-1.238-2.1988c.2228.4926-.0413-.1065-.0891-.2454-.0628-.1823-.1272-.3638-.1841-.5481a13.1036,13.1036,0,0,1-.3177-1.2854c-.0441-.2185-.0848-.6061-.0355-.162-.0249-.2241-.0464-.4482-.06-.6733a11.8436,11.8436,0,0,1,0-1.382c.0119-.2071.0319-.4132.0517-.62.0316-.33-.059.3739-.0084.0428.0138-.0906.0262-.1818.0435-.2717.1189-.6192.2509-1.2336.4179-1.8419,1.3133-4.7825,4.3729-8.7408,8.1607-12.0694a55.4631,55.4631,0,0,1,13.1031-8.1982A109.5985,109.5985,0,0,1,80.17,654.2166c.1146-.0284.2323-.0483.3483-.0707,2.76-.5327,1.5917-4.7485-1.1626-4.2169Z"/><path class="cls-2" d="M213.2571,720.1852S194.568,824.9939,194.1248,864.0087c2.7578-99.0813,3.9275-154.2614,3.9275-154.2614S213.1536,694.05,213.2571,720.1852Z"/><path class="cls-1" d="M191.2989,975l8.5779-336.9142L72.3625,588.081S59.3966,667.6549,55.0174,727.379C52.89,756.3962,59.46,870.6346,65.0392,974.8155"/><path d="M193.4855,975l.2307-9.0612.6214-24.4087.926-36.3677,1.1255-44.209,1.2328-48.4183,1.2443-48.8747,1.1605-45.5777.9842-38.66.7025-27.5919c.1118-4.39.3362-8.7938.3357-13.1856,0-.1864.01-.3732.0143-.56a2.253,2.253,0,0,0-1.6053-2.1085l-12.6452-4.9588-30.3807-11.9138-36.96-14.494L88.6644,592.1374l-10.5331-4.1306c-1.6339-.6407-3.2795-1.4408-4.962-1.9458-.0765-.023-.151-.0593-.2255-.0885a2.1909,2.1909,0,0,0-2.69,1.5272c-2.3222,14.2581-4.41,28.5575-6.4182,42.8627C59.799,659.12,56.1519,687.96,53.6675,716.8972c-1.5892,18.51-1.2718,36.9377-.7118,55.4958.8687,28.791,2.2779,57.5663,3.73,86.3327,1.7394,34.4633,3.6293,68.9188,5.4843,103.3759q.3421,6.357.6828,12.7139c.15,2.7994,4.524,2.817,4.3731,0Q64.44,922.8138,61.6749,870.8109c-1.5272-29.6662-3.0107-59.3389-4.0406-89.0273-.38-10.9511-.7046-21.9065-.8107-32.8642-.0688-7.1076-.1266-14.2475.3661-21.343,2.0111-28.9618,5.6368-57.8427,9.5555-86.6,2.3447-17.2071,4.84-34.3983,7.6012-51.544q.0621-.3852.1245-.7705l-2.69,1.5271,12.6452,4.9589,30.3807,11.9138,36.96,14.494,31.8074,12.4733,10.5332,4.1306a39.5616,39.5616,0,0,0,4.9619,1.9458,1.7935,1.7935,0,0,1,.2256.0885l-1.6053-2.1085-.2307,9.0612-.6215,24.4087-.9259,36.3677-1.1256,44.209-1.2327,48.4183L192.31,849.4254l-1.16,45.5777-.9843,38.66-.7025,27.5919c-.1117,4.3888-.3477,8.7949-.3357,13.1856.0005.1863-.01.3733-.0142.56-.0717,2.8152,4.3015,2.8136,4.3731,0Z"/><path class="cls-1" d="M227.2094,392.0258H110.9017c-14.9239,0-22.7207,6.1712-29.1265,28.0733,0,0-64.6546,339.8848-71.4,412.59,47.3754-9.475,101.2536-39.2823,196.0612-123.176,40.8157,69.97,128.278,94.022,128.278,94.022L260.3716,446.3977"/><path d="M227.2094,389.8392H120.3921c-4.9622,0-10.1036-.2967-15.0357.3439a24.1873,24.1873,0,0,0-15.0972,7.4715c-5.1729,5.66-7.9662,13.2267-10.168,20.4419-1.8573,6.0862-2.5581,12.68-3.7347,18.918q-4.4319,23.499-8.8127,47.0076-6.2316,33.4271-12.3675,66.8719Q48.11,589.4228,41.2022,627.98,34.2608,666.7839,27.57,705.6318c-3.9152,22.8327-7.7489,45.6807-11.3425,68.5665-2.62,16.6889-5.1948,33.4027-7.1559,50.1843-.3232,2.7657-.6243,5.5342-.8826,8.3067-.141,1.514,1.5031,2.3626,2.7678,2.1085,21.3566-4.2912,41.7049-12.4185,60.9248-22.567,28.1123-14.8439,54.0671-33.6036,79.0064-53.2181,19.5388-15.3671,38.4773-31.4869,57.0949-47.9533l-3.4341-.4425c14.9918,25.58,36.844,46.4062,61.4311,62.7047a270.6945,270.6945,0,0,0,56.766,28.5546c3.75,1.3667,7.537,2.7063,11.3876,3.7675a2.212,2.212,0,0,0,2.69-2.69l-1.9953-9.5848-5.4-25.9435-8.0181-38.5183-9.742-46.8L300.998,630.8538l-10.815-51.9544L280.1,530.4618l-8.485-40.7612L265.51,460.37c-.9663-4.642-1.775-9.3526-2.9056-13.9582-.0482-.1963-.0827-.397-.1239-.595-.5732-2.7535-4.79-1.5882-4.2169,1.1625l1.9952,9.5848,5.4,25.9435,8.0181,38.5183,9.742,46.8,10.6692,51.2538,10.815,51.9544,10.0829,48.4377,8.485,40.7611,6.1056,29.331c.9548,4.5866,1.5477,9.4688,2.9056,13.9582.0579.1915.083.3987.1239.595l2.69-2.69c-10.7864-2.9726-21.3055-7.3746-31.439-12.0551-23.0632-10.6523-44.94-24.3723-63.6079-41.6748A173.2392,173.2392,0,0,1,208.3245,708.41a2.2174,2.2174,0,0,0-3.4341-.4425c-30.1321,26.65-61.08,52.6493-94.28,75.4325-21.4875,14.7458-44.1419,28.3453-68.5344,37.73a199.2984,199.2984,0,0,1-32.2824,9.451l2.7678,2.1084c1.3558-14.5527,3.5367-28.8808,5.7235-43.3377,3.2584-21.5406,6.8036-43.0379,10.431-64.5191q6.4077-37.9459,13.1651-75.8318,6.8921-38.8539,13.9867-77.6714,6.39-35.0295,12.8955-70.0378,4.9164-26.4709,9.8919-52.931,2.4784-13.1772,4.9757-26.351c.0834-.44.15-.8866.2512-1.3225,1.5614-6.714,4.5625-14.3829,9.18-19.6173,5.3059-6.0153,12.5679-6.8574,20.1282-6.8574H227.2094c2.8139,0,2.8185-4.3731,0-4.3731Z"/><path d="M145.3529,373.2574a67.3556,67.3556,0,0,0,26.8151-.1419c2.7451-.6147,1.5834-4.8318-1.1626-4.2169a59.6082,59.6082,0,0,1-16.7432,1.0257q-1.6168-.1014-3.229-.2657-.6879-.07-1.3747-.1515c-.1626-.0193-1.1264-.1431-.8217-.1015-.7756-.1058-1.5521-.2191-2.3214-.3651a2.245,2.245,0,0,0-2.69,1.5271,2.2066,2.2066,0,0,0,1.5272,2.69Z"/><path class="cls-1" d="M118.35,449.0705,231.286,561.2536,494.4285,513.475l12.8109,82.8567L260.4838,661.2794c-43.8358,7.2817-71,20.5738-122.2638-35.9531L68.5777,550.9715A101.1677,101.1677,0,0,1,51.6593,437.1123l6.9844-14.18a55.7882,55.7882,0,0,1,50.0471-31.1382h55.332"/><path d="M116.8038,450.6166l19.3073,19.1786,41.352,41.0764,39.05,38.79,11.0778,11.0039c1.4589,1.4492,2.5017,2.9934,4.76,2.6089,7.3913-1.2582,14.7585-2.68,22.1353-4.0191l46.934-8.5218,59.33-10.7724,59.8537-10.8676,48.5132-8.8085,24.78-4.4993,1.1127-.202-2.69-1.5272,4.3237,27.9648,6.897,44.6072,1.59,10.2847,1.5271-2.69-31.4794,8.2856-72.3865,19.0526-80.2161,21.1133-54.8006,14.4239c-3.3052.87-6.58,1.8437-9.9479,2.4232-14.486,2.4921-28.9841,6.22-43.76,6.3381-15.7506.1264-30.2256-5.1049-43.1846-13.9029-12.6776-8.607-23.17-19.6925-33.5874-30.8149l-49.3918-52.734q-8.6315-9.2156-17.2628-18.431a100.38,100.38,0,0,1-25.029-47.5008,99.2543,99.2543,0,0,1,7.6227-63.62c2.2877-4.7308,4.6376-9.4328,6.964-14.1447a54.9322,54.9322,0,0,1,17.4052-20.8066,53.949,53.949,0,0,1,29.0584-9.8888c3.3567-.1216,6.7291-.0367,10.0868-.0367h47.274c2.8139,0,2.8185-4.3731,0-4.3731H115.4659c-4.0433,0-8.1274-.13-12.1559.2592A58.6117,58.6117,0,0,0,56.5809,422.183q-3.4143,6.8987-6.8023,13.8108a103.4441,103.4441,0,0,0,1.13,93.8745c5.5187,10.5348,13.054,19.3724,21.1105,27.974l52.0972,55.6225c18.989,20.274,37.8408,43.1623,64.7944,52.7006,13.8477,4.9005,28.33,4.6517,42.6739,2.4913,7.4767-1.126,14.8867-2.65,22.3222-4.0126,2.78-.5092,5.6015-.8465,8.3359-1.5662L304.2561,652.02l77.3263-20.3528,78.85-20.7539,45.2541-11.9111,2.134-.5617a2.2489,2.2489,0,0,0,1.5272-2.69l-4.3238-27.9648-6.8969-44.6072-1.59-10.2847c-.1914-1.238-1.6413-1.7176-2.69-1.5272l-26.1733,4.7523-62.8547,11.4125L328.781,541.3375l-65.7237,11.9334-21.6507,3.9312c-3.3414.6067-7.0029.881-10.2605,1.8629a4.062,4.062,0,0,1-.4414.08l2.1274.5623-11.2339-11.159-26.9771-26.7972L161.986,489.3337l-28.2073-28.0192c-4.52-4.49-8.8544-9.4194-13.6784-13.5872-.072-.0622-.1366-.1357-.2043-.2029-1.9989-1.9856-5.0926,1.1052-3.0922,3.0922Z"/><path class="cls-3" d="M139.0142,391.0118V364.311c-7.0191-3.1635-12.2871-7.36-14.6753-12.5561-11.766-25.6,0-119.0706,0-119.0706H234.3861s16.6111,92.1259,0,119.0706c-5.6281,9.13-18.7289,15.0074-34.0455,17.7982v32.7278"/><path d="M141.2008,391.0118V364.311a2.15,2.15,0,0,0-1.083-1.888,35.3256,35.3256,0,0,1-9.8509-6.2628,18.5925,18.5925,0,0,1-3.12-3.7827,18.79,18.79,0,0,1-1.0132-1.9313c-.09-.1966-.2195-.5109-.0529-.1094q-.12-.29-.2355-.5827a53.0937,53.0937,0,0,1-2.7506-10.8877c-.3715-2.287-.5759-3.9455-.8208-6.3827-.2478-2.4654-.4329-4.937-.5743-7.4107-.3086-5.4006-.4129-10.8122-.4031-16.221.0206-11.3446.5362-22.6869,1.2919-34.0045q.9495-14.22,2.4077-28.4.4694-4.61.9915-9.2151c.1637-1.4373.4511-2.9084.5135-4.3543.0028-.0644.0161-.13.0241-.194l-2.1865,2.1866h105.548c1.4125,0,2.901.1351,4.3089,0,.0622-.006.1276,0,.19,0l-2.1085-1.6053c.7631,4.2351,1.411,8.4931,2.0363,12.75.6991,4.76,1.221,8.6306,1.8035,13.3709q1.0348,8.4228,1.8136,16.8745a340.7736,340.7736,0,0,1,1.618,36.67c-.1783,10.5711-.73,21.037-4.0513,31.0795-.3373,1.02-.7065,2.03-1.123,3.0206.1648-.3918-.0562.1238-.1134.25-.1008.2233-.2019.4463-.3067.6678q-.3252.6873-.6839,1.3581a23.6,23.6,0,0,1-5.2864,6.5559c-5.98,5.27-13.909,8.175-21.52,10.1219-2.2169.5671-4.4547,1.0448-6.7048,1.46a2.202,2.202,0,0,0-1.6053,2.1084v32.7278c0,2.8139,4.3731,2.8185,4.3731,0V369.5531l-1.6053,2.1085c14.0227-2.5851,30.9006-8.1442,37.1533-22.2576,4.2053-9.492,5.1947-20.3114,5.6647-30.5683a297.5778,297.5778,0,0,0-.9826-37.2835c-.886-11.0873-2.167-22.1417-3.7168-33.1551q-.768-5.457-1.64-10.8989c-.2754-1.7117-.46-3.4874-.8668-5.1747-.0174-.0722-.0261-.1474-.0393-.22a2.2008,2.2008,0,0,0-2.1084-1.6053H137.9022c-4.4459,0-8.9294-.1694-13.373,0-.0633.0024-.127,0-.19,0a2.2512,2.2512,0,0,0-2.1866,2.1865c-.4741,3.7693-.8816,7.5477-1.2774,11.3258q-1.443,13.7751-2.4355,27.593c-.8157,11.4572-1.3935,22.939-1.5,34.4262a216.0107,216.0107,0,0,0,1.5972,31.7294,64.0881,64.0881,0,0,0,2.5331,11.6166,24.0847,24.0847,0,0,0,2.9371,6.18,28.8267,28.8267,0,0,0,8.3906,7.71,46.1416,46.1416,0,0,0,5.5132,2.9335l-1.0829-1.888v26.7008c0,2.8139,4.3731,2.8186,4.3731,0Z"/><path d="M91.9493,229.7779c9.5354.8668,19.9376.8668,19.9376.8668s-13.0028,13.0028-16.47,39.8751c-2.4268,18.8082,7.48,50.1712,15.2856,70.5217a36.81,36.81,0,0,0,28.0569,23.098h0l3.3219-39.8751c-5.6942-4.45-13.87-21.4521-13.87-31.2065,0-14.7365,7.9108-18.2039,18.2039-18.2039s21.6712,19.4447,21.6712,33.8072l.8669-44.2094s72.6644,9.94,78.1619-21.6712c0,0,6.0679-49.41-48.5436-52.0109S103.2184,211.574,91.9493,229.7779Z"/><path d="M91.9493,231.9644c6.6207.5916,13.29.8639,19.9376.8669l-1.5462-3.7327a48.7576,48.7576,0,0,0-8.0184,11.67,81.9811,81.9811,0,0,0-9.3673,32.6943c-.7071,11.6033,1.8567,23.4712,4.745,34.638,1.5866,6.1343,3.419,12.2042,5.4155,18.217,1.8184,5.4764,3.6726,10.9929,5.8868,16.3245a39.2546,39.2546,0,0,0,29.1756,23.6059,2.23,2.23,0,0,0,2.7679-2.1085l1.537-18.45,1.1239-13.4911c.2115-2.5388.5465-5.1009.6371-7.6475.0615-1.73-1.77-2.7847-2.8069-4.0037a40.2486,40.2486,0,0,1-4.4778-6.8639,54.1649,54.1649,0,0,1-6.3579-17.7627c-.7106-5.0076-.0387-11.532,3.5254-15.1444a11.3988,11.3988,0,0,1,5.3209-2.9459,23.72,23.72,0,0,1,7.1951-.7869,8.2482,8.2482,0,0,1,2.8167.6748,15.2649,15.2649,0,0,1,2.9163,1.7658,27.6943,27.6943,0,0,1,5.82,6.413,45.2942,45.2942,0,0,1,7.3839,18.44,29.6057,29.6057,0,0,1,.32,4.3236c.0163,2.8163,4.3179,2.8153,4.3731,0l.2916-14.871.4679-23.8638.1073-5.4746-2.7678,2.1085c4.3381.592,8.7128.9462,13.0821,1.202a173.0232,173.0232,0,0,0,27.73-.3944c9.53-.9774,19.5329-2.8016,27.8858-7.7491,6.2189-3.6834,11.5255-9.7307,12.267-17.178a53.16,53.16,0,0,0-.5441-13.0223,48.5659,48.5659,0,0,0-8.4512-21.4527c-6.2972-8.6186-15.51-14.2381-25.7457-17.0028-7.4394-2.0094-15.1589-2.5047-22.8337-2.5723a172.37,172.37,0,0,0-27.0167,1.904,147.8468,147.8468,0,0,0-43.8315,13.497c-9.9268,4.9276-19.7953,11.261-27.0551,19.7592a42.6909,42.6909,0,0,0-3.798,5.1234c-1.4925,2.3954,2.2893,4.5933,3.7761,2.2072a31.074,31.074,0,0,1,3.3876-4.5555,56.935,56.935,0,0,1,4.8155-4.8736,82.6947,82.6947,0,0,1,13.02-9.4815,132.8838,132.8838,0,0,1,38.7694-15.177,158.813,158.813,0,0,1,24.356-3.6144,141.6956,141.6956,0,0,1,25.91.219c10.7043,1.2237,21.3077,5.05,28.8356,12.5731q1.1732,1.1722,2.2445,2.4407a25.44,25.44,0,0,1,1.7478,2.2583,41.7851,41.7851,0,0,1,3.1171,5.1715q.6686,1.3125,1.2481,2.6676c-.1833-.4271.0948.2315.1379.338q.1214.3.2384.6014.2647.6812.5083,1.37a50.5558,50.5558,0,0,1,1.5055,5.1145c.3842,1.61.6874,3.2358.93,4.8725.0129.087.0928.6677.0438.3036-.0457-.34.0243.1915.0368.295.0459.38.09.7605.13,1.1414q.1081,1.0428.1788,2.089a53.7253,53.7253,0,0,1,.0732,6.25c-.0255.5193-.0629,1.0373-.1079,1.5552-.0091.1044-.02.2087-.0322.3127-.0033.0287.1381-.6145.0021-.1579-.15.5022-.2212,1.0344-.3613,1.5415q-.1932.6991-.4378,1.3827c-.0858.24-.1769.477-.2714.7132-.0938.2343.0251-.0553.0378-.0848-.0621.1444-.126.2884-.1928.4307a20.165,20.165,0,0,1-1.4092,2.5306,11.6167,11.6167,0,0,1-1.4785,1.9226,23.378,23.378,0,0,1-2.088,2.063,16.3359,16.3359,0,0,1-2.0979,1.62c-.8575.5875-1.7455,1.13-2.6547,1.6334a36.6074,36.6074,0,0,1-5.551,2.52,72.7467,72.7467,0,0,1-13.6738,3.4075,150.4743,150.4743,0,0,1-27.72,1.3672c-5.7422-.1848-11.4917-.5721-17.1964-1.2653-.31-.0377-1.53-.2013-.3047-.0341a2.2276,2.2276,0,0,0-2.7678,2.1084l-.2916,14.871-.4679,23.8638-.1073,5.4746h4.3731c-.0493-8.5122-3.2047-17.1873-7.8284-24.2634-3.8929-5.9576-9.5261-11.9189-17.163-11.7157-6.4529.1718-13.1061,2.0679-16.5261,8.0031-3.9988,6.94-3.0856,15.7783-.7537,23.09a69.86,69.86,0,0,0,5.7411,13.1275c1.7976,3.1761,3.9019,6.602,6.7919,8.9076l-.64-1.5462-2.9106,34.9378-.4114,4.9373,2.7679-2.1084a35.0235,35.0235,0,0,1-25.1155-18.437c-2.511-4.8861-4.1421-10.3554-5.9162-15.5424-1.9491-5.6985-3.7546-11.4478-5.3588-17.2532-3.0367-10.9894-5.7062-22.4365-5.72-33.8987a68.2851,68.2851,0,0,1,2.423-16.958A78.3274,78.3274,0,0,1,104.85,245.453a64.1645,64.1645,0,0,1,6.0227-10.1705q.3174-.4332.6439-.8592c-.3951.5185.129-.1614.2374-.2966q.4425-.5518.9052-1.0873c.2508-.2885.5038-.5776.7738-.8485a2.2108,2.2108,0,0,0-1.5461-3.7327c-6.6478-.003-13.3169-.2753-19.9376-.8669a2.2033,2.2033,0,0,0-2.1865,2.1866A2.2324,2.2324,0,0,0,91.9493,231.9644Z"/><path d="M202.9107,284.2351a20.7638,20.7638,0,0,0-7.2456-2.7924,23.4456,23.4456,0,0,0-16.4595,2.7924c-2.4376,1.405-.2379,5.1853,2.2072,3.776a18.8745,18.8745,0,0,1,13.599-2.2433,22.2586,22.2586,0,0,1,2.4989.7191q.525.185,1.04.396c-.4426-.1813.3722.17.5059.2338a13.3268,13.3268,0,0,1,1.6466.8944c2.3539,1.5572,4.5466-2.2284,2.2072-3.776Z"/><path d="M200.1406,296.6407a23.1,23.1,0,0,0-13.6094.1815,2.1871,2.1871,0,1,0,1.1626,4.2169,22.1048,22.1048,0,0,1,3.404-.8266l.0741-.0109q.2156-.0256.4316-.0467.4241-.0412.85-.0645.77-.042,1.5408-.0253.7345.0158,1.4665.0833.3751.0346.7489.0828c-.54-.07.1232.0245.2314.0427a22.56,22.56,0,0,1,2.5372.5837,2.1871,2.1871,0,0,0,1.1626-4.2169Z"/><path d="M238.2913,295.3684a23.0383,23.0383,0,0,0-13.5712.99,2.2431,2.2431,0,0,0-1.5272,2.69,2.2091,2.2091,0,0,0,2.69,1.5271,21.0715,21.0715,0,0,1,3.3431-1.0462q.4293-.0945.8624-.17c.0793-.0138.9229-.13.4758-.0775.5105-.06,1.0224-.1029,1.5359-.1254a20.9527,20.9527,0,0,1,2.8609.0718c.2075.0194.4141.0443.6212.0669-.5931-.0649.1606.0255.2717.0436.4275.07.8521.1534,1.2751.2464a2.1871,2.1871,0,1,0,1.1625-4.2169Z"/><path d="M182.8873,396.1137l34.9171-2.4124a9.756,9.756,0,0,1,8.1438,2.8575c2.6831,2.845,2.9963,6.6176,1.7893,10.1785L221.4,425.4355l-2.8415,8.383a5.6387,5.6387,0,0,0-.4618,1.5378,9.1174,9.1174,0,0,0,.4854,2.1317c1.4441,5.9573,2.9273,11.9065,4.3328,17.8731a23.9366,23.9366,0,0,1-.7585,13.36q-.7383,2.1716-1.48,4.3419l-6.3346,18.58L202.237,527.1458l-.236.6923c-.4551,1.3348,1.6562,1.9079,2.1084.5813l10.7422-31.5079,6.9617-20.4193c1.506-4.4172,3.4453-8.9713,3.847-13.6507.3289-3.8306-.486-7.4375-1.377-11.1128l-2.6745-11.0323-1.0831-4.4679a5.9377,5.9377,0,0,0-.2364-.9753c-.2053-.4614-.2261.5559-.0039.2709a7.94,7.94,0,0,0,.7021-2.0712l1.4355-4.2352,6.9157-20.4026c.8991-2.6526,1.6651-5.1627,1.1315-8.0315a11.6324,11.6324,0,0,0-10.995-9.3545c-1.6078-.03-3.2453.1944-4.8472.3051l-10.642.7352-19.8778,1.3734-1.2209.0843c-1.3961.0965-1.4068,2.2838,0,2.1866Z"/><path d="M178.047,393.9272l-17.7074-.9229-28.195-1.4693c-2.0859-.1087-4.2555-.4047-6.3454-.3307-2.2918.0811-4.7726,1.68-6.3189,3.2792a11.7034,11.7034,0,0,0-3.2737,8.4562c.1252,3.44,2.0156,6.192,3.6725,9.0606l7.0967,12.2864,5.7007,9.87a4.32,4.32,0,0,0,.4026.6971c-.1868.0215-.0194-.7849-.1463-.3941a2.5141,2.5141,0,0,0-.0245.5982l-.22,5.3931-.54,13.2145a28.9164,28.9164,0,0,0,.5046,7.231,25.199,25.199,0,0,0,2.0736,5.9227,8.1414,8.1414,0,0,0,1.0635,1.8129c.945,1.0721,2.0724,2.0272,3.0932,3.0257l6.7974,6.6489,19.9207,19.4854,20.7515,20.298,12.1215,11.8568.5816.5688c1.0067.9847,2.5542-.56,1.5461-1.5462l-8.3392-8.157-19.0559-18.6395-20.83-20.3744-13.6606-13.3621c-.4116-.4027-.8776-.7876-1.2525-1.2252-1.2553-1.4653-1.9074-3.8032-2.4026-5.6464-1.142-4.25-.6971-8.625-.52-12.9614l.54-13.2135a3.251,3.251,0,0,0-.2632-1.8979c-.5825-1.07-1.2207-2.1134-1.83-3.1682l-12.762-22.0948a13.227,13.227,0,0,1-1.602-3.5871,9.4392,9.4392,0,0,1,2.4023-8.612,8.13,8.13,0,0,1,4.9449-2.63c.8089-.0311,1.6512.0861,2.4588.1281l25.1924,1.3129,23.1331,1.2056,1.2914.0673c1.4063.0733,1.4023-2.1135,0-2.1865Z"/><path d="M241.1387,283.3682a25.4245,25.4245,0,0,0-7.54-1.9433c-4.39-.5441-9.0639-.3414-12.8821,2.1231a15.0922,15.0922,0,0,0-6.6155,9.5134,20.1,20.1,0,0,0,1.3577,11.0505,41.3771,41.3771,0,0,0,8.7268,13.4636l-.5624-.9648a3.2968,3.2968,0,0,1-.0422,1.6907c.1751-.5315-.3861.6014-.075.1347-.0472.0707-.4772.4022-.1222.1491a3.71,3.71,0,0,1-.43.2553c-.3178.1673.4683-.1457-.1755.0735-.1877.0639-.3794.1155-.5721.1617a5.5375,5.5375,0,0,1-1.1865.1627,22.758,22.758,0,0,1-3.9569-.1945,2.1991,2.1991,0,0,0-2.1866,2.1866,2.2394,2.2394,0,0,0,2.1866,2.1865c3.7727.4489,9.3276.5116,10.7347-3.953a6.7739,6.7739,0,0,0,.2614-2.4443,7.5229,7.5229,0,0,0-.2192-1.5716,6.6482,6.6482,0,0,0-1.7115-2.2244,37.8721,37.8721,0,0,1-4.9123-6.9718c-1.9334-3.5628-3.7722-8.2455-2.8278-12.3547a10.731,10.731,0,0,1,8.6908-8.1853,23.2993,23.2993,0,0,1,8.4439.4369,24.3933,24.3933,0,0,1,2.8144.7822c.2628.0914.52.209.7846.2927.3457.1094-.5562-.2477-.1911-.0794a2.2507,2.2507,0,0,0,2.9916-.7845,2.2043,2.2043,0,0,0-.7844-2.9916Z"/><path d="M159.36,309.38a57.5182,57.5182,0,0,0-2.3749-7.0176c-1.5557-3.837-3.4544-8.1185-6.7184-10.8236a7.6533,7.6533,0,0,0-6.5992-1.89,2.1871,2.1871,0,1,0,1.1625,4.2169c.5786-.12-.2779-.0365.0736-.0178.1672.0089.3468-.0038.5147-.0059.5661-.0069-.2692-.103.05-.0015.2012.0639.4147.1045.6182.1646.5.1476-.1548-.1162.082.0266.1524.0919.3194.1624.4733.2531.159.0936.3108.197.4641.2993.4681.3126-.1639-.173.18.14a15.7589,15.7589,0,0,1,1.7568,1.862c-.33-.4161.0734.1078.1561.2235q.1978.2767.3865.56.4361.6526.83,1.3324c.4954.8494.9487,1.7231,1.3722,2.61q.2877.6026.5574,1.2136c.0948.2142.1874.4293.28.6445-.2082-.4856.12.2944.1755.433q.9137,2.2633,1.6494,4.5935c.247.7763.4872,1.5568.6935,2.3451.7117,2.72,4.931,1.5669,4.2169-1.1625Z"/><path class="cls-2" d="M118.8217,224.5768s-16.3829,2.9787-29.8228,21.36A1.187,1.187,0,0,0,90.484,247.7a35.7483,35.7483,0,0,1,16.2018-3.1855"/><path d="M216.7756,321.6887s-18.2038-2.4163-26.8723,18.1223c14.7364,4.8326,26.8723-10.8734,26.8723-10.8734s16.47,16.9142,26.0055,9.6653C237.1419,328.4146,237.9258,322.13,216.7756,321.6887Z"/><path d="M216.7756,319.5021a22.9973,22.9973,0,0,0-7.3605.5042,28.01,28.01,0,0,0-14.31,7.83,35.1659,35.1659,0,0,0-7.0894,10.8713,2.2305,2.2305,0,0,0,1.3067,3.2121c10.1724,3.2317,20.3044-2.1632,27.236-9.4327a26.3012,26.3012,0,0,0,1.7638-2.0031H215.23a55.8819,55.8819,0,0,0,6.6916,5.7142c4.091,3.0413,8.8273,5.7956,13.9878,6.3247a11.4638,11.4638,0,0,0,7.9758-2.0317,2.2482,2.2482,0,0,0,.7844-2.9916c-1.86-3.3781-3.2039-7.1278-5.51-10.2422a17.6925,17.6925,0,0,0-10.7317-6.5591,58.8537,58.8537,0,0,0-11.6521-1.1959c-2.8152-.0647-2.8142,4.3084,0,4.3731a56.7813,56.7813,0,0,1,9.5006.8327,26.4076,26.4076,0,0,1,3.5017.9087,11.092,11.092,0,0,1,2.4033,1.0791c.3711.2127.7261.4466,1.0791.6877.1172.08.4519.3478.16.113q.2517.2027.4927.4179.4389.3918.84.8233.183.1967.3579.4008c.0838.0976.4964.6193.2188.2541a26.5243,26.5243,0,0,1,2.5185,4.27c1.007,2.02,1.9558,4.0657,3.0449,6.0438l.7844-2.9917a7.1235,7.1235,0,0,1-5.2866,1.4777,17.77,17.77,0,0,1-5.9468-1.8306,44.312,44.312,0,0,1-10.0743-7.0362c-.6988-.6259-1.3925-1.2626-2.048-1.9342a2.196,2.196,0,0,0-3.0923,0c-5.6218,7.2472-15.3228,13.3045-24.7449,10.3111l1.3067,3.212c2.5477-5.956,6.4482-11.2557,12.2037-14.3526a22.6387,22.6387,0,0,1,6.0281-2.22q.6757-.1521,1.3588-.2684c.228-.0388.4565-.0728.6851-.1074.2566-.0388-.1571.0208-.1683.0222.1594-.02.3188-.04.4786-.0563.7138-.073,1.4288-.1248,2.1463-.1395a15.1236,15.1236,0,0,1,2.252.0828,2.1975,2.1975,0,0,0,2.1866-2.1865A2.2422,2.2422,0,0,0,216.7756,319.5021Z"/><path d="M204.05,366.5675c-.4214.0926-.848.1642-1.2734.2351-.53.0882-1.061.165-1.5925.2415-.5114.0737.1533-.0188-.0628.0085-.2055.0261-.4109.0528-.6165.078q-.5865.0718-1.174.1359a143.8308,143.8308,0,0,1-15.4958.7544c-2.8138.0031-2.8187,4.3762,0,4.3731a142.9685,142.9685,0,0,0,15.7017-.7771,54.8469,54.8469,0,0,0,5.6759-.8325c2.7475-.6034,1.5848-4.82-1.1626-4.2169Z"/><polygon class="cls-4" points="192.568 392.026 190.148 501.507 134.484 391.794 192.568 392.026"/><path d="M190.3813,392.0258l-.2408,10.8954-.5784,26.1625-.6968,31.5241-.6071,27.4641-.1984,8.9737c-.031,1.4019-.1917,2.87-.0944,4.2705.0044.0627-.0028.128-.0042.191l4.0746-1.1036L186.4833,489.46l-13.2742-26.1637L157.1,431.5449l-13.8759-27.3495-4.5763-9.02c-.715-1.4093-1.3361-2.9539-2.1783-4.2933-.0377-.06-.0653-.1288-.0974-.1921l-1.8881,3.29,19.5866.0783,31.2626.125,7.2345.0289c2.8143.0113,2.818-4.3618,0-4.3731l-19.5865-.0783-31.2626-.125-7.2346-.0289a2.2113,2.2113,0,0,0-1.888,3.29l5.5525,10.9439,13.2742,26.1637,16.1089,31.7509,13.8759,27.35c2.24,4.4151,4.2825,9.0214,6.7545,13.3133.0357.0619.0651.1283.0975.1921,1.0192,2.0089,4.029.96,4.0746-1.1036l.2408-10.8954.5784-26.1626.6968-31.524.6071-27.4641c.0973-4.3989.3911-8.844.2928-13.2442-.0014-.0635.0028-.1275.0042-.191C194.8167,389.2106,190.4435,389.2113,190.3813,392.0258Z"/><path d="M147.5333,416.3072l26.48-6.7948V395.1961l-26.48-6.7949a8.9318,8.9318,0,0,0-11.8419,8.4445v11.0171A8.9318,8.9318,0,0,0,147.5333,416.3072Z"/><path d="M148.1146,418.4157l23.1656-5.9444,3.3145-.8505a2.223,2.223,0,0,0,1.6052-2.1084V395.1961a2.225,2.225,0,0,0-1.6052-2.1085l-24.3825-6.2566a34.6818,34.6818,0,0,0-4.353-1.0219,11.2037,11.2037,0,0,0-10.3381,4.6585c-1.6873,2.3287-2.0162,5.01-2.0162,7.7874v7.6495c0,3.09.2636,6.0136,2.21,8.59a11.2225,11.2225,0,0,0,12.4,3.9211c2.6665-.8629,1.5259-5.0868-1.1626-4.2169a6.8414,6.8414,0,0,1-7.9273-2.56c-1.1832-1.7922-1.1467-3.6938-1.1467-5.7341v-7.1006c0-2.0414-.0395-3.9409,1.1467-5.7341,1.7981-2.7182,4.9546-3.3861,7.9273-2.56.8375.2327,1.6855.4325,2.5273.6485l13.4632,3.4547,10.49,2.6916-1.6053-2.1084v14.3163l1.6053-2.1085-23.1656,5.9444-3.3145.8505C144.228,414.8978,145.3826,419.1167,148.1146,418.4157Z"/><path d="M202.5074,416.3072l-26.48-6.7948V395.1961l26.48-6.7949a8.9318,8.9318,0,0,1,11.8419,8.4445v11.0171A8.9318,8.9318,0,0,1,202.5074,416.3072Z"/><path d="M203.0886,414.1988l-23.1655-5.9444-3.3145-.85,1.6053,2.1085V395.1961l-1.6053,2.1084,22.6536-5.8129c3.4041-.8736,7.1134-2.4192,10.2675-.0082a7.1534,7.1534,0,0,1,2.633,6.0253v6.6645c0,2.0817.2985,4.5013-.5685,6.45a6.8646,6.8646,0,0,1-8.5056,3.576c-2.6838-.8685-3.8334,3.3526-1.1625,4.2169a11.2521,11.2521,0,0,0,11.2007-2.5405,11.5634,11.5634,0,0,0,3.409-8.6154v-7.2983c0-2.2968.1548-4.6507-.6461-6.8484a11.2094,11.2094,0,0,0-8.8243-7.2514,15.4771,15.4771,0,0,0-6.2121.7064l-13.4893,3.4613-11.918,3.0582a2.2231,2.2231,0,0,0-1.6053,2.1085v14.3163a2.225,2.225,0,0,0,1.6053,2.1084l23.1656,5.9444,3.3145.8505C204.6536,419.1156,205.8171,414.8989,203.0886,414.1988Z"/><rect class="cls-2" x="169.1731" y="387.76" width="13.7142" height="29.0418" rx="6.8571"/><line class="cls-4" x1="176.4335" y1="416.8018" x2="193.3746" y2="523.2885"/><path d="M174.3251,417.3831l1.69,10.62,4.0371,25.3761,4.9023,30.8141,4.2221,26.54,1.3939,8.7614c.22,1.3844.3458,2.829.6673,4.1945.0139.0588.0192.1209.0288.1806a2.2026,2.2026,0,0,0,2.69,1.5272,2.24,2.24,0,0,0,1.5272-2.69l-1.69-10.62-4.0371-25.3761-4.9022-30.8141-4.2222-26.5395-1.3939-8.7615c-.22-1.3844-.3458-2.8289-.6673-4.1945-.0138-.0588-.0192-.1208-.0287-.1806a2.2028,2.2028,0,0,0-2.69-1.5272,2.24,2.24,0,0,0-1.5272,2.69Z"/><polygon class="cls-4" points="924.284 93.955 924.284 418.701 639.193 418.701 639.193 25 924.164 25 924.284 93.955"/><path d="M922.0971,93.9552V405.47c0,4.1769-.3435,8.52,0,12.6865.0147.1789,0,.3647,0,.5446l2.1865-2.1866h-273.5c-3.6426,0-7.4788-.346-11.11,0-.1574.015-.323,0-.4815,0l2.1865,2.1866V40.9815c0-5.0654.3262-10.2542,0-15.3121-.0142-.2211,0-.4475,0-.6694l-2.1865,2.1866H912.5572c3.6473,0,7.4891.3471,11.1246,0,.1576-.0151.3235,0,.4822,0L921.9774,25l.04,23.2575.0644,37.1161.0149,8.5816c.0049,2.8137,4.378,2.8188,4.3731,0l-.04-23.2575-.0644-37.116L926.3506,25a2.2187,2.2187,0,0,0-2.1866-2.1866H650.7993c-3.7028,0-7.4227-.1039-11.1245,0-.16.0045-.3217,0-.4822,0A2.2184,2.2184,0,0,0,637.006,25V402.72c0,5.1006-.0976,10.2121,0,15.312.0043.223,0,.4464,0,.67a2.2183,2.2183,0,0,0,2.1866,2.1865h273.5c3.6979,0,7.4129.1038,11.11,0,.16-.0045.3212,0,.4815,0a2.2184,2.2184,0,0,0,2.1866-2.1865V107.1863c0-4.2242.1033-8.4632,0-12.6865-.0044-.1813,0-.3632,0-.5446C926.47,91.1413,922.0971,91.1367,922.0971,93.9552Z"/><polygon class="cls-4" points="895.13 122.38 895.13 447.127 610.038 447.127 610.038 53.425 895.01 53.425 895.13 122.38"/><path d="M892.943,122.3805V433.8954c0,4.1769-.3435,8.52,0,12.6866.0147.1789,0,.3646,0,.5445L895.13,444.94H621.63c-3.6426,0-7.4788-.3461-11.11,0-.1574.015-.323,0-.4815,0l2.1865,2.1865V69.4067c0-5.0653.3262-10.2541,0-15.312-.0142-.2212,0-.4476,0-.67l-2.1865,2.1866H883.4031c3.6473,0,7.4891.3472,11.1246,0,.1576-.0151.3235,0,.4822,0l-2.1866-2.1866.04,23.2576.0644,37.116.0149,8.5817c.0049,2.8136,4.378,2.8187,4.3731,0l-.04-23.2576-.0643-37.116-.0149-8.5817a2.2186,2.2186,0,0,0-2.1866-2.1865H621.6452c-3.7028,0-7.4227-.104-11.1245,0-.1605.0045-.3217,0-.4822,0a2.2184,2.2184,0,0,0-2.1866,2.1865v377.72c0,5.1005-.0976,10.2121,0,15.312.0043.2229,0,.4464,0,.6694a2.2184,2.2184,0,0,0,2.1866,2.1866h273.5c3.6979,0,7.4129.1037,11.11,0,.16-.0045.3212,0,.4815,0a2.2183,2.2183,0,0,0,2.1866-2.1866V135.6115c0-4.2242.1033-8.4632,0-12.6865-.0044-.1813,0-.3632,0-.5445C897.3161,119.5666,892.943,119.5619,892.943,122.3805Z"/><path class="cls-3" d="M507.1876,596.7l63.85-16.2882a76.3209,76.3209,0,0,1,30.7134-1.4432h0c25.6676,4.0335,64.36,1.5971,95.8219-32.285l12.2051-31.1739a10.817,10.817,0,0,0-8.2825-18.2953l-38.4843,1.6994a52.07,52.07,0,0,0-18.2179,4.1609L611.52,517.3372l-7.7043-4.9441a63.8082,63.8082,0,0,0-44.6569-9.2866L494.28,513.6079l-15.3276,46.79Z"/><path d="M507.7689,598.8082l30.2327-7.7124q16.6746-4.2539,33.3494-8.5075a74.9683,74.9683,0,0,1,15.6824-2.3047,76.3555,76.3555,0,0,1,11.4057.4249c2.4744.2785,4.9291.7152,7.4011,1.0174a115.9655,115.9655,0,0,0,27.6753.1133,103.798,103.798,0,0,0,62.2169-30.11c1.4087-1.3966,3.3113-2.8692,4.0546-4.7348.2963-.7438.5838-1.4912.8757-2.2366l3.4552-8.8253,7.3257-18.711.4429-1.1311-.5623.9648a13.0049,13.0049,0,0,0-10.2905-22.0075q-11.2466.4817-22.4919.9931l-12.0546.5323a84.6637,84.6637,0,0,0-10.4367.9089c-8.4547,1.4288-16.3122,5.3979-24.1391,8.7529-7.0134,3.0064-14.1512,5.8189-21.0724,9.0329-.1388.0644-.2818.1208-.4225.1811h2.2072q-3.8521-2.472-7.7044-4.9441a66.0957,66.0957,0,0,0-21.5762-8.9019,66.9926,66.9926,0,0,0-23.6969-.7685c-1.4037.2029-2.8025.444-4.2024.6706l-20.6534,3.343L508.76,509.0616l-9.884,1.6c-1.64.2655-3.3324.4371-4.9545.8019-.0729.0164-.1486.0241-.2224.036a2.1721,2.1721,0,0,0-1.5272,1.5272l-4.9593,15.1389-8.1458,24.866c-.7017,2.142-1.4708,4.2742-2.1085,6.4364a2.6893,2.6893,0,0,0,.5364,2.589q.6481.8352,1.2981,1.669l14.4919,18.6324,7.83,10.0667c1.4333,1.8428,2.799,3.7755,4.3168,5.55.074.0866.1406.1808.2106.2708a2.1982,2.1982,0,0,0,3.0922,0,2.2425,2.2425,0,0,0,0-3.0923L499.22,582.9219l-15.1936-19.5346-3.528-4.536.5624,2.1274,5.18-15.8127,8.2548-25.199,1.8928-5.7779-1.5272,1.5272,16.5656-2.6813,30.98-5.0144c5.7713-.9341,11.54-1.8829,17.3139-2.8024a61.636,61.636,0,0,1,25.5634,1.35,70.4179,70.4179,0,0,1,19.842,9.2617c1.7355,1.1138,3.4433,2.4,5.2609,3.3761,1.2278.659,2.446-.0705,3.5929-.5621l11.42-4.8953,14.1394-6.061c2.6447-1.1337,5.2711-2.346,7.9644-3.3624a55.2514,55.2514,0,0,1,17.2717-3.3032l12.31-.5435c8.1059-.358,16.2121-.787,24.3209-1.074a8.7542,8.7542,0,0,1,9.2135,9.1288,8.201,8.201,0,0,1-1.0854,3.6881,24.8375,24.8375,0,0,0-1.9023,2.8029c-.3975.9855-.7751,1.98-1.1625,2.9691l-10.1754,25.99-.83,2.1188.5623-.9649c-13.1375,14.0952-29.629,24.6-48.3021,29.5842a111.0172,111.0172,0,0,1-44.1362,2.3292,90.3243,90.3243,0,0,0-16.555-1.14,80.0651,80.0651,0,0,0-16.582,2.3938c-2.126.5373-4.25,1.0841-6.3747,1.6262l-32.6273,8.3233c-8.1395,2.0764-16.3433,3.9869-24.4378,6.2341-.1342.0373-.27.0689-.4053.1034C503.8812,595.2865,505.0361,599.5053,507.7689,598.8082Z"/><path class="cls-1" d="M108.6906,391.7936a55.788,55.788,0,0,0-50.0468,31.1381l-6.9844,14.1806c-18.6061,37.7755-17.5145,92,11.2712,122.7331L132.573,634.2c51.264,56.5267,87.957,56.1,131.7927,48.8182l217.007-40.3359c-11.2941-14.5209-22.093-60.0053-23.7076-74.593a322.0632,322.0632,0,0,1-2.033-47.57L231.286,561.2536,118.35,449.0705"/><path d="M108.6906,389.607a58.5981,58.5981,0,0,0-46.3178,23.1294c-3.6471,4.8225-6.1737,10.2219-8.829,15.613-2.4756,5.0264-5.0283,10.0153-7.15,15.2055-13.0619,31.9527-13.5445,71.9879,3.7553,102.4983,4.23,7.46,9.7454,13.7474,15.5565,19.9517l19.7994,21.1392L128.4081,632.95c8.747,9.3389,17.5094,18.6027,27.401,26.7634,12.8424,10.595,27.2025,19.5342,43.2062,24.44,21.8247,6.69,45.0947,4.8463,67.2327.7314l37.5591-6.9812,68.1657-12.67,68.4277-12.7189,39.6917-7.3777,1.8617-.346a2.1953,2.1953,0,0,0,1.3068-3.2121c-3.9062-5.0887-6.49-11.2031-8.7852-17.1466a244.1729,244.1729,0,0,1-7.5555-23.4418,240.0692,240.0692,0,0,1-8.1525-44.1667,297.0476,297.0476,0,0,1-.9488-36.3046,2.2157,2.2157,0,0,0-2.7678-2.1084l-22.34,4.0562-53.6387,9.7391L314.41,543.9469l-56.087,10.1837-18.4354,3.3473c-2.8526.518-6.0331.7273-8.8051,1.5987a3.1417,3.1417,0,0,1-.3774.0686l2.1274.5623-11.2238-11.149-26.9568-26.7771L162.0325,489.38l-28.21-28.022c-4.5375-4.5073-8.89-9.45-13.73-13.6381-.0694-.06-.1316-.1307-.1968-.1954-1.9989-1.9856-5.0926,1.1052-3.0922,3.0922l16.1846,16.0767,36.3254,36.0833,38.0008,37.7475,21.68,21.5352c.8651.8593,1.4536,1.4477,2.8824,1.301.4423-.0454.8885-.1613,1.3256-.2407l8.7721-1.5927,36.6568-6.6557,52.12-9.4634,55.0717-9.9993,45.6067-8.2807,23.7254-4.3078,1.0585-.1922-2.7678-2.1085a290.1981,290.1981,0,0,0,.6681,32.6493,215.073,215.073,0,0,0,2.83,24.3159,281.9558,281.9558,0,0,0,12.5617,46.1213c2.5831,6.9481,5.4271,14.25,9.9794,20.18l1.3068-3.212-27.2891,5.0723-62.927,11.6964-70.1542,13.04L271.45,679.4852c-15.6526,2.9093-31.5045,5.4327-47.479,4.6006A99.4408,99.4408,0,0,1,183.35,673.0232c-16.9863-8.7983-31.5709-21.6364-44.6615-35.44-11.75-12.3905-23.3259-24.9549-34.9994-37.4182L65.2085,559.0805c-21.23-22.6664-26.9394-55.9351-22.3846-85.8674a126.4909,126.4909,0,0,1,6.4782-25.1468,171.9629,171.9629,0,0,1,7.1784-15.8055c2.4577-4.99,4.7325-10.1549,7.85-14.7779a53.6169,53.6169,0,0,1,44.36-23.5028c2.8131-.016,2.8191-4.3891,0-4.3731Z"/><path d="M464.2543,607.6458c5.0239,21.5312,11.3244,35.5674,16.676,34.975,5.6577-.6263,8.7742-17.4374,8.6281-41.6354Z"/><path d="M462.1459,608.227a148.51,148.51,0,0,0,7.0056,23.0354c1.8,4.3443,3.9447,9.5367,7.9306,12.356,3.1854,2.2531,6.6275.96,8.7275-2.0086,2.7392-3.8725,3.6145-9.2133,4.3185-13.7873a170.6941,170.6941,0,0,0,1.6168-26.8371,2.2108,2.2108,0,0,0-2.7678-2.1084l-22.0921,5.8149-3.2119.8454c-2.7193.7157-1.5661,4.9351,1.1625,4.2169l22.0921-5.8149,3.212-.8454-2.7679-2.1085a186.3626,186.3626,0,0,1-1.0561,22.6732,73.9531,73.9531,0,0,1-1.37,8.0989c-.2644,1.1394-.5649,2.2716-.9245,3.3849-.153.4735-.316.944-.4939,1.4087a7.1846,7.1846,0,0,1-.43,1.0046,12.91,12.91,0,0,1-1.1571,1.9761c.3194-.4436-.2388.2541-.3807.4011-.11.1138-.2327.2132-.3507.318.2868-.2547.225-.1468-.0211-.0073-.1215.0688-.2514.1314-.37.2035.2254-.1369.4077-.1225.0888-.051a3.3665,3.3665,0,0,0-.3323.0826c.3937-.1329.314-.108-.0019-.0266-.2845.0734-.2315-.0475.1.0354-.1405-.0352-.2842-.0665-.4251-.1-.0844-.02-.4918-.1856-.1672-.0474.3334.142-.2182-.1236-.2935-.1705-.1252-.0782-.248-.1595-.3722-.239-.3594-.23.0447.0485-.0565-.0389a11.7868,11.7868,0,0,1-.88-.834,10.4783,10.4783,0,0,1-1.5-1.94,42.15,42.15,0,0,1-3.3851-6.4907c-3.2554-7.5295-5.3629-15.5964-7.23-23.5625C465.7209,604.3256,461.5032,605.485,462.1459,608.227Z"/><path class="cls-4" d="M494.4286,513.4751l-15.9468,2.8954-22.85,4.1488a322.0632,322.0632,0,0,0,2.033,47.57,343.4866,343.4866,0,0,0,6.5892,39.5562l25.3041-6.66,17.6812-4.6536L500.5757,570.04a162.7279,162.7279,0,0,1-4.7422-31.0394Z"/><path d="M493.8474,511.3667l-31.6813,5.7523-7.1152,1.2919a2.211,2.211,0,0,0-1.6053,2.1084c-.9641,23.1313,1.2129,46.5389,5.0485,69.3377,1.0359,6.1577,2.2375,12.2878,3.6518,18.37a2.2173,2.2173,0,0,0,2.69,1.5272l18.6-4.8957,14.5819-3.838,9.8034-2.58a2.2232,2.2232,0,0,0,1.5271-2.69l-6.5248-25.743a162.4885,162.4885,0,0,1-4.6852-29.0738c-.2892-4.3166-.4871-8.6406-.7249-12.96l-.7979-14.4985c-.154-2.7987-4.5281-2.8167-4.3731,0q.7007,12.7305,1.4013,25.4609a167.6061,167.6061,0,0,0,4.8357,31.7323q1.5792,6.2482,3.1668,12.4944l3.4852,13.75,1.5272-2.69-17.5291,4.6135-17.4214,4.5856-8.0347,2.1148,2.69,1.5272a347.1663,347.1663,0,0,1-8.6424-69.32c-.15-5.7408-.1409-11.4867.0983-17.225l-1.6053,2.1085,30.0917-5.4637,8.7048-1.58a2.206,2.206,0,0,0,1.5272-2.69A2.2347,2.2347,0,0,0,493.8474,511.3667Z"/><ellipse class="cls-5" cx="712.9005" cy="505.1373" rx="219.4271" ry="47.9997"/><path d="M930.141,505.1373a11.1032,11.1032,0,0,1-2.64,6.7716,32.74,32.74,0,0,1-7.7207,6.68c-9.0819,5.8969-19.5969,9.5486-29.9017,12.6474-33.1823,9.9784-68.2131,14.1783-102.6479,16.89A958.2771,958.2771,0,0,1,653.6511,549.18c-36.3512-2.2232-73.1261-6.1221-108.4437-15.3438-11.477-2.9968-23.0654-6.522-33.6208-12.0252a50.1459,50.1459,0,0,1-10.1408-6.6417c-2.2275-1.9694-4.33-4.43-5.1535-6.7226a8.66,8.66,0,0,1,.0689-6.8024c.8633-2.2564,3.0244-4.7481,5.2828-6.7131,7.1368-6.21,16.5849-9.91,25.3911-13.0068a291.83,291.83,0,0,1,41.9974-10.8116c18.0519-3.4563,36.2965-5.8645,54.5851-7.6487a942.6507,942.6507,0,0,1,132.597-3.2051c38.0981,1.667,76.5075,5.1837,113.7652,13.602,12.7083,2.8714,25.4815,6.275,37.4833,11.4171,7.1013,3.0424,15.6489,7.1669,20.1708,13.2663a16.7309,16.7309,0,0,1,1.8747,3.2831,8.0457,8.0457,0,0,1,.6324,3.31c.0245,2.8127,4.3977,2.8194,4.3731,0-.0621-7.1321-5.6954-12.5048-11.1453-16.2994-8.9639-6.2413-19.6721-10.0764-30.0192-13.309a347.8045,347.8045,0,0,0-45.8348-10.5072c-19.3356-3.2666-38.8438-5.512-58.3857-7.095a955.8732,955.8732,0,0,0-137.0462-1.108c-36.9609,2.3259-74.4633,6.3318-110.3086,16.0055-11.6554,3.1455-23.4587,6.8978-34.0685,12.7607-6.29,3.4759-13.3851,8.2772-15.7585,15.4473-2.1015,6.3486,1.239,12.4425,5.8288,16.707,7.1236,6.6187,16.6178,10.6105,25.6141,13.9334,13.6341,5.036,27.8674,8.4377,42.1078,11.2453,18.3621,3.62,36.9436,6.1322,55.56,8.0116a938.42,938.42,0,0,0,136.3674,3.4052c38.807-1.75,78.0018-5.3917,115.9069-14.2061,12.9152-3.0033,25.82-6.63,37.9475-12.0617,7.5116-3.3643,15.7472-7.6823,20.5126-14.6676a14.9809,14.9809,0,0,0,2.7221-8.262C934.5387,502.3226,930.1656,502.32,930.141,505.1373Z"/><ellipse class="cls-5" cx="712.9005" cy="503.0197" rx="174.2509" ry="28.941"/><path d="M884.9649,503.02c-.0023.1914-.0185.3791-.0331.57.0583-.7616.0149-.0885-.0483.0987-.0627.1857-.1155.3769-.1769.5635-.1094.3326.071-.159.0834-.1856a4.2115,4.2115,0,0,1-.1894.3915c-.2151.3607-.4227.7139-.6694,1.0551.3872-.5354-.086.0986-.1975.2179-.2071.2216-.4108.4438-.6283.6556a11.513,11.513,0,0,1-2.4416,1.9125,35.418,35.418,0,0,1-3.7063,2.0835c-7.2557,3.5773-15.6252,5.7078-23.6311,7.5359-26.6254,6.08-54.1437,8.5226-81.3525,10.1508a1000.4544,1000.4544,0,0,1-106.0279.6427c-28.7539-1.3332-57.7309-3.6108-86.0071-9.2078-9.1288-1.8069-18.3327-3.9168-27.0146-7.3271a42.7172,42.7172,0,0,1-7.9482-3.9839,11.1706,11.1706,0,0,1-2.3913-1.9155c-.1781-.1775-.346-.3631-.5175-.5467-.0974-.1042-.5867-.7559-.1975-.2179a11.653,11.653,0,0,1-.7266-1.1668c-.3008-.5384.04.1782-.0488-.0942-.0607-.1867-.1142-.3777-.1769-.5635-.0682-.2023-.1042-.8462-.0483-.0987-.0171-.2292-.0245-.4539-.0317-.6836-.0038-.1181.0684-.7007.0085-.2783-.0612.4312.0576-.2241.0866-.3322.0461-.1721.1062-.3382.1618-.5071.14-.4245-.2344.4792-.0325.0736.0555-.1116.1036-.2283.1678-.3353.1107-.1848.2206-.3711.33-.5564.0851-.1438.5435-.7285.1376-.2211a11.9906,11.9906,0,0,1,.9979-1.0953,15.8954,15.8954,0,0,1,1.2419-1.0816c-.4012.317.3074-.2218.4178-.3q.3855-.2733.7819-.5308c6.0445-3.9458,13.2133-5.9884,20.2-7.8577,24.9434-6.6733,51.0976-9.2318,76.7726-11.13a983.9443,983.9443,0,0,1,105.2592-1.9218c30.0565,1.0017,60.28,3.06,89.9526,8.1337a216.0124,216.0124,0,0,1,30.0935,6.9578,69.1287,69.1287,0,0,1,9.7489,3.8371,34.1446,34.1446,0,0,1,3.74,2.14c.2329.1558.4616.3173.6907.4785.147.1034.291.2118.4338.3208-.06-.0457-.34-.2723-.03-.02a15.7861,15.7861,0,0,1,1.3261,1.1921c.1569.16.3041.3288.4571.4925.26.2781.362.4611.19.2182a12.1461,12.1461,0,0,1,.658,1.0557c.3079.5448.0284.0028.0768.15.0614.1867.1141.3777.1769.5635.06.1768.1537.8811.0483.0987a4.67,4.67,0,0,1,.0331.57c.0326,2.8121,4.4058,2.82,4.3731,0-.0591-5.085-5.05-8.4485-9.0634-10.5718-7.4323-3.9324-15.7948-6.18-23.9307-8.1114-27.0574-6.4218-55.1492-8.94-82.8445-10.6462a997.4809,997.4809,0,0,0-108.8138-.676c-29.3949,1.4029-59.065,3.7826-87.9362,9.7134-9.0418,1.8573-18.1633,4.0341-26.6983,7.6154-4.6555,1.9536-10.6444,4.6252-12.8644,9.5354-2.1429,4.74,1.0865,8.8711,4.8121,11.5585,5.861,4.2277,13.3154,6.4582,20.1849,8.39a273.2846,273.2846,0,0,0,33.6232,6.8214c14.7741,2.2079,29.6459,3.7441,44.5387,4.8784a980.2829,980.2829,0,0,0,107.9965,2.0214c30.714-1.054,61.606-3.229,91.9047-8.5629a198.975,198.975,0,0,0,30.1976-7.2739c5.6337-1.9354,12.3759-4.3122,16.43-8.9437a8.9189,8.9189,0,0,0,2.464-5.748C889.3707,500.2048,884.9976,500.2029,884.9649,503.02Z"/><path class="cls-2" d="M866.1768,503.9273l36.3022-23.3948s-46.5865-14.0208-86.3187-14.521C798.8132,476.3052,866.1768,503.9273,866.1768,503.9273Z"/><polygon class="cls-4" points="866.177 153.935 866.177 504.047 558.818 504.047 558.818 79.594 793.473 79.594 866.177 153.935"/><path d="M863.99,153.9353V489.7824c0,4.4962-.392,9.1934,0,13.6774.0168.1926,0,.3934,0,.5871l2.1866-2.1865H571.3141c-3.9187,0-8.0729-.3957-11.9775,0-.1692.0171-.3485,0-.5191,0l2.1866,2.1865V96.8237c0-5.4561.3712-11.0608,0-16.508-.0163-.2382,0-.4826,0-.7217l-2.1866,2.1866H783.8941c2.9638,0,6.2308.39,9.1763,0a3.1382,3.1382,0,0,1,.4022,0l-1.5462-.6405,24.6849,25.2407,39.0029,39.8811,9.0164,9.22c1.9711,2.0154,5.0623-1.0779,3.0923-3.0923L850.22,134.4919,816.7811,100.3c-7.112-7.2722-14.0623-14.7583-21.362-21.8431-1.09-1.0575-2.0983-1.05-3.49-1.05H578.0453c-6.1366,0-12.28-.0862-18.4165,0-.27.0038-.541,0-.8113,0a2.2184,2.2184,0,0,0-2.1866,2.1866V486.8172c0,5.4989-.1051,11.01,0,16.508.0046.24,0,.4813,0,.7217a2.2184,2.2184,0,0,0,2.1866,2.1866H853.68c3.9867,0,7.9919.1121,11.9774,0,.1728-.0049.3463,0,.5192,0a2.2183,2.2183,0,0,0,2.1865-2.1866V168.2c0-4.5541.1115-9.1243,0-13.6775-.0048-.1954,0-.3915,0-.587C868.3633,151.1214,863.99,151.1167,863.99,153.9353Z"/><path class="cls-3" d="M536.1006,74.7538s28.8727,27.9577-14.633,49.9121c-24.7615,9.7431-26.8909-31.4708-4.2516-45.0046"/><path d="M534.5545,76.3a29.5064,29.5064,0,0,1,2.2862,2.6083c.2039.2508.0912.1181-.06-.08.0847.1115.1706.2221.2542.3344.19.255.3789.51.5636.7692q.5686.7965,1.0963,1.6214a35.5128,35.5128,0,0,1,2.2055,3.9787q.2391.507.4606,1.0219c-.2022-.4686.0391.0974.0825.2082.0867.221.1739.4417.2568.6642.3083.827.5806,1.6675.8109,2.52a25.8762,25.8762,0,0,1,.5606,2.5844c.0163.1.1025.7066.0724.4728-.03-.2315.0425.4033.05.4823q.0672.6867.094,1.3766a20.4423,20.4423,0,0,1-2.9063,11.3648c-2.9319,5.0418-7.5042,8.9715-12.33,12.1416-2.9089,1.9108-6.0422,3.9964-9.4134,4.9539a12.9486,12.9486,0,0,1-5.76.5366c.4674.06-.1671-.0345-.2787-.0588-.2159-.0469-.4321-.0906-.6463-.1456a11.5275,11.5275,0,0,1-1.316-.4259c-.2345-.0913.08.035.1041.0458-.1093-.0486-.2209-.0967-.327-.1515-.1594-.0823-.3207-.16-.4781-.2462a12.3338,12.3338,0,0,1-1.13-.7118c-.4045-.2816.0932.0962-.1907-.1479-.1581-.1359-.316-.271-.4689-.4128a12.1636,12.1636,0,0,1-.8769-.9039c-.14-.16-.2764-.3227-.408-.4893.2632.3332-.0723-.1059-.1521-.2224-.2651-.3876-.5173-.782-.7484-1.1909-.2052-.3631-.3924-.7351-.572-1.1114-.0512-.1074-.2847-.6509-.1342-.2866-.1015-.2459-.1962-.4947-.2865-.745a21.5439,21.5439,0,0,1-.79-2.78c-.1055-.49-.1938-.9831-.2706-1.4783-.0017-.011-.0525-.3656-.0221-.1417.034.25-.0238-.2023-.03-.2544-.0325-.2945-.0624-.5892-.0866-.8845a30.1824,30.1824,0,0,1-.0886-3.1956,32.8054,32.8054,0,0,1,11.7547-24.3926,27.3982,27.3982,0,0,1,2.8828-1.9781c2.4057-1.4538.21-5.2368-2.2072-3.7761-9.4188,5.6918-15.1856,15.9446-16.5422,26.7176-1.0139,8.0513.7314,18.89,9.0475,22.595,4.5312,2.0187,9.9874,1.4056,14.371-.7439,6.62-3.2461,13.189-7.6732,17.9429-13.3741a27.6159,27.6159,0,0,0,6.4665-13.6567,26.4544,26.4544,0,0,0-1.2076-12.2844,35.4181,35.4181,0,0,0-8.3536-13.6278c-.0645-.0627-.1257-.1287-.19-.1913-2.02-1.9613-5.1161,1.1276-3.0922,3.0922Z"/><path class="cls-3" d="M513.8637,230.39l11.8691-48.16-9.2336-63.8168s-27.6038-38.0717,9.8618-49.7093c17.0954-5.31,8.6143-13.53-7.9844-17.0762A82.6058,82.6058,0,0,0,499.56,49.9233c-22.97.5142-48.8863,10.475-51.6237,41.2286-1.3113,14.7312,3.505,32.1515,2.4529,41.6488a163.8143,163.8143,0,0,1-8.1063,35.8237l-5.9318,17.0406"/><path d="M515.9721,230.9708l7.0342-28.5413,4.0424-16.4022c.26-1.0543.5727-2.11.7826-3.1758a8.2941,8.2941,0,0,0-.1971-2.6341L522.92,147.6392l-2.7267-18.8446c-.508-3.5116-.89-7.07-1.5281-10.5613a3.6029,3.6029,0,0,0-.6535-1.4629c-.7725-1.1338-1.4937-2.3034-2.1823-3.49a65.8987,65.8987,0,0,1-3.1357-6.1028q-.1919-.4276-.3772-.8582c-.2511-.58.1667.4084-.0767-.1809q-.0737-.1783-.1467-.3568-.4083-1.0027-.7775-2.0209c-.4859-1.3428-.9183-2.7055-1.2825-4.0865a39.3582,39.3582,0,0,1-.8868-4.2952c-.0649-.44-.0192-.1364-.0072-.0431q-.04-.3126-.0736-.6261-.0562-.5223-.0954-1.0464c-.0569-.7681-.0852-1.5385-.0806-2.3088a20.4584,20.4584,0,0,1,1.52-7.841c3.071-6.943,9.8256-10.5229,16.9766-12.8421,3.788-1.2284,9.1844-3.2086,10.3474-7.5546.9868-3.6877-2.0771-6.6763-4.8872-8.4775-4.3639-2.7971-9.6591-4.2732-14.6915-5.2872a84.7593,84.7593,0,0,0-18.88-1.609c-16.1075.4151-33.66,5.357-44.0737,18.4561-6.0479,7.6078-9.0036,16.9483-9.5719,26.5843-.662,11.2255,1.8411,22.24,2.5917,33.385a66.6661,66.6661,0,0,1-1.3284,15.8648,163.6508,163.6508,0,0,1-4.5356,19.2722c-1.8578,6.1851-4.1056,12.2608-6.2282,18.3585l-1.8864,5.4192c-.9271,2.6633,3.296,3.808,4.2169,1.1626,3.3677-9.6745,7.0434-19.3125,9.6483-29.2272q2.0376-7.7552,3.3117-15.6844a68.4175,68.4175,0,0,0,1.2782-13.1949c-.3141-8.8919-2.1532-17.6707-2.6548-26.5554-.466-8.2521.1329-16.76,3.5449-24.4009a37.322,37.322,0,0,1,12.2539-15.1177c11.1384-8.0021,25.5047-10.4366,38.9554-9.9121A75.3059,75.3059,0,0,1,519.3,54.076a36.58,36.58,0,0,1,11.3391,4.34,9.9647,9.9647,0,0,1,1.5373,1.1571c.2246.2077.4376.4256.644.6512.0365.04.2725.3226.0634.0519a4.9771,4.9771,0,0,1,.2843.4153c.0615.0988.3506.6854.2764.4922-.0749-.195.1124.4428.1335.5816-.075-.4932-.0346.0785-.0506.2641.0534-.6207-.1646.3879-.0757.17a3.04,3.04,0,0,1-.7242.9614,7.7076,7.7076,0,0,1-1.603,1.19,27.9005,27.9005,0,0,1-5.8654,2.41c-6.3928,2.0613-12.49,5.3911-16.5168,10.9026a23.6253,23.6253,0,0,0-4.22,14.4269c.1768,8.63,3.7136,17.1,8.1236,24.3982.5234.8662,1.0647,1.7227,1.6365,2.5578.0479.07.2266.4336.3158.4532-.2691-.0592-.174-.804-.1723-.26a18.3353,18.3353,0,0,0,.3555,2.4572l.6771,4.6794,4.4209,30.555,3.5547,24.5678.19,1.3129v-1.1626l-3.9953,16.211-6.4056,25.9912-1.4683,5.9574c-.6733,2.7323,3.5428,3.898,4.2169,1.1625Z"/><path class="cls-3" d="M499.8791,82.2649c19.8079-41.04,75.8072-26.6185,75.8072-26.6185,18.0785-1.1018,13.2607,21.8117-7.8575,21.98s-40.21.9592-47.6763,25.2769,22.8832,22.135,42.3649,19.1058c20.376-3.1683,22.8022,14.2081.8706,22.4425a74.349,74.349,0,0,0-7.6841,3.3913,60.3612,60.3612,0,0,0-29.3,33.9144l-12.54,48.632"/><path d="M501.7671,83.3685a46.4831,46.4831,0,0,1,14.3982-17.5239,52.8047,52.8047,0,0,1,18.3616-8.2882,76.1316,76.1316,0,0,1,18.6068-2.1793q4.1359-.0181,8.264.3071,1.8111.14,3.6165.3431.7469.0837,1.4924.1782c.1286.0163,1.0259.1371.3631.0459q.4143.057.8283.1161c2.4307.3506,4.82.84,7.2212,1.3413a10.9586,10.9586,0,0,0,2.1683.0864,10.5729,10.5729,0,0,1,4.2482.7672c-.3619-.1445.3511.1753.4649.2364.2493.1339.4856.285.7245.4358.5015.3166-.0144-.09.406.32.249.2426.49.4806.7163.7455-.32-.3743.11.1639.1992.3064.1328.2122.2453.433.3623.6538.2589.4883-.14-.4355.0405.0869.0361.1044.0787.2071.109.3135.0844.2962.1526.5911.2267.89.1148.4628.0214-.2366.0433.3426.0109.2886.0267.5748.0187.8639-.0081.2942-.03.589-.0674.881.0689-.5421-.0983.4217-.1373.5811q-.1.4095-.2321.81c-.043.1309-.3653.9474-.195.5573a12.7673,12.7673,0,0,1-.9566,1.7744c-.189.295-.3879.5855-.6005.8641.2133-.28-.073.085-.1269.1493-.1175.14-.2362.2788-.3581.4151a17.2071,17.2071,0,0,1-1.6322,1.581,17.5755,17.5755,0,0,1-3.9947,2.4109c-3.567,1.5512-7.5242,1.6366-11.4426,1.6884-4.182.0553-8.37.17-12.5343.5861-7.574.7562-15.3586,2.4758-21.5976,7.0736-7.0211,5.1742-11.666,13.3977-13.4242,21.8825a18.175,18.175,0,0,0,.3436,10.0315,13.9851,13.9851,0,0,0,5.5133,6.7671c5.5449,3.6674,12.9322,4.1953,19.3851,4.1942a106.5923,106.5923,0,0,0,11.1736-.65c3.6863-.3895,7.3482-1.1206,11.0378-1.4358a21.8464,21.8464,0,0,1,5.5418.14,10.1887,10.1887,0,0,1,3.9908,1.4617c.1684.1081.3353.22.4951.3407-.0717-.054-.2948-.25.0145.0209.2369.2074.454.4287.6766.651.085.0849.164.1842.2406.2757-.2859-.3414-.0282-.0387.0371.06a9.2635,9.2635,0,0,1,.49.8365c.26.4974-.0983-.287.0212.0382.05.1364.0983.2729.14.4121a6.9706,6.9706,0,0,1,.1966.8524c-.0876-.5153.005.22.0084.3947a7.3689,7.3689,0,0,1-.049,1.0094c.0593-.5022-.0968.4085-.1334.5513-.075.2933-.1678.5807-.268.8662a2.0317,2.0317,0,0,1-.2338.55c-.2044.4029-.418.7974-.658,1.18a16.1553,16.1553,0,0,1-3.3165,3.66c-3.8139,3.2317-8.532,4.7411-13.0429,6.6879a62.3719,62.3719,0,0,0-24.4884,18.6984,63.3941,63.3941,0,0,0-7.9616,13.0758,40.5855,40.5855,0,0,0-2.45,6.4387l-3.1936,12.3852-8.53,33.0786-.5734,2.2237c-.7031,2.7268,3.5136,3.89,4.2169,1.1625l6.9231-26.8482,4.3289-16.7878,1.1381-4.4136a38.8579,38.8579,0,0,1,3.2343-7.7782,58.3094,58.3094,0,0,1,19.7659-22.2474,60.77,60.77,0,0,1,6.8553-3.8655c2.7876-1.35,5.6992-2.3635,8.5308-3.6062a29.3806,29.3806,0,0,0,10.6895-7.44c2.0426-2.4067,3.6918-5.423,3.587-8.6714a9.305,9.305,0,0,0-4.315-7.4568c-6.4107-4.3161-14.954-1.7742-21.8439-.9945-7.0931.8028-14.8175,1.3238-21.6313.0408a19.8557,19.8557,0,0,1-7.9916-2.98,7.2442,7.2442,0,0,1-1.2565-1.0313,8.5161,8.5161,0,0,1-2.5565-4.6031,6.9043,6.9043,0,0,1-.23-1.7485,17.2147,17.2147,0,0,1,.0921-2.7448,29.2277,29.2277,0,0,1,1.4457-5.7834,33.753,33.753,0,0,1,6.1051-11.196c5.0037-5.8112,11.9728-8.5862,19.3839-9.8389a88.7709,88.7709,0,0,1,11.8758-1.0279c4.3952-.1447,8.883.1575,13.2189-.697,6.5716-1.2951,13.1034-5.588,15.1634-12.239a10.7832,10.7832,0,0,0-.5-7.9584,10.2712,10.2712,0,0,0-6.6945-5.1018,15.4329,15.4329,0,0,0-5.3161-.5071c.3981-.0408.2688.0773-.0831.0019-.9421-.2021-1.88-.4155-2.8271-.5958a98.4637,98.4637,0,0,0-30.7207-1.1555c-14.39,1.8382-28.42,7.65-37.7635,19.133a53.2138,53.2138,0,0,0-6.5889,10.3335c-1.2258,2.52,2.5441,4.74,3.776,2.2071Z"/><path class="cls-4" d="M436.1965,185.274l-9.6,28.6039-7.4818,21.64c12.5719,5.4154,29.4353,10.9346,48.2624,15.4883a340.4071,340.4071,0,0,0,40.6451,7.4192l5.8416-24.4821,6.2316-27.6949a370.7856,370.7856,0,0,1-40.3359-4.0336C460.398,198.9881,436.1965,185.274,436.1965,185.274Z"/><path d="M434.088,184.6927l-7.3651,21.9444q-2.88,8.5806-5.8541,17.1269l-3.8628,11.1728a2.1883,2.1883,0,0,0,1.0048,2.4693,275.494,275.494,0,0,0,32.1676,11.3017,381.8882,381.8882,0,0,0,38.0037,8.9465c6.58,1.1942,13.1956,2.1961,19.84,2.9579a2.1874,2.1874,0,0,0,2.1084-1.6053l5.3874-22.5782c1.526-6.3955,2.9117-12.8257,4.3551-19.24l2.3307-10.3586a2.2182,2.2182,0,0,0-2.1084-2.7679,334.032,334.032,0,0,1-34.0573-3.0779,109.7456,109.7456,0,0,1-21.6562-5.2333,177.7236,177.7236,0,0,1-17.9238-7.6218c-3.0891-1.502-6.1675-3.05-9.1577-4.7431-2.4526-1.3882-4.659,2.3883-2.2072,3.7761a184.4988,184.4988,0,0,0,25.468,11.8274,105.52,105.52,0,0,0,21.348,5.7721c8.2029,1.266,16.4632,2.16,24.7355,2.8237,4.4765.3592,8.9624.6759,13.4507.85l-2.1085-2.7679-5.164,22.95c-1.3676,6.0778-2.83,12.132-4.2762,18.1917l-2.633,11.0349,2.1085-1.6053a323.5992,323.5992,0,0,1-35.28-6.2152,362.3368,362.3368,0,0,1-36.1281-10.1615c-5.533-1.8869-11.023-3.9245-16.3954-6.2323l1.0049,2.4693,7.2951-21.1c2.251-6.5107,4.39-13.0622,6.5813-19.5929l3.2056-9.5511C439.2024,183.1812,434.98,182.034,434.088,184.6927Z"/><polygon class="cls-5" points="866.177 154.619 793.572 154.619 793.572 79.594 866.177 154.619"/><path d="M866.1768,152.4321H793.5722l2.1866,2.1866V79.594L792.0261,81.14l7.2314,7.4725L816.62,106.5534l20.9112,21.6083L855.687,146.923c2.93,3.0279,5.7606,6.2171,8.821,9.1151.0425.04.0818.0846.1226.1267,1.9608,2.0261,5.0511-1.0681,3.0923-3.0922L860.4915,145.6l-17.3621-17.9408L822.2181,106.051,804.062,87.29c-2.93-3.0279-5.7606-6.2172-8.821-9.1151-.0425-.04-.0819-.0846-.1227-.1267a2.21,2.21,0,0,0-3.7326,1.5461v75.0247a2.2184,2.2184,0,0,0,2.1865,2.1866h72.6046C868.9907,156.8053,868.9953,152.4321,866.1768,152.4321Z"/><path d="M203.1567,683.2746l2.2335,23.2929.3175,3.31c.1331,1.3884,2.321,1.4023,2.1865,0l-2.2335-23.2928-.3175-3.31c-.1331-1.3883-2.321-1.4022-2.1865,0Z"/><path d="M644.4767,173.4425H826.2941c2.453,0,4.9169.0678,7.3692,0,.1048-.0029.21,0,.315,0a1.094,1.094,0,0,0,0-2.1866H652.1609c-2.453,0-4.9169-.0678-7.3692,0-.1048.0029-.21,0-.315,0a1.094,1.094,0,0,0,0,2.1866Z"/><path d="M582.5243,204.0543H823.7711c3.2577,0,6.5223.0616,9.78,0,.1424-.0027.2851,0,.4276,0a1.094,1.094,0,0,0,0-2.1866H592.7315c-3.2578,0-6.5223-.0615-9.78,0-.1424.0027-.2851,0-.4275,0a1.094,1.094,0,0,0,0,2.1866Z"/><path d="M582.5243,234.6661H823.7711c3.2577,0,6.5223.0616,9.78,0,.1424-.0027.2851,0,.4276,0a1.094,1.094,0,0,0,0-2.1866H592.7315c-3.2578,0-6.5223-.0615-9.78,0-.1424.0027-.2851,0-.4275,0a1.094,1.094,0,0,0,0,2.1866Z"/><path d="M582.5243,265.2779H823.7711c3.2577,0,6.5223.0615,9.78,0,.1424-.0027.2851,0,.4276,0a1.094,1.094,0,0,0,0-2.1866H592.7315c-3.2578,0-6.5223-.0615-9.78,0-.1424.0027-.2851,0-.4275,0a1.094,1.094,0,0,0,0,2.1866Z"/><path d="M582.5243,295.89H823.7711c3.2577,0,6.5223.0615,9.78,0,.1424-.0027.2851,0,.4276,0a1.094,1.094,0,0,0,0-2.1866H592.7315c-3.2578,0-6.5223-.0616-9.78,0-.1424.0027-.2851,0-.4275,0a1.094,1.094,0,0,0,0,2.1866Z"/><path d="M582.5243,326.5015H823.7711c3.2577,0,6.5223.0615,9.78,0,.1424-.0027.2851,0,.4276,0a1.094,1.094,0,0,0,0-2.1866H592.7315c-3.2578,0-6.5223-.0616-9.78,0-.1424.0027-.2851,0-.4275,0a1.094,1.094,0,0,0,0,2.1866Z"/><path d="M582.5243,357.1133H823.7711c3.2577,0,6.5223.0615,9.78,0,.1424-.0027.2851,0,.4276,0a1.094,1.094,0,0,0,0-2.1866H592.7315c-3.2578,0-6.5223-.0616-9.78,0-.1424.0027-.2851,0-.4275,0a1.094,1.094,0,0,0,0,2.1866Z"/><path d="M582.5243,387.7251H823.7711c3.2577,0,6.5223.0615,9.78,0,.1424-.0027.2851,0,.4276,0a1.094,1.094,0,0,0,0-2.1866H592.7315c-3.2578,0-6.5223-.0616-9.78,0-.1424.0027-.2851,0-.4275,0a1.094,1.094,0,0,0,0,2.1866Z"/><path d="M582.5243,418.3368H823.7711c3.2577,0,6.5223.0616,9.78,0,.1424-.0026.2851,0,.4276,0a1.0939,1.0939,0,0,0,0-2.1865H592.7315c-3.2578,0-6.5223-.0616-9.78,0-.1424.0027-.2851,0-.4275,0a1.0939,1.0939,0,0,0,0,2.1865Z"/><path d="M582.5243,448.9486H762.2226c2.4294,0,4.8688.0646,7.2976,0,.1062-.0028.2128,0,.3191,0a1.0939,1.0939,0,0,0,0-2.1865H590.1409c-2.4293,0-4.8688-.0646-7.2976,0-.1062.0028-.2128,0-.319,0a1.0939,1.0939,0,0,0,0,2.1865Z"/><circle class="cls-6" cx="712.26" cy="305.7292" r="102.7682"/><path d="M812.8416,305.7292a100.0119,100.0119,0,1,1-1.1485-15.3445,101.1723,101.1723,0,0,1,1.1485,15.3445c.0047,2.8137,4.3778,2.8187,4.3731,0a104.9481,104.9481,0,1,0-1.2526,16.1683,108.6462,108.6462,0,0,0,1.2526-16.1683C817.2194,302.9151,812.8463,302.9108,812.8416,305.7292Z"/><path class="cls-4" d="M808.624,215.1962a22.348,22.348,0,0,0-30.9229,0c-23.2339,21.2687-43.96,45.7769-62.5592,71.1179q-3.22,4.3872-6.3152,8.8633-8.86-9.6454-18.2768-18.7577c-8.2184-7.97-22.85-8.7935-30.9228,0-7.9113,8.6183-8.7722,22.4155,0,30.9225,4.4162,4.2826,8.72,8.6861,12.9684,13.1345q5.7739,6.0461,11.341,12.2864,3.0658,3.4546,6.0319,6.9963,1.3554,1.6248,2.6816,3.2736c.4306.5365.8527,1.08,1.2837,1.6165.379.4712.3406.4085.1071.0989,4.5126,5.4153,9.8687,9.085,17.49,9.085a21.93,21.93,0,0,0,18.88-10.83,336.2179,336.2179,0,0,1,19.6854-30.748q2.4262-3.3894,4.9223-6.7284,1.2315-1.6485,2.4791-3.2846l.0413-.0541c.1957-.2518.3654-.47.443-.5686q4.9956-6.3669,10.2061-12.5613c10.6637-12.6935,21.9168-24.9151,33.7432-36.5348,2.2019-2.1632,4.4148-4.3208,6.6921-6.4054C817.083,238.3749,817.0638,222.9438,808.624,215.1962Z"/><path d="M810.17,213.65a25.0629,25.0629,0,0,0-22.5657-6.1941A25.853,25.853,0,0,0,776.6,213.2533c-3.6437,3.1837-7.1068,6.6065-10.5526,10.0015a474.06,474.06,0,0,0-39.0229,43.8691c-6.9462,8.7882-13.7063,17.74-20.0855,26.95l3.4342-.4426q-6.0751-6.6058-12.4085-12.9668c-3.4779-3.4931-6.8668-7.3926-11.2851-9.7208-7.4439-3.9225-16.9965-4.1676-24.2517.3505-7.3314,4.5655-11.6469,13.6019-11.2208,22.1518a22.9237,22.9237,0,0,0,4.1662,12.2709,45.565,45.565,0,0,0,5.1374,5.55q3.1966,3.1584,6.3265,6.3834c4.576,4.7035,9.0884,9.4708,13.4831,14.3445q3.3189,3.6807,6.5363,7.4513c1.9778,2.3272,3.8075,4.7933,5.8145,7.0918,1.6229,1.8586,4.808-.5784,3.4341-2.65a2.7541,2.7541,0,0,0-.1761-.2433l-3.4341,2.65c3.8052,4.5255,8.7081,8.2566,14.6453,9.3189a24.3751,24.3751,0,0,0,18.1122-3.8944,23.7206,23.7206,0,0,0,6.4656-6.6444c1.99-3.105,3.6966-6.4112,5.6109-9.5671q6.0273-9.9369,12.7345-19.4393a409.8765,409.8765,0,0,1,28.6418-35.87q7.6921-8.6965,15.7638-17.0471,3.9528-4.0866,7.997-8.0835c2.76-2.7273,5.6925-5.3055,8.4022-8.0784,8.6443-8.8462,8.3419-24.8841-.6979-33.3392-2.0539-1.9211-5.1529,1.1649-3.0922,3.0923,6.9653,6.5149,7.7152,18.86,1.5649,26.2-2.1352,2.5484-4.8376,4.6873-7.213,7.0117q-3.9089,3.825-7.7394,7.7284-7.795,7.9533-15.2393,16.24c-9.7051,10.7974-19.071,21.94-27.6533,33.655q-6.5609,8.9554-12.593,18.2827-3.0174,4.6858-5.8746,9.4724c-1.7206,2.886-3.179,6.1071-5.2442,8.765a20.0256,20.0256,0,0,1-16.3489,7.5356c-6.3013-.2219-11.2166-3.753-15.15-8.4311-1.5784-1.8772-4.9221.6508-3.4341,2.65a2.7955,2.7955,0,0,1,.1761.2433l3.4341-2.65c-3.4472-3.948-6.6383-8.1188-10.1191-12.0467q-5.4674-6.17-11.1724-12.1227c-3.7968-3.9828-7.6362-7.9262-11.5608-11.7835a29.4312,29.4312,0,0,1-4.3588-4.8553,18.4619,18.4619,0,0,1-2.3466-5.2664,21.1111,21.1111,0,0,1,6.1884-20.618c5.483-4.962,13.8384-5.5613,20.4883-2.7923,4.5915,1.9119,7.8606,5.6643,11.3049,9.1093q6.6885,6.69,13.0937,13.6535a2.2146,2.2146,0,0,0,3.4342-.4425,522.8744,522.8744,0,0,1,34.7613-44.64q9.2463-10.6665,19.1309-20.7568,4.8945-4.9777,9.96-9.783c3.084-2.9223,6.0608-6.0216,9.9165-7.9212a20.3429,20.3429,0,0,1,22.594,3.5621C809.1612,218.6253,812.2634,215.542,810.17,213.65Z"/><line class="cls-1" x1="128.239" y1="773.5353" x2="132.0936" y2="963.8828"/><path d="M127.1457,773.5353l.1029,5.0807.28,13.8284.4164,20.5593.5058,24.9783.5539,27.3553.5592,27.6121.5214,25.7485.4407,21.7644.3171,15.66c.05,2.48.0424,4.9687.1508,7.4468.0046.1044.0043.2092.0064.3137a1.094,1.094,0,0,0,2.1866,0l-.1029-5.0808-.28-13.8284-.4163-20.5593-.5058-24.9783-.554-27.3553-.5591-27.6121-.5214-25.7485-.4408-21.7643-.3171-15.66c-.05-2.48-.0424-4.9687-.1508-7.4468-.0046-.1044-.0042-.2092-.0063-.3136a1.094,1.094,0,0,0-2.1866,0Z"/><line class="cls-1" x1="254.2067" y1="762.2725" x2="247.2522" y2="957.3231"/><path d="M253.1135,762.2725l-.1862,5.2213-.5066,14.2087-.7456,20.91-.9135,25.6207-1.0008,28.07L248.75,884.64l-.942,26.4213-.7929,22.2376-.5731,16.0744c-.09,2.5351-.2657,5.0836-.2717,7.6207,0,.1094-.0078.2193-.0117.3287-.05,1.4073,2.1364,1.4053,2.1865,0l.1862-5.2214.5066-14.2086.7455-20.91.9135-25.6207,1.0009-28.07,1.01-28.3369.9421-26.4212.7928-22.2377.5732-16.0743c.09-2.5351.2657-5.0837.2717-7.6208,0-.1094.0078-.2192.0117-.3286.05-1.4074-2.1364-1.4054-2.1865,0Z"/></svg>