<svg id="Layer_1" data-name="Layer 1" xmlns="http://www.w3.org/2000/svg" width="1000" height="1000" viewBox="0 0 1000 1000"><defs><style>.cls-1{fill:#fff;}.cls-2{fill:#389b48;}.cls-3{fill:#ea2f2f;}.cls-4{fill:#fc7272;}.cls-5{fill:#458dc9;}.cls-6{fill:#fc7f3a;}</style></defs><path d="M454.9024,650.7559H319.3445c-6.2165,0-12.4748-.2114-18.6887,0-.0853.0029-.1711,0-.2564,0a1.0629,1.0629,0,0,0-1.009,1.3246l2.3611,13.9835,5.6692,33.577,6.8566,40.6094,5.9232,35.0812,1.94,11.49c.3068,1.817.5064,3.6958.9271,5.4909.0183.078.027.16.04.2385a1.0518,1.0518,0,0,0,1.009.7682h40.8079a1.047,1.047,0,0,0,0-2.0927H324.1168l1.009.7682-2.3611-13.9836-5.6692-33.5769-6.8566-40.6094-5.9232-35.0812-1.94-11.49-.6114-3.6207a12.7231,12.7231,0,0,0-.3157-1.87,1.6259,1.6259,0,0,1-.04-.2386l-1.009,1.3245H435.9573c6.2165,0,12.4748.2115,18.6887,0,.0853-.0029.1711,0,.2564,0a1.047,1.047,0,0,0,0-2.0927Z"/><path class="cls-1" d="M388.3017,443.6466s25.359-87.2532,65.5554-79.8969c14.65,2.681,24.24,16.8749,22.0326,31.6034C467.5341,451.1053,388.3017,443.6466,388.3017,443.6466Z"/><path d="M389.3107,443.9248c1.0082-3.4659,2.1934-6.8868,3.4091-10.2841a244.641,244.641,0,0,1,9.7558-23.49,146.5339,146.5339,0,0,1,15.5319-26.0425c5.4838-7.1322,12.2263-14.0665,20.6657-17.5954a26.0861,26.0861,0,0,1,29.0488,5.8966,27.3537,27.3537,0,0,1,7.4346,19.0752,44.4466,44.4466,0,0,1-4.1031,17.0524,49.132,49.132,0,0,1-19.1477,21.4721,81.5275,81.5275,0,0,1-25.9015,10.0087,131.5283,131.5283,0,0,1-23.8411,2.84,123.9128,123.9128,0,0,1-13.2505-.2076c-.2038-.0154-.4076-.0307-.611-.05-1.34-.1256-1.3317,1.9679,0,2.0927,3.2363.3033,6.5113.3442,9.7587.3312a141.7141,141.7141,0,0,0,23.1063-1.9455,93.3377,93.3377,0,0,0,27.0092-8.5553c8.7905-4.5035,16.5919-10.997,21.8-19.4623,6.3-10.2408,9.7865-23.9732,4.9287-35.4229a28.3384,28.3384,0,0,0-29.8635-17.07c-8.9965,1.3069-16.71,7-22.842,13.4211-7.133,7.4688-12.7646,16.3295-17.625,25.4006a228.2375,228.2375,0,0,0-11.793,26.0854c-1.916,4.995-3.7132,10.0465-5.27,15.166-.0737.2422-.1473.4844-.218.7274A1.0473,1.0473,0,0,0,389.3107,443.9248Z"/><path class="cls-1" d="M391.1507,311.89s25.2058-87.2977,65.415-80.012c14.6544,2.6553,24.27,16.8323,22.0881,31.5646C470.3961,319.21,391.1507,311.89,391.1507,311.89Z"/><path d="M392.16,312.1683c1.0022-3.4677,2.1814-6.8906,3.3911-10.29a244.6261,244.6261,0,0,1,9.7141-23.5073,146.8116,146.8116,0,0,1,15.4861-26.07c5.4687-7.1446,12.203-14.0856,20.6339-17.6327a26.0846,26.0846,0,0,1,29.06,5.8438,27.3531,27.3531,0,0,1,7.4694,19.0616,44.4468,44.4468,0,0,1-4.0722,17.06A49.1323,49.1323,0,0,1,454.7324,298.14a81.5252,81.5252,0,0,1-25.8837,10.0546,131.5366,131.5366,0,0,1-23.836,2.8823,123.9175,123.9175,0,0,1-13.2509-.1844c-.2037-.015-.4076-.03-.6111-.0487-1.34-.1233-1.3321,1.97,0,2.0927,3.2369.2977,6.512.3328,9.7593.3141a141.7257,141.7257,0,0,0,23.1029-1.9856,93.3422,93.3422,0,0,0,26.9943-8.6022c8.7824-4.5189,16.5734-11.0257,21.7665-19.5,6.2839-10.2543,9.7422-23.987,4.8683-35.4314a28.3391,28.3391,0,0,0-29.8926-17.02c-8.993,1.3186-16.7,7.0307-22.8188,13.46-7.12,7.4814-12.7362,16.3514-17.5807,25.4312a228.2389,228.2389,0,0,0-11.7476,26.1059c-1.9073,4.9984-3.6956,10.053-5.2439,15.1753-.0732.2422-.1464.4846-.2166.7277A1.0472,1.0472,0,0,0,392.16,312.1683Z"/><path class="cls-1" d="M393.7688,190.29s-5.2151-51.6323,18.1334-54.5547c8.5094-1.0651,20.263,4.3922,21.6019,12.8629C438.5722,180.6628,393.7688,190.29,393.7688,190.29Z"/><path d="M394.8152,190.29a123.6583,123.6583,0,0,1-.2255-20.3891,78.2222,78.2222,0,0,1,2.66-16.5625c1.3747-4.7645,3.4482-9.66,7.1871-13.06,4.4858-4.0793,10.6924-4.3189,16.2722-2.5555a19.47,19.47,0,0,1,9.6665,6.321c2.1682,2.8472,2.5207,6.3812,2.48,9.8562-.14,11.9762-8.4519,21.0557-18.23,26.8949a80.6878,80.6878,0,0,1-20.7526,8.3982c-.126.0336-.2547.06-.3822.0875-1.3158.2837-.759,2.3015.5563,2.0179a73.8944,73.8944,0,0,0,19.138-7.2807c10.3026-5.55,19.8236-14.3092,21.4852-26.46a27.0037,27.0037,0,0,0-.3694-10.2455c-.9679-3.6979-3.7245-6.64-6.8455-8.7007-5.7868-3.821-13.9452-5.5478-20.4379-2.55-4.6406,2.1429-7.7691,6.5493-9.7686,11.1106a60.0576,60.0576,0,0,0-4.2153,16.9355,121.5845,121.5845,0,0,0-.354,25.7152c.0144.1554.0274.311.043.4662C392.856,191.6176,394.95,191.6314,394.8152,190.29Z"/><path class="cls-1" d="M347.1366,361.1741s-51.385-77.7262-85.6447-55.4521c-12.486,8.1178-15.868,24.9107-8.1569,37.652C282.5241,391.6039,347.1366,361.1741,347.1366,361.1741Z"/><path d="M348.04,360.646c-1.9019-2.8753-3.9438-5.6642-6.0056-8.4256-4.8991-6.5617-10.0773-12.9226-15.58-18.9885a157.3294,157.3294,0,0,0-21.4791-20.0571c-7.0434-5.3188-15.0426-10.1515-23.8086-11.881a27,27,0,0,0-23.9869,6.464c-9.7448,9.0047-11.6339,24.1242-5.1075,35.5346a55.3505,55.3505,0,0,0,25.4487,23.1825c9.3172,4.0921,19.5669,5.523,29.6885,5.1619a115.6561,115.6561,0,0,0,39.803-9.2649c.218-.0964.4361-.1929.6518-.2943,1.2179-.5728.1567-2.3775-1.0562-1.807-.2083.0979-.4189.1912-.6294.2844-.7847.3473-.9385.4093-1.6889.7157-2.2373.9135-4.5091,1.7432-6.8014,2.5078a114.052,114.052,0,0,1-22.67,5.1756A75.6126,75.6126,0,0,1,286.31,367.363,52.64,52.64,0,0,1,259.6817,350.48c-4.09-4.8471-7.6935-10.3632-8.9234-16.67a27.0294,27.0294,0,0,1,2.961-18.3415,24.7754,24.7754,0,0,1,23.1019-12.6551c8.2965.528,16.09,4.5794,22.8625,9.1409a133.0551,133.0551,0,0,1,21.479,18.6639,240.1415,240.1415,0,0,1,16.5062,19.2877c2.8359,3.6729,5.5984,7.4121,8.2,11.2553.1219.18.2438.36.3637.5414C346.9729,362.8205,348.786,361.7736,348.04,360.646Z"/><path d="M405.5266,162.536l-20.5433,46.4632c-5.4042,12.2229-9.1586,24.7633-9.5551,38.2373-.0607,2.0634-.04,4.13-.04,6.1944V627.1832c0,7.0537-.0867,14.1135,0,21.1668.0038.3068,0,.6138,0,.9207a1.047,1.047,0,0,0,2.0927,0V258.1158q0-3.6238,0-7.2478a91.6849,91.6849,0,0,1,5.9457-32.9414c2.6843-6.9908,5.9782-13.7843,9.0045-20.6291l12.6076-28.515,2.2949-5.19c.54-1.2206-1.2629-2.2867-1.807-1.0562Z"/><path class="cls-1" d="M361.6505,232.043s-5.33-64.3968-34.5788-62.6771c-10.66.6267-23.8115,9.975-23.5287,20.6494C304.6133,230.4216,361.6505,232.043,361.6505,232.043Z"/><path d="M362.6969,232.043a154.9337,154.9337,0,0,0-4.7753-26.7839,93.4629,93.4629,0,0,0-7.7306-20.4752c-3.0338-5.6173-7.1329-11.1793-12.8953-14.2224-7.3585-3.886-15.9479-2.2519-22.88,1.85-4.4648,2.6423-8.5677,6.46-10.6386,11.296-1.8228,4.2563-1.3862,8.9621-.4808,13.3966a36.0268,36.0268,0,0,0,10.9879,19.1928A56.357,56.357,0,0,0,332.72,227.1905a92.8405,92.8405,0,0,0,17.9806,4.7075,81.4264,81.4264,0,0,0,10.4554,1.1707c.1649.0052.33.0159.4945.0207a1.047,1.047,0,0,0,0-2.0927,89.7012,89.7012,0,0,1-22.8592-3.96c-12.8556-3.8538-26.0026-11.1079-31.4931-24.0307a34.9106,34.9106,0,0,1-2.6291-11.2823,15.2319,15.2319,0,0,1,.9007-6.9165,19.3139,19.3139,0,0,1,4.3249-6.2906c5.8644-5.886,15.3868-9.9847,23.6487-7.294,5.7749,1.8808,10.0471,6.7223,13.1673,11.73a78.1208,78.1208,0,0,1,8.1576,19.1794,155.0166,155.0166,0,0,1,5.6905,29.4117c.0157.1664.0315.3329.0454.5C360.715,233.3755,362.8086,233.3874,362.6969,232.043Z"/><path d="M335.78,197.5428l13.4039,19.6116q7.037,10.2959,14.074,20.5919a79.8626,79.8626,0,0,1,12.4752,30.2022c.2488,1.3219,2.2661.7621,2.018-.5564a81.0216,81.0216,0,0,0-11.4436-28.8307c-1.5794-2.4528-3.27-4.8382-4.9163-7.2463l-18.6589-27.3-5.1453-7.5281c-.7554-1.1053-2.57-.06-1.807,1.0562Z"/><path d="M377.4809,361.1741V350.397c0-4.4474-.1976-8.9523.5773-13.35a39.7655,39.7655,0,0,1,10.7809-20.9562c1.4937-1.5151,3.131-2.868,4.749-4.2449l17.2657-14.6929,22.3426-19.0135,8.5464-7.2729c1.4251-1.2127,2.9387-2.37,4.2975-3.6572.0612-.058.1293-.11.1936-.1647,1.0272-.8741-.4592-2.3483-1.48-1.48l-10.797,9.1882-22.2726,18.9538L393.1138,309.51c-1.0513.8947-2.1061,1.7854-3.154,2.6841a41.9061,41.9061,0,0,0-12.6187,19.0166,50.651,50.651,0,0,0-1.9529,15.6384v14.3249a1.047,1.047,0,0,0,2.0927,0Z"/><path d="M285.0105,330.5233a15.2475,15.2475,0,0,0,3.2947,2.0374c2.3678,1.3033,4.7688,2.5469,7.1711,3.7852,7.3479,3.7875,14.748,7.474,22.1523,11.15q13.167,6.5361,26.3739,12.9915,6.0592,2.967,12.1234,5.9243c3.8126,1.8594,8.0414,3.46,11.3349,6.1772a21.8568,21.8568,0,0,1,7.901,15.6783c.1437,2.9823.0264,5.9909.0264,8.976a1.047,1.047,0,0,0,2.0927,0c0-2.6123.0165-5.225,0-7.8372A23.8356,23.8356,0,0,0,367.0056,369.65a45.474,45.474,0,0,0-5.73-3.0507q-5.8686-2.8585-11.733-5.7256c-16.7487-8.1885-33.5052-16.3726-50.111-24.8484-3.0342-1.5487-6.0665-3.1039-9.0638-4.7234-.91-.4919-1.82-.9873-2.7121-1.5122-.296-.1742-.5866-.3556-.8774-.5382-.0932-.0585-.1826-.1233-.2726-.1866-.0287-.02.18.1673-.0159-.0218-.9689-.9362-2.45.5418-1.48,1.48Z"/><path d="M431.5,400.1957l-9.4261,8.7825-19.0451,17.7447-15.175,14.1389a56.8193,56.8193,0,0,0-4.25,4.2031,33.6123,33.6123,0,0,0-8.0956,19.1035c-.2861,3.2794-.1207,6.6318-.1207,9.9186v12.0386a1.047,1.047,0,0,0,2.0927,0q0-9.4539,0-18.9079a31.7382,31.7382,0,0,1,5.2536-17.5887,37.677,37.677,0,0,1,5.8866-6.6234l13.9578-13.0047,19.1043-17.8c3.6945-3.4422,7.5841-6.76,11.1229-10.3634.0554-.0564.1161-.1082.174-.1621.9875-.92-.4948-2.3975-1.48-1.48Z"/><polyline class="cls-1" points="830.204 790.529 853.922 626.6 648.487 626.6 580.823 781.111"/><path d="M831.2131,790.8068l2.3673-16.3626L839.2439,735.3l6.8474-47.3276,5.9326-41.005c.9552-6.6022,1.9268-13.2022,2.8657-19.8066q.02-.1415.0409-.2828a1.0644,1.0644,0,0,0-1.009-1.3245H656.8279c-2.661,0-5.3337-.0724-7.994,0-.1154.0031-.2314,0-.3469,0a1.0258,1.0258,0,0,0-.9035.5182L640.852,641.443l-16.1651,36.9131L605.1323,723.009l-16.9,38.5908c-2.7336,6.242-5.4878,12.4756-8.2009,18.7266-.0372.0858-.075.1713-.1125.2569-.5351,1.2219,1.2674,2.2884,1.807,1.0563l6.7315-15.3715,16.1652-36.9132,19.5545-44.6529,16.9-38.5907,5.5421-12.6555,1.7619-4.0233a13.8678,13.8678,0,0,0,.8968-2.0478,1.73,1.73,0,0,1,.1125-.257l-.9035.5183H850.8278a21.9289,21.9289,0,0,0,2.7468,0,2.75,2.75,0,0,1,.3469,0l-1.009-1.3245-2.3673,16.3626-5.6635,39.1443-6.8474,47.3277-5.9326,41.005c-.9552,6.6021-1.9268,13.2021-2.8656,19.8066q-.02.1414-.041.2828c-.1906,1.3173,1.8256,1.8862,2.018.5563Z"/><path class="cls-1" d="M690.3413,581.6063s0-3.4878,1.9223-43.5981S679.18,437.9068,679.18,437.9068s27.9028-3.4878,48.1324,40.4591c-2.0927-51.62-23.7174-71.85-23.7174-71.85s33.4834,15.3465,51.62,66.2691c-1.3951-42.5518-12.5563-64.874-23.7174-78.8254,39.0639,6.2781,46.04,78.8254,46.04,78.8254s6.2781-69.0594,2.79-94.172c25.81,21.6247,16.0442,99.7526,16.0442,99.7526s15.3465-43.9469,55.108-52.3178c-16.0441,7.6733-27.9028,39.7615-41.8542,94.172,2.0927-18.1368,11.8587-43.9469,57.2008-62.0837-44.6445,19.5319-47.4348,150.6752-47.4348,150.6752s5.5805-13.9514,16.0441-17.4393c-6.2781,6.2781-9.9521,35.2273-9.9521,35.2273H699.41"/><path d="M691.3876,581.6063c.0017-2.2267.1466-4.4608.2373-6.6847.495-12.1411,1.0819-24.2787,1.6612-36.416.674-14.1209-.4976-28.2942-2.26-42.2989-1.6386-13.02-3.855-25.9661-6.4613-38.826q-1.33-6.561-2.8074-13.0911-.4735-2.0865-.966-4.1687a17.28,17.28,0,0,0-.5311-2.2049,2.47,2.47,0,0,1-.0711-.2873l-1.009,1.3245a25.1376,25.1376,0,0,1,10.2545,1.3646c9.132,2.7812,16.8775,8.9325,23.0218,16.0941A96.408,96.408,0,0,1,726.409,478.894a1.0539,1.0539,0,0,0,1.95-.5281c-.6663-15.964-3.2091-32.0343-8.9529-47.002a84.66,84.66,0,0,0-12.33-22.4822,28.5948,28.5948,0,0,0-2.7408-3.1054l-1.268,1.6434a60.1586,60.1586,0,0,1,12.21,8.0711,115.6811,115.6811,0,0,1,25.2675,29.0215,148.3819,148.3819,0,0,1,13.6618,28.5512c.3772,1.0545,2.0974.9694,2.0554-.2782-.4711-13.9711-1.9812-28.0061-5.55-41.5494a108.1745,108.1745,0,0,0-11.0576-27.271,91.6051,91.6051,0,0,0-7.4162-10.7449l-1.0181,1.7489c15.5287,2.553,25.6657,15.8236,32.0836,29.1929,6.0152,12.5306,9.6365,26.24,11.9553,39.9068.522,3.0762.9437,5.7238,1.2326,8.7167a1.047,1.047,0,0,0,2.0927,0c.7533-8.2919,1.3638-16.5989,1.92-24.9061,1.0623-15.8793,1.9215-31.802,1.9257-47.7211a160.1636,160.1636,0,0,0-1.0923-21.8229l-1.7489,1.018c5.5115,4.6551,8.91,11.3156,11.2453,18.028a111.6993,111.6993,0,0,1,5.1716,24.9721,256.0464,256.0464,0,0,1,.2473,46.2168c-.2479,3.2685-.5206,6.5423-.9265,9.7958-.1539,1.2333,1.69,1.3215,2.0553.2782a83.679,83.679,0,0,1,7.397-15.0224c6.2471-10.3972,14.3444-19.9011,24.3916-26.7957a63.2319,63.2319,0,0,1,22.5887-9.7689l-.8063-1.9125c-8.1377,3.9313-13.447,12.4158-17.49,20.14-6.9086,13.2-11.5487,27.5972-15.818,41.8221-3.2632,10.8729-6.2058,21.84-9.0272,32.8351l2.0553.2781a61.7685,61.7685,0,0,1,7.467-23.2913c5.7874-10.23,14.4727-18.49,24.1821-24.9838a134.7243,134.7243,0,0,1,24.7835-12.8l-.8063-1.9124c-9.8533,4.3453-16.826,13.4153-21.9279,22.59-6.4412,11.5836-10.6362,24.3823-13.9426,37.17a352.976,352.976,0,0,0-7.8205,41.2q-2.2959,17.0192-3.4413,34.1679c-.3638,5.3619-.9213,10.8447-.8153,16.2266.0015.0744-.0038.15-.0054.224-.027,1.2641,1.6414,1.3078,2.0554.2781.0181-.0452.1049-.2236.0229-.0571-.076.1545.1311-.2985.1675-.3791q.3446-.7622.72-1.5094a44.22,44.22,0,0,1,2.93-4.9925c2.8343-4.1719,6.603-8.0934,11.4733-9.77l-1.0181-1.7489a18.33,18.33,0,0,0-3.53,6.0717,68.4745,68.4745,0,0,0-2.7693,8.7687c-1.4515,5.6691-2.5213,11.4394-3.4042,17.2225-.1984,1.2993-.3893,2.6-.5553,3.9043l1.0464-1.0463h-120.94c-1.6285,0-3.2971-.1054-4.9233,0-.0695.0045-.1407,0-.21,0a1.047,1.047,0,0,0,0,2.0927H820.35c1.6286,0,3.2972.1053,4.9233,0,.07-.0045.1407,0,.2105,0A1.0776,1.0776,0,0,0,826.53,626.6c.0081-.0641.013-.13.0251-.193.0065-.0342.04-.298.0149-.1134-.0219.162.0254-.1866.0342-.25q.1475-1.0662.3064-2.1307.53-3.5481,1.1759-7.078a111.9138,111.9138,0,0,1,4.49-17.9854c.845-2.3338,1.8314-4.9291,3.5992-6.7368.6965-.7123.0043-2.1009-1.0181-1.7489-7.9232,2.7282-13.7382,10.6174-16.7749,18.17l2.0553.2782c.0938-4.3773.3378-8.7547.6058-13.124Q822.03,579.6055,824,563.6017a378.4025,378.4025,0,0,1,7.043-40.3709c3.06-12.9835,6.9214-25.9637,12.8364-37.96,4.6825-9.4965,10.9542-19.1926,20.3277-24.6327a31.9349,31.9349,0,0,1,3.1476-1.5986c1.0721-.4728.2966-2.3554-.8063-1.9125-14.1912,5.6983-28.0339,13.2013-38.9419,24.0885a65.5686,65.5686,0,0,0-16.2024,25.8209,67.1923,67.1923,0,0,0-2.8247,13.1833c-.1381,1.1848,1.7679,1.3986,2.0554.2782,4.5773-17.838,9.3757-35.6931,15.625-53.03a180.5551,180.5551,0,0,1,7.8043-18.7556,74.3494,74.3494,0,0,1,8.11-13.34,28.9849,28.9849,0,0,1,9.8339-8.42c1.1153-.5388.3-2.1485-.8063-1.9125-14.141,3.0178-26.5812,10.9511-36.3165,21.51a100.4879,100.4879,0,0,0-17.1113,25.7957c-.8711,1.8784-1.7263,3.7862-2.411,5.7425l2.0553.2782a261.8447,261.8447,0,0,0,1.7723-27.9934,235.7034,235.7034,0,0,0-.8741-25.8185,123.2486,123.2486,0,0,0-4.7548-25.5827c-2.4517-7.7868-6.1375-15.729-12.494-21.0978a1.0565,1.0565,0,0,0-1.7488,1.018,145.735,145.735,0,0,1,1.0093,18.7752c.0562,7.9826-.1591,15.9666-.4811,23.942-.5723,14.1772-1.4969,28.3415-2.6257,42.4847-.2313,2.8982-.4672,5.7964-.73,8.6919h2.0927a161.805,161.805,0,0,0-4.7635-25.3514c-3.9216-14.9469-9.7234-30.53-20.3352-42.0824-5.7756-6.2875-13.1991-11.0015-21.7091-12.4006A1.0565,1.0565,0,0,0,730.758,394.7a91.3582,91.3582,0,0,1,12.32,20.6445,130.8261,130.8261,0,0,1,8.8684,32.2831,213.1651,213.1651,0,0,1,2.2225,25.1579l2.0554-.2781c-5.8223-16.2786-14.1493-31.7126-25.4577-44.8483a99.4638,99.4638,0,0,0-22.2528-19.572,39.3379,39.3379,0,0,0-4.3906-2.4742c-1.0119-.465-2.1967.7725-1.268,1.6433a44.8737,44.8737,0,0,1,7.2586,9.6748c5.9737,9.84,9.8639,20.8664,12.4045,32.0556a163.3915,163.3915,0,0,1,3.7478,29.38l1.95-.5281c-5.8605-12.6722-13.861-24.99-25.421-33.16a41.4489,41.4489,0,0,0-19.8261-7.7715,17.9134,17.9134,0,0,0-3.7888-.0462,1.0651,1.0651,0,0,0-1.009,1.3245c1.3192,5.2776,2.4721,10.6007,3.587,15.9244,2.5792,12.317,4.8025,24.7153,6.5262,37.1818,1.9485,14.0915,3.3538,28.3681,3.07,42.6092-.2571,12.9258-1.1859,25.8569-1.7295,38.7754-.0975,2.3169-.1938,4.634-.2736,6.9516a14.9453,14.9453,0,0,0-.0563,1.93c.0015.0158,0,.0326,0,.0485a1.047,1.047,0,0,0,2.0927,0Z"/><path class="cls-2" d="M97.65,322.8882s-15.2416-8.8-11.7538-37.4c7.6733-29.298,31.3907-37.6688,31.3907-37.6688S138.0044,305.1806,97.65,322.8882Z"/><path d="M98.7065,321.0812c-.16-.0932-.3137-.1993-.4661-.3048-.1673-.1158-.3262-.2431-.4924-.36.695.4893-.175-.15-.3616-.31a22.255,22.255,0,0,1-1.7868-1.72q-.4593-.4921-.8916-1.0085c-.174-.2076-.3441-.4183-.5124-.63-.3382-.4267.17.2268-.0364-.0488-.1234-.1649-.246-.33-.3663-.4975-3.9492-5.4911-5.7683-12.089-6.2073-18.8787a60.1538,60.1538,0,0,1,.0236-7.7943,25.2317,25.2317,0,0,1,.4076-3.87,39.5232,39.5232,0,0,1,1.1824-3.907,56.471,56.471,0,0,1,5.9967-12.466,52.9918,52.9918,0,0,1,7.143-8.84,51.516,51.516,0,0,1,6.9642-5.8581,49.054,49.054,0,0,1,6.3962-3.799q.5451-.2678,1.0984-.5188c.31-.14,1.0609-.42.3567-.1612.2316-.0851.4563-.1883.6891-.2709l-2.5743-1.4616c.67,1.8587,1.2079,3.772,1.7182,5.6792q.8513,3.1818,1.5107,6.411.3842,1.8759.7035,3.7645.1695,1.0041.32,2.0113c.1312.8784.1649,1.1236.256,1.85,1.5816,12.6013,1.0922,26.1083-5.25,37.2466a37.8445,37.8445,0,0,1-17.9334,15.7436,2.1072,2.1072,0,0,0-.7508,2.8632,2.1449,2.1449,0,0,0,2.8632.7508A41.7922,41.7922,0,0,0,116.55,310.0109a47.6969,47.6969,0,0,0,7.2729-19.3363c1.8794-11.9532.57-24.3038-2.3481-35.9867a76.5877,76.5877,0,0,0-2.17-7.4253,2.1221,2.1221,0,0,0-2.5742-1.4617,39.2485,39.2485,0,0,0-8.0688,4.1821,57.828,57.828,0,0,0-15.5048,14.87,59.6718,59.6718,0,0,0-6.7687,12.4748,42.5379,42.5379,0,0,0-2.51,7.6038,46.8426,46.8426,0,0,0-.5936,8.7434c-.0006,7.9722,1.5673,16.2323,5.8431,23.0714,1.8589,2.9735,4.3687,6.15,7.466,7.949C98.9277,326.0506,101.0373,322.4349,98.7065,321.0812Z"/><path d="M846.9458,778.67l17.16-20.6262a10.9659,10.9659,0,0,1,15.3517-.8561L971.0386,837.7c8.4456,7.2391,2.865,21.8881-11.784,21.8881l-30.6931-10.4635Z"/><path d="M848.4256,780.15l14.627-17.5816c2.3414-2.8144,4.4974-5.7733,8.5539-6a9.77,9.77,0,0,1,7.1425,2.7771l10.5708,9.2931,19.05,16.7478,22.5039,19.784,21.0082,18.469,14.2972,12.5693q1.5453,1.3586,3.0906,2.717a9.4306,9.4306,0,0,1,3.6374,7.2773,10.3692,10.3692,0,0,1-2.1688,6.2106,12.7844,12.7844,0,0,1-6.0062,4.2186,16.4624,16.4624,0,0,1-4.4387.8381c-.17.0083-1.0035.0139-.4923.0965-.0215-.0035-.0414-.0173-.0628-.0214a2.6459,2.6459,0,0,1-.3186-.1086c-1.1717-.3938-2.34-.7978-3.51-1.1966l-24.8968-8.4876-1.8952-.6461.9234.5382-8.14-7.0268-19.4493-16.79L878.8349,803.441,858.494,785.8817c-3.3083-2.8559-6.574-5.772-9.93-8.572-.0468-.0391-.0923-.08-.1384-.12-2.03-1.7521-5.0028,1.1957-2.96,2.96l16.8246,14.5238,34.0141,29.3626,27.1765,23.46c1.4,1.2083,2.9764,3.0827,4.7579,3.7262,5.51,1.99,11.1,3.784,16.645,5.6744l9.8313,3.3516c1.6627.5668,3.4476,1.4794,5.2354,1.4214a18.5655,18.5655,0,0,0,13.0248-5.454,14.6284,14.6284,0,0,0,4.06-11.1762,13.4231,13.4231,0,0,0-4.5584-8.8554c-.4933-.4369-.99-.87-1.4847-1.3054l-8.4349-7.4153-30.5853-26.8888-33.3583-29.3264c-5.8375-5.132-11.6521-10.2916-17.5133-15.3966a13.3,13.3,0,0,0-10.0027-3.43,13.5845,13.5845,0,0,0-9.2716,5.1032L848.868,773.101l-3.402,4.0892a2.151,2.151,0,0,0,0,2.96A2.11,2.11,0,0,0,848.4256,780.15Z"/><path class="cls-1" d="M839.2725,789.1335l17.16-20.6262a10.966,10.966,0,0,1,15.3517-.8561l91.5811,80.5124a6.4939,6.4939,0,0,1-4.2262,11.4245H920.8883Z"/><path d="M840.7523,790.6133,854.956,773.54c2.1985-2.6425,4.0959-5.4992,7.6821-6.3223a9.2142,9.2142,0,0,1,8.2079,2.389l9.665,8.4969L898.58,793.9888l21.826,19.188,20.921,18.3925,15.3539,13.4981,4.1432,3.6425c1.157,1.0172,2.3692,1.97,2.6708,3.58a4.5256,4.5256,0,0,1-2.7458,4.9262,7.2966,7.2966,0,0,1-2.6806.2789h-37.18l1.48.613-8.14-7.0268-19.4492-16.7895-23.6173-20.3876-20.3409-17.5592c-3.3083-2.8559-6.574-5.7721-9.93-8.5721-.0468-.039-.0923-.08-.1384-.12-2.03-1.7521-5.0028,1.1957-2.9595,2.96L853.9952,804.6l33.3434,28.7837,27.5885,23.8157,3.3519,2.8934a11.6607,11.6607,0,0,0,1.553,1.3023,3.7128,3.7128,0,0,0,1.9547.2857H955c1.378,0,2.7592.0277,4.1369,0a8.6892,8.6892,0,0,0,8.5968-8.899c-.1523-3.8437-2.7141-5.9445-5.3063-8.2234l-9.1832-8.0733L922.43,809.395l-32.5406-28.6077c-5.5077-4.842-10.9707-9.7411-16.526-14.5286a13.4092,13.4092,0,0,0-11.1693-3.2083,13.7641,13.7641,0,0,0-8.2715,5.2155L841.0651,783.72l-3.2723,3.9333a2.1511,2.1511,0,0,0,0,2.96A2.1093,2.1093,0,0,0,840.7523,790.6133Z"/><path class="cls-3" d="M719.29,162.7153c10.9928,14.6245,18.55,33.1035,18.2643,49.7258-92.8737,23.3874-112.8536,19.9256-112.8536,19.9256l-3.4985-13.6846,57.6765-90.1289a154.1827,154.1827,0,0,1,18.6719,13.5256l-4.7683,17.1487,14.649-9.0685q3.6622,3.4006,6.918,6.9609l-2.7326,8.3857Z"/><path d="M717.4834,163.7715c10.3668,13.853,18.2172,31.0795,17.9786,48.67l1.5364-2.018c-15.3916,3.8735-30.8367,7.5466-46.3648,10.8344-10.6206,2.2487-21.2821,4.3273-32.002,6.0479q-3.0421.4883-6.0911.9328-1.3881.2016-2.7778.3925-.3338.0458-.6675.0909c.4-.054-.1587.0212-.2858.038q-.6376.0841-1.2755.1663c-2.909.373-5.8236.7053-8.7444.9718-3.5194.3211-7.0581.5726-10.5942.5564-.8271-.0038-1.6554-.0213-2.4807-.0788-.2191-.0153-.4373-.0388-.6562-.0559-.5588-.0435.3554.0725.2353.0351a.2889.2889,0,0,0-.0363-.0057l1.4616,1.4616-3.4984-13.6846-.211,1.6126,5.7339-8.96,13.7707-21.519,16.6616-26.0365L673.5822,140.71l4.7637-7.444c.7342-1.1473,1.6215-2.2871,2.2412-3.5022.0274-.0538.0664-.1039.099-.1548l-2.8632.7508a138.7619,138.7619,0,0,1,18.2483,13.1983l-.5382-2.0361-4.7682,17.1487a2.1154,2.1154,0,0,0,3.0742,2.3633l14.649-9.0684-2.536-.3272q3.5919,3.348,6.918,6.9609l-.5382-2.0361-2.7326,8.3857a2.1063,2.1063,0,0,0,2.5743,2.5742l7.6732-2.79c2.5115-.9133,1.4272-4.96-1.1126-4.036l-7.6733,2.79,2.5743,2.5743,2.7326-8.3857a2.1068,2.1068,0,0,0-.5382-2.0361q-3.321-3.6172-6.918-6.9608a2.1413,2.1413,0,0,0-2.536-.3273l-14.649,9.0685,3.0742,2.3633,4.7682-17.1487a2.0624,2.0624,0,0,0-.5382-2.0361,145.3968,145.3968,0,0,0-19.0954-13.8528,2.1339,2.1339,0,0,0-2.8632.7507l-7.2891,11.3905-16.7256,26.1365-18.6288,29.1105-13.0254,20.3543c-.6607,1.0325-1.4335,2.0516-2.0071,3.1365a3.3681,3.3681,0,0,0,.042,2.6047l.8608,3.3668,2,7.8242.384,1.5022a2.0513,2.0513,0,0,0,1.4617,1.4616,21.5422,21.5422,0,0,0,3.1961.2442,94.6388,94.6388,0,0,0,9.585-.3854c6.4793-.5223,12.9322-1.3828,19.3567-2.3606,10.2348-1.5578,20.4137-3.4772,30.5527-5.564,14.9448-3.0759,29.81-6.536,44.6208-10.1989q3.3293-.8234,6.6549-1.661a2.13,2.13,0,0,0,1.5364-2.0179c.1919-14.1488-4.6851-28.1347-11.6489-40.2973a102.5765,102.5765,0,0,0-6.9011-10.4847,2.1584,2.1584,0,0,0-2.8632-.7508A2.1075,2.1075,0,0,0,717.4834,163.7715Z"/><path class="cls-1" d="M602.7962,211.5452s19.5319-15.3465,38.3663,10.4636c11.1612,21.6247-12.5562,32.7858-12.5562,32.7858"/><path d="M604.2759,213.025c-.8906.6966-.0807.0745.1426-.0769.4886-.3313.9945-.6374,1.5094-.9261.74-.4149,1.502-.7861,2.2779-1.1285.35-.1546.0138-.0059-.0495.02.13-.0531.26-.1066.39-.1572.2439-.0944.488-.1881.7342-.2764q.7857-.2822,1.5889-.5125a20.2624,20.2624,0,0,1,7.6668-.7946,22.51,22.51,0,0,1,9.0859,2.8877,36.975,36.975,0,0,1,10.3205,9.1608,19.2816,19.2816,0,0,1,4.0923,11.0984c.2629,5.7839-2.3841,10.8432-6.3356,14.784a33.0746,33.0746,0,0,1-3.03,2.6676c.3214-.25-.3.2233-.4231.3137q-.3361.2467-.6777.4856-.6462.452-1.3116.8756a24.9625,24.9625,0,0,1-2.7075,1.5414,2.1108,2.1108,0,0,0-.7507,2.8632,2.139,2.139,0,0,0,2.8632.7508,33.299,33.299,0,0,0,8.1025-5.6813c4.7613-4.3908,8.16-10.2492,8.4569-16.8207a25.8633,25.8633,0,0,0-2.757-12.1462,27.6864,27.6864,0,0,0-5.1722-6.6757,40.8579,40.8579,0,0,0-5.8822-5.1225,26.5835,26.5835,0,0,0-20.5089-4.7359,25.0466,25.0466,0,0,0-10.5852,4.6462,2.1042,2.1042,0,0,0,0,2.96,2.1456,2.1456,0,0,0,2.9595,0Z"/><path class="cls-4" d="M791.084,859.9627H943.9265a4.568,4.568,0,0,0,2.4085-8.4494l-12.2111-7.5769a203.8149,203.8149,0,0,1-46.8547-40.04l-13.2-15.2992c-9.1854-7.6326-23.5171-9.553-35.3-4.73l-.8426.3449a58.8218,58.8218,0,0,1-22.1912,4.2788H765.2072"/><path d="M791.084,862.0554H942.79c.3768,0,.7552.01,1.132,0a6.751,6.751,0,0,0,6.3889-8.6371c-.9057-2.8484-3.5469-4.1014-5.9-5.5613l-8.267-5.13a208.9594,208.9594,0,0,1-48.1722-41.2114l-11.7256-13.59c-2.4375-2.825-6.1262-4.6672-9.5276-6.0556a38.0781,38.0781,0,0,0-16.2464-2.6811,39.0345,39.0345,0,0,0-8.5812,1.3931c-2.4092.6816-4.67,1.7343-7.0253,2.5659a57.8607,57.8607,0,0,1-19.1306,3.25c-3.3828.01-6.7657,0-10.1485,0H765.2072c-2.6931,0-2.6976,4.1854,0,4.1854h47.4072c7.1976,0,14.3058-.5527,21.2333-2.6941,2.4866-.7687,4.8444-1.845,7.3-2.69a33.6938,33.6938,0,0,1,7.78-1.7118,35.2387,35.2387,0,0,1,15.9823,2.1413c3.05,1.1754,6.2945,2.8428,8.4568,5.3489l5.8229,6.7488c4.574,5.3012,9.0876,10.6594,13.9406,15.7107a206.883,206.883,0,0,0,28.3421,24.5488c6.4168,4.6181,13.1567,8.7255,19.869,12.89l3.305,2.0507a3.19,3.19,0,0,1,1.6974,1.8427,2.5967,2.5967,0,0,1-1.3273,2.8883,3.1352,3.1352,0,0,1-1.2448.2114c-5.5266.1676-11.0845,0-16.6129,0H791.084c-2.6931,0-2.6976,4.1854,0,4.1854Z"/><path d="M721.6765,855.362c.0944-.1937.2063-.38.3193-.5633q.1894-.3071.3986-.6013c.0849-.12.1777-.2351.2613-.3559-.0622.09-.3575.45-.1453.19.0661-.0806.1311-.1621.1982-.2419a13.3192,13.3192,0,0,1,1.7339-1.7048c.3022-.25-.2084.15-.0964.0724.1017-.07.1992-.1473.3-.2185q.2912-.2048.5946-.3911c.4426-.272.954-.448,1.3872-.724.0123-.0079-.4325.1679-.22.0939.0772-.0269.1526-.06.2292-.0892q.2343-.0882.4724-.1656.4309-.14.8724-.2441c.3307-.078.67-.1143,1-.1887.0033-.0007-.4473.0481-.2077.0307.1187-.0086.2372-.0249.356-.0345.195-.0157.39-.0256.5858-.0331a2.0927,2.0927,0,1,0,0-4.1854,13.9593,13.9593,0,0,0-11.186,6.4445,7.43,7.43,0,0,0-.4679.7971,2.093,2.093,0,0,0,3.614,2.1124Z"/><path class="cls-4" d="M630.699,349.6642l-73.9425-6.2782c-19.5319,0-30.3231,12.9175-46.8315,34.69L414.123,504.43,259.2913,540.0253a59.4292,59.4292,0,0,1-36.0987-3.03l0,0a46.4162,46.4162,0,0,0-38.265,1.2111l-62.06,30.4949,110.6957,60.1638,156.3563-36.18a203.8881,203.8881,0,0,0,96.657-52.9354L593.0541,435.5262"/><path d="M630.699,347.5715l-57.3312-4.8678c-7.23-.6139-14.8144-1.9965-22.0671-1.0485-17.9025,2.34-29.5707,17.63-39.844,30.9878-8.5422,11.1066-16.945,22.3225-25.41,33.4875l-44.81,59.1-18.72,24.69c-3.2294,4.2593-6.7474,8.4165-9.7409,12.8473-.141.2088-.3066.4043-.4589.6053l1.2506-.9617L376.75,510.8757l-70.7549,16.2665-46.09,10.5962a62.0081,62.0081,0,0,1-13.862,1.7033,57.5208,57.5208,0,0,1-17.0783-2.5794c-5.1737-1.601-9.9666-3.8957-15.3593-4.7968a49.4346,49.4346,0,0,0-29.7384,4.3361c-1.8738.9041-3.735,1.8353-5.6023,2.7528L123.1629,566.23l-1.3514.6641a2.1075,2.1075,0,0,0,0,3.614L156.68,589.46l58.28,31.6755,16.1767,8.7922a4.6168,4.6168,0,0,0,3.084.9325c1.1186-.1458,2.2529-.5213,3.35-.7752l47.3561-10.9578,66.6842-15.43q19.2035-4.4436,38.407-8.8871a207.5965,207.5965,0,0,0,91.2661-47.2456c9.8895-8.84,19.1509-18.4506,28.6251-27.7243l48.3227-47.3,34.5007-33.77,1.8011-1.763c1.9281-1.8873-1.0323-4.846-2.96-2.96L577.1208,448.194,544.12,480.4963,508.7686,515.1l-22.0712,21.6041a209.0576,209.0576,0,0,1-49.1791,36.1389A214.1457,214.1457,0,0,1,386.07,591.43l-30.8951,7.1489L307.2367,609.671l-46.6747,10.8-26.3012,6.0859-1.2537.29,1.6125.211-37.6024-20.4372-59.3959-32.282-13.6973-7.4446v3.614l51.0554-25.0876c9.1852-4.5134,17.9715-9.4075,28.5149-9.84a44.8759,44.8759,0,0,1,16.6545,2.4829c5.0943,1.78,9.9361,3.7335,15.299,4.6464a63.102,63.102,0,0,0,24.6071-.7142c13.8116-3.13,27.6043-6.3462,41.4061-9.5192l71.3827-16.4109,28.3279-6.5126c4.3456-.9991,9.049-1.62,13.2788-3.0528a4.6716,4.6716,0,0,0,2.2065-1.9731l3.7134-4.8976,15.055-19.856,43.9318-57.9416,31.0188-40.9106c7.0627-9.3151,14.0352-19.1275,23.0626-26.6688a35.7544,35.7544,0,0,1,20.678-8.6921,49.5247,49.5247,0,0,1,7.3923.3219l63.7588,5.4135,5.4314.4612c2.6836.2278,2.6684-3.9589,0-4.1854Z"/><path class="cls-1" d="M630.699,349.6642l-73.9425-6.2782c-19.5319,0-30.3231,12.9175-46.8315,34.69l-58.5022,77.6186s46.7378,6.2781,76.0358,53.7129c14.6489-11.1611,98.3574-123.47,98.3574-123.47"/><path class="cls-1" d="M630.699,349.6642l-73.9425-6.2782c-19.5319,0-30.3231,12.9175-46.8315,34.69l-58.5022,77.6186s46.7378,6.2781,76.0358,53.7129c14.6489-11.1611,98.3574-123.47,98.3574-123.47"/><circle class="cls-5" cx="528.5049" cy="469.9951" r="25.4613"/><path d="M214.25,549.1693,245.5,693.6474a19.9249,19.9249,0,0,1-15.9572,23.7931l-53.4,9.5954A19.9248,19.9248,0,0,1,154.3,715.2625L101.2431,573.5843Z"/><path d="M212.2315,549.7256l1.3457,6.2214,3.567,16.491,5.0185,23.2019,5.7733,26.6912,5.7385,26.5307,4.9937,23.087,3.5253,16.2983c.491,2.27,1.0773,4.5419,1.4561,6.8348a17.9879,17.9879,0,0,1-5.9539,16.2354,19.3526,19.3526,0,0,1-9.6741,4.2786L208.62,719.082l-25.4153,4.5669-6.9224,1.2438a18.3217,18.3217,0,0,1-11.7511-1.5722,17.9047,17.9047,0,0,1-6.9824-6.3586c-.4217-.6726-.7836-1.3719-1.139-2.0809-.1122-.2238-.1789-.3867-.0994-.1933-.025-.0608-.0453-.1235-.0692-.1847-.3323-.853-.6424-1.7154-.9634-2.5727l-4.7846-12.7765-7.5692-20.2119-9.2472-24.693-9.6748-25.8348-8.978-23.9741L107.88,585.3629l-4.0786-10.8913-.5407-1.4437-1.4616,2.5743,11.2415-2.4287,26.9955-5.8324,32.6566-7.0554,28.2247-6.0979c4.54-.981,9.2027-1.7419,13.688-2.9573.0656-.0178.1336-.0289.2-.0432,2.6314-.5686,1.5179-4.6043-1.1127-4.036L202.4516,549.58l-26.9955,5.8323L142.8,562.4679l-28.2246,6.0979c-4.54.9809-9.2028,1.7419-13.6881,2.9573-.0656.0177-.1336.0288-.2.0432a2.1027,2.1027,0,0,0-1.4616,2.5743l2.2416,5.9858,5.9174,15.8014,8.3415,22.2743,9.6334,25.7244,9.682,25.8538,8.5193,22.75,6.1257,16.3575c.86,2.2953,1.68,4.61,2.58,6.89A21.9715,21.9715,0,0,0,164.35,727.8151a23.0632,23.0632,0,0,0,13.077,1.1079l19.16-3.4428,25.6245-4.6044,7.16-1.2865a22.9354,22.9354,0,0,0,11.2845-5.3125,22.0868,22.0868,0,0,0,7.3578-17.4791,30.506,30.506,0,0,0-.7386-4.8321L244.8809,680.9l-4.3094-19.9232L235.07,635.542l-5.9129-27.3367-5.5593-25.7018-4.4244-20.4548-2.5666-11.8663-.3395-1.5694C215.6983,545.9816,211.6625,547.0952,212.2315,549.7256Z"/><path class="cls-5" d="M503.6468,386.4471l-20.1137,26.6862a25.4609,25.4609,0,1,0,28.5111-37.4993C509.3725,378.9408,506.6023,382.5493,503.6468,386.4471Z"/><path d="M630.699,347.5715l-12.789-1.0859-27.5354-2.3379-25.5583-2.17-6.9389-.5891a33.4471,33.4471,0,0,0-9.66.781c-13.0033,2.7495-22.5327,12.7823-30.614,22.6747-4.38,5.3612-8.5282,10.9062-12.6942,16.4337l-12.8108,16.9968-17.2767,22.9221L458.87,442.3609l-8.8355,11.7226-.4184.5551a2.0994,2.0994,0,0,0,1.2506,3.0742,79.7035,79.7035,0,0,1,17.32,4.8576,115.917,115.917,0,0,1,36.607,22.6148,119.7724,119.7724,0,0,1,20.8584,25.2788,2.1067,2.1067,0,0,0,2.8632.7508,52.7924,52.7924,0,0,0,6.4891-6.2276c3.1818-3.44,6.2325-7.0013,9.25-10.5853,8.2958-9.8538,16.3145-19.9416,24.2753-30.0666q13.512-17.1858,26.765-34.5736,10.9553-14.3271,21.8032-28.7361,3.5417-4.7022,7.0719-9.413c1.0978-1.4654,2.3111-2.8974,3.3138-4.4309.0425-.0649.0936-.1254.14-.1876a2.1068,2.1068,0,0,0-.7508-2.8633,2.1426,2.1426,0,0,0-2.8632.7508q-4.1934,5.6259-8.4168,11.23-10.3134,13.7131-20.7188,27.357-12.9024,16.9143-25.978,33.6675c-8.1639,10.4322-16.3875,20.8233-24.85,31.0155-3.2277,3.8874-6.4886,7.75-9.8571,11.5167a89.4742,89.4742,0,0,1-6.9851,7.2383c-.2023.18-.4064.3587-.6143.5325-.1712.1432-.891.7018-.1864.1622l2.8633.7508a122.4937,122.4937,0,0,0-39.0559-39.461,114.5652,114.5652,0,0,0-32.0619-13.9139,54.5492,54.5492,0,0,0-6.1687-1.3l1.2507,3.0742,6.1517-8.162,14.6432-19.428L491.37,406.1484l14.4975-19.2347c2.2333-2.9632,4.4587-5.9327,6.704-8.8868a210.664,210.664,0,0,1,14.905-18.134c4.2153-4.4218,8.8777-8.4823,14.4091-11.1692a31.8094,31.8094,0,0,1,14.9181-3.241c1.4229.0635,2.85.242,4.2692.3625l22.6941,1.9269,28.3487,2.4069,17.716,1.5042.8675.0737c2.6836.2278,2.6684-3.9589,0-4.1854Z"/><path d="M684.1036,538.2233s33.7,6.4807,37.5884,25.923-45.3654,23.9789-45.3654,23.9789"/><path d="M683.5472,540.2412a78.48,78.48,0,0,1,14.73,4.5461c7.6253,3.1246,16.179,7.9727,19.9969,15.71a15.7051,15.7051,0,0,1,1.0766,2.8559c.1325.4759.244.9564.3407,1.4408.0288.1442.1026.6864.0521.2583q.0366.31.0551.6211a10.31,10.31,0,0,1,.0068,1.1257c-.0085.1695-.0239.3382-.0382.5073-.0309.3634.0708-.297-.03.19-.0732.3528-.1458.7024-.2476,1.0485-.0644.2191-.4264,1.1542-.2443.7424a14.9825,14.9825,0,0,1-6.0131,6.3793c-6.5483,4.2154-14.3227,6.303-22.0295,7.9682q-4.8825,1.0549-9.8308,1.7711-.4788.07-.9582.137c-.1391.0195-.2783.0382-.4174.0578-.4909.0693.3082-.04-.0392.0055-.5153.0673-1.0307.1339-1.5466.1961-.6141.0742-1.2292.1381-1.8439.2065-.08.0089-.16.016-.24.0234a2.15,2.15,0,0,0-2.0927,2.0928,2.1081,2.1081,0,0,0,2.0927,2.0927,134.1041,134.1041,0,0,0,13.7931-2.0914c8.1144-1.6159,16.4825-3.7956,23.7156-7.931a22.9694,22.9694,0,0,0,8.19-7.2439,12.9494,12.9494,0,0,0,1.4272-10.4688c-2.5046-9.4849-11.2942-15.7848-19.6977-19.8083a79.7057,79.7057,0,0,0-18.77-6.4031c-.1084-.0214-.2163-.0452-.3247-.0661-2.6317-.5082-3.7588,3.525-1.1127,4.0359Z"/><path class="cls-6" d="M630.175,546.3525c28.7727,91.8278-16.0443,151.666-47.0121,183.184l-36.2452,36.8892c48.3627-.9108,160.3384,4.6315,160.3384,4.6315l3.46,89.2285-265.6729.0907a80.0914,80.0914,0,0,1-80.1187-80.0914v0A80.0913,80.0913,0,0,1,386.277,725.839l173.27-186.9327"/><path d="M628.157,546.9088c7.2977,23.4067,10.77,47.98,8.42,72.4637A159.5269,159.5269,0,0,1,620.3031,675.38a197.43,197.43,0,0,1-27.6445,40.8176c-6.7338,7.7588-14.0465,14.9846-21.2426,22.3086l-25.4542,25.9065-.5238.5331a2.1159,2.1159,0,0,0,1.48,3.5725c25.0673-.4639,50.1741.36,75.226,1.1684q35.3883,1.1412,70.7583,2.7877,7.1775.3271,14.3541.6754l-2.0927-2.0927,1.1706,30.1883,1.8641,48.07.4254,10.9707,2.0928-2.0927-9.1642.0031-24.55.0084-35.369.0121-42.0655.0143-44.2291.0151-41.8263.0143-35.3514.0121-24.2928.0083c-3.2658.0011-6.5336.0361-9.7993-.0025a77.9981,77.9981,0,0,1-56.19-131.0905q4.0371-4.3669,8.0857-8.7234l18.4269-19.88,25.3984-27.4012,29.3179-31.63,29.8889-32.2457,27.1025-29.24,21.2773-22.9551,12.0782-13.0306,1.5725-1.6965c1.8291-1.9733-1.1237-4.94-2.96-2.96l-6.57,7.0883-17.4011,18.7733-25.04,27.0144L479.88,621.7789l-30.0964,32.47-27.8164,30.01-22.0118,23.7475-13.0509,14.08c-8.0521,8.6871-14.6756,18.2831-18.8716,29.45A82.1551,82.1551,0,0,0,411.75,855.4428a86.4324,86.4324,0,0,0,35.177,7.0256l16.6269-.0056,30.1428-.01,39.3574-.0135,43.7888-.0149,44.0571-.015,39.5059-.0135,30.6628-.01,17.39-.0059,2.2575-.0008a2.1157,2.1157,0,0,0,2.0927-2.0927l-1.1707-30.1883-1.8641-48.07-.4254-10.9706a2.1412,2.1412,0,0,0-2.0927-2.0927q-20.3476-1.0068-40.7049-1.8185c-26.7926-1.1039-53.595-2.0742-80.4057-2.606-13.0718-.2593-26.1541-.449-39.2278-.207l1.48,3.5725,22.67-23.0727c7.3141-7.4442,14.7991-14.7678,21.7759-22.5336a208.2656,208.2656,0,0,0,28.4908-39.8463,165.5346,165.5346,0,0,0,18.5143-55.4444c3.373-23.8715,1.2981-48.1432-4.8275-71.4095q-1.299-4.9341-2.8279-9.8029c-.7991-2.563-4.8409-1.469-4.036,1.1127Z"/><path class="cls-6" d="M704.815,546.1519c28.7728,91.8278-16.0443,151.666-47.0121,183.184l-36.2451,36.8892c48.3626-.9108,170.9775-4.9944,170.9775-4.9944v98.8544l-272.8519.0907a80.0914,80.0914,0,0,1-80.1187-80.0914v0a80.0913,80.0913,0,0,1,21.3523-54.4459L577.6556,598.9239A62.87,62.87,0,0,0,592.15,572.5776l9.251-34.5694"/><path d="M702.7971,546.7082c7.2785,23.3478,10.76,47.8649,8.4371,72.2895a159.6269,159.6269,0,0,1-16.2568,56.1136,197.2485,197.2485,0,0,1-27.56,40.7485c-6.75,7.7905-14.0863,15.0412-21.3067,22.39l-25.4859,25.9386-.5472.557a2.116,2.116,0,0,0,1.48,3.5725c11.7969-.223,23.5923-.5269,35.387-.8432q21.6839-.5815,43.3655-1.2387,21.4977-.6426,42.9943-1.3228,16.8051-.53,33.61-1.0768,5.2657-.1715,10.5316-.3447a32.4928,32.4928,0,0,0,4.8808-.1613,1.39,1.39,0,0,1,.2085-.0069l-2.0927-2.0927v98.8544l2.0927-2.0927-8.1557.0027-22.1665.0074-32.3559.0107-39.1573.013-41.9966.014-41.3623.0137-37.2438.0124-29.1789.01-17.7.0059a91.0163,91.0163,0,0,1-23.6631-2.6133A78.0231,78.0231,0,0,1,442.6386,767.68c2.5945-15.8211,9.9784-29.9461,20.7881-41.6795l13.31-14.4476,23.9745-26.0233,28.2722-30.6881,26.505-28.77,18.6437-20.2368c5.4431-5.9083,10.766-11.7292,14.5912-18.9169,3.1079-5.84,4.978-12.04,6.6754-18.383l5.04-18.833,2.98-11.137c.6971-2.6048-3.3392-3.7162-4.0359-1.1127l-8.2063,30.6655c-1.7972,6.7158-3.9167,13.1943-7.4949,19.2264a66.78,66.78,0,0,1-8.4624,11.1384l-13.3021,14.4388L537.9741,638.91,509.4707,669.85,482.79,698.81l-18.5053,20.0866c-5.67,6.1543-11.2175,12.2847-15.4937,19.5646a82.1881,82.1881,0,0,0,71.0025,123.8071c3.3479.0058,6.696-.0023,10.044-.0034l23.726-.0079,33.5374-.0111,39.9237-.0133,42.4729-.0141,41.3057-.0137,36.4226-.0121,27.7311-.0093,15.5663-.0051,2.012-.0007a2.1232,2.1232,0,0,0,2.0927-2.0927V761.2307a2.1165,2.1165,0,0,0-2.0927-2.0927q-6.288.2094-12.5763.4136-15.832.5169-31.6648,1.0183-21.1437.67-42.2883,1.31-21.9907.6631-43.9832,1.2722-18.4313.5037-36.8654.91-1.8.0367-3.5995.0708l1.48,3.5725,22.7713-23.1759c7.2625-7.3915,14.6926-14.6643,21.6228-22.3728a208.1781,208.1781,0,0,0,28.6234-40.0535,165.4937,165.4937,0,0,0,18.4369-55.32c3.358-23.7917,1.31-47.9906-4.7783-71.1844q-1.3218-5.0353-2.8806-10.0031c-.799-2.5631-4.8408-1.4691-4.0359,1.1127Z"/><path class="cls-1" d="M556.7565,343.386H657.328c12.9048,0,19.6467,5.3363,25.1858,24.2752,0,0,33.3455,131.9458,39.1782,194.8145-19.4423-20.9562-200.2556-.2736-200.2556-.2736L551.37,392.4579"/><path class="cls-5" d="M581.66,328.7371a25.4624,25.4624,0,1,0,4.3942,14.3A25.4336,25.4336,0,0,0,581.66,328.7371Z"/><path class="cls-5" d="M688.7574,393.1824c-3.7467-15.641-6.2437-25.5212-6.2437-25.5212-2.432-8.3157-5.0966-14.0075-8.4121-17.778a25.4588,25.4588,0,1,0-3.2923,50.7036A25.3786,25.3786,0,0,0,688.7574,393.1824Z"/><path class="cls-5" d="M707.8187,478.4858a25.4645,25.4645,0,0,0,7.6351,49.7564c.55,0,1.0933-.0235,1.6346-.0577C714.5328,512.5445,711.29,495.4732,707.8187,478.4858Z"/><path d="M556.7565,345.4787h85.23c5.3435,0,10.6934-.0781,16.0364.0056,6.102.0955,11.3946,1.7625,15.2621,6.6683,3.5995,4.5658,5.8056,10.7059,7.2757,16.323,1.3542,5.1739,2.5793,10.3854,3.8426,15.5819q4.112,16.9146,8.0294,33.8758,5.1771,22.4049,9.9841,44.8936c3.3828,15.8962,6.6043,31.8289,9.5173,47.8183,2.594,14.2381,5.0025,28.5828,6.7089,42.8826q.5331,4.4679.9561,8.9479l3.5725-1.48c-2.7462-2.9324-6.93-4.4035-10.691-5.48a102.8272,102.8272,0,0,0-17.6283-3.0624c-7.5341-.7866-15.1114-1.1427-22.6821-1.3224-8.7437-.2076-17.4928-.1587-26.2365.0292-9.2928.2-18.5818.5621-27.8647,1.03q-13.7918.6954-27.5669,1.68-12.6784.894-25.3426,1.9793-10.6014.9044-21.1923,1.9278-7.5611.7306-15.1157,1.5254c-2.344.2475-4.7952.3292-7.113.7722-.0987.0189-.2023.0228-.3023.0343l2.0179,2.649.7995-4.5338,2.176-12.34,3.2188-18.2524,3.9276-22.2724,4.3027-24.3995,4.3441-24.6338,4.0516-22.9752L549.7,413.9281l2.4652-13.9794c.3911-2.2175.8016-4.4326,1.1734-6.6535.0157-.0938.033-.1874.0495-.281a2.1526,2.1526,0,0,0-1.4616-2.5743,2.1105,2.1105,0,0,0-2.5743,1.4617l-.7995,4.5338-2.176,12.3395-3.2188,18.2524L539.23,449.3l-4.3027,24.4-4.3441,24.6338-4.0516,22.9751-3.4252,19.4238-2.4652,13.9793c-.3911,2.2176-.8016,4.4327-1.1734,6.6536-.0157.0938-.033.1873-.0495.281-.2089,1.1844.544,2.8176,2.018,2.649,1.61-.1841,3.2219-.3582,4.8335-.5314q6.6141-.7112,13.2342-1.3638,9.81-.9718,19.6307-1.8407,12.1536-1.0761,24.3207-1.9907,13.5079-1.0115,27.0322-1.7867,13.9141-.7869,27.8447-1.237c8.9159-.2733,17.8375-.4187,26.7577-.3413,7.895.0685,15.7952.3006,23.67.8927,3.4177.257,6.83.5864,10.2293,1.0258.081.01.587.0777.3422.0448-.248-.0334.3534.0489.4235.0587q.5613.0785,1.1218.1617,1.13.168,2.257.3573c1.3826.2332,2.7608.4926,4.1314.7885a53.2947,53.2947,0,0,1,7.0287,1.9625c.4782.1745.9513.3615,1.4218.5556-.5875-.2423.0491.0249.2664.1241q.342.1562.679.3225a17.4824,17.4824,0,0,1,2.2438,1.3075c.1067.0744.6219.46.2916.2053-.3234-.2492.13.1065.2222.1877.2752.2426.5427.49.7937.7575,1.171,1.25,3.743.35,3.5725-1.48-1.2967-13.9154-3.4392-27.7538-5.7952-41.5243-2.74-16.0115-5.8556-31.9579-9.1486-47.8641q-4.8206-23.2849-10.1249-46.4665-4.2577-18.715-8.7523-37.375-2.4665-10.2446-5.0125-20.47a71.4989,71.4989,0,0,0-3.2463-9.8853c-2.6469-6.4265-6.466-12.7432-13.1107-15.5958-6.1457-2.6383-13.2748-2.0016-19.8364-2.0016H556.7565c-2.6931,0-2.6976,4.1854,0,4.1854Z"/><path class="cls-4" d="M581.1749,375.4562c13.2463,7.6477,32.4261-.7733,42.8389-18.8089a49.6716,49.6716,0,0,0,5.3214-13.2613H570.46C567.59,356.9752,571.3926,369.8083,581.1749,375.4562Z"/><path d="M580.1187,377.2632c15.88,9.0211,34.2743-2.7746,43.4048-15.9347a52.3992,52.3992,0,0,0,7.83-17.3861,2.1174,2.1174,0,0,0-2.0179-2.6491H570.46a2.1191,2.1191,0,0,0-2.018,1.5364c-2.5772,12.4835-.18,27.46,11.6767,34.4335,2.3267,1.3685,4.4352-2.2478,2.1124-3.614-10.1475-5.9684-11.9443-19.0937-9.7532-29.7068l-2.0179,1.5363h58.8752l-2.018-2.649a48.2872,48.2872,0,0,1-14.6694,24.5613c-5.4535,4.8445-12.5094,8.5747-19.9277,8.7862a19.9148,19.9148,0,0,1-10.489-2.528C579.8857,372.3168,577.7743,375.9314,580.1187,377.2632Z"/><line class="cls-6" x1="638.3918" y1="749.092" x2="590.2399" y2="794.7141"/><path d="M636.912,747.6122l-16.3075,15.4507L594.719,787.5885l-5.9589,5.6458c-1.9593,1.8564,1.0039,4.8125,2.96,2.96l16.3074-15.4507,25.8856-24.5256,5.9588-5.6458c1.9594-1.8564-1.0038-4.8124-2.9595-2.9595Z"/><path class="cls-1" d="M595.8368,389.8076l-95.802,126.3533L300.17,561.8888l19.3051,78.7076,156.3563-36.1795a203.889,203.889,0,0,0,96.657-52.9354l106.4774-104.224"/><path d="M594.03,388.7514l-9.5137,12.5477-22.8524,30.14-27.77,36.6254-23.8211,31.4176-7.9265,10.4543a55.2865,55.2865,0,0,0-3.7573,4.9554,2.3514,2.3514,0,0,1-.1613.2128l1.2506-.9617L479.49,518.7163l-47.61,10.8929-57.9216,13.2522L324.2159,554.242c-8.0545,1.8428-16.3,3.33-24.2616,5.5509-.1117.0312-.2273.052-.34.0779a2.1253,2.1253,0,0,0-1.4616,2.5743l6.5023,26.51,10.4181,42.4753,2.3846,9.7223a2.13,2.13,0,0,0,2.5743,1.4616l18.7646-4.342,43.6533-10.101,49.4145-11.4341,36.6337-8.4768c13.0565-3.0211,25.94-6.422,38.4041-11.4638a207.5678,207.5678,0,0,0,67.1245-43.8922q8.0709-7.8839,16.1255-15.7843l33.6792-32.9663,35.031-34.29,20.596-20.16.9878-.9669c1.9281-1.8873-1.0324-4.8459-2.96-2.9595L662.9738,459.983l-32.9263,32.2294-35.4241,34.6744-22.0057,21.54a209.1716,209.1716,0,0,1-49.1751,36.1406A214.0969,214.0969,0,0,1,471.97,603.1638L441.13,610.3l-48.0876,11.127L346.46,632.2056l-26.2856,6.0823-1.2559.2906,2.5743,1.4616-6.5023-26.51-10.4182-42.4753-2.3846-9.7222-1.4616,2.5742,15.9864-3.6576,39.5876-9.0574,50.6312-11.5841,48.96-11.2019,35.1175-8.0346,8.3746-1.9161a10.1454,10.1454,0,0,0,1.2035-.2753,4.5036,4.5036,0,0,0,1.8893-1.8l16.806-22.1655,30.0023-39.57,30.1869-39.8135,17.36-22.8958.812-1.0709c1.6273-2.1462-2.0055-4.2338-3.614-2.1125Z"/><path class="cls-6" d="M579.9025,556.7455l-.2226,2.3191a102.4293,102.4293,0,0,1-11.9788,39.1522l-15.2842,28.1025"/><path d="M577.81,556.7455a105.481,105.481,0,0,1-12.0739,40.706q-5.5244,10.1671-11.0569,20.33l-4.0691,7.4818c-1.2873,2.3669,2.3253,4.482,3.614,2.1124l10.11-18.5882c4.7518-8.737,9.5382-17.3534,12.6734-26.8542a114.8264,114.8264,0,0,0,4.9882-25.1876,2.1076,2.1076,0,0,0-2.0927-2.0927,2.1381,2.1381,0,0,0-2.0927,2.0927Z"/><path d="M550.3726,241.7962c2.6932,0,2.6976-4.1854,0-4.1854-2.6931,0-2.6975,4.1854,0,4.1854Z"/><path class="cls-3" d="M592.4981,221.7331c25.4656,29.6964-2.5168,115.6968-12.7218,122.35-30.2654,9.5532-55.0021,5.6353-72.3677-.8517-2.1219-.7926-1.0715-8.0649-2.97-8.9143-2.3312-1.0431-7.5536,4.3273-9.5365,3.2653A78.739,78.739,0,0,1,479.2181,326.92c24.3939-19.0239,23.8562-39.444,20.6832-51.11a66.02,66.02,0,0,1-1.9254-25.6461l.9343-7.3575"/><path d="M591.0183,223.2129a34.7364,34.7364,0,0,1,4.8958,7.9374,51.7455,51.7455,0,0,1,3.0664,9.5589,91.8245,91.8245,0,0,1,1.7671,23.0262c-.5366,16.406-3.7817,32.7679-8.4919,48.4619a165.7583,165.7583,0,0,1-6.7277,18.6915,72.9788,72.9788,0,0,1-3.326,6.7012c-.4934.8635-1.0121,1.7142-1.5785,2.5321-.1437.2074-.8668,1.1409-.4185.5915-.2322.2845-.4615.57-.712.8389-.215.2307-.4523.4336-.6747.6557-.325.3245.1256-.0468.0726-.0491a6.9586,6.9586,0,0,0-1.5651.4891q-4.8,1.4366-9.7018,2.5008a112.6616,112.6616,0,0,1-18.397,2.4352,103.8517,103.8517,0,0,1-31.1412-3.1709q-3.2667-.8511-6.4732-1.9139-1.419-.47-2.824-.9817l-.2758-.1008q-.4532-.1874-.182-.0527c.208-.1211.0307.239.2028.1993-.0814.0188-.1067-.4355-.034-.0006-.0451-.27-.1838-.5512-.25-.8206-.709-2.88-.092-8.8015-4.6865-8.6452-1.9683.067-3.8021,1.31-5.4475,2.2686a18.1979,18.1979,0,0,1-2.1376,1.1313,3.3255,3.3255,0,0,0-.4946.1449c.5317-.2958-.3835.2756.2583.0276l.2168.1064-.4332-.2334c-.5568-.3128-1.12-.6138-1.6756-.929a80.7579,80.7579,0,0,1-11.6871-7.9c-.4972-.4128-.9942-.83-1.4646-1.2732v2.96c10.8307-8.4951,20.011-20.0046,22.25-33.918a45.65,45.65,0,0,0-.0188-14.5436c-.3808-2.38-1.0494-4.6729-1.6016-7.0148a64.8524,64.8524,0,0,1-1.737-13.4322c-.1265-5.6128.7078-11.136,1.4125-16.6853a2.1037,2.1037,0,0,0-2.0928-2.0928,2.1453,2.1453,0,0,0-2.0927,2.0928c-.532,4.19-1.2,8.3938-1.3752,12.6172a68.3317,68.3317,0,0,0,.8315,13.4363c.5226,3.3235,1.461,6.5275,2.1708,9.8065a40.0508,40.0508,0,0,1-4.0708,27.9859c-4.0366,7.4513-10.0078,13.59-16.6354,18.7884a2.1055,2.1055,0,0,0,0,2.96,58.2477,58.2477,0,0,0,6.7437,5.27c2.4737,1.7213,5.0367,3.315,7.6653,4.7885a7.348,7.348,0,0,0,3.356,1.3564,6.92,6.92,0,0,0,3.0618-.9152c1.6527-.8161,3.2805-2.1339,4.9469-2.5849.132-.0358.2382-.0237.2408-.04-.0347.2187-.3769-.4195-.03,0-.0317-.0383-.5161-.386-.5687-.4135.0754.0394.2383.56.0882.1516a9.8451,9.8451,0,0,1,.4424,2.2557c.2209,1.8268.2722,3.9628,1.3295,5.5474,1.1648,1.7456,3.8957,2.1972,5.7747,2.814,22.25,7.3035,46.3208,6.6167,68.5948-.2334,2.19-.6734,3.4277-2.1446,4.7158-3.9653a42.7011,42.7011,0,0,0,3.2325-5.5743A134.4026,134.4026,0,0,0,594.5,318.9832a205.0894,205.0894,0,0,0,10.1251-49.4646,112.9934,112.9934,0,0,0-.6969-25.0077c-1.0547-7.0175-3.079-14.1049-6.9044-20.1438a36.4742,36.4742,0,0,0-3.0461-4.1137c-1.7485-2.0541-4.6969.9186-2.96,2.9595Z"/><polyline class="cls-4" points="579.776 353.85 568.99 318.787 609.396 290.075 623.723 344.084 629.304 343.386"/><path d="M581.7943,353.2933l-9.4308-30.6562-1.3556-4.4067-.9617,2.3633,13.601-9.6646,21.8068-15.4954,4.9983-3.5517-3.0742-1.2506,4.8353,18.2274,7.7132,29.076,1.7787,6.7051a2.1056,2.1056,0,0,0,2.018,1.5364l5.5805-.6976a2.16,2.16,0,0,0,2.0928-2.0927,2.1051,2.1051,0,0,0-2.0928-2.0927l-5.5805.6976,2.0179,1.5364L620.9059,325.3l-7.7132-29.076-1.7787-6.7051a2.1077,2.1077,0,0,0-3.0742-1.2507l-13.601,9.6646L572.932,313.428l-4.9983,3.5517a2.16,2.16,0,0,0-.9617,2.3633l9.4308,30.6562,1.3556,4.4067c.79,2.5668,4.831,1.472,4.0359-1.1126Z"/><path class="cls-4" d="M591.2011,315.6c-6.89,5.6395-15.5629,10.2636-26.24,13.6426-47.3511,6.0372-47.6468-79.8156-47.6468-79.8156l85.2425-25.0708s15.8809,15.5546,17.227,24.2436c2.3181,14.9638-9.2365,29.0576-8.3539,48.8883"/><path d="M589.7214,314.12a74.1661,74.1661,0,0,1-22.3006,12.0982,17.3317,17.3317,0,0,1-4.8315,1.16,34.769,34.769,0,0,1-3.6282.0487,24.9375,24.9375,0,0,1-6.2061-.9494,29.331,29.331,0,0,1-3.0418-1.0134,11.0137,11.0137,0,0,1-1.0416-.4536q-.7562-.3526-1.4909-.7484a30.2565,30.2565,0,0,1-2.6722-1.6238,21.1093,21.1093,0,0,1-2.1537-1.6227,37.839,37.839,0,0,1-4.5041-4.4919,42.79,42.79,0,0,1-3.6752-5.0382,68.744,68.744,0,0,1-5.914-11.8985,110.7,110.7,0,0,1-4.1614-13.4c-1.0607-4.3-1.9115-8.65-2.5983-13.0246-.5894-3.7539-.9961-7.0335-1.3737-11.0977q-.3888-4.184-.59-8.3827c-.0626-1.3389.0223-2.738-.13-4.0688a1.7567,1.7567,0,0,1-.0016-.1865l-1.5364,2.018,8.44-2.4825,20.3975-5.9991,24.5726-7.2271,21.3489-6.279,7.0016-2.0592a31.7177,31.7177,0,0,0,3.3324-.98,1.4265,1.4265,0,0,1,.1491-.0439l-2.0361-.5382c5.375,5.2708,10.6636,11.1359,14.43,17.6785a16.3976,16.3976,0,0,1,2.2267,5.4461,25.6868,25.6868,0,0,1-.0265,7.9774c-.8393,6.0067-3.0122,11.7637-4.77,17.54-2.2761,7.4787-3.9144,15.1509-3.5995,23.0106.1076,2.6842,4.2936,2.6979,4.1855,0-.2833-7.07,1.08-13.9123,3.0784-20.6612,1.7627-5.9518,3.9981-11.8224,5.0159-17.9672.8973-5.4167.883-10.8347-1.6129-15.8208a64.2582,64.2582,0,0,0-9.055-12.7135c-2.2048-2.5666-4.4957-5.079-6.9125-7.449A2.1049,2.1049,0,0,0,602,222.3377l-8.44,2.4824-20.3975,5.9992L548.59,238.0464l-21.3489,6.2789c-3.4365,1.0108-6.9354,1.9054-10.334,3.0394-.049.0163-.1.0292-.1491.0438a2.1389,2.1389,0,0,0-1.5364,2.018c.0135,3.5968.26,7.2028.5583,10.785a177.0293,177.0293,0,0,0,3.7592,24.88c2.1351,9.311,5.169,18.63,10.0382,26.8956,4.6183,7.84,11.1529,14.6873,19.86,17.8305a33.0022,33.0022,0,0,0,14.0909,1.6736,24.5166,24.5166,0,0,0,6.2645-1.6889q3.2946-1.2082,6.4978-2.6533a75.1158,75.1158,0,0,0,11.4918-6.3963c1.6862-1.1511,3.3152-2.3848,4.8986-3.673a2.1069,2.1069,0,0,0,0-2.96,2.1411,2.1411,0,0,0-2.9595,0Z"/><circle class="cls-5" cx="640.1162" cy="515.3371" r="25.4613"/><path d="M593.5807,271.4778c.0163-.464.05-.9277.0861-1.39q.0621-.7881.1494-1.5739c.0311-.2807.0657-.561.1005-.8413.0646-.52-.0551.3646.0023-.0171.03-.1981.0572-.3966.0878-.5946a33.3445,33.3445,0,0,1,.9006-4.2017c.1-.3455.2077-.689.3248-1.0292q.08-.2338.1672-.4657c.0394-.1052.2444-.6221.1248-.3308-.129.3142.0789-.1741.1133-.2478q.1117-.24.2335-.4758a9.58,9.58,0,0,1,.5121-.8762c.0891-.1347.1856-.2635.2793-.3949-.2441.3423-.1326.1692.0448-.024.1139-.1241.2353-.2382.3572-.3544.0395-.0376.0849-.0694.1237-.1077.2517-.2487-.297.17-.1249.0993a3.536,3.536,0,0,0,.4037-.2455c.4088-.2443-.3059.0616-.024.0068a3.33,3.33,0,0,0,.4019-.108c.31-.1044-.216.0684-.2423.0278a1.93,1.93,0,0,0,.325-.0164,2.0927,2.0927,0,1,0,0-4.1854c-3.5913.0652-5.5486,3.3065-6.637,6.3186a36.2841,36.2841,0,0,0-1.7531,8.9833c-.0627.68-.1181,1.3624-.1422,2.0451a2.0928,2.0928,0,0,0,4.1855,0Z"/><path d="M551.622,264.6823a10.7731,10.7731,0,0,1,1.1211-1.07q.123-.105.2482-.2075c.052-.0427.4514-.3594.1573-.13-.2995.2337.1432-.1048.1964-.1436q.1656-.1206.3339-.2376a17.85,17.85,0,0,1,1.8546-1.1274c.362-.1908.7312-.3653,1.1042-.5335-.4217.19.1387-.055.1822-.0719q.3112-.1212.627-.23a18.4633,18.4633,0,0,1,2.67-.676q.3819-.0567.09-.0182.22-.0272.4411-.0483.338-.0323.677-.05a16.3285,16.3285,0,0,1,1.65-.0049,14.8867,14.8867,0,0,1,3.2953.5435c2.6065.69,3.7184-3.3465,1.1127-4.0359a19.194,19.194,0,0,0-13.6574,1.3549,16.8868,16.8868,0,0,0-5.0623,3.7267,2.1434,2.1434,0,0,0,0,2.96,2.1122,2.1122,0,0,0,2.9595,0Z"/><path d="M521.7715,272.0888c.2611-.2184-.5.3348.0953-.0667.4964-.335.9915-.6647,1.5115-.9632a21.1282,21.1282,0,0,1,5.029-2.0578c3.5161-.9505,7.2189-.2966,9.5162,2.7672,1.96,2.6145,1.9329,6.2213,1.44,9.3124a28.1066,28.1066,0,0,1-1.7912,6.23c-.467,1.1346-1.1781,2.2031-1.5888,3.3515a4.5346,4.5346,0,0,0,.1726,2.8362c1.52,4.5656,6.6428,3.592,10.1227,2.1924a2.1583,2.1583,0,0,0,1.4616-2.5743,2.1068,2.1068,0,0,0-2.5742-1.4616c-1.3675.55-3.1872,1.2562-4.5081,1.0812.1962.026-.63-.2832-.21-.0712-.1377-.0694-.1938-.1456-.0964-.0274a1.9907,1.9907,0,0,1-.3635-1.169l-.2857,1.0562c3.1-5.8835,5.7914-13.9921,3.0859-20.5387a12.4794,12.4794,0,0,0-6.96-6.8108c-3.4211-1.37-7.0621-.8292-10.441.3914a21.6416,21.6416,0,0,0-6.5752,3.5632,2.109,2.109,0,0,0,0,2.9595,2.1379,2.1379,0,0,0,2.9595,0Z"/><circle cx="530.3166" cy="279.4703" r="3.1092"/><path d="M532.3076,278.9315c.0213.0826.0385.1655.057.2487.0429.1923.0018.0093-.0011-.03a3.8076,3.8076,0,0,1,.0137.4519c-.0029.0677-.01.1349-.015.2024.02-.2486.0074-.066-.0061.0007-.0293.145-.0764.2825-.1172.4241-.072.25.1047-.1857-.0163.0445-.0247.0469-.0467.0952-.0719.142q-.0565.105-.1211.2056c-.0043.0067-.147.2262-.0556.0895.0895-.1338-.0607.0709-.0688.08q-.0662.075-.1373.1453c-.0474.0473-.099.09-.1466.1371-.1637.1615.1364-.08-.0422.0359-.1148.0743-.2275.1492-.3489.2126-.0408.0213-.2912.1217-.0527.0324-.066.0247-.132.0489-.1992.07-.1363.0431-.2744.0681-.4131.1006-.1589.0373.2515-.0068-.0115-.0008-.0823.0019-.1643.01-.2468.0093s-.1626-.0067-.2442-.01c-.1936-.0085.001.0011.0374.0081a3.8922,3.8922,0,0,1-.4291-.1014c-.0636-.02-.1256-.0437-.1886-.0653.2222.0762.0533.0255-.0054-.0062-.1289-.07-.2522-.1453-.3783-.2193-.2233-.131.15.145-.0426-.0284-.0495-.0447-.1-.0874-.1486-.1334s-.0953-.0936-.1406-.1428c-.0045-.0049-.18-.203-.074-.0788s-.0564-.0826-.0615-.09c-.0378-.0567-.0733-.1147-.1072-.1738s-.0635-.1218-.0968-.1818c-.1129-.2035.0387.1491-.0247-.0577a4.6492,4.6492,0,0,1-.1257-.4506c-.0131-.0651-.0257-.2535-.0072-.0119-.0053-.0688-.0117-.1372-.0143-.2062-.0051-.137.0069-.2712.0117-.4077.0057-.161-.0588.2492.002-.0016.0189-.078.0328-.157.0538-.2346s.0491-.1521.0714-.2289c.0691-.2383-.0794.1193,0-.0083.0693-.1119.1183-.2375.1885-.35.0352-.0564.074-.11.1105-.1655-.1252.19-.0357.0408.0089-.0075.11-.1184.227-.225.3406-.3387.11-.11-.2034.1291.0116-.01.057-.0369.1123-.076.17-.1114s.1178-.07.1785-.1012c.0051-.0026.25-.1169.1007-.0525s.1059-.0356.1107-.0372c.0676-.0224.1358-.0422.2048-.06s.1384-.03.2073-.0464c.2116-.05-.184.0088.0942-.009.151-.01.2992-.0007.45.0037.268.0078-.2186-.0517.042.0058.0786.0174.1567.0328.2346.0538s.152.0491.2288.0714c.2057.06-.1612-.0917.0445.0163.1423.0747.276.1554.4141.2369.2136.1259-.0948-.1033.0117.0032.0654.0654.1421.121.2085.1862q.0571.0561.1116.1152t.1058.1211q-.1193-.16-.0162-.0191c.0894.1387.17.2784.25.4227.0255.0461.0646.1792-.0049-.0211.0372.1073.0752.2128.1066.3221a1.0466,1.0466,0,1,0,2.0179-.5564,4.2267,4.2267,0,0,0-3.7145-3.047,4.1463,4.1463,0,0,0-4.04,2.3544,4.1532,4.1532,0,1,0,7.755.6926,1.0466,1.0466,0,1,0-2.0179.5564Z"/><circle cx="558.5712" cy="271.7757" r="3.1092"/><path d="M560.5621,271.2369c.0213.0827.0385.1655.0571.2488.0428.1923.0018.0092-.0012-.03a3.7848,3.7848,0,0,1,.0137.4518c-.0028.0678-.0094.1349-.0149.2025.02-.2486.0073-.066-.0061.0006-.0293.1451-.0765.2825-.1173.4241-.072.25.1047-.1856-.0163.0445-.0247.047-.0467.0953-.0719.142q-.0566.1051-.1211.2057c-.0042.0066-.147.2262-.0555.0895.0895-.1339-.0608.0708-.0688.08q-.0663.075-.1374.1454c-.0474.0472-.099.09-.1465.137-.1638.1616.1363-.08-.0423.036-.1147.0743-.2274.1492-.3489.2126-.0408.0213-.2912.1216-.0526.0323-.0661.0248-.132.049-.1993.07-.1363.0432-.2744.0682-.413.1007-.159.0373.2514-.0069-.0116-.0008-.0823.0019-.1643.0094-.2467.0092s-.1627-.0067-.2443-.01c-.1936-.0086.001.0011.0374.0081a3.898,3.898,0,0,1-.4291-.1015c-.0636-.02-.1255-.0436-.1885-.0653.2221.0762.0532.0256-.0054-.0061-.129-.07-.2522-.1453-.3784-.2193-.2232-.131.15.145-.0425-.0285-.05-.0446-.1-.0873-.1487-.1334s-.0953-.0936-.1406-.1427c-.0045-.005-.18-.2031-.0739-.0788.1045.1227-.0564-.0826-.0616-.09q-.0566-.085-.1072-.1738c-.0342-.06-.0634-.1217-.0967-.1818-.113-.2035.0387.1492-.0248-.0576a4.6492,4.6492,0,0,1-.1257-.4506c-.0131-.0652-.0257-.2536-.0071-.0119-.0053-.0688-.0118-.1372-.0144-.2062-.0051-.1371.0069-.2713.0118-.4078.0057-.1609-.0588.2492.0019-.0016.0189-.078.0328-.157.0538-.2346s.0491-.1521.0714-.2288c.0692-.2384-.0793.1193,0-.0084.0693-.1119.1183-.2374.1886-.35.0351-.0563.0739-.11.11-.1655-.1251.1906-.0357.0409.0089-.0074.11-.1185.227-.225.3407-.3388.11-.11-.2034.1292.0115-.01.0571-.0369.1123-.076.17-.1115s.1178-.07.1785-.1011c.0051-.0027.25-.1169.1008-.0525s.1058-.0357.1106-.0372c.0676-.0224.1359-.0422.2048-.06s.1384-.03.2073-.0464c.2116-.05-.184.0089.0943-.0089.1509-.01.2991-.0007.45.0037.268.0078-.2187-.0517.0419.0058.0786.0173.1567.0328.2346.0537s.1521.0491.2289.0715c.2056.06-.1613-.0918.0445.0163.1423.0747.276.1554.4141.2368.2136.126-.0949-.1033.0116.0032.0655.0655.1421.1211.2085.1863q.0571.0561.1116.1151t.1059.1212q-.1193-.16-.0163-.0191c.0895.1387.17.2783.25.4226.0256.0462.0646.1792-.0049-.021.0372.1072.0753.2127.1066.322a1.0466,1.0466,0,0,0,2.018-.5563,4.2267,4.2267,0,0,0-3.7146-3.047,4.1464,4.1464,0,0,0-4.04,2.3544,4.1532,4.1532,0,1,0,7.7551.6926,1.0466,1.0466,0,0,0-2.018.5563Z"/><path d="M559.3355,294.2094a4.924,4.924,0,0,1-.1461.5814c-.0647.2151-.1388.4274-.2207.6366-.0371.0946-.1544.3728.0232-.0476.18-.4253.0552-.1311.0133-.038q-.0967.2144-.2046.4235a8.7881,8.7881,0,0,1-.5211.88c-.0948.1406-.1969.2751-.2962.4124.4973-.6871.0224-.0434-.1313.1249a9.8666,9.8666,0,0,1-.8977.8432c-.22.1874.2426-.1822.2312-.1775a.895.895,0,0,0-.1326.0979q-.136.0981-.2761.1905-.3276.2163-.6754.4-.1607.085-.3251.1628c-.0559.0265-.1126.0511-.1685.0776-.3409.1615.51-.1964.1508-.064-.28.1031-.5587.2046-.846.2867q-.4608.1317-.9332.218c-.2021.0372-.8019.0449-.1162.0275-.1958.005-.3967.0418-.5924.0565a2.0928,2.0928,0,0,0,0,4.1855,11.3137,11.3137,0,0,0,7.2286-3.0216,10.8831,10.8831,0,0,0,2.6531-4.3332,5.5551,5.5551,0,0,0,.2189-.81,2.2657,2.2657,0,0,0-.211-1.6125,2.093,2.093,0,0,0-3.8249.5Z"/><path class="cls-3" d="M498.5755,245.8865l.6112-5.6248c3.2343-25.5955,18.86-48.8607,72.5-47.8644,0,0,22.0412,1.0111,45.061,20.5431l6.9757,6.2781a46.222,46.222,0,0,1,7.1172,11.2047,63.7205,63.7205,0,0,1,5.9364,32.979q-.0775.8979-.1329,1.7956a70.4992,70.4992,0,0,0,20.6976,53.8815l5.4456,5.4723-40.4591,10.4636-17.5662-55.667c3.3909-4.1369,6.5391-17.7407,4.9579-24.7852-2.3887-10.6424-8.6638-11.8642-16.0974-10.1957s-12.4987,17.5555-10.1706,27.9279l-6.2377-22.187a12.0611,12.0611,0,0,0-15.9734-7.9841c-8.5556,3.3187-25.3261,9.0116-40.2022,13.6278a16.4,16.4,0,0,1-10.6206-.2755"/><path d="M500.6682,245.8865c.6611-6.0836,1.3231-11.6714,3.3389-17.6722a44.5954,44.5954,0,0,1,9.819-16.5351c12.9338-13.4953,33.2777-16.8294,51.2986-17.1879a61.8189,61.8189,0,0,1,8.3762.1732c.0985.0115.1967.0252.295.0376.2954.0372-.5671-.0818-.11-.0143.2858.0421.5719.0828.8573.1277q1.0252.1614,2.0441.36c1.6907.3277,3.368.7237,5.03,1.1752a87.5849,87.5849,0,0,1,29.9154,15.0543c3.0045,2.2908,5.7629,4.84,8.5679,7.3647a26.5128,26.5128,0,0,1,4.1856,4.5114,60.78,60.78,0,0,1,10.5526,37.8758c-.1673,3.2473-.4717,6.4593-.4,9.7165a72.6059,72.6059,0,0,0,.8432,9.3633,71.8782,71.8782,0,0,0,5.1837,17.7239,73.6952,73.6952,0,0,0,9.5076,15.9081,105.4356,105.4356,0,0,0,8.6977,9.5139l2.636,2.6488.9234-3.4977L626.7484,331.71l-4.9766,1.287,2.5743,1.4617-5.9393-18.8216-9.4617-29.9839-2.1652-6.8615-.5382,2.0361c3.472-4.353,4.7926-10.6012,5.5335-15.99.832-6.0516.7171-12.811-2.97-18.006-3.3481-4.7179-8.6139-5.7011-14.0459-4.8135a11.4227,11.4227,0,0,0-6.4475,3.1111,21.3037,21.3037,0,0,0-4.4878,6.92,34.98,34.98,0,0,0-2.39,20.8015l4.0359-1.1126c-2.0593-7.3248-4.0889-14.6587-6.1782-21.975a14.3073,14.3073,0,0,0-15.0825-10.4722c-3.4747.3885-6.812,2.0737-10.08,3.2494q-5.9661,2.1462-11.9776,4.164-7.6423,2.5833-15.329,5.0335c-2.5418.8106-5.104,1.7873-7.712,2.3589a14.698,14.698,0,0,1-8.1361-.6391c-2.5421-.9052-3.6362,3.1373-1.1126,4.036a18.4435,18.4435,0,0,0,7.0719,1.0814,28.755,28.755,0,0,0,7.18-1.5921q6.8145-2.1389,13.5947-4.3848c7.6085-2.5175,15.2109-5.0845,22.7053-7.9266,3.0934-1.173,6.07-1.8446,9.2346-.424a10.1184,10.1184,0,0,1,5.56,6.4585c1.0181,3.4725,1.9594,6.9694,2.9388,10.4529l3.2871,11.6918c.7327,2.6062,4.6042,1.51,4.0359-1.1126a30.3416,30.3416,0,0,1,2.3521-18.441c1.0227-2.2065,2.5273-4.7528,4.43-6.0389a6.7406,6.7406,0,0,1,3.0605-1.1068,17.0582,17.0582,0,0,1,3.7532-.2955,7.6846,7.6846,0,0,1,5.68,2.5416,15.0534,15.0534,0,0,1,3.1779,8.03,33.1354,33.1354,0,0,1-.5059,9.3562,41.8164,41.8164,0,0,1-2.6,9.2653,15.6987,15.6987,0,0,1-1.6247,2.9351c.2833-.3949-.2422.3133-.2389.3075a2.2025,2.2025,0,0,0-.2857,1.0562,5.2935,5.2935,0,0,0,.0775.5651c.01.0422.0286.0823.0392.1242.1555.6145.3848,1.2195.5755,1.8236l2.7866,8.8308,8.4718,26.8468c1.8643,5.908,3.6153,11.8665,5.5969,17.7365.0331.0981.0623.1976.0935.2963a2.1341,2.1341,0,0,0,2.5743,1.4616l35.4825-9.1765,4.9765-1.287a2.112,2.112,0,0,0,.9235-3.4977q-2.7228-2.7362-5.4456-5.4724A70.9662,70.9662,0,0,1,647.37,302.471a67.7326,67.7326,0,0,1-8.6975-36.054c.1489-3.4114.5029-6.7848.4174-10.2058a67.6435,67.6435,0,0,0-1.1641-10.8376,64.7732,64.7732,0,0,0-7.3581-19.9893,34.3127,34.3127,0,0,0-5.5163-7.782c-2.1524-2.0673-4.4347-4.03-6.6724-6.0052a91.74,91.74,0,0,0-31.1155-17.9011,58.5049,58.5049,0,0,0-15.5689-3.391,121.0543,121.0543,0,0,0-18.5314.7354,100.2444,100.2444,0,0,0-16.0663,2.943,59.8,59.8,0,0,0-22.8634,11.5731c-10.748,9.0981-15.8018,22.3957-17.29,36.09l-.4607,4.24a2.106,2.106,0,0,0,2.0927,2.0927,2.1409,2.1409,0,0,0,2.0927-2.0927Z"/><path class="cls-1" d="M595.8368,389.8077l-65.1625,85.9428c10.2067,6.5049,23.2882,18.058,36.1554,32.5278,10.0535,11.3057,25.4321,48.0633,31.0835,57.6327l96.9623-116.4943"/><path class="cls-5" d="M583.1978,536.0781c6.1313,12.3606,11.7565,24.8228,14.7154,29.8329l27.3278-32.8328a25.45,25.45,0,0,0-42.0432,3Z"/><path class="cls-5" d="M566.8713,483.5977a25.4614,25.4614,0,1,0-3.7467-50.6459l-21.5092,28.3688A25.46,25.46,0,0,0,566.8713,483.5977Z"/><path d="M594.03,388.7514l-6.48,8.5471-15.5627,20.5256-18.8278,24.832L536.8833,464.122l-5.3467,7.0517c-.8439,1.113-1.8022,2.2-2.5591,3.3753-.0326.0506-.0738.0973-.11.1453a2.1182,2.1182,0,0,0,.7507,2.8632,141.2846,141.2846,0,0,1,20.29,16.2836q5.7814,5.43,11.1851,11.2437a76.8083,76.8083,0,0,1,6.953,8.1551,153.2985,153.2985,0,0,1,10.1117,17.4955c3.4222,6.6323,6.6487,13.3631,9.8722,20.0935,2.59,5.4073,5.0336,10.9636,8.0757,16.1383a2.1087,2.1087,0,0,0,3.2867.4236l9.6784-11.6279,23.1534-27.8175,27.9938-33.6329,24.2541-29.14c3.9046-4.6912,7.8508-9.351,11.7154-14.0753.0551-.0675.1115-.134.1672-.201a2.1509,2.1509,0,0,0,0-2.9595,2.1093,2.1093,0,0,0-2.9595,0l-9.6783,11.6279-23.1535,27.8174L632.57,521.0152l-24.254,29.14-7.9066,9.4993c-1.2535,1.506-2.6842,2.9691-3.8088,4.576-.0494.0706-.1121.1347-.1673.201l3.2868.4236c-2.669-4.54-4.8427-9.3933-7.1169-14.137-3.2166-6.71-6.4161-13.4285-9.7894-20.0613a179.3894,179.3894,0,0,0-10.3261-18.3141,63.07,63.07,0,0,0-5.8149-7.3674q-5.5091-6.0827-11.4023-11.803a152.9794,152.9794,0,0,0-23.54-19.2285l.7508,2.8633,6.48-8.5471,15.5627-20.5256,18.8278-24.832,16.2756-21.4659,5.3466-7.0517c.844-1.113,1.8023-2.2,2.5592-3.3753.0326-.0506.0738-.0972.11-.1453a2.1055,2.1055,0,0,0-.7508-2.8632,2.1444,2.1444,0,0,0-2.8632.7507Z"/><path d="M579.4643,551.4814q-2.7968,2.7373-5.6926,5.355c11.2759,8.4441,20.2541,12.2046,23.7719,9.0764,3.6006-3.2017.7044-12.9256-6.74-25.531Z"/><path d="M577.9846,550.0017q-2.7969,2.73-5.6926,5.355a2.123,2.123,0,0,0,.4235,3.2867,74.3853,74.3853,0,0,0,12.85,8.0411c2.904,1.3531,6.2531,2.7065,9.5273,2.3578a6.4219,6.4219,0,0,0,5.753-4.7609c.8493-3.1012.0244-6.5765-.9258-9.553a77.1181,77.1181,0,0,0-7.3094-15.4028,2.1168,2.1168,0,0,0-3.2867-.4236l-11.34,11.1c-1.9281,1.8873,1.0323,4.8459,2.96,2.9595l11.34-11.1-3.2867-.4236a81.2359,81.2359,0,0,1,6.1421,12.2736,21.3267,21.3267,0,0,1,1.8315,8.5265,5.4677,5.4677,0,0,1-.2119,1.11,2.682,2.682,0,0,1-.41.8178,1.6481,1.6481,0,0,1-.5381.4212c-.102.049-.1982.1059-.3017.1529.0822-.0373.3841-.1285.0152-.0232-.2339.0667-.4658.13-.7053.1733.4116-.0749-.27.0158-.4174.02-.284.0082-.5667-.004-.85-.02a8.3767,8.3767,0,0,1-1.5773-.2735,23.1612,23.1612,0,0,1-4.2957-1.546,74.2555,74.2555,0,0,1-12.85-8.0411l.4235,3.2868q2.8931-2.6278,5.6926-5.355C582.8749,551.0765,579.9142,548.1181,577.9846,550.0017Z"/><path class="cls-4" d="M566.83,508.2783c-12.8672-14.47-25.9487-26.0229-36.1554-32.5278l-12.9061,17.0219-17.7336,23.3885L300.17,561.8887l19.3051,78.7077,163.3319-36.18a203.882,203.882,0,0,0,90.9645-47.58q2.8923-2.6214,5.6926-5.355l11.34-11.1A214.3257,214.3257,0,0,0,566.83,508.2783Z"/><path d="M568.31,506.7986c-10.84-12.1641-22.7937-24.0266-36.579-32.8551a2.1472,2.1472,0,0,0-2.8632.7508l-12.69,16.7368-12.174,16.0562-5.7756,7.6174,1.2506-.9618-5.3542,1.2251-14.5694,3.3334-21.4289,4.9028-26.2662,6.01-28.7755,6.5837-28.9086,6.6141L347.0833,549.01l-22.8956,5.2384-16.46,3.7659c-2.5843.5913-5.2106,1.0924-7.772,1.7782-.1127.03-.2283.0522-.3422.0783a2.1252,2.1252,0,0,0-1.4616,2.5742L304.71,589.18l10.3642,42.2554,2.3834,9.7174a2.1326,2.1326,0,0,0,2.5743,1.4617l7.9106-1.7523,20.54-4.55,28.6073-6.3367,32.2545-7.1447,31.0429-6.8763,25.4056-5.6276,15.2438-3.3766a206.3239,206.3239,0,0,0,98.503-52.6285c3.2568-3.1225,6.4568-6.3056,9.6811-9.4616l3.0635-2.9987a2.13,2.13,0,0,0,.3272-2.536,213.7286,213.7286,0,0,0-24.3014-32.527c-1.7913-2.0189-4.7426.95-2.9595,2.9595a207.9269,207.9269,0,0,1,23.647,31.68l.3272-2.536c-7.7936,7.6287-15.4569,15.409-23.8622,22.3753A202.3464,202.3464,0,0,1,518.4889,590.33a196.2629,196.2629,0,0,1-37.065,12.2517l-12.2325,2.71-23.49,5.2032-30.163,6.6814-32.1358,7.1184-29.8451,6.611-22.8532,5.0622c-3.7462.83-7.5763,1.4986-11.2818,2.499-.1654.0447-.3362.0745-.5035.1115l2.5743,1.4617-6.5575-26.7349L304.5716,571.05l-2.3835-9.7174-1.4616,2.5743,8.2353-1.8842,21.7816-4.9835,30.8111-7.0494,35.7077-8.17,36.1141-8.2627L465.4,526.23l23.81-5.4477c3.681-.8422,7.4323-1.5425,11.0769-2.5343,1.8092-.4924,3.1936-3.1937,4.26-4.6L515.081,499.756q7.4358-9.8071,14.8717-19.6144l2.5286-3.3348-2.8633.7507c13.4823,8.6344,25.1321,20.3063,35.732,32.2006C567.1457,511.7731,570.0973,508.8046,568.31,506.7986Z"/><path class="cls-4" d="M344.0187,635.16l-24.4361,5.3912-8.4033,8.5943a99.4129,99.4129,0,0,1-53.68,28.3769l0,0-36.2736,2.0927-27.9029-51.62,41.8543-11.1612,25.81-9.0684,2.79-39.0639,49.4909-9.8118"/><path d="M343.4624,633.1419l-21.1062,4.6565c-1.0637.2347-2.1711.4042-3.2173.71-1.1082.3238-1.944,1.4917-2.7222,2.2875-2.8092,2.873-5.5741,5.7993-8.4536,8.6025a97.509,97.509,0,0,1-40.1173,23.5263q-2.8282.84-5.703,1.5114-1.3908.3245-2.7906.6093-.7008.1425-1.4038.2747c-.2008.0379-.4027.0718-.6032.1119-.7529.1508-.0457-.1626.148-.0019-.2343-.1944-1.6208.0935-1.91.11l-11.0683.6386-13.996.8074c-2.9362.1694-5.9109.2152-8.8378.51-.1511.0152-.3047.0176-.4564.0264l1.807,1.0364-9.459-17.4991-15-27.749-3.4444-6.3721-1.2506,3.0742,29.3977-7.8394c4.076-1.0869,8.1859-2.09,12.2381-3.2635,3.6044-1.0438,7.1337-2.4879,10.6731-3.7315l15.3554-5.3951a2.1879,2.1879,0,0,0,1.5364-2.018l2.4409-34.1723.3494-4.8916-1.5364,2.0179,16.6716-3.3052,26.7139-5.2961,6.1055-1.21c2.64-.5233,1.5223-4.5583-1.1127-4.0359L296.04,560.1767l-26.7139,5.2962-6.1055,1.21a2.129,2.129,0,0,0-1.5364,2.018l-2.4408,34.1723-.3494,4.8916,1.5364-2.018-13.0224,4.5755c-4.2516,1.4938-8.4817,3.1686-12.79,4.4935-3.3822,1.04-6.863,1.83-10.2814,2.7417L205,622.7144l-12.2341,3.2624a2.1182,2.1182,0,0,0-1.2506,3.0742l9.4589,17.4991,15,27.749,3.4444,6.3721a2.06,2.06,0,0,0,1.807,1.0365l32.4693-1.8733c1.2648-.0729,2.5429-.0987,3.8043-.2194a53.9733,53.9733,0,0,0,8.3266-1.78q4.2234-1.1054,8.339-2.5783a102.45,102.45,0,0,0,31.0069-17.7209c5.6891-4.7367,10.7227-10.22,15.8911-15.5054l-.9235.5382L341.5,637.8562l3.075-.6784c2.6291-.58,1.5165-4.616-1.1126-4.0359Z"/><path class="cls-4" d="M261.6842,676.8247s-47.6015,8.7966-76.5758,3.0429c-17.8758-3.8259-19.1235-17.3585-1.2181-17.8535s47.3059-1.3317,64.54-4.7214"/><path d="M261.1279,674.8067c-6.0535,1.1171-12.0845,1.9369-18.0823,2.6568a269.872,269.872,0,0,1-38.5685,2.2113,104.521,104.521,0,0,1-18.8123-1.8251,24.8718,24.8718,0,0,1-8.9262-3.5281,11.3965,11.3965,0,0,1-2.39-2.1529,6.4029,6.4029,0,0,1-1.0605-1.9792,5.6175,5.6175,0,0,1-.1361-.6166c.0665.4231.0046-.0674.0072-.2286.0034-.2012.006-.4013.0288-.6017-.0527.4638.0568-.125.0934-.2844a3.4955,3.4955,0,0,1,1.0777-1.6125c1.4674-1.3906,4.1843-2.1818,6.486-2.5083a86.1609,86.1609,0,0,1,9.4825-.4135q5.2353-.1555,10.4694-.35c14.5953-.5531,29.3013-1.219,43.7484-3.4848q2.2275-.3495,4.4413-.7787c2.6411-.5153,1.523-4.55-1.1126-4.0359-14.4349,2.8159-29.3632,3.39-44.0233,3.9933-7.0913.2921-14.2346.2336-21.3138.7182-4.9337.3377-11.9984,1.9493-13.3568,7.6089-1.255,5.2287,3.411,9.4789,7.6075,11.6045,6.1015,3.0905,13.2442,3.775,19.972,4.2849,13.6754,1.0365,27.4954.1887,41.1105-1.2511q8.029-.849,16.0183-2.0376c2.6532-.3931,5.3584-.7161,7.9817-1.2863.1223-.0266.2472-.0442.37-.067a2.1116,2.1116,0,0,0,1.4616-2.5742,2.1381,2.1381,0,0,0-2.5743-1.4617Z"/><path class="cls-4" d="M254.78,660.3661s-43.4877,7.8159-72.462,2.0623c-17.8758-3.826-19.1234-17.3585-1.2181-17.8535s51.3523-2.1228,68.5865-5.5124"/><path d="M254.2238,658.3482c-6.66,1.1948-12.8415,1.9389-19.5963,2.6263-13.3979,1.3633-26.9866,2.0594-40.43.9616-6.3878-.5216-13.5047-1.0845-19.1556-4.3687a10.0465,10.0465,0,0,1-4.3987-4.3437c.1548.3474-.0662-.1972-.0939-.2967-.0574-.2056-.1115-.409-.1566-.6176-.0782-.3614-.0191.2528-.0193-.2309,0-.2318-.0033-.4585.016-.69.0263-.3141-.071.3545-.0006.0475.0191-.0828.03-.17.0564-.2513.0347-.1065.1927-.6012.1153-.4068-.0759.1906.1455-.2844.2049-.3874.0668-.1158.4244-.6235.1994-.3377,1.2983-1.65,3.5026-2.4375,5.7357-2.911a50.4117,50.4117,0,0,1,8.7813-.6088q9.9076-.3315,19.8063-.8863c13.6863-.7676,27.46-1.6708,41.0039-3.8637q1.9806-.3207,3.95-.7029c2.641-.5157,1.523-4.5506-1.1126-4.0359-13.4737,2.631-27.3621,3.4405-41.041,4.2552q-10.4616.6231-20.9366.9906c-5.808.206-12.6519-.3343-17.5669,3.3543a7.931,7.931,0,0,0-3.3892,5.83,8.9691,8.9691,0,0,0,2.4023,6.2148c4.2261,4.9976,11.3522,6.5947,17.5083,7.5062,14.1961,2.1017,28.72,1.68,42.98.48,5.742-.483,11.4686-1.13,17.178-1.9065,2.8843-.3925,5.8123-.7326,8.6671-1.314.1339-.0272.27-.0466.4044-.0707a2.111,2.111,0,0,0,1.4617-2.5743,2.1392,2.1392,0,0,0-2.5743-1.4616Z"/><path class="cls-4" d="M253.385,645.02s-43.4877,7.8159-72.462,2.0622c-17.8758-3.8259-19.1235-17.3585-1.2181-17.8535s51.3523-2.1227,68.5865-5.5124"/><path d="M252.8286,643.0016c-6.66,1.1948-12.8414,1.939-19.5963,2.6263-13.3979,1.3634-26.9865,2.06-40.43.9617-6.3878-.5217-13.5048-1.0845-19.1557-4.3687a10.0472,10.0472,0,0,1-4.3987-4.3438c.1549.3474-.0661-.1971-.0939-.2966-.0574-.2056-.1115-.409-.1566-.6176-.0781-.3614-.0191.2527-.0192-.231,0-.2318-.0033-.4584.016-.69.0263-.3141-.0711.3545-.0006.0475.019-.0828.03-.17.0564-.2512.0346-.1066.1927-.6012.1153-.4069-.076.1906.1455-.2843.2048-.3873.0668-.1159.4244-.6236.2-.3377,1.2983-1.65,3.5025-2.4376,5.7357-2.9111a50.4207,50.4207,0,0,1,8.7813-.6087q9.9075-.3315,19.8062-.8864c13.6864-.7675,27.46-1.6707,41.0039-3.8636q1.9808-.3207,3.9505-.7029c2.641-.5158,1.5229-4.5506-1.1127-4.036-13.4736,2.6311-27.3621,3.4406-41.041,4.2552q-10.4616.6231-20.9366.9907c-5.8079.2059-12.6518-.3343-17.5668,3.3543a7.93,7.93,0,0,0-3.3892,5.83,8.969,8.969,0,0,0,2.4022,6.2148c4.2262,4.9976,11.3523,6.5947,17.5084,7.5061,14.196,2.1018,28.72,1.68,42.98.48,5.742-.483,11.4685-1.13,17.1779-1.9065,2.8844-.3926,5.8123-.7327,8.6671-1.314.134-.0273.27-.0466.4045-.0707a2.111,2.111,0,0,0,1.4616-2.5743,2.1392,2.1392,0,0,0-2.5743-1.4617Z"/><path class="cls-4" d="M252.6874,628.9755s-43.4877,7.8159-72.462,2.0622c-17.8758-3.826-19.1235-17.3585-1.2181-17.8535,17.4856-.4834,46.5359,2.8815,70.4966-6.1425a4.94,4.94,0,0,0,2.5908-2.2948h0a5.0129,5.0129,0,0,0-4.4468-7.3894l-14,.0923a10.9264,10.9264,0,0,1-10.3722-7.28v0a10.9265,10.9265,0,0,1,7.991-14.3261l39.4864-8.5376,54.1144-11.0679"/><path d="M252.1311,626.9575c-8.51,1.5267-16.7291,2.4437-25.4656,3.1692-7.9173.6575-15.868,1.0259-23.8137.9126-7.816-.1115-16.0117-.4075-23.6151-2.3846-3.2083-.8343-6.58-2.1275-8.976-4.4625a10.2281,10.2281,0,0,1-1-1.1255c-.157-.2279-.3057-.4615-.44-.7033-.0647-.1164-.1253-.2346-.1853-.3534-.1736-.3438.0222.09-.0566-.12-.0877-.2331-.15-.4685-.2191-.7072a3.5484,3.5484,0,0,1-.0744-.3522c-.0577-.3177.0272.349.0072.031-.0147-.2328-.0149-.46-.0076-.6925.0022-.0717.0521-.4336.0081-.1482-.0473.307.0416-.1687.0605-.2269.0382-.1173.2551-.7269.0762-.3187a7.1339,7.1339,0,0,1,.3373-.631c.25-.4435.0266-.098.23-.3292a7.737,7.737,0,0,1,.7077-.7066,9.4209,9.4209,0,0,1,1.2328-.8057,10.1784,10.1784,0,0,1,1.9222-.7965c3.3456-1.0524,6.8876-.9821,10.3574-.98,17.4716.0086,34.95,1.1105,52.2394-2.1556a88.5,88.5,0,0,0,13.8175-3.72,7.8283,7.8283,0,0,0,4.703-3.6967,7.1,7.1,0,0,0,.4067-5.6312,7.3108,7.3108,0,0,0-7.1724-4.7556c-2.1463.0066-4.2927.0284-6.439.0425-4.754.0314-10.4122.993-13.9025-3.0289a8.89,8.89,0,0,1-1.3266-9.4513,9.0408,9.0408,0,0,1,6.3516-4.9836c8.0265-1.8324,16.1-3.481,24.1465-5.2209,5.53-1.1957,11.0526-2.439,16.5961-3.5728l25.4854-5.2125,25.8472-5.2864,1.4545-.2975c2.637-.5394,1.5209-4.5746-1.1127-4.0359L304.39,558.2946l-29.6742,6.0692c-4.6417.9493-9.27,1.9516-13.9012,2.9528l-28.5,6.1622a22.3391,22.3391,0,0,0-3.2625.8432,13.2048,13.2048,0,0,0-7.93,8.3976c-2.6,8.3154,3.9576,16.7638,12.5246,16.823,4.18.0288,8.3641-.0552,12.5443-.0828,1.7978-.0119,3.84.0562,4.3352,2.2394a2.982,2.982,0,0,1-1.5794,3.3245,39.2321,39.2321,0,0,1-6.796,2.2072c-17.6931,4.9038-36.2009,4.1266-54.3656,3.8508-6.7125-.1019-15.127-.9983-20.7165,3.5a7.5489,7.5489,0,0,0-2.9562,6.3679,10.3065,10.3065,0,0,0,3.9269,6.8682c6.0619,5.0753,14.5227,6.0045,22.1041,6.7388a180.98,180.98,0,0,0,24.9353.485,304.8,304.8,0,0,0,36.2669-3.7276c.633-.103,1.266-.2068,1.8972-.32a2.1108,2.1108,0,0,0,1.4616-2.5742,2.1391,2.1391,0,0,0-2.5742-1.4617Z"/><polyline class="cls-1" points="879.732 790.529 834.256 860.286 879.034 860.286 906.239 820.634"/><path d="M877.9246,789.4724l-15.3554,23.5543-24.4857,37.56-5.6346,8.6432a2.1093,2.1093,0,0,0,1.807,3.1489H875.043c1.7218,0,4.6484.5439,5.799-1.0379.9234-1.2694,1.78-2.5938,2.6676-3.888l13.8784-20.2278c3.484-5.0779,7.2194-10.06,10.4855-15.2826.0538-.086.1153-.168.1728-.2518,1.5276-2.2265-2.0979-4.3221-3.614-2.1124l-9.2252,13.4456L880.59,854.3276,877.227,859.23l1.807-1.0365H834.2559l1.807,3.1489,15.3554-23.5543,24.4857-37.5595,5.6346-8.6432c1.4753-2.263-2.1469-4.3628-3.614-2.1125Z"/><polyline class="cls-1" points="922.627 829.593 902.618 860.286 922.32 860.286 934.29 842.839"/><path d="M920.82,828.5364,903.3,855.4118l-2.4888,3.8177a2.1093,2.1093,0,0,0,1.807,3.1489H920.696c1.0309,0,2.3066.1844,3.1039-.6129a13.4231,13.4231,0,0,0,1.3629-1.933l6.1441-8.955,4.7906-6.9823c1.5276-2.2265-2.0979-4.3221-3.614-2.1124l-11.97,17.4467,1.807-1.0365H902.6178l1.807,3.1489,17.52-26.8754,2.4888-3.8177c1.4753-2.263-2.1469-4.3628-3.614-2.1124Z"/><ellipse class="cls-1" cx="157.5962" cy="560.7827" rx="57.772" ry="10.8123" transform="translate(-132.584 55.6993) rotate(-14.1813)"/><path d="M211.59,547.1854c.1158.5046-.0187-.539-.0111-.0158.0068.4613.1093-.32.0233-.0848a4.41,4.41,0,0,0-.1264.44c.0922-.3762.1036-.1521-.1011.16-.09.1377-.1827.2793-.2675.42-.2884.48.1957-.1894-.1326.1709-.3357.3684-.67.73-1.0364,1.0684a16.9679,16.9679,0,0,1-2.6249,2.011c-1.2786.8516-2.6069,1.6278-3.956,2.3619a145.4784,145.4784,0,0,1-24.29,9.9353,294.4211,294.4211,0,0,1-33.2332,8.7557,178.1,178.1,0,0,1-28.5465,3.8324c-1.8157.069-3.6348.0894-5.4509.0228-.7044-.0258-1.4085-.0648-2.111-.1223-.727-.0594-1.3556-.1273-1.7515-.19a19.3306,19.3306,0,0,1-3.1988-.7784c-.4732-.16.2762.18-.2257-.0975-.17-.094-.3416-.1869-.5121-.2793-.1953-.106-.5376-.4739-.1022-.0464-.125-.1228-.251-.2519-.3789-.3712.412.3839.1451.219.0221-.0194-.2033-.3941.1748.5057.0242.0207-.141-.4539.0147.4193.0121.1079-.0006-.0774.0046-.1545.005-.2316q.0194-.2549-.0471.32.0117-.0726.0285-.1441c.0116-.0025.1194-.3909.1338-.4414-.1108.3863-.1406.2662.025-.0073.1064-.1756.22-.3481.3255-.5238.27-.4489-.21.19.1791-.2258a22.4818,22.4818,0,0,1,5.5225-4.2226c7.0359-4.1907,14.8326-7.148,22.545-9.82a288.1632,288.1632,0,0,1,32.6636-9.1138,202.5023,202.5023,0,0,1,30-4.6013,70.7478,70.7478,0,0,1,10.5885-.0428,18.797,18.797,0,0,1,3.3327.5093c.4855.117.9544.27,1.4289.4232.57.1841-.1962-.1488.2964.124.1885.1044.3784.203.5649.3116.26.1514.3447.3041.0494.0141.1244.1222.2516.2526.3789.3712-.2512-.2341-.1884-.3132-.0445-.0225.2292.4633-.1407-.4807-.0018.0211.7177,2.5924,4.7568,1.4915,4.0359-1.1126-.6-2.1665-2.69-3.295-4.69-3.9185a31.7487,31.7487,0,0,0-8.9191-1.0717c-9.5844-.1354-19.2417,1.3306-28.6435,3.0485a293.3166,293.3166,0,0,0-35.676,8.8806,164.8771,164.8771,0,0,0-26.9914,10.697,42.6388,42.6388,0,0,0-7.8843,5.0877c-1.5929,1.3535-3.2495,3.1688-3.3786,5.366-.3132,5.3313,7.4472,5.9964,11.1261,6.2252,8.9674.5577,18.1233-.7533,26.9478-2.2053a289.0743,289.0743,0,0,0,35.934-8.3839,191.1345,191.1345,0,0,0,28.3914-10.6119,55.6724,55.6724,0,0,0,8.8152-5.0762c1.9043-1.3991,3.9408-3.0381,4.7959-5.3231a4.6617,4.6617,0,0,0,.1723-2.7144C215.0231,543.4486,210.9868,544.5593,211.59,547.1854Z"/><circle class="cls-5" cx="640.1162" cy="444.8825" r="25.4613"/><path class="cls-2" d="M148.9059,517.4218s-.5762-80.44,69.9981-85.0829C216.46,510.0538,148.9059,517.4218,148.9059,517.4218Z"/><path d="M150.9986,517.4218a76.5254,76.5254,0,0,1,.4559-7.913c.13-1.3329.2867-2.6625.4575-3.9907.069-.537-.0442.314.01-.0748.0265-.19.0526-.3809.08-.5713q.083-.5859.1715-1.1708.18-1.1862.3824-2.3689.921-5.374,2.3228-10.651a92.2479,92.2479,0,0,1,9.4747-23.2908,66.5726,66.5726,0,0,1,18.488-20.7612,67.2733,67.2733,0,0,1,31.0825-11.7318c1.6557-.2021,3.3165-.3534,4.9806-.4659l-2.0927-2.0927c-.4158,12.6573-2.605,25.4414-7.6976,37.1018a75.7971,75.7971,0,0,1-16.5464,24.1353,77.7846,77.7846,0,0,1-19.4524,13.81q-2.2921,1.1646-4.65,2.1926c-.2039.0889-.4082.1764-.6125.2643a1.4921,1.4921,0,0,1-.1831.0774q-.5607.2326-1.1235.46-1.0873.4365-2.186.8442-3.8011,1.4108-7.7218,2.4679c-1.8187.4883-3.6543.9176-5.505,1.2665-.5775.1089-1.1564.21-1.7372.3-.184.0284-.3689.0517-.5526.0814-.3572.0578.7175-.0934.1807-.0251q-.0588.0075-.1175.0139a2.1547,2.1547,0,0,0-2.0927,2.0927,2.1062,2.1062,0,0,0,2.0927,2.0927,55.924,55.924,0,0,0,7.33-1.3948,90.0408,90.0408,0,0,0,16.7579-6.0246,83.9463,83.9463,0,0,0,20.3472-13.509,78.7,78.7,0,0,0,17.8308-23.6754c5.68-11.56,8.5808-24.2341,9.5342-37.0363.1372-1.8429.23-3.6885.2911-5.5355a2.1067,2.1067,0,0,0-2.0927-2.0927c-12.1783.8229-24.233,3.9818-34.6757,10.4393a69.2569,69.2569,0,0,0-21.3375,21.1111,93.83,93.83,0,0,0-11.11,24.4595,122.4774,122.4774,0,0,0-4.272,21.014,66.5377,66.5377,0,0,0-.6958,10.0047c.0018.0489,0,.0981,0,.147C146.8312,520.1141,151.0167,520.12,150.9986,517.4218Z"/><path class="cls-2" d="M122.6086,420.1188s-13.5047-66.35,44.0373-81.6158C177.2148,403.091,122.6086,420.1188,122.6086,420.1188Z"/><path d="M124.6266,419.5625c-.1182-.5825-.2116-1.1706-.3028-1.7578-.048-.3086-.0929-.6177-.1375-.9269-.018-.1247-.0972-.7037-.039-.2744s-.03-.2308-.0471-.3676q-.1763-1.389-.3094-2.7829a101.5122,101.5122,0,0,1-.25-16.445,78.2783,78.2783,0,0,1,4.0515-20.6659,53.4861,53.4861,0,0,1,35.6339-34.65c1.3143-.4272,2.6407-.8139,3.9756-1.1711l-2.5743-1.4616c3.0389,18.7717.7764,38.3814-10.1722,54.2315a67.7107,67.7107,0,0,1-13.7939,14.4617,1.727,1.727,0,0,1-.1584.1231q-.2171.1659-.435.3305-.43.3246-.8656.6428-.8806.644-1.78,1.2618-1.6515,1.1346-3.362,2.18-2.8915,1.7664-5.9367,3.2639-1.3037.6394-2.6341,1.2227c-.1966.086-.3943.1694-.591.2548-.3378.1467.5158-.2123.1807-.0764-.1021.0413-.2032.0852-.3053.1265-.3175.1284-.6346.2575-.9539.3814-.5834.2263-1.1706.4507-1.7682.6375-2.5623.8011-1.4684,4.8429,1.1126,4.0359a47.7879,47.7879,0,0,0,5.8846-2.4,73.4794,73.4794,0,0,0,12.6257-7.5385,72.4258,72.4258,0,0,0,14.9336-14.765,66.4691,66.4691,0,0,0,10.8975-22.5291,84.1448,84.1448,0,0,0,1.8511-32.0874q-.3-2.4412-.6936-4.87a2.1147,2.1147,0,0,0-2.5742-1.4616A63.7318,63.7318,0,0,0,139.126,350.777a58.5769,58.5769,0,0,0-14.2876,21.05,79.063,79.063,0,0,0-5.2318,22.1466,100.4105,100.4105,0,0,0-.1519,17.7534,50.39,50.39,0,0,0,1.1126,8.8285c.01.039.0153.08.0234.1194C121.126,423.3128,125.1612,422.1964,124.6266,419.5625Z"/><path class="cls-2" d="M107.3848,369.7784S75.6083,313.9821,25,339.0032C57.7728,391.7093,107.3848,369.7784,107.3848,369.7784Z"/><path d="M109.1918,368.7221a85.8989,85.8989,0,0,0-14.3206-18.0393c-10.74-10.6179-24.3286-18.6721-39.6024-20.03-10.8624-.9656-21.6149,1.7729-31.325,6.5433a2.111,2.111,0,0,0-.7508,2.8632c10.02,16.0435,24.5287,29.4237,43.1762,34.258a69.35,69.35,0,0,0,35.0373-.3547,48.1517,48.1517,0,0,0,7.0346-2.3774,2.1071,2.1071,0,0,0,.7507-2.8632,2.1451,2.1451,0,0,0-2.8632-.7507c-.3765.166.7-.2755.1278-.0552-.34.1308-.6767.2673-1.0181.3938-1.2487.4629-2.5179.8713-3.7969,1.242A66.8467,66.8467,0,0,1,88.62,371.97,60.9866,60.9866,0,0,1,49.5,362.2239c-9.3451-6.1845-16.7912-14.8272-22.6932-24.2769l-.7508,2.8632a55.95,55.95,0,0,1,26.5493-6.1374,51.2861,51.2861,0,0,1,21.5757,5.8338,71.0118,71.0118,0,0,1,16.4832,11.9262q3.2748,3.1144,6.2334,6.5406,1.24,1.4314,2.424,2.91c.21.262.4176.5257.6256.7893.0676.0857.1345.1722.2018.2582.339.4329-.2634-.3451.0664.0853q.5114.6673,1.0129,1.3421a65.5867,65.5867,0,0,1,4.3493,6.4763C106.9122,373.174,110.53,371.0678,109.1918,368.7221Z"/><path class="cls-2" d="M132.0637,469.8341S84.3215,405.0919,25.04,443.6664C73.567,504.4175,132.0637,469.8341,132.0637,469.8341Z"/><path d="M133.8707,468.7778a82.1451,82.1451,0,0,0-5.5281-6.5881A120.4221,120.4221,0,0,0,113.64,448.5729,99.6436,99.6436,0,0,0,90.6775,434.92a70.2309,70.2309,0,0,0-28.8536-5.5857,71.817,71.817,0,0,0-33.4748,9.8569c-1.4808.8472-2.9336,1.7412-4.3654,2.6686a2.1336,2.1336,0,0,0-.4236,3.2867c8.2281,10.2647,18.0164,19.4238,29.4813,25.9775a79.693,79.693,0,0,0,28.78,9.8548,85.9054,85.9054,0,0,0,43.1055-5.5167,59.3893,59.3893,0,0,0,8.1931-3.8206c2.318-1.3681.2147-4.9875-2.1125-3.614a52.4241,52.4241,0,0,1-6.0623,2.9381c.6232-.2665-.2084.086-.3565.1468q-.3864.1588-.7745.3137-.8972.3583-1.8025.6958-1.8624.6946-3.7553,1.3038a88.67,88.67,0,0,1-9.2277,2.4334,77.1817,77.1817,0,0,1-50.3446-6.4432c-12.6891-6.4542-23.3073-16.18-32.1643-27.2289l-.4236,3.2868c9.7064-6.2863,20.6606-10.7865,32.262-11.76a65.5768,65.5768,0,0,1,28.3189,4.104,90.7086,90.7086,0,0,1,22.3846,12.4839,118.8369,118.8369,0,0,1,15.0236,13.4519c1.5208,1.6094,2.9992,3.26,4.42,4.9588q.6645.7948,1.3095,1.6059c.1012.1277.5674.7265.2613.3306-.2957-.3824.0171.0244.1009.1342q.0406.0533.08.1072a2.1563,2.1563,0,0,0,2.8632.7508A2.1082,2.1082,0,0,0,133.8707,468.7778Z"/><path d="M159.7642,560.4717l-1.7748-6.8823-4.7879-18.5665-6.9678-27.0194-8.3645-32.4358-8.999-34.8962-8.8-34.1248-7.7708-30.1333-5.9969-23.2547-3.3875-13.136a105.3632,105.3632,0,0,1-3.256-35.4588c.3122-3.6461.8917-7.2434,1.5094-10.8466.4516-2.6345-3.581-3.7663-4.0359-1.1127a115.2828,115.2828,0,0,0-1.715,28.6686,108.0769,108.0769,0,0,0,3.1025,18.47q1.2775,4.962,2.5589,9.9231l5.3822,20.8706,7.4308,28.8153L122.51,432.77l9.0247,34.9958,8.657,33.57L147.61,530.104l5.4089,20.9745c.8653,3.3555,1.6642,6.7369,2.5979,10.0743.04.1429.0742.2878.1113.4315.6721,2.6063,4.71,1.5015,4.0359-1.1126Z"/><path class="cls-2" d="M148.6778,368.4986s-20.05,27.2052-26.0692,51.62"/><path d="M146.8709,367.4423c-2.5762,3.4989-4.9511,7.1589-7.2559,10.84a187.749,187.749,0,0,0-13.269,24.8171,105.7849,105.7849,0,0,0-5.7553,16.4635c-.6514,2.6138,3.3839,3.7289,4.0359,1.1126,2.4305-9.753,6.6161-19,11.3565-27.8293a217.6954,217.6954,0,0,1,11.97-19.6846c.8274-1.213,1.661-2.4239,2.5316-3.6064a2.1075,2.1075,0,0,0-.7507-2.8632,2.1412,2.1412,0,0,0-2.8632.7507Z"/><path class="cls-2" d="M181.4637,468.2511s-24.415,29.298-32.7859,48.83"/><path d="M179.9839,466.7714a306.2784,306.2784,0,0,0-25.58,35.182,110.4988,110.4988,0,0,0-7.5331,14.0714,2.1623,2.1623,0,0,0,.7507,2.8633,2.1078,2.1078,0,0,0,2.8632-.7508c3.8119-8.84,9.1825-17.0208,14.655-24.9052q7.042-10.1456,14.733-19.7177c1.0137-1.2689,2.0312-2.5355,3.0706-3.7835a2.1508,2.1508,0,0,0,0-2.9595,2.1093,2.1093,0,0,0-2.9595,0Z"/><path class="cls-2" d="M74.0378,453.6022s42.5518,8.3708,57.8984,16.0441"/><path d="M73.4815,455.62c5.0852,1.0011,10.1506,2.1128,15.2034,3.2646,9.76,2.2247,19.505,4.6231,29.0609,7.6169a90.4461,90.4461,0,0,1,13.1341,4.9517c2.4048,1.1947,4.5275-2.4142,2.1125-3.614-8.3139-4.13-17.5594-6.5468-26.4955-8.9069-8.7583-2.3132-17.59-4.3526-26.4526-6.2263-1.8146-.3836-3.63-.7636-5.45-1.1219-2.6309-.5179-3.7572,3.5153-1.1126,4.0359Z"/><path class="cls-2" d="M67.76,355.2447s29.0252,8.8377,39.6251,14.5337"/><path d="M67.2034,357.2627c10.19,3.1041,20.35,6.4553,30.26,10.3668a84.8336,84.8336,0,0,1,8.8656,3.9558c2.3753,1.2683,4.492-2.3435,2.1125-3.6139-5.8293-3.1124-12.177-5.3455-18.3869-7.56-5.955-2.1234-11.959-4.1112-17.9873-6.016-1.2487-.3945-2.4981-.7872-3.7509-1.1688-2.5823-.7867-3.6862,3.2519-1.1126,4.0359Z"/><ellipse cx="206.2274" cy="844.5904" rx="72.8961" ry="15.6953"/><path d="M277.0308,844.59c-.01.6572.1641-.2948-.0027.1736-.0713.2-.1211.4157-.188.6189.2119-.6437.0251-.0577-.087.1122-.0639.0968-.1344.2017-.19.3034-.265.4882.185-.1852-.048.078a12.8782,12.8782,0,0,1-1.08,1.0837c-.1138.1015-.235.1958-.3543.2907.4185-.333-.0129.0055-.0876.0568-.33.2265-.6588.4522-1,.6622a37.7959,37.7959,0,0,1-9.7055,3.9347c-10.8683,3.16-22.2845,4.5127-33.5375,5.3781a323.44,323.44,0,0,1-44.2.3318c-11.8318-.7125-23.7762-1.96-35.2914-4.8721a55.5587,55.5587,0,0,1-10.9632-3.759c-.6776-.3393-1.3435-.7038-1.9852-1.1073-.2419-.1521-.4782-.312-.7142-.473-.1345-.0918-.2653-.1895-.3958-.2869.4389.3275-.1021-.0859-.1808-.156a12.8631,12.8631,0,0,1-1.0805-1.0837c-.3007-.34.2513.4.0212.0227-.0628-.1028-.1409-.1965-.1986-.3028-.0535-.0987-.1086-.212-.1716-.3046-.3-.44.064.2861-.0146-.0116-.0437-.1652-.0918-.3557-.149-.5162-.1653-.4636-.0027.48-.0027-.1736s-.1626.29.0027-.1737c.0715-.2.1211-.4157.188-.6189-.2185.6638.0491-.0326.1472-.2135.0577-.1063.1358-.2.1986-.3028.23-.3773-.3219.3624-.0212.0228a13.4759,13.4759,0,0,1,1.1958-1.1809c.0708-.0625.4868-.3736.0655-.0589.1084-.0809.2166-.1631.3285-.2392.259-.1762.5161-.3538.7815-.5207.6417-.4035,1.3076-.768,1.9852-1.1073a35.6889,35.6889,0,0,1,4.8022-1.9559c10.1593-3.4658,21.0631-4.91,31.7044-5.9224a318.3742,318.3742,0,0,1,43.6564-1.0323,217.6664,217.6664,0,0,1,37.0758,4.2923,75.0892,75.0892,0,0,1,12.77,3.7642,29.2865,29.2865,0,0,1,3.84,1.9614c.2887.1816.5678.3755.8489.5684.0748.0514.5059.39.0876.0568.1192.095.24.1892.3543.2907a10.58,10.58,0,0,1,1.1614,1.1836c-.4138-.5046.0429.0891.1266.2308.1037.1758.3326.8176.1171.1629.0669.2032.1167.4187.188.6189.1668.4684-.0073-.4835.0027.1737.0408,2.6907,4.2264,2.6987,4.1854,0-.0428-2.821-2.0724-4.9027-4.2454-6.4268a36.7364,36.7364,0,0,0-10.2521-4.5275c-11.31-3.5105-23.3424-4.9147-35.1034-5.8557a322.1338,322.1338,0,0,0-45.9568-.3446c-12.3737.7822-24.9472,2.1094-36.95,5.3417a50.703,50.703,0,0,0-11.5652,4.3544c-2.3149,1.2923-4.8073,3.1122-5.64,5.7588-1.986,6.3144,6.5967,9.9217,11.0711,11.583,10.4029,3.8627,21.7922,5.3236,32.7708,6.4308a316.0442,316.0442,0,0,0,45.5728,1.155c13.1491-.5794,26.4445-1.7944,39.29-4.7727a70.0746,70.0746,0,0,0,12.7335-4.0627c2.6891-1.1977,5.5811-2.783,7.2357-5.3131a6.2457,6.2457,0,0,0,1.0387-3.3206C281.2571,841.8961,277.0717,841.8952,277.0308,844.59Z"/><path class="cls-1" d="M157.7463,864.4711s-6.2935-9.7572-16.0288-12.5651c6.2935-8.38,2.7749-15.3377-13.9668-23.011-11.1611-21.6247-30.6931,0-30.6931,0s-15.3465-2.79-9.7659,13.2539c-9.766,5.5805-8.3709,13.9514-8.3709,13.9514"/><path d="M159.5533,863.4149c-3.9636-6.1139-10.2655-11.4351-17.28-13.5268l1.2507,3.0742c3.0115-4.06,4.34-9.0477,1.7675-13.6839a20.4684,20.4684,0,0,0-5.8831-6.19,58.2869,58.2869,0,0,0-10.6019-6l.7507.7508c-1.843-3.5152-4.3575-6.8993-7.885-8.8692a14.4347,14.4347,0,0,0-9.1814-1.5844c-5.3577.7659-10.1767,3.9294-14.1853,7.4154a31.8933,31.8933,0,0,0-2.7281,2.6147l2.0361-.5382c-5.2947-.95-12.0742.59-13.37,6.6275a17.4713,17.4713,0,0,0,1.0294,9.2006l.9617-2.3633c-5.6116,3.2745-10.4379,9.4569-9.3326,16.3147a2.1084,2.1084,0,0,0,2.5743,1.4616,2.1433,2.1433,0,0,0,1.4617-2.5743c.0241.15.0488.6858.0324.1671-.01-.3138-.03-.625-.0245-.94.0039-.2156.0147-.4311.0306-.6461.01-.1357.0979-.8308.0282-.3665A13.242,13.242,0,0,1,81.43,851.88c1.0387-3.424,3.7759-6.0906,6.9183-7.9243a2.121,2.121,0,0,0,.9617-2.3634A17.2074,17.2074,0,0,1,88.163,835.91a4.663,4.663,0,0,1,.2349-1.7715c.0878-.3085.1966-.5807.1378-.4518a7.6753,7.6753,0,0,1,.4568-.8235c.1964-.32.0129-.0377-.0373.0259a4.4668,4.4668,0,0,1,.3155-.3633c.1657-.1689.3362-.3292.5158-.4834a2.393,2.393,0,1,0,.2648-.1713c.2665-.1554.5313-.3.8077-.4363.0984-.0487.367-.14-.08.0311.1178-.0452.2354-.094.356-.1314.2165-.067.43-.14.65-.1987.24-.0644.4825-.12.7263-.1672.12-.0236.2411-.0425.3616-.0644.55-.1-.3443.0261.0862-.0134a17.571,17.571,0,0,1,2.4729-.0688c.2952.0145.5887.0416.883.0669.7074.0609-.33-.0558.066.0041,1.78.2691,2.5072-.9367,3.6387-2.0047,3.6111-3.4082,8.5461-6.9656,13.492-7.4459a10.2044,10.2044,0,0,1,8.4281,2.9036c1.7407,1.6592,2.7027,3.6339,4.0041,5.6051.73,1.1053,2.5586,1.59,3.7107,2.169,1.3727.69,2.7272,1.4174,4.0478,2.2028a29.9132,29.9132,0,0,1,5.7326,4.2236,13.2365,13.2365,0,0,1,1.6911,1.95,8.6511,8.6511,0,0,1,1.0208,1.893,6.181,6.181,0,0,1,.2023,3.7928,13.1812,13.1812,0,0,1-2.4385,4.6674c-.8348,1.1255.0764,2.724,1.2507,3.0742a26.0348,26.0348,0,0,1,10.842,6.898q.9209.9278,1.7781,1.916c.3526.4063,1.0118,1.2094,1.1567,1.3955.1535.1971.7018.9318,1.0013,1.3938,1.46,2.2522,5.085.1566,3.614-2.1124Z"/><path class="cls-1" d="M198.2053,870.0517s-2.79-16.0441,11.1612-16.0441c3.4878-9.0685,13.9514-12.5563,21.6247-6.2782,6.2781-4.883,15.3465.6976,17.4392,4.883a14.21,14.21,0,0,1,13.2538-2.0927s-.6975-6.2781,6.9758-8.3708c-1.3952-13.9514,14.6489-15.3466,18.8344-10.4636,4.8829-8.3708,18.1368-2.79,22.3222,10.4636,5.5806.6975,15.3466,8.3708,13.9514,13.9514"/><path d="M200.2233,869.4954c-.11-.64.0414.5488-.0179-.1331-.0487-.5595-.1012-1.1162-.1209-1.678a22.487,22.487,0,0,1,.039-2.36c.0165-.2354.04-.47.0615-.7048.0526-.5774-.0133-.0063.0423-.353.0754-.47.1627-.9365.2744-1.399a8.8162,8.8162,0,0,1,2.4811-4.6586,9.3383,9.3383,0,0,1,6.3837-2.109,2.1735,2.1735,0,0,0,2.0179-1.5364,12.5465,12.5465,0,0,1,7.7812-7.4324,11.2845,11.2845,0,0,1,10.3458,2.0777,2.1483,2.1483,0,0,0,2.536.3272c2.6209-1.9573,5.7154-1.9644,8.6766-.7482a11.6992,11.6992,0,0,1,5.8994,4.88,2.1,2.1,0,0,0,2.8632.7507,12.1832,12.1832,0,0,1,11.6413-1.8817,2.1009,2.1009,0,0,0,2.6491-2.018,6.27,6.27,0,0,1,.0012-.8925c.0049-.1274.0229-.2548.037-.3815-.0725.6517.0193-.0538.0527-.186a9.0959,9.0959,0,0,1,.3348-1.1121q.0785-.202-.0194.0437.0867-.1884.1837-.3719c.1084-.19.2124-.3787.33-.5637a4.9251,4.9251,0,0,1,.9183-1.0584,8.6807,8.6807,0,0,1,3.6014-1.8305,2.1167,2.1167,0,0,0,1.5364-2.0179,10.63,10.63,0,0,1,1.48-7.1512,8.9965,8.9965,0,0,1,4.41-3.1594,11.5905,11.5905,0,0,1,2.6847-.574,14.0376,14.0376,0,0,1,1.6625-.0332c.4839.0193.9872.0758,1.0428.0852a12.0774,12.0774,0,0,1,1.3136.2911c.2373.0677.47.1476.703.2272q.1695.0616.3364.13-.3409-.1432-.0163.0034a10.4407,10.4407,0,0,1,1.02.59c.2766.1818-.1852-.2335.1988.1683.1413.1479.29.2855.4262.4392a2.1115,2.1115,0,0,0,3.2867-.4236,5.4942,5.4942,0,0,1,3.8681-2.8325A11.6646,11.6646,0,0,1,295.42,829.9a10.77,10.77,0,0,1,2.7948.88c4.7695,2.306,7.9877,6.9906,9.5838,11.9249a2.0672,2.0672,0,0,0,1.4617,1.4616,16.9111,16.9111,0,0,1,8.4287,4.3918,15.768,15.768,0,0,1,3.2269,3.738,6.8315,6.8315,0,0,1,.7762,1.7981,3.4928,3.4928,0,0,1,.058,1.4492c-.5837,2.6243,3.45,3.745,4.0359,1.1127.9171-4.1236-1.8051-7.9415-4.6632-10.6251-2.8811-2.705-6.7487-5.34-10.75-5.9006l1.4617,1.4616c-1.9894-6.15-6.1169-12.1152-12.2156-14.7457-5.1427-2.218-10.9089-1.2474-13.9316,3.7823l3.2867-.4236c-2.4211-2.736-6.7087-3.4678-10.172-3.0748-4.2926.4872-8.4208,2.5823-10.61,6.4415a14.6511,14.6511,0,0,0-1.6246,8.5767l1.5364-2.018c-4.5232,1.2976-9.0512,5.2068-8.5121,10.3888l2.6491-2.0179a15.994,15.994,0,0,0-14.8664,2.3036l2.8632.7508c-1.6889-3.2278-5.093-5.5078-8.4008-6.8039a12.3324,12.3324,0,0,0-11.9017,1.17l2.536.3273a15.6577,15.6577,0,0,0-14.4179-3.1541,17.0268,17.0268,0,0,0-10.7045,10.3556l2.018-1.5364c-4.708.0425-9.204,1.912-11.5171,6.2015a18.97,18.97,0,0,0-1.9393,9.8379,21.712,21.712,0,0,0,.2773,2.6538,2.11,2.11,0,0,0,2.5743,1.4616,2.1408,2.1408,0,0,0,1.4616-2.5742Z"/><path class="cls-1" d="M213.5519,813.5485s12.5563-8.3709,23.02,2.0927c9.0684-14.649,24.415-5.5806,24.415-5.5806s5.5805-18.8344,18.1368-17.4392,13.2538,13.2538,13.2538,13.2538,19.532-4.883,23.7174,5.5806c5.5806,0,13.9514,0,15.3466,4.1854"/><path d="M214.6081,815.3555a17.2316,17.2316,0,0,1,6.6856-2.5917,15.204,15.204,0,0,1,13.7982,4.3572,2.12,2.12,0,0,0,3.2868-.4236,15.5943,15.5943,0,0,1,6.8993-6.3059,14.2755,14.2755,0,0,1,7.134-.9195,12.1259,12.1259,0,0,1,1.448.2263q.7219.144,1.4335.3354a27.1871,27.1871,0,0,1,2.5973.8568c.1112.0422.76.32.1941.0743.162.0705.3238.1412.4845.2146.23.1051.4581.2136.6839.3272.2283.1148.4567.2315.6771.361a2.117,2.117,0,0,0,3.0742-1.2506c.1435-.4813.3128-.9558.4856-1.4271a26.0745,26.0745,0,0,1,1.2728-3.0256,27.0689,27.0689,0,0,1,5.7067-8.3033,10.57,10.57,0,0,1,9.4943-3.0155,12.1192,12.1192,0,0,1,8.688,5.9822c.1954.3514.3723.7115.5432,1.0753.2625.5591-.0859-.225.0527.1106.0807.1956.1563.3933.2286.5922a16.6682,16.6682,0,0,1,.5621,1.8847c.1052.4479.1728.8992.2556,1.3508-.1509-.8231-.0235-.1905-.01.0339a2.1231,2.1231,0,0,0,2.6491,2.018c.957-.2379,1.9331-.4108,2.9062-.5663.2315-.037.4633-.0713.6952-.1058a3.5345,3.5345,0,0,1,.3889-.0527c.5534-.0671,1.1073-.1283,1.6626-.1772,1.1948-.1054,2.3942-.1636,3.5938-.161,4.4432.01,10.12.9067,11.8964,5.1819a2.1871,2.1871,0,0,0,2.0179,1.5364,55.4021,55.4021,0,0,1,8.2142.37,13.1821,13.1821,0,0,1,3.4684.9018,7.609,7.609,0,0,1,1.04.6146,2.15,2.15,0,0,1,.6059.7625,2.1493,2.1493,0,0,0,2.5743,1.4616,2.11,2.11,0,0,0,1.4616-2.5742c-1.1288-3.0611-4.0778-4.4313-7.1017-5.0369a52.2173,52.2173,0,0,0-10.2628-.6849l2.018,1.5363c-3.7768-9.0891-15.333-8.9242-23.55-7.5818-.918.15-1.8384.3152-2.7417.54l2.6491,2.018a16.5626,16.5626,0,0,0-11.1909-14.5043,14.9584,14.9584,0,0,0-13.5439,1.72,26.6024,26.6024,0,0,0-7.8289,9.4509,38.778,38.778,0,0,0-2.9377,6.9626l3.0742-1.2507c-5.9018-3.4673-13.95-4.2714-20.0276-.9013a20.6308,20.6308,0,0,0-7.2506,7.2327l3.2868-.4236a19.5146,19.5146,0,0,0-17.062-5.576,21.9036,21.9036,0,0,0-8.4938,3.1561c-2.2361,1.48-.1423,5.1065,2.1124,3.614Z"/><path class="cls-1" d="M317.49,834.4756s6.9757-22.3223,21.6247-18.1368c0,0,3.4878-5.5806,10.4635-2.79,4.883,2.0927,4.883,8.3708,4.883,8.3708a5.2038,5.2038,0,0,1,6.2781,2.79"/><path d="M319.5078,835.0319c.2134-.6795.469-1.3474.7312-2.0092.0684-.1729.1394-.3448.2087-.5174.1534-.3819.0425-.1051.0556-.1355.1806-.4181.3647-.8346.5563-1.2479q.6215-1.3413,1.33-2.64c2.1649-3.9571,4.8506-7.61,8.889-9.6146a10.2767,10.2767,0,0,1,7.28-.5107,2.1447,2.1447,0,0,0,2.3634-.9617c.0406-.0641.0849-.1259.1291-.1876.1856-.2586-.3692.4244-.0975.1256.07-.0772.1313-.1627.2027-.2391a7.4011,7.4011,0,0,1,1.2576-1.1521,6.3854,6.3854,0,0,1,5.478-.7653,5.8076,5.8076,0,0,1,3.9413,3.8985q.1944.5926.33,1.2012c.0357.1614.1947,1.177.1291.63a8.9506,8.9506,0,0,1,.0763,1.0136,2.1115,2.1115,0,0,0,2.649,2.018,5.5911,5.5911,0,0,1,.5512-.13q.3279-.0526-.1143.0132.1739-.0178.3485-.0256c.2315.0042.4607-.0092.6923.0108q.2177.0193-.0157-.0086.2282.04.4518.1008a2.4,2.4,0,0,1,.658.2733,3.7792,3.7792,0,0,1,1.343,1.5948c1.2675,2.3779,4.8818.266,3.614-2.1124a7.3575,7.3575,0,0,0-8.6414-3.752l2.649,2.0179c-.0262-4.8071-2.8086-9.4148-7.55-10.7787a10.4552,10.4552,0,0,0-11.6965,4.1419l2.3633-.9617c-11.4239-3.1463-19.216,7.4116-23.0853,16.6543-.4045.9664-.8,1.9438-1.1137,2.9442-.8087,2.5757,3.2305,3.6778,4.0359,1.1126Z"/><path class="cls-1" d="M104.7309,871.4468s6.9757-14.649,22.3223-4.883c4.1854-2.0927,8.3708.6976,8.3708.6976"/><path d="M106.5379,872.5031a13.3251,13.3251,0,0,1,1.1675-1.9112c.0953-.1344.1936-.2664.2913-.399-.0065.0089-.159.1839.0949-.1175.2893-.3433.5776-.6854.8866-1.0115q.4422-.4668.9194-.8988a9.1692,9.1692,0,0,1,.8757-.7234,10.4507,10.4507,0,0,1,5.6681-2.1251,15.54,15.54,0,0,1,8.49,2.4073,5.1671,5.1671,0,0,0,1.8433.8953,4.0194,4.0194,0,0,0,1.8446-.4491,5.8134,5.8134,0,0,1,2.8341-.2108,7.34,7.34,0,0,1,2.9141,1.1091c2.2608,1.4785,4.36-2.1439,2.1124-3.614a10.9177,10.9177,0,0,0-10.4833-.6976h2.1125c-4.6-2.8829-10.287-4.7542-15.6353-2.8843a17.4854,17.4854,0,0,0-8.4212,6.6618,13.2067,13.2067,0,0,0-1.129,1.8563c-1.16,2.417,2.4481,4.5426,3.614,2.1125Z"/><path d="M721.3831,653.516h123.545c1.6662,0,3.3686.1017,5.0326,0,.072-.0044.1456,0,.2179,0a1.047,1.047,0,0,0,0-2.0927H726.6336c-1.6661,0-3.3686-.1017-5.0325,0-.0721.0044-.1457,0-.218,0a1.047,1.047,0,0,0,0,2.0927Z"/><path class="cls-1" d="M792.5353,626.2508s-.3488-89.289,8.72-131.1432"/><path d="M793.5817,626.2508c-.0118-3.0514.0083-6.1032.0325-9.1545q.0927-11.7117.3862-23.4206.3922-15.8174,1.1732-31.6222c.572-11.2669,1.3157-22.5287,2.3933-33.7592.9572-9.9751,2.1316-19.9593,4.0572-29.7993q.3048-1.5577.64-3.1092c.2834-1.3132-1.7335-1.8743-2.0179-.5564a271.7293,271.7293,0,0,0-4.3211,28.9747c-1.1776,11.2192-1.9816,22.4766-2.6048,33.7392q-.8919,16.1179-1.3109,32.2576-.3444,12.4752-.467,24.9554-.0378,3.8644-.051,7.7292c-.0037,1.1913-.0924,2.4223-.0027,3.6114.0038.0507,0,.103,0,.1539a1.047,1.047,0,0,0,2.0927,0Z"/><path class="cls-1" d="M739.8687,467.2048s21.6018,69.933,16.0442,159.046"/><path d="M738.86,467.4829c.7757,2.5137,1.4447,5.0633,2.1046,7.6091,1.8185,7.0144,3.4074,14.0887,4.84,21.1915q3.2863,16.2963,5.4652,32.7925,2.7762,20.9064,3.8565,41.9925,1.2387,24.3114.1009,48.6676-.1574,3.2586-.36,6.5147c-.0832,1.345,2.01,1.34,2.0927,0a488.0619,488.0619,0,0,0,.5049-49.8075q-.8688-21.5174-3.53-42.9126-2.1191-17.0867-5.3629-34.0089c-1.49-7.7145-3.1612-15.3968-5.0846-23.0152a86.6226,86.6226,0,0,0-2.57-9.4546c-.0154-.0406-.0255-.0839-.0383-.1254-.3959-1.2829-2.4166-.7356-2.0179.5563Z"/><path class="cls-1" d="M774.9823,528.2278c1.0579,28.638,1.6941,69.7664-1.63,98.023"/><path d="M773.936,528.2278c.9511,25.8362,1.4108,51.7715.0357,77.6006-.3631,6.821-.8729,13.6371-1.6659,20.4224-.1561,1.3351,1.938,1.3239,2.0927,0,1.4558-12.4565,2.0155-25.0137,2.2948-37.5458.296-13.2834.2194-26.5744-.0616-39.8574q-.2183-10.3122-.603-20.62c-.0494-1.3426-2.1424-1.3491-2.0927,0Z"/><path class="cls-1" d="M773.3521,495.1076s.3618,5.4269.8091,14.3"/><path d="M772.3058,495.1076c.3171,4.7636.5682,9.5322.809,14.3.0677,1.34,2.1608,1.3483,2.0927,0-.2408-4.768-.4919-9.5366-.809-14.3-.089-1.3368-2.1824-1.3467-2.0927,0Z"/><path class="cls-1" d="M732.1955,539.0545a538.0846,538.0846,0,0,1,3.9857,87.1963"/><path d="M731.1865,539.3327c.0136.0951.0266.19.04.2853.0682.4924.025.1741.0866.6434q.2175,1.6557.417,3.3134.7412,6.1432,1.3106,12.3058,1.9337,20.5718,2.3641,41.2516c.1963,9.7063.1234,19.4179-.27,29.1186-.0546,1.3467,2.0382,1.3442,2.0927,0,.6693-16.515.4167-33.0621-.526-49.5615-.6144-10.7546-1.5053-21.5-2.7695-32.1985-.2254-1.9066-.4565-3.8137-.7275-5.7144-.1894-1.328-2.2061-.7631-2.018.5563Z"/><path class="cls-1" d="M807.5331,570.4452s-3.3816,38.3664-2.04,55.8056"/><path d="M806.4867,570.4452c-1.2258,13.9243-2.1244,27.923-2.3259,41.9008-.0668,4.6332-.0622,9.2817.2863,13.9048.1007,1.3346,2.1942,1.3456,2.0928,0a221.7232,221.7232,0,0,1,.1119-26.6021c.3655-8.0982.8915-16.19,1.5235-24.2713.1286-1.6445.26-3.289.4041-4.9322.1181-1.3413-1.9753-1.3333-2.0927,0Z"/><path class="cls-1" d="M811.0209,557.8889s2.0927-13.2538,4.883-18.1368"/><path d="M812.03,558.1671c.3786-2.3907.8492-4.77,1.3721-7.1333.7956-3.5954,1.5844-7.5117,3.4054-10.7536A1.0471,1.0471,0,0,0,815,539.224c-1.88,3.3464-2.7416,7.3336-3.57,11.0452-.5427,2.4312-1.0287,4.8807-1.4183,7.3416-.2087,1.3175,1.8075,1.8848,2.0179.5563Z"/><path d="M304.3439,676.2108h112.98c5.2185,0,10.4786.1934,15.6945,0,.0762-.0028.153,0,.2293,0a1.047,1.047,0,0,0,0-2.0927h-112.98c-5.2185,0-10.4786-.1933-15.6945,0-.0762.0028-.153,0-.2293,0a1.047,1.047,0,0,0,0,2.0927Z"/></svg>