<svg id="Layer_1" data-name="Layer 1" xmlns="http://www.w3.org/2000/svg" width="1000" height="1000" viewBox="0 0 1000 1000"><defs><style>.cls-1{fill:#ea2f2f;}.cls-2{fill:#fc7272;}.cls-3{fill:#ffc41f;}.cls-4{fill:#fff;}.cls-5{fill:#a8542a;}.cls-6{fill:#389b48;}.cls-7{fill:#fc7f3a;}</style></defs><polygon class="cls-1" points="170.719 807.392 179.654 860.421 197.523 860.421 206.458 807.392 170.719 807.392"/><path d="M169.1707,807.8184l3.0181,17.913L177,854.2872l1.1053,6.56a1.6143,1.6143,0,0,0,1.5485,1.1789h17.8693a1.6211,1.6211,0,0,0,1.5485-1.1789l3.0181-17.913,4.8112-28.5558,1.1054-6.56a1.6312,1.6312,0,0,0-1.5485-2.0327H170.7192a1.6068,1.6068,0,0,0,0,3.2117h35.7387l-1.5484-2.0328-3.0181,17.913L197.08,853.4334l-1.1053,6.56,1.5484-1.1789H179.6539l1.5484,1.1789-3.018-17.913L173.373,813.525l-1.1053-6.56C171.925,804.931,168.83,805.7934,169.1707,807.8184Z"/><polygon class="cls-1" points="49.212 807.392 58.147 860.421 76.016 860.421 84.951 807.392 49.212 807.392"/><path d="M47.6635,807.8184l3.0181,17.913,4.8113,28.5558,1.1053,6.56a1.6142,1.6142,0,0,0,1.5485,1.1789H76.016a1.6211,1.6211,0,0,0,1.5485-1.1789l3.0181-17.913,4.8112-28.5558,1.1054-6.56a1.6312,1.6312,0,0,0-1.5485-2.0327H49.212a1.6068,1.6068,0,0,0,0,3.2117H84.9507l-1.5485-2.0328-3.018,17.913-4.8113,28.5558-1.1053,6.56,1.5484-1.1789H58.1467l1.5484,1.1789-3.0181-17.913L51.8658,813.525l-1.1054-6.56C50.4178,804.931,47.3223,805.7934,47.6635,807.8184Z"/><polygon points="272.957 807.392 281.891 860.421 299.761 860.421 308.695 807.392 272.957 807.392"/><path d="M271.4081,807.8184l3.0181,17.913,4.8112,28.5558,1.1054,6.56a1.6141,1.6141,0,0,0,1.5484,1.1789h17.8694a1.6212,1.6212,0,0,0,1.5485-1.1789l3.018-17.913,4.8113-28.5558,1.1053-6.56a1.6311,1.6311,0,0,0-1.5484-2.0327H272.9566a1.6068,1.6068,0,0,0,0,3.2117h35.7387l-1.5485-2.0328-3.0181,17.913-4.8112,28.5558-1.1054,6.56,1.5485-1.1789H281.8912l1.5485,1.1789-3.0181-17.913L275.61,813.525l-1.1054-6.56C274.1624,804.931,271.0669,805.7934,271.4081,807.8184Z"/><polygon points="113.98 807.392 122.915 860.421 140.784 860.421 149.719 807.392 113.98 807.392"/><path d="M112.4317,807.8184l3.0181,17.913,4.8112,28.5558,1.1054,6.56a1.6141,1.6141,0,0,0,1.5484,1.1789h17.8694a1.621,1.621,0,0,0,1.5484-1.1789l3.0181-17.913,4.8113-28.5558,1.1053-6.56a1.6311,1.6311,0,0,0-1.5484-2.0327H113.98a1.6068,1.6068,0,0,0,0,3.2117h35.7387l-1.5485-2.0328-3.0181,17.913-4.8112,28.5558-1.1054,6.56,1.5485-1.1789H122.9148l1.5485,1.1789-3.0181-17.913-4.8113-28.5558-1.1053-6.56C115.186,804.931,112.0905,805.7934,112.4317,807.8184Z"/><path class="cls-2" d="M160.4093,499.44H334.1208V458.659A69.1692,69.1692,0,0,0,264.9517,389.49H94.62"/><path d="M160.4093,501.0454H327.0747c2.247,0,4.5052.0656,6.7515,0,.098-.0028.1965,0,.2946,0a1.6291,1.6291,0,0,0,1.6058-1.6058v-28.546q0-6.0078,0-12.0158a70.69,70.69,0,0,0-35.861-61.7964,72.4281,72.4281,0,0,0-35.9838-9.1973H94.62a1.6068,1.6068,0,0,0,0,3.2117H261.0592q1.8916,0,3.7834,0a67.45,67.45,0,0,1,59.0754,34.5569,66.9977,66.9977,0,0,1,8.0581,24.33,107.6666,107.6666,0,0,1,.5389,13.4919V499.44l1.6058-1.6058H167.4555c-2.247,0-4.5052-.0656-6.7515,0-.0981.0028-.1966,0-.2947,0a1.6068,1.6068,0,0,0,0,3.2116Z"/><polygon points="308.886 440.409 185.869 440.409 179.56 425.539 302.578 425.539 308.886 440.409"/><path d="M308.8864,438.8034H190.8983a38.2781,38.2781,0,0,0-4.8139,0,1.7012,1.7012,0,0,1-.2154,0l1.3866.7954-6.3086-14.87-1.3866,2.4163H297.5485a38.28,38.28,0,0,0,4.814,0,1.72,1.72,0,0,1,.2154,0l-1.3866-.7953L307.5,441.22a1.617,1.617,0,0,0,2.197.5761,1.6464,1.6464,0,0,0,.5761-2.197l-6.3086-14.87a1.5709,1.5709,0,0,0-1.3865-.7953H194.7035c-4.9618,0-9.9687-.1962-14.9277,0-.0716.0028-.1437,0-.2154,0a1.6291,1.6291,0,0,0-1.3866,2.4163l6.3086,14.87a1.5711,1.5711,0,0,0,1.3866.7954H293.7434c4.9617,0,9.9686.1961,14.9277,0,.0715-.0029.1437,0,.2153,0A1.6068,1.6068,0,0,0,308.8864,438.8034Z"/><path class="cls-3" d="M358.8407,294.71c-1.0309,5.4985-84.6345,71.1278-96.3218,70.0277s-47.8447-59.5611-47.7893-65.7333,90.2935-71.1238,96.3219-70.0277S359.8717,289.2117,358.8407,294.71Z"/><path d="M357.2923,294.2832c-.0775.3735.2694-.3363-.0237.0639-.132.18-.25.3789-.3773.5641.0411-.06.2121-.2483-.0534.063-.1052.1233-.2074.2491-.3134.3718-.2472.2861-.503.5648-.762.84-1.49,1.5844-3.0914,3.0655-4.7006,4.5268-5.1085,4.6389-10.4351,9.041-15.7947,13.385q-10.1883,8.2576-20.662,16.1554c-7.1644,5.4144-14.4118,10.7229-21.7894,15.8438-6.114,4.2438-12.3092,8.4107-18.7589,12.1318a73.967,73.967,0,0,1-6.9884,3.6435q-.1969.0872-.3948.1722c-.2887.1245.23-.0935-.0547.0227-.2268.0925-.4538.1842-.6826.2716-.4128.1576-.8295.306-1.252.4359-.374.115-.751.2117-1.1331.2954-.1478.0323-.2976.0534-.4467.0779.5-.0821.1108-.0054-.1124-.0061-.12,0-.2415-.0037-.3612-.0018-.39.0063.282.1135-.21-.0349-.1834-.0553-.3709-.0982-.5545-.1546-.0975-.03-.1921-.069-.2881-.1031-.1963-.07.2514.1269-.1123-.0474a16.3446,16.3446,0,0,1-2.8688-1.8c.1492.1144-.3944-.3176-.5231-.4238q-.4449-.3672-.8769-.75c-.58-.5113-1.1447-1.04-1.6988-1.5789-1.2583-1.2246-2.4612-2.5058-3.6312-3.8147a197.8455,197.8455,0,0,1-15.8783-20.9073c-4.9157-7.2406-9.6-14.6575-13.89-22.2872-1.5322-2.7247-3.029-5.4793-4.3431-8.3172q-.1869-.404-.3675-.8108-.0783-.1768-.1551-.3544c-.15-.3465.0476.1211-.053-.124-.1757-.4277-.3467-.8576-.497-1.295-.1164-.3383-.215-.679-.3045-1.0252-.0256-.0991-.15-.563-.0509-.2187.0854.2965.0082-.0023.01-.1318-.0009.0732-.0882.5225-.0136.2055.0821-.3485-.2151.3446-.0409.0844.1259-.1881.2288-.397.3534-.5878.07-.1078.1517-.2081.2268-.3125-.2107.293-.075.09.1121-.1307.2394-.2826.4829-.5608.7341-.8331,1.4295-1.55,2.998-2.974,4.5732-4.3726,4.9577-4.4019,10.1681-8.5234,15.4-12.5919,6.69-5.2024,13.485-10.2709,20.3307-15.2663q10.7192-7.8219,21.6373-15.367c6.1351-4.2311,12.3163-8.404,18.6264-12.3709,2.3019-1.4471,4.6214-2.87,6.9891-4.2072.8895-.5023,1.7861-.9932,2.6977-1.4544.3712-.1879.7448-.3713,1.1226-.5457.1541-.0711.3094-.1392.4642-.2088.2868-.1291-.3066.1051.1807-.0731.2587-.0945.514-.1974.7794-.2727.1057-.03.22-.0479.3236-.0841.3386-.1188-.0291.0112-.11.0044.5842.0495-.3588-.0849.0742-.0077.3564.0636-.2948-.1922-.0084-.0017.1189.079.2528.1408.3744.2169.1438.09.2794.1914.4188.2879.3454.2393-.179-.167.2108.1656.3571.3047.7123.609,1.0563.9286.8858.8231,1.7271,1.6941,2.5516,2.5781A221.7007,221.7007,0,0,1,329.5888,252.08q8.1481,10.7357,15.725,21.8942a155.5455,155.5455,0,0,1,10.7034,17.3342c.2228.4457.4336.8965.6406,1.35.0443.0969.0857.1952.1278.2931-.1116-.26-.066-.168.01.0326.0645.17.1324.3388.1923.5107.1022.2932.16.6015.2592.8934.1316.3852.0232-.2788.0008-.0321-.0168.1853-.0647.5856.0443-.0726-.3349,2.0219,2.7594,2.8913,3.0969.8538.2925-1.7661-.68-3.5723-1.43-5.1074-1.267-2.5961-2.7641-5.0831-4.2792-7.54-4.472-7.2514-9.3392-14.265-14.31-21.1814-5.2227-7.2672-10.5977-14.4394-16.2616-21.37-2.1281-2.604-4.2959-5.1836-6.5974-7.637a24.3288,24.3288,0,0,0-4.7864-4.3277c-2.7181-1.65-6.2055.8629-8.5722,2.18-5.4375,3.0263-10.6574,6.458-15.84,9.8965-7.0967,4.7086-14.0951,9.5658-21.0381,14.4977q-11.1027,7.8867-21.9961,16.0637c-6.3554,4.7783-12.6654,9.6255-18.8175,14.6641A97.6282,97.6282,0,0,0,215.1353,295.45c-.8476.9525-1.9792,2.1624-2.0106,3.526-.04,1.7523.9854,3.6482,1.6828,5.1849a170.4383,170.4383,0,0,0,10.77,19.2288c5.0067,8.0579,10.3113,15.952,16.0439,23.5131,4.5514,6.0033,9.3523,12.3389,15.4141,16.9154,1.6592,1.2526,3.6744,2.5432,5.8318,2.5384a13.873,13.873,0,0,0,5.2062-1.4452,107.3179,107.3179,0,0,0,15.81-8.9538c7.226-4.6609,14.2621-9.6167,21.2143-14.6748q11.3675-8.27,22.431-16.9489c6.47-5.0613,12.8771-10.2077,19.139-15.5247a127.1553,127.1553,0,0,0,11.649-10.6574,7.3846,7.3846,0,0,0,2.0721-3.0152C360.8076,293.12,357.7125,292.2576,357.2923,294.2832Z"/><path d="M214.06,300.9455c8.7408,2.0937,17.5245,4.0213,26.3212,5.8638,14.774,3.0946,29.6929,6.1579,44.7321,7.63,2.6507.2594,5.3157.4631,7.9806.4612a19.721,19.721,0,0,0,5.71-.5978c3.5086-1.0793,4.2422-5.2068,4.9978-8.3515A187.4128,187.4128,0,0,0,307.03,286.86c1.0634-7.9928,1.9325-16.0112,2.7263-24.0348q1.6446-16.6264,2.8615-33.2941.02-.2772.04-.5546c.1462-2.0625-3.0661-2.0533-3.2117,0-.6518,9.1931-1.4385,18.3786-2.2964,27.5545-1.3788,14.7486-2.7181,29.6294-5.512,44.1911a69.1128,69.1128,0,0,1-1.6626,7.1028c-.1262.4146-.2593.8272-.4061,1.235-.0711.1975-.1473.3927-.2225.5886-.1447.3766.1157-.2128-.0986.224-.13.2639-.2716.517-.4108.7753-.0778.1445-.2571.5791-.0111.05-.0194.0417-.1806.244-.23.2444-.1144.001.4111-.1536-.0151-.0041a2.3824,2.3824,0,0,0-.3276.173c-.2272.1267.3927-.1039-.0694.0194-.1613.043-.3189.102-.4805.1454-.3561.0956-.7182.16-1.0813.2215-.5106.0872.1908-.01-.2736.036-.2542.025-.508.0513-.7628.0707a49.1725,49.1725,0,0,1-7.0759-.0907c-6.6426-.4548-13.2478-1.4662-19.8107-2.5589-7.6695-1.277-15.3068-2.746-22.9241-4.3025q-15.2247-3.111-30.3542-6.6827-.2532-.06-.5065-.1205c-2.0088-.4812-2.8661,2.6149-.8538,3.0969Z"/><path d="M264.282,365.9046l4.74-18.15,7.55-28.9075,1.7253-6.606c.5226-2.0014-2.5743-2.8551-3.097-.8538l-4.74,18.15-7.55,28.9074-1.7253,6.606c-.5227,2.0014,2.5742,2.8552,3.0969.8538Z"/><path d="M359.44,293.2132l-17.739-2.6556-28.262-4.2311-6.471-.9688a1.6609,1.6609,0,0,0-1.9754,1.1216,1.6164,1.6164,0,0,0,1.1216,1.9754l17.739,2.6556,28.262,4.2311,6.471.9688a1.6609,1.6609,0,0,0,1.9754-1.1216,1.6163,1.6163,0,0,0-1.1216-1.9754Z"/><circle class="cls-4" cx="286.9264" cy="296.5707" r="4.7759"/><path class="cls-4" d="M290.0177,295.8655c.03.13.0532.26.0785.3908-.0652-.3373-.0135-.1207-.012-.0373.004.2151.0174.427.0047.6423-.0052.0872-.084.4835,0,.0765-.017.0823-.03.1648-.0485.247a5.21,5.21,0,0,1-.2209.7163c.143-.3766-.1164.202-.1662.2861-.06.1009-.4346.5753-.1764.2857-.139.1559-.2736.3118-.4269.4547-.0613.0572-.1254.11-.1876.1664-.2309.2083.21-.136-.1308.0872-.18.1176-.3717.2065-.5569.313-.2122.1219.3535-.1076-.0357.0142-.1051.0329-.208.0712-.3139.1017s-.2147.0584-.3236.0818c-.0107.0023-.4361.0658-.177.0369s-.1649.0072-.1754.0077q-.1926.0088-.3855.0027c-.1275-.0041-.2539-.0153-.3807-.0282.06.0061.34.0691.0527-.0008-.2038-.0495-.406-.0939-.6051-.1608-.0137-.0046-.3877-.1584-.1569-.0539.2325.1054-.1356-.0718-.1462-.0774a5.867,5.867,0,0,1-.6317-.3952c.3152.2192-.16-.1582-.2394-.2386-.0584-.0595-.1156-.12-.1709-.1829-.05-.0569-.272-.3863-.0624-.0687-.1172-.1776-.2342-.3526-.3337-.5413-.04-.0761-.0753-.1542-.1139-.231.1714.3412-.0227-.0793-.05-.1645-.0609-.1914-.1-.3857-.1463-.5806-.0987-.4162.0063.33-.01-.0929-.0034-.0862-.0106-.172-.0123-.2583a5.1962,5.1962,0,0,1,.03-.6372c-.0431.4205.0091.0079.0267-.07q.0411-.1834.0965-.3632c.0308-.0995.07-.1959.1021-.2949.0745-.231-.1813.3279.0115-.0161.1019-.1819.1932-.3646.3087-.539.0069-.01.25-.3312.0936-.1393-.1584.1938.108-.1169.1144-.1239a4.7817,4.7817,0,0,1,.5484-.5125c-.0491.0391-.2639.1759-.02.0272.1089-.0663.2136-.1377.3249-.2.0746-.042.1515-.0791.2269-.12.3585-.1928-.2062.0568.0328-.0188.2115-.0669.4165-.1419.6334-.1917.108-.0248.2165-.0448.3257-.0635-.3878.0667-.0013.0084.092.004a5.4734,5.4734,0,0,1,.7661.0255c-.3765-.0346-.09-.0072.0088.0137.1432.03.285.0661.4247.11.08.0247.1572.0548.2367.08q.2521.0982-.0381-.02.1131.0519.2234.1094c.1845.0964.3555.2112.5308.3226.3424.2178-.23-.2216.0673.0551.0918.0853.1848.1669.273.2561s.169.1846.253.2779c.2183.2426-.1266-.2306.0525.0777.13.2232.2616.4354.3754.6683-.0268-.0548-.1071-.3054-.0135-.0225.0558.1684.1091.3352.1536.5071a1.6062,1.6062,0,1,0,3.0969-.8538,6.4705,6.4705,0,0,0-5.5817-4.7849,6.3638,6.3638,0,0,0-6.31,3.4909,6.3777,6.3777,0,1,0,11.8916,1.294,1.6192,1.6192,0,0,0-1.9753-1.1215A1.6412,1.6412,0,0,0,290.0177,295.8655Z"/><path class="cls-4" d="M702.1643,265.1335H654.366a29.634,29.634,0,0,0-21.5143,9.2549l-95.1682,100.468-102.94-95.978-37.2972,41.2755,100.3659,92.757a61.0511,61.0511,0,0,0,78.0932,3.9856l110.9669-90.775"/><path d="M702.1643,263.5277H659.106c-1.742,0-3.4859-.0252-5.2278.004A31.5213,31.5213,0,0,0,633.1,271.8845c-2.0822,1.9275-3.97,4.0979-5.9187,6.1555l-30.4175,32.1115-38.1659,40.2912-14.4891,15.2961c-2.381,2.5135-5.09,4.9315-7.2436,7.647-.0944.119-.2128.2247-.3175.3351h2.271l-10.2675-9.5731-24.54-22.8805-29.7894-27.7747-25.6585-23.9232c-4.1614-3.88-8.234-7.8923-12.5016-11.6561-.0625-.055-.122-.1136-.1828-.17a1.6268,1.6268,0,0,0-2.271,0L420.9868,291.71l-20.0237,22.16-4.6524,5.1486a1.6306,1.6306,0,0,0,0,2.271l13.3608,12.3479,30.462,28.1526L473.17,392.3215l21.3991,19.7768a85.3783,85.3783,0,0,0,8.8713,7.3922,62.5358,62.5358,0,0,0,75.449-2.97l21.274-17.403L634.41,371.1018l33.6268-27.508,19.0647-15.5956.9062-.7413c1.6006-1.3093-.6833-3.57-2.271-2.2709l-13.3758,10.9419-30.9764,25.34L606.228,390.0271l-25.916,21.2c-1.7675,1.4458-3.5127,2.9254-5.3054,4.34a57.5271,57.5271,0,0,1-23.5651,10.6976A60.0917,60.0917,0,0,1,498.51,411.3708q-8.459-7.8108-16.9111-15.6291l-31.6038-29.2078-31.9315-29.5107-18.605-17.1945-.8767-.81v2.271l12.621-13.9673,20.0238-22.16,4.6524-5.1486h-2.271l10.2675,9.5731,24.54,22.88,29.7894,27.7747,25.6585,23.9232c4.1614,3.88,8.234,7.8923,12.5016,11.6561.0624.055.122.1136.1828.17a1.63,1.63,0,0,0,2.271,0l17.8755-18.871L593.91,317.8325,626.5455,283.38q3.5621-3.76,7.1242-7.521a28.9577,28.9577,0,0,1,10.2978-7.1289,31.7411,31.7411,0,0,1,11.894-1.9907h46.3028a1.6068,1.6068,0,0,0,0-3.2116Z"/><path class="cls-4" d="M702.1644,265.1335H654.366a29.6346,29.6346,0,0,0-21.5144,9.2549l-67.0068,70.7383a224.9432,224.9432,0,0,1,16.9715,15.3716c10.4266,10.4266,27.35,47.7233,33.394,56.946l68.515-78.15Z"/><path d="M702.1644,263.5277H668.6467q-6.9977,0-13.9953,0a31.7892,31.7892,0,0,0-23.0652,9.8624q-8.7933,9.2445-17.5484,18.5257l-30.41,32.1036c-6.2106,6.5565-12.54,13.02-18.6411,19.6792-.0907.099-.1848.1951-.2772.2926a1.6194,1.6194,0,0,0,0,2.271q5.1264,4.18,9.99,8.6667c2.754,2.5381,5.5936,5.0784,8.0849,7.88a78.94,78.94,0,0,1,8.1822,11.761c6.2125,10.2669,11.6114,21.005,17.1725,31.6307,2.1237,4.0577,4.18,8.2128,6.6848,12.0542a1.6226,1.6226,0,0,0,2.522.325l5.26-5.9992,13.0182-14.8488,16.8855-19.26,16.6046-18.94,12.4666-14.22,3.3912-3.8681a5.639,5.639,0,0,0,1.3223-1.8079c.3655-1.1752.5708-2.4271.8523-3.6243l1.8527-7.8786,5.5094-23.4291,5.7174-24.3138,3.3251-14.14.1622-.69c.4727-2.01-2.6232-2.8681-3.0969-.8538l-2.35,9.9924-5.3439,22.7251-5.78,24.581-3.6589,15.56c-.0607.2582-.3631.9455-.2841,1.2079.0461.1529.7246-.8933.223-.4226-.8194.7689-1.5186,1.7321-2.2584,2.576L670.3128,353.303,654.34,371.5224l-17.1218,19.53L622.9207,407.36l-7.499,8.5535-.3469.3958,2.522.325c-2.1839-3.3492-4.0024-6.9508-5.8616-10.4851-2.6944-5.1222-5.3395-10.27-8.048-15.3849-2.8768-5.4325-5.8072-10.841-8.94-16.1312a103.2608,103.2608,0,0,0-8.6834-12.9095,83.0508,83.0508,0,0,0-7.6992-7.7695q-5.5215-5.1729-11.3844-9.9625v2.271l15.4213-16.28,29.96-31.6287L633.09,276.4708c4.915-5.1886,11.0609-8.8492,18.2939-9.58,4.17-.4216,8.4813-.151,12.6628-.151h38.1176A1.6068,1.6068,0,0,0,702.1644,263.5277Z"/><path d="M615.8213,417.5753c3.8612-3.8611.4925-14.1019-7.8835-26.8826l-21.32,17.4408C600.4706,417.6378,611.7292,421.6672,615.8213,417.5753Z"/><path d="M616.9568,418.7108c2.8612-2.9729,2.2244-7.5945,1.1923-11.2089-1.802-6.3107-5.2643-12.1632-8.8247-17.62a1.6365,1.6365,0,0,0-2.5221-.325l-18.6809,15.2817-2.6393,2.1591a1.6226,1.6226,0,0,0,.325,2.5221c5.9074,4.0373,12.2269,7.9488,19.0932,10.1269,3.7965,1.2043,8.8668,2.1375,12.0565-.9362,1.4911-1.4369-.7815-3.7062-2.2709-2.271a5.05,5.05,0,0,1-3.5955,1.1207,19.6571,19.6571,0,0,1-6.2376-1.31c-6.2417-2.17-11.9991-5.795-17.4248-9.5031l.325,2.5221,18.681-15.2818,2.6393-2.159-2.5221-.325c3.2487,4.9787,6.4094,10.248,8.2258,15.9446.86,2.6966,1.9343,6.8874-.0911,8.992C613.2522,417.9294,615.52,420.2035,616.9568,418.7108Z"/><path class="cls-5" d="M582.8163,360.4983a224.9432,224.9432,0,0,0-16.9715-15.3716l-21.9235,23.1446-6.2377,6.585-102.94-95.9779-37.2972,41.2754L491.759,424.1353c21.6533,20.0119,55.2153,20.6347,78.7935,2.9314l14.4592-12.51,22.9261-23.8641A197.3512,197.3512,0,0,0,582.8163,360.4983Z"/><path d="M583.9517,359.3628A228.27,228.27,0,0,0,566.98,343.9912a1.64,1.64,0,0,0-2.271,0l-21.93,23.151-6.2316,6.5787h2.271l-10.2422-9.5495L503.9818,341.24l-29.751-27.7389-25.71-23.971c-4.1525-3.8717-8.2233-7.8612-12.4717-11.6282-.058-.0515-.1136-.1059-.17-.1588a1.6268,1.6268,0,0,0-2.2709,0l-12.6322,13.98-20.0413,22.179-4.6238,5.1168a1.6467,1.6467,0,0,0,0,2.271l6.6176,7.296,16.6492,18.356L441.4539,371.06l22.2988,24.5848,17.9164,19.7531c2.9084,3.2066,5.7692,6.4654,8.7295,9.6244a30.0138,30.0138,0,0,0,3.0522,2.6975,60.0668,60.0668,0,0,0,10.446,6.8459,62.5676,62.5676,0,0,0,23.6727,6.6273,64.8582,64.8582,0,0,0,24.2831-2.7809c7.0509-2.2075,14.3458-5.5951,20.0356-10.3835,3.5056-2.95,6.9331-5.9985,10.3981-8.9963,1.7778-1.5381,3.5533-3.02,5.18-4.7131l19.9251-20.74,1.6823-1.751a1.634,1.634,0,0,0,.2511-1.946,196.4955,196.4955,0,0,0-25.3727-30.5194,1.6067,1.6067,0,0,0-2.2709,2.271,192.3636,192.3636,0,0,1,24.87,29.8694l.2511-1.946L589.39,407.6822c-1.8451,1.9206-3.6217,3.9607-5.5647,5.7835-3.16,2.964-6.579,5.692-9.8551,8.5264-1.4236,1.2317-2.83,2.4865-4.2725,3.6966a48.1177,48.1177,0,0,1-7.9556,5.1055,61.7976,61.7976,0,0,1-23.2325,7.0817c-16.2486,1.5664-32.8614-3.384-45.0594-14.3694-2.5027-2.2539-4.6438-5.0143-6.9021-7.5041l-16.3344-18.0089-21.54-23.7484-22.22-24.498-18.1272-19.9856-9.3219-10.2776-.4223-.4656v2.271l12.6322-13.98,20.0413-22.179,4.6237-5.1169H433.608l10.2421,9.5494,24.5951,22.9317,29.751,27.7388,25.71,23.971c4.1525,3.8717,8.2234,7.8612,12.4717,11.6283.058.0514.1136.1059.17.1587a1.63,1.63,0,0,0,2.271,0q11.9671-12.6335,23.9341-25.2671l4.2271-4.4625h-2.271a228.27,228.27,0,0,1,16.9715,15.3716A1.6067,1.6067,0,0,0,583.9517,359.3628Z"/><path class="cls-5" d="M419.497,344.3794,397.5708,319.836l-14.4215-40.2809s-36.8,4.4756-30.8323-24.3675,49.2322-29.34,61.1673-8.454c4.8687,8.52,9.3236,15.468,12.8921,20.7085a108.6905,108.6905,0,0,0,15.8863,18.4813l8.7737,8.1461"/><path d="M420.6325,343.2439,399.394,319.47c-.173-.1936-.337-.4093-.5255-.5882-.4087-.3876.2487-.1124.2466.5153a4.04,4.04,0,0,0-.3786-1.0575l-2.1776-6.0822-7.01-19.58-4.8512-13.55a1.6355,1.6355,0,0,0-1.5484-1.1789,41.6821,41.6821,0,0,1-18.9287-1.8655c-4.157-1.5-8.025-4.26-9.7787-8.494-2.3292-5.6229-1.1175-12.7648,1.435-18.0994,5.4634-11.4176,18.405-16.2751,30.4551-15.6712a36.4652,36.4652,0,0,1,17.0819,5.0372,26.346,26.346,0,0,1,6.4214,5.4364,24.382,24.382,0,0,1,2.51,3.6832q2.1675,3.7749,4.4274,7.4956c5.3162,8.7356,10.9147,17.3609,17.8012,24.9558,4.33,4.7748,9.168,9.0588,13.8867,13.44l1.4407,1.3377c1.5132,1.4049,3.79-.8611,2.271-2.271-3.574-3.3184-7.2137-6.5787-10.7053-9.9842-7.7072-7.517-13.8465-16.1843-19.552-25.2671q-2.2929-3.65-4.4864-7.3612c-1.2121-2.0491-2.3052-4.1964-3.6667-6.1523a28.3166,28.3166,0,0,0-6.5688-6.6436,37.8685,37.8685,0,0,0-17.7278-6.6436c-12.8-1.6-27.1439,2.6413-34.5448,13.7847a29.2647,29.2647,0,0,0-4.5625,20.1345,17.5534,17.5534,0,0,0,8.8656,12.5036,34.4554,34.4554,0,0,0,14.1286,3.9088,42.99,42.99,0,0,0,9.3173-.003c.1593-.0215.32-.03.48-.05l-1.5485-1.1789,11.2427,31.4019,2.4884,6.9505a8.6488,8.6488,0,0,0,1.2352,2.7846c3.4643,4.0531,7.1132,7.9622,10.6652,11.9383l11.1292,12.4576c1.38,1.5446,3.6449-.7331,2.271-2.271Z"/><path class="cls-5" d="M353.3116,253.1984s-1.0986-14.1775,11.883-15.0455,27.4033,2.6131,41.3276,19.5212"/><path d="M354.9174,253.1984c-.3436-4.5912,1.363-10.1859,6.0049-12.3961a16.0424,16.0424,0,0,1,6.6124-1.1506,47.3058,47.3058,0,0,1,6.8768.3153,40.7655,40.7655,0,0,1,14.3509,4.6A57.3439,57.3439,0,0,1,405.3867,258.81c1.32,1.5928,3.581-.69,2.271-2.271-8.1187-9.7975-18.774-17.6537-31.6038-19.5624a49.4981,49.4981,0,0,0-7.6342-.55,22.8345,22.8345,0,0,0-7.6355.9793,13.3494,13.3494,0,0,0-8.0814,8.546,18.768,18.768,0,0,0-.9971,7.2468c.1533,2.0484,3.3662,2.0651,3.2117,0Z"/><path class="cls-5" d="M400.0573,267.1227s-5.9675-4.973-18.4-13.9243c-24.3675-17.9026-52.7133,7.9568-52.7133,7.9568-10.94,4.9729-.9946,16.908,11.4378,10.4432s23.87-11.9351,35.8052,0-6.5351,20.0882-18.8972,24.3674c-12.93,4.4757-8.9513,15.4162,6.4649,13.427a49.3175,49.3175,0,0,1,5.5586-.4,40.0507,40.0507,0,0,1,27.7172,10.7749l22.4664,24.6118"/><path d="M401.1928,265.9872c-1.9647-1.6356-3.9964-3.1942-6.0227-4.7519q-3.706-2.8492-7.4739-5.6169a82.9712,82.9712,0,0,0-9.0535-6.252c-10.1655-5.5752-22.0195-4.8965-32.51-.6151a65.9955,65.9955,0,0,0-11.8983,6.3671c-2.1318,1.4343-4.0389,3.1473-6.12,4.6318-.1073.0766-.1908.2-.3035.268a4.0662,4.0662,0,0,0-.7095.2756c-.2654.1507-.5249.3106-.7768.483a10.6105,10.6105,0,0,0-1.5857,1.294,6.7663,6.7663,0,0,0-2.0216,5.7174c.6911,4.7794,5.93,7.2115,10.2835,7.2886a18.9932,18.9932,0,0,0,9.0871-2.556,89.3811,89.3811,0,0,1,9.095-4.26c5.7662-2.2023,12.0032-3.1253,17.6938-.1742a22.3,22.3,0,0,1,8.0414,6.8405,6.8643,6.8643,0,0,1,1.31,5.72c-1.2464,4.5067-6.59,7.3353-10.424,9.2755a77.5586,77.5586,0,0,1-7.8925,3.4c-2.5634.9577-5.2559,1.7053-7.5548,3.2386-3.2446,2.164-5.8567,6.1812-3.523,9.9814,2.6089,4.2483,8.66,4.94,13.1506,4.6317,3.8381-.2639,7.5534-.7725,11.4133-.4218a37.9469,37.9469,0,0,1,10.1827,2.43,34.2955,34.2955,0,0,1,12.7748,8.2243l5.7942,6.3475,15.21,16.6625,1.0028,1.0986c1.3965,1.53,3.6627-.7464,2.271-2.271l-11.6544-12.7672-7.7933-8.5376a47.8527,47.8527,0,0,0-4.7155-4.7913,41.337,41.337,0,0,0-29.1868-9.6874c-3.2814.1858-6.54.8755-9.8305.3909a9.3129,9.3129,0,0,1-5.3452-2.2976,2.9331,2.9331,0,0,1-.7331-3.3359c.6169-1.6072,2.4055-2.872,3.9779-3.694a81.8634,81.8634,0,0,1,7.6706-2.976c7.3482-2.9366,22.1154-9.3746,17.9411-19.8292a18.8937,18.8937,0,0,0-5.7017-7.1508,23.83,23.83,0,0,0-8.8877-4.8953c-5.942-1.64-12.0562-.1978-17.605,2.1156-3.1474,1.3122-6.1595,2.8824-9.1975,4.4237a13.1964,13.1964,0,0,1-8.0441,1.5287c-3.1169-.5247-7.4564-3.535-4.9678-6.8889.9685-1.3053,2.4774-1.6921,3.662-2.6876.5639-.4739,1.121-.9535,1.6978-1.4121.8672-.69,2.1563-1.641,3.3362-2.4526q2.4056-1.6547,4.9437-3.1047c8.61-4.91,18.8868-8.2,28.8267-6.04,6.6653,1.4483,11.8352,5.3929,17.219,9.3621,3.8288,2.8229,7.6331,5.684,11.345,8.66.4462.3577.8924.7158,1.3319,1.0817,1.5778,1.3134,3.8618-.9467,2.271-2.271Z"/><path class="cls-6" d="M775.3844,723.2669,846.32,770.3086l-64.2514,97.5689s-28.7383-16.5449-7.8-54.8118a15.6475,15.6475,0,0,0-5.2025-20.69c-8.6973-5.6041-17.1379-10.9872-17.1379-10.9872"/><path d="M774.5739,724.6535,798.667,740.631,836.78,765.9063l8.7292,5.7889-.5761-2.1971-6.403,9.7233-15.3721,23.3433-18.5191,28.1221-16.0169,24.3225-5.3353,8.1019a40.8724,40.8724,0,0,0-2.4934,3.7864,1.8458,1.8458,0,0,1-.1116.1694l2.1971-.5761a17.249,17.249,0,0,1-1.5211-1.0209c-.12-.0878-.2394-.1774-.3588-.2664-.3554-.2649-.036-.0242-.1442-.11-.3221-.256-.6419-.5145-.9556-.7807q-1.0245-.8694-1.979-1.8171a32.3024,32.3024,0,0,1-8.0034-12.7435c-2.4426-7.3469-2.0075-15.2071.1238-22.5754a58.5905,58.5905,0,0,1,2.5714-7.1229c1.1533-2.6463,2.6788-5.1208,3.804-7.7712a17.4194,17.4194,0,0,0-.089-13.7723c-2.5468-5.8274-8.1748-8.6363-13.2741-11.908q-5.1531-3.3063-10.3141-6.6c-1.7477-1.1147-3.36,1.6638-1.6209,2.7732q4.2378,2.703,8.4688,5.4169c2.7534,1.765,5.51,3.5253,8.255,5.3036a14.7048,14.7048,0,0,1,4.8053,4.8466,14.1754,14.1754,0,0,1,.7147,12.9627c-1.2116,2.659-2.6957,5.1744-3.8426,7.872a63.0842,63.0842,0,0,0-2.5755,7.1459c-2.1941,7.5858-2.7043,15.7748-.4039,23.4a35.89,35.89,0,0,0,8.2594,14.1717,29.4286,29.4286,0,0,0,6.4588,5.37,1.6408,1.6408,0,0,0,2.1971-.576l6.403-9.7233L805.23,835.6214,823.75,807.4993l16.0169-24.3225c2.5961-3.9422,5.4464-7.8112,7.8288-11.8883.0339-.0581.0745-.1132.1115-.1694a1.6341,1.6341,0,0,0-.5761-2.1971l-24.0931-15.9775-38.1133-25.2753-8.7293-5.7889c-1.7274-1.1456-3.3376,1.6348-1.621,2.7732Z"/><path class="cls-4" d="M846.32,770.3085l-64.2515,97.569a32.819,32.819,0,0,1-9.1373-8.7726l44.477-67.54a12.2017,12.2017,0,0,0,.1559-13.1784h0a12.2013,12.2013,0,0,1,.1559-13.1784l6.3553-9.6508Z"/><path d="M844.9336,769.498l-6.403,9.7233-15.3721,23.3433-18.5192,28.1222-16.0169,24.3225-5.3354,8.102a40.8659,40.8659,0,0,0-2.4934,3.7864,1.83,1.83,0,0,1-.1115.1693l2.1971-.5761a29.4185,29.4185,0,0,1-8.5612-8.1965v1.621l7.0528-10.71,15.46-23.477,15.27-23.1883,4.9734-7.5523a39.5916,39.5916,0,0,0,2.4292-3.8413,13.938,13.938,0,0,0,.3725-11.7761c-.7821-1.8124-1.9119-3.32-2.3394-5.2889a10.6465,10.6465,0,0,1,.4-5.7469,23.7134,23.7134,0,0,1,2.899-4.9418l3.8759-5.8858.75-1.1395-2.197.576L842.7417,769.86l2.768,1.8356c1.7274,1.1456,3.3376-1.6348,1.621-2.7731l-19.4768-12.9161L824.886,754.17a1.6331,1.6331,0,0,0-2.1971.5761l-6.0672,9.2132a13.8385,13.8385,0,0,0-.8522,14.5331,13.69,13.69,0,0,1,1.9989,5.3281c.2921,3.2311-1.0184,5.8274-2.7076,8.3925l-4.2774,6.4955-14.67,22.2774-15.9023,24.1485c-2.8338,4.3032-5.93,8.5268-8.5416,12.9707-.038.0648-.0831.1262-.1245.189a1.5645,1.5645,0,0,0,0,1.621,33.27,33.27,0,0,0,9.7134,9.3487,1.64,1.64,0,0,0,2.1971-.5761l6.403-9.7233L805.23,835.6214,823.75,807.4992l16.017-24.3225c2.596-3.9422,5.4464-7.8111,7.8287-11.8883.034-.0581.0745-.1131.1116-.1694C848.8468,769.3879,846.0668,767.7772,844.9336,769.498Z"/><path class="cls-6" d="M754.0138,780.6278l-.2816,87.25H633.9793s-2.0375-33.9307,42.5278-37.5787a16.04,16.04,0,0,0,14.78-16.1183c-.1056-10.6052-.2556-20.8661-.2556-20.8661"/><path d="M752.408,780.6278l-.0279,8.6309-.0673,20.8634-.0811,25.138-.0705,21.8548-.0232,7.1759a25.4894,25.4894,0,0,0-.0111,3.4283,1.1634,1.1634,0,0,1,0,.1584l1.6058-1.6058H638.8685a36.5025,36.5025,0,0,0-4.6915,0,1.5343,1.5343,0,0,1-.1977,0l1.6059,1.6058a17.2065,17.2065,0,0,1,.0114-1.77c.03-.6838.0856-1.3666.1607-2.0469.0191-.1726.04-.345.0613-.5175.0112-.0931.0657-.4708,0-.0058.0158-.1117.0305-.2236.0481-.3351.0751-.4758.1513-.9511.2412-1.4245a33.3424,33.3424,0,0,1,5.6866-13.4616,36.7412,36.7412,0,0,1,16.8323-12.5425,61.2677,61.2677,0,0,1,14.7848-3.5593c2.7726-.33,5.5362-.4159,8.1676-1.4492a17.6335,17.6335,0,0,0,10.6882-11.7626c.9514-3.4607.6031-7.141.5627-10.6862q-.0855-7.5013-.1927-15.0024c-.03-2.0648-3.2419-2.0708-3.2117,0q.0907,6.2233.163,12.447c.0708,5.9429.9988,12.2772-2.8543,17.31a14.6409,14.6409,0,0,1-5.7766,4.5c-2.5357,1.0948-5.226,1.1429-7.9223,1.4772a64.5969,64.5969,0,0,0-14.9887,3.5236,40.8179,40.8179,0,0,0-18.2,13.0115,36.451,36.451,0,0,0-6.5977,14.1912,29.84,29.84,0,0,0-.8751,8.1024,1.6367,1.6367,0,0,0,1.6058,1.6058H739.0107c4.8263,0,9.7.1993,14.5239,0,.0656-.0027.1319,0,.1976,0a1.63,1.63,0,0,0,1.6059-1.6058l.0278-8.6309.0673-20.8633.0812-25.1381.07-21.8547c.0114-3.5211.185-7.0852.0342-10.6042-.0022-.0526,0-.1058,0-.1585a1.6068,1.6068,0,0,0-3.2116,0Z"/><path d="M642.3826,432.848l-15.0613.3714s-5.2216,16.6594,8.9514,23.87C650.0413,464.0947,642.3826,432.848,642.3826,432.848Z"/><path d="M642.3826,431.2422l-15.0613.3714a1.652,1.652,0,0,0-1.5484,1.1789,25.4026,25.4026,0,0,0-.8507,10.1072,19.4121,19.4121,0,0,0,10.54,15.5764c1.8691.9413,4.096,1.68,6.1634.9366a6.3071,6.3071,0,0,0,3.6071-4.0982c1.4579-4.0776.9491-8.9386.4292-13.1421a85.0345,85.0345,0,0,0-1.7309-9.7513c-.4906-2.0067-3.5885-1.1568-3.0969.8538.5487,2.2442.9671,4.5272,1.3216,6.809.3067,1.9741.548,4.0169.6695,6.1287.06,1.0405.0893,2.0834.07,3.1256-.0094.4975-.0294.9949-.0645,1.4912-.027.3827-.1067,1.1352-.1225,1.2413a13.2077,13.2077,0,0,1-.5972,2.4585c-.1262.3578.0507-.06-.11.2709-.079.1619-.1591.3222-.25.478-.0869.149-.1791.2942-.28.4345-.1064.1483.0513-.065.0609-.0765-.0787.0942-.16.1841-.2449.273-.0775.0815-.4419.3734-.1241.1406a3.2394,3.2394,0,0,1-.3975.2532c-.2725.1439-.0954.0512-.106.0548a4.5367,4.5367,0,0,1-.5353.1421c.3841-.0774-.098.0086-.2245.0067-.1892-.003-.3765-.0049-.5652-.0232.3312.0321-.2643-.0519-.3367-.069-.2513-.0594-.4986-.13-.7436-.2112-5.4-1.7938-9.0605-6.9912-10-12.4746a21.6344,21.6344,0,0,1,.6158-10.0822l-1.5485,1.1789,15.0613-.3714C644.4457,434.403,644.4535,431.1911,642.3826,431.2422Z"/><path class="cls-7" d="M648.2078,414.82s-60.67,121.8373-51.7188,178.529S720.0534,791.601,720.0534,791.601l67.4446-68.5151-88.32-92.0672,68.381-159.5076-3.0871-66.5186"/><path d="M646.8212,414.009c-2.7726,5.57-5.384,11.2243-7.9634,16.8855q-9.43,20.6964-17.7351,41.8849a550.6764,550.6764,0,0,0-18.0057,53.0813c-4.6165,16.64-8.4771,33.8363-9.0688,51.1547a82.2554,82.2554,0,0,0,1.492,19.972,106.8628,106.8628,0,0,0,5.4312,17.119c5.6948,14.3068,13.0609,27.9342,20.816,41.2134,8.9941,15.4007,18.6991,30.3828,28.7222,45.1307q14.5864,21.4623,30.0437,42.3161Q692.7626,759.3213,705.38,775.57q6.4169,8.2689,12.9557,16.4431.291.362.5827.7231a1.6193,1.6193,0,0,0,2.271,0l22.8095-23.1715,36.33-36.907,8.3048-8.4365a1.635,1.635,0,0,0,0-2.271l-29.81-31.0743L711.2748,641.31l-10.9616-11.4267.2511,1.946L712.95,602.9381l26.0562-60.7795,23.6633-55.1978,5.7418-13.3935a6.642,6.642,0,0,0,.7424-2.2915c.1054-2.3786-.2255-4.8579-.3357-7.2336l-2.6774-57.6914-.063-1.3583c-.0955-2.0579-3.3077-2.07-3.2117,0l2.4307,52.3766.5343,11.5113a9.0872,9.0872,0,0,0,.1123,2.42c.2071.5394.5046-1.01.1289-.3661a31.3081,31.3081,0,0,0-1.4789,3.45l-2.963,6.9116L739.386,533.1826l-26.5939,62.0339q-7.3935,17.2464-14.7871,34.493-.1067.2494-.2138.4987a1.686,1.686,0,0,0,.2511,1.946l29.81,31.0743,47.549,49.5662,10.9616,11.4267V721.95L763.553,745.1219l-36.33,36.907-8.3048,8.4366h2.271c-2.9789-3.68-5.9073-7.4016-8.8285-11.1274q-11.2966-14.4089-22.26-29.075-14.8765-19.88-29.1083-40.2339c-10.2406-14.6982-20.1913-29.6093-29.5655-44.877a409.8125,409.8125,0,0,1-23.2924-42.4814c-5.0973-11.0493-9.7594-22.7382-10.6907-34.9835-1.23-16.1672,1.77-32.5919,5.49-48.26a464.9684,464.9684,0,0,1,16.6531-53.61c5.6414-15.2667,11.8218-30.3343,18.4124-45.215,3.55-8.0155,7.2-15.9926,11.0524-23.8678q.27-.5529.5435-1.1046c.9183-1.8447-1.851-3.4734-2.7731-1.6209Z"/><path d="M752.1425,414.82s25.8594,4.9729,28.8431,19.8918-34.8106,18.4-34.8106,18.4"/><path d="M751.7156,416.3679a60.05,60.05,0,0,1,11.2686,3.4742c5.8952,2.4169,12.33,6.03,15.3112,11.9336a11.5754,11.5754,0,0,1,1.2371,4.1035,6.1183,6.1183,0,0,1-.481,2.909,11.9152,11.9152,0,0,1-4.694,4.8506c-4.9976,3.1719-10.9717,4.7706-16.7019,6.0128-2.7577.5977-5.5391,1.0838-8.3332,1.4767q-.174.0245-.3481.0482c-.4534.0622.3357-.0437-.0984.0132q-.3558.0466-.712.0914-.5233.0652-1.0473.1248c-.3136.0354-.6274.07-.9416.1-2.0408.1891-2.0606,3.4025,0,3.2116a103.0644,103.0644,0,0,0,10.6588-1.62c6.2457-1.2484,12.7049-2.93,18.2563-6.1474a17.39,17.39,0,0,0,6.1921-5.5461,9.9819,9.9819,0,0,0,1.02-8.0993c-1.9746-7.1892-8.6242-11.9669-15.0184-15.04a61.2474,61.2474,0,0,0-14.714-4.9937c-2.0194-.39-2.8842,2.7044-.8538,3.0969Z"/><path class="cls-7" d="M686.5,429.49l-3.9784,362.28,78.0754-.4973S777.386,527.4553,774.48,487.827,762.9715,395.4,762.9715,395.4"/><path d="M684.8937,429.49l-.1065,9.6923-.29,26.3767-.4284,39.0109-.5227,47.595-.5724,52.1288-.5778,52.6124L681.86,705.78l-.4553,41.4649-.3274,29.8131c-.0516,4.6989-.2128,9.4116-.155,14.1108.0025.2-.0044.4-.0066.6a1.627,1.627,0,0,0,1.6058,1.6058l26.3859-.168,42.0482-.2679,9.6413-.0614a1.6413,1.6413,0,0,0,1.6059-1.6058q.3244-5.0991.64-10.1987.8487-13.6258,1.6726-27.2531,1.1979-19.7844,2.351-39.5715,1.3734-23.5752,2.6754-47.1546,1.377-24.9978,2.6456-50.0017,1.2174-24.15,2.27-48.3071c.5909-13.8134,1.13-27.63,1.52-41.4506.283-10.0185.5318-20.0472.4268-30.07-.1568-14.975-2.0622-29.9328-3.8336-44.7824q-3.2567-27.3009-7.5656-54.4688-.24-1.5206-.4851-3.04c-.3313-2.0349-3.4266-1.1714-3.0969.8538,2.1883,13.4392,4.1105,26.9274,5.8928,40.4258,1.5744,11.9241,3.0125,23.8683,4.1919,35.8383.6671,6.7713,1.3825,13.5638,1.5913,20.369.2737,8.9225.0781,17.8646-.1255,26.7864-.2987,13.0887-.7731,26.1733-1.3,39.2546q-.9426,23.3937-2.1106,46.7777-1.2234,24.9942-2.5864,49.9814-1.3066,24.1339-2.7,48.2629-1.204,20.9056-2.46,41.8083-.9195,15.31-1.8664,30.6183c-.3,4.847-.9806,9.8326-.9183,14.6922.0027.2086-.0267.422-.04.63l1.6058-1.6058-26.3858.1681-42.0483.2678-9.6413.0614,1.6059,1.6058.1064-9.6923.29-26.3767.4284-39.011.5226-47.595.5725-52.1288.5777-52.6124.5367-48.8743.4554-41.465.3274-29.813c.0516-4.6989.2128-9.4116.1549-14.1109-.0024-.2.0044-.4.0066-.6a1.6068,1.6068,0,0,0-3.2116,0Z"/><path class="cls-4" d="M780.9856,433.4293c-14.9188-16.0805-153.4156-.4586-153.4156-.4586l25.4582-150.4966c.99-9.7652,8.6418-17.1612,17.7555-17.1612h60.8129c9.9023,0,15.0757,4.0948,19.326,18.6273C750.9226,283.94,776.51,385.1877,780.9856,433.4293Z"/><path d="M654.4239,266.9188h65.301c4.05,0,8.1011-.0351,12.1507.0011,4.6391.0413,8.869,1.2805,11.8693,5,2.8661,3.5535,4.5327,8.2971,5.6816,12.6545,1.0414,3.95,1.97,7.9326,2.935,11.9012q3.1725,13.0486,6.1941,26.1336,3.95,17.0984,7.6193,34.26c2.6017,12.2222,5.0793,24.4724,7.3194,36.7663,1.9894,10.9184,3.8328,21.8783,5.1487,32.9007q.4108,3.4416.7368,6.8925l2.7413-1.1355c-2.1088-2.2454-5.3061-3.3745-8.1908-4.2014a78.83,78.83,0,0,0-13.5461-2.3543c-12.4242-1.2967-24.9966-1.26-37.4707-.993-14.1709.3031-28.3309,1.0766-42.4689,2.0721q-17.9124,1.2613-35.787,3.0025-5.8305.5631-11.6561,1.1761a45.0741,45.0741,0,0,0-5.4472.5914,2.0941,2.0941,0,0,1-.233.0264l1.5485,2.0327,2.2842-12.9532,5.4857-31.1075,6.6366-37.6341,5.737-32.5328c.9288-5.2668,1.9171-10.527,2.787-15.8039.0121-.0735.0258-.1468.0388-.22.3564-2.0212-2.7381-2.8888-3.0969-.8537l-2.2843,12.9531-5.4856,31.1075-6.6366,37.6341-5.7371,32.5329c-.9287,5.2667-1.917,10.5269-2.7869,15.8038-.0121.0735-.0259.1468-.0388.22-.16.9089.4174,2.162,1.5484,2.0327,4.6165-.5278,9.24-.9961,13.864-1.4542q16.83-1.6674,33.6968-2.9378c14.0178-1.05,28.0558-1.89,42.1071-2.3215a367.2433,367.2433,0,0,1,38.6778.4185,102.1263,102.1263,0,0,1,14.136,1.8494,41.4665,41.4665,0,0,1,5.4116,1.4959q.555.2,1.1007.4253c-.3819-.1576.5838.2666.7688.3576a15.714,15.714,0,0,1,1.7422,1.0093c.1241.0823.243.1735.3621.2627-.4211-.3156-.0142-.0111.076.0729.1988.1852.3995.3631.5858.5615a1.6218,1.6218,0,0,0,2.7413-1.1355c-.995-10.6626-2.6346-21.2661-4.4392-31.818-2.1026-12.2941-4.495-24.5381-7.0232-36.7512q-3.7128-17.9349-7.7994-35.79-3.2745-14.39-6.7314-28.7374-1.8759-7.7892-3.812-15.5639c-1.8323-7.3258-5.0211-16.2656-12.4952-19.5046-4.715-2.0434-10.1806-1.5573-15.2192-1.5573h-70.648a1.6068,1.6068,0,0,0,0,3.2117Z"/><path class="cls-4" d="M670.7837,265.3129l54.2608-.1747q1.4669-.0046,2.931-.1062L926.966,251.2354a42.9254,42.9254,0,0,1,41.671,24.2553h0l-28.0195,30.421L733.7426,330.7765"/><path d="M670.7837,266.9188l27.13-.0874c9.0431-.0291,18.0875-.0158,27.13-.0873,4.0843-.0323,8.1889-.4708,12.26-.7531l25.5753-1.7732,35.9967-2.4957,40.3015-2.7943,38.4273-2.6642,30.7131-2.13,17.0456-1.1818a53.415,53.415,0,0,1,8.1186-.0686A41.3556,41.3556,0,0,1,967.25,276.3012l.2511-1.946-24.545,26.6488-3.4745,3.7723,1.1355-.47-5.5295.6646L920.04,306.7792l-22.2582,2.6753-27.1585,3.2642-29.75,3.5757-30.0311,3.61L782.839,323.27l-23.6663,2.8445-17.02,2.0456c-2.688.3231-5.3771.6379-8.0641.9693-.1154.0142-.2308.0277-.3462.0416-2.0266.2436-2.0511,3.4582,0,3.2116l7.8514-.9436,21-2.5241,29.9743-3.6026,35.1664-4.2268,36.07-4.3353,33.1175-3.9805,26.2612-3.1563,15.1883-1.8256c.7438-.0894,1.502-.1442,2.241-.2693,1.072-.1816,1.55-.9158,2.2474-1.6726l3.85-4.18,21.4965-23.3389,1.5662-1.7a1.6725,1.6725,0,0,0,.2511-1.946,44.9239,44.9239,0,0,0-43.1566-25.0437c-3.96.26-7.9176.5489-11.8763.8234l-27.6827,1.9193-37.0022,2.5655-40.7168,2.823-37.881,2.6264L742.6331,262.41q-7.0765.4906-14.1532.9812c-6.8546.4692-13.8094.1746-20.6735.1967l-34.7873.112-2.2354.0072a1.6068,1.6068,0,0,0,0,3.2117Z"/><path class="cls-4" d="M760.199,367.1286l56.2038-25.6932c-2.5337-8.4648-16.6978-38.2859-18.1139-49.9694a190.664,190.664,0,0,1-1.4106-31.2111l-68.9029,4.7772q-1.4631.1015-2.931.1061l-54.2608.1749"/><path d="M761.01,368.5152l19.0449-8.7063,30.2135-13.8119,6.9454-3.175a1.6126,1.6126,0,0,0,.7379-1.8135c-1.0756-3.5572-2.5766-7.0005-3.9862-10.4338-2.0528-5-4.1459-9.9835-6.1571-15.0007-2.0122-5.02-3.9774-10.07-5.6423-15.217-.669-2.0682-1.2936-4.1558-1.7766-6.2761a63.9325,63.9325,0,0,1-1.1241-8.4252,179.4708,179.4708,0,0,1-.7807-25.4008,1.6153,1.6153,0,0,0-1.6059-1.6058l-19.5835,1.3577-34.7491,2.4093c-5.9422.412-11.9423,1.0938-17.9045,1.1176q-13.2387.053-26.4775.0853c-8.9644.0289-17.9388-.0651-26.9021.0867-.1592.0027-.3187.001-.478.0015a1.6068,1.6068,0,0,0,0,3.2117l22.9015-.0738,29.7118-.0958c5.2319-.0168,10.4566-.5189,15.6734-.8806l34.0314-2.3595,15.29-1.06c2.6761-.1856,5.4515-.1793,8.1085-.5622.1238-.0178.2527-.0175.3776-.0262l-1.6058-1.6058a175.1355,175.1355,0,0,0,.5276,22.5576,78.1862,78.1862,0,0,0,2.6232,16.3346c3.1307,10.4052,7.55,20.42,11.6907,30.45,1.6659,4.0357,3.4748,8.08,4.74,12.265l.738-1.8135-19.045,8.7063L766.3338,362.567l-6.9453,3.175c-1.8773.8582-.2471,3.6271,1.621,2.7732Z"/><path d="M816.2266,341.5936c3.805-.4614,6.2132-8.8867,6.8438-21.5537l-18.6439,2.2409C808.0663,334.4411,812.42,342.0549,816.2266,341.5936Z"/><path d="M816.6535,343.142c3.1921-.46,4.7609-4.3123,5.6207-6.9634,1.673-5.1587,2.1249-10.7549,2.4021-16.1387a1.61,1.61,0,0,0-1.6059-1.6058l-16.3074,1.96-2.3365.2808a1.63,1.63,0,0,0-1.5484,2.0327c1.5559,5.1656,3.3392,10.4928,6.2014,15.1038,1.4834,2.39,3.9212,5.7024,7.1471,5.3879a1.6528,1.6528,0,0,0,1.6058-1.6058,1.6159,1.6159,0,0,0-1.6058-1.6059c-.1638.016-.6629-.0061-.5549.0114.23.0375-.6688-.24-.3145-.087a4.081,4.081,0,0,1-1.1331-.7408,14.793,14.793,0,0,1-2.7753-3.6539,63.1841,63.1841,0,0,1-5.4738-13.6635l-1.5485,2.0327,16.3074-1.96,2.3365-.2808-1.6058-1.6058a63.0426,63.0426,0,0,1-2.0635,14.56,14.798,14.798,0,0,1-1.8028,4.1572,5.6957,5.6957,0,0,1-.8325.923c.1623-.122-.1386.0855-.1712.1067a2.4614,2.4614,0,0,1-.3432.1825c.3436-.1524-.318.0568-.4517.0761a1.6177,1.6177,0,0,0-1.1215,1.9753A1.6457,1.6457,0,0,0,816.6535,343.142Z"/><path class="cls-5" d="M926.9661,251.2355l-111.1036,7.7032-18.9842,1.3162a190.664,190.664,0,0,0,1.4106,31.2111c1.4161,11.6835,6.2129,30.5315,8.7466,38.9963l31.5811-5.888,102.0009-18.6625,28.0195-30.4212A42.9252,42.9252,0,0,0,926.9661,251.2355Z"/><path d="M926.9661,249.63l-14.7753,1.0245-33.694,2.3361-36.6647,2.5421-23.6874,1.6423-19.883,1.3785-1.3834.096a1.6472,1.6472,0,0,0-1.6058,1.6058,182.6928,182.6928,0,0,0,1.5261,32.1236,231.0757,231.0757,0,0,0,5.346,26.1925c1.0365,4.1258,2.1256,8.2414,3.3424,12.3182a1.6494,1.6494,0,0,0,1.9754,1.1216l17.6277-3.2866c4.7132-.8787,9.4247-1.7678,14.14-2.6356q4.8153-.8862,9.6326-1.7624l20.1446-3.6857,25.0852-4.59,24.0687-4.4037,17.4714-3.1966,4.4822-.82a3.0279,3.0279,0,0,0,1.9311-.901c4.3863-4.5627,8.5857-9.3217,12.8734-13.9769l14.0316-15.2343.8217-.8921a1.6709,1.6709,0,0,0,.2511-1.946,44.51,44.51,0,0,0-43.0575-25.05c-2.052.1335-2.067,3.3461,0,3.2117a41.3174,41.3174,0,0,1,40.2843,23.46l.2511-1.946-10.5808,11.4877-15.363,16.68c-.5858.636-1.2051,1.2537-1.7632,1.9144-.067.0793-.2746.2247-.3038.33.2915-1.0482.9989-.3508.5967-.3846a12.498,12.498,0,0,0-2.86.5233l-15.1918,2.78-23.0759,4.222-25.1483,4.6013-21.7925,3.9872-12.6217,2.3093c-3.073.5623-6.143,1.1411-9.2142,1.7137l-22.0657,4.114-1.5087.2812,1.9753,1.1216c-5.1307-17.19-8.95-34.8258-9.9574-52.7631a165.721,165.721,0,0,1-.1423-17.0174l-1.6059,1.6058,20.0189-1.388,20.9627-1.4534,35.92-2.49,34.93-2.4218c5.9946-.4156,12.0046-.7364,17.992-1.2474.0878-.0075.1759-.0122.2637-.0183C929.0167,252.6991,929.0324,249.4864,926.9661,249.63Z"/><path class="cls-5" d="M915.375,295.2754,787.93,354.9924l62.4632,31.6737,95.2788-34.7928c27.2989-15.523,36.9339-48.1747,22.9655-76.3826h0a42.9254,42.9254,0,0,0-41.671-24.2553"/><path d="M914.5645,293.8889l-12.68,5.9416-30.45,14.2679-36.8334,17.2589-31.83,14.9147L792.3382,351.16c-1.6588.7772-3.3976,1.4723-5.0084,2.3467-.0678.0368-.1408.066-.2108.0988a1.6154,1.6154,0,0,0,0,2.7731l16.3262,8.2787,30.206,15.3168,11.4474,5.8047,3.36,1.7037a5.0649,5.0649,0,0,0,1.9343.7891,3.9782,3.9782,0,0,0,1.2846-.3706l2.5344-.9255,9.3156-3.4017,29.3111-10.7035,31.6264-11.549,20.0187-7.31a34.0782,34.0782,0,0,0,8.7828-5.227,58.3216,58.3216,0,0,0,20.5581-64.6725c-2.5007-7.9888-6.4623-15.6184-12.4258-21.57a44.69,44.69,0,0,0-22.0378-12.0065,45.1643,45.1643,0,0,0-12.3948-.9062c-2.0521.1334-2.067,3.346,0,3.2116a41.7419,41.7419,0,0,1,31.9071,11.72c8.0844,7.934,12.7072,19.4058,14.0866,30.5353a54.8508,54.8508,0,0,1-14.7312,44.9962,57.5305,57.5305,0,0,1-6.2057,5.6272,42.264,42.264,0,0,1-6.7813,4.6058c-2.1182,1.02-4.5272,1.6532-6.7319,2.4583l-16.52,6.0324-44.1383,16.118-18.0968,6.6083c-3.1082,1.135-6.3007,2.1464-9.3569,3.4169-.1411.0587-.2885.1053-.4322.1578l1.2374.1619L830.046,374.5512l-33.5847-17.03-7.7213-3.9153v2.7731l12.68-5.9416,30.45-14.2679,36.8333-17.2589,31.83-14.9147,10.4323-4.8883c1.6588-.7772,3.3976-1.4723,5.0084-2.3467.0678-.0368.1408-.066.2108-.0988,1.87-.8763.2413-3.6458-1.621-2.7731Z"/><path class="cls-5" d="M816.67,341.7031l-62.75,28.0552c-8.1441,3.583-6.7039,15.611,2.07,17.0866,3.6261.61,8.3633.4816,14.5514-.8686,0,0,14.4216,33.3188,20.8864,63.6538,31.827,4.4757,31.827-10.4432,30.3351-49.2322L857.8865,383.99"/><path d="M815.86,340.3165l-10.6288,4.7521-22.91,10.2428-21.7252,9.7133-6.1747,2.7607a12.9058,12.9058,0,0,0-5.3662,3.8062,10.8521,10.8521,0,0,0,.3111,13.22c3.6782,4.5354,10.4008,4.32,15.6624,3.7071,1.9969-.2325,3.9751-.573,5.94-.9944l-1.8134-.738a1.8413,1.8413,0,0,1,.098.2283,4.4214,4.4214,0,0,0,.2394.5625c-.1074-.2542.1109.2637.1444.3438q.1353.3231.27.6464.3176.7628.6312,1.5273,1.9674,4.7934,3.8142,9.6352c3.807,9.951,7.3021,20.0288,10.3385,30.2425,1.9708,6.6293,3.74,13.3207,5.1887,20.0842a1.5533,1.5533,0,0,0,1.1216,1.1216c8.4047,1.1688,19.1906,2.2262,25.9277-4.1489,6.24-5.9048,6.6713-16.0178,6.8745-24.01.1918-7.5395-.1452-15.09-.4345-22.6223l-.7953,1.3866,27.888-12.6677c2.61-1.1854,5.2652-2.3026,7.8407-3.5616.1294-.0632.2627-.1193.3939-.1789,1.8791-.8536.2485-3.6223-1.621-2.7732L840.05,390.3372l-19.0962,8.6741a1.566,1.566,0,0,0-.7954,1.3866c.2507,6.5261.52,13.0585.4805,19.5907a77.2281,77.2281,0,0,1-1.0834,14.3681,28.2329,28.2329,0,0,1-1.58,5.4731,17.6682,17.6682,0,0,1-2.2106,3.7513,13.8064,13.8064,0,0,1-7.9479,4.5668c-5.1579,1.17-10.7532.658-15.9608-.0662l1.1216,1.1215c-4.352-20.3159-11.2523-40.1572-19.1-59.3714-.6372-1.56-1.28-3.1191-1.9487-4.666a1.6223,1.6223,0,0,0-1.8135-.7379,44.5808,44.5808,0,0,1-10.4519,1.15c-2.3064-.0578-4.8117-.2475-6.709-1.7065a7.602,7.602,0,0,1-1.264-10.4719,11.0539,11.0539,0,0,1,4.4989-2.907l6.0278-2.6951,20.8164-9.3069,22.2849-9.9635,8.0487-3.5986c1.298-.58,2.6773-1.0846,3.931-1.7575.0583-.0313.1221-.0546.1826-.0817,1.8834-.842.2518-3.61-1.621-2.7731Z"/><path class="cls-5" d="M813.8071,399.4033c1.555,8.5445-3.3283,27.0425-6.1658,41.1909s10.3689,18.8071,16.5939,5.46c6.9324-15.4574,4.5763-35.08,4.4908-44.6621-.0345-3.8617,5.383-6.6228,8.864-8.2951l12.8479-6.172"/><path d="M812.2587,399.83c.8328,4.7946-.1294,10.0272-.9257,14.76-1.076,6.3955-2.51,12.7252-3.8751,19.0633-1.11,5.1555-2.9441,10.8574-.8686,16.0091,1.4132,3.5077,4.6353,6.185,8.57,5.8995,4.6549-.3377,8.1388-4.0914,10.137-8.0287,2.922-5.7574,4.2173-12.3638,4.9166-18.7309a125.2459,125.2459,0,0,0,.4485-17.9834c-.0826-2.4025-.2033-4.8037-.28-7.2064a14.6227,14.6227,0,0,1-.0257-2.644,5.2177,5.2177,0,0,1,1.9736-2.8781c2.8339-2.4752,6.7046-3.9112,10.084-5.5347l8.8352-4.2443c1.8624-.8947.2352-3.6649-1.6209-2.7732-4.9363,2.3713-9.96,4.6125-14.8138,7.15a18.2532,18.2532,0,0,0-6.2328,4.7144c-1.5289,1.9993-1.4829,4.087-1.4025,6.4744.17,5.0543.4491,10.1019.3845,15.1614a80.6721,80.6721,0,0,1-2.016,18.1175c-1.1954,4.8987-2.9162,11.2371-7.4754,14.1168-2.6163,1.6525-5.7786,1.4414-7.65-1.1833-2.9014-4.0687-1.1422-9.6135-.203-14.0132,1.4651-6.8635,3.047-13.7093,4.2117-20.6325.9-5.3516,1.8658-11.056.9257-16.468-.3531-2.0325-3.4486-1.1709-3.0969.8538Z"/><path class="cls-5" d="M815.27,393.1336s5.9,31.2082-.9121,52.8277c-4.4133,13.3151-17.4225,10.3681-16.3026-3.3309s2.2816-34.31-.1344-42.2222"/><path d="M813.7217,393.5605a135.3377,135.3377,0,0,1,1.7467,13.7735c.8056,9.61.9659,19.4415-.5445,28.9913-.7048,4.4563-1.492,9.6146-4.1724,13.3677-1.6032,2.2447-4.3032,3.9639-6.9529,2.97-2.9417-1.1036-4.0636-4.73-4.189-7.6318a63.3029,63.3029,0,0,1,.4245-7.2361q.27-3.7392.4775-7.4825c.3153-5.7706.5259-11.5572.4025-17.3369-.0918-4.2987-.2076-8.8427-1.4445-12.9942-.5888-1.976-3.6894-1.1345-3.0969.8538,1.1427,3.8353,1.2358,7.9965,1.3258,11.9668.1235,5.4521-.0567,10.9107-.3372,16.3554q-.204,3.9594-.4871,7.914c-.1787,2.5266-.55,5.0977-.4872,7.6319.0947,3.8485,1.4,7.9429,4.7387,10.1713a8.2176,8.2176,0,0,0,9.187-.2928c3.8777-2.67,5.4806-7.2687,6.5574-11.6438,2.52-10.2365,2.726-21.0223,2.1044-31.4977a149.1115,149.1115,0,0,0-2.1559-18.7335c-.3823-2.0286-3.4782-1.17-3.0969.8538Z"/><path class="cls-5" d="M803.802,394.7409s6.9709,30.9866.9072,52.8278c-3.9523,13.4592-17.0552,10.9618-16.4076-2.7677s1.1619-37.45-1.525-45.2742"/><path d="M802.2536,395.1678a138.0712,138.0712,0,0,1,2.3735,14.9117c1.1286,10.1264,1.5666,20.5834-.0825,30.6772-.7007,4.2887-1.4913,9.3417-4.8313,12.4515-2.0477,1.9065-4.9137,2.2857-7.03.4152-3.0251-2.6738-2.8476-7.0751-2.6894-10.7406q.3139-7.27.4074-14.548c.065-5.6548.0337-11.32-.3044-16.9668-.2431-4.06-.4668-8.3823-1.7719-12.2681-.6547-1.9492-3.7576-1.1132-3.0969.8538,1.1853,3.5293,1.4079,7.4068,1.6376,11.0937.328,5.2661.3778,10.55.3379,15.8243-.0392,5.186-.1829,10.3715-.4017,15.553-.1882,4.4557-.1923,9.0716,2.8465,12.6734a8.1052,8.1052,0,0,0,9.1354,2.4191c4.23-1.6559,6.5625-6.0385,7.66-10.2107,2.7955-10.627,2.7461-21.9662,1.8253-32.8435a150.1324,150.1324,0,0,0-2.9187-20.149c-.4522-2.0158-3.5493-1.1627-3.0969.8538Z"/><path class="cls-5" d="M769.5478,380.0088s12.3156,44.5255,10.8946,67.2619c-1.9432,19.7648,22.9215,17.7756,11.4837-52.3431"/><path d="M767.9994,380.4357c2.4281,8.7852,4.4746,17.6942,6.2924,26.6233,1.5363,7.5464,2.89,15.1452,3.7713,22.7983.4131,3.587.7267,7.1893.8425,10.7991.0864,2.6923-.07,5.3478-.1647,8.0332-.14,3.9749,1.0886,10.9289,6.327,10.9821,2.3859.0242,4.2865-1.6453,5.6332-3.4507a26.2422,26.2422,0,0,0,4.0181-9.7232,80.3668,80.3668,0,0,0,1.8255-17.4237,183.2885,183.2885,0,0,0-1.8618-26.4394q-.5466-4.0755-1.2083-8.134c-.33-2.0349-3.4256-1.1714-3.0969.8538a215.774,215.774,0,0,1,2.8981,28.0147,97.4012,97.4012,0,0,1-.93,18.6043,47.6229,47.6229,0,0,1-1.4892,6.4968,20.3351,20.3351,0,0,1-1.8076,4.3863,16.75,16.75,0,0,1-1.0283,1.6194c-.27.3779.1418-.16-.09.1156-.0832.0988-.1646.1987-.25.2956-.19.2153-.3881.4233-.5981.6188-.12.1116-.7064.56-.245.229-.1865.1339-.376.2567-.57.3793-.2033.1285-.6908.2945-.2147.1314-.185.0634-.3766.1143-.56.179-.5.1763.1974.0555-.1544.03-.1749-.0127-.3614-.0072-.5376-.0115.4891.0121.1715.0286-.095-.0435-.086-.0232-.1684-.06-.2541-.0833-.2576-.0686.3663.2109.08.0313-.1445-.0906-.3026-.1826-.4525-.264-.333-.1809.1583.1458.0439.0412-.0726-.0665-.1526-.1247-.2224-.1945-.1375-.1375-.2668-.28-.4-.4211-.1715-.1811-.1181-.164.0286.0447-.071-.101-.1472-.1987-.2122-.3038-.1163-.188-.2319-.3744-.3357-.57-.1107-.2081-.355-.7885-.19-.37a11.783,11.783,0,0,1-.49-1.5255c-.0634-.2587-.118-.5195-.1656-.7816-.0248-.1363-.0457-.2731-.0681-.41-.0585-.3568.0355.2972.0061.0579-.0109-.09-.0234-.1792-.0318-.2691-.0623-.6712-.1045-1.34-.1028-2.0147.0057-2.2582.2412-4.5062.219-6.77-.0334-3.4229-.2737-6.8427-.6149-10.2478-.7539-7.5247-1.983-15.0018-3.4166-22.4244-1.9363-10.0259-4.2239-20.0039-6.8985-29.86q-.0657-.2423-.1322-.4843a1.6072,1.6072,0,0,0-3.0969.8538Z"/><path d="M664.2265,574.2672A196.8258,196.8258,0,0,1,679.7241,599.77a44.2152,44.2152,0,0,1,3.4079,8.5763c.51,2.0016,3.6081,1.1534,3.0969-.8538-1.5169-5.9567-4.7342-11.5683-7.7786-16.8542-2.9276-5.0831-6.0753-10.0413-9.3459-14.91-.6937-1.0326-1.3907-2.0635-2.1047-3.0822-1.1776-1.68-3.9632-.0768-2.7732,1.621Z"/><path d="M673.541,429.1265c-.4887,7.1337-.6393,14.306-.6074,21.4541.0274,6.1581.2259,12.3239.78,18.4587a79.522,79.522,0,0,0,2.8907,16.6485c1.228,3.914,3.2816,8.8626,7.6494,10.0753a1.6072,1.6072,0,0,0,.8538-3.0969c-.164-.0455-.3234-.098-.4836-.1551-.2265-.0809.3571.1725.0178.0085-.0681-.0329-.1393-.063-.2049-.1006-.1335-.0764-.2678-.1516-.4011-.2285-.2126-.1227-.4594-.3235-.3023-.1968a8.5248,8.5248,0,0,1-1.4145-1.4918,18.6424,18.6424,0,0,1-2.4452-5.1319,71.1705,71.1705,0,0,1-2.88-15.5956,251.2559,251.2559,0,0,1-.61-33.1917c.0929-2.4861.1992-4.9739.3692-7.4562.1413-2.0629-3.0709-2.0542-3.2116,0Z"/><path class="cls-4" d="M753.7324,867.8775H633.9793a33.6424,33.6424,0,0,1,2.359-12.7682h82.897a12.5073,12.5073,0,0,0,11.37-7.2962h0a12.5072,12.5072,0,0,1,11.37-7.2961h11.8451Z"/><path d="M753.7324,866.2717H638.8684a36.5009,36.5009,0,0,0-4.6914,0,1.5343,1.5343,0,0,1-.1977,0l1.6058,1.6058a30.99,30.99,0,0,1,2.3017-12.3413l-1.5485,1.1789h80.28a23.9645,23.9645,0,0,0,6.2545-.476,14.1955,14.1955,0,0,0,8.7956-6.9607,14.9422,14.9422,0,0,1,3.0116-4.3577,10.8957,10.8957,0,0,1,4.8574-2.5233,24.776,24.776,0,0,1,5.62-.2746h8.6634l-1.6058-1.6058-.0771,23.9358-.0111,3.4247a1.6068,1.6068,0,0,0,3.2117,0l.0771-23.9358.0111-3.4247a1.6288,1.6288,0,0,0-1.6059-1.6058c-3.7958,0-7.5917-.0069-11.3875,0a14.1745,14.1745,0,0,0-12.3412,6.5015c-.9819,1.5162-1.5576,3.1958-2.8078,4.5447-2.5327,2.7324-5.8313,3.546-9.3883,3.546H652.9185c-5.432,0-10.8992-.1815-16.329,0-.0835.0028-.1676,0-.2512,0a1.66,1.66,0,0,0-1.5485,1.179,33.3,33.3,0,0,0-2.4163,13.1951,1.6361,1.6361,0,0,0,1.6058,1.6058H739.0108c4.8263,0,9.7005.1993,14.5239,0,.0656-.0027.1319,0,.1977,0A1.6068,1.6068,0,0,0,753.7324,866.2717Z"/><line x1="816.4028" y1="341.4354" x2="769.2986" y2="351.6056"/><path d="M815.9759,339.887l-15.8821,3.4291L774.7416,348.79l-5.87,1.2674c-2.0193.436-1.1648,3.5327.8537,3.0969l15.8821-3.4291,25.3522-5.4738,5.87-1.2673c2.0192-.436,1.1647-3.5328-.8538-3.0969Z"/><path d="M685.7718,827.0425c.1674.0884.3279.192.4855.2965.18.1192.3474.2582.5277.3758-.08-.0522-.3371-.2679-.1361-.1042.0493.04.0992.08.1482.12q.1851.1524.3636.3127.3588.3222.6892.6745.1879.2.3658.41c.0568.0671.1115.1359.168.2032.1633.1945-.2092-.2872-.0019-.0035a11.0327,11.0327,0,0,1,.6821,1.0416q.1637.2869.308.5844c.0455.0941.088.19.132.2843.0234.05.0624.2082.0027.0033-.0658-.2257.0016.0081.02.057a10.4335,10.4335,0,0,1,.4573,1.5726c.0275.1371.0471.2756.0733.4128.0362.19-.022-.124-.0148-.1243.0038,0,.0257.2277.0277.247.0341.3427.0484.6863.0505,1.0307a1.6059,1.6059,0,0,0,3.2117,0,11.9658,11.9658,0,0,0-5.2683-9.7448,6.4414,6.4414,0,0,0-.6709-.4228,1.6061,1.6061,0,0,0-1.621,2.7732Z"/><path d="M677.8676,831.2986c.1675.0884.3279.1919.4855.2964.18.1193.3474.2583.5278.3758-.08-.0521-.3372-.2678-.1361-.1041.0493.04.0991.0795.1482.12q.1851.1526.3635.3128.359.3222.6892.6744.188.2006.3658.41c.0569.067.1115.1359.1681.2032.1632.1945-.2093-.2872-.002-.0035a11.0254,11.0254,0,0,1,.6822,1.0415q.1637.2871.3079.5845c.0456.094.0881.1894.1321.2843.0234.05.0624.2082.0027.0033-.0658-.2258.0015.0081.02.0569a10.4265,10.4265,0,0,1,.4573,1.5727c.0275.1371.0471.2755.0733.4128.0362.19-.0219-.124-.0147-.1243.0037,0,.0257.2276.0276.247.0341.3427.0485.6863.0506,1.0306a1.6058,1.6058,0,1,0,3.2116,0,11.9659,11.9659,0,0,0-5.2682-9.7448,6.4587,6.4587,0,0,0-.671-.4227,1.6061,1.6061,0,0,0-1.621,2.7732Z"/><path d="M668.7475,833.1226c.1674.0884.3278.192.4855.2965.18.1192.3474.2582.5277.3758-.08-.0522-.3372-.2679-.1361-.1042.0493.04.0991.08.1482.12q.1851.1524.3635.3127.3589.3224.6893.6745.188.2.3658.41c.0568.0671.1115.1359.168.2032.1633.1945-.2092-.2872-.0019-.0035a11.0327,11.0327,0,0,1,.6821,1.0416q.1637.2869.3079.5844c.0456.0941.0881.19.1321.2843.0234.05.0624.2082.0027.0034-.0658-.2258.0015.008.02.0569a10.4339,10.4339,0,0,1,.4574,1.5726c.0274.1371.047.2756.0732.4128.0362.19-.0219-.124-.0147-.1243.0038,0,.0257.2277.0276.247.0341.3427.0485.6864.0506,1.0307a1.6058,1.6058,0,1,0,3.2116,0,11.9655,11.9655,0,0,0-5.2682-9.7448,6.4511,6.4511,0,0,0-.6709-.4227,1.6061,1.6061,0,1,0-1.621,2.7731Z"/><path d="M777.6861,801.5665c.0689-.04.14-.0758.2108-.1116.0749-.0377.1507-.0738.2269-.1089.0571-.0264.1154-.0507.1724-.0774.2246-.1051-.3344.1306-.1494.0635a13.1654,13.1654,0,0,1,2.1105-.6134c.1029-.0189.2078-.0308.31-.0522.193-.04-.292.0277.0256-.0024.25-.0237.5-.0455.7521-.0544a8.9991,8.9991,0,0,1,1.5514.0681c-.325-.0452.1809.0393.1967.0423.1331.0258.2654.0551.3972.0867q.4511.1085.89.2608c.0454.0158.3816.14.3014.1082-.0743-.03.2574.1157.305.1385a11.091,11.091,0,0,1,1.0019.553,1.6061,1.6061,0,0,0,1.621-2.7732,11.5811,11.5811,0,0,0-11.5442-.3007,1.606,1.606,0,0,0,1.6209,2.7731Z"/><path d="M777.1062,810.305c.0688-.04.14-.0759.2108-.1116.0749-.0378.1507-.0738.2268-.109.0572-.0264.1154-.0506.1724-.0773.2246-.1052-.3343.13-.1494.0635a13.1639,13.1639,0,0,1,2.1106-.6135c.1029-.0189.2078-.0307.31-.0522.193-.04-.292.0277.0256-.0024.25-.0237.5-.0455.752-.0543a9.01,9.01,0,0,1,1.5515.068c-.3251-.0452.1809.0393.1967.0424.133.0258.2654.055.3971.0866q.4511.1084.89.2608c.0454.0158.3816.14.3014.1082-.0743-.03.2573.1157.305.1386a11.09,11.09,0,0,1,1.0019.5529,1.6061,1.6061,0,0,0,1.6209-2.7732,11.5811,11.5811,0,0,0-11.5442-.3007,1.6061,1.6061,0,0,0,1.621,2.7732Z"/><path d="M773.886,818.7876c.0689-.04.14-.0758.2108-.1116.0749-.0377.1507-.0738.2269-.1089.0571-.0264.1154-.0507.1724-.0773.2246-.1052-.3344.1305-.1494.0634a13.1727,13.1727,0,0,1,2.11-.6134c.1029-.0189.2078-.0308.31-.0522.193-.04-.292.0277.0256-.0024.25-.0237.5-.0455.752-.0543a9,9,0,0,1,1.5515.068c-.325-.0452.1809.0393.1967.0423.1331.0258.2654.0551.3972.0867q.4509.1084.89.2608c.0454.0158.3816.14.3014.1082-.0743-.0295.2574.1157.305.1385a11.091,11.091,0,0,1,1.0019.553,1.6061,1.6061,0,0,0,1.621-2.7732,11.5813,11.5813,0,0,0-11.5443-.3007,1.6061,1.6061,0,0,0,1.621,2.7731Z"/><path class="cls-5" d="M709.6156,305.3044h0a33.7891,33.7891,0,0,1-33.7892-33.7891v-6.3564h67.5784v6.3564A33.7892,33.7892,0,0,1,709.6156,305.3044Z"/><path d="M709.6156,303.6986a32.1839,32.1839,0,0,1-32.1611-30.9563c-.09-2.5238-.0223-5.0585-.0223-7.5834l-1.6058,1.6058h67.5784l-1.6059-1.6058c0,2.1086.0082,4.2174,0,6.326a32.931,32.931,0,0,1-2.2541,11.911,32.1518,32.1518,0,0,1-29.9292,20.3027,1.6068,1.6068,0,0,0,0,3.2116,35.3926,35.3926,0,0,0,35.331-33.298c.1733-2.8067.064-5.6429.064-8.4533a1.6292,1.6292,0,0,0-1.6058-1.6059H675.8264a1.6292,1.6292,0,0,0-1.6058,1.6059c0,2.2357-.0224,4.4725.0018,6.7081A35.3954,35.3954,0,0,0,709.6156,306.91,1.6068,1.6068,0,0,0,709.6156,303.6986Z"/><rect class="cls-1" x="25" y="499.4396" width="138.3383" height="323.4749"/><path d="M163.3383,821.3087H30.63a34.0049,34.0049,0,0,0-5.3916,0,1.5046,1.5046,0,0,1-.2383,0l1.6058,1.6058V512.5536c0-4.151.29-8.4208,0-12.5647-.0126-.1812,0-.3674,0-.5493L25,501.0454H157.7084a34.0062,34.0062,0,0,0,5.3917,0,1.5034,1.5034,0,0,1,.2382,0l-1.6058-1.6058V809.8c0,4.1855-.08,8.38,0,12.5648.0035.1829,0,.3663,0,.5493a1.6068,1.6068,0,0,0,3.2116,0V512.5536c0-4.1854.08-8.38,0-12.5647-.0035-.183,0-.3663,0-.5493a1.6291,1.6291,0,0,0-1.6058-1.6058H42.0875c-5.5976,0-11.2553-.24-16.8492,0-.0792.0034-.1591,0-.2383,0a1.6291,1.6291,0,0,0-1.6058,1.6058V809.8c0,4.1855-.08,8.38,0,12.5648.0035.1829,0,.3663,0,.5493A1.6291,1.6291,0,0,0,25,824.52H146.2509c5.5976,0,11.2552.24,16.8492,0,.0791-.0034.159,0,.2382,0A1.6068,1.6068,0,0,0,163.3383,821.3087Z"/><path class="cls-1" d="M163.3383,499.44H25V458.659A69.1692,69.1692,0,0,1,94.1691,389.49h0a69.1691,69.1691,0,0,1,69.1691,69.1691Z"/><path d="M163.3383,497.8338H30.6339a49.1551,49.1551,0,0,0-5.3974,0,2.17,2.17,0,0,1-.2365,0l1.6058,1.6058V459.8013a69.45,69.45,0,0,1,6.0519-29.15,67.5727,67.5727,0,0,1,129.0691,27.1278c.0734,5.8874.0057,11.7794.0057,17.6671V499.44a1.6068,1.6068,0,0,0,3.2116,0V459.43a72.4263,72.4263,0,0,0-6.9108-31.2988,70.7771,70.7771,0,0,0-134.59,27.8951c-.2326,6.2157-.0494,12.4655-.0494,18.6835v24.73A1.6291,1.6291,0,0,0,25,501.0454H146.338c5.5748,0,11.1914.2,16.7638,0,.0786-.0028.1578,0,.2365,0A1.6068,1.6068,0,0,0,163.3383,497.8338Z"/><path class="cls-1" d="M144.6338,484.5734H43.7046V454.8206a50.4645,50.4645,0,0,1,50.4645-50.4645h0a50.4646,50.4646,0,0,1,50.4646,50.4645Z"/><path d="M144.6338,482.9676H47.852a31.54,31.54,0,0,0-3.9767,0,1.35,1.35,0,0,1-.1707,0l1.6058,1.6058V455.7089a50.267,50.267,0,0,1,4.3138-21.0106,48.8677,48.8677,0,0,1,93.4025,19.77c.0718,9.69.0012,19.3835.0012,29.074v1.0313a1.6068,1.6068,0,0,0,3.2117,0V455.3382A52.0805,52.0805,0,0,0,70.49,408.4363a52.5035,52.5035,0,0,0-28.3483,44.278c-.1848,4.5373-.0432,9.1031-.0432,13.6424v18.2167a1.6293,1.6293,0,0,0,1.6059,1.6059h88.4785c4.08,0,8.2027.1739,12.28,0,.0567-.0025.114,0,.1708,0A1.6068,1.6068,0,0,0,144.6338,482.9676Z"/><rect class="cls-2" x="163.3383" y="499.4396" width="169.8813" height="323.4749"/><path d="M333.22,821.3087H170.2881a46.082,46.082,0,0,0-6.6583,0,2.0257,2.0257,0,0,1-.2915,0l1.6058,1.6058V512.5536c0-4.151.29-8.4208,0-12.5647-.0126-.1812,0-.3674,0-.5493l-1.6058,1.6058H326.27a46.0806,46.0806,0,0,0,6.6582,0,2.0271,2.0271,0,0,1,.2916,0l-1.6059-1.6058V809.8c0,4.1855-.08,8.38,0,12.5648.0035.1829,0,.3663,0,.5493a1.6068,1.6068,0,0,0,3.2117,0V512.5536c0-4.1854.08-8.38,0-12.5647-.0035-.183,0-.3663,0-.5493a1.6291,1.6291,0,0,0-1.6058-1.6058H184.3074c-6.8741,0-13.807-.2636-20.6776,0-.0968.0037-.1945,0-.2915,0a1.6291,1.6291,0,0,0-1.6058,1.6058V809.8c0,4.1855-.08,8.38,0,12.5648.0035.1829,0,.3663,0,.5493a1.6291,1.6291,0,0,0,1.6058,1.6058H312.2505c6.8741,0,13.807.2636,20.6775,0,.0969-.0037.1946,0,.2916,0A1.6068,1.6068,0,0,0,333.22,821.3087Z"/><rect class="cls-2" x="197.1343" y="554.8651" width="111.7521" height="199.1711"/><path d="M308.8864,752.43H201.7332a36.21,36.21,0,0,0-4.4113,0,1.545,1.545,0,0,1-.1876,0l1.6058,1.6058V562.9378c0-2.5512.1984-5.193,0-7.7387-.0085-.11,0-.2236,0-.334l-1.6058,1.6058H304.2876a36.2306,36.2306,0,0,0,4.4113,0,1.5434,1.5434,0,0,1,.1875,0l-1.6058-1.6058V745.9635c0,2.5765-.0657,5.1628,0,7.7387.0029.1112,0,.2227,0,.334a1.6068,1.6068,0,0,0,3.2117,0V562.9378c0-2.5765.0656-5.1628,0-7.7387-.0029-.1112,0-.2228,0-.334a1.6293,1.6293,0,0,0-1.6059-1.6059H210.8747c-4.5039,0-9.0515-.1837-13.5528,0-.0623.0026-.1252,0-.1876,0a1.6292,1.6292,0,0,0-1.6058,1.6059V745.9635c0,2.5765-.0657,5.1628,0,7.7387.0028.1112,0,.2227,0,.334a1.6291,1.6291,0,0,0,1.6058,1.6058h98.0118c4.5039,0,9.0514.1837,13.5528,0,.0623-.0025.1252,0,.1875,0A1.6068,1.6068,0,0,0,308.8864,752.43Z"/><circle cx="208.8667" cy="567.3211" r="2.6764"/><path d="M209.9372,567.3211a3.3518,3.3518,0,0,1-.0253.3692l.0574-.4269a2.927,2.927,0,0,1-.192.6888l.1619-.3836a2.8552,2.8552,0,0,1-.235.4311c-.0929.1386-.2141.1811.0838-.1016-.0583.0553-.1073.1227-.1645.18a1.3018,1.3018,0,0,1-.18.1646c.0046.0031.389-.2766.1017-.0838a2.8684,2.8684,0,0,1-.4311.2349l.3836-.1619a2.932,2.932,0,0,1-.6888.1921l.4269-.0574a2.9715,2.9715,0,0,1-.7384,0l.4268.0574a2.9333,2.9333,0,0,1-.6888-.1921l.3836.1619a2.8733,2.8733,0,0,1-.4311-.2349c-.1385-.093-.1811-.2142.1017.0838-.0554-.0583-.1227-.1074-.18-.1646a1.306,1.306,0,0,1-.1645-.18c-.0031.0046.2765.389.0838.1016a2.8641,2.8641,0,0,1-.235-.4311l.1619.3836a2.927,2.927,0,0,1-.192-.6888l.0574.4269a2.9715,2.9715,0,0,1,0-.7384l-.0574.4269a2.927,2.927,0,0,1,.192-.6888l-.1619.3836a2.8641,2.8641,0,0,1,.235-.4311c.0929-.1386.2142-.1812-.0838.1016.0583-.0553.1074-.1227.1645-.18a1.3018,1.3018,0,0,1,.18-.1646c-.0046-.0031-.389.2765-.1017.0838a2.8733,2.8733,0,0,1,.4311-.2349l-.3836.1619a2.932,2.932,0,0,1,.6888-.1921l-.4268.0574a2.9715,2.9715,0,0,1,.7384,0l-.4269-.0574a2.932,2.932,0,0,1,.6888.1921l-.3836-.1619a2.8684,2.8684,0,0,1,.4311.2349c.1386.093.1811.2142-.1017-.0838.0554.0583.1227.1074.18.1646a1.306,1.306,0,0,1,.1645.18c.0031-.0046-.2765-.389-.0838-.1016a2.8552,2.8552,0,0,1,.235.4311l-.1619-.3836a2.927,2.927,0,0,1,.192.6888l-.0574-.4269a3.3518,3.3518,0,0,1,.0253.3692,1.6058,1.6058,0,0,0,3.2116,0,4.361,4.361,0,0,0-2.8957-4.0474,4.26,4.26,0,0,0-4.6008,1.2265,4.556,4.556,0,0,0-1.0551,2.5611,4.2488,4.2488,0,0,0,2.3687,4.0911,4.56,4.56,0,0,0,2.8047.3509,4.3131,4.3131,0,0,0,3.3782-4.1822,1.6058,1.6058,0,1,0-3.2116,0Z"/><circle cx="298.7927" cy="567.3211" r="2.6764"/><path d="M299.8633,567.3211a3.3518,3.3518,0,0,1-.0253.3692l.0574-.4269a2.9366,2.9366,0,0,1-.192.6888l.1618-.3836A2.8635,2.8635,0,0,1,299.63,568c-.0929.1386-.2142.1811.0838-.1016-.0583.0553-.1074.1227-.1646.18a1.3073,1.3073,0,0,1-.18.1646c.0046.0031.389-.2766.1017-.0838a2.8694,2.8694,0,0,1-.4312.2349l.3836-.1619a2.932,2.932,0,0,1-.6888.1921l.4269-.0574a2.9715,2.9715,0,0,1-.7384,0l.4269.0574a2.932,2.932,0,0,1-.6888-.1921l.3836.1619a2.8684,2.8684,0,0,1-.4311-.2349c-.1386-.093-.1811-.2142.1016.0838-.0553-.0583-.1227-.1074-.18-.1646a1.3073,1.3073,0,0,1-.1646-.18c-.003.0046.2766.389.0838.1016a2.8635,2.8635,0,0,1-.2349-.4311l.1619.3836a2.927,2.927,0,0,1-.192-.6888l.0573.4269a2.9763,2.9763,0,0,1,0-.7384l-.0573.4269a2.927,2.927,0,0,1,.192-.6888l-.1619.3836a2.8635,2.8635,0,0,1,.2349-.4311c.093-.1386.2142-.1812-.0838.1016.0583-.0553.1074-.1227.1646-.18a1.3073,1.3073,0,0,1,.18-.1646c-.0045-.0031-.389.2765-.1016.0838a2.8684,2.8684,0,0,1,.4311-.2349l-.3836.1619a2.932,2.932,0,0,1,.6888-.1921l-.4269.0574a2.9715,2.9715,0,0,1,.7384,0l-.4269-.0574a2.932,2.932,0,0,1,.6888.1921l-.3836-.1619a2.8694,2.8694,0,0,1,.4312.2349c.1385.093.1811.2142-.1017-.0838.0553.0583.1227.1074.18.1646a1.3073,1.3073,0,0,1,.1646.18c.0031-.0046-.2765-.389-.0838-.1016a2.8635,2.8635,0,0,1,.2349.4311l-.1618-.3836a2.9366,2.9366,0,0,1,.192.6888l-.0574-.4269a3.3518,3.3518,0,0,1,.0253.3692,1.6058,1.6058,0,0,0,3.2116,0,4.3612,4.3612,0,0,0-2.8957-4.0474,4.26,4.26,0,0,0-4.6008,1.2265,4.5561,4.5561,0,0,0-1.0552,2.5611,4.2491,4.2491,0,0,0,2.3688,4.0911,4.56,4.56,0,0,0,2.8046.3509,4.3132,4.3132,0,0,0,3.3783-4.1822,1.6058,1.6058,0,1,0-3.2116,0Z"/><circle cx="208.8667" cy="737.5383" r="2.6764"/><path d="M209.9372,737.5383a3.3518,3.3518,0,0,1-.0253.3692l.0574-.4269a2.927,2.927,0,0,1-.192.6888l.1619-.3836a2.86,2.86,0,0,1-.235.4311c-.0929.1386-.2141.1811.0838-.1016-.0583.0553-.1073.1226-.1645.18a1.3018,1.3018,0,0,1-.18.1646c.0046.003.389-.2766.1017-.0838a2.8684,2.8684,0,0,1-.4311.2349l.3836-.1619a2.927,2.927,0,0,1-.6888.192l.4269-.0573a2.9812,2.9812,0,0,1-.7384,0l.4268.0573a2.9283,2.9283,0,0,1-.6888-.192l.3836.1619a2.8733,2.8733,0,0,1-.4311-.2349c-.1385-.093-.1811-.2142.1017.0838-.0554-.0584-.1227-.1074-.18-.1646a1.306,1.306,0,0,1-.1645-.18c-.0031.0045.2765.3889.0838.1016a2.869,2.869,0,0,1-.235-.4311l.1619.3836a2.927,2.927,0,0,1-.192-.6888l.0574.4269a2.9715,2.9715,0,0,1,0-.7384l-.0574.4269a2.9278,2.9278,0,0,1,.192-.6889l-.1619.3836a2.8738,2.8738,0,0,1,.235-.4311c.0929-.1385.2142-.1811-.0838.1017.0583-.0554.1074-.1227.1645-.18a1.3006,1.3006,0,0,1,.18-.1645c-.0046-.0031-.389.2765-.1017.0838a2.8738,2.8738,0,0,1,.4311-.235l-.3836.1619a2.927,2.927,0,0,1,.6888-.192l-.4268.0574a2.9715,2.9715,0,0,1,.7384,0l-.4269-.0574a2.927,2.927,0,0,1,.6888.192l-.3836-.1619a2.8779,2.8779,0,0,1,.4311.235c.1386.0929.1811.2142-.1017-.0838.0554.0583.1227.1074.18.1645a1.3006,1.3006,0,0,1,.1645.18c.0031-.0046-.2765-.389-.0838-.1017a2.8649,2.8649,0,0,1,.235.4311l-.1619-.3836a2.9278,2.9278,0,0,1,.192.6889l-.0574-.4269a3.3518,3.3518,0,0,1,.0253.3692,1.6058,1.6058,0,1,0,3.2116,0,4.3608,4.3608,0,0,0-2.8957-4.0474,4.26,4.26,0,0,0-4.6008,1.2265,4.556,4.556,0,0,0-1.0551,2.561,4.2488,4.2488,0,0,0,2.3687,4.0912,4.5619,4.5619,0,0,0,2.8047.3509,4.3132,4.3132,0,0,0,3.3782-4.1822,1.6058,1.6058,0,1,0-3.2116,0Z"/><circle cx="298.7927" cy="737.5383" r="2.6764"/><path d="M299.8633,737.5383a3.3518,3.3518,0,0,1-.0253.3692l.0574-.4269a2.9366,2.9366,0,0,1-.192.6888l.1618-.3836a2.8684,2.8684,0,0,1-.2349.4311c-.0929.1386-.2142.1811.0838-.1016-.0583.0553-.1074.1226-.1646.18a1.3073,1.3073,0,0,1-.18.1646c.0046.003.389-.2766.1017-.0838a2.8694,2.8694,0,0,1-.4312.2349l.3836-.1619a2.927,2.927,0,0,1-.6888.192l.4269-.0573a2.9812,2.9812,0,0,1-.7384,0l.4269.0573a2.927,2.927,0,0,1-.6888-.192l.3836.1619a2.8684,2.8684,0,0,1-.4311-.2349c-.1386-.093-.1811-.2142.1016.0838-.0553-.0584-.1227-.1074-.18-.1646a1.3073,1.3073,0,0,1-.1646-.18c-.003.0045.2766.3889.0838.1016a2.8684,2.8684,0,0,1-.2349-.4311l.1619.3836a2.927,2.927,0,0,1-.192-.6888l.0573.4269a2.9763,2.9763,0,0,1,0-.7384l-.0573.4269a2.9278,2.9278,0,0,1,.192-.6889l-.1619.3836a2.8733,2.8733,0,0,1,.2349-.4311c.093-.1385.2142-.1811-.0838.1017.0583-.0554.1074-.1227.1646-.18a1.306,1.306,0,0,1,.18-.1645c-.0045-.0031-.389.2765-.1016.0838a2.869,2.869,0,0,1,.4311-.235l-.3836.1619a2.927,2.927,0,0,1,.6888-.192l-.4269.0574a2.9715,2.9715,0,0,1,.7384,0l-.4269-.0574a2.927,2.927,0,0,1,.6888.192l-.3836-.1619a2.879,2.879,0,0,1,.4312.235c.1385.0929.1811.2142-.1017-.0838.0553.0583.1227.1074.18.1645a1.3018,1.3018,0,0,1,.1646.18c.0031-.0046-.2765-.389-.0838-.1017a2.8733,2.8733,0,0,1,.2349.4311l-.1618-.3836a2.9374,2.9374,0,0,1,.192.6889l-.0574-.4269a3.3518,3.3518,0,0,1,.0253.3692,1.6058,1.6058,0,1,0,3.2116,0,4.361,4.361,0,0,0-2.8957-4.0474,4.26,4.26,0,0,0-4.6008,1.2265,4.5561,4.5561,0,0,0-1.0552,2.561,4.2491,4.2491,0,0,0,2.3688,4.0912,4.5616,4.5616,0,0,0,2.8046.3509,4.3133,4.3133,0,0,0,3.3783-4.1822,1.6058,1.6058,0,1,0-3.2116,0Z"/><path d="M41.3259,793.2068H130.06c4.0926,0,8.2268.171,12.3169,0,.06-.0026.1213,0,.1818,0a1.6068,1.6068,0,0,0,0-3.2117H53.8246c-4.0927,0-8.2268-.171-12.3169,0-.06.0026-.1214,0-.1818,0a1.6068,1.6068,0,0,0,0,3.2117Z"/><path d="M41.3259,777.1486H130.06c4.0926,0,8.2268.171,12.3169,0,.06-.0026.1213,0,.1818,0a1.6068,1.6068,0,0,0,0-3.2117H53.8246c-4.0927,0-8.2268-.171-12.3169,0-.06.0025-.1214,0-.1818,0a1.6068,1.6068,0,0,0,0,3.2117Z"/><path d="M41.3259,761.09H130.06c4.0926,0,8.2268.171,12.3169,0,.06-.0025.1213,0,.1818,0a1.6068,1.6068,0,0,0,0-3.2116H53.8246c-4.0927,0-8.2268-.171-12.3169,0-.06.0025-.1214,0-.1818,0a1.6068,1.6068,0,0,0,0,3.2116Z"/><path d="M343.7557,738.3412c4.9289-.4278,9.5026,3.8976,11.8975,7.7889a35.1126,35.1126,0,0,1,3.9218,9.8209.8067.8067,0,0,0,1.5771-.2134c.6171-12.2556,2.374-24.58,6.2374-36.26,2.3588-7.1319,5.5243-14.725,10.8434-20.2a12.4948,12.4948,0,0,1,5.4341-3.6229,4.72,4.72,0,0,1,4.3252.8381,10.8109,10.8109,0,0,1,3.1419,5.6153,38.0926,38.0926,0,0,1,1.1118,10.6892c-.1552,12.4583-3.2288,24.8988-6.7464,36.7768q-.8841,2.9856-1.8372,5.95a.8093.8093,0,0,0,1.342.7812,85.8908,85.8908,0,0,1,18.9591-13.59c4.8909-2.5309,10.3194-4.7582,15.8653-5.2017,2.8421-.2274,7.0446-.07,8.3984,2.9919,1.6354,3.6989-1.3808,8.4918-3.3285,11.4278-5.9559,8.9783-14.5477,16.303-22.83,23.0418-.5543.451-.084,1.3792.5678,1.3706a65.9868,65.9868,0,0,1,17.3769,1.9018,34.78,34.78,0,0,1,12.119,5.3774c2.3626,1.7562,4.642,4.2153,5.0631,7.2467.4355,3.1357-1.4046,5.9152-3.6128,7.9489-4.556,4.1959-10.8735,6.3816-16.7073,8.0645-.7044.2033-.8225,1.42,0,1.5485,6.0807.9518,12.9629,3.1266,16.0648,8.93a15.21,15.21,0,0,1,1.149,10.3,14.1507,14.1507,0,0,1-.6458,2.2639c-.2981.75.83,1.3575,1.342.7812a16.9506,16.9506,0,0,1,11.03-5.4153c6.1311-.4326,14.2728,3.307,15.8766,9.7449a7.6209,7.6209,0,0,1,.121,3.4536.8136.8136,0,0,0,1.1794.9068c.04-.0178.08-.0385.1213-.0526-.25.0854.15-.061.25-.1.4675-.1819.9375-.3558,1.4128-.5163a29.4637,29.4637,0,0,1,4.5029-1.1485c3.5493-.6,7.7826-.4663,10.37,2.3936,2.0251,2.238,2.4554,5.468,2.4745,8.3655a.8034.8034,0,0,0,1.6058,0c-.0339-5.1533-1.7864-10.4525-7.1548-12.0963-3.7287-1.1416-7.9156-.42-11.5566.72a26.171,26.171,0,0,0-2.8372,1.0483l1.1795.9067c.9881-3.7949-1.1817-7.9132-3.95-10.36a18.33,18.33,0,0,0-21.1927-2.5235,18.0515,18.0515,0,0,0-4.5689,3.5379l1.342.7812a17.8024,17.8024,0,0,0,1.0927-6.986,15.182,15.182,0,0,0-6.5651-12.1009c-3.5747-2.5185-7.95-3.7144-12.2172-4.3823v1.5485c5.7083-1.6467,11.59-3.7766,16.2913-7.5181,2.72-2.1653,5.1173-5.1659,5.2619-8.78.3217-8.0405-9.4206-12.65-15.7624-14.6729a64.6472,64.6472,0,0,0-20.4566-2.7226l.5677,1.3707c7.9987-6.5078,16.0348-13.509,22.089-21.9319,2.5665-3.5707,5.9233-8.7247,4.7206-13.3914-.9322-3.617-4.7128-4.8431-8.0649-4.94-5.5051-.16-11.0548,1.8457-15.9821,4.1074A84.5243,84.5243,0,0,0,383.8688,755.17l1.342.7812c4.1873-13.08,7.8732-26.725,8.5574-40.5113a48.0822,48.0822,0,0,0-.6988-12.1575,15.4962,15.4962,0,0,0-3.1414-7.1415c-3.112-3.5433-7.6393-2.35-10.919.26-5.6888,4.5271-9.1137,11.8515-11.6709,18.4648-4.3423,11.23-6.4545,23.2962-7.4264,35.2573q-.2278,2.8041-.3654,5.6143l1.5772-.2135c-2.0009-7.8587-6.6162-17.4166-15.6364-18.6865a7.75,7.75,0,0,0-1.7314-.1022c-1.0217.0886-1.0311,1.6953,0,1.6058Z"/><path d="M348.8122,807.8726a43.3815,43.3815,0,0,1,2.1681-5.5355c1.472-3.1645,3.3-6.5536,6.0917-8.7515,2.5352-1.9961,6.5155-2.2221,8.3223.9056,1.72,2.9771.7235,7.1245-.17,10.2019a41.5957,41.5957,0,0,1-2.8923,7.3783c-.2837.5525.2053,1.4656.9067,1.1795,3.8387-1.5661,8.7486-2.39,12.71-.91,1.8478.69,3.5491,1.8869,2.45,3.9478a13.5052,13.5052,0,0,1-4.0417,4.111,31.3889,31.3889,0,0,1-3.1735,2.09.8118.8118,0,0,0,0,1.3866,10.947,10.947,0,0,1,2.7834,2.6586,5.5944,5.5944,0,0,1,.14,6.9484c-.5913.85.8,1.654,1.3866.8105,3.004-4.32.5024-9.2044-3.5-11.8041v1.3866c2.8791-1.6338,6.3527-3.9131,7.8793-6.9447a3.6748,3.6748,0,0,0-1.07-4.8777c-2.6259-1.9644-6.2558-2.2642-9.411-1.9264a24.43,24.43,0,0,0-6.5811,1.5758l.9067,1.1795a44.36,44.36,0,0,0,2.8456-7.0686c1.1105-3.5732,2.1378-8.0207.4923-11.5918a6.807,6.807,0,0,0-8.9227-3.15c-3.5135,1.5542-5.855,5.24-7.5778,8.5092a45.9056,45.9056,0,0,0-3.2926,7.8646c-.3039.99,1.2456,1.4135,1.5485.4269Z"/><path d="M178.3745,294.5032l17.4629,3.3411,2.5221.4826c2.02.3864,2.8848-2.7084.8538-3.097L181.75,291.8888l-2.5221-.4825c-2.02-.3864-2.8848,2.7083-.8538,3.0969Z"/><path d="M189.2389,333.0468l14.7127-10.0737,2.0764-1.4218c1.6951-1.1606.0905-3.9449-1.621-2.7731l-14.7126,10.0737-2.0764,1.4217c-1.6951,1.1606-.09,3.945,1.6209,2.7732Z"/><path d="M197.4478,263.9218l10.5534,14.3862,1.482,2.02a1.654,1.654,0,0,0,2.1971.5761,1.618,1.618,0,0,0,.5761-2.1971L201.703,264.321l-1.482-2.02a1.654,1.654,0,0,0-2.1971-.5761,1.618,1.618,0,0,0-.5761,2.1971Z"/><path class="cls-5" d="M731.85,272.1174V248.6713c4.3343-1.9535,7.5872-4.545,9.062-7.7534,7.2654-15.8075,0-73.5253,0-73.5253H672.9583s-10.2573,56.8872,0,73.5253c3.4753,5.6376,11.565,9.267,21.0229,10.99v20.2092"/><path d="M733.4556,272.1174V248.6713l-.7953,1.3865c4.0221-1.8447,7.998-4.559,9.8217-8.745a30.256,30.256,0,0,0,1.9324-6.8812,111.23,111.23,0,0,0,1.331-18.856,378.7191,378.7191,0,0,0-2.2545-39.3975c-.2967-2.931-.6058-5.8623-.9733-8.7855a1.6473,1.6473,0,0,0-1.6058-1.6058H672.9583a1.6225,1.6225,0,0,0-1.5485,1.1789c-1.6677,9.2607-2.8247,18.6472-3.6578,28.0162a202.0931,202.0931,0,0,0-.9087,23.2977c.1752,6.53.6179,13.4471,2.9228,19.6238a19.3145,19.3145,0,0,0,7.1828,9.3086c4.8563,3.4179,10.8306,5.1727,16.6054,6.2447l-1.179-1.5485v20.2092a1.6068,1.6068,0,0,0,3.2117,0V251.9082a1.6232,1.6232,0,0,0-1.1789-1.5484c-8.0055-1.486-17.8958-4.5066-21.2648-12.5925-2.35-5.64-2.8159-12.0812-3.0442-18.116-.5318-14.06.9169-28.2379,2.8885-42.145.4586-3.235.94-6.4707,1.5191-9.6868l-1.5484,1.1789h67.9535l-1.6059-1.6058c.9784,7.7818,1.6824,15.6071,2.2494,23.4283.502,6.9262.8638,13.8664.9576,20.8109a139.7233,139.7233,0,0,1-.8018,19.3425,39.43,39.43,0,0,1-1.6509,7.747,10.6364,10.6364,0,0,1-2.3256,4.0631,20.5463,20.5463,0,0,1-6.6953,4.5,1.58,1.58,0,0,0-.7953,1.3866v23.4461a1.6068,1.6068,0,0,0,3.2116,0Z"/><path d="M707.9249,249.9122c-.4872.0925-.9788.1638-1.47.2326-.3027.0423.1087-.0134-.0976.0126-.1383.0174-.2765.0349-.4149.0515q-.463.0557-.9271.1031-1.0929.1122-2.19.1811a39.3985,39.3985,0,0,1-11.0683-.675c-2.0134-.4506-2.8731,2.645-.8538,3.097a44.9052,44.9052,0,0,0,17.8748.0941,1.621,1.621,0,0,0,1.1215-1.9754,1.64,1.64,0,0,0-1.9753-1.1216Z"/><path d="M741.732,238.93S769.5663,198.25,766.89,180.05s-18.7346-18.7346-18.7346-18.7346,3.7469-25.1579-46.0336-28.9048-64.7681,29.9753-52.4568,45.4983,63.6976,9.1,63.6976,9.1l.5353,27.299c0-8.8687,7.0259-20.8757,13.3818-20.8757s11.2408,2.1411,11.2408,11.2408c0,6.0233-5.0482,16.5219-8.5644,19.27Z"/><path d="M743.1186,239.7409a226.3142,226.3142,0,0,0,17.2569-29.87c3.3958-7.0917,6.6727-14.6184,7.8835-22.4425,1.1958-7.7262-.75-16.1174-6.5092-21.6849a21.5213,21.5213,0,0,0-13.5945-6.034l1.5485,2.0327a16.0368,16.0368,0,0,0-.5092-6.2918,24.3468,24.3468,0,0,0-7.8727-12.0812c-6.7525-5.8031-15.5646-8.786-24.1606-10.5448-12.4525-2.548-25.7089-3.3238-38.232-.8279-8.97,1.7876-17.7612,5.4978-24.5343,11.7626-5.0591,4.6793-8.9743,10.94-10.066,17.8166a22.1379,22.1379,0,0,0,3.7472,16.8839c4.6579,6.1687,12.9876,8.49,20.2473,9.79a133.1133,133.1133,0,0,0,26.95,1.6126c5.7445-.1515,11.495-.51,17.2072-1.146.294-.0328.5881-.0657.8816-.1023l-1.6058-1.6059.4692,23.93.0661,3.3687a1.6068,1.6068,0,0,0,3.2116,0,25.56,25.56,0,0,1,4.0882-12.9531c1.8412-2.9657,4.576-6.4113,8.3927-6.3072,3.1359.0856,6.3659.8787,7.8745,3.9,1.8957,3.797,1.0129,8.4326-.2887,12.251a39.4178,39.4178,0,0,1-3.1092,6.8662,16.3539,16.3539,0,0,1-3.6406,4.7421,1.64,1.64,0,0,0,0,2.2709l11.776,14.9877c1.276,1.624,3.5345-.6628,2.271-2.271l-11.776-14.9876v2.2709a17.8853,17.8853,0,0,0,3.816-4.8331,43.7372,43.7372,0,0,0,3.4092-7.2079c1.7222-4.6374,2.6735-9.9664.7606-14.7119-1.656-4.1084-5.3557-5.9848-9.59-6.3992a10.22,10.22,0,0,0-5.989.9261,16.3079,16.3079,0,0,0-5.1424,4.6665,28.8807,28.8807,0,0,0-6.0642,16.7891h3.2116l-.4692-23.93-.0661-3.3688c-.0154-.7871-.7276-1.7152-1.6058-1.6058a171.66,171.66,0,0,1-36.5517.7567c-7.516-.6859-15.8492-1.8847-22.3117-6.0764a16.62,16.62,0,0,1-7.2935-13.5348c-.564-14.4534,12.4415-25.2855,25.3095-29.5487,11.0432-3.6587,22.8751-3.8095,34.3393-2.5464,9.7372,1.0728,19.967,3.1793,28.3936,8.4266a28.643,28.643,0,0,1,6.7788,5.7354,19.8577,19.8577,0,0,1,1.9262,2.6777q.4149.6831.7784,1.3956.1719.3375.3314.681c.0517.1114.1015.2237.1521.3356.1888.4173-.028-.0822.0724.1677a20.1942,20.1942,0,0,1,.8231,2.48q.1427.5533.2514,1.1148c.0414.2147.1894,1.2661.1189.667a17.5569,17.5569,0,0,1,.1076,2.78c-.009.2218-.1022.7957.0186-.0259a1.6363,1.6363,0,0,0,1.5484,2.0327c.0795.0029.16.0068.2387.0147.1548.0157.7975.085.5426.0521-.3155-.0406.2219.0334.3046.0474.2032.0345.4061.0691.6084.1083q.73.1415,1.4484.3348a18.6713,18.6713,0,0,1,6.7769,3.3065c5.7811,4.4925,8.0793,12.2318,7.1713,19.2127-.9583,7.3682-4.0069,14.5242-7.1421,21.1949a222.7457,222.7457,0,0,1-11.0862,20.444c-2.142,3.5422-4.3353,7.0651-6.6724,10.483C739.1759,239.83,741.9577,241.4386,743.1186,239.7409Z"/><path d="M693.8861,201.7773a8.1164,8.1164,0,0,1,.9733-.5317c.1215-.0583.7035-.3.2948-.1392.1928-.0757.3848-.1527.58-.2225a13.6482,13.6482,0,0,1,1.6055-.4661,10.9288,10.9288,0,0,1,3.7088-.2,11.8458,11.8458,0,0,1,4.4915,1.559,1.607,1.607,0,0,0,1.621-2.7732,14.7511,14.7511,0,0,0-10.3606-1.75,13.0038,13.0038,0,0,0-4.5352,1.75,1.6431,1.6431,0,0,0-.5761,2.1971,1.6222,1.6222,0,0,0,2.1971.5761Z"/><path d="M670.2805,201.242c-.3458.1584-.1688.0589.1272-.0423.4741-.162.9483-.313,1.4349-.4343a16.4435,16.4435,0,0,1,4.4881-.4562,6.4119,6.4119,0,0,1,6.1277,4.4533c.76,2.5289-.2586,5.38-1.43,7.6277a22.6187,22.6187,0,0,1-2.9513,4.3244,4.4734,4.4734,0,0,0-1.3951,2.1685,4.7321,4.7321,0,0,0,.0249,1.8878c.7446,3.1148,4.3766,3.202,6.9477,2.9042a1.6572,1.6572,0,0,0,1.6058-1.6058,1.6144,1.6144,0,0,0-1.6058-1.6058,7.0207,7.0207,0,0,1-3.5917-.1347c-.2294-.1089-.2543-.1779-.2591-.4117.0017.0835.0089-.3865.0208-.48.043-.3368-.06.2039-.0733.2187q.3758-.4128.7385-.8368a23.36,23.36,0,0,0,4.91-8.8029,10.316,10.316,0,0,0-.8908-8.4287,9.689,9.689,0,0,0-7.7549-4.4723,17.4517,17.4517,0,0,0-8.095,1.3536c-1.8768.86-.2466,3.6285,1.621,2.7732Z"/><path d="M688.97,229.9028a10.5535,10.5535,0,0,0,6.0829-2.3686,6.8241,6.8241,0,0,0,1.7267-2.2114,1.6061,1.6061,0,1,0-2.7731-1.621c-.157.3232-.3723.6-.5482.9091-.0121.0213.2394-.2912.13-.1688-.026.0291-.0494.0611-.0745.0911q-.0875.1044-.18.2044-.169.183-.353.3514-.0837.0766-.17.15c-.0477.04-.3126.25-.0706.0627.231-.1785.0091-.01-.046.03q-.1047.0745-.2122.1454a7.688,7.688,0,0,1-.8077.4622c-.134.0665-.271.1257-.4066.1886-.0961.0446.4024-.1619.1354-.0587-.0716.0276-.1429.056-.2148.0826q-.3774.14-.7654.249a10.64,10.64,0,0,1-1.2679.2763c-.0416.0064-.0834.0116-.1249.0184-.19.0311.5128-.0625.2851-.0385-.0623.0066-.1244.015-.1867.0211-.0527.0052-.1055.01-.1584.0134a1.6059,1.6059,0,0,0,0,3.2117Z"/><path d="M722.1372,215.5376a35.3923,35.3923,0,0,1,1.2934-3.8985c.1018-.2606.2079-.5194.3143-.7781-.1372.3336-.0144.0353.05-.1125q.0987-.2255.2012-.4494c.2531-.5528.5233-1.0981.8176-1.63a16.0267,16.0267,0,0,1,.9374-1.5075c.0308-.0434.31-.4219.15-.2106s.1236-.15.1579-.19a8.0417,8.0417,0,0,1,.5572-.6c.11-.1062.2312-.2008.3408-.3068.1419-.1373-.0567-.0249-.1161.0851.0261-.0483.1324-.0989.1766-.1269.1078-.0682.2122-.14.3236-.2023.0481-.027.0982-.0509.1461-.0782.2808-.16-.003.085-.0871.0282a2.1673,2.1673,0,0,0,.34-.1122c.0506-.0135.1033-.0214.1533-.0365.279-.0841-.0993.0527-.1554.0142a1.53,1.53,0,0,0,.3949-.013c.4-.0066-.351-.0782.0574.0063a1.645,1.645,0,0,0,1.9754-1.1215,1.6219,1.6219,0,0,0-1.1216-1.9754c-2.8994-.6-5.0549,1.5833-6.4781,3.8356a30.3587,30.3587,0,0,0-3.0411,6.9007c-.1738.5379-.3421,1.079-.4853,1.626a1.6063,1.6063,0,0,0,3.097.8538Z"/><circle cx="675.1083" cy="208.4416" r="2.387"/><path d="M676.6924,208.4416c-.0009.0666-.0049.1325-.0082.199-.0076.1521-.0013.0111.0046-.0189a2.9839,2.9839,0,0,1-.0739.3124c-.0186.0607-.04.12-.0634.1794.0111-.0284.0734-.1459.0039-.0194-.0608.1108-.1226.2161-.1921.3216-.1024.1557.0792-.0557-.0085.0091a1.0407,1.0407,0,0,0-.1045.1148c-.0382.0391-.2766.2391-.1175.12a2.4246,2.4246,0,0,1-.2611.17c-.0364.02-.0747.0378-.1108.0586-.1331.0764.1242-.0307-.07.0293-.1022.0316-.2025.0641-.3075.086-.0479.01-.1939.0245-.011.0071-.0549.0053-.1094.01-.1645.0122-.1115.0046-.2206-.0048-.3317-.009-.1278-.0048.1884.0424-.0121-.0037-.0629-.0145-.1253-.0271-.1875-.0444s-.1209-.0392-.1815-.0588c-.044-.0142-.1212-.0682.017.0084-.0916-.0508-.186-.0936-.2748-.15-.0435-.0276-.0844-.0617-.1287-.0878-.1-.0589.1287.1257-.0075-.01-.0878-.0878-.1726-.1786-.26-.2668.1074.1085.0378.0541.0118.0146-.0344-.0522-.07-.103-.1022-.1567-.0288-.0481-.159-.3323-.086-.1455a2.4905,2.4905,0,0,1-.0979-.3024c-.0105-.0417-.0183-.0838-.0279-.1257-.0366-.1586.0055.1365-.0092-.0777a2.41,2.41,0,0,1-.0023-.2993c.0023-.0407.0411-.2458,0-.047.0087-.0422.0152-.0847.0246-.1268.0232-.1045.0573-.2043.09-.3059.0622-.1937-.0821.1358.0187-.04.0312-.0542.0578-.111.09-.1649.0267-.0447.0564-.0872.0845-.131.0266-.0417.1213-.1392.0059-.0111.07-.0774.1372-.1542.2138-.2251.0034-.0032.1548-.14.0609-.0578-.0921.0809.0627-.0436.0692-.0479a3.0122,3.0122,0,0,1,.327-.1839c-.0257.013-.1568.0557-.017.0084.06-.02.12-.0415.1815-.0587.0411-.0116.0827-.0219.1243-.0313.0056-.0012.2138-.0392.0848-.0191s.0832-.0051.0891-.0054c.0555-.0031.111-.004.1665-.0032s.11.0058.1657.0077c.1866.0064-.12-.0347.0448.0069.1249.0315.2464.0636.369.1031.1806.0582-.0766-.0624.0113.0052a1.9908,1.9908,0,0,0,.1933.1035c.0356.0213.0709.0436.1054.0668s.0684.0472.1016.0721q-.1206-.0933-.0177-.008.11.11.22.2195c.142.1416-.0816-.1352.0287.0326.0344.0523.07.1029.1022.1567s.0589.1106.09.1649c.0818.1432-.0365-.1317.0188.04.04.123.0715.2437.1031.369.01.0411.0131.1512.0006-.0206.0065.0885.0133.1757.0145.2645a.8029.8029,0,1,0,1.6058,0,3.2421,3.2421,0,0,0-2.1206-3.003,3.1871,3.1871,0,0,0-3.4911.9321,3.1878,3.1878,0,1,0,5.6117,2.0709.8029.8029,0,0,0-1.6058,0Z"/><circle cx="697.5898" cy="208.4416" r="2.387"/><path d="M699.1739,208.4416c-.0009.0666-.0049.1325-.0082.199-.0075.1521-.0012.0111.0046-.0189a2.9839,2.9839,0,0,1-.0739.3124c-.0186.0607-.04.12-.0634.1794.0111-.0284.0734-.1459.0039-.0194-.0608.1108-.1226.2161-.1921.3216-.1023.1557.0793-.0557-.0084.0091a1.0316,1.0316,0,0,0-.1046.1148c-.0381.0391-.2766.2391-.1175.12a2.4246,2.4246,0,0,1-.2611.17c-.0363.02-.0747.0378-.1108.0586-.133.0764.1242-.0307-.07.0293-.1022.0316-.2025.0641-.3075.086-.0479.01-.1939.0245-.011.0071-.0548.0053-.1094.01-.1645.0122-.1115.0046-.2206-.0048-.3317-.009-.1277-.0048.1885.0424-.0121-.0037-.0629-.0145-.1253-.0271-.1875-.0444s-.1209-.0392-.1815-.0588c-.044-.0142-.1211-.0682.017.0084-.0916-.0508-.186-.0936-.2748-.15-.0435-.0276-.0844-.0617-.1287-.0878-.1-.0589.1287.1257-.0074-.01-.0879-.0878-.1727-.1786-.26-.2668.1074.1085.0378.0541.0118.0146-.0344-.0522-.07-.103-.1022-.1567-.0288-.0481-.159-.3323-.086-.1455a2.5081,2.5081,0,0,1-.0979-.3024c-.01-.0417-.0183-.0838-.0279-.1257-.0365-.1586.0055.1365-.0092-.0777a2.45,2.45,0,0,1-.0023-.2993c.0023-.0407.0411-.2458,0-.047.0087-.0422.0153-.0847.0246-.1268.0232-.1045.0573-.2043.09-.3059.0623-.1937-.0821.1358.0188-.04.0311-.0542.0577-.111.09-.1649.0267-.0447.0564-.0872.0845-.131.0266-.0417.1213-.1392.0059-.0111.07-.0774.1372-.1542.2138-.2251.0035-.0032.1549-.14.0609-.0578-.092.0809.0627-.0436.0692-.0479a3.0122,3.0122,0,0,1,.327-.1839c-.0256.013-.1568.0557-.017.0084.06-.02.12-.0415.1815-.0587.0411-.0116.0827-.0219.1244-.0313.0055-.0012.2138-.0392.0847-.0191s.0832-.0051.0891-.0054c.0555-.0031.111-.004.1666-.0032s.11.0058.1656.0077c.1866.0064-.12-.0347.0448.0069.1249.0315.2464.0636.369.1031.1806.0582-.0766-.0624.0113.0052a2.0025,2.0025,0,0,0,.1933.1035q.0535.032.1054.0668t.1016.0721q-.1206-.0933-.0177-.008.1095.11.22.2195c.142.1416-.0816-.1352.0287.0326.0344.0523.07.1029.1022.1567s.0589.1106.09.1649c.0818.1432-.0365-.1317.0188.04.04.123.0715.2437.1031.369.01.0411.0132.1512.0006-.0206.0065.0885.0133.1757.0145.2645a.8029.8029,0,1,0,1.6058,0,3.2419,3.2419,0,0,0-2.1206-3.003,3.1869,3.1869,0,0,0-3.491.9321,3.1878,3.1878,0,1,0,5.6116,2.0709.8029.8029,0,0,0-1.6058,0Z"/></svg>