<svg id="Layer_1" data-name="Layer 1" xmlns="http://www.w3.org/2000/svg" width="1000" height="1000" viewBox="0 0 1000 1000"><defs><style>.cls-1{fill:#fc7272;}.cls-2{fill:#fc7f3a;}.cls-3{fill:#fff;}.cls-4{fill:#a8542a;}.cls-5{fill:#ffc41f;}.cls-6{fill:#458dc9;}.cls-7{fill:#ea2f2f;}.cls-8{stroke:#000;stroke-miterlimit:10;stroke-width:1.0249px;}</style></defs><path class="cls-1" d="M150.112,695.2535,95.6982,737.6678s5.1006,18.3695,22.7169,23.9428c10.9066,3.0332,55.475-36.533,70.3321-30.9084"/><path d="M149.0249,694.1664,130.55,708.5672l-29.2077,22.7667-6.7313,5.2468a1.5056,1.5056,0,0,0-.3953,1.4958,39.5281,39.5281,0,0,0,8.7163,15.2031,34.5488,34.5488,0,0,0,12.8967,9.0359,10.0189,10.0189,0,0,0,4.4787.9781,15.5876,15.5876,0,0,0,3.6425-.75c7.1373-2.2857,13.6977-6.6677,20.0368-10.553,7.8928-4.8376,15.6928-9.8682,23.8919-14.181a72.3821,72.3821,0,0,1,10.6256-4.7447,29.4653,29.4653,0,0,1,4.7337-1.2091,15.9292,15.9292,0,0,1,1.8263-.16c.3085-.0076.6174-.0056.9257.0092.149.0071.2977.0182.4464.03a1.6011,1.6011,0,0,1,.24.0226,8.4592,8.4592,0,0,1,1.6624.4274c1.86.6845,2.6618-2.286.8173-2.9649-2.62-.9642-5.5817-.6392-8.243-.0368a50.1311,50.1311,0,0,0-10.0811,3.7229c-8.1111,3.8016-15.7328,8.6128-23.3419,13.3135-6.8779,4.2491-13.7416,8.7892-21.136,12.1078a28.9537,28.9537,0,0,1-3.8124,1.432,8.1082,8.1082,0,0,1-2.808.48q-.3215-.0024-.64-.0364c.4867.0518-.1446-.0356-.2692-.0748a28.65,28.65,0,0,1-4.16-1.6725,30.6917,30.6917,0,0,1-6.5446-4.37,36.648,36.648,0,0,1-10.9386-16.8263l-.3954,1.4958L115.26,724.3542l29.2077-22.7667,6.7313-5.2469a1.5473,1.5473,0,0,0,0-2.1742,1.5747,1.5747,0,0,0-2.1742,0Z"/><path class="cls-1" d="M291.3888,705.5057l-34.9,59.5134s11.5249,15.1865,29.954,13.8589c11.2557-1.21,38.0582-54.44,53.9423-54.7007"/><path d="M290.0613,704.73,278.212,724.936l-18.7332,31.945-4.3172,7.3621a1.5064,1.5064,0,0,0,0,1.5519A39.3251,39.3251,0,0,0,269.9891,777.33a32.7472,32.7472,0,0,0,16.4539,3.0855c2.4287-.2462,4.4865-1.82,6.2642-3.379,5.6119-4.92,10.0289-11.3166,14.4694-17.2593,5.43-7.2673,10.722-14.6672,16.6547-21.54a66.53,66.53,0,0,1,9.0166-8.9975c2.3054-1.8122,5.0463-3.4608,7.5374-3.5247,1.9749-.0507,1.9826-3.1257,0-3.0748a14.4467,14.4467,0,0,0-7.5367,2.814,48.7994,48.7994,0,0,0-8.0076,7.072c-6.0391,6.3929-11.2713,13.535-16.511,20.5809-4.7823,6.4307-9.4323,13.08-14.9228,18.939a22.9077,22.9077,0,0,1-5.7127,4.8332c-.1051.0569-.214.1067-.3216.1585-.3553.1713.3066-.11-.0521.0255-.201.076-.4032.14-.6086.2027-.1285.0393-.7818.1331-.2692.075a20.91,20.91,0,0,1-2.4527.0812,30.1665,30.1665,0,0,1-8.3511-1.24,36.2429,36.2429,0,0,1-13.106-7.2243,40.7568,40.7568,0,0,1-3.5926-3.4369c-.34-.3689-.6738-.7443-.9945-1.13-.13-.1558-.6036-.77-.13-.1474v1.5519l11.8494-20.2063,18.7331-31.945,4.3173-7.3621a1.5385,1.5385,0,0,0-2.655-1.5519Z"/><path class="cls-2" d="M644.56,228.8112s19.9858-21.5232,47.6584-15.8862,20.8689,34.8165,13.5092,45.85"/><path d="M645.6469,229.8982a49.376,49.376,0,0,1,9.1228-7.3918,52.7938,52.7938,0,0,1,24.3684-8.8294c8.74-.7172,19.27.6436,25.7447,7.1621,4.75,4.7824,6.162,11.6053,5.7382,18.1384A39.7484,39.7484,0,0,1,704.4,257.9987c-1.0958,1.6544,1.566,3.196,2.655,1.5518a42.9735,42.9735,0,0,0,6.417-18.2382c.8752-6.9956-.0956-14.5694-4.4324-20.3335-5.819-7.7341-15.9511-10.3443-25.2125-10.5238a53.5277,53.5277,0,0,0-27.6542,7.5735,55.0785,55.0785,0,0,0-12.7,9.6956c-1.3471,1.447.8224,3.6261,2.1742,2.1741Z"/><path class="cls-3" d="M695.6066,325.6734,612.2112,438.6061c-4.9355-6.5522-19.3134-33.4148-27.5608-40.6472a167.3377,167.3377,0,0,0-13.3465-10.5847l40.855-54.1035A30.5029,30.5029,0,0,1,633.02,321.3486l45.5825-5.2363"/><path d="M694.2792,324.8975l-8.334,11.2857-19.858,26.8913-24.1579,32.7143L621.17,423.9007l-6.8872,9.3265a51.9723,51.9723,0,0,0-3.26,4.4152,2.2405,2.2405,0,0,1-.1386.1877h2.6549c-1.7748-2.3712-3.2953-4.9423-4.8411-7.4647-2.2611-3.6893-4.4859-7.4007-6.7569-11.084-4.3831-7.1087-8.78-14.61-14.5061-20.7449a62.404,62.404,0,0,0-6.1994-5.4832q-4.4587-3.655-9.1554-7.0066l.5516,2.1034,11.8617-15.7082,20.8058-27.5527,6.8583-9.0823a33.6985,33.6985,0,0,1,9.3241-8.9216c4.421-2.6731,9.2178-3.7327,14.2576-4.3117l13.9469-1.6021,28.3605-3.2579.5563-.0639c1.943-.2232,1.9656-3.3006,0-3.0748l-25.0177,2.8739-15.6967,1.8032c-3.8112.4378-7.66.7358-11.3272,1.9421a33.08,33.08,0,0,0-16.0905,11.7786l-5.3858,7.1323-20.4811,27.1228L575.19,379.6936c-1.656,2.193-3.41,4.3415-4.9812,6.5965-.0734.1054-.1553.2056-.2327.3081a1.5639,1.5639,0,0,0,.5516,2.1034Q574.61,391.61,578.5,394.77a77.0244,77.0244,0,0,1,6.107,5.2618,61.4059,61.4059,0,0,1,6.7023,8.4592c5.0006,7.2081,9.4573,14.7782,14.0226,22.264,1.7751,2.9106,3.506,5.8941,5.5516,8.627a1.5664,1.5664,0,0,0,2.6549,0l8.334-11.2857,19.858-26.8914,24.1579-32.7143,20.7593-28.1118,6.8872-9.3266c1.0787-1.4607,2.2767-2.8876,3.26-4.4152.0418-.0649.0927-.1255.1386-.1877,1.1765-1.5931-1.4909-3.1282-2.6549-1.5518Z"/><path d="M611.9289,438.7222c2.6783-3.0542-.3208-10.4922-7.1606-19.572l-14.9777,13.9845C600.5367,439.5157,609.09,441.9589,611.9289,438.7222Z"/><path d="M613.016,439.8093c2.06-2.4593,1.5191-5.8288.525-8.6363-1.6508-4.6623-4.5-8.8691-7.4452-12.7987a1.5663,1.5663,0,0,0-2.4145-.3111l-13.0751,12.208-1.9026,1.7764a1.5522,1.5522,0,0,0,.3111,2.4146c4.6149,2.7269,9.559,5.38,14.8042,6.6571,2.9527.7192,6.9069,1.1885,9.1971-1.31,1.335-1.4565-.8336-3.6367-2.1742-2.1742a3.3413,3.3413,0,0,1-2.4027.9641,14.4616,14.4616,0,0,1-4.6152-.6573,56.1748,56.1748,0,0,1-13.2573-6.1347l.3111,2.4146,13.0751-12.208,1.9026-1.7765-2.4145-.3111a50.5788,50.5788,0,0,1,6.8422,11.2851,13.2742,13.2742,0,0,1,1.0669,4.0431,4.5894,4.5894,0,0,1-.0839,1.4306,2.6447,2.6447,0,0,1-.4243.95C609.5792,439.1423,611.7433,441.3285,613.016,439.8093Z"/><path class="cls-4" d="M584.65,397.9589a167.3377,167.3377,0,0,0-13.3465-10.5847L556.156,405.622l-4.31,5.1919-96.5468-58.1287-18.1388,31.2656L520.1536,449.63c30.215,18.0244,43.4029,18.26,60.044,3.9709l12.2079-10.7757,17.496-16.2478C602.7212,413.4922,592.8978,405.1913,584.65,397.9589Z"/><path d="M585.7375,396.8718c-4.3753-3.8261-8.9233-7.4526-13.6577-10.8251a1.5367,1.5367,0,0,0-1.863.24L555.0651,404.54l-4.3061,5.1873,1.863-.24-9.58-5.7678-23.1161-13.9177L492.063,373.0252l-24.09-14.5039c-3.8964-2.346-7.7338-4.8851-11.7287-7.0616-.0577-.0315-.113-.0681-.1694-.102a1.5594,1.5594,0,0,0-2.1034.5515l-15.8689,27.3531-2.27,3.9125a1.5522,1.5522,0,0,0,.24,1.8631l6.2568,4.9515,15.6088,12.3525,20.2182,16,20.0852,15.8952,15.21,12.0368a70.631,70.631,0,0,0,8.0352,5.9291,134.0983,134.0983,0,0,0,19.4935,9.7144,46.3235,46.3235,0,0,0,15.3141,3.3951c9.6032.2351,17.9469-4.5038,25.0047-10.638,4.1868-3.6389,8.4076-7.27,12.4836-11.0324q7.8718-7.2663,15.7-14.58l1.5052-1.3977a1.5645,1.5645,0,0,0,.24-1.8631,82.197,82.197,0,0,0-12.333-16.6752c-4.1267-4.359-8.6494-8.3018-13.1585-12.2545-1.4826-1.3-3.6657.8668-2.1742,2.1742,4.4122,3.8676,8.8405,7.7237,12.8928,11.9748a79.3389,79.3389,0,0,1,12.1179,16.3326l.24-1.863L594.3305,438.941c-4.0662,3.7761-8.2478,7.4187-12.4083,11.091-5.8732,5.1842-12.0935,10.2577-20,11.7745-10.585,2.0308-21.4564-2.9076-30.6067-7.6689-3.3787-1.7581-6.8832-3.548-10.0767-5.5958-.1644-.1054-.3139-.2485-.4668-.37l-3.2272-2.5539-13.61-10.7705-19.2106-15.203L464.3238,403.5l-16.8994-13.3739-8.772-6.9421-.4048-.32.24,1.863,15.8689-27.353,2.27-3.9126-2.1035.5515,9.58,5.7678,23.1162,13.9177,27.8631,16.7758,24.09,14.5039c3.8964,2.3459,7.7337,4.885,11.7287,7.0616.0577.0314.113.0681.1694.102a1.5513,1.5513,0,0,0,1.863-.24l16.5007-19.8775,2.9571-3.5622-1.863.24c4.5223,3.2215,8.8561,6.69,13.0353,10.3444C585.0472,400.3436,587.23,398.1774,585.7375,396.8718Z"/><path d="M719.8917,785.0826c-.0458-3.9325-1.9246-7.1778-6.1182-7.41a14.42,14.42,0,0,0-6.4665,1.3333l1.1292.8681c.9637-3.7721-2.555-6.8815-5.6495-8.1633a10.4058,10.4058,0,0,0-11.5744,2.6036l1.2847.7479a10.2717,10.2717,0,0,0,.3349-6.1c-1.2218-4.7605-6.0674-6.768-10.4954-7.4761v1.4825c4.3466-1.2633,12.0514-3.7853,12.3389-9.4.237-4.63-5.2009-7.3368-8.8677-8.5429a36.51,36.51,0,0,0-11.7954-1.6115l.5435,1.3122c4.5643-3.72,9.1631-7.721,12.584-12.5607,1.45-2.0513,3.3036-5.0245,2.5376-7.6781-.6034-2.09-2.7444-2.8429-4.7235-2.922-3.1182-.1247-6.2773,1.01-9.0725,2.2758a47.7278,47.7278,0,0,0-12.6378,8.6706l1.2848.7479c2.373-7.4285,4.47-15.1808,4.8272-23.0124.1575-3.452.2121-8.18-2.29-10.9362-1.8572-2.0454-4.5239-1.4135-6.4762.1226-3.2194,2.533-5.1625,6.6218-6.624,10.3414-2.8993,7.3786-4.0767,15.4013-4.48,23.28l1.51-.2043c-2.02-6.3808-5.2733-12.6321-10.5441-16.9232a19.9859,19.9859,0,0,0-8.3173-4.2691,2.9411,2.9411,0,0,0-2.605.8284c-1.8407,1.5353-2.2448,4.1088-2.0554,6.3749a25.4421,25.4421,0,0,0,2.1241,7.6787,77.3176,77.3176,0,0,0,6.8264,12.2968l1.0517-1.0517c-2.412-1.54-8.0579-4.713-10.339-1.1969-1.7757,2.7373.77,6.0532,2.9011,7.6489l-.1555-1.2072a21.1729,21.1729,0,0,1-2.9192,2.442c-.8158.5505-.0472,1.883.7759,1.3275a23.3893,23.3893,0,0,0,3.23-2.6825.7811.7811,0,0,0-.1555-1.2072c-1.3768-1.0307-3.693-3.6618-2.3632-5.5273a2.7468,2.7468,0,0,1,2.689-.7223,14.5945,14.5945,0,0,1,5.56,2.4525.7741.7741,0,0,0,1.0517-1.0517c-3.5051-5.3366-7.24-11.23-8.506-17.5935-.4215-2.1182-.5568-4.9452.9734-6.5276a2.5664,2.5664,0,0,1,.6021-.5073c.1162-.0728.6775-.3664.45-.253.019-.01.3471-.1236.3488-.1166.03.1258-.5535-.1179-.1623.0253.81.2963,1.6878.4169,2.5037.7329a20.0254,20.0254,0,0,1,4.3417,2.3858c5.6966,4.0528,9.1434,10.5249,11.21,17.0521a.7724.7724,0,0,0,1.51-.2044,77.3751,77.3751,0,0,1,3.44-20.1281c1.298-3.9653,3.0367-8.1855,5.9561-11.2569,1.3434-1.4134,3.5135-2.9891,5.1764-1.6465,2.3628,1.9076,2.3014,6.339,2.26,9.0242-.1244,8.0866-2.3664,16.155-4.81,23.803a.7748.7748,0,0,0,1.2848.7479,48.1917,48.1917,0,0,1,10.5291-7.5555,23.9968,23.9968,0,0,1,8.6805-2.8984c1.4881-.133,3.84-.1479,4.565,1.49.8842,1.9969-.8932,4.6853-1.94,6.2424-3.3353,4.9635-8.1015,9.0162-12.6971,12.7613-.531.4327-.08,1.3192.5436,1.3122,5.4282-.0608,11.6047.6436,16.1667,3.87a6.45,6.45,0,0,1,2.9285,3.97,4.9869,4.9869,0,0,1-1.9511,4.2623c-2.5181,2.31-6.0128,3.4981-9.2286,4.4327-.6744.1961-.7874,1.3566,0,1.4825,4.0073.6408,8.5559,2.3,9.4991,6.7331a8.8879,8.8879,0,0,1-.4123,4.9523c-.2846.7194.793,1.2979,1.2848.7479a8.9,8.9,0,0,1,9.3145-2.5014c2.6126.8828,6.1161,3.527,5.34,6.5653a.7791.7791,0,0,0,1.1292.8681c.1443-.0641-.1029.0382-.0264.0107.1192-.0429.2351-.0959.354-.14.3766-.14.7555-.2711,1.14-.3874a13.1836,13.1836,0,0,1,3.4939-.6167,5.4374,5.4374,0,0,1,3.54.9563c1.4669,1.16,1.75,3.1787,1.77,4.9267a.7692.7692,0,0,0,1.5374,0Z"/><path d="M644.0782,762.4308c.8266-2.685,2.1372-5.7526,4.2732-7.6437,1.2758-1.13,3.4016-1.5437,4.4395.1615.9938,1.6328.3463,4.028-.16,5.716a23.0871,23.0871,0,0,1-1.5368,3.8805c-.2715.53.196,1.4016.8681,1.1292a12.8647,12.8647,0,0,1,3.3611-.84,8.19,8.19,0,0,1,3.1428.177c.5638.161,1.7693.5327,1.8394,1.2764.0958,1.0154-1.4393,2.126-2.122,2.6573a16.8261,16.8261,0,0,1-2.0018,1.3389.7773.7773,0,0,0,0,1.3275c1.7309,1.1328,2.7982,3.0769,1.5286,4.9631-.5539.823.7773,1.5933,1.3275.7759,1.7529-2.6042.3269-5.4912-2.08-7.0665v1.3275c1.8144-1.0325,5.5026-3.314,4.8105-5.8549-.546-2.0044-3.4511-2.5157-5.1892-2.5265a13.4433,13.4433,0,0,0-5.0254.9617l.8681,1.1292c1.5253-2.9777,3.464-7.64,1.832-10.8944a4.1386,4.1386,0,0,0-5.25-1.86c-2.0407.8406-3.417,2.9034-4.4258,4.7725a26.1444,26.1444,0,0,0-1.9823,4.6824c-.2918.9477,1.1918,1.353,1.4825.4087Z"/><path d="M756.1511,462.8956l1.2061,6.237a19.9257,19.9257,0,0,1-10.0715,21.3027l-14.2845,7.7389-5.1351-36.0976"/><path d="M754.6686,463.3043c.4137,2.1394.8528,4.2755,1.24,6.42a18.5015,18.5015,0,0,1-2.82,13.4042c-3.39,5.1217-9.485,7.5538-14.7022,10.38l-6.1613,3.338,2.2584.9188L729.9805,466.11l-.632-4.4421a1.5487,1.5487,0,0,0-1.8911-1.0738,1.5762,1.5762,0,0,0-1.0738,1.8912l4.5032,31.6554.6319,4.4422a1.5511,1.5511,0,0,0,2.2584.9187l13.383-7.25a23.5452,23.5452,0,0,0,7.9718-6.6966,21.404,21.404,0,0,0,4.0883-13.8626,73.011,73.011,0,0,0-1.5867-9.205c-.3753-1.9407-3.3394-1.1191-2.9649.8174Z"/><path class="cls-4" d="M816.7461,563.9072l57.3623-30.3725,41.9408,78.5963s-21.5558,13.2207-39.5581-14.7507a11.9322,11.9322,0,0,0-15.755-4.0553c-6.9235,3.7835-13.6054,7.4756-13.6054,7.4756"/><path d="M817.522,565.2346,836.87,554.99l30.8765-16.3486,7.1378-3.7793-2.1034-.5515,4.1754,7.8246,10.0255,18.7878L899.05,583.5386l10.4911,19.66,3.4737,6.51a25.9738,25.9738,0,0,0,1.6337,3.0617,1.1559,1.1559,0,0,1,.0731.1369l.5516-2.1034a13.33,13.33,0,0,1-1.2641.659c-.2213.1044-.4448.204-.669.302-.2453.1071.2719-.1087-.0966.04-.1689.068-.3379.1357-.5079.2008q-.9849.3774-1.9981.6748a24.2391,24.2391,0,0,1-11.6146.6037,29.379,29.379,0,0,1-15.2-8.86,46.4949,46.4949,0,0,1-4.0528-4.8259,52.8927,52.8927,0,0,0-3.5975-4.988,13.6169,13.6169,0,0,0-9.367-4.2669c-4.7138-.1934-8.6264,2.57-12.5862,4.7447q-3.9851,2.1882-7.965,4.3854c-1.7323.9572-.1831,3.6136,1.5519,2.655q3.2188-1.7784,6.4421-3.5488,3.1481-1.73,6.3-3.4546a11.9356,11.9356,0,0,1,5.0714-1.6975,10.5606,10.5606,0,0,1,8.94,4.0114c1.3077,1.6812,2.39,3.5382,3.7016,5.2251a47.7679,47.7679,0,0,0,4.0422,4.5988,31.9946,31.9946,0,0,0,15.5469,8.9121,27.7473,27.7473,0,0,0,12.7622-.2967,22.8569,22.8569,0,0,0,6.1127-2.4194,1.57,1.57,0,0,0,.5516-2.1034l-4.1754-7.8247-10.0256-18.7877-12.0682-22.6156-10.491-19.66c-1.6925-3.1717-3.2361-6.5-5.1075-9.5713-.0268-.044-.0488-.0916-.0731-.137a1.5642,1.5642,0,0,0-2.1034-.5515l-19.3481,10.2445L823.1079,558.8,815.97,562.58c-1.7494.9263-.1975,3.5812,1.5519,2.6549Z"/><path class="cls-5" d="M859.4125,594.0638c7.0287-4.032,13.6869-1.9535,17.0786,3.3165,18.0023,27.9714,39.5581,14.7507,39.5581,14.7507l-41.9408-78.5963L850.595,546.0766h0a7.3358,7.3358,0,0,0-8.8416,4.217l-.2673.6416c2.1691,5.9209,7.24,7.8942,10.9191,8.5284a8.7579,8.7579,0,0,1,6.4229,4.93h0a8.8107,8.8107,0,0,1-3.6551,11.4192l-3.09,1.739Z"/><path d="M860.1884,595.3912a12.1675,12.1675,0,0,1,9.5459-1.4533c3.1516.9752,4.7978,3.365,6.58,5.9437,3.5958,5.2018,8.0276,9.9915,13.5623,13.1556a27.8349,27.8349,0,0,0,22.3246,2.4083,21.6017,21.6017,0,0,0,4.6236-1.987,1.57,1.57,0,0,0,.5516-2.1034l-4.1754-7.8247-10.0256-18.7877-12.0682-22.6156-10.491-19.66c-1.6925-3.1717-3.2361-6.5-5.1075-9.5713-.0268-.044-.0488-.0916-.0731-.137a1.5637,1.5637,0,0,0-2.1034-.5515l-20.5541,10.9634-2.9593,1.5784,1.1846-.1549a8.9714,8.9714,0,0,0-10.0017,3.8188,8.6517,8.6517,0,0,0-.9374,1.9672c-.3077.9822.3469,2.0606.794,2.9241a13.5182,13.5182,0,0,0,3.5551,4.3331,15.9858,15.9858,0,0,0,4.5641,2.5176c1.497.5424,3.1309.6394,4.6013,1.2249a7.3556,7.3556,0,0,1,4.1291,9.1893c-1.0443,2.9985-3.84,4.2137-6.4006,5.655a1.58,1.58,0,0,0-.5515,2.1034L858.085,594.84c.8012,1.805,3.4514.2425,2.655-1.5519l-7.329-16.5121-.5515,2.1034c2.0174-1.1356,4.25-2.1468,5.7822-3.9368a10.4262,10.4262,0,0,0,1.8775-10.472,10.72,10.72,0,0,0-8.3039-6.6026,12.4283,12.4283,0,0,1-7.8666-4.723,11.9189,11.9189,0,0,1-.66-1.066q-.1809-.3265-.3426-.6625c-.0563-.1174-.4648-.78-.292-.3281.0875.2288-.1062.202.0486-.065.0469-.081.0764-.1858.1156-.2685a6.57,6.57,0,0,1,.7062-1.1874,5.8665,5.8665,0,0,1,4.58-2.2525c1.0623-.005,1.9925.5156,2.9982.0195.4014-.1981.792-.4225,1.1869-.6331l12.0871-6.4472,10.1084-5.3917-2.1034-.5515,4.1754,7.8246,10.0255,18.7878L899.05,583.5386l10.4911,19.66,3.4737,6.51a25.9738,25.9738,0,0,0,1.6337,3.0617,1.1559,1.1559,0,0,1,.0731.1369l.5516-2.1034c-.2987.1823-.6131.3412-.9264.4962-.3635.18-.733.3477-1.1058.5073.3636-.1557-.2591.1026-.3887.153q-.3959.1539-.7966.2945a24.957,24.957,0,0,1-8.927,1.4553c-11.2839-.2349-19.4842-8.4451-25.4079-17.2529a13.3154,13.3154,0,0,0-7.997-5.7043,15.6344,15.6344,0,0,0-11.0874,1.9837C856.9083,593.7,858.4569,596.3572,860.1884,595.3912Z"/><path class="cls-3" d="M885.3085,550.9994a3.3849,3.3849,0,0,0,4.6246,1.2356l2.7743-1.6043,32.166,60.48s-6.6412,4.0852-12.34,4.7885l-43.11-79.9335,11.8665-6.908,8.2485,15.5852-2.9944,1.7316A3.385,3.385,0,0,0,885.3085,550.9994Z"/><path d="M883.9811,551.7753a5.0138,5.0138,0,0,0,6.42,1.9453c1.0634-.5043,2.0643-1.1736,3.0826-1.7625l-2.1034-.5515,10.8969,20.489,17.2948,32.5186,3.9744,7.4728.5515-2.1034a31.7371,31.7371,0,0,1-11.9731,4.6334l1.7362.7065-4.2953-7.9642L899.31,588.1435l-12.4677-23.1174L876.06,545.0339l-3.54-6.5638a25.4159,25.4159,0,0,0-1.6965-3.1458,1.0737,1.0737,0,0,1-.0724-.1342l-.5516,2.1034,11.8665-6.9081-2.1034-.5515,8.2486,15.5853.5515-2.1034c-1.0438.6036-2.134,1.1606-3.14,1.8257a5.0183,5.0183,0,0,0-1.6417,6.6338c.9031,1.7613,3.5571.2075,2.6549-1.5518-1.1472-2.2371,2.2193-3.4089,3.6786-4.2528a1.5679,1.5679,0,0,0,.5515-2.1034l-8.2485-15.5853a1.5576,1.5576,0,0,0-2.1035-.5515l-11.8665,6.908a1.5669,1.5669,0,0,0-.5515,2.1034l4.2953,7.9643,10.2555,19.0158,12.4676,23.1174,10.7822,19.9921c1.7352,3.2175,3.32,6.5948,5.2365,9.71.0265.0431.0484.09.0724.1343a1.5912,1.5912,0,0,0,1.7362.7065,33.933,33.933,0,0,0,12.7076-4.9434,1.5706,1.5706,0,0,0,.5515-2.1034l-10.8969-20.489-17.2948-32.5186-3.9744-7.4728a1.5582,1.5582,0,0,0-2.1034-.5515c-1.4563.8421-3.946,3.0036-5.2954.92C885.564,548.5685,882.9011,550.108,883.9811,551.7753Z"/><line class="cls-3" x1="853.0141" y1="550.5317" x2="850.7305" y2="546.0719"/><path d="M854.3415,549.7558l-2.0031-3.9121-.28-.5478a1.5484,1.5484,0,0,0-2.1034-.5515,1.5737,1.5737,0,0,0-.5515,2.1034l2.0031,3.9122.28.5477a1.5484,1.5484,0,0,0,2.1034.5515,1.5736,1.5736,0,0,0,.5515-2.1034Z"/><path class="cls-3" d="M869.6414,592.3166s-1.2522-4.0616,3.2362-6.966"/><path d="M871.1239,591.9079c-.0173-.0566-.0305-.1146-.0433-.1723-.0152-.0679-.0268-.1363-.04-.2046-.0723-.3784.0447.457.0114.0958a6.8125,6.8125,0,0,1-.0338-.6894q.0021-.22.02-.44c.0064-.0783.0206-.1574.024-.2357-.0238.5479-.035.2482-.0094.101a6.0283,6.0283,0,0,1,.2875-1.0624c.0485-.1305.226-.4055-.0123.0172.038-.0675.0652-.1432.0994-.2128a6.2924,6.2924,0,0,1,.32-.5743q.0924-.1473.1925-.2893.0516-.0731.1049-.1448-.2238.2853-.0719.0941c.167-.1976.3353-.392.5184-.5752.2-.2.4125-.3812.6266-.5644q.1956-.1559-.0463.0329.0921-.0694.1859-.1367c.13-.093.262-.1818.3953-.2692a1.5376,1.5376,0,1,0-1.5519-2.6549,9.1664,9.1664,0,0,0-3.7258,4.46,7.0625,7.0625,0,0,0-.38,3.293,5.7712,5.7712,0,0,0,.1632.9492,1.5378,1.5378,0,0,0,2.9649-.8174Z"/><path class="cls-3" d="M875.0862,595.6774s-1.2522-4.0616,3.2361-6.966"/><path d="M876.5686,595.2687c-.0173-.0566-.03-.1145-.0433-.1722-.0151-.0679-.0267-.1364-.04-.2047-.0723-.3783.0447.457.0114.0958a6.8109,6.8109,0,0,1-.0337-.6894q.0019-.22.02-.44c.0064-.0782.0206-.1573.024-.2357-.0238.548-.035.2482-.0093.1011a6.0184,6.0184,0,0,1,.2875-1.0625c.0484-.13.2259-.4054-.0124.0172.038-.0675.0653-.1432.0994-.2128a6.2933,6.2933,0,0,1,.32-.5743q.0924-.1471.1925-.2893.0515-.073.1049-.1448-.2238.2854-.072.0942c.1671-.1977.3353-.392.5185-.5752.1994-.2.4124-.3813.6265-.5645q.1957-.1558-.0463.0329.0921-.0694.186-.1367c.13-.0929.2619-.1817.3953-.2691a1.5376,1.5376,0,0,0-1.5519-2.655,9.167,9.167,0,0,0-3.7259,4.46,7.0626,7.0626,0,0,0-.38,3.293,5.7586,5.7586,0,0,0,.1631.9492,1.5378,1.5378,0,1,0,2.9649-.8174Z"/><path class="cls-3" d="M878.64,599.5735s-1.2522-4.0616,3.2362-6.966"/><path d="M880.1224,599.1648c-.0173-.0566-.03-.1146-.0433-.1723-.0152-.0679-.0268-.1363-.04-.2046-.0723-.3784.0447.457.0114.0958a6.811,6.811,0,0,1-.0338-.6894q.0021-.22.02-.44c.0064-.0783.0206-.1574.024-.2357-.0238.5479-.035.2482-.0094.101a6.0283,6.0283,0,0,1,.2875-1.0624c.0485-.13.2259-.4055-.0124.0172.0381-.0675.0653-.1432.0995-.2128a6.2924,6.2924,0,0,1,.32-.5743q.0924-.1472.1925-.2893.0516-.0731.1049-.1448-.2238.2854-.0719.0941c.167-.1976.3353-.392.5184-.5752.2-.1995.4125-.3812.6266-.5644q.1956-.1559-.0464.0329.0923-.0694.186-.1367c.13-.0929.2619-.1817.3953-.2692A1.5376,1.5376,0,1,0,881.1,591.28a9.1664,9.1664,0,0,0-3.7258,4.46,7.0612,7.0612,0,0,0-.38,3.293,5.7589,5.7589,0,0,0,.1632.9492,1.5378,1.5378,0,0,0,2.9649-.8174Z"/><path class="cls-4" d="M588.8367,721.67l-23.75,60.4057-83.013-32.33s7.7479-24.071,39.6256-14.5683a11.9323,11.9323,0,0,0,14.5969-7.1831c2.79-7.38,5.4562-14.5335,5.4562-14.5335"/><path d="M587.3542,721.261l-8.0109,20.3746L566.5593,774.15l-2.9553,7.5164,1.8911-1.0737-8.2644-3.2186-19.8435-7.7282-23.8865-9.3028-20.7648-8.087-6.8755-2.6777a27.57,27.57,0,0,0-3.2337-1.2594,1.2405,1.2405,0,0,1-.1447-.0564l1.0738,1.8912a2.6161,2.6161,0,0,1,.1225-.3418c.0582-.1193.1-.2528.1482-.3766.11-.2831-.0728.1674-.0439.1014.0438-.1.0853-.2018.1313-.3012a27.7116,27.7116,0,0,1,1.69-3.1444,24.5842,24.5842,0,0,1,7.69-7.7178,27.775,27.775,0,0,1,15.6335-3.8638,47.4088,47.4088,0,0,1,11.5708,1.919,14.3118,14.3118,0,0,0,11.2925-.96,13.5774,13.5774,0,0,0,4.7226-4.4864c1.4132-2.2016,2.1364-4.8854,3.0513-7.3174q1.8414-4.8954,3.67-9.7959c.6921-1.8565-2.2788-2.658-2.9649-.8174q-1.4716,3.9483-2.9544,7.8925c-1.5131,4.0289-2.5369,8.9094-6.3575,11.43a10.4462,10.4462,0,0,1-5.0975,1.7485,18.6985,18.6985,0,0,1-5.906-1.0286,49.0422,49.0422,0,0,0-11.6474-1.6717c-9.9246-.1267-19.2526,4.0679-24.8709,12.3718a22.5346,22.5346,0,0,0-2.845,5.5427,1.5734,1.5734,0,0,0,1.0738,1.8911l8.2643,3.2187,19.8436,7.7282,23.8865,9.3027,20.7648,8.0871,6.8755,2.6777c1.0653.4149,2.1375.9309,3.2337,1.2594.049.0146.0969.0377.1446.0563a1.5681,1.5681,0,0,0,1.8912-1.0738L574.58,762.11l12.7841-32.5147,2.9553-7.5164c.7243-1.8421-2.2479-2.641-2.9649-.8174Z"/><path class="cls-5" d="M536.8192,726.5714c-2.708,7.6371-9.1143,10.396-15.12,8.6057-31.8777-9.5027-39.6256,14.5683-39.6256,14.5683l83.013,32.33,9.6757-24.8306h0a7.3359,7.3359,0,0,0,3.9632-8.9583l-.215-.6609c-5.502-3.0806-10.6354-1.2755-13.84.6391a8.7578,8.7578,0,0,1-8.0847.4419h0a8.8106,8.8106,0,0,1-4.663-11.046l1.212-3.3317Z"/><path d="M535.3368,726.1627a12.1092,12.1092,0,0,1-6.2536,7.2288c-2.9891,1.2863-5.7486.6027-8.743-.196a43.1918,43.1918,0,0,0-18.9492-1.1865,27.8031,27.8031,0,0,0-18.6147,12.8087,21.5471,21.5471,0,0,0-2.1854,4.519,1.5734,1.5734,0,0,0,1.0738,1.8911l8.2643,3.2187,19.8436,7.7282,23.8865,9.3027,20.7648,8.0871,6.8755,2.6777c1.0653.4149,2.1375.9309,3.2337,1.2594.049.0146.0969.0377.1446.0563a1.5675,1.5675,0,0,0,1.8912-1.0738l8.4579-21.7055,1.2177-3.1251-.7065.9187a8.8843,8.8843,0,0,0,5.0493-8.7244,9.8069,9.8069,0,0,0-.4552-2.2026,2.6712,2.6712,0,0,0-1.7113-1.7936,14.1148,14.1148,0,0,0-6.5479-1.4127,15.805,15.805,0,0,0-5.5292,1.2708c-1.6988.7142-3.2218,1.9075-5.0806,2.1748a7.3651,7.3651,0,0,1-8.1163-5.45c-.69-2.6961.5677-5.2168,1.47-7.6973a1.539,1.539,0,0,0-.7065-1.7362l-16.3152-7.7575c-1.7778-.8453-3.34,1.8048-1.5518,2.655l16.3152,7.7575-.7066-1.7362c-.7995,2.1979-1.8064,4.3932-1.7994,6.7767a10.4645,10.4645,0,0,0,5.0255,8.85c3.5906,2.16,7.57,1.6987,11.09-.2552a11.9507,11.9507,0,0,1,11.7665-.3384l-.7065-.9188a6.4157,6.4157,0,0,1-.1191,5.1717,5.8024,5.8024,0,0,1-1.9807,2.202c-.7345.4783-1.2669.6039-1.6586,1.4539-.6,1.3015-1.05,2.6954-1.57,4.03L565.3249,777.25l-1.7209,4.4163,1.8911-1.0737-8.2644-3.2186-19.8435-7.7282-23.8865-9.3028-20.7648-8.087-6.8755-2.6777a27.57,27.57,0,0,0-3.2337-1.2594,1.2405,1.2405,0,0,1-.1447-.0564l1.0738,1.8912a1.7232,1.7232,0,0,1,.0886-.2512,2.89,2.89,0,0,0,.1193-.3112c.15-.4062.0114-.04.0463-.1185a26.3993,26.3993,0,0,1,1.2692-2.512,24.475,24.475,0,0,1,5.7927-6.8554c8.6069-7.1276,20.2916-6.2885,30.4184-3.4463a13.4362,13.4362,0,0,0,9.9814-.9225,15.6242,15.6242,0,0,0,7.03-8.7569C538.9836,725.1194,536.0132,724.317,535.3368,726.1627Z"/><path class="cls-6" d="M649.1719,432.2563,536.27,710.092,602.5339,735.68s72.2882-172.6773,80.9726-200.9322,15.5408-77.7008,15.5408-77.7008"/><path d="M647.6894,431.8476l-3.0269,7.4489-8.2366,20.269-12.1324,29.8563-14.7953,36.4089-16.2617,40.0178-16.4146,40.394L561.57,643.7746l-12.8924,31.7265-9.3044,22.8966c-1.4633,3.6009-3.0673,7.1766-4.4,10.8286-.0563.1542-.124.305-.1857.457a1.5658,1.5658,0,0,0,1.0737,1.8912l22.4341,8.6628,35.6078,13.75,8.2222,3.175a1.572,1.572,0,0,0,1.8911-1.0737q1.5448-3.69,3.0845-7.3824,4.0909-9.8022,8.1677-19.61,5.8678-14.1153,11.7094-28.2414,6.9074-16.7046,13.7718-33.4268,7.1165-17.3424,14.1674-34.7115,6.59-16.2479,13.0781-32.5363c3.5494-8.9328,7.0714-17.8773,10.485-26.863,2.1809-5.7411,4.39-11.492,6.2536-17.346,4.455-13.9916,7.2884-28.5531,9.9643-42.9705q3.1227-16.8254,5.5787-33.7695.1283-.8874.253-1.7753c.2686-1.9352-2.6936-2.772-2.9649-.8174-1.1449,8.249-2.4815,16.4751-3.8922,24.6822-2.6535,15.4376-5.5772,30.8887-9.6445,46.0243-1.8195,6.7711-4.0948,13.3425-6.5386,19.9083-3.1024,8.3351-6.34,16.62-9.6024,24.8936q-6.2144,15.758-12.5772,31.457-6.9781,17.2735-14.0434,34.5118Q634.28,655.182,627.24,672.2269q-6.1549,14.9088-12.341,29.8047-4.58,11.03-9.1762,22.0533c-1.4813,3.5524-3.2021,7.0878-4.4767,10.7213-.0553.1576-.13.3106-.1946.4649l1.8912-1.0738-22.4341-8.6629-35.6078-13.75-8.2222-3.1751,1.0738,1.8912,3.0269-7.4489,8.2366-20.2689,12.1325-29.8563,14.7952-36.409L592.2052,576.5,608.62,536.1059l15.2517-37.5321,12.8925-31.7265,9.3043-22.8966c1.4633-3.601,3.0673-7.1767,4.4-10.8287.0562-.1541.1239-.3049.1856-.457.7446-1.8323-2.2285-2.63-2.9649-.8174Z"/><path class="cls-6" d="M681.4566,455.8293l54.32-6.1494,14.0643,29.1442c5.3623,13.913,1.04,32.2449-2.8331,46.6437l-16.5115,61.381c25.8337-14.3656,91.11-40.814,91.11-40.814l30.0746,64.352-73.87,35.7219a103.5311,103.5311,0,0,1-87.4152,1.2708h0a69.4067,69.4067,0,0,1-29.4048-74.1043L678.5419,499.66a76.0109,76.0109,0,0,0,1.8252-23.7509l-.96-11.88"/><path d="M681.4566,457.3667l18.3868-2.0815,29.1825-3.3037,6.7511-.7643-1.3274-.7614,10.8427,22.4686a57.8822,57.8822,0,0,1,4.0484,9.2733c2.5125,8.938,1.5188,18.6119-.194,27.6008-1.6093,8.4461-4.0173,16.7338-6.25,25.0329L734.7145,565.25c-1.8682,6.9447-3.9127,13.8677-5.6105,20.8565-.0271.1119-.06.2227-.09.334a1.5551,1.5551,0,0,0,2.2584,1.7361c13.5546-7.5253,27.8464-13.7911,42.02-20.0394q20.0756-8.85,40.37-17.1938,4.1721-1.7236,8.3531-3.4259l-1.7362-.7065,10.2023,21.83L846.6233,603.18l3.7307,7.9828.5515-2.1034-15.7863,7.6339-31.5843,15.2734L779.413,643.6314c-3.4406,1.6638-6.8946,3.2795-10.4744,4.633a102.0317,102.0317,0,0,1-62.486,3.1876q-3.7891-1.0113-7.4946-2.3079a60.42,60.42,0,0,1-7.5847-3.0024,33.1416,33.1416,0,0,1-5.3666-3.841q-2.6043-2.1-4.9982-4.4445a68.309,68.309,0,0,1-20.3742-47.9395,71.0365,71.0365,0,0,1,2.0441-17.0919l2.066-8.6656,7.7449-32.4854,6.7263-28.2132c.7884-3.3068,1.5787-6.6017,2.0738-9.9715a78.5229,78.5229,0,0,0,.615-17.5805c-.1555-1.98-.32-3.96-.48-5.94l-.48-5.94c-.1583-1.9587-3.2344-1.9757-3.0747,0,.3457,4.2777.74,8.5542,1.0314,12.8359a77.019,77.019,0,0,1-2.0261,23.1608L671.24,523.6587l-8.2049,34.4148c-1.6593,6.96-3.7092,13.9883-4.7244,21.083a70.9815,70.9815,0,0,0,21.3224,61.6443q2.5693,2.4366,5.3753,4.6017a27.1345,27.1345,0,0,0,5.4172,3.6615,105.07,105.07,0,0,0,88.3015-1.6957q9.1281-4.4061,18.25-8.8253l32.2911-15.6152,22.0647-10.67,1.1241-.5436a1.5694,1.5694,0,0,0,.5516-2.1035l-10.2024-21.83-16.1415-34.5389-3.7307-7.9828a1.5353,1.5353,0,0,0-1.7362-.7065c-8.01,3.246-15.9861,6.58-23.9485,9.9409-15.3953,6.4993-30.743,13.1334-45.8829,20.21-7.3041,3.4141-14.5943,6.9028-21.6461,10.8179l2.2584,1.7361,4.7884-17.8005,8.3776-31.1435c1.9939-7.4124,4.1219-14.8156,5.8311-22.2994,2.1066-9.2235,3.6992-18.911,2.5388-28.3787a32.875,32.875,0,0,0-2.4334-9.7678c-.5243-1.131-1.0842-2.2468-1.626-3.3695L737.4065,449.53l-.302-.6259a1.4854,1.4854,0,0,0-1.3275-.7614L717.39,450.224l-29.1824,3.3037-6.7512.7643c-1.9438.22-1.9662,3.2973,0,3.0747Z"/><path class="cls-3" d="M545.2132,776.1162a3.3847,3.3847,0,0,0-4.314,2.0741l-1.06,3.0242-63.7975-24.9483s2.3794-7.4252,6.2462-11.67l84.7708,32.5836-4.5062,12.97-16.4094-6.4552,1.1447-3.2642A3.3849,3.3849,0,0,0,545.2132,776.1162Z"/><path d="M545.6219,774.6337a4.98,4.98,0,0,0-6.0742,2.8271c-.4564,1.0889-.8009,2.2311-1.1915,3.345l1.8911-1.0738L518.6346,771.28l-34.3021-13.414-7.8826-3.0826,1.0738,1.8912a30.9279,30.9279,0,0,1,5.8508-10.992l-1.4958.3953,8.4462,3.2465,20.1666,7.7515L535.0079,766.5l21.202,8.1495,6.9611,2.6756a26.922,26.922,0,0,0,3.3361,1.2823,1.1415,1.1415,0,0,1,.1424.0548l-1.0737-1.8912-4.5062,12.97,1.8911-1.0737-16.4094-6.4553,1.0737,1.8912c.3986-1.1366.872-2.27,1.1937-3.43a5.02,5.02,0,0,0-3.1968-6.0391c-1.8307-.7477-2.6277,2.2256-.8174,2.9649,2.2422.9158.3786,4.1959-.1444,5.6872a1.5714,1.5714,0,0,0,1.0738,1.8911l16.4094,6.4553a1.5612,1.5612,0,0,0,1.8912-1.0738l4.5062-12.97a1.57,1.57,0,0,0-1.0738-1.8911l-8.4462-3.2465-20.1666-7.7515-24.5164-9.4235-21.202-8.1495-6.9611-2.6756c-1.0988-.4224-2.2057-.95-3.3361-1.2823-.0483-.0142-.0954-.0367-.1424-.0548a1.496,1.496,0,0,0-1.4958.3954,34.6048,34.6048,0,0,0-6.6415,12.3488,1.5737,1.5737,0,0,0,1.0737,1.8911L497.2452,766.2l34.3022,13.414,7.8826,3.0825a1.5616,1.5616,0,0,0,1.8911-1.0737c.5872-1.6746,1.02-4.751,3.4834-4.0246C546.7063,778.16,547.5187,775.1931,545.6219,774.6337Z"/><path d="M506.3979,755.5057c.0887.0309.1738.0732.2627.1026-.6516-.2154.2046.1019.41.2067.38.1934.75.4055,1.1115.6323q.2939.1845.579.3826c.11.0764.2184.1548.3268.2335.0479.0347.0951.07.1425.1057.3131.2332-.1549-.1253.0266.0212a13.3433,13.3433,0,0,1,4.7018,7.0734,19.1137,19.1137,0,0,1,.3884,7.3221,1.5462,1.5462,0,0,0,1.5374,1.5374,1.5742,1.5742,0,0,0,1.5373-1.5374,19.1926,19.1926,0,0,0-2.5364-12.7283,16.6059,16.6059,0,0,0-5.9863-5.5524,11.7738,11.7738,0,0,0-1.6843-.7643c-1.872-.6535-2.6767,2.3159-.8174,2.9649Z"/><path d="M609.424,717.34l-22.4716-8.7454L551.399,694.7583l-8.2172-3.198c-1.845-.718-2.6444,2.2539-.8174,2.9649l22.4716,8.7455,35.5533,13.8366,8.2173,3.1979c1.845.7181,2.6444-2.2538.8174-2.9649Z"/><path class="cls-3" d="M655.27,319.3939l53.222-.7726c8.0822-.8768,12.6672,2.0073,17.4231,13.4922,0,0,23.39,96.9512,31.3142,135.9292-13.6005-11.8037-123.3537,1.52-123.3537,1.52l7.6353-121.3849"/><path d="M655.27,320.9313l35.2035-.511,16.9458-.246c2.1873-.0318,4.366-.3685,6.5294.14,4.32,1.015,6.8844,4.8059,8.7932,8.5382a21.9074,21.9074,0,0,1,1.9775,4.86q.5532,2.2979,1.1045,4.5961,2.0867,8.6948,4.1573,17.3933,6.4632,27.142,12.771,54.3209c4.1183,17.7943,8.2192,35.5982,11.97,53.4743q.5194,2.4757,1.0245,4.9544l2.57-1.4957a16.6769,16.6769,0,0,0-6.9705-3.1095,70.9836,70.9836,0,0,0-11.0323-1.6252,259.2222,259.2222,0,0,0-30.28-.354c-11.3249.3765-22.6374,1.1055-33.932,2.0035q-14.2641,1.1341-28.4965,2.6309-4.604.4806-9.2039.9987a30.1522,30.1522,0,0,0-4.3377.5023,1.3954,1.3954,0,0,1-.1883.0227l1.5374,1.5373.7642-12.1488,1.8184-28.9095,2.206-35.0706,1.9071-30.3185.6268-9.9647c.0993-1.5791.2919-3.1836.3-4.7667,0-.0685.0087-.1377.013-.2061.1243-1.976-2.9509-1.9686-3.0748,0l-.7641,12.1489-1.8185,28.9094-2.206,35.0706-1.9071,30.3185-.6267,9.9647c-.0994,1.5792-.292,3.1837-.3,4.7667,0,.0685-.0086.1377-.0129.2061a1.54,1.54,0,0,0,1.5373,1.5374c3.6353-.4411,7.2764-.8377,10.9176-1.2267q13.3417-1.4253,26.7134-2.5522c11.1347-.9344,22.2857-1.7108,33.45-2.1861,10.36-.4412,20.7669-.6916,31.1277-.1283a95.2274,95.2274,0,0,1,11.6086,1.2089,38.6939,38.6939,0,0,1,4.5076,1.0543c.6095.1868,1.2107.397,1.8022.6348.2436.0978-.2476-.1179.1356.06.1114.0517.2235.1018.3342.1551.2545.1225.5058.2521.7506.3931.2136.1229.418.2578.6247.3916.4926.3189-.0627-.08.2944.2258a1.551,1.551,0,0,0,2.5695-1.4957c-3.5228-17.3143-7.4911-34.5406-11.4547-51.7581q-6.4882-28.1832-13.1983-56.3147-2.33-9.8057-4.6791-19.6068c-.6509-2.7158-1.1553-5.5252-1.97-8.1982a30.7057,30.7057,0,0,0-2.8594-6.0224,20.9443,20.9443,0,0,0-4.3411-5.5517c-3.4385-2.949-7.3708-3.3392-11.719-3.0982-4.0257.2231-8.0982.1175-12.1286.176l-40.2387.5841-.8532.0124c-1.9768.0287-1.9826,3.1035,0,3.0748Z"/><path d="M669.9221,538.77c-1.6953-3.8351-3.7-7.6736-4.8476-11.7177a30.2932,30.2932,0,0,1-.7191-13.4543c.1753-.9974.3665-1.9921.55-2.9879l2.5245-13.662a87.1542,87.1542,0,0,0,1.8629-13.0647c.1922-6.1177-1.1593-12.0276-2.3228-17.9865-.3788-1.94-3.343-1.1188-2.9649.8174.9559,4.896,2.1222,9.7849,2.2257,14.7936.0986,4.7653-.788,9.3314-1.6468,13.979l-2.58,13.9607c-.1912,1.0346-.3877,2.0684-.5736,3.104a34.4171,34.4171,0,0,0,.06,12.7333c1.0286,5.2606,3.6217,10.1638,5.7758,15.037.7984,1.806,3.4485.2432,2.655-1.5519Z"/><path class="cls-3" d="M711.6916,387.16l58.6381-14.869c-1.9075-4.9544-15.9547-23.9258-17.5258-29.7134-2.8737-10.5864-4.6377-29.9592-5.1278-38.1476l-45.2087,9.4487"/><path d="M712.1,388.6426l19.8991-5.0458,31.45-7.9749,7.2888-1.8483a1.5453,1.5453,0,0,0,1.0738-1.8911c-1.3352-3.3855-3.5695-6.4676-5.5328-9.5063-2.7235-4.2154-5.5136-8.3908-8.1166-12.6826-1.0485-1.729-2.0811-3.4768-2.9729-5.2929a22.3577,22.3577,0,0,1-1.5759-4.9493,167.5749,167.5749,0,0,1-2.817-17.5767c-.6806-5.7978-1.2311-11.6171-1.5835-17.4445a1.5626,1.5626,0,0,0-1.9461-1.4824l-15.2839,3.1943-24.35,5.0892-5.5747,1.1652c-1.9357.4045-1.1165,3.3691.8174,2.9649L718.16,312.167l24.35-5.0892,5.5748-1.1651-1.9461-1.4825a245.95,245.95,0,0,0,4.01,33.4934,35.8775,35.8775,0,0,0,1.5524,6.1617,38.5659,38.5659,0,0,0,2.5195,4.9883c2.4853,4.3133,5.2507,8.4638,7.9638,12.6352,1.4228,2.1875,2.8491,4.3741,4.2151,6.5978.5412.8809,1.0747,1.7675,1.5755,2.6721.1926.3477.3814.6977.5588,1.0534q.1141.229.2226.4607c.1548.33.034.0635.0906.2071l1.0738-1.8912-19.8991,5.0459-31.45,7.9749-7.2888,1.8482c-1.9168.4861-1.1046,3.4523.8174,2.9649Z"/><path d="M771.7256,372.1633c3.92-1.0642,5.1123-10.93,4.433-22.2778l-18.0349,8.412C761.3316,367.5475,767.5708,373.291,771.7256,372.1633Z"/><path d="M772.1343,373.6458c3.26-.9833,4.3714-4.9595,4.9346-7.9154a64.9045,64.9045,0,0,0,.6271-15.8449,1.56,1.56,0,0,0-2.3134-1.3275l-15.797,7.3683-2.2378,1.0438a1.5394,1.5394,0,0,0-.7065,1.7361A29.7114,29.7114,0,0,0,763.6785,370.4c2.2126,2.1192,5.27,4.0361,8.4558,3.2459,1.9195-.4762,1.1064-3.4422-.8174-2.965a3.9449,3.9449,0,0,1-2.5321-.367,11.3485,11.3485,0,0,1-3.3237-2.475,26.8493,26.8493,0,0,1-5.8549-9.95L758.9,359.625l15.797-7.3683,2.2378-1.0437-2.3133-1.3275A65.5975,65.5975,0,0,1,774.26,364.02a18.62,18.62,0,0,1-1.2087,4.599,6.224,6.224,0,0,1-.8476,1.4283,2.3213,2.3213,0,0,1-.4277.41,1.2885,1.2885,0,0,1-.4594.2234C769.4274,371.2508,770.2326,374.2194,772.1343,373.6458Z"/><line class="cls-3" x1="570.0249" y1="755.4393" x2="574.6623" y2="757.3366"/><path d="M569.6162,756.9218l4.0587,1.6605.5787.2367a1.54,1.54,0,0,0,1.1847-.155,1.5372,1.5372,0,0,0,.5515-2.1034,1.8038,1.8038,0,0,0-.9188-.7065l-4.0587-1.6605-.5787-.2367a1.54,1.54,0,0,0-1.1846.155,1.5372,1.5372,0,0,0-.5515,2.1034,1.8035,1.8035,0,0,0,.9187.7065Z"/><path class="cls-3" d="M530.1947,734.5589s3.5954,2.2667,2.0808,7.3938"/><path d="M529.4188,735.8863c.0523.0333.1.0726.1515.1074-.5319-.3625-.0992-.0764.0754.0865a5.8382,5.8382,0,0,1,.4852.512c.0471.056.0906.1155.1384.1708-.355-.4111-.1441-.1868-.0665-.0769q.1356.1923.2561.3949.13.2184.2413.4474c.055.1132.17.4479-.0076-.0393.0341.0938.074.1856.1076.28.1394.39.1942.7884.2945,1.1873-.12-.4751-.0157-.1-.0051.0363q.0145.1867.0189.374c.0055.2312-.0006.4627-.0169.6934a1.499,1.499,0,0,1-.041.4186q.0476-.3444.008-.084-.0183.111-.0393.2216c-.06.3132-.1378.6218-.2263.928a1.5378,1.5378,0,0,0,2.9649.8174,8.246,8.246,0,0,0-2.0374-8.5458,5.9627,5.9627,0,0,0-.75-.5842,1.5509,1.5509,0,0,0-2.1034.5515,1.57,1.57,0,0,0,.5516,2.1034Z"/><path class="cls-3" d="M523.8741,735.5543s3.5954,2.2667,2.0808,7.3938"/><path d="M523.0982,736.8818c.0524.0332.1.0725.1515.1074-.5318-.3626-.0991-.0764.0755.0865a5.85,5.85,0,0,1,.4851.5119c.0471.0561.0906.1155.1384.1709-.355-.4112-.144-.1869-.0665-.0769q.1358.1923.2561.3948.13.2185.2413.4474c.055.1133.17.4479-.0076-.0392.0342.0938.0741.1855.1077.28.1393.3905.1942.7885.2944,1.1873-.1194-.4751-.0157-.1-.005.0364q.0146.1866.0188.374.0082.3468-.0169.6934a1.4952,1.4952,0,0,1-.041.4186q.0476-.3444.008-.084-.0182.111-.0393.2216c-.06.3132-.1378.6217-.2262.9279a1.5378,1.5378,0,1,0,2.9649.8174A8.2461,8.2461,0,0,0,525.4,734.811a5.971,5.971,0,0,0-.75-.5842,1.551,1.551,0,0,0-2.1034.5516,1.57,1.57,0,0,0,.5515,2.1034Z"/><path class="cls-3" d="M518.64,734.9121s3.5954,2.2667,2.0808,7.3938"/><path d="M517.8641,736.24c.0523.0332.1.0725.1515.1074-.5319-.3626-.0991-.0765.0754.0865a5.8511,5.8511,0,0,1,.4852.5119c.0471.056.0906.1155.1384.1709-.355-.4112-.1441-.1869-.0665-.077q.1358.1924.2561.3949.13.2185.2413.4474c.055.1133.17.4479-.0076-.0392.0342.0938.0741.1855.1077.28.1393.3905.1941.7885.2944,1.1873-.12-.4751-.0157-.1-.0051.0364q.0147.1866.0189.374c.0055.2312-.0006.4627-.0169.6934a1.4983,1.4983,0,0,1-.041.4185q.0476-.3443.008-.084-.0183.1111-.0393.2217c-.06.3131-.1378.6217-.2263.9279a1.5378,1.5378,0,1,0,2.9649.8174,8.2458,8.2458,0,0,0-2.0374-8.5458,5.972,5.972,0,0,0-.75-.5842,1.5509,1.5509,0,0,0-2.1034.5516,1.57,1.57,0,0,0,.5516,2.1034Z"/><path d="M734.5,566.048,725.1461,599.59l-1.3451,4.8233a1.5387,1.5387,0,0,0,2.9649.8174l9.3537-33.5422,1.345-4.8233a1.5387,1.5387,0,0,0-2.9649-.8174Z"/><path class="cls-4" d="M702.4473,313.9856a27.6648,27.6648,0,1,1-55.0068,5.9674Z"/><path d="M700.91,313.9856a26.1369,26.1369,0,0,1-51.9321,5.9674l-1.5373,1.5374,18.5785-2.0155,29.62-3.2133,6.8087-.7387c1.9463-.2111,1.9679-3.2882,0-3.0747l-18.5785,2.0155-29.62,3.2133-6.8087.7386c-.751.0815-1.64.6418-1.5374,1.5374a29.19,29.19,0,0,0,53.2945,13.2756,29.2345,29.2345,0,0,0,4.7871-19.243C703.7856,312.0362,700.7087,312.0157,700.91,313.9856Z"/><polyline class="cls-4" points="690.519 320.392 686.547 285.726 658.154 299.844 659.381 322.733"/><path d="M692.0564,320.3922l-3.4839-30.4047-.4883-4.2614a1.5619,1.5619,0,0,0-2.3133-1.3274l-24.8783,12.37-3.515,1.7477a1.5044,1.5044,0,0,0-.7614,1.3275l1.0743,20.0285.1535,2.86c.1055,1.9682,3.1809,1.9806,3.0747,0l-1.0744-20.0285-.1534-2.8605-.7614,1.3275,24.8783-12.37,3.515-1.7477-2.3133-1.3275,3.4839,30.4048.4883,4.2613c.2226,1.9432,3.3,1.9658,3.0747,0Z"/><path class="cls-4" d="M687.93,297.694c15.733-14.7105,9.2871-27.4552,9.313-37.1419.015-5.6248-8.4707-17.036-8.4707-17.036l-46.7745-8.5555-9.5886,15.9058s-17.0215,65.3485,36.6723,50.98"/><path d="M689.0168,298.781c4.683-4.4219,8.6186-9.7813,10.1938-16.114,1.1617-4.67.93-9.4354.3322-14.1648-.2577-2.0387-.567-4.0753-.7007-6.1273a20.6657,20.6657,0,0,0-.8819-5.861,52.595,52.595,0,0,0-6.4791-11.8213c-.5543-.8087-1.312-2.3245-2.3-2.6589a7.3439,7.3439,0,0,0-1.01-.1847l-6.9531-1.2718-22.91-4.1905-15.9014-2.9085a1.5986,1.5986,0,0,0-1.7362.7065l-5.4982,9.1207L631.89,248.75a9.0137,9.0137,0,0,0-.9821,1.7826,59.5684,59.5684,0,0,0-1.9357,10.9542,72.1818,72.1818,0,0,0,.1414,20.5806c1.1472,6.8624,3.9395,13.8395,9.5418,18.2589,7.4215,5.8545,17.4006,5.8189,26.2614,4.0706,1.5366-.3031,3.06-.6663,4.5736-1.068a1.5387,1.5387,0,0,0-.8174-2.9649c-8.5293,2.2634-18.7641,3.61-26.5528-1.323-5.5373-3.5069-8.3987-9.68-9.7229-16.082a65.6621,65.6621,0,0,1-.54-19.7937q.11-1.0527.242-2.1027c.0791-.6277.1165-.9089.2409-1.7483q.26-1.75.5805-3.49c.2578-1.3955.5846-2.7729.8745-4.161a2.2608,2.2608,0,0,0,.0842-.34c0-.0142-.2987.5058-.0029.0873.8737-1.2359,1.5844-2.6283,2.3654-3.9238l6.6135-10.9707.47-.7794-1.7362.7065,15.7847,2.8872,25.1808,4.6058,5.809,1.0625-.9187-.7065c1.4117,1.9021,2.7172,3.8929,3.9454,5.9173,1.7677,2.9136,4.1327,6.5294,4.3076,10.0427.3543,7.1163,2.299,14.3727.5847,21.4464-1.431,5.9053-5.0829,10.7945-9.44,14.9084-1.4418,1.3613.7353,3.5328,2.1741,2.1741Z"/><path d="M651.7669,263.9982a6.7988,6.7988,0,0,1,.8039-.5029c.3-.1661.6094-.31.9208-.4534-.38.1751-.0678.028.0245-.0075.1053-.04.21-.0809.3165-.119q.34-.1222.6881-.2229.3751-.1083.7573-.19.167-.0357.3349-.0661c.0463-.0085.4569-.0727.2828-.0491-.1712.0233.251-.0249.3014-.0293q.1863-.0162.3732-.0259.4659-.0237.933-.0057a6.8387,6.8387,0,0,1,1.77.2642,9.8849,9.8849,0,0,1,1.9827.7394,1.5755,1.5755,0,0,0,2.1034-.5515,1.5523,1.5523,0,0,0-.5515-2.1034,12.513,12.513,0,0,0-8.86-1.0148,10.9807,10.9807,0,0,0-3.7333,1.6834,1.5863,1.5863,0,0,0-.5515,2.1034,1.548,1.548,0,0,0,2.1034.5516Z"/><path d="M632.1062,264.7419c.1105-.059.225-.11.3387-.1623.2326-.1068-.19.0684.1136-.0443.2232-.0829.4462-.1644.6728-.2376a13.4244,13.4244,0,0,1,3.5941-.6452,5.2325,5.2325,0,0,1,5.3459,3.1783c.77,1.9621.0969,4.3271-.6951,6.1791a18.9124,18.9124,0,0,1-2.2674,3.8441,3.9929,3.9929,0,0,0-1.1246,2.021,4.459,4.459,0,0,0,.1028,1.5469c.7516,2.8794,4.189,2.6417,6.4688,2.2368a1.5507,1.5507,0,0,0,1.0738-1.8912,1.5718,1.5718,0,0,0-1.8911-1.0738,7.0311,7.0311,0,0,1-2.4947.0824c-.0389-.0135-.3936-.2623-.1716-.1.1233.09.0467-.07.0238.0731.0434-.27-.0782-.5237-.0253-.975l-.45,1.0871c3.3528-4.0684,7.03-10.9076,3.3373-15.91a8.4386,8.4386,0,0,0-7.5629-3.3572,14.6765,14.6765,0,0,0-5.9405,1.4924c-1.7465.9318-.1951,3.587,1.5519,2.6549Z"/><circle cx="634.5872" cy="272.1005" r="1.989"/><path d="M633.3705,272.2207c-.0043-.0923.0006-.1829.0021-.275.0031-.183-.0421.1671.0007-.0091.0084-.0345.0141-.07.0225-.1041.01-.04.0382-.2263.0793-.2512l-.0368.0873q.0216-.0476.0455-.0938.036-.0693.0772-.1355c.0222-.0357.0532-.07.0721-.1077.0468-.0923-.1237.133-.0083.0131.06-.0625.1165-.1266.1814-.1846a.411.411,0,0,1,.0791-.0671l-.073.0572q.0423-.03.086-.0587c.0812-.0523.1705-.0887.2527-.1379.0909-.0544-.1764.0537-.0116.0085.0429-.0117.0848-.0275.1278-.0392s.0879-.02.1313-.0312c.1724-.0459-.1287.0056-.0146-.0009.0925-.0054.1835-.0125.2763-.0092.0255.0009.1194-.0074.1357.0093q-.1593-.0237-.0712-.0088c.0263.0043.0526.0093.0786.0151.0869.0186.1692.0473.2539.0728.17.0513-.1456-.0819.0091.0038.03.0168.062.0311.0924.0479.0431.0238.1982.0934.2184.14l-.0738-.0567c.02.0163.04.0332.059.05.0431.0424.0886.0819.13.126.0237.0252.0455.052.069.0773.12.1284-.0846-.1412.0058.01.0449.0751.0932.1465.1328.2249a.42.42,0,0,1,.0449.0953l-.0376-.0857q.0188.05.0349.1006c.0107.0341.0206.0686.0295.1031.006.0229.0647.2353.0282.1111-.0351-.1194.0024.0387.0038.0628.0022.0369.0035.0739.0037.1109,0,.0549-.0043.1093-.0058.1641-.0045.1574.0074-.0453.0084-.0437.0253.038-.0453.2123-.0594.259-.0074.0244-.03.1361-.0515.149l.0368-.0872q-.0216.0474-.0455.0938c-.04.0775-.0879.1483-.1342.2221-.0882.1406.0885-.0779.01-.0118a1.222,1.222,0,0,0-.0863.0964c-.0393.041-.1346.16-.1909.175.08-.0206.1034-.0712.03-.0273-.06.036-.1168.0754-.1784.1085-.0309.0166-.0627.0312-.0938.0473-.1575.0822.16-.0441-.0123.0024-.0779.021-.1534.0478-.2326.0648-.0737.0158-.1282.07.0157.0038a.4438.4438,0,0,1-.1384.011c-.0506.0024-.2656.0311-.3012-.0083l.0976.0134q-.0528-.0084-.105-.02-.0777-.017-.1539-.04c-.0406-.0122-.0832-.0342-.1245-.0423q-.081-.0309.0627.0276-.0476-.0215-.0939-.0455c-.0608-.0316-.2417-.1035-.2642-.1643.0009.0023.1411.1244.0341.0233-.0376-.0356-.077-.0691-.1135-.1059s-.07-.0762-.105-.1145c-.116-.1271.0842.1374-.0058-.01-.0552-.09-.107-.1783-.1558-.2721-.08-.1537.0361.1192.0066.0126-.0166-.06-.04-.1181-.0553-.1787-.009-.0349-.0158-.07-.0241-.1054q-.0222-.1279.0018.0422-.0063-.0552-.01-.1106a.7687.7687,0,0,0-1.5374,0,2.754,2.754,0,0,0,5.0049,1.4663,2.7539,2.7539,0,0,0,.0568-3.0947,2.7564,2.7564,0,0,0-5.0617,1.6284.7687.7687,0,1,0,1.5374,0Z"/><circle cx="653.2564" cy="270.2132" r="1.989"/><path d="M652.04,270.3334c-.0043-.0923.0007-.1829.0022-.275.0031-.1829-.0422.1671.0007-.0091.0083-.0345.014-.07.0224-.1041.01-.04.0383-.2263.0794-.2511l-.0368.0872q.0214-.0476.0455-.0938.0358-.0693.0771-.1355c.0222-.0357.0532-.07.0721-.1077.0468-.0923-.1236.133-.0083.0131.06-.0624.1165-.1266.1814-.1846a.4141.4141,0,0,1,.0791-.0671l-.0729.0573c.0281-.02.0568-.04.0859-.0588.0812-.0523.1705-.0887.2528-.1379.0909-.0544-.1765.0537-.0117.0085.0429-.0117.0848-.0275.1278-.0392s.0879-.02.1314-.0312c.1723-.0459-.1288.0056-.0147-.0009.0925-.0054.1835-.0125.2764-.0092.0255.0009.1193-.0074.1357.0093q-.1594-.0237-.0713-.0088.04.0065.0787.0151c.0869.0186.1691.0473.2538.0728.17.0513-.1455-.0819.0091.0038.03.0168.0621.0312.0925.0479.043.0238.1981.0934.2184.14l-.0738-.0567c.02.0163.04.0332.059.05.043.0424.0886.0819.13.126.0238.0252.0455.052.0691.0773.12.1284-.0846-.1412.0057.01.045.0751.0932.1465.1328.225a.4135.4135,0,0,1,.0449.0952l-.0375-.0857q.0187.05.0348.1007c.0108.034.0206.0685.03.103.0059.0229.0646.2353.0281.1111-.0351-.1194.0024.0387.0039.0628.0021.0369.0034.0739.0036.1109,0,.0549-.0042.1093-.0058.1641-.0045.1575.0074-.0453.0085-.0436.0252.0379-.0454.2122-.0594.2589-.0074.0245-.03.1361-.0516.149l.0368-.0872q-.0215.0476-.0455.0938c-.04.0776-.0879.1483-.1342.2221-.0882.1406.0885-.0779.01-.0118a1.2609,1.2609,0,0,0-.0863.0964c-.0392.041-.1346.1605-.1908.175.08-.0206.1033-.0712.03-.0273-.06.036-.1168.0754-.1784.1085-.0309.0167-.0627.0312-.0938.0474-.1576.0821.16-.0442-.0123.0023-.0779.021-.1535.0478-.2327.0648-.0737.0158-.1281.07.0157.0038a.4438.4438,0,0,1-.1384.011c-.05.0024-.2656.0311-.3012-.0083l.0976.0134q-.0528-.0084-.105-.02c-.0517-.0112-.1032-.0245-.1539-.04-.04-.0122-.0831-.0342-.1245-.0423q-.081-.0309.0627.0276-.0475-.0215-.0938-.0455c-.0609-.0316-.2418-.1035-.2643-.1643.0009.0024.1411.1244.0342.0233-.0377-.0355-.077-.0691-.1135-.1059s-.07-.0762-.1051-.1145c-.1159-.1271.0843.1374-.0057-.01-.0553-.09-.1071-.1783-.1559-.2721-.08-.1537.0362.1192.0067.0126-.0166-.06-.04-.1181-.0554-.1787-.009-.0349-.0157-.07-.0241-.1054q-.022-.1279.0019.0422-.0064-.0552-.01-.1106a.7687.7687,0,1,0-1.5373,0,2.7539,2.7539,0,0,0,5.0048,1.4663,2.7537,2.7537,0,0,0,.0568-3.0947,2.7563,2.7563,0,0,0-5.0616,1.6284.7687.7687,0,1,0,1.5373,0Z"/><circle cx="652.5792" cy="287.2609" r="2.5899"/><path d="M650.7628,287.4174c-.0056-.12,0-.2381.0028-.358.0058-.2179-.0395.1366.0091-.0737.01-.045.0183-.09.0293-.1355a2.6177,2.6177,0,0,1,.1033-.327c-.0614.1586.0248-.0448.0348-.064q.0466-.09.1-.1765c.03-.0478.0615-.0942.0939-.14.0728-.1034-.12.123.0255-.03.0777-.0818.1517-.1648.2362-.24.0334-.03.0678-.0594.103-.0873-.1314.1042.0477-.0278.064-.0383a2.5384,2.5384,0,0,1,.3291-.18c.1157-.0524-.1663.0449.04-.0123.0558-.0155.11-.0359.1664-.0512s.1144-.0257.171-.04c.2126-.0558-.0892.0035.0427-.01a2.6684,2.6684,0,0,1,.36-.012c.0591.0021.1178.0064.1767.0121-.1686-.0163.0507.0121.0714.0165.113.0242.2205.0606.3305.0948.2021.0629-.118-.0718.0674.0284.04.0215.0807.0405.12.0624a2.5781,2.5781,0,0,1,.2844.182c-.1181-.087.0006.0022.0277.0282.057.0545.1154.1066.1695.1641.031.0329.06.0673.09.1006.1406.1551-.0651-.12.0438.06.0592.0973.1214.1907.1729.2929.0205.0406.0408.0821.0585.124-.0659-.1566.0144.0575.02.0749.014.0444.0268.0893.0385.1343a1.67,1.67,0,0,0,.0408.1755c-.018-.1128.01.12.0091.1126.0029.048.0045.0963.0048.1444,0,.05-.0306.3793-.0048.2186a2.5917,2.5917,0,0,1-.0774.3371c-.02.0656-.0424.13-.0671.1941.0485-.1253-.0131.0221-.0348.064-.0523.101-.1136.1937-.1747.2893-.1139.1782.0594-.0645-.0235.0316-.0367.0426-.0734.0849-.1123.1255a2.4814,2.4814,0,0,1-.2485.2279c.1089-.0863.0159-.0134-.0074.0008-.0778.0471-.1521.0981-.2323.1413-.04.0216-.0814.0411-.1222.0616-.189.095.1338-.0305-.0715.0265-.1013.0281-.2.0622-.3029.0843-.0374.008-.1917.0325-.0413.0133-.06.0076-.12.0115-.18.0144a2.7461,2.7461,0,0,1-.3922-.0109c.1753.0169-.0481-.0114-.0714-.0165-.0674-.0146-.1344-.0318-.2-.0518-.0547-.0165-.1084-.0355-.1621-.0551q-.0773-.03.0261.0126-.0618-.0281-.1221-.0593a2.5857,2.5857,0,0,1-.3441-.214c.0273.02.1.0916-.0025-.0059-.0489-.0464-.1-.09-.1479-.1379s-.0913-.0991-.1368-.1491c-.1346-.1485.06.1122-.0437-.06-.0715-.1177-.141-.2312-.203-.3544-.0969-.1928.0271.0844-.0147-.039-.0261-.0771-.0518-.1538-.0721-.2327-.0117-.0455-.02-.0916-.0314-.1373q-.0228-.136-.0058-.0068-.0084-.0717-.0127-.144a.7876.7876,0,0,0-.7687-.7686.775.775,0,0,0-.7687.7686A3.3546,3.3546,0,0,0,655.31,289.21a3.36,3.36,0,0,0,.0739-3.7953,3.3572,3.3572,0,0,0-6.1581,2.0031.7848.7848,0,0,0,.7687.7687A.7762.7762,0,0,0,650.7628,287.4174Z"/><path d="M664.0331,232.3983s38.5763,4.1906,42.5339,23.0606c.9592,4.5734,1.9684,3.83.4232,9.5746a73.07,73.07,0,0,1-19.0515,32.6515l-.009.009-3.3468-18.5217c2.4554-2.3531,5.4784-10.7,5.0167-15.2672-.6975-6.8995-4.5654-8.1485-9.3845-7.6613-1.7549.1774-3.4535,1.5721-4.8734,3.5944-3.2721,5.0478-1.6855,15.9286-1.6855,15.9286l-5.6524-16.2449a9.5435,9.5435,0,0,0-13.2658-5.5038,6.2515,6.2515,0,0,0-3.5163,4.5155,9.2793,9.2793,0,0,1-.2308-10.09,14.4428,14.4428,0,0,0-11.0432,7.0157,9.5836,9.5836,0,0,1,4.1-11.7865c-6.1494,3.5872-13.3238,5.637-18.9609,13.8363-4.6121-7.1744,4.6122-17.4235,7.1744-17.936-11.274,1.5374-15.3737-9.7366-15.3737-9.7366s13.3239,5.1245,23.573,0"/><path d="M664.0331,233.9357c.2.0218.399.048.5984.0724.09.011.18.0234.2695.035.1432.0183-.3947-.0558.0373.0053.3211.0454.6421.0907.9628.1386q2.8656.4284,5.705,1.0138a89.9045,89.9045,0,0,1,16.5185,4.8934c5.2341,2.1768,10.7088,5.16,14.1843,9.7767a16.0613,16.0613,0,0,1,1.9923,3.42,39.9308,39.9308,0,0,1,1.2551,4.4749,9.4387,9.4387,0,0,1,.6718,3.4822,31.6049,31.6049,0,0,1-1.7793,6.9358,71.4918,71.4918,0,0,1-17.6061,28.423l2.5695.6784-3.3468-18.5217-.3954,1.4957a15.09,15.09,0,0,0,2.9314-4.7455,32.9779,32.9779,0,0,0,2.1121-6.5639c.8076-3.98.7419-8.9877-2.3461-12.054-2.4982-2.48-7.3394-3.0731-10.4564-1.5222-4.1938,2.0867-5.62,6.8455-6.0288,11.1456a40.9349,40.9349,0,0,0,.2916,9.6562l2.9649-.8174-4.2707-12.2737c-.534-1.5348-1.0118-3.1052-1.6292-4.61a11.2949,11.2949,0,0,0-8.6978-6.8792c-4.5818-.6726-9.78,1.6958-10.8017,6.5292l2.81-.3672a7.7619,7.7619,0,0,1-.2308-8.5386,1.5483,1.5483,0,0,0-1.3275-2.3133c-4.9306.5146-9.9767,3.2649-12.3707,7.7771l2.81.3673c-1.5826-3.7543.0079-7.8024,3.3932-10.05a1.5386,1.5386,0,0,0-1.5519-2.655c-3.2695,1.89-6.7564,3.3791-9.9694,5.3708a32.2318,32.2318,0,0,0-9.543,9.0171h2.6549c-1.9823-3.2148-.818-7.0139.9713-10.0413a20.0059,20.0059,0,0,1,2.9866-3.8954,11.99,11.99,0,0,1,1.3429-1.2089,6.4125,6.4125,0,0,1,.67-.4281c.3766-.21-.07-.0194.2851-.1039,1.6446-.3917,1.3377-3.2389-.4087-3.02a12.1747,12.1747,0,0,1-10.9026-3.9238,16.6458,16.6458,0,0,1-2.3269-3.3139c-.2093-.3859-.3961-.7806-.5835-1.1772-.1014-.2146-.1414-.1091.0324.0843l-.0618-.1512s-.0421-.1079-.0488-.1262l-1.8912,1.8911a37.632,37.632,0,0,0,8.4713,1.9928,28.4481,28.4481,0,0,0,16.2864-2.1478c1.7788-.8659.2218-3.5183-1.5519-2.6549-6.7422,3.2819-15.519,2.4689-22.3884-.155a1.5458,1.5458,0,0,0-1.8911,1.8912c2.5519,6.9476,9.3686,11.8045,16.8561,10.8653l-.4087-3.02a8.2074,8.2074,0,0,0-3.4874,2.3646,23.0426,23.0426,0,0,0-3.7826,4.9394c-2.2479,3.9291-3.3355,8.816-.8231,12.89a1.5583,1.5583,0,0,0,2.6549,0,28.94,28.94,0,0,1,9.0339-8.2751c3.0451-1.8182,6.3063-3.2351,9.3755-5.01l-1.5519-2.655a11.4691,11.4691,0,0,0-5.4761,8.5965,10.703,10.703,0,0,0,.67,4.9262c.47,1.114,2.1241,1.66,2.81.3672a12.83,12.83,0,0,1,9.7157-6.2543l-1.3274-2.3133a10.797,10.797,0,0,0,.2307,11.6424c.7073.9785,2.512,1.042,2.81-.3673.7565-3.5777,4.8306-5.005,8.1105-4.17a8.305,8.305,0,0,1,5.7609,5.314c1.38,3.8923,2.7147,7.8018,4.0719,11.7023l1.5263,4.3866a1.5388,1.5388,0,0,0,2.9649-.8174c-.0115-.08.0527.4751.001-.004-.0377-.3488-.08-.6969-.1132-1.0461q-.1532-1.5971-.1991-3.2022a25.5018,25.5018,0,0,1,.8607-8.3475,8.489,8.489,0,0,1,2.3385-3.7138,5.1837,5.1837,0,0,1,3.98-1.3563c2.3017.0126,4.297.8013,5.2757,3.01,1.2326,2.7816.8859,5.908.1623,8.7643-.6971,2.7511-1.6876,5.8829-3.4955,8.1337-.583.7258-.9844,1.1417-.8211,2.1358.08.4868.1756.9716.2633,1.4571l1.0515,5.8195,2.0047,11.094a1.5494,1.5494,0,0,0,2.5695.6783,75.1379,75.1379,0,0,0,17.156-26.2906,69.46,69.46,0,0,0,2.4227-7.5122,13.29,13.29,0,0,0,.6047-5.58c-.28-1.6058-.8609-3.199-1.249-4.7843a17.5331,17.5331,0,0,0-1.5671-4.06c-2.9309-5.4973-8.48-9.233-13.9536-11.8753a82.7871,82.7871,0,0,0-17.8408-5.9778,95.3674,95.3674,0,0,0-10.5566-1.84c-1.9643-.2146-1.9491,2.8618,0,3.0747Z"/><path d="M685.1338,260.4554a4.8066,4.8066,0,0,0-2.6327.0781,7.2481,7.2481,0,0,0-4.23,4.0027,19.0716,19.0716,0,0,0-1.5546,5.4427,1.5793,1.5793,0,0,0,1.0737,1.8911,1.5547,1.5547,0,0,0,1.8912-1.0737,24.0261,24.0261,0,0,1,.507-2.5568c.0887-.34.1867-.6771.2963-1.0107q.0759-.2313.1595-.46a2.7907,2.7907,0,0,0,.204-.5238c.0078.0136-.1567.3505-.04.0992.0266-.0571.0516-.1149.0782-.172q.0956-.2056.2-.4071c.1217-.2345.2529-.4641.3951-.6869q.0933-.1461.1929-.2881c.0282-.04.0593-.08.0866-.1206.1527-.23-.2114.2567-.0876.1109.1379-.1624.2711-.3263.42-.4789.128-.131.2641-.251.4015-.3719.2644-.2326-.3274.2244-.0442.0331.0738-.05.1458-.1021.2209-.15a4.3132,4.3132,0,0,1,.3913-.2213c.14-.07.4267-.1383-.1131.039.07-.0229.1372-.0548.2066-.0792.1234-.0433.6067-.249.7266-.1786-.016-.0094-.5209.05-.2367.0343.0542-.0031.1081-.0092.1624-.012q.1394-.0072.2789-.0036c.0863.0024.1717.0121.2577.0167.2543.0134-.5314-.1036-.1965-.025.0555.013.1121.0209.1668.0373a1.5531,1.5531,0,0,0,1.8912-1.0738,1.5688,1.5688,0,0,0-1.0738-1.8911Z"/><path class="cls-4" d="M442.3871,388.087l-20.5284-11.3511a32.2869,32.2869,0,0,1-7.7244-5.9544h0c-5.1439-5.3853-10.7251-9.3542-18.1159-10.2691l-3.0747-5.637s23.0605-30.7474,26.6477-30.2349l9.9332-1.2234a6.6249,6.6249,0,0,1,1.1024-7.092h0a6.6249,6.6249,0,0,1,10.2343.4036l4.8652,6.429a34.69,34.69,0,0,1,6.236,13.5638l1.276,5.87a24.1742,24.1742,0,0,0,11.2131,15.6107l1.596.9546"/><path d="M443.1631,386.76l-13.8019-7.6316q-3.1855-1.7616-6.3713-3.523a34.5285,34.5285,0,0,1-4.1047-2.6235c-2.2817-1.7244-4.13-3.8863-6.23-5.81a30.3243,30.3243,0,0,0-16.6366-8.1966l1.3275.7614-3.0747-5.637v1.5519q5.5644-7.4175,11.4159-14.6025c2.8382-3.4914,5.7187-6.9613,8.788-10.2534a47.1507,47.1507,0,0,1,3.5436-3.5074c.1729-.15.6188-.5171.6127-.5124-.0552.0423.37-.2664.521-.3608.1089-.0681.6038-.3594.39-.2351-.1666.0969.4736-.0746-.0745-.0072,3.3473-.4117,6.7062-.8055,10.0567-1.2181.8655-.1066,1.9048-.9157,1.4824-1.9461a5.2233,5.2233,0,0,1,2.2266-6.8023,5.1684,5.1684,0,0,1,6.325,1.3394c1.5855,1.8707,3.2131,4.2269,4.7682,6.2927a35.4257,35.4257,0,0,1,6.3064,13.9966c.8163,3.7548,1.4754,7.5164,3.177,11.0018,2.5186,5.1587,6.6181,8.75,11.4615,11.6474a1.5385,1.5385,0,0,0,1.5518-2.655,30.609,30.609,0,0,1-5.4607-3.8726,23.0106,23.0106,0,0,1-5.2136-7.345c-1.4465-3.23-1.94-6.8644-2.7043-10.2986a38.7581,38.7581,0,0,0-7.2366-15.0484l-3.2871-4.3437a10.3553,10.3553,0,0,0-4.2134-3.7206,8.2109,8.2109,0,0,0-10.6657,10.6257l1.4825-1.946c-3.2868.4048-6.5711.8586-9.8635,1.2147-2.4589.2661-4.3371,2.4093-5.9885,4.0905-6.3295,6.4438-11.8855,13.7114-17.41,20.8415-1.561,2.0147-3.1167,4.0342-4.6462,6.073a1.5192,1.5192,0,0,0,0,1.5519l2.2241,4.0774a16.0409,16.0409,0,0,0,.8447,1.5487c.4926.7016,1.1271.7317,1.921.8617a24.3237,24.3237,0,0,1,2.4926.543,25.8715,25.8715,0,0,1,8.5622,4.3064c2.6532,1.9717,4.7712,4.4681,7.2229,6.6564a47.7711,47.7711,0,0,0,8.9686,5.95l10.3014,5.6961,7.4575,4.1236c1.733.9582,3.2858-1.6962,1.5519-2.655Z"/><path class="cls-4" d="M410.88,351.8007a104.58,104.58,0,0,0-31.9631-2.7125c-10.85,1.8649-9.7965,9.8015.9651,10.5373s15.1118-1.1629,27.4108,5.4991"/><path d="M411.2884,350.3182a79.3091,79.3091,0,0,0-9.9536-1.9143c-3.4892-.4885-6.996-.8346-10.5158-.9994q-3.1114-.1458-6.2282-.1037a38.8463,38.8463,0,0,0-6.4793.3768c-2.6279.49-5.5453,1.53-7.2434,3.7127a4.8244,4.8244,0,0,0-.3873,5.5859c1.3558,2.18,4.0092,3.2867,6.4211,3.7882a50.8964,50.8964,0,0,0,9.6173.6251,46.6474,46.6474,0,0,1,8.8272.6814,41.5063,41.5063,0,0,1,11.17,4.3811c1.7428.9368,3.2973-1.7167,1.5519-2.6549-5.3729-2.8881-10.91-4.9753-17.0352-5.3515-2.5716-.158-5.1515-.1159-7.726-.1928-2.7713-.0829-5.8349-.0552-8.3616-1.3664a4.363,4.363,0,0,1-1.9068-1.6242,1.5,1.5,0,0,1-.0913-1.4453c.8112-1.786,3.4-2.5929,5.2212-3.0147a29.2089,29.2089,0,0,1,5.9595-.419q2.9162-.0553,5.8323.0594c3.3287.1283,6.6538.4092,9.9565.8447a79.15,79.15,0,0,1,10.554,1.9958,1.5387,1.5387,0,0,0,.8174-2.9649Z"/><path class="cls-4" d="M410.88,340.0142s-17.084-6.3082-34.4016-8.2923c-11.0067-.2053-11.4625,7.7879-1.03,10.5311s19.9513,6.0378,37.4678,11.9525"/><path d="M411.2884,338.5317c-4.2712-1.5737-8.6616-2.8667-13.0536-4.0514-4.2231-1.1391-8.4867-2.135-12.7869-2.9375-4.2482-.7928-8.7781-1.8771-13.0858-1.0064-2.3824.4815-5.0243,1.7726-5.79,4.2711-.7267,2.37.686,4.6715,2.4893,6.1094,2.6255,2.0936,5.9,2.7741,9.0612,3.6524,2.915.81,5.8136,1.678,8.7006,2.5825,8.609,2.6969,17.1375,5.65,25.684,8.5362,1.8789.6345,2.6852-2.3342.8174-2.9649-7.2815-2.459-14.5522-4.9539-21.8649-7.3192-2.8067-.9079-5.6212-1.7923-8.45-2.63-2.7363-.8106-5.5413-1.4456-8.2545-2.3245-1.8655-.6043-4.8674-1.8667-5.2781-4.0282a1.65,1.65,0,0,1,.4506-1.4191,5.3467,5.3467,0,0,1,2.8059-1.403c3.8462-.9307,8.0945.1993,11.897.9089,4.0442.7547,8.0559,1.681,12.0321,2.7356,4.6477,1.2328,9.2935,2.59,13.8084,4.2533,1.8594.6852,2.6615-2.2854.8174-2.9649Z"/><path class="cls-4" d="M419.079,331.8149S399.2116,318.5423,382.8,312.67c-10.6714-2.7041-12.9338,4.9757-3.3994,10.02s18.0544,10.4187,33.7659,20.1635"/><path d="M419.8549,330.4874A186.83,186.83,0,0,0,386.67,312.5112c-3.4458-1.3957-7.46-2.765-11.1645-1.4479a5.023,5.023,0,0,0-3.5085,5.96c.7631,3.34,4.0633,5.6238,6.8851,7.1308q4.4025,2.3512,8.7162,4.8605C395.97,333.89,404.159,339.076,412.39,344.1817c1.6863,1.046,3.2319-1.6128,1.5519-2.6549-7.0845-4.3945-14.1441-8.8336-21.3024-13.1076-2.6865-1.604-5.3906-3.1789-8.1247-4.7-2.8175-1.568-6.1113-2.851-8.3015-5.2906a4.2609,4.2609,0,0,1-1.2985-2.77,1.8141,1.8141,0,0,1,1.1633-1.5208c2.9931-1.4588,6.7965.1384,9.5994,1.2681a165.7961,165.7961,0,0,1,20.9315,10.5348c3.9587,2.2923,7.888,4.6615,11.6939,7.2019,1.65,1.1016,3.1916-1.56,1.5519-2.655Z"/><path class="cls-4" d="M430.353,325.6654s-20.7753-19.965-35.9668-28.5122c-10.065-4.4594-13.5861,2.7309-5.0354,9.3065s16.0463,13.3052,29.8962,25.5523"/><path d="M431.44,324.5783a244.3265,244.3265,0,0,0-28.2918-23.64c-3.2744-2.306-6.761-4.9688-10.6406-6.1208-2.9393-.8729-7.1381-1.0926-8.9035,1.9927-1.75,3.0589.4563,6.6859,2.5763,8.8889a45.6969,45.6969,0,0,0,4.7151,3.902q2.0682,1.6389,4.1012,3.3214c7.892,6.5227,15.4947,13.3947,23.1631,20.1762,1.4775,1.3066,3.66-.86,2.1741-2.1741-6.6405-5.8726-13.2411-11.796-20.0031-17.5294q-3.8058-3.2269-7.7161-6.3279c-2.3812-1.8773-6.1534-4.1442-6.5346-7.484-.3128-2.74,3.3752-2.4137,5.2546-1.9022,3.6318.9884,6.9317,3.5793,9.9787,5.7135a218.6579,218.6579,0,0,1,18.1589,14.459c3.3225,2.8982,6.6132,5.844,9.7935,8.8985,1.4275,1.371,3.6047-.8,2.1742-2.1742Z"/><path class="cls-4" d="M466.0476,359.1565l-1.596-.9546a24.1742,24.1742,0,0,1-11.2131-15.6107l-1.276-5.87a34.69,34.69,0,0,0-6.236-13.5638l-4.8652-6.429a6.6249,6.6249,0,0,0-10.2343-.4036h0a6.6249,6.6249,0,0,0-1.1024,7.092l4.4156,9.9352s-7.6068,13.0115-7.8069,27.024"/><path d="M466.8235,357.829a28.373,28.373,0,0,1-7.0092-5.474,22.9057,22.9057,0,0,1-5.0933-10.1725c-1.247-5.5621-2.3165-10.9951-5.1829-16.03a57.9406,57.9406,0,0,0-4.3265-6.2054c-1.1819-1.5618-2.2928-3.235-3.5919-4.7038a8.16,8.16,0,0,0-13.9529,7.4907,37.28,37.28,0,0,0,2.4878,5.8632l2.4581,5.5309v-1.5519a59.715,59.715,0,0,0-3.9834,8.6246,56.8163,56.8163,0,0,0-4.0334,19.1754c-.0391,1.9794,3.0356,1.9793,3.0747,0,.1728-8.7419,2.9573-17.5222,7.0327-25.2194.3623-.6844.919-1.3958.7194-2.2133a14.0661,14.0661,0,0,0-.9612-2.1811l-3.3855-7.6175c-1.4919-3.3568.5041-7.4748,4.4473-7.5059,3.166-.025,4.6114,2.66,6.2943,4.8835A61.2181,61.2181,0,0,1,447.4,328.645a43.1566,43.1566,0,0,1,3.6919,11.3011c.8669,3.9877,1.844,7.8229,4.0793,11.3158a29.1864,29.1864,0,0,0,10.1,9.2221,1.5385,1.5385,0,0,0,1.5518-2.655Z"/><path class="cls-4" d="M908.5093,469.4394l18.3021,10.8969,15.1714-19.8772s7.0705,5.7427,23.7508,10.8029c10.7911,2.1776,12.6742-5.604,2.9039-10.1751-9.3859-4.3913-14.1271-7.297-22.5219-16.963q-1.1511-1.3252-2.379-2.5869l-31.7077-32.57-17.7716,9.3843-16.273,5.5342,10.225,12.9833a24.6155,24.6155,0,0,1,4.2183,14.3967"/><path d="M907.7334,470.7669l18.3021,10.8969a1.5827,1.5827,0,0,0,2.1034-.5515l13.2623-17.376,1.9091-2.5013-2.4146.3111a38.0328,38.0328,0,0,0,6.0416,3.8032c2.5356,1.3549,5.1543,2.5454,7.81,3.6432q2.5109,1.0378,5.0735,1.9439a38.3559,38.3559,0,0,0,6.1,1.919c2.6365.4553,5.703.6213,8.1018-.7934a4.8631,4.8631,0,0,0,2.4032-5.2c-.4747-2.4293-2.4681-4.3144-4.4287-5.6478-2.6736-1.8183-5.8324-2.9375-8.6709-4.4828a54.6078,54.6078,0,0,1-14.3154-11.6542c-2.0218-2.2289-4.02-4.4553-6.1184-6.61l-16.2674-16.71c-4.4227-4.543-8.7428-9.221-13.2844-13.6457-.077-.075-.15-.1543-.2252-.2313a1.574,1.574,0,0,0-1.863-.24l-14.4389,7.6245-2.843,1.5013c-.16.0844-.3332.1595-.4861.2567.6311-.4012.1395-.0769-.144.0195l-8.3322,2.8337-7.4332,2.5279a1.563,1.563,0,0,0-.6784,2.57l6.6258,8.4132q1.6564,2.1031,3.3129,4.2065.13.1644.2593.3292c-.0156-.02-.3138-.4724-.0737-.08.4225.6908.86,1.3617,1.2364,2.0815a23.1179,23.1179,0,0,1,2.6323,11.3422c-.0543,1.9793,3.02,1.9778,3.0748,0a24.9055,24.9055,0,0,0-4.6882-15.5087c-2.3962-3.087-4.8364-6.141-7.2543-9.2111l-2.9511-3.7473-.6784,2.57,15.236-5.1815a25.1,25.1,0,0,0,3.664-1.7009l8.9161-4.7082,6.5958-3.483-1.8631-.24,10.3811,10.6634,16.9158,17.3758q2.1232,2.181,4.2464,4.3619c3.8427,3.9549,7.2449,8.264,11.5456,11.7611a49.3735,49.3735,0,0,0,6.769,4.6279c2.64,1.5,5.4443,2.6592,8.112,4.0973,1.7349.9352,4.2859,2.54,4.55,4.7376a1.56,1.56,0,0,1-.51,1.3729,4.2833,4.2833,0,0,1-2.3139.9579c-3.4325.5323-6.834-.9145-9.9986-2.0385a95.1827,95.1827,0,0,1-8.9039-3.6455,57.01,57.01,0,0,1-8.6-4.9086c-.4407-.3122.0416.0406-.0647-.0453a1.575,1.575,0,0,0-2.4145.3111l-13.2623,17.376-1.9092,2.5013,2.1034-.5515-18.3021-10.897a1.5385,1.5385,0,0,0-1.5518,2.655Z"/><path class="cls-4" d="M932.2781,467.8784s13.8282,11.8505,29.3778,19.7274c10.25,4.0165,13.4542-3.32,4.625-9.5171s-12.5744-8.4966-24.9024-21.6845"/><path d="M931.191,468.9655c3.0722,2.6294,6.3156,5.0774,9.585,7.4534,3.2076,2.331,6.4869,4.565,9.8455,6.6728q2.8461,1.7862,5.7726,3.44a33.9547,33.9547,0,0,0,6.0337,2.98c2.7152.8778,6.2632,1.394,8.6974-.4809,2.1423-1.65,2.159-4.4152,1.0977-6.7-1.4267-3.0715-4.3527-5.0016-7.0334-6.8766-2.1148-1.4791-4.2338-2.9555-6.2834-4.5248-6.01-4.6015-11.2813-10.0995-16.4406-15.612-1.355-1.4478-3.5259.73-2.1741,2.1742a154.3322,154.3322,0,0,0,14.2534,13.8712c1.789,1.4747,3.64,2.8732,5.5224,4.2265,2.171,1.5609,4.5286,2.9681,6.5679,4.6969,1.37,1.1619,3.9144,3.71,3.1605,5.6153-.7849,1.9834-4.2311,1.3049-5.8009.871a26.2607,26.2607,0,0,1-5.6642-2.68q-2.6613-1.4861-5.253-3.0925c-3.2242-1.9924-6.3749-4.1037-9.4593-6.3062-3.5069-2.5042-6.9771-5.0985-10.253-7.9022-1.4958-1.28-3.68.885-2.1742,2.1742Z"/><path class="cls-4" d="M922.7677,469.2s14.0456,19.3286,27.4109,30.5182c9.0758,6.23,13.8565-.1916,6.6575-8.2246s-13.3326-16.0236-24.7-30.6041"/><path d="M921.44,469.976a189.8573,189.8573,0,0,0,24.3043,27.8782c2.9464,2.7205,6.1854,5.56,10.3807,5.8788a5.0383,5.0383,0,0,0,5.6811-4.3415c.4574-3.724-2.1527-7.0366-4.4647-9.6363q-3.2241-3.6253-6.3016-7.3774c-6.0955-7.3982-11.9239-15.0162-17.8169-22.5753a1.5472,1.5472,0,0,0-2.1742,0,1.5745,1.5745,0,0,0,0,2.1741c5.0267,6.448,10.0173,12.9266,15.1459,19.2942q2.9126,3.6163,5.9194,7.1554c2.1156,2.4754,4.8622,4.8789,6.1441,7.9193.7227,1.7141.9841,4.1471-1.3756,4.3286-3.573.2747-6.7189-2.913-9.1033-5.1232A174.6212,174.6212,0,0,1,932.12,478.66c-2.7618-3.3383-5.4759-6.7309-8.0251-10.2359-1.1526-1.5847-3.8215-.0521-2.655,1.5519Z"/><path class="cls-4" d="M877.4994,427.5846l7.3656,5.7891a24.1743,24.1743,0,0,1,7.3293,17.7681l-.1057,6.0059L889.958,480.18a6.5249,6.5249,0,0,0,5.649,7.07h0a6.5247,6.5247,0,0,0,6.83-3.8648l7.689-17.66"/><path d="M876.4123,428.6717l6.5237,5.1274a21.2946,21.2946,0,0,1,7.1506,11.8469c.8418,3.6039.5661,7.4054.472,11.0791-.0413,1.6157-.2677,3.2361-.4164,4.8445-.5633,6.09-1.1565,12.1772-1.69,18.2695a8.148,8.148,0,0,0,6.7461,8.8933c4.0665.6265,7.3555-1.79,8.919-5.3808l7.3365-16.85c.7821-1.7962-1.8661-3.3635-2.6549-1.5519l-6.5244,14.9851c-1.0573,2.4283-1.9368,5.2335-4.9556,5.7636a5.0475,5.0475,0,0,1-5.4578-2.9462,6.4175,6.4175,0,0,1-.3052-3.2262l1.6794-18.1552c.4569-4.9394.9339-10.0781.1235-14.9945a25.4057,25.4057,0,0,0-3.2425-8.8135,20.3563,20.3563,0,0,0-4.5588-5.586l-6.971-5.479c-1.5388-1.2094-3.7294.9519-2.1742,2.1742Z"/><path class="cls-4" d="M921.7305,467.1045c10.668,15.1,17.5365,25.509,24.349,33.8722s1.7346,14.5529-7.0376,7.9017c-12.8232-11.8068-28.46-36.0085-28.46-36.0085l-7.4448-12.32"/><path d="M920.403,467.88c6.47,9.1617,12.7182,18.4929,19.4092,27.4964q1.9966,2.6866,4.0744,5.3124c1.47,1.85,3.0472,3.7055,3.6389,6.0506.2912,1.1543.3365,2.7175-.8851,3.2456-1.5953.69-3.753-.4505-5.0747-1.2451a26.62,26.62,0,0,1-5.281-4.7539c-1.6584-1.7457-3.2578-3.5472-4.8174-5.3815-3.1595-3.7162-6.1611-7.5643-9.0662-11.4818-3.597-4.8508-7.1475-9.7809-10.3929-14.8775-2.6075-4.095-5.0323-8.3167-7.5432-12.4719-1.0221-1.6915-3.682-.1477-2.655,1.5519,2.4825,4.1081,4.8968,8.2662,7.4511,12.33,3.1846,5.0669,6.731,9.9455,10.2878,14.753,3.1217,4.2195,6.3435,8.3715,9.7443,12.3706,1.6313,1.9183,3.3054,3.8015,5.0461,5.6214a28.3072,28.3072,0,0,0,5.6746,4.9948c3.25,1.9478,8.8351,3.2009,10.4567-1.4445,1.6173-4.6329-2.5622-9.0689-5.1493-12.3733-7.88-10.0643-14.8936-20.8133-22.2633-31.249-1.1326-1.6037-3.8-.0693-2.655,1.5519Z"/><path class="cls-4" d="M888.2093,436.8688,787.2458,350.0027l-6.4617,1.9433-22.711,6.83a167.37,167.37,0,0,1-5.2692-16.1987c-2.8737-10.5864-6.47-22.9342-5.2185-37.8076l23.5618-3.8657,16.13-2.23c21.7665-2.7063,28.69.9729,51.8389,27.8778L916.81,414.1266"/><path d="M889.2964,435.7817,874.503,423.0539l-33.0391-28.426L807.1907,365.14c-6.1648-5.304-12.3-10.6446-18.4954-15.9129-.118-.1-.2306-.2129-.3549-.3053-1.1319-.8421-2.4784-.1086-3.6874.255l-5.8512,1.76-19.433,5.8447-1.7044.5126,1.8912,1.0737A210.0824,210.0824,0,0,1,751.71,332.374a87.3905,87.3905,0,0,1-2.5876-27.6038l-1.1287,1.4825,20.6721-3.3917c5.9143-.97,11.8646-1.7146,17.8011-2.5352,1.5827-.2188,2.7608-.3571,4.4948-.5205a64.9112,64.9112,0,0,1,7.3348-.3283,29.6555,29.6555,0,0,1,12.0548,2.581,47.1874,47.1874,0,0,1,12.1012,8.76c5.5054,5.1891,10.4508,10.9346,15.4136,16.6328,1.7986,2.0652,3.6327,4.1,5.45,6.1489l13.4938,15.21,17.7456,20.0024L892.7772,389.35l14.9287,16.8272,7.6691,8.6444.3474.3917c1.3159,1.4832,3.4839-.6979,2.1742-2.1742l-5.4217-6.1112-13.6491-15.3848-17.953-20.2362L862.54,350.6425,847.8013,334.03q-3.6822-4.15-7.3644-8.3009c-7.2732-8.2415-14.3931-17.1611-23.5419-23.4392a32.3044,32.3044,0,0,0-12.1078-5.2318,49.3957,49.3957,0,0,0-14.11-.3c-6.67.648-13.3458,1.6639-19.9695,2.6692-7.08,1.0746-14.1385,2.32-21.2054,3.4791l-2.3261.3817a1.5583,1.5583,0,0,0-1.1286,1.4824c-1.1563,14.3178,2.3054,28.2931,6.3222,41.9223q1.8646,6.3267,4.22,12.4927a1.5692,1.5692,0,0,0,1.8911,1.0738l22.7166-6.8322,6.4561-1.9417-1.4958-.3954,10.02,8.6211L820.34,380.4987l29.1408,25.0719,25.2609,21.7338c4.069,3.5008,8.0908,7.0673,12.212,10.5068.0567.0474.1121.0965.1681.1447,1.493,1.2844,3.6773-.881,2.1742-2.1742Z"/><ellipse class="cls-1" cx="242.794" cy="645.6944" rx="130.1639" ry="92.4984"/><path d="M371.4205,645.6944c-.0453,20.2109-9.69,38.6985-23.8323,52.7259-16.5095,16.3752-38.2421,26.9184-60.5775,32.7109a178.2159,178.2159,0,0,1-79.6422,2.03c-23.1051-4.6919-45.8463-14.1754-63.85-29.6487-15.065-12.9476-26.8018-30.555-28.9671-50.6594-2.1479-19.9426,5.2865-39.2595,18.222-54.2821,14.84-17.2351,35.4676-28.8587,56.9357-35.7448a176.7785,176.7785,0,0,1,79.0585-6.2463c23.9163,3.4988,47.5333,11.89,67.0774,26.3311,16.2154,11.9814,29.6337,28.7393,34.05,48.7361a65.7479,65.7479,0,0,1,1.5254,14.0476,1.5383,1.5383,0,0,0,3.0748,0,71.04,71.04,0,0,0-6.4335-29.1168A87.2487,87.2487,0,0,0,350.2191,591.25a119.0959,119.0959,0,0,0-27.2916-20.2079,153.1249,153.1249,0,0,0-34.7235-13.6515,178.6583,178.6583,0,0,0-40.3489-5.6635,182.91,182.91,0,0,0-41.11,3.4966,160.3028,160.3028,0,0,0-36.2327,11.84A127.6559,127.6559,0,0,0,141.2193,585.81a94.1489,94.1489,0,0,0-20.3379,24.2161,73.1934,73.1934,0,0,0-9.3885,28.3621,68.7473,68.7473,0,0,0,3.3076,29.565,82.2234,82.2234,0,0,0,15.2868,26.439,110.5761,110.5761,0,0,0,25.3146,21.6761,145.3592,145.3592,0,0,0,33.1275,15.3426,173.461,173.461,0,0,0,39.0261,7.6917,185.1127,185.1127,0,0,0,41.63-1.2707,165.1593,165.1593,0,0,0,37.5983-9.9241A135.9,135.9,0,0,0,337.94,710.73a102.6048,102.6048,0,0,0,22.7513-23.0573,76.0725,76.0725,0,0,0,12.2322-27.4015,69.7616,69.7616,0,0,0,1.5722-14.5765A1.5383,1.5383,0,0,0,371.4205,645.6944Z"/><path class="cls-2" d="M630.211,232.3983s62.0072,9.2243,76.356,37.9218c7.1744-12.8114,4.6121-20.4982-4.1-27.6726-2.9382-2.42-18.5942-11.9466-33.31-16.3986-11.8243-3.5773-23.2135-6.6913-32.84,1.05C633.24,229.7746,633.7982,229.3236,630.211,232.3983Z"/><path d="M629.8023,233.8808a184.0724,184.0724,0,0,1,21.58,4.76c13.5873,3.7386,27.3011,8.6677,39.01,16.6648,6.003,4.1,11.5345,9.23,14.8469,15.791a1.549,1.549,0,0,0,2.655,0c3.5985-6.493,6.0948-14.0909,2.691-21.1877-2.498-5.2083-7.2635-8.8208-12.0676-11.7609a140.7449,140.7449,0,0,0-21.7118-10.8413,121.9235,121.9235,0,0,0-13.041-4.2233,52.83,52.83,0,0,0-12.8244-2.1214,24.0689,24.0689,0,0,0-13.3347,3.53,76.6944,76.6944,0,0,0-8.4821,6.82c-1.5046,1.29.6788,3.4563,2.1742,2.1741,2.1281-1.8246,4.2356-3.7012,6.4777-5.3871a20.2333,20.2333,0,0,1,10.8548-4.0061,39.19,39.19,0,0,1,11.6578,1.2778,120.3625,120.3625,0,0,1,12.2855,3.6208,131.2519,131.2519,0,0,1,21.5239,10.1109c2.2058,1.27,4.4049,2.5795,6.4872,4.0463a27.1572,27.1572,0,0,1,5.566,5.3905,14.3665,14.3665,0,0,1,3.0413,8.94c-.0772,4.29-1.9086,8.3774-3.9528,12.0657h2.655c-6.3518-12.5809-19.9011-20.3386-32.3515-25.75a189.2953,189.2953,0,0,0-36.9585-11.4025c-2.6414-.5492-5.2955-1.0773-7.9648-1.4753C628.684,230.6273,627.8489,233.59,629.8023,233.8808Z"/><path class="cls-1" d="M63.53,531.6729c-7.6868-.5125-8.7117,35.8719-7.1744,67.6442,0,0,14.8613-7.1744,33.31,0l23.0605-24.5979S98.3774,534.2352,63.53,531.6729Z"/><path d="M63.53,530.1355c-2.3842-.1084-3.997,1.9851-4.9039,3.9339a37.3981,37.3981,0,0,0-2.6754,10.282c-1.6328,10.9-1.79,22.0362-1.7357,33.0368.0364,7.3129.2527,14.6245.6033,21.9289a1.5587,1.5587,0,0,0,2.3133,1.3275q.0981-.0471.198-.0907c.4546-.1983-.168.06.2133-.0911.6189-.2452,1.2424-.4764,1.8743-.6863A42.1527,42.1527,0,0,1,66.35,598.132,45.1783,45.1783,0,0,1,89.2569,600.8a1.5032,1.5032,0,0,0,1.4958-.3954l20.1633-21.5076,2.8972-3.09a1.533,1.533,0,0,0,.3954-1.4958,75.8631,75.8631,0,0,0-7.1593-14.3381c-5.7853-9.3333-13.3714-17.8518-22.9292-23.4253a48.13,48.13,0,0,0-20.59-6.4116c-1.9733-.152-1.9635,2.9235,0,3.0748,12,.9246,22.6594,6.9085,30.9367,15.4482a80.7021,80.7021,0,0,1,14.79,21.8088q.4846,1.0282.9405,2.07c.0592.1354.1173.2713.1762.4068.11.2526.1366.3219.0641.1485q.1446.3459.2862.6932c.18.4444.3591.89.52,1.3422l.3953-1.4958L91.4757,595.14l-2.8972,3.09,1.4958-.3953a48.2441,48.2441,0,0,0-24.2381-2.7128A35.7764,35.7764,0,0,0,55.58,597.99l2.3133,1.3274c-.5736-11.95-.8259-23.9338-.4193-35.8936.1742-5.1237.4666-10.2521,1.0587-15.346a55.0324,55.0324,0,0,1,2.0883-10.7127,10.7169,10.7169,0,0,1,1.6585-3.46c-.1828.2334.2652-.2674.3483-.3506a2.3134,2.3134,0,0,1,.1749-.1539c-.315.2565.0657-.0285.1393-.0741.3261-.2016-.1866.0064.2472-.1.1014-.0247.3563-.0789-.0643-.009a1.9548,1.9548,0,0,1,.4054-.0076C65.5086,533.3,65.5041,530.2252,63.53,530.1355Z"/><circle cx="702.9798" cy="212.925" r="3.0747"/><path d="M704.5172,212.925c-.0012.0858-.0078.1708-.0106.2564-.0078.2483.0139-.1359.0239-.1581a3.6684,3.6684,0,0,0-.0951.4024,2.3706,2.3706,0,0,0-.0817.231c.0045-.0238.1729-.3509.0558-.1451-.0805.1413-.1586.2781-.2475.4143-.1569.24.2124-.2177.0677-.09-.0487.043-.0892.1012-.1347.1479q-.0558.0573-.1146.1117c-.1075.0995-.2871.163.0651-.0354-.1157.0652-.22.1536-.3363.2193-.0469.0264-.096.0489-.1428.0754-.2452.139.3711-.1144.0306-.0129-.1321.0394-.2608.0826-.3961.1108-.1593.0331-.2389-.03.1195-.0088-.068-.004-.143.0129-.2118.0157-.1435.006-.2842-.0038-.4273-.0116-.2087-.0114.4137.0791.1181.0131-.081-.0181-.1614-.0348-.2415-.0571s-.1556-.05-.2338-.0757c-.1363-.044-.0965-.1154.1421.0615-.1036-.0768-.2429-.1226-.3539-.193-.0562-.0356-.1088-.0791-.1658-.1131-.1672-.0994.2977.266.0922.0654a4.52,4.52,0,0,0-.3348-.3436c.2208.17.1732.2421.0937.1206-.044-.0674-.09-.1326-.1316-.2019-.0275-.046-.0539-.093-.079-.1405-.0741-.14-.0692-.3078.019.0732-.03-.1311-.093-.2576-.1261-.3895-.0135-.0537-.0239-.1078-.036-.1618-.0647-.29.0318.4061.0062.0336a3.0993,3.0993,0,0,1-.0029-.3855c.0079-.1446.0941-.3539-.0181.0732.0139-.0528.02-.11.0317-.1634.03-.1346.0744-.263.1159-.394.0919-.29-.1757.3323-.0265.0691.04-.07.0743-.143.1158-.2124.0344-.0576.0734-.1121.1089-.1689.09-.1441.1784-.1048-.071.0876.0991-.0764.182-.2036.2753-.29.0407-.0376.25-.1907.0276-.0351-.2292.16-.002.0046.0382-.0224a4.4471,4.4471,0,0,0,.4212-.2368c-.0165.0143-.3715.1345-.1421.0615.0782-.0248.1546-.0535.2338-.0757.0814-.0228.4917-.09.2025-.0559-.2965.0352.1826-.0032.2624-.0021.0714.001.1422.0074.2134.01.3031.0109-.3488-.0759-.076-.0091.1613.0395.3173.0822.4753.1328.2772.0888-.2686-.151-.1056-.044.0774.0507.169.0855.249.1333.0459.0275.0913.0562.1358.086.3344.2244-.1775-.1773.0062.0039q.1425.1406.2828.2828c.21.213-.2054-.311-.0417-.06.044.0676.09.1325.1316.2019s.0764.1419.1159.2124c.1328.2376-.1162-.3476-.0266-.0691.051.1585.0932.3135.1328.4753.0326.1328-.0376.1832-.0172-.16-.0065.11.0172.23.0187.3406a1.5374,1.5374,0,1,0,3.0747,0,4.6938,4.6938,0,0,0-3.101-4.3534,4.5946,4.5946,0,0,0-4.9864,1.33,4.6086,4.6086,0,1,0,8.0874,3.0234,1.5374,1.5374,0,1,0-3.0747,0Z"/><path d="M668.3963,226.039a55.8122,55.8122,0,0,1,19.8487-8.8717,24.1684,24.1684,0,0,1,7.4131-.4859c1.84.1913,4.5563.6573,5.7536,2.1535a8.75,8.75,0,0,1,1.42,5.0061,32.1359,32.1359,0,0,1-.4955,6.7942,61.1413,61.1413,0,0,1-2.3763,9.5538c-.6393,1.8772,2.3295,2.683,2.9649.8173a61.6889,61.6889,0,0,0,2.24-8.78c.8152-4.4617,1.592-9.8928-.5809-14.1042-2.3377-4.531-9.0761-4.9366-13.5292-4.4817a47.5275,47.5275,0,0,0-15.716,4.8954,63.369,63.369,0,0,0-8.4949,4.8478c-1.6154,1.12-.08,3.7859,1.5519,2.655Z"/><path d="M685.1484,233.2076c1.3-1.5676,2.6692-3.0813,4.0612-4.5669a63.747,63.747,0,0,1,8.3019-7.7388,13.6094,13.6094,0,0,1,4.34-2.3948,1.5387,1.5387,0,0,0-.8173-2.9649c-3.4571.9036-6.4618,3.6391-9.0315,5.985a98.7373,98.7373,0,0,0-7.5247,7.7573c-.5075.5772-1.0127,1.1572-1.5033,1.7489a1.5806,1.5806,0,0,0,0,2.1742,1.5494,1.5494,0,0,0,2.1741,0Z"/><path d="M627.6487,237.5229s-10.2491,5.637-16.911,3.0747c1.0249,3.0748,14.8612,8.1994,22.548,3.0748"/><path d="M626.8728,236.1954a31.9344,31.9344,0,0,1-5.46,2.3011c-3.2611,1.06-6.9427,1.8366-10.2661.6187a1.5461,1.5461,0,0,0-1.8912,1.8911,6.9193,6.9193,0,0,0,3.4405,3.3412,24.613,24.613,0,0,0,6.2715,2.3133c4.9588,1.1442,10.68,1.2,15.0945-1.6609,1.6547-1.0724.1152-3.7354-1.5519-2.655-3.6447,2.362-8.3408,2.3169-12.45,1.4131a22.4412,22.4412,0,0,1-5.4316-1.8639,13.3369,13.3369,0,0,1-1.6541-.9909,4.8558,4.8558,0,0,1-.66-.6136c.0133.0151-.1918-.3628-.0941-.1006L610.329,242.08c3.7217,1.3639,7.9648.6257,11.64-.535a36.2318,36.2318,0,0,0,6.456-2.6947c1.7362-.95.1863-3.6065-1.5519-2.655Z"/><path class="cls-1" d="M174.1248,594.1926C160.94,575.1905,142.3786,564.47,117.4984,564.47a73.0251,73.0251,0,1,0,54.29,121.8653"/><path d="M175.4523,593.4166c-6.8379-9.8107-15.6551-18.24-26.45-23.5529a71.9294,71.9294,0,0,0-36.0555-6.7914,74.5561,74.5561,0,1,0,59.9282,124.35c1.3249-1.4641-.8431-3.6452-2.1742-2.1741a71.384,71.384,0,1,1-31.0237-115.8855A63.19,63.19,0,0,1,167.49,588.1441a79.2072,79.2072,0,0,1,5.3069,6.8244c1.1235,1.6119,3.79.0767,2.655-1.5519Z"/><path class="cls-1" d="M134.1532,573.6943S148.502,533.21,183.349,530.648c-20.4982,13.3238-26.1352,67.6442-26.1352,67.6442"/><path d="M135.6357,574.103c.1269-.3572.2666-.71.407-1.0621q.1019-.2554.2064-.51c.0454-.1107.0915-.2211.1373-.3317a1.318,1.318,0,0,1,.0569-.1347q.3624-.8437.742-1.68a88.3516,88.3516,0,0,1,5.13-9.61c5.4365-8.8428,12.5329-16.9407,21.5075-22.3092a44.7547,44.7547,0,0,1,19.5265-6.28l-.7759-2.8648c-4.5717,3.004-8.018,7.4215-10.7793,12.0836a90.1161,90.1161,0,0,0-7.5775,17.1829,191.2167,191.2167,0,0,0-7.5753,32.47c-.3642,2.4041-.7128,4.8159-.9646,7.2349-.2047,1.966,2.8715,1.9517,3.0747,0,.0507-.4868.11-.9727.169-1.4585q.102-.8331.2131-1.665c.0512-.3863-.0276.1987.0278-.2059q.0406-.297.0819-.5941.0855-.6129.1746-1.2252.99-6.8081,2.3926-13.5485c2.4293-11.6817,5.6107-23.5742,11.2466-34.1583,2.7182-5.1048,6.1551-10.2329,11.0683-13.4613,1.1768-.7732.8469-2.99-.776-2.8648-12.5906.97-23.8474,6.9729-32.6486,15.8764a82.7771,82.7771,0,0,0-15.733,22.9035c-.8311,1.7633-1.6434,3.5564-2.2966,5.3951-.6638,1.8681,2.3059,2.6719,2.9649.8174Z"/><path class="cls-7" d="M157.2138,598.2922s0-55.3453,26.1352-67.6442c7.6869-.5125,8.7118,35.8719,7.1744,67.6442C190.5234,598.2922,175.6622,591.1178,157.2138,598.2922Z"/><path d="M158.7511,598.2922c.0019-4.3049.3375-8.6279.7668-12.9076a128.8037,128.8037,0,0,1,5.394-27.0182c2.8351-8.7066,7.1043-17.8513,14.5514-23.56a25.6587,25.6587,0,0,1,2.69-1.7943c.439-.2558.8988-.4744,1.3382-.7277a2.9305,2.9305,0,0,0,.4215-.2081c.0121-.0416-.6134.1687-.41.1038.2443-.0778.2054.0094.09-.002.3807.0376.4824.1548.788.4774a1.89,1.89,0,0,1,.4205.5065,10.2224,10.2224,0,0,1,.5773.9836c1.9454,3.7777,2.4944,8.7849,2.9862,13.0644,1.7136,14.91,1.4377,30.11.8786,45.0806q-.1121,3.0014-.2573,6.0012l2.3134-1.3275a35.78,35.78,0,0,0-10.2562-2.8678,48.2439,48.2439,0,0,0-24.2381,2.7129c-1.8293.7006-1.0352,3.6744.8173,2.9649a45.1785,45.1785,0,0,1,22.907-2.6676,42.1515,42.1515,0,0,1,6.9324,1.6445c.632.21,1.2554.4411,1.8743.6863.3676.1456-.219-.0975.2133.0911q.1.0435.1981.0907a1.5587,1.5587,0,0,0,2.3133-1.3275c.7651-15.94,1.1551-32.07-.3029-47.9832-.3593-3.9228-1.6409-24.9067-10.0278-20.5723-8.8106,4.5533-14.2636,13.5764-17.8536,22.4891-3.7415,9.2888-5.7415,19.2276-6.98,29.1342a111.913,111.913,0,0,0-1.2184,16.68c.0022.0838-.0016.1681-.0016.252A1.5383,1.5383,0,0,0,158.7511,598.2922Z"/><line class="cls-1" x1="160.1031" y1="597.2751" x2="151.0643" y2="601.367"/><path d="M159.3271,595.9476l-7.9074,3.58-1.1314.5122a1.543,1.543,0,0,0-.5515,2.1034,1.5821,1.5821,0,0,0,2.1034.5515l7.9074-3.58,1.1314-.5122a1.5431,1.5431,0,0,0,.5516-2.1034,1.5822,1.5822,0,0,0-2.1035-.5515Z"/><ellipse class="cls-7" cx="63.0168" cy="649.7941" rx="38.0168" ry="31.0036"/><path d="M99.4962,649.7941c-.0838,13.7391-11.4362,23.96-23.8705,27.6555-13.76,4.09-30.2189,1.3562-40.7-8.8668a26.7889,26.7889,0,0,1-8.281-16.4469,25.5241,25.5241,0,0,1,5.1807-17.6345c8.6-11.4927,24.5726-15.87,38.3077-13.6212,13.0174,2.1317,26.249,10.6812,28.9383,24.384a24.2216,24.2216,0,0,1,.4248,4.53,1.5383,1.5383,0,0,0,3.0747,0c-.0918-15.0621-12.269-26.445-25.9562-30.5694-14.9375-4.5012-32.8232-1.3713-44.0918,9.8317a29.9963,29.9963,0,0,0-8.9388,18.2412,28.1372,28.1372,0,0,0,5.5864,19.3411c9.4729,12.7239,26.5644,17.5207,41.78,15.0342C85.041,679.37,99.3688,669.66,102.0938,654.8393a28.8718,28.8718,0,0,0,.4771-5.0452A1.5383,1.5383,0,0,0,99.4962,649.7941Z"/><ellipse class="cls-8" cx="44.6921" cy="649.4988" rx="7.1111" ry="7.6771"/><ellipse class="cls-8" cx="72.5893" cy="649.4988" rx="7.1111" ry="7.6771"/><ellipse class="cls-8" cx="120.512" cy="610.9879" rx="3.5122" ry="3.7917"/><ellipse class="cls-8" cx="81.0791" cy="607.499" rx="3.5122" ry="3.7917"/><path d="M107.1228,600.2107a11.48,11.48,0,0,1,1.526-.8216,17.4367,17.4367,0,0,1,3.8582-1.1786,13.9751,13.9751,0,0,1,11.8474,3.7836c1.4621,1.3276,3.6429-.8405,2.1741-2.1742a17.2382,17.2382,0,0,0-14.2076-4.6733,16.7026,16.7026,0,0,0-6.75,2.4092c-1.6408,1.09-.1028,3.7539,1.5519,2.6549Z"/><path d="M67.9988,597.9878a11.4681,11.4681,0,0,1,1.526-.8216,17.43,17.43,0,0,1,3.8582-1.1786A13.9751,13.9751,0,0,1,85.23,599.7712c1.4621,1.3276,3.6429-.8406,2.1741-2.1742a17.2378,17.2378,0,0,0-14.2076-4.6733,16.7039,16.7039,0,0,0-6.75,2.4091c-1.6408,1.09-.1028,3.7539,1.5519,2.655Z"/><path class="cls-1" d="M110.7614,661.5138s3.7552-4.9723,9.8868-4.3086"/><path d="M112.0889,662.29c-.4528.5965-.1649.2128-.0434.0711.1554-.1813.3182-.3562.4855-.5265q.397-.4041.829-.7718c.1077-.0919.5894-.5467.2561-.2172a4.0164,4.0164,0,0,1,.5653-.4073,12.26,12.26,0,0,1,1.3167-.7817q.2081-.1062.42-.2042.1081-.05.2173-.0974-.2462.1023-.0888.0382c.295-.0975.5806-.2207.8784-.3121q.4335-.1331.8775-.2284.2286-.0489.4592-.0872.1-.0171.2007-.0317-.2744.0361,0,.0036a12.1393,12.1393,0,0,1,2.1853.0054,1.5421,1.5421,0,0,0,1.5373-1.5374,1.58,1.58,0,0,0-1.5373-1.5373,12.8808,12.8808,0,0,0-11.2143,5.07,1.5412,1.5412,0,0,0,.5515,2.1034,1.5844,1.5844,0,0,0,2.1035-.5515Z"/><path class="cls-1" d="M179.7193,711.5525l-35.8035,58.9741s11.2918,15.3606,29.7391,14.3143c11.2728-1.038,30.7049-48.167,46.591-48.1855l14.4377,1.36"/><path d="M178.3918,710.7766,166.2356,730.8l-19.2182,31.6555-4.4291,7.2954a1.5062,1.5062,0,0,0,0,1.5519,39.6809,39.6809,0,0,0,16.5294,12.5724,33.682,33.682,0,0,0,8.4931,2.2655c2.3427.3085,5.1632.687,7.4683-.026,2.865-.8862,5.1908-3.2452,7.1468-5.4107,6.1676-6.8281,10.9874-14.8588,16.2738-22.3574a132.7205,132.7205,0,0,1,8.6925-11.3057,33.4252,33.4252,0,0,1,8.581-7.525c2.3329-1.2835,4.0733-1.3605,6.7286-1.11l11.33,1.0673.8522.08c1.969.1855,1.9563-2.89,0-3.0747l-9.1659-.8634c-2.6957-.254-5.4583-.8333-8.12-.0881-3.3839.9473-6.2986,3.244-8.8125,5.6153a79.9913,79.9913,0,0,0-8.79,10.2108c-5.7,7.5665-10.6655,15.6628-16.4359,23.1757-1.99,2.5915-4.41,5.6051-6.8779,7.3929a12.2521,12.2521,0,0,1-1.5905.9789c-.3965.2039-.0453.0618-.4559.192a7.0174,7.0174,0,0,1-.7988.2123s.2482-.01-.1717.0087c-.44.02-.8794.0361-1.32.04q-1.1922.0109-2.3828-.069a28.7471,28.7471,0,0,1-4.416-.6479,37.1249,37.1249,0,0,1-20.0309-12.7959c-.35-.4241.0894.1285-.0717-.09v1.5519l12.1562-20.0232,19.2183-31.6555,4.429-7.2954c1.03-1.6959-1.6283-3.2429-2.6549-1.5519Z"/><path class="cls-1" d="M372.9579,645.9507c.3073,24.2741-9.2215,39.8205-16.9014,48.3785a8.5852,8.5852,0,0,0,6.4282,14.3241c15.9082-.1847,37.7954-7.5623,43.4352-2.1818,12.9123,13.2162,8.7559,31.8221,8.7559,31.8221l-67.98,11.7727s-25.978,3.39-40.87-29.297c0,0-9.7367-27.16,10.7616-54.8328"/><path d="M371.4205,645.9507c.1241,12.2733-2.2937,24.5765-8.1548,35.4348a61.4875,61.4875,0,0,1-7.259,10.67c-1.5,1.7615-2.9441,3.4343-3.4513,5.7635a10.4157,10.4157,0,0,0,.9715,7.0472,10.0157,10.0157,0,0,0,5.0571,4.5861c2.5734,1.0548,5.4333.7485,8.14.5426,6.0271-.4585,11.9943-1.5094,17.9583-2.4564,5.0886-.8079,10.3645-1.7918,15.5387-1.4311a8.7082,8.7082,0,0,1,4.3581,1.2268c2.19,1.6982,3.908,4.5668,5.2023,6.9649a35.304,35.304,0,0,1,3.9892,16.2059,42.9616,42.9616,0,0,1-.2712,5.4833,18.8792,18.8792,0,0,1-.3062,1.8966l1.0737-1.0737-24.7354,4.2836-37.0643,6.4188-4.8045.8321c-.3821.0661-.7671.1235-1.1475.1987-.5516.109.36-.001.1028-.0064-.902-.0188-1.8135.1044-2.7217.0825a29.2085,29.2085,0,0,1-5.69-.6656,38.1391,38.1391,0,0,1-16.8333-8.3011A48.7663,48.7663,0,0,1,312.5,729.64a64.7405,64.7405,0,0,1-4.0752-6.9956,21.1067,21.1067,0,0,1-1.2542-2.7019,48.7247,48.7247,0,0,1-2.1174-15.185,61.968,61.968,0,0,1,7.5154-29.667,72.0136,72.0136,0,0,1,5.3468-8.3785c1.1735-1.5955-1.4936-3.1309-2.655-1.5519-11.148,15.1562-16.1937,34.9552-11.6536,53.4365a21.8807,21.8807,0,0,0,1.6123,4.4836,62.2682,62.2682,0,0,0,8.5966,13.3549,44.1079,44.1079,0,0,0,18.5129,13.0552,35.9179,35.9179,0,0,0,12.8739,2.2057,30.9435,30.9435,0,0,0,4.534-.6033l34.8014-6.0269,30.04-5.2023.507-.0878a1.4976,1.4976,0,0,0,1.0738-1.0738A39.3759,39.3759,0,0,0,414.8,718.1964a34.3783,34.3783,0,0,0-3.67-7.6516c-1.3981-2.1528-3.1333-4.8063-5.4075-6.1191-3.5906-2.0727-8.496-1.5564-12.4293-1.1556-5.9212.6033-11.7783,1.7275-17.6623,2.6006-2.9575.4388-5.9251.8226-8.9072,1.0494-2.5249.1921-5.4026.6412-7.7134-.6519a7.1707,7.1707,0,0,1-1.72-11.0163,66.93,66.93,0,0,0,7.4692-10.2547c6.9339-11.7937,9.8729-25.444,9.7355-39.0465a1.5383,1.5383,0,0,0-3.0748,0Z"/><path d="M169.3177,688.9463s-1.8208,13.0528-13.6413,25.1611a131.543,131.543,0,0,1-11.532-8.6017S160.4109,699.6572,169.3177,688.9463Z"/><path d="M167.8352,688.5376a34.5827,34.5827,0,0,1-2.28,7.7712A51.7,51.7,0,0,1,154.5893,713.02l1.863-.24a118.1412,118.1412,0,0,1-11.2208-8.3613l-.6784,2.57a71.21,71.21,0,0,0,9.6141-4.4183c6.0075-3.2487,11.8166-7.2774,16.2376-12.5364,1.2655-1.5054-.8988-3.6913-2.1742-2.1742-4.27,5.08-9.8135,8.9182-15.6153,12.0556a65.9,65.9,0,0,1-8.88,4.1084,1.5535,1.5535,0,0,0-.6784,2.57,124.8364,124.8364,0,0,0,11.8431,8.842,1.551,1.551,0,0,0,1.8631-.24,55.6428,55.6428,0,0,0,11.5377-17.5275,35.4026,35.4026,0,0,0,2.499-8.3119,1.5919,1.5919,0,0,0-1.0738-1.8912A1.5471,1.5471,0,0,0,167.8352,688.5376Z"/><path d="M357.6554,602.4568a70.9183,70.9183,0,0,1,7.32-4.6164c4.7894-2.68,9.9413-5.0423,15.3883-5.9662,4.939-.8377,10.1517.0966,12.9155,4.6676a7.2991,7.2991,0,0,1,.9936,2.2311c.0713.26.1954.8872.1978.9061.0066.0511.0438.6976.035.9966-.0055.1848-.0192.3686-.0372.5525-.0254.2586.0583-.2326-.0345.1918-.0775.3546-.1723.6974-.2812,1.0434-.03.0962-.2122.5279-.0645.19-.064.1463-.13.2934-.2063.4339-.1736.3214-.36.6283-.5585.9348-.0522.0805-.3282.4446-.1229.1822-.1144.1462-.2344.2881-.3573.4271a10.5517,10.5517,0,0,1-.7471.7619,7.5673,7.5673,0,0,1-1.601,1.1972,11.8226,11.8226,0,0,1-4.0726,1.6362,11.2061,11.2061,0,0,1-8.2822-1.11,8.27,8.27,0,0,1-2.9339-3.1754,13.0776,13.0776,0,0,1-1.3423-5.4187,28.0255,28.0255,0,0,1,1.0446-8.2664c.9046-3.4638,2.06-7.0274,4.2914-9.8841,3.696-4.7323,9.4336-6.1552,15.095-6.9826,4.3771-.64,10-.8386,12.8782-4.7469a8.2935,8.2935,0,0,0,1.3454-2.9951c.4612-1.9232-2.5029-2.7438-2.9649-.8174a5.3274,5.3274,0,0,1-3.5873,3.9416,33.8511,33.8511,0,0,1-7.3395,1.4893c-6.1307.8611-12.3918,2.2244-16.7717,6.97a25.926,25.926,0,0,0-5.3737,10.3147,35.6591,35.6591,0,0,0-1.7051,9.5916c-.093,4.2478,1.0456,8.834,4.4518,11.6445,5.5239,4.5579,14.6371,3.3872,19.4926-1.6553a9.5,9.5,0,0,0,2.46-9.37,13.3371,13.3371,0,0,0-11.9162-9.1805c-5.96-.5195-12.03,1.772-17.322,4.2737a77.4743,77.4743,0,0,0-11.26,6.54c-.1941.1357-.3881.2718-.5791.4118-1.5795,1.158-.0472,3.8274,1.5518,2.655Z"/><path d="M214.6387,571.86c13.5243-2.2269,51.4985-6.576,88.5628,6.648a6.7127,6.7127,0,0,1,4.423,7.104q-.0371.3122-.0732.6139a6.682,6.682,0,0,1-8.18,5.708c-16.18-3.8457-56.0529-12.0614-82.3789-6.7822a6.6754,6.6754,0,0,1-7.9614-6.8767l.0087-.1739A6.6793,6.6793,0,0,1,214.6387,571.86Z"/><path d="M215.0474,573.3429a194.5259,194.5259,0,0,1,33.1-2.4411,169.679,169.679,0,0,1,50.278,7.6119c3.3351,1.0677,7.7484,2.0308,7.7083,6.385-.0292,3.1668-2.37,6.009-5.7371,5.66a61.7377,61.7377,0,0,1-6.6507-1.4859q-4.0782-.8954-8.1757-1.7a277.89,277.89,0,0,0-41.4692-5.3171A129.76,129.76,0,0,0,223,582.6626c-1.6564.2-3.3092.4362-4.9515.73-1.5451.2762-2.9791.5847-4.4741-.0995a5.2441,5.2441,0,0,1,1.473-9.95c1.9414-.371,1.1194-3.335-.8174-2.9649a8.3073,8.3073,0,0,0-1.7324,15.78c3.295,1.4019,6.95.0148,10.3305-.4a110.2763,110.2763,0,0,1,11.103-.7561c15.38-.324,30.7982,1.654,45.9023,4.4048q8.7219,1.5885,17.3614,3.5943a14.4709,14.4709,0,0,0,4.2095.6362,8.3594,8.3594,0,0,0,4.8084-1.93,8.9517,8.9517,0,0,0,2.4643-9.76c-1.6765-4.3485-6.0955-5.35-10.1243-6.6176q-6.998-2.201-14.19-3.704a178.6414,178.6414,0,0,0-27.0262-3.5082,201.8259,201.8259,0,0,0-40.2132,1.8116q-1.4486.2117-2.8932.4489C212.2822,570.6976,213.1086,573.661,215.0474,573.3429Z"/><circle class="cls-5" cx="360.4027" cy="466.3347" r="46.8898"/><path d="M404.4333,455.4645a45.2077,45.2077,0,1,1-2.2211-6.7506,47.5093,47.5093,0,0,1,2.2211,6.7506c.4829,1.9177,3.449,1.1051,2.9649-.8174a48.4281,48.4281,0,1,0,1.2431,7.4153,51.4142,51.4142,0,0,0-1.2431-7.4153C406.93,452.7256,403.9639,453.5394,404.4333,455.4645Z"/><path class="cls-5" d="M351.96,432.268a35.0825,35.0825,0,1,1-16.1879,9.0558"/><path d="M352.3691,433.7505a33.5909,33.5909,0,1,1-15.51,8.66,1.5382,1.5382,0,0,0-2.1742-2.1741,36.66,36.66,0,1,0,22.0038-10.3433,39.9012,39.9012,0,0,0-5.1375.8922c-1.9221.4661-1.1081,3.4318.8174,2.9649Z"/><path class="cls-3" d="M361.8966,463.09c-1.9885.4041-4.1083,1.4629-6.13.7616-2.8253-.98-4.2851-4.3322-3.713-7.1484.67-3.2969,3.3246-3.8833,6.13-4.5641,3.284-.797,6.14,1.2551,6.9458,4.5079.9518,3.8407,6.9223,2.3679,5.9689-1.4792a11.8868,11.8868,0,0,0-12.3251-9.2563l-.881-3.5554c-.9518-3.8407-6.9223-2.3679-5.969,1.4792l.86,3.4705a10.2226,10.2226,0,0,0-3.7244,2.3815,12.0435,12.0435,0,0,0-3.1435,9.951,11.7434,11.7434,0,0,0,13.8765,10.3087c1.9824-.4031,4.1216-1.4839,6.13-.7207,2.8832,1.0956,4.2067,4.8186,3.147,7.6056-1.0669,2.8059-3.8151,3.0454-6.3653,3.6774-2.8878.7156-5.4752-.3546-6.2558-3.5043-.9518-3.8408-6.9223-2.3679-5.9689,1.4792a11.4334,11.4334,0,0,0,5.9133,7.4925,10.1505,10.1505,0,0,0,6.1748.8077l.8438,3.4048c.9518,3.8407,6.9223,2.3679,5.9689-1.4792l-.8492-3.4269a10.14,10.14,0,0,0,3.05-1.7011,11.4971,11.4971,0,0,0,3.9641-9.5525C375.063,467.0247,368.9277,461.6618,361.8966,463.09Z"/><path d="M303.2015,578.5084q-3.7512-1.3383-7.5068-2.44a46.8245,46.8245,0,0,1-13.8269,12.1568c7.0677,1.3208,13.1461,2.6735,17.504,3.7093a6.6821,6.6821,0,0,0,8.18-5.708q.0361-.3016.0732-.6139A6.7127,6.7127,0,0,0,303.2015,578.5084Z"/><path d="M303.61,577.026q-3.721-1.32-7.5067-2.44a1.5914,1.5914,0,0,0-1.7362.7065,45.9014,45.9014,0,0,1-13.2753,11.6052,1.5547,1.5547,0,0,0,.3672,2.81q6.4445,1.2087,12.8452,2.6355c3.1851.7121,6.528,2.0048,9.72.6864a8.5906,8.5906,0,0,0,5.17-7.7749,8.3807,8.3807,0,0,0-5.5845-8.2285c-1.8466-.7144-2.6464,2.2574-.8173,2.9649,5.3784,2.08,3.7762,10.7717-2.058,10.5866a19.91,19.91,0,0,1-3.6678-.759q-2.1107-.4839-4.2268-.9428-5.2663-1.1424-10.5637-2.1332l.3672,2.81a49.7335,49.7335,0,0,0,14.3785-12.7083l-1.7362.7065q3.785,1.1238,7.5068,2.44C304.6612,580.6536,305.4651,577.6839,303.61,577.026Z"/><path d="M217.9578,571.35c-1.227.1762-2.3392.3488-3.3191.51a6.6794,6.6794,0,0,0-5.5985,6.2411l-.0087.1739a6.6754,6.6754,0,0,0,7.9614,6.8767,87.8089,87.8089,0,0,1,11.4381-1.4509A46.8546,46.8546,0,0,1,217.9578,571.35Z"/><path d="M217.5491,569.8678c-2.6714.3863-5.2567.6358-7.3573,2.5034a8.3417,8.3417,0,0,0,.5059,12.7315,8.4942,8.4942,0,0,0,7.0413,1.465,88.1924,88.1924,0,0,1,10.692-1.3292c1.2022-.0811,2.19-1.7014,1.0871-2.6244a46.5287,46.5287,0,0,1-10.2328-12.04,1.5385,1.5385,0,0,0-2.655,1.5519,49.0142,49.0142,0,0,0,10.7136,12.662l1.0871-2.6244a95.3754,95.3754,0,0,0-10.4882,1.2475,7.75,7.75,0,0,1-3.67.1353,5.204,5.204,0,0,1-2.6364-1.7824,5.3736,5.3736,0,0,1-.2619-6.0794c1.5155-2.4143,4.4518-2.4848,6.992-2.8521a1.5475,1.5475,0,0,0,1.0738-1.8912A1.5775,1.5775,0,0,0,217.5491,569.8678Z"/><path class="cls-5" d="M273.7389,503.3176a46.9,46.9,0,0,0-45.3079,80.3836c17.4284-1.1466,37.8433,1.61,53.4368,4.5238a46.8905,46.8905,0,0,0-8.1289-84.9074Z"/><path d="M274.1476,501.8352a48.4131,48.4131,0,0,0-59.5745,66.3674,48.3442,48.3442,0,0,0,9.2825,13.3727q1.4337,1.462,2.9922,2.794a2.7982,2.7982,0,0,0,1.5832.8692,18.3905,18.3905,0,0,0,2.55-.1394c2.7619-.1215,5.5275-.15,8.2916-.1088a235.0021,235.0021,0,0,1,34.2978,3.3352c2.5087.4094,5.0075.87,7.51,1.3115,1.3537.239,2.24-.4616,3.3487-1.1694,1.2322-.7865,2.4224-1.6335,3.5794-2.5267a48.4072,48.4072,0,0,0-7.6731-81.4912,51.9087,51.9087,0,0,0-6.1883-2.6145c-1.8712-.6555-2.6758,2.3139-.8174,2.9649a45.3481,45.3481,0,0,1,7.7617,82.0974l1.1846-.155c-17.6545-3.2894-35.858-5.7281-53.8455-4.5787l1.0871.45A45.3609,45.3609,0,0,1,273.33,504.8C275.2066,505.4417,276.0122,502.4728,274.1476,501.8352Z"/><path class="cls-5" d="M269.8818,514.4616a35.0824,35.0824,0,1,1-18.5082-1.225"/><path d="M269.4731,515.9441a33.5682,33.5682,0,1,1-22.4247.098,36.4681,36.4681,0,0,1,4.7339-1.323c1.9351-.4075,1.1162-3.3721-.8174-2.9649a36.6449,36.6449,0,1,0,24.2175,3.3059,39.7449,39.7449,0,0,0-4.8919-2.0809c-1.87-.6578-2.6747,2.3117-.8174,2.9649Z"/><path class="cls-3" d="M261.4225,545.7216c-1.8876-.7445-4.2421-1.0114-5.5552-2.7008-1.8353-2.3612-1.2333-5.9673.7807-8.0173,2.3577-2.4,4.9034-1.4452,7.6268-.4878,3.1881,1.1208,4.4649,4.3973,3.3688,7.5641-1.2942,3.7393,4.5149,5.7568,5.8112,2.0114a11.8869,11.8869,0,0,0-5.2928-14.4766l1.198-3.4615c1.2942-3.7392-4.5148-5.7568-5.8112-2.0113l-1.17,3.3788a10.2234,10.2234,0,0,0-4.4206-.0319,12.0436,12.0436,0,0,0-8.0571,6.6321,11.7435,11.7435,0,0,0,6.02,16.2044c1.882.7419,4.2646,1.001,5.5328,2.7349,1.8209,2.49.9025,6.3326-1.5044,8.0923-2.4233,1.7718-4.8583.4754-7.3412-.3839-2.8114-.9731-4.3982-3.28-3.3368-6.3467,1.2942-3.7392-4.5149-5.7567-5.8113-2.0113a11.4336,11.4336,0,0,0,.877,9.5046,10.151,10.151,0,0,0,4.738,4.0412l-1.1473,3.3148c-1.2942,3.7393,4.5149,5.7569,5.8112,2.0114l1.1548-3.3363a10.1461,10.1461,0,0,0,3.4848.2353,11.4973,11.4973,0,0,0,8.5282-5.851C270.32,556.1937,268.0969,548.354,261.4225,545.7216Z"/><line class="cls-5" x1="607.5854" y1="267.0858" x2="598.0038" y2="265.3552"/><path d="M607.9941,265.6033l-8.3724-1.5122-1.2092-.2184a1.5726,1.5726,0,0,0-1.8912,1.0738,1.5568,1.5568,0,0,0,1.0738,1.8911l8.3724,1.5122,1.2092.2184a1.5378,1.5378,0,1,0,.8174-2.9649Z"/><line class="cls-5" x1="608.5895" y1="280.6206" x2="599.0495" y2="282.5677"/><path d="M608.1808,279.1382l-8.35,1.7042-1.19.2428a1.5474,1.5474,0,0,0-1.0738,1.8912,1.5751,1.5751,0,0,0,1.8912,1.0737l8.35-1.7042,1.19-.2428a1.5474,1.5474,0,0,0,1.0738-1.8912,1.5751,1.5751,0,0,0-1.8912-1.0737Z"/><line class="cls-5" x1="612.8194" y1="290.8854" x2="606.0936" y2="297.9257"/><path d="M611.7323,289.7983l-5.8844,6.16-.8414.8807a1.5374,1.5374,0,1,0,2.1742,2.1741l5.8844-6.16.8414-.8807a1.5374,1.5374,0,1,0-2.1742-2.1742Z"/></svg>