<svg id="Layer_1" data-name="Layer 1" xmlns="http://www.w3.org/2000/svg" width="1000" height="1000" viewBox="0 0 1000 1000"><defs><style>.cls-1{fill:#fff;}.cls-2{fill:#458dc9;}.cls-3{fill:#389b48;}.cls-4{fill:#ffc41f;}.cls-5{fill:#fc7272;}.cls-6{fill:#d34aa2;}.cls-7{fill:#a8542a;}.cls-8{fill:#ea2f2f;}</style></defs><path class="cls-1" d="M866.2387,177.8964H783.782l2.7485-21.9885h73.9157a7.54,7.54,0,0,1,7.4817,8.4751Z"/><path d="M866.2387,176.2238H783.782l1.6725,1.6726,2.4028-19.2226.3458-2.7659-1.6726,1.6725h61.2228c4.2082,0,8.4223-.0659,12.63,0a5.9388,5.9388,0,0,1,5.0314,2.7475,7.3455,7.3455,0,0,1,.71,5.1023l-1.4358,11.4869-.1224.9793a1.683,1.683,0,0,0,1.6725,1.6725,1.712,1.712,0,0,0,1.6725-1.6725l1.2874-10.2992c.1546-1.2366.376-2.4851.4469-3.7306a9.275,9.275,0,0,0-4.1417-8.1158c-2.0827-1.3885-4.37-1.5154-6.7492-1.5154H800.9087c-4.7086,0-9.4561-.1777-14.1623,0-.0717.0027-.1441,0-.2159,0a1.7218,1.7218,0,0,0-1.6725,1.6725L782.4552,175.13l-.3457,2.766a1.686,1.686,0,0,0,1.6725,1.6725h82.4567A1.6736,1.6736,0,0,0,866.2387,176.2238Z"/><line class="cls-1" x1="834.9052" y1="196.0368" x2="975" y2="875.2503"/><path d="M833.2924,196.4815l3.7661,18.259,10.16,49.2583L862.34,337.31,880.73,426.4718,900.8712,524.12,921.2,622.68l18.9549,91.898,16.0184,77.6614,11.52,55.8511c1.818,8.8141,3.447,17.6934,5.4589,26.466.0865.3774.1566.7592.2348,1.1385.4346,2.1069,3.66,1.2152,3.2256-.8893l-3.7661-18.259-10.16-49.2583-15.1211-73.3109-18.3906-89.1621-20.141-97.6482-20.329-98.56L869.75,356.7092l-16.0185-77.6614-11.52-55.8511c-1.818-8.8141-3.4471-17.6935-5.4589-26.466-.0866-.3774-.1566-.7593-.2349-1.1385-.4345-2.1069-3.66-1.2152-3.2255.8893Z"/><path d="M637.0881,868.4473,642,849.2l13.3886-52.4661,19.8463-77.7719L699.52,623.7976l26.7038-104.6445L753.327,412.942l25.4841-99.8647,21.8453-85.6053,16.1872-63.4328L825.34,130.745c.2537-.9945,1.9722-8.009,3.69-2.807.652,1.9744.17,5.0455.24,7.097l1.4229,42.1385,2.436,72.143,3.1553,93.4413,3.5681,105.6661,3.7117,109.9206,3.55,105.1291,3.0942,91.6315,2.3444,69.4276,1.3006,38.5172.1673,4.9528c.0724,2.1468,3.4178,2.1566,3.345,0l-.7-20.7265-1.9-56.2575-2.7995-82.9058-3.3994-100.6714-3.6994-109.5541-3.6993-109.5541L837.7684,287.662l-2.8-82.9059-1.9-56.2575c-.2307-6.8319.0647-13.926-.7-20.7264-.6327-5.6271-7.7059-6.1563-9.4857-.9318-.2439.7161-.38,1.49-.567,2.2222l-2.9638,11.6142L807.0077,189.054l-19.1852,75.1811-23.965,93.9115L737.1731,462.715,709.8293,569.8669l-25.9427,101.662L661.405,759.6275l-16.96,66.4617-9.3785,36.7514-1.2038,4.7175c-.5326,2.0868,2.6928,2.977,3.2255.8892Z"/><path class="cls-1" d="M911.42,576.9869H671.054a20.704,20.704,0,0,1-20.5278-23.3995L654.6,522.5655H933.8532l-1.7556,34.7617A20.704,20.704,0,0,1,911.42,576.9869Z"/><path d="M911.42,575.3144H673.7825c-.9041,0-1.8085.0067-2.7126,0a19.2376,19.2376,0,0,1-18.5195-14.54c-1.2034-4.9037.0477-10.2284.6936-15.1468l2.5367-19.3179.4916-3.7442L654.6,524.238H922.5117c3.603,0,7.2813.2149,10.88,0,.1527-.0091.3085,0,.4617,0l-1.6725-1.6725-1.0126,20.049-.6036,11.9524c-.1727,3.4181-.4187,6.73-1.9478,9.8892A19.2759,19.2759,0,0,1,911.42,575.3144c-2.1513.02-2.1566,3.3654,0,3.345a22.61,22.61,0,0,0,17.6941-8.699,23.5474,23.5474,0,0,0,4.7027-13.5564l1.2686-25.1168.4405-8.7217a1.6916,1.6916,0,0,0-1.6726-1.6726H665.9413c-3.6241,0-7.256-.0691-10.88,0-.1538.003-.3079,0-.4617,0a1.7235,1.7235,0,0,0-1.6726,1.6726l-3.9735,30.26a22.67,22.67,0,0,0,7.85,20.7005,23.0147,23.0147,0,0,0,14.7858,5.1331q6.6093.006,13.2187,0H911.42A1.6735,1.6735,0,0,0,911.42,575.3144Z"/><polygon class="cls-1" points="914.064 541.256 674.939 541.256 699.676 171.3 938.801 171.3 914.064 541.256"/><path d="M914.0636,539.5831H678.595a23.74,23.74,0,0,0-3.2589,0,2.89,2.89,0,0,1-.397,0l1.6725,1.6726.6628-9.9117,1.8034-26.9717,2.667-39.8864,3.2417-48.48,3.55-53.0875,3.5953-53.7708,3.3522-50.1331,2.8317-42.35,2.029-30.3439c.3179-4.7556.9765-9.6247.9624-14.3942-.0006-.2074.028-.4186.0419-.6258l-1.6726,1.6726H935.1448a23.7554,23.7554,0,0,0,3.2589,0,2.8728,2.8728,0,0,1,.3969,0L937.1281,171.3l-.6627,9.9117-1.8035,26.9716-2.667,39.8865-3.2416,48.48-3.55,53.0875-3.5954,53.7707-3.3521,50.1332-2.8318,42.35-2.0289,30.3439c-.32,4.791-.7783,9.5955-.9625,14.3942-.008.2086-.0279.4174-.0418.6258-.1437,2.1489,3.2019,2.14,3.345,0l.6628-9.9117,1.8034-26.9717,2.667-39.8864,3.2417-48.48,3.55-53.0875,3.5953-53.7708,3.3522-50.1331,2.8317-42.35,2.029-30.3439c.32-4.791.7782-9.5955.9624-14.3942.008-.2087.0279-.4174.0419-.6258a1.69,1.69,0,0,0-1.6726-1.6725H729.0766c-9.648,0-19.3593-.3241-29.0035,0-.132.0044-.2649,0-.397,0a1.7091,1.7091,0,0,0-1.6725,1.6725l-.6628,9.9117-1.8034,26.9716L692.87,248.07l-3.2416,48.48-3.55,53.0875-3.5954,53.7707-3.3521,50.1332-2.8318,42.35-2.0289,30.3439c-.32,4.791-.7783,9.5955-.9625,14.3942-.008.2086-.0279.4174-.0418.6258a1.69,1.69,0,0,0,1.6725,1.6725h209.724c9.648,0,19.3594.3241,29.0036,0,.132-.0044.2648,0,.3969,0A1.6736,1.6736,0,0,0,914.0636,539.5831Z"/><path d="M666.1385,542.9282H910.869c3.3,0,6.6077.0626,9.9077,0,.1443-.0027.2889,0,.4332,0a1.6736,1.6736,0,0,0,0-3.3451h-244.73c-3.3,0-6.6078-.0625-9.9078,0-.1442.0028-.2888,0-.4331,0a1.6736,1.6736,0,0,0,0,3.3451Z"/><path class="cls-1" d="M848.616,164.0229h0l-.9437,7.5494a7.22,7.22,0,0,1-7.1637,6.3241H772.6032a7.2194,7.2194,0,0,1-7.1637-8.115l.9436-7.5495a7.22,7.22,0,0,1,7.1638-6.324h77.6855"/><path d="M846.9435,164.0229l-.518,4.1433a19.3866,19.3866,0,0,1-.78,4.6317c-1.0922,2.6748-3.62,3.4259-6.2186,3.4259H777.9852c-1.6513,0-3.3026.0048-4.9539,0a5.6921,5.6921,0,0,1-5.918-6.453c.1627-1.542.385-3.08.5773-4.6187.2132-1.7051.203-3.26.9745-4.6618,1.2795-2.3251,3.5419-2.91,5.9584-2.91h76.6089a1.6735,1.6735,0,0,0,0-3.345H775.4436a13.2619,13.2619,0,0,0-5.2109.6546,8.9173,8.9173,0,0,0-5.4624,6.8973c-.24,1.6045-.4069,3.2225-.6081,4.8321a20.4712,20.4712,0,0,0-.3475,5.3178,8.89,8.89,0,0,0,5.1916,6.86,13.4238,13.4238,0,0,0,5.6541.7721h63.25a23.0049,23.0049,0,0,0,4.42-.1913,8.9723,8.9723,0,0,0,6.5976-5.8508,25.6776,25.6776,0,0,0,.828-5.2381l.5332-4.2658a1.683,1.683,0,0,0-1.6725-1.6726,1.7121,1.7121,0,0,0-1.6725,1.6726Z"/><path d="M652.9164,221.3735c.3663-1.3627.83-2.7048,1.3274-4.0241a31.1707,31.1707,0,0,1,1.4972-3.4574,23.7673,23.7673,0,0,1,2.1143-3.5274c.01-.0136.1625-.2123.0524-.0707-.1191.1531.1538-.1873.1482-.18q.1629-.197.3337-.3871a10.0755,10.0755,0,0,1,.7422-.7482c.1169-.1055.2376-.206.3591-.306.1468-.1208-.0638.0514-.0774.0608.0709-.0489.1391-.1022.2117-.1487.1422-.091.2832-.1828.431-.2647.0954-.0529.5559-.2667.1529-.097a1.7293,1.7293,0,0,0,1.1682-2.0574,1.6829,1.6829,0,0,0-2.0575-1.1682c-2.7764,1.1692-4.5905,3.7007-5.9855,6.2783a44.758,44.758,0,0,0-3.155,7.587c-.173.5371-.3419,1.0769-.4885,1.622a1.674,1.674,0,0,0,3.2256.8893Z"/><path class="cls-2" d="M843.4272,330.5614c-46.831-13.9378,21.1855-132.6878-54.6361-123.7676-19.5108,2.2954-31.7483,16.5895-39.165,36.5537.0048.0553,5.8263,67.6377,41.395,110.6294,43.2669,52.2964,8.8408,93.6715-24.29,95.69a85.4612,85.4612,0,0,0,17.6,14.14C846.2148,493.9123,890.2582,344.4992,843.4272,330.5614Z"/><path class="cls-3" d="M749.6261,243.3475l0-.0012c-24.1122,18.7122-41.1166,115.6482-21.0462,178.647,6.526,20.4845,22.1884,28.646,38.1515,27.6735-19.75-20.8761-19.7536-43.8413-19.7536-43.8413S728.2207,300.9673,749.6261,243.3475Z"/><path class="cls-4" d="M791.0211,353.9769c-35.5687-42.9917-41.39-110.5741-41.395-110.6294-21.4054,57.62-2.6484,162.478-2.6484,162.478s.0041,22.9652,19.7536,43.8413C799.8619,447.6484,834.288,406.2733,791.0211,353.9769Z"/><path class="cls-5" d="M855.135,484.9921s-10.5927-46.2734,15.0528-47.946S872.4178,516.2128,855.135,484.9921Z"/><path class="cls-2" d="M813.8967,323.0969c-.018-9.7332,4.4842-22.3639,11.4135-33.4325.7925-38.5732,13.7537-88.7851-36.5191-82.8706-19.5108,2.2954-31.7483,16.5895-39.165,36.5537.0048.0553,5.8263,67.6377,41.395,110.6294,43.2669,52.2964,8.8408,93.6715-24.29,95.69a85.4612,85.4612,0,0,0,17.6,14.14c46.4083,22.577,82.7832-55.8054,78.3229-102.2982a28.924,28.924,0,0,1-8.8213,1.3766A39.8621,39.8621,0,0,1,813.8967,323.0969Z"/><path class="cls-4" d="M874.1084,323.264c-22.9-22.8156,6.8529-59.109-15.1623-59.0682-12.282.0228-24.8919,11.5016-33.6359,25.4686-.4027,19.6031,2.3369,36.2006,18.117,40.897,11.7112,3.4855,17.7393,15.4432,19.2267,30.9471C879.1878,356.1883,887.49,336.5964,874.1084,323.264Z"/><path class="cls-6" d="M843.4272,330.5614c-15.78-4.6964-18.52-21.2939-18.117-40.897-6.9293,11.0686-11.4315,23.6993-11.4135,33.4325a39.8621,39.8621,0,0,0,39.9359,39.7882,28.924,28.924,0,0,0,8.8213-1.3766C861.1665,346.0046,855.1384,334.0469,843.4272,330.5614Z"/><path class="cls-7" d="M604.7709,161.0786a3.6932,3.6932,0,0,0-4.7621,2.12,3.8352,3.8352,0,0,0,2.2483,4.7933l99.3287,45.8951c.054.0249.1087.0481.1629.0729l7.492-20.606Z"/><path d="M605.2155,159.4658c-4.3525-1.32-8.5285,2.8726-6.5914,7.18a6.0207,6.0207,0,0,0,3.1455,2.9557q2.4435,1.1284,4.8866,2.2578L629.203,182.277l30.3415,14.0194,27.4646,12.69c4.5191,2.088,9.0238,4.2111,13.5587,6.2648.1124.0509.2241.1029.3367.1533a1.7081,1.7081,0,0,0,2.457-.9995l6.5365-17.978.9555-2.6281a1.6951,1.6951,0,0,0-1.1682-2.0574l-10.426-3.2211-24.9108-7.6961-30.2413-9.3431-26.0357-8.0437c-4.2048-1.2991-8.4065-2.83-12.6731-3.9153-.0616-.0157-.1221-.0378-.1829-.0565-2.0614-.6369-2.943,2.5911-.8892,3.2256l10.4259,3.2211,24.9109,7.6961,30.2413,9.3431,26.0357,8.0437,8.5863,2.6527a36.7224,36.7224,0,0,0,4.0868,1.2626,1.6481,1.6481,0,0,1,.1829.0565l-1.1682-2.0574-6.5365,17.978-.9555,2.628,2.4569-1c-3.5443-1.5884-7.0545-3.2574-10.58-4.8864l-25.0259-11.5633L637.1315,182.272l-24.5417-11.34-7.2293-3.34c-1.1846-.5473-3.2927-1.1864-3.7671-2.4791-.6635-1.8079,1.1707-2.8954,2.7329-2.4216C606.3909,163.3175,607.2733,160.09,605.2155,159.4658Z"/><path class="cls-1" d="M727.6667,220.5422l3.1736.2068,4.8987-13.4734-3.976-2.87a74.4279,74.4279,0,0,0-21.5747-10.7586l-.9476-.2928-7.492,20.606A73.6552,73.6552,0,0,0,727.6667,220.5422Z"/><path d="M727.6667,222.2147l3.1736.2068a1.7046,1.7046,0,0,0,1.6128-1.2279l4.8987-13.4733a1.7041,1.7041,0,0,0-.7687-1.8888c-3.2335-2.334-6.4365-4.6989-9.881-6.7205a80.2927,80.2927,0,0,0-17.0168-7.3694,1.7091,1.7091,0,0,0-2.0574,1.1682l-6.5365,17.978-.9555,2.628a1.6728,1.6728,0,0,0,.7686,1.8888,77.106,77.106,0,0,0,26.7622,6.81c2.1487.1468,2.14-3.1989,0-3.3451a72.5387,72.5387,0,0,1-25.0739-6.3533l.7687,1.8888,6.5365-17.978.9555-2.6281-2.0574,1.1682a76.4475,76.4475,0,0,1,16.5968,7.256c3.3055,1.9643,6.3883,4.2492,9.5019,6.4966l-.7686-1.8888-4.8987,13.4734,1.6128-1.2279-3.1736-.2069C725.5174,218.73,725.5259,222.0752,727.6667,222.2147Z"/><path class="cls-2" d="M730.8421,220.7441l4.8747-13.4076h0a23.0648,23.0648,0,0,1,23.7128,7.94h0a15.6461,15.6461,0,0,0,13.7026,5.7982l4.7589-.4545-4.2807,4.0423a30.6376,30.6376,0,0,1-24.5957,8.5543h0a23.2956,23.2956,0,0,1-16.1488-9.6691Z"/><path d="M732.4548,221.1888l4.8748-13.4076-1.1681,1.1681a21.4718,21.4718,0,0,1,18.8266,4.2119c2.6463,2.2068,4.4966,5.1114,7.44,6.99a17.1773,17.1773,0,0,0,9.9365,2.6511c1.8441-.0866,3.6886-.3337,5.526-.5091l-1.1827-2.8552Q774.61,221.419,772.512,223.4a30.9832,30.9832,0,0,1-10.37,6.5512c-7.7931,2.8862-16.9148,2.4708-23.5941-2.8354a34.5071,34.5071,0,0,1-6.2618-7.2161c-1.2484-1.7294-4.1515-.0615-2.8883,1.6883a42.0071,42.0071,0,0,0,5.9124,7.1572,24.7285,24.7285,0,0,0,11.9439,5.887c9.3612,1.6768,18.9425-1.4583,26.1267-7.5265,1.9777-1.6705,3.8113-3.5264,5.6928-5.3031.992-.9367.2847-2.9953-1.1826-2.8552-3.7057.3539-7.382.9775-10.9935-.2991a14.793,14.793,0,0,1-6.2854-4.5548,26.46,26.46,0,0,0-6.6722-5.73,24.86,24.86,0,0,0-16.3879-3.0937c-1.3286.202-2.8508.2508-3.4481,1.6223-.1.2293-.1729.4756-.2582.71l-1.5068,4.1443-3.11,8.553C728.4925,222.3259,731.7239,223.1993,732.4548,221.1888Z"/><path class="cls-5" d="M193.3211,323.4221l-7.4259-5.7739a85.3412,85.3412,0,0,1-13.6463-13.3225c-3.1194-3.8107-.4649.058-5.0834-6.1-11.7078-15.61-42.8556-14.3034-46.2735-11.7077s-8.1809,10.8792-6.1326,13.38c8.8759,10.838,24.5569,16.8366,24.5569,16.8366l14.0185,30.4673,18.8016,17.6645"/><path d="M194.5037,322.2394q-3.6606-2.8462-7.3213-5.6925a86.6007,86.6007,0,0,1-7.6175-6.6714c-2.52-2.4874-4.7491-5.1907-7.0728-7.8533-.4974-.57-1.0785-1.0462-1.5641-1.6244-1.6248-1.9345-2.9719-4.0773-4.7685-5.868a35.1644,35.1644,0,0,0-13.1984-7.8691,61.5091,61.5091,0,0,0-27.1577-3.0824,22.1663,22.1663,0,0,0-4.1127.7629,7.9339,7.9339,0,0,0-3.5451,2.4665,25.0616,25.0616,0,0,0-4.5044,7.1073c-.8275,1.9735-1.6639,4.6143-.47,6.6207a19.5985,19.5985,0,0,0,3.12,3.5214c1.1217,1.1139,2.3038,2.1663,3.5278,3.1665a67.7293,67.7293,0,0,0,7.5471,5.3314,77.3088,77.3088,0,0,0,10.9373,5.5643c.1889.0776.378.1551.5687.2283l-1-.7686,10.8673,23.6185,2.4669,5.3613a6.7466,6.7466,0,0,0,1.0428,1.917c2.82,2.9849,6.0394,5.6742,9.031,8.4848l9.6736,9.0887c1.5681,1.4732,3.9382-.8876,2.3653-2.3653l-10.9411-10.28-6.3476-5.9638c-.3808-.3578-.9606-1.17-1.4554-1.3673-.2118-.0845.1523.4506.1678.2055.0087-.1382-.1866-.4056-.2448-.532l-6.8843-14.9619c-2.2166-4.8175-4.2994-9.7268-6.66-14.4756a2.2049,2.2049,0,0,0-1.2483-1.2091c-.1951-.09-.4017-.1616-.6006-.2429-.0833-.034-.42-.1773-.01-.0032-.1008-.0428-.2016-.0854-.3019-.1292-.2855-.1244-.571-.2487-.8553-.3761a78.4415,78.4415,0,0,1-9.855-5.2864,49.8367,49.8367,0,0,1-11.6708-9.7859c-.4768-.5679-.5162-.5763-.4653-1.3471a8.7039,8.7039,0,0,1,.6942-2.5747,21.2887,21.2887,0,0,1,3.3065-5.5281,10.766,10.766,0,0,1,1.95-1.9868c-.267.1884.0693-.02.13-.0608.4247-.2836-.24.0558.1586-.0778a16.963,16.963,0,0,1,2.6338-.6381,38.1125,38.1125,0,0,1,3.8284-.3779c1.6192-.0871,3.2423-.1017,4.8632-.06,7.752.2005,15.825,1.5742,22.8143,5.0571a26.817,26.817,0,0,1,9.318,7.2843c1.0735,1.3729,2.0281,2.9013,3.2371,4.1637.41.4285.8531.8069,1.2465,1.257a111.8129,111.8129,0,0,0,12.1642,12.4876c2.458,2.0611,5.0345,3.9873,7.5664,5.9559l2.2811,1.7736a1.73,1.73,0,0,0,2.3653,0,1.6819,1.6819,0,0,0,0-2.3653Z"/><path class="cls-5" d="M168.8949,363.99l-16.6605-15.3949-7.1537-7.7335a35.0132,35.0132,0,0,0-27.5428-10.9875c-5.4749.2667-10.9439-1.2522-15.7823-2.9l-26.022-32.0931h57.4111a17.3536,17.3536,0,0,1,12.9976,5.8555l3.513,3.9712a4.2092,4.2092,0,0,0,6.9175-.9065h0"/><path d="M170.0776,362.8071,155.1033,348.97c-4.9837-4.6051-8.9248-10.2859-14.5166-14.2251a37.0511,37.0511,0,0,0-20.0652-6.5685c-2.0119-.0643-4.0181.123-6.0292-.0019a35.6652,35.6652,0,0,1-6.2233-1.0044c-1.04-.2531-2.0709-.54-3.0951-.8495q-.6472-.1955-1.291-.4026-.3186-.1022-.6361-.2071c-.4412-.1451-.8125-.3941-.31.0781a2.5553,2.5553,0,0,1-.2555-.315c-4.108-5.3955-8.5623-10.56-12.833-15.827l-8.073-9.9565c-1.5306-1.8876-2.9711-3.9454-4.6361-5.7176-.08-.0854-.1493-.1842-.2232-.2753l-1.1826,2.8552h49.0413c3.2768,0,6.66-.2365,9.93.07A15.6473,15.6473,0,0,1,143,300.0265a35.9828,35.9828,0,0,1,4.0434,4.2482c1.2266,1.3867,2.3584,2.8395,4.2514,3.3314a5.9383,5.9383,0,0,0,6.7218-2.9611c.96-1.92-1.9245-3.6161-2.8884-1.6883a2.5784,2.5784,0,0,1-4.3007.5566c-.93-.9782-1.7941-2.0281-2.6882-3.0388a20.0481,20.0481,0,0,0-11.8349-6.993c-3.4336-.5544-7.0882-.2734-10.55-.2734H75.7336a1.6945,1.6945,0,0,0-1.1827,2.8552L85.29,309.3081l14.3305,17.6738a10.8411,10.8411,0,0,0,.951,1.1729,5.9287,5.9287,0,0,0,2.2094.92c1.0063.3257,2.0183.6338,3.0381.9145a46.3447,46.3447,0,0,0,6.1332,1.2707c3.9009.5241,7.8142.0246,11.7185.4983a33.3039,33.3039,0,0,1,10.1816,2.9323,32.6833,32.6833,0,0,1,8.7941,6.0711c1.1688,1.136,2.2527,2.3644,3.3591,3.56,1.8119,1.9588,3.5388,4.0623,5.5,5.8745l15.7526,14.556.454.42c1.5792,1.4592,3.9505-.9006,2.3653-2.3654Z"/><polyline class="cls-1" points="196.354 324.068 181.379 314.015 153.531 351.147 165.726 361.474"/><path d="M197.1982,322.6235,182.223,312.5708a1.712,1.712,0,0,0-2.2883.6l-9.43,12.5742-14.9546,19.94-3.4629,4.6175a1.6686,1.6686,0,0,0,.2615,2.0268l12.1949,10.3265c1.6335,1.3832,4.0111-.9717,2.3653-2.3653l-12.1949-10.3265.2616,2.0268,9.43-12.5742,14.9546-19.94,3.4629-4.6174-2.2883.6L195.51,325.5118c1.7922,1.2032,3.4685-1.6933,1.6883-2.8883Z"/><path class="cls-8" d="M356.162,302.1283,315.5077,441.49a55.1763,55.1763,0,0,1-72.215,9.7391l-64.8092-47.2077a32.3278,32.3278,0,0,1-12.76-20.2769l-4.63-25.1467,27.696-38.58,2.6444.8255a112.9052,112.9052,0,0,1,48.4749,30.2923l31.3155,33.19,21.7206-72.23a29.6589,29.6589,0,0,1,28.4025-21.118h23.1063"/><path d="M354.5492,301.6837l-4.255,14.5858-10.0688,34.5156-12.0739,41.3892L318.0828,426.69l-3.08,10.5567-.8215,2.816c-.072.247-.1578.4942-.2172.7446a.8337.8337,0,0,0-.0537.1841c.0059.1338.6325-.6863-.0741-.1291a38.3363,38.3363,0,0,0-2.6594,2.78q-1.4894,1.4528-3.0854,2.791a52.1565,52.1565,0,0,1-6.3112,4.5155,53.6,53.6,0,0,1-43.58,5.5166,52.4986,52.4986,0,0,1-15.5852-7.788l-10.2379-7.4574L198.94,416.8636c-6.5362-4.761-13.0977-9.4893-19.6094-14.2837a30.9719,30.9719,0,0,1-9.8873-12.35,37.6838,37.6838,0,0,1-2.4094-8.5719l-3.4823-18.9138-.8452-4.591-.1686,1.2887,9.331-12.998,14.9531-20.8293,3.4118-4.7526-1.8888.7687a121.4714,121.4714,0,0,1,27.7314,12.2508,112.5166,112.5166,0,0,1,22.8548,18.6539q11.2962,11.9626,22.5825,23.9348l8.5281,9.0387a1.6884,1.6884,0,0,0,2.7955-.738l4.6976-15.6219,9.3911-31.2294,7.0184-23.3394a35.2415,35.2415,0,0,1,3.9049-9.15,28.2347,28.2347,0,0,1,18.8157-12.394c4.037-.7071,8.3539-.3855,12.4349-.3855h15.354a1.6736,1.6736,0,0,0,0-3.3451c-7.7006,0-15.4023-.0413-23.1028,0a31.7044,31.7044,0,0,0-21.6334,8.664A32.2223,32.2223,0,0,0,291.17,312.191l-6.0855,20.237L275.5006,364.3l-3.8373,12.761c-.6456,2.1467-1.4989,4.3284-1.9619,6.5239-.0211.1-.06.1993-.0894.2975l2.7954-.738L251.3636,360.84l-9.7717-10.3568a117.8433,117.8433,0,0,0-20.703-17.4978,123.5545,123.5545,0,0,0-31.6543-14.58,1.7171,1.7171,0,0,0-1.8888.7686l-8.1705,11.3813-14.1448,19.7034-4.5517,6.3405a10.9367,10.9367,0,0,0-.8128,1.1321,3.5484,3.5484,0,0,0,.0092,2.3653l3.8892,21.1236a46.7586,46.7586,0,0,0,2.5188,9.597A34.59,34.59,0,0,0,177.6447,405.47c2.5954,1.9089,5.2086,3.794,7.8128,5.6909l17.7745,12.9471,20.1628,14.6868,15.3,11.1445a65.51,65.51,0,0,0,13.9264,8.0834,56.8732,56.8732,0,0,0,51.7483-4.7477,57.7354,57.7354,0,0,0,7.3159-5.5373q1.7676-1.5724,3.3964-3.292a8.97,8.97,0,0,0,2.0415-2.5194c.7133-1.8261,1.12-3.84,1.6686-5.72l4.2157-14.451,5.9382-20.3563,6.93-23.7559,7.07-24.2363,6.49-22.2491L354.5,313.8l2.897-9.9308.3782-1.2964c.604-2.0706-2.623-2.9549-3.2256-.8892Z"/><line class="cls-3" x1="388.8087" y1="275.8215" x2="354.4932" y2="290.4046"/><path d="M387.9645,274.3774l-30.1077,12.7949-4.2077,1.7882a1.6843,1.6843,0,0,0-.6,2.2883,1.7148,1.7148,0,0,0,2.2883.6l30.1077-12.7949,4.2077-1.7882a1.6844,1.6844,0,0,0,.6-2.2883,1.7149,1.7149,0,0,0-2.2884-.6Z"/><path d="M274.16,368.55l-4.4625,14.7152-7.16,23.6118-1.6438,5.4208c-.6261,2.0646,2.6015,2.947,3.2255.8892l4.4625-14.7152,7.16-23.6117,1.6439-5.4208c.6261-2.0646-2.6016-2.9471-3.2256-.8893Z"/><polyline class="cls-5" points="379.366 764.896 376.232 818.384 397.264 826.028 388.421 863.61 324.941 854.065 324.849 751.891"/><path d="M377.6939,764.8955l-1.0571,18.0422-1.687,28.7916-.39,6.6548a1.7063,1.7063,0,0,0,1.2279,1.6128l18.3772,6.6791,2.6542.9646-1.1681-2.0574-7.7489,32.9325-1.0941,4.65,2.0575-1.1682-21.5427-3.2393-34.058-5.1213-7.879-1.1847,1.2279,1.6128-.0092-10.1826-.0221-24.4459-.0267-29.435-.0232-25.5495c-.0037-4.1134.1671-8.27-.0112-12.3806-.0026-.06,0-.12,0-.18a1.6735,1.6735,0,0,0-3.345,0l.0092,10.1826.0222,24.4459.0266,29.435.0232,25.5495c.0037,4.1134-.1671,8.27.0112,12.3806.0026.06,0,.12,0,.18a1.6864,1.6864,0,0,0,1.2279,1.6128l21.5427,3.2393,34.058,5.1213,7.8789,1.1847a1.71,1.71,0,0,0,2.0574-1.1682l7.7488-32.9324,1.0941-4.65a1.72,1.72,0,0,0-1.1681-2.0574l-18.3773-6.6791-2.6542-.9646,1.2279,1.6127,1.0572-18.0421,1.687-28.7916.39-6.6549c.126-2.15-3.2195-2.1431-3.3451,0Z"/><path class="cls-1" d="M395.0531,871.3478l31.207-.384s10.6345-30.0033-28.5869-44.7956L390.3746,841.1a23.1158,23.1158,0,0,1-20.7676,12.9647H324.8487v17.2829h16.818l.1827-.3249a6.9753,6.9753,0,0,1,11.3289-1.1736l1.3111,1.4985Z"/><path d="M395.0531,873.02l27.316-.3361,3.891-.0478a1.7266,1.7266,0,0,0,1.6128-1.2279,30.3579,30.3579,0,0,0,1.3127-11.649,35.1894,35.1894,0,0,0-11.2113-23.4474c-5.6577-5.3408-12.6319-9.0108-19.8565-11.7567a1.6729,1.6729,0,0,0-1.8888.7687l-6.8824,14.08a23.4492,23.4492,0,0,1-6.5946,8.5028,21.7037,21.7037,0,0,1-13.1616,4.4851c-10.5687.0671-21.14,0-31.709,0H324.8487a1.6968,1.6968,0,0,0-1.6725,1.6725v17.2829a1.6968,1.6968,0,0,0,1.6725,1.6725h16.818a1.6774,1.6774,0,0,0,1.4442-.8284,5.434,5.434,0,0,1,6.4866-2.79,6.4178,6.4178,0,0,1,2.8147,2.1057c.6265.716,1.0819,1.4175,2.11,1.5122,2.1255.1958,4.3619,0,6.4938,0h34.0375a1.6736,1.6736,0,0,0,0-3.3451H354.4894l1.1827.49c-2.0062-2.2927-4.0452-4.1482-7.2614-4.3534a8.8087,8.8087,0,0,0-8.1882,4.6919l1.4442-.8284h-16.818l1.6725,1.6726V854.0649l-1.6725,1.6725h31.9542c4.229,0,8.4587.0214,12.6877,0a25.0893,25.0893,0,0,0,22.3368-13.8107c2.4623-4.9551,4.86-9.9432,7.29-14.9143l-1.8889.7686c10.5054,3.9928,20.8088,10.4679,25.7925,20.9309a30.7586,30.7586,0,0,1,2.7571,10.198,33.7626,33.7626,0,0,1,.084,4.5438q-.0486.9982-.1557,1.9926c-.0189.1751-.0985.8161-.0759.6489.0173-.1285-.0758.506-.107.6968a21.8526,21.8526,0,0,1-.8762,3.7272l1.6128-1.2279-27.316.3361-3.891.0478C392.9022,869.7017,392.8963,873.0468,395.0531,873.02Z"/><path class="cls-5" d="M589.02,252.7928l4.5389-8.97a91.2686,91.2686,0,0,0,7.1321-19.1807c1.2851-5.1663,2.7712-11.9354,4.1256-20.0632,3.32-19.9248,10.7319-15.4861,44.3765.9852-11.415,10.6866-10.93,16.0345-10.93,16.0345l.3675,35.9239-10.1245,25.7135"/><path d="M590.4638,253.637c2.4917-4.9243,5.1282-9.8066,7.2746-14.8942,4.15-9.8373,6.3423-20.3757,8.1979-30.8523a59.559,59.559,0,0,1,2.1017-9.5954,9.1125,9.1125,0,0,1,2.7012-4.2612c-.278.2261.0571-.0417.1751-.1145.18-.1112.36-.2162.5441-.3207.1254-.0713.5165-.235.1765-.0975a6.8338,6.8338,0,0,1,.6721-.23,5.5764,5.5764,0,0,1,2.2857-.2459,24.1356,24.1356,0,0,1,6.8956,1.5849,116.33,116.33,0,0,1,11.05,4.7156c5.3011,2.4961,10.5484,5.106,15.8106,7.6827l-.3385-2.6268c-3.7666,3.5467-7.5821,7.5129-9.9217,12.1909a11.9786,11.9786,0,0,0-1.499,5.01c-.0915,4.502.0933,9.0271.1393,13.5294l.2062,20.1515a19.82,19.82,0,0,0,.0208,2.0355c.053.4582-.1626-.0785.0577-.21-.0982.0584-.1891.48-.2287.5808l-2.8637,7.2728-7.0278,17.8488c-.7889,2.0036,2.4447,2.8727,3.2256.8892l5.9727-15.169,3.4354-8.725a7.4462,7.4462,0,0,0,.7689-2.9709q-.1782-17.4212-.3564-34.8423c-.0025-.2247.0108-.4575.0011-.6816-.0185-.4261-.03.1171-.0113.0253.0414-.1991.0726-.3992.12-.5973a11.1742,11.1742,0,0,1,.5174-1.581,26.9323,26.9323,0,0,1,2.886-4.8435,56.6141,56.6141,0,0,1,6.9228-7.5486,1.6843,1.6843,0,0,0-.3385-2.6268c-8.4664-4.1458-16.8794-8.5934-25.68-12.0035-4.295-1.6641-9.7507-3.6554-14.2445-1.5724-4.1658,1.9311-5.6066,7.0689-6.4607,11.178-1.0313,4.9624-1.765,9.9819-2.83,14.9408a131.8217,131.8217,0,0,1-3.986,15.1325c-2.4095,7.0247-5.9163,13.5468-9.2593,20.1533-.97,1.9163,1.9152,3.6116,2.8884,1.6883Z"/><path class="cls-5" d="M628.2082,207.7761c-.8493-10.0229,1.3116-16.3269,1.3116-16.3269,4.0723-13.5752,10.5618-14.1321,22.3269-14.302s14.3668-12.9532,4.2986-12.2743c0,0-31.2512-7.8334-42.1393,15.1031-1.0787,2.2173-2.0159,4.0724-2.826,5.6227a65.6658,65.6658,0,0,0-6.5694,19.6325l-1.0935,6.5669"/><path d="M629.8807,207.7761a42.92,42.92,0,0,1,1.2511-15.88c1.5274-4.9948,3.8883-10.1475,9.2136-11.8818a28.206,28.206,0,0,1,7.6241-1.1005c3.09-.1263,6.2393.0851,9.1751-1.0679,4.0454-1.5888,8.3227-6.0152,6.5277-10.728a6.2465,6.2465,0,0,0-5-3.79,11.1324,11.1324,0,0,0-2.1039-.1475c-.3982.0112.2093.081-.0741.0566a6.5056,6.5056,0,0,1-.7323-.1613,57.33,57.33,0,0,0-8.9786-1.1033c-10.03-.47-20.7917,1.6532-28.2548,8.8174a28.3807,28.3807,0,0,0-5.388,7.1878c-1.98,3.7441-3.965,7.5825-5.6273,11.4781-2.7287,6.3943-4.128,13.0055-5.2628,19.82l-.346,2.0778c-.3506,2.1058,2.8722,3.0112,3.2256.8893a118.22,118.22,0,0,1,2.9857-14.7075A69.5566,69.5566,0,0,1,613.04,185.641c1.6278-3.1557,2.9979-6.4813,5.0983-9.3649,5.9255-8.1352,16.1784-10.9839,25.81-11.02a57.2371,57.2371,0,0,1,5.7591.273c1.6127.157,2.3419.253,3.9448.5384.6584.1172,1.3081.2749,1.9645.3985.7416.1395,1.5017.001,2.252.1032a4.1255,4.1255,0,0,1,2.0532.82,1.6293,1.6293,0,0,1,.5527.7207c.1109.2224.0159-.0374.11.2854.03.1014.1354.6986.1118.4565a3.8968,3.8968,0,0,1-.3609,2.0694,7.7272,7.7272,0,0,1-4.5945,3.89c-2.7715.9456-5.76.6467-8.6431.7987a29.8008,29.8008,0,0,0-7.6428,1.18c-9.9138,3.2256-12.7747,15.3444-13.0883,24.5991a56.0208,56.0208,0,0,0,.1677,6.3881c.1714,2.1312,3.518,2.15,3.3451,0Z"/><path class="cls-5" d="M612.1238,277.7936l21.1043-.6322s9.9882-19.0038,16.12-31.1122a19.4518,19.4518,0,0,0,1.7232-12.4643,29.2554,29.2554,0,0,1,1.22-15.8732s11.5972,9.8118,19.3012-1.9636l.1868-.3342c3.5255-6.3168,6.3666-16.6653-2.23-18.4955l-1.3656-1.9211a12.0856,12.0856,0,0,0-10.2971-5.0754l-4.9569.1832-.715-1.2378c-2.3686-4.1-6.7724-5.4691-11.4856-5.0141h0c-6.463-6.4641-16.3024-1.4944-19.8115,5.6239"/><path d="M612.1238,279.4661l21.1043-.6321a1.6787,1.6787,0,0,0,1.4442-.8284q4.4663-8.4983,8.8829-17.0228,3.4242-6.6051,6.8032-13.2338a23.6027,23.6027,0,0,0,2.6578-8.6606c.2911-3.1832-.5583-6.1818-.7585-9.3313a28.8935,28.8935,0,0,1,.61-8.1733,25,25,0,0,1,.677-2.4537c.078-.2328.5363-1.3744.1916-.5743l-2.6269.3385c3.741,3.1453,9.151,5.2124,14.0117,3.9357,4.1861-1.0994,7.18-4.5181,8.9949-8.2919,1.5821-3.2908,2.8879-7.0137,2.764-10.7153a8.5724,8.5724,0,0,0-6.885-8.5172l1,.7687a34.49,34.49,0,0,0-2.58-3.4366,13.761,13.761,0,0,0-6.5463-3.9339c-2.89-.7647-5.9864-.38-8.9376-.2712l1.4442.8283a13.71,13.71,0,0,0-4.82-5.3875,14.8982,14.8982,0,0,0-8.8245-1.6928l1.1827.49c-7.2927-7.0678-18.3452-2.1078-22.4384,5.9624-.9716,1.9156,1.9133,3.6107,2.8884,1.6883,2.49-4.9085,8.6991-9.56,14.4047-7.1989a8.3976,8.3976,0,0,1,1.9667,1.1739c.821.652,1.22,1.2311,2.3674,1.1974a14.8,14.8,0,0,1,4.844.4355c2.6994.8139,4.1906,2.6827,5.5409,5.02a1.6657,1.6657,0,0,0,1.4442.8283c3.87-.143,7.76-.6882,11.1879,1.56,1.77,1.1611,2.6963,2.8015,3.97,4.4.7369.925,1.84.8862,2.84,1.404a4.4564,4.4564,0,0,1,1.8659,1.7455c2.0045,3.5056.0125,8.6765-1.5672,11.9622-2.0115,4.1838-5.5439,7.6309-10.5,6.9381a14.6585,14.6585,0,0,1-5.2033-1.902c-.57-.3274-1.1187-.6855-1.6571-1.0621-.2765-.1934-.5056-.3784-.2269-.1613q-.0837-.0652-.1652-.1335c-.7258-.61-2.1643-.7351-2.6268.3385a27.1949,27.1949,0,0,0-1.94,9.0619,45.5557,45.5557,0,0,0,.6991,8.9737,17.9881,17.9881,0,0,1-1.1424,9.0809c-.9189,2.2714-2.1966,4.4429-3.3142,6.6221q-1.7343,3.3815-3.4818,6.756-3.2425,6.2661-6.512,12.5179-1.6828,3.22-3.3718,6.4373l1.4442-.8284-21.1043.6321c-2.1477.0643-2.1568,3.41,0,3.3451Z"/><path class="cls-4" d="M398.9342,489.4447c2.7151,37.0288-9.3913,295.4-9.3913,295.4l-109.76.2845,11.0957-246.9951a121.84,121.84,0,0,1,8.7911-54.4384l20.6251-50.4084,70.523-9.5031"/><path class="cls-1" d="M308.26,571.41a36.7986,36.7986,0,0,1-20.3792,33.4553l-.3177,7.0732a36.7936,36.7936,0,0,1,21.7238,33.056,36.7958,36.7958,0,0,1,36.2788-37.3057A36.7959,36.7959,0,0,1,308.26,571.41Z"/><circle class="cls-1" cx="324.9413" cy="739.2175" r="36.7958"/><path class="cls-1" d="M310.34,457.6187l-10.67,26.0771q-1.22,2.9824-2.2725,6.02a36.64,36.64,0,0,1,9.1022,23.7058,36.7957,36.7957,0,0,1,36.2787-37.3057A36.78,36.78,0,0,1,310.34,457.6187Z"/><path d="M397.2617,489.4447c.404,5.57.3909,11.1778.3964,16.7589.0089,8.8727-.1273,17.7455-.3,26.6162q-.3308,17.0267-.8483,34.0489-.5636,19.3452-1.2461,38.6866-.7032,20.2218-1.4854,40.4407-.7671,19.9525-1.5886,39.903-.7491,18.243-1.5342,36.4846-.65,15.1257-1.3231,30.25-.4812,10.8139-.9745,21.6272c-.1513,3.3133-.6729,6.837-.4678,10.1529a4.0649,4.0649,0,0,1-.02.4307l1.6725-1.6726-37.1168.0963-59.1227.1532-13.5205.0351,1.6725,1.6725.4919-10.951L283.241,745.38l1.8223-40.5647,2.0777-46.25,2.0524-45.6865,1.7705-39.4127,1.2074-26.8777.3064-6.8214c.19-4.2339-.2742-8.4624-.1775-12.7076a120.9878,120.9878,0,0,1,8.8557-42.6075c1.399-3.4527,2.8207-6.8963,4.2315-10.3442l15.4062-37.6532,1.114-2.7227L320.74,434.9l23.8334-3.2116,37.9809-5.118,8.7086-1.1735c2.1235-.2861,1.2191-3.51-.8892-3.2255L366.54,425.3833l-37.9808,5.1179-8.7087,1.1736c-.6036.0813-.9643.67-1.1682,1.1681L306.0033,463.83c-5.5632,13.5967-11.7137,27.05-14.6268,41.5305a124.5661,124.5661,0,0,0-2.4137,21.3642c-.0989,3.87.2488,7.7179.2357,11.5768-.0047,1.3972-.126,2.8043-.1886,4.2l-1.0218,22.7446-1.6539,36.8174-2.021,44.9885-2.0986,46.7154-1.91,42.5215-1.4486,32.2462c-.2378,5.2934-.5747,10.593-.7138,15.89-.0062.2348-.0211.47-.0317.7044a1.6916,1.6916,0,0,0,1.6726,1.6725l37.1167-.0962,59.1228-.1532,13.52-.0351a1.7055,1.7055,0,0,0,1.6726-1.6725q.163-3.48.3219-6.96.4358-9.486.86-18.9726.6381-14.2431,1.2561-28.4872.7647-17.6236,1.4981-35.2485.8134-19.5627,1.5817-39.1273.7973-20.35,1.53-40.7019.7053-19.7019,1.32-39.4069.5422-17.6319.9553-35.2675c.2151-9.5942.3935-19.19.45-28.7866.0378-6.4761.0655-12.9639-.2129-19.4358-.0431-1.0025-.0961-2.0047-.1687-3.0055-.1548-2.1345-3.5011-2.1514-3.345,0Z"/><polyline class="cls-5" points="426.755 764.896 423.621 818.384 444.652 826.028 435.809 863.61 372.33 854.065 372.237 751.891"/><path d="M425.0824,764.8955l-1.0571,18.0422-1.687,28.7916-.39,6.6548a1.7063,1.7063,0,0,0,1.2279,1.6128l18.3772,6.6791,2.6542.9646-1.1681-2.0574-7.7489,32.9325-1.0941,4.65,2.0575-1.1682-21.5427-3.2393-34.058-5.1213-7.879-1.1847,1.2279,1.6128-.0092-10.1826-.0221-24.4459-.0267-29.435-.0232-25.5495c-.0037-4.1134.1671-8.27-.0112-12.3806-.0026-.06,0-.12,0-.18a1.6735,1.6735,0,0,0-3.345,0l.0092,10.1826.0222,24.4459.0266,29.435.0232,25.5495c.0037,4.1134-.1671,8.27.0112,12.3806.0026.06,0,.12,0,.18a1.6864,1.6864,0,0,0,1.2279,1.6128l21.5427,3.2393,34.058,5.1213,7.8789,1.1847a1.71,1.71,0,0,0,2.0574-1.1682l7.7488-32.9324,1.0941-4.65a1.72,1.72,0,0,0-1.1681-2.0574L426.72,817.736l-2.6542-.9646,1.2279,1.6127,1.0572-18.0421,1.687-28.7916.39-6.6549c.126-2.15-3.2195-2.1431-3.3451,0Z"/><polyline class="cls-5" points="356.038 290.04 356.948 244.961 395.186 259.683 396.38 289.279"/><path d="M357.71,290.04l.3064-15.1767.4914-24.3376.1123-5.5653-2.1171,1.6128,33.52,12.9058,4.7187,1.8167-1.2279-1.6127,1.0469,25.9559.1468,3.64c.0865,2.1452,3.432,2.1562,3.345,0l-1.0468-25.956-.1468-3.64a1.7463,1.7463,0,0,0-1.2279-1.6128l-33.52-12.9058-4.7188-1.8167a1.6856,1.6856,0,0,0-2.1171,1.6127l-.3065,15.1767-.4913,24.3376-.1124,5.5653c-.0435,2.1533,3.3016,2.1532,3.3451,0Z"/><path class="cls-5" d="M388.8312,265.6841a73.9256,73.9256,0,0,0,10.2359,1.4512,9.7134,9.7134,0,0,0,3.1479-.2831c14.6193-3.7894,20.4727-17.4949,22.3648-32.0462h1.3965c4.6013.6483,6.3481-.4773,5.8169-3.3677-4.1679-4.5534-5.9229-7.0924-6.38-10.3809l-.113-2.13a147.7756,147.7756,0,0,0-2.9277-25.3728l-73.402-2.6273s-9.5345,15.7087-8.8335,22.9433c1.2068,12.4588,13.3462,21.3807,16.6991,37.4435"/><path d="M388.3866,267.2969c2.3077.4928,4.6352.8694,6.9778,1.1523a20.4763,20.4763,0,0,0,7.0743.0675,26.2407,26.2407,0,0,0,9.76-4.5835c5.6038-4.2218,9.1942-10.3523,11.391-16.9289a65.47,65.47,0,0,0,2.6627-12.1983l-1.6726,1.6725c2.79,0,6.8537.9945,8.4969-2.0548a4.5011,4.5011,0,0,0,.477-2.2409c-.0316-1.3637-.6442-1.9863-1.52-2.9693a28.6129,28.6129,0,0,1-3.8249-5.0387,9.7242,9.7242,0,0,1-.8641-2.0495,5.4935,5.4935,0,0,1-.2836-1.5488c-.0919-1.992-.1555-3.9857-.2723-5.9764-.2848-4.8552-.8169-9.6956-1.5489-14.5034-.3558-2.3367-.74-4.6788-1.2537-6.9871a1.7,1.7,0,0,0-1.6128-1.2279l-24.7874-.8872L358.0624,189.58l-9.0914-.3254a1.6755,1.6755,0,0,0-1.4442.8284c-3.5,5.7762-6.8775,12.1655-8.5,18.7483-2.3085,9.3672,3.92,17.8624,8.5594,25.4323,3.3643,5.4891,6.28,11.1538,7.6375,17.495.45,2.1039,3.6756,1.2136,3.2255-.8893a53.5749,53.5749,0,0,0-6.3637-15.6033c-2.48-4.2705-5.3392-8.3339-7.5473-12.7592-1.7337-3.4748-3.296-7.5935-2.56-11.5293a46.5861,46.5861,0,0,1,4.44-11.8544c1.2364-2.4969,2.5523-4.968,3.9969-7.3518l-1.4442.8284,24.7874.8872,39.5232,1.4146,9.0914.3255-1.6128-1.228a126.9039,126.9039,0,0,1,2.4224,16.9458c.2227,2.6589.3331,5.3176.4455,7.9824a21.11,21.11,0,0,0,.2808,3.2148c.7024,3.549,3.1362,6.4669,5.4644,9.105.1887.2138.3867.4751.5991.6716q.4364.6339.2669.1866-.0869-.3588-.0306.0778a3.4284,3.4284,0,0,0-.0361.5771c-.0625.22-.42.3975-.97.4907a28.1212,28.1212,0,0,1-4.6231-.1171,1.7235,1.7235,0,0,0-1.6725,1.6725c-1.6251,12.2842-6.7093,25.8435-19.58,29.9816-4.46,1.4339-9.5711.24-14.0513-.7163-2.0995-.4484-2.9967,2.7755-.8893,3.2256Z"/><path d="M391.581,225.9557a38.61,38.61,0,0,0-1.6936-4.5253c-.9979-2.29-2.2625-4.7874-4.252-6.3755a5.03,5.03,0,0,0-4.3922-1.166,1.673,1.673,0,1,0,.8892,3.2256c.05-.012.1085-.02.1585-.0353.2342-.073-.1809.039-.2087.025.0574.0289.243-.0145.3112-.0134.05.0007.1042.0091.1541.0069.2376-.0106-.1919-.0169-.2153-.033a1.69,1.69,0,0,0,.377.0866c.0485.0145.0994.0369.1489.0487.2318.0552-.16-.0563-.1782-.0811.0434.0579.2252.1069.2911.1426.0977.0529.1931.11.2864.17.0477.0309.0937.0643.1414.0952.2183.1417.0473.1511-.06-.0523.0888.169.4022.3476.5428.4878.1939.1933.3774.3969.5529.607.0533.0639.1045.1295.1578.1934.0951.1141.1549.0832-.0752-.0982a1.6461,1.6461,0,0,1,.2432.3328q.2592.3662.4964.7472a25.2294,25.2294,0,0,1,1.6591,3.1854c.0553.1248.1086.25.1636.3755.1137.2586-.0392-.0974-.0511-.1224.0279.0587.0511.1219.0758.1823.1072.2623.2134.525.3159.7892q.25.6446.4786,1.2973c.1613.4608.3188.9242.4563,1.3928a1.673,1.673,0,1,0,3.2256-.8892Z"/><path d="M419.9251,209.8639a13.9631,13.9631,0,0,0-4.84-1.948,15.83,15.83,0,0,0-11.14,1.7249c-1.8819,1.0461-.1968,3.9363,1.6883,2.8883a12.4638,12.4638,0,0,1,8.8961-1.3112,14.7433,14.7433,0,0,1,1.6385.4983c.1287.0474.2555.1009.3843.1477.3037.1105-.1663-.077.0119.0038.1888.0856.3779.17.564.2612a8.939,8.939,0,0,1,1.1087.6234,1.6728,1.6728,0,0,0,1.6883-2.8884Z"/><circle cx="414.0855" cy="219.8999" r="2.5702"/><path d="M410.6794,219.86a3.4579,3.4579,0,0,0,2.225,3.2316,3.4045,3.4045,0,0,0,3.7433-.9507,3.4044,3.4044,0,1,0-5.9683-2.2809.8435.8435,0,0,0,.8363.8363.8529.8529,0,0,0,.8362-.8363c.0021-.0715.01-.1429.0122-.2142-.0046.1637-.0109.0593-.0006.0133.0251-.113.0489-.2248.0847-.3351.01-.032.0985-.2381.0141-.0546.0188-.041.038-.0818.0587-.122a2.8045,2.8045,0,0,1,.2123-.343c-.1025.1439-.0162.0206.0164-.0132.0387-.04.0749-.0825.1145-.1218q.0474-.0472.0973-.0919c.0262-.0235.2014-.15.039-.0374a3.0936,3.0936,0,0,1,.284-.1789c.04-.0215.08-.04.12-.0611.14-.0733-.1183.0261.0835-.03.1109-.0309.219-.0656.3325-.0874.0506-.01.2019-.0156.02-.0049.0592-.0035.118-.0089.1773-.01s.12-.0012.18.0014c.0011,0,.2348.0164.101.0039-.1307-.0123.0919.0179.0964.0189.0676.0143.1348.0313.2011.0509s.13.0429.1944.0663c-.03-.0108-.15-.0742-.0128-.0032a3.2648,3.2648,0,0,1,.2933.1658c.0022.0015.1791.13.0787.0522s.0679.0611.07.0629a3.0119,3.0119,0,0,1,.2754.2916c-.1083-.1281-.0307-.041-.0107-.0081.0349.0574.0737.1121.1073.17q.0337.0584.0643.1185c.0167.0328.0912.2356.0255.0477a3.2243,3.2243,0,0,1,.1.3272c.01.0451.0188.09.0279.1358.0331.1646-.0058-.13.006.0918.0058.108-.0019.2145-.0026.3223-.0015.2267.04-.1619-.0053.0575-.01.0455-.0178.091-.0286.1362a2.9815,2.9815,0,0,1-.1021.3278c.0683-.1878-.0106.0162-.0269.0477q-.0462.09-.1.1761c-.0286.0463-.0687.0912-.0931.14-.054.107.1256-.1313-.0138.0153-.0773.0814-.15.1637-.2339.2388-.0026.0024-.1725.1373-.0705.0621s-.0773.05-.0791.0512a2.6073,2.6073,0,0,1-.3552.1924c.0306-.0136.1563-.0538.01-.0091-.0657.02-.13.0427-.1964.06-.0445.0117-.0894.0222-.1344.0316-.0059.0012-.226.0275-.0956.0179.1344-.01-.0984.0029-.1.003-.06.0024-.12.0024-.1794.0006s-.1187-.0069-.1782-.0111c.1962.0137-.0082-.0029-.0551-.0127a2.91,2.91,0,0,1-.3955-.1173c.1671.0607.0249.0115-.0175-.0118-.0691-.038-.1391-.0731-.2063-.1147-.0382-.0236-.0744-.05-.1124-.0737q-.1137-.0825.0086.01-.0519-.0423-.1015-.0873c-.083-.0752-.1566-.1581-.2326-.24-.1454-.1567.0791.1395-.032-.0434-.035-.0576-.0737-.112-.1074-.1705s-.0627-.1192-.094-.179c-.08-.1532.0324.1306-.0192-.0512-.0379-.1336-.0758-.2626-.1048-.3989-.01-.0488,0-.1465.0016.0141-.0009-.0949-.0113-.19-.0112-.2849a.8363.8363,0,1,0-1.6725,0Z"/><path d="M376.576,233.0028a13.9773,13.9773,0,0,0,14.1126,6.3874,1.6826,1.6826,0,0,0,1.1682-2.0574,1.7179,1.7179,0,0,0-2.0574-1.1682c.1906-.0259-.4.034-.4693.039q-.3525.0256-.7061.0317a12.1028,12.1028,0,0,1-1.345-.0517q-.1614-.0153-.3222-.0351.27.0366-.0282-.0081c-.2039-.0387-.408-.0727-.6108-.1173q-.5131-.113-1.0146-.2719-.2766-.0877-.5487-.1891c-.068-.0253-.6222-.2647-.2545-.0972-.33-.15-.6552-.307-.9727-.482q-.4513-.2488-.8815-.5336-.2059-.1361-.4066-.28c-.0371-.0266-.4245-.3158-.2136-.1543s-.1569-.1275-.1922-.1567q-.1712-.1412-.3377-.2876-.3114-.2738-.6064-.5652-.4788-.4728-.9114-.99c-.1444-.1729-.3607-.6335-.09-.1018a2.9409,2.9409,0,0,0-.2348-.32c-.0647-.092-.1292-.1846-.1883-.28a1.6728,1.6728,0,1,0-2.8883,1.6884Z"/><path class="cls-1" d="M442.4416,871.3478l31.207-.384s10.6345-30.0033-28.5869-44.7956L437.7631,841.1a23.1158,23.1158,0,0,1-20.7676,12.9647H372.2372v17.2829h16.818l.1827-.3249a6.9753,6.9753,0,0,1,11.3289-1.1736l1.3111,1.4985Z"/><path d="M442.4416,873.02l27.316-.3361,3.891-.0478a1.7266,1.7266,0,0,0,1.6128-1.2279,30.3579,30.3579,0,0,0,1.3127-11.649,35.1894,35.1894,0,0,0-11.2113-23.4474c-5.6577-5.3408-12.6319-9.0108-19.8565-11.7567a1.6729,1.6729,0,0,0-1.8888.7687l-6.8824,14.08a23.4492,23.4492,0,0,1-6.5946,8.5028,21.7037,21.7037,0,0,1-13.1616,4.4851c-10.5687.0671-21.14,0-31.709,0H372.2372a1.6968,1.6968,0,0,0-1.6725,1.6725v17.2829a1.6968,1.6968,0,0,0,1.6725,1.6725h16.818a1.6771,1.6771,0,0,0,1.4441-.8284,5.4342,5.4342,0,0,1,6.4867-2.79,6.4178,6.4178,0,0,1,2.8147,2.1057c.6265.716,1.0819,1.4175,2.11,1.5122,2.1255.1958,4.3619,0,6.4938,0h34.0375a1.6736,1.6736,0,0,0,0-3.3451H401.8779l1.1827.49c-2.0062-2.2927-4.0452-4.1482-7.2614-4.3534a8.8087,8.8087,0,0,0-8.1882,4.6919l1.4442-.8284h-16.818l1.6725,1.6726V854.0649l-1.6725,1.6725h31.9542c4.229,0,8.4587.0214,12.6877,0a25.0893,25.0893,0,0,0,22.3368-13.8107c2.4623-4.9551,4.86-9.9432,7.29-14.9143l-1.8889.7686c10.5054,3.9928,20.8088,10.4679,25.7924,20.9309a30.7564,30.7564,0,0,1,2.7572,10.198,33.7626,33.7626,0,0,1,.084,4.5438q-.0486.9982-.1557,1.9926c-.0189.1751-.0985.8161-.0759.6489.0173-.1285-.0758.506-.107.6968a21.8526,21.8526,0,0,1-.8762,3.7272l1.6128-1.2279-27.316.3361-3.891.0478C440.2907,869.7017,440.2848,873.0468,442.4416,873.02Z"/><path class="cls-4" d="M357.6592,423.7844l70.5229,9.5031,20.6252,50.4084a121.84,121.84,0,0,1,8.7911,54.4384l11.6363,246.9951-110.3007-.2845S346.275,591.69,348.99,554.6611c0,0-21.5546-39.24-3.8688-75.1647"/><path class="cls-1" d="M459.7944,584.7477a36.7934,36.7934,0,0,1-36.17,34.0031A36.7959,36.7959,0,0,1,460.93,655.03a36.7478,36.7478,0,0,1,1.6388-11.3895Z"/><path class="cls-1" d="M371.7282,587.5708a36.7958,36.7958,0,0,1,36.2788-37.3057,36.7959,36.7959,0,0,1-37.3057-36.2788A36.8029,36.8029,0,0,1,346.38,549.117c.9679,2.2705,1.77,3.9144,2.2192,4.7966A36.8029,36.8029,0,0,1,371.7282,587.5708Z"/><path class="cls-1" d="M353.5826,695.424a36.793,36.793,0,0,1,22.0482,33.1972A36.7957,36.7957,0,0,1,411.91,691.3156a36.796,36.796,0,0,1-37.3057-36.2789,36.7952,36.7952,0,0,1-21.3739,33.922Q353.4058,692.2084,353.5826,695.424Z"/><path class="cls-1" d="M469.0509,781.2284l-1.9415-41.2115a36.6547,36.6547,0,0,1-3.3036-14.7337,36.7957,36.7957,0,0,1-36.2787,37.3057,36.8,36.8,0,0,1,34.4295,22.5218l5.3337.0137A36.6276,36.6276,0,0,1,469.0509,781.2284Z"/><path d="M357.2145,425.3972l23.8335,3.2116,37.9808,5.118,8.7087,1.1735-1.1682-1.1681,12.6121,30.8243c5.5415,13.5434,11.6838,26.9541,14.6276,41.3654A119.294,119.294,0,0,1,456.19,527.73c.0612,3.5412-.2822,7.0743-.2549,10.6051.0111,1.4394.136,2.8873.2038,4.3249l1.0807,22.9406,1.7329,36.7833,2.1128,44.847,2.2007,46.711,2.0019,42.4937,1.5168,32.1953c.2467,5.2384.2234,10.5738.744,15.7941.0232.2328.0222.4705.0332.7044l1.6726-1.6725-37.3751-.0964-59.3231-.1531-13.6025-.0351,1.6726,1.6726q-.9356-14.2775-1.8006-28.56-2.0386-33.17-3.8508-66.3528c-1.3585-25.0436-2.62-50.0945-3.5743-75.1572-.696-18.2861-1.5473-36.6712-.9712-54.9729.0674-2.1384.68-4.6964-.3158-6.6342a85.9952,85.9952,0,0,1-4.5471-10.8035c-5.3487-15.2179-7.5916-31.99-3.965-47.8617a65.9544,65.9544,0,0,1,4.9837-14.1625c.9375-1.9281-1.9462-3.626-2.8884-1.6883-8.0124,16.4793-8.7759,35.1259-4.7631,52.8025a107.3826,107.3826,0,0,0,5.7585,17.8852c.69,1.6384,1.4121,3.2639,2.2013,4.8572a7.1735,7.1735,0,0,0,.5573,1.0938,1.16,1.16,0,0,0,.0982.1839c-.431.0415-.0928-1.1464-.2606-.1048a61.67,61.67,0,0,0-.2986,8.7592c-.0527,3.8165-.04,7.6337-.0008,11.45.1033,9.9941.3911,19.9862.7327,29.9747.85,24.8523,2.0669,49.6923,3.38,74.524q1.8322,34.6455,3.955,69.2748c.7085,11.6583,1.2841,23.34,2.1912,34.9848.0132.1688.022.3381.0331.5071a1.7061,1.7061,0,0,0,1.6725,1.6725l37.375.0964,59.3232.1531,13.6025.035a1.6893,1.6893,0,0,0,1.6725-1.6725l-.52-11.031-1.3594-28.8551-1.9126-40.598-2.1794-46.26-2.16-45.8405-1.86-39.47-1.2578-26.6981-.3159-6.7059c-.2136-4.5339.2921-9.0674.152-13.6158a123.4093,123.4093,0,0,0-8.8221-42.18c-1.4149-3.5144-2.8679-7.014-4.3026-10.52L430.909,435.5657l-1.1141-2.7228c-.2039-.4983-.5645-1.0868-1.1681-1.1681l-23.8335-3.2116-37.9809-5.118-8.7086-1.1735c-2.105-.2837-3.016,2.939-.8893,3.2255Z"/><path class="cls-8" d="M355.6681,290.717h66.5337l30.299,51.5247s-21.4106,59.8418-24.4612,92.64l-103.05-1.5613c-9.72-42.8256-19.8267-85.09-14.5726-115.54"/><path d="M355.6681,292.39h66.5337l-1.4442-.8284,10.23,17.3959,16.3135,27.7417,3.7559,6.3871-.1686-1.2888c-2.6379,7.3754-5.08,14.8253-7.4541,22.2888-4.8276,15.1756-9.311,30.4959-12.8263,46.0335a195.8465,195.8465,0,0,0-4.2406,24.7627L428.04,433.21l-10.2735-.1557-24.5438-.3718-29.813-.4517-25.6818-.3892-8.512-.1289a34.11,34.11,0,0,0-4.0468-.0613,1.5232,1.5232,0,0,1-.1786-.0028l1.6128,1.228c-3.6831-16.2249-7.4625-32.4371-10.541-48.7907-2.7526-14.6221-5.03-29.4338-5.3707-44.3338a112.825,112.825,0,0,1,1.3391-21.5266c.3588-2.1056-2.8642-3.01-3.2256-.8892-2.2867,13.42-1.6785,27.1758-.1491,40.6445,1.8106,15.9456,4.9476,31.7159,8.3459,47.3884,2.0557,9.481,4.2283,18.9361,6.3759,28.3966a1.6963,1.6963,0,0,0,1.6127,1.2279l10.2735.1557,24.5439.3719,29.8129.4517,25.6818.3891c4.17.0632,8.3888.3192,12.5588.19.0593-.0019.1192.0018.1786.0027a1.7127,1.7127,0,0,0,1.6725-1.6726c1.0671-11.32,3.6514-22.51,6.4378-33.5122,2.9282-11.5629,6.2886-23.0158,9.8749-34.3906q3.475-11.022,7.2625-21.9437c.3957-1.1358,1.22-2.541.6132-3.7136-.7522-1.4536-1.6717-2.843-2.501-4.2531l-12.161-20.68-12.506-21.2669c-.9762-1.66-1.9126-3.3525-2.9322-4.9865-.7834-1.2554-1.922-1.0907-3.201-1.0907H355.6681a1.6736,1.6736,0,0,0,0,3.3451Z"/><polyline class="cls-1" points="584.837 258.482 594.647 243.346 638.263 267.563 629.9 285.403"/><path d="M586.2815,259.3257l9.81-15.1352-2.2884.6,14.7273,8.1769,23.4841,13.0388,5.4042,3.0005-.6-2.2883-8.3627,17.84c-.9083,1.9377,1.9745,3.6381,2.8884,1.6883l8.3627-17.84a1.7084,1.7084,0,0,0-.6-2.2883L624.38,257.9415l-23.4841-13.0389-5.4042-3.0005a1.71,1.71,0,0,0-2.2883.6l-9.81,15.1353c-1.1743,1.8117,1.72,3.49,2.8883,1.6883Z"/><path class="cls-8" d="M388.9269,289.8754l37.2855-.1a44.4931,44.4931,0,0,1,20.3857,4.8836l63.0338,32.2521,30.0941,16.4331,15.7249-42.8368a112.9043,112.9043,0,0,1,32.64-46.9262l2.1061-1.8L623.35,271.819a20.5715,20.5715,0,0,1,9.4238,13.0673l3.71,16.4005a32.3277,32.3277,0,0,1-3.7493,23.6622l-40.9986,68.9052a55.1762,55.1762,0,0,1-70.22,19.4692l-32.9993-15.9725-78.3179-39.7137"/><path d="M388.9269,291.5479,421.81,291.46c1.4558-.0039,2.9116-.0129,4.3673-.0117a42.9759,42.9759,0,0,1,17.5408,3.6778c2.824,1.2686,5.555,2.7779,8.3093,4.1872L487.2387,317.33c7.2356,3.7022,14.5484,7.2851,21.7164,11.1173,9.7018,5.1868,19.3147,10.5469,28.97,15.8194l.9564.5223a1.7,1.7,0,0,0,2.457-1l10.4855-28.5641,4.9515-13.4886A114.5057,114.5057,0,0,1,568.48,278.3292a120.3532,120.3532,0,0,1,22.9-25.3647l-2.0268.2615,29.37,17.7514c1.2551.7586,2.516,1.5083,3.7656,2.2759A19.2218,19.2218,0,0,1,631.165,285.35c1.2529,5.3531,2.4351,10.7247,3.6392,16.089a31.6536,31.6536,0,0,1-3.9713,23.4334l-6.0935,10.2411-21.9229,36.8452-9.15,15.3785c-1.5571,2.6171-3.0324,5.2964-4.8152,7.7694a53.9276,53.9276,0,0,1-55.7882,20.5858c-5.9386-1.4355-11.2764-4.0906-16.7279-6.7293l-19.4656-9.4218c-5.7231-2.77-11.3986-5.607-17.07-8.4826l-37.4642-18.9974-29.7122-15.0665-1.5811-.8018c-1.9157-.9714-3.6108,1.9135-1.6883,2.8884l22.3811,11.3491L471.3325,390.51c6.0331,3.0593,12.0315,6.2,18.12,9.1475,10.4,5.0338,20.7867,10.0958,31.2,15.1017a56.8646,56.8646,0,0,0,60.34-6.651A54.8832,54.8832,0,0,0,594.059,393.22l6.916-11.6235,22.4222-37.6843,8.5008-14.2871c2.5418-4.272,4.989-8.4618,6.1432-13.3921a35.3178,35.3178,0,0,0-.0678-15.9321l-2.0885-9.2334c-.5814-2.5706-1.0576-5.195-1.7811-7.7312a22.56,22.56,0,0,0-9.9173-12.9659c-9.9243-6.1011-19.943-12.0534-29.9131-18.0793l-3.2321-1.9535a1.72,1.72,0,0,0-2.0268.2616,125.2574,125.2574,0,0,0-20.8823,22.3321,115.4218,115.4218,0,0,0-14.35,27.2831q-5.6643,15.4-11.3093,30.8079l-4.36,11.8776,2.4569-1-28.4727-15.5477c-6.2574-3.4169-12.6816-6.5445-19.0278-9.7916l-36.5587-18.7058q-4.4477-2.2757-8.8953-4.5514a49.1462,49.1462,0,0,0-22.7936-5.1969l-34.8868.0933-1.0083.0027a1.6735,1.6735,0,0,0,0,3.345Z"/><path class="cls-1" d="M409.2082,290.7164H344.58a17.6844,17.6844,0,0,1,17.49-15.0719h13.0518a17.684,17.684,0,0,1,7.9648,1.8952Z"/><path d="M409.2082,289.0438H344.58l1.6128,2.1172a16.1971,16.1971,0,0,1,14.8192-13.8126c4.2417-.2552,8.5511-.0314,12.799-.0314a18.535,18.535,0,0,1,8.4342,1.6681c.8524.42,1.697.8561,2.5453,1.284l13.3858,6.7524,10.1876,5.1391c1.9173.9671,3.6128-1.9176,1.6883-2.8884l-23.1433-11.6745c-.9891-.499-1.9741-1.0074-2.9678-1.4971a21.2171,21.2171,0,0,0-9.5693-2.1286c-4.3279,0-8.6838-.1538-13.0086.0139a19.5062,19.5062,0,0,0-18.396,16.2858,1.7009,1.7009,0,0,0,1.6128,2.1172h64.628A1.6736,1.6736,0,0,0,409.2082,289.0438Z"/><path d="M413.3458,241.9327a9.9844,9.9844,0,0,0,5.8453,4.4679,8.5574,8.5574,0,0,0,3.7327.0589,1.6819,1.6819,0,0,0,1.1682-2.0575,1.716,1.716,0,0,0-2.0574-1.1681q-.109.0216-.2186.04-.2773.0426.1219-.0139a1.5875,1.5875,0,0,0-.42.0361,6.3756,6.3756,0,0,1-.806-.0074c-.1623-.0118-.5289-.1352-.0353.0061-.1182-.0338-.25-.0416-.3706-.0673a6.4672,6.4672,0,0,1-.7051-.1925c-.1126-.0377-.2229-.0807-.3342-.1218-.276-.1022.4021.1848-.0009-.0043q-.3071-.144-.6-.3161-.2816-.1652-.5488-.3531c-.0861-.06-.1687-.126-.255-.1861.4609.3215.1413.1086.0383.0233a11.158,11.158,0,0,1-1.42-1.457c-.1575-.1881.3066.41.1206.1559-.0321-.0437-.0649-.0868-.0967-.1307-.0509-.07-.101-.1414-.1495-.2135-.0414-.0616-.0827-.1235-.1208-.1872a1.6728,1.6728,0,1,0-2.8883,1.6884Z"/><path d="M515.8943,332.2362l13.366,7.6025,21.447,12.1989,4.9238,2.8007c1.874,1.0659,3.5614-1.823,1.6883-2.8884l-13.3661-7.6026-21.4469-12.1989-4.9238-2.8006c-1.874-1.0659-3.5614,1.823-1.6883,2.8884Z"/><path class="cls-4" d="M310.1223,458.15l2.3112-5.45a36.5789,36.5789,0,0,0,1.2461-25.1671l-1.7192-5.5153H439.0772l-2.6246,7.6065a36.5791,36.5791,0,0,0,.7669,25.8879l6.372,15.4365"/><path d="M311.5665,458.9936c1.6639-3.9233,3.51-7.8109,4.4636-11.9835a39.0225,39.0225,0,0,0-.8525-20.29q-.7995-2.5744-1.6044-5.1473L311.96,423.69H433.8721a43.0371,43.0371,0,0,0,4.9962,0,1.7974,1.7974,0,0,1,.2089,0l-1.6128-2.1172-2.4375,7.0645a39.1,39.1,0,0,0-2.1664,15.3382c.49,7.3906,3.5339,13.8893,6.31,20.6143l2.8083,6.8032a1.73,1.73,0,0,0,2.0574,1.1682,1.6819,1.6819,0,0,0,1.1682-2.0574l-5.7214-13.86a42.6185,42.6185,0,0,1-3.031-10.2263,35.3829,35.3829,0,0,1,1.6418-16.43c.8585-2.5105,1.7309-5.0164,2.5963-7.5245a1.6861,1.6861,0,0,0-1.6128-2.1172H327.5634c-5.117,0-10.28-.2-15.3941,0-.0694.0028-.1394,0-.2089,0a1.6878,1.6878,0,0,0-1.6128,2.1172c.5612,1.8,1.1269,3.5991,1.6835,5.4007A35.756,35.756,0,0,1,313.62,440.227c-.3039,6.1383-2.586,11.5245-4.9414,17.0783a1.7323,1.7323,0,0,0,.6,2.2883,1.6827,1.6827,0,0,0,2.2884-.6Z"/><path class="cls-1" d="M439.1872,508.4041a36.6577,36.6577,0,0,1,9.4489-25.1264L435.0648,450.109a36.7933,36.7933,0,0,1-33.1833,22.0163A36.7958,36.7958,0,0,1,439.1872,508.4041Z"/><path d="M311.5665,458.9936c1.6639-3.9233,3.51-7.8109,4.4636-11.9835a39.0225,39.0225,0,0,0-.8525-20.29q-.7995-2.5744-1.6044-5.1473L311.96,423.69H433.8721a43.0371,43.0371,0,0,0,4.9962,0,1.7974,1.7974,0,0,1,.2089,0l-1.6128-2.1172a113.9342,113.9342,0,0,0-3.6836,11.2949,38.586,38.586,0,0,0,1.8464,23.14q4.1136,10.15,8.2232,20.3014l3.2457,8.0131a1.728,1.728,0,0,0,2.0574,1.1682,1.6823,1.6823,0,0,0,1.1682-2.0574l-7.6775-18.9543-3.6089-8.91a36.3332,36.3332,0,0,1-2.5731-18.9457c.7063-4.8709,2.63-9.5288,4.2278-14.1607a1.6861,1.6861,0,0,0-1.6128-2.1172H327.5634c-5.117,0-10.28-.2-15.3941,0-.0694.0028-.1394,0-.2089,0a1.6878,1.6878,0,0,0-1.6128,2.1172c.5612,1.8,1.1269,3.5991,1.6835,5.4007A35.756,35.756,0,0,1,313.62,440.227c-.3039,6.1383-2.586,11.5245-4.9414,17.0783a1.7323,1.7323,0,0,0,.6,2.2883,1.6827,1.6827,0,0,0,2.2884-.6Z"/><path class="cls-7" d="M299.0777,290.87l43.2043,9.2885a31.9829,31.9829,0,0,0,38.1759-25.1691,114.7037,114.7037,0,0,0,.4906-39.5678c-3.5626-2.619-8.869-12.87-9.0449-18.8351-.2657-9.0124,4.51-11.2756,10.8048-11.4612s13.6042,11.5011,13.8631,20.2848l.4535-19.0463a9.97,9.97,0,0,1,11.1582-9.6645l13.6567.2348a7.78,7.78,0,0,0,7.1-11.2419l-1.125-2.2627c-4.3215-8.6913-13.0554-18.9781-22.7557-19.3205l-36.8479-1.3007c-10.6888-.3774-30.6336,12.5-34.9837,30.9874-5.4483,23.1554-12.4049,41.2949-19.3692,55.2738l-8.8667-.5816a21.4535,21.4535,0,0,0-21.1383,12.9917h0A21.4537,21.4537,0,0,0,299.0777,290.87Z"/><path d="M298.6331,292.4824l25.4815,5.4782,14.7007,3.1606c4.64.9975,9.2348,1.7776,14.0134,1.209a33.5828,33.5828,0,0,0,28.0652-22.4655c1.7187-4.9982,2.2717-10.4843,2.7345-15.7234a116.397,116.397,0,0,0-.4836-25.3737c-.1688-1.2828-.093-3.4734-1.0136-4.5291-.3876-.4445-.9861-.8476-1.446-1.3633a18.5258,18.5258,0,0,1-1.5272-2.0066,39.2223,39.2223,0,0,1-3.0092-5.3973c-2.46-5.3025-5.2787-15.78,2.5025-18.0969a11.841,11.841,0,0,1,4.7433-.5513,7.6356,7.6356,0,0,1,3.7632,2.0443,24.678,24.678,0,0,1,6.6115,10.6756,21.5146,21.5146,0,0,1,1.13,5.8667,1.6736,1.6736,0,0,0,3.3451,0l.4062-17.0655c.0158-.66.0211-1.3211.0472-1.9808a8.4079,8.4079,0,0,1,3.1989-6.328c2.7515-2.1357,6.08-1.6675,9.321-1.6118l9.9511.171c4.2281.0727,8.0205-1.9963,9.62-6.0468,1.6741-4.2409-.4771-8.169-2.5092-11.8231a43.8794,43.8794,0,0,0-11.0814-13.3531A21.4943,21.4943,0,0,0,404.9,162.4305c-1.7735-.07-3.5477-.1253-5.3215-.1879l-21.3692-.7543-8.1619-.2881a27.122,27.122,0,0,0-5.4276.2181c-8.7933,1.4393-17.0809,7.3444-22.9827,13.7754a43.7846,43.7846,0,0,0-8.457,13.2307,64.7342,64.7342,0,0,0-2.4749,8.6876q-1.2858,5.1824-2.7512,10.3181a246.5518,246.5518,0,0,1-12.3268,34.0323q-1.5456,3.41-3.2137,6.7625l1.4442-.8283c-2.9191-.1915-5.8377-.3985-8.7578-.5745a23.1231,23.1231,0,0,0-6.4671,45.66c2.0971.468,2.9927-2.7562.8893-3.2256a20.0333,20.0333,0,0,1-15.6372-21.3285c.9731-10.4688,10.514-18.39,21.1417-17.766,2.9447.173,5.8876.3863,8.8311.5793a1.6327,1.6327,0,0,0,1.4442-.8283,234.0233,234.0233,0,0,0,12.5561-30.7957q3.1485-9.53,5.6085-19.2693c.7856-3.086,1.3775-6.2471,2.4515-9.25a35.6645,35.6645,0,0,1,3.248-6.6654,44.2716,44.2716,0,0,1,21.1267-17.831,20.8713,20.8713,0,0,1,8.0947-1.6148c1.7679.0538,3.5355.1248,5.3031.1872l20.9181.7384,8.2493.2913a21.1986,21.1986,0,0,1,5.9617.7783c5.1853,1.6741,9.4448,5.8157,12.7064,10.0369a46.9036,46.9036,0,0,1,4.5317,7.1386,20.2386,20.2386,0,0,1,1.8506,4.0346,6.1806,6.1806,0,0,1-6.2774,7.5656c-3.0228-.0317-6.0457-.1039-9.0683-.1559-2.9538-.0507-6.3477-.5217-9.17.4214a11.8327,11.8327,0,0,0-8.0415,10.8786c-.216,5.7237-.2728,11.4576-.4091,17.1837l-.0434,1.8244h3.3451a28.6021,28.6021,0,0,0-5.3827-15.06c-2.597-3.66-6.2071-7.16-11.0017-6.859-4.0854.2569-8.2874,1.6421-10.2362,5.5475-2.2033,4.4154-1.5581,9.7031.0252,14.1964a42.8914,42.8914,0,0,0,3.8533,8.1256,19.4952,19.4952,0,0,0,4.6024,5.5049l-.7686-1a66.09,66.09,0,0,1,.9629,7.4863,119.4046,119.4046,0,0,1,.0779,19.6677c-.548,6.9787-1.3227,14.3479-4.7717,20.57a30.4213,30.4213,0,0,1-29.3024,15.4994,52.3365,52.3365,0,0,1-6.4671-1.1657l-22.2295-4.7791c-5.9252-1.2739-11.8385-2.6478-17.7841-3.8234-.1-.02-.2-.0429-.2994-.0644C297.4232,288.8055,296.5262,292.0294,298.6331,292.4824Z"/><path class="cls-7" d="M368.335,162.75l61.8587.9447c10.16.1752,17.1916,15.18,13.3306,24.5795,0,0-1.5448,8.24-11.8763,14.7647.5438.5438,3.8064-8.1564,2.7188-11.9628a33.8218,33.8218,0,0,1-17.9441,10.8753s2.5977-4.5241,2.6583-8.5153"/><path d="M368.335,164.4229l12.5118.191,25.5924.3909,20.76.317a31.7061,31.7061,0,0,1,4.0628.124c5.0093.7352,8.6244,5.4593,10.3016,9.914a19.9024,19.9024,0,0,1,1.3449,7.8914,21.2786,21.2786,0,0,1-1.0835,4.9455,22.5448,22.5448,0,0,1-6.5655,10.0021,31.7477,31.7477,0,0,1-4.4555,3.3962,1.6937,1.6937,0,0,0,0,2.8884c2.4578,1.58,3.7739-3.2435,4.2234-4.6728.8943-2.8436,1.7211-6.2178.9523-9.1788a1.6853,1.6853,0,0,0-2.7954-.738c-4.3735,4.8946-10.5748,9.3178-17.2061,10.4451l1.8888,2.4569a20.8787,20.8787,0,0,0,2.8866-9.3594c.0743-2.153-3.2709-2.15-3.3451,0a17.2524,17.2524,0,0,1-2.43,7.6711,1.6943,1.6943,0,0,0,1.8888,2.457,26.5542,26.5542,0,0,0,6.3134-2.14,37.2259,37.2259,0,0,0,12.3688-9.1651l-2.7954-.738c.51,1.9658-.0771,4.2534-.5909,6.1622a25.8546,25.8546,0,0,1-.9957,3.04,7.9277,7.9277,0,0,1-.3456.7582,3.541,3.541,0,0,0-.2069.37q-.0438.0728-.0936.1418.57-.9247,1.9708-.3983v2.8884c5.08-3.2535,9.5038-7.696,11.8386-13.3313a22.2091,22.2091,0,0,0,1.8325-10.7342c-.93-8.8862-7.01-18.2586-16.7088-18.4067l-17.9035-.2734-26.8449-.41c-5.3584-.0818-10.7561-.3627-16.1148-.2461-.0852.0019-.171-.0026-.2563-.0039-2.1533-.0329-2.154,3.3122,0,3.3451Z"/><path class="cls-1" d="M432.2294,270.7989V247.52a1.6736,1.6736,0,0,0-3.3451,0v23.2794a1.6736,1.6736,0,0,0,3.3451,0Z"/><path d="M324.9413,448.1964h86.5315c3.9782,0,7.9981.1688,11.9738,0,.0579-.0025.1163,0,.1743,0a1.6736,1.6736,0,0,0,0-3.3451H337.0894c-3.9782,0-7.9981-.1689-11.9738,0-.0578.0024-.1163,0-.1743,0a1.6736,1.6736,0,0,0,0,3.3451Z"/><path d="M637.1479,756.8764h313.975c4.24,0,8.4887.081,12.7279,0,.1854-.0036.3711,0,.5565,0a1.6736,1.6736,0,0,0,0-3.3451H650.4323c-4.24,0-8.4887-.0811-12.728,0-.1853.0035-.371,0-.5564,0a1.6736,1.6736,0,0,0,0,3.3451Z"/><ellipse class="cls-1" cx="110.5781" cy="270.0714" rx="85.5781" ry="30.9419"/><path d="M194.4836,270.0714a10.95,10.95,0,0,1-.9511,4.3045,16.6683,16.6683,0,0,1-3.0066,4.3844,39.2566,39.2566,0,0,1-11.3921,7.975c-12.2116,6.1082-26.1247,9.0336-39.5744,10.7861a227.271,227.271,0,0,1-52.019.6852c-14.1385-1.4255-28.6565-4.0707-41.7714-9.7311a50.04,50.04,0,0,1-12.947-7.6164c-2.7777-2.3935-5.158-5.25-5.9292-8.7113a11.0686,11.0686,0,0,1,2.06-8.6995c2.336-3.4093,6.0483-6.0924,9.6666-8.2047,11.2523-6.5686,24.5317-9.7048,37.2723-11.7824a221.8823,221.8823,0,0,1,51.3788-2.0708c14.8752,1.0635,29.9478,3.4578,43.9876,8.6381a63.5136,63.5136,0,0,1,14.6223,7.3521c3.1808,2.2361,6.151,4.989,7.7256,8.5484a10.99,10.99,0,0,1,.8772,4.1424,1.6735,1.6735,0,0,0,3.345,0c-.068-9.1635-8.9517-15.3962-16.2478-19.1667-12.62-6.5219-26.9886-9.61-40.9657-11.4883A227.6393,227.6393,0,0,0,86.68,238.68c-14.726,1.5454-29.6878,4.3719-43.293,10.4027a50.3616,50.3616,0,0,0-13.4341,8.28c-2.9321,2.6412-5.5466,6.0456-6.3382,9.9935-1.7756,8.8555,5.5563,15.702,12.4105,19.8907,11.5344,7.049,25.3766,10.414,38.5763,12.5951a225.285,225.285,0,0,0,53.3343,2.2077c15.4042-1.1474,31.096-3.6341,45.5664-9.2205a62.49,62.49,0,0,0,14.9512-7.8178c3.4171-2.5457,6.593-5.6429,8.2666-9.6336a13.9437,13.9437,0,0,0,1.1087-5.3056A1.6735,1.6735,0,0,0,194.4836,270.0714Z"/><path d="M140.6837,277.04c8.3159,0,15.566,1.6427,19.4178,4.0784a3.8846,3.8846,0,0,0,1.2679-2.6847c0-4.4646-10.01-8.0839-22.3582-8.0839s-22.3583,3.6193-22.3583,8.0839c0,1.4579,1.0729,2.8245,2.9405,4.0055C122.6555,279.2949,130.9393,277.04,140.6837,277.04Z"/><path d="M140.6837,278.7128c6.1184.0232,13.2262.5457,18.5736,3.85a1.6913,1.6913,0,0,0,2.0268-.2615c1.5064-1.6552,2.2508-3.7561,1.299-5.8765a8.0307,8.0307,0,0,0-2.926-3.1922c-3.6358-2.5-8.37-3.4489-12.66-4.0242a60.3119,60.3119,0,0,0-17.2346.18c-4.1562.6448-8.7574,1.7279-12.1287,4.39a6.4326,6.4326,0,0,0-2.5742,3.874c-.4525,2.762,1.5592,4.83,3.69,6.2317a1.6924,1.6924,0,0,0,2.0268-.2615c1.95-1.9405,4.8861-2.832,7.48-3.4944a50.9274,50.9274,0,0,1,12.4274-1.415,1.6736,1.6736,0,0,0,0-3.3451,54.0821,54.0821,0,0,0-13.672,1.6271c-3.0479.811-6.3187,1.9913-8.6009,4.2621l2.0268-.2616a4.8192,4.8192,0,0,1-1.9932-1.9815,1.2046,1.2046,0,0,1-.0088-1.1365,5.1017,5.1017,0,0,1,1.7218-1.826c2.8258-1.9108,6.3794-2.7364,9.6919-3.3063a56.4466,56.4466,0,0,1,13.9431-.5367,37.6473,37.6473,0,0,1,11.5056,2.4749,10.4689,10.4689,0,0,1,3.7207,2.3479,3.93,3.93,0,0,1,.5938.9284,1.3411,1.3411,0,0,1,.0847.3311c.0151.1711.02-.1507,0,.1434a2.453,2.453,0,0,1-.7781,1.502l2.0268-.2615c-5.8436-3.611-13.5658-4.2814-20.2619-4.3068A1.6736,1.6736,0,0,0,140.6837,278.7128Z"/><path class="cls-5" d="M160.1015,281.1187C156.25,278.683,149,277.04,140.6837,277.04c-9.7444,0-18.0282,2.2546-21.09,5.3992,3.8518,2.4357,11.1019,4.0785,19.4178,4.0785C148.7555,286.518,157.0393,284.2633,160.1015,281.1187Z"/><path d="M160.9456,279.6745a27.9949,27.9949,0,0,0-9.61-3.3564,59.0113,59.0113,0,0,0-13.2076-.8977,49.813,49.813,0,0,0-11.9819,1.8161,18.0071,18.0071,0,0,0-7.7352,4.02,1.6924,1.6924,0,0,0,.3385,2.6268,27.9942,27.9942,0,0,0,9.61,3.3564,59.01,59.01,0,0,0,13.2076.8977,49.8145,49.8145,0,0,0,11.9819-1.8161,18.0086,18.0086,0,0,0,7.7352-4.02,1.6735,1.6735,0,0,0-2.3653-2.3654c-1.7448,1.736-4.2856,2.6036-6.6012,3.2587a46.96,46.96,0,0,1-11.2095,1.6152,54.652,54.652,0,0,1-12.0578-.8332,25.2614,25.2614,0,0,1-8.6127-2.9814l.3385,2.6269c1.7448-1.736,4.2856-2.6036,6.6011-3.2587a46.962,46.962,0,0,1,11.21-1.6152,54.652,54.652,0,0,1,12.0578.8332,25.2614,25.2614,0,0,1,8.6127,2.9814C161.0937,283.6977,162.7755,280.8053,160.9456,279.6745Z"/><ellipse class="cls-3" cx="54.6586" cy="270.9367" rx="15.4998" ry="5.6042"/><ellipse class="cls-5" cx="91.4544" cy="283.2019" rx="15.4998" ry="5.6042"/><ellipse class="cls-2" cx="85.8793" cy="256.4414" rx="15.4998" ry="5.6042"/><ellipse class="cls-4" cx="129.9227" cy="254.2113" rx="15.4998" ry="5.6042"/></svg>