<svg id="Layer_1" data-name="Layer 1" xmlns="http://www.w3.org/2000/svg" width="1000" height="1000" viewBox="0 0 1000 1000"><defs><style>.cls-1{fill:#fff;}.cls-2{fill:#fc7272;}.cls-3{fill:#fc7f3a;}.cls-4{fill:#ea2f2f;}.cls-5{fill:#a8542a;}.cls-6{fill:#ffc41f;}.cls-7{fill:#458dc9;}</style></defs><path class="cls-1" d="M115.8652,956.2414v-9.8235a28.9072,28.9072,0,0,1,20.285-27.5914l22.951-7.1722-10.6154-30.33a19.3053,19.3053,0,0,1,3.2625-18.5809v0a19.3054,19.3054,0,0,1,29.19-.8416l22.0743,24.081,58.7739,22.2936,6.7894-18.9635a35.1765,35.1765,0,0,1,47.4745-20.2564l22.75,10.1707,7.6958-13.4677a35.1764,35.1764,0,0,1,40.7706-16.2039l42.0589,12.7826,29.0492,101.3343"/><path d="M117.8919,956.2414c0-3.2717-.0255-6.5444,0-9.816a27.1074,27.1074,0,0,1,7.2732-18.3976c6.3794-6.764,15.7591-8.57,24.296-11.2383l10.1789-3.1809a2.05,2.05,0,0,0,1.4155-2.4931c-3.4716-9.9187-6.9671-19.8294-10.4148-29.7564a18.2343,18.2343,0,0,1-.3392-11.8408,17.2708,17.2708,0,0,1,23.8741-10.1676,21.1385,21.1385,0,0,1,6.2782,5.019L192.94,877.9905l6.3148,6.8889c.959,1.0461,1.9,2.4667,3.2219,3.0587,2.7411,1.2277,5.6661,2.1492,8.4729,3.2139l18.5184,7.0242c10.3854,3.9393,20.7051,8.2293,31.2106,11.8385.1918.0659.38.1441.57.2161a2.0613,2.0613,0,0,0,2.493-1.4156l5.3418-14.92c.7407-2.0687,1.41-4.1988,2.3112-6.2052a33.1818,33.1818,0,0,1,33.47-19.5391c6.0662.55,11.3958,3.2069,16.8575,5.6486l16.056,7.178a2.0769,2.0769,0,0,0,2.7729-.7271c2.6483-4.6345,5.2318-9.3126,7.95-13.9061a33.3926,33.3926,0,0,1,27.5219-16.2709c5.9174-.175,11.2971,1.6166,16.8536,3.3054l21.0114,6.3858,14.8991,4.5281-1.4155-1.4155,9.8376,34.3171L452.8629,951.8l3.558,12.4115c.7175,2.5031,4.63,1.4388,3.9086-1.0775l-8.21-28.6408-14.6117-50.9709-5.01-17.4758c-.367-1.28-.7027-2.5747-1.1023-3.8453-.4438-1.4111-1.4458-1.7913-2.7326-2.1823q-20.1946-6.1377-40.3893-12.2752a37.6458,37.6458,0,0,0-32.6285,5.0374,38.6393,38.6393,0,0,0-11.193,12.4712q-2.9021,5.0688-5.7957,10.1425l-1.6056,2.81,2.7729-.7271L325.38,871.02c-5.6587-2.53-11.3236-5.5252-17.4955-6.5344a37.467,37.467,0,0,0-27.7513,6.37c-6.8357,4.9025-11.2525,11.6081-14.0583,19.4452l-6.243,17.4371,2.4931-1.4155-27.7905-10.5413-19.8122-7.5149-7.2511-2.75a29.5933,29.5933,0,0,0-3.6708-1.3924c-.0646-.0148-.1677-.0955-.2343-.0889.3132-.0311.99.904.7279.35a8.6492,8.6492,0,0,0-1.4837-1.6186l-6.0028-6.5486L183.643,861.8558a27.6025,27.6025,0,0,0-5.8281-5.1286,21.34,21.34,0,0,0-32.2615,20.8388,32.9862,32.9862,0,0,0,1.8609,6.82l3.0281,8.6516,6.3021,18.0062.4024,1.15,1.4155-2.4931L136.86,916.482a33.4713,33.4713,0,0,0-13.57,7.6776,31.186,31.186,0,0,0-9.2506,18.8509c-.5033,4.3532-.2,8.8571-.2,13.2309,0,2.6081,4.0533,2.6124,4.0533,0Z"/><path d="M788.6159,431.8036s29.59,5.69,33.0041,22.7614-39.8325,21.0544-39.8325,21.0544"/><path d="M788.0771,433.7579a68.6456,68.6456,0,0,1,13.0628,4.0446c6.6412,2.7443,14.0871,6.9823,17.3725,13.77a13.6278,13.6278,0,0,1,.8576,2.3024c.1143.4054.2151.8155.2957,1.2289.0354.1812.07.3631.0941.5462-.0642-.4792.01.2663.0143.3515q.0213.4323.0017.8655c-.0079.17-.0224.3385-.0385.5076.0483-.5085-.0045.0369-.0235.1245-.0648.298-.1264.5939-.213.8868-.0522.1766-.4113,1.0773-.2288.68a13.1112,13.1112,0,0,1-5.3,5.5314c-5.7037,3.6292-12.4563,5.4439-19.14,6.8905q-4.7242,1.0224-9.5179,1.6842-.208.029-.4161.0574c-.479.0664.4751-.0616.0132-.0018-.2781.0359-.5561.0725-.8343.1072q-.6174.0773-1.2356.1473c-.351.0395-.7022.0785-1.0539.1111a2.0817,2.0817,0,0,0-2.0267,2.0267,2.0415,2.0415,0,0,0,2.0267,2.0267,118.3631,118.3631,0,0,0,12.2367-1.8581c7.0987-1.4183,14.411-3.333,20.7444-6.94a20.2415,20.2415,0,0,0,7.369-6.553,11.5728,11.5728,0,0,0,1.2074-9.255c-2.2061-8.3112-9.8576-13.8625-17.2223-17.4162a70.2057,70.2057,0,0,0-16.968-5.7744c-2.5486-.4924-3.64,3.4134-1.0776,3.9086Z"/><path class="cls-2" d="M765.6148,862.0347l-1.4981,99.77-136.9426-1.6142s-1.8727-38.8287,49.1389-42.4a18.3436,18.3436,0,0,0,17.1187-18.2328c.0222-12.129-.011-23.8647-.011-23.8647"/><path d="M763.5881,862.0347l-.1491,9.9323-.3581,23.849-.4331,28.8438-.3728,24.8309-.1236,8.23a38.5116,38.5116,0,0,0-.0588,3.9115,1.6883,1.6883,0,0,1-.0025.1727l2.0266-2.0266-13.7025-.1616-32.6377-.3847-39.5759-.4665-34.2026-.4032-11.2369-.1324c-1.7559-.0207-3.5952-.2019-5.3478-.0631-.0784.0062-.16-.0019-.2392-.0028l2.0266,2.0267a19.4869,19.4869,0,0,1,.0345-1.9783c.0419-.7645.1153-1.5258.2021-2.2863.0116-.1014.0258-.2024.0377-.3038.0383-.3287-.0754.5124-.0092.0672.0354-.2376.0689-.4755.1065-.7128q.1269-.799.2853-1.5927a42.6558,42.6558,0,0,1,2.17-7.3037c.06-.1526.1233-.3041.1859-.4558-.1758.4256.0457-.1062.0893-.2047.1487-.3364.299-.6718.4555-1.0047q.5045-1.0728,1.0723-2.1144a39.0257,39.0257,0,0,1,2.6468-4.1957,36.6391,36.6391,0,0,1,3.2115-3.8006,41.0908,41.0908,0,0,1,4.1631-3.7477,45.7372,45.7372,0,0,1,11.6932-6.4479,69.1953,69.1953,0,0,1,16.8993-3.9427c3.1818-.3522,6.3922-.38,9.4362-1.4841a20.3671,20.3671,0,0,0,12.47-12.546c1.1506-3.2682,1.109-6.628,1.1126-10.046q.01-9.672-.0132-19.344-.0014-.5262-.0027-1.0524c-.0073-2.6079-4.0607-2.6128-4.0534,0q.02,6.9955.0186,13.9912c.0011,6.7314,1.0151,13.989-3.3235,19.69a16.6187,16.6187,0,0,1-6.3747,5.0295c-2.8462,1.2843-5.8449,1.342-8.8929,1.6671a74.757,74.757,0,0,0-17.5294,3.8231c-8.1184,2.9359-15.6512,7.6673-21.0453,14.493a42.3389,42.3389,0,0,0-7.9937,16.52,33.1663,33.1663,0,0,0-1.11,9.1528c.0023.0433.0022.0867.0043.13a2.0663,2.0663,0,0,0,2.0267,2.0267l13.7025.1615,32.6377.3847,39.5759.4665,34.2026.4032c5.5142.065,11.0708.3371,16.5847.1955.0795-.002.16.0019.2392.0028a2.0574,2.0574,0,0,0,2.0267-2.0267l.1492-9.9323.3581-23.849.4331-28.8437.3728-24.8309c.0605-4.0322.3035-8.1093.1823-12.1413-.0017-.0574.0017-.1154.0026-.1728.0392-2.6092-4.0142-2.61-4.0534,0Z"/><path class="cls-1" d="M691.171,908.1336c-3.1885,4.236-11.6179,9.9552-17.2884,10.3522-2.8064.1964-5.4476.5026-7.9507.8953l29.6444,37.0035,68.8575,2.5566.3963-9.8059a5.7132,5.7132,0,0,0-5.6609-5.9437l-29.9529-.25a23.1868,23.1868,0,0,1-18.1693-9.0285Z"/><path d="M689.421,907.1107c-2.5031,3.258-6.3629,5.78-10.0005,7.5753-4.4027,2.1733-9.2616,2.0046-14.0274,2.7408-1.6739.2585-1.7266,2.3483-.8943,3.3873l13.9645,17.4312L688.51,950.7859c1.8194,2.2712,3.5333,4.7271,5.5042,6.8706,1.0425,1.1339,3.4131.8235,4.828.876l11.3565.4217,32.74,1.2156c7.0406.2614,14.11.7372,21.1563.7855.1128.0007.226.0084.3388.0125a2.0594,2.0594,0,0,0,2.0267-2.0266l.3739-9.2524a7.912,7.912,0,0,0-7.86-8.5255c-6.5622-.1148-13.1288-.11-19.6917-.1644l-9.0875-.0758a22.5553,22.5553,0,0,1-12.063-3.2631,20.7588,20.7588,0,0,1-3.6114-2.8684c-.548-.5432-1.0576-1.1181-1.5572-1.7055-.0566-.0665-.3591-.4377-.1729-.2039-.0165-.0207-.0321-.0422-.0486-.063-.4331-.5478-.8532-1.1066-1.28-1.66l-6.1914-8.03q-6.0588-7.8583-12.1176-15.7168l-.2326-.3016a2.0949,2.0949,0,0,0-2.7729-.7271,2.04,2.04,0,0,0-.7271,2.7729l10.3182,13.3829,6.8958,8.9439c1.3387,1.7364,2.6268,3.5674,4.093,5.2a25.3955,25.3955,0,0,0,17.1345,8.2335c2.128.1422,4.2829.0761,6.4138.0939l22.3156.1862c2.3911.02,5.3895-.1982,6.1075,2.8131a15.288,15.288,0,0,1-.0109,3.968l-.2355,5.8282-.0459,1.1352,2.0267-2.0267-23.3789-.8681-36.9606-1.3723-8.518-.3162,1.4331.5936-9.9875-12.4669-16.0051-19.9783-3.6518-4.5583-.8943,3.3873c2.918-.4507,5.8816-.5361,8.7923-.9894a22.2372,22.2372,0,0,0,6.5237-2.32,32.7214,32.7214,0,0,0,11.1343-8.869,2.0383,2.0383,0,0,0-.7271-2.7729A2.0782,2.0782,0,0,0,689.421,907.1107Z"/><path class="cls-1" d="M644.9784,926.2225a41.0278,41.0278,0,0,0-21.53,35.7806l67.25-5.2385-13.04-1.6667L655.682,928.2153A8.47,8.47,0,0,0,644.9784,926.2225Z"/><path d="M643.9555,924.4725a43.84,43.84,0,0,0-22.4185,34.382,23.7321,23.7321,0,0,0-.1155,3.1486,2.0487,2.0487,0,0,0,2.0267,2.0267l22.72-1.77,36.2151-2.821,8.3156-.6478a2.028,2.028,0,0,0,0-4.0533l-13.04-1.6667,1.4331.5936-21.61-26.4341a10.6987,10.6987,0,0,0-13.5262-2.7582c-2.3047,1.2239-.2591,4.724,2.0458,3.5a6.5767,6.5767,0,0,1,8.2573,1.6879c.5112.6042,1.0025,1.2263,1.5034,1.839l8.1376,9.954,9.039,11.0567,2.7486,3.3622a3.23,3.23,0,0,0,2.3933,1.3063q6.3084.812,12.6182,1.6127v-4.0533l-22.72,1.77-36.2152,2.821-8.3155.6477,2.0267,2.0267a21.1925,21.1925,0,0,1,.0533-2.3289q.035-.5472.0871-1.0933.0345-.363.0759-.7253c.0172-.1515.1174-.9134.0469-.4061q.2355-1.6932.6071-3.3635a38.94,38.94,0,0,1,8.2852-16.9,41.8643,41.8643,0,0,1,11.3709-9.214C648.2741,926.692,646.2333,923.1892,643.9555,924.4725Z"/><polygon class="cls-1" points="695.576 956.385 690.699 956.765 696.472 957.502 695.576 956.385"/><path d="M695.5763,954.3579l-4.8776.38a2.1631,2.1631,0,0,0-1.4331.5936,2.0266,2.0266,0,0,0,0,2.8661l.41.3169a2.0164,2.0164,0,0,0,1.023.2767l5.0554.6462.7178.0918.5388-.0724.4841-.2043a2.0092,2.0092,0,0,0,.8292-.9692,1.9346,1.9346,0,0,0,.1384-1.05,2.21,2.21,0,0,0-.5574-1.1637l-.8956-1.1179a2.0281,2.0281,0,0,0-1.4331-.5936,2.0626,2.0626,0,0,0-1.4331.5936,2.0393,2.0393,0,0,0-.5936,1.4331,2.3412,2.3412,0,0,0,.5936,1.4331l.8956,1.1179,1.4331-3.46-5.0555-.6462-.7177-.0917v4.0533l4.8776-.38a2.1639,2.1639,0,0,0,1.4331-.5936,2.0267,2.0267,0,0,0-1.4331-3.46Z"/><path class="cls-1" d="M732.2961,963.98a5.2033,5.2033,0,0,0-5.0858,5.3183l.11,4.9255-105.2987-1.3873s-.593-11.9718,2.6747-20.1723l139.6092,1.0283.5323,21.1015-27.1048-.4119-.1186-5.3162A5.2036,5.2036,0,0,0,732.2961,963.98Z"/><path d="M732.2961,961.9537a7.3417,7.3417,0,0,0-7.1108,7.1738c-.0361,1.6944.0705,3.4023.1083,5.0967l2.0267-2.0267-10.4914-.1382-25.1877-.3319-30.3345-.4-26.3306-.3469-8.6463-.1139a40.0372,40.0372,0,0,0-4.1331-.0545,1.6784,1.6784,0,0,1-.1751-.0023l2.0267,2.0267c-.3136-6.5106.2225-13.53,2.6023-19.6335l-1.9543,1.4879,13.9482.1027,33.2353.2448,40.4366.2978,34.7527.256,11.5348.0849c1.7957.0133,3.675.188,5.4668.04.077-.0063.1574.0012.2348.0017l-2.0267-2.0266.5323,21.1015,2.0267-2.0267-23.7224-.36-3.3824-.0514,2.0267,2.0266c-.0394-1.767-.0243-3.5438-.1184-5.3086a7.3588,7.3588,0,0,0-7.3452-7.12c-2.6091-.0262-2.6111,4.0272,0,4.0534,4.2568.0426,3.3468,5.53,3.41,8.3754a2.0628,2.0628,0,0,0,2.0267,2.0267l23.7224.36,3.3824.0514a2.0491,2.0491,0,0,0,2.0266-2.0267l-.5322-21.1015a2.0615,2.0615,0,0,0-2.0267-2.0267l-13.9483-.1028-33.2352-.2447-40.4366-.2979-34.7527-.2559c-5.6521-.0417-11.3508-.3-17.0017-.1252-.078.0024-.1566-.0012-.2347-.0018a2.0953,2.0953,0,0,0-1.9543,1.4879c-2.4953,6.4-3.0761,13.88-2.7471,20.7111a2.0666,2.0666,0,0,0,2.0267,2.0267l10.4913.1382,25.1878.3319,30.3344.4,26.3306.3469c4.2444.0559,8.5356.3023,12.7794.1683.0582-.0018.117.0016.1752.0023a2.05,2.05,0,0,0,2.0267-2.0266c-.0607-2.7171-1.1311-7.9937,2.9491-8.2171C734.89,965.865,734.9069,961.8108,732.2961,961.9537Z"/><path d="M665.0786,954.9929a13.86,13.86,0,0,1,1.7024.1c.13.0129.2583.0321.3876.0464-.0409-.0045-.4765-.0792-.0087.0028.3575.0627.715.12,1.0707.1922a23.4173,23.4173,0,0,1,2.4364.6363q.623.199,1.2342.4324c.2139.0817.4271.166.6383.2546-.3851-.1616.3677.17.4942.23a22.705,22.705,0,0,1,2.8554,1.6074,20.9428,20.9428,0,0,1,5.1567,4.9334,29.49,29.49,0,0,1,4.6428,10.4376c.6246,2.5313,4.5345,1.4591,3.9086-1.0775-1.6484-6.68-4.9961-12.8378-10.5607-17.0144a24.5085,24.5085,0,0,0-11.1755-4.5951,17.0511,17.0511,0,0,0-2.7824-.2393c-2.6039.0631-2.6137,4.1167,0,4.0534Z"/><path class="cls-2" d="M813.2162,794.2555l82.97,55.4275L820.4788,963.8068s-33.6239-19.5093-8.9262-64.2859a18.3436,18.3436,0,0,0-6.0168-24.2752c-10.1735-6.604-20.0469-12.948-20.0469-12.948"/><path d="M812.1933,796.0054l8.26,5.518,19.8332,13.2494,23.9869,16.0242,20.65,13.7949,6.8441,4.5721c1.0649.7114,2.121,1.57,3.2528,2.1731.05.0266.0964.0644.1437.0959l-.7271-2.7729-7.5753,11.4193-18.0436,27.1992L846.9385,920.26,828.03,948.7634l-6.2122,9.3644c-.972,1.4652-2.1145,2.911-2.9565,4.4567-.0377.0692-.0887.1336-.1323.1994l2.7729-.7271a20.1816,20.1816,0,0,1-1.7906-1.2112c-.1453-.1069-.288-.2173-.4332-.3244-.3845-.2837.3657.2994-.1405-.111-.35-.2838-.7009-.5659-1.044-.8582q-1.2315-1.0489-2.3762-2.1947a37.8576,37.8576,0,0,1-9.2138-14.7089c-2.816-8.42-2.3989-17.4174-.0023-25.944a67.38,67.38,0,0,1,2.9917-8.4322c1.3307-3.0865,3.0605-5.9615,4.4536-9.0091a20.6048,20.6048,0,0,0,.362-16.4857,20.0205,20.0205,0,0,0-5.3456-7.47c-3.0524-2.6306-6.74-4.6244-10.118-6.8082q-6.1617-3.9832-12.333-7.9516c-2.201-1.4143-4.2357,2.0928-2.0458,3.5q5.0468,3.2429,10.0848,6.4989,4.7752,3.084,9.5442,6.1779a16.9123,16.9123,0,0,1,5.6043,5.8,16.47,16.47,0,0,1,.7472,14.6932c-1.3605,3.0576-3.12,5.9276-4.4537,9.0091a75.6762,75.6762,0,0,0-3.2038,8.7173c-2.61,8.8886-3.256,18.4894-.6131,27.4506a42.2237,42.2237,0,0,0,9.7174,16.84,34.6025,34.6025,0,0,0,7.5626,6.3227,2.0711,2.0711,0,0,0,2.7729-.7271l7.5753-11.4192,18.0435-27.1993L869.7269,893.23l18.9087-28.5034c3.0433-4.5875,6.35-9.09,9.1687-13.8211.0407-.0683.0883-.1332.1323-.1994a2.0626,2.0626,0,0,0-.7271-2.7729l-8.26-5.518-19.8332-13.2494L845.13,813.1415l-20.65-13.7949c-3.3451-2.2347-6.6262-4.7071-10.0969-6.7451-.0494-.029-.096-.0642-.1437-.096-2.1751-1.4531-4.2067,2.0564-2.0458,3.5Z"/><path class="cls-1" d="M811.51,881.8c1.826,4.9775,2.0522,15.1615-.6932,20.1389-1.3588,2.4634-2.5357,4.8476-3.565,7.1628l47.17-4.8036L893.954,847.862l-8.0195-5.6568a5.7133,5.7133,0,0,0-8.0649,1.5267L861.3969,868.75A23.1869,23.1869,0,0,1,843.95,879.1058Z"/><path d="M809.5555,882.3389a29.1015,29.1015,0,0,1,1.1417,12.3532,18.2678,18.2678,0,0,1-1.264,5.4909c-1.1688,2.6852-2.7311,5.2138-3.9316,7.896-.5548,1.24.0574,3.222,1.75,3.05l22.3441-2.2754c8.2112-.8362,16.4352-1.5919,24.6378-2.5091a2.9272,2.9272,0,0,0,2.2056-1.4053c.5285-.7466,1.05-1.4984,1.5744-2.2476l6.5528-9.3547,18.7968-26.834c4.0385-5.7652,8.3277-11.4254,12.1463-17.34.0612-.0947.13-.1853.1945-.2776a2.0648,2.0648,0,0,0-.727-2.7729c-2.539-1.791-5.0726-3.59-7.6171-5.3731a7.8979,7.8979,0,0,0-11.3473,2.1326c-3.6813,5.4812-7.2636,11.0316-10.8946,16.5461l-4.9591,7.5317a22.63,22.63,0,0,1-9.2867,8.2833,25.791,25.791,0,0,1-9.1,2.0273l-9.9847.8293c-6.632.5508-13.271,1.0474-19.8983,1.6526-.1264.0116-.253.0211-.38.0316-2.581.2143-2.6039,4.27,0,4.0533l16.9647-1.409,11.218-.9317c2.2225-.1846,4.4783-.293,6.68-.66a25.3041,25.3041,0,0,0,15.897-9.8115c1.2959-1.7227,2.4228-3.5891,3.6072-5.388l12.3252-18.7187c1.3172-2,2.78-4.5893,5.7-3.5035a16.3729,16.3729,0,0,1,3.334,2.191l4.7664,3.3622.9284.6548-.7271-2.7729-13.4224,19.1616-21.22,30.2933-4.89,6.9814,1.75-1.0038-15.892,1.6184-25.467,2.5935-5.8107.5917,1.75,3.05c1.24-2.77,2.8328-5.3821,4.0453-8.1545a23.308,23.308,0,0,0,1.6686-6.9315,31.9723,31.9723,0,0,0-1.2514-13.7774C812.5953,878.8213,808.6774,879.8727,809.5555,882.3389Z"/><path class="cls-1" d="M801.62,930.4125A41.0282,41.0282,0,0,0,819.978,967.92l32.1141-59.3191-8.4795,10.0455-34.5074,3.86A8.47,8.47,0,0,0,801.62,930.4125Z"/><path d="M799.5936,930.4125A43.7231,43.7231,0,0,0,816.4211,967.9a24.31,24.31,0,0,0,2.534,1.77,2.0523,2.0523,0,0,0,2.7729-.7271l10.8494-20.04,17.2938-31.9441,3.9709-7.3348c1.0474-1.9348-1.6381-4.2863-3.1831-2.456l-8.48,10.0455,1.4331-.5936c-11.3544,1.27-22.7128,2.5084-34.0636,3.81a11.5855,11.5855,0,0,0-4.9781,1.5469,10.8152,10.8152,0,0,0-4.9773,8.4359c-.2219,2.5988,3.8328,2.584,4.0533,0a6.5542,6.5542,0,0,1,5.4736-5.8815c.7779-.1276,1.5774-.1765,2.3606-.2641l12.7773-1.4292,14.1927-1.5875,4.3159-.4827a3.5636,3.5636,0,0,0,2.5529-1.013c2.8247-3.1546,5.4736-6.4846,8.2053-9.7207l-3.1831-2.456-10.8494,20.04-17.2938,31.944-3.9709,7.3348,2.7729-.727a21.2794,21.2794,0,0,1-1.9374-1.3171c-.131-.0972-.2606-.1961-.3908-.2943-.35-.2643.2777.2194.0454.0344-.0906-.0721-.1824-.1426-.2724-.2155-.3766-.3052-.7512-.6121-1.1185-.9285q-1.2794-1.1022-2.4666-2.3055a38.9475,38.9475,0,0,1-9.6733-16.1841,41.7817,41.7817,0,0,1-1.54-14.5468C803.8059,927.8072,799.752,927.8166,799.5936,930.4125Z"/><polygon class="cls-1" points="854.421 904.298 852.092 908.601 855.846 904.153 854.421 904.298"/><path d="M852.6713,903.2754l-2.0409,3.77-.2883.5326a2.04,2.04,0,0,0,.522,2.6145,1.9311,1.9311,0,0,0,1.228.4351,1.9954,1.9954,0,0,0,1.4331-.5936l3.2858-3.8927.4684-.5548a2.401,2.401,0,0,0,.5212-.8943,2.0132,2.0132,0,0,0-.1022-1.32,1.9332,1.9332,0,0,0-.6241-.8107,1.8693,1.8693,0,0,0-1.228-.4352l-1.425.1451a2.1918,2.1918,0,0,0-1.4331.5936,2.0267,2.0267,0,0,0,0,2.8662,1.97,1.97,0,0,0,1.4331.5936l1.425-.1451-1.4331-3.46-3.2859,3.8927-.4683.5548,3.1831,2.456,2.0408-3.77.2884-.5326a2.1264,2.1264,0,0,0,.2043-1.5617,2.0675,2.0675,0,0,0-.9314-1.2112,2.0266,2.0266,0,0,0-2.7729.7271Z"/><path class="cls-1" d="M880.7368,877.5863a5.2033,5.2033,0,0,0,1.7048,7.1584l4.196,2.5819L828.3013,975s-10.3755-6.0021-15.4878-13.1986L889.477,845.12l18.0094,11.01-15.0622,22.5381-4.5289-2.7868A5.2035,5.2035,0,0,0,880.7368,877.5863Z"/><path d="M878.9868,876.5634a7.3411,7.3411,0,0,0,2.2891,9.8369c1.4033.95,2.8953,1.7881,4.3388,2.6763l-.7271-2.7729-5.8123,8.7353-13.9542,20.9717-16.8055,25.2569-14.5873,21.9233-4.79,7.1991c-.7492,1.126-1.657,2.2437-2.29,3.4413-.0268.0507-.0651.0978-.097.1458l2.7729-.7271c-5.46-3.1683-11.0469-7.324-14.7608-12.4715v2.0458l7.6593-11.6575,18.25-27.777,22.2049-33.7957,19.0837-29.0453,6.3341-9.64c.9873-1.5026,2.1462-2.9856,3.002-4.5689.0368-.0681.0864-.1315.1289-.1963l-2.7728.7271,18.0094,11.01-.7271-2.7729-13.1826,19.7256-1.88,2.8125,2.7729-.7271c-1.5053-.9263-2.9892-1.9037-4.5224-2.7828a7.3609,7.3609,0,0,0-9.9379,2.4279c-1.4423,2.1825,2.0665,4.215,3.5,2.0458,2.3037-3.486,6.5661.364,8.9144,1.8091a2.0676,2.0676,0,0,0,2.7729-.7271l13.1827-19.7255,1.88-2.8126a2.0538,2.0538,0,0,0-.7271-2.7729L890.5,843.37a2.0662,2.0662,0,0,0-2.7729.727l-7.6594,11.6576-18.25,27.777-22.2049,33.7957-19.0837,29.0452c-3.1,4.7175-6.4608,9.35-9.3361,14.21-.04.0671-.0861.131-.1289.1962a1.9757,1.9757,0,0,0,0,2.0458c4.1375,5.7346,10.1228,10.39,16.2149,13.9257a2.0716,2.0716,0,0,0,2.7729-.7271l5.8123-8.7353,13.9542-20.9717,16.8055-25.2569,14.5874-21.9233c2.3457-3.5254,4.94-6.9837,7.08-10.64.0293-.05.0648-.0974.097-.1458a2.0546,2.0546,0,0,0-.7271-2.7729c-2.3919-1.4718-7.2374-3.3568-5.1737-6.9674C883.7833,876.3409,880.2824,874.2966,878.9868,876.5634Z"/><path d="M836.7421,929.0763c.0746-.1216.1559-.2392.2369-.3565.0964-.14.2013-.2731.2979-.4124.2309-.333-.1172.1451-.0612.0765.0907-.1111.1775-.2253.2694-.3355a23.6424,23.6424,0,0,1,3.0909-3.0893,20.2768,20.2768,0,0,1,2.06-1.4685,21.8568,21.8568,0,0,1,2.8439-1.5145,21.1837,21.1837,0,0,1,7.0186-1.6468,29.4778,29.4778,0,0,1,11.3041,1.7844c2.4721.85,3.5338-3.0642,1.0775-3.9086-6.352-2.1837-13.4324-2.8288-19.8184-.4039a25.14,25.14,0,0,0-10.1337,7.013,17.5361,17.5361,0,0,0-1.6862,2.2162c-1.3675,2.23,2.1369,4.2683,3.5,2.0459Z"/><path class="cls-3" d="M694.0787,436.4269l-4.7271,430.4644,92.77-.5909s19.95-313.47,16.4969-360.5565-13.6749-109.823-13.6749-109.823"/><path d="M692.052,436.4269l-.1264,11.5165-.3442,31.3411-.509,46.3532-.6211,56.5528-.68,61.94-.6865,62.5145-.6377,58.0731-.541,49.269-.389,35.4241c-.0614,5.5833-.2538,11.1831-.1842,16.7667.003.2376-.0052.4758-.0078.7134a2.0534,2.0534,0,0,0,2.0267,2.0267l31.3519-.2,49.9622-.3183,11.4558-.0729a2.0713,2.0713,0,0,0,2.0267-2.0267q.3857-6.0588.7607-12.1183,1.0083-16.19,1.9874-32.3823,1.4233-23.508,2.7935-47.0193,1.6318-28.0123,3.1789-56.0295,1.6362-29.7028,3.1435-59.4125,1.4466-28.6948,2.6975-57.3991c.702-16.4132,1.3424-32.83,1.8062-49.2519.3363-11.9042.6318-23.82.5071-35.73-.1863-17.7933-2.45-35.5663-4.5551-53.2108q-3.8715-32.4551-8.9938-64.7519-.2848-1.8067-.5763-3.6125c-.4182-2.5681-4.3248-1.4784-3.9086,1.0776,2.5985,15.9582,4.8812,31.9745,6.9976,48.0029,1.8708,14.1683,3.5795,28.3605,4.9808,42.5834.7928,8.0457,1.6427,16.1167,1.8908,24.2026.3253,10.6018.0928,21.2269-.1491,31.8279-.3549,15.5521-.9186,31.0994-1.5449,46.6427q-1.12,27.7967-2.508,55.5817-1.4536,29.6984-3.073,59.3885-1.5526,28.676-3.2087,57.3464-1.4307,24.84-2.9235,49.677-1.0926,18.1916-2.2177,36.381c-.3568,5.764-1.1473,11.6786-1.0911,17.4574.0024.248-.0318.5012-.0475.7492l2.0266-2.0267-31.3519.2-49.9621.3182-11.4559.073,2.0267,2.0267.1264-11.5165.3442-31.3411.509-46.3532.6211-56.5528.68-61.94.6865-62.5146.6377-58.073.541-49.269.389-35.4242c.0614-5.5832.2538-11.183.1842-16.7667-.003-.2375.0052-.4757.0078-.7133.0287-2.6091-4.0247-2.6109-4.0534,0Z"/><path class="cls-3" d="M647.3219,442.2066,605.7382,585.21c-9.684,33.3023-6.7985,51.4905.611,102.409l16.2393,161.667c1.296,12.9017,13.7322,20.804,24.7915,15.7531l11.341-5.1795c4,13.155,17.6507,18.9314,28.3412,11.9926h0l13.4,8.958a17.743,17.743,0,0,0,20.3938-.2644l12.2053-8.5927,9.14,7.5771c11.7659,9.7542,28.0962,8.3114,38.37-3.39l7.6093-8.6665,3.4018-1.31c14.4237-5.555,22.7024-22.601,19.0831-39.2924l-.4823-2.2242h0c16.0926-9.2559,26.2115-29.5753,15.6245-46.0782l10.2166-4.579c9.1575-4.1043,14.7662-14.1863,13.8263-24.8538l-.9186-10.4254-27.6785-43.5579a73.15,73.15,0,0,1-10.1379-51.1608l13.8065-82.0844a133.5177,133.5177,0,0,0-2.1328-54.5094l-20.106-80.1216"/><path class="cls-4" d="M675.2306,490.1036a21.6563,21.6563,0,0,0-5.4123.6833,21.6269,21.6269,0,0,0-29.2449-25.3725l-19.7308,67.8528c.56.0434,1.1233.0724,1.6941.0724a21.6557,21.6557,0,0,0,5.4123-.6834,21.618,21.618,0,1,0,41.8693,0,21.62,21.62,0,1,0,5.4123-42.5526Z"/><path class="cls-4" d="M798.8584,613.7314a21.6146,21.6146,0,0,0,19.3687-12.0161l2.0763-12.3447a21.5523,21.5523,0,0,0-.51-2.6694c.3046.0785.6149.1423.9244.2077l4.2051-25.0016a133.3558,133.3558,0,0,0,1.768-17.7023c-.4914-.0333-.9855-.0564-1.4853-.0564a21.6549,21.6549,0,0,0-5.4122.6833,21.6181,21.6181,0,1,0-41.8693,0,21.618,21.618,0,1,0,0,41.8693,21.6354,21.6354,0,0,0,20.9346,27.03Z"/><path class="cls-4" d="M849.8512,749.1358l-.9186-10.4254-19.7253-31.0419a21.7322,21.7322,0,0,0-.6164,12.8095,21.618,21.618,0,1,0,0,41.8693,21.6691,21.6691,0,0,0,1.2758,14.4024l6.1582-2.76C845.1824,769.8853,850.7911,759.8033,849.8512,749.1358Z"/><path d="M645.3676,441.6679,638.3649,465.75l-15.0537,51.7686L608.8964,567.09c-2.763,9.5017-5.814,19.0037-7.9934,28.6608a135.5838,135.5838,0,0,0-3.3339,32.4881c.2523,13.1588,2.0408,26.2586,3.8549,39.2752,1.6724,11.9987,3.2751,23.8542,4.4844,35.8932l4.8691,48.4731,5.6277,56.0254,3.7695,37.5263c.4249,4.23.8108,8.33,2.813,12.2164a20.219,20.219,0,0,0,13.5984,10.5539c4.9386.999,9.2942-.2609,13.7431-2.2927l9.4147-4.3-2.9772-1.2112c2.1018,6.6,6.5771,12.2818,13.0857,14.9487a19.8106,19.8106,0,0,0,18.2327-1.7449h-2.0458c4.4652,2.9849,8.89,6.0414,13.4,8.958a19.9545,19.9545,0,0,0,17.7126,2.18c3.2885-1.2231,6.0109-3.348,8.8491-5.3462l8.0832-5.6907-2.456-.3169c4.5357,3.76,9.0239,8.2394,14.2272,11.0658a28.95,28.95,0,0,0,29.152-.9161,38.2069,38.2069,0,0,0,8.2414-7.38l3.288-3.7448a21.0018,21.0018,0,0,0,2.8533-3.25c.3957-.735-.7549.2067-.4538.1829a8.9266,8.9266,0,0,0,2.0624-.7943,38.9271,38.9271,0,0,0,5.53-2.5115,32.92,32.92,0,0,0,10.9329-10.4848c6.2393-9.4906,7.0273-20.6017,4.6759-31.4456l-.9314,2.2887c16.6254-9.5623,27.3955-31.19,16.3517-48.8511l-.7271,2.7729c5.1843-2.3236,11.0278-4.2563,15.4761-7.8735,7.294-5.9313,10.2816-15.2394,9.475-24.3935-.2631-2.987-.484-5.981-.79-8.9638a5.658,5.658,0,0,0-1.1655-2.7466l-8.2166-12.9306q-9.1668-14.4257-18.3336-28.8516a72.5483,72.5483,0,0,1-10.0093-51.2006L824.94,573.96c2.06-12.2458,4.0794-24.3763,3.8309-36.8735-.2731-13.73-3.181-26.8555-6.4972-40.07L805.04,428.3364l-.4013-1.5988c-.6345-2.5286-4.5447-1.4573-3.9086,1.0775l15.5957,62.148c2.1918,8.7344,4.7043,17.4851,6.324,26.35,3.079,16.8517,2.2411,33.6286-.5818,50.4118L810.1027,637.86c-.4736,2.8154-.9928,5.63-1.3668,8.4608a75.6708,75.6708,0,0,0,3.8026,35.6081c4.1171,11.3249,11.4871,21.3623,17.9106,31.4711l11.0182,17.3394,3.9267,6.1795c.21.33,1.351,2.7252,1.7634,2.7751-.412-.05-.1731-1.519-.2182-.6058a11.473,11.473,0,0,0,.1333,1.5128l.466,5.2888a35.79,35.79,0,0,1-.0193,10.0322,23.0078,23.0078,0,0,1-7.593,13.2552c-2.5,2.1123-5.4947,3.3185-8.4432,4.64l-6.6976,3.0018a2.0416,2.0416,0,0,0-.7271,2.7729c9.87,15.7843-.1533,34.825-14.8975,43.3053a2.0813,2.0813,0,0,0-.9314,2.2888c1.9459,8.9737,1.5762,17.9787-2.9648,26.17A29.221,29.221,0,0,1,795.54,861.898a28.445,28.445,0,0,1-4.9554,2.4882,19.8743,19.8743,0,0,0-3.4261,1.3373c-1.9144,1.22-3.4625,3.7933-4.9425,5.4789a73.9552,73.9552,0,0,1-5.4739,5.9525,25.1487,25.1487,0,0,1-26.8173,4.7942c-5.8053-2.51-10.6147-7.4372-15.43-11.429a2.08,2.08,0,0,0-2.456-.3169c-4.1682,2.9344-8.2785,5.9757-12.519,8.8045a16.0885,16.0885,0,0,1-18.0343.0525c-2.0049-1.2966-3.9722-2.6554-5.9571-3.9822l-7.4433-4.9758a1.9912,1.9912,0,0,0-2.0458,0c-10.1614,6.5954-21.9623-.1-25.3641-10.7813a2.0641,2.0641,0,0,0-2.9772-1.2113c-7.1436,3.2626-15.1532,8.7014-23.17,5.2118-6.4544-2.81-9.4171-9.0982-10.0837-15.7344l-3.2461-32.3163-5.449-54.2462-5.1186-50.9567c-.76-7.5662-1.3537-15.1714-2.2912-22.7182-3.2163-25.8932-9.1055-52.0487-5.7385-78.248,1.494-11.6249,4.9343-22.8126,8.1952-34.0267l12.98-44.6374,15.4792-53.2316,9.5481-32.8353.4726-1.6252c.73-2.51-3.1805-3.5814-3.9086-1.0775Z"/><path class="cls-1" d="M702.3273,324.8742,579.6417,376.44c-.5335-9.7435,2.35-44.61-.912-57.4873-4.1748-16.4813-9.6964-30.7762-15.0195-39.9741l76.7891-36.4614a41.1928,41.1928,0,0,1,18.4484-3.9745l26.688.505"/><path d="M701.7885,322.92l-12.2042,5.13-29.3076,12.3182-35.4535,14.9015L594.181,368.1483l-10.0926,4.242c-1.5636.6573-3.29,1.1953-4.7807,2.0094a2.2125,2.2125,0,0,1-.2048.0861l2.5655,1.9543c-.2424-4.62.0255-9.2824.1721-13.9013.2088-6.58.4352-13.1607.4867-19.7446a155.3894,155.3894,0,0,0-.6543-18.4164c-.8389-7.5219-3.2955-14.883-5.6957-22.0276a134.5863,134.5863,0,0,0-10.517-24.3944l-.7271,2.7729,13.9544-6.6259,29.4987-14.0068,26.4966-12.5813,6.3265-3.0039a40.2681,40.2681,0,0,1,18.014-3.94c8.5945.1422,17.1885.3253,25.7826.4879l.83.0157c2.6093.0494,2.6094-4.004,0-4.0534l-25.4443-.4814a46.0058,46.0058,0,0,0-20.737,4.238c-1.4689.69-2.9326,1.3925-4.3988,2.0887L610.354,254.5953l-30.3749,14.4228-11.3722,5.4c-1.8819.8936-3.8336,1.7078-5.67,2.6924-.0808.0433-.1665.0791-.2493.1184a2.05,2.05,0,0,0-.7271,2.7729,123.6918,123.6918,0,0,1,9.1863,20.7448q2.2954,6.52,4.1471,13.1845a72.195,72.195,0,0,1,2.1839,9.2717,130.8464,130.8464,0,0,1,.8061,17.6368c-.0134,6.5452-.22,13.0883-.43,19.63-.17,5.3041-.5168,10.6653-.2384,15.9711.0608,1.1591,1.2726,2.4977,2.5655,1.9543l12.2041-5.13,29.3076-12.3183,35.4536-14.9014,30.6421-12.8792q7.4367-3.1257,14.8733-6.2514l.2048-.0861a2.095,2.095,0,0,0,1.4155-2.493,2.0391,2.0391,0,0,0-2.493-1.4156Z"/><path d="M570.275,357.994q-3.2868,1.0018-6.6024,1.8706c5.3719,11.1416,10.8477,17.7039,14.8546,16.6889,4.101-1.0387,5.7772-9.7883,5.0747-22.6229Z"/><path d="M569.7362,356.04q-3.284.9963-6.6024,1.8706a2.0562,2.0562,0,0,0-1.2112,2.9772,66.0454,66.0454,0,0,0,7.05,11.8373c1.7828,2.295,3.9522,4.6867,6.7894,5.6364,6.0172,2.014,8.596-5.1124,9.34-9.6606a68.95,68.95,0,0,0,.5262-14.77,2.05,2.05,0,0,0-2.5655-1.9543L569.7362,356.04c-2.4881.7586-1.4273,4.6723,1.0776,3.9085l13.3268-4.0634-2.5654-1.9542a76.3094,76.3094,0,0,1-.1549,11.978,28.6132,28.6132,0,0,1-.748,4.2286,11.4827,11.4827,0,0,1-1.0843,2.9034c-.12.2136-.2507.4178-.3855.6222-.25.3786.0725-.0447-.1508.1929-.1451.1543-.2913.3023-.4464.4466-.0833.0774-.3.1988.0566-.0381a2.5547,2.5547,0,0,0-.3072.1943c-.31.2837.1683-.0163-.0965.06a5.2523,5.2523,0,0,1-.562.1408c.46-.0794-.0206-.0377-.2132-.0357-.1129.0012-.373-.0669.0735.0176a2.6209,2.6209,0,0,1-.3158-.068c-.2159-.07-.4333-.1249-.6445-.21.3881.157-.2656-.1515-.3441-.1956a8.8207,8.8207,0,0,1-1.1381-.7745,20.5726,20.5726,0,0,1-2.9016-3.0567,61.9479,61.9479,0,0,1-6.79-11.4944l-1.2112,2.9772q3.3177-.8778,6.6025-1.8707C573.3032,359.193,572.2421,355.2794,569.7362,356.04Z"/><path class="cls-2" d="M331.6141,322.28l141.9222,37.8709a179.0175,179.0175,0,0,0,90.1363-.286q3.3144-.8731,6.6024-1.8706l13.3269-4.0634a188.19,188.19,0,0,0-5.698-34.7163c-4.1748-16.4813-9.6963-30.7762-15.0195-39.9741l-16.9431,8.045-23.2806,11.0541L357.2535,255.4278a42.0285,42.0285,0,0,0-17.8495-.7088l-18.8146,3.3161"/><path d="M331.0753,324.2339l6.5788,1.7555,17.2377,4.6,24.1488,6.4439,27.3121,7.2881,26.7276,7.132,22.3952,5.9761,14.3151,3.82a194.2173,194.2173,0,0,0,20.087,4.3335,182.6022,182.6022,0,0,0,54.0663.3415,179.6382,179.6382,0,0,0,26.4-5.8334c3.4624-1.044,6.9187-2.1088,10.3779-3.1635l3.4186-1.0424a2.0618,2.0618,0,0,0,1.488-1.9542,182.553,182.553,0,0,0-4.8447-31.4672,202.5837,202.5837,0,0,0-9.8757-31.2281,112.1218,112.1218,0,0,0-6.2738-13.018,2.0776,2.0776,0,0,0-2.7729-.7271l-32.6621,15.5087-7.5616,3.59,1.5617-.2043-5.79-1.5022-15.4961-4.02-22.3907-5.8088-26.4733-6.868-27.7443-7.1977-26.2038-6.798L377.25,258.5213l-14.6875-3.81a85.189,85.189,0,0,0-9.9484-2.24,53.7634,53.7634,0,0,0-16.7376.82l-12.9341,2.28-2.8913.51c-2.5645.452-1.4776,4.359,1.0775,3.9086l12.587-2.2185c6.2793-1.1067,12.4113-2.2229,18.8321-1.2467a117.5991,117.5991,0,0,1,11.6836,2.8078l21.4975,5.5771,30.1885,7.8318,33.7839,8.7645,32.3373,8.3893,25.4818,6.6107,13.6219,3.5339c.3061.0794.6129.1758.9229.2394a4.3752,4.3752,0,0,0,2.7945-.7476l13.6356-6.4745q10.7861-5.1213,21.5718-10.2428l3.8407-1.8236-2.7729-.7271a131.9159,131.9159,0,0,1,10.59,24.8794,220.4155,220.4155,0,0,1,7.9826,32.4489,152.0188,152.0188,0,0,1,1.8678,16.3392l1.4879-1.9543c-8.9367,2.7248-17.8358,5.6217-26.9674,7.6368a177.5187,177.5187,0,0,1-53.8215,3.438,175.1906,175.1906,0,0,1-29.7121-5.2585l-11.9542-3.19-20.795-5.549-26.0651-6.9553-27.3854-7.3076-25.12-6.7031-19.2266-5.13c-3.1468-.84-6.2844-1.7382-9.4461-2.5206-.1395-.0345-.278-.0742-.4169-.1112-2.5231-.6733-3.5995,3.2356-1.0776,3.9085Z"/><path class="cls-2" d="M456.3032,425.1978l-47.5146,9.718-34.6706,7.4964a9.5938,9.5938,0,0,0-7.0164,12.5788v0a9.5939,9.5939,0,0,0,9.1072,6.3921l12.2929-.0811c3.3433-.0221-.1778,3.2623-1.7629,6.206l5.6674.2822a4.358,4.358,0,0,1-2.2946,2.0223c-10.5357,3.962-28.3163,5.9019-42.0648,6.5263a9.3281,9.3281,0,0,0-8.7365,11.1444h0a9.304,9.304,0,0,0,9.2527,7.4957l-1.1947,3.989a11.1154,11.1154,0,0,0,4.1822,12.23l2.7407,1.96-.188,3.9031a11.1154,11.1154,0,0,0,8.4171,11.3209h0l-.0512,1.9361a11.1154,11.1154,0,0,0,8.1868,11.017l5.0579,1.3794,32.2218-6.8235a53.2533,53.2533,0,0,0,31.86-20.5359h0a53.2538,53.2538,0,0,1,31.421-20.441l1.1053-.2438"/><path d="M455.7644,423.2435l-21.4339,4.3838-25.4688,5.2091c-6.7679,1.3842-13.5087,2.9136-20.26,4.3735l-13.2689,2.8689a21.045,21.045,0,0,0-3.3749.881,11.61,11.61,0,0,0-3.6956,19.3625,12.3056,12.3056,0,0,0,8.62,3.0831l7.1964-.0475,3.4181-.0225a6.9757,6.9757,0,0,0,.8725-.0058c.0417-.0057.0878.0074.129-.0008.1083-.0215.438-.03.3083.0161-.0147.0051-1.2517-1.185-.9374-1.3786a17.5236,17.5236,0,0,0-1.21,1.9351c-.5847.845-1.1694,1.6856-1.6706,2.5838a2.05,2.05,0,0,0,1.75,3.05l5.6674.2822-1.75-3.05a3.5605,3.5605,0,0,1-2.2609,1.5151c-1.1572.4-2.3288.757-3.5081,1.0856-2.5025.6973-5.041,1.2628-7.5912,1.7552-5.592,1.08-11.2487,1.7988-16.9172,2.3318q-4.2394.3986-8.4909.6537c-2.5636.1549-5.2333.0368-7.6507,1.0217a11.3456,11.3456,0,0,0,4.3258,21.8752l-1.9542-2.5655c-1.1277,3.7651-2.3692,7.3779-1.2241,11.34a13.2111,13.2111,0,0,0,4.6373,6.7869c1.0568.8129,2.1619,1.5656,3.2463,2.341l-1.0038-1.75c-.14,2.9057-.4873,5.8578.5017,8.6656a13.2959,13.2959,0,0,0,9.2154,8.5127l-1.4879-1.9543a17.4162,17.4162,0,0,0,.6871,6.5709,13.4673,13.4673,0,0,0,5.2828,6.7056,18.5885,18.5885,0,0,0,5.48,2.1289c1.32.36,2.9626,1.1167,4.3483.8731,5.5463-.9749,11.0515-2.34,16.56-3.5068,5.2075-1.1028,10.4187-2.1895,15.6227-3.3084a55.4455,55.4455,0,0,0,31.8081-19.81,76.9937,76.9937,0,0,1,6.5444-7.6992,50.6459,50.6459,0,0,1,8.0057-6.4122,54.4088,54.4088,0,0,1,18.0281-7.2993c2.5461-.5617,1.4686-4.47-1.0776-3.9086a57.1213,57.1213,0,0,0-25.8448,12.91,53.2591,53.2591,0,0,0-5.4037,5.5393c-1.5943,1.8917-2.992,3.9353-4.6,5.8153a51.494,51.494,0,0,1-11.2025,9.8231,56.6584,56.6584,0,0,1-19.33,7.5555l-16.5486,3.5044-13.6782,2.8966h1.0776c-2.5556-.697-5.4975-1.1333-7.7433-2.6017a9.001,9.001,0,0,1-3.6343-4.9328,15.312,15.312,0,0,1-.3281-4.8437,2.052,2.052,0,0,0-1.4879-1.9543,9.16,9.16,0,0,1-6.3284-5.5228c-.85-2.22-.5679-4.5269-.4565-6.84a2.75,2.75,0,0,0-1.1119-2.7657c-.7872-.5776-1.5959-1.1259-2.3827-1.704a9.2351,9.2351,0,0,1-3.8524-7.366c-.015-2.2745.9447-4.5569,1.59-6.712a2.0462,2.0462,0,0,0-1.9543-2.5655,7.3755,7.3755,0,0,1-7.408-7.5058,7.2631,7.2631,0,0,1,2.1343-4.9453,7.8887,7.8887,0,0,1,5.5113-2.171,202.7916,202.7916,0,0,0,31.0933-3.6016c2.5954-.5349,5.1773-1.1545,7.7119-1.9308,2.5719-.7877,5.1006-1.5266,6.55-3.9846a2.0484,2.0484,0,0,0-1.75-3.05l-5.6674-.2822,1.75,3.05c.9169-1.6432,2.2419-3.0722,3.0106-4.7934.8078-1.8087.2688-3.8821-1.8623-4.3484a26.7774,26.7774,0,0,0-5.6791-.0838l-7.1364.047a7.8684,7.8684,0,0,1-6.9482-3.3256,7.6564,7.6564,0,0,1,.4134-9.0413,8.4063,8.4063,0,0,1,4.9973-2.7547l11.2961-2.4424c7.5988-1.643,15.1891-3.3326,22.7978-4.9287,7.4454-1.5617,14.9072-3.0489,22.36-4.5732,8.2094-1.6791,16.5032-3.134,24.6624-5.0442.146-.0342.2944-.06.4413-.09,2.5538-.5223,1.473-4.43-1.0775-3.9085Z"/><rect class="cls-5" x="361.7616" y="134.3798" width="20.2123" height="597.7943" transform="translate(-99.9368 111.695) rotate(-15.0832)"/><path d="M458.8665,717.2926l-19.5159,5.26,2.493,1.4155-4.1667-15.4605-11.3384-42.0712-16.7052-61.9844-20.4459-75.864-22.3965-83.1018L344.26,361.8836l-21.0789-78.2131-17.8085-66.0783-12.7635-47.3586-3.9754-14.7506c-.6879-2.5523-1.19-5.27-2.0906-7.7573-.1113-.3071-.1729-.6414-.2581-.9575l-1.4155,2.4931,19.516-5.26-2.4931-1.4155,4.1667,15.4605,11.3385,42.0711,16.7052,61.9844,20.4458,75.864,22.3965,83.1019L399.476,504.67l21.0789,78.213,17.8086,66.0783L451.127,696.32c2.0208,7.4981,3.9108,15.0468,6.066,22.5078.0916.3174.172.6385.258.9575.6781,2.516,4.5893,1.4484,3.9086-1.0775l-4.1667-15.46-11.3385-42.0711L429.1492,599.192l-20.4458-75.8639-22.3965-83.1019-22.5314-83.6023-21.0789-78.2131L324.888,212.3326l-12.7635-47.3587c-2.0208-7.4982-3.9108-15.0468-6.066-22.5079-.0917-.3174-.172-.6384-.258-.9575a2.0584,2.0584,0,0,0-2.4931-1.4155l-19.516,5.26a2.0583,2.0583,0,0,0-1.4155,2.493l4.1667,15.4606,11.3385,42.0711,16.7052,61.9844,20.4458,75.864,22.3965,83.1018L379.96,509.93l21.079,78.2131,17.8085,66.0783L431.611,701.58c2.0208,7.4981,3.9108,15.0468,6.066,22.5078.0917.3174.1721.6385.2581.9575a2.0582,2.0582,0,0,0,2.493,1.4155l19.516-5.26C462.46,720.5231,461.3924,716.6118,458.8665,717.2926Z"/><path class="cls-6" d="M414.1385,965.0237l2.04-5.89a106.3148,106.3148,0,0,0,5.5573-42.7789l-9.1908-122.1227,32.83-52.5983L500.5,754.4963l19.57,14.009,94.3544,194.8515H491.9253l-7.9624-11.6374-3.6888,11.8526-21.4235.04-9.8-16.18-8.0425,16.9Z"/><path d="M416.0928,965.5625c.9382-2.7082,1.9128-5.4072,2.7905-8.1357a108.8331,108.8331,0,0,0,4.2935-19.3976,111.152,111.152,0,0,0,.5149-22.62l-1.7052-22.6576-2.9785-39.5763-2.911-38.68-1.0158-13.4982c-.16-2.1309-.1526-4.3588-.4871-6.4714-.0151-.0958-.0148-.1965-.0221-.2934l-.2767,1.0229,11.1522-17.8672,17.6158-28.2227,4.0624-6.5084-2.2887.9314,32.1637,7.5048,18.9,4.41a20.935,20.935,0,0,0,3.9472.921c.3512.0065-.3337.0422-.3455-.16.0044.076.5026.36.56.401l2.9007,2.0764,16.0839,11.5138-.7271-.727,2.5293,5.2232,6.8825,14.2131,10.1325,20.9247,12.356,25.5164,13.5884,28.0614,13.7176,28.3282,12.7885,26.41,10.7643,22.2292,7.7472,15.9987c1.2233,2.5264,2.332,5.1609,3.6895,7.6192.0584.1058.1059.2189.1586.3277l1.75-3.05H496.9322c-1.5723,0-3.2225-.1441-4.79,0-.071.0065-.1454,0-.2168,0l1.75,1.0037-7.9625-11.6373a2.055,2.055,0,0,0-3.7042.4841L478.32,963.0332l1.9543-1.4879-18.748.0351-2.6755.005,1.75,1.0038-9.8-16.18c-.7339-1.2116-2.8226-1.4235-3.5,0l-8.0425,16.9,1.75-1.0038L417.53,962.91l-3.391.0873c-2.6035.067-2.6136,4.1206,0,4.0534l23.4787-.6041,3.391-.0873a2.012,2.012,0,0,0,1.75-1.0038l8.0425-16.9h-3.5l9.2111,15.2081c.5875.97,1.0465,1.8939,2.373,1.9758.7893.0488,1.5981-.003,2.3885-.0044l10.8816-.02,8.1192-.0153a2.0761,2.0761,0,0,0,1.9543-1.4879l3.6887-11.8526-3.7042.4842c2.6348,3.8509,5.1864,7.7748,7.9112,11.5625,1.0947,1.5217,3.429,1.0786,5.0974,1.0786H595.8893c6.0776,0,12.1924.1975,18.2676,0,.0889-.0028.1783,0,.2672,0a2.0514,2.0514,0,0,0,1.75-3.05l-4.676-9.6563-12.0966-24.9807-16.901-34.9024-18.7781-38.7786-18.0676-37.3114-14.56-30.068-8.2954-17.1308a6.6845,6.6845,0,0,0-1.8789-2.8736c-4.6395-3.3915-9.3484-6.692-14.0214-10.0373-1.7325-1.24-3.4275-2.6367-5.2436-3.7536a7.7707,7.7707,0,0,0-2.34-.7012l-14.7-3.43L448.23,740.22l-2.3157-.54a2.0907,2.0907,0,0,0-2.2888.9314l-8.123,13.0141L420.0994,778.303l-6.2288,9.9793c-.9959,1.5956-2.1024,3.1648-3.0057,4.8156a4.3631,4.3631,0,0,0-.2314,2.6595l.4316,5.7356,1.59,21.13,2.1494,28.56,2.2079,29.3375,1.7943,23.842q.44,5.8419.8793,11.6838a107.3162,107.3162,0,0,1-5.7229,43.3017l-1.7792,5.1359C411.3286,966.9549,415.2428,968.0162,416.0928,965.5625Z"/><path class="cls-1" d="M412.5454,794.2322,410.73,770.9141a51.5441,51.5441,0,0,1,38.1077-53.8048h0a51.5442,51.5442,0,0,1,59.74,27.48l11.492,23.9162Z"/><path d="M414.572,794.2322c-.6037-7.7542-1.226-15.5072-1.8111-23.2629A49.5244,49.5244,0,0,1,506.875,745.71q5.567,11.52,11.0831,23.0653l.3616.7526,1.2112-2.9772L508.78,769.1232l-25.5654,6.117-31.1554,7.4544-26.8266,6.4187c-4.3289,1.0358-8.7665,1.8766-13.0419,3.12-.06.0176-.1231.0294-.1843.0441-2.5358.6067-1.4622,4.5162,1.0775,3.9086l10.7507-2.5723L449.4,787.4973l31.1553-7.4545,26.8266-6.4187c4.329-1.0357,8.7666-1.8766,13.042-3.12.06-.0175.123-.0294.1843-.0441a2.0548,2.0548,0,0,0,1.2112-2.9772l-11.0443-22.9845a54.4906,54.4906,0,0,0-32.393-28.6274A53.5769,53.5769,0,0,0,408.5846,764.89a116.0216,116.0216,0,0,0,.6953,13.4313l1.1618,14.9219.077.9891C410.72,796.8159,414.7749,796.8376,414.572,794.2322Z"/><line class="cls-2" x1="511.5251" y1="794.3084" x2="581.3494" y2="948.6569"/><path d="M509.7751,795.3313l6.9741,15.4164,16.6392,36.7814L553.61,892.2285,571,930.6709l5.7383,12.6847c.9106,2.0129,1.7288,4.1083,2.7461,6.07.0426.082.0767.1695.1148.2538a2.042,2.042,0,0,0,2.7729.7271,2.0753,2.0753,0,0,0,.7271-2.7729l-6.9741-15.4164-16.6392-36.7814-20.2212-44.6995-17.3906-38.4423L516.136,799.61c-.9106-2.0129-1.7288-4.1083-2.7461-6.07-.0425-.0821-.0767-.17-.1148-.2538a2.0418,2.0418,0,0,0-2.7729-.7271,2.0753,2.0753,0,0,0-.7271,2.7729Z"/><line class="cls-2" x1="488.2503" y1="800.4333" x2="530.5124" y2="943.1444"/><path d="M486.296,800.9721l4.2242,14.2643,10.0691,34.0013,12.2438,41.3451,10.5216,35.53c1.7092,5.7715,3.2678,11.615,5.1346,17.3383.025.0767.0459.1551.0688.2325.739,2.4955,4.6521,1.433,3.9086-1.0775l-4.2242-14.2643L518.1734,894.34,505.93,852.995l-10.5216-35.53c-1.7092-5.7716-3.2678-11.6151-5.1345-17.3383-.0251-.0768-.046-.1551-.0689-.2326-.739-2.4954-4.652-1.433-3.9086,1.0776Z"/><line class="cls-2" x1="458.2381" y1="805.9458" x2="483.9629" y2="936.407"/><path d="M456.2838,806.4845l2.5649,13.0078,6.1573,31.2261,7.42,37.63,6.4138,32.5271,2.121,10.7563c.333,1.689.5784,3.4271,1.0048,5.0958.0183.0715.0288.1459.0431.2184.5041,2.5569,4.4118,1.4745,3.9085-1.0776l-2.5649-13.0077-6.1572-31.2262-7.42-37.63-6.4138-32.5271L461.24,810.7212c-.3331-1.6891-.5785-3.4271-1.0049-5.0959-.0182-.0715-.0287-.1458-.043-.2183-.5042-2.5569-4.4118-1.4745-3.9086,1.0775Z"/><line class="cls-2" x1="434.3508" y1="808.3957" x2="446.6007" y2="930.8946"/><path d="M432.3241,808.3957l1.222,12.2193,2.9212,29.2126,3.5451,35.451,3.0537,30.5367c.4954,4.9541.9434,9.9156,1.4865,14.8648.0078.0714.0143.143.0214.2145a2.0839,2.0839,0,0,0,2.0267,2.0267,2.0407,2.0407,0,0,0,2.0267-2.0267l-1.2219-12.2193-2.9213-29.2126-3.5451-35.451-3.0537-30.5367c-.4954-4.9541-.9433-9.9156-1.4864-14.8648-.0079-.0714-.0143-.143-.0215-.2145a2.0838,2.0838,0,0,0-2.0267-2.0266,2.0407,2.0407,0,0,0-2.0267,2.0266Z"/><path class="cls-7" d="M878.4439,27.3921a40.6434,40.6434,0,0,0-25.01,26.0048,4.93,4.93,0,0,1-7.3575,2.6683A40.71,40.71,0,0,0,785.5572,78.18a4.93,4.93,0,0,1-7.3445,2.704,40.7309,40.7309,0,1,0,17.077,46.78,4.9387,4.9387,0,0,1,7.368-2.6924,40.71,40.71,0,0,0,60.516-22.1137,4.9386,4.9386,0,0,1,7.368-2.6924,40.7275,40.7275,0,1,0,7.9022-72.774Z"/><path d="M877.9052,25.4378a43.1827,43.1827,0,0,0-22.6306,18.8137,44.1429,44.1429,0,0,0-3.157,6.7548c-.6419,1.7287-1.079,3.766-3.3315,3.8073a4.8255,4.8255,0,0,1-2.5715-1.0391,41.2075,41.2075,0,0,0-3.85-2.0218,43.5576,43.5576,0,0,0-7.9162-2.7849A42.7125,42.7125,0,0,0,783.826,76.9614c-.5752,1.7026-1.9024,3.2075-3.8954,2.5149a20.2054,20.2054,0,0,1-2.8254-1.5968,44.0458,44.0458,0,0,0-4.1873-2.0015,42.5264,42.5264,0,0,0-44.8261,7.5093,42.9217,42.9217,0,0,0-10.06,50.6329c8.2088,17.0982,27.4455,26.6664,46.03,23.3824a42.6711,42.6711,0,0,0,25.2639-14.7136,43.8656,43.8656,0,0,0,7.3378-12.7938c.6219-1.6931,1.093-3.6215,3.2783-3.67a5.2891,5.2891,0,0,1,2.7551,1.1438,41.2146,41.2146,0,0,0,3.86,2.0009,42.7392,42.7392,0,0,0,55.5307-18.7414,51.9679,51.9679,0,0,0,2.9293-6.8906c.5706-1.5958,2.0213-2.7961,3.8017-2.1661a25.3471,25.3471,0,0,1,3.2076,1.8019c1.2516.6691,2.538,1.263,3.8471,1.81a41.6882,41.6882,0,0,0,8.1239,2.4775,42.7442,42.7442,0,0,0,49.0728-54.67A43.3417,43.3417,0,0,0,891.1818,22.984a42.653,42.653,0,0,0-13.2766,2.4538c-2.4406.8677-1.3891,4.7855,1.0775,3.9086a38.7128,38.7128,0,1,1,15.3753,75.0244,39.2573,39.2573,0,0,1-15.8672-2.4815,63.3274,63.3274,0,0,1-7.2151-3.6424,7.1167,7.1167,0,0,0-6.5243-.13c-2.3416,1.1587-3.1642,3.2477-3.99,5.558a38.1083,38.1083,0,0,1-2.9532,6.3138,38.6057,38.6057,0,0,1-53.4211,13.6678c-2.0964-1.2609-4.3555-1.9692-6.7583-1.0586a7.38,7.38,0,0,0-4.4034,4.868,38.6989,38.6989,0,0,1-65.4314,13.8583,38.6,38.6,0,0,1-9.9528-24.094,39.5,39.5,0,0,1,7.0748-24.2131,38.6073,38.6073,0,0,1,37.8354-15.9,40.8619,40.8619,0,0,1,7.56,2.0553,60.8974,60.8974,0,0,1,7.1661,3.63,7.0729,7.0729,0,0,0,6.7785-.0206c2.1657-1.2,2.9267-3.2179,3.7133-5.4191a38.3258,38.3258,0,0,1,6.996-12.0309,38.6354,38.6354,0,0,1,42.3827-11.2749,38.4553,38.4553,0,0,1,7.176,3.4308,7.3715,7.3715,0,0,0,6.5744.9579c2.4383-.9208,3.7079-2.8039,4.5113-5.1876a37.9833,37.9833,0,0,1,2.7276-6.186,39.1784,39.1784,0,0,1,8.7682-10.8045,38.4882,38.4882,0,0,1,11.8771-6.9216C881.4129,28.4579,880.3631,24.5392,877.9052,25.4378Z"/><path class="cls-1" d="M700.3358,122.6739s17.15-13.4749,33.6872,9.1874c9.8,18.9873-11.0249,28.7873-11.0249,28.7873"/><path d="M701.7689,124.107c-.7026.5492-.2177.1691.0808-.0339.42-.2855.8551-.549,1.2974-.7981.6553-.3691,1.33-.7,2.0182-1.0031.3429-.1513.0322-.0131-.0325.0132.1041-.0424.208-.0861.3131-.1258.2181-.0824.435-.1672.6545-.2458q.7008-.2508,1.4173-.4548a18.8223,18.8223,0,0,1,14.5616,1.8536,32.3838,32.3838,0,0,1,9.0588,8.0856,16.7027,16.7027,0,0,1,3.468,9.6538c.1892,5.0254-2.1585,9.3926-5.595,12.7911a24.5892,24.5892,0,0,1-7.0359,5.0558c-2.3568,1.1143-.3019,4.61,2.0458,3.5,7.5649-3.5768,14.1327-11.1632,14.623-19.7165a22.7258,22.7258,0,0,0-2.3806-10.847,24.326,24.326,0,0,0-4.5818-5.9706,36.3726,36.3726,0,0,0-5.0157-4.407,23.6,23.6,0,0,0-18.2654-4.3674,22.1939,22.1939,0,0,0-9.4978,4.1508,2.0378,2.0378,0,0,0,0,2.8662,2.0781,2.0781,0,0,0,2.8662,0Z"/><path class="cls-1" d="M655.1816,286.6333,628.8987,453.3545s176.5333-20.3143,193.6044.2687C819.0876,412.4417,803.4011,329.436,793.33,278.71a50.6131,50.6131,0,0,0-51.89-40.7l-63.4095,2.8119"/><path d="M653.2273,286.0945l-2.62,16.6184-6.2893,39.8956-7.566,47.9935-6.5741,41.7019c-1.0633,6.7448-2.1619,13.4852-3.19,20.2356-.0141.0921-.0291.1842-.0436.2763-.18,1.1446.51,2.7316,1.9543,2.5654,1.5726-.1809,3.1464-.352,4.72-.5223q6.4158-.6942,12.8375-1.3323,9.6049-.9588,19.2194-1.8164,11.8388-1.0567,23.6908-1.9558,13.14-.9929,26.2954-1.755,13.444-.7681,26.9045-1.21c8.6348-.269,17.2751-.4133,25.9142-.3382,7.6476.0664,15.3007.2932,22.9275.8811,3.2609.2514,6.5185.5689,9.76,1.0041-.4185-.0562.4878.0688.67.0949q.5913.0847,1.1817.1752,1.0626.1629,2.1217.3467c1.2967.2258,2.5891.4769,3.8737.7634a47.7858,47.7858,0,0,1,6.6163,1.9162c.2335.0889.4646.1838.6972.275.28.11.1628.0717-.07-.031.1174.0517.2358.101.3525.1543.4148.1892.8269.3824,1.2309.5938a19.8886,19.8886,0,0,1,2.0761,1.29c-.287-.1982-.2068-.1794.09.0809.1233.1082.2478.2145.3673.3268a8.4943,8.4943,0,0,1,.6944.7342,2.0448,2.0448,0,0,0,3.46-1.4331c-.8784-10.5378-2.2363-21.0348-3.7064-31.5043-1.79-12.745-3.8112-25.4573-5.9359-38.1505q-3.45-20.6121-7.2394-41.1659-3.6228-19.7917-7.4491-39.5456-1.7385-8.9983-3.5108-17.99c-1.1853-6.0146-2.2737-11.9463-4.7045-17.6133a52.7,52.7,0,0,0-24.6822-26.1255,54.6126,54.6126,0,0,0-27.09-5.4908l-17.9324.7952-26.2347,1.1633-17.1356.76-.8779.0389c-2.598.1152-2.6123,4.1692,0,4.0534l12.0939-.5363,25.2017-1.1176,21.7581-.9648c1.4244-.0632,2.8486-.13,4.2731-.1895a49.381,49.381,0,0,1,15.5484,1.7731,48.8466,48.8466,0,0,1,27.7531,20.6288,49.5559,49.5559,0,0,1,6.7464,16.9571q1.6876,8.4445,3.3249,16.8993,3.7295,19.13,7.2955,38.2906,3.7876,20.3945,7.32,40.8351c2.2217,12.9321,4.3477,25.8817,6.2783,38.8606,1.6161,10.8652,3.1148,21.7542,4.2316,32.6833q.34,3.325.62,6.6556l3.46-1.433c-2.42-2.8874-6.4379-4.3339-9.931-5.3751a93.6787,93.6787,0,0,0-16.803-3.0074c-7.2508-.7757-14.5457-1.123-21.8335-1.2988-8.4594-.2041-16.9242-.155-25.3835.03-8.9744.1958-17.9449.55-26.91,1.0065q-13.4122.683-26.808,1.6495-12.35.8789-24.6858,1.9447-10.34.8891-20.67,1.8947-7.383.7187-14.76,1.5c-2.2926.2437-4.6886.3267-6.9558.76-.0973.0186-.1994.0226-.298.034l1.9543,2.5654,2.62-16.6184,6.2894-39.8956,7.5659-47.9935,6.5741-41.7019c1.0633-6.7448,2.1619-13.4852,3.19-20.2356.014-.0921.029-.1842.0436-.2763a2.09,2.09,0,0,0-1.4156-2.493,2.0422,2.0422,0,0,0-2.493,1.4155Z"/><path d="M654.3059,149.4247c2.6081,0,2.6125-4.0534,0-4.0534-2.6082,0-2.6125,4.0534,0,4.0534Z"/><path class="cls-7" d="M609.12,150.1221l-.82,6.46a57.9676,57.9676,0,0,0,1.6906,22.5183l-6.2252,9.6035a28.1151,28.1151,0,0,0,.1269,30.78h0a28.1151,28.1151,0,0,0,28.1318,12.2382l43.8124-7.3744c8.96-5.8422,37.8175-66.6541,15.4577-92.7286"/><path d="M607.0932,150.1221c-.3627,2.8565-.7971,5.7149-1.047,8.584a60.77,60.77,0,0,0,1.99,20.9333l.2043-1.5617c-3.6367,5.61-8.0524,11.2183-9.893,17.7307a30.1489,30.1489,0,0,0,25.9754,38.1669,33.5331,33.5331,0,0,0,9.2383-.4667l16.1423-2.7171,20.6816-3.481,5.48-.9224a6.3659,6.3659,0,0,0,3.3628-2.3941c3.9049-4.3561,6.7259-9.7915,9.2607-15.0165a143.5332,143.5332,0,0,0,9.02-23.7247,100.64,100.64,0,0,0,4.1207-26.42c.0552-8.21-1.3063-16.7279-5.5038-23.9014a33.4085,33.4085,0,0,0-3.3986-4.7452c-1.6917-1.9905-4.5469.8885-2.8661,2.8662,5.3073,6.2448,7.3362,14.5944,7.664,22.6734.3779,9.3166-1.2307,18.6313-3.686,27.59a136.7427,136.7427,0,0,1-9.3359,24.606,91.46,91.46,0,0,1-5.043,9.0006q-.57.8823-1.1721,1.7431-.2329.3315-.472.6589c-.0919.1257-.186.25-.278.3757-.337.4607.0677-.0761-.1373.1824a19.5917,19.5917,0,0,1-1.9971,2.2312c-.1447.134-.302.2555-.4451.3906-.2546.24.4373-.2143.1269-.0955-.0753.0289-.1289.1157-.205.1453.7749-.3007.3839-.1323.16-.1166-.6355.0445-1.29.2171-1.9171.3227l-8.1061,1.3644-22.6079,3.8053-8.3925,1.4126a42.8653,42.8653,0,0,1-5.7709.73,26.0966,26.0966,0,0,1-24.3339-37.5295,90.4377,90.4377,0,0,1,5.4542-8.7561c.7556-1.1657,1.5981-2.3094,2.2812-3.5193.5923-1.0491.21-1.9929-.0607-3.0848a59.0093,59.0093,0,0,1-1.18-6.0437,63.75,63.75,0,0,1,.2236-16.948l.5167-4.0689a2.0373,2.0373,0,0,0-2.0267-2.0266,2.0775,2.0775,0,0,0-2.0267,2.0266Z"/><path class="cls-2" d="M677.2573,238.7945l-6.6047-21.9584,35.4781-25.21,12.58,47.4216,13.2672-.2533-21.2466,22.1909A28.3868,28.3868,0,0,1,688.37,269.68h0a28.3867,28.3867,0,0,1-26.488-29.857l.0661-1.2233Z"/><path d="M679.2116,238.2558l-5.7793-19.2142-.8254-2.7442-.9314,2.2887,11.9448-8.4877,19.1567-13.6123,4.3766-3.11-2.9772-1.2112,4.2447,16.001,6.7721,25.5284,1.5631,5.8923a2.0586,2.0586,0,0,0,1.9543,1.4879l13.2672-.2533-1.4331-3.46-19.0915,19.94c-.7643.7982-1.5227,1.6027-2.2942,2.3941A26.3741,26.3741,0,0,1,665.67,250.98,29.3258,29.3258,0,0,1,663.9746,238.6l-2.0267,2.0267,15.3094.1949c2.6091.0332,2.6106-4.02,0-4.0534l-15.3094-.1949a2.0659,2.0659,0,0,0-2.0267,2.0267c-.4645,8.6,2.005,16.8242,7.8572,23.27a30.5213,30.5213,0,0,0,23.9646,9.8567,31.3846,31.3846,0,0,0,21.1125-10.03l10.7926-11.2722,9.7628-10.1967a2.05,2.05,0,0,0-1.4331-3.46l-13.2672.2533,1.9543,1.4879L716.42,222.508,709.6481,196.98l-1.5631-5.8923a2.0411,2.0411,0,0,0-2.9772-1.2112l-11.9448,8.4877-19.1567,13.6123-4.3766,3.11a2.094,2.094,0,0,0-.9314,2.2887l5.7793,19.2142.8254,2.7442C676.0524,241.8249,679.9658,240.7634,679.2116,238.2558Z"/><path class="cls-2" d="M690.1549,214.0376a68.6008,68.6008,0,0,1-23.04,11.9787c-41.5761,5.301-41.8357-70.0812-41.8357-70.0812l74.8463-22.0131s13.9441,13.6575,15.1259,21.2869c2.0354,13.1388-8.11,25.5137-7.335,42.9258"/><path d="M688.7218,212.6046a64.9112,64.9112,0,0,1-19.5553,10.5944,14.9159,14.9159,0,0,1-4.1857.995,30.3976,30.3976,0,0,1-3.1732.0378,21.75,21.75,0,0,1-5.3892-.8333,24.7941,24.7941,0,0,1-9.1177-4.8224,34.4883,34.4883,0,0,1-7.0647-8.2644c-4.338-6.8453-6.8841-14.299-8.8323-22.2156-.9249-3.7586-1.6674-7.5613-2.2674-11.3848q-.2112-1.3462-.3988-2.6959c-.0158-.1128-.0937-.6839-.0429-.3058q-.0437-.3241-.0854-.6487-.0827-.637-.16-1.2749-.289-2.3748-.51-4.7572-.3424-3.6864-.5194-7.3859c-.0539-1.1594.04-2.3951-.1124-3.545a1.3188,1.3188,0,0,1-.0014-.1628l-1.4879,1.9543,25.2932-7.439L691.42,138.5951l9.2442-2.7188-1.9718-.5212c4.6876,4.5975,9.293,9.7061,12.5933,15.403a14.436,14.436,0,0,1,1.9787,4.7943,22.4267,22.4267,0,0,1-.0135,6.8909c-.7222,5.2689-2.636,10.3225-4.1784,15.3859-2.0106,6.6-3.4564,13.3683-3.1828,20.3055.1026,2.6,4.1565,2.6129,4.0534,0a56.1779,56.1779,0,0,1,2.7716-18.3445c1.5725-5.2726,3.5572-10.4855,4.3965-15.9453.7287-4.7411.6384-9.393-1.5618-13.731a57.4484,57.4484,0,0,0-7.9716-11.143c-1.9208-2.2328-3.9156-4.4188-6.0193-6.482a2.0381,2.0381,0,0,0-1.9718-.5212l-25.2933,7.439L633.9844,151.262l-9.2442,2.7189a2.0712,2.0712,0,0,0-1.4879,1.9542c.012,3.1588.2287,6.3257.49,9.4718a155.6347,155.6347,0,0,0,3.3269,21.9784c1.8822,8.1815,4.558,16.37,8.8452,23.6294,4.0772,6.9037,9.8411,12.9133,17.509,15.6851a29.1193,29.1193,0,0,0,12.4962,1.4745c3.8556-.3553,7.7676-2.2656,11.27-3.8469a65.9655,65.9655,0,0,0,9.9486-5.5273c1.5327-1.0418,3.0118-2.1606,4.45-3.3294a2.04,2.04,0,0,0,0-2.8661,2.0736,2.0736,0,0,0-2.8662,0Z"/><path d="M692.4334,175.2971c.0144-.4074.0436-.8146.0756-1.2209q.0546-.6919.1312-1.382c.0274-.2465.0578-.4926.0883-.7387.06-.4843-.0583.3929-.0047.0353.026-.174.05-.3482.077-.5221a29.2875,29.2875,0,0,1,.7908-3.6892c.0879-.3034.1823-.605.2852-.9037q.0707-.2053.1468-.4089c.0369-.0987.2257-.5783.1-.2679-.1323.327.0556-.1213.09-.195q.0983-.2109.2051-.4177a8.4171,8.4171,0,0,1,.45-.7694c.0314-.0474.2134-.3546.2453-.3467.0289.007-.36.4029-.1237.1687.0474-.0469.0882-.1023.1334-.1515.1-.109.2069-.2088.3136-.3111.0346-.0332.0746-.061.1087-.0946.2342-.2312-.31.1889-.148.1167a3.75,3.75,0,0,0,.3545-.2156c.3833-.2289-.339.0805-.0663.0251a3.1505,3.1505,0,0,0,.3528-.0948c.2706-.09-.2286.0474-.263.0312a.983.983,0,0,0,.2855-.0144,2.0267,2.0267,0,0,0,0-4.0534c-3.2475.059-5.0241,2.9584-6.01,5.6869a32.066,32.066,0,0,0-1.546,7.938c-.0551.597-.1037,1.1963-.1249,1.7957a2.0429,2.0429,0,0,0,2.0267,2.0266,2.0683,2.0683,0,0,0,2.0267-2.0266Z"/><path d="M655.5367,169.4641a9.4755,9.4755,0,0,1,.9843-.9394c.0979-.0835.6123-.497.3369-.2815-.3026.2368.097-.07.1533-.1113q.1454-.1059.2932-.2086a15.6616,15.6616,0,0,1,1.6284-.99c.318-.1677.6429-.3186.97-.4685-.454.2084.0465-.0175.1148-.0441q.2731-.1064.55-.2016a16.7833,16.7833,0,0,1,2.344-.5936q.36-.054.0285-.0092.1934-.0238.3873-.0424.2967-.0283.5945-.0442a14.3408,14.3408,0,0,1,1.4485-.0042,11.985,11.985,0,0,1,2.8432.47,2.0272,2.0272,0,0,0,1.0775-3.9086,17.0553,17.0553,0,0,0-12.1375,1.2087,14.9622,14.9622,0,0,0-4.4832,3.3018,2.0758,2.0758,0,0,0,0,2.8662,2.0456,2.0456,0,0,0,2.8662,0Z"/><path d="M629.3268,175.9674c.2549-.2132-.4734.3116.068-.0449.4242-.2794.8409-.5628,1.2818-.8164a18.4771,18.4771,0,0,1,4.4816-1.8257c2.9731-.7925,6.1078-.21,8.0486,2.3679,1.7471,2.3206,1.6872,5.5671,1.2024,8.3034a25.0335,25.0335,0,0,1-1.636,5.4616,24.713,24.713,0,0,0-1.377,2.8972,4.5022,4.5022,0,0,0,.2786,2.4654c1.4141,4.039,5.9585,3.2187,9.0864,1.9631a2.09,2.09,0,0,0,1.4155-2.493,2.0406,2.0406,0,0,0-2.4931-1.4156,17.25,17.25,0,0,1-2.4469.8187,4.9968,4.9968,0,0,1-.733.1294c-.09.0076-.78.0007-.51.027-.0819-.008-.5919-.1828-.2633-.0458-.18-.0752-.1182-.1351-.0823-.0128a3.8151,3.8151,0,0,1-.2711-.8977l-.2767,1.023c2.7227-5.1722,5.1118-12.3243,2.766-18.0937a11.16,11.16,0,0,0-6.3068-6.2074c-3.0533-1.1982-6.2857-.7248-9.2954.3714a19.2608,19.2608,0,0,0-5.8036,3.1587,2.0425,2.0425,0,0,0,0,2.8662,2.0708,2.0708,0,0,0,2.8662,0Z"/><circle cx="636.6959" cy="182.3148" r="2.73"/><path d="M638.3528,181.8668c.0187.0726.0334.1455.05.2184.0461.2006,0-.0456-.0044-.0511.0514.0674.0156.3135.0121.3967-.0015.0354.0092.1537-.0132.1778l.0172-.1288q-.0081.0523-.0191.1042c-.0258.1274-.0672.248-.103.3724-.0652.2271.1056-.1923-.0048.0165-.0217.0412-.041.0836-.0631.1247q-.05.0922-.1063.18c-.01.016-.1214.212-.0414.069.0762-.1362-.0343.0395-.053.0607q-.0582.0658-.1206.1276c-.0417.0415-.0869.0792-.1287.12-.1539.1517.1506-.0917-.0179.0168-.101.065-.2.131-.3064.1867-.0688.0359-.21.1625-.0236.0188a.6272.6272,0,0,1-.175.0617c-.12.0378-.2408.06-.3626.0884-.1479.034.2528-.01.015-.0042-.0723.0017-.1443.0084-.2167.0082s-.1428-.0063-.2145-.0091c-.2065-.0079.06.0094.058.0105-.05.0355-.3182-.0708-.3767-.0891-.0344-.0107-.1467-.0294-.1656-.0573l.1128.0487q-.048-.0212-.0949-.0446c-.1129-.0616-.2215-.1276-.3323-.1926-.2026-.1188.1563.1478-.0181-.01-.0434-.0393-.0882-.0767-.1306-.1172s-.0837-.0821-.1234-.1253c-.0106-.0115-.1706-.18-.0576-.06.11.1172-.0346-.0518-.0466-.07-.0332-.05-.0644-.1007-.0942-.1526s-.0556-.1069-.0849-.16c-.1067-.1917.0475.1676-.0122-.028-.04-.1318-.0831-.26-.11-.3957l-.0074-.0364q-.0282-.171.0045.0511c-.023-.0335-.0111-.1388-.0126-.181-.0045-.12.0053-.2382.01-.3581.0061-.15-.0566.2508-.0017.0238.0166-.0685.0288-.1379.0472-.206s.0431-.1335.0627-.2009c.063-.2163-.084.1341-.01.0152.0612-.0978.104-.2086.1656-.3073.0195-.0313.0646-.1332.0969-.1454l-.0741.0934q.0326-.0413.0672-.0808c.0967-.1035.1982-.1984.2991-.2974.1036-.1017-.2037.1313-.009.0062.05-.0323.0986-.0668.15-.0979s.1034-.061.1567-.0888c.0129-.0068.23-.108.0772-.0414s.072-.0233.0858-.0279c.0594-.02.1193-.037.18-.0526s.1215-.0262.182-.0407c.2062-.0495-.211.0127.0576-.0045.1326-.0085.2626,0,.3949.0032.2432.0068-.2248-.05.0117.0017.0691.0152.1376.0289.206.0472s.1335.0431.2009.0628c.1932.0564-.1759-.0967.0165.0047.1248.0659.2425.1363.3636.208.1932.1142-.1067-.1119-.0089-.012.0567.0579.1249.1065.1831.1636.0334.0328.0662.0665.098.1011s.0629.07.0929.1063q-.1266-.1694-.0291-.0359c.0781.1221.1491.2445.22.3711.0375.0676.0966.102-.0139-.0411a.9452.9452,0,0,1,.0936.2828,1.0136,1.0136,0,1,0,1.9543-.5387,3.8087,3.8087,0,0,0-3.3527-2.7449,3.7317,3.7317,0,0,0-3.6294,2.1141,3.7411,3.7411,0,1,0,6.9821.6308,1.0136,1.0136,0,0,0-1.9543.5387Z"/><circle cx="661.5045" cy="175.5587" r="2.73"/><path d="M663.1614,175.1107c.0187.0726.0334.1455.05.2184.0461.2006,0-.0456-.0044-.0511.0514.0674.0156.3135.0121.3967-.0015.0354.0092.1537-.0132.1778l.0172-.1288q-.0082.0523-.0192.1042c-.0257.1274-.0672.248-.1029.3724-.0652.2271.1056-.1923-.0048.0165-.0217.0411-.041.0836-.0631.1246q-.05.0924-.1063.1806c-.01.016-.1214.212-.0414.069.0762-.1362-.0343.04-.053.0607q-.0582.0659-.1206.1276c-.0417.0414-.0869.0791-.1287.12-.1539.1517.1506-.0917-.0179.0168-.101.065-.2.131-.3064.1867-.0688.0359-.21.1625-.0236.0188a.6283.6283,0,0,1-.175.0617c-.12.0378-.2408.06-.3627.0884-.1479.034.2529-.01.015-.0042-.0722.0017-.1442.0083-.2166.0082s-.1428-.0063-.2145-.0091c-.2066-.0079.06.0094.058.0105-.05.0354-.3182-.0708-.3767-.0891-.0344-.0107-.1468-.0294-.1656-.0573l.1128.0486q-.0481-.021-.095-.0445c-.1128-.0616-.2214-.1276-.3322-.1926-.2026-.1188.1563.1478-.0182-.01-.0433-.0392-.0881-.0766-.13-.1171s-.0837-.0822-.1234-.1253c-.0106-.0115-.1706-.18-.0576-.06.11.1172-.0346-.0518-.0466-.07-.0332-.05-.0644-.1007-.0942-.1526s-.0556-.107-.0849-.16c-.1067-.1918.0475.1676-.0122-.0281-.04-.1317-.0831-.26-.11-.3956l-.0073-.0364q-.0282-.171.0044.0511c-.0229-.0335-.011-.1388-.0126-.181-.0045-.12.0054-.2382.01-.3581.0062-.15-.0566.2508-.0016.0238.0166-.0685.0288-.1379.0472-.206s.0431-.1336.0627-.201c.063-.2162-.084.1342-.01.0153.0612-.0979.104-.2086.1656-.3074.0194-.0312.0646-.1331.0969-.1453l-.0741.0934q.0326-.0413.0672-.0808c.0967-.1035.1982-.1984.2991-.2974.1036-.1017-.2037.1313-.009.0061.05-.0322.0986-.0667.15-.0978s.1034-.061.1567-.0889c.0129-.0067.2294-.1079.0772-.0413s.072-.0233.0858-.0279c.0594-.02.1193-.037.18-.0526s.1215-.0262.182-.0407c.2062-.0495-.211.0127.0576-.0046.1326-.0085.2626,0,.3949.0033.2431.0068-.2248-.05.0117.0017.0691.0152.1376.0288.206.0472s.1335.0431.2009.0628c.1932.0564-.1759-.0967.0165.0047.1248.0658.2424.1363.3636.208.1932.1142-.1067-.112-.0089-.012.0567.0579.1249.1064.183.1636q.05.0492.0981.101t.0929.1064q-.1268-.1694-.0291-.0359c.0781.1221.1491.2445.2194.3711.0376.0676.0967.102-.0138-.0411a.9452.9452,0,0,1,.0936.2828,1.0136,1.0136,0,1,0,1.9543-.5388,3.8088,3.8088,0,0,0-3.3528-2.7448,3.7319,3.7319,0,0,0-3.6294,2.1141,3.7411,3.7411,0,1,0,6.9822.6307,1.0136,1.0136,0,0,0-1.9543.5388Z"/><path d="M661.9931,195.206a4.2252,4.2252,0,0,1-.12.482c-.053.1791-.1135.3559-.18.53-.02.0517-.0409.1029-.061.1545-.0924.2382.25-.5705.1272-.3015-.0559.1227-.111.2454-.1713.366a7.7347,7.7347,0,0,1-.4238.7426q-.1191.1841-.2489.3611c-.242.33.2106-.2621.1318-.1684-.06.072-.1187.1458-.18.217a7.0587,7.0587,0,0,1-.7538.75c-.0624.0533-.1272.1035-.19.1563-.17.1429.4218-.3153.24-.1859-.0393.028-.0778.0574-.1172.0855q-.2589.1849-.5339.3459-.3071.18-.6308.3286c-.0372.0171-.0753.0325-.1121.05-.2109.1022.506-.201.2153-.0918-.12.0452-.24.0914-.3622.1328a9.0719,9.0719,0,0,1-1.69.3874l.5387-.0724q-.31.0391-.6211.0623a2.0267,2.0267,0,0,0,0,4.0534,10.137,10.137,0,0,0,6.4809-2.7085,9.7587,9.7587,0,0,0,2.3781-3.8881,4.8532,4.8532,0,0,0,.1922-.7117,2.1937,2.1937,0,0,0-.2043-1.5616,2.027,2.027,0,0,0-3.7043.4841Z"/><path class="cls-7" d="M608.826,152.8269l.5366-4.9388c2.84-22.4739,16.5595-42.9016,63.6578-42.0268,0,0,19.353.8878,39.5653,18.0376l6.1249,5.5125A40.583,40.583,0,0,1,724.96,139.25a55.9481,55.9481,0,0,1,5.2124,28.9569q-.0681.7884-.1167,1.5766l-2.8369,49.36a13.14,13.14,0,0,1-9.733,11.9428h0l-15.4238-48.8778c2.9774-3.6323,5.7416-15.577,4.3532-21.7624-2.0974-9.3445-7.6072-10.4172-14.1341-8.9522s-10.9744,15.4144-8.93,24.5218l-5.477-19.4811a10.59,10.59,0,0,0-14.0253-7.01c-7.5121,2.9139-22.2373,7.9125-35.299,11.9657a14.4,14.4,0,0,1-9.3254-.2419"/><path d="M610.8526,152.8269c.6768-6.2273,1.6087-12.7085,4.0306-18.4278a37.3736,37.3736,0,0,1,13.05-16.2681c7.7775-5.4244,17.1587-8.07,26.4659-9.3165a101.653,101.653,0,0,1,18.6413-.9255c.5164.0274,1.0306.09,1.5441.1487a1.456,1.456,0,0,1,.3411.0457c.2984.0467.5973.09.8954.1389q1.1843.195,2.3587.4443a75.0551,75.0551,0,0,1,29.9834,14.24c2.9681,2.2872,5.6944,4.86,8.4771,7.3646,2.4621,2.2159,4.1185,5.2219,5.7126,8.2838a53.3579,53.3579,0,0,1,5.8877,21.1325,90.9451,90.9451,0,0,1-.2689,11.0859l-1,17.3951L725.6651,210.91c-.2657,4.624.2279,10.3421-2.7159,14.2229a11.1749,11.1749,0,0,1-6.0023,3.9985l2.493,1.4155-5.1994-16.477L705.94,187.7643l-1.9235-6.0955-.5212,1.9719c3.1563-3.973,4.3119-9.627,4.9632-14.539.7106-5.3591.4608-11.356-2.9187-15.86-3.0173-4.0211-7.6857-4.7669-12.3953-3.98-4.8711.8144-7.7957,4.5966-9.655,8.94a30.9413,30.9413,0,0,0-2.0927,18.3511l3.9086-1.0775c-1.8083-6.4318-3.5835-12.8737-5.425-19.296a12.7609,12.7609,0,0,0-13.25-9.3505c-3.064.2916-5.9765,1.7605-8.8475,2.7953q-5.2,1.8744-10.4409,3.6355-6.793,2.2995-13.6263,4.4786c-2.26.7213-4.5352,1.58-6.8515,2.1a12.7346,12.7346,0,0,1-7.1006-.5464c-2.4637-.8721-3.5237,3.0427-1.0775,3.9086,4.2677,1.5107,8.29.9082,12.5-.4125q5.96-1.87,11.89-3.8328c6.72-2.222,13.4337-4.4882,20.053-6.9963,2.6754-1.0137,5.2236-1.6251,7.9735-.4243a8.6864,8.6864,0,0,1,4.8271,5.5717c.9012,3.0643,1.73,6.152,2.5941,9.2268l2.8731,10.2194c.71,2.5245,4.4562,1.4626,3.9086-1.0775a26.4478,26.4478,0,0,1,2.0677-16.0933c.9008-1.931,2.1687-4.1269,3.9033-5.2557a10.7423,10.7423,0,0,1,5.8627-1.134,6.5106,6.5106,0,0,1,4.874,2.2839A13.2364,13.2364,0,0,1,704.66,162.2a29.504,29.504,0,0,1-.5019,8.3427,35.6958,35.6958,0,0,1-2.2623,7.9092,15.7308,15.7308,0,0,1-.7483,1.4913c-.1134.1975-.2343.39-.3556.5823-.2385.3789-.1559.1921-.3218.4546a2.28,2.28,0,0,0-.32,1.9038c.1423.56.3506,1.111.5244,1.6616l2.46,7.7946,7.4105,23.4837c1.6339,5.1778,3.1583,10.4061,4.906,15.547.0286.0839.0534.1693.08.2539a2.0653,2.0653,0,0,0,2.4931,1.4155,15.2707,15.2707,0,0,0,11.082-12.5761c.2064-1.511.2384-3.0512.3258-4.5722l1.2172-21.1793L731.876,173.37c.0763-1.327.142-2.6552.2318-3.9814a63.3608,63.3608,0,0,0-2.0271-22.4,52.6535,52.6535,0,0,0-8.9785-17.8778,47.8518,47.8518,0,0,0-5.7605-5.4548,81.7026,81.7026,0,0,0-30.665-17.5009,59.6388,59.6388,0,0,0-10.0919-2.1713,67.4473,67.4473,0,0,0-11.5874.0039c-10.9977.5746-22.242,2.4936-32.1011,7.6214a42.4305,42.4305,0,0,0-17.2586,16.2322,52.3028,52.3028,0,0,0-6.35,20.4861q-.2486,2.249-.4889,4.499a2.0395,2.0395,0,0,0,2.0267,2.0267,2.0734,2.0734,0,0,0,2.0266-2.0267Z"/><path class="cls-1" d="M694.8377,278.5828,637.6224,354.044c8.9619,5.7116,20.448,15.8556,31.7459,28.5607,8.8274,9.9269,22.33,42.2015,27.2925,50.6037l85.1367-102.2865"/><path d="M693.0877,277.56l-5.6826,7.4948-13.65,18.0026-16.52,21.7879L642.943,343.6957l-4.7182,6.2229c-.7411.9774-1.59,1.9325-2.25,2.9677-.03.0471-.0685.09-.1023.1348a2.0516,2.0516,0,0,0,.7271,2.7729,124.3591,124.3591,0,0,1,17.9257,14.4071q5.0583,4.7605,9.7872,9.856a65.415,65.415,0,0,1,6.0125,7.0739,135.6617,135.6617,0,0,1,8.8364,15.3055c2.99,5.7951,5.81,11.6759,8.6261,17.5566,2.2849,4.7706,4.4409,9.672,7.1234,14.2382a2.0422,2.0422,0,0,0,3.1831.41l8.469-10.1749,20.3378-24.4346,24.6027-29.5587,21.2639-25.5472c3.44-4.1327,6.9224-8.2337,10.3212-12.4.0468-.0574.0947-.1139.1421-.1708,1.6575-1.9913-1.195-4.8739-2.8662-2.8662l-8.469,10.175-20.3377,24.4346L726.955,393.6571l-21.2639,25.5472-7.0037,8.4145c-1.0858,1.3045-2.3663,2.5772-3.3175,3.9858-.0408.06-.0954.1146-.1422.1708l3.1831.41c-2.3333-3.9717-4.236-8.2144-6.2252-12.3635-2.8353-5.9138-5.6547-11.8362-8.6284-17.6822a157.98,157.98,0,0,0-9.04-16.0357c-4.1882-6.2912-9.7842-11.6933-15.1918-16.9237a134.7353,134.7353,0,0,0-20.68-16.8864l.7271,2.7729,5.6826-7.4948,13.65-18.0026,16.52-21.7879,14.2926-18.8505,4.7182-6.2228c.7411-.9774,1.59-1.9325,2.25-2.9678.03-.047.0684-.09.1022-.1348a2.0392,2.0392,0,0,0-.7271-2.7729,2.0769,2.0769,0,0,0-2.7729.7271Z"/><path d="M679.85,421.1512q-2.4557,2.4034-4.9983,4.7019c9.9007,7.4143,17.7839,10.7161,20.8726,7.9694,3.1615-2.8112.6185-11.3492-5.9176-22.4172Z"/><path d="M678.4165,419.7182q-2.4558,2.3972-4.9984,4.7018a2.0561,2.0561,0,0,0,.41,3.1831,65.316,65.316,0,0,0,11.24,7.0405c2.596,1.2117,5.5972,2.4348,8.527,2.1136a5.8346,5.8346,0,0,0,5.2176-4.3443c.74-2.7569.0217-5.83-.8244-8.475a68.0786,68.0786,0,0,0-6.4329-13.5555,2.05,2.05,0,0,0-3.183-.41l-9.9566,9.746c-1.8673,1.8277,1,4.693,2.8661,2.8661l9.9566-9.7459-3.183-.41a71.6913,71.6913,0,0,1,5.3021,10.543,18.6368,18.6368,0,0,1,1.6762,7.5759c-.0083.1375-.096.6894-.02.2846-.0422.225-.1021.4412-.1546.6633a2.8732,2.8732,0,0,1-.1031.307c.006-.0167.1558-.3243.05-.1245a4.802,4.802,0,0,1-.3444.5813c.2347-.3253.0236-.0407-.1186.081-.3668.3142.2413-.1089-.1879.1258-.16.0873-.5159.2091-.1415.0852a6.3573,6.3573,0,0,1-.7058.1853c-.299.0626.3413-.0253.0258-.0047-.0891.0058-.1792.0179-.2686.0178-.2532,0-.5039.0034-.7572-.008a6.6225,6.6225,0,0,1-1.369-.2257,19.7584,19.7584,0,0,1-3.6868-1.3079,64.7941,64.7941,0,0,1-11.379-7.1045l.41,3.1831q2.54-2.3075,4.9983-4.7019C683.1525,420.7591,680.2852,417.894,678.4165,419.7182Z"/><path class="cls-2" d="M451.569,499.3977l143.4118-31.7671a179.0178,179.0178,0,0,0,79.87-41.7775q2.54-2.3017,4.9983-4.7019l9.9567-9.7459a188.19,188.19,0,0,0-21.05-28.1881c-11.298-12.7051-22.784-22.8491-31.746-28.5607l-11.332,14.9459-15.5708,20.536-181.1062,40.62"/><path d="M452.1077,501.352l6.9493-1.5394,18.0406-3.9961,25.2468-5.5925,28.2067-6.248,27.3721-6.0632,22.2719-4.9334,13.3246-2.9515a180.8677,180.8677,0,0,0,67.5591-30.3846c9.9331-7.24,18.7385-15.6247,27.4964-24.1972l2.664-2.6077a2.0629,2.0629,0,0,0,.3169-2.456,181.803,181.803,0,0,0-18.5023-25.3152,203.2734,203.2734,0,0,0-23.3287-23.4135,112.51,112.51,0,0,0-11.6923-8.7472,2.0794,2.0794,0,0,0-2.7728.7271l-11.1548,14.712q-5.3644,7.0754-10.7292,14.1506l-5.0188,6.6193,1.2112-.9314-4.8625,1.0906-13.15,2.9494-19.536,4.3817L548.3,401.926l-25.9782,5.8266-26.3524,5.9106-24.57,5.5107-20.6645,4.6348-14.8756,3.3365c-2.358.5288-4.7546.9746-7.0919,1.5906-.1005.0265-.2034.0456-.3049.0684-2.5442.5706-1.4675,4.4794,1.0776,3.9086l7.3968-1.6591,19.4838-4.37,27.6964-6.2119,32.0346-7.185,32.4983-7.289,29.1883-6.5466,21.7668-4.8821c3.5274-.7911,7.0838-1.5038,10.5923-2.3757,1.5775-.392,2.4625-2.09,3.4017-3.329l9.32-12.2926L636.43,358.7525l2.33-3.0731-2.7729.7271a132.6,132.6,0,0,1,21.0886,17.4513,216.6443,216.6443,0,0,1,21.9046,25.048,155.7841,155.7841,0,0,1,9.076,13.5224l.3169-2.456c-6.7311,6.5886-13.3486,13.3132-20.5922,19.3476a177.5634,177.5634,0,0,1-41.4193,25.7141,171.992,171.992,0,0,1-32.6174,10.797l-10.74,2.3789L562.39,472.7762l-26.3572,5.8383-28.3437,6.2784L481.4741,490.7l-20.0787,4.4476c-3.3029.7316-6.6348,1.3859-9.9193,2.1972-.1476.0365-.2974.0659-.4459.0988-2.5457.5639-1.4684,4.4725,1.0775,3.9086Z"/><path d="M392.3118,469.9877c2.6082,0,2.6125-4.0534,0-4.0534-2.6081,0-2.6125,4.0534,0,4.0534Z"/><path class="cls-2" d="M472.3091,494.5974l-1.1045.2472a53.2533,53.2533,0,0,0-31.3585,20.5368h0a53.2542,53.2542,0,0,1-31.7972,20.633l-32.2008,6.9216-5.062-1.3639a11.1155,11.1155,0,0,1-8.22-10.992l.0452-1.9363h0a11.1151,11.1151,0,0,1-8.4516-11.2951l.1761-3.9036-2.7467-1.9516a11.1155,11.1155,0,0,1-4.22-12.2176l1.1826-3.9926a9.304,9.304,0,0,1-9.2755-7.4674v0c-1.1389-5.6053-7.0495-21.5327,28.4752-30.1076l3.3628,14.791s13.787,1.1339,21.1369-4.3786,4.9-10.4124,4.9-10.4124"/><path d="M471.77,492.6431a57.1262,57.1262,0,0,0-25.807,12.9861,53.2666,53.2666,0,0,0-5.3868,5.5557c-1.5885,1.8966-2.98,3.9446-4.5826,5.8294a51.5047,51.5047,0,0,1-11.1715,9.8584,56.6566,56.6566,0,0,1-19.306,7.6159l-16.5379,3.5549-13.6693,2.9382h1.0776c-2.5566-.6888-5.5026-1.1157-7.7518-2.5765a9,9,0,0,1-3.653-4.9189,15.3017,15.3017,0,0,1-.3445-4.8425A2.0525,2.0525,0,0,0,363.15,526.69a9.1657,9.1657,0,0,1-6.35-5.4991c-.8588-2.2159-.5833-4.5255-.479-6.838a2.7556,2.7556,0,0,0-1.115-2.7654c-.7884-.576-1.5987-1.1219-2.3879-1.6967a9.23,9.23,0,0,1-3.88-7.3512c-.022-2.2756.9287-4.5588,1.568-6.717a2.0462,2.0462,0,0,0-1.9543-2.5655,7.3568,7.3568,0,0,1-6.501-3.7226,12.9529,12.9529,0,0,1-1.1263-3.6353c-.1938-.86-.3708-1.7212-.51-2.5915-.0181-.1134-.0334-.2272-.05-.3408-.0094-.0647.0477.48.0054.0149-.0237-.261-.0557-.521-.0761-.7823-.0411-.5259-.062-1.0535-.0585-1.581.0038-.582.0484-1.158.1007-1.737.0229-.254.0511-.3379-.0011-.0119.0223-.1391.0415-.2789.0675-.4174.0574-.3069.1175-.6127.19-.9164a16.7278,16.7278,0,0,1,.5822-1.8735c.0257-.07.2055-.501.106-.27s.0951-.2046.1278-.2723c.157-.3243.3178-.6458.4932-.9607a14.1171,14.1171,0,0,1,2.7569-3.61,24.52,24.52,0,0,1,4.5193-3.5573c5.8019-3.6555,12.4971-5.7188,19.1118-7.3293l-2.493-1.4155,3.3628,14.791a2.0735,2.0735,0,0,0,1.9543,1.4879,46.4915,46.4915,0,0,0,12.6161-.8025c6.2866-1.2448,13.8341-4.9074,15.5494-11.6991a7.909,7.909,0,0,0-.3786-5.339c-1.1432-2.3442-4.64-.2918-3.5,2.0458-.3618-.7419-.0243.0535.0756.4279.1051.3934-.0034-.1544.0078,0,.0136.1864.0293.3713.0315.5583a2.5776,2.5776,0,0,1-.0932,1.012c-.6724,2.7268-2.894,4.8853-5.2109,6.3379-4.4118,2.766-10.0308,3.4024-15.1341,3.4933-1.3187.0235-2.6478.0184-3.9636-.0877l1.9543,1.4879-3.3628-14.791a2.0586,2.0586,0,0,0-2.4931-1.4155c-6.5975,1.6063-13.2655,3.7-19.1462,7.169a26.4208,26.4208,0,0,0-9.3166,8.5963c-2.9063,4.7353-2.9437,10.0624-1.7647,15.321a15.2716,15.2716,0,0,0,1.92,5.3161,11.5137,11.5137,0,0,0,9.6468,5.1537l-1.9543-2.5655c-1.1157,3.7671-2.35,7.3866-1.1928,11.3438a13.2256,13.2256,0,0,0,4.6548,6.775c1.0582.811,2.1663,1.56,3.253,2.3318l-1.0038-1.75c-.1311,2.9051-.4707,5.8605.5264,8.6642a13.2949,13.2949,0,0,0,9.2371,8.4888l-1.488-1.9543a17.42,17.42,0,0,0,.7055,6.569,13.4667,13.4667,0,0,0,5.3,6.6923,18.5838,18.5838,0,0,0,5.4855,2.1137c1.3189.3553,2.9676,1.1087,4.351.8632,5.5438-.9839,11.0452-2.3742,16.5493-3.5574,5.2041-1.1186,10.412-2.2212,15.6126-3.3559a55.4558,55.4558,0,0,0,31.7491-19.9043,77.1311,77.1311,0,0,1,6.5209-7.7191,50.6522,50.6522,0,0,1,7.9851-6.4378,54.4078,54.4078,0,0,1,18.0051-7.3558c2.5445-.5694,1.4677-4.4782-1.0775-3.9086Z"/><path class="cls-2" d="M294.8324,284.9484l4.7794,35.6859a22.9473,22.9473,0,0,0,10.0135,16.046h0a45.1482,45.1482,0,0,0,24.2,3.7159l17.5423-2.1547,4.2894-3.0143a11.1153,11.1153,0,0,0,3.9615-13.1417l-.7053-1.8038h0a11.1153,11.1153,0,0,0,4.075-13.5057l-1.5016-3.6076,1.9127-2.7739a11.1152,11.1152,0,0,0-.2172-12.9238l-2.4778-3.3467a9.3039,9.3039,0,0,0,6.1593-10.1912v0a9.3288,9.3288,0,0,0-11.9976-7.5183c-13.1454,4.0794-24.8573,8.1581-36.1141,8.1581l-4.34-15.3982h0A22.9474,22.9474,0,0,0,294.8324,284.9484Z"/><path d="M292.8058,284.9484l2.2246,16.6105q1.2626,9.4275,2.5252,18.855a25.57,25.57,0,0,0,6.8793,14.5677,22.7341,22.7341,0,0,0,3.8529,3.2351,22.42,22.42,0,0,0,5.0023,2.0815,47.3987,47.3987,0,0,0,11.5267,2.3253,63.1228,63.1228,0,0,0,12.6748-.6509L349.2,340.5344a9.8054,9.8054,0,0,0,3.1966-.5473,45.3458,45.3458,0,0,0,3.9446-2.7719c4.881-3.4448,7.4042-9.5033,5.3587-15.3266-.254-.7232-.5534-1.4319-.8325-2.1457l-.9314,2.2887a13.3036,13.3036,0,0,0,5.9322-11.15c-.0434-2.9794-1.3089-5.5652-2.4274-8.2523l-.2043,1.5617c.6745-.9782,1.37-1.945,2.0219-2.9383a13.0647,13.0647,0,0,0,2.0923-8.1092c-.3314-4.0581-2.5828-6.9176-4.8965-10.0427l-1.2112,2.9772a11.3511,11.3511,0,0,0-3.0486-22.0985c-2.4861-.148-4.8338.7793-7.1633,1.51-5.2011,1.6313-10.4,3.2926-15.6852,4.6342a68.7151,68.7151,0,0,1-16.5941,2.4218l1.9543,1.4879-4.34-15.3982a2.092,2.092,0,0,0-2.493-1.4155c-13.2057,1.8388-22.7283,14.574-21.0674,27.7284a2.0917,2.0917,0,0,0,2.0266,2.0267,2.0384,2.0384,0,0,0,2.0267-2.0267,20.9512,20.9512,0,0,1,18.0916-23.82l-2.493-1.4155,4.34,15.3981a2.067,2.067,0,0,0,1.9542,1.4879c9.0484-.0393,17.89-2.4463,26.4838-5.0627,2.3734-.7225,4.7394-1.469,7.1067-2.2113,1.8985-.5954,3.8256-1.4347,5.8521-1.2919a7.3594,7.3594,0,0,1,6.5057,5.4241,5.5738,5.5738,0,0,1,.2219,2.4358,7.0974,7.0974,0,0,1-.6382,2.4773,7.33,7.33,0,0,1-4.1183,3.7993c-1.1.4-2.0533,1.84-1.2113,2.9772a51.0273,51.0273,0,0,1,3.1275,4.3285,9.1926,9.1926,0,0,1-.3233,9.7318c-.8756,1.3337-2.7052,3.0024-2.1383,4.7111.6628,1.9979,1.8505,3.8048,2.1311,5.9285a9.1664,9.1664,0,0,1-3.861,8.6849,2.064,2.064,0,0,0-.9314,2.2887,16.5136,16.5136,0,0,1,1.3588,4.3912,9.2728,9.2728,0,0,1-1.7628,6.3671c-1.5368,2.0792-4.1281,3.45-6.21,4.9128l1.0229-.2767L336.077,338.093a57.3084,57.3084,0,0,1-10.3626.5381,42.7331,42.7331,0,0,1-9.1956-1.5717c-2.5254-.7176-5.2229-1.4864-7.2856-3.1643a21.64,21.64,0,0,1-7.5538-13.0482c-.1764-.938.0066.11-.0649-.3917-.032-.2245-.06-.45-.09-.6745l-.3231-2.4119-2.4447-18.2539-1.8973-14.1665a2.0943,2.0943,0,0,0-2.0267-2.0267C293.85,282.9217,292.6594,283.8557,292.8058,284.9484Z"/><path d="M320.0507,272.5812c-.2461.0575-.4965.093-.7457.133-.3535.0567.5309-.0642.3-.04-.0611.0063-.122.0149-.183.0217q-.23.0256-.4616.0436-.5166.04-1.0351.04a11.2288,11.2288,0,0,1-1.16-.0607c-.4442-.0473.1538.0646.1893.029a1.3792,1.3792,0,0,1-.3129-.05q-.3157-.0564-.6267-.1364-.2942-.0763-.5813-.1767c-.0889-.0312-.1765-.0748-.2669-.1-.0123-.0034.5191.2364.2586.1089-.0612-.03-.124-.0567-.1853-.0866a5.5962,5.5962,0,0,1-.5385-.3c-.0818-.0518-.16-.1083-.24-.1621-.3159-.2113.396.35.0484.0326-.1809-.1651-.347-.3363-.5125-.5164-.2609-.2839.2841.4292.02.0234-.0667-.1024-.1347-.2035-.1965-.3091-.072-.1231-.1347-.25-.2-.3768-.1865-.3653.171.47-.0067-.0193a6.7642,6.7642,0,0,1-.2582-.9325,2.04,2.04,0,0,0-2.4931-1.4155,2.0757,2.0757,0,0,0-1.4155,2.4931,7.3277,7.3277,0,0,0,4.9471,5.4824,11.79,11.79,0,0,0,5.1592.4274,14.5579,14.5579,0,0,0,1.5742-.2438,2.0444,2.0444,0,0,0,1.4155-2.4931,2.07,2.07,0,0,0-2.493-1.4155Z"/><path d="M374.1884,470.568c-.2819.013-.5654.0073-.8473-.0014q-.4722-.0147-.9432-.0547-.2731-.0228-.5454-.0536c-.0887-.01-.1794-.0286-.2685-.0323a2.6413,2.6413,0,0,0,.3079.0413c-.0787-.0126-.1579-.0227-.2367-.0349a15.77,15.77,0,0,1-2.7511-.6687c-.234-.0809-.4646-.1991-.7021-.2654.2526.0705.3244.1413.0548.0174q-.2143-.0985-.4247-.206a13.2064,13.2064,0,0,1-1.373-.8485c-.1749-.1183.1717.1349.17.1322-.0295-.0546-.1395-.1136-.1878-.1546q-.1866-.1581-.3636-.3273c-.2254-.2155-.4186-.4567-.6325-.682-.1432-.1508.1235.1506.1219.1625.0048-.0347-.1269-.1737-.1495-.206q-.1481-.2115-.281-.4329-.1359-.2262-.2554-.4616c-.0624-.1229-.2889-.6545-.0756-.1347a2.0808,2.0808,0,0,0-2.4931-1.4155,2.0471,2.0471,0,0,0-1.4155,2.4931,10.5708,10.5708,0,0,0,5.8775,5.8254,18.3531,18.3531,0,0,0,6.1822,1.3439c.4091.0217.8219.0366,1.2315.0177a2.0267,2.0267,0,0,0,0-4.0534Z"/><path class="cls-2" d="M348.1324,495.2464s6.9956,1.5674,12.1491-1.5681"/><path d="M347.5936,497.2007c4.4788.9938,9.7323.6013,13.7108-1.7724a2.027,2.027,0,0,0-2.0458-3.5c-.3247.1937-.6554.3756-.9963.5394-.0761.0365-.574.252-.198.0974-.1425.0586-.2867.1133-.4315.1663a14.5431,14.5431,0,0,1-2.0061.57c-.3445.0724-.6911.1308-1.0391.184.2856-.0437.1469-.0189-.0575.004q-.2513.0281-.5031.0494-.9118.0775-1.828.0729c-.9648-.0032-1.9114-.1018-2.87-.1926.0616.0058.56.0829.2307.0294-.077-.0126-.1544-.0232-.2315-.0356-.1136-.0182-.2271-.0373-.34-.058-.1059-.0194-.2119-.0391-.3171-.0624a2.0272,2.0272,0,0,0-1.0775,3.9086Z"/><path class="cls-2" d="M354.8891,513.4452s6.7374,2.45,12.25,0"/><path d="M354.35,515.4a21.6035,21.6035,0,0,0,4.678,1.0013,17.3963,17.3963,0,0,0,9.1336-1.2056,2.0323,2.0323,0,0,0,.7271-2.7729,2.09,2.09,0,0,0-2.7729-.7271c.31-.1343-.2722.0993-.2744.1-.1587.0573-.3189.1105-.48.1608q-.5259.1645-1.0648.2823-.4819.1062-.9713.1768c.2957-.043.002-.0037-.1379.01q-.24.024-.48.041a17.9788,17.9788,0,0,1-2.0476.0212q-.44-.02-.879-.0594-.2535-.0226-.5065-.0514c-.06-.0068-.5251-.0707-.2181-.0254s-.1868-.03-.2-.0324q-.1872-.03-.3738-.0625-.3836-.0672-.7647-.1473-.6033-.127-1.199-.2869c-.3664-.0987-.7337-.2027-1.0908-.3316a2.0379,2.0379,0,0,0-2.4931,1.4155A2.0793,2.0793,0,0,0,354.35,515.4Z"/><path class="cls-2" d="M362.239,528.7575s6.7375,2.45,12.25,0"/><path d="M361.7,530.7118a21.6015,21.6015,0,0,0,4.6779,1.0014,17.3963,17.3963,0,0,0,9.1336-1.2057,2.0322,2.0322,0,0,0,.7271-2.7729,2.09,2.09,0,0,0-2.7729-.7271c.31-.1343-.2722.0993-.2744.1-.1587.0574-.3189.1105-.48.1609q-.5259.1644-1.0648.2823-.482.106-.9712.1767c.2956-.043.0019-.0036-.138.01q-.24.024-.48.041a17.9575,17.9575,0,0,1-2.0477.0212q-.44-.02-.8789-.0593-.2536-.0228-.5066-.0514c-.06-.0069-.5251-.0707-.2181-.0254s-.1868-.03-.2-.0324q-.1872-.03-.3737-.0625-.3837-.0672-.7648-.1474-.6032-.127-1.199-.2869c-.3663-.0987-.7337-.2026-1.0908-.3316a2.038,2.038,0,0,0-2.4931,1.4156,2.0791,2.0791,0,0,0,1.4156,2.493Z"/><path class="cls-2" d="M360.4015,284.3724l-28.3193,5.8591a30.7127,30.7127,0,0,1-14.304-.4452"/><path d="M359.8628,282.4181l-27.6451,5.72a30.0112,30.0112,0,0,1-13.9007-.3057c-2.5242-.6678-3.601,3.241-1.0775,3.9086a33.8959,33.8959,0,0,0,15.5354.4134c1.7083-.3489,3.4149-.7065,5.1223-1.06l18.1519-3.7556,4.8912-1.0119c2.5528-.5282,1.4724-4.4362-1.0775-3.9086Z"/><path class="cls-2" d="M361.6265,301.5222l-28.3193,5.8592a30.7127,30.7127,0,0,1-14.304-.4453"/><path d="M361.0878,299.5679l-27.6451,5.72a30.0112,30.0112,0,0,1-13.9007-.3058c-2.5242-.6678-3.601,3.241-1.0775,3.9086A33.8945,33.8945,0,0,0,334,309.3038c1.7083-.3488,3.4149-.7065,5.1223-1.06l18.1519-3.7555,4.8912-1.012c2.5528-.5282,1.4724-4.4362-1.0775-3.9086Z"/><path class="cls-2" d="M359.1766,320.51l-27.0944,4.6342a30.7141,30.7141,0,0,1-14.304-.4452"/><path d="M358.6378,318.5552l-26.5423,4.54a31.7322,31.7322,0,0,1-13.7785-.3508c-2.5242-.6678-3.601,3.2409-1.0775,3.9086a35.0626,35.0626,0,0,0,15.4863.4273c1.5461-.2814,3.0988-.53,4.6477-.795l17.5893-3.0084,4.7525-.8129a2.0432,2.0432,0,0,0,1.4155-2.4931,2.0735,2.0735,0,0,0-2.493-1.4155Z"/><line x1="815.5942" y1="617.3686" x2="777.6846" y2="819.7779"/><path d="M813.64,616.83l-1.0188,5.44-2.7575,14.7226-4.0744,21.7548-4.97,26.5364-5.467,29.19-5.4959,29.3439-5.125,27.364-4.3327,23.1335L777.27,811.0194c-.4918,2.626-1.0075,5.2488-1.4757,7.8792-.02.1137-.0425.227-.0637.3405-.4776,2.55,3.4282,3.6423,3.9085,1.0775l1.0188-5.44,2.7575-14.7226L787.49,778.4l4.97-26.5365,5.467-29.19,5.4959-29.3439,5.125-27.364,4.3327-23.1335,3.1287-16.7046c.4918-2.626,1.0075-5.2489,1.4757-7.8792.02-.1137.0425-.2271.0638-.34.4775-2.55-3.4283-3.6424-3.9086-1.0776Z"/><path class="cls-4" d="M693.4708,658.9941a21.6551,21.6551,0,0,0-5.4123.6833,21.6181,21.6181,0,1,0-41.8693,0,21.6181,21.6181,0,1,0,0,41.8693,21.618,21.618,0,1,0,41.8693,0,21.62,21.62,0,1,0,5.4123-42.5526Z"/><path class="cls-4" d="M741.4357,786.6753a21.6551,21.6551,0,0,0-5.4123.6833,21.618,21.618,0,1,0-41.8693,0,21.618,21.618,0,1,0,0,41.8694,21.618,21.618,0,1,0,41.8693,0,21.62,21.62,0,1,0,5.4123-42.5527Z"/><circle class="cls-4" cx="749.5424" cy="473.8901" r="5.4045"/><circle class="cls-4" cx="765.7559" cy="650.8874" r="5.4045"/><circle class="cls-4" cx="651.5859" cy="765.7329" r="5.4045"/><circle class="cls-4" cx="806.9652" cy="788.702" r="5.4045"/><circle class="cls-4" cx="715.0887" cy="565.7665" r="5.4045"/><circle class="cls-4" cx="628.6168" cy="600.8958" r="5.4045"/><path class="cls-1" d="M240.8442,919.0855l-15.3136-77.7933a24.3222,24.3222,0,0,1,1.9929-15.3379l8.5918-17.661-12.16-63.5028,21.6179-7.4312,16.2135,62.8273,14.5922,7.0988A24.323,24.323,0,0,1,289.42,823.6113l22.3578,95.4742"/><path d="M242.7985,918.5467l-5.7916-29.4215-8.4232-42.79c-.9527-4.84-2.0837-9.5024-.9773-14.48.73-3.2827,2.3088-6.1975,3.7662-9.1933l5.0253-10.33c.7351-1.5112,1.9217-3.173,1.6113-4.893-.2754-1.5268-.5837-3.0485-.8755-4.5722l-3.791-19.7977-7.2994-38.1191-.1339-.6988-1.4155,2.4931,18.9164-6.5025,2.7016-.9287-2.493-1.4155,3.1925,12.3711,6.5871,25.5252,5.48,21.2363c.3144,1.2184.5507,2.496.9522,3.69.4265,1.2684,1.871,1.6727,2.9666,2.2056l5.597,2.7229a88.9451,88.9451,0,0,1,9.5366,4.8391,22.5159,22.5159,0,0,1,9.5456,13.7084c.7979,3.3263,1.56,6.6617,2.34,9.9923l5.16,22.0352,6.2381,26.6383,5.502,23.495,2.97,12.6836.1366.5834c.5946,2.5388,4.5038,1.4641,3.9086-1.0775l-3.4615-14.7814-7.6035-32.4694-7.6813-32.8009c-1.2027-5.1361-2.374-10.2807-3.6085-15.4093A26.6634,26.6634,0,0,0,277.189,805.432q-6.5348-3.1965-13.0835-6.3649l-1.296-.63.9314,1.2112-5.4687-21.1914-8.7273-33.8181-2.0175-7.8178a2.0443,2.0443,0,0,0-2.493-1.4155l-18.9164,6.5025-2.7016.9287a2.0883,2.0883,0,0,0-1.4155,2.493l4.114,21.4847,6.551,34.2105,1.4951,7.8077.2043-1.5617-4.6233,9.5034c-1.6781,3.4495-3.57,6.8749-4.9643,10.4546a27.4218,27.4218,0,0,0-1.0432,15.4061l1.2771,6.4881,5.0434,25.62,5.68,28.8546,2.0824,10.5784c.34,1.7271.5968,3.498,1.0248,5.2061.02.08.0319.1619.0477.2423.5034,2.5571,4.411,1.4746,3.9086-1.0775Z"/><path class="cls-1" d="M295.5647,938.6768,313.4158,919.52a29.0482,29.0482,0,0,1,24.2157-9.0937h0a29.0484,29.0484,0,0,0,21.3128-6.3775h0a17.778,17.778,0,0,1,19.18-2.119l9.992,9.0494"/><path d="M296.9978,940.11l9.18-9.8514c3.113-3.3407,6.14-6.7937,9.367-10.0261a27.2183,27.2183,0,0,1,13.3844-7.3169c5.2882-1.1709,10.5741.11,15.8924-.6186a31.4605,31.4605,0,0,0,15.2284-6.5523,16.0687,16.0687,0,0,1,13.51-3.3,17.7482,17.7482,0,0,1,1.8586.5286c.3187.11.6447.2868.97.369.0388.01.6151.2025.3209.0365a4.4619,4.4619,0,0,1,.6716.6082l3.4773,3.1492,5.8252,5.2757c1.9295,1.7475,4.8047-1.1106,2.8662-2.8662l-5.181-4.6922-3.42-3.097a10.7588,10.7588,0,0,0-2.1569-1.75,19.6015,19.6015,0,0,0-15.7163-.6548,32.7124,32.7124,0,0,0-6.8252,4.21,27.0689,27.0689,0,0,1-15.6946,4.9885c-2.6441-.0055-5.2386-.4169-7.89-.2338a31.1938,31.1938,0,0,0-15.4713,5.3137c-4.51,3.0986-8.0829,7.5368-11.79,11.5149l-11.2734,12.0982c-1.7768,1.9068,1.0833,4.7795,2.8662,2.8661Z"/><path class="cls-1" d="M221.2529,930.57s15.5379-17.5646,33.7781-7.4312"/><path d="M222.686,932.0031a30.3328,30.3328,0,0,1,5.6638-4.8407c4.38-2.9879,9.4623-5.11,14.829-5.1449a22.2411,22.2411,0,0,1,10.8293,2.8713c2.29,1.2509,4.3384-2.2479,2.0458-3.5a26.2967,26.2967,0,0,0-20.5484-2.2205,37.0334,37.0334,0,0,0-13.3709,7.7273,26.1781,26.1781,0,0,0-2.3148,2.2412c-1.7269,1.9447,1.13,4.8215,2.8662,2.8662Z"/><polygon class="cls-1" points="295.565 848.032 263.138 858.96 271.92 893.414 304.062 886.136 295.565 848.032"/><path d="M295.026,846.0775l-28.4609,9.592-3.9661,1.3367a2.0709,2.0709,0,0,0-1.4155,2.493l7.6975,30.198,1.0848,4.2557a2.0653,2.0653,0,0,0,2.493,1.4155l28.0858-6.36,4.0564-.9185a2.0626,2.0626,0,0,0,1.4155-2.4931l-7.4334-33.3327-1.0641-4.7715c-.5675-2.5449-4.4762-1.4679-3.9086,1.0776l7.4335,33.3327,1.064,4.7715,1.4155-2.4931-28.0858,6.36-4.0563.9185,2.4931,1.4155-7.6976-30.1979-1.0848-4.2557-1.4155,2.493,28.4609-9.5919,3.9661-1.3367C298.5625,849.1574,297.5076,845.2411,295.026,846.0775Z"/><path class="cls-1" d="M323.9383,961.6459l8.5595-10.7786a25.8227,25.8227,0,0,1,24.9809-9.3218l17.1268,3.2113,5.8224-8.4424A25.8226,25.8226,0,0,1,401.66,925.1521h0a25.8226,25.8226,0,0,1,25.1323,19.7835l4.7245,19.6409-60.2889,3.1494"/><path d="M325.3714,963.079l5.65-7.1147c2.3211-2.9229,4.5327-6.0032,7.5917-8.2145a24.0517,24.0517,0,0,1,17.5635-4.3813c2.7545.4187,5.4908,1.0177,8.2285,1.531l9.6617,1.8116a2.1285,2.1285,0,0,0,2.2888-.9314c2.26-3.2776,4.3493-6.7993,6.8941-9.8657a23.79,23.79,0,0,1,39.0831,3.2261c2.2535,3.9305,3.0206,8.4773,4.0684,12.8333l3.1612,13.1419,1.9543-2.5654-20.4593,1.0687-32.3356,1.6892-7.494.3914c-2.5952.1356-2.6113,4.19,0,4.0534l20.4592-1.0687,32.3357-1.6892,7.494-.3915a2.0558,2.0558,0,0,0,1.9543-2.5654l-2.91-12.0959c-1.1177-4.6464-1.9528-9.4993-4.1522-13.7852a27.8475,27.8475,0,0,0-43.399-7.8383c-4.1245,3.6948-7.0326,8.8886-10.1546,13.4155l2.2888-.9314c-5.7049-1.07-11.4044-2.1725-17.1153-3.2091a28.3261,28.3261,0,0,0-18.9258,3.0394c-4.0405,2.2565-7.0074,5.503-9.836,9.0649l-6.7619,8.5151a2.09,2.09,0,0,0,0,2.8662,2.0408,2.0408,0,0,0,2.8661,0Z"/><path class="cls-1" d="M159.1012,911.6543s12.16-4.7289,16.8891,8.1067"/><path d="M159.64,913.6086a10.2172,10.2172,0,0,1,1.1444-.35q.65-.1666,1.3119-.2778c.12-.02.2413-.0357.3612-.057.3447-.061-.495.05-.0471.0083.293-.0272.5847-.0594.8787-.0766a14.4857,14.4857,0,0,1,1.9366.0128c.16.012.3186.0289.4779.0445.5193.051-.2844-.0625.0858.0121.3784.0763.7569.1393,1.1312.2364q.5073.1316,1.0015.3086c.0757.0272.5821.229.3308.1227a4.1522,4.1522,0,0,0,.4.1932,10.8786,10.8786,0,0,1,.9879.5615c.1651.1057.3222.2227.4862.33.3114.2029.0655.0442.0011-.0066.1147.0905.2271.184.3381.2791a11.6828,11.6828,0,0,1,1.05,1.0212,6.52,6.52,0,0,1,.8479,1.0769A15.75,15.75,0,0,1,174.036,920.3a2.0832,2.0832,0,0,0,2.493,1.4155,2.0427,2.0427,0,0,0,1.4155-2.493c-1.6332-4.3519-4.4622-8.05-8.9449-9.6605a16.02,16.02,0,0,0-8.775-.3346,11.4816,11.4816,0,0,0-1.6622.4728,2.0861,2.0861,0,0,0-1.4155,2.4931,2.0418,2.0418,0,0,0,2.4931,1.4155Z"/><path class="cls-1" d="M371.5655,821.4668l-5.4045-81.0675c6.688,4.8641,12.2133,3.7773,16.2679,1.11A17.7626,17.7626,0,0,0,390,724.1969c-1.0291-7.5492-5.007-17.4963-18.7725-17.9135,1.3511-12.8356-9.4579-22.9691-35.1292-16.2135-10.809-16.889-28.3737-14.1868-29.0492,10.1335-22.2936,6.7556-11.4846,32.427-11.4846,32.427s-9.12,21.28,7.0934,21.28c0,0,8.1068,14.1868,16.2135-1.3512l33.1026,68.9074"/><path d="M372.5788,821.4668l-1.8356-27.5348-2.9034-43.55-.6655-9.9831-1.5248.875c4.2369,3.0168,9.4267,4.58,14.442,2.5881a17.8516,17.8516,0,0,0,9.852-10.29c2.8079-7.3443.6985-17.1749-4.814-22.8168-3.6718-3.758-8.7583-5.2936-13.9018-5.4856l1.0133,1.0133a16.7729,16.7729,0,0,0-4.3556-13.59c-4.301-4.3769-10.7309-5.75-16.66-5.7936a59.7165,59.7165,0,0,0-15.3959,2.1926l1.1443.4657c-3.4242-5.2976-8.5581-10.5125-15.16-11.1979-5.8253-.6049-10.5537,3.2483-12.9462,8.2983a34.0418,34.0418,0,0,0-2.8314,13.5445l.744-.9772c-6.9967,2.1647-12.5422,6.9854-14.2217,14.286a32.4876,32.4876,0,0,0,.8734,15.9451,29.99,29.99,0,0,0,1.156,3.4424l.1021-.7808a35.1209,35.1209,0,0,0-2.2945,7.8471c-.6949,4.0772-.8,9.0576,2.3394,12.2148,2.08,2.0916,5.0717,2.72,7.9235,2.7431l-.875-.5019a14.0825,14.0825,0,0,0,5.7787,5.6878c5.5737,2.63,9.8251-2.5972,12.1848-7.0389h-1.75l11.1765,23.2652,17.823,37.1011,4.1031,8.541c.5645,1.1752,2.3126.1484,1.75-1.0229L341.6727,797.69,323.85,760.589l-4.103-8.541a1.02,1.02,0,0,0-1.75,0c-1.7542,3.3019-4.9877,8.2846-9.4119,6.3118a12.387,12.387,0,0,1-4.8989-4.709c-.7676-1.1491-2.4843-.7377-3.7378-1.0018a7.3137,7.3137,0,0,1-3.91-2.0348c-1.9376-2.0545-2.152-5.1667-1.9643-7.8392a31.254,31.254,0,0,1,1.615-7.56c.2262-.6846.478-1.3582.736-2.0311.1752-.4567.1081.2575.1168-.2845a2.2176,2.2176,0,0,0-.0721-.7168c-.386-1.4641-1-2.8733-1.3753-4.3508a34.92,34.92,0,0,1-1.1355-8.3521,20.0829,20.0829,0,0,1,2.5532-10.5029c2.3955-4.0024,6.4351-6.4441,10.8065-7.7966a1.0434,1.0434,0,0,0,.7439-.9771c.1954-6.1476,1.38-13.7913,6.5935-17.836,3.98-3.0873,9.09-2.2828,13.0888.3111a26.1351,26.1351,0,0,1,7.4786,7.9029,1.0438,1.0438,0,0,0,1.1443.4657c7.2773-1.8938,15.3752-3.2024,22.7569-1.0736,4.5232,1.3044,8.5919,4.22,10.2625,8.758a16.8582,16.8582,0,0,1,.8271,7.5519,1.026,1.026,0,0,0,1.0134,1.0134c4.121.1538,8.2968,1.2142,11.479,3.9611a17.9241,17.9241,0,0,1,5.17,8.1087,21.3452,21.3452,0,0,1,.9335,10.8565,16.3372,16.3372,0,0,1-7.8942,11.0191c-4.8321,2.6869-9.9362,1.3494-14.2439-1.7179a1.019,1.019,0,0,0-1.5248.875l1.8357,27.5348,2.9033,43.55.6655,9.9831c.0863,1.2945,2.1136,1.3042,2.0267,0Z"/><path class="cls-1" d="M130.39,843.76s12.16-5.4045,5.4045-18.9157-14.1868-3.3778-14.1868-3.3778-13.849-21.9558-27.36.3377c-33.7781,1.3512-25.6714,29.0492-15.538,34.4537-20.2668,10.809-10.1334,30.4,0,29.7247,0,0,12.4979,1.0134,14.5246-8.4445"/><path d="M130.9013,844.6353A13.8213,13.8213,0,0,0,138.776,833.89c.5131-4.6915-1.6119-9.7137-4.4577-13.3422-2.0956-2.6719-5.2473-4.563-8.679-3.349a10.7625,10.7625,0,0,0-4.9068,3.7566h1.75c-4.1015-6.475-12.1263-12.6973-19.9954-8.9886-3.9979,1.8843-6.8617,5.6558-9.1148,9.3264l.875-.5019c-8.6923.3752-19.3869,2.6216-23.6417,11.208-2.8972,5.8468-1.894,12.9256,1.2477,18.4638a16.9612,16.9612,0,0,0,6.3446,6.67v-1.75c-4.9492,2.6756-9.478,6.5843-11.36,12.0394a15.8473,15.8473,0,0,0,.8757,12.2048,13.3816,13.3816,0,0,0,8.0643,7.0581,19.4337,19.4337,0,0,0,7.63.0416c5.0605-.7991,9.6037-3.6724,10.8027-8.9193.29-1.27-1.6634-1.8118-1.9543-.5388-1.4851,6.4992-9.0888,8.4352-14.9749,7.6643-6.8457-.8964-10.3111-9.3756-8.93-15.4292,1.2991-5.6967,5.9281-9.6995,10.8694-12.3709a1.0214,1.0214,0,0,0,0-1.75c-3.5906-1.9464-6.0092-5.8664-7.27-9.6434-1.4627-4.3819-1.537-9.3537.7966-13.4553,3.2371-5.6895,9.9311-8.0459,16.0605-8.9746,1.18-.1788,2.3681-.3007,3.558-.3867.56-.04,1.1327-.0341,1.69-.097.75-.0849.93-.3165,1.3233-.9282a27.17,27.17,0,0,1,5.21-6.2944,10.31,10.31,0,0,1,9.4633-2.4216c4.4033,1.2121,8.2772,5.0027,10.68,8.7962a1.0289,1.0289,0,0,0,1.75,0c-.1057.143-.0793.0861.0892-.1044.2152-.2432.4286-.4859.6582-.7159a9.3057,9.3057,0,0,1,2.2117-1.6713c2.6613-1.4131,5.1743-.1988,7.0048,1.9528,2.7032,3.1775,4.6844,7.83,4.3395,12.06a10.9566,10.9566,0,0,1-3.3944,6.9051,12.5017,12.5017,0,0,1-3.5131,2.4805c-1.188.5329-.1585,2.28,1.0229,1.75Z"/><line class="cls-1" x1="327.6539" y1="730.9414" x2="356.0275" y2="810.6578"/><path d="M326.6768,731.2108l9.6509,27.1145,15.2507,42.8472,3.472,9.7547c.4343,1.22,2.3932.6943,1.9543-.5388l-9.6509-27.1145-15.2507-42.8472-3.472-9.7546c-.4343-1.22-2.3932-.6944-1.9543.5387Z"/><line class="cls-1" x1="349.9475" y1="724.8614" x2="356.0275" y2="783.6353"/><path d="M348.9341,724.8614l2.0543,19.8576,3.2742,31.651.7516,7.2653c.1329,1.2845,2.161,1.2982,2.0267,0l-2.0543-19.8576-3.2742-31.651-.7516-7.2653c-.1329-1.2845-2.161-1.2982-2.0267,0Z"/><line class="cls-1" x1="116.203" y1="837.0047" x2="137.821" y2="865.3783"/><path d="M115.328,837.5161l18.97,24.8987,2.6476,3.4749c.78,1.0239,2.541.0154,1.75-1.0229l-18.97-24.8986-2.6476-3.475c-.78-1.0238-2.541-.0153-1.75,1.0229Z"/><line class="cls-1" x1="96.6117" y1="843.7603" x2="134.4432" y2="876.8628"/><path d="M95.8952,844.4768l12.8136,11.2119,20.3225,17.7822,4.6954,4.1085c.9778.8556,2.4169-.5722,1.433-1.4331l-12.8136-11.2119-20.3225-17.7822-4.6953-4.1084c-.9779-.8557-2.417.5722-1.4331,1.433Z"/><line class="cls-1" x1="90.5317" y1="865.3783" x2="120.932" y2="880.9162"/><path d="M90.02,866.2533l26.6488,13.62,3.7515,1.9174c1.1591.5925,2.1859-1.1556,1.0229-1.75l-26.6488-13.62-3.7515-1.9174c-1.1591-.5925-2.1858,1.1556-1.0229,1.75Z"/><ellipse cx="294.2707" cy="144.5788" rx="10.2151" ry="4.7289" transform="translate(-23.0821 62.2048) rotate(-11.6145)"/><path d="M302.3224,143.061c-.096-.5719-.0931.43-.0115-.1022a1.4818,1.4818,0,0,1-.0929.3295c.0359-.08.1768-.3346-.0139.0109-.0713.1292-.3017.4822-.2775.4508-.05.0646-.4017.4286-.5861.5982a10.8845,10.8845,0,0,1-3.4225,1.9773c-3.001,1.1339-6.6035,1.7992-9.7656.9652a5.2158,5.2158,0,0,1-1.3638-.539c-.0389-.0208-.3887-.2635-.2136-.128.167.1292-.1262-.12-.1593-.1533-.1928-.1936-.1673-.2166-.1034-.0482a1.1942,1.1942,0,0,1-.0932-.3256c0,.0764.0059.4282.0267.0545.0027-.0471.0366-.3111-.0037-.0577-.045.2836.0215-.0858.0554-.1417.1558-.2567-.1456.2726-.0016-.0109.0573-.1128.123-.22.1862-.3294.1886-.3265.0625-.1409.3924-.484,1.9972-2.0775,5.39-3.0677,8.2194-3.4444a13.9763,13.9763,0,0,1,5.1676.1522,4.5579,4.5579,0,0,1,1.6675.6811c.2817.1842-.1765-.17.06.0422.1154.1036.2126.2225.3233.33-.1132-.11-.0995-.24-.02.022-.1035-.3411-.0072,0,.03.1508.6215,2.5321,4.5313,1.46,3.9085-1.0775-.9714-3.9574-6.2472-4.6306-9.6014-4.4814-4.3118.1919-9.2866,1.4978-12.4623,4.5995a5.7715,5.7715,0,0,0-1.9636,4.2926,4.9545,4.9545,0,0,0,2.82,4.0149c3.8739,2.0211,9.0515,1.4443,13.0525.1477,3.6874-1.195,8.937-3.9158,8.1552-8.5733a2.0427,2.0427,0,0,0-2.493-1.4156A2.0742,2.0742,0,0,0,302.3224,143.061Z"/></svg>