<svg id="Layer_1" data-name="Layer 1" xmlns="http://www.w3.org/2000/svg" width="1000" height="1000" viewBox="0 0 1000 1000"><defs><style>.cls-1{fill:#fc7f3a;}.cls-2{fill:#ffc41f;}.cls-3{fill:#fff;}.cls-4{fill:#389b48;}.cls-5{fill:#ea2f2f;}.cls-6{fill:#458dc9;}.cls-7{fill:#a8542a;}.cls-8{fill:#fc7272;}</style></defs><path class="cls-1" d="M726.946,316.53V293.134c4.3251-1.9493,7.5711-4.5353,9.0426-7.7368,7.25-15.7739,0-73.3686,0-73.3686H668.18s-10.2355,56.7659,0,73.3686c3.4679,5.6255,11.54,9.2472,20.978,10.9669V316.53"/><path d="M728.95,316.53V293.134l-.9926,1.73c4.0667-1.8652,8.1047-4.6377,9.9453-8.8717a30.5087,30.5087,0,0,0,1.9542-6.8818,111.4162,111.4162,0,0,0,1.3569-19.093,378.4283,378.4283,0,0,0-2.2453-39.1763c-.2974-2.94-.6072-5.8807-.9759-8.813a2.0559,2.0559,0,0,0-2.0041-2.004H668.18a2.0247,2.0247,0,0,0-1.9325,1.4713c-1.6705,9.2762-2.83,18.6785-3.6644,28.0631a203.0119,203.0119,0,0,0-.9139,22.9726c.1627,6.5806.5954,13.5422,2.87,19.7809a19.7613,19.7613,0,0,0,7.2332,9.58c4.8972,3.52,10.9915,5.3162,16.8524,6.4044l-1.4713-1.9324V316.53c0,2.5791,4.0081,2.5833,4.0081,0v-20.166a2.0257,2.0257,0,0,0-1.4713-1.9325c-5.1272-.952-10.3155-2.4062-14.7526-5.2292a16.4046,16.4046,0,0,1-4.5267-4.062,13.905,13.905,0,0,1-1.0138-1.6515q-.21-.395-.4-.8c-.0652-.1385-.1282-.278-.1906-.4178a1.7978,1.7978,0,0,1-.1265-.301c-2.2773-5.7731-2.744-11.9364-2.962-18.0666-.4941-13.8914.9874-28.3662,2.8919-41.7746.4539-3.1951.93-6.3909,1.5019-9.5674l-1.9324,1.4713h67.8085l-2.004-2.0041c.9754,7.7585,1.6773,15.56,2.243,23.358.9607,13.2425,1.7854,26.8311.1614,40.0532a40.8032,40.8032,0,0,1-1.6355,7.6532c-.0966.2847-.202.5655-.3073.8469-.0369.0986-.0774.1959-.1169.2935-.0612.151.157-.3178-.04.084a10.9221,10.9221,0,0,1-1.7549,2.6583,20.1913,20.1913,0,0,1-6.6,4.4278,1.9713,1.9713,0,0,0-.9926,1.7305V316.53c0,2.5791,4.0082,2.5833,4.0082,0Z"/><path class="cls-2" d="M761.9114,224.6593c0,23.5019-25.1042,58.7546-25.1042,58.7546l-11.751-14.9557c3.5087-2.7421,8.5462-13.2183,8.5462-19.2288,0-9.08-4.8745-11.2168-11.2168-11.2168s-13.3533,11.9814-13.3533,20.8312l-.5342-27.2408s-19.97,2.8528-36.9113.1525a24.2091,24.2091,0,0,1-20.2409-23.9795V171.8905a8.6421,8.6421,0,0,1,9.9774-8.5766,19.1352,19.1352,0,0,1,9.2514,4.7273c11.7509-6.9437,21.3653-8.5461,26.7066,0,6.41-5.8754,16.024-9.08,24.036,1.0683,11.7509-6.41,18.6947-5.8754,22.4336,3.7389a29.3252,29.3252,0,0,1,8.1608-2.8473,8.6424,8.6424,0,0,1,10,8.5713Z"/><path d="M759.9073,224.6593c-.0417,10.1928-4.0754,20.2945-8.3551,29.3829a199.3357,199.3357,0,0,1-13.3848,23.7725c-1.0058,1.5445-2.022,3.0857-3.0907,4.5877l3.1476-.4056-11.751-14.9557v2.8342a18.1663,18.1663,0,0,0,3.8707-4.9041,44.2163,44.2163,0,0,0,3.4424-7.2885c1.74-4.6846,2.6943-10.1023.759-14.8942-1.7289-4.2809-5.5339-6.2475-9.9565-6.68a10.56,10.56,0,0,0-6.1791.979,16.7081,16.7081,0,0,0-5.2755,4.8007,29.1959,29.1959,0,0,0-6.1061,16.956h4.0081l-.4682-23.8792-.0659-3.3616a2.0409,2.0409,0,0,0-2.5368-1.9324c-.5048.0717.6143-.0752-.12.0154-.615.0759-1.23.1515-1.8459.22q-2.9849.3336-5.9811.5515a148.9811,148.9811,0,0,1-18.257.3066c-5.9728-.2915-12.3005-.648-17.5586-3.7771a22.2916,22.2916,0,0,1-9.636-11.8989c-1.8387-5.4346-1.2171-11.6288-1.2171-17.2873v-21.887c0-2.0906-.3209-4.6731.5139-6.64a6.6922,6.6922,0,0,1,6.5919-4.0538c3.2344.2385,6.2959,2.209,8.7018,4.2377a2.0768,2.0768,0,0,0,2.4286.3134c6.98-4.0971,18.2851-9.6033,23.9647-.719a2.0347,2.0347,0,0,0,3.1475.4056c2.7369-2.48,6.2215-4.6487,10-4.8878,4.6948-.2972,8.38,2.4465,11.2018,5.9561a2.0212,2.0212,0,0,0,2.4286.3134c3.7529-2.032,8.4118-4.4945,12.847-3.9111a6.7809,6.7809,0,0,1,3.6385,1.7116,12.8539,12.8539,0,0,1,3.0041,4.7407,2.0452,2.0452,0,0,0,2.944,1.1977c3.1308-1.5439,7.5488-3.6859,11.0618-2.1987a6.823,6.823,0,0,1,4.0831,6.2676c.0363,2.5479,0,5.099,0,7.6471v38.3644c0,2.5791,4.0082,2.5833,4.0082,0V201.8654c0-7.7566.13-15.5256,0-23.2814a10.8719,10.8719,0,0,0-6.8462-9.9969c-4.7158-1.8766-10.0892.44-14.33,2.5309l2.944,1.1977c-1.714-4.3219-4.5886-8.448-9.493-9.2594-5.5508-.9183-11.1385,1.7531-15.8846,4.3228l2.4286.3133c-3.4362-4.2745-8.3637-7.4891-14.036-7.13-4.8966.31-9.2647,2.827-12.8341,6.0619l3.1475.4056a13.97,13.97,0,0,0-12.3719-6.812c-6.0953.1491-11.93,3.0722-17.0767,6.093l2.4286.3134c-4.7043-3.9668-11.6851-7.5723-17.5922-3.84-3.5667,2.2538-5.0577,5.9881-5.0577,10.0577V204.388a51.3228,51.3228,0,0,0,.2985,7.251,26.3543,26.3543,0,0,0,8.0979,15.4752,25.7527,25.7527,0,0,0,7.3244,4.7927,34.2,34.2,0,0,0,9.6777,2.2894,135.5945,135.5945,0,0,0,33.2-.5144c.3637-.0471.7274-.0948,1.0905-.1464l-2.5368-1.9325.4682,23.8792.0659,3.3616a2.0053,2.0053,0,0,0,4.0081,0,25.1029,25.1029,0,0,1,4.0247-12.7228,17.6749,17.6749,0,0,1,3.9991-4.6974,5.7531,5.7531,0,0,1,4.0289-1.3973c3.0932.0844,6.0969.8151,7.5109,3.6931,1.8214,3.7075.9381,8.1992-.3286,11.9154a38.7885,38.7885,0,0,1-3.0621,6.7557,16.0089,16.0089,0,0,1-3.57,4.6506,2.0472,2.0472,0,0,0,0,2.8342L735.39,284.831c.8678,1.1046,2.4866.5233,3.1475-.4056,3.0763-4.3236,5.8783-8.8634,8.5595-13.4388,5.4413-9.2852,10.3852-19.0292,13.7054-29.2907a56.563,56.563,0,0,0,3.113-17.0366C763.926,222.08,759.9179,222.0765,759.9073,224.6593Z"/><path d="M689.266,246.6868a8.0887,8.0887,0,0,1,.9712-.5305c.09-.043.18-.0836.27-.1257.3654-.1708-.0448-.0421-.0722.0272.0317-.08.4928-.1912.5787-.222a13.59,13.59,0,0,1,1.6021-.465c.2936-.066.589-.118.8855-.1686.3876-.066-.1859.0075.0673-.007.1783-.01.3563-.0348.5347-.0466a13.5319,13.5319,0,0,1,2.1066.0374c.204.0183-.1716-.038.1794.0221.209.0357.4171.0731.6245.1175.3964.0849.7883.19,1.1745.3132a10.8809,10.8809,0,0,1,2.3008,1.048,2.0044,2.0044,0,0,0,2.023-3.4609,15.148,15.148,0,0,0-10.648-1.7868,13.264,13.264,0,0,0-4.6215,1.7868,2.05,2.05,0,0,0-.719,2.7419,2.0245,2.0245,0,0,0,2.742.719Z"/><path d="M665.7107,246.1527c-.4112.1883-.3441.1257.031-.0017.4734-.1609.9461-.3124,1.4319-.4335a15.9936,15.9936,0,0,1,4.3717-.4408,5.9861,5.9861,0,0,1,5.7273,4.149c.7264,2.418-.2671,5.1534-1.3862,7.3019a22.1294,22.1294,0,0,1-2.8822,4.2338,4.7055,4.7055,0,0,0-1.5027,2.3945,5.2844,5.2844,0,0,0,.0321,2.044c.81,3.3,4.5411,3.5148,7.32,3.1929a2.0653,2.0653,0,0,0,2.004-2.0041,2.0165,2.0165,0,0,0-2.004-2.004,14.1058,14.1058,0,0,1-2.2165.128c-.2447-.01-.43-.0263-.6534-.0564-.0582-.0079-.6583-.1546-.34-.0629-.09-.0258-.4894-.34-.1995-.0927-.3075-.2627.2215.02-.0833-.1418q.1422.3159.0377-.0245l.0242.1531a2.8626,2.8626,0,0,0,.0222-.5708l-.5154.8843c4.3724-4.6975,9.159-12.6832,5.0406-18.98-3.4761-5.3144-10.9271-5.5819-16.2823-3.13a2.02,2.02,0,0,0-.719,2.7419,2.0511,2.0511,0,0,0,2.7419.719Z"/><path d="M684.1578,274.8072a10.9847,10.9847,0,0,0,6.3538-2.4812,7.0742,7.0742,0,0,0,1.7859-2.288,2.1434,2.1434,0,0,0,.2021-1.5443,2.0046,2.0046,0,0,0-3.663-.4787,5.8047,5.8047,0,0,1-.5947.97l.3134-.4056a6.2134,6.2134,0,0,1-1.0815,1.0763l.4056-.3134a7.933,7.933,0,0,1-1.7249.9886l.4788-.202a10.3865,10.3865,0,0,1-2.588.6972l.5327-.0716c-.1395.0184-.28.036-.42.0442a2.0041,2.0041,0,1,0,0,4.0082Z"/><path d="M717.6414,260.1778a35.342,35.342,0,0,1,1.2907-3.89,2.8851,2.8851,0,0,1,.3136-.7764c-.0085.0094-.2087.4824-.0764.1823.0291-.066.0572-.1325.0862-.1986q.0985-.225.2008-.4484c.2526-.5516.5222-1.0958.8159-1.6267a15.9366,15.9366,0,0,1,.9354-1.5042c.0424-.06.3547-.4706.1182-.1695s.0793-.0938.1261-.1494a8.03,8.03,0,0,1,.5561-.5987c.11-.1061.2295-.2013.34-.3062.1986-.1885-.4563.2958-.0208.0211.1076-.0679.2117-.1395.3228-.2018.0481-.027.098-.0509.1459-.078.2084-.118.2728-.0083-.1829.0685.1117-.0188.2284-.0825.3394-.1119.05-.0134.1035-.0207.153-.0364.301-.0956-.1967.04-.2618.0285a2.3737,2.3737,0,0,0,.394-.013c.4548-.0106-.5119-.1037-.0494-.008a2.0046,2.0046,0,0,0,1.0655-3.865c-3.09-.64-5.3913,1.5961-6.9179,4.012a30.7234,30.7234,0,0,0-3.0751,6.982c-.1734.5367-.3414,1.0767-.4843,1.6225a2.0046,2.0046,0,0,0,3.865,1.0656Z"/><circle cx="670.3255" cy="252.9901" r="2.3819"/><path d="M671.7054,252.99c-.0009.0664-.0058.1323-.0082.1986-.0068.1864-.0039-.064.0117-.0723a1.74,1.74,0,0,0-.0736.3118.88.88,0,0,0-.0633.1789c-.0088-.0191.11-.22.0241-.0673-.062.11-.1229.2154-.1917.321-.1122.1722.1245-.1131.023-.0317a1.3405,1.3405,0,0,0-.1044.1146c-.0288.03-.0585.0585-.0888.0865l-.046.0415q-.1221.102.0583-.0393c-.0577.0008-.21.1415-.2606.17-.0363.02-.0745.0378-.1106.0585-.1667.0956.2158-.0621-.0214.009-.1023.0306-.202.064-.3069.0858-.1894.0394-.0016-.0416.0424,0a.701.701,0,0,0-.1641.0121c-.1112.0046-.22-.0038-.331-.009-.1451-.0068.2558.052.0413.0034-.0628-.0142-.1251-.0269-.1871-.0442s-.1206-.0393-.1811-.0587c-.1371-.0439.0533-.0207.0649.0286-.0071-.03-.2309-.122-.2742-.1494s-.084-.0622-.1284-.0876c-.1156-.0663.18.1667.0332.021a3.0232,3.0232,0,0,0-.2594-.2661c.0425-.0041.1218.1758.0431.0552-.034-.0522-.07-.1028-.1019-.1564-.0214-.0357-.0418-.0721-.0613-.1088l-.0285-.0558q-.0679-.146.0242.0673c.0182-.0458-.0841-.2476-.0977-.3017-.01-.0416-.0184-.0836-.0278-.1254-.045-.1985.0159.2365-.002-.0242a2.4385,2.4385,0,0,1-.0023-.2986c.0059-.1056.0742-.2213-.0072.0065a1.1522,1.1522,0,0,0,.0246-.1266c.0232-.1043.0577-.2036.09-.3052.0661-.21-.11.1981-.0016.0084.0311-.0542.0576-.1108.09-.1646.0266-.0446.0568-.0868.0843-.1308.1005-.16.0306.0351-.0255.03a2.5634,2.5634,0,0,0,.2134-.2247c.0476-.0441.1643-.0845.04-.042-.1358.0467.007-.0041.0487-.032a2.3124,2.3124,0,0,0,.3263-.1835c-.0021.0145-.2376.0844-.0649.0286.0605-.02.12-.0415.1811-.0586.041-.0115.0825-.0219.1241-.0312.0334-.0075.2292-.02.0578-.0155-.18.0051.0372,0,.0622-.0018.0554-.0031.1108-.004.1663-.0032s.11.0059.1653.0077c.2144.007-.2-.0481-.0087,0,.1247.0312.2458.064.3682.1029.1989.0632-.1437-.0919-.0367-.0151.0571.041.1319.0669.1929.1033q.0534.0319.1052.0667t.1014.0719q-.18-.1414-.0583-.0394.11.1094.219.219c.153.1532-.121-.19-.0028-.008.0341.0523.07.1026.102.1563s.0589.11.09.1646c.0942.1663-.0645-.2055-.0015-.0084.0392.1228.0716.2431.1029.3682.0352.1408-.05-.0281-.0066-.0739a1.2456,1.2456,0,0,0,.0145.2639,1.002,1.002,0,1,0,2.004,0,3.4415,3.4415,0,0,0-2.2635-3.19,3.3752,3.3752,0,0,0-3.679.9817,3.3815,3.3815,0,1,0,5.9425,2.2085,1.002,1.002,0,1,0-2.004,0Z"/><circle cx="692.7591" cy="252.9901" r="2.3819"/><path d="M694.1389,252.99c-.0009.0664-.0057.1323-.0081.1986-.0068.1864-.0039-.064.0117-.0723a1.74,1.74,0,0,0-.0737.3118.8918.8918,0,0,0-.0633.1789c-.0088-.0191.1105-.22.0242-.0673-.062.11-.1229.2154-.1917.321-.1122.1722.1245-.1131.0229-.0317a1.3562,1.3562,0,0,0-.1043.1146c-.0288.03-.0585.0585-.0888.0865l-.0461.0415q-.122.102.0583-.0393c-.0576.0008-.21.1415-.26.17-.0363.02-.0746.0378-.1106.0585-.1667.0956.2157-.0621-.0215.009-.1023.0306-.202.064-.3068.0858-.1895.0394-.0017-.0416.0424,0a.701.701,0,0,0-.1641.0121c-.1113.0046-.22-.0038-.331-.009-.1451-.0068.2557.052.0413.0034-.0628-.0142-.1251-.0269-.1872-.0442s-.12-.0393-.181-.0587c-.1371-.0439.0533-.0207.0649.0286-.0071-.03-.231-.122-.2742-.1494s-.0841-.0622-.1284-.0876c-.1156-.0663.18.1667.0332.021a3.0232,3.0232,0,0,0-.2594-.2661c.0425-.0041.1218.1758.0431.0552-.0341-.0522-.07-.1028-.102-.1564-.0213-.0357-.0417-.0721-.0612-.1088l-.0285-.0558q-.0679-.146.0242.0673c.0182-.0458-.0841-.2476-.0977-.3017-.01-.0416-.0184-.0836-.0279-.1254-.0449-.1985.016.2365-.0019-.0242a2.3992,2.3992,0,0,1-.0023-.2986c.0058-.1056.0742-.2213-.0072.0065a1.1522,1.1522,0,0,0,.0246-.1266c.0231-.1043.0577-.2036.09-.3052.0662-.21-.11.1981-.0015.0084.0311-.0542.0576-.1108.09-.1646.0267-.0446.0568-.0868.0844-.1308.1-.16.0306.0351-.0255.03a2.5631,2.5631,0,0,0,.2133-.2247c.0477-.0441.1644-.0845.04-.042-.1358.0467.007-.0041.0487-.032a2.3124,2.3124,0,0,0,.3263-.1835c-.0021.0145-.2376.0844-.0649.0286.06-.02.12-.0415.181-.0586.0411-.0115.0826-.0219.1242-.0312.0334-.0075.2292-.02.0578-.0155-.18.0051.0371,0,.0622-.0018.0554-.0031.1108-.004.1662-.0032s.11.0059.1653.0077c.2144.007-.2-.0481-.0086,0,.1247.0312.2457.064.3682.1029.1988.0632-.1437-.0919-.0367-.0151.0571.041.1319.0669.1928.1033.0356.0213.0708.0436.1052.0667s.0683.047.1014.0719q-.18-.1414-.0583-.0394l.2191.219c.153.1532-.121-.19-.0028-.008.034.0523.07.1026.102.1563s.0589.11.09.1646c.0942.1663-.0645-.2055-.0015-.0084.0392.1228.0716.2431.1029.3682.0352.1408-.05-.0281-.0066-.0739a1.2451,1.2451,0,0,0,.0144.2639,1.0021,1.0021,0,0,0,2.0041,0,3.4417,3.4417,0,0,0-2.2635-3.19,3.3752,3.3752,0,0,0-3.679.9817,3.3814,3.3814,0,1,0,5.9425,2.2085,1.0021,1.0021,0,1,0-2.0041,0Z"/><polyline class="cls-3" points="814.893 442.316 775.791 353.88 720.564 416.99 753.555 473.409"/><path d="M816.6235,441.3044,812.73,432.498l-9.349-21.1442-11.2571-25.46-9.7795-22.118-3.2137-7.2683c-.5082-1.15-.9445-2.3807-1.5421-3.4877-.0259-.0481-.0448-.1015-.067-.1515a2.0138,2.0138,0,0,0-3.1475-.4056L755.657,373.8514l-29.6538,33.8867-6.8564,7.8351a2.0694,2.0694,0,0,0-.3133,2.4285L730.001,437.1l17.7758,30.3985,4.0481,6.9227c1.3014,2.2255,4.767.21,3.4609-2.023L744.1183,453.3l-17.7758-30.3986-4.0481-6.9226-.3134,2.4285,18.7169-21.3886,29.6538-33.8867,6.8564-7.8351-3.1476-.4056,3.8938,8.8064,9.3489,21.1442,11.2571,25.46L808.34,432.42l3.2137,7.2684c.5083,1.1495.9446,2.3806,1.5421,3.4876.026.0481.0449.1015.067.1516a2.0181,2.0181,0,0,0,2.742.719,2.0541,2.0541,0,0,0,.7189-2.742Z"/><path class="cls-1" d="M372.4443,203.6344s.668-14.0284,21.3767-14.0284c16.7006,6.0122-3.34,21.3767-3.34,21.3767Z"/><path d="M374.4484,203.6344c.0058-.116.0287-.2313.0336-.347-.0015.0346-.1042.5956-.0041.0814.037-.19.071-.3807.1134-.57A13.3553,13.3553,0,0,1,375,201.365c.0462-.1343.096-.267.1448-.4.0236-.0648.2276-.568.0871-.2311s.0842-.1852.1142-.2484c.08-.1688.16-.3372.2456-.5034a17.819,17.819,0,0,1,1.19-1.9319c.2739-.4-.1757.1858.1465-.1919.1355-.1588.2662-.321.4045-.4774q.463-.5238.9736-1.003a10.37,10.37,0,0,1,2.1385-1.6321,18.0084,18.0084,0,0,1,2.8846-1.4458,27.8159,27.8159,0,0,1,8.7756-1.6563,4.2388,4.2388,0,0,1,2.027.2213,13.3053,13.3053,0,0,1,1.8682.99,4.8789,4.8789,0,0,1,1.02.779c.185.1734.3579.357.5277.545.2569.2844.0786.0842.0256.0147.1043.1371.2014.2829.2922.4293.1176.19.2193.3862.3194.5853.0444.0881.1227.35-.0128-.031.0353.0992.0774.2.103.3023.0513.2046.1065.4065.1527.6126.01.0454.05.3106.0128.0438-.0429-.3046.0106.1395.0116.2022.0033.211.0135.42.0055.6314-.0057.15-.0714.7193-.0042.2643a9.0341,9.0341,0,0,1-.3451,1.4461c-.07.2171-.15.43-.23.6435-.1182.3149.0905-.1616-.1068.2427-.223.4569-.4507.9081-.7072,1.3475-.2466.4224-.5107.8344-.7868,1.2379q-.2089.3052-.4275.6036c-.0728.1-.1466.1985-.2206.2973-.3648.4866.24-.2952-.1391.1786a39.109,39.109,0,0,1-4.1879,4.4278q-.7641.6977-1.56,1.36c-.2064.1711-1.1563.9124-.2729.2335l1.5443-.202-15.7524-6.4176-2.2842-.9306a2.017,2.017,0,0,0-2.4653,1.4,2.0538,2.0538,0,0,0,1.4,2.4652l14.8,6.03c.9467.3857,1.8868.8036,2.8452,1.1592a2.3709,2.3709,0,0,0,2.4872-.4708,41.7506,41.7506,0,0,0,4.2725-3.9241c4.1188-4.3288,8.9684-11.4557,4.0647-17.016a13.5511,13.5511,0,0,0-5.2144-3.36,8.9728,8.9728,0,0,0-4.0477-.2992c-1.2929.0834-2.583.2343-3.8617.4425a23.038,23.038,0,0,0-10.86,4.6113,15.8,15.8,0,0,0-5.9574,10.8944C370.31,206.2125,374.3187,206.2056,374.4484,203.6344Z"/><path class="cls-1" d="M689.1848,338.6349l-81.0727,91.8092L493.3563,404.041,459.6268,413.76a10.5251,10.5251,0,0,0-7.24,7.3443h0a5.1926,5.1926,0,0,0,.1631,3.23l2.1185,5.5079a5.1918,5.1918,0,0,1,.1631,3.23l-1.1383,4.174a5.1909,5.1909,0,0,0,.0932,3.0367l2.4616,7.2426a5.1919,5.1919,0,0,1-.126,3.6741l-.6744,1.6122a5.1921,5.1921,0,0,0-.0028,4l2.5065,6.0155h0a6.994,6.994,0,0,0,7.37,6.286l4.6544-.2738,20.7087-15.3645,108.8875,38.0773c47.43,14.0284,55.78-9.6864,78.4926-37.0753l86.2735-96.5253"/><path d="M687.7678,337.2178l-8.0649,9.1329-19.3673,21.9321L636.907,394.814l-20.2489,22.93-6.6249,7.5023a33.5171,33.5171,0,0,0-3.1931,3.6159,1.539,1.539,0,0,1-.1451.1644l1.95-.5154-10.9983-2.53L571.0852,419.87l-32.4756-7.472-28.74-6.6126c-5.1262-1.1794-10.2442-2.4054-15.3808-3.5388-1.4826-.3271-2.6976.16-4.1357.574l-13.7953,3.975-14.2,4.0916c-4.2829,1.234-8.3432,2.59-10.7115,6.7993a9.2643,9.2643,0,0,0-1.3473,5.8549,14.8589,14.8589,0,0,0,1.0022,3.1015c.8131,2.1141,2.0322,4.2081,1.4356,6.4932-.682,2.6121-1.7,5.0991-.8364,7.8142.6945,2.1837,1.4762,4.3432,2.2136,6.5128a4.4807,4.4807,0,0,1-.009,3.4067,9.4127,9.4127,0,0,0-1.0025,4.7172c.2545,2.3037,1.599,4.61,2.48,6.723a7.9687,7.9687,0,0,0,.4093.9823c.0654.1109.3927,1.0133-.0435-.4652a5.4091,5.4091,0,0,1,.0916.6927,8.2064,8.2064,0,0,0,.348,1.4874,9.2458,9.2458,0,0,0,3.6153,4.6624c2.5913,1.7319,5.4663,1.4389,8.3933,1.2667a5.6638,5.6638,0,0,0,3.5372-1.0679l4.7983-3.56,12.5312-9.2974,2.4338-1.8056-1.5443.202,17.513,6.1242L546.0665,474.96l37.53,13.1242c6.84,2.3918,13.6319,5.061,20.6664,6.8335,9.4235,2.3744,19.3736,3.76,29.0252,1.9952a42.358,42.358,0,0,0,19.8061-9.7351c10.603-9.0275,17.6055-21.3675,26.7609-31.703,4.834-5.457,9.7169-10.8715,14.5751-16.3069l27.0451-30.259,27.5973-30.8767L764.99,360.2238l.7646-.8554c1.7143-1.9181-1.1109-4.7622-2.8342-2.8342l-8.8268,9.8757L733.09,389.91l-25.3147,28.3228-21.426,23.9721c-3.2226,3.6056-6.5172,7.1594-9.6737,10.8233-8.8524,10.2751-15.9155,22.3239-26.2987,31.2163a38.4051,38.4051,0,0,1-16.3711,8.4365c-7.7943,1.7911-16.0074,1.07-23.7713-.5083a151.7817,151.7817,0,0,1-19.9887-6.0008L560.5005,475.77l-35.69-12.4807L497.6454,453.79c-1.9939-.6972-3.9775-1.4645-5.9935-2.0959a2.42,2.42,0,0,0-2.1982.2124c-1.5328.9852-2.9609,2.1968-4.4234,3.2819L470.991,465.6048a20.6728,20.6728,0,0,0-1.7155,1.2728c-.0562.0516-.2771.1478-.3015.2236.213-.6623,1.4621-.2.7064-.2488a8.3842,8.3842,0,0,0-1.0025.059c-3.0238.1778-6.5542.766-8.2114-2.51-.5165-1.0209-.6219-2.2012-1.0662-3.2674l-1.6737-4.0169a4.767,4.767,0,0,1-.2616-3.977c.74-1.8643,1.3451-3.5734.8622-5.6286-.5638-2.3994-1.5851-4.7512-2.3776-7.0827-.8129-2.3918.2538-4.4435.8067-6.7973.7464-3.1773-.81-6.0233-1.9214-8.9138a5.1172,5.1172,0,0,1-.1214-4.241,8.6416,8.6416,0,0,1,4.4547-4.4373A28.55,28.55,0,0,1,462.63,414.98l6.9916-2.0145,17.5273-5.05,5.7289-1.6507c.23-.0664.8178-.1179.9968-.2872-.6485.6134-1.444-.1767-.8451.0435a45.4956,45.4956,0,0,0,5.4261,1.2484l11.34,2.6092,33.5887,7.7281,36.0488,8.2941,24.6194,5.6644,3.5261.8113a2.0106,2.0106,0,0,0,1.95-.5154l8.0649-9.1329,19.3673-21.9321L660.39,374.2649l20.2489-22.93c3.27-3.703,6.6269-7.3464,9.818-11.1182.0472-.0557.0968-.11.1451-.1644,1.7018-1.9271-1.1226-4.7723-2.8341-2.8341Z"/><line class="cls-1" x1="641.6571" y1="490.2158" x2="775.0261" y2="363.2955"/><path d="M643.0742,491.6329l3.573-3.4,9.723-9.2528,14.3036-13.612,17.5288-16.6813,19.203-18.2744,19.2949-18.362,18.078-17.2039,15.2762-14.5376,10.98-10.4494c1.7243-1.641,3.507-3.2389,5.1816-4.9311.0732-.074.1511-.1438.2265-.2155,1.8724-1.7818-.965-4.613-2.8341-2.8342l-3.5731,3.4-9.7229,9.2528-14.3037,13.612-17.5288,16.6813-19.2029,18.2744-19.295,18.362L671.9048,458.665l-15.2763,14.5377-10.98,10.4494c-1.7244,1.6409-3.507,3.2389-5.1817,4.9311-.0732.0739-.1511.1438-.2265.2155-1.8723,1.7818.965,4.613,2.8342,2.8342Z"/><polyline points="689.185 338.635 608.112 430.444 654.35 476.855"/><path d="M687.7678,337.2178l-8.0644,9.1323-19.366,21.9306-23.4276,26.53-20.249,22.9305c-3.2722,3.7056-6.6156,7.36-9.8223,11.1232-.0469.0549-.0957.1083-.1435.1625a2.0455,2.0455,0,0,0,0,2.8341l15.67,15.7286,24.86,24.9539,5.7074,5.7289c1.823,1.83,4.6577-1.0039,2.8342-2.8342L640.097,459.71l-24.86-24.954-5.7074-5.7288v2.8341l8.0644-9.1323,19.366-21.9306,23.4276-26.53,20.249-22.9306c3.2722-3.7056,6.6156-7.36,9.8223-11.1232.0469-.0549.0957-.1083.1435-.1625,1.7018-1.9271-1.1226-4.7723-2.8341-2.8341Z"/><path class="cls-3" d="M916.0352,788.2947l53.6627,73.8719L881.4987,949.66s-26.2909-23.5017,3.8665-58.7486c5.6818-6.6406,3.6566-16.8346.5158-24.99a49.4643,49.4643,0,0,0-14.0568-19.69"/><path d="M914.3048,789.3062l5.3387,7.3492,12.82,17.6484,15.5083,21.3487,13.4027,18.45,4.3823,6.0327a28.5789,28.5789,0,0,0,2.1141,2.91,1.2987,1.2987,0,0,1,.0962.1325l.3134-2.4286-8.8125,8.7419-20.9791,20.8113-25.5466,25.3422-22.008,21.8319-7.2359,7.178a48.3281,48.3281,0,0,0-3.4655,3.4377,2.1081,2.1081,0,0,1-.1515.15h2.8341a19.7275,19.7275,0,0,1-1.6371-1.7074q-.3661-.418-.7176-.8485c-.1315-.1608-.26-.3239-.39-.4859-.0682-.085-.3434-.4512-.0109-.0122-.0833-.11-.1678-.219-.25-.33-.6806-.9276-1.3313-1.8737-1.9319-2.8555a33.914,33.914,0,0,1-5.0934-17.5833c-.0606-9.9908,4.32-19.3345,10.0864-27.2812,1.8489-2.5481,4.2468-4.82,5.76-7.5878a18.9946,18.9946,0,0,0,2.138-7.4495c.5025-5.4767-.9506-11.1041-2.8594-16.1933a52.42,52.42,0,0,0-9.18-15.5206,38.6217,38.6217,0,0,0-5.59-5.5732,2.07,2.07,0,0,0-2.8342,0,2.0171,2.0171,0,0,0,0,2.8341c5.544,4.308,9.9151,10.6124,12.7675,16.9466a38.4794,38.4794,0,0,1,3.7758,15.684,15.2884,15.2884,0,0,1-1.6791,7.2489c-1.473,2.6862-3.8212,4.9321-5.6266,7.4046-6.008,8.2278-10.4675,17.9426-10.7543,28.264a38.0744,38.0744,0,0,0,4.8658,19.5266,32.5356,32.5356,0,0,0,6.3255,8.354,2.0446,2.0446,0,0,0,2.8341,0l8.8125-8.742,20.9792-20.8113,25.5465-25.3422L960.262,874.35c3.5579-3.5294,7.2786-6.9537,10.7014-10.6157.0485-.0519.1011-.1.1516-.15a2.0234,2.0234,0,0,0,.3133-2.4285l-5.3387-7.3492-12.82-17.6484L937.761,814.8088l-13.4027-18.45c-2.1651-2.9805-4.3026-5.9835-6.4964-8.943-.0325-.0438-.0641-.0883-.0962-.1325a2.0626,2.0626,0,0,0-2.7419-.7189,2.0195,2.0195,0,0,0-.719,2.7419Z"/><path class="cls-4" d="M975,869.8129l-88.3085,87.6019s-9.6455-11.7392-12.784-18.8822L890.76,922.0915l2.331-5.303a36.57,36.57,0,0,1,18.2319-18.5239l5.91-2.7105,17.7294-17.5874a12.9754,12.9754,0,0,0,3.0434-13.6809h0a12.9755,12.9755,0,0,1,3.0435-13.6808l11.8449-11.75Z"/><path d="M973.5829,868.3958l-8.8015,8.7311-21.13,20.961-25.46,25.2568-22.0161,21.84-7.2881,7.23a48.346,48.346,0,0,0-3.4609,3.4332,2.1234,2.1234,0,0,1-.1514.15h2.8342c-1.7582-2.142-3.3535-4.2383-4.9934-6.4823a67.4112,67.4112,0,0,1-7.4773-11.9943l-.3134,2.4285,15.81-15.424a6.3664,6.3664,0,0,0,1.6319-2.0507c.813-1.85,1.5913-3.7191,2.4525-5.5469a34.9849,34.9849,0,0,1,15.3968-16.09c1.8751-.9818,3.8354-1.8142,5.7584-2.6962a8.5923,8.5923,0,0,0,2.71-1.602l8.2529-8.1869,8.5127-8.4445a15.4621,15.4621,0,0,0,4.0238-16.34,11.1793,11.1793,0,0,1,1.64-10.4961,32.6553,32.6553,0,0,1,2.9026-2.9862l9.188-9.1145.7062-.7-3.1475-.4056,19.4049,27.1749,2.7013,3.7831a2.06,2.06,0,0,0,2.742.719,2.0205,2.0205,0,0,0,.719-2.742l-19.4049-27.1749-2.7014-3.7831a2.0357,2.0357,0,0,0-3.1476-.4056l-7.5739,7.5133c-3.2463,3.22-6.8273,6.2033-8.129,10.7889a14.7481,14.7481,0,0,0-.4571,5.75c.2246,1.8684.984,3.54,1.32,5.372a11.0729,11.0729,0,0,1-3.0934,9.6887c-2.11,2.1455-4.2741,4.24-6.41,6.359l-9.5861,9.5094L916.25,893.706a3.4751,3.4751,0,0,0-.3369.3343c-.2216.2929.226-.2241.2652-.197-.1854-.1281-2.0309.9315-2.2521,1.033l-3,1.376a39.5556,39.5556,0,0,0-15.9085,13.0744,42.5016,42.5016,0,0,0-4.161,7.597l-1.4043,3.1948c-.04.0915-.4531.8224-.4007.9115-.0253-.0431.4941-.4679.1882-.2549a24.395,24.395,0,0,0-2.733,2.6663l-4.8787,4.76-8.6132,8.4029-.5244.5116a2.0736,2.0736,0,0,0-.3134,2.4285,68.2439,68.2439,0,0,0,7.66,12.244c1.7541,2.39,3.5562,4.7521,5.4373,7.0439a2.0236,2.0236,0,0,0,2.8342,0l8.8015-8.7311L918.04,929.14l25.46-25.2568,22.0161-21.84c3.5737-3.5451,7.3109-6.9848,10.749-10.6631.0484-.0517.101-.1.1514-.15C978.251,869.4108,975.417,866.5765,973.5829,868.3958Z"/><path d="M889.9263,882.0633a6.9891,6.9891,0,0,1,.903-.1957c.5583-.0916-.5264.0528.0162-.0041.1863-.0195.3724-.0374.5594-.0493a11.6219,11.6219,0,0,1,1.3145-.01c.2268.0111.4521.0341.6782.0538.3965.0344-.5018-.091,0,0,.1418.0258.284.0481.4254.0765a12.7554,12.7554,0,0,1,1.6445.4747c.3833.1323-.3655-.1749.04.0131.1308.0607.2614.1207.39.1853a9.8712,9.8712,0,0,1,.91.5185q.1968.1263.3877.2617c.0621.044.4477.3758.1069.0748.297.2624.5965.5143.8784.7942a2.0041,2.0041,0,0,0,2.8342-2.8342,12.541,12.541,0,0,0-8.0735-3.6137,11.6454,11.6454,0,0,0-4.08.3892,2.0046,2.0046,0,1,0,1.0655,3.865Z"/><path d="M887.2144,890.9728a7.0227,7.0227,0,0,1,.903-.1957c.5582-.0915-.5265.0529.0162-.004.1863-.0195.3724-.0374.5593-.0494a11.6471,11.6471,0,0,1,1.3146-.01c.2268.0112.4521.0342.6782.0538.3964.0344-.5018-.0909,0,0,.1418.0258.284.0481.4254.0766a12.7236,12.7236,0,0,1,1.6445.4747c.3832.1322-.3655-.175.04.013.1308.0607.2613.1207.39.1853a9.8853,9.8853,0,0,1,.91.5186q.1968.1263.3877.2616c.062.0441.4477.3759.1069.0748.297.2624.5964.5144.8784.7942a2.0041,2.0041,0,0,0,2.8342-2.8342,12.54,12.54,0,0,0-8.0735-3.6136,11.6462,11.6462,0,0,0-4.08.3892,2.0046,2.0046,0,1,0,1.0656,3.8649Z"/><path d="M881.83,898.98a7.0131,7.0131,0,0,1,.903-.1957c.5583-.0916-.5264.0528.0163-.004.1862-.02.3724-.0375.5593-.0494a11.6237,11.6237,0,0,1,1.3146-.01c.2268.0112.4521.0342.6782.0538.3964.0344-.5018-.091-.0006,0,.1418.0258.2841.0481.4254.0765a12.7568,12.7568,0,0,1,1.6446.4747c.3832.1323-.3655-.1749.04.0131.1308.0607.2614.1207.39.1853a9.8844,9.8844,0,0,1,.91.5185q.1968.1263.3877.2617c.062.0441.4477.3759.1068.0748.2971.2624.5965.5143.8785.7942a2.0041,2.0041,0,0,0,2.8342-2.8342,12.5413,12.5413,0,0,0-8.0735-3.6137,11.6462,11.6462,0,0,0-4.08.3892,2.0046,2.0046,0,0,0,1.0655,3.865Z"/><line class="cls-3" x1="880.3255" y1="948.4773" x2="968.5246" y2="860.9839"/><path d="M881.7426,949.8944l8.8124-8.742,20.9792-20.8113,25.5466-25.3422,22.008-21.8319c3.5579-3.5294,7.2786-6.9537,10.7014-10.6157.0484-.0519.1011-.1.1515-.15,1.8339-1.8192-1-4.6535-2.8342-2.8341l-8.8124,8.7419L937.3159,889.12l-25.5466,25.3422-22.008,21.8319c-3.5578,3.5294-7.2785,6.9538-10.7013,10.6157-.0485.0519-.1012.1-.1516.15-1.8339,1.8192,1,4.6535,2.8342,2.8342Z"/><path class="cls-3" d="M607.1142,858.4314l-13.9278,90.2371H468.952s-2.1137-35.2005,44.1193-38.985c8.7105-.713,14.452-9.3764,17.966-17.3785a49.4644,49.4644,0,0,0,3.8871-23.8781"/><path d="M605.1817,857.8986l-1.3856,8.9774-3.3274,21.5581-4.0251,26.0782L592.965,937.05l-1.1374,7.3692a28.1089,28.1089,0,0,0-.5487,3.555,1.2868,1.2868,0,0,1-.0249.1618l1.9324-1.4713h-119.14a48.1393,48.1393,0,0,0-4.8814,0,2.1116,2.1116,0,0,1-.2135,0l2.0041,2.004a18.3678,18.3678,0,0,1,.0182-1.9716c.0351-.7154.0959-1.43.1777-2.141.0193-.1676.124-.9314.0218-.21.0319-.2251.0635-.45.0983-.6749q.1225-.789.2789-1.5725a37.9614,37.9614,0,0,1,2.1044-6.9614c.2121-.5178-.1672.377.06-.14.0685-.1558.1368-.3118.2068-.467q.2138-.4737.4409-.941.47-.966.9967-1.9028a35.0883,35.0883,0,0,1,2.6159-3.99,36.7042,36.7042,0,0,1,7.282-6.998,44.2806,44.2806,0,0,1,11.5924-5.8143,77.4173,77.4173,0,0,1,16.5728-3.2292c6.1276-.6579,10.8348-4.615,14.3592-9.4369a49.5626,49.5626,0,0,0,8.5339-20.65,45.0315,45.0315,0,0,0,.6126-13.14,2.0694,2.0694,0,0,0-2.0041-2.0041,2.0155,2.0155,0,0,0-2.004,2.0041,40.9225,40.9225,0,0,1-.2281,10.5192,48.0634,48.0634,0,0,1-6.7374,18.8105c-2.8173,4.5623-6.91,9.1657-12.5321,9.89-5.7984.7467-11.4591,1.37-17.0557,3.18-7.8882,2.5517-15.35,6.87-20.6644,13.3324a38.4946,38.4946,0,0,0-7.7331,15.5719,31.6274,31.6274,0,0,0-1.0216,8.9376,2.0425,2.0425,0,0,0,2.004,2.0041H577.8994c5.0113,0,10.0647.19,15.0735,0,.071-.0027.1425,0,.2135,0a2.0209,2.0209,0,0,0,1.9325-1.4713l1.3856-8.9773,3.3274-21.5582,4.0251-26.0782,3.4786-22.5375c.562-3.6411,1.147-7.28,1.6861-10.9242.0079-.0539.0166-.1078.0249-.1618a2.068,2.068,0,0,0-1.4-2.4652,2.0193,2.0193,0,0,0-2.4652,1.4Z"/><path d="M657.5888,489.5847l-15.6249.3853s-5.417,17.2828,9.2863,24.7635C665.5341,522.0007,657.5888,489.5847,657.5888,489.5847Z"/><path d="M657.5888,487.5807l-15.6249.3852a2.062,2.062,0,0,0-1.9325,1.4713,26.5833,26.5833,0,0,0-.9077,10.4559,20.5018,20.5018,0,0,0,11.115,16.5708c2.0094,1.0115,4.4119,1.8049,6.637,1.0126a6.8737,6.8737,0,0,0,3.98-4.4517c1.54-4.2577,1.018-9.346.476-13.7411a88.9416,88.9416,0,0,0-1.811-10.2317c-.6123-2.5044-4.4784-1.4438-3.8649,1.0655.5721,2.34,1.0078,4.72,1.3765,7.1.1956,1.2622.2489,1.65.3858,2.868.1261,1.1209.2267,2.2449.2915,3.371.0637,1.1071.094,2.2168.07,3.3256-.01.4811-.0306.962-.0642,1.442-.0174.2477-.0412.4945-.0628.7418-.01.1211-.0254.2418-.0393.3626-.0285.2488.0491-.3021-.01.0871a14.5113,14.5113,0,0,1-.6385,2.6143c-.1662.4753.1417-.24-.0817.1934-.0851.1651-.1654.3306-.26.4907-.0795.1347-.1673.2622-.2524.393-.1857.2855.0438-.0607.0775-.0979-.0849.0938-.1673.1878-.2542.28-.1185.1254-.5229.396-.06.0877-.1345.09-.2794.1678-.412.2589-.3736.2563.13-.01-.0875.0394-.1653.0376-.33.0856-.4952.1239.55-.127.0474-.002-.1413-.0079-.1957-.0061-.3891-.01-.5846-.0255.5118.0405-.1075-.0226-.2566-.0606-.2588-.0658-.515-.1347-.7684-.2191a15.9636,15.9636,0,0,1-3.7712-2.0759,15.3654,15.3654,0,0,1-3.2646-3.1583,17.141,17.141,0,0,1-3.0977-7.4819,22.5076,22.5076,0,0,1-.26-3.88q.0117-.9085.0835-1.8147.0327-.4175.0777-.8339c.0128-.1176.027-.235.04-.3526.0655-.5749-.0644.4123.0171-.1367a21.6417,21.6417,0,0,1,.6823-3.2482l-1.9325,1.4713,15.6249-.3853C660.1635,491.5253,660.1732,487.5169,657.5888,487.5807Z"/><path d="M771.4562,470.8815s26.8271,5.159,29.9225,20.6362-36.1134,19.0885-36.1134,19.0885"/><path d="M770.9235,472.814a62.36,62.36,0,0,1,11.7576,3.6318c5.978,2.4575,12.6694,6.2442,15.6737,12.3151a12.1308,12.1308,0,0,1,.7914,2.0637c.1176.4051.21.8142.3,1.2259.0119.0544.1013.66.0438.1924.0217.1768.0364.3547.0461.5324a8.1925,8.1925,0,0,1,.0021.8655c-.0072.1412-.0192.2818-.0334.4225-.0335.333.0974-.4784-.011.0479-.056.2717-.1131.54-.191.8068-.0428.1462-.385,1.006-.202.6072a11.7514,11.7514,0,0,1-4.8353,5.004c-5.1567,3.2491-11.2344,4.8781-17.2637,6.18-2.8441.6141-5.7116,1.11-8.592,1.5182-.0929.0132-.1859.0256-.2788.0386-.3834.0537.4569-.0575-.1236.0165-.217.0277-.434.0563-.6511.0835q-.5507.0688-1.1021.1316c-.3294.0372-.6589.074-.989.1046a2.0584,2.0584,0,0,0-2.004,2.004,2.0186,2.0186,0,0,0,2.004,2.0041,107.8284,107.8284,0,0,0,11.1275-1.6884c6.5027-1.2982,13.221-3.0545,19.0046-6.3949a18.3457,18.3457,0,0,0,6.6105-5.9429,10.6547,10.6547,0,0,0,1.1032-8.4617c-1.9975-7.5932-8.9719-12.675-15.6964-15.92a63.8319,63.8319,0,0,0-15.4257-5.2532c-2.52-.4872-3.6,3.3751-1.0655,3.865Z"/><path class="cls-5" d="M721.5991,539.804l-87.83,163.1418L604.3376,876.2012l-105.508.12s1.9008-108.9147,43.8691-223.9079c27.7653-76.0768,92.0048-150.36,99.4-162.1491,21.9048-34.92,73.3-55.5306,73.3-55.5306"/><path d="M719.8686,538.7925l-8.3458,15.5021-20.1817,37.4869L666.71,637.5337l-22.029,40.9182L632.6362,700.824a8.239,8.239,0,0,0-.9947,2.7362l-1.5351,9.0365-6.4984,38.2551-8.6616,50.9889L606.99,848.6788l-4.3832,25.8029-.2015,1.1867,1.9324-1.4713-35.6218.04-56.8073.0644-13.0789.0149,2.004,2.004c.3392-19.1119,2.3594-38.29,4.6874-57.2408a777.8351,777.8351,0,0,1,28.3316-134.0375c7.2849-23.65,15.7387-46.786,26.9016-68.8994A551.7522,551.7522,0,0,1,594.6249,558.75c9.97-14.942,20.5088-29.4938,31.365-43.8023,5.8936-7.7679,12.3568-15.2909,17.7022-23.4568,9.9507-15.2011,23.7718-27.0823,38.898-36.9574a214.1744,214.1744,0,0,1,31.9614-17.286q.3978-.1721.7967-.3414c.227-.0964-.4088.1713.104-.0429q.239-.1.4793-.197c2.3636-.95,1.3316-4.8282-1.0655-3.865A191.3891,191.3891,0,0,0,691.1251,444.61c-15.3985,8.8415-30.2676,19.49-41.9879,32.9368-4.0805,4.6814-7.3135,9.8762-10.966,14.8618-2.873,3.9216-5.8728,7.7514-8.8338,11.6064-10.0605,13.0981-19.9576,26.3194-29.4069,39.8676a624.098,624.098,0,0,0-34.79,55.3932,404.4836,404.4836,0,0,0-28.4771,64.19C520.95,709.2166,510.16,756.6585,503.43,804.5406c-3.2936,23.4316-5.9306,47.1247-6.58,70.7988-.009.3271-.0181.6543-.0239.9814a2.0306,2.0306,0,0,0,2.0041,2.0041l35.6218-.04,56.8073-.0644,13.0789-.0149a2.0235,2.0235,0,0,0,1.9325-1.4713l3.0893-18.186,7.32-43.0926,8.7187-51.325,7.3081-43.0215,2.2024-12.9652.5976-3.5179c.06-.3512.4414-1.7342-.0028-.6764.6382-1.52,1.6-2.972,2.38-4.4211l6.2209-11.5552,20.3173-37.7386,24.6458-45.7789,21.847-40.58,11.8736-22.0548.5411-1.0052c1.2227-2.2711-2.2364-4.2974-3.4609-2.023Z"/><path class="cls-5" d="M778.5172,446.117l46.5189,203.8476,107.0567,161.87-74.7321,73.69s-75.0282-78.9734-125.757-190.38c-33.561-73.7038-39.8635-171.7091-42.86-185.299V459.4443"/><path d="M776.5847,446.65l4.36,19.1067,10.4732,45.8943,12.9927,56.9344,11.6065,50.86,6.6437,29.1127c.9349,4.0967,3.9669,7.4414,6.2567,10.9036l23.4437,35.4469L883.96,742.686,913.4071,787.21l16.1859,24.4732.7693,1.1632.3134-2.4286-25.2312,24.8794-40.237,39.6758-9.2639,9.1347h2.8341c-11.413-12.02-21.9009-25.0144-32.1142-38.0488A792.6613,792.6613,0,0,1,759.3482,745.292c-11.84-21.0949-23.1342-42.7978-32.0149-65.324a448.8087,448.8087,0,0,1-19.3116-63.7931c-7.4719-32.3827-11.8-65.1906-16.0275-98.1089-.2508-1.9527-.5039-3.9061-.8029-5.8521-.095-.6182-.1929-1.2363-.3063-1.8515-.05-.27-.1159-.54-.1573-.811-.0682-.4463.0337.6311.02.1167-.0985-3.8239,0-7.6639,0-11.4887V459.4443c0-2.579-4.0081-2.5833-4.0081,0v29.7668c0,7.9855-.6278,16.1687.5863,24.0683,1.6968,11.04,2.82,22.59,4.3385,33.8261,2.4972,18.4788,5.4811,36.896,9.2316,55.1639a511.2519,511.2519,0,0,0,17.2484,64.3459c7.745,22.395,17.9837,43.8044,29.0431,64.7335a783.67,783.67,0,0,0,68.9478,107.5705c12.38,16.3021,25.2347,32.4,39.2067,47.3811.2.2143.3994.4287.6012.6411a2.0322,2.0322,0,0,0,2.8341,0l25.2313-24.8794,40.237-39.6758,9.2639-9.1347a2.0305,2.0305,0,0,0,.3133-2.4286l-11.43-17.2824-27.1395-41.0349-32.0082-48.3965-26.4231-39.9518L829.12,652.5116c-.635-.96-1.243-1.9461-1.9084-2.8854-.1387-.1959-.27-.4005-.3988-.603-.1959-.307.2242.71.1286.29q-2.4354-10.7074-4.8862-21.4113l-10.7981-47.3178-12.9283-56.6523-11.4351-50.1088L780.7386,446.85l-.2889-1.2661c-.5737-2.5137-4.439-1.45-3.865,1.0655Z"/><path class="cls-6" d="M801.3787,490.1878c-15.4771-16.6824-159.1569-.4758-159.1569-.4758l26.411-156.1286c1.0268-10.1307,8.9652-17.8034,18.42-17.8034h63.0887c10.2729,0,15.64,4.248,20.0493,19.3244C770.1907,335.1044,796.7356,440.1408,801.3787,490.1878Z"/><path d="M670.0808,317.7841h67.7844c4.23,0,8.4635-.0485,12.6934.0026,4.83.0585,9.0126,1.3312,12.0524,5.218,2.8537,3.649,4.5373,8.4292,5.7039,12.8572,1.0851,4.1189,2.0543,8.2721,3.06,12.4107q3.2808,13.4964,6.4061,27.03,4.1,17.7469,7.9083,35.56c2.7,12.6837,5.2709,25.3965,7.5953,38.1546,2.0584,11.2983,3.968,22.6446,5.3281,34.0435q.4246,3.5591.7617,7.1276l3.4211-1.4171c-2.2276-2.373-5.6013-3.5728-8.65-4.4466a82.3032,82.3032,0,0,0-14.1423-2.4538c-12.8844-1.3445-25.9224-1.3065-38.8586-1.03-14.6964.314-29.3814,1.1159-44.0435,2.148q-18.6234,1.311-37.2075,3.122-6.0088.5806-12.0126,1.2122c-1.859.1963-3.8364.2351-5.67.6154-.08.0167-.1661.0188-.2478.0281l1.9325,2.5369,1.8959-10.8781,4.5308-25.9965,5.5015-31.566,4.74-27.1934c.7714-4.426,1.5937-8.8465,2.3147-13.281.01-.0623.0217-.1243.0325-.1865a2.0621,2.0621,0,0,0-1.4-2.4652,2.0211,2.0211,0,0,0-2.4653,1.4L657.15,391.2139,652.62,417.21l-5.5015,31.566-4.74,27.1934c-.7714,4.4259-1.5937,8.8465-2.3147,13.281-.01.0623-.0217.1243-.0325.1864-.1976,1.1341.5191,2.6985,1.9325,2.5369,4.787-.5474,9.5817-1.033,14.3763-1.508q17.5164-1.7355,35.0708-3.0564c14.4979-1.0848,29.0167-1.9528,43.5492-2.4a381.3464,381.3464,0,0,1,40.1264.4315c2.6886.2011,5.374.4561,8.0483.8q.2668.0343.5336.07c-.3982-.0534-.0853-.0112-.005,0q.4761.0666.952.136.9228.1362,1.8428.29c1.1226.1886,2.2418.3986,3.3546.6391a42.5753,42.5753,0,0,1,5.5265,1.5386c.37.1341.735.2789,1.1.4257-.6141-.247-.0035-.0014.139.0649.1957.0909.3919.18.5855.2755a16.8671,16.8671,0,0,1,1.7873,1.0339c.1252.0819.2414.1766.3638.2624-.5753-.4031-.1323-.1116-.0014.01.22.2039.4425.3979.6482.617,1.1221,1.1953,3.5847.3367,3.4211-1.4171-1.0351-11.0957-2.7413-22.13-4.6194-33.1108-2.1816-12.7546-4.6637-25.4574-7.2868-38.128q-3.8371-18.5346-8.0592-36.9868-3.4007-14.9481-6.9911-29.8523-1.9534-8.1123-3.97-16.21c-1.9152-7.6583-5.2623-17.0334-13.0674-20.4389-4.98-2.1729-10.6885-1.6855-16.0106-1.6855H670.0808c-2.5791,0-2.5834,4.0082,0,4.0082Z"/><path class="cls-4" d="M591.5656,957.8311H467.1772s1.42-15.1271,4.2221-22.4086l23.5431.1964,5.39-2.1232a36.5686,36.5686,0,0,1,25.9892-.3108l6.1044,2.2376h24.9729a12.9757,12.9757,0,0,0,11.7956-7.5692h0a12.9754,12.9754,0,0,1,11.7955-7.5692H597.674Z"/><path d="M591.5656,955.827h-119.3a48.1881,48.1881,0,0,0-4.875,0,2.1037,2.1037,0,0,1-.2131,0l2.004,2.0041c.2553-2.7059.6049-5.4057,1.0115-8.0927a67.3768,67.3768,0,0,1,3.1391-13.7832l-1.9325,1.4713,21.9566.1832a6.62,6.62,0,0,0,2.61-.2517c1.7737-.6987,3.5406-1.4184,5.3233-2.094a35.2593,35.2593,0,0,1,24.67-.084c1.8514.6739,3.6865,1.4382,5.5626,2.039a7.6118,7.6118,0,0,0,2.4213.2075h12.8354c3.4713,0,6.943.0157,10.4143,0a15.3833,15.3833,0,0,0,7.9292-2.1446,14.9881,14.9881,0,0,0,4.0236-3.5651c1.0851-1.3837,1.7011-2.9606,2.6363-4.4267a11,11,0,0,1,7.95-4.94,38,38,0,0,1,4.1008-.062H597.674l-1.9325-2.5369L590.38,952.71l-.7465,4.5882a2.0655,2.0655,0,0,0,1.4,2.4653,2.02,2.02,0,0,0,2.4653-1.4l5.3619-32.9587.7464-4.5882a2.0364,2.0364,0,0,0-1.9324-2.5369H587.0056c-4.3126,0-8.6612-.37-12.6679,1.5649a15.8107,15.8107,0,0,0-7.1111,7.4839,11.137,11.137,0,0,1-7.5264,5.8483,17.6271,17.6271,0,0,1-3.883.2413H536.328a36.7907,36.7907,0,0,0-3.7206,0c-.3753.0389.1091-.06.0806.0337.0647-.2121.3846.1611.0994-.0248a2.8712,2.8712,0,0,0-.5405-.1981l-3.1333-1.1485a51.2513,51.2513,0,0,0-7.9214-2.401,39.5322,39.5322,0,0,0-13.5607-.2346,43.3564,43.3564,0,0,0-9.2985,2.6957l-3.2073,1.2635c-.05.02-.7074.2572-.7031.277-.0228-.1045.83-.0184.3041-.0683-1.26-.12-2.5793-.0215-3.8432-.0321l-6.843-.057-11.9086-.0994-.7326-.0061a2.0681,2.0681,0,0,0-1.9325,1.4713,68.2394,68.2394,0,0,0-3.1846,14.0859c-.4392,2.9407-.83,5.8948-1.1091,8.8555a2.0225,2.0225,0,0,0,2.0041,2.004H576.2116c5.0338,0,10.11.1908,15.1408,0,.0709-.0026.1423,0,.2132,0C594.1446,959.8351,594.1489,955.827,591.5656,955.827Z"/><path d="M522.5121,906.5973c.1737.0918.34.1992.5036.3076.1021.0677.5239.2818.5475.39-.0078-.0357-.4687-.3721-.21-.161.0511.0417.1028.0826.1537.1245q.192.1581.3772.3244.3723.3343.715.7.195.208.38.4254c.0589.07.1156.141.1743.2108.1912.2277-.2955-.4021-.0549-.072a11.552,11.552,0,0,1,.7077,1.0805q.17.2977.3194.6063c.0473.0976.0911.1967.137.2949.1348.2882-.1623-.43-.0109-.0182a10.9474,10.9474,0,0,1,.4745,1.6315c.0284.1422.0486.2859.076.4282.0426.2215-.0279-.2308-.0274-.2188.0037.0851.02.1713.0287.2562.0353.3556.05.712.0524,1.0693a2.0041,2.0041,0,0,0,4.0082,0,12.767,12.767,0,0,0-5.6329-10.4015,6.6941,6.6941,0,0,0-.6961-.4386,2.0044,2.0044,0,0,0-2.0229,3.4609Z"/><path d="M514.3121,911.0127c.1737.0917.34.1991.5036.3076.1021.0677.524.2817.5475.39-.0077-.0357-.4687-.372-.21-.1609.0511.0416.1029.0825.1537.1244q.1921.1583.3772.3245.3723.3343.715.7.195.2079.38.4254c.059.0695.1157.141.1743.2108.1913.2276-.2955-.4021-.0548-.0721a11.5641,11.5641,0,0,1,.7076,1.0805q.17.2977.32.6063c.0473.0976.0911.1968.137.295.1348.2882-.1623-.43-.0109-.0183a10.9659,10.9659,0,0,1,.4744,1.6315c.0285.1423.0486.286.076.4283.0427.2214-.0279-.2309-.0274-.2189.0038.0851.02.1714.0287.2562.0354.3556.05.7121.0525,1.0693a2.0041,2.0041,0,1,0,4.0081,0,12.767,12.767,0,0,0-5.6329-10.4015,6.7086,6.7086,0,0,0-.696-.4385,2.0044,2.0044,0,1,0-2.023,3.4609Z"/><path d="M504.8506,912.905c.1737.0917.34.1991.5037.3076.1021.0676.5239.2817.5475.39-.0078-.0357-.4687-.372-.21-.1609.0511.0416.1029.0825.1538.1244q.192.1582.3771.3245.3723.3343.715.7.195.2079.38.4254c.059.07.1157.141.1743.2108.1913.2276-.2954-.4021-.0548-.0721a11.5441,11.5441,0,0,1,.7076,1.0805q.17.2978.3195.6063c.0473.0976.0911.1967.137.295.1348.2882-.1623-.43-.0109-.0183a10.9421,10.9421,0,0,1,.4744,1.6315c.0285.1422.0486.2859.0761.4283.0426.2214-.028-.2309-.0274-.2189.0037.0851.02.1714.0286.2562.0354.3556.05.7121.0525,1.0693a2.0041,2.0041,0,1,0,4.0081,0,12.767,12.767,0,0,0-5.6329-10.4015,6.698,6.698,0,0,0-.696-.4385,2.0044,2.0044,0,0,0-2.023,3.4609Z"/><path d="M453.943,844.12c-5.431-.4707-10.4194,4.1413-13.0443,8.359a35.5773,35.5773,0,0,0-4.0508,10.0664l1.9683.2664c-.62-12.3-2.3858-24.7126-6.3576-36.4086-2.4248-7.14-5.6876-14.7816-11.1791-20.1443-2.9336-2.865-7.5207-5.4237-11.3111-2.5173a11.5728,11.5728,0,0,0-3.6364,5.925,36.1156,36.1156,0,0,0-1.3087,10.5647c-.0155,12.4084,3.0342,24.8662,6.5164,36.6924q.91,3.0888,1.8953,6.1545l1.6748-.975A84.6533,84.6533,0,0,0,395.7261,848.31c-5.0444-2.5472-10.6286-4.7457-16.3348-5.0356-3.298-.1675-7.4531.4755-9.0692,3.7794-1.9579,4.0026.6463,8.9372,2.7776,12.2922,5.8362,9.187,14.5482,16.6261,22.9033,23.4241l.7085-1.7105a65.4208,65.4208,0,0,0-17.92,2.0594,34.0613,34.0613,0,0,0-12.418,5.8492c-2.541,2.0255-4.716,4.7911-5.0513,8.12-.34,3.3754,1.4986,6.4483,3.8721,8.694,4.6582,4.4073,11.1629,6.72,17.2031,8.4628v-1.9325c-6.3139.9891-13.3,3.3959-16.5864,9.3268a16.5964,16.5964,0,0,0-1.4364,11.3357,14.1369,14.1369,0,0,0,.6738,2.4222l1.6748-.975a18.1921,18.1921,0,0,0-12.6323-5.818c-6.5384-.1737-14.7459,3.9847-16.4823,10.7409a9.0273,9.0273,0,0,0-.1354,4.3766l1.472-1.1316c-5.5507-2.4726-14.2857-4.1774-18.6768,1.2226-2.0466,2.5169-2.5806,5.852-2.6019,9.0078a1.0027,1.0027,0,0,0,2.0041,0c.03-4.48,1.4546-9.05,6.2589-10.2055,3.2373-.7786,6.7623-.067,9.8738.93.57.1825,1.1346.38,1.6917.5982.1545.06.3078.1231.4614.1856.0623.0254-.2344-.1026-.0227-.0083a1.0163,1.0163,0,0,0,1.472-1.1316,1.7936,1.7936,0,0,1-.0915-.563,8.3623,8.3623,0,0,1,.0614-1.9681,10.0217,10.0217,0,0,1,3.5488-5.9248,15.9678,15.9678,0,0,1,18.8411-1.7356,15.6041,15.6041,0,0,1,3.5406,2.8418c.6391.7188,2.047-.0383,1.6748-.9749-2.3308-5.8645-.7166-12.9114,4.58-16.5951a26.9983,26.9983,0,0,1,11.3691-4.0243c1.0253-.1606.8794-1.6787,0-1.9325-5.2638-1.5189-10.7812-3.4483-15.1217-6.9075-2.3018-1.8344-4.5186-4.39-4.5253-7.4968-.0062-2.8508,1.8517-5.2577,3.9183-7.0368a29.7882,29.7882,0,0,1,11.0858-5.5274,62.2862,62.2862,0,0,1,18.4242-2.28c.8082.0106,1.4017-1.1465.7086-1.7106-7.4652-6.0739-14.9983-12.587-20.7583-20.3631-2.31-3.1185-5.7926-8-4.8851-12.057a3.9727,3.9727,0,0,1,2.1333-2.7706,9.7624,9.7624,0,0,1,4.542-.9093c5.0719.0059,10.1632,1.8855,14.69,4.0195a81.2564,81.2564,0,0,1,20.5509,14.247,1.01,1.01,0,0,0,1.6748-.9749c-3.9445-12.3229-7.432-25.141-8.2108-38.1155a47.9081,47.9081,0,0,1,.4455-11.4831,15.188,15.188,0,0,1,2.5676-6.6211,4.48,4.48,0,0,1,3.8411-1.8822,8.84,8.84,0,0,1,4.8946,2.3563c5.2177,4.4538,8.3722,11.3312,10.7233,17.6177,3.962,10.5935,5.9458,21.9047,6.845,33.1468q.21,2.6211.3383,5.2475a1.0069,1.0069,0,0,0,1.9683.2664c1.4716-5.7769,4.0673-12.1218,9.438-15.3164a10.1013,10.1013,0,0,1,5.7246-1.6377c1.2847.1113,1.2772-1.8934,0-2.0041Z"/><path d="M450.7469,913.0128a45.5577,45.5577,0,0,0-2.5826-6.4294c-1.6071-3.3209-3.6848-6.843-6.8264-8.929-3.04-2.0187-7.34-1.7213-9.5916,1.3586-2.2537,3.0829-1.532,7.5346-.6367,10.9631a41.9449,41.9449,0,0,0,3.2379,8.4914l1.1316-1.472c-4.4553-1.817-10.3556-2.5846-14.7375-.25-1.9267,1.0264-3.1869,2.816-2.3769,5.0193.728,1.98,2.478,3.5233,4.091,4.7935a31.6211,31.6211,0,0,0,3.9267,2.6746v-1.7305c-3.9866,2.5906-6.4731,7.467-3.4812,11.7767.73,1.0523,2.4683.0515,1.73-1.0115a5.2329,5.2329,0,0,1,.1413-6.5368,10.374,10.374,0,0,1,2.621-2.4979,1.0132,1.0132,0,0,0,0-1.7305,20.27,20.27,0,0,1-6.4979-5.2572c-1.0265-1.4267-1.06-2.66.5532-3.6,2.4862-1.4493,5.5846-1.5058,8.3593-1.0828a22.8085,22.8085,0,0,1,5.1378,1.3658c.8761.3573,1.4883-.7773,1.1316-1.472a40.3727,40.3727,0,0,1-2.4169-5.9138c-1.005-3.0811-2.0966-6.9539-.9353-10.14,1.1208-3.0752,4.7211-3.795,7.3377-2.1852,2.8617,1.76,4.7172,5.0448,6.1707,7.9705a42.2522,42.2522,0,0,1,2.58,6.3581c.3773,1.2293,2.3124.7051,1.9324-.5327Z"/><polyline class="cls-3" points="689.426 477.523 651.009 353.271 669.046 349.263 715.808 469.507"/><path d="M691.3585,476.9906l-3.8454-12.4372-9.1553-29.6111-11.1026-35.91L657.66,368l-3.1515-10.1932c-.4908-1.5872-.8509-3.319-1.5-4.851-.029-.0685-.045-.1457-.0671-.217l-1.4,2.4652,18.0366-4.0081-2.4653-1.4,4.6623,11.9885,11.1919,28.7794,13.4862,34.6787,11.6582,29.9784c1.8932,4.868,3.75,9.7519,5.68,14.6056.0282.0709.0553.1422.083.2133a2.0634,2.0634,0,0,0,2.4652,1.4,2.0187,2.0187,0,0,0,1.4-2.4652l-4.6622-11.9886-11.192-28.7794L688.4,393.5278l-11.6583-29.9784c-1.8931-4.8681-3.75-9.7519-5.68-14.6057-.0282-.0709-.0553-.1422-.0829-.2133a2.0655,2.0655,0,0,0-2.4653-1.4l-18.0365,4.0082a2.0233,2.0233,0,0,0-1.4,2.4652l3.8454,12.4372,9.1552,29.6111,11.1027,35.91,9.5948,31.0328c1.5484,5.008,2.9673,10.08,4.6514,15.0442.0243.0716.0448.1448.0671.2171.76,2.4567,4.63,1.4085,3.865-1.0656Z"/><path d="M671.8235,486.8332l-.0382,16.6345c-.0158,6.8863-.69,14.2188,1.77,20.7822,1.5684,4.1838,3.8033,8.178,5.7463,12.191l9.7141,20.0637,6.3274,13.0688c1.1238,2.321,4.5812.2909,3.4609-2.023l-14.8914-30.757c-1.9265-3.979-3.8827-7.9451-5.78-11.9381-2.86-6.02-2.36-12.5445-2.3447-19l.0436-19.0224c.006-2.5793-4.0022-2.5831-4.0081,0Z"/><path d="M468.952,949.0067H577.8994c5.0114,0,10.0647.19,15.0735,0,.071-.0027.1425,0,.2135,0,2.5791,0,2.5833-4.0081,0-4.0081H484.2391c-5.0114,0-10.0647-.19-15.0736,0-.0709.0026-.1424,0-.2135,0-2.579,0-2.5833,4.0081,0,4.0081Z"/><path class="cls-6" d="M696.8839,394.3377,596.3736,379.9c2.68-6.85,18.1823-32.9813,20.2936-42.191,3.1594-13.7821,4.6035-26.4126,4.3061-35.0494l98.6782,15.0462,33.7768-1.32"/><path d="M697.4167,392.4053l-9.9829-1.4341-23.9791-3.4445-29.0208-4.1687-25.1078-3.6066-8.3411-1.1982a35.1111,35.1111,0,0,0-3.8993-.56,1.6366,1.6366,0,0,1-.1793-.0258l1.4,2.4652a1.6641,1.6641,0,0,1,.142-.3522c-.2271.31-.0461.1042.0485-.1063.1438-.32.2874-.6395.4359-.9572.3582-.7659.732-1.5245,1.1109-2.28.9881-1.9709,2.0145-3.9227,3.0439-5.8723,2.5024-4.7388,5.04-9.4592,7.4856-14.2278,2.2953-4.4755,4.5526-8.9888,6.4349-13.6568,2.2316-5.5345,3.1334-11.5708,4.0826-17.4318a119.9086,119.9086,0,0,0,1.8869-22.8883l-2.5368,1.9325,16.7835,2.5591,36.1359,5.51,34,5.1842,9.8108,1.4959a20.83,20.83,0,0,0,4.1143.3048l31.3109-1.2238.8323-.0325c2.5707-.1005,2.5837-4.1091,0-4.0081l-29.2716,1.144-2.8716.1122a6.6249,6.6249,0,0,0-1.5159.0593c-.3878.119.7427.1357.2776.0552-.2417-.0418-.4856-.074-.7281-.111l-8.0443-1.2266-32.43-4.9447-36.89-5.6249c-6.7189-1.0245-13.4343-2.0753-20.1571-3.0735-.0973-.0144-.1944-.03-.2916-.0444a2.0349,2.0349,0,0,0-2.5368,1.9324,109.7,109.7,0,0,1-1.3969,19.5923c-.6005,4.03-1.34,8.04-2.1942,12.024a44.2,44.2,0,0,1-1.7812,6.479,130.7889,130.7889,0,0,1-5.9155,12.7441c-2.4271,4.7706-4.9557,9.4885-7.4606,14.2185a118.191,118.191,0,0,0-5.78,11.65,2.0058,2.0058,0,0,0,1.4,2.4653l9.9829,1.434,23.9791,3.4445,29.0207,4.1687,25.1079,3.6067c4.08.5861,8.1587,1.1832,12.24,1.7582l.1794.0258a2.0713,2.0713,0,0,0,2.4652-1.4,2.0185,2.0185,0,0,0-1.4-2.4652Z"/><path d="M596.75,379.8591c3.3592.77,8.0967-6.2962,12.55-17.6781l-16.1354-3.8245C592.1966,370.6076,593.3792,379.0864,596.75,379.8591Z"/><path d="M596.2169,381.7916c3.4361.6924,6.0192-2.2972,7.8308-4.7867,3.1316-4.3036,5.248-9.3676,7.184-14.2912a2.0172,2.0172,0,0,0-1.4-2.4652l-16.1354-3.8245a2.0359,2.0359,0,0,0-2.5369,1.9325,64.5615,64.5615,0,0,0,.3,15.9625c.49,2.82,1.5808,6.657,4.7571,7.4726,2.5.6419,3.5661-3.2228,1.0656-3.865-.1678-.043-.4278-.1909.0375.0515a1.0473,1.0473,0,0,1-.2621-.1412c-.2814-.2824.2107.3163-.1817-.1663-.39-.48.0188.165-.2559-.3332-.1322-.24-.27-.4725-.39-.7189-.1635-.3338.0425.1251-.0464-.1-.0586-.1485-.1133-.2985-.1655-.4494-.1247-.3605-.2312-.7272-.3271-1.0963a21.9081,21.9081,0,0,1-.4868-2.477,66.4048,66.4048,0,0,1-.0363-14.1391l-2.5369,1.9325,16.1355,3.8245-1.4-2.4653a64.4921,64.4921,0,0,1-6.184,12.4805,15.0117,15.0117,0,0,1-2.7214,3.1775c-.2471.2107.3648-.2463-.0731.06-.11.0772-.2213.1533-.3361.2239-.1083.0667-.2237.1227-.3311.19-.3144.1979.2365-.0674.0243.0027-.12.04-.7363.1761-.4248.14.3477-.04-.0253-.0233-.099-.0115-.3617.0579.4448.0921.0609.0147a2.0547,2.0547,0,0,0-2.4653,1.4A2.0234,2.0234,0,0,0,596.2169,381.7916Z"/><path class="cls-1" d="M606.92,367.9678a191.4934,191.4934,0,0,0,9.7472-30.259c3.1594-13.7821,4.6035-26.4126,4.3061-35.0494L608.12,300.7l-47.1218-7.1851-86.5646-80.773-62.5764,5.5891L423.214,245.72l78.8266,82.1667S527.4254,354.6074,606.92,367.9678Z"/><path d="M608.65,368.9793a184.5491,184.5491,0,0,0,13.77-53.4128,97.039,97.039,0,0,0,.5572-12.9071,2.03,2.03,0,0,0-1.4713-1.9324q-9.3951-1.4325-18.79-2.865l-32.186-4.9076-8.9983-1.3721.8843.5154-5.2449-4.894-13.407-12.51-18.0783-16.8688-19.2584-17.97L489.48,224.0415l-11.1454-10.4c-.7662-.715-1.518-1.4507-2.3011-2.1472a3.1494,3.1494,0,0,0-2.8371-.6464l-17.7778,1.5878-25.8051,2.3049-16.9039,1.51-.8518.0761c-1.1374.1016-2.4766,1.2245-1.9325,2.5368l9.6177,23.1956c.6858,1.654,1.2351,3.9594,2.4724,5.3052,1.0817,1.1764,2.2153,2.3092,3.3216,3.4624l15.9051,16.579,22.2144,23.1557,21.6,22.5154,13.77,14.3532c1.12,1.1679,2.2134,2.33,3.4352,3.3925a91.0222,91.0222,0,0,0,13.3,9.3594,183.8667,183.8667,0,0,0,28.8611,13.6008A307.6011,307.6011,0,0,0,591.6762,367.16q7.33,1.5054,14.711,2.7406a2.0637,2.0637,0,0,0,2.4653-1.4,2.0206,2.0206,0,0,0-1.4-2.4653,359.2585,359.2585,0,0,1-46.64-10.86,226.5576,226.5576,0,0,1-31.1709-12.023,137.6182,137.6182,0,0,1-18.4965-10.543q-1.44-.9916-2.8413-2.0373-.2744-.2054-.5469-.413c-.1072-.0813-.2136-.1638-.32-.2456.28.2141.2605.2042.022.0157-.3261-.2576-.6526-.5145-.9751-.7765-.8759-.7116-1.739-1.4435-2.5564-2.2222-1.1239-1.0707-2.1671-2.2312-3.2412-3.3508l-12.4441-12.9714-18.4248-19.2055-19.6758-20.51-16.5-17.199-8.6246-8.99-.3854-.4018.5154.8844-9.96-24.0206-1.3966-3.3683-1.9325,2.5368,21.1226-1.8866,33.69-3.0091,7.7637-.6934-1.417-.587,5.1061,4.7645,13.1639,12.2832,17.7381,16.5513,19.1008,17.8228L545.05,281.3721l11.5272,10.7559c.88.821,1.7528,1.65,2.64,2.4633a3.7268,3.7268,0,0,0,2.1519.9936l19.2094,2.929,22.9031,3.4923,13.6995,2.0887,3.26.497-1.4713-1.9325a118.2913,118.2913,0,0,1-2.0868,23.867,193.7814,193.7814,0,0,1-6.5117,26.355c-1.5333,4.7569-3.22,9.4766-5.1812,14.0749a2.0721,2.0721,0,0,0,.719,2.742A2.0182,2.0182,0,0,0,608.65,368.9793Z"/><path class="cls-1" d="M423.214,245.72l-7.8327-7.0671-11.54-.2811-14.4367-42.2a7.4989,7.4989,0,0,1,6.0347-9.8509l23.7665-3.3952c17.5432,0,25.3849,3.34,45.4255,20.7086l15.1679,14.1728"/><path d="M424.6311,244.3027l-7.2685-6.558a3.4239,3.4239,0,0,0-1.715-1.06,9.0849,9.0849,0,0,0-1.3125-.0613l-5.83-.142-4.6636-.1136,1.9325,1.4713-7.864-22.9871-4.9982-14.61c-.952-2.7828-2.8164-6.2849-1.2375-9.1258,1.152-2.0728,3.1241-2.6946,5.3058-3.0063l6.1968-.8853,15.2705-2.1815a10.9662,10.9662,0,0,1,1.2613-.18c-.382.0086.082.0526.3124.07.42.0314.8548.0076,1.2762.0148.9679.0167,1.9356.0461,2.9026.0935a48.9644,48.9644,0,0,1,9.3825,1.2742c6.7683,1.6734,12.7132,5.3227,18.2607,9.4444,9.2049,6.8391,17.3687,14.8962,25.73,22.7089l.8092.7561c1.8833,1.76,4.7237-1.0686,2.8341-2.8342-7.3807-6.8965-14.6058-13.9691-22.478-20.3108-6.172-4.9722-12.6864-9.7487-20.208-12.4556a44.6627,44.6627,0,0,0-9.7875-2.2157c-1.7066-.2071-3.4227-.3308-5.14-.4024a28.1961,28.1961,0,0,0-4.96-.008c-4.24.5893-8.4755,1.2108-12.713,1.8161l-7.9763,1.1395a25.0585,25.0585,0,0,0-4.3885.7526,9.5818,9.5818,0,0,0-6.5123,9.96,16.57,16.57,0,0,0,.954,3.6023l4.3,12.5692,9.4153,27.5217.1867.5455a2.0734,2.0734,0,0,0,1.9324,1.4713l11.54.2812-1.4171-.587,7.8327,7.0671c1.9109,1.7241,4.7542-1.1018,2.8342-2.8342Z"/><line class="cls-7" x1="334.0331" y1="71.1357" x2="543.4579" y2="551.6738"/><path d="M332.3026,72.1471l5.6109,12.8745,15.2682,35.0339,22.5791,51.8091,27.4521,62.9905,30.0608,68.9765,30.4382,69.8422L492.09,438.7881,515.9945,493.64l17.2009,39.4685c2.7228,6.2477,5.2776,12.6053,8.1811,18.7721.1246.2645.2341.5371.351.8052,1.0279,2.3588,4.4822.3206,3.4609-2.023l-5.6109-12.8744L524.3093,502.754,501.73,450.9448l-27.4521-62.99-30.0609-68.9764-30.4381-69.8423-28.3777-65.1142L361.4965,129.17,344.2956,89.7015c-2.7228-6.2477-5.2777-12.6054-8.1811-18.7721-.1246-.2645-.2341-.5371-.351-.8052-1.028-2.3588-4.4822-.3206-3.4609,2.0229Z"/><path class="cls-1" d="M402.2211,193.7047c-17.2228,10.1441-29.5719,4.4015-29.5515,8.2373a22.1419,22.1419,0,0,0-1.5613,8.3727c.0473,9.5232,3.6534,35.1733,16.7005,40.0813,6.68,2.5127,32.7331-10.02,32.7331-10.02"/><path d="M371.9233,198.4474l-.5791,1.621-.3815,1.0677c-.044.1232-.1005.2472-.1335.3737-.12.4607.0449-.3778.1218-.2767.0253.0332-.7011,1.14-.7282,1.1892a20.7162,20.7162,0,0,0-1.3555,3.07c-.844,2.4-1.4854,5.4805-.617,7.9528a25.9014,25.9014,0,0,0,1.5845,3.3037,11.5458,11.5458,0,0,1,.7069,1.5474c.1015.2944.1547.6.2471.8953q.07.2745.0359.1744-.0122.348.03-.1c.1077.175.0519-.04.0307-.0114-.0712.0969-.1141.2238-.18.3257-.1479.2276-.3006.4522-.448.68a7.8084,7.8084,0,0,0-1.0364,2.2677,8.5922,8.5922,0,0,0,1.1817,6.786,32.4631,32.4631,0,0,0,2.308,2.7566,5.6105,5.6105,0,0,1,1.6379,2.6176c.4291,2.5971-.7487,5.2807.6792,7.7315,1.1816,2.0279,3.2831,3.1609,5.17,4.4216a9.5806,9.5806,0,0,1,2.3032,2.0154,24.1977,24.1977,0,0,0,1.372,2.047c1.6141,1.7,4.1819,1.9537,6.3958,1.83,6.5659-.3661,13.085-2.9439,19.1277-5.3512,4.5614-1.8171,9.0867-3.7745,13.4932-5.9439,2.3141-1.1393.2853-4.5973-2.023-3.4609-3.2258,1.5881-6.7608,3.1567-9.8814,4.4575-5.9443,2.4778-12.127,4.9384-18.502,6.0328a16.4936,16.4936,0,0,1-3.3941.28c-.2592-.0063-.5166-.0279-.7751-.0439-.11-.0068-.3947-.0554.0967.02-.115-.0176-.2322-.0318-.3457-.0583-.1939-.0453-.3874-.0944-.5813-.14-.6327-.1477.0863.1378-.3119-.1105-.16-.1-.6-.4678-.155-.0513-.1312-.1229-.2546-.2454-.3788-.3758.42.4409-.0384-.16-.1656-.3746a12.0451,12.0451,0,0,0-1.1373-1.5919c-1.464-1.7435-3.4673-2.7548-5.283-4.0606a4.6032,4.6032,0,0,1-1.6425-1.7019c-.421-1.0342-.0954-2.4238-.0363-3.5021a8.9343,8.9343,0,0,0-2.1491-6.7348c-1.3249-1.6082-2.9862-2.8664-3.2-5.0564-.1576-1.6145.4339-2.0943,1.2189-3.4938,1.1829-2.109.2239-4.43-.7783-6.4193a12.7878,12.7878,0,0,1-1.5645-3.3581,10.1368,10.1368,0,0,1,.5131-4.1343,20.8293,20.8293,0,0,1,2.0081-4.3179,26.5207,26.5207,0,0,0,1.3667-3.73c.8694-2.4335-3.002-3.4811-3.8649-1.0655Z"/><path d="M401.21,191.9742a47.3084,47.3084,0,0,1-20.081,6.3161,2.0566,2.0566,0,0,0-2.0041,2.004,2.0193,2.0193,0,0,0,2.0041,2.0041,51.9449,51.9449,0,0,0,22.104-6.8632c2.2254-1.3016.21-4.7671-2.023-3.461Z"/><path class="cls-1" d="M472.2423,455.6472a126.5749,126.5749,0,0,0,30.1149-1.8728c13.3435-2.9708,17.18,15.6478-31.7982,14.8875"/><path d="M472.2423,457.6512a111.3535,111.3535,0,0,0,20.2853-.4714q4.5915-.4692,9.146-1.2543c.6984-.1218,1.3943-.2564,2.0914-.3852.3412-.063-.1321.015-.1671.0192.12-.0143.24-.0311.36-.0414.1952-.0168.39-.0349.5858-.0451.3537-.0185.7083-.0215,1.0622-.0061.16.007.3188.0232.4784.0316.6511.0343-.2669-.0887.1772.02.2816.069.5675.11.8476.1893.1474.0416.2909.0932.4372.1379.3255.1.3978.1952.0514.0106.2322.1238.4638.244.6932.3734.1032.0582.1932.1376.2924.2015-.3125-.2014-.2476-.2474-.0254.0033.2312.2609.463.6867.1886.1655.158.3.3244.8781.18.2214a3.0465,3.0465,0,0,0,.1682.595c.0267.053.0242-.5684-.0266-.1162a1.5353,1.5353,0,0,0-.0049.3577c.0627.3986.17-.476.0132-.0921a2.677,2.677,0,0,0-.0937.3755c-.028.1182-.0859.2277-.12.3435.1075-.3607.1539-.2786-.0331.0253-.1471.2391-.2977.4735-.45.7094-.0651.1011.2757-.2882-.0692.0724-.1389.1451-.269.2973-.411.44-.269.27-.5583.5133-.8483.76-.2573.2189.0642-.0474.1-.0742-.1073.08-.214.1616-.3239.2383-.1922.1341-.3847.2675-.5815.3949a22.4511,22.4511,0,0,1-6.2686,2.7732c-9.4216,2.9139-19.64,3.174-29.4177,3.034-2.58-.0369-2.5812,3.9712,0,4.0081,9.6226.1378,19.5813-.1932,28.9252-2.726,4.4325-1.2016,9.6554-3.0368,12.4131-6.9767a5.5826,5.5826,0,0,0-1.1988-7.9226c-3.3565-2.4666-7.5543-1.3881-11.297-.776a112.96,112.96,0,0,1-27.1592,1.3785c-2.5708-.2109-2.5569,3.7983,0,4.0081Z"/><path class="cls-1" d="M471.6638,444.8113a119.6613,119.6613,0,0,0,28.9186-1.9414c13.3435-2.9708,17.18,15.6478-31.7983,14.8874"/><path d="M471.6638,446.8154a101.9625,101.9625,0,0,0,19.2251-.5324q4.5242-.4821,9.0121-1.2619c.6976-.1222,1.3928-.2567,2.0891-.3853.3413-.063-.1321.015-.167.0192.12-.0143.2395-.0311.36-.0415.1952-.0167.39-.0348.5858-.045.3537-.0185.7083-.0215,1.0622-.0061.16.0069.3189.0232.4784.0316.6511.0343-.2668-.0887.1772.02.2816.0689.5676.11.8476.1892.1474.0417.2909.0933.4372.138.3256.1.3978.1952.0514.0105.2323.1238.4639.2441.6933.3735.1031.0582.1932.1376.2924.2015-.3125-.2014-.2476-.2474-.0255.0032.2312.2609.463.6867.1887.1656.158.3.3244.8781.18.2214a3.0463,3.0463,0,0,0,.1681.595c.0268.053.0243-.5684-.0265-.1163a1.5253,1.5253,0,0,0-.0049.3578c.0626.3985.17-.476.0131-.0921a2.6931,2.6931,0,0,0-.0937.3754c-.0279.1183-.0859.2278-.12.3436.1076-.3608.154-.2786-.033.0252-.1472.2392-.2977.4736-.45.7095-.0652.101.2757-.2882-.0693.0723-.1388.1452-.2689.2974-.4109.44-.269.27-.5583.5134-.8483.76-.2574.2188.0642-.0474.1-.0742-.1073.08-.2141.1616-.324.2383-.1922.1341-.3847.2674-.5814.3949a22.4533,22.4533,0,0,1-6.2687,2.7732c-9.4215,2.9139-19.64,3.174-29.4177,3.034-2.58-.037-2.5812,3.9712,0,4.0081,9.6227.1378,19.5814-.1932,28.9253-2.7261,4.4325-1.2015,9.6553-3.0367,12.413-6.9767a5.5824,5.5824,0,0,0-1.1988-7.9225c-3.3525-2.4637-7.55-1.3928-11.2883-.7755a106.4872,106.4872,0,0,1-25.9715,1.4466c-2.57-.2168-2.5557,3.7925,0,4.0082Z"/><path class="cls-1" d="M469.9233,433.3086a130.1547,130.1547,0,0,0,30.7131-1.8385c13.3435-2.9707,17.18,15.6479-31.7983,14.8875"/><path d="M469.9233,435.3126a116.1625,116.1625,0,0,0,20.8154-.441c3.0835-.3086,6.16-.7193,9.2129-1.25.6988-.1216,1.3951-.2563,2.0926-.3851.3412-.063-.1322.015-.1671.0191.12-.0142.24-.0311.36-.0414.1953-.0167.39-.0348.5858-.045.3537-.0185.7084-.0216,1.0622-.0061.16.0069.3189.0232.4785.0316.651.0343-.2669-.0888.1771.02.2816.069.5676.11.8477.1893.1473.0417.2909.0932.4372.138.3255.1.3977.1952.0514.0105.2322.1238.4638.244.6932.3735.1031.0582.1932.1375.2924.2015-.3125-.2014-.2476-.2475-.0255.0032.2312.2609.463.6867.1887.1655.158.3.3244.8781.18.2214a3.0473,3.0473,0,0,0,.1681.5951c.0268.053.0243-.5684-.0265-.1163a1.5307,1.5307,0,0,0-.0049.3578c.0626.3985.17-.476.0131-.0922a2.6941,2.6941,0,0,0-.0936.3755c-.028.1183-.0859.2278-.12.3436.1076-.3608.154-.2786-.033.0252-.1472.2391-.2977.4735-.45.7095-.0652.101.2757-.2882-.0693.0723-.1388.1451-.2689.2974-.4109.44-.269.27-.5583.5133-.8483.76-.2573.2188.0642-.0474.1-.0743-.1073.08-.214.1617-.324.2384-.1922.1341-.3847.2674-.5814.3949a22.4562,22.4562,0,0,1-6.2687,2.7732c-9.4215,2.9139-19.64,3.174-29.4177,3.034-2.58-.037-2.5812,3.9711,0,4.0081,9.6227.1378,19.5814-.1932,28.9253-2.7261,4.4325-1.2016,9.6553-3.0367,12.413-6.9767a5.5824,5.5824,0,0,0-1.1988-7.9225c-3.3584-2.4681-7.5564-1.3859-11.3013-.7763a116.2141,116.2141,0,0,1-27.753,1.3444c-2.5712-.2083-2.5575,3.8009,0,4.0081Z"/><path class="cls-1" d="M466.76,423.8035a148.3313,148.3313,0,0,0,32.0329-2.0415c13.3435-2.9708,17.18,15.6478-31.7983,14.8875"/><path d="M466.76,425.8075a136.0741,136.0741,0,0,0,21.985-.621c3.1325-.3182,6.2583-.7337,9.3605-1.2731.7-.1217,1.3969-.2565,2.0952-.3855.3412-.063-.1322.015-.1671.0192.12-.0143.24-.0311.36-.0414.1953-.0168.39-.0349.5858-.0451.3537-.0185.7084-.0215,1.0622-.0061.16.0069.3189.0232.4785.0316.651.0343-.2669-.0887.1771.02.2816.0689.5676.11.8477.1892.1473.0417.2909.0933.4372.138.3255.1.3977.1952.0514.01.2322.1239.4638.2441.6932.3735.1031.0582.1932.1376.2924.2015-.3125-.2014-.2476-.2474-.0255.0032.2312.261.463.6867.1887.1656.158.3.3244.8781.18.2214a3.0463,3.0463,0,0,0,.1681.595c.0268.053.0243-.5684-.0265-.1163a1.5307,1.5307,0,0,0-.0049.3578c.0626.3985.17-.476.0131-.0921a2.705,2.705,0,0,0-.0937.3755c-.0279.1182-.0859.2277-.12.3435.1076-.3608.154-.2786-.033.0252-.1472.2392-.2977.4736-.45.7095-.0652.101.2757-.2882-.0693.0723-.1388.1452-.2689.2974-.4109.44-.269.27-.5583.5134-.8483.76-.2573.2188.0642-.0474.1-.0742-.1073.08-.214.1616-.324.2383-.1922.1341-.3847.2674-.5814.3949a22.45,22.45,0,0,1-6.2687,2.7732c-9.4215,2.9139-19.64,3.174-29.4177,3.034-2.58-.037-2.5812,3.9712,0,4.0081,9.6227.1378,19.5814-.1932,28.9253-2.7261,4.4325-1.2015,9.6553-3.0367,12.413-6.9767a5.5824,5.5824,0,0,0-1.1988-7.9225c-3.361-2.47-7.5635-1.3846-11.3109-.7748a132.142,132.142,0,0,1-29.0632,1.546c-2.5762-.1582-2.5668,3.8505,0,4.0081Z"/><line class="cls-1" x1="484.1032" y1="423.6643" x2="495.3603" y2="412.0573"/><path d="M485.52,425.0814l9.8613-10.1677,1.3959-1.4394a2.004,2.004,0,1,0-2.8342-2.8341l-9.8612,10.1677-1.3959,1.4393a2.004,2.004,0,0,0,2.8341,2.8342Z"/><path class="cls-1" d="M508.7284,438.7645s1.9964,8.6979,14.6889,10.034"/><path d="M506.796,439.2973a11.228,11.228,0,0,0,1.6778,3.5677,16.8121,16.8121,0,0,0,7.1373,5.9387,25.9717,25.9717,0,0,0,7.8062,1.9988,2.0166,2.0166,0,0,0,2.004-2.004,2.05,2.05,0,0,0-2.004-2.0041,23.0192,23.0192,0,0,1-5.7686-1.4437c.3367.1362-.1519-.0693-.2538-.1161q-.2725-.1256-.5408-.26-.5828-.293-1.1417-.63-.4579-.2771-.8966-.5846c-.1393-.0979-.2728-.2058-.4136-.3012-.185-.1252.1162.0894.1234.0956-.0882-.0754-.1815-.1456-.2707-.22a14.1988,14.1988,0,0,1-1.4039-1.3371c-.1842-.2014-.3574-.411-.5334-.6194-.3049-.3609.1991.2843.0081.0144-.091-.1285-.1867-.2535-.2767-.3829a24.3616,24.3616,0,0,1-1.2016-2.15c.3728.6685.0875.2089.0062-.0148-.04-.1094-.0762-.22-.1125-.33-.03-.0926-.0581-.1871-.08-.2821a2.0046,2.0046,0,1,0-3.8649,1.0656Z"/><path class="cls-3" d="M322.1966,45.88s93.2117-19.5781,183.5092,31.197c0,0,36.5351,26.8818,77.97,27.9985S622.5808,225.8124,368.23,155.4082Z"/><path d="M322.7293,47.8129c.8984-.1883,1.8043-.3446,2.709-.4989q1.6357-.279,3.2776-.522,1.0248-.1527,2.0513-.2944.2593-.0357.5188-.071c.3023-.0411-.3272.042.2346-.0309q.6454-.0839,1.2909-.1662a271.4735,271.4735,0,0,1,28.2375-1.9924,304.4962,304.4962,0,0,1,41.2815,1.9545,285.7275,285.7275,0,0,1,49.8607,10.31,266.499,266.499,0,0,1,26.5038,9.5495q6.856,2.8958,13.5354,6.1906,3.3636,1.6563,6.6783,3.41c1.925,1.0184,3.9711,1.971,5.7945,3.1628A212.263,212.263,0,0,0,522.956,89.8c13.6,7.0633,28.1665,12.6087,43.2678,15.389a117.6374,117.6374,0,0,0,13.0948,1.68c1.9685.1374,3.952.1119,5.9154.3109.1866.0189.3724.045.5589.0642-.6355-.0655-.2113-.0326.0932.0191.375.0636.7488.1311,1.12.2128a19.5321,19.5321,0,0,1,2.1216.593c.3375.1153.6664.251,1.001.3732.4126.1507-.465-.2209.0756.0325.17.08.3431.1547.5129.2358a19.1582,19.1582,0,0,1,1.8451,1.0093q.46.2853.9029.5962c.1332.0935.2634.1912.3961.2853.498.3535-.1988-.1769.0928.0679.5449.4574,1.0873.9087,1.5954,1.408a20.339,20.339,0,0,1,1.4441,1.5777c.1046.127.2047.2577.3092.3847.2426.2949-.32-.4365-.0977-.1258.0549.0766.1142.15.1693.2267.2147.2979.4274.5965.6295.903q.5924.8982,1.0938,1.8521.2619.4974.4987,1.0077c.0768.1655.1481.3336.2246.4993.2176.4712-.1736-.4649.039.0961a27.15,27.15,0,0,1,1.297,4.38c.0745.3782.1369.758.1976,1.1386.0142.0893.0246.1794.0389.2687.04.25-.0624-.59-.0206-.1468.02.2076.049.4146.07.6222q.1188,1.1867.1312,2.3809.0135,1.2456-.0843,2.4888c-.0336.43-.0843.8581-.13,1.2872-.0626.594.0754-.4326-.0186.1367-.037.2239-.0684.4488-.1063.6727a31.7,31.7,0,0,1-1.3568,5.2107q-.23.6531-.4862,1.2964c-.1023.2569-.34.807-.1011.2572-.1.2315-.2.4633-.3037.6934q-.6079,1.3486-1.3244,2.6447-.7322,1.3273-1.5665,2.5945-.4442.6759-.9146,1.3339-.2157.3021-.4368.6c-.1025.1382-.5823.7666-.3942.5241.1706-.22-.2663.3357-.3818.479q-.276.3424-.5586.6794-.5393.6432-1.1016,1.2666-1.1846,1.3139-2.4617,2.54-1.3393,1.2888-2.7659,2.4827c-.485.4069-.9785.8028-1.4744,1.1962-.0716.0567-.4425.3432-.2035.1592.256-.1972-.1471.1119-.2086.1579-.2793.2092-.558.4191-.84.6251a69.6616,69.6616,0,0,1-7.14,4.5626q-2.0054,1.1213-4.073,2.126-1.0581.5154-2.13,1.0023-.5467.2484-1.0966.49-.2592.1139-.5191.2259c-.0937.04-.7809.3324-.3462.1495a119.3685,119.3685,0,0,1-21.2615,6.5287,179.0264,179.0264,0,0,1-27.1524,3.5687,286.123,286.123,0,0,1-34.3492-.1132c-13.8362-.82-27.6188-2.4386-41.3063-4.6043-16.5664-2.6212-33.0054-6.0221-49.309-9.951q-13.5143-3.2566-26.91-6.978l1.4,1.4-4.5692-10.8716-10.9764-26.1164-13.3357-31.73L329.7953,58.83q-2.7933-6.6462-5.5867-13.2924l-.08-.1894a2.07,2.07,0,0,0-2.4652-1.4,2.0171,2.0171,0,0,0-1.4,2.4653l6.1953,14.7407,13.9927,33.2932L355.7182,130.77l9.6988,23.0765q.4.9523.8,1.9047a2.6437,2.6437,0,0,0,1.0006,1.3871c1.1578.7086,2.9382.88,4.2447,1.2356q2.4414.6642,4.8866,1.3143,17.1771,4.5661,34.5479,8.3592a538.86,538.86,0,0,0,58.8979,9.6246,320.7522,320.7522,0,0,0,46.734,1.673,188.5906,188.5906,0,0,0,35.5635-4.6607,108.09,108.09,0,0,0,25.7163-9.4125,64.0346,64.0346,0,0,0,16.6391-12.3756,42.9087,42.9087,0,0,0,9.044-14.2021,31.3138,31.3138,0,0,0,2.0019-13.4631,26.1511,26.1511,0,0,0-3.8349-11.9121,22.0372,22.0372,0,0,0-8.6023-7.9156,21.28,21.28,0,0,0-5.7408-1.944,25.1842,25.1842,0,0,0-3.4093-.38,118.1693,118.1693,0,0,1-15.5732-1.5679c-18.23-3.1945-35.7067-10.3841-51.6157-19.741-3.3676-1.9807-6.5893-4.1442-9.8379-6.3056-1.1759-.7823-2.4808-1.41-3.7224-2.0827q-4.4067-2.3868-8.9041-4.6012-8.5326-4.2017-17.353-7.78a280.4991,280.4991,0,0,0-65.9162-17.6937,306.3434,306.3434,0,0,0-53.8007-2.9737,251.8768,251.8768,0,0,0-31.3516,2.8742c-1.3923.223-2.7876.45-4.1681.74C319.1408,44.4768,320.2085,48.3413,322.7293,47.8129Z"/><path class="cls-3" d="M363.9377,98.4c12.5108,28.7011,14.9507,55.3252,5.45,59.4667s-27.3452-15.7679-39.856-44.4689S312.6955,50.0219,322.1966,45.88,351.4269,69.6989,363.9377,98.4Z"/><path d="M362.2073,99.4114A138.4123,138.4123,0,0,1,372.3032,132.5a60.1118,60.1118,0,0,1,.8083,12.73,19.5014,19.5014,0,0,1-1.9978,8.3461c-.1559.27-.3248.5309-.5024.787-.1514.2182.0523-.0193-.2387.2966-.1955.2121-.3969.4127-.602.615-.0791.0781-.1692.15-.2548.2212.3455-.2879-.1143.08-.1974.1306-.2123.13-.4255.25-.6433.37-.4615.2536.2552-.0877-.0326.0252-.118.0463-.2373.0939-.3591.13-.221.0646-.4419.1216-.6653.1775-.1242.0311-.2529.0495-.3793.0694.346-.0545.1338-.0067-.0887-.0052a11.6668,11.6668,0,0,1-1.46-.0446c.4865.0571-.375-.08-.4849-.1045-.2942-.0661-.5854-.1452-.8735-.234a8.7845,8.7845,0,0,1-1.5179-.5855,20.7338,20.7338,0,0,1-1.8956-1.031c-6.5992-4.0193-11.7095-10.7192-16.0178-17.01a155.6841,155.6841,0,0,1-24.2069-59.7511c-1.3669-7.5506-2.5333-16.0547-1.0821-23.5282.1316-.6776.2887-1.3506.4827-2.0131.0851-.2908.1765-.58.277-.8655.0535-.1525.11-.3038.1678-.4547.169-.44-.0246.02.1243-.2935a12.8113,12.8113,0,0,1,.7495-1.355c.0716-.1133.1519-.2219.2315-.33.1875-.254-.3107.3431.0273-.0223.17-.1838.3491-.3578.5215-.5387.361-.3787-.1709.0355.2747-.2181.1839-.1047.3617-.2148.55-.3134-.1819.0953-.0611-.0088.2684-.0893.12-.0293.24-.06.3591-.091.5114-.1323-.2777-.0075.1341-.0264.2053-.01.409-.0165.6146-.0156.1582.0008.3167.0174.474.0315-.0723-.0065-.4277-.0763-.048-.0037a10.02,10.02,0,0,1,1.69.4814,5.4128,5.4128,0,0,1,.5863.2692c.2786.138.5522.2859.8221.44a21.0147,21.0147,0,0,1,1.8927,1.2322,33.4686,33.4686,0,0,1,3.7162,3.2364,78.7947,78.7947,0,0,1,8.34,9.8993,186.2308,186.2308,0,0,1,16.7619,28.5621q1.8644,3.8578,3.578,7.7856a2.0174,2.0174,0,0,0,2.7419.719,2.0553,2.0553,0,0,0,.719-2.742A204.82,204.82,0,0,0,348.44,65.5092a113.5624,113.5624,0,0,0-9.1181-12.0372,42.0032,42.0032,0,0,0-8.54-7.7258c-2.373-1.5254-5.2673-2.7189-8.13-2.1075a8.13,8.13,0,0,0-5.3728,4.6519,25.7082,25.7082,0,0,0-2.1273,9.47,70.39,70.39,0,0,0,.4734,12.8414,150.4006,150.4006,0,0,0,7.5022,31.8561,161.3808,161.3808,0,0,0,15.2135,32.1907c4.7825,7.7069,10.358,15.51,17.5862,21.121,4.2482,3.298,10.6654,6.7421,15.7541,3.08,5.65-4.066,5.7608-12.9416,5.414-19.1549-.6339-11.3574-3.7907-22.6-7.7427-33.2107-1.142-3.0664-2.3815-6.0947-3.6846-9.096a2.0172,2.0172,0,0,0-2.742-.7189A2.0555,2.0555,0,0,0,362.2073,99.4114Z"/><path d="M371.1083,42.3072a53.8674,53.8674,0,0,1-3.0029,14.3834,80.5076,80.5076,0,0,1-18.82,30.8741,96.8011,96.8011,0,0,1-23.1064,17.3393c-1.1314.62-.1213,2.3511,1.0115,1.7305,14.0385-7.6921,26.38-18.468,34.8276-32.1527a76.8437,76.8437,0,0,0,10.4255-26.7811,39.2035,39.2035,0,0,0,.6686-5.3935c.0451-1.29-1.959-1.2882-2.004,0Z"/><path d="M409.1855,45.6473c-.0052,7.117-1.7373,14.3684-3.7422,21.1954a123.3425,123.3425,0,0,1-26.4156,46.8836,154.1571,154.1571,0,0,1-33.476,27.9189c-1.09.6834-.0856,2.418,1.0115,1.7305a158.3031,158.3031,0,0,0,30.823-24.9057,132.4164,132.4164,0,0,0,19.0461-25.4979,120.9494,120.9494,0,0,0,10.0933-22.8337,102.9329,102.9329,0,0,0,3.9557-16.8347,35.0255,35.0255,0,0,0,.7074-7.5566c-.0028-.0327.0009-.0669.0009-.1a1.0027,1.0027,0,0,0-2.0041,0Z"/><path d="M375.6865,158.1667A201.7737,201.7737,0,0,0,395.54,140.3a266.5961,266.5961,0,0,0,38.3922-48.119,203.5844,203.5844,0,0,0,18.399-37.7521c.4386-1.2152-1.4972-1.7386-1.9325-.5327-8.09,22.4131-20.5912,43.0955-35.4225,61.6759a274.0063,274.0063,0,0,1-33.5837,35.2541q-2.4786,2.169-5.0269,4.2572-.69.5622-1.3878,1.1145-.1789.1411-.3587.281c-.1974.1544.2261-.1733.0555-.0429-1.0108.7729-.0137,2.5143,1.0115,1.73Z"/><path d="M421.25,167.5485a216.8471,216.8471,0,0,0,19.7546-18.007c13.7386-13.84,26.2751-29.0856,36.3061-45.8405a149.887,149.887,0,0,0,15.2263-33.7377,1.0029,1.0029,0,0,0-1.9325-.5327c-6.2018,20.666-17.7074,39.4862-31.0538,56.2923a273.4011,273.4011,0,0,1-32.8547,34.597c-2.2424,1.9851-4.506,3.9621-6.8631,5.8115-1.0138.7955.4132,2.2048,1.4171,1.4171Z"/><path d="M469.8875,176.312c5.3794-5.3062,10.3777-11.0409,15.2274-16.827a275.609,275.609,0,0,0,28.97-41.1736,165.3215,165.3215,0,0,0,13.0811-28.8372c.4095-1.2261-1.5253-1.7519-1.9325-.5328-5.8388,17.48-15.23,33.6636-25.7936,48.6859a306.0753,306.0753,0,0,1-25.6431,31.7007c-1.7425,1.8845-3.4984,3.764-5.3261,5.5669-.92.9071.4976,2.324,1.4171,1.4171Z"/><path d="M563.8148,102.8825a88.8763,88.8763,0,0,1-2.5247,15.07A134.8464,134.8464,0,0,1,547.6954,152.87,125.5987,125.5987,0,0,1,531.727,175.203c-.8588.9578.5539,2.38,1.4171,1.4171a134.23,134.23,0,0,0,32.0376-68.2479c.2682-1.8183.5282-3.6532.6371-5.49.0765-1.2883-1.9278-1.2838-2.004,0Z"/><path d="M318.9349,66.6542c1.4738-.265,2.239-.3422,3.7086-.5122,3.7333-.4318,7.4857-.7,11.2394-.87a252.9222,252.9222,0,0,1,41.0321,1.69,322.2626,322.2626,0,0,1,61.4919,13.6705,362.9938,362.9938,0,0,1,36.82,14.2162q9.6618,4.3419,19.0769,9.2068,5.1713,2.67,10.2639,5.4885a91.9779,91.9779,0,0,0,9.738,4.4279c17.8432,7.3147,37.3361,13.1392,56.836,11.875a90.2235,90.2235,0,0,0,15.6108-2.5277c3.4917-.8546,7.5671-2.4736,11.1059-1.8788a7.1119,7.1119,0,0,1,5.3721,4.3936,7.645,7.645,0,0,1-.72,6.7288,21.1587,21.1587,0,0,1-6.78,6.94c-7.301,4.8625-16.3261,6.9168-24.8851,8.1689a174.0251,174.0251,0,0,1-35.7079,1.0125,285.9824,285.9824,0,0,1-41.181-5.6627c-24.938-5.2249-48.6941-14.1947-72.8966-21.9444-22.8883-7.3289-46.3812-12.5246-70.556-11.2012a163.3835,163.3835,0,0,0-19.4142,2.2753c-1.2679.2233-.7305,2.155.5328,1.9324a154.8772,154.8772,0,0,1,39.8918-1.8883,192.322,192.322,0,0,1,35.2774,6.6793c24.1491,6.7127,47.4167,16.2223,71.685,22.56a308.6493,308.6493,0,0,0,41.1952,7.844,224.9253,224.9253,0,0,0,38.8986,1.581c10.0108-.5419,20.2954-1.8229,29.72-5.4066,6.4342-2.4466,13.3069-6.3171,16.4287-12.777a9.3079,9.3079,0,0,0-3.6034-12.1711c-2.51-1.4177-5.253-1.2615-7.9685-.7557-4,.7451-7.9023,1.9578-11.8946,2.752-15.51,3.0853-31.3374.9533-46.397-3.4052-6.1324-1.7749-12.1582-3.9062-18.0854-6.2748a92.9307,92.9307,0,0,1-10.6989-4.7352q-4.8568-2.6961-9.7861-5.2588a384.69,384.69,0,0,0-38.67-17.4918,338.0778,338.0778,0,0,0-66.4626-18.3565A276.02,276.02,0,0,0,341.8354,63.06,160.2347,160.2347,0,0,0,319.3519,64.57c-.317.0476-.6342.0953-.95.152-1.2673.2279-.73,2.16.5327,1.9325Z"/><path class="cls-3" d="M682.0724,453.1406l122.582-33.7351,49.7868,91.9659a26.9181,26.9181,0,0,1-17.9571,35.1716l-90.8833,25.6661a26.9182,26.9182,0,0,1-33.0874-18.1325Z"/><path d="M802.924,420.417l3.4491,6.3711,8.69,16.0528,11.5058,21.2534,11.7122,21.6347,9.4852,17.5211c1.5909,2.9388,3.1931,5.8718,4.773,8.8166.0462.0862.1.171.1407.26.0081.0178.02.0338.028.0516-.0244-.0558-.1469-.3451-.0228.0243.13.3874.2583.7749.3742,1.1668a24.8808,24.8808,0,0,1-17.1218,31.0449c-.7942.2287-1.5908.4493-2.3861.6739L819.098,549.37,796.8626,555.65,773.01,562.3857l-19.3058,5.4521c-2.8666.81-5.73,1.6331-8.6,2.4288a25.1436,25.1436,0,0,1-27.3593-9.8437c-2.34-3.4458-3.4084-7.2433-4.587-11.1511l-4.6668-15.4743-6.68-22.1482-7.2431-24.0164-6.2451-20.7076-3.799-12.5966-.519-1.7209c-.7428-2.4631-4.6126-1.4135-3.8649,1.0656l2.136,7.0827,5.3741,17.8194,7.0253,23.2943,7.2005,23.8755,5.7934,19.21q1.4156,4.6935,2.831,9.3871a28.9174,28.9174,0,0,0,35.6636,19.7911c.8479-.2351,1.6937-.4784,2.54-.7175l14.9587-4.2244,22.6334-6.3919,24.1134-6.81,19.0533-5.3808c2.7414-.7742,5.5088-1.4878,8.23-2.3334a29.2441,29.2441,0,0,0,20.3261-25.552c.3151-4.024-.09-8.8743-1.9367-12.5289-.4626-.9155-.9788-1.808-1.4671-2.71l-7.3194-13.52-10.9942-20.3086-12.014-22.1922-10.5645-19.5146-6.4587-11.9306-.8793-1.6242c-1.2284-2.2691-4.69-.2479-3.4609,2.023Z"/><path d="M697.6064,450.9447l9.6753-2.6627,23.1046-6.3585,27.9348-7.6878,24.2484-6.6732c3.8973-1.0726,7.8741-1.9989,11.7262-3.2271.0543-.0174.11-.03.1655-.0456,2.4838-.6835,1.4292-4.5515-1.0655-3.8649l-9.6753,2.6626-23.1046,6.3585-27.9348,7.6878-24.2484,6.6733c-3.8973,1.0725-7.8741,1.9989-11.7262,3.2271-.0543.0173-.1105.03-.1655.0455-2.4838.6836-1.4292,4.5515,1.0655,3.865Z"/><path d="M703.0435,472.9825c-.9544-2.5452-3.1928-6.1812-1.2042-8.7131a4.032,4.032,0,0,1,6.2707.0115c.09.1153.65,1.1211.47.74.0344.073.06.15.0921.2244,1.4844,3.4088,2.8272,6.8868,4.2391,10.3261l15.5566,37.8942,4.1119,10.0161a2.05,2.05,0,0,0,2.4652,1.4l10.7547-3.253,25.83-7.8128,31.2561-9.454,27.032-8.1764c4.3786-1.3244,8.8209-2.5228,13.1578-3.98.0622-.0209.1259-.0381.1887-.0571,2.4624-.7448,1.413-4.6146-1.0655-3.865l-10.7546,3.253-25.83,7.8128-31.2561,9.454L747.3259,516.98l-8.9417,2.7046a43.8288,43.8288,0,0,0-4.216,1.2752c-.06.0249-.1268.0383-.1888.0571l2.4652,1.4-11.7172-28.542c-4.0892-9.9608-8.1361-19.94-12.2679-29.8834a8.2141,8.2141,0,0,0-5.2929-4.9212,7.9919,7.9919,0,0,0-9.6862,10.45c.539,1.5184,1.1324,3.02,1.6982,4.5283a2.06,2.06,0,0,0,2.4652,1.4,2.02,2.02,0,0,0,1.4-2.4652Z"/><path class="cls-3" d="M743.8645,512.2605l5.2305,13.3142a6.5936,6.5936,0,0,0,7.7363,3.9858h0a6.5937,6.5937,0,0,0,4.3813-9.1735L755.8888,508.92Z"/><path d="M741.932,512.7933l2.9164,7.4237,1.8082,4.6027a13.908,13.908,0,0,0,1.8771,3.7105,8.6644,8.6644,0,0,0,14.2637-1.2839,8.8261,8.8261,0,0,0,.1438-7.8748c-.4056-.9036-.8345-1.7974-1.2516-2.6957l-4.07-8.7669a2.0182,2.0182,0,0,0-2.2632-.921l-12.0244,3.34c-2.4819.6894-1.4278,4.5575,1.0655,3.8649l12.0244-3.34-2.2632-.921,3.0942,6.6644,1.8268,3.9348a5.8555,5.8555,0,0,1,.7356,2.9928,4.6412,4.6412,0,0,1-8.2858,2.3706,9.6586,9.6586,0,0,1-1.0554-2.2619l-1.6483-4.1956-3.0286-7.7092a2.0643,2.0643,0,0,0-2.4652-1.4A2.0183,2.0183,0,0,0,741.932,512.7933Z"/><path class="cls-3" d="M827.63,488.09l6.0129,12.98a6.5938,6.5938,0,0,0,7.96,3.5188h0a6.5938,6.5938,0,0,0,3.8282-9.4178l-5.9962-11.13Z"/><path d="M825.9,489.1018l3.3493,7.23,2.0652,4.458a12.5994,12.5994,0,0,0,2.0082,3.3543,8.67,8.67,0,0,0,14.0411-2.1155,8.7964,8.7964,0,0,0-.2044-7.873c-.459-.89-.9505-1.7642-1.4253-2.6456l-4.5687-8.48a2.0215,2.0215,0,0,0-2.2632-.921l-11.8046,4.0491c-2.4257.8321-1.3837,4.7051,1.0656,3.865l11.8045-4.0491-2.2632-.921,3.48,6.4589,2.0719,3.8458a6.2785,6.2785,0,0,1,.9607,3.0388c.0226,4.1751-5.6458,6.0861-8.2434,2.7024a12.6221,12.6221,0,0,1-1.225-2.39l-1.868-4.0323-3.5195-7.5974a2.02,2.02,0,0,0-2.742-.7189A2.05,2.05,0,0,0,825.9,489.1018Z"/><polygon class="cls-2" points="786.073 473.701 757.428 483.49 752.445 472.151 781.091 462.363 786.073 473.701"/><path d="M785.5407,471.7688l-25.1029,8.5777-3.5429,1.2106,2.2633.921L754.1753,471.14l-1.1977,2.944,25.1029-8.5777,3.5428-1.2106-2.2632-.921,4.9829,11.3384a2.0177,2.0177,0,0,0,2.742.719,2.0546,2.0546,0,0,0,.7189-2.7419l-4.9829-11.3384a2.0037,2.0037,0,0,0-2.2632-.921l-25.1029,8.5777-3.5429,1.2106a2.0454,2.0454,0,0,0-1.1977,2.9439l4.983,11.3384a2.0038,2.0038,0,0,0,2.2632.921l25.1029-8.5777,3.5428-1.2106C789.0333,474.8044,787.991,470.9315,785.5407,471.7688Z"/><path d="M339.7113,43.6432A40.2168,40.2168,0,0,1,338.482,52.75c-1.4861,6.2786-4.24,12.397-8.7861,17.0611a27.5245,27.5245,0,0,1-11.2937,6.9354c-1.2218.3959-.6991,2.3316.5327,1.9325A30.5161,30.5161,0,0,0,336.4686,63.86a46.1744,46.1744,0,0,0,5-16.6787,31.9486,31.9486,0,0,0,.2471-3.5376,1.0026,1.0026,0,0,0-2.004,0Z"/><path class="cls-8" d="M196.4985,172.1215c-3.1177-16.3474-17.6462-28.1871-34.5892-34.3046-14.3113-5.1674-29.0206,10.212-25.9029,26.5594,2.3523,12.3337,15.7523,29.7871,26.4061,32.3647a46.3253,46.3253,0,0,0-3.6276,13.5414c-1.1785,12.2031,6.315,23.9208,20.3025,20.6688,10.0214-2.33,23.0184-18.7055,20.464-35.1632"/><path d="M198.431,171.5888c-1.8975-9.6807-7.7649-18.0547-15.32-24.2336a65.3978,65.3978,0,0,0-12.8613-8.1831c-4.3971-2.1349-9.1846-4.4021-14.1715-4.3766-9.7171.05-17.744,7.5227-20.9474,16.2861-3.4328,9.391-.4717,18.9529,4.4244,27.1987a60.08,60.08,0,0,0,10.2168,12.9271c3.4181,3.2367,7.4668,6.2971,12.1073,7.466l-1.1977-2.9439c-2.9317,6.6593-4.8087,14.2106-3.6438,21.4941.89,5.5626,3.8449,10.9838,8.7575,13.9477,5.1813,3.126,11.9834,2.978,17.3554.4153,5.5606-2.6526,10.0389-7.6568,13.2011-12.84a35.3121,35.3121,0,0,0,5.1315-23.4916,2.0175,2.0175,0,0,0-2.4652-1.4,2.0556,2.0556,0,0,0-1.4,2.4653,30.238,30.238,0,0,1-3.45,18.141,32.2617,32.2617,0,0,1-10.92,12.4882c-4.0715,2.5676-9.4493,3.486-13.9768,1.5279-4.3053-1.8619-6.9233-6.0733-8.0006-10.4894-1.6261-6.6657.1659-14.09,2.8716-20.236a2.037,2.037,0,0,0-1.1977-2.944,22.6488,22.6488,0,0,1-9.0981-5.3029,53.4243,53.4243,0,0,1-8.8064-10.0732c-4.7135-6.9158-8.8115-15.3468-7.0085-23.9208,1.6536-7.864,7.759-15.3746,16.046-16.5738,4.2794-.6193,8.2667,1.0231,12.0973,2.7383a66.3683,66.3683,0,0,1,12.2168,7.0494c7.9827,5.8712,14.2428,14.0781,16.1736,23.9288.4957,2.5288,4.36,1.4583,3.865-1.0655Z"/><path class="cls-8" d="M197.6261,171.9065c-3.1177-16.3474,6.0334-32.7032,19.5355-44.6272,11.4049-10.0719,30.7421-1.1858,33.86,15.1616,2.3523,12.3337-3.6834,33.4939-12.6408,39.8116a46.3231,46.3231,0,0,1,8.3569,11.2558c5.5871,10.9127,2.7782,23.7127-11.27,26.69-13.7593,2.9163-29.7537-13.5457-31.8618-24.6"/><path d="M199.5586,171.3737c-1.8557-10.0382,1.3306-20.1039,6.7208-28.5457a65.8862,65.8862,0,0,1,10.2772-12.2812c2.8287-2.6818,5.7713-4.8107,9.7225-5.3822,7.1683-1.0369,14.5364,2.9089,18.7554,8.5665,4.9566,6.6466,5.1333,15.0429,3.7549,22.9153a56.064,56.064,0,0,1-4.3582,14.206c-1.6684,3.5389-3.8956,7.393-7.0621,9.67a2.0349,2.0349,0,0,0-.4056,3.1475c4.6681,4.6119,8.9238,10.4841,10.1635,17.0519.8463,4.4833-.0178,9.4241-3.1968,12.8386a16.4917,16.4917,0,0,1-14.4629,4.7511c-5.6668-1.021-10.7066-4.37-14.7792-8.3225-4.1351-4.0134-8.0023-9.1571-9.15-14.9223-.5033-2.5276-4.3674-1.4577-3.865,1.0655,1.1679,5.866,4.93,11.221,8.9817,15.48,4.4575,4.6855,10.16,8.7669,16.5252,10.307a20.96,20.96,0,0,0,18.2338-4.2415,17.957,17.957,0,0,0,5.96-15.1616c-.644-8.368-5.7515-15.9255-11.5761-21.68l-.4056,3.1476a26.6883,26.6883,0,0,0,7.7857-9.66,57.3933,57.3933,0,0,0,4.8612-13.5559c2.03-8.898,2.6232-18.8762-2.19-27.0143-4.34-7.3389-12.4564-12.6474-21.0992-12.7368a19.0527,19.0527,0,0,0-11.4495,3.6,60.0339,60.0339,0,0,0-11.93,12.501c-7.5536,10.1207-12.0177,22.6581-9.6766,35.3222.4683,2.533,4.3319,1.46,3.865-1.0655Z"/><rect x="193.4956" y="161.8999" width="9.4379" height="36.7335" rx="4.7189" transform="matrix(0.9823, -0.1873, 0.1873, 0.9823, -30.2619, 40.3253)"/><path d="M201.1226,196.3758c-2.3681.4516-2.9754-1.9387-3.3055-3.67l-1.3012-6.8224-3.1909-16.731c-.3007-1.5768-.8659-3.3453.731-4.5032a2.759,2.759,0,0,1,4.0894,1.1107,7.5116,7.5116,0,0,1,.3687,1.5536l2.9377,15.4032,1.6392,8.5952c.3991,2.0927.837,4.4209-1.9684,5.0636-2.5132.5757-1.45,4.4411,1.0656,3.8649a6.7687,6.7687,0,0,0,5.21-5.5429,9.0727,9.0727,0,0,0-.1876-3.1156l-1.3593-7.1273-3.4358-18.015a13.0853,13.0853,0,0,0-.3709-1.6716,6.7187,6.7187,0,0,0-12.3518-1.0028,7.2941,7.2941,0,0,0-.5483,4.7987c1.0032,5.5145,2.1005,11.0135,3.15,16.5192l1.6988,8.9073a10.55,10.55,0,0,0,.7172,2.5726,6.7939,6.7939,0,0,0,7.4771,3.6774C204.719,199.7581,203.6474,195.8943,201.1226,196.3758Z"/><path class="cls-2" d="M224.117,338.6811c3.2815-11.3685-2.1223-23.5493-10.8978-32.8784-7.4124-7.88-21.6864-2.86-24.968,8.5088-2.4758,8.5773.4067,23.9546,6.333,29.016a32.9382,32.9382,0,0,0-6.6561,7.42c-4.6726,7.3586-3.69,17.1991,6.225,19.6365,7.1039,1.7462,20.6127-4.4566,24.2869-15.7139"/><path d="M226.05,339.2139c2.2514-8.0392.5122-16.4179-3.324-23.6824a51.2131,51.2131,0,0,0-7.374-10.37A14.8177,14.8177,0,0,0,207.45,300.33c-6.0635-1.2855-12.5064,1.1868-16.6819,5.6533-4.6778,5.0038-5.7765,11.7484-5.308,18.3683a43.1663,43.1663,0,0,0,2.366,11.6423c1.1582,3.1918,2.7439,6.4747,5.3415,8.75V341.91c-4.2514,3.5009-8.1878,8.2325-9.47,13.7063a13.9886,13.9886,0,0,0,2.651,12.5123c6.2267,7.1873,16.9572,4.6475,23.8309.012a25.5894,25.5894,0,0,0,10.1932-12.9385c.8234-2.4506-3.0463-3.502-3.865-1.0656-2.4763,7.37-9.73,12.9122-17.2653,14.3114a10.7034,10.7034,0,0,1-8.9574-2.0644,9.2531,9.2531,0,0,1-2.9232-8.7042c.8146-5.2656,4.6618-9.6593,8.64-12.9351a2.0125,2.0125,0,0,0,0-2.8342c-4.0657-3.5619-5.569-9.8984-6.2766-15.0211-.7567-5.4783-.7025-11.62,2.5-16.3581a14.8017,14.8017,0,0,1,12.6816-6.5275,10.0988,10.0988,0,0,1,6.2742,2.6,40.2084,40.2084,0,0,1,6.7737,8.6444c4.1665,6.8537,6.4453,14.99,4.23,22.9-.6967,2.4879,3.1693,3.55,3.865,1.0656Z"/><path class="cls-2" d="M224.9012,338.9075c3.2815-11.3686,14.3452-18.7959,26.7424-22.0135,10.4714-2.7179,19.8745,9.1369,16.5929,20.5054-2.4758,8.5773-13.1095,20.0531-20.8215,21.1778a32.9366,32.9366,0,0,1,1.6784,9.8253c.0324,8.7168-5.8661,15.93-15.7318,13.2986-9.6627-2.5767-14.5091-18.16-12.29-25.8471"/><path d="M226.8336,339.44a26.6779,26.6779,0,0,1,10.7636-14.1339,42.1254,42.1254,0,0,1,8.4633-4.4986c2.84-1.1181,6.058-2.4311,9.16-2.291,5.637.2547,9.8949,5.2991,11.2087,10.4473,1.5226,5.9663-1.0755,11.4925-4.5311,16.2358a39.11,39.11,0,0,1-7.3108,7.6288,17.198,17.198,0,0,1-7.7046,3.8161,2.0153,2.0153,0,0,0-1.4,2.4653c2.2886,6.9015,3.1639,19.0158-6.2511,20.9648-8.0821,1.673-13.4468-5.8749-15.506-12.616-1.0818-3.5413-1.68-7.62-.7215-11.072.6915-2.4891-3.1743-3.5514-3.865-1.0656-1.1077,3.9872-.6051,8.4029.4714,12.339a27.2448,27.2448,0,0,0,6.3659,11.7751,15.5321,15.5321,0,0,0,12.7189,4.7437,13.2267,13.2267,0,0,0,10.6973-7.74c2.6415-5.747,1.8949-12.5448-.0449-18.3947l-1.4,2.4653a19.2569,19.2569,0,0,0,8.1253-3.81,41.8258,41.8258,0,0,0,7.7687-7.4978c4.3862-5.4706,7.8571-11.9525,6.8574-19.1736-.9239-6.6732-5.52-13.0667-12.16-14.9867-3.5308-1.021-6.9313-.3287-10.3462.7631a50.3583,50.3583,0,0,0-10.1745,4.4837c-6.9666,4.0951-12.72,10.2263-15.05,18.0858-.7346,2.4782,3.1324,3.5369,3.8649,1.0655Z"/><rect x="209.5261" y="341.0426" width="26.1179" height="6.7104" rx="3.3552" transform="translate(-170.0331 462.7404) rotate(-73.8991)"/><path d="M219.4962,355.0121c-1.3283-.3834-.8887-1.7053-.619-2.64l1.3722-4.7538,3.2977-11.4243c.2471-.8562.3762-2.1546,1.3873-2.4229a1.3773,1.3773,0,0,1,1.6834,1.5651,5.303,5.303,0,0,1-.2219.73l-3.0344,10.5124-1.7385,6.0226c-.3181,1.1021-.5368,2.784-2.1268,2.4108-2.5089-.5889-3.58,3.2748-1.0655,3.8649a5.5244,5.5244,0,0,0,6.7305-4.0781c.4808-1.6229.939-3.2529,1.4084-4.8791l3.6913-12.788c.7491-2.5953.1031-5.3628-2.412-6.7581a5.4444,5.4444,0,0,0-7.7636,3.3584c-1.23,3.8577-2.25,7.7955-3.3731,11.6856l-1.79,6.2c-.8705,3.016.2328,6.3134,3.5083,7.2588C220.9136,359.5937,221.9737,355.7272,219.4962,355.0121Z"/><path class="cls-3" d="M55.9008,279.8791c.3224-8.9739-5.899-16.9462-14.0776-22.1984-6.9081-4.4363-16.4922,1.8883-16.8146,10.8622-.2432,6.7705,4.7107,17.5605,10.0057,20.1954a24.9975,24.9975,0,0,0-3.5339,6.6881c-2.0849,6.2779.45,13.3416,8.1989,13.31,5.5515-.0226,14.3545-7.0768,14.9864-16.0411"/><path d="M57.9049,279.8791c.1568-6.0314-2.3453-11.591-6.1317-16.1759A37.648,37.648,0,0,0,44.8091,257.3a13.9877,13.9877,0,0,0-7.1286-3.0415c-5.0093-.43-9.813,2.7124-12.4062,6.831-2.9245,4.6448-2.6229,10.15-1.0322,15.2024,1.6385,5.2044,4.6768,11.5385,9.7607,14.1774l-.7189-2.742c-4.201,5.705-7.263,15.4664-.626,20.7355,6.0118,4.7726,13.8584,1.2383,18.4686-3.6805A20.0862,20.0862,0,0,0,56.67,292.6954c.2124-2.5707-3.7969-2.5566-4.0082,0-.4679,5.6621-4.7526,11.0753-9.922,13.3051a7.541,7.541,0,0,1-6.8291-.1432,6.74,6.74,0,0,1-3.1162-5.7721c-.138-3.774,1.7708-7.3753,3.95-10.3354a2.0145,2.0145,0,0,0-.719-2.7419c-3.5673-1.8516-5.8259-6.1985-7.2185-9.7891-1.5038-3.8773-2.6534-8.4246-.9646-12.4341,1.4115-3.3513,4.6841-6.2567,8.413-6.5318a8.3814,8.3814,0,0,1,5.5541,1.82,35,35,0,0,1,5.8652,5.0266c3.7736,4.05,6.3681,9.1517,6.2218,14.78-.0671,2.58,3.941,2.5787,4.0081,0Z"/><path class="cls-3" d="M56.52,279.9014c.3224-8.9739,7.1-16.4794,15.6341-21.1311,7.2086-3.9292,16.3143,3.0667,15.9919,12.0406-.2432,6.77-5.9585,17.1773-11.429,19.4255a24.9948,24.9948,0,0,1,3.045,6.9243c1.6291,6.4114-1.3852,12.8077-9.1328,12.6876-7.5883-.1177-14.0259-10.6976-13.8079-16.7656"/><path d="M58.5239,279.9014A20.0767,20.0767,0,0,1,64.2207,267.32a32.3428,32.3428,0,0,1,5.6358-4.81c1.7268-1.1658,3.64-2.5446,5.763-2.8108,3.9694-.4979,7.5925,2.3254,9.3373,5.6873,2.02,3.8919,1.0942,8.2359-.4654,12.1084-1.6579,4.1167-4.51,9.1662-8.7861,11.0107a2.0172,2.0172,0,0,0-.7189,2.7419c2.6537,4.2056,5.6544,12.2718.0077,15.5928-5.321,3.1294-10.712-1.2225-13.4645-5.6213a15.3291,15.3291,0,0,1-2.7045-8.1366c.0565-2.58-3.9517-2.58-4.0081,0a18.6858,18.6858,0,0,0,2.8389,9.4726,20.3278,20.3278,0,0,0,7.5383,7.7889c6.6216,3.5877,15.48.3547,16.7782-7.4346.8-4.8-.9858-9.6605-3.5251-13.6847l-.719,2.7419c4.6359-1.9995,7.8749-7.207,9.8673-11.6155,2.22-4.9119,3.58-10.4459,1.4394-15.6314a14.3549,14.3549,0,0,0-11.5139-9.0168,12.0978,12.0978,0,0,0-7.3941,1.9085,39.7463,39.7463,0,0,0-7.1649,5.2933c-4.781,4.4739-8.1441,10.3655-8.4463,16.9965-.1176,2.5787,3.8908,2.5728,4.0081,0Z"/><rect x="45.9155" y="281.8237" width="19.8205" height="5.0925" rx="2.5462" transform="translate(-230.3649 329.9511) rotate(-87.9427)"/><path d="M55.47,292.27c-.3191-.0114-.437-.3309-.4486-.6458-.0087-.2339.017-.4737.0254-.7074l.1348-3.7519.3255-9.0617c.0123-.3426-.0015-.699.0373-1.04.034-.2988.0516-.4088.3175-.543.6232-.3146.7774.34.7531,1.0164l-.3015,8.3944-.1691,4.7061c-.0129.3612.0054.7395-.0394,1.0983a.5537.5537,0,0,1-.635.5345c-2.5769.0375-2.5844,4.0457,0,4.0081a4.6784,4.6784,0,0,0,4.65-4.727c.059-1.31.0942-2.6211.1413-3.9313l.3622-10.0831a4.6946,4.6946,0,0,0-3.398-4.9327,4.6277,4.6277,0,0,0-5.6868,4.4009c-.1947,3.0667-.221,6.1534-.3314,9.2242l-.1773,4.9383a4.6769,4.6769,0,0,0,4.44,5.1107C58.05,296.3705,58.046,292.3623,55.47,292.27Z"/><path class="cls-6" d="M689.0887,296.5843a37.53,37.53,0,0,0,13.7921.936"/><path d="M688.5559,298.5168a36.8458,36.8458,0,0,0,14.8576.9359,2.0162,2.0162,0,0,0,1.4-2.4652,2.0578,2.0578,0,0,0-2.4652-1.4,28.9707,28.9707,0,0,1-4.6981.2008q-1.107-.0317-2.2108-.1289-.539-.0469-1.0766-.1087-.2559-.0292-.5113-.0619c-.3664-.0464.4592.07-.1514-.0212a32.7433,32.7433,0,0,1-4.0784-.8161,2.0046,2.0046,0,0,0-1.0655,3.865Z"/></svg>