<svg id="Layer_1" data-name="Layer 1" xmlns="http://www.w3.org/2000/svg" width="1000" height="1000" viewBox="0 0 1000 1000"><defs><style>.cls-1{fill:#fc7272;}.cls-2{fill:#fff;}.cls-3{fill:#a8542a;}.cls-4{fill:#fc7f3a;}.cls-5{fill:#389b48;}.cls-6{fill:#458dc9;}.cls-7{fill:#ffc41f;}.cls-8{fill:#ea2f2f;}</style></defs><polyline class="cls-1" points="174.967 767.809 255.845 716.958 300.732 795.577 245.04 823.913 197.189 815.585"/><path d="M176.0394,769.6437l8.036-5.0526,19.3014-12.1356,23.357-14.6856,20.2027-12.7023,6.6654-4.1908a35.655,35.655,0,0,0,3.1731-1.9951,1.5922,1.5922,0,0,1,.142-.0893L254.01,718.03l4.4486,7.7917,10.7481,18.8251,12.946,22.6747,11.1979,19.6129,3.6981,6.4771a33.5769,33.5769,0,0,0,1.7727,3.1048,1.4282,1.4282,0,0,1,.0757.1326l.7622-2.9068-18.858,9.5951-29.933,15.23-6.9005,3.511,1.6371-.2141-16.1858-2.8171-25.7773-4.4866-5.8885-1.0249A2.1862,2.1862,0,0,0,195.14,815.02a2.1424,2.1424,0,0,0,1.4839,2.6135l20.2516,3.5248,26.1425,4.55a6.81,6.81,0,0,0,2.5871.2537,9.5839,9.5839,0,0,0,1.6549-.798l8.1893-4.1668L282.84,807.06c6.2082-3.1588,12.5785-6.1158,18.6686-9.4988.0964-.0535.1971-.1.2955-.15a2.1523,2.1523,0,0,0,.7622-2.9068l-4.4487-7.7917L287.37,767.8877l-12.946-22.6747L263.2256,725.6c-1.8167-3.1821-3.5107-6.4849-5.4708-9.582-.0271-.0429-.05-.0885-.0756-.1326a2.15,2.15,0,0,0-2.9068-.7622l-8.036,5.0526-19.3015,12.1357-23.357,14.6856L183.8752,759.7c-3.274,2.0585-6.6275,4.0293-9.8384,6.1858-.0464.0312-.0948.06-.142.0893-2.31,1.4521-.1794,5.13,2.1446,3.669Z"/><path class="cls-2" d="M187.876,760.09l-64.7218,40.1877,87.2735,141.7166s37.6361-26.1347,10.353-79.7595a21.6022,21.6022,0,0,1,8.0162-28.3445c12.2254-7.371,19.0564-11.44,19.0564-11.44l-14.3067-23.4638-6.1706,2.9808a26.4293,26.4293,0,0,1-29.7644-4.6992h0a26.4293,26.4293,0,0,1-8.0718-16.934Z"/><path d="M186.8037,758.2553l-21.9308,13.6174-34.8094,21.6142-7.9816,4.9561a2.1567,2.1567,0,0,0-.7622,2.9068l8.6775,14.0907,20.84,33.8406,25.2138,40.9426L197.85,925.6209c3.5278,5.7286,6.9289,11.5621,10.5948,17.204.0514.0792.0991.1611.1486.2415a2.1456,2.1456,0,0,0,2.9069.7622,40.7454,40.7454,0,0,0,7.0982-6.5854,57.0792,57.0792,0,0,0,11.3408-19.7048c3.4707-10.4477,3.5937-21.6962,1.3823-32.4191a93.4678,93.4678,0,0,0-7.313-21.1248c-1.4556-3.0645-2.9872-5.9475-3.3638-9.3791a20.1279,20.1279,0,0,1,1.0745-9.0152,19.2037,19.2037,0,0,1,4.9483-7.4588c2.7305-2.5621,6.2675-4.2654,9.4559-6.183q6.1275-3.6855,12.2654-7.3536.2685-.16.5369-.32a2.1549,2.1549,0,0,0,.7622-2.9068l-12.516-20.5268-1.7907-2.937a2.1809,2.1809,0,0,0-2.9069-.7622c-3.6535,1.7649-7.27,3.8169-11.2532,4.73a24.3005,24.3005,0,0,1-29.5575-21.5583c-.2759-3.12-.5132-6.2441-.77-9.3659l-.8932-10.8681c-.2224-2.7062-4.4735-2.73-4.2491,0,.5538,6.739,1.07,13.4821,1.6615,20.2179A28.5437,28.5437,0,0,0,218.8193,806.56c5.7608-.6436,10.6731-3.2623,15.8-5.7387l-2.9068-.7622,12.5159,20.5268,1.7908,2.937.7622-2.9068q-4.1517,2.4732-8.2927,4.9641-4.9626,2.9787-9.9195,5.967a26.1692,26.1692,0,0,0-7.7341,6.8175,23.8865,23.8865,0,0,0-4.0864,18.67c.7027,3.6312,2.5229,6.7847,4.0593,10.1035a93.8193,93.8193,0,0,1,4.1582,10.5952c3.5284,10.9345,4.8344,22.7253,2.216,33.9276a50.8458,50.8458,0,0,1-4.4093,12.0237,54.5408,54.5408,0,0,1-2.8446,4.8621q-.71,1.0811-1.47,2.1278c-.2242.3088-.4532.614-.6823.9192a1.719,1.719,0,0,1-.1381.1812q-.2067.2637-.4157.5256a51.6243,51.6243,0,0,1-5.23,5.6376c-.6025.5571-1.22,1.099-1.8548,1.6184-.239.1953-.979.7344-.2481.2069-.0805.0581-.3579.2045-.3955.2974-.0133.0328-.1056.0765-.138.0991l2.9068.7622-8.6775-14.0908-20.84-33.8405-25.2137-40.9427-21.7987-35.3972-7.2127-11.712c-1.1141-1.8091-2.1254-3.7763-3.3821-5.492-.0553-.0755-.1-.1617-.1487-.2415l-.7622,2.9069,21.9308-13.6175L180.9667,766.88l7.9816-4.956C191.2668,760.4847,189.1357,756.8073,186.8037,758.2553Z"/><path d="M193.515,954.446l17.8843-13.0691-.0519-.0835c5.2409-4.1871,30.6082-27.2752,13.5026-70.0934l-23.5167,13.892a21.5929,21.5929,0,0,1-29.33-7.2067l-48.1444-77.59-5.8726,2.9365a69.5575,69.5575,0,0,0-15.347,10.4435h0Z"/><path d="M194.5874,956.2805l15.6346-11.4251,2.25-1.644a2.1694,2.1694,0,0,0,.7621-2.9068l-.0519-.0835-.3322,2.5746a52.5124,52.5124,0,0,0,11.9791-14.0773,57.974,57.974,0,0,0,7.9306-32.2106,79.9061,79.9061,0,0,0-5.8607-25.8726,2.1584,2.1584,0,0,0-3.121-1.27c-7.7971,4.606-15.58,9.2363-23.3918,13.8182a19.711,19.711,0,0,1-22.0108-1.3061c-2.6212-2.0415-4.3074-4.6934-6.0168-7.4482L157.4829,850.456l-20.0242-32.2711c-3.8625-6.2249-7.6078-12.5431-11.5961-18.6886-.0584-.09-.1131-.1823-.17-.2733a2.1785,2.1785,0,0,0-2.9069-.7622c-2.2218,1.111-4.4561,2.2-6.6639,3.3386a71.77,71.77,0,0,0-14.9856,10.3736,2.141,2.141,0,0,0-.3322,2.5746l9.09,14.08,21.6808,33.5844,26.2071,40.5958,22.7611,35.2578c3.6591,5.6681,7.2166,11.4192,10.9848,17.0158.0523.0778.1018.1577.1527.2365,1.4781,2.29,5.1579.1619,3.6689-2.1446l-9.09-14.08L164.579,905.7089l-26.2071-40.5958-22.7611-35.2578-7.4521-11.5435c-1.1636-1.8026-2.2246-3.7693-3.5326-5.4723-.0566-.0736-.1023-.1584-.1527-.2365l-.3323,2.5746a67.6058,67.6058,0,0,1,14.5207-9.9115c2.0827-1.059,4.1792-2.0914,6.269-3.1363l-2.9068-.7622,9.9159,15.9806,20.0331,32.2856L168.0415,875.53a53.3181,53.3181,0,0,0,4.31,6.4089,23.87,23.87,0,0,0,25.11,7.1919c4.6522-1.4878,8.9252-4.556,13.0983-7.0212l14.3986-8.5057.964-.5694-3.121-1.27c5.0353,12.69,7.5275,26.6548,4.3209,40.1218A51.2184,51.2184,0,0,1,221.8968,925.3a54.7088,54.7088,0,0,1-3.36,5.26c-.25.3465-.5054.6892-.7626,1.0306q-.1158.1539-.2338.3062c.0217-.0281.1893-.2439.0407-.0547q-.2586.33-.5217.6558-.7717.9546-1.5863,1.8735a46.0342,46.0342,0,0,1-5.6283,5.419,2.13,2.13,0,0,0-.3322,2.5746l.0519.0835.7622-2.9068-15.6346,11.4251-2.25,1.644a2.1876,2.1876,0,0,0-.7621,2.9068A2.1406,2.1406,0,0,0,194.5874,956.2805Z"/><path d="M145.0113,833.7694a38.88,38.88,0,0,0,8.4756-6.7615,28.5253,28.5253,0,0,0,5.9924-26.6992,32.7183,32.7183,0,0,0-4.2808-8.8015l-4.7126-7.22c-1.4889-2.2811-5.1695-.1542-3.669,2.1447l3.7758,5.7847a40.9562,40.9562,0,0,1,3.9512,6.7829,24.5412,24.5412,0,0,1-3.1164,23.8481c-2.3227,3.09-5.3716,5.178-8.5608,7.2529-2.2837,1.4858-.1566,5.1662,2.1446,3.669Z"/><path class="cls-3" d="M220.0029,861.6884a20.8443,20.8443,0,0,0-12.9965,4.0434"/><path d="M220.0029,859.5638a17.3,17.3,0,0,0-4.5812.34,23.94,23.94,0,0,0-9.4876,3.9932,2.1249,2.1249,0,1,0,2.1447,3.669,23.997,23.997,0,0,1,2.4068-1.4912q.5541-.2973,1.124-.5637c.1991-.0929.3993-.1844.6018-.27-.3273.1384.2778-.1067.28-.1075a21.6775,21.6775,0,0,1,4.06-1.1324q.2264-.04.4535-.0744c.1373-.021.39-.1707.1484-.0227q-.2814.0375-.0056.0031.1-.0117.2-.0221.16-.017.32-.0315c.4258-.0381.8529-.0624,1.28-.0689a9.39,9.39,0,0,1,1.0556.028,2.1317,2.1317,0,0,0,2.1246-2.1246,2.1824,2.1824,0,0,0-2.1246-2.1246Z"/><path class="cls-3" d="M217.3326,851.8769a20.8449,20.8449,0,0,0-13.6106.1"/><path d="M217.8974,849.8283a17.2187,17.2187,0,0,0-4.4853-.9878,23.9873,23.9873,0,0,0-10.2549,1.0878,2.1251,2.1251,0,0,0,1.13,4.0974,23.9365,23.9365,0,0,1,2.7336-.7288,13.8219,13.8219,0,0,1,2.1825-.3015,23.1323,23.1323,0,0,1,4.2092.0942c.4178.0452-.2736-.05-.0133-.0014.1233.023.2486.0379.3724.0587q.4084.0684.814.154c.3972.0841.792.18,1.1823.2923a9.4,9.4,0,0,1,1,.3324,2.13,2.13,0,0,0,2.6135-1.4839,2.1907,2.1907,0,0,0-1.4839-2.6134Z"/><path class="cls-3" d="M219.1769,843.8411a20.8445,20.8445,0,0,0-12.5435-5.2838"/><path d="M220.6792,842.3388a17.23,17.23,0,0,0-3.729-2.7516,24.9559,24.9559,0,0,0-10.3168-3.1545,2.1328,2.1328,0,0,0-2.1245,2.1246,2.18,2.18,0,0,0,2.1245,2.1245c.2845.0254.5683.054.8519.0877-.3711-.0441.1764.0263.2592.0394q.6908.11,1.374.2615a22.3626,22.3626,0,0,1,2.319.6488c.3777.1281.7481.2731,1.1209.4143.4143.157-.3422-.1607.1649.0687.166.075.3324.1486.4973.2261q.8688.4087,1.6989.8941.69.4039,1.3469.8611c.188.1313.3708.2693.5565.4039.2765.2005-.4253-.3419-.1561-.121.07.0577.1424.1131.2129.1706a9.3782,9.3782,0,0,1,.7949.7064,2.1246,2.1246,0,0,0,3.0046-3.0046Z"/><path d="M226.1,800.2569q-10.7592,5.7971-21.2087,12.164c-4.8323,2.934-9.5011,5.73-12.83,10.4224a26.1241,26.1241,0,0,0-4.6914,13.975,26.8011,26.8011,0,0,0,2.2642,11.6077q.9083,2.1368,1.8221,4.2711l7.5476,17.6916,5.4751,12.8335a2.1375,2.1375,0,0,0,2.9068.7622,2.1809,2.1809,0,0,0,.7622-2.9068l-11.91-27.9172-2.4883-5.8326c-.1642-.3849-.3322-.7684-.4927-1.1549-.0285-.0686-.0731-.1894.0522.1209-.2264-.5606-.4365-1.1271-.6227-1.7023a23.567,23.567,0,0,1-.8418-3.46,21.706,21.706,0,0,1,2.0906-13.1821,22.0077,22.0077,0,0,1,3.9406-5.4793,32.5579,32.5579,0,0,1,6.2582-4.6005q11.8307-7.3349,24.1106-13.944c2.4082-1.2975.2651-4.9673-2.1446-3.669Z"/><polyline class="cls-1" points="561.216 893.514 532.158 802.504 619.492 778.658 633.033 839.66 613.026 883.918"/><path d="M563.2647,892.949l-2.8871-9.0427-6.9347-21.7194-8.3917-26.283L537.7927,813.17l-2.3947-7.5a35.4333,35.4333,0,0,0-1.14-3.5706,1.58,1.58,0,0,1-.051-.16l-1.4839,2.6135,8.6553-2.3633,20.9119-5.71,25.188-6.8775,21.7869-5.9488,7.1951-1.9646a33.3989,33.3989,0,0,0,3.449-.9418,1.4347,1.4347,0,0,1,.1473-.04l-2.6135-1.4838,4.5852,20.6559,7.278,32.7867,1.6778,7.5585.2142-1.6371-6.7674,14.9705L613.6532,877.4l-2.4621,5.4465a2.1894,2.1894,0,0,0,.7622,2.9068,2.1412,2.1412,0,0,0,2.9068-.7622l8.4674-18.7311,10.93-24.18a7.0592,7.0592,0,0,0,.9-2.42,8.9929,8.9929,0,0,0-.3549-1.8216l-1.9912-8.97-6.66-30.0022c-1.51-6.8011-2.7915-13.7034-4.5391-20.4484-.0276-.1067-.0479-.2159-.0718-.3236a2.1514,2.1514,0,0,0-2.6135-1.4839l-8.6553,2.3633-20.9119,5.71-25.1881,6.8775-21.7869,5.9488c-3.5359.9655-7.1522,1.7886-10.6441,2.9063-.0483.0155-.0983.0269-.1472.04a2.1488,2.1488,0,0,0-1.4839,2.6135l2.8872,9.0427,6.9346,21.7193,8.3918,26.283,7.2584,22.7335c1.1766,3.685,2.255,7.42,3.5348,11.071.0184.0526.034.1065.051.16.8286,2.5951,4.9324,1.4859,4.0973-1.13Z"/><path d="M811.0441,934.2063c-5.5509-1.6008-11.344-3.6342-15.94-7.251-2.4586-1.9347-4.8523-4.6492-4.8872-7.9526-.0323-3.06,1.9557-5.6415,4.1762-7.5466a31.3949,31.3949,0,0,1,11.4926-5.7695,65.7544,65.7544,0,0,1,19.7686-2.4878c.8568.0113,1.486-1.2156.7511-1.8134-7.94-6.4593-15.9584-13.39-22.0693-21.6728a31.8678,31.8678,0,0,1-4.3991-7.58,9.4648,9.4648,0,0,1-.7-5.19,4.1929,4.1929,0,0,1,2.2165-2.848,10.2762,10.2762,0,0,1,4.82-.98c5.4,0,10.8208,2.0062,15.6386,4.2811A86.14,86.14,0,0,1,843.6563,882.48a1.0706,1.0706,0,0,0,1.7755-1.0336c-4.1886-13.0834-7.8924-26.6966-8.7084-40.4731a50.5158,50.5158,0,0,1,.4877-12.17c.45-2.42,1.2508-5.1773,2.7039-6.9485a4.72,4.72,0,0,1,4.0691-2.004,7.4408,7.4408,0,0,1,2.3923.6452,13.0245,13.0245,0,0,1,2.7918,1.8407c5.5125,4.6978,8.8538,11.9509,11.3437,18.5861,4.2406,11.3,6.3545,23.373,7.3053,35.37q.2152,2.7153.3486,5.4358a1.0677,1.0677,0,0,0,2.0866.2824c3.0427-8.0985,6.5751-16.0418,10.3294-23.8316a219.1531,219.1531,0,0,1,10.8113-20.0165c3.5918-5.8188,7.5443-11.5927,12.5067-16.3407,3.2509-3.11,7.7249-6.5641,12.5323-5.8976,3.9127.5424,5.5238,3.6781,5.7139,7.442.2805,5.55-1.466,11.2023-3.2417,16.39a169.5282,169.5282,0,0,1-8.1717,19.27c-4.299,8.8223-9.0993,17.3609-14.0868,25.8069-.0843.1427-.1724.2833-.2594.4244-.5933.9618.55,1.8945,1.4534,1.4534,3.0437-1.4862,6.1849-2.7933,9.3443-4.01,5.7588-2.2174,11.8167-4.2908,17.9827-4.9535,3.9085-.42,10.659-.4522,11.2672,4.8.2792,2.412-.9794,4.8126-2.2421,6.77a40.1851,40.1851,0,0,1-5.8623,6.8754,79.06,79.06,0,0,1-10.3165,8.5119,1.0675,1.0675,0,0,0,.8186,1.9416,92.2458,92.2458,0,0,1,19.7648-2.0264c3.9052.049,8.4876.2522,11.8776,2.4336a5.1423,5.1423,0,0,1,2.4129,3.48,15.8668,15.8668,0,0,1-1.4243,9.0811,22.1817,22.1817,0,0,1-7.9548,9.1683c-.9764.614-.3642,2.355.8186,1.9416a8.6338,8.6338,0,0,1,4.902-.3417c4.2254,1.0328,4.177,6.1969,3.7059,9.6578-.0705.5173.1177,1.2075.7419,1.3067,5.2956.842,11.5926,2.733,14.06,8.01a9.5976,9.5976,0,0,1,.8951,3.9122,10.4594,10.4594,0,0,1-.0654,1.3717,1.3151,1.3151,0,1,0-.0516.2712c-.3077,1.3306,1.74,1.8985,2.0487.5648,1.2227-5.287-2.228-10.4627-6.6386-13.03a27.8242,27.8242,0,0,0-9.6835-3.1488l.7419,1.3067c.6061-4.4521.4445-10.3831-4.6173-12.1047a10.5843,10.5843,0,0,0-6.604.1751l.8185,1.9416a24.6605,24.6605,0,0,0,7.71-8.0416,19.4758,19.4758,0,0,0,2.8388-9.2036c.0959-2.34-.1355-4.6788-1.6848-6.526-2.6744-3.1888-7.5656-3.8869-11.4538-4.2a74.3793,74.3793,0,0,0-14.8552.557c-2.9668.3589-5.94.7863-8.8678,1.3945l.8186,1.9416a84.0435,84.0435,0,0,0,9.58-7.7352,49.6579,49.6579,0,0,0,6.5694-7.2568,15.98,15.98,0,0,0,3.32-7.6612,7.2279,7.2279,0,0,0-2.7907-6.4215,12.1238,12.1238,0,0,0-7.21-2.0153c-6.5269-.103-13.1337,2.006-19.2093,4.1877a124.8221,124.8221,0,0,0-12.5773,5.2386l1.4534,1.4534c4.5733-7.415,8.7625-15.0979,12.6821-22.8747a203.5937,203.5937,0,0,0,8.8186-19.7156c2.169-5.7513,4.19-11.8392,4.5344-18.0229.2243-4.0325-.5125-8.8707-4.4678-10.9317-4.3794-2.282-9.4617-.5218-13.2423,2.1067-5.41,3.761-9.6006,9.1813-13.308,14.55a174.8381,174.8381,0,0,0-11.6772,19.9888,306.6943,306.6943,0,0,0-13.166,29.5141c-.064.1669-.1281.3339-.1909.5012l2.0866.2824c-.6565-13.0472-2.5329-26.2113-6.7464-38.6171-2.5709-7.57-6.0358-15.68-11.8667-21.3576-3.0794-2.9985-7.9041-5.7077-11.9033-2.6981a12.2383,12.2383,0,0,0-3.93,6.3618,38.4747,38.4747,0,0,0-1.3782,11.2379c-.0033,13.1856,3.2457,26.4211,6.9538,38.986q.9434,3.1965,1.9636,6.37l1.7755-1.0335a89.6687,89.6687,0,0,0-20.6-14.6474c-5.3133-2.6775-11.1824-4.9816-17.187-5.3085-3.5132-.1913-7.9677.4724-9.6923,3.9992-2.0885,4.2709.7094,9.5344,2.9888,13.1063a70.6019,70.6019,0,0,0,8.8058,10.8121,171.5551,171.5551,0,0,0,15.4288,13.9486l.7512-1.8134a69.3538,69.3538,0,0,0-19.0029,2.1847,36.1872,36.1872,0,0,0-13.0839,6.14c-2.7332,2.1621-5.0888,5.1239-5.4338,8.701-.3467,3.5954,1.6291,6.8584,4.166,9.2382,4.94,4.6342,11.7957,7.0761,18.18,8.9173a1.0632,1.0632,0,0,0,.5648-2.0487Z"/><path d="M882.9385,934.9483a48.3034,48.3034,0,0,0-2.7141-6.7664c-1.7106-3.5459-3.9257-7.3106-7.2825-9.5293-3.2288-2.1342-7.7784-1.7943-10.158,1.47-2.3939,3.2832-1.6046,8.0378-.6434,11.6833a44.569,44.569,0,0,0,3.4125,8.9256l1.2-1.5605c-4.7735-1.9478-11.1539-2.7736-15.8085-.1624-1.97,1.1054-3.1652,2.9861-2.3264,5.2373.7777,2.0873,2.6167,3.7143,4.3212,5.0569a33.545,33.545,0,0,0,4.17,2.8412V950.309c-4.2238,2.7432-6.8624,7.9266-3.6905,12.4848.7755,1.1144,2.618.0536,1.8345-1.0724a5.54,5.54,0,0,1,.1424-6.9186,11.0838,11.0838,0,0,1,2.7859-2.6593,1.0741,1.0741,0,0,0,0-1.8345c-2.5057-1.4218-5.252-3.25-6.929-5.6294-.9921-1.4078-1.1208-2.68.4607-3.6594,2.65-1.6409,6.0322-1.7057,9.0275-1.2485a24.1821,24.1821,0,0,1,5.4474,1.4474c.9286.379,1.5777-.8241,1.2-1.56a42.7921,42.7921,0,0,1-2.5419-6.2077c-1.08-3.2943-2.28-7.4984-.9805-10.8993,1.2226-3.1988,5.0055-3.915,7.7406-2.2338,3.0284,1.8613,4.9932,5.3309,6.5339,8.4251a44.7293,44.7293,0,0,1,2.75,6.77c.4,1.3032,2.4513.7474,2.0486-.5648Z"/><path class="cls-2" d="M556.9625,879.0867,579.7261,951.79l159.013-49.144s-15.915-42.9675-74.6519-29.9307a21.6023,21.6023,0,0,1-25.447-14.8366c-4.0868-13.678-6.3222-21.3084-6.3222-21.3084l-26.2918,7.9983,1.3465,6.7192a26.4291,26.4291,0,0,1-11.9788,27.65v0a26.429,26.429,0,0,1-18.4126,3.59Z"/><path d="M554.9139,879.6515l7.7133,24.6353L574.87,943.389l2.8072,8.9659a2.1559,2.1559,0,0,0,2.6135,1.4839l15.8105-4.8863,37.9708-11.7352,45.94-14.1979,39.7174-12.275c6.4286-1.9868,12.9216-3.8334,19.3038-5.9659.0895-.03.1806-.0559.2709-.0838a2.1448,2.1448,0,0,0,1.4839-2.6134,40.1915,40.1915,0,0,0-4.3348-8.1229,57.2049,57.2049,0,0,0-15.15-15.3929,61.1385,61.1385,0,0,0-28.7966-10.082,86.2476,86.2476,0,0,0-20.6225.6541q-2.8974.4122-5.769.9844a41.5279,41.5279,0,0,1-5.38.9462,19.53,19.53,0,0,1-17.1936-7.9676c-2.3056-3.24-3.2089-6.9765-4.3288-10.735q-2.3337-7.8324-4.6437-15.672-.1009-.3439-.2019-.688a2.1542,2.1542,0,0,0-2.6135-1.4839l-23.0009,6.9972-3.2909,1.0011a2.1793,2.1793,0,0,0-1.4839,2.6135c.7863,3.924,1.8676,7.8957,1.78,11.923a24.3113,24.3113,0,0,1-28.2277,23.42c-3.129-.5195-6.2525-1.0748-9.3785-1.6121l-10.6243-1.8263a2.1867,2.1867,0,0,0-2.6134,1.4838,2.1422,2.1422,0,0,0,1.4838,2.6135c6.6607,1.145,13.3159,2.3287,19.9831,3.4351a28.5473,28.5473,0,0,0,33.3741-24.4c.7271-5.5164-.6047-10.8-1.68-16.1668l-1.4838,2.6134,23.0008-6.9971,3.291-1.0011-2.6135-1.4839q1.5547,5.3059,3.1339,10.6048c2.219,7.4744,3.6767,15.5831,9.6,21.14a24.005,24.005,0,0,0,19.5989,6.2392c3.8622-.5269,7.6414-1.55,11.52-2.0328a89.5357,89.5357,0,0,1,10.4929-.7081c10.7255-.0685,21.4648,2.1657,30.6789,7.4273a53.9544,53.9544,0,0,1,5.4723,3.5807c.5291.3939.4446.33.8582.6576s.8241.6633,1.2287,1.0039q1.0989.925,2.1476,1.9074,1.9453,1.822,3.7064,3.8282.8066.9187,1.5717,1.8727c.1144.1426.2271.2863.3409.4293.3564.448-.0507-.0721.1379.1771.2247.2969.4487.5943.6686.8949a51.141,51.141,0,0,1,3.8928,6.1823c.3605.6788.7048,1.3666,1.0252,2.0653.1062.2316.2.47.3105.7-.2928-.61-.2155-.1239-.0216-.042.0213.009.047.12.0573.1478l1.4839-2.6134-15.8105,4.8863L684.393,917.2189l-45.94,14.1979-39.7173,12.275-13.1415,4.0614c-2.03.6273-4.1879,1.1149-6.1623,1.9045-.0868.0348-.1814.0561-.2709.0838l2.6135,1.4839L574.0614,926.59l-12.2429-39.1021-2.8073-8.966C558.1969,875.9211,554.0935,877.0315,554.9139,879.6515Z"/><path class="cls-3" d="M523.7344,366.3377l121.3629,449.71L520.8238,848.8529s-90.8965-343.601-100.8807-396.1471-17.133-124.2-17.133-124.2"/><path d="M521.6857,366.9025l3.2389,12.0017,8.8583,32.8242,13.0542,48.3723L562.76,519.1016l17.4392,64.6211,17.67,65.4765,16.4106,60.81,13.8674,51.3855,9.9724,36.9529,3.1032,11.4989c.5321,1.9716.9053,4.0986,1.6227,6.0129.09.24.1364.5054.2034.7538l1.4839-2.6135-42.1107,11.1161L535.616,842.75l-15.357,4.0538,2.6135,1.4839q-1.7478-6.6069-3.49-13.2153-4.6843-17.7581-9.3521-35.5206-6.7536-25.6962-13.4772-51.4-8.0472-30.765-16.0457-61.5426-8.482-32.6469-16.89-65.3129-8.0538-31.31-15.9978-62.6487-6.87-27.149-13.5693-54.341c-3.2275-13.1684-6.4322-26.3457-9.3965-39.5763-4.3515-19.4215-7.3943-39.1188-10.2268-58.8107q-5.2638-36.5938-9.0769-73.3851-.2114-2.0138-.4153-4.0284c-.2692-2.6955-4.5211-2.7233-4.2491,0,1.8028,18.0511,3.9672,36.0727,6.3025,54.0617,3.3077,25.4793,6.7091,51.1,12.03,76.2514,2.4754,11.7018,5.2855,23.335,8.0963,34.96q6.168,25.5093,12.6117,50.9511,7.7481,30.805,15.6531,61.57,8.3727,32.657,16.8405,65.29,8.1765,31.5376,16.4125,63.06,7.1371,27.326,14.31,54.6426,5.2568,20.0218,10.5322,40.0388c1.69,6.4119,3.2627,12.87,5.08,19.2476.0792.278.1479.5594.2218.8389a2.1582,2.1582,0,0,0,2.6135,1.4839l42.1107-11.1161,66.8058-17.6349,15.357-4.0539a2.1568,2.1568,0,0,0,1.4839-2.6134l-3.2389-12.0017-8.8582-32.8242L621.9947,722.285l-15.9226-59.0009-17.4392-64.621-17.67-65.4765-16.4106-60.81-13.8674-51.3854-9.9724-36.9529c-1.5738-5.8319-3.0217-11.7162-4.7259-17.5118-.0734-.25-.1357-.5027-.2034-.7538-.7117-2.6372-4.8119-1.5181-4.0974,1.13Z"/><path class="cls-4" d="M458.5631,602.5875l12.1645-3.2357,28.96-7.7033,35.2555-9.378,30.279-8.0541c4.9263-1.31,9.948-2.4394,14.82-3.9422.067-.0207.1359-.0362.2037-.0542,2.64-.7023,1.52-4.8022-1.13-4.0973l-12.1645,3.2357-28.96,7.7033-35.2556,9.378-30.2789,8.0541c-4.9263,1.31-9.9481,2.4394-14.82,3.9422-.0669.0207-.1359.0362-.2036.0542-2.64.7023-1.52,4.8022,1.13,4.0973Z"/><path class="cls-4" d="M547.7369,840.9672q-1.6468-5.6-3.2887-11.2012-4.45-15.17-8.8849-30.3447-6.447-22.0545-12.8677-44.1165-7.69-26.4237-15.3378-52.86-8.1664-28.2346-16.27-56.4877-7.9089-27.5913-15.7228-55.21-6.8261-24.1617-13.5083-48.3638c-3.3516-12.1877-6.6755-24.3849-9.82-36.6278-2.564-9.9816-4.7278-19.9089-6.4427-30.0811-4.027-23.8872-7.0452-47.9571-9.606-72.0428q-.2349-2.2093-.4595-4.42c-.2693-2.6955-4.5212-2.7233-4.2491,0,1.8444,18.464,4.1414,36.8966,6.7643,55.265,2.1829,15.2868,4.4633,30.5865,8.1729,45.5869,2.7166,10.9855,5.669,21.9135,8.6388,32.8327q6.2734,23.0658,12.774,46.0691,7.5675,26.923,15.265,53.8093,8.1223,28.4208,16.3261,56.8181,7.8321,27.13,15.715,54.246,6.8232,23.4774,13.6773,46.9457,5.0013,17.1255,10.0189,34.2464c1.5965,5.4472,3.1088,10.9286,4.7973,16.3483.0741.2377.14.4781.2108.7169.77,2.6178,4.8717,1.5036,4.0973-1.13Z"/><path class="cls-4" d="M510.3547,417.1839l3.06,10.851,8.29,29.4024,12.2986,43.6178,14.9546,53.0376,16.3769,58.0824,16.5314,58.63,15.465,54.8481,13.0634,46.33,9.3576,33.1877c1.4763,5.2359,2.8668,10.5054,4.4313,15.7159.0669.223.1264.4484.19.6725.7409,2.6278,4.842,1.5111,4.0974-1.13l-3.06-10.851-8.29-29.4024-12.2986-43.6178-14.9546-53.0377L573.49,625.4385l-16.5313-58.63-15.465-54.8481-13.0634-46.33-9.3576-33.1876c-1.4763-5.2359-2.8669-10.5054-4.4313-15.7159-.067-.223-.1264-.4484-.19-.6725-.741-2.6278-4.842-1.5112-4.0974,1.13Z"/><path class="cls-4" d="M476.8663,437.4886l2.8556,10.59,7.77,28.8141,11.404,42.2907,14,51.9194,15.3372,56.8765,15.3789,57.0316,14.4359,53.5342,12.1949,45.2239,8.7369,32.4c1.3791,5.1144,2.6668,10.2644,4.14,15.3528.0634.219.1188.4405.1781.6606.7112,2.6374,4.8113,1.5182,4.0974-1.13l-2.8556-10.59-7.77-28.8142-11.404-42.2906-14-51.92-15.3372-56.8764L520.65,583.5305l-14.4359-53.5342-12.1949-45.2238-8.7369-32.4c-1.3791-5.1144-2.6668-10.2644-4.14-15.3528-.0634-.2189-.1188-.4405-.1781-.6606-.7112-2.6373-4.8114-1.5182-4.0974,1.13Z"/><path class="cls-4" d="M513.0935,819.2931l12.4033-3.3091,29.6554-7.9118,35.8588-9.5669,31.0961-8.2962c5.0037-1.3349,10.0958-2.4966,15.0481-4.0147.0694-.0213.1407-.0375.2108-.0562,2.6395-.7042,1.52-4.8042-1.13-4.0974L623.8332,785.35l-29.6554,7.9118-35.8588,9.5669-31.0962,8.2962c-5.0036,1.335-10.0957,2.4966-15.048,4.0147-.0694.0213-.1407.0376-.2108.0563-2.6395.7042-1.52,4.8041,1.1295,4.0973Z"/><path class="cls-4" d="M500.3462,766.8872l12.0607-3.2269,28.9533-7.7467,34.8849-9.3336,30.1594-8.0694c4.8914-1.3087,9.872-2.4447,14.7119-3.9362.0673-.0208.1365-.0365.2046-.0548,2.6389-.706,1.5193-4.806-1.13-4.0973l-12.0608,3.2269-28.9532,7.7466-34.885,9.3337-30.1594,8.0694c-4.8914,1.3087-9.8719,2.4447-14.7118,3.9362-.0673.0207-.1365.0365-.2046.0547-2.6389.7061-1.5194,4.8061,1.13,4.0974Z"/><path class="cls-4" d="M490.3062,716.8149l11.7232-3.1029,28.1589-7.4534,34.0788-9.02,29.4826-7.8037c4.7783-1.2647,9.6415-2.3626,14.3706-3.8037.0691-.021.14-.0371.21-.0556,2.641-.699,1.5209-4.7988-1.13-4.0973l-11.7232,3.103-28.1589,7.4533-34.0788,9.02-29.4826,7.8037c-4.7783,1.2647-9.6415,2.3626-14.3706,3.8037-.0691.0211-.14.0371-.21.0556-2.6411.699-1.5209,4.7989,1.13,4.0973Z"/><path class="cls-4" d="M475.56,670.5736l12.1645-3.2357,28.96-7.7034,35.2555-9.3779,30.279-8.0542c4.9263-1.31,9.948-2.4393,14.82-3.9422.067-.0206.1359-.0361.2037-.0541,2.64-.7023,1.52-4.8022-1.13-4.0974l-12.1645,3.2358-28.96,7.7033-35.2556,9.3779L489.454,662.48c-4.9263,1.31-9.9481,2.4393-14.82,3.9422-.067.0206-.136.0361-.2037.0542-2.64.7022-1.52,4.8021,1.13,4.0973Z"/><path d="M521.6857,366.9025l3.2389,12.0017,8.8583,32.8242,13.0542,48.3723L562.76,519.1016l17.4392,64.6211,17.67,65.4765,16.4106,60.81,13.8674,51.3855,9.9724,36.9529,3.1032,11.4989c.5321,1.9716.9053,4.0986,1.6227,6.0129.09.24.1364.5054.2034.7538l1.4839-2.6135-42.1107,11.1161L535.616,842.75l-15.357,4.0538,2.6135,1.4839q-1.7478-6.6069-3.49-13.2153-4.6843-17.7581-9.3521-35.5206-6.7536-25.6962-13.4772-51.4-8.0472-30.765-16.0457-61.5426-8.482-32.6469-16.89-65.3129-8.0538-31.31-15.9978-62.6487-6.87-27.149-13.5693-54.341c-3.2275-13.1684-6.4322-26.3457-9.3965-39.5763-4.3515-19.4215-7.3943-39.1188-10.2268-58.8107q-5.2638-36.5938-9.0769-73.3851-.2114-2.0138-.4153-4.0284c-.2692-2.6955-4.5211-2.7233-4.2491,0,1.8028,18.0511,3.9672,36.0727,6.3025,54.0617,3.3077,25.4793,6.7091,51.1,12.03,76.2514,2.4754,11.7018,5.2855,23.335,8.0963,34.96q6.168,25.5093,12.6117,50.9511,7.7481,30.805,15.6531,61.57,8.3727,32.657,16.8405,65.29,8.1765,31.5376,16.4125,63.06,7.1371,27.326,14.31,54.6426,5.2568,20.0218,10.5322,40.0388c1.69,6.4119,3.2627,12.87,5.08,19.2476.0792.278.1479.5594.2218.8389a2.1582,2.1582,0,0,0,2.6135,1.4839l42.1107-11.1161,66.8058-17.6349,15.357-4.0539a2.1568,2.1568,0,0,0,1.4839-2.6134l-3.2389-12.0017-8.8582-32.8242L621.9947,722.285l-15.9226-59.0009-17.4392-64.621-17.67-65.4765-16.4106-60.81-13.8674-51.3854-9.9724-36.9529c-1.5738-5.8319-3.0217-11.7162-4.7259-17.5118-.0734-.25-.1357-.5027-.2034-.7538-.7117-2.6372-4.8119-1.5181-4.0974,1.13Z"/><path class="cls-3" d="M452.2074,384.0424,487.4207,557.07c10.7946,66.93-14.13,135.0192-66.5145,178.0541a172.469,172.469,0,0,1-19.6606,14.0266L274.4662,826.4237,206.1251,717.568s104.2491-73.304,151.4341-98.49L330.2611,440.0718a149.7278,149.7278,0,0,1,2.55-58.0373l12.8312-52.6286"/><path d="M450.1587,384.6072l4.7956,23.564L465.7871,461.4l11.7194,57.5854,7.3,35.8716c4.45,21.8644,3.9024,45.2388-.08,67.12A188.9675,188.9675,0,0,1,446.04,706.7962c-14.0624,17.3662-31.0393,31.4824-50.0668,43.08l-37.56,22.8929L307.7151,803.67,275.0162,823.6l-1.6223.9888,2.9068.7622-23.1215-36.8287L216.3622,729.88,207.96,716.4957l-.7622,2.9068q18.8564-13.2579,37.9336-26.2008c25.0333-17.0672,50.2265-33.9283,75.8907-50.0357,12.3327-7.74,24.7651-15.3852,37.61-22.2538a2.1911,2.1911,0,0,0,.9763-2.3993l-5.0921-33.3918-10.6085-69.5648-9.3917-61.5853q-1.0494-6.8818-2.0989-13.7636a148.9373,148.9373,0,0,1,1.3961-52.9993c3.91-18.5661,8.9309-36.9461,13.4248-55.3783l.4533-1.8591c.6475-2.656-3.4489-3.7893-4.0974-1.13q-6.3093,25.8783-12.6186,51.7568a154.9449,154.9449,0,0,0-2.902,59.1032c.4919,3.3724,1.0247,6.7392,1.5385,10.1083l8.73,57.248L349.2394,578.52l4.13,27.0806c.67,4.3915.9465,9.0985,2.0449,13.409.0518.2035.0647.4247.0965.6329l.9764-2.3992c-24.7057,13.2112-48.2228,28.77-71.5974,44.17q-33.52,22.0838-66.4763,45.0106-6.6921,4.6377-13.36,9.31a2.1648,2.1648,0,0,0-.7622,2.9068l23.1216,36.8286,36.817,58.6432,8.4025,13.3839a2.1586,2.1586,0,0,0,2.9068.7622l23.8372-14.529,49.6787-30.28,43.5963-26.5723q4.6526-2.8357,9.3052-5.6716A182.9561,182.9561,0,0,0,434.56,725.722a192.0564,192.0564,0,0,0,48.6482-79.7783c8.8738-28.4518,11.6893-60.0707,6.25-89.4941-1.5947-8.6264-3.5019-17.207-5.2513-25.803l-11.1063-54.573-11.6834-57.409-6.8282-33.5517-.3328-1.6353c-.5449-2.6776-4.6415-1.5443-4.0974,1.13Z"/><path class="cls-4" d="M220.994,741.3874q7.9849-5.2558,15.9875-10.4846,19.3884-12.6857,38.8316-25.2873,23.9326-15.5082,47.9788-30.8407,11.5446-7.3458,23.1394-14.6124,5.3323-3.3365,10.6826-6.6444a83.7869,83.7869,0,0,0,11.3838-7.7933,46.5381,46.5381,0,0,0,15.1085-26.8785,52.69,52.69,0,0,0,.0066-16.3391l-3.68-26.6064-5.6516-40.866-4.2466-30.706c-.39-2.8225-.853-5.6575-1.0268-8.5014A56.3322,56.3322,0,0,1,371.2506,479.2c.69-2.888,1.4673-5.7541,2.2029-8.63a12.8536,12.8536,0,0,0,.8008-4.0618c-.39-4.8587-1.3013-9.7319-1.9472-14.562l-2.49-18.6257-.4446-3.3252a2.1985,2.1985,0,0,0-2.1246-2.1245,2.1346,2.1346,0,0,0-2.1245,2.1245l4.1865,31.3094a52.34,52.34,0,0,1,.7,5.2369,15.6622,15.6622,0,0,1-.932,3.982c-.7309,2.8294-1.4918,5.652-2.1481,8.5a58.8676,58.8676,0,0,0-1.6855,16.5375c.1236,2.1953.4288,4.3674.73,6.5431l3.2841,23.747,5.5639,40.2313,4.5436,32.8538c.2856,2.0649.5861,4.1283.8568,6.1952a44.4022,44.4022,0,0,1-.1014,11.9077,42.5322,42.5322,0,0,1-14.832,26.2836c-3.3727,2.8214-7.2849,4.9573-11.0139,7.2649q-10.9925,6.8025-21.9121,13.7216-24.073,15.2171-47.9753,30.7022-20.9826,13.5543-41.8942,27.2178-11.3178,7.3914-22.6156,14.813-.5142.3381-1.0282.6763c-2.2746,1.4971-.1484,5.1783,2.1446,3.669Z"/><path class="cls-4" d="M446.5419,452.7367l2.9634,24.2531,6.2031,50.7685,5.4008,44.202c.386,3.16.8078,6.3173,1.1584,9.4812a175.5815,175.5815,0,0,1,.15,32.985c-1.9346,24.2466-9.6211,47.8465-24.658,67.1831-10.2062,13.1247-22.9779,23.7191-37.1642,32.2656l-29.15,17.5616-44.0934,26.5641-42.3675,25.5243-23.9209,14.4112-1.139.6861c-2.34,1.41-.2059,5.0851,2.1446,3.669l17.0463-10.2695L318.89,768.06l45.4567-27.3855,34.0926-20.539q3.7288-2.2465,7.4578-4.493a130.3927,130.3927,0,0,0,23.569-18.4332,122.6268,122.6268,0,0,0,34.3217-62.5869,173.25,173.25,0,0,0,2.3491-56.29l-4.59-37.5635-6.4027-52.4013-4.1462-33.9342-.2073-1.6964c-.3274-2.68-4.58-2.7126-4.2491,0Z"/><path class="cls-4" d="M411.2084,517.7466A298.2628,298.2628,0,0,1,421.8451,570.12c1.9459,17.6231,2.4222,35.6082.052,53.2159-2.0213,15.0165-6.1925,30.3406-14.9616,42.9-4.7638,6.8226-10.9735,12.06-17.9034,16.5993-2.2483,1.4729-4.5428,2.8716-6.8385,4.2684l-14.918,9.0763-26.2413,15.9657-31.3969,19.1025-31.02,18.8735-24.7053,15.0311L241.3746,772.78l-.5714.3477c-2.3328,1.4193-.2,5.0955,2.1446,3.669l8.8422-5.38,22.5544-13.7225,30.31-18.4409,32.1068-19.5344,27.8656-16.9539,17.8731-10.8744c7.8007-4.7461,15.77-9.4808,22.1151-16.1365,10.44-10.9512,16.2371-25.5662,19.422-40.1526,3.77-17.2664,4.2861-35.19,3.1672-52.7772A299.71,299.71,0,0,0,418.6526,528.8q-1.5421-6.127-3.3469-12.1833c-.7791-2.6144-4.8813-1.501-4.0973,1.13Z"/><path class="cls-4" d="M350.2283,571.7123l13.9387.3537,33.2124.843,40.4087,1.0256,34.7287.8814c5.6466.1434,11.3408.5155,16.99.4313.078-.0012.1565.0039.2346.0059,2.7353.0694,2.7339-4.18,0-4.2491l-13.9387-.3538-33.2124-.8429-40.4087-1.0257L367.4529,567.9c-5.6466-.1433-11.3408-.5154-16.99-.4312-.078.0012-.1565-.004-.2346-.006-2.7353-.0694-2.7339,4.18,0,4.2492Z"/><path class="cls-4" d="M239.8043,695.31,246.6364,706.2l16.2656,25.9253,19.73,31.4463,17.0567,27.1861c2.7594,4.3982,5.4156,8.8854,8.2886,13.211.04.0606.0775.1234.1161.1851,1.45,2.311,5.128.1808,3.669-2.1446l-6.832-10.8894L288.6643,765.194l-19.73-31.4464-17.0566-27.1861c-2.76-4.3982-5.4156-8.8854-8.2886-13.211-.04-.0606-.0775-.1234-.1162-.1851-1.45-2.311-5.1279-.1807-3.669,2.1446Z"/><path class="cls-4" d="M292.21,661.317l6.9326,11.1381,16.646,26.7442,20.0685,32.2426,17.4558,28.0452c2.8024,4.5024,5.4976,9.0966,8.4177,13.5242.0411.0623.0791.1271.1186.1905,1.442,2.3168,5.12.1859,3.669-2.1446l-6.9326-11.1381L341.94,733.175l-20.0684-32.2427-17.4559-28.0452c-2.8023-4.5023-5.4976-9.0965-8.4177-13.5241-.0411-.0624-.0791-.1271-.1186-.1906-1.442-2.3168-5.12-.1859-3.669,2.1446Z"/><path class="cls-4" d="M332.201,635.544l9.8662,8.9279,23.7886,21.5262,28.6893,25.9607,24.8011,22.4423c4.0216,3.6391,7.9774,7.3714,12.0744,10.926.0554.0481.109.0986.1634.1479,2.0234,1.8309,5.0375-1.1651,3.0046-3.0046l-9.8662-8.9278-23.7886-21.5262-28.6893-25.9607-24.8011-22.4423c-4.0216-3.6391-7.9774-7.3715-12.0744-10.926-.0554-.0481-.109-.0987-.1634-.148-2.0234-1.8309-5.0375,1.1651-3.0046,3.0046Z"/><path class="cls-4" d="M356.7454,621.21l12.2287,2.8112,29.4932,6.78,35.5649,8.1758,30.8334,7.0882c4.9606,1.14,9.911,2.4129,14.9,3.4252.0685.0139.1365.0314.2046.0471,2.6616.6118,3.7978-3.484,1.13-4.0974l-12.2287-2.8112-29.4932-6.78-35.5649-8.1759L372.98,620.5845c-4.9607-1.14-9.9111-2.4129-14.9-3.4253-.0685-.0139-.1365-.0313-.2046-.047-2.6616-.6119-3.7978,3.484-1.13,4.0973Z"/><path d="M450.1587,384.6072l4.7956,23.564L465.7871,461.4l11.7194,57.5854,7.3,35.8716c4.45,21.8644,3.9024,45.2388-.08,67.12A188.9675,188.9675,0,0,1,446.04,706.7962c-14.0624,17.3662-31.0393,31.4824-50.0668,43.08l-37.56,22.8929L307.7151,803.67,275.0162,823.6l-1.6223.9888,2.9068.7622-23.1215-36.8287L216.3622,729.88,207.96,716.4957l-.7622,2.9068q18.8564-13.2579,37.9336-26.2008c25.0333-17.0672,50.2265-33.9283,75.8907-50.0357,12.3327-7.74,24.7651-15.3852,37.61-22.2538a2.1911,2.1911,0,0,0,.9763-2.3993l-5.0921-33.3918-10.6085-69.5648-9.3917-61.5853q-1.0494-6.8818-2.0989-13.7636a148.9373,148.9373,0,0,1,1.3961-52.9993c3.91-18.5661,8.9309-36.9461,13.4248-55.3783l.4533-1.8591c.6475-2.656-3.4489-3.7893-4.0974-1.13q-6.3093,25.8783-12.6186,51.7568a154.9449,154.9449,0,0,0-2.902,59.1032c.4919,3.3724,1.0247,6.7392,1.5385,10.1083l8.73,57.248L349.2394,578.52l4.13,27.0806c.67,4.3915.9465,9.0985,2.0449,13.409.0518.2035.0647.4247.0965.6329l.9764-2.3992c-24.7057,13.2112-48.2228,28.77-71.5974,44.17q-33.52,22.0838-66.4763,45.0106-6.6921,4.6377-13.36,9.31a2.1648,2.1648,0,0,0-.7622,2.9068l23.1216,36.8286,36.817,58.6432,8.4025,13.3839a2.1586,2.1586,0,0,0,2.9068.7622l23.8372-14.529,49.6787-30.28,43.5963-26.5723q4.6526-2.8357,9.3052-5.6716A182.9561,182.9561,0,0,0,434.56,725.722a192.0564,192.0564,0,0,0,48.6482-79.7783c8.8738-28.4518,11.6893-60.0707,6.25-89.4941-1.5947-8.6264-3.5019-17.207-5.2513-25.803l-11.1063-54.573-11.6834-57.409-6.8282-33.5517-.3328-1.6353c-.5449-2.6776-4.6415-1.5443-4.0974,1.13Z"/><path d="M746.5761,922.1312l-8.1922-20.58-.0938.0294c-2.7466-6.12-18.7734-36.4467-64.5056-30.5684l7.5834,26.24a21.5932,21.5932,0,0,1-14.2986,26.6038l-87.15,27.257,1.378,6.42A69.5634,69.5634,0,0,0,587.58,975h0Z"/><path d="M748.6248,921.5664l-7.1617-17.9912-1.0305-2.5888a2.1683,2.1683,0,0,0-2.6135-1.4839l-.0938.0294,2.3993.9764a52.53,52.53,0,0,0-10.6938-15.1674,57.924,57.924,0,0,0-29.0672-15.65,79.7657,79.7657,0,0,0-26.5791-.8036,2.159,2.159,0,0,0-2.0487,2.6894c2.5143,8.7,5.055,17.3927,7.5431,26.1A19.7121,19.7121,0,0,1,672.54,918.668c-2.6444,2.0439-5.6461,3.0172-8.7574,3.99l-26.9961,8.4433-36.2379,11.3337c-6.9578,2.1761-13.9716,4.2244-20.887,6.5326-.1017.034-.2048.0641-.3071.0961a2.1769,2.1769,0,0,0-1.4838,2.6134c.5069,2.3619.9946,4.7288,1.5247,7.0857a71.86,71.86,0,0,0,6.35,17.3092,2.1408,2.1408,0,0,0,2.3993.9764l15.9034-5.2882,37.9325-12.6131,45.8517-15.2465,39.8226-13.2417c6.4025-2.1289,12.8549-4.1476,19.2188-6.3905.0884-.0312.1781-.0592.2671-.0888,2.5822-.8587,1.4756-4.9637-1.13-4.0974l-15.9033,5.2881-37.9325,12.6132L646.3238,953.23l-39.8226,13.2416-13.0381,4.3354c-2.0355.6768-4.2061,1.2123-6.1807,2.0552-.0854.0364-.1789.06-.2672.0888l2.3993.9764a67.6864,67.6864,0,0,1-6.02-16.7382c-.4841-2.2119-.9512-4.4278-1.4264-6.6417l-1.4839,2.6135,17.8512-5.5831,36.3621-11.3726,29.0341-9.0807a55.3527,55.3527,0,0,0,7.2133-2.5293,23.8623,23.8623,0,0,0,13.37-22.5022c-.2622-4.9017-2.1758-9.8261-3.5279-14.5047l-4.6431-16.0658-.3109-1.0755-2.0486,2.6894c13.5362-1.7109,27.7022-.6406,39.9224,5.805a50.681,50.681,0,0,1,11.7687,8.4691,54.788,54.788,0,0,1,4.1861,4.4941q.4287.5154.8447,1.041c.0778.0983.48.62.2.2532q.2305.3016.4575.6061.7589,1.02,1.4693,2.0749a45.9692,45.9692,0,0,1,3.8228,6.7727,2.13,2.13,0,0,0,2.3993.9764l.0938-.0295-2.6135-1.4838,7.1618,17.9912,1.0305,2.5888a2.19,2.19,0,0,0,2.6134,1.4839A2.1394,2.1394,0,0,0,748.6248,921.5664Z"/><path d="M617.6177,938.999a38.8763,38.8763,0,0,0-4.4665-9.9531,28.5223,28.5223,0,0,0-24.4094-12.42,33.2632,33.2632,0,0,0-9.5955,1.9745l-8.0677,2.7278c-2.5766.8712-1.471,4.9766,1.13,4.0973l6.544-2.2126a42.873,42.873,0,0,1,7.4409-2.1209,24.4947,24.4947,0,0,1,22.39,8.8858c2.4376,3.0311,3.7161,6.5222,4.9371,10.1509.8675,2.5783,4.9728,1.4724,4.0973-1.13Z"/><path class="cls-3" d="M663.3642,873.3321a20.8447,20.8447,0,0,0,.6719,13.5944"/><path d="M661.3155,872.7673a17.33,17.33,0,0,0-.8222,4.52,23.9971,23.9971,0,0,0,1.4941,10.2038,2.1723,2.1723,0,0,0,2.6135,1.4839,2.1494,2.1494,0,0,0,1.4839-2.6135,23.9564,23.9564,0,0,1-.8431-2.7005q-.1559-.6371-.2747-1.2823c-.0347-.1883-.0658-.3771-.097-.5659-.1186-.7171.0347.3887-.0448-.316a22.07,22.07,0,0,1-.0828-4.2095c.02-.261.0507-.5207.0764-.7812.0474-.4823-.0725.4172-.0007-.0066.0224-.1317.04-.2641.0622-.3958.0674-.4.1471-.7989.2424-1.1936a9.4288,9.4288,0,0,1,.29-1.0134,2.1358,2.1358,0,0,0-1.4839-2.6134,2.18,2.18,0,0,0-2.6134,1.4838Z"/><path class="cls-3" d="M653.1967,873.4693a20.845,20.845,0,0,0-3.3,13.2049"/><path d="M651.3622,872.397a17.1761,17.1761,0,0,0-2.0756,4.0765,23.9675,23.9675,0,0,0-1.5143,10.2007,2.1246,2.1246,0,1,0,4.2491,0,23.8538,23.8538,0,0,1-.017-2.9436c.0247-.4191.0644-.8362.1091-1.2535.071-.6622-.0716.412.0308-.2321.0306-.1926.0613-.3849.0957-.5768a21.6358,21.6358,0,0,1,1.1439-4.0652,4.1408,4.1408,0,0,1,.1586-.3935c-.0231-.0008-.2.4484-.0027.0159.1015-.2226.2033-.4449.3113-.6645q.2827-.5749.6059-1.1289a9.3947,9.3947,0,0,1,.5742-.89,2.1305,2.1305,0,0,0-.7622-2.9068,2.1881,2.1881,0,0,0-2.9068.7622Z"/><path class="cls-3" d="M645.8754,869.6779a20.8446,20.8446,0,0,0-8.247,10.8279"/><path d="M644.8031,867.8434a15.7547,15.7547,0,0,0-2.4711,1.8592,23.3317,23.3317,0,0,0-4.4446,5.3209,25.7649,25.7649,0,0,0-2.3077,4.9175,2.1374,2.1374,0,0,0,1.4839,2.6135,2.1781,2.1781,0,0,0,2.6134-1.4839c.1209-.3413.25-.6792.3822-1.0161.1524-.3869-.1091.2347.0582-.1395.0816-.1826.1633-.365.2486-.546q.4343-.9221.9507-1.8024.4747-.8085,1.0168-1.5748.1228-.1737.2491-.345c.0555-.0753.27-.4448.1253-.1709-.1421.2682.0637-.0785.1254-.155q.1434-.1779.29-.3527a20.9354,20.9354,0,0,1,2.0009-2.0729q.4067-.3663.8339-.7092c.4346-.3479-.3381.2479-.0279.02.1075-.0791.2143-.1592.3231-.2366.2251-.16.4539-.32.6939-.4571a2.1249,2.1249,0,1,0-2.1446-3.669Z"/><path class="cls-5" d="M468.78,183.724c26.3434-.7665,51.2008,12.4726,65.4173,29.2456L632.3405,328.762l104.8341,68.93c-8.1128,7.2829-17.9873,19.0683-27.3746,33.2425-6.0023,9.0631-16.8572,47.6029-20.6274,55.5144L579.8839,426.4155a131.6417,131.6417,0,0,1-31.0931-23.5533L462.2426,276.1941l-45.4332-88.98Z"/><path d="M468.78,185.8486A82.8543,82.8543,0,0,1,531.8115,213.45c3.5863,4.0727,7.0318,8.2762,10.54,12.4155l23.82,28.1036,28.8034,33.9832,24.6017,29.0258,7.8547,9.2672c1.1013,1.2993,2.1374,2.7747,3.36,3.9643a23.647,23.647,0,0,0,3.5781,2.4266l10.19,6.7L677.8127,361.2l35.9592,23.6437,21.3194,14.0179,1.011.6647-.43-3.3368A146.1465,146.1465,0,0,0,718.29,415.45c-4.6349,5.9875-9.63,12.1379-12.7791,19.0754-5.2889,11.6517-8.9238,24.0826-12.9433,36.2077-.9977,3.0094-1.998,6.0186-3.0538,9.0083-.413,1.17-.8337,2.3368-1.28,3.4941-.169.4378-.3411.8745-.52,1.3082-.0032.0077-.1646.3871-.3747.8327l2.9068-.7622L665.498,471.0208l-48.3748-26.5729-34.32-18.8525A141.0827,141.0827,0,0,1,560.1508,410.47c-3.161-2.6366-6.0038-5.5835-9.0712-8.3117a3.607,3.607,0,0,1-.6819-.7013c-.6536-.8513-1.221-1.7869-1.8263-2.6728l-21.4076-31.3312-31.5084-46.1143-25.741-37.6734c-1.8506-2.7085-3.747-5.3916-5.5545-8.1292a52.027,52.027,0,0,1-2.6686-5.0866L439.76,227.4967l-19.9867-39.1438-1.1293-2.2116-1.8345,3.1968,45.461-3.0524,6.51-.4371c2.714-.1822,2.7342-4.4327,0-4.2491l-45.461,3.0524-6.51.4371a2.1533,2.1533,0,0,0-1.8345,3.1969l14.9928,29.3631,24.2985,47.5886c1.98,3.8779,3.8794,7.811,5.9454,11.644a45.4267,45.4267,0,0,0,2.6263,3.941l22.0127,32.2167,31.7447,46.46,25.1813,36.8541c1.6779,2.4558,3.3147,4.9467,5.0369,7.3718a17.4934,17.4934,0,0,0,2.0545,2.2283q4.5727,4.5234,9.5728,8.5861a137.15,137.15,0,0,0,20.3717,13.7107q12.429,6.8365,24.8659,13.6591l48.52,26.6529,34.1337,18.75,1.7677.971a2.1458,2.1458,0,0,0,2.9068-.7622,115.379,115.379,0,0,0,4.6621-12.6691c2.0883-6.2377,4.1135-12.4963,6.2289-18.7249,1.9967-5.8793,4.0123-11.7775,6.4248-17.5021,2.6424-6.27,6.6309-11.6759,10.6719-17.1241a150.4806,150.4806,0,0,1,19.6821-22.3067,2.1484,2.1484,0,0,0-.43-3.3368l-15.2912-10.0542L688.77,363.3259l-35.4409-23.303c-6.4867-4.2651-12.92-8.6289-19.4675-12.8-.1423-.0906-.2786-.1988-.4264-.28.1956.1079.458.5345.2947.1844a8.0844,8.0844,0,0,0-1.2215-1.4412L626.4,318.4779,603.8769,291.905l-28.78-33.9561L549.4,227.6308q-6.6579-7.855-13.3157-15.71A87.7622,87.7622,0,0,0,487.0152,183.21,81.8488,81.8488,0,0,0,468.78,181.6C466.0508,181.669,466.04,185.9184,468.78,185.8486Z"/><path d="M689.228,486.4576c-4.0959-2.7126-1.4973-14.4224,5.7749-29.6835l20.6338,11.2613C703.87,481.6444,693.4852,489.2771,689.228,486.4576Z"/><path d="M690.3,484.6231c-.3721-.2586.2734.2708-.0211-.0281-.1034-.1051-.2036-.2106-.2982-.3236.3359.401-.1444-.3081-.2319-.4975.2145.4644.0037-.0112-.0265-.1279-.0457-.1761-.1008-.3477-.1421-.5252-.0435-.1871-.0793-.3766-.11-.5662.0709.4456-.0178-.2179-.02-.2522a21.7957,21.7957,0,0,1,.58-6.032,86.6924,86.6924,0,0,1,6.8066-18.424l-2.9068.7622,18.0377,9.8445,2.5961,1.4168-.43-3.3368c-4.5961,5.3-9.4983,10.63-15.2049,14.7629a34.0811,34.0811,0,0,1-3.0743,2.0066,14.738,14.738,0,0,1-2.5291,1.2034c-.38.13-.7664.2256-1.1552.3254q-.1812.039-.3642.07.36-.042.1249-.0173c-.1963.018-.391.0241-.5879.0312a3.966,3.966,0,0,1-.4762-.023c.5691.0481.0956.0182-.03-.0267-.1361-.0487-.2784-.0817-.4148-.1315.564.2058.0062-.0293-.1227-.1106-2.3191-1.4639-4.4536,2.2115-2.1446,3.669,3.8617,2.4375,8.95-.5729,12.152-2.7843,6.3658-4.3967,11.7868-10.1534,16.8313-15.97a2.153,2.153,0,0,0-.43-3.3368l-18.0377-9.8444-2.5961-1.4169a2.1467,2.1467,0,0,0-2.9068.7622c-3.1148,6.563-6.1529,13.4705-7.4812,20.6564-.7295,3.9462-1.3092,9.3088,2.4685,11.9339C690.4064,489.8561,692.5329,486.1744,690.3,484.6231Z"/><path class="cls-4" d="M709.8,430.9346c9.3873-14.1742,19.2618-25.96,27.3746-33.2425l15.0922,9.9233,24.8252,16.323L738.5841,480.56l-22.9474-12.5242-20.6338-11.2613A216.2017,216.2017,0,0,1,709.8,430.9346Z"/><path d="M711.6345,432.0069c7.8066-11.7624,16.5157-23.3263,27.0424-32.8125l-2.5746.3322,15.1209,9.9422,17.64,11.5988,7.1561,4.7052-.7622-2.9068-13.0308,19.16L741.48,472.5312l-4.7308,6.9561,2.9068-.7622-19.1539-10.4537-15.1984-8.2949-9.2289-5.0369.7622,2.9068a216.0084,216.0084,0,0,1,14.7971-25.84c1.512-2.2879-2.1663-4.4185-3.669-2.1446a216.0084,216.0084,0,0,0-14.7971,25.8395,2.1669,2.1669,0,0,0,.7622,2.9068l18.8761,10.302,15.9487,8.7045,8.7564,4.779a2.18,2.18,0,0,0,2.9068-.7622l13.0308-19.16,20.7463-30.5049,4.7308-6.9561a2.1589,2.1589,0,0,0-.7622-2.9068l-17.0919-11.2382-13.4273-8.8287-9.3982-6.1794a2.1621,2.1621,0,0,0-2.5746.3322c-10.7842,9.7183-19.71,21.6234-27.7068,33.6725C706.449,432.1472,710.1276,434.2774,711.6345,432.0069Z"/><path class="cls-5" d="M465.303,187.78l-74.8222,2.177c-12.1835.3545-57.497,28.0416-62.2063,46.0741,0,0,5.3228,141.3765,1.5431,200.8917,122.4846-26.6337,216.0731-4.3094,216.0731-4.3094L503.197,272.1487"/><path d="M465.303,185.6555l-21.4223.6233-37.6555,1.0956-12.8229.3731a30.3493,30.3493,0,0,0-6.9257.73c-5.864,1.5257-11.46,4.4015-16.75,7.292a164.4766,164.4766,0,0,0-19.8307,12.7817,100.5382,100.5382,0,0,0-16.9718,15.4065,38.7887,38.7887,0,0,0-5.1382,7.5047,11.99,11.99,0,0,0-1.6294,4.7572c-.066,5.3324.3781,10.7207.5506,16.0494q.5841,18.0393,1.0423,36.0824.6,23.5673.9623,47.14c.2441,16.5214.3861,33.0453.3219,49.5686-.0561,14.4289-.2346,28.8661-.8817,43.2821q-.1926,4.2924-.4594,8.5809a2.1477,2.1477,0,0,0,2.6894,2.0487A571.68,571.68,0,0,1,456.22,425.998q23.0691.1871,46.0706,2.3127,8.7088.8207,17.3839,1.96l.42.0557c.67.089-.2344-.0318.1624.0216q.4608.0621.9213.1253.9466.13,1.8925.264,1.7412.2469,3.48.509,3.0288.4566,6.05.9631c4.2119.7078,8.38,1.5822,12.5655,2.4158.0534.0107.1065.0247.16.0373a2.1476,2.1476,0,0,0,2.6135-2.6135l-4.2608-16.0141-10.2268-38.4376-12.2974-46.22-10.6778-40.1326c-1.7161-6.45-3.2371-12.9929-5.1579-19.3861-.0272-.0906-.0488-.1831-.0731-.2745-.7024-2.64-4.8023-1.52-4.0973,1.13l4.2608,16.0141,10.2268,38.4377,12.2974,46.22,10.6778,40.1326,3.497,13.1438c.5476,2.0578.9534,4.2319,1.6609,6.2424.0311.0884.0489.1837.073.2744l2.6135-2.6134c-3.398-.81-6.8482-1.4294-10.2869-2.0341-9.6858-1.7032-19.4473-2.9928-29.2279-4.0087-14.7372-1.5306-29.543-2.3976-44.3558-2.6855a572.4207,572.4207,0,0,0-57.3052,1.7729,578.558,578.558,0,0,0-67.2936,9.4377q-4.3737.8791-8.7333,1.827l2.6894,2.0487c.8479-13.4111,1.1118-26.86,1.2574-40.2942.1747-16.1179.1054-32.2382-.0727-48.3557q-.2659-24.0812-.8422-48.1576-.4584-19.8493-1.0707-39.6949-.3417-11.1079-.7354-22.2144c-.0224-.6208-.02-1.2486-.0681-1.8681-.0078-.1-.01-.2015-.0113-.3015.011.7124-.0361.3086.0675.0482.1-.2513.1644-.5209.2553-.7762a9.0466,9.0466,0,0,1,.645-1.522c2.7771-5.7033,7.3854-10.273,12.1086-14.5334a142.9411,142.9411,0,0,1,18.8714-14.1656,133.2938,133.2938,0,0,1,18.8891-10.2633,46.0362,46.0362,0,0,1,6.84-2.3672c.46-.1105.9233-.1994,1.3887-.2856.626-.1161-.1165-.0043.1667-.0273.2449-.02.4879-.0458.7335-.0583.1549-.0078.31-.0094.4652-.0143,2.86-.09,5.7209-.1664,8.5813-.25l35.673-1.038,28.7078-.8352,1.51-.044c2.7284-.0794,2.74-4.3288,0-4.2491Z"/><rect class="cls-2" x="30.3043" y="312.5154" width="752.6269" height="228.0366"/><path d="M782.9313,538.4274H41.6494c-3.2946,0-6.7835-.3285-10.0653,0-.4176.0418-.8589,0-1.28,0l2.1246,2.1246V312.5154L30.3043,314.64H771.5862c3.2946,0,6.7835.3285,10.0653,0,.4176-.0418.8589,0,1.28,0l-2.1246-2.1246V540.552c0,2.7341,4.2491,2.7386,4.2491,0V312.5154a2.1555,2.1555,0,0,0-2.1245-2.1246H60.8556c-9.7519,0-19.5207-.1674-29.2715,0-.4264.0074-.8534,0-1.28,0a2.1554,2.1554,0,0,0-2.1245,2.1246V540.552a2.1555,2.1555,0,0,0,2.1245,2.1246H752.38c9.7519,0,19.5207.1674,29.2715,0,.4263-.0074.8534,0,1.28,0C785.6654,542.6766,785.67,538.4274,782.9313,538.4274Z"/><rect class="cls-2" x="96.871" y="386.8752" width="619.4936" height="107.6446"/><path d="M716.3646,492.3952H106.2092c-2.7216,0-5.5716-.2429-8.2848,0-.3452.0309-.706,0-1.0534,0l2.1246,2.1246V386.8752L96.871,389H707.0264c2.7216,0,5.5716.2429,8.2848,0,.3451-.0309.706,0,1.0534,0l-2.1246-2.1245V494.52c0,2.7341,4.2491,2.7386,4.2491,0V386.8752a2.1555,2.1555,0,0,0-2.1245-2.1246H122.018c-8.0263,0-16.0682-.1456-24.0936,0-.3509.0064-.7024,0-1.0534,0a2.1554,2.1554,0,0,0-2.1245,2.1246V494.52a2.1554,2.1554,0,0,0,2.1245,2.1245H691.2176c8.0263,0,16.0682.1456,24.0936,0,.3509-.0063.7024,0,1.0534,0C719.0987,496.6443,719.1032,492.3952,716.3646,492.3952Z"/><rect class="cls-6" x="91.5626" y="386.8752" width="406.677" height="107.6446"/><path d="M498.24,492.3952H108.0708c-5.2286,0-10.5966-.3522-15.8167,0-.2283.0154-.4624,0-.6915,0l2.1246,2.1246V386.8752L91.5626,389H481.7315c5.2285,0,10.5965.3522,15.8166,0,.2283-.0154.4624,0,.6915,0l-2.1245-2.1245V494.52c0,2.7341,4.2491,2.7386,4.2491,0V386.8752a2.1555,2.1555,0,0,0-2.1246-2.1246H108.0708c-5.2687,0-10.5487-.1008-15.8167,0-.23.0044-.4611,0-.6915,0a2.1555,2.1555,0,0,0-2.1246,2.1246V494.52a2.1554,2.1554,0,0,0,2.1246,2.1245H481.7315c5.2686,0,10.5486.1008,15.8166,0,.23-.0044.4612,0,.6915,0C500.9737,496.6443,500.9783,492.3952,498.24,492.3952Z"/><path d="M89.6151,386.8752v94.4131c0,4.3363-.1763,8.7145,0,13.0483.0025.0609,0,.1223,0,.1832,0,2.7341,4.2491,2.7386,4.2491,0V400.1067c0-4.3364.1763-8.7145,0-13.0484-.0025-.0608,0-.1222,0-.1831,0-2.7341-4.2491-2.7387-4.2491,0Z"/><path d="M134.7817,386.8752v94.4131c0,4.3363-.1762,8.7145,0,13.0483.0025.0609,0,.1223,0,.1832,0,2.7341,4.2492,2.7386,4.2492,0V400.1067c0-4.3364.1762-8.7145,0-13.0484-.0025-.0608,0-.1222,0-.1831,0-2.7341-4.2492-2.7387-4.2492,0Z"/><path d="M179.9484,386.8752v94.4131c0,4.3363-.1762,8.7145,0,13.0483.0025.0609,0,.1223,0,.1832,0,2.7341,4.2491,2.7386,4.2491,0V400.1067c0-4.3364.1763-8.7145,0-13.0484-.0024-.0608,0-.1222,0-.1831,0-2.7341-4.2491-2.7387-4.2491,0Z"/><path d="M225.1151,386.8752v94.4131c0,4.3363-.1763,8.7145,0,13.0483.0025.0609,0,.1223,0,.1832,0,2.7341,4.2491,2.7386,4.2491,0V400.1067c0-4.3364.1763-8.7145,0-13.0484-.0025-.0608,0-.1222,0-.1831,0-2.7341-4.2491-2.7387-4.2491,0Z"/><path d="M270.2817,386.8752v94.4131c0,4.3363-.1762,8.7145,0,13.0483.0025.0609,0,.1223,0,.1832,0,2.7341,4.2492,2.7386,4.2492,0V400.1067c0-4.3364.1762-8.7145,0-13.0484-.0025-.0608,0-.1222,0-.1831,0-2.7341-4.2492-2.7387-4.2492,0Z"/><path d="M315.4484,386.8752v94.4131c0,4.3363-.1762,8.7145,0,13.0483.0025.0609,0,.1223,0,.1832,0,2.7341,4.2491,2.7386,4.2491,0V400.1067c0-4.3364.1763-8.7145,0-13.0484-.0024-.0608,0-.1222,0-.1831,0-2.7341-4.2491-2.7387-4.2491,0Z"/><path d="M360.6151,386.8752v94.4131c0,4.3363-.1763,8.7145,0,13.0483.0024.0609,0,.1223,0,.1832,0,2.7341,4.2491,2.7386,4.2491,0V400.1067c0-4.3364.1763-8.7145,0-13.0484-.0025-.0608,0-.1222,0-.1831,0-2.7341-4.2491-2.7387-4.2491,0Z"/><path d="M405.7817,386.8752v94.4131c0,4.3363-.1762,8.7145,0,13.0483.0025.0609,0,.1223,0,.1832,0,2.7341,4.2492,2.7386,4.2492,0V400.1067c0-4.3364.1762-8.7145,0-13.0484-.0025-.0608,0-.1222,0-.1831,0-2.7341-4.2492-2.7387-4.2492,0Z"/><path d="M450.9484,386.8752v94.4131c0,4.3363-.1762,8.7145,0,13.0483.0025.0609,0,.1223,0,.1832,0,2.7341,4.2491,2.7386,4.2491,0V400.1067c0-4.3364.1763-8.7145,0-13.0484-.0024-.0608,0-.1222,0-.1831,0-2.7341-4.2491-2.7387-4.2491,0Z"/><path d="M496.1151,386.8752v94.4131c0,4.3363-.1763,8.7145,0,13.0483.0024.0609,0,.1223,0,.1832,0,2.7341,4.2491,2.7386,4.2491,0V400.1067c0-4.3364.1763-8.7145,0-13.0484-.0025-.0608,0-.1222,0-.1831,0-2.7341-4.2491-2.7387-4.2491,0Z"/><path class="cls-5" d="M386.4792,300.15,242.4338,333.3435l24.1772,98.27c-10.9673-.8875-27.1877.4213-44.9366,4.0411-9.8082,2-46.1434,22.43-53.9714,25.1L139.9125,321.1661c-9.788-41.9,26.35-69.7123,59.5721-84.32l22.1474-7.96L348.38,192.7108a177.8239,177.8239,0,0,1,43.6329-6.7532l56.3508-1.64"/><path d="M385.9144,298.1015l-14.3517,3.3071-34.4558,7.94-41.5164,9.5669-36.0137,8.2989c-5.7935,1.335-11.7531,2.3843-17.47,4.0257-.0778.0224-.1588.0366-.2377.0548a2.1577,2.1577,0,0,0-1.4839,2.6135l8.2149,33.39,12.99,52.7985,2.9725,12.0818,2.0487-2.6894a133.8533,133.8533,0,0,0-26.5576,1.0276q-8.3232,1.0155-16.56,2.6154a40.7674,40.7674,0,0,0-6.9975,1.94c-12.14,4.6606-23.6469,11.0743-35.2324,16.9321-2.8808,1.4566-5.764,2.91-8.675,4.3054-1.1042.5293-2.2124,1.0513-3.3323,1.5468q-.35.1546-.701.3056c-.23.0983.0724-.03.0982-.041-.1281.0533-.2562.1071-.3852.1583-.3744.1484-.749.2946-1.13.4264l2.6135,1.4838-1.5839-7.9558-4.0984-20.5856-5.5509-27.8816-6.0013-30.1437-5.4584-27.4172-3.84-19.2891c-.7646-3.8406-1.7027-7.7217-2.2614-11.5927-2.011-13.9331,1.7142-27.66,9.6179-39.1927,7.8486-11.4528,19.0314-20.3926,30.8112-27.5353a143.5691,143.5691,0,0,1,18.6167-9.6708c.4422-.186-.1444.0468.1948-.084.1733-.0668.35-.1258.5248-.1886l1.9149-.6882,6.19-2.2247c4.8045-1.7267,9.5805-3.7237,14.4931-5.1258l13.5723-3.8737,24.3343-6.9452,29.2338-8.3437,28.4-8.1056,21.3982-6.1072Q344.6,196,348.9414,194.7605a181.2322,181.2322,0,0,1,44.3843-6.7165l23.1839-.6746,27.1247-.7892,4.73-.1376c2.7284-.0794,2.74-4.3288,0-4.2491l-17.3631.5052-29.3027.8526c-8.9407.26-17.8556.4815-26.7468,1.6019a198.7853,198.7853,0,0,0-29.729,6.249l-16.1653,4.6137-26.0279,7.4287-29.8059,8.5069-27.4248,7.8273-19.3013,5.5088c-2.511.7167-5.0075,1.398-7.4637,2.2807-7.7325,2.7792-15.7358,5.1776-23.21,8.6061-12.8426,5.8907-25.1672,13.3062-35.6726,22.8126-10.2222,9.25-18.7244,20.8771-22.2071,34.3777a57.1136,57.1136,0,0,0-1.3146,21.3971c.3439,2.7164.9183,5.3794,1.452,8.06l2.6117,13.1182,4.78,24.0108,5.8951,29.6107,5.9345,29.8079,4.9889,25.0589,2.9657,14.8962.3971,1.9949a2.1372,2.1372,0,0,0,2.6135,1.4839,104.0588,104.0588,0,0,0,12.3387-5.7184c6.0366-3.0277,12.0392-6.1227,18.082-9.1382,5.5662-2.7778,11.1524-5.5757,16.9008-7.9621,6.5751-2.73,13.5814-3.7043,20.6021-4.7076,10.0184-1.4317,20.3036-2.33,30.42-1.5387a2.144,2.144,0,0,0,2.0487-2.6894l-8.2149-33.39-12.99-52.7985-2.9725-12.0818-1.4838,2.6134L257.35,332.085l34.4558-7.94,41.5164-9.5669,36.0137-8.2988c5.7935-1.3351,11.7532-2.3843,17.47-4.0258.0778-.0223.1588-.0366.2377-.0548,2.6637-.6138,1.5362-4.7116-1.13-4.0973Z"/><path d="M167.8857,460.41c-1.0218-5.0112,9.9778-11.7962,27.0486-17.6177l7.661,22.9943C183.0837,467.5526,168.9624,465.6879,167.8857,460.41Z"/><path d="M169.9344,459.8448q-.0612-.3488.0193.1546-.0084-.1038-.0081-.208c-.0721-.06.1147-.792-.0258-.07a5.4608,5.4608,0,0,1,.2443-.87c-.1982.5321.0818-.1319.14-.236.0863-.1547.1795-.3056.2766-.4537.1023-.1562.21-.3107.3239-.459-.25.3269.116-.1285.172-.19a23.721,23.721,0,0,1,5.1447-4.1052c5.9757-3.7168,12.6456-6.2959,19.278-8.5683l-2.6135-1.4839,6.691,20.0829.97,2.9114,2.0487-2.6893c-7.7143.6881-15.6708,1.1286-23.3759.0768a35.765,35.765,0,0,1-3.9064-.7459,21.5347,21.5347,0,0,1-2.8615-.93,10.74,10.74,0,0,1-1.2541-.6744q-.219-.1393-.4292-.2917c.4291.3114-.1148-.1035-.1909-.182-.14-.1439-.2789-.284-.41-.4362.2046.2376.133.2139.0011-.0285-.08-.1469-.28-.6835-.0863-.0967-.0558-.1691-.1084-.334-.1477-.5081-.601-2.6665-4.6986-1.538-4.0973,1.13,1.0678,4.7378,7.4666,6.109,11.48,6.7455,8.333,1.3215,16.91.9375,25.2783.191a2.1511,2.1511,0,0,0,2.0487-2.6894l-6.691-20.0829-.97-2.9114a2.1527,2.1527,0,0,0-2.6135-1.4839c-7.3221,2.5088-14.8353,5.3559-21.3213,9.6562-3.4794,2.3069-8.0746,5.8245-7.2111,10.5749a2.1433,2.1433,0,0,0,2.6134,1.4839A2.1711,2.1711,0,0,0,169.9344,459.8448Z"/><path class="cls-1" d="M221.6744,435.6549c17.7489-3.62,33.9693-4.9286,44.9366-4.0411l1.4016,5.7337a36.2237,36.2237,0,0,0,10.5837,17.9841L305.0241,479.79q.4767.4413.9379.8967a35.8675,35.8675,0,0,1,10.111,30.1212l-.5459,4.25-55.2387,2.1246-36.1176-8.4983-3.5409-9.2064-13.0412-16.3015a52.7461,52.7461,0,0,1-11.259-27.3395l-1.3954-13.0442A220.3637,220.3637,0,0,1,221.6744,435.6549Z"/><path d="M222.2392,437.7036c14.4526-2.9326,29.5923-5.129,44.3718-3.9652l-2.0487-1.56c.6277,2.5677,1.17,5.1774,1.9433,7.7063a38.8711,38.8711,0,0,0,8.0206,14.3185,129.5474,129.5474,0,0,0,9.4467,8.9966l14.0841,13.0343c3.5295,3.2665,7.4194,6.4335,10.17,10.4078a33.8234,33.8234,0,0,1,5.8834,16.1913,56.4006,56.4006,0,0,1-.7082,12.2238l2.1246-2.1245-13.7332.5282-25.9874,1-10.5337.4051-3.3186.1276a6.2066,6.2066,0,0,0-1.5821.0609c-.2953.104.7334.1887.3766.0545a6.2245,6.2245,0,0,0-.7555-.1777l-3.3583-.79-11.4176-2.6865L232.66,508.4994c-2.5-.5882-5.0129-1.328-7.5428-1.7748-.128-.0226-.2549-.06-.3816-.09l1.4839,1.4839-2.0352-5.2914c-.5947-1.5464-1.0433-3.5715-2.0823-4.89-2.45-3.1092-4.9463-6.1828-7.4191-9.2738-2.5356-3.17-5.2322-6.2742-7.5334-9.6228a51.1278,51.1278,0,0,1-8.7147-23.3866q-.696-6.43-1.3759-12.8619l-1.56,2.0487a221.08,221.08,0,0,1,26.74-7.137c2.6769-.5487,1.544-4.6453-1.13-4.0973a221.0613,221.0613,0,0,0-26.74,7.1369,2.1613,2.1613,0,0,0-1.56,2.0487c.9135,8.54,1.2927,17.3709,4.1705,25.5291A56.9567,56.9567,0,0,0,206.32,484.97q3.2572,4.0773,6.52,8.15l6.2878,7.86-.5464-.9375,1.8147,4.7182c.6014,1.5636,1.0967,3.235,1.8333,4.742.5932,1.2134,1.6885,1.3034,2.837,1.5737l4.4127,1.0382,26.4261,6.218a21.3259,21.3259,0,0,0,4.6907.9625c2.2884-.004,4.59-.1765,6.876-.2644l27.8417-1.0709c6.6244-.2548,13.2669-.386,19.8856-.7648.1092-.0063.2188-.0084.3281-.0126a2.1969,2.1969,0,0,0,2.1246-2.1246,63.658,63.658,0,0,0,.8283-10.2412,38.8454,38.8454,0,0,0-3.9847-15.8992,37.1847,37.1847,0,0,0-8.0619-10.7156q-1.6041-1.49-3.2142-2.9746c-7.6869-7.114-15.4005-14.2-23.0611-21.3422a34.3589,34.3589,0,0,1-8.9054-13.1967,89.28,89.28,0,0,1-2.593-9.6387,2.1794,2.1794,0,0,0-2.0487-1.56,120.94,120.94,0,0,0-20.1358.3489,229.6309,229.6309,0,0,0-25.3656,3.7682C218.4317,434.15,219.5651,438.2462,222.2392,437.7036Z"/><line class="cls-2" x1="246.5054" y1="349.893" x2="234.2312" y2="300.625"/><path d="M248.5541,349.3282l-4.1474-16.6474-6.61-26.5327L236.28,300.06c-.6607-2.6519-4.76-1.5284-4.0973,1.13l4.1474,16.6475,6.61,26.5326,1.5166,6.0879c.6607,2.652,4.76,1.5285,4.0974-1.13Z"/><path class="cls-2" d="M373.8009,187.43a58.3981,58.3981,0,0,0,115.77-1.4735,165.1349,165.1349,0,0,0-50.9381-.2082c-16.758.7111-26.7919-.7068-26.7919-.7068Z"/><path d="M371.7522,187.9947a60.5055,60.5055,0,0,0,119.9431-2.0382,2.1179,2.1179,0,0,0-1.56-2.0486,128.7581,128.7581,0,0,0-19.5106-1.9827,174.1,174.1,0,0,0-20.0924.3566c-3.8477.2927-7.6538.82-11.483,1.273a90.3276,90.3276,0,0,1-11.18.2628c-4.5991-.0346-9.2068-.2057-13.7861-.6493q-.7035-.0681-1.4059-.1477c-.2917-.0336-1.3224-.1634-.2458-.0241a7.2219,7.2219,0,0,0-1.4922-.023l-19.24,1.208-17.8992,1.1239c-2.716.1705-2.7353,4.4209,0,4.2491l35.8976-2.2539a11.3246,11.3246,0,0,0,1.97-.1237c.4557-.1161-.4228-.09-.3461-.08.42.0552.8393.1129,1.26.1621,3.4845.4072,6.9977.5977,10.5024.7128q4.93.1618,9.8644.0705c1.8822-.0318,3.8082.0079,5.6829-.1693,1.9426-.1836,3.8776-.5471,5.8181-.7669a171.1926,171.1926,0,0,1,21.3574-1.0565,165.9813,165.9813,0,0,1,17.13,1.0682q.7493.0871,1.4976.1823.2942.0375.588.0763c-.4737-.0624.0641.0087.1678.0231.6948.0972,1.3891.1981,2.0821.3082.5785.092,1.1576.1854,1.7326.2977l-1.56-2.0487a56.2937,56.2937,0,0,1-111.5966.9087,2.1386,2.1386,0,0,0-2.6134-1.4839A2.1791,2.1791,0,0,0,371.7522,187.9947Z"/><path class="cls-1" d="M468.78,183.724a36.8963,36.8963,0,0,1-73.7614,2.1462Z"/><path d="M466.6555,183.724c.35,14.35-8.2794,28.0121-21.739,33.34A34.7887,34.7887,0,0,1,397.1432,185.87l-2.1245,2.1245,24.9611-.7262,39.74-1.1563,9.0606-.2636c2.7284-.0794,2.74-4.3289,0-4.2491l-24.9611.7262-39.74,1.1563-9.0606.2636a2.153,2.153,0,0,0-2.1246,2.1246,39.02,39.02,0,0,0,78.0106-2.1462C470.838,180.9944,466.5886,180.9841,466.6555,183.724Z"/><path d="M413.7942,175.9779a48.706,48.706,0,0,0,19.4045-1.0178c2.6315-.73,1.5139-4.83-1.13-4.0974a41.8681,41.8681,0,0,1-11.7412,1.33q-2.0766-.026-4.1482-.1975c-.4326-.0363-.8648-.0774-1.2961-.1262-.2631-.03-1.057-.14.04.0117a2.1978,2.1978,0,0,0-2.6135,1.4839,2.14,2.14,0,0,0,1.4839,2.6135Z"/><path class="cls-1" d="M458.2283,192.7531l-1.3023-25.9678c12.0419-2.8239,22.2028-8.0088,26.3052-15.4767,12.1079-22.04-4.7381-94.4764-4.7381-94.4764l-87.3168,4.379s-5.6163,74.6326,4.7381,94.4764c2.1016,4.0276,6.4485,7.1478,12.1438,9.3786l-.4666,22.8081"/><path d="M460.3529,192.7531l-1.137-22.6716-.1653-3.2962-1.56,2.0487c11.2908-2.6784,24.2508-7.79,28.9119-19.345,3.0472-7.5544,3.3506-16.2763,3.3308-24.3154a234.6394,234.6394,0,0,0-2.2427-29.6481q-1.7174-13.1994-4.2506-26.2743c-.8141-4.2428-1.47-8.6417-2.6568-12.803-.0169-.0592-.0277-.1208-.0416-.1808a2.1418,2.1418,0,0,0-2.0487-1.56l-8.6855.4356L448.95,56.1893l-25.2319,1.2654L401.91,58.5484c-3.5207.1765-7.06.2613-10.5754.53-.0525.0041-.1054.0053-.158.008a2.1833,2.1833,0,0,0-2.1246,2.1245c-.7788,10.3663-1.1847,20.7734-1.4,31.1648-.19,9.1591-.1886,18.3284.1927,27.4828a171.0425,171.0425,0,0,0,2.5284,25.0672,48.5234,48.5234,0,0,0,3.0447,10.441c2.62,5.963,8.2307,9.4234,14.0761,11.7479l-1.56-2.0487-.4075,19.92-.0591,2.8885c-.056,2.7354,4.1932,2.7351,4.2491,0l.4075-19.92.0591-2.8885a2.1928,2.1928,0,0,0-1.56-2.0486c-4.8657-1.935-9.236-4.7812-11.4724-9.6489-.0394-.0858-.2466-.59-.04-.0866-.063-.1533-.1262-.3067-.1859-.4613-.1232-.32-.2447-.6394-.36-.962-.2442-.6851-.4664-1.3779-.6726-2.0753-.4583-1.55-.8365-3.1235-1.1664-4.7056a149.8114,149.8114,0,0,1-2.5646-23.679c-.7679-16.4182-.3665-32.9007.4791-49.3084.187-3.6278.3882-7.2567.66-10.8793l-2.1246,2.1246,8.6855-.4356,20.8574-1.046,25.2319-1.2654L467.76,59.4951l7.157-.3589a30.7927,30.7927,0,0,0,3.4184-.1715,1.4313,1.4313,0,0,1,.158-.0079l-2.0487-1.56c.7739,3.33,1.4575,6.6825,2.123,10.0354q2.3665,11.9221,4.1082,23.9584a266.7984,266.7984,0,0,1,2.7184,28.8482c.2771,8.3743.2414,16.834-1.9579,24.7518-.2176.7834-.46,1.56-.7341,2.3257q-.2035.5684-.4312,1.1274c-.0417.1029.0957-.2062-.0683.1572-.085.1882-.1694.3766-.2581.5631a18.5835,18.5835,0,0,1-4.0081,5.4809c-4.4625,4.2691-10.4358,6.84-16.2576,8.6494-1.7546.5453-3.53,1.0181-5.3175,1.4421a2.1431,2.1431,0,0,0-1.56,2.0487l1.137,22.6716.1653,3.2962c.1365,2.7214,4.3864,2.7377,4.2491,0Z"/><path d="M455.8421,98.695c-5.848-3.4607-13.6414-2.7323-19.2021.8554a2.1709,2.1709,0,0,0-.7622,2.9069,2.1477,2.1477,0,0,0,2.9068.7621,15.6693,15.6693,0,0,1,5.803-2.3485,13.3182,13.3182,0,0,1,2.416-.174q.6849.006,1.3677.0684c.0481.0044.5993.0639.3639.0348-.1834-.0227.3667.0576.4412.07,1.2437.2156,2.3644.7054,3.57,1.0156.26.0669-.442-.2037-.1185-.05.0952.045.1929.0854.2885.13.14.0648.2788.1316.416.2018.123.0629.2461.1264.3651.1968,2.3587,1.3958,4.4987-2.2759,2.1446-3.669Z"/><path d="M454.0535,108.5884a18.6848,18.6848,0,0,0-10.9983.6393,2.175,2.175,0,0,0-1.4838,2.6135,2.1481,2.1481,0,0,0,2.6134,1.4839,16.735,16.735,0,0,1,2.6681-.7914c.2283-.0466.4581-.0825.6871-.1248q.3684-.0546-.0574.0035.1668-.0211.3341-.0387.609-.064,1.2216-.0814a16.6528,16.6528,0,0,1,2.2717.0911q.1067.0113.2131.0243.3546.0448-.1474-.02a1.8411,1.8411,0,0,0,.5383.0873c.3387.06.6751.1319,1.01.2109a2.1251,2.1251,0,1,0,1.13-4.0974Z"/><path d="M484.2735,106.0608a19.2158,19.2158,0,0,0-11.4433,1.4939,2.1335,2.1335,0,0,0-.7622,2.9068,2.1844,2.1844,0,0,0,2.9068.7622q.1756-.0825.3532-.1608-.3211.1315.02-.0075c.2317-.0894.463-.179.6977-.2606q.594-.2062,1.2031-.3656.6631-.1734,1.34-.2893c.1628-.0279.3267-.0593.4909-.0764-.6008.0626.1242-.0057.2374-.0158a16.6621,16.6621,0,0,1,2.2653-.0463q.4866.0229.9716.0735c.1717.0178.7407.166.0908.0048.1609.04.3358.0509.5.0785a2.1768,2.1768,0,0,0,2.6135-1.4839,2.15,2.15,0,0,0-1.4839-2.6135Z"/><path d="M485.6321,96.2719a19.9444,19.9444,0,0,0-6.144-1.1519c-3.5568-.2079-7.256.2308-10.1828,2.4149a12.3553,12.3553,0,0,0-4.91,8.2108,16.794,16.794,0,0,0,1.7034,8.9613,32.4316,32.4316,0,0,0,7.3424,10.1019l-.5464-.9375a2.8808,2.8808,0,0,1,.0871,1.11c-.0595.2184-.0968.0993.0292.0431a2.5617,2.5617,0,0,1-.2707.2666q.25-.2019-.07.0111c-1.0229.5214-2.9922.4452-4.3979.3515-2.73-.1822-2.7187,4.0677,0,4.2491,3.1259.2085,7.624.0218,8.7509-3.6095a5.5666,5.5666,0,0,0,.2185-2,4.1254,4.1254,0,0,0-1.3173-2.9984,30.4273,30.4273,0,0,1-4.3586-5.3426c-1.7067-2.709-3.4354-6.2888-3-9.5908a8.1378,8.1378,0,0,1,6.3194-6.7784,17.4979,17.4979,0,0,1,9.6177.786,2.1391,2.1391,0,0,0,2.6134-1.4839,2.1756,2.1756,0,0,0-1.4838-2.6134Z"/><path d="M422.4141,120.6522a50.1027,50.1027,0,0,0-2.3157-5.8473c-1.4339-3.1094-3.2345-6.3579-6.04-8.4279a6.2506,6.2506,0,0,0-5.2993-1.1351,2.1251,2.1251,0,0,0,1.13,4.0974,1.6768,1.6768,0,0,0,.4041-.0868c-.3018.2114-.4962.032-.2643.0427.0818.0039.1665-.0074.2488-.007.0928.0006.5971.0534.1612-.0056-.4265-.0578.1.0313.2043.0595.13.0352.2549.0874.384.1249.3064.0888-.2149-.0665-.2227-.0952.0083.03.1988.0944.2352.1153.27.1549.5235.3219.7839.4915.2229.145-.3611-.3139.0191.0237.1334.1184.2672.2352.3962.3584.254.2428.4951.4989.7262.7636.1129.1293.2218.2618.3312.394.3856.4659-.1762-.2549.1116.143.2249.3111.4471.6232.6582.9439a32.5434,32.5434,0,0,1,2.2521,4.1043q.2341.5.4562,1.0057c.067.1522.1326.305.1985.4576.0341.0788.1427.342.0113.0255-.1461-.3522.0227.0568.0522.1284q.3378.8208.6485,1.6525c.2227.5961.44,1.1956.6321,1.8026a2.1251,2.1251,0,0,0,4.0974-1.13Z"/><path class="cls-7" d="M448.4085,25c-43.435.11-74.83,20.3015-83.0472,35.1937,3.7132.1507,7.58.1288,10.5662.0672a47.7231,47.7231,0,0,0-12.2644,12.8713.9431.9431,0,0,0,1.2487,1.34,27.3137,27.3137,0,0,1,9.6916-2.9736,68.0514,68.0514,0,0,0-4.87,20.8838c-1.1771,15.02,7.9311,39.5106,14.9345,55.3471A29.2435,29.2435,0,0,0,407.8488,164.94h0l1.0492-31.771C404.2028,129.8649,397.04,116.7,396.6513,108.96c-.5861-11.6926,5.5528-14.7586,13.72-15.1681s17.9685,14.566,18.54,25.9618L427.84,84.6418s58.0507,4.9949,61.1549-20.3052C488.9948,64.3366,491.8435,24.8905,448.4085,25Z"/><path d="M448.4085,22.8757A132.5926,132.5926,0,0,0,402.95,30.8223c-11.01,4.0821-21.7065,9.7181-30.4881,17.6012a42.5583,42.5583,0,0,0-8.9355,10.6981,2.1483,2.1483,0,0,0,1.8345,3.1969c3.5206.1359,7.044.1369,10.5662.0671l-1.0724-3.959A51.0169,51.0169,0,0,0,362.492,71.0753c-.9523,1.3815-1.6064,2.8815-.4842,4.3985,1.05,1.4189,2.72,1.4347,4.1862.721a26.7846,26.7846,0,0,1,8.4094-2.5715l-2.0487-2.6893a67.4109,67.4109,0,0,0-5.0158,22.6147c-.2949,6.8841,1.109,13.87,2.8,20.5076a193.3743,193.3743,0,0,0,7.21,22.0174q1.9991,5.1615,4.199,10.2424a39.7835,39.7835,0,0,0,5.2479,9.2609,31.6322,31.6322,0,0,0,20.8526,11.4879l-2.1245-2.1246h0c0,2.741,4.159,2.73,4.2491,0l.4875-14.7635c.1839-5.5681.6029-11.1837.5533-16.7553-.015-1.6864-1.1982-2.1215-2.1725-3.1133a28.79,28.79,0,0,1-3.8137-5.07,44.3244,44.3244,0,0,1-5.8989-13.79c-.812-3.7712-.6729-8.9887,1.7813-11.9477,2.2156-2.6713,5.96-3.4753,9.4607-3.5842a8.5558,8.5558,0,0,1,5.42,2.1633,24.8158,24.8158,0,0,1,5.06,5.6241c3.1862,4.697,5.6073,10.33,5.9359,16.05.1558,2.71,4.3331,2.7515,4.2492,0l-.9381-30.7477-.1332-4.3646L427.84,86.7664a144.0459,144.0459,0,0,0,19.1891.2158c11.052-.5346,23.0832-1.8733,32.9067-7.3624,6.52-3.6431,11.3577-9.7437,11.2155-17.4329a43.7654,43.7654,0,0,0-5.8962-21.5511,34.3543,34.3543,0,0,0-11.0591-11.3386c-5.8453-3.7-12.665-5.4858-19.4975-6.14-2.0909-.2-4.19-.2812-6.29-.2813-2.7341,0-2.7386,4.249,0,4.2491,6.8991,0,14.0856.9817,20.2585,3.9637A31.7351,31.7351,0,0,1,475.35,35.39a31.29,31.29,0,0,1,2.6116,2.5218,25.5342,25.5342,0,0,1,2.1147,2.5731,34.57,34.57,0,0,1,3.3536,5.801c.1016.222.2.4453.2982.6689.2355.5372-.1034-.2542.0335.0767.0458.1109.092.2217.1362.3333.1961.4946.3876.99.5664,1.4917q.5,1.4027.8974,2.8391a44.6083,44.6083,0,0,1,1.1234,5.3c.0271.1807.052.3617.0782.5426.0446.3086-.0679-.5594-.0143-.1011.01.0868.0224.1733.0325.26.0432.3745.0866.7488.123,1.1241q.0944.9711.1466,1.9456c.0489.92.0714,1.8424.0512,2.7636-.0047.2166-.0113.4332-.0224.65-.0024.0472-.0044.0944-.0081.1415.0281-.3553-.0769.4442-.1129.6262a15.6424,15.6424,0,0,1-.4016,1.59q-.1121.362-.242.7179-.0805.221-.1677.4393c-.1485.3735.06-.13-.0424.0947a16.937,16.937,0,0,1-1.6348,2.8013c-.0718.1007-.1469.2-.2225.2983.2362-.306.0333-.0483-.0146.0094-.18.2165-.361.4312-.549.6408-.4015.4475-.8251.8749-1.2665,1.2831a15.3047,15.3047,0,0,1-2.34,1.8481c-4.3007,2.9045-8.86,4.4044-13.9722,5.6143a95.491,95.491,0,0,1-16.08,2.2864,208.0079,208.0079,0,0,1-21.6265-.0255c-.1194-.0043-.2394-.0181-.3586-.0283a2.1394,2.1394,0,0,0-2.1245,2.1245l.9381,30.7477.1331,4.3646h4.2492a36.96,36.96,0,0,0-7.21-19.1809c-3.3655-4.6152-8.1535-9.3158-14.3017-8.8527-5.25.3955-10.7039,2.1542-13.2447,7.1686-2.933,5.7886-1.947,12.81.2525,18.6539a55.7553,55.7553,0,0,0,5.1793,10.3991,25.17,25.17,0,0,0,6.1146,7.0617l-1.0523-1.8345-.9193,27.8379-.13,3.9331h4.2491a2.1884,2.1884,0,0,0-2.1246-2.1246,27.3393,27.3393,0,0,1-16.8138-9.0085,31.1241,31.1241,0,0,1-5.0716-8.3768q-2.0379-4.667-3.8968-9.409a203.9712,203.9712,0,0,1-7.0835-21.0193c-1.72-6.3371-3.1692-12.8891-3.2265-19.4841a61.2489,61.2489,0,0,1,4.8955-23.4544,2.131,2.131,0,0,0-2.0487-2.6894,34.8166,34.8166,0,0,0-5.042.9595,26.9645,26.9645,0,0,0-2.6851.9025c-.454.18-.9055.37-1.3513.5692q-.4263.189-.8445.3952-1.38.4646.9789,1.2105l-.29,1.0723a20.2849,20.2849,0,0,1,2.7649-3.9267q1.4429-1.79,3.0485-3.44A43.17,43.17,0,0,1,377,62.0956c1.6117-1.1508,1.1912-4.004-1.0723-3.9591-3.5222.07-7.0456.0688-10.5662-.0671l1.8345,3.1969a35.4408,35.4408,0,0,1,7.0962-8.755,71.2773,71.2773,0,0,1,11.8457-8.9267,111.8537,111.8537,0,0,1,35.9806-13.8063,133.1578,133.1578,0,0,1,26.29-2.6535C451.1421,27.1135,451.1476,22.8643,448.4085,22.8757Z"/><path d="M459.7311,163.87a39.0914,39.0914,0,0,1-4.0135.8014q-.55.09-1.1018.1712-.2769.0411-.554.08c-.0914.013-.6549.09-.2184.0317-.9237.124-1.85.2321-2.7764.33-2.3979.2534-4.803.4286-7.211.552a2.17,2.17,0,0,0-2.1245,2.1246,2.1448,2.1448,0,0,0,2.1245,2.1245,119.5976,119.5976,0,0,0,12.83-1.2911,39.8581,39.8581,0,0,0,4.1743-.8275c2.635-.7188,1.5165-4.8192-1.13-4.0973Z"/><path d="M372.4722,70.6591A41.2282,41.2282,0,0,0,368.5539,85.02c-.1614,1.74,2.5127,2.9356,3.6268,1.5023a66.9015,66.9015,0,0,1,7.8774-8.3315l-2.0671.5464A96.2537,96.2537,0,0,0,403.937,84.3a36.52,36.52,0,0,0,9.8849-.6049c2.6719-.5749,1.5412-4.672-1.13-4.0973-5.399,1.1618-11.2177.4448-16.5921-.5212a117.6427,117.6427,0,0,1-14.1753-3.5172c-.9387-.2926-1.8772-.5907-2.8043-.9189a2.1275,2.1275,0,0,0-2.0671.5464,66.8929,66.8929,0,0,0-7.8773,8.3314L372.803,85.02a37.9979,37.9979,0,0,1,1.9711-8.7978q.2609-.76.55-1.51.1124-.2919.229-.582c.0275-.0689.2651-.6347.1089-.27.1522-.3555.3082-.71.48-1.0571,1.208-2.4431-2.4556-4.5985-3.669-2.1446Z"/><circle class="cls-8" cx="52.7893" cy="343.6757" r="8.4983"/><circle class="cls-7" cx="83.2414" cy="343.6757" r="8.4983"/><circle class="cls-5" cx="113.6935" cy="343.6757" r="8.4983"/><path d="M748.23,359.964h16.9965c2.7341,0,2.7386-4.2491,0-4.2491H748.23c-2.7342,0-2.7387,4.2491,0,4.2491Z"/><path d="M605.3936,852.0807q2.9284,11.8656,6.4861,23.5734c1.6261,5.3827,3.1584,10.5773,6.8291,14.9628a26.0868,26.0868,0,0,0,12.1679,8.0307,26.8579,26.8579,0,0,0,12.05.7869c1.5308-.2288,3.0605-.4657,4.5907-.6986l19.0155-2.8935,13.7938-2.099a2.1392,2.1392,0,0,0,1.4839-2.6134,2.178,2.178,0,0,0-2.6134-1.4839l-30.0063,4.566c-4.2609.6483-8.6874,1.6821-13.0142,1.23a21.8067,21.8067,0,0,1-16.3348-10.51,31.9139,31.9139,0,0,1-2.7975-6.9362q-4.1933-13.3923-7.5533-27.0447c-.6549-2.6534-4.7537-1.5295-4.0974,1.13Z"/><path class="cls-1" d="M291.1007,487.8422c9.0132,8.5182,24.9445,25.0158,34.2818,43.0993,8.1482,16.3712-3.6375,20.4664-15.4564,6.9988-16.3528-18.634-21.7225-29.8227-31.2248-34.9223"/><path d="M289.5984,489.3444a216.0085,216.0085,0,0,1,18.7073,19.9947A148.944,148.944,0,0,1,318.2,522.8345c2.8274,4.3756,5.9172,9.0617,7.2727,14.1438a13.0461,13.0461,0,0,1,.4717,2.7062,5.99,5.99,0,0,1-.142,2.0525c-.04.1609-.3555.9617-.1959.6362-.077.157-.4061.69-.322.5787.0965-.1279-.3268.34-.4391.44.2835-.2518-.4137.2463-.61.3332.4157-.1842-.3173.0672-.4518.102-.1067.0275-.5218.0763-.1043.0308a3.8776,3.8776,0,0,1-.402.0267,5.4967,5.4967,0,0,1-1.9925-.256,15.4115,15.4115,0,0,1-4.8418-2.4882,33.9254,33.9254,0,0,1-5.6669-5.4484q-3.0176-3.4641-5.9213-7.0251c-3.0758-3.7683-6.0455-7.62-9.0252-11.4641-4.5975-5.9316-9.32-12.3644-16.0557-16.019-2.404-1.3043-4.5516,2.3631-2.1446,3.669,5.9095,3.2061,10.2893,9.045,14.5065,14.4667,3.129,4.0227,6.2277,8.0682,9.445,12.0215,3.7984,4.6672,7.5585,9.6685,12.4385,13.2652,3.0062,2.2157,7.0563,4.2195,10.8939,3.3182,3.496-.821,5.22-4.07,5.293-7.46.1133-5.2517-2.6845-10.2763-5.2219-14.68a134.1676,134.1676,0,0,0-9.7336-14.4632A210.7544,210.7544,0,0,0,292.603,486.34c-1.9858-1.8789-4.9959,1.12-3.0046,3.0045Z"/><path class="cls-1" d="M794.2624,499.552c-10.6834,1.471-21.61-4.4131-45.7986-9.8507-17.482-3.93-24.5988,6.3182-8.3751,14.7561,18.193,9.1223,40.783,13.0809,53.0834,14.6614h0a24.3383,24.3383,0,0,0,25.871-19.5272L826.624,461.32a24.3383,24.3383,0,0,0-18.3747-28.4378l-25.318-7.0565V463.36"/><path d="M794.2624,497.4274a31.4332,31.4332,0,0,1-11.1761-.721c-5.0647-1.0971-10.0229-2.666-14.9984-4.1006a200.4362,200.4362,0,0,0-20.95-5.33c-5.1086-.8885-11.6525-1.2309-15.8762,2.3876-3.6059,3.0891-2.5674,7.7686.18,11.0189a24.3218,24.3218,0,0,0,7.3778,5.506,99.5329,99.5329,0,0,0,9.9032,4.3853A180.7318,180.7318,0,0,0,786.9,520.36a65.2064,65.2064,0,0,0,7.3359.9481,26.081,26.081,0,0,0,9.0545-1.2575,26.8888,26.8888,0,0,0,13.8936-10.5047c3.6679-5.4337,4.425-12.0025,5.6683-18.2791L827.479,467.91c.3893-1.9652.7868-3.929,1.1679-5.8958a26.5109,26.5109,0,0,0-12.9408-28.5036,41.545,41.545,0,0,0-9.3586-3.3651l-21.15-5.895-1.701-.4741a2.1465,2.1465,0,0,0-2.6894,2.0487V463.36c0,2.7341,4.2491,2.7386,4.2491,0v-37.534l-2.6893,2.0487,17.1378,4.7765c2.6094.7273,5.2143,1.4742,7.8291,2.1821a23.8908,23.8908,0,0,1,11.3184,6.244,22.2466,22.2466,0,0,1,6.2849,14.2716,30.12,30.12,0,0,1-.7679,7.4587l-4.0343,20.3672c-1.0418,5.2594-2.0569,10.5249-3.1255,15.779a22.4588,22.4588,0,0,1-21.365,18.12,38.1356,38.1356,0,0,1-6.5648-.6509q-4.0429-.6053-8.0629-1.3541c-6.0825-1.1343-12.1219-2.5164-18.0725-4.2144a129.9225,129.9225,0,0,1-19.1555-6.9623,30.54,30.54,0,0,1-8.1279-4.95,10.0358,10.0358,0,0,1-1.92-2.2812c-.1155-.1975-.2269-.3992-.3234-.6068-.0212-.0455-.1471-.3818-.0381-.0892-.0718-.1927-.1213-.3895-.1823-.5853q-.0485-.19-.0831-.383.042.3749.0077.0019c-.0073-.1838-.007-.3639-.0012-.5477.0178-.5649-.1235.3994.0246-.139.0471-.1709.09-.3392.15-.5064-.166.4618.034-.0575.0844-.1361.0983-.1536.186-.311.2958-.4574-.28.3732.1142-.1048.156-.1431a3.1932,3.1932,0,0,1,.8573-.6758,12.0132,12.0132,0,0,1,5.7353-1.4172,37.2155,37.2155,0,0,1,9.85,1.32q5.154,1.2066,10.2611,2.6026c5.4078,1.4713,10.7633,3.1273,16.17,4.6a61.66,61.66,0,0,0,12.3569,2.3519,26.8943,26.8943,0,0,0,5.2-.1732,2.1951,2.1951,0,0,0,2.1246-2.1245c0-1.03-.979-2.2771-2.1246-2.1246Z"/><path class="cls-1" d="M796.5289,503.5858c-12.28-1.73-34.8206-5.9619-52.9017-15.3041-16.12-8.6341-8.88-18.7952,8.5534-14.6535,24.1206,5.7305,34.9754,11.7467,45.6759,10.4054"/><path d="M797.0937,501.5371a215.8555,215.8555,0,0,1-26.7932-5.4678,155.724,155.724,0,0,1-15.5891-5.1128c-4.8473-1.8956-10.1076-3.9376-14.2285-7.1859a10.9946,10.9946,0,0,1-3.438-3.9955,5.0214,5.0214,0,0,1-.2755-1.247c.006-.121.0045-.2419.011-.3631.03-.5671-.0689.2818.0141-.0516.0356-.1431.0736-.2835.1164-.4248.1533-.5062-.2009.32.0645-.1421a4.6362,4.6362,0,0,1,2.3739-1.8888,14.7055,14.7055,0,0,1,5.4778-.8591c5.6144.031,11.2208,1.916,16.5871,3.394,4.7191,1.3,9.3991,2.7312,14.0834,4.15,7.1507,2.1659,14.7834,4.73,22.3589,3.8155a2.191,2.191,0,0,0,2.1245-2.1245,2.1374,2.1374,0,0,0-2.1245-2.1246c-6.9109.8346-13.4617-1.3239-20.16-3.3408-4.9077-1.4776-9.8036-2.9921-14.7435-4.36-5.7616-1.5955-11.7563-3.543-17.78-3.6546-3.7249-.0689-8.2818.5729-10.9111,3.5191-2.4219,2.7138-2.0621,6.4528-.0353,9.2866,3.1,4.3347,8.1158,6.7922,12.8382,8.944a139.2882,139.2882,0,0,0,16.6045,6.2613,207.666,207.666,0,0,0,32.2955,7.07,2.1964,2.1964,0,0,0,2.6134-1.4838,2.14,2.14,0,0,0-1.4838-2.6135Z"/><path class="cls-1" d="M799.7429,487.3867c-12.2085-2.18-34.5778-7.2385-52.3031-17.2393-15.7917-9.2211-8.1822-19.109,9.0866-14.329,23.8935,6.6138,34.52,13.0251,45.2622,12.0782"/><path d="M800.3077,485.3381a216.598,216.598,0,0,1-26.1747-6.3248,151.3587,151.3587,0,0,1-15.1622-5.541c-4.8334-2.0925-10.1342-4.32-14.2162-7.7131a12.021,12.021,0,0,1-3.4851-4.1239,4.8661,4.8661,0,0,1-.3231-1.3343c.003-.1249.0022-.2491.0065-.3739.02-.5759-.1223.391.0268-.156.0315-.1157.0622-.2305.0954-.3459.1472-.5126-.1975.3144.063-.1535a4.3681,4.3681,0,0,1,2.413-1.8633,14.8843,14.8843,0,0,1,5.5536-.6937c5.5188.2052,10.9845,2.2764,16.2064,3.9167,4.7773,1.5007,9.5083,3.1388,14.2435,4.7658,7.0848,2.4343,14.61,5.261,22.234,4.624,2.7054-.2261,2.73-4.4772,0-4.2492a27.8287,27.8287,0,0,1-9.0284-.7708,112.0056,112.0056,0,0,1-11.1628-3.3882c-4.8393-1.6552-9.667-3.3425-14.5439-4.8856-5.6985-1.8032-11.5832-3.9335-17.6-4.2463-3.7354-.1941-8.37.3473-11.0269,3.3084-2.4945,2.7807-1.9868,6.6225.07,9.4985,3.09,4.3216,7.99,6.9075,12.6392,9.2162a140.5477,140.5477,0,0,0,16.2768,6.7651,208.078,208.078,0,0,0,31.7655,8.1661,2.1844,2.1844,0,0,0,2.6134-1.4839,2.1427,2.1427,0,0,0-1.4838-2.6134Z"/><path class="cls-1" d="M803.62,470.1117c-12.2084-2.18-34.5778-7.2385-52.303-17.2394-15.7918-9.2211-8.1823-19.109,9.0865-14.329,23.8935,6.6138,34.52,13.0251,45.2623,12.0782"/><path d="M804.1844,468.063a216.598,216.598,0,0,1-26.1747-6.3248,151.334,151.334,0,0,1-15.1622-5.541c-4.8334-2.0925-10.1342-4.32-14.2162-7.7131a12.02,12.02,0,0,1-3.4851-4.1239,4.8653,4.8653,0,0,1-.3231-1.3343c.003-.1249.0022-.249.0065-.3739.02-.5758-.1223.391.0268-.1559.0315-.1158.0622-.2305.0954-.346.1472-.5125-.1975.3145.063-.1534a4.3683,4.3683,0,0,1,2.413-1.8634,14.8842,14.8842,0,0,1,5.5536-.6936c5.5188.2051,10.9845,2.2763,16.2064,3.9166,4.7773,1.5007,9.5083,3.1389,14.2436,4.7659,7.0847,2.4342,14.61,5.261,22.234,4.6239,2.7053-.2261,2.7294-4.4772,0-4.2491a27.8291,27.8291,0,0,1-9.0285-.7708,112.0321,112.0321,0,0,1-11.1628-3.3882c-4.8393-1.6553-9.667-3.3425-14.5439-4.8857-5.6985-1.8032-11.5832-3.9335-17.6-4.2462-3.7354-.1942-8.37.3472-11.0269,3.3083-2.4945,2.7807-1.9868,6.6226.07,9.4986,3.09,4.3216,7.99,6.9075,12.6392,9.2162a140.5544,140.5544,0,0,0,16.2768,6.765,208.0783,208.0783,0,0,0,31.7655,8.1662,2.1845,2.1845,0,0,0,2.6134-1.4839,2.1428,2.1428,0,0,0-1.4838-2.6135Z"/><path class="cls-1" d="M276.867,498.1465c7.8686,8.9716,21.6165,26.2379,29.2113,45.0554,6.5921,17.0573-6.5295,17.73-16.7542,3.0156S267.1513,516.06,258.1639,510.1"/><path d="M275.3648,499.6488a200.0068,200.0068,0,0,1,15.5257,20.0934,155.3131,155.3131,0,0,1,8.0514,13.29c2.3877,4.4532,4.8669,9.1385,6.1809,14.0421a13.69,13.69,0,0,1,.5616,4.9937c0,.0023-.0446.3014-.1234.6084-.0406.1583-.2679.7957-.2059.659.0643-.142-.2449.4143-.3161.522.2563-.3877-.19.19-.319.3095.3631-.3377-.1427.0787-.2914.1652-.0642.0374-.3807.1666-.1115.0606.3175-.1251-.19.0489-.2095.0527-.18.0349-.7354.109-.2739.0729a7.6644,7.6644,0,0,1-.9119.0077c-.6038-.0241.26.0547-.1131-.003-.1685-.0261-.3356-.06-.5019-.0973-.2808-.0631-.5582-.1415-.8322-.23a9.7362,9.7362,0,0,1-1.9341-.8785,27.1357,27.1357,0,0,1-8.512-8.3593c-3.1979-4.58-6.456-9.1184-9.8519-13.5546-3.5762-4.6715-7.2669-9.2684-11.2663-13.587a61.7217,61.7217,0,0,0-10.6741-9.5511c-2.2778-1.5266-4.4073,2.1525-2.1447,3.669a56.2949,56.2949,0,0,1,9.548,8.6c3.7514,4.0233,7.241,8.2941,10.5923,12.6539,3.6288,4.7208,7.0459,9.5862,10.4943,14.4381a31.1573,31.1573,0,0,0,9.67,9.36c2.6491,1.493,6.061,2.5515,8.962,1.1213,2.84-1.4,3.75-4.7011,3.6075-7.6488-.2412-4.9814-2.4962-9.69-4.5973-14.1187a138.8224,138.8224,0,0,0-8.1864-14.7274,202.2687,202.2687,0,0,0-18.8124-24.9686c-1.8052-2.0609-4.8.9544-3.0045,3.0046Z"/><path class="cls-1" d="M262.2679,504.8137c5.7927,10.7984,13.82,28.0859,16.9533,45.82,2.9141,18.0531-9.8848,18.6025-16.8381,2.0884s-18.02-41.0457-25.5772-48.7391"/><path d="M260.4334,505.886a179.9394,179.9394,0,0,1,12.4528,28.5973,101.4843,101.4843,0,0,1,4.3667,17.2328,22.4465,22.4465,0,0,1,.1332,6.151,11.46,11.46,0,0,1-.578,2.3067,1.8372,1.8372,0,0,1-.2689.5857c-.0939.1656-.6492.97-.4237.7026-.1548.1836-.3242.35-.496.5176-.3965.3858.3487-.1986-.1082.0913-.0936.0594-.1919.1155-.2839.1765-.4714.3129.1379.0374-.3974.1743-.1054.027-.2138.0532-.3181.0826-.4945.1389.4268-.0025-.0933.0187a6.5353,6.5353,0,0,1-.8592-.0135c.5019.0448-.2759-.07-.42-.1088a4.31,4.31,0,0,1-1.6445-.7414c-3.0538-1.8627-5.27-5.5808-6.7983-8.9177-1.9672-4.2965-3.7154-8.699-5.64-13.0159-2.052-4.6017-4.1654-9.177-6.3846-13.7007-2.3115-4.7117-4.7231-9.3858-7.4144-13.8936a51.5308,51.5308,0,0,0-6.9492-9.65c-1.9093-1.9643-4.9124,1.0418-3.0045,3.0046a45.9693,45.9693,0,0,1,6.2026,8.6532c2.5285,4.2213,4.8062,8.5923,6.9888,13.0007,2.349,4.7443,4.5771,9.5482,6.7364,14.3815,2.0315,4.5472,3.84,9.2126,5.96,13.7174,1.8112,3.8487,4.3891,7.7329,8.0638,10.03,2.5524,1.5957,5.9319,2.1929,8.5392.3745,3.0349-2.1168,3.88-6.0881,3.9689-9.568.1484-5.7892-1.5369-11.732-3.1024-17.2538a177.1682,177.1682,0,0,0-14.5583-35.08c-1.2913-2.4116-4.9608-.268-3.669,2.1446Z"/><path class="cls-1" d="M242.5837,503.7262s9.6892,21.4144,8.0875,50.9209c-1.2617,18.2432-13.851,15.8718-16.8725-1.79-2.2082-12.9074-5.5836-30.4839-9.4315-42.6056a52.7565,52.7565,0,0,0-7.8067-15.2872l-5.2385-7.1223"/><path d="M240.7492,504.7985c.0391.0866.0758.1742.1142.261.1964.4451-.2213-.55-.05-.1193.074.1863.1527.3709.2275.5569.4382,1.09.8444,2.1928,1.2309,3.3021a111.506,111.506,0,0,1,3.4374,12.1335,122.2643,122.2643,0,0,1,2.6571,17.668q.4143,5.4519.35,10.9261a41.3215,41.3215,0,0,1-.923,9.949,10.511,10.511,0,0,1-2.5506,4.9525c-.0485.0467-.537.4-.1536.1357-.1475.1016-.3017.1883-.4525.2841-.0818.052-.5968.2582-.1127.0761-.157.059-.3175.0992-.4761.1517-.1137.0377-.64.09-.0818.0393-.1644.0151-.3278.0111-.4919.0215-.1088.0069-.6476-.0688-.0976.0187-.2273-.0362-.444-.1-.6667-.1546-.0719-.0177-.61-.2317-.16-.0368a4.0035,4.0035,0,0,1-.4162-.2062,8.43,8.43,0,0,1-.9083-.5817c.1612.1237-.54-.5022-.6994-.6654a10.08,10.08,0,0,1-.9-1.056,20.7556,20.7556,0,0,1-3.04-6.7885c-.8324-3.0679-1.23-6.26-1.7944-9.3848q-.9176-5.0853-1.9254-10.1538c-1.3374-6.6963-2.7956-13.3762-4.5686-19.9721-2.0635-7.6764-4.7428-15.0144-9.3832-21.5453-1.8776-2.6424-3.8371-5.2291-5.7577-7.84a2.1886,2.1886,0,0,0-2.9068-.7621,2.14,2.14,0,0,0-.7621,2.9068c1.7391,2.3645,3.4852,4.7241,5.2174,7.0937a58.4393,58.4393,0,0,1,8.8778,19.037c1.9532,6.9078,3.51,13.9273,4.9342,20.9609q1.0731,5.2992,2.035,10.62c.5934,3.2644,1.0091,6.6022,1.8426,9.8158,1.1566,4.4593,3.4276,9.9495,7.8439,12.1133,3.9335,1.9272,7.8352.04,9.9243-3.5763,3.2861-5.6888,2.9164-13.1823,2.7852-19.5052a129.7027,129.7027,0,0,0-2.1383-20.7717,118.6552,118.6552,0,0,0-3.6135-14.55,48.3646,48.3646,0,0,0-2.6445-7.1924c-.05-.0987-.0878-.205-.1334-.306a2.14,2.14,0,0,0-2.9068-.7622,2.1758,2.1758,0,0,0-.7622,2.9068Z"/><path d="M464.9548,136.1766a7.5748,7.5748,0,0,1-.9023.0442q-.4752.0012-.95-.0367c-.1746-.0139-.3485-.04-.523-.0533.8791.0651.068.0054-.1632-.0389a10.2159,10.2159,0,0,1-1.3052-.339q-.18-.06-.3583-.1276c-.4984-.1891.3878.1822.058.03-.2117-.0979-.4217-.197-.6265-.309a7.87,7.87,0,0,1-.7016-.4322c-.1584-.1095-.4594-.442.0047.0155-.0752-.0741-.1691-.1385-.2487-.2082a7.3382,7.3382,0,0,1-.6331-.6264c-.1021-.1141-.1915-.2438-.2972-.3539.4447.4633.0821.0946-.0179-.0528a2.1249,2.1249,0,1,0-3.669,2.1446,10.2672,10.2672,0,0,0,5.2259,3.9718,12.7452,12.7452,0,0,0,4.31.6649,7.2868,7.2868,0,0,0,.7967-.0435,2.3254,2.3254,0,0,0,1.5023-.6223,2.1588,2.1588,0,0,0,.6223-1.5023c-.0464-1.0348-.9432-2.27-2.1246-2.1245Z"/></svg>