<svg id="Layer_1" data-name="Layer 1" xmlns="http://www.w3.org/2000/svg" width="1000" height="1000" viewBox="0 0 1000 1000"><defs><style>.cls-1{fill:#fff;}.cls-2{fill:#ea2f2f;}.cls-3{fill:#ffc41f;}.cls-4{fill:#389b48;}.cls-5{fill:#fc7f3a;}.cls-6{fill:#fc7272;}.cls-7{fill:#458dc9;}.cls-8{fill:#a8542a;}.cls-9{fill:#e2e2e2;}</style></defs><path class="cls-1" d="M641.8522,244.9218V551.0263a31.2761,31.2761,0,0,1-31.2761,31.2761H353.4548l6.823-27.8064-12.02-40.1928.523-28.7689-18.3074-15.6921V438.458l-11.5076,35.0457,8.55,16.3886L313.735,520.58l15.652,37.7391-16.6981,23.9832H56.2761A31.2761,31.2761,0,0,1,25,551.0263V233.9374"/><path d="M640.283,244.9218V547.228c0,7.1444-.825,13.95-4.9045,20.1588-6.2,9.4357-16.3838,13.3464-27.2556,13.3464H353.4548l1.5131,1.9864,3.7764-15.39,2.3371-9.5245a11.2789,11.2789,0,0,0,.68-3.8265,26.699,26.699,0,0,0-1.2652-4.2307l-2.7353-9.1459-6.0786-20.3256c-.583-1.9494-1.23-3.8918-1.7521-5.8585-.19-.7154-.0984-.247-.1-.2686-.0586-.7428.0278-1.5295.0413-2.2733l.3752-20.6381a32.0587,32.0587,0,0,0,.1025-5.6343c-.2611-1.5278-1.9433-2.4516-3.0616-3.41-4.8853-4.1874-9.6058-8.859-14.7857-12.6735-.1216-.0895-.6514-.6912-.7814-.67-.1137.0189.1319,1.0223.3225.8.2818-.3291,0-2.1163,0-2.543V438.458a1.5768,1.5768,0,0,0-3.0824-.4172l-7.4569,22.71c-1.23,3.7459-2.5311,7.4765-3.6922,11.2445-.7453,2.4186.7564,4.1345,1.892,6.3111l6.4581,12.3783V489.1l-9.1229,20.315c-1.4547,3.2393-3.036,6.4505-4.374,9.74-.6888,1.6935-.1724,2.4927.5085,4.1346l10.2912,24.8135c1.3052,3.147,2.39,6.5562,3.9717,9.5763.9561,1.8259-.1841-.06.5119-.031-.3416-.0145-1.8227,2.6178-2.0228,2.9052L311.3339,581.51l1.355-.7772H62.51c-5.8948,0-11.59.154-17.2377-2.0947-12.0231-4.7877-18.7032-16.4066-18.7032-29.0115v-315.69a1.57,1.57,0,0,0-3.1384,0V547.92c0,1.0352-.0124,2.0713,0,3.1065a33.2526,33.2526,0,0,0,16.9683,28.7594c7.9317,4.3751,16.202,4.0859,24.8333,4.0859H307.0639a35.4376,35.4376,0,0,0,5.4665,0c1.2553-.2052,1.63-.9448,2.3106-1.9221l6.1661-8.8563,7.3818-10.6023c.8972-1.2887,2.7471-3.0115,2.47-4.6887-.3139-1.8991-1.6727-4.0333-2.4042-5.7969l-4.911-11.8412-5.11-12.32c-.8556-2.063-1.547-5.3986-2.9662-7.1519-.7093-.8763-.6464.8141-.23.3519a13.2563,13.2563,0,0,0,1.3839-3.0816l5.1071-11.3726,5.1745-11.5225c.6279-1.3982,2.3945-3.9432,2.1263-5.5918a9.985,9.985,0,0,0-1.2372-2.4431l-3.0537-5.853-2.9178-5.5927c-.31-.5945-.59-1.2376-.9435-1.8084-.378-.6112-.3869-1.4767-.4689-.4562-.1125,1.4.4463-.5447.5445-.8435l1.3968-4.254,4.075-12.41,5.562-16.9389-3.0823-.4171v25.6544a33.2,33.2,0,0,0,0,5.629c.2671,1.4658,1.642,2.2239,2.7343,3.16l8.04,6.8913,6.8449,5.867c.1487.1275.693.7476.907.7774.8081.1127-.6392-.4292-.2189-.8855-.2069.2247-.0292,1.6036-.0344,1.89l-.3658,20.1221c-.0582,3.2007-.3746,6.1258.5394,9.1818l10.7237,35.8579c.2123.71.4081,1.4273.6376,2.1319-.0342-.1051.25-1.0295-.1381.1214-.9766,2.8942-1.4831,6.0443-2.2106,9.0093l-4.4214,18.0186a1.5876,1.5876,0,0,0,1.5132,1.9863h249.38a91.1421,91.1421,0,0,0,12.1934-.3135c16.2934-2.2166,28.2244-16.3989,28.3927-32.68.1105-10.6915,0-21.39,0-32.0819V244.9218a1.57,1.57,0,0,0-3.1384,0Z"/><path d="M25,244.9978V208.5993a31.2761,31.2761,0,0,1,31.2761-31.2761h554.3a31.2761,31.2761,0,0,1,31.2761,31.2761v36.3985Z"/><path d="M26.5692,244.9978c0-11.7856-.0254-23.5715,0-35.3571.0364-16.8887,12.8346-30.6063,29.9691-30.7483,8.538-.0707,17.08,0,25.6177,0H607.8831c8.1354,0,15.9119,1.7813,22.238,7.3337,6.9329,6.0848,10.1619,14.56,10.1619,23.6485v35.1232l1.5692-1.5692H50.04c-7.993,0-15.9988-.1322-23.9909,0-.3494.0058-.6994,0-1.0489,0a1.57,1.57,0,0,0,0,3.1384H616.8124c7.9929,0,15.9987.1323,23.9909,0,.3494-.0057.6994,0,1.0489,0a1.592,1.592,0,0,0,1.5692-1.5692c0-11.8562.0308-23.7129,0-35.5691-.0479-18.3874-14.2982-33.4656-32.89-33.6747-7.9671-.09-15.94,0-23.908,0H58.1685c-9.9515,0-19.397,3.2249-26.22,10.7805a33.9058,33.9058,0,0,0-8.5174,23.1062c-.0126,6.8382,0,13.6765,0,20.5147v14.8424A1.57,1.57,0,0,0,26.5692,244.9978Z"/><circle class="cls-2" cx="72.6284" cy="212.7396" r="10.5685"/><circle class="cls-3" cx="113.6214" cy="212.7396" r="10.5685"/><circle class="cls-4" cx="154.6144" cy="212.7396" r="10.5685"/><path class="cls-5" d="M471.0631,822.3932h72.91l12.5874-20.5642h0a30.4377,30.4377,0,0,1,9.3155,17.6233l.4525,2.9409H586.08l.0831-25.7726.1873-58.0266-60.1219-16.4513-.1242,48.6765c-.9268,14.3975-14.59,22.5813-39.2238,30.5125a21.1817,21.1817,0,0,0-13.8883,14.3214Z"/><path d="M471.0631,823.9624h71.4374c.4611,0,.9307.0257,1.3914,0,1.0257-.0573,1.4-.7174,1.8625-1.4731l11.832-19.33.3293-.5381-2.4645.3176a28.8216,28.8216,0,0,1,7.2883,10.7667,44.2279,44.2279,0,0,1,2.0761,9.105,1.5749,1.5749,0,0,0,1.5132,1.1521H586.08a1.5926,1.5926,0,0,0,1.5692-1.5692l.0906-28.0915.135-41.8321.0448-13.8756a1.5988,1.5988,0,0,0-1.152-1.5131l-20.3331-5.5638-32.3858-8.8619-7.4031-2.0257a1.5858,1.5858,0,0,0-1.9863,1.5132l-.04,15.5478-.0655,25.6625-.0178,6.9657a18.2229,18.2229,0,0,1-2.4779,8.82c-2.373,4.1565-6.1487,7.3022-10.15,9.8245a91.4823,91.4823,0,0,1-17.6859,8.21c-3.5277,1.2816-7.2644,2.2042-10.6639,3.8012a22.3624,22.3624,0,0,0-7.7063,5.9962c-3.2363,3.942-4.4542,8.5474-5.8224,13.3275l-.48,1.6782a1.5705,1.5705,0,0,0,3.0263.8343c1.0344-3.6141,1.7921-7.55,3.6391-10.8539a19.609,19.609,0,0,1,6.5716-6.9786c3.0875-1.9606,6.6866-2.8119,10.1072-4.008a109.44,109.44,0,0,0,18.7419-8.1767,37.5048,37.5048,0,0,0,11.7575-9.9565,22.1037,22.1037,0,0,0,4.28-12.0283c.0628-1.6474.0085-3.3079.0127-4.9561L527.75,741.04l.0308-12.07c.0054-2.1362.2039-4.3741.0166-6.5043-.0094-.1057,0-.2163.0008-.3227l-1.9864,1.5131,20.333,5.5638,32.3859,8.8619,7.403,2.0257-1.152-1.5132-.1116,34.5937-.092,28.4843-.0668,20.7212,1.5692-1.5692H566.3288l1.5131,1.152a42.8435,42.8435,0,0,0-2.3672-9.8437,32.2409,32.2409,0,0,0-7.8043-11.4129,1.59,1.59,0,0,0-2.4646.3176L544.187,819.0386l-1.5685,2.5626,1.3549-.7772h-72.91A1.57,1.57,0,0,0,471.0631,823.9624Z"/><path d="M526.6806,769.14a6.534,6.534,0,0,1,.8481-.1957c.0645-.0114.1292-.0213.1938-.0323.2809-.0478-.0249.02-.1329.0156a5.28,5.28,0,0,0,.5633-.0573,10.7561,10.7561,0,0,1,1.1842-.024q.3451.0121.6889.0467c.1225.0124.421-.0306.0267-.0012a1.6485,1.6485,0,0,1,.3413.056,9.5139,9.5139,0,0,1,1.5409.4144q.1839.0667.365.1409c-.3246-.1327.0454.0265.1143.06a9.206,9.206,0,0,1,.8575.47,8.4774,8.4774,0,0,1,.7293.5006c-.2172-.1683.1221.1082.1622.1428.1621.14.3181.2859.4722.4345a1.5692,1.5692,0,0,0,2.2192-2.2192,11.31,11.31,0,0,0-7.31-3.1739,10.5545,10.5545,0,0,0-3.6981.3965,1.57,1.57,0,1,0,.8343,3.0263Z"/><path d="M526.6806,761.8174a6.534,6.534,0,0,1,.8481-.1957c.0645-.0114.1292-.0213.1938-.0323.2809-.0478-.0249.02-.1329.0156a5.28,5.28,0,0,0,.5633-.0573,10.7808,10.7808,0,0,1,1.1842-.024q.3451.0122.6889.0467c.1225.0124.421-.0306.0267-.0012a1.6485,1.6485,0,0,1,.3413.056,9.5139,9.5139,0,0,1,1.5409.4144q.1839.0668.365.1409c-.3246-.1327.0454.0265.1143.06a9.2293,9.2293,0,0,1,.8575.47,8.4774,8.4774,0,0,1,.7293.5006c-.2172-.1683.1221.1083.1622.1428.1621.14.3181.2859.4722.4345a1.5692,1.5692,0,0,0,2.2192-2.2192,11.31,11.31,0,0,0-7.31-3.1739,10.5569,10.5569,0,0,0-3.6981.3965,1.57,1.57,0,1,0,.8343,3.0263Z"/><path d="M525.4,778.1653a6.5336,6.5336,0,0,1,.8481-.1956c.0645-.0114.1292-.0213.1938-.0323.2809-.0478-.0249.02-.1329.0155a5.28,5.28,0,0,0,.5633-.0573,10.7808,10.7808,0,0,1,1.1842-.0239q.3451.012.6889.0466c.1225.0125.421-.0305.0267-.0011a1.65,1.65,0,0,1,.3414.0559,9.513,9.513,0,0,1,1.5408.4145q.1839.0667.365.1409c-.3246-.1328.0454.0264.1143.06a9.1932,9.1932,0,0,1,.8575.47,8.4393,8.4393,0,0,1,.7293.5006c-.2172-.1683.1221.1082.1622.1428.1621.14.3181.2858.4722.4344a1.5692,1.5692,0,0,0,2.2192-2.2192,11.3106,11.3106,0,0,0-7.31-3.1739,10.56,10.56,0,0,0-3.6981.3965,1.57,1.57,0,1,0,.8343,3.0263Z"/><path d="M538.8241,806.5345h0a12.9731,12.9731,0,0,1-10.7654,5.7338H474.2924a21.0786,21.0786,0,0,0-1.3,3.3847l-1.9291,6.74h72.91l12.5873-20.5642a30.4377,30.4377,0,0,1,9.3155,17.6233l.4525,2.9409H586.08l.07-21.5924H549.59A12.9735,12.9735,0,0,0,538.8241,806.5345Z"/><path d="M537.4692,805.7425a11.5068,11.5068,0,0,1-9.435,4.9566c-.6775.0078-1.3554,0-2.0329,0H474.2924a1.5472,1.5472,0,0,0-1.355.7772c-1.5669,3.3206-2.38,6.9811-3.3874,10.5a1.5849,1.5849,0,0,0,1.5132,1.9864h71.4373c.4611,0,.9308.0257,1.3914,0,1.0257-.0573,1.4-.7174,1.8625-1.4731l11.832-19.33.3293-.5381-2.4645.3176a29.1364,29.1364,0,0,1,7.3575,10.9528,44.7107,44.7107,0,0,1,2.0069,8.9189,1.5749,1.5749,0,0,0,1.5132,1.1521H586.08a1.5926,1.5926,0,0,0,1.5693-1.5692l.0607-18.8483.0088-2.7441a1.5918,1.5918,0,0,0-1.5692-1.5693H550.3605a15.1423,15.1423,0,0,0-12.8913,6.511c-1.1541,1.6632,1.5651,3.2339,2.71,1.584a11.8891,11.8891,0,0,1,10.1814-4.9565H586.15l-1.5692-1.5692L584.52,819.649l-.0089,2.7442,1.5692-1.5692H566.3288l1.5131,1.152a42.9507,42.9507,0,0,0-2.2933-9.6595,32.6751,32.6751,0,0,0-7.8782-11.5971,1.59,1.59,0,0,0-2.4646.3176l-11.0187,18.0016-1.5686,2.5626,1.355-.7772h-72.91l1.5131,1.9863c.926-3.235,1.6307-6.6976,3.0711-9.75l-1.355.7772h51.4421c.774,0,1.5487.01,2.3227,0a14.7769,14.7769,0,0,0,12.1219-6.511C541.3093,805.6459,538.5917,804.0733,537.4692,805.7425Z"/><path d="M512.8618,792.4933h10.87a19.7455,19.7455,0,0,0,15.165-6.45,20.2617,20.2617,0,0,0,4.838-13.8049V749.295a1.57,1.57,0,0,0-3.1384,0v21.2759c0,.9092.0072,1.8187,0,2.7278a16.0412,16.0412,0,0,1-16.32,16.0562c-3.8049.0093-7.61,0-11.4148,0a1.57,1.57,0,0,0,0,3.1384Z"/><path d="M573.5531,799.7726c0-3.0978-.0069-6.1956,0-9.2934a13.7683,13.7683,0,0,1,7.7843-12.5847,43.7,43.7,0,0,1,5.3143-1.8416c1.9108-.626,1.0927-3.6576-.8344-3.0263-1.5677.5136-3.1722.9664-4.7077,1.5715a17.0088,17.0088,0,0,0-7.71,6.0394,16.6557,16.6557,0,0,0-2.9809,9.1427c-.0382,1.5171-.0043,3.0387-.0043,4.556v5.4364a1.57,1.57,0,0,0,3.1384,0Z"/><path class="cls-5" d="M949.1785,822.6768l16.3685-71.0492-17.2134-16.8827h0a30.4375,30.4375,0,0,1,19.2648-5.1213l2.9674.2193L975,710.5958l-25.096-5.867-56.5034-13.2095-29.5289,54.8938,47.4062,11.049c13.8219,4.1354,18.7293,19.2873,20.9278,45.0727a21.1818,21.1818,0,0,0,10.8379,16.7489Z"/><path d="M950.6917,823.0939l2.7709-12.0277,5.9735-25.9284,5.667-24.5981,1.6264-7.06c.1038-.4507.226-.9014.3123-1.3558.1972-1.0384-.3206-1.5429-.9677-2.1776l-16.1805-15.87-.45-.4418-.3176,2.4646a29.1669,29.1669,0,0,1,12.42-4.7506,43.6327,43.6327,0,0,1,9.02.0628,1.5761,1.5761,0,0,0,1.5131-1.152l4.4342-19.2471a1.5932,1.5932,0,0,0-1.096-1.93l-27.354-6.3949-40.734-9.5229-13.5113-3.1587a1.6049,1.6049,0,0,0-1.7721.7211l-9.9866,18.565-15.9063,29.57-3.636,6.7593a1.5867,1.5867,0,0,0,.9378,2.3052l15.2561,3.5557,25.0586,5.8405c5.3558,1.2483,10.5665,2.08,14.7707,6.0073a29.2945,29.2945,0,0,1,7.1919,11.9168,90.286,90.286,0,0,1,4.0163,18.7116c.4636,3.7076.5475,7.52,1.2472,11.19a22.4336,22.4336,0,0,0,4.1137,9.24c3.1109,4.1182,7.3521,6.3664,11.75,8.7986l1.5275.8448c1.7688.9783,3.3538-1.7311,1.584-2.71-3.3089-1.83-7.0236-3.4648-9.8346-6.0328a19.6584,19.6584,0,0,1-5.4262-8.3236c-1.1414-3.4666-1.1534-7.192-1.56-10.7915a107.7047,107.7047,0,0,0-3.73-19.7526,37.6977,37.6977,0,0,0-6.8783-13.4372,22.0912,22.0912,0,0,0-10.848-7.0355c-1.52-.4087-3.0745-.7166-4.6071-1.0738l-24.2748-5.6577-11.7859-2.747c-2.1074-.4912-4.2761-1.2036-6.4223-1.4968-.105-.0144-.2109-.0492-.3144-.0733l.9378,2.3052,9.9866-18.565,15.9063-29.57,3.636-6.7593-1.7721.7211,33.6855,7.8751,27.7366,6.4844,20.1772,4.7171-1.096-1.93-4.4342,19.2472,1.5132-1.1521a45.2505,45.2505,0,0,0-9.8647.05,31.7108,31.7108,0,0,0-13.1595,5.066,1.59,1.59,0,0,0-.3176,2.4646l15.0683,14.7789,2.1451,2.1038-.4036-1.5268-5.5366,24.0323L949.68,813.5164l-2.0143,8.7432C947.2125,824.2253,950.2377,825.0645,950.6917,823.0939Z"/><path d="M918.2794,759.8645a6.5022,6.5022,0,0,1-.0006-.865q.0117-.2294.0338-.4578c.0082-.0859.0194-.1714.0279-.2572.0259-.2616-.0733.4674-.0088.0721a11.8,11.8,0,0,1,.2451-1.1648q.0925-.3439.2084-.6812.0532-.1545.1113-.3072c.0606-.1592.2338-.3258.0041-.0259a5.3873,5.3873,0,0,0,.3474-.7229q.1984-.3724.43-.7262.12-.1831.2484-.3607c.0639-.0882.1878-.3589.0269-.0395a3.36,3.36,0,0,1,.62-.6978c.2318-.2355.48-.4489.7285-.666q.2055-.1642-.0147.0061.1046-.0792.2112-.1557c.1459-.1047.295-.2042.4456-.3019a1.5695,1.5695,0,1,0-1.5841-2.71,11.5267,11.5267,0,0,0-5.2232,9.273,6.3053,6.3053,0,0,0,.0042.7885,1.5692,1.5692,0,1,0,3.1384,0Z"/><path d="M910.4333,756.7261a6.4854,6.4854,0,0,1,0-.865q.0115-.2293.0337-.4579c.0083-.0858.0194-.1713.0279-.2571.026-.2617-.0733.4674-.0087.0721a11.765,11.765,0,0,1,.245-1.1648q.0927-.3441.2085-.6813.0531-.1545.1113-.3071c.06-.1592.2337-.3258.0041-.0259a5.3868,5.3868,0,0,0,.3473-.7229q.1986-.3724.43-.7262.12-.1833.2485-.3607c.0639-.0882.1877-.3589.0269-.0395a3.3571,3.3571,0,0,1,.62-.6978c.2318-.2355.48-.4489.7286-.6661q.2053-.1641-.0148.0062.1046-.0792.2113-.1558c.1458-.1046.295-.2041.4455-.3018a1.5694,1.5694,0,1,0-1.584-2.71,11.5264,11.5264,0,0,0-5.2232,9.273,6.2864,6.2864,0,0,0,.0041.7885,1.5692,1.5692,0,1,0,3.1384,0Z"/><path d="M903.6334,754.6338a6.4854,6.4854,0,0,1-.0005-.865q.0116-.2294.0337-.4579c.0083-.0858.0194-.1713.0279-.2571.026-.2617-.0733.4674-.0088.0721a11.8,11.8,0,0,1,.2451-1.1648q.0927-.3439.2084-.6812.0533-.1545.1114-.3072c.0605-.1592.2337-.3258.0041-.0259a5.3868,5.3868,0,0,0,.3473-.7229q.1986-.3724.43-.7262.12-.1833.2484-.3607c.064-.0882.1878-.3589.027-.0395a3.3571,3.3571,0,0,1,.62-.6978c.2318-.2355.48-.4489.7285-.666q.2055-.1643-.0147.0061.1046-.0792.2112-.1557c.1459-.1047.295-.2042.4456-.3019a1.5694,1.5694,0,0,0-1.584-2.71,11.5261,11.5261,0,0,0-5.2232,9.273,6.2864,6.2864,0,0,0,.0041.7885,1.5692,1.5692,0,1,0,3.1384,0Z"/><path d="M948.9371,753.0852h0a12.973,12.973,0,0,1,3.1706,11.7778l-12.0706,52.3939a21.0684,21.0684,0,0,0,3.0064,2.0268l6.135,3.393,16.3685-71.0491-17.2134-16.8827a30.4375,30.4375,0,0,1,19.2648-5.1213l2.9674.2193L975,710.5957,953.9744,705.68l-8.2078,35.6269A12.9731,12.9731,0,0,0,948.9371,753.0852Z"/><path d="M947.8275,754.1948a11.5031,11.5031,0,0,1,2.7566,10.2965c-.1583.7237-.3328,1.4443-.4991,2.1661L947.4235,778.21l-7.1483,31.0278-1.7513,7.6018a1.5543,1.5543,0,0,0,.4036,1.5267,68.3084,68.3084,0,0,0,9.459,5.6652,1.5857,1.5857,0,0,0,2.3052-.9378l2.771-12.0277,5.9734-25.9284,5.667-24.5981,1.6264-7.06c.1038-.4507.2261-.9014.3123-1.3559.1972-1.0384-.3206-1.5429-.9677-2.1776l-16.1805-15.87-.45-.4418-.3176,2.4646a29.39,29.39,0,0,1,12.6339-4.7761,44.6438,44.6438,0,0,1,8.8063.0883,1.5761,1.5761,0,0,0,1.5131-1.152l4.4343-19.2472a1.5933,1.5933,0,0,0-1.096-1.93l-18.3536-4.2906-2.6721-.6247a1.5923,1.5923,0,0,0-1.93,1.096L944.4446,740.06a15.2139,15.2139,0,0,0,3.3829,14.1344c1.36,1.499,3.5743-.7257,2.2192-2.2192-2.8594-3.1517-3.4847-7.1356-2.5569-11.163l1.7056-7.4034,5.01-21.7449,1.2824-5.5667-1.93,1.096,18.3535,4.2906,2.6721.6247-1.096-1.93-4.4342,19.2472,1.5132-1.1521a45.2776,45.2776,0,0,0-9.6561.0222,32.1851,32.1851,0,0,0-13.3681,5.094,1.59,1.59,0,0,0-.3176,2.4646l15.0683,14.7788,2.1451,2.1039-.4036-1.5268-5.5366,24.0323L949.68,813.5164l-2.0143,8.7432,2.3051-.9378c-2.9411-1.6267-6.175-3.0875-8.8238-5.1745l.4035,1.5268,4.8648-21.1162,6.6467-28.85c.1853-.8044.38-1.6073.556-2.4138a14.791,14.791,0,0,0-3.571-13.3181C948.6636,750.4979,946.4477,752.7206,947.8275,754.1948Z"/><path d="M929.41,775.2974l2.4253-10.5274c1.3064-5.6706.6307-11.5255-2.8415-16.3388a20.2769,20.2769,0,0,0-12.3635-7.8275l-12.0512-2.7764-10.2528-2.362c-1.9657-.4529-2.8049,2.5723-.8344,3.0263l20.57,4.739c3.7713.8688,7.3388,1.8281,10.2641,4.5881a16.2734,16.2734,0,0,1,4.611,15.561q-1.2655,5.5441-2.5534,11.0833c-.4529,1.9658,2.5723,2.8049,3.0263.8344Z"/><path d="M950.2093,717.7406q-4.5534-1.0491-9.107-2.0981a13.7512,13.7512,0,0,1-10.5164-10.37,43.5043,43.5043,0,0,1-.6139-5.57c-.18-1.9953-3.32-2.0142-3.1384,0,.157,1.7376.2567,3.4918.51,5.2188a16.6291,16.6291,0,0,0,12.35,13.6123c1.4826.3749,2.9825.69,4.4726,1.0336l5.209,1.2c1.9657.4529,2.8048-2.5723.8343-3.0263Z"/><path class="cls-1" d="M628.4048,406.7778,597.9754,514.41l-109.706-30.0816-11.2121,43.5431,106.6545,28.7416a49.3445,49.3445,0,0,0,57.4-26.45l45.3764-106.6215"/><path d="M626.8916,406.3606l-3.0182,10.676L616.59,442.8l-8.78,31.0562-7.5928,26.8565-2.5058,8.8634a35.6723,35.6723,0,0,0-1.1978,4.2366,1.5,1.5,0,0,1-.0509.18l1.93-1.096-10.9356-2.9985L561.2045,502.7l-31.6218-8.6708-27.3461-7.4983c-4.44-1.2174-8.8734-2.6308-13.3609-3.6636-.0635-.0146-.1262-.0346-.1891-.0519a1.5915,1.5915,0,0,0-1.93,1.096l-3.7978,14.749-6.0208,23.3821-1.3936,5.412a1.595,1.595,0,0,0,1.096,1.93l14.3326,3.8624,32.494,8.7566,35.337,9.5228,22.4836,6.0589a65.5871,65.5871,0,0,0,9.88,2.0061,51.0259,51.0259,0,0,0,26.04-4.0982,50.482,50.482,0,0,0,25.9291-26.11l8.6194-20.2532L665.84,476.0364l13.7828-32.3856,7.85-18.445.3711-.8719a1.625,1.625,0,0,0-.5629-2.147,1.5789,1.5789,0,0,0-2.147.563l-5.514,12.9563-12.798,30.0716L652.4,499.6649,641.8813,524.38c-.687,1.6143-1.35,3.2415-2.0619,4.845a46.5977,46.5977,0,0,1-13.048,16.7623,48.2367,48.2367,0,0,1-42.9718,9.024q-8.8347-2.375-17.6663-4.7608l-33.5222-9.0337-34.2731-9.236-19.9041-5.3639-.9594-.2585,1.096,1.93,3.7978-14.749,6.0207-23.382,1.3936-5.412-1.93,1.096,10.9356,2.9985,26.2524,7.1985,31.6218,8.6708,27.3461,7.4983c4.44,1.2174,8.8734,2.6308,13.3609,3.6636.0635.0146.1262.0346.1891.0519a1.5949,1.5949,0,0,0,1.93-1.096l3.0183-10.676,7.2838-25.7635,8.78-31.0562,7.5927-26.8565c1.23-4.3517,2.6635-8.6977,3.7036-13.1.0143-.0606.034-.12.051-.18a1.5706,1.5706,0,0,0-3.0264-.8343Z"/><path class="cls-1" d="M689.8945,433.7775l-19.7237,81.6544c-7.7875-4.3344-24.417-11.1768-35.7935-14.7285-6.22-1.9418-21.7447-16.9963-27.3976-18.143l22.923-83.3475a27.3749,27.3749,0,0,1,26.3949-20.1156h20.2379"/><path d="M688.3813,433.36l-6.6627,27.5832-10.6212,43.9706-2.44,10.1007,2.3052-.9378a147.5974,147.5974,0,0,0-14.029-6.6059c-5.5253-2.339-11.1168-4.53-16.7831-6.5045a65.1221,65.1221,0,0,1-6.4006-2.201,34.2063,34.2063,0,0,1-4.5792-2.8317c-3.8016-2.6653-7.4063-5.6017-11.1044-8.406-1.9135-1.4509-3.8447-2.8917-5.8718-4.1817a15.5486,15.5486,0,0,0-4.7978-2.2989l1.096,1.93,4.3413-15.7852,9.0334-32.8453,7.8686-28.61q.8152-2.9641,1.63-5.9285a26.09,26.09,0,0,1,11.8138-15.56,25.7142,25.7142,0,0,1,11.6886-3.545c1.62-.0841,3.2535-.037,4.8751-.037h16.7913a1.57,1.57,0,0,0,0-3.1384H663.4691c-5.2772,0-10.6032-.3012-15.7145,1.2879a29.165,29.165,0,0,0-18.1266,16.4389,55.3837,55.3837,0,0,0-2.1557,6.876l-7.2408,26.3273-9.3448,33.9776c-1.777,6.4609-3.7553,12.902-5.3393,19.4136-.024.0986-.0539.196-.0808.2939a1.5864,1.5864,0,0,0,1.096,1.93,12.1131,12.1131,0,0,1,3.745,1.7916c1.7578,1.0967,3.4363,2.32,5.0952,3.56,3.7843,2.8274,7.4476,5.8167,11.2819,8.5775a45.0465,45.0465,0,0,0,4.7747,3.1072,33.0918,33.0918,0,0,0,5.4462,2.06c5.6279,1.88,11.1773,4.0024,16.6608,6.2675a153.3846,153.3846,0,0,1,15.8124,7.35,1.5861,1.5861,0,0,0,2.3051-.9378l6.6628-27.5831,10.6211-43.9707,2.44-10.1006c.4741-1.9625-2.5515-2.8-3.0263-.8344Z"/><path d="M650.2565,516.97c1.3153-4.2129-4.9389-10.28-15.7308-16.2864l-8.7182,20.4855C639.2908,522.7743,648.8625,521.4343,650.2565,516.97Z"/><path d="M651.77,517.3867c.9405-3.2778-1.2765-6.4085-3.4113-8.6677-3.6713-3.8855-8.4118-6.8-13.0406-9.3908a1.58,1.58,0,0,0-2.147.5629l-7.6142,17.8911-1.1041,2.5944a1.5991,1.5991,0,0,0,1.355,2.3612c5.8025.6788,11.8172,1.09,17.6042.0471,3.292-.5931,7.1883-1.9136,8.358-5.3982.6442-1.9191-2.3858-2.7423-3.0263-.8344a2.9068,2.9068,0,0,1-.674,1.0213,5.9883,5.9883,0,0,1-1.4837,1,16.0943,16.0943,0,0,1-4.8781,1.3263,62.1879,62.1879,0,0,1-15.9-.3008l1.355,2.3612,7.6141-17.8911,1.1041-2.5944-2.147.563a54.4852,54.4852,0,0,1,11.7547,8.2384,14.1763,14.1763,0,0,1,2.8336,3.6084,3.5586,3.5586,0,0,1,.4214,2.6674A1.5706,1.5706,0,0,0,651.77,517.3867Z"/><path class="cls-6" d="M621.2355,494.5193c-6.22-1.9418-8.6029-10.8122-14.2558-11.9589l-7.01,24.795-1.9945,7.0546L488.27,484.3285l-11.2122,43.543,100.1258,37.4118c23.01,6.2009,53.6927-13.5993,63.9289-35.12l4.38-10.2928,5.0567-13.1625A159.5112,159.5112,0,0,0,621.2355,494.5193Z"/><path d="M621.6527,493.0061c-6.166-2.0469-7.674-10.4759-14.2558-11.9588a1.6009,1.6009,0,0,0-1.93,1.096q-3.5049,12.3974-7.01,24.7949-.9972,3.5274-1.9945,7.0547l1.93-1.096-10.9356-2.9986L561.2045,502.7l-31.6218-8.6707-27.346-7.4983c-4.44-1.2174-8.8734-2.6308-13.3609-3.6636-.0635-.0146-.1263-.0346-.1892-.0519a1.5915,1.5915,0,0,0-1.93,1.096l-3.7978,14.749-6.0208,23.382-1.3936,5.412a1.6119,1.6119,0,0,0,1.096,1.93l6.5311,2.44,16.6664,6.2273,22.0762,8.2488,23.0071,8.5965,19.3972,7.2477,11.2749,4.2129c6.428,2.4018,13.9216,1.9622,20.515.54,11.7074-2.5259,22.5982-8.8349,31.47-16.77a67.9623,67.9623,0,0,0,11.5119-13.2117,62.2932,62.2932,0,0,0,5.1356-10.0919c2.4008-5.6411,4.62-11.3245,6.819-17.0484l1.0184-2.6508a1.575,1.575,0,0,0-.7212-1.7722,159.6148,159.6148,0,0,0-29.6885-12.3471c-1.9317-.6056-2.7581,2.4232-.8343,3.0264a155.4237,155.4237,0,0,1,28.9388,12.0307l-.7212-1.7721-3.1907,8.3052-1.6725,4.3535c-.1375.3579-.2887.7368-.06.1872-.17.4091-.3471.8155-.5206,1.2232-1.2692,2.9823-2.48,5.9973-3.81,8.9529a51.44,51.44,0,0,1-8.6144,12.7805,71.2791,71.2791,0,0,1-29.2091,19.88,47.1533,47.1533,0,0,1-16.5345,2.8855,26.3735,26.3735,0,0,1-8.2329-1.2424c-9.1193-3.2638-18.1551-6.7836-27.228-10.1737l-44.8513-16.7586-18.02-6.733c-3.0537-1.1411-6.0975-2.4615-9.2081-3.4406-.1383-.0436-.2734-.1022-.4093-.153l1.096,1.93,3.7978-14.749,6.0208-23.382,1.3935-5.4121-1.93,1.096,10.9356,2.9986,26.2524,7.1985,31.6218,8.6707,27.3461,7.4983c4.44,1.2174,8.8734,2.6308,13.3609,3.6636.0635.0146.1262.0346.1891.0519a1.5951,1.5951,0,0,0,1.93-1.096q3.8152-13.4949,7.63-26.99l1.3739-4.86-1.93,1.096c2.9423.6629,4.8269,3.5407,6.602,5.7518,2.1012,2.6172,4.3783,5.12,7.6538,6.2071C622.74,496.67,623.5634,493.64,621.6527,493.0061Z"/><polygon class="cls-3" points="407.63 548.327 225.619 565.396 215.317 555.511 223.38 541.662 209.238 526.222 220.17 507.627 407.077 490.854 399.893 519.038 410.393 533.406 407.63 548.327"/><path d="M407.63,546.7579l-4.8571.4555-13.22,1.24-19.5561,1.834-23.9838,2.2492-26.1537,2.4527-26.4,2.4758L268.84,559.7737l-20.8121,1.9517L233.05,563.13c-2.3318.2187-4.8278.2135-7.1288.6685a3.03,3.03,0,0,1-.3018.0283l1.11.46-10.3018-9.8849.2453,1.9017,8.0631-13.85a1.61,1.61,0,0,0-.2454-1.9017l-14.1419-15.4393.2454,1.9016,9.5423-16.2319,1.3893-2.3632-1.355.7772,5.0027-.4489,13.6142-1.2217,20.1346-1.8069,24.4453-2.1936,26.8961-2.4137,27.1527-2.4366,25.3183-2.272,21.3928-1.92,15.3231-1.3751c2.4037-.2157,4.9313-.2335,7.31-.656.1033-.0183.2125-.019.3172-.0284l-1.5131-1.9864L400.56,510.07c-.71,2.7865-1.5288,5.5687-2.1361,8.38-.2244,1.0384.2305,1.5392.787,2.3008l3.2653,4.4682,6.562,8.98-.1582-1.2092L406.1165,547.91c-.3656,1.9743,2.6585,2.8208,3.0263.8343l2.6132-14.1112a2.9207,2.9207,0,0,0-.0419-2.0647,16.7023,16.7023,0,0,0-1.2132-1.66l-5.3152-7.2734-3.9378-5.3885.1582,1.2091L407.7,494.7641l.89-3.4925a1.5825,1.5825,0,0,0-1.5132-1.9864l-6.2035.5567-16.6618,1.4952-24.1963,2.1714-28.8075,2.5851-30.495,2.7366-29.2591,2.6257-25.1,2.2524-18.0166,1.6168c-2.6689.2395-5.3447.44-8.01.7188a2.0455,2.0455,0,0,0-1.6319.9939c-.77,1.2138-1.4612,2.4856-2.1895,3.7245l-7.1452,12.1542-1.4778,2.5138a1.6092,1.6092,0,0,0,.2454,1.9016l14.1419,15.4393-.2454-1.9016-8.063,13.85a1.5971,1.5971,0,0,0,.2454,1.9016l7.7368,7.4238c1.0434,1.0012,2.4089,2.9715,4,2.89,2.6969-.1377,5.4026-.5066,8.09-.7587l17.1409-1.6075,23.4851-2.2024L302.12,559.791l28.6388-2.6857,27.4929-2.5783,23.5515-2.2086,17.2408-1.6169c2.745-.2574,5.4926-.4952,8.2357-.7723.1165-.0118.2331-.0219.35-.0328C409.6234,549.7094,409.6429,546.5691,407.63,546.7579Z"/><path class="cls-1" d="M664.9336,379.0055h66.4307c8.524,0,12.9772,3.31,16.636,15.0555,0,0,22.0257,81.8335,25.8784,120.8249-50.147,3.52-132.2752-.17-132.2752-.17L661.3756,409.44"/><path d="M664.9336,380.5747h31.8421c11.4705,0,22.9414-.0305,34.4119,0,2.9478.0078,5.9194.354,8.4137,2.05,3.7809,2.5707,5.67,7.6658,6.8861,11.8544.7883,2.7153,1.4509,5.4739,2.1622,8.21q6.3125,24.2784,11.9232,48.7341c4.3462,19.0578,8.5891,38.27,11.0747,57.6747q.37,2.89.662,5.7882l1.5692-1.5692c-22.1548,1.5468-44.4166,1.6473-66.6154,1.4743q-27.5442-.2147-55.0759-1.2288c-3.5284-.1266-7.0568-.2569-10.5839-.4152l1.5131,1.9864,1.9657-10.466,4.7207-25.1355,5.7118-30.4122,4.9386-26.2958c.8-4.26,1.6713-8.5133,2.4014-12.7859.01-.06.0226-.12.0339-.1808.3708-1.974-2.6533-2.82-3.0263-.8343l-1.9656,10.466-4.7208,25.1355-5.7117,30.4122-4.9387,26.2958c-.8,4.26-1.6712,8.5133-2.4013,12.7859-.01.06-.0227.12-.034.1808a1.5956,1.5956,0,0,0,1.5132,1.9863c10.2626.4606,20.5336.7719,30.8027,1.04,21.7224.5665,43.4606.848,65.1892.5189,12.1013-.1833,24.2083-.5458,36.2833-1.3889a1.5863,1.5863,0,0,0,1.5692-1.5692c-1.9122-19.217-6.0471-38.2561-10.2254-57.0839-3.8945-17.5486-8.15-35.0184-12.6349-52.425-.9734-3.7778-1.9339-7.5613-2.9645-11.324-1.9672-7.1821-5.8171-14.8291-13.8214-16.2468-3.7915-.6716-7.8672-.37-11.7015-.37H664.9336a1.57,1.57,0,0,0,0,3.1384Z"/><path class="cls-7" d="M700.9042,516.4493l-120.7689,1.1559a63.4908,63.4908,0,0,0-62.7561,59.4736L512.13,753.4662l83.1256,3.2507s4.2558-130.0542,2.322-167.9083l109.1056-1.3473"/><path d="M700.9042,514.88l-6.3784.061-16.6236.1591-22.77.218-25.1826.241-23.4123.2241-17.8453.1708q-4.1856.04-8.3713.08a65.0429,65.0429,0,0,0-64.4618,60.3417c-.1245,1.6746-.1275,3.3612-.1775,5.0392l-.3641,12.2378-.5409,18.1766-.6678,22.4394-.7332,24.6376-.7469,25.1011-.7094,23.8395-.61,20.4992-.46,15.445-.2552,8.577-.0327,1.0979a1.5951,1.5951,0,0,0,1.5692,1.5692l28.0684,1.0977,44.7576,1.75,10.3.4027a1.593,1.593,0,0,0,1.5692-1.5692q.2176-6.6508.4115-13.3026.492-16.481.9136-32.9638.549-21.4689.9564-42.9411c.2634-14.3017.4718-28.6051.53-42.9092.0447-10.9534.0658-21.9212-.3594-32.8684q-.0568-1.4619-.13-2.9232l-1.5692,1.5692,10.8714-.1342,26.1-.3223,31.437-.3883,27.281-.3368c4.3968-.0543,8.8313.0549,13.2239-.1633.0638-.0032.1282-.0016.1921-.0024,2.0181-.0249,2.0236-3.1634,0-3.1384l-10.8714.1342-26.1.3223-31.437.3882-27.2811.3369c-4.3968.0543-8.8312-.0549-13.2238.1633-.0638.0032-.1282.0016-.1921.0024a1.5861,1.5861,0,0,0-1.5693,1.5692c.5267,10.3828.5168,20.7983.5025,31.1915-.0194,14.0357-.2051,28.071-.4466,42.1044q-.3741,21.735-.93,43.4664-.4331,17.3884-.9458,34.7748-.1618,5.4993-.3323,10.9984a44.3949,44.3949,0,0,0-.1627,5.1451,1.95,1.95,0,0,1-.0074.2277l1.5692-1.5692L567.1875,754.05,522.43,752.3l-10.3-.4028,1.5692,1.5692.1329-4.4643.3626-12.1865.5417-18.2017.6612-22.22.7293-24.5061.7434-24.983.7071-23.7623.61-20.49.4621-15.53.2608-8.7623a59.4647,59.4647,0,0,1,3.1935-17.2042,61.9945,61.9945,0,0,1,48.4269-41.1518,82.32,82.32,0,0,1,12.9862-.8619l13.9663-.1336,21.3627-.2045,24.6711-.2361,24.21-.2318,19.8889-.19,11.7076-.1121,1.58-.0151a1.57,1.57,0,0,0,0-3.1384Z"/><path class="cls-7" d="M688,516.6756l2.1455,23.2927a23.776,23.776,0,0,1-.1809,5.6883L672.14,662.21A63.4907,63.4907,0,0,0,720.76,733.7043L894.014,767.2188l16.5612-81.524s-112.4647-22.3292-150.1379-26.501l17.2614-93.1066c3.5347-15.342-1.01-60.9478-4.1846-76.3683Z"/><path d="M686.4312,516.6756l1.8429,20.0076a36.642,36.642,0,0,1,.1672,8.6251c-.1216.8531-.2606,1.704-.3909,2.5558l-5.7046,37.3-7.8126,51.0836c-1.3022,8.5148-2.6271,17.0264-3.9067,25.5447a65.0847,65.0847,0,0,0,27.8208,63.9152,61.8107,61.8107,0,0,0,22.5782,9.6417l8.35,1.6153,37.8339,7.3186,51.307,9.9249,47.4965,9.1878,26.3634,5.1,1.22.236a1.5938,1.5938,0,0,0,1.93-1.096l5.6184-27.6569,8.8909-43.7659,2.052-10.1011a1.592,1.592,0,0,0-1.096-1.93q-5.7271-1.137-11.4588-2.25-14.469-2.8232-28.9519-5.5749-18.9-3.5913-37.8263-7.0415c-12.847-2.3342-25.705-4.6117-38.587-6.7444-10.2617-1.6989-20.5417-3.3515-30.868-4.6117q-1.4307-.1746-2.8631-.3341l1.5132,1.9864,3.5347-19.0662,7.1762-38.708,5.7639-31.09c.3724-2.0088.7977-4.0158,1.14-6.0295,1.2048-7.0892,1.0937-14.4269.9007-21.5892a355.413,355.413,0,0,0-4.7293-50.0148c-.2174-1.2741-.45-2.5454-.7093-3.8117a1.5825,1.5825,0,0,0-1.93-1.096l-29.0888,9.17-45.9562,14.4869-10.4687,3.3c-1.92.6051-1.1,3.636.8343,3.0263l29.0889-9.17,45.9561-14.4869,10.4688-3.3-1.93-1.096c1.3623,6.6571,2.1863,13.4348,2.9388,20.1833.9923,8.8976,1.74,17.8285,2.1616,26.7718a164.7543,164.7543,0,0,1-.1395,23.4956c-.2459,2.5536-.7711,5.0551-1.238,7.5736l-5.2861,28.5128-7.2467,39.0883c-1.4011,7.5577-2.8868,15.1052-4.2043,22.678-.02.1126-.0417.2248-.0625.3371a1.6021,1.6021,0,0,0,1.5131,1.9864c9.7341,1.082,19.419,2.6332,29.0833,4.2074,12.6293,2.0571,25.2331,4.2709,37.8254,6.5424q19.1786,3.46,38.3244,7.0967,15.1224,2.862,30.23,5.8026,4.7971.9334,9.5926,1.8756a31.32,31.32,0,0,0,4.47.8816,1.3505,1.3505,0,0,1,.1948.0387l-1.096-1.93-5.6183,27.6569-8.8909,43.7659-2.052,10.1011,1.93-1.096-18.4036-3.56-43.7345-8.46-51.8512-10.03-42.7535-8.27c-6.757-1.307-13.7326-2.2482-20.3485-4.1959a62.4306,62.4306,0,0,1-44.0152-52.6512c-1.1586-10.9168,1.2368-21.8522,2.8814-32.6056l7.4467-48.691,6.6267-43.33c.3989-2.608.812-5.2143,1.1967-7.8244a40.528,40.528,0,0,0-.101-9.81l-1.1415-12.3923-.664-7.2092C689.3859,514.6812,686.2457,514.6619,686.4312,516.6756Z"/><path d="M677.2766,518.0211l1.1129,13.8c.5432,6.7361,1.1139,13.3727,3.262,19.848,1.0186,3.0707,2.3395,6.0409,3.5757,9.0285a1.6232,1.6232,0,0,0,1.93,1.096,1.578,1.578,0,0,0,1.096-1.93c-.9173-2.217-1.8775-4.4214-2.7325-6.6634a56.2936,56.2936,0,0,1-3.5083-15.3667c-.395-4.7388-.7645-9.48-1.1467-14.22l-.451-5.5924c-.1613-1.9994-3.3011-2.0167-3.1384,0Z"/><path class="cls-6" d="M507.5278,539.3784,486.32,531.0745a54.6407,54.6407,0,0,0-15.8505-3.61c-13.2875-.9932-43.2277,5.1459-41.6585-9.5.373-3.4806,11.7592-6.5478,15.4331-7.4912a8.529,8.529,0,0,0,6.2635-9.1444h0c-9.9618-17.8637-38.394,3.4319-45.7867,3.5216-3.5115.0426-4.3465-2.2768-4.2553-4.7239a9.9325,9.9325,0,0,1,4.4134-7.7955l-.5846-.8554a9.5509,9.5509,0,0,1,1.5873-12.5688l16.5409-10.4529a37.8222,37.8222,0,0,1,27.39-5.1955l11.9516,1.8759c9.63,1.852,16.2284,4.485,21.8668,12.5088h0a21.9616,21.9616,0,0,0,12.9545,8.7549l7.7434,1.8159"/><path d="M507.9449,537.8652l-11.4161-4.47c-4.2641-1.67-8.5086-3.5189-12.8676-4.9335a54.2374,54.2374,0,0,0-14.6465-2.6456c-2.9352-.1085-5.8778.0194-8.81.1445-6.5987.2814-13.3118.8059-19.8933.0033a18.5038,18.5038,0,0,1-7.0593-2.015,5.3694,5.3694,0,0,1-2.9121-4.3248c-.0946-1.2942-.0987-1.6508.7494-2.3848a14.7006,14.7006,0,0,1,3.8932-2.1655,66.3146,66.3146,0,0,1,9.18-2.9585,10.238,10.238,0,0,0,7.8118-8.26,7.9731,7.9731,0,0,0,.0738-2.7348,6.7937,6.7937,0,0,0-1.3788-2.4258,15.2476,15.2476,0,0,0-3.3632-3.3384c-5.045-3.6139-11.73-3.0617-17.4261-1.5976-6.1595,1.5834-11.9353,4.347-17.7223,6.924a39.1633,39.1633,0,0,1-6.214,2.4c-.199.05-.3987.0927-.5992.1359-.1157.0249-.6053.0726-.188.0364a3.9706,3.9706,0,0,1-1.9327-.1945c-1.44-.6387-1.3111-2.7243-1.0714-4.003a8.56,8.56,0,0,1,3.5179-5.3709,1.593,1.593,0,0,0,.563-2.147,9.35,9.35,0,0,1-2.0217-5.9725,7.8712,7.8712,0,0,1,2.5326-5.35c1.9335-1.5085,4.2507-2.6861,6.3216-3.9948,5.9344-3.75,11.9064-8.2574,18.6579-10.3838a37.6923,37.6923,0,0,1,17.73-1.0574c2.8772.4819,5.7656.9049,8.6476,1.3573a69.8173,69.8173,0,0,1,10.2557,2.2177,26.042,26.042,0,0,1,12.1167,7.7655c2.0805,2.4034,3.6908,5.0458,6.1976,7.0743a23.964,23.964,0,0,0,8.3823,4.4232c2.9073.8448,5.9107,1.4172,8.8575,2.1082,1.9645.4608,2.803-2.5646.8343-3.0263-2.5776-.6045-5.1605-1.19-7.7335-1.8136a20.899,20.899,0,0,1-7.8421-3.69c-2.2627-1.7362-3.8113-3.9727-5.5558-6.1788a28.5064,28.5064,0,0,0-12.5312-9.038,57.2222,57.2222,0,0,0-11.3-2.7359c-3.13-.4913-6.2677-.9509-9.393-1.4743a41.7749,41.7749,0,0,0-17.8714.5682c-7.5766,2.0178-13.9812,6.7147-20.52,10.847-2.289,1.4465-4.7078,2.7879-6.9094,4.3663a10.79,10.79,0,0,0-4.0158,8.0145,12.0341,12.0341,0,0,0,2.45,7.5566l.563-2.147c-3.5568,2.5085-6.0578,7.0348-4.9727,11.4728.8379,3.4268,4.3449,4.44,7.4589,3.71a38.6107,38.6107,0,0,0,6.6439-2.5335c2.7777-1.228,5.53-2.5145,8.3375-3.6747,5.6981-2.355,12.233-4.871,18.5184-4.0655a11.7006,11.7006,0,0,1,7.1438,3.5329,12.2739,12.2739,0,0,1,1.3581,1.7415,3.9727,3.9727,0,0,0,.2936.47c.3877.4285.1755-.1153.07-.3014a4.4385,4.4385,0,0,1-.0245,1.8988,7.0388,7.0388,0,0,1-3.2131,4.94,16.3709,16.3709,0,0,1-4.2668,1.4336c-1.7322.4853-3.4536,1.0146-5.147,1.6224-2.82,1.0122-6.61,2.2556-8.3757,4.877-1.353,2.0088-.7836,5.23.3393,7.2287a10.5572,10.5572,0,0,0,5.7444,4.4006c5.9127,2.22,12.8394,1.872,19.0391,1.6674,6.6408-.2192,13.3664-.9307,19.99-.1113,6.4082.7928,12.29,3.0712,18.24,5.4009l14.8448,5.8124,1.0021.3924c1.8815.7366,2.6971-2.297.8343-3.0264Z"/><line class="cls-7" x1="889.1127" y1="684.3012" x2="874.8993" y2="761.9805"/><path d="M887.6,683.884l-4.8054,26.2621-7.6556,41.84-1.7525,9.5776c-.3613,1.9746,2.6628,2.8213,3.0263.8343l4.8054-26.2621,7.6556-41.84,1.7525-9.5776c.3613-1.9745-2.6628-2.8213-3.0263-.8343Z"/><line class="cls-7" x1="512.7817" y1="731.5754" x2="595.9368" y2="734.1941"/><path d="M512.7817,733.1447l28.0783.8842,44.7736,1.41,10.3032.3245c2.02.0636,2.0181-3.0749,0-3.1384l-28.0783-.8843-44.7736-1.41-10.3032-.3245c-2.02-.0636-2.0181,3.0749,0,3.1385Z"/><path d="M468.7818,759.678a8.407,8.407,0,0,0-3.16-10.86c-4.3-2.4951-8.05,2.3-10.01,5.5695a30.8789,30.8789,0,0,0-2.08,4.11l1.5412.2086a43.9992,43.9992,0,0,0-3.4015-14.6484,24.9452,24.9452,0,0,0-6.5657-9.4921c-2.6336-2.228-6.3313-4.1109-9.8779-3.9425-5.4055.2567-5.6772,6.3036-5.1662,10.4223.8449,6.8115,3.3067,13.4411,5.8476,19.7771,1.7178,4.2832,3.5592,8.5365,5.6127,12.6712l1.2323-.9508a78.006,78.006,0,0,0-8.6286-8.5419c-4.349-3.7151-10.0881-8.2855-16.136-8.2119a7.8258,7.8258,0,0,0-6.4,3.212,6.3953,6.3953,0,0,0-.2562,5.85c2.0618,5.448,6.9638,9.8929,11.2041,13.6757a118.0312,118.0312,0,0,0,10.6312,8.4883l.6046-1.434a34.0214,34.0214,0,0,0-12.0909-1.9974c-2.479.098-5.205.6468-7.0008,2.4978-2.3393,2.4111-2.3182,6.1992-1.1643,9.1594a18.2487,18.2487,0,0,0,4.5254,6.6188l.9508-1.2323a6.3578,6.3578,0,0,0-4.76-.9133c-4.1483,1.059-4.4589,6.8256-4.48,10.2258l.576-.7566c-1.4812.4494-4.6558,1.6734-4.002,3.8435a.7853.7853,0,0,0,1.5132-.4172c-.0369-.1222-.0341.1147,0-.022a1.1657,1.1657,0,0,1,.1392-.3814c.5156-.8727,1.8869-1.2427,2.7671-1.51a.8042.8042,0,0,0,.5761-.7565c.0157-2.5739.0517-8.2052,3.5795-8.7667a4.96,4.96,0,0,1,3.2992.8092.7879.7879,0,0,0,.9508-1.2323c-3.232-2.986-7.1456-9.479-3.4321-13.4832,1.604-1.73,4.2111-2.0939,6.45-2.1269a30.7951,30.7951,0,0,1,7.173.8542,38.0263,38.0263,0,0,1,4.0134,1.1c.8916.306,1.29-.9524.6046-1.434-2.7668-1.9455-5.4258-4.0606-8.0081-6.2426-4.3635-3.6872-8.9294-7.725-11.9221-12.6533-1-1.647-2.08-3.76-1.6257-5.75.4668-2.0431,2.7239-3.3309,4.6657-3.5965,2.5966-.3551,5.2663.666,7.5332,1.8308a42.6994,42.6994,0,0,1,7.6623,5.2293,77.3721,77.3721,0,0,1,9.3789,9.1739c.6084.7116,1.608-.1944,1.2323-.9508-1.5344-3.0893-2.9369-6.2508-4.2757-9.4286a109.53,109.53,0,0,1-6.31-18.5662,26.1682,26.1682,0,0,1-.8051-8.0095c.1514-1.63.6885-3.5256,2.341-4.2149,2.58-1.0765,6.1255.504,8.2808,1.8293a20.4858,20.4858,0,0,1,7.29,8.5284,40.9531,40.9531,0,0,1,4.1056,15.8659.7888.7888,0,0,0,1.5412.2086c-.0228.0554.0033-.0112.0937-.2134q.2063-.4614.4256-.9168c.4292-.888.8954-1.759,1.4027-2.605,1.1623-1.9383,2.6627-4.2042,4.7968-5.1652,2.6713-1.2029,5.4009,1.473,6.0573,3.9292a7.4837,7.4837,0,0,1,.0473,3.4211,11.184,11.184,0,0,1-.3216,1.1872c-.0429.1323-.2042.5224-.12.3339-.4087.9142.9431,1.7133,1.3549.792Z"/><path class="cls-6" d="M700.5458,409.166h0a27.4612,27.4612,0,0,1-27.4612-27.4612v-2.6075H728.007v2.6075A27.4612,27.4612,0,0,1,700.5458,409.166Z"/><path d="M700.5458,407.5968a26.1463,26.1463,0,0,1-25.3987-20.8163,38.2555,38.2555,0,0,1-.4933-7.6832l-1.5693,1.5692H728.007l-1.5693-1.5692a43.1794,43.1794,0,0,1-.2555,6.3407,25.9181,25.9181,0,0,1-2.7956,8.4739,25.7888,25.7888,0,0,1-22.8408,13.6849,1.57,1.57,0,0,0,0,3.1384,29.3231,29.3231,0,0,0,28.39-22.9544,41.8923,41.8923,0,0,0,.64-8.6835,1.592,1.592,0,0,0-1.5692-1.5692H673.0845a1.592,1.592,0,0,0-1.5692,1.5692,46.6671,46.6671,0,0,0,.3943,7.3439,28.5871,28.5871,0,0,0,3.2433,9.3439,29.3246,29.3246,0,0,0,14.5165,12.8315,28.8019,28.8019,0,0,0,10.8764,2.1186A1.57,1.57,0,0,0,700.5458,407.5968Z"/><polyline class="cls-6" points="716.886 384.043 716.885 349.58 684.069 354.767 683.108 385.676"/><path d="M718.4554,384.0433l-.0007-30.114,0-4.3493a1.5949,1.5949,0,0,0-1.9863-1.5131l-28.75,4.544-4.066.6426a1.58,1.58,0,0,0-1.1521,1.5132l-.8414,27.0659-.12,3.8435c-.0628,2.02,3.0757,2.0181,3.1385,0l.8414-27.0659.1194-3.8435-1.152,1.5131,28.75-4.544,4.0661-.6426-1.9864-1.5132.0006,30.114,0,4.3493a1.57,1.57,0,0,0,3.1385,0Z"/><path class="cls-6" d="M716.8724,354.4366c2.81-12.2233,12.2241-18.8543,13.3385-28.3566.6471-5.5177-6.959-21.319-6.959-21.319l-54.7663-1.9049s-20.954,48.5753,10.0008,61.4335c0,0,15.7156,4.286,22.859-5.2385"/><path d="M718.3855,354.8538a42.68,42.68,0,0,1,6.0394-13.1115c2.2957-3.5864,4.792-7.0984,6.2825-11.12a15.6507,15.6507,0,0,0,.4342-9.7371,73.4794,73.4794,0,0,0-3.63-10.36c-.9186-2.2056-1.87-4.4019-2.9051-6.5557a1.563,1.563,0,0,0-1.3549-.7772l-18.5377-.6448-29.422-1.0233-6.8066-.2368a1.5261,1.5261,0,0,0-1.3549.7772,89.4464,89.4464,0,0,0-6.9861,28.6039c-.5294,7.4.1449,15.1277,3.4322,21.8759a26.18,26.18,0,0,0,6.6775,8.6c2.359,1.9713,5.3768,4.1148,8.4226,4.8065,8.3523,1.8967,18.44,1.1628,24.0235-6.1069a1.58,1.58,0,0,0-.563-2.147,1.6071,1.6071,0,0,0-2.147.5629c-4.5114,5.874-13.2618,6.1238-19.8272,4.8034a17.833,17.833,0,0,1-6.9118-3.5192,23.3747,23.3747,0,0,1-6.5383-7.7448c-3.2152-6.0611-3.8614-13.1761-3.5051-19.9247a83.4034,83.4034,0,0,1,3.3512-18.6446q1.0448-3.6234,2.3468-7.167.3714-1.0058.7688-2.0017c.0743-.1851.1525-.3687.2259-.5541.15-.3788-.1449.3388-.06.1418l-1.355.7772,18.5378.6448,29.4219,1.0234,6.8066.2368-1.355-.7772a95.4776,95.4776,0,0,1,5.8409,14.77,21.8019,21.8019,0,0,1,.908,4.244,11.6807,11.6807,0,0,1-.762,4.6488c-1.2868,3.8119-3.7321,7.1585-5.8913,10.51-2.8695,4.4545-5.4032,9.0986-6.6333,14.2934-.4651,1.9638,2.56,2.802,3.0263.8343Z"/><path class="cls-8" d="M704.0061,311.3463l.0838,23.0289c.3332-6.7085,6.099-15.5267,10.9067-15.2878s8.4222,2.0419,8.08,8.925c-.2263,4.5561-4.4394,12.3077-7.2023,14.2542l1.0116,18.6437,21.7283-27.5382a17.6464,17.6464,0,0,0,3.6879-12.7971V304.761H704.2028Z"/><path d="M702.4369,311.3463,702.51,331.45l.0107,2.9254c.0074,2.035,3.0143,2.0022,3.1384,0a18.6125,18.6125,0,0,1,2.8074-8.2892c1.24-2.0587,3.0472-4.5425,5.4594-5.2882a7.3314,7.3314,0,0,1,5.64,1.1255c1.9592,1.4534,2.1722,4.3949,1.8992,6.6181a22.0207,22.0207,0,0,1-2.9737,7.855,21.3271,21.3271,0,0,1-2.22,3.3109c-.6722.7917-1.8884,1.4758-1.9654,2.57a22.9387,22.9387,0,0,0,.15,2.7649l.3216,5.9278.5394,9.94c.0656,1.2077,1.77,2.262,2.6788,1.11l15.0876-19.1218q3.2347-4.1,6.47-8.2a19.817,19.817,0,0,0,4.0519-8.5468,39.0968,39.0968,0,0,0,.2666-7.3843V304.761a1.5921,1.5921,0,0,0-1.5692-1.5692H704.2028a1.597,1.597,0,0,0-1.5693,1.5692l-.1966,6.5853c-.06,2.02,3.0782,2.0184,3.1384,0l.1967-6.5853-1.5692,1.5693h38.0995l-1.5693-1.5693v12.1859c0,1.7019.0535,3.388.0933,5.0856a16.33,16.33,0,0,1-3.3732,10.2956c-5.0747,6.6383-10.3577,13.1272-15.5335,19.687l-6.1431,7.7856,2.6789,1.11-1.0117-18.6437-.7772,1.355c2.9363-2.1631,4.8395-5.8171,6.2353-9.1,1.5186-3.5715,2.5231-7.7276,1.1325-11.5192-1.1554-3.15-3.89-4.8221-7.1107-5.2915a8.2781,8.2781,0,0,0-4.9024.4786,12.3982,12.3982,0,0,0-4.1451,3.358,22.5236,22.5236,0,0,0-5.3554,12.8276h3.1384l-.0731-20.1035-.0107-2.9254A1.57,1.57,0,0,0,702.4369,311.3463Z"/><path d="M680.1015,345.2316a49.7819,49.7819,0,0,0,5.0006-2.6214s1.883,1.7625-1.1112,3.8092C681.8391,347.8145,680.1015,345.2316,680.1015,345.2316Z"/><path d="M680.8935,346.5866a45.6594,45.6594,0,0,0,5.0006-2.6214l-1.9016-.2454a1.5073,1.5073,0,0,1,.1484.1689l-.2453-.3176a2.2719,2.2719,0,0,1,.2782.47l-.1582-.3748a2.0469,2.0469,0,0,1,.1431.5173l-.056-.4172a1.9817,1.9817,0,0,1,.0006.4541l.056-.4171a2.1845,2.1845,0,0,1-.1548.5554l.1582-.3748a3.0007,3.0007,0,0,1-.37.6067l.2453-.3176a5.0139,5.0139,0,0,1-.8467.8125l.3176-.2454a3.7028,3.7028,0,0,1-.7513.4591l.3749-.1582a2.51,2.51,0,0,1-.6041.1627l.4172-.0561a2.3606,2.3606,0,0,1-.5666-.0063l.4171.0561a2.6738,2.6738,0,0,1-.62-.1769l.3749.1582a3.5753,3.5753,0,0,1-.74-.4443l.3176.2453a4.8,4.8,0,0,1-.8211-.8265l.2454.3176c-.0332-.043-.0662-.0864-.0967-.1314a1.6705,1.6705,0,0,0-.9378-.7211,1.57,1.57,0,0,0-1.7721,2.3051,4.8742,4.8742,0,0,0,4.1409,2.369,5.2357,5.2357,0,0,0,3.7127-2.3478,3.5492,3.5492,0,0,0,.5235-2.9872,3.6127,3.6127,0,0,0-.9119-1.557,1.6087,1.6087,0,0,0-1.9016-.2454,45.67,45.67,0,0,1-5.0007,2.6215,1.5677,1.5677,0,0,0-.7211.9378,1.6038,1.6038,0,0,0,.1582,1.2091,1.5841,1.5841,0,0,0,.9378.7212A1.8354,1.8354,0,0,0,680.8935,346.5866Z"/><path d="M710.634,335.6511c.0895-.284.19-.5649.2917-.8446q.167-.4584.3483-.9113.0495-.1236.1-.2467c.0236-.0577.1786-.4291.0551-.1347s.0252-.0563.05-.1129q.0675-.1549.1369-.309a21.0679,21.0679,0,0,1,1.2677-2.4254q.1806-.2923.375-.5757.09-.1308.1836-.2591c.0309-.0423.0635-.0834.0935-.1262.0949-.1358-.2665.3274-.0552.0729a7.4716,7.4716,0,0,1,.8532-.9c.31-.2678-.2055.1308-.0272.0131.09-.06.1768-.1246.27-.1811.0894-.0545.1842-.0979.2746-.15.18-.1039-.4335.1362-.0673.0318.0852-.0243.17-.0482.2556-.0714.3372-.0917-.42.0079-.071.01a1.6421,1.6421,0,0,0,.2927.0065c-.0045.0009-.439-.0907-.24-.0313.0579.0173.12.0257.1786.0409a1.57,1.57,0,0,0,.8343-3.0263c-2.3382-.6071-4.1787,1.13-5.4168,2.8887a23.3522,23.3522,0,0,0-2.5894,5.2185c-.1486.3931-.2934.7889-.42,1.19a1.5832,1.5832,0,0,0,1.096,1.93,1.6035,1.6035,0,0,0,1.93-1.096Z"/><path d="M685.5194,321.21a7.2944,7.2944,0,0,1,.8836-.4643c.0813-.0374.1648-.0711.2456-.1094-.4168.1974-.0947.04-.0056.0065.1745-.0656.3485-.1318.5251-.1918a12.2689,12.2689,0,0,1,1.4516-.3961,9.7286,9.7286,0,0,1,7.2618,1.3478,1.57,1.57,0,0,0,1.584-2.71,13.4,13.4,0,0,0-9.3962-1.72,11.79,11.79,0,0,0-4.1339,1.5272,1.5694,1.5694,0,1,0,1.584,2.71Z"/><path d="M664.2843,320.3855c-.4592.2013-.1577.0668.1183-.0286a12.5882,12.5882,0,0,1,1.265-.3586,14.2607,14.2607,0,0,1,4.39-.314,5.5934,5.5934,0,0,1,4.9733,4.14c.5894,2.2524-.4335,4.7957-1.5118,6.7477a20.4331,20.4331,0,0,1-2.7645,3.832,3.5263,3.5263,0,0,0-1.1765,1.8585,4.611,4.611,0,0,0,.01,1.75c.658,2.8665,3.9693,3.02,6.3469,2.7831a1.6156,1.6156,0,0,0,1.5692-1.5693,1.5788,1.5788,0,0,0-1.5692-1.5692,7.4458,7.4458,0,0,1-3.1644-.1681c-.2657-.101-.0225.0409-.0629-.0285-.0923-.1586-.0081-.0024-.0109.03.007-.081-.0735-.2211-.0824-.312.0217.2214.0326-.316.0238-.2941-.1757.4383.3565-.282.47-.41a21.3713,21.3713,0,0,0,4.6612-7.9371,9.4936,9.4936,0,0,0-.604-7.6951,8.8056,8.8056,0,0,0-6.9088-4.2834,15.7692,15.7692,0,0,0-7.5564,1.1161,1.5816,1.5816,0,0,0-.563,2.147,1.6069,1.6069,0,0,0,2.147.5629Z"/><circle cx="667.2903" cy="329.1418" r="2.1483"/><path d="M668.6537,329.1765a.5492.5492,0,0,1-.01.179c.05-.0931.0214-.1128.0035-.0339-.0215.0944-.041.1879-.071.28-.0192.0589-.0265.2037-.0032.0251a.4723.4723,0,0,1-.0492.102.9642.9642,0,0,1-.1776.2866c.13-.0995.0426-.05,0-.0063-.0325.0332-.0627.0689-.0958.1018-.0264.0262-.0536.0518-.0813.0767l-.0421.0368q-.0993.0812.0267-.019c-.0348.06-.1813.119-.2374.1494-.0332.0179-.0673.0334-.1006.0511-.1342.071.1427-.0359-.0494.0163-.0929.0252-.1831.0547-.278.0729l-.0285.0055q-.1323.0211.0346-.0045a.4145.4145,0,0,1-.1482.0086c-.05.0012-.1.001-.15-.0012-.01,0-.2069-.01-.0731-.0019.1294.0081-.0544-.0112-.0691-.0143-.0565-.012-.1127-.0262-.1681-.0427a.5251.5251,0,0,1-.1625-.0555c.0093.0085.1637.0814.0312.0113-.0833-.0441-.1661-.087-.2451-.1388-.0094-.0062-.1565-.1158-.057-.037s-.0417-.0387-.05-.046a1.02,1.02,0,0,1-.23-.2438c.0669.14.0488.0677.0224.0241-.0292-.0481-.0616-.0938-.09-.1425-.0187-.0325-.0367-.0656-.0536-.0991l-.0249-.0506q-.0537-.1183.0123.0311c-.051-.0472-.0685-.2085-.0837-.2736-.0088-.0376-.0157-.0755-.0234-.1134-.0319-.1586.0093.1568-.0018-.0541-.0047-.09.0019-.1793.0024-.2693.0009-.197-.0386.1654.0015-.0254.008-.038.0149-.076.024-.1138a.7383.7383,0,0,1,.0854-.2739l-.0352.0825q.0232-.0516.0492-.1019.0387-.0752.0833-.1471c.0238-.0385.058-.0763.0779-.1168.0473-.0961-.1232.1315-.0018.0046.0648-.0678.1256-.1368.1956-.2.01-.0087.1533-.1169.05-.0451-.1048.073.049-.03.0576-.0361a1.0324,1.0324,0,0,1,.2969-.1607c-.0183.0039-.1674.0573-.029.0164.055-.0163.1086-.0357.1642-.05.0371-.01.0747-.0185.1123-.0263.0186-.0038.195-.0148.0685-.0134-.1331.0016.0607,0,.0722-.0009.05-.0019.1-.0019.15,0a.4343.4343,0,0,1,.1489.0093q-.1662-.025-.0338-.0035l.0572.0113a.8519.8519,0,0,1,.3305.0981c-.1035-.0972-.0743-.0369-.0059.0014.0575.0322.1163.0611.1724.0959.0319.02.0621.042.0939.0617q.104.0754-.0245-.0215.0434.0354.0848.073c.0693.063.13.1325.1943.2007.1268.1357-.0827-.14.0133.0191.029.0481.0615.0937.09.1425s.0522.1.0785.15c.0734.14-.0393-.1429.0073.0223.0315.1118.0628.22.0874.3336.0194.09.0407.0364-.0045-.0346.0295.0464.0093.1839.0092.2382a.7846.7846,0,0,0,1.5692,0,2.9777,2.9777,0,0,0-1.9215-2.7845,2.9292,2.9292,0,0,0-3.2126.8154,2.9311,2.9311,0,1,0,5.1341,1.9691.7912.7912,0,0,0-.7846-.7846A.8.8,0,0,0,668.6537,329.1765Z"/><circle cx="686.3703" cy="329.4682" r="2.1483"/><path d="M687.7337,329.5028a.5462.5462,0,0,1-.01.179c.05-.093.0215-.1127.0035-.0338-.0214.0944-.0409.1879-.0709.28-.0192.0588-.0265.2037-.0033.0251a.4675.4675,0,0,1-.0491.102.9642.9642,0,0,1-.1776.2866c.13-.0995.0426-.05,0-.0064-.0326.0333-.0627.0689-.0958.1018-.0264.0263-.0536.0519-.0813.0768l-.0422.0367q-.0992.0813.0268-.019c-.0348.06-.1813.119-.2375.1494-.0331.018-.0673.0335-.1005.0511-.1342.0711.1427-.0358-.0494.0164-.0929.0252-.1831.0547-.278.0729l-.0285.0054q-.1323.0213.0346-.0045a.4124.4124,0,0,1-.1482.0086c-.05.0013-.1.001-.15-.0012-.01,0-.2069-.01-.0731-.0018.1293.008-.0544-.0112-.0691-.0144q-.0849-.018-.1681-.0426a.5278.5278,0,0,1-.1625-.0555c.0093.0085.1637.0814.0312.0112-.0834-.0441-.1661-.0869-.2451-.1387-.01-.0063-.1566-.1158-.057-.037s-.0417-.0387-.05-.046a1.0259,1.0259,0,0,1-.23-.2438c.067.14.0489.0676.0224.024-.0291-.048-.0615-.0937-.09-.1425-.0188-.0325-.0367-.0656-.0537-.099l-.0249-.0507q-.0535-.1182.0123.0311c-.0509-.0471-.0684-.2084-.0837-.2735-.0088-.0377-.0156-.0756-.0233-.1135-.0319-.1585.0093.1568-.0018-.054-.0047-.09.0019-.1793.0023-.2693.001-.1971-.0385.1653.0016-.0254.0079-.038.0149-.076.0239-.1138a.74.74,0,0,1,.0855-.2739l-.0352.0825q.0232-.0516.0491-.102.0388-.0751.0834-.1471c.0238-.0385.058-.0763.0779-.1167.0473-.0962-.1232.1315-.0018.0045.0648-.0678.1255-.1367.1956-.2.01-.0086.1533-.1169.05-.0451-.1048.0731.0489-.03.0576-.036a1.0274,1.0274,0,0,1,.2969-.1607c-.0183.0038-.1674.0573-.029.0163.0549-.0163.1086-.0357.1641-.05.0372-.01.0748-.0185.1124-.0263.0186-.0039.195-.0149.0685-.0134-.1331.0016.0607-.0005.0722-.0009q.075-.0029.15-.0005a.4367.4367,0,0,1,.1489.0094q-.1662-.0251-.0339-.0035l.0572.0112a.8542.8542,0,0,1,.3306.0982c-.1035-.0972-.0744-.037-.0059.0014.0575.0321.1163.0611.1724.0959.0319.02.0621.0419.0939.0616q.1039.0754-.0246-.0215.0434.0356.0848.0731c.0694.0629.1306.1324.1944.2007.1268.1357-.0828-.14.0133.019.029.0482.0615.0937.09.1426s.0523.1.0786.15c.0734.1395-.0393-.1429.0072.0223.0315.1118.0629.22.0875.3335.0194.09.0406.0365-.0045-.0345.0295.0464.0093.1839.0092.2381a.7846.7846,0,1,0,1.5692,0,2.9776,2.9776,0,0,0-1.9216-2.7844,2.929,2.929,0,0,0-3.2125.8154,2.9311,2.9311,0,1,0,5.1341,1.969.7912.7912,0,0,0-.7846-.7846A.8.8,0,0,0,687.7337,329.5028Z"/><path class="cls-3" d="M742.5105,309.4906l-78.9812-.4348.0459-8.3489.0356-6.45c.087-15.8193,17.8829-36.6617,39.6929-36.5416h0c21.81.12,39.3753,21.1571,39.2882,36.9765Z"/><path d="M742.5105,307.9214l-26.7022-.147-42.5409-.2342-9.7381-.0536,1.5692,1.5692.046-8.3614c.0182-3.3054-.2237-6.7508.3541-10.02,1.8829-10.6517,9.6611-20.1293,18.6809-25.7295a36.4079,36.4079,0,0,1,16.8035-5.5943,34.571,34.571,0,0,1,17.1908,3.4719c9.8784,4.7913,18.3847,13.8438,21.6564,24.4322a32.6434,32.6434,0,0,1,1.178,10.0846l-.0622,11.2961-.0047.855a1.57,1.57,0,0,0,3.1385,0l.0542-9.8515a50.0849,50.0849,0,0,0-.5357-10.3232c-2.2925-11.328-10.6676-21.4048-20.3783-27.3141a39.5317,39.5317,0,0,0-17.7735-5.7769,37.7756,37.7756,0,0,0-18.3255,3.57c-10.6524,4.912-19.7021,14.5-23.5053,25.6525-1.4211,4.1674-1.5714,8.3086-1.5953,12.6514l-.0524,9.5108-.0079,1.4464a1.5923,1.5923,0,0,0,1.5692,1.5692l26.7023.147,42.5408.2342,9.7381.0536A1.57,1.57,0,0,0,742.5105,307.9214Z"/><path class="cls-3" d="M707.0841,309.26H645.3618c0-5.6371,3.7111-10.2472,8.3663-10.3929l52.31-1.6377"/><path d="M707.0841,307.69H645.3618l1.5692,1.5692c0-3.5941,1.9149-7.7122,5.6679-8.6622a11.5072,11.5072,0,0,1,2.4622-.2033l10.92-.3418,32.0231-1.0026,8.0338-.2515c2.0147-.0631,2.0235-3.2018,0-3.1384l-22.5533.7061-28.4658.8911a12.1525,12.1525,0,0,0-4.61.796c-4.3125,1.8668-6.6165,6.6769-6.6165,11.2066a1.592,1.592,0,0,0,1.5692,1.5692h61.7223a1.57,1.57,0,0,0,0-3.1384Z"/><path class="cls-8" d="M542.1146,506.1844h0a7.4314,7.4314,0,0,1-10.2311-2.4038L484.13,426.696l12.635-7.8274,47.7539,77.0846A7.4315,7.4315,0,0,1,542.1146,506.1844Z"/><path d="M541.3226,504.8294c-3.1,1.9207-6.6022.5514-8.4-2.35l-2.6022-4.2-10.9874-17.7359L504.9159,457.27l-12.9543-20.9109-4.3161-6.9671a29.07,29.07,0,0,0-2.0681-3.3383,1.309,1.309,0,0,1-.0929-.15l-.563,2.147,12.635-7.8274-2.147-.563,5.2213,8.4284,12.3485,19.9329,14.5021,23.4093,11.6824,18.8577,3.2295,5.2132c1.1108,1.793,2.0669,3.57,1.49,5.8057a5.9507,5.9507,0,0,1-2.5607,3.5216c-1.6855,1.0989-.1145,3.8174,1.5841,2.71a9.15,9.15,0,0,0,2.8456-12.5736c-.7423-1.2155-1.5-2.4218-2.25-3.6326l-10.7555-17.3614-14.6122-23.5871-13.3024-21.4729c-2.2021-3.5545-4.3-7.2058-6.62-10.6852-.0325-.0488-.0619-.1-.0929-.15a1.5925,1.5925,0,0,0-2.147-.5629l-12.6349,7.8273a1.5926,1.5926,0,0,0-.563,2.147l5.4378,8.7777,12.77,20.6141,14.7893,23.8729,11.4942,18.5541,2.8575,4.6125c1.8572,2.9979,4.799,5.1389,8.4867,4.9385a9.1239,9.1239,0,0,0,4.2962-1.3184C544.62,506.4777,543.0461,503.7617,541.3226,504.8294Z"/><rect class="cls-1" x="481.586" y="418.923" width="20.2572" height="10.8709" transform="translate(-149.7696 322.5676) rotate(-31.7782)"/><path d="M502.3953,422.29l-15.0543,9.3261-2.1662,1.342,2.147.5629-5.725-9.2412-.5629,2.1469,15.0543-9.3261,2.1662-1.342-2.147-.5629,5.725,9.2412c1.0616,1.7137,3.7776.1395,2.71-1.584l-5.725-9.2413a1.5924,1.5924,0,0,0-2.1469-.5629L481.616,422.375l-2.1661,1.3419a1.5924,1.5924,0,0,0-.563,2.147l5.725,9.2413a1.5925,1.5925,0,0,0,2.147.5629l15.0543-9.3261L503.9794,425C505.693,423.9384,504.1188,421.2223,502.3953,422.29Z"/><path d="M482.7868,396.4608l-18.2316,11.2945a9.722,9.722,0,0,1-15.3875,9.5325l-6.6327,4.109,12.75,20.5817,6.6327-4.109a9.722,9.722,0,0,1,15.3875-9.5325l19.5467-12.1092,1.7953-1.078a47.9435,47.9435,0,0,1,27.8234-6.7372h0a1.6742,1.6742,0,0,0,1.1425-2.9884l-1.51-1.1837a47.9432,47.9432,0,0,0-40.4947-8.9469h0A9.444,9.444,0,0,0,482.7868,396.4608Z"/><path d="M481.9948,395.1058,466.04,404.99,463.7632,406.4a1.6362,1.6362,0,0,0-.7211,1.7721,8.2285,8.2285,0,0,1-3.4095,8.0384,8.3331,8.3331,0,0,1-9.6728-.2779,1.5388,1.5388,0,0,0-1.5841,0l-6.6327,4.1089a1.5925,1.5925,0,0,0-.5629,2.147l11.1359,17.9758,1.6144,2.6059a1.5926,1.5926,0,0,0,2.147.563l6.6327-4.109a1.6363,1.6363,0,0,0,.7212-1.7721,8.2283,8.2283,0,0,1,3.4095-8.0384,8.3331,8.3331,0,0,1,9.6728.2779,1.5387,1.5387,0,0,0,1.584,0c6.845-4.24,13.6445-8.5652,20.5478-12.71a49.4039,49.4039,0,0,1,12.9655-5.5982,45.4345,45.4345,0,0,1,7.7985-1.3445q1.9776-.1614,3.964-.16c1.1192.0011,2.2814.175,3.3955.0985a3.2869,3.2869,0,0,0,2.9573-4.0595c-.3424-1.3039-1.5167-2.01-2.5135-2.7868a50.9048,50.9048,0,0,0-12.9417-7.3716A49.1171,49.1171,0,0,0,490.0771,392.9c-2.7694.3661-5.639.77-8.0823,2.206a1.57,1.57,0,0,0,1.584,2.71,17.57,17.57,0,0,1,6.5079-1.7764,46.4713,46.4713,0,0,1,32.7207,7.7219,29.3015,29.3015,0,0,1,3.6258,2.717c.2761.2621.3887.2742.0379.3651a6.3476,6.3476,0,0,1-1.3285-.0688q-.9945-.038-1.99-.0335a51.2508,51.2508,0,0,0-26.2979,7.6548c-3.0516,1.8323-6.06,3.7388-9.0855,5.6133l-11.2555,6.9728h1.584a11.3778,11.3778,0,0,0-13.1435-.0659,11.5034,11.5034,0,0,0-4.5491,11.3706l.7211-1.7722-6.6327,4.109,2.147.563-11.136-17.9758-1.6144-2.6059-.563,2.147,6.6328-4.109h-1.5841a11.3778,11.3778,0,0,0,13.1435.0659,11.5033,11.5033,0,0,0,4.5492-11.3706l-.7212,1.7721,15.9547-9.8839,2.2769-1.41C485.2925,396.7542,483.7183,394.0381,481.9948,395.1058Z"/><path class="cls-3" d="M673.6076,298.275s.546-40.2764,26.7523-44.984h8.1907a18.94,18.94,0,0,1,18.41,13.5426h0l-4.1819-.261c-15.7359-.9821-29.3548,10.3757-30.5083,25.4432l-.4287,5.6Z"/><path d="M675.1768,298.275a69.0694,69.0694,0,0,1,4.4539-23.0823c2.1457-5.7273,5.3225-11.2491,10.0388-15.2382a23.0835,23.0835,0,0,1,8.2253-4.4624,10.5334,10.5334,0,0,1,3.317-.6319h4.218c3.75,0,7.3828.0439,10.8583,1.7158a17.0735,17.0735,0,0,1,9.16,10.6748l1.5131-1.9864a58.6362,58.6362,0,0,0-8.6195-.2121,31.4254,31.4254,0,0,0-12.5821,3.7911,29.2882,29.2882,0,0,0-14.6221,19.8716,82.5062,82.5062,0,0,0-.8644,8.9l1.5692-1.5692-18.2343.66c-2.0136.0729-2.0233,3.2117,0,3.1385l18.2343-.66a1.6106,1.6106,0,0,0,1.5692-1.5692c.16-2.0946.2769-4.1972.49-6.2871a25.0762,25.0762,0,0,1,3.9729-11.04,27.4048,27.4048,0,0,1,19.598-12.0119,53.1323,53.1323,0,0,1,9.4885.126,1.5821,1.5821,0,0,0,1.5132-1.9864c-2.5043-8.9756-11.081-14.6732-20.2008-14.6947-2.5941-.0062-5.24-.1561-7.8284,0-3.2573.1963-6.7812,1.8-9.5243,3.4826-11.1246,6.8229-15.877,20.6088-17.85,32.8555a70.9958,70.9958,0,0,0-1.0322,10.2151C672.01,300.2953,675.1479,300.2962,675.1768,298.275Z"/><path class="cls-1" d="M734.8355,414.1432,704.1207,486.66a181.8334,181.8334,0,0,1,17.1987,6.8357c10.8443,4.9436,34.2105,28.3924,41.3962,33.6647L803.21,431.52A37.5343,37.5343,0,0,0,768.646,379.351H728.007"/><path d="M733.4805,413.3512l-10.42,24.6021L706.5674,476.892l-3.8017,8.9756a1.603,1.603,0,0,0,.9378,2.3052q5.1362,1.74,10.1577,3.7927a82.6135,82.6135,0,0,1,8.0329,3.5683,66.358,66.358,0,0,1,9.5708,6.6363c7.5859,6.0254,14.7,12.6211,21.9113,19.0819,2.7787,2.4894,5.542,5.0448,8.5474,7.263a1.57,1.57,0,0,0,2.1469-.5629l3.2192-7.6032,7.978-18.8427,10.2175-24.1318,9.9375-23.4707,7.1608-16.9125c1.7514-4.1366,3.6059-8.2147,4.4688-12.6588a39.1374,39.1374,0,0,0-38.4114-46.5506c-5.734-.0222-11.4685,0-17.2025,0H728.007a1.57,1.57,0,0,0,0,3.1384h38.8377a44.7424,44.7424,0,0,1,9.1333.73,35.4913,35.4913,0,0,1,15.1579,7.13,36.5084,36.5084,0,0,1,13.5073,28.8358c-.1186,5.8021-1.8458,10.8861-4.0333,16.0527l-6.289,14.8534-9.4648,22.3543-10.2247,24.1489-8.5687,20.2379-4.4971,10.6212-.205.4843,2.147-.5629c-.8658-.639-2.0677-1.6447-3.1-2.53-1.4168-1.2147-2.8122-2.4544-4.2037-3.698-3.5418-3.1656-7.0551-6.363-10.61-9.5142-3.709-3.2881-7.4533-6.5413-11.3211-9.6421a80.4533,80.4533,0,0,0-10.07-7.1928,71.95,71.95,0,0,0-8.2007-3.75q-5.657-2.3613-11.465-4.3324l.9378,2.3051,10.42-24.6021,16.4928-38.9387,3.8016-8.9756a1.6254,1.6254,0,0,0-.5629-2.147,1.5789,1.5789,0,0,0-2.147.563Z"/><path d="M762.4582,527.3692c1.8307-4.0158-3.6175-10.8159-13.5754-18.1221l-11.2066,19.2373C750.8538,531.76,760.5178,531.6252,762.4582,527.3692Z"/><path d="M763.8131,528.1612c1.3836-3.2339-.2353-6.5332-2.1806-9.163-3.2469-4.3893-7.5937-7.8877-11.9577-11.1061a1.5834,1.5834,0,0,0-2.147.563l-9.7923,16.8095-1.4142,2.4278a1.5847,1.5847,0,0,0,.9378,2.3051c5.6491,1.3914,11.6256,2.6182,17.4774,2.3022,3.2293-.1745,7.4994-.8732,9.0766-4.1385.8747-1.8106-1.8307-3.4041-2.71-1.584a3.7347,3.7347,0,0,1-2.3068,1.8625,15.495,15.495,0,0,1-4.9825.755,60.9849,60.9849,0,0,1-15.7205-2.2235l.9378,2.3052,9.7923-16.81,1.4143-2.4277-2.147.5629a54.3642,54.3642,0,0,1,10.497,9.5475,14.1729,14.1729,0,0,1,2.2826,3.7661,5.7829,5.7829,0,0,1,.3631,1.5142,2.7671,2.7671,0,0,1-.13,1.1474,1.6244,1.6244,0,0,0,.563,2.147A1.5788,1.5788,0,0,0,763.8131,528.1612Z"/><path class="cls-6" d="M721.3194,493.4953a181.8334,181.8334,0,0,0-17.1987-6.8357l-10.0493,23.7263-2.8593,6.7507L586.1178,473.6l-16.5585,41.8034,122.2946,67.5132c22.0563,9.024,37.0416-19.3354,49.8834-39.41L757.87,516.8527l-8.9871-7.6056A159.5075,159.5075,0,0,0,721.3194,493.4953Z"/><path d="M722.1114,492.14c-5.7431-2.61-11.5981-4.97-17.5736-6.9938a1.5712,1.5712,0,0,0-1.7721.7211q-5.0247,11.8632-10.0493,23.7263l-2.8593,6.7506,1.7721-.7211-10.4759-4.34-25.1488-10.4184-30.2926-12.5491-26.1965-10.8524-8.7016-3.6048c-1.35-.5593-2.706-1.2473-4.0976-1.6975-.0616-.02-.1214-.05-.1812-.0751-.8416-.3486-1.6509.3905-1.93,1.096l-5.6087,14.16L570.1042,509.79l-2.058,5.1958a1.5728,1.5728,0,0,0,.7211,1.7722l7.0055,3.8674,18.0085,9.9416,24.3918,13.4656,26.479,14.6179,23.8772,13.1815,16.975,9.3711c3.2316,1.784,6.18,3.6511,9.839,4.4593,12.9841,2.8677,23.5157-6.701,30.9407-16.1463,6.8349-8.6947,12.6108-18.2835,18.3319-27.7355l13.4966-22.2979,1.1124-1.8378a1.584,1.584,0,0,0-.2454-1.9017l-8.0766-6.8351c-4.6279-3.9165-10.0732-7.0385-15.35-9.9839-4.3842-2.4472-8.8759-4.6957-13.4415-6.7838-1.8236-.8341-3.42,1.87-1.584,2.71a171.7721,171.7721,0,0,1,21.918,11.87,57.8063,57.8063,0,0,1,5.9081,4.1276l4.5757,3.8723,3.8311,3.2422-.2453-1.9016-11.5224,19.0364c-4.8178,7.96-9.6563,15.9193-14.8194,23.6609A93.5586,93.5586,0,0,1,717.32,574.8337c-4.0732,3.8849-9.0236,7.3207-14.73,8.0893a18.3964,18.3964,0,0,1-10.277-1.5452c-1.0817-.5754-2.1466-1.1851-3.2192-1.7772l-15.027-8.2958-22.6722-12.5162-26.01-14.3587-24.9994-13.8011L580.6806,519.75l-9.8862-5.4577-.4431-.2446.7212,1.7722,5.6087-14.16,8.8917-22.4478,2.0581-5.1958-1.93,1.096,10.4759,4.34,25.1489,10.4183L651.6179,502.42l26.1966,10.8524,8.7016,3.6047c1.35.5593,2.706,1.2474,4.0976,1.6975.0616.02.1213.05.1812.0751a1.5608,1.5608,0,0,0,1.7722-.7211l10.9389-25.8267,1.97-4.65-1.7721.7212c5.7194,1.9374,11.3266,4.18,16.8239,6.6774C722.3524,495.68,723.95,492.9755,722.1114,492.14Z"/><path class="cls-6" d="M616.945,541.3836,594.36,528.6743a84.343,84.343,0,0,0-16.4614-7.0792l-13.1492-4.0635c-7.6734-2.3257-14.5441-10.7752-17.1521-16.2747l-4.1876-8.83a15.0777,15.0777,0,0,0-22.9712-5.407l2.217,2.9122a7.1748,7.1748,0,0,1-.8487,9.6238h0a7.1745,7.1745,0,0,1-5.2238,1.8875h0a15.6776,15.6776,0,0,1-13.6235-9.4934c-.8657-2.0252-1.8225-4.2743-2.8121-6.6193-1.0684-2.5319-2.1749-5.1754-3.246-7.7691-3.4639-8.3879-5.0873-11.5894-5.322-13.4729-.0408-.3277,5.6653-11.1967,13.6223-17.9649a32.4105,32.4105,0,0,1,41.8147-.154l18.6114,15.5958a50.3686,50.3686,0,0,0,10.9912,7.0094l41.7956,18.4726"/><path d="M617.737,540.0287,602.4,531.398c-7.5106-4.2264-14.9413-8.3861-23.2055-11.0392-2.9077-.9335-5.8351-1.8085-8.7528-2.71-3.09-.9547-6.3283-1.7134-9.1289-3.3779a33.2933,33.2933,0,0,1-11.7279-12.5673c-1.4954-2.743-2.7255-5.6514-4.0635-8.4729A23.9361,23.9361,0,0,0,542.8,488.514a16.6443,16.6443,0,0,0-23.4718-2.604,1.5617,1.5617,0,0,0-.2453,1.9016c2.0071,2.6366,4.6463,5.4248,2.8869,8.9615-2.4469,4.9187-9.0471,3.0459-12.6223.62-4.6019-3.1227-6.1745-8.8818-8.2247-13.7542Q497.9,475.98,494.6879,468.317a31.408,31.408,0,0,1-1.3854-3.6633c-.1178-.4218-.2925-1.5741-.1914-.2271.0066.0879-.1592.3073.0173-.0257.1214-.229.2312-.4645.352-.694a62.0986,62.0986,0,0,1,6.4414-9.7584,38.8919,38.8919,0,0,1,11.6824-10.3111,30.8128,30.8128,0,0,1,14.2949-3.6657c8.0063-.0741,15.1411,3.03,21.1976,8.1048l13.7645,11.5342c4.7145,3.9507,9.4341,7.81,15.0968,10.377,3.5077,1.59,7.047,3.1146,10.57,4.6716l30.4635,13.4641.631.2789c1.8306.8091,3.4295-1.8943,1.5841-2.71l-28.8112-12.7339c-4.192-1.8527-8.391-3.6908-12.5765-5.5585-5.5042-2.4561-10.0924-6.1154-14.66-9.9433l-14.169-11.8732c-6.757-5.6622-14.8995-9.012-23.8153-8.7354a34.2207,34.2207,0,0,0-15.1537,4.0794,41.05,41.05,0,0,0-12.3176,10.8018,65.7241,65.7241,0,0,0-6.9675,10.4608,3.7132,3.7132,0,0,0-.5958,2.7488,19.8817,19.8817,0,0,0,1.194,3.4227c2.1542,5.2431,4.387,10.4576,6.5835,15.6833,2.1884,5.2065,3.88,11.2478,8.4,14.9675,3.788,3.1179,9.9,5.4229,14.6048,3.05a8.8215,8.8215,0,0,0,3.0756-12.94c-.7118-.9806-1.47-1.93-2.2037-2.8947l-.2454,1.9016a13.5194,13.5194,0,0,1,19.358,3.0741,26.9369,26.9369,0,0,1,1.9055,3.6113c1.3379,2.8213,2.568,5.73,4.0635,8.4729a37.9417,37.9417,0,0,0,10.9982,12.4743c3.057,2.1966,6.4092,3.2675,9.9386,4.3582q4.6633,1.4412,9.3266,2.8823a85.0443,85.0443,0,0,1,16.4405,7.0332q2.64,1.4783,5.274,2.9678l17.3,9.7353c1.7624.9917,3.3462-1.7183,1.5841-2.71Z"/><path class="cls-7" d="M645.3618,496.5188,661.3756,409.44l4.7258-31.6374a5.41,5.41,0,0,1,5.4859-4.6091h0a5.41,5.41,0,0,1,5.2308,6.0973l-7.3951,57.5979h41.3226l12.9258-59.9122a6.271,6.271,0,0,1,6.13-4.9486h0a6.2711,6.2711,0,0,1,6.2233,7.0437l-6.4486,45.7864-38.1842,92.06Z"/><path d="M646.875,496.936l1.7412-9.4685,4.1-22.295,4.85-26.3738,3.9328-21.3854c.4843-2.6337,1.0337-5.2645,1.4426-7.9114,1.1063-7.1619,2.1414-14.3355,3.212-21.5028l1.3619-9.1179a4.6811,4.6811,0,0,1,1.6636-3.38,3.8879,3.8879,0,0,1,6.0844,2.55,18.0708,18.0708,0,0,1-.4346,4.5094l-1.1723,9.1305-3.3244,25.8931-2.3571,18.3589-.1215.9462a1.5817,1.5817,0,0,0,1.5692,1.5692h41.3226a1.59,1.59,0,0,0,1.5132-1.1521l3.5083-16.2612,6.3741-29.545,2.3162-10.7358c.447-2.0715.6413-4.707,2.3857-6.1279a4.75,4.75,0,0,1,7.552,2.6521,6.3555,6.3555,0,0,1-.0541,2.5782l-1.4194,10.0775-4.0394,28.6809a47.1672,47.1672,0,0,1-.8193,5.8167,25.8307,25.8307,0,0,1-1.2,2.8934L718.99,446.3159l-11.5977,27.9616-11.0365,26.6084-6.18,14.899-.2972.7165,2.3051-.9378-15.5058-6.8719-24.8459-11.0112-5.6785-2.5166c-1.83-.8111-3.4288,1.8923-1.584,2.71l15.5058,6.8719,24.8459,11.0112,5.6785,2.5166a1.608,1.608,0,0,0,2.3052-.9378l4.5317-10.9258,10.5171-25.3564,12.0532-29.0595,8.987-21.6675c.6508-1.569,1.3643-3.1265,1.9572-4.7186a16.0428,16.0428,0,0,0,.5622-3.3452l3.9267-27.88,1.7005-12.0743c.1243-.882.25-1.7638.3727-2.646a7.8368,7.8368,0,0,0-15.4264-2.773c-.51,2.3085-.9973,4.6223-1.4959,6.9332l-6.179,28.6407-4.92,22.8046-.26,1.2038,1.5131-1.152H669.423l1.5693,1.5692,1.7683-13.7731,3.4016-26.4943c.7266-5.6592,1.4818-11.3156,2.18-16.9784a6.9692,6.9692,0,0,0-13.7573-2.2345c-.1278.7244-.2177,1.4576-.3264,2.185l-3.6014,24.11c-.4246,2.8422-.8584,5.6662-1.3779,8.4911l-3.356,18.249-4.8341,26.2866-4.5668,24.833-2.554,13.8881-.12.65C643.4855,498.0761,646.51,498.9228,646.875,496.936Z"/><line class="cls-6" x1="522.6021" y1="485.5827" x2="516.6864" y2="489.7189"/><path d="M521.81,484.2278l-5.182,3.6231-.7337.513a1.6842,1.6842,0,0,0-.7211.9378,1.57,1.57,0,0,0,2.3051,1.7722l5.182-3.6232.7337-.513a1.6838,1.6838,0,0,0,.7211-.9378,1.57,1.57,0,0,0-2.3051-1.7721Z"/><path class="cls-6" d="M404.7493,492.3343l20.641-11.1806a20.0435,20.0435,0,0,1,9.5459-2.4193h5.3819"/><path d="M405.5413,493.6892l11.5258-6.2431,7.1345-3.8645a26.7114,26.7114,0,0,1,6.4373-2.7717c3.1353-.7587,6.4754-.5063,9.6792-.5063a1.57,1.57,0,0,0,0-3.1384,64.85,64.85,0,0,0-7.9748.1684A24.9869,24.9869,0,0,0,423.47,480.41l-14.7374,7.9827-4.7755,2.5868c-1.7766.9623-.194,3.673,1.584,2.71Z"/><path class="cls-9" d="M417.8488,502.7607a10.9471,10.9471,0,0,0-7.9356,5.6631,21.3442,21.3442,0,0,1-7.6924,8.1608l-23.4147,9.0178a3.0838,3.0838,0,0,0-.8324,5.2742l.3569.2891,27.921-6.9952a20.9021,20.9021,0,0,1,10.5138.0461,10.9777,10.9777,0,0,0,13.4583-13.3729A11.0485,11.0485,0,0,0,417.8488,502.7607Z"/><path d="M417.4317,501.2475a12.6885,12.6885,0,0,0-8.23,5.3309c-1.015,1.4741-1.7564,3.0753-2.9211,4.4567a19.8125,19.8125,0,0,1-3.863,3.5526c-2.0234,1.3955-4.9585,2.157-7.3491,3.0777L382.91,522.3481c-2.4472.9426-6.2261,1.7138-7.2987,4.3938a4.6781,4.6781,0,0,0,.3274,4.1565c.593.97,1.6234,1.96,2.82,1.7776.719-.11,1.4436-.3616,2.1481-.5381l11.4382-2.8657,11.6634-2.9221c.8588-.2152,1.7169-.4341,2.5767-.6456a21.6775,21.6775,0,0,1,10.1949.1322,12.546,12.546,0,0,0,5.6428-24.4492,13.3633,13.3633,0,0,0-4.9913-.14,1.5809,1.5809,0,0,0-1.096,1.93,1.6082,1.6082,0,0,0,1.93,1.096,9.42,9.42,0,0,1,3.57,18.4751c-2.2013.5481-4.081-.0052-6.235-.402a22.4317,22.4317,0,0,0-6.6189-.2476,69.7822,69.7822,0,0,0-8.8969,1.9983l-13.3095,3.3345-8.8627,2.22,1.5267.4036c-.5839-.4729-1.1427-.9417-1.0347-1.7728a1.6311,1.6311,0,0,1,.517-.9565,1.1952,1.1952,0,0,1,.3492-.23c.5707-.2755,1.2045-.4639,1.7951-.6913l8.5868-3.3071,9.4557-3.6418a21.8486,21.8486,0,0,0,5.84-2.8529,24.0915,24.0915,0,0,0,6.3183-7.388,9.7689,9.7689,0,0,1,6.9979-4.942C420.2509,503.9183,419.41,500.8932,417.4317,501.2475Z"/><path d="M408.99,516.8127a15.9976,15.9976,0,0,0,.8537,2.7618,11.4664,11.4664,0,0,0,3.5055,5.0729,5.7619,5.7619,0,0,0,3.4308,1.1634,1.5692,1.5692,0,0,0,0-3.1384c-.1062-.0011-.2118-.0056-.3179-.0122-.3942-.0244.2787.0692.0334.0081-.22-.0549-.436-.1039-.6531-.1718a.7124.7124,0,0,0-.1386-.0521c-.0048.0008.3277.1558.2048.0863-.0847-.0479-.1784-.0837-.2647-.13a5.5677,5.5677,0,0,1-.5324-.3306c-.311-.2132.2043.1864.0232.019-.0731-.0675-.1522-.129-.2257-.1962a6.6222,6.6222,0,0,1-.4766-.4845c-.0677-.076-.1322-.1545-.1982-.2319-.021-.0246-.0734-.11-.096-.1192.01.0038.2444.3312.1053.1351-.119-.1675-.24-.3329-.3517-.5052a11.7659,11.7659,0,0,1-.6437-1.1275q-.1338-.2656-.2562-.5368c-.04-.0883-.0778-.1774-.1173-.2658-.0939-.21.1651.4043.0084.0149a18.283,18.283,0,0,1-.635-1.8676c-.0862-.306-.1689-.6147-.2317-.9265a1.5789,1.5789,0,0,0-1.93-1.096,1.6082,1.6082,0,0,0-1.096,1.93Z"/><path d="M601.0473,587.1966l-19.79-.1631-2.8487-.0235a1.57,1.57,0,0,0,0,3.1385l19.79.163,2.8487.0235a1.57,1.57,0,0,0,0-3.1384Z"/><path d="M761.0879,647.1056l-5.5617,28.5554L754.74,679.7c-.3843,1.9731,2.64,2.8179,3.0263.8343l5.5617-28.5554.7866-4.0385c.3843-1.9731-2.64-2.8179-3.0263-.8343Z"/><path class="cls-7" d="M711.7918,445.9325l-56.821-.1269a13.9222,13.9222,0,0,0-13.58,10.7215l-8.5823,36.33,36.9009,14.4518"/><path d="M711.7918,444.3633l-16.6151-.0371-29.0285-.0648-9.4113-.021c-3.5224-.0079-6.9142.4085-9.9893,2.3395-4.0033,2.5138-6.1343,6.414-7.19,10.8848L636.999,468.294c-1.8642,7.8913-3.8212,15.7668-5.5938,23.6793-.0349.156-.0735.3113-.11.4669a1.6186,1.6186,0,0,0,1.096,1.93l32.3861,12.6836,4.5149,1.7681c1.8814.7369,2.697-2.2968.8343-3.0263L637.74,493.1124l-4.5148-1.7682,1.096,1.93,4.75-20.1081,2.9688-12.5675c.6992-2.96,1.2036-5.9838,3.134-8.4556,2.6559-3.4006,6.5544-4.7757,10.7372-4.7664l8.0786.0181,28.1361.0628c6.44.0144,12.9075.2082,19.3455.0432.1066-.0027.2136.0005.32.0007a1.57,1.57,0,0,0,0-3.1384Z"/><path d="M640.2141,463.0758h68.9623a1.57,1.57,0,0,0,0-3.1384H640.2141a1.57,1.57,0,0,0,0,3.1384Z"/><path d="M652.67,461.5066l3.0691,8.0033a2.7017,2.7017,0,0,1-1.9565,3.6091h0a2.7017,2.7017,0,0,1-3.1875-3.2957Z"/><path d="M651.1567,461.9238c1.0193,2.658,2.0973,5.3005,3.06,7.9795a3.4008,3.4008,0,0,1,.1395.4766c-.0516-.2544-.0088.1671-.012.261-.0065.1865.0023-.0193.0089-.0495-.0209.0963-.0493.19-.0739.2849-.0045.0173-.0967.2312-.0285.0852.0767-.1641-.0683.1034-.0882.1377-.0863.1487.0129.01.034-.0184a2.083,2.083,0,0,1-.1473.1643,2.1426,2.1426,0,0,1-.1594.1538c.0607-.0532.2117-.1144-.0416.021-.0669.0358-.13.0762-.1985.11-.215.108.1845-.0484-.0545.0148-.0357.01-.39.0888-.1359.0547a2.1733,2.1733,0,0,1-.4722.0031c.2511.0223-.0938-.0393-.1781-.0624-.301-.0827-.0971-.0465-.0371-.0136-.0866-.0475-.1715-.0964-.2544-.15.1974.1279-.07-.0753-.1335-.1308-.2-.176-.0866-.0951-.0346-.0227-.0429-.06-.0813-.1234-.118-.1869a2.1931,2.1931,0,0,1-.1044-.1955c.0154.0342.0674.1976.0228.0287-.0256-.097-.0556-.1922-.0742-.2913-.0444-.2365-.0031.2067.0077-.0395.0034-.0782-.0008-.1567.0047-.2351-.0025.0358-.0372.2045.0026.0175.0071-.0337.0139-.0657.0221-.0985.0143-.0575.0289-.1149.043-.1725.063-.257.1281-.5136.1922-.77l.644-2.5815,1.1912-4.7744a1.57,1.57,0,0,0-3.0264-.8343l-1.1493,4.6071-.7133,2.859a6.5092,6.5092,0,0,0-.3079,2.4229,4.2634,4.2634,0,0,0,8.271.8707c.68-1.8738-.41-3.812-1.07-5.5321l-2.0046-5.2276a1.6146,1.6146,0,0,0-1.93-1.096A1.5811,1.5811,0,0,0,651.1567,461.9238Z"/><path d="M733.2986,554.9131c2.3387,6.4357,6.5234,12.8794,12.1464,16.8587a17.6656,17.6656,0,0,0,7.7753,3.1516l-1.096-1.93c-1.0633,5.0526-2.1253,10.106-3.1385,15.169-.3946,1.9723,2.63,2.8163,3.0264.8343,1.0131-5.063,2.0751-10.1164,3.1384-15.169a1.5841,1.5841,0,0,0-1.096-1.93c-5.7653-.78-10.1619-4.8982-13.3272-9.5351a43.9268,43.9268,0,0,1-3.3659-5.8845q-.2509-.5269-.488-1.06-.1056-.2379-.2081-.4772c-.124-.288.1131.2841-.051-.1239-.0985-.2449-.1993-.4891-.29-.7373-.6844-1.8834-3.7184-1.07-3.0263.8343Z"/><circle cx="244.6897" cy="532.6107" r="8.3691"/><path d="M251.49,532.6107a6.7983,6.7983,0,1,1-5.6137-6.7025,6.8624,6.8624,0,0,1,5.6137,6.7025c.0277,2.0179,3.1662,2.0236,3.1384,0a10.0852,10.0852,0,0,0-6.52-9.3275,9.9325,9.9325,0,1,0,6.52,9.3275C254.6557,530.5905,251.5173,530.59,251.49,532.6107Z"/><path class="cls-2" d="M85.144,417.7739l72.3152-112.8214a17.7376,17.7376,0,0,1,29.8665,0l72.3151,112.8214a17.7375,17.7375,0,0,1-14.9332,27.3093h-144.63A17.7375,17.7375,0,0,1,85.144,417.7739Z"/><path d="M86.499,418.5659l5.6469-8.81,14.0262-21.8828,17.9663-28.03,17.62-27.49,12.9833-20.2557c2.5-3.9009,4.8463-8.5843,8.8293-11.15a16.4084,16.4084,0,0,1,18.7327.7657,20.3435,20.3435,0,0,1,4.5167,5.3573l9.2368,14.4106,16.0165,24.9879,18.4083,28.7194L246.86,400.74l10.0876,15.738c.6808,1.0622,1.4061,2.1144,2.0108,3.2228A16.1626,16.1626,0,0,1,244.382,443.514c-1.4332.0025-2.8664,0-4.2995,0H104.1c-1.2829,0-2.5658.0037-3.8487,0A16.1615,16.1615,0,0,1,86.499,418.5659c1.0781-1.7149-1.6364-3.2917-2.71-1.584a19.3054,19.3054,0,0,0,16.3088,29.6705c3.6492.0256,7.3,0,10.9487,0H231.6258c4.2772,0,8.5546.01,12.8319,0a19.31,19.31,0,0,0,18.6388-25.25c-1.3986-4.1951-4.4248-8.0467-6.79-11.7369l-13.661-21.3129-18.144-28.3072L206.38,331.7737,192.9883,310.881c-2.5634-3.9993-4.9792-8.6874-8.7813-11.6345a19.5632,19.5632,0,0,0-20.3724-2.0452,20.3862,20.3862,0,0,0-8.1747,7.6523l-8.5066,13.2715-15.8589,24.7421-18.6467,29.0913-16.87,26.319L85.25,414.7028l-1.4608,2.2791C82.6959,418.6873,85.4113,420.2629,86.499,418.5659Z"/><path class="cls-1" d="M162.2207,325.3239l4.87,78.0877h11.1258l4.87-78.0877A10.4536,10.4536,0,0,0,172.654,314.22h0A10.4536,10.4536,0,0,0,162.2207,325.3239Z"/><path class="cls-1" d="M160.6515,325.3239l1.6549,26.5334,2.6163,41.9472.5992,9.6071a1.6,1.6,0,0,0,1.5692,1.5692h11.1258a1.6028,1.6028,0,0,0,1.5693-1.5692l.7263-11.6454,1.6156-25.9035,1.66-26.6134c.2863-4.5911.6137-9.1818.8591-13.7753a12.021,12.021,0,0,0-23.3155-4.841,11.9808,11.9808,0,0,0-.68,4.6909c.0928,2.0111,3.2317,2.0225,3.1384,0a8.8916,8.8916,0,1,1,17.71.2991c-.27,4.5756-.5706,9.15-.856,13.7243L179.06,364.7416,177.48,390.07l-.5519,8.8488a37.2475,37.2475,0,0,0-.2683,4.3029,1.6381,1.6381,0,0,1-.0119.19l1.5692-1.5692H167.0911l1.5692,1.5692-1.6549-26.5334-2.6163-41.9473-.5992-9.607C163.6648,323.3177,160.5255,323.3035,160.6515,325.3239Z"/><circle class="cls-1" cx="172.654" cy="424.2474" r="9.1385"/><path class="cls-1" d="M180.2233,424.2474a7.5677,7.5677,0,1,1-6.2356-7.4578,7.6423,7.6423,0,0,1,6.2356,7.4578c.0277,2.0178,3.1662,2.0236,3.1384,0a10.8638,10.8638,0,0,0-7.014-10.0459,10.7019,10.7019,0,1,0,7.014,10.0459C183.39,422.2271,180.2511,422.2262,180.2233,424.2474Z"/><path d="M365.519,297.752H585.5829c2.9689,0,5.9453.0615,8.9137,0,.13-.0027.2593,0,.3889,0a.7851.7851,0,0,0,0-1.5692H374.8215c-2.9688,0-5.9452-.0616-8.9136,0-.13.0026-.2594,0-.3889,0a.7851.7851,0,0,0,0,1.5692Z"/><path d="M325.7656,331.7516H584.2121c3.49,0,6.9869.06,10.4769,0,.1526-.0027.3054,0,.458,0a.7851.7851,0,0,0,0-1.5692H336.7006c-3.49,0-6.9869-.0606-10.4769,0-.1526.0026-.3055,0-.4581,0a.7851.7851,0,0,0,0,1.5692Z"/><path d="M326.0272,365.7512H584.4736c3.49,0,6.9869.06,10.4769,0,.1526-.0027.3054,0,.458,0a.7851.7851,0,0,0,0-1.5693H336.9621c-3.49,0-6.9869-.06-10.4769,0-.1526.0027-.3054,0-.458,0a.7851.7851,0,0,0,0,1.5693Z"/><path d="M326.2887,399.7508H433.145c1.444,0,2.928.0992,4.37,0,.0621-.0043.1258,0,.1881,0a.7851.7851,0,0,0,0-1.5693H330.8465c-1.4441,0-2.9281-.0992-4.37,0-.062.0043-.1258,0-.1881,0a.7851.7851,0,0,0,0,1.5693Z"/></svg>