<svg id="Layer_1" data-name="Layer 1" xmlns="http://www.w3.org/2000/svg" width="1000" height="1000" viewBox="0 0 1000 1000"><defs><style>.cls-1{fill:#fff;}.cls-2{fill:#458dc9;}.cls-3{fill:#ea2f2f;}.cls-4{fill:#ffc41f;}.cls-5{fill:#389b48;}.cls-6{fill:#fc7272;}.cls-7{fill:#a8542a;}</style></defs><path d="M215.9945,840.3723c.0317-4.4721,1.571-8.81,6.3147-9.9264,3.2845-.7728,6.8552-.082,10.0223.8975.5649.1747,1.1257.364,1.6793.572.1472.0554.9274.3761.4732.181a.9607.9607,0,0,0,1.3909-1.0692,6.1763,6.1763,0,0,1-.0445-2.3906,9.5943,9.5943,0,0,1,3.4882-5.7464,16.6191,16.6191,0,0,1,19.1874-1.7784,15.6224,15.6224,0,0,1,3.5614,2.7536c.6073.6583,1.95-.0288,1.5825-.9212a13.282,13.282,0,0,1,4.5978-16.1133c3.406-2.2988,7.4964-3.3337,11.5107-3.94.9652-.1457.8353-1.5935,0-1.8259-5.2773-1.4681-10.7623-3.3218-15.1851-6.6607-2.3364-1.7637-4.6709-4.3011-4.65-7.414.019-2.8223,1.9827-5.1724,4.0629-6.8686a30.6878,30.6878,0,0,1,11.033-5.2752,64.9047,64.9047,0,0,1,18.6371-2.2331c.7535.01,1.3379-1.092.67-1.6162-7.5347-5.91-15.153-12.2528-21.01-19.897-2.2665-2.9581-5.76-7.6734-4.8313-11.6252.6742-2.8683,3.9978-3.5847,6.8219-3.5746,5.1206.0183,10.2624,1.8434,14.8653,3.9422a82.13,82.13,0,0,1,20.633,13.8016c.66.5927,1.8983.03,1.5825-.9212-3.96-11.9266-7.4767-24.3656-8.27-36.969a44.9821,44.9821,0,0,1,.4472-11.2,14.3,14.3,0,0,1,2.58-6.4183,4.6578,4.6578,0,0,1,3.9695-1.86,9.184,9.184,0,0,1,4.9488,2.3c5.1991,4.27,8.4186,10.9539,10.8009,17.0905,3.9941,10.2888,6.0067,21.3225,6.9112,32.2893q.2067,2.5067.3345,5.0187a.9517.9517,0,0,0,1.86.2517c2.9121-7.4717,6.2941-14.79,9.882-21.957a197.9082,197.9082,0,0,1,10.2556-18.2806c3.4378-5.3617,7.2256-10.6661,11.9421-14.9884,3.1409-2.8784,7.39-5.9438,11.909-5.3151,3.7636.5237,5.3179,3.54,5.45,7.0881.1911,5.1162-1.4927,10.3049-3.1983,15.0595a154.5386,154.5386,0,0,1-7.7833,17.5945c-4.0641,8.0183-8.6088,15.7418-13.2749,23.4177-.0768.1264-.1581.25-.2379.3752-.5516.8621.5014,1.669,1.2954,1.2953,2.85-1.3412,5.7855-2.5173,8.7354-3.6166,5.5067-2.0521,11.2741-3.9543,17.143-4.5842,3.6154-.388,10.2174-.5521,10.8783,4.3488.2974,2.2055-.9,4.4158-2.0728,6.1865a36.84,36.84,0,0,1-5.6093,6.364,74.634,74.634,0,0,1-9.8444,7.8283.9514.9514,0,0,0,.73,1.7305,91.3654,91.3654,0,0,1,18.5951-1.8591c3.7287.0322,8.088.1849,11.3833,2.1534,3.9384,2.3527,2.8109,8.0285,1.1418,11.5272a20.5977,20.5977,0,0,1-7.6267,8.5017c-.8887.539-.3188,2.0835.73,1.7305a8.7741,8.7741,0,0,1,4.67-.3177c3.9942.9291,4.0508,5.5728,3.5851,8.8826-.0645.4587.1062,1.0794.6613,1.1646,4.9562.7611,11.0042,2.4334,13.3956,7.3485a8.7792,8.7792,0,0,1,.7966,4.8588c.0378-.2987-.0242.1395-.05.2495-.2839,1.1844,1.5416,1.69,1.8259.5033,1.1713-4.8867-2.187-9.6037-6.2632-11.8964a27.0234,27.0234,0,0,0-9.201-2.89l.6613,1.1647c.5818-4.1352.3567-9.4886-4.3233-11.0479a10.2856,10.2856,0,0,0-6.2615.1536l.73,1.7305a22.9082,22.9082,0,0,0,7.4247-7.5554,17.2672,17.2672,0,0,0,2.5759-8.5308,7.8777,7.8777,0,0,0-1.6584-5.72c-2.6029-2.914-7.2343-3.4992-10.8949-3.7734a73.7132,73.7132,0,0,0-14.0066.5213c-2.8073.3278-5.6207.7193-8.3934,1.2746l.73,1.7305a79.2724,79.2724,0,0,0,9.1387-7.1247,45.6511,45.6511,0,0,0,6.1983-6.618,14.216,14.216,0,0,0,3.1365-7.052c.4533-5.4116-4.8495-7.5473-9.3695-7.631-6.2137-.1151-12.51,1.8249-18.3206,3.8369a120.9273,120.9273,0,0,0-11.925,4.7919l1.2953,1.2954c4.3055-6.73,8.2592-13.7136,11.9642-20.7882a184.2838,184.2838,0,0,0,8.4079-18.0871c2.0616-5.2518,3.9881-10.82,4.3478-16.4946.2345-3.7013-.4359-8.0718-4.0107-10.0213-4.0577-2.2127-8.9116-.667-12.515,1.6958-5.09,3.3378-9.0761,8.2609-12.6027,13.1462a157.1162,157.1162,0,0,0-11.2373,18.4686A275.6546,275.6546,0,0,0,334.3309,752.25c-.0627.1576-.1255.3152-.1871.4732l1.86.2517c-.6245-11.945-2.4093-23.996-6.39-35.3143-2.4568-6.9845-5.7805-14.4431-11.2784-19.6009-2.9348-2.7533-7.4739-5.2153-11.23-2.4658-4.6479,3.4025-5.0138,10.9328-5.0141,16.1094-.0009,12.0639,3.0815,24.1724,6.5862,35.6287q.9053,2.959,1.8843,5.8946l1.5824-.9212a85.3684,85.3684,0,0,0-19.4188-13.343c-5.1091-2.4964-10.7266-4.6329-16.4632-4.9283-3.2668-.1681-7.5116.3918-9.1433,3.6775-1.9422,3.9108.7157,8.7229,2.8506,11.9487,5.9245,8.9518,14.6592,16.12,23.0178,22.676l.6695-1.6162a68.0573,68.0573,0,0,0-18.0936,2.0144,34.4769,34.4769,0,0,0-12.3846,5.6293c-2.53,1.9521-4.773,4.6153-5.1062,7.9074-.3359,3.3205,1.5573,6.3043,3.93,8.4531,4.7289,4.2818,11.223,6.49,17.2526,8.1668V801.065c-6.2537.9445-13.2992,3.2011-16.6583,9.0258a15.6016,15.6016,0,0,0-1.4564,10.9808,13.3886,13.3886,0,0,0,.6836,2.376l1.5825-.9212a18.52,18.52,0,0,0-12.6049-5.6394c-6.4625-.1906-14.903,3.7244-16.6384,10.4944a8.4289,8.4289,0,0,0-.1142,4.1492l1.3909-1.0692c-5.5385-2.3783-14.3333-4.1124-18.746,1.1936-2.0189,2.4277-2.5711,5.6435-2.5929,8.7173a.9474.9474,0,0,0,1.8936,0Z"/><path d="M364.9065,802.7587a42.1766,42.1766,0,0,0-2.5635-6.1459c-1.5947-3.1611-3.6725-6.5264-6.7519-8.435-2.9085-1.8026-6.9718-1.5605-9.175,1.2651-2.2947,2.9429-1.5653,7.2771-.6484,10.5952a38.987,38.987,0,0,0,3.1293,7.8746l1.0692-1.3909c-4.413-1.7344-10.2355-2.4724-14.5508-.1649-1.7985.9618-2.9519,2.6325-2.1759,4.68.7123,1.8793,2.4138,3.3084,3.9629,4.497a30.29,30.29,0,0,0,3.8748,2.5506v-1.635c-3.8337,2.4025-6.3465,7.0279-3.3994,11.1274.7049.9807,2.3482.0364,1.635-.9557a4.8,4.8,0,0,1,.1427-6.1813,10.15,10.15,0,0,1,2.5774-2.3554.9562.9562,0,0,0,0-1.635,28.9528,28.9528,0,0,1-3.7-2.4165c-1.1762-.9019-3.7179-2.75-3.4662-4.5.18-1.2493,2.0557-1.8716,3.0441-2.1729a14.0421,14.0421,0,0,1,5.1719-.4506,22.31,22.31,0,0,1,6.38,1.4386c.8206.3225,1.4222-.728,1.0693-1.3909a37.4123,37.4123,0,0,1-2.3335-5.4733c-.9982-2.9187-2.112-6.6574-.9583-9.6889,1.1227-2.95,4.6836-3.5762,7.214-2.0913,2.77,1.6254,4.607,4.6859,6.0464,7.46a39.1,39.1,0,0,1,2.58,6.0988c.3684,1.1568,2.1972.6624,1.8259-.5034Z"/><rect class="cls-1" x="430.6974" y="298.1764" width="544.1281" height="392.9279" rx="31.3184"/><path d="M462.0158,692.9979H941.8139a39.6049,39.6049,0,0,0,10.2879-1.1229,33.5455,33.5455,0,0,0,24.5051-29.4464c.4589-5.4907.1121-11.1283.1121-16.6274V340.244c0-7.9165.5794-15.9484-2.5288-23.4431a33.5815,33.5815,0,0,0-30.6865-20.5181c-.9677-.0094-1.936,0-2.9038,0H470.1009c-6.2,0-12.4275-.3351-18.418,1.6435a33.553,33.553,0,0,0-22.8565,30.4294c-.0579,1.6165-.0226,3.2394-.0226,4.8564V658.0658a37.0226,37.0226,0,0,0,2.3926,14.0815,33.615,33.615,0,0,0,30.8194,20.8506c2.4378.029,2.4393-3.7581,0-3.7872-14.8471-.1768-27.8091-11.452-29.2815-26.4086-.2054-2.0862-.1434-4.2051-.1434-6.3V332.3705a42.7547,42.7547,0,0,1,.5707-8.6833A29.7588,29.7588,0,0,1,462.026,300.07c3.631-.037,7.2644,0,10.8955,0H941.0542c1.3218,0,2.6495-.0257,3.97.0361a29.6729,29.6729,0,0,1,27.8713,27.8713c.2459,5.1492.0361,10.35.0361,15.5021V647.5228c0,6.4141.6778,13.6062-.9876,19.8511a29.7433,29.7433,0,0,1-28.4621,21.8368c-1.0408.01-2.0823,0-3.1231,0H462.0158A1.8947,1.8947,0,0,0,462.0158,692.9979Z"/><path d="M974.8254,352.9907V317.9445a19.768,19.768,0,0,0-19.768-19.7681H450.4654a19.768,19.768,0,0,0-19.768,19.7681v35.0462Z"/><path d="M976.719,352.9907v-32.929c0-7.1478-1.97-13.8557-7.6465-18.6255a22.29,22.29,0,0,0-14.2946-5.1534c-7.8611-.0926-15.7289,0-23.59,0H453.0205c-6.5125,0-12.7154,1.3633-17.62,6.0972-5.1028,4.9249-6.5963,11.2928-6.5963,18.1105v32.5a1.9211,1.9211,0,0,0,1.8936,1.8936h522.04c7.05,0,14.1135.1283,21.1625,0,.3082-.0056.617,0,.9252,0a1.8947,1.8947,0,0,0,0-3.7872H438.9c-2.3911,0-4.8931-.2115-7.2769,0-.3033.0269-.62,0-.9252,0l1.8935,1.8936v-32.5c0-7.387,2.2351-14.2113,9.058-18.0986A18.8794,18.8794,0,0,1,451.07,300.07c8.3436-.0383,16.6884,0,25.0321,0h475.511c4.7744,0,9.2471.2221,13.4679,3.0681,6.169,4.16,7.8511,10.685,7.8511,17.6584v32.1942A1.8947,1.8947,0,0,0,976.719,352.9907Z"/><rect class="cls-1" x="25" y="159.6277" width="544.1281" height="392.9279" rx="22.5313"/><path d="M47.5313,554.4492H543.5541c1.0115,0,2.0241.0137,3.0356,0a24.7361,24.7361,0,0,0,24.432-24.4277c.0685-5.0691,0-10.144,0-15.2134V197.616c0-5.1482.07-10.3018,0-15.45a24.7369,24.7369,0,0,0-24.428-24.4322c-.9814-.0132-1.9638,0-2.9452,0H58.343c-3.6024,0-7.2087-.0487-10.811,0a24.7423,24.7423,0,0,0-24.4256,24.439c-.0207,1.4526,0,2.907,0,4.36V526.11c0,1.301-.0174,2.6034,0,3.9044a24.7446,24.7446,0,0,0,24.4249,24.4351c2.4379.04,2.4385-3.7469,0-3.7872a20.9092,20.9092,0,0,1-20.6377-20.9249c-.0182-1.9206,0-3.8423,0-5.7629V185.6393a54.9713,54.9713,0,0,1,.1117-5.7376c1.1228-10.6288,10.34-18.2716,20.8088-18.38,4.5235-.047,9.05,0,13.5737,0H544.0986c1.332,0,2.68-.0417,4.01.05,10.9712.7556,19.0664,10.1727,19.1263,20.9508.0347,6.2575,0,12.5161,0,18.7736V516.5595c0,5.5865.721,11.8767-.3719,17.4124a20.9158,20.9158,0,0,1-20.611,16.69c-1.5064.0086-3.0131,0-4.52,0H47.5313A1.8947,1.8947,0,0,0,47.5313,554.4492Z"/><path d="M569.1281,214.442V173.8493a14.2217,14.2217,0,0,0-14.2217-14.2216H39.2216A14.2216,14.2216,0,0,0,25,173.8493V214.442Z"/><path d="M571.0217,214.442v-34.25c0-5.3825.4228-10.7807-2.8378-15.4679a16.5074,16.5074,0,0,0-13.5512-6.99c-8.04-.1334-16.0939,0-24.1348,0H41.8984c-6.4655,0-12.6046,1.65-16.3464,7.5782-2.9416,4.6605-2.4456,10.0495-2.4456,15.2922V214.442A1.9212,1.9212,0,0,0,25,216.3356H547.04c7.05,0,14.1134.1283,21.1625,0,.3081-.0056.6169,0,.9252,0a1.8947,1.8947,0,0,0,0-3.7872H33.2021c-2.391,0-4.893-.2115-7.2769,0-.3032.0269-.62,0-.9252,0l1.8936,1.8936V180.6045c0-5.4831-.6569-11.1986,3.6139-15.4693a12.9085,12.9085,0,0,1,9.3488-3.6139c8.5559-.049,17.1135,0,25.6694,0h485.856c4.8446,0,9.4332.2034,12.961,4.385,3.6089,4.2776,2.8918,9.9279,2.8918,15.12V214.442A1.8947,1.8947,0,0,0,571.0217,214.442Z"/><rect class="cls-1" x="156.939" y="239.08" width="391.0018" height="280.7316" rx="34.9911"/><path d="M191.93,521.7052H503.4192c3.12,0,6.24.0149,9.3592,0,16.7323-.08,31.8487-11.4876,35.9395-27.8443,1.3812-5.5225,1.1165-11.1973,1.1165-16.8351v-200.36c0-1.3218.0235-2.6478-.0276-3.9688A37.0942,37.0942,0,0,0,538.11,247.1017c-7.5283-7-17.0614-9.9153-27.1585-9.9153h-316.03c-8.2024,0-16.1138,1.3761-23.1363,5.9861a37.1472,37.1472,0,0,0-15.865,22.8888,44.2661,44.2661,0,0,0-.8747,9.5045V474.9144c0,4.1023-.1986,8.2715.0864,12.3694A37.2813,37.2813,0,0,0,191.93,521.7052c2.4375.0188,2.44-3.7684,0-3.7872a33.4539,33.4539,0,0,1-33.0975-33.2033c-.0217-4.11,0-8.2209,0-12.331V275.1255c0-13.8845,7.831-26.823,21.0663-31.9075,5.4242-2.0838,10.8522-2.2444,16.5056-2.2444H511.25c10.7036,0,20.62,3.891,27.5025,12.3528a33.3294,33.3294,0,0,1,7.2943,20.8824c.0066,1.32,0,2.64,0,3.9594V478.1821c0,6.392.1151,12.5276-2.2444,18.67-5.0047,13.0276-17.8141,21.0549-31.5524,21.0663q-5.6358.0046-11.2715,0H191.93A1.8947,1.8947,0,0,0,191.93,521.7052Z"/><rect class="cls-2" x="40.4089" y="239.08" width="98.232" height="65.9695" rx="17.1744"/><path d="M57.5833,306.9431h54.64q4.395,0,8.79,0a19.4772,19.4772,0,0,0,16.2148-8.3414,19.1931,19.1931,0,0,0,3.3069-10.768c.0094-1.1908,0-2.382,0-3.5729V267.6251c0-3.7761.028-7.5533,0-11.3292a19.3172,19.3172,0,0,0-12.8842-18.08c-3.1825-1.1149-6.4385-1.0293-9.74-1.0293H59.2054c-4.8494,0-9.4057.9863-13.3286,4.0351a19.1075,19.1075,0,0,0-6.724,10.1257,23.76,23.76,0,0,0-.6375,6.133v29.2714a22.9288,22.9288,0,0,0,.7264,6.3538,19.13,19.13,0,0,0,18.3416,13.8377c2.4377.0244,2.44-3.7627,0-3.7871a15.4267,15.4267,0,0,1-15.2252-13.8895c-.2756-3.4019-.0556-6.8933-.0556-10.3007V262.2631c0-3.927-.3887-8.094,1.1256-11.8075a15.4917,15.4917,0,0,1,14.3868-9.482c2.5339-.0073,5.0679,0,7.6017,0H97.8q11.6509,0,23.3022,0a15.558,15.558,0,0,1,14.1054,8.5788c1.8713,3.7443,1.54,7.8793,1.54,11.9265,0,8.8547.1156,17.7176-.0017,26.5715a15.409,15.409,0,0,1-13.8877,15.05c-2.165.1737-4.3789.0556-6.5471.0556H57.5833A1.8947,1.8947,0,0,0,57.5833,306.9431Z"/><path class="cls-3" d="M279.3448,458.5552l124.0665-80.3414a8.0994,8.0994,0,0,0,0-13.8792L279.3448,283.9931c-6.1494-3.9821-14.6462.0438-14.6462,6.94V451.6156C264.6986,458.5114,273.1954,462.5374,279.3448,458.5552Z"/><path d="M280.3005,460.19l8.7479-5.6649,21.9971-14.2446,28.876-18.6991,29.3847-19.0286L392.83,387.32c3.7637-2.4373,7.5379-4.8594,11.2916-7.3121a11.89,11.89,0,0,0,3.5061-3.3615,9.9017,9.9017,0,0,0-.0893-10.8741,15.45,15.45,0,0,0-4.7709-4.1091l-14.9946-9.71-25.6117-16.5853L332.406,316.1l-27.7535-17.9723-19.282-12.4863-4.4735-2.8969a12.2093,12.2093,0,0,0-11.872-1.1166,10.5368,10.5368,0,0,0-6.22,9.8893v157.85a26.1247,26.1247,0,0,0,.125,3.7214c1.1491,7.996,10.9864,11.0881,17.37,7.102,2.0629-1.288.1639-4.5659-1.9115-3.27-4.5556,2.8444-11.7125.5864-11.7968-5.3913-.0158-1.1175,0-2.2363,0-3.3539V291.4511a7.0441,7.0441,0,0,1,6.519-7.0988c2.5156-.2713,4.5119.78,6.507,2.0719l13.8362,8.96,24.6579,15.9677,29.2209,18.9225,27.8113,18.01,20.3575,13.1828,5.5074,3.5664c1.6235,1.0514,3.2221,2.0482,3.9948,3.9663a6.3139,6.3139,0,0,1-2.5583,7.5856c-.2393.16-.4831.3128-.7245.4691l-4.6083,2.9842-19.01,12.31-27.3388,17.7038L321.3968,429.07l-25.4381,16.4729-15.4641,10.014L278.389,456.92C276.35,458.24,278.2467,461.52,280.3005,460.19Z"/><line class="cls-1" x1="138.6409" y1="322.3846" x2="40.4089" y2="322.3846"/><path d="M138.6409,320.491H52.529c-3.9692,0-7.978-.1642-11.9448,0-.0582.0024-.117,0-.1753,0a1.8947,1.8947,0,0,0,0,3.7872h86.1119c3.9693,0,7.978.1642,11.9448,0,.0582-.0024.117,0,.1753,0a1.8947,1.8947,0,0,0,0-3.7872Z"/><line class="cls-1" x1="138.6409" y1="339.7196" x2="80.3759" y2="339.7196"/><path d="M138.6409,337.8261H80.3759a1.8947,1.8947,0,0,0,0,3.7871h58.265a1.8947,1.8947,0,0,0,0-3.7871Z"/><line class="cls-1" x1="138.6409" y1="448.5453" x2="40.4089" y2="448.5453"/><path d="M138.6409,446.6517H52.529c-3.9692,0-7.978-.1643-11.9448,0-.0582.0024-.117,0-.1753,0a1.8947,1.8947,0,0,0,0,3.7872h86.1119c3.9693,0,7.978.1642,11.9448,0,.0582-.0025.117,0,.1753,0a1.8947,1.8947,0,0,0,0-3.7872Z"/><line class="cls-1" x1="138.6409" y1="465.8803" x2="80.3759" y2="465.8803"/><path d="M138.6409,463.9867H80.3759a1.8947,1.8947,0,0,0,0,3.7872h58.265a1.8947,1.8947,0,0,0,0-3.7872Z"/><path class="cls-1" d="M103.45,261.3478l-19.2215,21.07L65.2753,266.6832a9.0672,9.0672,0,0,0-12.4068.775l-12.46,13.29v13.4608a10.84,10.84,0,0,0,10.8406,10.84h76.5512a10.84,10.84,0,0,0,10.84-10.84V279.2354l-22.7178-18.7671A9.068,9.068,0,0,0,103.45,261.3478Z"/><path d="M102.1106,260.0088,85.2891,278.4479l-2.4,2.6309h2.6779L67.8452,266.3662a17.1592,17.1592,0,0,0-3.7473-2.64,11.0268,11.0268,0,0,0-10.8255.9076,23.0381,23.0381,0,0,0-3.3811,3.2328l-4.8464,5.1695-4.6239,4.9321c-.8382.8941-1.8559,1.6851-1.9057,2.9908-.1562,4.0945,0,8.2235,0,12.3212a14.3669,14.3669,0,0,0,1.5767,7.07,12.766,12.766,0,0,0,8.4282,6.2953,28.045,28.045,0,0,0,5.7507.2977h72.5018c4.0154,0,7.8782-1.18,10.5871-4.3278a13.1126,13.1126,0,0,0,3.1747-8.54c.0173-1.712,0-3.4251,0-5.1372v-7.3627c0-1.167.2839-2.8379-.62-3.733-.7569-.75-1.6778-1.3859-2.4982-2.0637l-4.92-4.0641-11.28-9.3186c-2.6929-2.2245-5.4461-5.0793-9.0128-5.6962a11.16,11.16,0,0,0-10.0935,3.3087c-1.6773,1.7677.9962,4.45,2.6779,2.678a7.29,7.29,0,0,1,9.8994-.7938c1.3868,1.0861,2.7209,2.2477,4.0789,3.37l14.655,12.1064,3.88,3.2054-.5546-1.3389v13.1687c0,2.3435-.0917,4.5285-1.3917,6.6012a9.0324,9.0324,0,0,1-7.5938,4.1505c-6.1009.0769-12.2078,0-18.3091,0H52.3093a18.7746,18.7746,0,0,1-2.1039-.05,9.0378,9.0378,0,0,1-7.6267-6.6811,24.6839,24.6839,0,0,1-.2763-6.0431v-9.6337l-.5546,1.339,6.57-7.0074,4.252-4.5353a23.1636,23.1636,0,0,1,2.5231-2.57,7.2657,7.2657,0,0,1,8.6462-.1011c.6468.4708,1.245,1.0178,1.86,1.5283l9.7233,8.0724,7.5672,6.2822a1.9285,1.9285,0,0,0,2.6779,0l16.8215-18.4391,2.4-2.6308C106.4283,260.8893,103.7575,258.2036,102.1106,260.0088Z"/><rect class="cls-2" x="40.4089" y="365.5643" width="98.232" height="65.9695" rx="17.1744"/><path d="M57.5833,433.4274h54.64q4.395,0,8.79,0a19.4775,19.4775,0,0,0,16.2148-8.3414,19.1937,19.1937,0,0,0,3.3069-10.7681c.0094-1.1907,0-2.382,0-3.5728V394.1093c0-3.776.028-7.5533,0-11.3292A19.3172,19.3172,0,0,0,127.65,364.7c-3.1825-1.1149-6.4385-1.0292-9.74-1.0292H59.2054c-4.8494,0-9.4057.9862-13.3286,4.035a19.1078,19.1078,0,0,0-6.724,10.1258,23.7593,23.7593,0,0,0-.6375,6.1329v29.2714a22.9284,22.9284,0,0,0,.7264,6.3538,19.13,19.13,0,0,0,18.3416,13.8378c2.4377.0243,2.44-3.7628,0-3.7872a15.4267,15.4267,0,0,1-15.2252-13.8894c-.2756-3.4019-.0556-6.8934-.0556-10.3007V388.7473c0-3.927-.3887-8.0939,1.1256-11.8075a15.4919,15.4919,0,0,1,14.3868-9.482c2.5339-.0072,5.0679,0,7.6017,0H97.8q11.6509,0,23.3022,0a15.5582,15.5582,0,0,1,14.1054,8.5788c1.8713,3.7444,1.54,7.8794,1.54,11.9265,0,8.8547.1156,17.7176-.0017,26.5715a15.4088,15.4088,0,0,1-13.8877,15.05c-2.165.1737-4.3789.0556-6.5471.0556H57.5833A1.8947,1.8947,0,0,0,57.5833,433.4274Z"/><path class="cls-1" d="M103.45,387.832,84.228,408.902,65.2753,393.1674a9.0672,9.0672,0,0,0-12.4068.7751l-12.46,13.29v13.4609a10.84,10.84,0,0,0,10.8406,10.84h76.5512a10.84,10.84,0,0,0,10.84-10.84V405.72l-22.7178-18.7671A9.068,9.068,0,0,0,103.45,387.832Z"/><path d="M102.1106,386.4931l-16.8215,18.439-2.4,2.6309h2.6779L67.8452,392.85a17.1592,17.1592,0,0,0-3.7473-2.64,11.027,11.027,0,0,0-10.8255.9076,23.044,23.044,0,0,0-3.3811,3.2329L45.0449,399.52l-4.6239,4.9321c-.8382.8941-1.8559,1.6851-1.9057,2.9908-.1562,4.0945,0,8.2235,0,12.3213a14.3674,14.3674,0,0,0,1.5767,7.07A12.7661,12.7661,0,0,0,48.52,433.13a28.045,28.045,0,0,0,5.7507.2977h72.5018c4.0154,0,7.8782-1.18,10.5871-4.3278a13.1126,13.1126,0,0,0,3.1747-8.54c.0173-1.712,0-3.4251,0-5.1372V408.06c0-1.167.2839-2.8379-.62-3.7329-.7569-.75-1.6778-1.386-2.4982-2.0637l-4.92-4.0642-11.28-9.3185c-2.6929-2.2246-5.4461-5.0794-9.0128-5.6963a11.16,11.16,0,0,0-10.0935,3.3088c-1.6773,1.7677.9962,4.45,2.6779,2.6779a7.29,7.29,0,0,1,9.8994-.7938c1.3868,1.0861,2.7209,2.2477,4.0789,3.3695l14.655,12.1064,3.88,3.2055-.5546-1.339v13.1688c0,2.3435-.0917,4.5284-1.3917,6.6012a9.0326,9.0326,0,0,1-7.5938,4.15c-6.1009.077-12.2078,0-18.3091,0H52.3093a18.7509,18.7509,0,0,1-2.1039-.05,9.0378,9.0378,0,0,1-7.6267-6.6811,24.6839,24.6839,0,0,1-.2763-6.0431v-9.6337l-.5546,1.339,6.57-7.0073,4.252-4.5354a23.1713,23.1713,0,0,1,2.5231-2.57,7.2657,7.2657,0,0,1,8.6462-.1012c.6468.4708,1.245,1.0179,1.86,1.5284l9.7233,8.0723,7.5672,6.2822a1.9285,1.9285,0,0,0,2.6779,0l16.8215-18.439,2.4-2.6309C106.4283,387.3736,103.7575,384.6878,102.1106,386.4931Z"/><line class="cls-1" x1="527.9573" y1="491.6421" x2="171.6257" y2="491.6421"/><path d="M527.9573,489.7485H186.09c-4.6165,0-9.2428-.0883-13.8586,0-.2019.0039-.4041,0-.6059,0a1.8947,1.8947,0,0,0,0,3.7872H513.4928c4.6164,0,9.2428.0883,13.8586,0,.2018-.0038.4041,0,.6059,0a1.8947,1.8947,0,0,0,0-3.7872Z"/><line class="cls-1" x1="408.6081" y1="491.6421" x2="175.0664" y2="491.6421"/><path d="M408.6081,489.7485H184.5349c-3.0227,0-6.0525-.0608-9.0748,0-.1311.0027-.2625,0-.3937,0a1.8947,1.8947,0,0,0,0,3.7872H399.14c3.0227,0,6.0525.0609,9.0748,0,.1311-.0026.2625,0,.3937,0a1.8947,1.8947,0,0,0,0-3.7872Z"/><path class="cls-3" d="M175.0664,494.5313H408.6081a2.8892,2.8892,0,1,0,0-5.7783H175.0664a2.8892,2.8892,0,1,0,0,5.7783Z"/><path class="cls-3" d="M175.0664,496.4249H407.1925a7.2913,7.2913,0,0,0,3.6419-.5522,4.782,4.782,0,0,0-2.2267-9.0133c-.1549-.0066-.3113.001-.4663,0-1.1354-.0075-2.2711,0-3.4066,0H184.4287c-3.0278,0-6.059-.0426-9.0866,0a5.353,5.353,0,0,0-2.502.5522,4.7842,4.7842,0,0,0,2.2263,9.0133c2.4348.1405,2.4268-3.6472,0-3.7872-1.466-.0846-1.1295-1.8642.1275-1.9912.2826-.0285.5832,0,.8669,0H398.9256c3.0959,0,6.1929-.0223,9.2888,0a2.6927,2.6927,0,0,1,.5527.0087c1.381.3247.8467,1.8737-.3,1.9825-.8377.0795-1.7224,0-2.5627,0H175.0664A1.8947,1.8947,0,0,0,175.0664,496.4249Z"/><circle class="cls-3" cx="63.3164" cy="187.2822" r="8.6692"/><circle class="cls-4" cx="96.9422" cy="187.2822" r="8.6692"/><circle class="cls-5" cx="130.5681" cy="187.2822" r="8.6692"/><path class="cls-6" d="M792.0774,439.7175l-55.5317-12.5332a35.2948,35.2948,0,0,0-27.422,5.1108L572.2142,524.0639,477.7857,385.5652l-54.1544,38.1739,92.2823,134.0814a72.7129,72.7129,0,0,0,89.683,25.1075l152.7227-76.365"/><path d="M792.5807,437.8916l-49.8479-11.25c-2.099-.4737-4.1936-.9805-6.3009-1.4163a37.52,37.52,0,0,0-27.2034,4.7515c-2.6926,1.6654-5.2834,3.5143-7.9123,5.2765l-43.7578,29.33L602.75,501.32,582.0887,515.17c-3.3992,2.2784-7.1842,4.3559-10.36,6.9442-.1441.1174-.3153.2113-.47.3151l2.5908.6794-9.4127-13.8057L541.84,476.16l-27.2182-39.921-23.5379-34.5232c-3.831-5.6189-7.5647-11.3209-11.5-16.8675-.0557-.0785-.1086-.1592-.1628-.2388a1.9175,1.9175,0,0,0-2.5908-.6793l-18.3433,12.93-29.08,20.4988-6.731,4.7447a1.9218,1.9218,0,0,0-.6793,2.5908l12.4012,18.0182,28.1153,40.85,30.5752,44.4242,19.4538,28.2654A95.7534,95.7534,0,0,0,521.637,567.9a74.4743,74.4743,0,0,0,87.1666,15.5377l29.01-14.5058,47.4035-23.7028,46.3885-23.1954,26.42-13.2107,1.2489-.6245c2.18-1.09.2644-4.3581-1.9114-3.27l-18.4464,9.2236-42.8626,21.4323-48.5637,24.283-35.55,17.7759c-2.3529,1.1765-4.6913,2.3895-7.0615,3.5309a68.0762,68.0762,0,0,1-30.4615,6.2346,71.5241,71.5241,0,0,1-57.1672-30.9766q-7.6433-11.09-15.2726-22.19l-29.0049-42.1426-29.6547-43.0867L426.0965,423.99l-.83-1.2062-.6793,2.5908,18.3433-12.93,29.08-20.4988,6.731-4.7447-2.5908-.6793,9.4127,13.8057L508.16,433.4691,535.3782,473.39l23.5379,34.5231c3.831,5.6189,7.5647,11.3209,11.5,16.8675.0557.0785.1085.1593.1628.2388a1.9213,1.9213,0,0,0,2.5908.6793l25.4155-17.0357,53.3942-35.79,47.0944-31.5668q5.2254-3.5025,10.451-7.0051a35.5658,35.5658,0,0,1,12.6789-5.4413,36.6823,36.6823,0,0,1,15.6338.5549l52.207,11.783,1.5292.3451c2.3735.5357,3.387-3.1147,1.0067-3.6519Z"/><path class="cls-4" d="M729.946,425.7257a43.1233,43.1233,0,0,0-35.3127,7.525L581.188,518.0489l-8.9737,6.0149-46.7528-68.5725c-6.3265,7.493-17.387,16.7168-30.919,25.2652-10.8594,6.86-41.3223,12.7546-49.9759,15.846l52.827,84.4675c27.626,31.07,67.2824,26.6551,99.3174,12.27L616.79,582.5975l90.95-41.63,63.76-105.8637Z"/><path d="M730.4494,423.9a45.5257,45.5257,0,0,0-36.7818,7.7234c-1.5424,1.1408-3.0734,2.2973-4.61,3.4459l-27.8207,20.7955-38.5434,28.81L590.2471,508.928c-5.3526,4.0009-10.6611,7.919-16.2114,11.6393l-2.7771,1.8615,2.5908.6793-15.8585-23.26-25.0787-36.783-5.8157-8.53a1.9144,1.9144,0,0,0-2.974-.3832,104.1779,104.1779,0,0,1-14.8749,13.9447c-3.2212,2.5508-6.5512,4.9652-9.9473,7.2774a74.0374,74.0374,0,0,1-8.2457,5.1615,93.0373,93.0373,0,0,1-15.3187,5.608c-5.7205,1.7036-11.5014,3.1957-17.2831,4.6749-4.803,1.2288-9.709,2.3039-14.39,3.9577a1.9175,1.9175,0,0,0-1.1317,2.7816l17.9,28.6216,28.4713,45.524c2.1164,3.3839,4.123,6.8753,6.3655,10.1781a30.4787,30.4787,0,0,0,4.0239,4.349,73.3289,73.3289,0,0,0,8.8119,7.3724,67.348,67.348,0,0,0,18.2862,9.1619c13.0012,4.2128,26.9724,4.2964,40.3354,1.9188a121.253,121.253,0,0,0,19.4913-5.2469,93.8285,93.8285,0,0,0,12.7839-5.39c6.1084-3.2682,12.1448-6.752,18.356-9.82,3.1445-1.5532,6.3923-2.9259,9.5808-4.3853l48.0826-22.0085,22.5068-10.3019,7.2875-3.3356a31.6356,31.6356,0,0,0,3.3767-1.5456,4.5573,4.5573,0,0,0,1.4035-1.7572l2.6563-4.41,10.0171-16.632,28.86-47.9171,20.5653-34.1456,1.041-1.7283a1.91,1.91,0,0,0-1.1317-2.7817l-36.4308-8.2223L730.4494,423.9c-2.3735-.5357-3.387,3.1147-1.0067,3.6519l36.4308,8.2223,5.1224,1.1561-1.1316-2.7816-14.7882,24.5534-28.7977,47.8143L706.84,538.79a7.5648,7.5648,0,0,0-.6216,1.0321c-.2563.6528.8263-.465.4615-.4421a4.1374,4.1374,0,0,0-1.085.4966l-2.2305,1.0209-17.3091,7.9228-49.9994,22.8859c-8.716,3.9894-17.4931,7.7959-25.9447,12.3177l-11.888,6.36a89.0077,89.0077,0,0,1-11.3181,4.9312c-12.6022,4.6408-26.0008,7.5527-39.4824,7.13a67.09,67.09,0,0,1-37.7957-12.6825,68.4614,68.4614,0,0,1-8.3617-7.3159,24.6835,24.6835,0,0,1-2.4258-2.635c-.8693-1.1973-1.5887-2.54-2.3728-3.7939L471.0588,535.392l-23.5476-37.6514-1.31-2.0938-1.1316,2.7816c4.1262-1.4578,8.4372-2.435,12.6716-3.5183,5.9375-1.5191,11.8787-3.0308,17.7625-4.7491a116.8875,116.8875,0,0,0,16.0092-5.6592c6.4051-2.9355,12.252-7.4539,17.8218-11.7132A111.3349,111.3349,0,0,0,526.8,456.83l-2.974-.3832,15.8585,23.26,25.0788,36.783,5.8156,8.53a1.9215,1.9215,0,0,0,2.5908.6793c5.524-3.7027,10.8832-7.4423,16.2027-11.4185l29.96-22.3943,38.5721-28.8319,30.1805-22.5594,6.933-5.1823a41.3277,41.3277,0,0,1,34.4246-7.7609C731.8181,428.0719,732.8329,424.4218,730.4494,423.9Z"/><path d="M444.4441,496.9465c2.097,3.32,9.6972,2.681,20.02-1.0066l-9.8069-17.3407C446.4174,486.64,442.284,493.527,444.4441,496.9465Z"/><path d="M442.809,497.9022c1.7819,2.6951,5.187,3.2064,8.19,3.0811a48.48,48.48,0,0,0,13.9686-3.2175,1.9218,1.9218,0,0,0,1.1317-2.7816l-8.5919-15.1922-1.2151-2.1486a1.9141,1.9141,0,0,0-2.974-.3832c-3.5352,3.464-7.0928,7.24-9.4836,11.6142-1.4548,2.6619-2.7461,6.1776-1.0258,9.0278,1.2579,2.0841,4.534.1826,3.27-1.9115-.06-.0994-.12-.1988-.17-.3036-.0977-.2027.094.3429.0031,0-.0422-.1591-.1643-.81-.1149-.3472a8.5222,8.5222,0,0,1-.0164-.8591c-.0006-.08.0481-.4683-.0058-.08.02-.1459.0493-.2908.0795-.4349a11.977,11.977,0,0,1,1.6213-3.832,50.9055,50.9055,0,0,1,8.52-10.1951l-2.974-.3832,8.5918,15.1921,1.2151,2.1486,1.1317-2.7817a48.0619,48.0619,0,0,1-12.2131,3.0376,18.7082,18.7082,0,0,1-2.2574.0458,6.0081,6.0081,0,0,1-1.591-.21,7.54,7.54,0,0,1-.8395-.2567c.3457.1287-.3014-.1663-.4138-.2252a2.6993,2.6993,0,0,1-.2535-.1653c.3329.2264.0546.05-.0164-.0259-.0812-.0868-.17-.1683-.2519-.2546-.2669-.28.1864.2809-.0451-.0693C444.7409,493.9665,441.46,495.8613,442.809,497.9022Z"/><path class="cls-6" d="M516.09,441.7465l-38.3044-56.1812L423.6313,423.739l31.0261,54.86,9.8069,17.3407a159.0223,159.0223,0,0,0,30.0782-15.1834c13.532-8.5484,24.5925-17.7722,30.919-25.2652Z"/><path d="M517.7253,440.7908l-12.9179-18.9467-20.6655-30.31-4.721-6.9244a1.9175,1.9175,0,0,0-2.5908-.6793l-18.34,12.9282L429.3773,417.38l-6.7017,4.724a1.94,1.94,0,0,0-.6793,2.5908l16.1882,28.624,15.07,26.6466,9.5748,16.93a1.9127,1.9127,0,0,0,2.1385.87A152.3254,152.3254,0,0,0,491.7534,484.7,178.5939,178.5939,0,0,0,517.11,466.473a91.1549,91.1549,0,0,0,9.69-9.6427,1.9429,1.9429,0,0,0,.2961-2.2947l-9.3712-13.7448c-1.3649-2.002-4.648-.1095-3.27,1.9114l9.3712,13.7449.2961-2.2947a111.3508,111.3508,0,0,1-18.9777,17.0786,189.4389,189.4389,0,0,1-27.2286,16.7968,125.04,125.04,0,0,1-13.9553,6.0861l2.1385.87-12.9711-22.9355-21.6392-38.2625-6.2227-11.003-.6794,2.5908,18.34-12.9282L472.04,391.9244l6.7017-4.7241-2.5908-.6793,12.9178,18.9467,20.6655,30.31,4.7211,6.9244C515.82,444.7042,519.1032,442.8117,517.7253,440.7908Z"/><path class="cls-6" d="M442.8975,457.6661l-19.0381-34.2637-6.1927-50.58s-43.9274-4.4495-29.4313-36.3945,64.8911-21.1782,73.28,6.217c3.4223,11.1753,6.7761,20.4153,9.5479,27.4395a129.4577,129.4577,0,0,0,13.6105,25.637l8.0573,11.7645"/><path d="M444.5326,456.71,427.86,426.7041l-2.3655-4.2574.2585.9557-2.0957-17.1166-3.3259-27.1651-.7711-6.2979a1.97,1.97,0,0,0-1.8936-1.8935c-.19-.0194-.379-.0469-.5687-.0679-.4392-.0487.35.0514.1648.0224-.1242-.0194-.2491-.0343-.3735-.0529-.3206-.0479-.6411-.0966-.961-.149q-2.6955-.4413-5.3476-1.111a44.992,44.992,0,0,1-14.2629-5.9c-4.5355-2.97-8.1-7.1848-8.9614-12.7578a22.6336,22.6336,0,0,1,1.0651-9.7439,32.8379,32.8379,0,0,1,5.661-10.7384c9.54-11.7439,25.9989-13.8274,39.8467-9.7612a42.9981,42.9981,0,0,1,18.5438,10.7436,30.7107,30.7107,0,0,1,5.9417,8.411,43.663,43.663,0,0,1,1.9971,5.6569q1.5013,4.8006,3.1245,9.5621c3.8879,11.3981,8.1442,22.7125,14.1767,33.1728,3.6827,6.386,8.0145,12.387,12.1769,18.4645l1.2066,1.7619c1.3688,1.9986,4.6522.1064,3.27-1.9115-3.0278-4.421-6.11-8.81-9.0749-13.2731-7.0571-10.6222-12.0464-22.1549-16.3227-34.1207-2.1431-5.9966-3.8766-12.133-6.0019-18.13a32.9017,32.9017,0,0,0-5.544-9.7351c-4.8618-5.9969-11.6267-10.2835-18.7879-13.01-14.5021-5.5208-32.6324-4.62-44.3742,6.4182a34.8953,34.8953,0,0,0-10.8055,22.3075,20.9116,20.9116,0,0,0,7.0478,16.9578c7.1142,6.44,17.2221,9.5214,26.5947,10.7029.1894.0238.3788.0484.5687.0678l-1.8936-1.8936,1.7145,14.0032,3.097,25.2952,1.0845,8.8574a10.9334,10.9334,0,0,0,.6652,3.5774c2.9053,5.6166,6.1565,11.08,9.2276,16.6073,3.1732,5.7109,6.1952,11.5417,9.5336,17.158.0585.0984.1114.2.1669.3,1.184,2.1308,4.4561.223,3.27-1.9115Z"/><path class="cls-6" d="M389.9125,334.3781s2.4412-16.7594,17.7508-14.3639,31.1517,10.2214,42.8953,33.5161"/><path d="M391.7384,334.8815a16.4111,16.4111,0,0,1,.4271-1.9123q.2779-1.0172.6453-2.0072a14.2338,14.2338,0,0,1,.9279-2.0845c1.8987-3.6553,4.9552-6.5568,9.3033-7.1129a23.7345,23.7345,0,0,1,8.0441.8135,55.73,55.73,0,0,1,7.8532,2.3361,48.338,48.338,0,0,1,14.8946,9.1186,68.6725,68.6725,0,0,1,15.09,20.4532c1.1027,2.1742,4.3711.26,3.27-1.9114-6.7247-13.26-16.6908-24.8414-30.6325-30.6645a55.225,55.225,0,0,0-8.2478-2.7011,34.3574,34.3574,0,0,0-9.0944-1.3135,15.73,15.73,0,0,0-12.807,7.4466,22.1446,22.1446,0,0,0-3.3255,8.5326,1.9586,1.9586,0,0,0,1.3226,2.3293,1.9059,1.9059,0,0,0,2.3293-1.3225Z"/><path class="cls-6" d="M440.57,362.8125s-5.6291-7.3423-17.7258-21.0018c-23.6157-27.1886-63.3283-4.578-63.3283-4.578-14.0146,2.9088-5.589,19.3828,10.55,15.132s30.8617-7.6071,41.5983,9.3885-12.86,21.6248-28.3441,23.3549c-16.1952,1.81-14.4419,15.5632,3.99,17.2945a58.7526,58.7526,0,0,1,6.5629.9926A47.7011,47.7011,0,0,1,423.25,423.1813l19.6478,34.4848"/><path d="M442.2053,361.8568c-2.0526-2.6751-4.2052-5.2751-6.3657-7.863q-3.9105-4.6842-7.9271-9.2786c-2.8736-3.2962-5.6682-6.6815-9.1107-9.4093-10.89-8.6291-24.8679-10.162-38.1753-7.5857a78.1827,78.1827,0,0,0-14.7394,4.4548c-1.6815.6888-3.3476,1.4171-4.9817,2.2123-.7379.359-1.4681.8489-2.2311,1.1467-.04.0154-.0726.0484-.1124.0628.4884-.1769-.61.0669-.7036.094q-.5927.1707-1.1673.3944a11.42,11.42,0,0,0-3.6941,2.2113,7.6179,7.6179,0,0,0-2.4343,6.2792c.55,5.5579,5.986,9.2606,11.1264,10.0968,3.7747.6141,7.2795-.0742,10.933-1.0182a107.4039,107.4039,0,0,1,10.96-2.3739c6.5545-.98,13.3539-.5735,18.9661,3.27a27.6363,27.6363,0,0,1,7.836,8.7367,15.7,15.7,0,0,1,1.8226,4.2034,8.7732,8.7732,0,0,1,.2039,3.1787,8.3707,8.3707,0,0,1-3.4908,5.2458,25.4,25.4,0,0,1-7.1329,3.5742,88.0121,88.0121,0,0,1-18.4666,3.7256c-5.21.6148-12.38,2.817-12.9434,9.0576-.5223,5.7866,5.6628,9.385,10.38,10.8141,4.2228,1.2793,8.6957,1.2781,12.9946,2.2167a44.661,44.661,0,0,1,11.8094,4.3877,46.1586,46.1586,0,0,1,10.1053,7.4342,37.899,37.899,0,0,1,6.03,7.1552c1.5813,2.5859,3.0083,5.28,4.5087,7.9134L440.3,456.9327l.9623,1.6891c1.2065,2.1174,4.48.2115,3.27-1.9115l-11.1154-19.5091-6.7425-11.8341a47.87,47.87,0,0,0-6.84-9.4082,49.6657,49.6657,0,0,0-20.9507-13.2029c-4.3358-1.3783-8.7276-1.761-13.1938-2.4426a19.56,19.56,0,0,1-9.0263-3.3533,7.4507,7.4507,0,0,1-1.9322-2.1229,2.8135,2.8135,0,0,1-.4574-1.05,2.1752,2.1752,0,0,1-.1374-1.0971c.0006-.1356.07-.6081.0065-.2468a6.39,6.39,0,0,1,.16-.657,3.34,3.34,0,0,1,.5422-1.0495,7.2749,7.2749,0,0,1,2.18-1.8592c2.5838-1.49,5.5657-1.77,8.4656-2.1323,3.2062-.4,6.4052-.8782,9.57-1.5349,5.7906-1.2015,11.9453-2.9106,16.6266-6.69a11.6977,11.6977,0,0,0,3.5413-13.9461,28.9275,28.9275,0,0,0-15.59-15.8093c-6.4635-2.5472-13.6608-1.8839-20.3193-.5668-3.6335.7188-7.1727,1.8151-10.79,2.5867a15.2367,15.2367,0,0,1-8.9445-.6148,9.04,9.04,0,0,1-4.7951-4.2458,4.0829,4.0829,0,0,1,.2419-4.263,6.2467,6.2467,0,0,1,2.5279-1.8655c.9482-.414,2.027-.4993,2.9483-.9484.6237-.304,1.2268-.6552,1.8489-.9641q.9156-.4545,1.8448-.8812.5251-.2419,1.0539-.4759.3039-.1344.6088-.2664c.3661-.1584.3794-.1636.519-.2219q3.0737-1.2831,6.2435-2.3177c11.2643-3.674,23.9129-5.1223,35.1551-.581a34.1667,34.1667,0,0,1,8.6085,5.0569,74.4566,74.4566,0,0,1,8.99,9.3632c4.2032,4.8247,8.3578,9.6977,12.3555,14.695q.5478.6848,1.09,1.3744c.2549.3255.4855.6281.11.1391a1.96,1.96,0,0,0,2.5908.6793,1.9042,1.9042,0,0,0,.6793-2.5907Z"/><path class="cls-7" d="M879.3354,400.6068l-1.3979,6.1217a33.85,33.85,0,0,0,5.6485,27.4779h0q.8392,1.1511,1.7634,2.2178a124.2067,124.2067,0,0,1,30.4573,75.6208l-3.648,29.5514A84.9868,84.9868,0,0,1,811.8554,614.66l-7.0756-1.3525L787.969,484.5019l31.4293-76.1776"/><path d="M877.51,400.1034c-.7342,3.2149-1.5984,6.4322-2.02,9.7064a35.83,35.83,0,0,0,2.7565,18.8747c2.5891,5.9323,7.1212,10.394,10.96,15.4943a126.6048,126.6048,0,0,1,10.2588,15.9949,122.1987,122.1987,0,0,1,12.56,35.4874q.869,4.6352,1.3627,9.328a47.6738,47.6738,0,0,1,.514,7.1533c-.1,1.9737-.4908,3.9755-.7327,5.9353l-2.5394,20.5711a95.019,95.019,0,0,1-5.2325,22.3788,83.5811,83.5811,0,0,1-39.7185,44.1312,82.3329,82.3329,0,0,1-28.9241,8.6753,84.6575,84.6575,0,0,1-15.7964.175,112.5718,112.5718,0,0,1-11.8955-1.8057l-3.7788-.7223,1.39,1.826-1.1481-8.7973-2.8976-22.201-3.8105-29.1961-3.9365-30.1618-3.2282-24.7347-1.6969-13.0014c-.0047-.0361-.0787-.7089-.0925-.7088.4391-.002-.2852.7745.0058.32a3.8754,3.8754,0,0,0,.2477-.6l2.5031-6.0669,9.906-24.01,11.3834-27.5909,6.9718-16.898.3433-.8322a1.9069,1.9069,0,0,0-1.3225-2.3293,1.9392,1.9392,0,0,0-2.3294,1.3226l-4.9645,12.0329-10.893,26.4021-10.8559,26.3124-3.4828,8.4415c-.4162,1.0087-1.3,2.36-1.3,3.4962a20.0014,20.0014,0,0,0,.3253,2.4927l.866,6.6353,2.9243,22.406,3.8369,29.3981,3.9291,30.105,3.2011,24.5264,1.6525,12.662.0752.5756a1.9585,1.9585,0,0,0,1.39,1.8259c8.1757,1.5628,16.2741,3.0425,24.6424,2.9448a86.0977,86.0977,0,0,0,30.6931-6.0358,86.6376,86.6376,0,0,0,54.4457-70.4892q1.0527-8.4135,2.0777-16.8307l1.2011-9.7295c.1078-.8734.2466-1.75.3242-2.6265a31.1852,31.1852,0,0,0-.2892-5.3088,124.53,124.53,0,0,0-9.1252-37.205,129.201,129.201,0,0,0-20.2057-33.1793,43.2375,43.2375,0,0,1-5.4564-7.664,32.1732,32.1732,0,0,1-3.057-8.8345,35.9805,35.9805,0,0,1,.7178-15.0511l.9165-4.0132c.5418-2.3727-3.1087-3.3856-3.6519-1.0068Z"/><path class="cls-7" d="M811.0967,340.41l-23.4286,98.3433s-58.1883-6.1978-56.7138-38.2887c0,0,1.0408-21.986,22.5236-36.0905-2.2283-16.1882,4.0488-32.4175,17.3069-47.7247"/><path d="M809.2708,339.9066l-2.33,9.7808-5.5957,23.4885-6.77,28.4159-5.8517,24.5629-1.9217,8.0668a34.8042,34.8042,0,0,0-.9175,3.8512,1.6167,1.6167,0,0,1-.0422.1772l1.8259-1.39c-.2734-.0292-.5461-.0643-.8189-.0983-.1484-.0185-.2965-.0391-.4448-.058.6115.0779.1737.024-.1128-.0166q-.67-.095-1.339-.1963-4.0749-.6225-8.1054-1.5018a105.3361,105.3361,0,0,1-22.8124-7.4148c-7.3582-3.4931-14.6381-8.2731-18.567-15.464a21.751,21.751,0,0,1-2.63-11.4045c.0222-.52.0794-1.0353.1368-1.5529.0447-.4035-.0191.1253-.0081.05.0192-.1311.0364-.2625.0567-.3934.0462-.2975.0931-.5948.1449-.8915q.19-1.0881.4362-2.1652a48.5962,48.5962,0,0,1,16.38-26.4693,50.9412,50.9412,0,0,1,4.45-3.2742,1.8718,1.8718,0,0,0,.9378-1.6351c-2.32-17.3841,5.6473-33.5045,16.7522-46.3857,1.5841-1.8375-1.0831-4.5279-2.6779-2.678-9.3108,10.8-16.71,23.6607-18.0853,38.0837a48.2888,48.2888,0,0,0,.2238,10.98l.9379-1.635a53.0771,53.0771,0,0,0-21.7772,28.9922c-1.8207,6.1143-2.4682,12.4-.2365,18.5329,3.0652,8.424,10.2225,14.4458,17.8739,18.6667a97.7872,97.7872,0,0,0,24.4228,9.0163q4.68,1.1254,9.4319,1.9216a47.0155,47.0155,0,0,0,5.2059.7526c.075.0039.15.0175.2251.0255a1.896,1.896,0,0,0,1.826-1.39l2.33-9.7808,5.5957-23.4884,6.77-28.416,5.8517-24.5629c.9448-3.966,2.0151-7.9246,2.8392-11.918.0123-.0594.0282-.1182.0422-.1772.5645-2.3694-3.0864-3.38-3.6518-1.0068Z"/><path class="cls-1" d="M736.5659,427.4079l89.6586,20.2356c11.5044,2.5965,16.3687,9.031,17.2393,28.1675,0,0-1.4575,144.8805-9.76,205.8794-12.8318-23.8537-178.4672-40.5529-178.4672-40.5529l65.9882-168.117"/><path d="M736.0625,429.2338l16.5479,3.7348,34.824,7.86,30.87,6.9674c6.1766,1.394,13.4085,2.1859,17.6944,7.0726a19.8915,19.8915,0,0,1,3.8308,7.8657,53.5416,53.5416,0,0,1,1.74,13.0774c.014,1.0574-.0239,2.118-.0371,3.1752q-.1408,11.2173-.3579,22.4334-.356,18.9345-.8775,37.8655-.6373,23.0466-1.5672,46.0841c-.647,15.7039-1.4156,31.4041-2.4268,47.0891-.88,13.6455-1.909,27.2924-3.4561,40.88-.2935,2.5781-.6529,5.5135-.97,7.8479l3.461-.4523c-1.7828-3.2738-5.1814-5.5544-8.3359-7.3533a88.8214,88.8214,0,0,0-15.069-6.48c-14.1385-4.8845-28.8491-8.1495-43.4935-11.0986-16.54-3.3309-33.1966-6.0789-49.8857-8.5461q-21.3185-3.1516-42.7214-5.6972-6.8877-.8251-13.7828-1.5877c-2.1444-.2364-4.3652-.6563-6.5253-.6985-.0956-.0019-.1933-.02-.2886-.0294l1.8259,2.397,1.7617-4.4883,4.7949-12.2159,7.0928-18.07,8.6553-22.051,9.529-24.2767,9.5731-24.3893,8.9262-22.7411,7.5439-19.2195,5.4263-13.8246c.854-2.1756,1.8287-4.34,2.5735-6.5564.0323-.096.0745-.19.1115-.2841a1.9093,1.9093,0,0,0-1.3226-2.3293,1.9354,1.9354,0,0,0-2.3293,1.3225l-1.7617,4.4883-4.7949,12.2158-7.0927,18.07-8.6554,22.051-9.5289,24.2767-9.5731,24.3893L669.0658,600.75l-7.544,19.22-5.4263,13.8246c-.8539,2.1755-1.8287,4.34-2.5735,6.5564-.0322.096-.0744.19-.1115.2841-.4928,1.2557.7353,2.2869,1.826,2.397,5.4817.5529,10.9566,1.1811,16.4286,1.8218,13.33,1.5609,26.4729,3.2611,39.6795,5.153,16.5325,2.3683,33.0333,5.0015,49.4377,8.1429,15.0729,2.8865,30.1645,6.0979,44.83,10.6638,2.9736.9258,5.9284,1.9159,8.8443,3.0106q1.9724.74,3.9171,1.5525c-.3255-.1368.4819.2072.621.2677q.4484.1948.8943.395.8625.3873,1.7153.7958a46.8006,46.8006,0,0,1,5.8226,3.2558c.4.268.7895.5489,1.1788.8317.5115.3715-.1143-.1061.25.1922.1707.14.3427.2774.5107.42a15.941,15.941,0,0,1,1.7355,1.6982c.1215.14.2374.285.3549.4287-.4272-.5225-.0127-.0161.0768.119.188.2838.3716.5667.5346.8659.7139,1.3109,3.2358,1.2067,3.461-.4523,1.7451-12.854,2.86-25.79,3.8058-38.7241,1.1367-15.552,1.9789-31.1252,2.6884-46.702q1.0764-23.632,1.7657-47.2795.6167-20.3769,1.0293-40.7593.2724-13.293.46-26.5877c.1-7.2417.0427-14.5146-2.1182-21.528a22.6812,22.6812,0,0,0-4.557-8.5056,19.1275,19.1275,0,0,0-7.3126-4.9039,47.3181,47.3181,0,0,0-7.2272-1.9875L797.8066,439.29l-36.1608-8.1614L738.23,425.844l-1.1611-.2621c-2.3735-.5357-3.387,3.1147-1.0068,3.6519Z"/><polyline class="cls-3" points="666.255 613.067 634.626 691.104 832.983 691.104 833.109 681.781 805.217 613.025"/><path d="M664.4288,612.5631,653.69,639.0589l-16.9918,41.9236L632.8,690.6009a1.9062,1.9062,0,0,0,1.8259,2.397H824.9319c2.5687,0,5.1476.067,7.7157,0,.1116-.0029.2237,0,.3354,0a1.9237,1.9237,0,0,0,1.8936-1.8936c.04-2.9871.1745-5.9878.1209-8.9744a6.96,6.96,0,0,0-.7584-2.5671l-5.824-14.3567-17.119-42.2-4.253-10.4841a1.9524,1.9524,0,0,0-2.3293-1.3225,1.9069,1.9069,0,0,0-1.3226,2.3293l11.4254,28.1648,15.2982,37.7118.8519,2.1a4.3327,4.3327,0,0,0,.2352.58c.2822.4749-.3472-.2625.013-.2956-.16.0147-.1137,8.44-.1255,9.315l1.8936-1.8936H642.6768c-2.5467,0-5.174-.187-7.7157,0-.1106.0082-.2244,0-.3355,0l1.826,2.397L647.19,665.1119l16.9919-41.9236,3.8984-9.6184a1.9078,1.9078,0,0,0-1.3226-2.3293,1.9377,1.9377,0,0,0-2.3293,1.3225Z"/><line class="cls-1" x1="556.0596" y1="500.3697" x2="580.0365" y2="536.3273"/><path d="M554.4246,501.3254l8.1093,12.1614,12.868,19.2979,3,4.4983c1.3457,2.0182,4.6274.1241,3.27-1.9114L573.5622,523.21l-12.868-19.2979-3-4.4984c-1.3457-2.0181-4.6274-.124-3.27,1.9115Z"/><path class="cls-4" d="M721.2247,473.0205l-7.0857,18.052a32.7547,32.7547,0,1,0-23.9151,60.9281l-34.9874,89.1369s165.6354,16.6993,178.4671,40.553c8.3028-60.9991,9.76-205.88,9.76-205.88-.87-19.1365-5.7349-25.5709-17.2392-28.1674L736.5658,427.408"/><path d="M719.3988,472.5171l-7.0857,18.052,2.7816-1.1317a35.2571,35.2571,0,0,0-22.6518-1.9952,34.65,34.65,0,0,0-2.7224,66.3844l-1.3226-2.3293-3.4914,8.8948-8.3358,21.2371L666.4435,607.43l-8.717,22.2081-2.878,7.3322c-.4536,1.1556-1.0077,2.315-1.3746,3.502-.0169.0548-.0424.1081-.0634.1615-.4928,1.2557.7353,2.287,1.826,2.397,5.4817.5529,10.9566,1.1811,16.4286,1.8219,13.33,1.5608,26.4729,3.261,39.6795,5.1529,16.5325,2.3683,33.0333,5.0016,49.4377,8.143,15.0729,2.8864,30.1644,6.0979,44.83,10.6638,2.9736.9258,5.9283,1.9159,8.8443,3.0106q1.9724.74,3.917,1.5525c-.3255-.1368.482.2071.6211.2676q.4482.195.8942.3951.8625.3873,1.7153.7958a46.7934,46.7934,0,0,1,5.8226,3.2558c.4.268.79.5489,1.1789.8317.5115.3715-.1143-.1061.25.1922.1707.14.3427.2774.5108.42a15.949,15.949,0,0,1,1.7354,1.6982c.1215.14.2374.285.3549.4287-.4272-.5225-.0127-.0161.0768.119.1881.2838.3717.5667.5346.866.7139,1.3109,3.2358,1.2066,3.461-.4524,1.7452-12.8541,2.86-25.79,3.8059-38.7242,1.1368-15.552,1.979-31.1252,2.6884-46.702q1.0764-23.632,1.7657-47.28.6167-20.3768,1.0293-40.7592.2722-13.293.46-26.5877c.1-7.2417.0428-14.5146-2.1181-21.5279a22.68,22.68,0,0,0-4.5571-8.5056,19.1271,19.1271,0,0,0-7.3125-4.9039,47.32,47.32,0,0,0-7.2271-1.9874L797.8066,439.29l-36.1609-8.1613L738.23,425.8441l-1.1611-.2621c-2.3735-.5357-3.387,3.1147-1.0068,3.6519l16.548,3.7348,34.824,7.86,30.87,6.9673c6.1765,1.394,13.4083,2.1859,17.6943,7.0726a19.8924,19.8924,0,0,1,3.8308,7.8656,53.5415,53.5415,0,0,1,1.74,13.0774c.014,1.0573-.0239,2.118-.0371,3.1752q-.1408,11.2172-.3578,22.4333-.356,18.9347-.8775,37.8655-.6373,23.0467-1.5672,46.0842c-.6469,15.7039-1.4155,31.4041-2.4267,47.0891-.88,13.6456-1.9091,27.2925-3.4562,40.8806-.2936,2.5781-.653,5.5135-.97,7.8479l3.461-.4523c-1.7829-3.2738-5.1815-5.5544-8.336-7.3533a88.817,88.817,0,0,0-15.0689-6.48c-14.1385-4.8845-28.8491-8.15-43.4935-11.0987-16.54-3.3309-33.1966-6.0788-49.8857-8.5461q-21.3185-3.1516-42.7214-5.6972-6.8877-.825-13.7828-1.5877c-2.1444-.2364-4.3652-.6562-6.5253-.6985-.0956-.0018-.1933-.02-.2886-.0294l1.8259,2.397,3.4914-8.8949,8.3358-21.2371,10.1273-25.801L687.7338,563.5l2.878-7.3322c.4536-1.1556,1.0077-2.3151,1.3746-3.5021.0169-.0547.0424-.108.0634-.1615a1.9235,1.9235,0,0,0-1.3226-2.3293,30.869,30.869,0,1,1,22.4561-57.4672,1.9392,1.9392,0,0,0,2.7817-1.1316l7.0856-18.052a1.9093,1.9093,0,0,0-1.3225-2.3293,1.9353,1.9353,0,0,0-2.3293,1.3225Z"/><path class="cls-4" d="M826.2245,447.4553l35.5346,6.9706a50.228,50.228,0,0,1,26.8994,16.1l61.379,62.2337a86.663,86.663,0,0,1,12.6107,105.4425l-31.5954,52.659-108.971.6486,73.2959-89.5119L822.0818,546.864"/><path d="M825.7211,449.2813l26.4665,5.1917c3.1494.6178,6.3318,1.1474,9.46,1.8689a48.5205,48.5205,0,0,1,24.6015,14.3271c3.9183,4.24,8.0586,8.2814,12.1127,12.392l24.1054,24.441,21.3386,21.6358q2.3407,2.3733,4.6815,4.7467a84.7265,84.7265,0,0,1,24.3,67.2,84.0969,84.0969,0,0,1-6.4331,25.7306,101.5487,101.5487,0,0,1-6.45,12.2806L944.83,664.2184l-14.5912,24.3187-.8212,1.3686,1.6351-.9378-10.8887.0648-26.0114.1548-31.4449.1872-27.1891.1618-8.9976.0536a40.532,40.532,0,0,0-4.2469.0253,1.8421,1.8421,0,0,1-.1924.0011l1.3389,3.2326,7.3215-8.9414,17.4956-21.3662,21.1514-25.8309,18.2892-22.3355c2.9693-3.6262,5.969-7.23,8.9089-10.88.0427-.053.0863-.1054.1294-.1581a1.938,1.938,0,0,0-.3832-2.974l-7.2813-5.477-17.4889-13.1554L850.3983,565.81,832.089,552.0377l-6.0638-4.5614c-.942-.7085-1.8625-1.5159-2.8577-2.1495-.0452-.0288-.087-.0655-.13-.0978a1.9074,1.9074,0,0,0-2.5908.6793,1.9373,1.9373,0,0,0,.6793,2.5908l7.2813,5.4771,17.4889,13.1553,21.165,15.9206,18.3093,13.7724,6.0638,4.5614a35.5136,35.5136,0,0,0,2.8577,2.1495c.0456.0275.0873.0657.13.0978l-.3832-2.974-7.3215,8.9413-17.4956,21.3663L848.07,656.7977l-18.2892,22.3355c-2.9693,3.6262-5.969,7.23-8.9089,10.88-.0427.053-.0863.1053-.1294.158a1.92,1.92,0,0,0,1.339,3.2326l7.66-.0456,19.1588-.1141,25.2931-.1505,25.678-.1529,20.76-.1235c3.3777-.02,6.7741.0616,10.15-.06,1.35-.0489,1.8716-.8827,2.4793-1.8956l3.4583-5.7638,12.2794-20.4657L960.8981,644.8a135.3331,135.3331,0,0,0,8.7256-16.0739,88.5375,88.5375,0,0,0-2.3777-75.3142,91.2837,91.2837,0,0,0-16.5666-22.6979l-9.9324-10.0707-16.9956-17.2323-17.9187-18.1681L892.86,472.0894c-.8978-.91-1.8114-1.8077-2.6947-2.7322a62.6613,62.6613,0,0,0-11.363-9.8318,50.2287,50.2287,0,0,0-16.68-6.9529c-2.2109-.46-4.4337-.87-6.65-1.3044l-23.7322-4.6554-5.0127-.9833c-2.3807-.467-3.4,3.1824-1.0068,3.6519Z"/><line class="cls-1" x1="891.3442" y1="599.4451" x2="922.6205" y2="622.1059"/><path d="M890.3885,601.08l27.4066,19.857,3.87,2.8038a1.91,1.91,0,0,0,2.5908-.6793,1.9338,1.9338,0,0,0-.6794-2.5908L896.17,600.6138,892.3,597.81a1.91,1.91,0,0,0-2.5908.6793,1.9336,1.9336,0,0,0,.6793,2.5908Z"/><line class="cls-3" x1="728.0294" y1="655.1864" x2="716.5542" y2="691.1043"/><path d="M726.2034,654.683l-10.05,31.4578-1.4249,4.46c-.7435,2.3271,2.9118,3.3233,3.6519,1.0068L728.43,660.15l1.4249-4.46c.7435-2.327-2.9118-3.3233-3.6519-1.0068Z"/><path d="M713.699,648.2083l-4.7947,15.5359c-.9839,3.1883-1.8636,6.3226-1.5668,9.7227.3289,3.7675,1.892,6.9493,3.4954,10.2795l3.886,8.0708c1.0569,2.1952,4.3236.2766,3.27-1.9115l-3.2156-6.6785c-1.2956-2.6908-2.85-5.3849-3.4408-8.3389-.6719-3.3578.0919-6.47,1.0705-9.6412l2.8107-9.1072,2.1371-6.9248c.72-2.3341-2.9342-3.3322-3.6519-1.0068Z"/><path class="cls-6" d="M765.5121,433.6684a33.7163,33.7163,0,0,0,65.87,14.4324Z"/><path d="M763.6862,433.165a35.6078,35.6078,0,0,0,69.5218,15.4392,1.921,1.921,0,0,0-1.3225-2.3293l-22.2534-4.8758-35.4718-7.772-8.1448-1.7846c-2.3755-.52-3.39,3.13-1.0068,3.6519l22.2534,4.8758,35.4718,7.772,8.1448,1.7846-1.3226-2.3294a31.825,31.825,0,1,1-62.218-13.4256C767.8458,431.7949,764.1959,430.7791,763.6862,433.165Z"/><polyline class="cls-6" points="776.993 441.572 787.886 410.767 832.983 407.699 820.424 449.361"/><path d="M778.8188,442.0758l9.5344-26.9622,1.359-3.843-1.826,1.39,15.2086-1.0348,24.2732-1.6515,5.615-.382-1.8259-2.397-4.2285,14.0268-6.7815,22.4957-1.5494,5.1394c-.7049,2.3386,2.9492,3.338,3.6519,1.0068l4.2285-14.0268,6.7815-22.4957,1.5493-5.1394a1.9072,1.9072,0,0,0-1.8259-2.397L817.7745,406.84l-24.2733,1.6515-5.615.382a1.98,1.98,0,0,0-1.8259,1.39l-9.5344,26.9622-1.359,3.843c-.8141,2.3022,2.8436,3.2926,3.6519,1.0068Z"/><path class="cls-6" d="M806.6738,418.8734a71.2492,71.2492,0,0,1-26.9025-1.8974c-39.6914-17.87.99-84.76.99-84.76l78.2212,21.128s4.935,19.6611,1.8409,27.0581c-5.3283,12.7387-21.0278,18.19-29.7914,34.0289"/><path d="M806.6738,416.98a67.548,67.548,0,0,1-21.6782-.7879,21.2662,21.2662,0,0,1-5.2645-1.3178,32.8523,32.8523,0,0,1-2.8921-1.5916,26.1059,26.1059,0,0,1-4.6972-3.6924c-5.4767-5.45-7.6461-13.0139-7.8469-20.5775-.2217-8.3542,1.584-16.6248,4.0783-24.5692a147.3926,147.3926,0,0,1,8.49-20.9556q1.71-3.4836,3.576-6.8877c.595-1.0821,1.363-2.15,1.8665-3.2772a1.4451,1.4451,0,0,1,.0908-.151l-2.1384.87,26.4283,7.1384,42.1241,11.378,9.6688,2.6116-1.3226-1.3226c1.733,6.9233,3.1534,14.3886,2.74,21.5438-.2522,4.3649-2.4843,8.0612-5.3559,11.33-3.53,4.0191-7.7672,7.3458-11.7478,10.8953-5.2031,4.64-9.9733,9.7392-13.3957,15.8585-1.191,2.1294,2.079,4.0411,3.27,1.9114a57.269,57.269,0,0,1,11.8992-14.2789c4.099-3.7182,8.5173-7.1332,12.24-11.2465,3.2886-3.6336,6.12-7.855,6.7273-12.8074.592-4.83-.07-9.818-.8158-14.5939-.5039-3.2259-1.1164-6.4507-1.91-9.6194a1.8948,1.8948,0,0,0-1.3225-1.3225L833.0572,344.38l-42.1241-11.3779-9.6688-2.6116a1.9372,1.9372,0,0,0-2.1384.87c-1.732,2.85-3.2827,5.8221-4.78,8.8a160.4494,160.4494,0,0,0-8.9772,21.3743c-2.7567,8.2874-4.8,17.0123-4.8765,25.7844-.0725,8.3351,1.9027,16.75,7.3321,23.2587a30.4771,30.4771,0,0,0,10.4892,7.9024,24.8919,24.8919,0,0,0,5.9075,1.5075c1.9762.3747,3.9659.6756,5.963.9144a68.0389,68.0389,0,0,0,11.31.4387c1.7331-.0826,3.46-.2446,5.18-.4739a1.9567,1.9567,0,0,0,1.8936-1.8936c0-.918-.8726-2.03-1.8936-1.8936Z"/><path d="M829.5569,385.662c.2382-.36.49-.7108.7438-1.06q.1932-.2655.39-.5282c.0639-.0853.1285-.17.1928-.2551.0383-.0507.0781-.1.1157-.1515.1336-.1814-.2827.36-.0841.1093.364-.46.73-.9179,1.1094-1.3654a30.2794,30.2794,0,0,1,2.7335-2.8647q.345-.3129.7041-.61c.0485-.04.4837-.3829.2372-.1939-.2314.1774.2108-.1528.2885-.2077a14.3536,14.3536,0,0,1,1.5452-.9135c.2292-.1227-.4077.14.0271-.01.1577-.0544.314-.11.4751-.1542.1239-.0338.2527-.0519.3757-.0869.2762-.0786-.1944.0393-.2246.0251a1.0107,1.0107,0,0,0,.23-.02c.1337-.0014.2753.0093.4081.001.27-.017-.2037-.0182-.2361-.039.0523.0336.1595.0248.22.0419a1.9132,1.9132,0,0,0,.3874.1166c-.0334.0161-.4385-.2319-.2-.0815.0786.05.1663.088.2466.1354a1.8939,1.8939,0,0,0,1.9115-3.27c-2.85-1.68-5.9545.0288-8.2263,1.8624a33.2321,33.2321,0,0,0-5.5587,6.0906c-.3716.4973-.7386,1-1.0815,1.5176a1.8939,1.8939,0,1,0,3.27,1.9114Z"/><path d="M800.2231,360.3961a11.6286,11.6286,0,0,1,1.38-.2973c.139-.0252.4961-.0575-.094.0088.1121-.0126.2239-.0278.3362-.04q.4361-.0471.8742-.07a16.2616,16.2616,0,0,1,1.9107.01q.2429.0156.4854.0386c.059.0056.6372.0765.4177.0452-.2163-.0308.3773.0653.4384.0766q.2663.0491.5307.1076a14.42,14.42,0,0,1,2.3926.7439c-.201-.0832.3319.1549.3986.1871q.3369.1624.6653.3414.5856.32,1.1416.6914a14.4866,14.4866,0,0,1,2.4167,2.0874c1.687,1.7658,4.3624-.9149,2.678-2.678a17.45,17.45,0,0,0-11.2431-5.4044,15.4526,15.4526,0,0,0-5.7356.5c-2.32.72-1.33,4.3774,1.0068,3.6518Z"/><path d="M773.4856,351.93c-.7645.1122-.0552.0161.275-.003a17.16,17.16,0,0,1,1.806-.0032,18.4074,18.4074,0,0,1,5.9243,1.2527,7.559,7.559,0,0,1,4.6816,7.0565c-.0341,2.8775-1.9427,5.5863-3.8137,7.6346a25.7566,25.7566,0,0,1-4.4688,3.8661,11.5247,11.5247,0,0,0-2.6481,1.8291,5.0966,5.0966,0,0,0-.8615,2.13c-.7752,4.1661,3.5925,5.729,6.88,6.287,2.3839.4046,3.4084-3.2443,1.0068-3.6519-1.2642-.2146-3.4329-.4469-4.21-1.54.0259.0365.0029-.2516-.0084-.1935a2.4283,2.4283,0,0,1,.1942-.6842c-.2688.4492.0421.05.2436-.0474a8.3913,8.3913,0,0,0,.95-.6116,27.828,27.828,0,0,0,8.2074-8.094,12.4839,12.4839,0,0,0,2.01-9.6326,11.3,11.3,0,0,0-6.7-7.8135,20.515,20.515,0,0,0-10.4748-1.4322,1.9054,1.9054,0,0,0-1.3226,2.3294,1.9435,1.9435,0,0,0,2.3294,1.3225Z"/><circle cx="776.5537" cy="361.7707" r="2.8352"/><path d="M778.3624,362.3134c-.0227.0741-.0515.1465-.0741.2205.0529-.1735.0293-.0614.0051-.0156a3.8361,3.8361,0,0,1-.2046.3578c-.0307.0457-.1387.1731-.0059.0164-.04.0468-.0791.0934-.1208.1383a3.1253,3.1253,0,0,1-.2933.2739c.1774-.1476-.1052.0631-.1669.099s-.1284.0673-.1922.1022c-.2027.1107.1289-.0377-.0074.0047-.1163.0362-.229.0783-.348.1066-.0595.0141-.12.024-.1793.0367.2345-.05.02-.0036-.0408,0-.125.0079-.248-.0009-.3726-.001-.244,0,.1916.049-.0493-.0032-.0628-.0136-.1259-.0249-.1884-.04s-.1255-.0332-.1874-.0531c-.0021-.0006-.2418-.0851-.1037-.0328.1353.0512-.0894-.0443-.0945-.0469q-.1-.0512-.1962-.11c-.0635-.0392-.123-.0833-.185-.1245.1584.1052.0535.0439.0184.0106-.0978-.0928-.1963-.1816-.2853-.2834-.0372-.0425-.1283-.178-.0109-.0072-.0343-.05-.0694-.099-.1018-.15a3.35,3.35,0,0,1-.19-.3508c.103.2148.0039,0-.0107-.0443-.0193-.0576-.0365-.1158-.0521-.1745s-.0259-.1192-.0412-.178c-.0592-.2268.0047.1431-.004-.0026-.0075-.124-.0174-.2461-.0138-.3706.0018-.0627.008-.1249.0114-.1875-.0126.2331,0,.0086.0115-.05.029-.1407.08-.2725.117-.41.0383-.14-.1027.19.0082-.0206.0293-.0556.0562-.1123.0871-.1671s.0626-.1077.0967-.16c.003-.0045.1454-.2008.0556-.0846s.063-.07.067-.0741q.0736-.0813.1536-.1568c.0531-.05.1085-.0971.1646-.1439-.16.1337-.0327.0281.0132-.0026a2.8549,2.8549,0,0,1,.3134-.1824c.0515-.0257.2064-.0816.0058-.008.057-.0209.1136-.0423.1714-.0608s.1162-.0354.1752-.05c.0255-.0065.3071-.0677.1617-.0387-.1525.0305.08-.0059.0939-.0068q.0928-.0059.1856-.0054c.0624,0,.1248.0062.187.0064.2386.0008-.1333-.0326.0116-.003.1269.026.2521.05.3762.0882.0619.019.1222.0414.1833.0628-.2121-.0743.0394.0216.0855.0459a3.1964,3.1964,0,0,1,.3479.2173c-.1875-.1321.0054.01.0366.038q.0813.0738.1568.1536c.05.053.0972.1086.1439.1646-.1015-.1218-.0279-.0345.0229.0434a3.3446,3.3446,0,0,1,.2091.3815c-.0926-.1925-.02-.0445-.0013.01.0281.08.0528.1617.0734.2442.0118.0471.0195.0958.0319.1427q.0273.1611,0-.0341.0087.0734.0133.1471a3.8215,3.8215,0,0,1-.0071.4477c.0018-.0338.039-.2025.0029-.0259-.0207.1015-.0429.2014-.0706.3013a.947.947,0,0,0,1.826.5033,3.84,3.84,0,0,0-1.4527-4.13,3.78,3.78,0,0,0-4.27-.0673,3.7805,3.7805,0,1,0,5.7224,4.1975.9558.9558,0,0,0-.6613-1.1646A.9668.9668,0,0,0,778.3624,362.3134Z"/><circle cx="802.1877" cy="369.2523" r="2.8352"/><path d="M803.9964,369.795c-.0227.0741-.0515.1465-.0741.2206.0529-.1735.0292-.0615.0051-.0157a3.8587,3.8587,0,0,1-.2046.3578c-.0307.0457-.1388.1731-.006.0165-.04.0467-.079.0933-.1208.1382a3.1242,3.1242,0,0,1-.2932.2739c.1774-.1476-.1052.0631-.1669.099s-.1284.0673-.1922.1022c-.2027.1107.1288-.0377-.0074.0047-.1163.0362-.229.0783-.348.1066-.0595.0141-.12.024-.1793.0367.2345-.05.02-.0036-.0409,0-.1249.0079-.2479-.0008-.3725-.001-.244,0,.1915.049-.0493-.0032-.0629-.0136-.1259-.0249-.1884-.04s-.1256-.0332-.1875-.0531c-.002-.0006-.2418-.0851-.1036-.0328.1353.0512-.0894-.0443-.0945-.0468q-.1-.0513-.1962-.11c-.0635-.0392-.123-.0833-.185-.1245.1584.1052.0535.0439.0184.0106-.0978-.0928-.1963-.1815-.2853-.2833-.0372-.0426-.1283-.1781-.0109-.0073-.0343-.05-.0694-.099-.1019-.15a3.3674,3.3674,0,0,1-.19-.3508c.103.2148.0039,0-.0108-.0443-.0192-.0576-.0364-.1158-.052-.1745s-.0259-.1192-.0412-.178c-.0592-.2268.0047.1432-.0041-.0026-.0074-.124-.0173-.2461-.0137-.3706.0018-.0627.008-.1249.0114-.1875-.0126.2331-.0005.0086.0115-.05.0289-.1407.0795-.2725.117-.41.0383-.1405-.1028.19.0082-.0206.0293-.0556.0562-.1123.0871-.1671s.0626-.1077.0967-.16c.003-.0045.1454-.2008.0556-.0846s.063-.07.067-.0741q.0736-.0813.1536-.1568c.053-.05.1085-.0971.1645-.1439-.16.1337-.0326.0281.0133-.0026a2.871,2.871,0,0,1,.3134-.1824c.0515-.0257.2064-.0816.0058-.008.057-.0209.1135-.0423.1714-.0608s.1162-.0354.1751-.05c.0256-.0065.3072-.0677.1618-.0387-.1525.03.08-.0059.0939-.0068q.0927-.0059.1856-.0054c.0624,0,.1247.0062.187.0064.2386.0008-.1334-.0326.0116-.003.1268.026.2521.05.3762.0882.0619.019.1222.0414.1833.0628-.2122-.0743.0394.0216.0854.0459a3.1977,3.1977,0,0,1,.348.2173c-.1875-.1321.0053.01.0366.038q.0813.0738.1568.1536c.05.0531.0972.1086.1439.1646-.1015-.1218-.0279-.0345.0229.0434a3.3446,3.3446,0,0,1,.2091.3815c-.0926-.1925-.02-.0445-.0013.01.028.08.0528.1617.0734.2442.0117.0471.0195.0958.0319.1427q.0273.1611,0-.0341.0085.0734.0133.1471a3.8215,3.8215,0,0,1-.0071.4477c.0018-.0338.0389-.2025.0029-.0259-.0207.1015-.0429.2014-.0706.3013a.9471.9471,0,0,0,1.826.5034,3.84,3.84,0,0,0-1.4528-4.13,3.78,3.78,0,0,0-4.27-.0673,3.7805,3.7805,0,1,0,5.7224,4.1976.9559.9559,0,0,0-.6613-1.1647A.9668.9668,0,0,0,803.9964,369.795Z"/><path d="M792.0566,387.1134a5.82,5.82,0,0,1-.6045.566c-.1263.1078-.4111.2742.1446-.1069-.0549.0376-.1072.0806-.1611.12q-.2091.1512-.4274.2889c-.3287.2074-.6733.37-1.0193.5452-.109.0551.4758-.187.0581-.0283q-.1377.0522-.2776.0993-.341.1145-.692.1957-.1567.0361-.3151.0654c-.5266.0973.3042-.0148-.0458.0122-.2529.0195-.5038.04-.7577.04-.2695,0-.5369-.0177-.805-.0422q-.3141-.037.1164.0164-.1322-.0208-.2633-.0461-.2025-.0388-.4028-.0881a8.8348,8.8348,0,0,1-.9753-.3c-.0606-.0225-.5138-.2318-.1265-.045-.1981-.0956-.3978-.1863-.5939-.2864a1.8939,1.8939,0,1,0-1.9114,3.27,9.9473,9.9473,0,0,0,8.279.6717,9.1769,9.1769,0,0,0,3.4585-2.27,1.8936,1.8936,0,0,0-2.6779-2.6779Z"/><path class="cls-7" d="M877.3135,409.3158c16.1214-65.6383-.0279-75.1651-27.1031-95.5289-39.0984-29.4066-64.4643-15.6931-79.1757,2.6658l-3.1556,4.0818,4.6374,13.0992a14.9548,14.9548,0,0,0,8.1261,5.2751c13.7655,3.5,29.5171,7.0653,37.75,8.562a10.9984,10.9984,0,0,1,8.6144,13.8192l-5.7229,20.2224c3.1326-9.1737,14.6413-19.1119,21.2158-16.8669s10.871,6.1852,7.6569,15.5978c-1.6529,4.84-7.4117,11.3987-12.06,14.8346a21.2015,21.2015,0,0,0-6.3814,7.71v0a21.6043,21.6043,0,0,0,10.0091,29.0079l3.3543,1.6152"/><path d="M771.1775,334.9727a17.5537,17.5537,0,0,0,9.6018,5.9245q6.4149,1.6246,12.8561,3.1435c7.3756,1.7431,14.7712,3.4353,22.2134,4.8726,3.0486.5888,5.8293,1.232,7.82,3.8422a9.2384,9.2384,0,0,1,1.5084,8.046c-.8567,3.1765-1.7924,6.3339-2.6883,9.5l-3.03,10.708c-.6708,2.37,2.8528,3.2831,3.6519,1.0068a26.5786,26.5786,0,0,1,6.4911-9.7614c2.5089-2.4994,5.58-4.9149,9.0762-5.7985,2.7245-.6885,5.6488.5773,7.8821,2.2961,2.4119,1.8563,3.1159,4.6444,2.6573,7.5757-.66,4.2164-2.9595,7.7818-5.6874,10.9729a45.7838,45.7838,0,0,1-4.6085,4.6857,62.8855,62.8855,0,0,0-5.0168,4.3133,23.7347,23.7347,0,0,0-5.2585,22.96,23.4743,23.4743,0,0,0,7.26,10.9937,38.1445,38.1445,0,0,0,8.2181,4.7927c2.1859,1.0526,4.109-2.2119,1.9114-3.27a36.7532,36.7532,0,0,1-7.19-3.9862,19.8093,19.8093,0,0,1-6.5471-9.5369,20.0337,20.0337,0,0,1,7.286-21.9423,44.4808,44.4808,0,0,0,9.6275-10.2376c2.389-3.5106,4.1382-7.8269,3.9143-12.1462a10.97,10.97,0,0,0-4.866-8.5976c-2.74-1.9308-6.1937-3.2683-9.56-2.7341-4.2958.6817-8.1991,3.5548-11.2685,6.4857a30.9864,30.9864,0,0,0-7.9725,11.9279l3.6519,1.0068c1.893-6.6891,3.8217-13.3691,5.6792-20.0681a13.0463,13.0463,0,0,0-7.5775-15.6155c-2.8828-1.17-6.2768-1.4368-9.3138-2.0725q-5.8537-1.2251-11.681-2.5728-7.3959-1.6954-14.7611-3.5218a36.2945,36.2945,0,0,1-6.6289-1.8886,13.9018,13.9018,0,0,1-4.9718-3.9818,1.9079,1.9079,0,0,0-2.678,0,1.9363,1.9363,0,0,0,0,2.678Z"/><path d="M879.14,409.8192a244.6312,244.6312,0,0,0,5.6329-29.7523,97.6115,97.6115,0,0,0,.4563-21.5676,52.5574,52.5574,0,0,0-4.1417-16.0655,46.4016,46.4016,0,0,0-7.9991-12.0177,87.9168,87.9168,0,0,0-10.9974-9.971c-5.3377-4.2093-10.7748-8.4157-16.4167-12.205-13.9564-9.3734-31.117-16.3321-48.0954-12.1783-11.9941,2.9343-21.6709,11.0167-29.0821,20.6033l-1.9562,2.5305a1.96,1.96,0,0,0,0,2.6779,1.9041,1.9041,0,0,0,2.678,0,88.5343,88.5343,0,0,1,10.031-11.47,45.7209,45.7209,0,0,1,14.8675-9.3227c14.7949-5.4565,30.4326-.9652,43.5949,6.6455,6.7732,3.9165,12.9872,8.7124,19.1952,13.4541a115.85,115.85,0,0,1,11.1149,9.4168A44.0961,44.0961,0,0,1,880.9521,355a79.46,79.46,0,0,1,.5846,19.3473,188.3994,188.3994,0,0,1-4.1808,26.4579q-.8843,4.0149-1.8683,8.0068c-.58,2.3668,3.0714,3.3766,3.6519,1.0068Z"/></svg>