<svg id="Layer_1" data-name="Layer 1" xmlns="http://www.w3.org/2000/svg" xmlns:xlink="http://www.w3.org/1999/xlink" width="1000" height="1000" viewBox="0 0 1000 1000"><defs><style>.cls-1{fill:none;}.cls-2{fill:#fc7f3a;}.cls-3{fill:#fff;}.cls-4{clip-path:url(#clip-path);}.cls-5{fill:#389b48;}.cls-6{fill:#ffc41f;}.cls-7{fill:#a8542a;}.cls-8{fill:#ea2f2f;}.cls-9{clip-path:url(#clip-path-2);}.cls-10{clip-path:url(#clip-path-3);}.cls-11{fill:#458dc9;}</style><clipPath id="clip-path"><path class="cls-1" d="M729.2,294.0539c-19.0949,0-32.9995,8.68-42.9421,21.127L617.62,401.1094l-74.4717,52.13c6.029,5.1035,13.4287,13.4308,20.526,23.4984,4.5381,6.4372,13.2117,34.12,16.1089,39.7706l77.8852-45.7811a95.3814,95.3814,0,0,0,22.0223-17.7132l60.0118-93.5608,31.0291-65.4Z"/></clipPath><clipPath id="clip-path-2"><path class="cls-1" d="M735.623,295.486h54.2345c8.8311,0,13.4449,3.6518,17.2355,16.6123,0,0,27.9112,117.9467,31.9027,160.97C749.7273,456.36,682.418,474.5,682.418,474.5l34.9706-149.5241"/></clipPath><clipPath id="clip-path-3"><path class="cls-1" d="M795.0776,375.207l105.0216,21.0044-15.4391,71.68c7.9242-.8739,19.699-.2678,32.63,1.98,7.1456,1.242,33.8912,15.2723,39.6167,17.0408l17.1854-101.68C980.2976,354.68,953.54,335.2992,929.171,325.42l-16.2076-5.2982L820.406,296.5932a128.8437,128.8437,0,0,0-31.7426-3.9714H747.8178"/></clipPath></defs><path class="cls-2" d="M285.8438,633.3468s113.3971-2.5655,112.2147-95.9514c0,0,21.4705,13.3465,12.7662,44.6818,10.4451,23.7916-5.2225,39.4592-25.5324,45.2621,0,16.8282-23.2113,25.5324-35.9776,17.9887-8.1239,7.5437-44.1015,10.4451-56.2874,2.9015"/><path d="M285.8438,634.8862a115.1776,115.1776,0,0,0,11.49-.9772,177.5325,177.5325,0,0,0,27.5093-5.59,134.3723,134.3723,0,0,0,32.9359-14.1757,89.5631,89.5631,0,0,0,28.38-26.8864c8.4473-12.89,12.62-28.0271,13.3325-43.3441.101-2.171.1319-4.3441.1073-6.5172l-2.3162,1.3292c.1572.0981.3092.2048.4608.3112.1814.1274.3585.2607.5367.3926.309.2285-.2183-.176.0577.0439.139.1107.2782.2209.4158.3333a33.0855,33.0855,0,0,1,4.0312,3.94,35.3885,35.3885,0,0,1,7.7828,15.9382,42.202,42.202,0,0,1,.5618,12.7286,52.8284,52.8284,0,0,1-1.3079,7.4216,17.7536,17.7536,0,0,0-.48,1.8341,3.5855,3.5855,0,0,0,.48,1.9512q.7437,1.81,1.3191,3.6856c2.5028,8.1787,1.7925,16.7713-3.2111,23.8554-5.3788,7.6152-14.2912,12.1678-23.0455,14.6947a1.5742,1.5742,0,0,0-1.13,1.4844c-.0991,12.4268-13.5742,19.6679-24.7341,19.1609a19.4792,19.4792,0,0,1-8.9272-2.5013,1.58,1.58,0,0,0-1.8654.2407c-1.7734,1.6171-4.6117,2.7264-7.0778,3.512A67.745,67.745,0,0,1,329.8112,650.2a87.2228,87.2228,0,0,1-25.46.0642,28.986,28.986,0,0,1-10.547-3.3634c-1.6961-1.0343-3.2447,1.6272-1.5538,2.6583a29.2366,29.2366,0,0,0,9.8024,3.415,74.71,74.71,0,0,0,12.9656,1.1987,88.5132,88.5132,0,0,0,25.9994-3.161c3.2992-.9749,6.8009-2.238,9.3854-4.5948l-1.8654.2407c11.2434,6.53,27.9851,1.9378,35.0807-8.7139a19.3854,19.3854,0,0,0,3.2131-10.604l-1.13,1.4843c7.7879-2.248,15.405-5.9494,21.1951-11.7272a29.0131,29.0131,0,0,0,8.7981-20.6306A38.5959,38.5959,0,0,0,412.1539,581.3l.1552,1.1861c2.6463-9.6489,3.1415-20.1083-.5286-29.5667A37.5033,37.5033,0,0,0,401.7,538.2815a22.594,22.594,0,0,0-2.8646-2.2152,1.5518,1.5518,0,0,0-2.3162,1.3291c.174,15.4215-2.8868,30.8825-10.5983,44.3583a83.25,83.25,0,0,1-26.3833,27.6142,125.5925,125.5925,0,0,1-32.1863,14.98,173.0755,173.0755,0,0,1-28.0162,6.2212c-.6111.0844-1.4483.1944-2.4255.313q-1.2271.1491-2.4563.28-2.0227.2152-4.0508.3775c-1.4554.1153-2.9131.165-4.3689.2621-.063.0042-.1267.0041-.19.0055-1.978.0454-1.9852,3.1242,0,3.0787Z"/><path d="M184.7034,729.8614l-64.41,90.0661-44.2513-13.78a3.0055,3.0055,0,0,1-.7071-5.4156c4.3487-2.7167,12.5915-5.4066,27.088-2.634,19.673-36.502,46.7448-76.6631,46.7448-76.6631"/><path d="M183.3742,729.0845l-6.422,8.98-15.3475,21.4608L142.9692,785.584l-16.0541,22.4488-5.3167,7.4346a37.703,37.703,0,0,0-2.5239,3.5293,1.6548,1.6548,0,0,1-.11.1539l1.7384-.7074L96.3205,810.85l-15.2363-4.7449-4.0449-1.26a5.5555,5.5555,0,0,1-.5878-.183c-1.3635-.6015-1.1751-2.0825-.04-2.7852,7.42-4.594,17.4432-3.8293,25.6027-2.2958a1.5877,1.5877,0,0,0,1.7384-.7074c7.6543-14.1887,15.877-28.0682,24.3507-41.7808q9.2035-14.8939,18.8324-29.5207,1.77-2.6875,3.5617-5.3616c1.11-1.6474-1.5557-3.19-2.6584-1.5539-3.5032,5.1983-6.9173,10.4582-10.31,15.729q-11.7047,18.1845-22.7479,36.7856c-4.7058,7.967-9.2937,16.0047-13.6871,24.1486l1.7384-.7074c-8.5579-1.6085-18.0164-2.1756-26.1119,1.6173a7.9414,7.9414,0,0,0-3.7123,2.7363,4.6391,4.6391,0,0,0,.7218,5.543,8.0724,8.0724,0,0,0,3.516,1.6239l32.0024,9.966,10.636,3.3123a1.58,1.58,0,0,0,1.7383-.7075l6.4221-8.98,15.3475-21.4608,18.6355-26.0586,16.054-22.4488,5.3167-7.4345c.8342-1.1664,1.771-2.3079,2.524-3.5293.0328-.0533.0736-.103.11-.154,1.1544-1.6143-1.5145-3.1533-2.6584-1.5538Z"/><path d="M292.9571,663.7125s8.2229,26.755,1.2346,59.1079c9.1153,8.7132,14.4816,15.83,17.5372,20.6659a14.3959,14.3959,0,0,1,1.095,13.2345l-28.2086,67.5585H252.5628a3.0854,3.0854,0,0,1-2.2219-5.2219c2.81-2.9623,8.5042-6.3871,20.0391-7.9781,11.647-32.353,16.8235-52.0236,16.8235-52.0236s-59.7883-16.5647-59.7883-68.5882"/><path d="M291.4727,664.1218a78.391,78.391,0,0,1,2.1313,9.5736,130.81,130.81,0,0,1,1.8373,24.88,125.7942,125.7942,0,0,1-1.3424,16.2269q-.3207,2.1311-.7158,4.25-.1787.9585-.3729,1.9141a5.2844,5.2844,0,0,0-.3028,2.2632c.1757.6371.8312,1.0955,1.2828,1.5337q.7737.7509,1.5375,1.512,1.52,1.5162,2.9966,3.0756a110.6446,110.6446,0,0,1,8.6062,10.1558c2.2774,3.0774,4.8016,6.3305,5.2043,10.26.361,3.5225-.9693,6.4821-2.2713,9.6l-4.6561,11.1514L291.9663,802.71l-5.7147,13.6864c-.9848,2.3586-2.171,4.7185-2.9829,7.1439-.0375.1121-.0922.2208-.1378.33l1.4844-1.13H254.4536c-.6221,0-1.2673.0493-1.8882,0a1.57,1.57,0,0,1-1.5434-1.6952c.0746-.8447.9837-1.4992,1.5838-2.0114,4.9061-4.1869,12-5.5975,18.1834-6.47a1.533,1.533,0,0,0,1.0751-1.0751c5.8348-16.2206,11.3692-32.5881,16.0424-49.1861.2659-.9442.5313-1.8888.7811-2.8374a1.565,1.565,0,0,0-1.0751-1.8936,90.3508,90.3508,0,0,1-19.7058-8.4605c-12.8434-7.1107-24.5562-16.9721-31.7183-29.9664a59.528,59.528,0,0,1-7.234-28.677,1.54,1.54,0,0,0-3.0787,0,63.08,63.08,0,0,0,6.0472,27.1044A68.588,68.588,0,0,0,246.4,737.2544c9.3861,9.0241,20.8377,15.8088,32.8847,20.6387a72.3439,72.3439,0,0,0,7.5093,2.647l-1.0751-1.8936c-2.878,10.9255-6.416,21.7032-10.0033,32.4105q-3.2983,9.8451-6.82,19.6131l1.0751-1.0751c-6.291.8875-13.0734,2.4131-18.2835,6.2685-1.9726,1.46-4.0795,3.2586-3.6852,5.9837a4.6825,4.6825,0,0,0,4.7215,3.9714c7.6876.2045,15.4078,0,23.0979,0h8.7939a1.6009,1.6009,0,0,0,1.4843-1.13l4.2642-10.2126,9.4555-22.6455,9.6781-23.1787c1.5952-3.8205,3.2269-7.628,4.7864-11.4632a15.8776,15.8776,0,0,0,1.0856-7.8211,19.1113,19.1113,0,0,0-3.5686-8.5775,110.4641,110.4641,0,0,0-12.01-14.57q-2.2079-2.2914-4.51-4.488l.3959,1.4976a130.7673,130.7673,0,0,0-.2612-56.1406c-.2913-1.2681-.5922-2.5409-.9735-3.7857-.5785-1.8889-3.5512-1.0834-2.9687.8185Z"/><path class="cls-3" d="M118.57,757.5193l65.6779-20.5244,127.5226-23.9787,23.5682-39.2474A40.8709,40.8709,0,0,0,290.4545,633.08L191.09,643.1151a43.7782,43.7782,0,0,0-25.9535,12.0089l-37.8536,36.42a53.7693,53.7693,0,0,1-15.7233,8.2268l-19.6712,6.4379"/><path d="M118.9794,759.0036l17.311-5.41,31.6917-9.9036,12.115-3.786c1.5121-.4725,3.0274-1.0448,4.5659-1.4261,3.6308-.9,7.4142-1.3941,11.0885-2.085l26.4877-4.9807,33.2872-6.2591,31.4865-5.9206,21.0855-3.9648c1.3042-.2452,2.6779-.3947,3.9594-.7445a2.1976,2.1976,0,0,0,1.3164-1.1873l1.935-3.2223L331.36,683.3855c1.7-2.8316,3.4677-5.6338,5.1056-8.5022a2.526,2.526,0,0,0,.4128-1.1145,27.0166,27.0166,0,0,0-.4491-6.1333,42.127,42.127,0,0,0-3.22-11.153,42.7625,42.7625,0,0,0-35.824-25.0444c-5.6083-.3919-11.3741.5508-16.9486,1.1138l-29.0558,2.9346-33.4187,3.3752-23.53,2.3765c-1.519.1534-3.0434.2837-4.5581.4775a45.706,45.706,0,0,0-25.0828,11.6217c-5.3569,4.919-10.5023,10.0873-15.7427,15.1293l-21.067,20.2689c-7.0384,6.7718-16.5537,9.46-25.6066,12.4225l-10.896,3.5659c-1.8747.6135-1.0722,3.5874.8184,2.9687l13.8586-4.5355c6.6479-2.1757,13.155-4.3792,19.0607-8.2743a55.7769,55.7769,0,0,0,7.904-6.82l12.741-12.2583q10.15-9.7653,20.3-19.5309a42.647,42.647,0,0,1,24.9356-11.62c1.6836-.1764,3.3687-.34,5.053-.51l30.1545-3.0455,38.2778-3.866,24.4793-2.4724a43.3036,43.3036,0,0,1,14.2391.6494,39.78,39.78,0,0,1,21.4631,13.2472,39.2537,39.2537,0,0,1,9.0224,24.0554c.0088.3542-.155,1.1659.2147.2944a.4362.4362,0,0,1-.05.0838,3.8943,3.8943,0,0,0-.2311.3847l-.9359,1.5587-3.3869,5.64-17.699,29.4735-1.2567,2.0927.92-.7074-7.7034,1.4485-19.6972,3.7037-26.4517,4.9739-28.334,5.3278-24.9949,4.7-16.4919,3.101a45.3675,45.3675,0,0,0-5.2221,1.1528l-18.7678,5.8649-26.935,8.4172-17.7072,5.5335-.8953.28c-1.8849.589-1.08,3.562.8184,2.9687Z"/><path class="cls-3" d="M171.42,725.7065s-8.2038,41.28-16.0827,81.991c-14.6632,1.6815-21.7271,6.7094-25.0664,10.6a3.0055,3.0055,0,0,0,2.2915,4.9576l46.3473-.0582L213.4954,718.01"/><path d="M169.9361,725.2973q-5.4957,27.6545-10.8956,55.328-2.6051,13.3291-5.1872,26.6629l1.4844-1.13c-8.4472.9946-17.3615,3.161-23.9547,8.8552a12.7317,12.7317,0,0,0-2.7961,3.0146,4.5967,4.5967,0,0,0,.987,5.65c1.327,1.15,2.8685,1.1166,4.4813,1.1146l33.498-.0421,11.3569-.0143a1.5805,1.5805,0,0,0,1.4844-1.13l3.4483-10.4878,8.241-25.0639L202.09,757.6212l8.62-26.2178c1.3952-4.2434,3.0568-8.487,4.21-12.8046.0162-.0606.04-.12.0591-.18.62-1.8865-2.3516-2.6951-2.9687-.8184l-3.4483,10.4878-8.2409,25.0638-10.0065,30.4336-8.62,26.2178-2.8548,8.6827a35.6551,35.6551,0,0,0-1.3553,4.1219,1.5467,1.5467,0,0,1-.0591.18l1.4843-1.13-25.785.0324-16.1029.02c-1.34.0017-2.68.0063-4.02.005a2.4123,2.4123,0,0,1-1.0978-.143c-1.5053-.7245-.5851-2.1889.2027-3.0083,5.9044-6.14,15.0763-8.3675,23.23-9.3275a1.5886,1.5886,0,0,0,1.4843-1.13q7.3952-38.2062,14.97-76.3774.5559-2.807,1.1133-5.6136c.3845-1.9349-2.5823-2.7631-2.9687-.8184Z"/><path class="cls-3" d="M334.11,663.7125s8.2229,26.755,1.2347,59.1079c9.1153,8.7132,14.4816,15.83,17.5372,20.6659a14.3962,14.3962,0,0,1,1.095,13.2345l-28.2087,67.5585H293.7158a3.0854,3.0854,0,0,1-2.222-5.2219c2.81-2.9623,8.5043-6.3871,20.0391-7.9781,11.6471-32.353,16.8236-52.0236,16.8236-52.0236s-59.7883-16.5647-59.7883-68.5882"/><path d="M332.6257,664.1218a78.372,78.372,0,0,1,2.1312,9.5736,130.8024,130.8024,0,0,1,1.8374,24.88,125.7765,125.7765,0,0,1-1.3425,16.2269q-.3207,2.1311-.7157,4.25-.1788.9585-.3729,1.9141a5.286,5.286,0,0,0-.3029,2.2632c.1758.6371.8313,1.0955,1.2829,1.5337q.7737.7509,1.5374,1.512,1.52,1.5162,2.9967,3.0756a110.6435,110.6435,0,0,1,8.6061,10.1558c2.2774,3.0774,4.8016,6.3305,5.2044,10.26.3609,3.5225-.9693,6.4821-2.2713,9.6L346.56,770.519,333.1192,802.71l-5.7146,13.6864c-.9849,2.3586-2.1711,4.7185-2.983,7.1439-.0375.1121-.0921.2208-.1377.33l1.4843-1.13H295.6066c-.6222,0-1.2674.0493-1.8883,0a1.57,1.57,0,0,1-1.5433-1.6952c.0746-.8447.9837-1.4992,1.5838-2.0114,4.906-4.1869,12-5.5975,18.1833-6.47a1.5332,1.5332,0,0,0,1.0752-1.0751c5.8348-16.2206,11.3692-32.5881,16.0424-49.1861.2659-.9442.5312-1.8888.7811-2.8374a1.5652,1.5652,0,0,0-1.0751-1.8936,90.3516,90.3516,0,0,1-19.7059-8.4605c-12.8433-7.1107-24.5561-16.9721-31.7182-29.9664a59.527,59.527,0,0,1-7.2341-28.677,1.54,1.54,0,0,0-3.0786,0,63.08,63.08,0,0,0,6.0471,27.1044,68.5883,68.5883,0,0,0,14.4773,19.6825c9.386,9.0241,20.8377,15.8088,32.8847,20.6387a72.35,72.35,0,0,0,7.5092,2.647l-1.0751-1.8936c-2.8779,10.9255-6.416,21.7032-10.0032,32.4105q-3.2983,9.8451-6.82,19.6131l1.0751-1.0751c-6.2911.8875-13.0734,2.4131-18.2835,6.2685-1.9726,1.46-4.08,3.2586-3.6853,5.9837a4.6826,4.6826,0,0,0,4.7215,3.9714c7.6877.2045,15.4078,0,23.098,0h8.7938a1.6009,1.6009,0,0,0,1.4844-1.13l4.2642-10.2126,9.4555-22.6455,9.6781-23.1787c1.5952-3.8205,3.2269-7.628,4.7864-11.4632a15.8764,15.8764,0,0,0,1.0855-7.8211,19.11,19.11,0,0,0-3.5685-8.5775,110.4641,110.4641,0,0,0-12.01-14.57q-2.2079-2.2914-4.51-4.488l.3958,1.4976a130.7688,130.7688,0,0,0-.2611-56.1406c-.2913-1.2681-.5923-2.5409-.9735-3.7857-.5786-1.8889-3.5512-1.0834-2.9687.8185Z"/><path class="cls-2" d="M243.2035,673.1263c12.1647,17.0824,47.8823-1.5529,36.2353-19.6706-6.9888-9.3912,9.4271-10.858,6.4835-19.951L217.631,640.27a20.4494,20.4494,0,0,0-18.259,16.9891,16.365,16.365,0,0,0,2.6785,12.2437C213.4388,686.0675,231.0388,656.0439,243.2035,673.1263Z"/><path d="M241.8743,673.9032c7.65,10.5663,23.0421,8.7289,32.5445,1.7972,4.5836-3.3437,8.4383-8.175,8.8334-14.0277a14.7814,14.7814,0,0,0-2.009-8.2076c-.7135-1.2588-1.7486-2.3682-1.9792-3.8485a3.5027,3.5027,0,0,1,.5858-2.4776c1.33-2.19,3.7407-3.7,5.4379-5.6468,2.0954-2.404,3.0841-5.2571,2.1189-8.3967a1.56,1.56,0,0,0-1.4843-1.13l-19.1958,1.9017-34.2609,3.3941L220.62,638.4346a32.1859,32.1859,0,0,0-9.6464,1.9754,21.8658,21.8658,0,0,0-13.3784,19.9317c.0556,6.9887,4.7056,15.1564,12.2684,15.8332,5.2764.4721,10.3793-2.4869,15.0423-4.523,4.361-1.9042,9.5627-3.84,13.8892-.8885a12.91,12.91,0,0,1,3.0791,3.14c1.15,1.5905,3.8222.0556,2.6583-1.5538a14.6542,14.6542,0,0,0-6.9454-5.611,13.7309,13.7309,0,0,0-7.4731-.1609c-5.1847,1.1624-9.727,4.1412-14.7625,5.74a12.15,12.15,0,0,1-6.5137.5931c-2.6436-.6615-4.5944-2.7194-5.9745-4.979-4.7508-7.7783-1.2225-18.0559,6.0312-22.9188a22.7214,22.7214,0,0,1,10.8128-3.4088l10.5173-1.0419,33.27-3.2959,14.4114-1.4277c2.5129-.249,5.1744-.2782,7.6563-.7585.1166-.0225.241-.0239.36-.0356l-1.4844-1.13c1.4532,4.7271-3.8089,7.2927-6.3607,10.4485a7.1662,7.1662,0,0,0-1.664,6.5758,17.4769,17.4769,0,0,0,2.1079,3.9684,12.7933,12.7933,0,0,1,1.4418,3.6629c1.07,4.8472-1.5322,9.4633-4.9689,12.6944a26.9642,26.9642,0,0,1-14.5666,6.8634c-5.9171.8164-12.2527-.7478-15.8948-5.7779C243.3816,670.76,240.71,672.2946,241.8743,673.9032Z"/><path class="cls-2" d="M216.2858,687.8792s14.2353-12.1647,24.0706,3.6236c2.8471,13.4588-14.4941,18.3765-21.2235,13.4588S211.8858,693.0557,216.2858,687.8792Z"/><path d="M217.3743,688.9677c.038-.0323.0769-.0637.1156-.0952.3381-.2762-.2554.173.1585-.1224.492-.3512.9845-.6972,1.4985-1.0163a19.49,19.49,0,0,1,4.9408-2.2367,12.3831,12.3831,0,0,1,6.5423-.2,13.5372,13.5372,0,0,1,7.0512,5.0275,5.9962,5.9962,0,0,1,1.3028,2.1712,9.0588,9.0588,0,0,1,.1444,2.0828,9.6119,9.6119,0,0,1-.69,3.467,10.5337,10.5337,0,0,1-4.0508,4.724,14.9356,14.9356,0,0,1-12.3888,1.9395,11.37,11.37,0,0,1-6.414-6.3945,9.2817,9.2817,0,0,1,1.7891-9.3471c1.2563-1.5141-.91-3.7038-2.177-2.1769a12.781,12.781,0,0,0-3.124,10.2838c.6168,3.8648,3.32,7.2368,6.5079,9.3738,4.3538,2.9182,10.5563,2.2228,15.1062.1991,5.4225-2.4119,9.09-7.6518,8.4409-13.7053a5.9663,5.9663,0,0,0-.6653-2.5678,22.0311,22.0311,0,0,0-2.0694-2.7937,17.602,17.602,0,0,0-4.2713-3.6875,14.1584,14.1584,0,0,0-8.5979-1.9643,20.9867,20.9867,0,0,0-11.3271,4.8619C213.6858,688.076,215.8724,690.2447,217.3743,688.9677Z"/><path class="cls-3" d="M69.1907,712.8679c-5.38,2.3294-9.1622,7.4781-10.5321,14.0022-.9125,4.3462-3.0369,9.1429-7.77,12.0406-10.3274,6.3223-24.78,1.6684-25.8012,10.8467s10.176,19.861,10.176,19.861l34.389-6.7993-26.49,5.823a26.5778,26.5778,0,0,0,17.0837,6.9073s3.4216,5.5729-.17,13.2695c4.618,2.5656,7.6967-13.3408,7.6967-13.3408s3.0786,6.1573,2.5655,11.2884c3.5918,1.0262,6.1573-10.2622,5.1311-12.8277,2.5655,5.1311,4.1049,6.67,4.1049,6.67s1.5393-4.618.5131-8.21c4.1049-1.0262,28.221-9.749,28.221-9.749"/><path d="M68.4138,711.5387c-5.5423,2.4707-9.28,7.6607-10.8731,13.4132-.7921,2.8612-1.3312,5.6059-2.9428,8.1637a15.08,15.08,0,0,1-6.9593,5.7521c-4.9727,2.1417-10.4365,2.2159-15.6673,3.2815-4.232.8621-7.9293,2.9347-8.4235,7.6082-.5519,5.2188,2.2382,10.41,5.1739,14.5151a52.0013,52.0013,0,0,0,4.01,4.9406c.8176.8894,1.6081,2.05,2.9409,1.89,1.5717-.1892,3.15-.6229,4.7024-.93l10.905-2.1561,18.7816-3.7135-.8184-2.9686-23.1843,5.0963-3.3057.7267a1.5526,1.5526,0,0,0-.6792,2.5728c4.6233,4.695,11.7337,7.1065,18.1722,7.3581l-1.3291-.7624c1.955,3.2359,1.43,8.1715-.17,11.7157a1.57,1.57,0,0,0,.5522,2.1061c3.9611,2.05,6.3825-2.933,7.55-5.8669a47.1685,47.1685,0,0,0,2.408-8.3939l-2.8135.3677a20.6349,20.6349,0,0,1,2.3554,10.5115,1.5453,1.5453,0,0,0,1.13,1.4843c3.3486.8018,5.1436-3.1047,6.0252-5.6442a24.6665,24.6665,0,0,0,1.1484-5.0813,8.8813,8.8813,0,0,0-.149-3.9957L74.14,774.7157c1.1879,2.3555,2.4622,5.0686,4.3456,6.982a1.5562,1.5562,0,0,0,2.5728-.6793,16.4526,16.4526,0,0,0,.5131-9.0282l-1.0751,1.8936c3.83-.9733,7.574-2.4343,11.301-3.7334q6.9472-2.4214,13.8684-4.9168,1.5262-.5481,3.0516-1.0989c1.8489-.6687,1.0511-3.6448-.8184-2.9687-7.66,2.77-15.329,5.5272-23.0508,8.1206-1.7087.5739-3.4218,1.1842-5.17,1.6285a1.5634,1.5634,0,0,0-1.0752,1.8936A13.4712,13.4712,0,0,1,78.09,780.2l2.5728-.6793c-1.44-1.4628-2.7962-4.2411-3.8641-6.3589-.7752-1.537-3.4137-.4643-2.8135,1.1862a6.4561,6.4561,0,0,1,.1049,2.59,20.6721,20.6721,0,0,1-.7838,3.8462,13.0015,13.0015,0,0,1-1.48,3.4825,5.8017,5.8017,0,0,1-.7.8537c-.2686.21-.1519.1036-.3224.1739.0973-.04.104.0263-.0567-.0121l1.13,1.4843c.34-4.0855-.97-8.425-2.7757-12.0653a1.5544,1.5544,0,0,0-2.8135.3677,51.27,51.27,0,0,1-1.8424,6.8615,18.97,18.97,0,0,1-2.0537,4.4415,4.7319,4.7319,0,0,1-1.001,1.0715c-.0431.0263-.4325.1939-.1311.0762-.1543.06-.3706-.0246-.1061.0387-.092-.022-.1024.0343-.3011-.0685l.5523,2.1061a18.1945,18.1945,0,0,0,1.7282-9.7252,12.2246,12.2246,0,0,0-1.5123-5.0191c-.7378-1.1354-2.2312-.8525-3.4224-.9846a24.7938,24.7938,0,0,1-4.7079-1.0217,25.8822,25.8822,0,0,1-6.5871-3.184,15.8092,15.8092,0,0,1-2.6528-2.1076l-.6792,2.5728L66.7556,765.03l3.3057-.7267c1.9431-.4271,1.1127-3.3505-.8184-2.9686l-30.1143,5.9541-4.2747.8452,1.4976.3959a40.8237,40.8237,0,0,1-6.8269-8.6479,19.5634,19.5634,0,0,1-2.9055-7.7305c-.2115-2.0408.0313-4.2314,1.8337-5.4813,1.8734-1.299,4.4049-1.611,6.6013-1.9454,2.9186-.4443,5.8583-.7575,8.739-1.4223a24.5008,24.5008,0,0,0,8.87-3.7284,18.19,18.19,0,0,0,6.0468-7.732c1.4628-3.4468,1.76-7.2145,3.5941-10.5256a16.29,16.29,0,0,1,7.6639-7.12c1.8062-.8052.2419-3.4589-1.5539-2.6584Z"/><path class="cls-3" d="M94.9326,702.0469l-25.7419,10.821c-5.38,2.3294-9.1622,7.4781-10.5321,14.0022-.9125,4.3462-3.0369,9.1429-7.77,12.0406-10.3274,6.3223-24.78,1.6684-25.8012,10.8467-.5579,5.0123,1.6649,10.8436,3.7976,15.1046a8.7573,8.7573,0,0,0,9.674,4.6629l31.0934-6.7058"/><path d="M94.5233,700.5626l-21.4577,9.02c-3.4332,1.4432-6.88,2.6879-9.6555,5.2947a21.6245,21.6245,0,0,0-5.7088,9.523c-1.0944,3.6135-1.6467,7.1514-4.1413,10.1676-4.6949,5.6766-12.57,6.16-19.3243,7.1882-2.5953.3952-5.4236.8732-7.6038,2.4422-2.5021,1.8006-3.2352,4.6064-3.1665,7.5746a31.8635,31.8635,0,0,0,3.417,12.4709c1.603,3.45,4.1794,6.223,8.0986,6.86,3.09.5023,6.4452-.6248,9.4537-1.2736l25.045-5.4014.5816-.1255c1.9358-.4174,1.1166-3.386-.8184-2.9686L47.8448,765.95c-3.1233.6736-6.2444,1.3584-9.37,2.0209a7.4066,7.4066,0,0,1-6.2185-1.3359,11.1039,11.1039,0,0,1-2.9651-4.4918,35.7489,35.7489,0,0,1-2.1078-5.9979c-.6419-2.5754-1.5017-6.6133.5168-8.8248,1.5606-1.71,4.3259-2.0979,6.4829-2.4571,6.5891-1.0974,13.6242-1.4708,19.106-5.764a18.9075,18.9075,0,0,0,6.0631-8.9173c.5756-1.6861.8438-3.4474,1.3732-5.1455a19.9012,19.9012,0,0,1,2.3164-4.9484c2.3311-3.58,5.5156-5.2973,9.2211-6.8549l22.5-9.4582.579-.2434a1.5937,1.5937,0,0,0,1.0751-1.8936,1.5476,1.5476,0,0,0-1.8936-1.0751Z"/><path class="cls-2" d="M56.97,731.9862s10.1264-5.9243,13.939,5.3749C76.625,754.3,101.1611,761.52,116.5337,739.61c11.3363-16.1563,7.257-27.65,2.9127-33.7887a15.63,15.63,0,0,0-11.8057-6.5882,21.7357,21.7357,0,0,0-10.46,1.8989c-8.8055,4.0772-32.4095,11.7266-35.0366,17.5461S56.97,731.9862,56.97,731.9862Z"/><path d="M57.7474,733.3154a9.08,9.08,0,0,1,3.0377-1.1232,6.8044,6.8044,0,0,1,5.8231,1.0924c2.51,2.0509,2.9985,5.5555,4.4568,8.2938A24.557,24.557,0,0,0,76.6,748.5239a25.5521,25.5521,0,0,0,16.4637,6.28,28.0825,28.0825,0,0,0,18.6147-7.3879,42.9817,42.9817,0,0,0,8.2667-10.2241,38.2986,38.2986,0,0,0,4.8877-12.0208,25.9523,25.9523,0,0,0-2.4571-17.5517,19.4,19.4,0,0,0-6.5041-7.2833,18.6879,18.6879,0,0,0-12.3473-2.525c-3.7921.4463-7.0525,2.0354-10.5291,3.4609-2.999,1.23-6.0225,2.3987-9.0324,3.6011-6.215,2.4828-12.6873,4.9139-18.3549,8.5266-1.76,1.122-3.75,2.476-4.7374,4.3839a94.1811,94.1811,0,0,0-4.5811,11.5089c-.2726.76-.5428,1.52-.803,2.284-.64,1.88,2.3324,2.6865,2.9687.8184.8321-2.443,1.7292-4.8659,2.6644-7.2711a59.1917,59.1917,0,0,1,2.4093-5.7863,5.6622,5.6622,0,0,1,1.511-1.7507,31.4717,31.4717,0,0,1,6.5168-3.9819c2.9-1.46,5.8818-2.7572,8.88-4,5.6378-2.3359,11.4044-4.3891,16.9708-6.8937a19.7594,19.7594,0,0,1,12.4562-1.6085,14.4832,14.4832,0,0,1,8.7986,6.2971,22.5821,22.5821,0,0,1,3.5361,14.8261,31.0714,31.0714,0,0,1-3.51,10.91,42.9348,42.9348,0,0,1-7.77,10.7788c-4.564,4.508-10.5385,7.6315-17.0357,7.8027A22.1159,22.1159,0,0,1,73.6616,739.907c-1.4872-2.8344-2.0586-6.035-4.4119-8.3709-3.3347-3.31-8.2036-3.1153-12.2238-1.2948a9.251,9.251,0,0,0-.8324.4158A1.54,1.54,0,0,0,57.7474,733.3154Z"/><path d="M34.8687,743.2071c-5.2111.777-9.2583,1.8493-9.7816,6.55a16.24,16.24,0,0,0,1.91,8.6778C36.5959,756.5093,36.0749,748.1288,34.8687,743.2071Z"/><path d="M34.46,741.7228c-3.4678.5217-7.4776,1.22-9.639,4.2943A8.9309,8.9309,0,0,0,23.4989,751.6a20.1408,20.1408,0,0,0,2.1687,7.6123,1.5637,1.5637,0,0,0,1.7383.7074,11.825,11.825,0,0,0,8.0442-5.2351,13.4,13.4,0,0,0,1.562-7.7214,25.0262,25.0262,0,0,0-.659-4.1651c-.4669-1.9245-3.4364-1.11-2.9687.8184.1515.6246.2827,1.2537.3857,1.8881.01.0623.0924.6318.0442.2682q.0366.2769.0646.5549.0507.4953.0759.9928a15.66,15.66,0,0,1-.0374,2.1779c-.0052.0571-.0775.6436-.0308.3186-.0244.17-.0533.3384-.0853.5066-.0687.361-.1538.7188-.2581,1.0712a6.062,6.062,0,0,1-.79,1.8006,6.001,6.001,0,0,1-1.3354,1.5976,10.58,10.58,0,0,1-4.8307,2.1581l1.7384.7074A16.2857,16.2857,0,0,1,26.5776,751.6a8.0383,8.0383,0,0,1,.2046-2.5642,4.7655,4.7655,0,0,1,.65-1.4083c1.6434-2.1293,5.1232-2.5262,7.8458-2.9358a1.55,1.55,0,0,0,1.0752-1.8936A1.5784,1.5784,0,0,0,34.46,741.7228Z"/><circle cx="78.7499" cy="727.8191" r="1.4846"/><path d="M78.6279,727.6385a1.62,1.62,0,0,1,.11.3954l-.055-.4093a1.6087,1.6087,0,0,1-.0011.3965l.055-.4092a1.63,1.63,0,0,1-.1041.3773l.1552-.3677a1.6314,1.6314,0,0,1-.1989.3375l.2407-.3115a1.6328,1.6328,0,0,1-.2563.2553l.3115-.2407a1.6426,1.6426,0,0,1-.3219.19l.3677-.1552a1.62,1.62,0,0,1-.3954.11l.4093-.055a1.6136,1.6136,0,0,1-.3965-.0012l.4092.055a1.625,1.625,0,0,1-.3773-.1041l.3677.1552a1.6226,1.6226,0,0,1-.3375-.1989l.3115.2407a1.6285,1.6285,0,0,1-.2553-.2563l.2407.3116a1.6433,1.6433,0,0,1-.19-.322l.1552.3677a1.62,1.62,0,0,1-.11-.3953l.055.4092a1.6136,1.6136,0,0,1,.0012-.3965l-.055.4092a1.6242,1.6242,0,0,1,.1041-.3772l-.1552.3677a1.6233,1.6233,0,0,1,.1989-.3376l-.2407.3116a1.6242,1.6242,0,0,1,.2563-.2553l-.3116.2407a1.6433,1.6433,0,0,1,.322-.19l-.3677.1552a1.62,1.62,0,0,1,.3953-.11l-.4092.055a1.6087,1.6087,0,0,1,.3965.0011l-.4092-.055a1.6291,1.6291,0,0,1,.3772.1041l-.3677-.1552a1.6321,1.6321,0,0,1,.3376.1989l-.3116-.2407a1.6285,1.6285,0,0,1,.2553.2563l-.2407-.3115a1.6426,1.6426,0,0,1,.19.3219,1.543,1.543,0,0,0,.92.7074,1.5731,1.5731,0,0,0,1.1861-.1551,1.5537,1.5537,0,0,0,.7074-.92l.055-.4092a1.5318,1.5318,0,0,0-.21-.7769,2.8941,2.8941,0,0,0-.49-.7039,2.8148,2.8148,0,0,0-.6556-.5282,3.0063,3.0063,0,0,0-2.51-.2627,4.1057,4.1057,0,0,0-.5556.2467,3.8613,3.8613,0,0,0-.4953.3657,2.9007,2.9007,0,0,0-.5458.6423,1.5965,1.5965,0,0,0-.1215.218,4.043,4.043,0,0,0-.229.5681,5.46,5.46,0,0,0-.113.852,4.2741,4.2741,0,0,0,.0726.6087,1.5647,1.5647,0,0,0,.0631.2525,2.9035,2.9035,0,0,0,.3758.7815,4.0647,4.0647,0,0,0,.3723.463,3.9087,3.9087,0,0,0,.4748.382,2.9224,2.9224,0,0,0,.7766.37,1.565,1.565,0,0,0,.2244.0576,4.1125,4.1125,0,0,0,.6233.0766,1.6554,1.6554,0,0,0,.2355-.012,3.8345,3.8345,0,0,0,.6263-.1006,4.1507,4.1507,0,0,0,.5634-.2272,1.575,1.575,0,0,0,.23-.1283,3.176,3.176,0,0,0,1.2865-1.7007,2.6252,2.6252,0,0,0,.0823-.4481,2.6532,2.6532,0,0,0,.04-.4742,2.7621,2.7621,0,0,0-.176-.9315,1.7221,1.7221,0,0,0-.7074-.92,1.5394,1.5394,0,0,0-2.1061.5523l-.1552.3677A1.55,1.55,0,0,0,78.6279,727.6385Z"/><path d="M73.669,724.253c.0579-.089.1251-.1713.1849-.2589.1168-.1713-.3078.3753-.1088.1415.0328-.0385.0636-.0789.0958-.118q.1527-.1851.3148-.3622a9.82,9.82,0,0,1,.8174-.7968c.0875-.0758.1792-.1468.2665-.2226.1958-.17-.3.2069.05-.0352.1973-.1365.3932-.2729.5988-.3969.2167-.1307.4406-.2439.6653-.36q.0936-.0448.1885-.087-.3112.1281-.0764.033c.1346-.0494.2678-.101.4043-.1453a6.7623,6.7623,0,0,1,.75-.1975c.09-.0182.5934-.0711.1593-.0344.1582-.0134.3153-.03.474-.036a7.7666,7.7666,0,0,1,.9978.0348c-.3641-.0322.0316.0067.114.0219q.2716.05.5391.12a6.8333,6.8333,0,0,1,2.0941.9116,1.54,1.54,0,0,0,1.5538-2.6583A9.1811,9.1811,0,0,0,76.2,718.6933a10.1206,10.1206,0,0,0-4.3492,2.9282,9.567,9.567,0,0,0-.84,1.0776,1.54,1.54,0,0,0,2.6583,1.5539Z"/><circle cx="49.9065" cy="729.9527" r="1.4846"/><path d="M49.7846,729.772a1.6223,1.6223,0,0,1,.11.3954l-.055-.4092a1.6087,1.6087,0,0,1-.0012.3965l.055-.4092a1.6255,1.6255,0,0,1-.1041.3772l.1552-.3677a1.6233,1.6233,0,0,1-.1989.3376l.2407-.3116a1.62,1.62,0,0,1-.2563.2553l.3116-.2407a1.6433,1.6433,0,0,1-.322.19l.3678-.1552a1.6223,1.6223,0,0,1-.3954.11l.4092-.055a1.6039,1.6039,0,0,1-.3965-.0012l.4092.055a1.6289,1.6289,0,0,1-.3772-.104l.3677.1551a1.6233,1.6233,0,0,1-.3376-.1989l.3116.2407a1.62,1.62,0,0,1-.2553-.2563l.2407.3116a1.6455,1.6455,0,0,1-.19-.3219l.1552.3677a1.6223,1.6223,0,0,1-.11-.3954l.055.4092a1.6087,1.6087,0,0,1,.0011-.3965l-.0549.4092a1.6253,1.6253,0,0,1,.104-.3772l-.1551.3677a1.62,1.62,0,0,1,.1989-.3375l-.2407.3115a1.62,1.62,0,0,1,.2563-.2553l-.3116.2407a1.6455,1.6455,0,0,1,.3219-.19l-.3677.1552a1.6223,1.6223,0,0,1,.3954-.11l-.4092.055a1.6039,1.6039,0,0,1,.3965.0012l-.4093-.055a1.63,1.63,0,0,1,.3773.104l-.3677-.1551a1.6226,1.6226,0,0,1,.3375.1989l-.3115-.2407a1.62,1.62,0,0,1,.2553.2563l-.2407-.3116a1.6455,1.6455,0,0,1,.19.3219,1.5429,1.5429,0,0,0,.92.7075,1.5738,1.5738,0,0,0,1.1862-.1552,1.5537,1.5537,0,0,0,.7074-.92l.055-.4092a1.5322,1.5322,0,0,0-.21-.7769,2.89,2.89,0,0,0-.4894-.7038,2.8173,2.8173,0,0,0-.6556-.5283,3.0066,3.0066,0,0,0-2.51-.2627,4.11,4.11,0,0,0-.5555.2467,3.8613,3.8613,0,0,0-.4953.3657,2.9021,2.9021,0,0,0-.5459.6424,1.5783,1.5783,0,0,0-.1214.2179,4.0443,4.0443,0,0,0-.229.5682,5.4718,5.4718,0,0,0-.1131.8519,4.287,4.287,0,0,0,.0727.6087,1.5581,1.5581,0,0,0,.0631.2526,2.9063,2.9063,0,0,0,.3758.7815,4.0519,4.0519,0,0,0,.3722.4629,3.8933,3.8933,0,0,0,.4749.3821,2.9285,2.9285,0,0,0,.7766.37,1.5746,1.5746,0,0,0,.2244.0575,4.1222,4.1222,0,0,0,.6233.0767,1.6689,1.6689,0,0,0,.2354-.0121,3.8345,3.8345,0,0,0,.6263-.1006,4.139,4.139,0,0,0,.5635-.2272,1.5657,1.5657,0,0,0,.23-.1283,3.1761,3.1761,0,0,0,1.2865-1.7006,4.7616,4.7616,0,0,0,.1221-.9223,2.7625,2.7625,0,0,0-.1759-.9316,1.7214,1.7214,0,0,0-.7074-.92,1.5392,1.5392,0,0,0-2.1061.5522l-.1552.3677A1.55,1.55,0,0,0,49.7846,729.772Z"/><path d="M44.8257,726.3865c.0579-.089.1251-.1713.1848-.2588.1169-.1714-.3078.3752-.1087.1415.0328-.0386.0635-.079.0957-.118q.1527-.1852.3149-.3623a9.8045,9.8045,0,0,1,.8174-.7968c.0874-.0758.1791-.1467.2665-.2226.1957-.17-.3.207.05-.0351.1973-.1366.3931-.273.5987-.397.2167-.1307.4407-.2439.6653-.36q.0938-.0448.1885-.0871-.3112.1281-.0763.033c.1345-.0494.2678-.1009.4042-.1453a6.7474,6.7474,0,0,1,.75-.1974c.09-.0182.5934-.0712.1593-.0344.1581-.0134.3152-.03.474-.0361a7.7477,7.7477,0,0,1,.9977.0349c-.364-.0323.0316.0066.1141.0219q.2717.05.5391.12a6.8328,6.8328,0,0,1,2.094.9116,1.54,1.54,0,0,0,1.5539-2.6583,9.1812,9.1812,0,0,0-7.5522-1.1141,10.1186,10.1186,0,0,0-4.3491,2.9281,9.5769,9.5769,0,0,0-.84,1.0776,1.54,1.54,0,0,0,2.6584,1.5539Z"/><path d="M45.9893,750.2559a1.54,1.54,0,0,0,0-3.0786,1.54,1.54,0,0,0,0,3.0786Z"/><path d="M51.7872,749.8271a1.54,1.54,0,0,0,0-3.0787,1.54,1.54,0,0,0,0,3.0787Z"/><path d="M48.1121,756.3611a1.54,1.54,0,0,0,0-3.0787,1.54,1.54,0,0,0,0,3.0787Z"/><path d="M52.46,754.5336a1.54,1.54,0,0,0,0-3.0787,1.54,1.54,0,0,0,0,3.0787Z"/><path d="M43.0224,754.7743a1.54,1.54,0,0,0,0-3.0787,1.54,1.54,0,0,0,0,3.0787Z"/><path d="M322.7876,393.4683V309.2944c0-1.1207.1-2.2928,0-3.41-.0046-.0516,0-.1055,0-.1575a.7808.7808,0,0,0-.77-.77,15.7682,15.7682,0,0,1-13.4574-7.6564,16.5366,16.5366,0,0,1-2.1925-8.6093V220.5505a.7808.7808,0,0,0-.77-.77h-52.85a.7808.7808,0,0,0-.77.77v69.7828l.77-.77H206.825a.7808.7808,0,0,0-.77.77V450.5319a12.3064,12.3064,0,0,0,0,2.19,1.4952,1.4952,0,0,1,0,.2668l.77-.77H176.8081a.77.77,0,0,0,0,1.5393H206.825a.7808.7808,0,0,0,.77-.77V292.79a12.3064,12.3064,0,0,0,0-2.19,1.4952,1.4952,0,0,1,0-.2668l-.77.77h45.9232a.7808.7808,0,0,0,.77-.77V220.5505l-.77.77h52.85l-.77-.77v68.0313a18.1864,18.1864,0,0,0,2.5738,9.7768,17.3421,17.3421,0,0,0,14.6154,8.1377l-.77-.77v84.1739c0,1.1207-.1,2.2928,0,3.41.0046.0517,0,.1056,0,.1576a.77.77,0,0,0,1.5393,0Z"/><path d="M305.855,269.5524h50.5413l-.77-.77V375.51a.7809.7809,0,0,0,.77.77h9.8981c3.3717,0,6.943.34,10.2988-.1015a11.4271,11.4271,0,0,0,9.82-11.255c.0641-3.4052,0-6.8177,0-10.2234V343.6967l-.77.77h52.85l-.77-.77v52.85a.7808.7808,0,0,0,.77.77h16.4195a.7808.7808,0,0,0,.77-.77V293.9251l-.77.77h35.4045l-.77-.77V375.51a.7809.7809,0,0,0,.77.77h30.2734l-.77-.77V406.296a.7808.7808,0,0,0,.77.77h36.9439a.7809.7809,0,0,0,.77-.77V364.7342l-.77.77a25.6685,25.6685,0,0,0,25.3989-25.4424c.0623-8.1882,0-16.3793,0-24.5677v-9.7671l-.77.77h43.3577a.7809.7809,0,0,0,.77-.77c0-7.31-.0608-14.6216,0-21.9308A20.0068,20.0068,0,0,1,635.75,266.808c4.5048-2.7546,9.2827-2.9,14.351-2.9h13.1346a.77.77,0,0,0,0-1.5393H651.0447c-4.9208,0-9.6448-.0853-14.2241,2.105a21.44,21.44,0,0,0-11.8445,16.1532c-.549,3.8433-.2237,7.9122-.2237,11.7781v13.3214l.77-.77H582.1644a.7809.7809,0,0,0-.77.77v21.9348c0,8.5508,1.0791,17.7237-3.7474,25.2868a24.0318,24.0318,0,0,1-20.1122,11.0163.7808.7808,0,0,0-.77.77V406.296l.77-.77H520.5912l.77.77V375.51a.7808.7808,0,0,0-.77-.77H490.3178l.77.77V293.9251a.7809.7809,0,0,0-.77-.77H454.9133a.7809.7809,0,0,0-.77.77V396.5469l.77-.77H438.4938l.77.77v-52.85a.7808.7808,0,0,0-.77-.77h-52.85a.7809.7809,0,0,0-.77.77v20.0907a12.9573,12.9573,0,0,1-.5881,4.5459,9.8435,9.8435,0,0,1-7.4213,6.2549c-3.0394.5554-6.4448.1516-9.51.1516H356.3963l.77.77V268.7827a.7809.7809,0,0,0-.77-.77H305.855a.77.77,0,0,0,0,1.5393Z"/><g class="cls-4"><path class="cls-3" d="M729.2,294.0539c-19.0949,0-32.9995,8.68-42.9421,21.127L617.62,401.1094l-74.4717,52.13c6.029,5.1035,13.4287,13.4308,20.526,23.4984,4.5381,6.4372,13.2117,34.12,16.1089,39.7706l77.8852-45.7811a95.3814,95.3814,0,0,0,22.0223-17.7132l60.0118-93.5608,31.0291-65.4Z"/><rect class="cls-5" x="476.671" y="309.8072" width="516.0383" height="14.7985"/><rect class="cls-5" x="476.671" y="341.3137" width="516.0383" height="14.7985"/><rect class="cls-5" x="476.671" y="372.8202" width="516.0383" height="14.7985"/><rect class="cls-5" x="476.671" y="404.3267" width="516.0383" height="14.7985"/><rect class="cls-5" x="476.671" y="435.8332" width="516.0383" height="14.7985"/><rect class="cls-5" x="476.671" y="467.3397" width="516.0383" height="14.7985"/><polyline class="cls-5" points="992.709 498.846 992.709 513.645 476.671 513.645 476.671 498.846"/></g><path d="M733.0193,291.0825a63.22,63.22,0,0,0-45.91,20.722c-2.895,3.2259-5.5,6.745-8.2025,10.1288l-16.41,20.5436L642.35,367.6983l-17.4954,21.9026-5.674,7.1032-1.7357,2.1729c-.216.27-.7514.72-.8465,1.06-.0636.2276.0323.0025.2257-.1435-.1082.0817-.2226.1573-.3343.234-.5787.3971-1.15.8051-1.7251,1.2076l-7.1325,4.9927-23.6357,16.5451L558.32,440.7466l-15.2112,10.6479-.7374.5162a1.5573,1.5573,0,0,0-.3116,2.4176,105.8645,105.8645,0,0,1,13.1056,13.7174c3.333,4.0725,6.8543,8.2461,9.1609,13.01,3.9818,8.2246,6.8049,17.0387,9.9317,25.61a96.17,96.17,0,0,0,4.196,10.62,1.5575,1.5575,0,0,0,2.1061.5523l17.6612-10.3814,34.5927-20.3336L657.18,472.8005a106.6985,106.6985,0,0,0,16.09-11.3991q3.4573-3.0081,6.6139-6.34a11.7556,11.7556,0,0,0,1.251-1.4488c.4192-.6178.8076-1.2591,1.2107-1.8875L697.02,428.8464l21.9505-34.2217,17.9235-27.9433c1.3088-2.0406,2.6518-4.0635,3.9284-6.1246a37.3771,37.3771,0,0,0,1.8173-3.7156L757.5621,325.39l13.7237-28.9254.775-1.6335a1.56,1.56,0,0,0-1.3292-2.3162L737.7023,291.26l-4.683-.1778c-1.9813-.0753-1.9781,3.0035,0,3.0786l33.0294,1.2543,4.6829.1778-1.3291-2.3162-10.2083,21.516-16.5793,34.9441a100.72,100.72,0,0,1-5.8641,11.4694L721.6428,384.76l-22.0015,34.3013-17.5684,27.39c-1.1853,1.848-2.2811,3.8157-3.5826,5.5854a12.2515,12.2515,0,0,1-1.0847,1.1637q-3.1679,3.3112-6.6422,6.3094a94.9669,94.9669,0,0,1-13.875,9.8905q-8.9636,5.277-17.9341,10.5416l-34.6217,20.3507-24.091,14.1608-1.2354.7261,2.1061.5523a83.3961,83.3961,0,0,1-3.5116-8.8618c-1.67-4.5583-3.3-9.1314-5.0015-13.6781-1.5982-4.27-3.225-8.5465-5.14-12.6865-2.13-4.6042-5.2718-8.544-8.4066-12.5105a110.6588,110.6588,0,0,0-14.8154-15.8437l-.3116,2.4176,10.8038-7.5626,24.1828-16.9281,25.2192-17.6535c4.6373-3.2462,9.2952-6.4651,13.9129-9.7391a6.9946,6.9946,0,0,0,1.463-1.4874l4.0712-5.0968L639.12,376.6449l20.04-25.0885,18.041-22.5856,9.76-12.2184a61.016,61.016,0,0,1,32.9975-20.9948,55.8151,55.8151,0,0,1,13.061-1.5965A1.54,1.54,0,0,0,733.0193,291.0825Z"/><path d="M579.7432,516.5162c2.9092-2.0508.78-10.4766-4.8079-21.376l-14.7063,8.5906C569.0378,513.3389,576.7194,518.648,579.7432,516.5162Z"/><path d="M580.52,517.8454c2.6613-1.9836,2.2112-5.7276,1.6042-8.5956-1.1012-5.2022-3.457-10.1785-5.86-14.8865a1.558,1.558,0,0,0-2.1061-.5522l-14.7063,8.5906a1.5593,1.5593,0,0,0-.3116,2.4176,67.1183,67.1183,0,0,0,12.568,11.2519c2.3412,1.5112,6.0869,3.592,8.8116,1.7742,1.64-1.0943.1006-3.7621-1.5538-2.6583a1.0382,1.0382,0,0,1-.774.2566,3.8715,3.8715,0,0,1-1.4659-.2593,16.1783,16.1783,0,0,1-4.1291-2.214,67.8915,67.8915,0,0,1-11.28-10.328l-.3116,2.4176,14.7064-8.5906-2.1061-.5522a63.2218,63.2218,0,0,1,5.3074,13.1115,15.4893,15.4893,0,0,1,.586,4.2723,3.7007,3.7007,0,0,1-.2375,1.3835c-.0608.1747.0755-.1752-.0351.087a1.9706,1.9706,0,0,1-.1662.2878c.1309-.2038-.3292.3027-.0945.1278a1.59,1.59,0,0,0-.5523,2.1061A1.549,1.549,0,0,0,580.52,517.8454Z"/><path class="cls-2" d="M563.6743,476.7383c-7.0973-10.0676-14.497-18.3949-20.526-23.4984l-10.7212,7.5047-17.6352,12.3447,29.0818,40.1955,16.3553-9.554,14.7063-8.5906A156.6335,156.6335,0,0,0,563.6743,476.7383Z"/><path d="M565.0035,475.9613c-6.0533-8.562-12.7508-16.988-20.7667-23.81a1.577,1.577,0,0,0-1.8654-.2407l-23.2949,16.3064L514.015,471.76a1.5586,1.5586,0,0,0-.5522,2.1061l9.7891,13.53L538.9471,509.09l3.5974,4.9722a1.5761,1.5761,0,0,0,2.1061.5522l24.4569-14.2864,6.6048-3.8581a1.5726,1.5726,0,0,0,.5522-2.1061,157.418,157.418,0,0,0-11.261-18.402c-1.1308-1.6086-3.8012-.072-2.6583,1.5539a157.4316,157.4316,0,0,1,11.261,18.402l.5522-2.1061-24.8047,14.4895-6.2569,3.655,2.106.5523-9.7891-13.53-15.6952-21.6931-3.5974-4.9722-.5523,2.1061,21.6846-15.1792,6.6718-4.67-1.8654-.2407c7.8185,6.6539,14.38,14.8344,20.2854,23.1869C563.48,479.12,566.1507,477.5839,565.0035,475.9613Z"/><polyline class="cls-2" points="535.636 752.739 570.016 704.759 606.558 750.23 571.849 791.995 557.698 792.708"/><path d="M536.9653,753.5163l11.6157-16.211,18.5141-25.8387,4.25-5.9311-2.4176.3116,12.3553,15.3742,19.6828,24.4923,4.5042,5.6047v-2.1769l-11.6985,14.077-18.7336,22.5422-4.2766,5.1461,1.0884-.4509-14.1512.7128c-1.9717.0993-1.9835,3.1786,0,3.0787,4.6636-.2349,9.36-.3179,14.0133-.7059,1.1433-.0953,1.5551-.8533,2.2214-1.655l3.4468-4.1476,23.6634-28.4743,6.6036-7.9462a1.6,1.6,0,0,0,0-2.1769l-12.3553-15.3743-19.6829-24.4922-4.5042-5.6048a1.5568,1.5568,0,0,0-2.4176.3116l-11.6157,16.211-18.5141,25.8386-4.25,5.9311c-1.1559,1.6132,1.5132,3.1521,2.6583,1.5539Z"/><path class="cls-6" d="M577.7583,784.7536l-9.5039-4.5106a18.8625,18.8625,0,0,1-10.2356-21.5186l1.1609-4.75L543.463,741.82a13.2845,13.2845,0,0,1-17.78,3.4513c-31.4692-19.5236-49.45,2.2005-49.45,2.2005l82.3368,60.2215Z"/><path d="M578.5352,783.4244c-3.1654-1.5023-6.3435-2.98-9.4969-4.5073a17.566,17.566,0,0,1-9.917-17.6886,55.2612,55.2612,0,0,1,1.5428-6.8454,1.5174,1.5174,0,0,0-.3959-1.4977l-15.7168-12.1539a1.5783,1.5783,0,0,0-2.4176.3115A11.6921,11.6921,0,0,1,529.625,745.33a20.0894,20.0894,0,0,1-4.7951-2.3694,52.0088,52.0088,0,0,0-20.3092-7.1394,35.3951,35.3951,0,0,0-25.2333,6.8192,24.7859,24.7859,0,0,0-4.1433,3.7429,1.5732,1.5732,0,0,0,.3115,2.4177l8.2305,6.02,19.654,14.3751,23.758,17.3767L547.64,801.597l6.7993,4.973c1.0581.7739,2.0931,1.6535,3.2074,2.346.0506.0314.0974.0712.1455.1064a1.5369,1.5369,0,0,0,1.8654-.2407l16.7673-20.0446,2.4217-2.895c1.263-1.51-.9038-3.699-2.177-2.177L559.9025,803.71l-2.4216,2.895,1.8654-.2407-8.2305-6.02-19.654-14.3751-23.758-17.3767-20.5421-15.0246-6.7993-4.973a31.369,31.369,0,0,0-3.2074-2.346,1.4061,1.4061,0,0,1-.1455-.1064l.3115,2.4177a22.0174,22.0174,0,0,1,3.1888-3,33.965,33.965,0,0,1,3.7234-2.5311,31.3924,31.3924,0,0,1,5.3326-2.4952A33.4731,33.4731,0,0,1,504.5207,738.9c7.4349.8307,14.1825,4.0221,20.5391,7.7935a15.0132,15.0132,0,0,0,19.7323-4.0963l-2.4176.3115,15.7168,12.1539-.3959-1.4976c-.4864,1.99-1.07,3.9825-1.4218,6.0023a20.4363,20.4363,0,0,0,8.8362,20.6647,45.6336,45.6336,0,0,0,5.7988,2.9689l6.0728,2.8822C578.7619,786.9278,580.326,784.2744,578.5352,783.4244Z"/><polygon class="cls-3" points="467.721 757.195 476.661 746.908 476.71 746.944 503.115 766.595 558.615 807.9 549.221 819.147 467.721 757.195"/><path d="M468.8092,758.2831l8.9406-10.2866-1.8654.2407q8.5926,6.4074,17.1972,12.7986l10.7672,8.0131,16.9934,12.6469,23.2545,17.3065,8.98,6.6828c1.4912,1.11,2.9569,2.4243,4.55,3.3864.074.0447.1417.1054.2113.1572l-.3115-2.4176-9.3934,11.2469,1.8654-.2407L541.9,811.6618,522.45,796.877l-23.5369-17.8914L478.555,763.51l-6.7167-5.1056c-1.053-.8005-2.0819-1.7178-3.1975-2.4306-.05-.0319-.0959-.0728-.1431-.1088-1.5771-1.1987-3.1125,1.4736-1.5539,2.6584l8.0979,6.1555,19.45,14.7848,23.5369,17.8914,20.3583,15.4752,6.7167,5.1056c1.053.8,2.0819,1.7178,3.1975,2.4306.05.0319.0958.0728.1431.1088a1.5341,1.5341,0,0,0,1.8654-.2407l9.3934-11.247a1.5738,1.5738,0,0,0-.3115-2.4176l-11.19-8.328L525.2883,781.19l-18.65-13.88-9.2392-6.876q-9.7674-7.2691-19.5347-14.5381-.2129-.1585-.4258-.317a1.5373,1.5373,0,0,0-1.8654.2407l-8.9406,10.2865C465.3379,757.5953,467.5066,759.7818,468.8092,758.2831Z"/><path d="M502.4428,767.8111c-.6895-.5327.0679.0722.2167.2033.4254.3749.8327.7708,1.2256,1.1794a20.9445,20.9445,0,0,1,3.0607,4.0468,15.8279,15.8279,0,0,1,.8162,14.6244c-.798,1.7946,1.854,3.3626,2.6583,1.5539a19.0587,19.0587,0,0,0-.5951-17.3416,22.63,22.63,0,0,0-5.8286-6.9246,1.5493,1.5493,0,0,0-2.1061.5523,1.577,1.577,0,0,0,.5523,2.1061Z"/><path d="M534.4545,748.54a8.7728,8.7728,0,0,1,.7328.6772q.3619.3661.6937.7608c.0728.0866.1425.1756.2147.2626.2047.2465-.2163-.2959-.0236-.03.1378.19.2751.3792.4038.5754a9.7561,9.7561,0,0,1,.71,1.2727q.0327.0709.0639.1427.0692.1585-.0536-.1258a1.2647,1.2647,0,0,1,.1474.3976,7.2387,7.2387,0,0,1,.2059.7251c.0277.1217.0364.2571.0741.3754q.0285.1763-.0147-.1363.0136.11.0236.2212a6.09,6.09,0,0,1,.0192.7922c-.0065.1553-.0206.31-.0376.4641.0441-.3989-.0027-.03-.0214.0623a6.5419,6.5419,0,0,1-.28.9622,1.5472,1.5472,0,0,0,1.0752,1.8936,1.58,1.58,0,0,0,1.8935-1.0752,8.4254,8.4254,0,0,0-1.042-7.3622,12.3778,12.3778,0,0,0-2.6079-3.0323,1.5779,1.5779,0,0,0-2.177,0,1.5562,1.5562,0,0,0,0,2.1769Z"/><path d="M528.9805,748.2936c.2915.2017-.3128-.2628-.105-.0835.1642.1416.33.2791.4867.4294a8.7561,8.7561,0,0,1,.6522.6975c.0474.0565.0925.115.14.1712.1652.1947-.2368-.3346-.0052-.0028.1192.1709.239.3405.3494.5174q.1775.2843.3322.5818.0753.1454.1449.2937.0306.0645.06.13.0988.226-.0409-.1c-.0432.0887.2311.6462.2652.7633q.1042.3588.1742.7265.0206.1084.0381.2175.0387.258-.0086-.0747a1.4712,1.4712,0,0,1,.0328.3444,8.2456,8.2456,0,0,1,.0132.9665q-.0085.1905-.0255.38-.0116.13-.0269.259.04-.2856-.001-.0128c-.0708.3721-.1466.7389-.2475,1.1043a1.54,1.54,0,1,0,2.9687.8185,9.9131,9.9131,0,0,0-.2513-6.4016,10.294,10.294,0,0,0-2.5194-3.6809,8.237,8.237,0,0,0-.8724-.7031,1.5479,1.5479,0,0,0-2.1061.5522,1.5784,1.5784,0,0,0,.5523,2.1061Z"/><path d="M521.713,744.6821a4.1674,4.1674,0,0,1,.43.2737c.0671.0472.1308.1008.1992.146.0743.049-.3484-.2825-.1643-.1256.0448.0382.0915.0744.1365.1124q.2766.2335.53.4933.1369.1407.2662.2884.0678.0774.1334.1569c.0223.027.0438.0548.0665.0815.1306.1543-.097-.1206-.1087-.1417.16.2881.3811.5446.541.8366.0794.145.1476.2947.2215.4423.12.24-.1155-.3089-.0216-.0528.0353.0964.0728.1918.1059.289q.0882.2589.1548.5243c.0324.1291.04.5207.1235.61-.0011-.0012-.0346-.3329-.0215-.1628.0052.0673.015.1345.021.2018q.0186.2077.0251.4163.0122.3849-.0146.7695a3.0614,3.0614,0,0,1-.0375.4045c-.0043,0,.0486-.3.0147-.112-.0146.0807-.0259.162-.04.2427-.0577.32-.1339.6356-.2207.9489a1.54,1.54,0,0,0,2.9687.8184,9.3069,9.3069,0,0,0-.4167-6.49,8.6049,8.6049,0,0,0-2.7262-3.2241,4.9056,4.9056,0,0,0-.6115-.4061,1.54,1.54,0,1,0-1.5539,2.6583Z"/><path d="M550.2593,761.6414a25.4265,25.4265,0,0,1-12.4275-.2494,53.8361,53.8361,0,0,1-6.6747-2.56,39.2256,39.2256,0,0,1-6.4318-3.2024,25.3069,25.3069,0,0,1-7.3515-7.44,28.2913,28.2913,0,0,1-3.7541-9.6371c-.41-1.9373-3.3781-1.1174-2.9687.8185a29.5262,29.5262,0,0,0,10.9008,17.7653,33.4409,33.4409,0,0,0,7.42,4.0878c2.2289.9411,4.4548,2,6.7566,2.7514a28.708,28.708,0,0,0,15.349.6349c1.9288-.45,1.1123-3.4188-.8184-2.9687Z"/><polyline class="cls-2" points="726.813 773.141 707.719 717.288 765.958 713.947 779.802 766.457 772.164 778.392"/><path d="M728.2978,772.7313l-6.4514-18.87-10.283-30.0777-2.36-6.9042-1.4844,1.9486,19.6913-1.13,31.37-1.8,7.1785-.4118-1.4843-1.13,4.666,17.6988,7.472,28.342,1.7058,6.47.1551-1.1862-7.6379,11.9343c-1.0712,1.6737,1.5924,3.2194,2.6583,1.5539l3.5527-5.5512c1.3265-2.0725,2.8264-4.109,4.0108-6.2668.5048-.92.08-1.8686-.1672-2.8077l-1.3748-5.2147-9.4382-35.8-2.6339-9.9906a1.5569,1.5569,0,0,0-1.4844-1.13l-19.6912,1.13-31.37,1.8-7.1786.4119a1.5556,1.5556,0,0,0-1.4843,1.9485l6.4515,18.8706,10.283,30.0777,2.36,6.9042c.6372,1.864,3.6121,1.0635,2.9686-.8185Z"/><path d="M838.0331,464.5831l1.4662,10.4239a13.7937,13.7937,0,0,1-7.6958,14.3592L806.0571,501.71,695.6956,491.4838A14.6271,14.6271,0,0,1,682.418,476.919V474.5l8.1153-11.9342"/><path d="M836.5487,464.9923l1.37,9.74a12.607,12.607,0,0,1-6.8921,13.3048c-5.8346,2.8759-11.7345,5.6261-17.6,8.4383-2.6,1.2465-5.3634,2.345-7.87,3.7732-.6371.363.28-.2329.4883-.0786-.0433-.0321-.1621-.0038-.2129-.02a6.1433,6.1433,0,0,0-1.1876-.11l-13.2092-1.224-22.7048-2.104-26.399-2.4462-24.7133-2.29-17.2079-1.5946c-4.3861-.4064-8.6508-.5536-12.1513-3.7592a13.2656,13.2656,0,0,1-4.1556-7.6836,20.522,20.522,0,0,1-.1463-3.229c0-.1458.11-1.0922,0-1.1785.2761.2173-.5277,1.0087-.061.5267a27.683,27.683,0,0,0,2.5341-3.7267l3.6316-5.3405,1.8-2.6477c1.117-1.6427-1.5494-3.1846-2.6583-1.5539l-5.6939,8.3734a39.1938,39.1938,0,0,0-2.3715,3.4875,4.4964,4.4964,0,0,0-.26,2.18,24.2143,24.2143,0,0,0,.176,3.3818,16.28,16.28,0,0,0,11.8319,13.3314,26.6166,26.6166,0,0,0,4.38.6252l14.0257,1.3,23.6324,2.19,27.1905,2.52,24.7,2.2888,16.16,1.4975c.9817.091,2.0047.2775,2.992.2772a3.2168,3.2168,0,0,0,1.3849-.45l3.3371-1.6,20.9724-10.0552a16.0158,16.0158,0,0,0,8.9352-10.0416c1.1922-4.2077.0772-8.693-.5173-12.92l-.5627-4a1.5505,1.5505,0,0,0-1.8935-1.0752,1.5785,1.5785,0,0,0-1.0752,1.8936Z"/><path class="cls-6" d="M777.338,757.4415l-9.1913,5.1174a18.8624,18.8624,0,0,1-23.4623-4.164l-3.1931-3.7039L722.47,760.4275a13.2845,13.2845,0,0,1-7.5162,16.4791c-34.1694,14.28-26.9263,41.5346-26.9263,41.5346l96.842-32.0562Z"/><path d="M776.5611,756.1123c-3.0613,1.7044-6.1093,3.4351-9.1847,5.1138a17.479,17.479,0,0,1-20.1973-2.4558,65.1172,65.1172,0,0,1-4.5994-5.1678,1.5153,1.5153,0,0,0-1.4977-.3959L722.06,758.9431a1.5593,1.5593,0,0,0-1.0751,1.8936,11.8963,11.8963,0,0,1-1.24,10.1492c-2.2,3.4514-5.7952,4.5653-9.289,6.2746a48.9141,48.9141,0,0,0-16.1671,12.1682,35.5687,35.5687,0,0,0-8.42,24.045,24.8644,24.8644,0,0,0,.6745,5.3767,1.5546,1.5546,0,0,0,1.8935,1.0751l9.68-3.2044,23.1165-7.6519,27.9434-9.25,24.161-7.9976c3.9185-1.2971,7.8858-2.4975,11.77-3.896.0565-.02.1142-.0377.1712-.0566a1.5715,1.5715,0,0,0,1.0751-1.8936l-6.5806-25.2908-.95-3.6526a1.5406,1.5406,0,0,0-2.9686.8184l6.5806,25.2908.95,3.6527,1.0751-1.8936-9.68,3.2044-23.1165,7.6519-27.9434,9.25-24.161,7.9977-7.9971,2.6471a27.8876,27.8876,0,0,0-3.7725,1.2488,1.2514,1.2514,0,0,1-.1711.0566l1.8935,1.0752c-.0958-.363-.1635-.7346-.2281-1.1041-.0327-.1872-.0611-.375-.091-.5627a1.8671,1.8671,0,0,1-.0539-.403c-.0634-.5938-.1222-1.1868-.1576-1.7831a31.3742,31.3742,0,0,1,.9424-9.8646c3-11.6838,12.4-19.8446,22.9843-24.8262a31.4494,31.4494,0,0,0,5.8607-3.0182,14.7756,14.7756,0,0,0,5.1857-16.4518l-1.0751,1.8935,19.0218-5.7365-1.4977-.3959c1.3416,1.5562,2.6277,3.1937,4.0732,4.6558a20.39,20.39,0,0,0,22.0874,4.57,52.7263,52.7263,0,0,0,5.6785-2.9646l5.873-3.27C779.8462,757.8067,778.2955,755.1466,776.5611,756.1123Z"/><polygon class="cls-3" points="690.999 831.017 687.817 817.765 687.875 817.746 719.207 807.663 785.063 786.468 788.764 800.646 690.999 831.017"/><path d="M692.4835,830.6078l-3.182-13.2523-1.0751,1.8936q10.2061-3.274,20.4063-6.5674L721.409,808.57l20.1645-6.49L769.1674,793.2l10.6552-3.4292a53.3192,53.3192,0,0,0,5.3993-1.7376,2.4329,2.4329,0,0,1,.2507-.0807l-1.8936-1.0752,3.7009,14.1787,1.0751-1.8936-9.7139,3.0176-23.3317,7.248-28.234,8.7708-24.4211,7.5864c-3.9569,1.2292-7.9765,2.3393-11.8927,3.6944-.0566.02-.1145.0356-.1717.0534-1.886.5859-1.0812,3.5588.8184,2.9686l9.714-3.0176,23.3317-7.2479,28.234-8.7709,24.421-7.5863c3.9569-1.2292,7.9766-2.3393,11.8928-3.6945.0565-.02.1145-.0356.1717-.0533a1.569,1.569,0,0,0,1.0751-1.8936l-3.7009-14.1786a1.5555,1.5555,0,0,0-1.8936-1.0751l-13.2782,4.2734-27.1889,8.75-22.13,7.1223-10.9633,3.5284q-11.59,3.73-23.18,7.46-.2526.0813-.5054.1626a1.5737,1.5737,0,0,0-1.0751,1.8936l3.182,13.2522C689.9772,833.3519,692.9466,832.5365,692.4835,830.6078Z"/><path class="cls-7" d="M718.3048,743.7965a12.8256,12.8256,0,0,1,8.3-1.1185"/><path d="M719.0818,745.1257c.1791-.1057.37-.1919.5582-.2792.3894-.18-.3309.1265.01-.0055.1316-.0509.2627-.1026.3955-.15q.46-.165.9321-.2927.5658-.1538,1.1438-.2565c.11-.02.2206-.036.3309-.0547.3232-.0546-.3112.0289.0518-.007.2233-.0221.4458-.0464.67-.0614a13.6953,13.6953,0,0,1,1.5243-.0171q.4294.019.8571.0646c.0349.0037.4185.0541.2392.0277q-.1585-.02.0956.0165.1527.0246.3048.0523a1.5752,1.5752,0,0,0,1.8935-1.0751,1.5585,1.5585,0,0,0-1.0751-1.8936,15.676,15.676,0,0,0-6.7627.2111,10.8615,10.8615,0,0,0-2.723,1.0626,1.54,1.54,0,0,0,1.5539,2.6583Z"/><path d="M833.7446,445.3806l.3752,5.8147a10.886,10.886,0,0,1-8.1357,11.24l-31.8613,8.2465-1.9094-40.0992"/><path d="M832.2053,445.3806c.25,3.8668,1.116,8.0976-1.083,11.5659-1.8272,2.8818-4.7082,3.7868-7.775,4.58l-22.63,5.8571-7.0041,1.8128,1.9486,1.4844-1.6731-35.1342-.2364-4.965c-.0939-1.9724-3.1731-1.9838-3.0787,0l1.6731,35.1341.2364,4.9651a1.56,1.56,0,0,0,1.9486,1.4843l18.5748-4.8076,10.9264-2.828c3.3058-.8556,6.4293-1.8614,8.7195-4.6307a12.6586,12.6586,0,0,0,2.8956-8.87c-.1111-1.8836-.2429-3.7662-.3644-5.6491-.1269-1.9673-3.2065-1.9815-3.0787,0Z"/><path class="cls-8" d="M721.4735,453.2455,532.4311,713.2513l69.1359,56.8942S735.4033,591.3421,753.2343,563.6822,794.335,456.8373,794.335,456.8373"/><path d="M720.1443,452.4686l-5.0805,6.9877-13.7056,18.85L680.959,506.3635l-24.81,34.1236L628.9761,577.86l-27.428,37.7241-25.5765,35.1774-21.6814,29.82L538.802,701.8839c-2.4591,3.3823-5.0225,6.7118-7.3878,10.161-.1.1458-.2083.2865-.3122.4295a1.5366,1.5366,0,0,0,.2407,1.8654l23.4936,19.3337,37.1229,30.55,8.5193,7.0108a1.5749,1.5749,0,0,0,2.4176-.3116q3.3166-4.4309,6.6287-8.865,8.6649-11.5953,17.3172-23.2,12.3361-16.5438,24.6485-33.1052,14.0508-18.9012,28.0631-37.8308,14.1674-19.1445,28.2729-38.3347,12.3454-16.8089,24.5915-33.6905c5.8664-8.1069,11.7253-16.2228,17.4257-24.4478,1.7949-2.59,3.598-5.182,5.2687-7.8544A156.4013,156.4013,0,0,0,765.15,543.9407c7.293-16.4534,13.3877-33.4407,19.1437-50.4831q5.7858-17.1311,11.0022-34.4511.2636-.8794.5239-1.76c.56-1.9047-2.41-2.7182-2.9687-.8184-2.4538,8.3471-5.09,16.644-7.7821,24.9167-5.4749,16.8216-11.2752,33.5634-17.9032,49.9692-4.8463,11.9954-10.0645,23.9631-17.33,34.7152-4.9348,7.3026-10.0922,14.4574-15.2389,21.6113q-11.5384,16.0385-23.2409,31.9583-13.7349,18.748-27.5558,37.4327-14.22,19.2436-28.49,38.45-12.859,17.3139-25.7468,34.6065-9.6747,12.9829-19.3637,25.9552-4.769,6.3847-9.5424,12.7661l-.4184.5591,2.4176-.3116-23.4936-19.3336-37.123-30.55-8.5192-7.0107.2407,1.8654,5.0806-6.9878,13.7055-18.85,20.3993-28.0568,24.81-34.1235,27.1726-37.3729,27.4281-37.724,25.5764-35.1774,21.6814-29.82,15.4882-21.3022c2.4578-3.38,5.0412-6.7018,7.3878-10.1611.0992-.1462.2083-.2865.3123-.43,1.1666-1.6045-1.5033-3.1425-2.6584-1.5538Z"/><path class="cls-8" d="M775.9827,460.94l-30.9062,1.5417L740.19,490.7593a22.2261,22.2261,0,0,1-4.485,9.6005l-38.0831,57.9333c-26.6612,35.3559-36.9917,72.3778-24.7449,111.2026L699.07,752.5325l93.4466-15.7171s-24.9517-84.579-35.7152-115.4018l52.3641-50.7676a63.2567,63.2567,0,0,0,16.4-64.1108L813.32,460.9421"/><path d="M775.9827,459.4005l-27.0164,1.3476-3.89.194a1.5661,1.5661,0,0,0-1.4843,1.13l-4.3968,25.4461c-.1906,1.1026-.35,2.2162-.59,3.31a24.6193,24.6193,0,0,1-4.3172,8.8887c-1.2539,1.8083-2.4214,3.6835-3.63,5.5221l-16.9221,25.7424-15.45,23.5023c-1.6648,2.5325-3.4388,4.9336-5.2017,7.4061a164.9188,164.9188,0,0,0-15.5139,26.3749c-7.8769,17.02-12.2246,35.6317-11.1922,54.44.5937,10.8154,3.1177,21.188,6.3595,31.4651l8.0263,25.4451,10.1341,32.1273,6.372,20.2005.315.9988a1.5872,1.5872,0,0,0,1.8936,1.0751l31.7394-5.3383,50.2-8.4432L792.926,738.3a1.5525,1.5525,0,0,0,1.0752-1.8936q-4.484-15.1982-9.0584-30.37c-5.8548-19.473-11.7659-38.9309-17.8976-58.3188-2.8254-8.9337-5.6725-17.8657-8.7592-26.7133l-.3959,1.4977L776.6437,604.32l28.5855-27.7141c2.1135-2.049,4.2736-4.0616,6.3273-6.1715A64.7962,64.7962,0,0,0,827.5057,507.67c-1.0587-3.7568-2.0632-7.5283-3.0757-11.2983l-9.4127-35.0464-.2129-.7927a1.5407,1.5407,0,0,0-2.9687.8185l8.273,30.803L823.9,506.2685a91.8225,91.8225,0,0,1,2.2437,9.5629,61.72,61.72,0,0,1-12.548,47.6346,97.0028,97.0028,0,0,1-8.7633,9.2379L777.94,598.7763c-7.2815,7.06-14.711,13.9962-21.8584,21.192-.12.1212-.2454.238-.3681.3569a1.5194,1.5194,0,0,0-.3958,1.4976c6.0351,17.2985,11.3627,34.8541,16.7393,52.3652q8.0029,26.0652,15.7625,52.2045,1.6116,5.4145,3.2134,10.8321l1.0751-1.8935-31.7394,5.3383-50.2,8.4433-11.5075,1.9355,1.8935,1.0751-4.5624-14.4639-9.7165-30.8033-9.0538-28.7024c-2.2873-7.2512-4.6908-14.4538-6.1147-21.9422a106.3382,106.3382,0,0,1,4.512-55.0438,141.5426,141.5426,0,0,1,12.8471-26.7163c2.7105-4.4494,5.6245-8.7734,8.7-12.978.7675-1.0492,1.5647-2.0682,2.2781-3.1536l12.9428-19.689,17.9294-27.2748,5.6341-8.5708c.3481-.5294.6817-1.0727,1.0461-1.5912a25.8791,25.8791,0,0,0,4.6781-10.0274c1.6365-8.4442,2.932-16.9684,4.3965-25.4442l.4893-2.8317-1.4844,1.13,27.0165-1.3477,3.89-.194c1.9718-.0984,1.9836-3.1776,0-3.0786Z"/><g class="cls-9"><path class="cls-3" d="M735.623,295.486h54.2345c8.8311,0,13.4449,3.6518,17.2355,16.6123,0,0,27.9112,117.9467,31.9027,160.97C749.7273,456.36,682.418,474.5,682.418,474.5l34.9706-149.5241"/><rect class="cls-5" x="476.671" y="309.8072" width="516.0383" height="14.7985"/><rect class="cls-5" x="476.671" y="341.3137" width="516.0383" height="14.7985"/><rect class="cls-5" x="476.671" y="372.8202" width="516.0383" height="14.7985"/><rect class="cls-5" x="476.671" y="404.3267" width="516.0383" height="14.7985"/><rect class="cls-5" x="476.671" y="435.8332" width="516.0383" height="14.7985"/><rect class="cls-5" x="476.671" y="498.8462" width="516.0383" height="14.7985"/></g><path d="M735.623,297.0254h51.1777c1.8123,0,3.65-.0638,5.456.1031,4.6078.4259,7.87,2.9606,10.069,6.9517a36.0393,36.0393,0,0,1,3.4261,9.0344q1.3446,5.7083,2.6579,11.424,2.6184,11.3565,5.1635,22.73,3.3411,14.9246,6.5516,29.8778,3.5178,16.4118,6.8225,32.8683c2.1058,10.5448,4.13,21.1072,5.9761,31.701,1.52,8.7226,2.9562,17.4713,3.9928,26.2664q.2994,2.54.54,5.0862l1.9485-1.4843a420.3292,420.3292,0,0,0-49.5018-6.228,415.9228,415.9228,0,0,0-42.7021-.6151q-16.735.6217-33.38,2.6514c-7.5349.9328-15.0478,2.0784-22.4974,3.5493-2.1293.42-4.2537.8672-6.3685,1.3554a17.199,17.199,0,0,0-2.8237.6867.9408.9408,0,0,1-.1224.0324l1.8935,1.8935,3.4782-14.8716,8.3528-35.7142,10.1049-43.2057,8.7345-37.346c1.4124-6.039,2.9714-12.0642,4.2415-18.1353.0176-.0841.0392-.1676.0587-.2513.4508-1.9273-2.5169-2.75-2.9686-.8184l-3.4782,14.8716-8.3528,35.7142-10.105,43.2057-8.7344,37.346c-1.4124,6.039-2.9714,12.0642-4.2415,18.1353-.0176.0841-.0392.1676-.0588.2513a1.5561,1.5561,0,0,0,1.8936,1.8936c2.4153-.65,4.8715-1.1665,7.32-1.6719,6.7321-1.39,13.524-2.5011,20.3366-3.4129,10.6047-1.4194,21.2757-2.3538,31.9615-2.876q20.602-1.0066,41.2368.0487A412.1506,412.1506,0,0,1,832.26,473.42q3.1678.5417,6.3268,1.1329c.89.1659,2.049-.4083,1.9486-1.4844-.7778-8.335-2.0479-16.6266-3.407-24.8837-1.7083-10.3793-3.633-20.7226-5.6449-31.0469q-3.2463-16.659-6.782-33.26-3.3171-15.6829-6.8-31.33-2.77-12.4733-5.6262-24.9271-1.625-7.0851-3.2818-14.163c-1.4684-6.2581-3.8872-13.5624-9.5687-17.1853-4.7746-3.0447-11.0763-2.3251-16.5077-2.3251H735.623a1.54,1.54,0,0,0,0,3.0787Z"/><path d="M719.5848,808.9956a16.5662,16.5662,0,0,1,2.1791-.4608,1.6835,1.6835,0,0,1,.2629-.0387q.294-.0366.5889-.066.6482-.0645,1.2993-.0932a22.3028,22.3028,0,0,1,2.9878.065,15.8519,15.8519,0,0,1,12.3936,7.9757,1.54,1.54,0,0,0,2.6583-1.5539,18.8451,18.8451,0,0,0-11.1082-8.8023,23.3686,23.3686,0,0,0-10.0875-.4256,15.5457,15.5457,0,0,0-1.9927.4311c-1.8914.572-1.0853,3.5444.8185,2.9687Z"/><path d="M722.8638,771.63a8.7041,8.7041,0,0,1,.95-.1988c.0823-.0134.1648-.0248.2472-.0379.2533-.04-.4617.0511-.0691.0108.1759-.018.3515-.0372.5278-.05a11.7829,11.7829,0,0,1,1.29-.0268q.3273.0115.6537.0433.0954.0093.1906.0206.2523.0313-.1207-.0165a1.68,1.68,0,0,0,.3877.0666q.3443.067.682.1627a2.3471,2.3471,0,0,1,.7735.267q-.3123-.1332-.0822-.03l.0944.0448q.1895.0918.3727.1957.1857.1055.3637.2234c.0735.0488.45.3508.1275.08a7.1475,7.1475,0,0,1,.5789.5312c.1076.1127.2069.2317.3086.3495-.2548-.2954.0747.1107.1187.1754a1.54,1.54,0,0,0,2.6584-1.5538,8.0711,8.0711,0,0,0-5.1291-3.4044,13.2505,13.2505,0,0,0-4.8505-.01,8.5176,8.5176,0,0,0-.8914.1891,1.54,1.54,0,0,0,.8184,2.9687Z"/><path d="M719.1074,776.057a5.6977,5.6977,0,0,1,.8523-.2184c.14-.0271.2844-.0412.4242-.0708-.59.1247-.0077.0059.1581-.0068a8.8478,8.8478,0,0,1,1.1685-.0126q.1606.009.3208.0242c.1785.0168.3663.1418.0165-.0041a4.7937,4.7937,0,0,0,.6879.1306q.36.0846.7115.2025c.1394.0469.275.1042.4139.1522-.3729-.129-.0214-.0073.05.026a7.9577,7.9577,0,0,1,.7337.3929q.2136.129.4187.2714c.0872.06.3131.23.1046.0671a9.5106,9.5106,0,0,1,1.5121,1.5142,1.5439,1.5439,0,0,0,2.1769,0,1.5833,1.5833,0,0,0,0-2.177,9.8837,9.8837,0,0,0-6.9642-3.6665,8.9233,8.9233,0,0,0-3.6035.4064,1.54,1.54,0,1,0,.8184,2.9687Z"/><path d="M712.3145,779.7208c.3069-.1522-.3495.1337-.148.0591.1859-.0689.37-.1379.56-.1947a7.3573,7.3573,0,0,1,.8446-.1981c.1445-.0251.4616-.009-.05.0016.0756-.0015.1529-.0176.2285-.0245q.3039-.0277.6093-.03t.611.0232c.1467.0122.4188.1182.0017-.0085.1029.0313.222.0353.3281.0561a6.5984,6.5984,0,0,1,.6744.17q.1737.0535.3444.1165.1.0369.1985.077-.2764-.1185-.118-.0474c.2244.1374.4774.2343.7047.371q.18.1083.3539.2267c.0367.025.3938.2957.2483.1768s.2134.1854.247.2153q.18.16.35.33a10.4878,10.4878,0,0,1,.7383.8256,1.5441,1.5441,0,0,0,2.177,0,1.5834,1.5834,0,0,0,0-2.177,8.8627,8.8627,0,0,0-6.7743-3.4341,8.2968,8.2968,0,0,0-3.6838.8066,1.5488,1.5488,0,0,0-.5522,2.1061,1.5776,1.5776,0,0,0,2.106.5522Z"/><path d="M742.5145,766.5255a25.297,25.297,0,0,1-5.9865,8.6264,35.103,35.103,0,0,1-5.951,4.2941c-1.75,1.0769-3.4794,2.2327-5.3091,3.1718a25.4165,25.4165,0,0,1-11.315,2.7719,27.2175,27.2175,0,0,1-11.2268-2.448c-1.7982-.7842-3.3674,1.8674-1.5538,2.6583,7.4359,3.2428,15.5768,3.9033,23.2029.7885a48.5784,48.5784,0,0,0,7.0343-3.84,47.2668,47.2668,0,0,0,6.441-4.4427,28.7281,28.7281,0,0,0,7.6327-10.7616c.7537-1.83-2.2235-2.628-2.9687-.8184Z"/><path d="M732.2488,467.6126l-1.9926,22.9189a16.0148,16.0148,0,0,1-2.8021,8.1234c-.9246,1.3011-1.9422,2.5421-2.9163,3.8058-2.7234,3.5332-5.6567,6.989-8.1224,10.7121a43.27,43.27,0,0,0-6.0657,14.1337,71.2353,71.2353,0,0,0-1.2776,9.7181c-.1751,1.973,2.9046,1.9612,3.0786,0a69.3385,69.3385,0,0,1,.9858-8.0695,40.6763,40.6763,0,0,1,4.9165-12.6084c2.4564-4.1011,5.66-7.8138,8.5729-11.5924,1.03-1.3365,2.0738-2.6637,3.091-4.01A18.4,18.4,0,0,0,733.2941,491c.3082-3.72.6466-7.4371.97-11.1555l1.0635-12.2323c.1715-1.9735-2.9081-1.962-3.0787,0Z"/><g class="cls-10"><path class="cls-3" d="M795.0776,375.207l105.0216,21.0044-15.4391,71.68c7.9242-.8739,19.699-.2678,32.63,1.98,7.1456,1.242,33.8912,15.2723,39.6167,17.0408l17.1854-101.68C980.2976,354.68,953.54,335.2992,929.171,325.42l-16.2076-5.2982L820.406,296.5932a128.8437,128.8437,0,0,0-31.7426-3.9714H747.8178"/><rect class="cls-5" x="476.671" y="309.8072" width="516.0383" height="14.7985"/><rect class="cls-5" x="476.671" y="341.3137" width="516.0383" height="14.7985"/><rect class="cls-5" x="476.671" y="372.8202" width="516.0383" height="14.7985"/><rect class="cls-5" x="476.671" y="404.3267" width="516.0383" height="14.7985"/><rect class="cls-5" x="476.671" y="435.8332" width="516.0383" height="14.7985"/><polyline class="cls-5" points="992.709 467.34 992.709 482.138 476.671 482.138 476.671 467.34"/><rect class="cls-5" x="476.671" y="498.8462" width="516.0383" height="14.7985"/></g><path d="M794.6684,376.6914l10.4407,2.0881,25.0747,5.015,30.3387,6.0677,26.2322,5.2464,8.674,1.7348a30.03,30.03,0,0,0,4.081.8162,1.3319,1.3319,0,0,1,.18.0361l-1.0751-1.8936-5.2333,24.2967-8.3037,38.5519-1.9022,8.8314c-.1893.879.4278,2.0618,1.4844,1.9485a97.0524,97.0524,0,0,1,19.2131.1808c4.028.3718,8.0387.9057,12.0275,1.5765a26.8825,26.8825,0,0,1,4.6409,1.2346c8.7159,3.1161,17.0245,7.4525,25.3934,11.3758a86.95,86.95,0,0,0,10.5622,4.5979,1.5476,1.5476,0,0,0,1.8936-1.0751l3.5833-21.2015,7.2353-42.809,5.6886-33.6575c.5763-3.41,1.2977-6.8409,1.5387-10.2878a42.7927,42.7927,0,0,0-8.5-28.2793c-5.9722-8.1252-14.0621-14.48-22.7183-19.54a118.8118,118.8118,0,0,0-13.8369-6.8645c-2.2881-.9643-4.6533-1.6783-7.0128-2.45-3.84-1.2554-7.6736-2.75-11.5914-3.7459l-9.5313-2.4229-39.0531-9.9275-36.8761-9.374q-3.2492-.8261-6.4984-1.652a134.232,134.232,0,0,0-32.9213-4.0272H747.8178a1.54,1.54,0,0,0,0,3.0786h33.7975c6.3447,0,12.6724-.0351,19.0007.5557a138.7075,138.7075,0,0,1,21.2891,3.8459l30.5326,7.7615,41.5691,10.567,14.22,3.6147c1.7579.4469,3.5341.8407,5.2587,1.4045l9.1608,2.9946c2.2324.73,4.5414,1.35,6.7154,2.2441A99.4777,99.4777,0,0,1,955.4174,342.36c7.4862,6.26,13.8754,14.1675,16.5932,23.6776a39.1086,39.1086,0,0,1,1.1834,15.13c-.1732,1.5432-.4866,3.0634-.7452,4.5933l-4.6209,27.3406-7.2832,43.092L955.67,485.0344l-.2481,1.4683,1.8935-1.0752a72.5791,72.5791,0,0,1-8.74-3.7792c-4.4867-2.0939-8.9521-4.2333-13.4472-6.3093-4.179-1.93-8.3779-3.8554-12.685-5.4858-4.932-1.867-10.1829-2.406-15.3994-2.9948a102.7584,102.7584,0,0,0-22.3837-.5065l1.4843,1.9486,5.2333-24.2966,8.3037-38.552,1.9022-8.8313a1.56,1.56,0,0,0-1.0751-1.8936l-10.4408-2.0881-25.0747-5.015-30.3387-6.0677L808.4221,376.31c-4.2485-.85-8.49-1.787-12.755-2.551-.06-.0108-.12-.024-.18-.036-1.9348-.387-2.7627,2.58-.8184,2.9687Z"/><path d="M956.7668,486.6657c.6345-3.6508-7.4748-8.3329-19.9607-12.1892l-5.0638,16.8146C945.91,492.1592,956.0983,490.5112,956.7668,486.6657Z"/><path d="M958.2511,487.075c.4929-3.428-2.6835-5.821-5.2606-7.4438-4.8149-3.0318-10.3732-4.959-15.7752-6.6391a1.5633,1.5633,0,0,0-1.8935,1.0751l-5.0638,16.8147a1.5578,1.5578,0,0,0,1.4843,1.9485c6.1065.3632,12.3876.48,18.4232-.6814,2.8545-.5494,7.3965-1.6778,8.0856-5.074.3925-1.9343-2.5743-2.7618-2.9686-.8185a1.0486,1.0486,0,0,1-.4347.81,4.9755,4.9755,0,0,1-1.3668.8955,18.4854,18.4854,0,0,1-5.0241,1.3771,75.643,75.643,0,0,1-16.7146.4128l1.4844,1.9485,5.0638-16.8146-1.8936,1.0751a68.8534,68.8534,0,0,1,14,5.704,17.044,17.044,0,0,1,3.8066,2.7725,4.5415,4.5415,0,0,1,.8817,1.1756,1.2584,1.2584,0,0,1,.1684.4936c.0062.0382.0028.3289.0286.15a1.5933,1.5933,0,0,0,1.0751,1.8936A1.549,1.549,0,0,0,958.2511,487.075Z"/><path class="cls-2" d="M917.29,469.8711c-12.9306-2.2476-24.7054-2.8537-32.63-1.98l-2.545,11.9016-3.7506,17.54,48.6894,9.526,4.6884-15.5677,5.0638-16.8146A159.6362,159.6362,0,0,0,917.29,469.8711Z"/><path d="M917.699,468.3868c-10.7961-1.8614-22.0872-3.2095-33.0389-2.0349a1.5894,1.5894,0,0,0-1.4844,1.13q-2.5666,12.0028-5.1332,24.0057l-1.1623,5.4358a1.56,1.56,0,0,0,1.0751,1.8936l16.3893,3.2065,26.2772,5.1411,6.0229,1.1783a1.5778,1.5778,0,0,0,1.8936-1.0751l7.7892-25.8641,1.963-6.5182a1.5652,1.5652,0,0,0-1.0752-1.8936,161.1292,161.1292,0,0,0-19.5163-4.6053c-1.9377-.3395-2.77,2.6268-.8185,2.9686a161.15,161.15,0,0,1,19.5164,4.6054l-1.0751-1.8936-7.6944,25.5495L925.57,506.45l1.8936-1.0751-16.3893-3.2066-26.2772-5.141-6.023-1.1784,1.0752,1.8935q2.4342-11.3843,4.8686-22.7685l1.4269-6.673-1.4843,1.13c10.6795-1.1454,21.69.1093,32.22,1.9248C918.8183,471.69,919.6507,468.7233,917.699,468.3868Z"/><line class="cls-3" x1="897.4992" y1="408.2829" x2="905.3503" y2="372.3428"/><path d="M898.9835,408.6921l6.8644-31.4232.9868-4.5169c.4218-1.9312-2.5454-2.7562-2.9687-.8184l-6.8645,31.4231-.9867,4.517c-.4219,1.9312,2.5454,2.7562,2.9687.8184Z"/><path class="cls-2" d="M733.0193,292.6218a26.7328,26.7328,0,0,0,53.4656,0Z"/><path d="M731.48,292.6218a28.2721,28.2721,0,0,0,56.5442,0,1.561,1.561,0,0,0-1.5393-1.5393H733.0193a1.54,1.54,0,0,0,0,3.0786h53.4656l-1.5393-1.5393a25.1935,25.1935,0,1,1-50.387,0A1.54,1.54,0,0,0,731.48,292.6218Z"/><path class="cls-2" d="M777.4148,294.0539,770.47,267.7917c3.5327-2.3166,6.0277-5.0429,6.8763-8.0637,4.1806-14.883-10.214-64.5305-10.214-64.5305l-59.64,9.44s-1.1,51.3527,10.2139,64.5306c3.8333,4.465,11.4375,6.5267,19.9778,6.7253l3.8007,19.8277"/><path d="M778.8992,293.6447,772.8213,270.66l-.8666-3.2773-.7074,1.7384c3.4279-2.2862,6.6688-5.2859,7.7-9.424a27.9909,27.9909,0,0,0,.6918-6.1943,98.0941,98.0941,0,0,0-1.4826-16.7924,335.9125,335.9125,0,0,0-7.4656-34.3515c-.6672-2.53-1.3453-5.0576-2.0734-7.57a1.5859,1.5859,0,0,0-1.8936-1.0752l-20.2391,3.2035-31.9879,5.063-7.4133,1.1734a1.5488,1.5488,0,0,0-1.13,1.4844c-.1745,8.2383.1109,16.5135.6738,24.7311a185.35,185.35,0,0,0,2.4141,20.5384c1.0444,5.7363,2.4034,11.675,5.1951,16.846a16.995,16.995,0,0,0,7.2671,7.2231c4.9537,2.5415,10.6794,3.3077,16.1809,3.4567l-1.4843-1.13L740,296.13c.3726,1.9437,3.34,1.1207,2.9687-.8184l-3.8006-19.8277a1.5562,1.5562,0,0,0-1.4844-1.13c-7.5046-.2032-16.47-1.6528-20.4636-8.57-2.7539-4.77-4.0177-10.412-5.0384-15.7694-2.3008-12.075-2.9451-24.4923-3.14-36.7628-.0455-2.87-.0716-5.7442-.0108-8.6145l-1.13,1.4843,20.2392-3.2034,31.9878-5.0631,7.4134-1.1734-1.8936-1.0751c1.9147,6.6082,3.5995,13.2909,5.1677,19.9886,2.6591,11.3568,5.269,23.03,5.7086,34.7243a38.7882,38.7882,0,0,1-.26,7.126c-.6548,4.0388-3.2371,6.793-6.5717,9.017a1.5891,1.5891,0,0,0-.7074,1.7383l6.0778,22.985.8666,3.2772a1.5406,1.5406,0,0,0,2.9687-.8184Z"/><path d="M749.8253,272.02a36.9615,36.9615,0,0,1-14.5426,2.2269,1.5394,1.5394,0,0,0,0,3.0787,39.2376,39.2376,0,0,0,15.361-2.337,1.5791,1.5791,0,0,0,1.0752-1.8935,1.5527,1.5527,0,0,0-1.8936-1.0751Z"/><path d="M729.56,230.9111c.0551-.083.1261-.1584.1769-.2436-.0121.02-.3023.3745-.1413.1842.0414-.0489.08-.1.1214-.1494q.15-.1812.3089-.3553.3874-.4266.8157-.8137c.1585-.1437.3226-.28.486-.4178.3281-.2766-.1486.0958.0766-.0627.1127-.0793.222-.1634.3351-.2423a11.6845,11.6845,0,0,1,1.45-.8639c.1448-.0724.2921-.1387.4384-.2079q.2382-.1041-.0248.0083.1173-.0479.2355-.0931.4271-.1634.8666-.2911.5289-.1534,1.0714-.2537c.0579-.0107.6324-.09.3043-.0531.148-.0166.2958-.032.4443-.0438a12.5336,12.5336,0,0,1,2.5736.0757,1.5475,1.5475,0,0,0,1.5394-1.5394,1.5779,1.5779,0,0,0-1.5394-1.5393,13.0569,13.0569,0,0,0-11.4153,4.3472,9.97,9.97,0,0,0-.7818,1.0009,1.54,1.54,0,1,0,2.6583,1.5538Z"/><path d="M709.7174,234.9426c3.33-2.2146,8.9376-3,11.1345,1.0851,1.0613,1.9737.6084,4.4917-.0041,6.5378a19.0181,19.0181,0,0,1-1.8612,4.1734,5.9519,5.9519,0,0,0-1.1941,2.3252,4.6686,4.6686,0,0,0,.1848,1.61c.937,3.06,4.4855,2.6263,6.9078,1.9492a1.5406,1.5406,0,0,0-.8184-2.9687,7.3378,7.3378,0,0,1-2.9378.3515c-.1191-.0178-.119-.0083-.1889-.155.1078.2262-.05-.1777-.0581-.2384.0091.07-.013-.4384-.0108-.5489l-.21.7769c3.1509-4.6743,5.9956-12.0173,1.751-16.9268a8.8209,8.8209,0,0,0-8.16-2.7318,15.0284,15.0284,0,0,0-6.0885,2.1019c-1.6422,1.092-.1023,3.76,1.5538,2.6583Z"/><path d="M757.4641,239.9012c.0093-.0932.02-.1862.0312-.2792.0124-.1051.0268-.21.0393-.315.0265-.2234-.0675.4768-.0191.1427.0117-.0809.0227-.1619.0345-.2427q.1868-1.2825.4642-2.55a24.6539,24.6539,0,0,1,.8736-3.0911q.0623-.1722.1282-.3429c.0187-.0483.1931-.4762.0969-.2478-.0891.2115.0565-.1251.0862-.19q.0938-.2046.1951-.4056a9.6626,9.6626,0,0,1,.7608-1.244c-.1815.2552-.09.1152.0354-.0258.0836-.0939.1706-.1848.2618-.2714.0393-.0373.0831-.0712.12-.11.1891-.1975-.0474.1241-.0946.0642-.0024-.0029.2262-.1552.2577-.1743.077-.0465.4158-.1743.1536-.0955-.2856.0858.1041-.0284.17-.0455.3836-.1.0284.06-.0379-.0112a2.7424,2.7424,0,0,0,.3889-.0066,1.5393,1.5393,0,1,0,0-3.0786c-2.52-.1162-4.1466,2.1585-5.0334,4.2242a26.6252,26.6252,0,0,0-1.7447,6.4464c-.0953.6142-.1851,1.231-.2465,1.85a1.55,1.55,0,0,0,1.5393,1.5393,1.5732,1.5732,0,0,0,1.5393-1.5393Z"/><circle cx="715.0818" cy="240.3659" r="2.121"/><path d="M716.4346,240.2389c-.03-.2077-.0007.0856-.0011.1454,0,.0575-.0056.1143-.0083.1716-.0046.0971.029.0295.0055-.036.0208.0579-.0463.21-.0656.2725a.6509.6509,0,0,1-.056.1572l.0336-.0821q-.0233.05-.0491.0992a2.7583,2.7583,0,0,1-.1444.2352c-.0815.1228.0169-.0138.0195-.0244-.009.036-.0851.0969-.1107.1233-.0356.0367-.2424.2466-.0939.0993a1.152,1.152,0,0,1-.2591.1659.4558.4558,0,0,1-.1264.0634c.1526-.0177.061-.025-.0017-.0032a2.1124,2.1124,0,0,1-.2806.0766c-.0678.0136-.1436.0681,0,.0037a.4663.4663,0,0,1-.1457.01,1.629,1.629,0,0,0-.3151-.0127l.0926.0113q-.0555-.0095-.11-.0219c-.0363-.0083-.0726-.0176-.1085-.0277-.0538-.0152-.1058-.0347-.1589-.052-.0793-.0257-.0583.0138.03.0136-.061,0-.1922-.1-.2426-.1322-.0384-.0242-.0746-.0555-.1141-.0776q-.0682-.05.0467.0358-.0425-.0352-.0831-.0727c-.0512-.0473-.173-.1358-.1908-.2005.0242.0882.0622.09.0185.0236-.0307-.0469-.0628-.0924-.0915-.1407q-.0288-.0483-.055-.0982c-.0229-.0435-.1243-.1746-.017-.0225a.9388.9388,0,0,1-.094-.3039.5871.5871,0,0,1-.0283-.145c-.0089.164.0079.0756.0071.0288-.0018-.0967-.0079-.1921-.0019-.2889l.0043-.0569q.0139-.1311-.0056.036a.6715.6715,0,0,0,.022-.11,1.0941,1.0941,0,0,1,.1-.3192c-.0975.1515-.0222.05.003.0075.0232-.04.0431-.0814.0667-.121s.05-.0772.0747-.1161c.0429-.0681.0322-.1245-.004.0016.0174-.06.1449-.1589.19-.2006.0086-.008.0646-.0689.0832-.0733q-.1254.0933-.0235.0185.0456-.0323.0928-.0622a.7458.7458,0,0,1,.2476-.1342c-.0145.0013-.1667.0582-.0254.0126.0458-.0148.0909-.0311.1373-.0445s.0939-.0255.1416-.0358c.0107-.0023.2-.0285.0727-.0156s.0637-.0021.0731-.0026q.0867-.0041.1734-.0011a.6655.6655,0,0,1,.1707.0129c-.1837-.0629-.0331-.0009.0178.0106a1.0869,1.0869,0,0,1,.3193.1c-.1409-.0906-.0709-.0318-.0321-.01.0641.0366.13.0686.1927.1082.0311.02.0608.0414.0917.0614.1394.09-.0913-.0914.0177.0163.0539.0533.2141.1574.2319.2373l-.0514-.0686q.0334.0447.0645.0911c.0312.0465.0606.0944.088.1433.023.0411.0417.0846.0646.1255q.036.0774-.0207-.0534.021.0534.0392.1079a2.3209,2.3209,0,0,1,.083.3409.773.773,0,0,0,.9468.5376.7914.7914,0,0,0,.5376-.9468,2.8878,2.8878,0,0,0-2.2462-2.2919,2.8881,2.8881,0,0,0-2.765,4.73,2.8872,2.8872,0,0,0,3.1323.8229,2.8793,2.8793,0,0,0,1.8789-3.2613.7717.7717,0,0,0-.9468-.5375A.7939.7939,0,0,0,716.4346,240.2389Z"/><circle cx="734.6577" cy="237.2055" r="2.121"/><path d="M735.9923,236.9394a2.3691,2.3691,0,0,1,.0169.2928.5029.5029,0,0,1-.009.1724c.04-.0574.0249-.13.0047-.0355-.02.0919-.0384.183-.0669.2727-.0121.0381-.0561.2206-.0009.0246a.8035.8035,0,0,1-.0727.1495c-.028.0525-.0926.2046-.1457.2346l.0538-.0677q-.0257.0326-.0529.0636c-.0315.0337-.0611.0688-.0934.1018-.0309.0314-.2348.2506-.0947.0978a1.0906,1.0906,0,0,1-.2841.1776.471.471,0,0,1-.1015.0494c.1746-.0233.0271-.0132-.0284.0051-.0925.03-.1866.05-.2813.0715-.0691.0157-.077.0489.0286-.0028a.5466.5466,0,0,1-.1757.01c-.0386.0006-.0773,0-.1159-.0014s-.0764-.0039-.1146-.0075q.1512.0234.0636.0093c-.0925-.0184-.1837-.036-.274-.0634-.0319-.01-.1106-.0208-.1322-.0447l.0809.0357c-.0255-.011-.0506-.0227-.0755-.0351-.0734-.0391-.1469-.0765-.2172-.1214-.0338-.0216-.1959-.1067-.0238-.0081a.8091.8091,0,0,1-.1254-.1081c-.0462-.043-.1709-.1357-.19-.2012l.0519.0683q-.0332-.0447-.064-.0911t-.0593-.0948c-.0286-.0486-.0526-.0992-.08-.1485s-.0748-.0837.01.028a.9823.9823,0,0,1-.0988-.3313c-.0025-.012-.024-.1982-.0148-.0724.0093.1286-.0017-.065-.0021-.074-.0028-.0663-.029-.2374.0071-.2887-.04.0574-.0249.13-.0047.0355.0118-.0552.0217-.11.0359-.1652.0094-.036.02-.072.0311-.1076s.0234-.0706.0365-.1054q-.0651.1466-.0127.03c.0425-.0822.0836-.164.1335-.2421a.4272.4272,0,0,1,.0619-.0915l-.0538.0677q.0343-.0432.071-.0846c.0552-.0624.1167-.1174.1754-.1762.0344-.0343.1134-.1319-.0054-.0024a.676.676,0,0,1,.1381-.0942.7921.7921,0,0,1,.2475-.1328c-.1747.0233-.027.013.0284-.0051q.0548-.018.1105-.033c.0566-.0152.1136-.0262.1708-.0385.1506-.0325-.0163-.0037-.0286.0028a.8856.8856,0,0,1,.349-.0058c.1866.0047-.1212-.0276-.0063-.0047.0646.0128.1291.0238.1931.04q.0542.0141.1076.0311t.1054.0365q-.1465-.0651-.03-.0127c.0905.0468.1769.0979.2651.1487.0389.0224.1576.0867.0008-.0071a.8281.8281,0,0,1,.1254.1081q.0608.0566.1168.1177c.029.0316.1595.1423.0209.0152a1.091,1.091,0,0,1,.1777.2841.4708.4708,0,0,1,.0493.1015q-.06-.1456-.0135-.0257.0195.054.0359.1091a2.3224,2.3224,0,0,1,.0723.3433.7716.7716,0,0,0,.9468.5376.7944.7944,0,0,0,.5376-.9468,2.8854,2.8854,0,0,0-2.1907-2.3443,2.9368,2.9368,0,0,0-3.1078,1.2846,2.8892,2.8892,0,1,0,5.3259,1.2643.7884.7884,0,0,0-.77-.77C736.3836,236.1867,735.9441,236.5109,735.9923,236.9394Z"/><path class="cls-11" d="M794.6917,190.6208a12.17,12.17,0,0,0-9.6832,4.4991c-.1127-.0632-.2306-.1221-.3457-.1834a58.9105,58.9105,0,0,1,3.9985-10.5619.9326.9326,0,0,0-1.2483-1.28c-3.0542,1.6734-5.24,5.1215-6.5738,7.8375-8.0622-10.6334-37.3421-41.5318-83.14-3.5492-18.9415,16.7733-27.5815,14.3664-27.5815,14.3664s18.434,31.6574,75.5675,14.4909l4.2622,23.885c-1.2321-7.7837,3.2663-19.2978,8.8446-20.1808s10.1632.3177,11.4272,8.3041c.8368,5.2864-2.1354,15.202-4.84,18.1023l12.4173,11.5182c7.8657-10.3329,23.025-42.6854,12.6942-57.7762a37.171,37.171,0,0,1,4.8462-7.918A.9328.9328,0,0,0,794.6917,190.6208Z"/><path d="M794.6917,189.0814a13.761,13.761,0,0,0-10.7717,4.95l1.8654-.2407-.3457-.1834.7075,1.7384c.5839-2.0132,1.2241-4.0121,1.9591-5.9756a34.7694,34.7694,0,0,1,1.4227-3.3432c.5709-1.1447,1.1581-2.1923.3956-3.4226-1.6356-2.6392-4.6948-.093-6.1411,1.3469a23.3473,23.3473,0,0,0-4.2735,6.2036h2.6584c-8.0837-10.64-19.5547-19.2519-32.86-21.8436-10.0363-1.955-20.3029-.351-29.6768,3.5634A84.8358,84.8358,0,0,0,701.86,182.1737c-5.74,4.2589-10.8682,9.2444-16.9623,13.03a34.0234,34.0234,0,0,1-11.3224,4.9125c-.1477.0281-.9938.1568-.5933.1059-.25.0318-.5006.0582-.7519.0762a10.15,10.15,0,0,1-1.1569.0238c-.3518-.015-.816-.0959-.3246-.0136-.074-.0124-.1487-.0246-.2212-.0443a1.5565,1.5565,0,0,0-1.7384,2.2612c2.3976,4.1048,6.3718,7.52,10.1818,10.2349,9.9743,7.1066,22.3792,10.004,34.4857,10.1168,11.0607.1031,22.0742-1.9967,32.6384-5.1533l-1.8935-1.0751,3.7225,20.8608.54,3.0242c.3512,1.9678,3.2531,1.1048,2.9687-.8185a22.5446,22.5446,0,0,1,1.8039-11.705c1.1117-2.6351,2.9924-6.1032,6.107-6.6038,2.6633-.428,5.7745-.2608,7.5294,2.07,2.2179,2.9456,2.2024,7.1306,1.61,10.5922a37.2039,37.2039,0,0,1-1.7726,6.61,14.1738,14.1738,0,0,1-2.4181,4.5827,1.5635,1.5635,0,0,0,0,2.1769l12.4173,11.5182a1.5693,1.5693,0,0,0,2.4177-.3115c4.6229-6.1068,8.0141-13.28,10.8189-20.37,3.2912-8.32,5.9417-17.4763,5.5369-26.5109a24.0574,24.0574,0,0,0-3.6617-12.4489v1.5539a42.2525,42.2525,0,0,1,3.7018-6.4845c.645-.8908,1.5836-1.6312,1.5856-2.8194a2.4764,2.4764,0,0,0-2.0069-2.4291c-1.9353-.38-2.7638,2.5863-.8184,2.9687l-.2642-.7572q-.2362.2763-.4593.5634-.3576.4517-.6951.92c-.4659.6463-.8964,1.318-1.3079,2-.7722,1.28-1.4734,2.6025-2.1317,3.944a2.2224,2.2224,0,0,0-.34,1.9106,9.5963,9.5963,0,0,0,.7574,1.2642,16.2317,16.2317,0,0,1,1.243,2.6821,30.063,30.063,0,0,1,1.1232,13.1018c-.9965,9.834-4.6654,19.5163-9.0847,28.2907a71.519,71.519,0,0,1-6.6555,11.0673l2.4177-.3115-12.4174-11.5182v2.1769c2.7682-3.0774,4.0457-7.7449,4.8274-11.7072.8725-4.4226,1.0182-9.3772-1.4616-13.3545-2.11-3.3847-5.8322-4.4977-9.6463-4.1491a8.9517,8.9517,0,0,0-5.1946,1.9147,15.2988,15.2988,0,0,0-3.741,4.8871,26.0648,26.0648,0,0,0-2.7889,15.5043l2.9687-.8185-3.7225-20.8608-.54-3.0242a1.5525,1.5525,0,0,0-1.8935-1.0751c-15.8994,4.7508-33.3723,7.2709-49.5989,2.5725a46.1474,46.1474,0,0,1-21.5952-12.9463q-.6519-.7206-1.2628-1.4769c-.09-.112-.1786-.2251-.2679-.3377-.1881-.2369.235.3189-.0434-.0579-.1231-.1668-.248-.3321-.3688-.5007-.2414-.3369-.4829-.6783-.6922-1.0365l-1.7384,2.2612a8.597,8.597,0,0,0,3.1586.0822,27.7822,27.7822,0,0,0,8.7855-2.7955,70.7053,70.7053,0,0,0,14.23-9.5567c5.8506-4.8519,11.71-9.4912,18.4155-13.1341,9.226-5.0121,19.6161-8.086,30.1828-7.124A45.726,45.726,0,0,1,766.1783,178.9a57.6041,57.6041,0,0,1,8.1072,6.84q1.6,1.6123,3.083,3.3356.6386.742,1.254,1.5036.28.3464.5543.6967c.0381.0483.2913.3736.0542.0679.0939.121.1864.243.279.3649a1.56,1.56,0,0,0,2.6584,0,22.8265,22.8265,0,0,1,2.8835-4.5938,12.418,12.418,0,0,1,2.1862-2.0955l.3106-.2111q.8709-.3291-.3713-.9287c-.2075.0818-.5125,1.0148-.6089,1.2215a65.1172,65.1172,0,0,0-3.39,9.4262,1.56,1.56,0,0,0,.7074,1.7384l.3457.1835a1.5684,1.5684,0,0,0,1.8654-.2407,10.8292,10.8292,0,0,1,8.5947-4.0483C796.6735,192.2182,796.6717,189.1394,794.6917,189.0814Z"/><path class="cls-2" d="M555.4372,506.53l-7.6718,4.7719a18.0619,18.0619,0,0,1-15.9719,1.5407l-.15-.057h0a14.0745,14.0745,0,0,0-14.4152,5.6215l-1.9443,2.7408c-3.2867,7.1414-9.0431,8.7279-13.6527,4.6712-2.3283,3.5131-12.595,3.53-16.3244-1.2789-11.5626,6.0746-14.9723-2.8155-14.9723-2.8155-16.1476,6.9473-14.8615-7.51-14.8615-7.51L467.48,481.522a22.3977,22.3977,0,0,1,20.9869-10.268l26.3942,1.8141,10.5971-7.4449"/><path d="M554.66,505.2008l-6.5886,4.0981c-3.8538,2.397-8.0568,3.7693-12.6433,2.9567a33.3031,33.3031,0,0,1-3.3754-.9544,12.7428,12.7428,0,0,0-3.595-.3618,15.8428,15.8428,0,0,0-7.3048,1.9466,19.7641,19.7641,0,0,0-7.5595,8.2288c-1.088,2.1138-2.6933,4.3061-5.0489,5.0836a6.02,6.02,0,0,1-5.8247-1.4679,1.57,1.57,0,0,0-2.4176.3116c-1.2115,1.7174-4.5277,1.82-6.4523,1.7114-2.762-.1558-5.6692-1.0888-7.4546-3.3019a1.5564,1.5564,0,0,0-1.8654-.2407c-3.1227,1.6078-7.1341,2.9193-10.3454.82a6.1222,6.1222,0,0,1-1.1268-.9585,4.3482,4.3482,0,0,1-.7137-.88c-.1789-.2739-.3376-.555-.4945-.8416-.18-.3291-.1446-.3279-.0305-.0351a1.5769,1.5769,0,0,0-2.2613-.92c-2.4654,1.0444-5.4732,2.1025-8.191,1.5556a4.6716,4.6716,0,0,1-3.3386-2.407,5.9244,5.9244,0,0,1-.7028-1.8118c-.0827-.32-.1459-.642-.2053-.9664-.0242-.1323-.0669-.4655-.026-.1391q-.0321-.256-.0543-.5133a12.9665,12.9665,0,0,1-.05-1.3839,3.549,3.549,0,0,0,.0123-.3612c-.0291-.3392.0605.1125-.044.2534a8.9015,8.9015,0,0,0,.7573-2.0623l1.8569-5.0563,5.09-13.8609,3.8966-10.61a9.89,9.89,0,0,1,2.2962-3.423,20.9594,20.9594,0,0,1,9.332-5.976c4.0629-1.2521,8.1177-.8506,12.2635-.5657l14.3194.9842,5.9938.412a5.8818,5.8818,0,0,0,2.8782-.07,33.743,33.743,0,0,0,3.8822-2.7273l5.6848-3.9939,1.025-.72c1.609-1.13.0723-3.8008-1.5539-2.6583l-9.6955,6.8115a3.56,3.56,0,0,0-.7232.5081c-.3379.4313.3321-.2416.5706-.0867-.1925-.125-.7917-.0544-1.0127-.07l-5.364-.3687-15.0446-1.034c-4.1637-.2862-8.31-.7673-12.4362.1785a24.11,24.11,0,0,0-10.4379,5.372c-1.7881,1.5658-3.8269,3.6118-4.6757,5.8714-1.2086,3.2172-2.37,6.4531-3.5546,9.6791l-5.3322,14.52-2.04,5.5546a26.4735,26.4735,0,0,0-.9329,2.54,11.079,11.079,0,0,0,.9538,6.4786c1.9289,4.41,6.5053,5.4475,10.899,4.5586a27.5647,27.5647,0,0,0,5.257-1.7536l-2.2613-.92a9.7833,9.7833,0,0,0,3.937,4.655c4.1694,2.5873,9.2512,1.1632,13.2965-.92l-1.8654-.2407c2.34,2.9007,6.3231,4.0791,9.9205,4.2173,3.1243.12,6.9-.5255,8.8216-3.25l-2.4176.3116c3.5846,3.0629,8.2439,3.5383,12.0149.49,3.0366-2.4543,4.2322-6.3761,6.8305-9.2324a12.7241,12.7241,0,0,1,6.7249-3.8814,12.423,12.423,0,0,1,4.0289-.196,24.6314,24.6314,0,0,1,3.2454.8716,19.9712,19.9712,0,0,0,15.4085-2.4868c2.4774-1.53,4.9453-3.0759,7.4179-4.6139,1.6789-1.0443.1349-3.7088-1.5539-2.6583Z"/><path class="cls-6" d="M104.1168,703.101l.0842-.6368a18.2564,18.2564,0,0,1,12.7829-15.0705h0a18.2562,18.2562,0,0,1,20.02,6.6452h0a63.4911,63.4911,0,0,1,12.353,37.63v8.5176a27.053,27.053,0,0,1-21.48,26.4727l-7.7674,1.6353Z"/><path d="M105.6561,703.101a17.2351,17.2351,0,0,1,6.1348-11.2526,16.7613,16.7613,0,0,1,13.2082-3.4951,17.7328,17.7328,0,0,1,11.6694,7.852,61.9675,61.9675,0,0,1,11.045,31.8393c.1774,3.103.1039,6.2245.1039,9.3312a35.4834,35.4834,0,0,1-.9217,9.6169,25.5874,25.5874,0,0,1-6.7027,11.386,25.8818,25.8818,0,0,1-12.7886,6.81c-2.5653.5529-5.1362,1.0813-7.7041,1.6219l1.8935,1.0752-5.4188-22.09-8.5988-35.0526-1.9751-8.0513c-.4718-1.9233-3.4414-1.1087-2.9687.8184l5.4189,22.09,8.5988,35.0526,1.9751,8.0513a1.57,1.57,0,0,0,1.8935,1.0751c2.5382-.5343,5.0777-1.0626,7.6146-1.6031a29.072,29.072,0,0,0,12.3591-5.9363,28.7135,28.7135,0,0,0,8.5149-11.8454,31.8713,31.8713,0,0,0,1.8888-11.7272c0-3.0415.0653-6.0922-.0359-9.1325a65.0144,65.0144,0,0,0-11.2911-34.5319c-3.1255-4.5611-7.1786-8.1047-12.6822-9.4a19.92,19.92,0,0,0-16.5577,3.5042,20.4556,20.4556,0,0,0-7.7518,13.994c-.11.8312.7864,1.5315,1.5394,1.5393A1.577,1.577,0,0,0,105.6561,703.101Z"/><path class="cls-2" d="M470.05,507.122l12.011-13.8469c1.1759-1.7237,9.9247-3.1668,12.0484-2.92a4.9945,4.9945,0,0,1,4.56,4.402c4.46-2.9308,10.8676-3.6535,10.49,1.2446,5.6284-1.606,10.2892-1.6461,9.49,3.2184,7.17-4.3558,9.1956,1.5524,7.7127,4.3092l-9.3666,14.87"/><path d="M471.1385,508.21l9.0652-10.4508,2.1738-2.5061c.1968-.2268.397-.4513.5906-.6808.0947-.1123.6382-.6508.3424-.3994a10.5043,10.5043,0,0,1,3.4077-1.2856,35.0982,35.0982,0,0,1,5.15-.9227c.6617-.0653,1.3153-.0886,1.979-.0907.06,0,.5363.0518.2125.01-.318-.041.3582.0778.4526.1025a3.5322,3.5322,0,0,1,2.6726,3.18,1.5485,1.5485,0,0,0,2.2613.92c1.6464-1.0559,8.3824-4.24,8.1733-.0846a1.5525,1.5525,0,0,0,1.9486,1.4843c1.8887-.5291,8.1446-2.5164,7.5969,1.3249a1.5619,1.5619,0,0,0,2.2613,1.7384c1.5937-.94,4.74-2.4015,5.6543-.07a2.8681,2.8681,0,0,1-.4359,2.8894l-6.763,10.7366-2.2155,3.5173c-1.059,1.6813,1.6038,3.2279,2.6583,1.5538l6.4958-10.3124c1.9456-3.0888,4.9966-6.5357,2.7155-10.3363-2.1707-3.617-6.69-2.39-9.6634-.6365l2.2613,1.7384c.3605-2.5283-.3132-4.9407-2.9592-5.8026-2.67-.87-5.8245-.038-8.4248.69l1.9485,1.4844a4.6357,4.6357,0,0,0-4.4661-5.06c-2.899-.2877-5.9459.9514-8.34,2.4866l2.2613.92a6.5637,6.5637,0,0,0-6.1062-5.5381,20.3374,20.3374,0,0,0-4.7116.41,30.3473,30.3473,0,0,0-5.49,1.3108,9.7383,9.7383,0,0,0-1.98.8983,4.17,4.17,0,0,0-.732.5667c-.1354.1387-.592.694-.164.1938l-.0436.05c-.47.548-.9462,1.0909-1.4193,1.6363l-6.0006,6.9178-4.5446,5.2392c-1.2927,1.49.8759,3.6769,2.177,2.1769Z"/><path class="cls-2" d="M495.322,480.5675l-15.0353,13.4537a5.0971,5.0971,0,0,0-.2617,7.3453h0a5.0972,5.0972,0,0,0,6.2113.866l17.2009-9.9426a26.0723,26.0723,0,0,0,29.5363,5.599"/><path d="M494.2336,479.4791c-4.9754,4.4519-10.0127,8.8431-14.93,13.3592a6.6339,6.6339,0,0,0,6.6865,11.1974,22.043,22.043,0,0,0,3.0955-1.672l5.3488-3.0917,9.78-5.6529-1.8654-.2407c4.8013,5.4061,12.6862,8.4657,19.7936,8.4216a29.5686,29.5686,0,0,0,11.24-2.4268,1.5936,1.5936,0,0,0,1.0751-1.8935,1.5477,1.5477,0,0,0-1.8936-1.0752,24.4538,24.4538,0,0,1-26.4519-3.6891,16.4558,16.4558,0,0,1-1.5867-1.5139,1.5576,1.5576,0,0,0-1.8654-.2407l-16.6391,9.6177c-1.6045.9275-3.4833,1.1843-4.9077-.3a3.6457,3.6457,0,0,1,.4471-5.3343c2.4538-2.2372,4.95-4.4294,7.4247-6.6436l7.4252-6.6441c1.48-1.3239-.7037-3.4952-2.1769-2.1769Z"/><path class="cls-2" d="M98.1042,717.0291l3.0136,51.9009a21.363,21.363,0,0,0,29.743,18.3971h0a21.363,21.363,0,0,0,11.9834-25.9795l-13.8816-44.637a24.18,24.18,0,0,0-10.05-13.1823h0a24.18,24.18,0,0,0-22.2652-1.988l-6.0725,2.5066"/><path d="M96.5649,717.0291l1.9985,34.4186.9535,16.4223a26.0633,26.0633,0,0,0,1.5134,7.97,22.9095,22.9095,0,0,0,44.3011-7.2292,25.6119,25.6119,0,0,0-1.3373-8.7483l-11.6623-37.5011-1.7211-5.5342a26.9724,26.9724,0,0,0-5.8963-10.442,25.9137,25.9137,0,0,0-16.0876-8.0564,25.494,25.494,0,0,0-9.6575.7862,45.48,45.48,0,0,0-5.0889,1.9142l-3.7142,1.5331a1.5921,1.5921,0,0,0-1.0752,1.8936,1.5481,1.5481,0,0,0,1.8936,1.0751,88.9157,88.9157,0,0,1,8.4086-3.3336,22.6419,22.6419,0,0,1,28.0857,14.9239c.3524,1.1065.69,2.218,1.0346,3.3268L140.1542,757.88c.3957,1.2723.7995,2.5424,1.1871,3.8172a19.8272,19.8272,0,1,1-38.7071,6.8378q-.4079-6.8646-.7973-13.73l-2.1506-37.0372-.0428-.7378c-.1143-1.9693-3.1938-1.9825-3.0786,0Z"/><path d="M521.2285,511.7746c19.7289,9.89,39.2479,21.4151,61.2052,25.4418a124.2466,124.2466,0,0,0,32.8613,1.41l13.1646-1.0992,53.3126-4.4516,66.6624-5.5662,54.28-4.5323,14.012-1.17a115.2955,115.2955,0,0,1,31.0562,1.2484c8.9116,1.6776,17.6471,4.5744,26.3513,7.0808l27.26,7.85c12.7967,3.6849,23.494,11.939,29.4363,23.9974,7.0051,14.2149,5.8012,31.5008-2.4364,44.9328a47.8464,47.8464,0,0,1-87.78-34.0433q2.5032-13.5842,5.0462-27.1608l1.4693-7.9081c.36-1.9366-2.6067-2.7668-2.9687-.8184l-4.6577,25.0695c-.6366,3.426-1.2865,6.85-1.91,10.2785a52.0938,52.0938,0,0,0,.3386,20.913,50.9394,50.9394,0,0,0,99.1613.6711,49.3611,49.3611,0,0,0-10.78-44.1376,48.5781,48.5781,0,0,0-19.452-13.2844c-2.8092-1.0441-5.7406-1.7926-8.6186-2.6213l-30.4921-8.78c-11.86-3.4153-23.6092-6.4624-36.0592-6.8753a149.8488,149.8488,0,0,0-17.481.72l-43.871,3.6632-66.8361,5.5807-61.64,5.1469c-9.4271.7872-18.8526,1.5965-28.2815,2.3615a115.9859,115.9859,0,0,1-57.82-10.11c-8.442-3.892-16.6737-8.29-24.9822-12.4555l-7.9986-4.01c-1.7663-.8855-3.3271,1.7693-1.5538,2.6583Z"/><path d="M883.3522,543.8557,893.53,550.02c3.7441,2.2675,7.8938,4.3624,11.1821,7.2824a27.7314,27.7314,0,1,1-40.9284,36.8762c-3.1289-4.4505-5.4176-10.3184-5.026-15.84l.8157-11.5014,1.9387-27.3348.04-.5676c.14-1.977-2.939-1.9682-3.0786,0l-1.811,25.5349-.9359,13.1955a28.4153,28.4153,0,0,0,3.9588,15.8057,30.7963,30.7963,0,1,0,43.0921-41.443c-1.2284-.776-2.4839-1.5111-3.7266-2.2638l-13.1881-7.9871-.9569-.58c-1.6991-1.029-3.2482,1.6322-1.5539,2.6584Z"/><path d="M879.7,550.2844l5.8289,3.53a43.016,43.016,0,0,1,6.1706,3.9809,15.2121,15.2121,0,1,1-22.7055,19.7856,14.0344,14.0344,0,0,1-2.3671-8.3142l.4765-6.7181,1.11-15.6492c.14-1.9771-2.939-1.9683-3.0786,0l-1.0512,14.822-.5352,7.5453a16.8018,16.8018,0,0,0,2.6086,9.5822,18.2851,18.2851,0,1,0,31.072-19.2833c-2.1359-3.3749-5.2141-5.4225-8.5356-7.4341l-7.4393-4.5055c-1.6991-1.0291-3.2482,1.6321-1.5539,2.6583Z"/><path class="cls-2" d="M895.8029,499.3235l-26.3278-3.4608a22.3977,22.3977,0,0,0-21.2661,9.6765l-10.6139,15.6792a21.1032,21.1032,0,0,0,.0983,23.804s3.4525,6.0217,10.3993,2.6453c7.0667,3.2233,7.8808,3.31,11.8046,1.2582,3.3165,3.6469,10.3232,3.57,12.4886,2.5661,2.5023,3.56,6.7306,5.3219,10.6189,2.199l3.4629-8.349a13.4724,13.4724,0,0,1,16.2745-7.7549h0a16.2452,16.2452,0,0,0,19.1123-11.5486l6.3866-23.1215"/><path d="M895.8029,497.7842l-16.3444-2.1485c-6.3543-.8352-12.9634-2.3676-19.28-.557a24.33,24.33,0,0,0-13.3013,9.6872c-1.3673,1.9879-2.7055,3.9966-4.0581,5.9946-4.0149,5.9311-9.1826,11.93-10.1713,19.2433a22.7257,22.7257,0,0,0,4.0467,16.2837,9.68,9.68,0,0,0,4.1948,3.3371,9.8787,9.8787,0,0,0,7.98-.6277h-1.5538c2.4771,1.1275,5.1018,2.5556,7.8573,2.8165a9.9793,9.9793,0,0,0,5.5012-1.5583l-1.8654-.2407c3.3178,3.4916,9.926,4.7314,14.3539,2.8068l-2.106-.5523c2.6861,3.69,7.1657,5.9317,11.5155,3.5608a4.06,4.06,0,0,0,1.93-1.7618c.1383-.2972.2524-.6084.378-.9112l1.5755-3.7986c.9979-2.4061,1.7751-4.8346,3.5343-6.7863a12.0421,12.0421,0,0,1,10.9465-3.8354,26.0074,26.0074,0,0,0,6.1588.7389,17.8731,17.8731,0,0,0,14.9532-9.702,28.7031,28.7031,0,0,0,1.8394-5.3147l1.9828-7.1786,3.8543-13.9538a1.5406,1.5406,0,0,0-2.9687-.8184l-6.18,22.3748c-1.5645,5.6641-5.6423,10.0527-11.5257,11.2625a14.2132,14.2132,0,0,1-5.3728.0623,23.6276,23.6276,0,0,0-5.2933-.7065,15.1992,15.1992,0,0,0-9.9742,4.2745c-2.1327,2.0808-3.2252,4.6708-4.3391,7.3564l-2.5508,6.15.7074-.92a5.2646,5.2646,0,0,1-4.6431,1.2514,7.3,7.3,0,0,1-3.87-2.8982,1.604,1.604,0,0,0-2.1061-.5523,11.2606,11.2606,0,0,1-4.8319.2755,9.4579,9.4579,0,0,1-5.7913-2.6009,1.5745,1.5745,0,0,0-1.8654-.2407c-1.4743.7665-2.7728,1.41-4.3838,1.0493a18.4783,18.4783,0,0,1-3.0947-1.0727c-.783-.33-1.5537-.6875-2.33-1.0332a2.585,2.585,0,0,0-2.54.0389,6.1255,6.1255,0,0,1-6.0648-.5349,7.9962,7.9962,0,0,1-1.2773-1.2221c-.2916-.3343.0116.0536-.2454-.3244-.0562-.0827-.1063-.1693-.162-.2522a19.9,19.9,0,0,1-2.3044-17.9911c1.0552-2.9057,2.9931-5.4216,4.713-7.9622l6.2888-9.29c1.8759-2.7711,3.699-5.4728,6.42-7.53a21.2352,21.2352,0,0,1,15.3839-4.0633c2.1645.263,4.3248.5685,6.4866.8527l19.7927,2.6018c.8313.1092,1.5315-.7859,1.5393-1.5394a1.5769,1.5769,0,0,0-1.5393-1.5393Z"/><path d="M858.0155,549.8139l-3.4044,13.618L848.41,588.2376c-1.2514,5.0059-2.644,10.0027-3.7012,15.0552a82.0881,82.0881,0,0,0,12.1506,62.6286c2.3682,3.5223,5.053,6.8347,7.6417,10.1954l.8536,1.1081a1.5937,1.5937,0,0,0,2.106.5523,1.548,1.548,0,0,0,.5523-2.1061q-2.7224-3.5341-5.4446-7.0684a79.046,79.046,0,0,1-15.6033-60.6193c.8934-5.6281,2.4732-11.1658,3.8541-16.6894l6.0905-24.3617c1.3352-5.3411,2.8213-10.6687,4.0111-16.0445.0189-.0856.0426-.17.0638-.2554.4806-1.9224-2.4876-2.7425-2.9687-.8185Z"/><path d="M479.1821,493.323a34.1059,34.1059,0,0,0-27.9181,3.0809c-1.26.74-2.5153,1.4888-3.7729,2.2331l-19.218,11.3749-31.6287,18.7206L356.3878,552.56,311.4288,579.17l-46.0265,27.2425L221.93,632.1435l-36.9926,21.8954-26.73,15.8212c-4.2267,2.5017-8.4956,4.9443-12.6851,7.5081-.1764.108-.3562.2108-.5342.3162a1.54,1.54,0,0,0,1.5539,2.6583l8.687-5.1417,23.562-13.946L213.36,640.7941l41.9144-24.8085,45.69-27.0433,45.5972-26.9883,41.637-24.6444,34.107-20.1875L445.2189,503.56c3.8867-2.3,7.8483-5.0625,12.0707-6.7163a31.0087,31.0087,0,0,1,21.074-.552c1.8839.628,2.6918-2.3442.8185-2.9687Z"/><path class="cls-6" d="M133.7775,693.8937a6.7286,6.7286,0,0,0,6.71-7.5878,6.7587,6.7587,0,0,0,10.106-5.8781c0-.2076-.0128-.4121-.0309-.6149a6.7628,6.7628,0,1,0-3.4484-5.8927c0,.2077.0127.4121.0312.615a6.7412,6.7412,0,0,0-10.0272,6.7152,6.759,6.759,0,0,0-10.1062,5.8781s-3.8242-.4183-4.85,3.1735"/><path d="M133.7775,695.4331a8.3919,8.3919,0,0,0,8.25-9.1272l-2.3163,1.3291c5.722,3.0538,12.874-1.1851,12.3913-7.8221l-2.3162,1.3291a8.3059,8.3059,0,1,0-4.18-6.6068l2.3163-1.3292a8.2946,8.2946,0,0,0-12.3435,8.0444l2.3163-1.3291a8.3959,8.3959,0,0,0-12.4225,7.2072l1.5394-1.5394a6.0668,6.0668,0,0,0-6.3348,4.3037c-.6061,1.8911,2.3653,2.7008,2.9687.8184a3.016,3.016,0,0,1,3.3661-2.0434,1.5567,1.5567,0,0,0,1.5393-1.5393,5.2749,5.2749,0,0,1,7.79-4.5489c.9391.5012,2.436-.1015,2.3163-1.3292a5.2813,5.2813,0,0,1,7.7109-5.3861,1.5538,1.5538,0,0,0,2.3163-1.3291,5.2356,5.2356,0,1,1,2.6548,3.9485,1.5537,1.5537,0,0,0-2.3162,1.3292,5.2773,5.2773,0,0,1-7.7588,5.1638c-.9391-.5011-2.436.1015-2.3163,1.3292a5.3172,5.3172,0,0,1-5.1711,6.0485c-1.9776.05-1.9852,3.1289,0,3.0787Z"/><path d="M728.9209,258.5669l4.04-1.7955.578-.2569a1.542,1.542,0,0,0,.7075-.92,1.5738,1.5738,0,0,0-.1552-1.1862,1.5537,1.5537,0,0,0-.92-.7074,1.7779,1.7779,0,0,0-1.1861.1552l-4.04,1.7955-.578.2569a1.5416,1.5416,0,0,0-.7074.92,1.5727,1.5727,0,0,0,.1552,1.1861,1.5535,1.5535,0,0,0,.92.7074,1.7782,1.7782,0,0,0,1.1862-.1552Z"/><path d="M647.0727,263.1385v-28.221l-.77.77h35.9177l-.77-.77v60.5469a.77.77,0,0,0,1.5393,0V234.9175a.7808.7808,0,0,0-.77-.77H646.303a.7808.7808,0,0,0-.77.77v28.221a.77.77,0,0,0,1.5394,0Z"/></svg>