<svg id="Layer_1" data-name="Layer 1" xmlns="http://www.w3.org/2000/svg" width="1000" height="1000" viewBox="0 0 1000 1000"><defs><style>.cls-1{fill:#ffc41f;}.cls-2{fill:#e2e2e2;}.cls-3{fill:#fff;}.cls-4{fill:#fc7272;}.cls-5{fill:#fc7f3a;}.cls-6{fill:#a8542a;}.cls-7{fill:#389b48;}.cls-8{fill:#d34aa2;}.cls-9{fill:#458dc9;}</style></defs><path class="cls-1" d="M598.8182,171.1247l15.3023,31.0058a6.1569,6.1569,0,0,0,4.6359,3.3682l34.217,4.9721a6.1571,6.1571,0,0,1,3.4124,10.5022l-24.76,24.1347a6.1569,6.1569,0,0,0-1.7708,5.45L635.7,284.6363a6.1571,6.1571,0,0,1-8.9337,6.4907l-30.6046-16.09a6.1568,6.1568,0,0,0-5.73,0l-30.6045,16.09a6.1572,6.1572,0,0,1-8.9338-6.4907l5.8449-34.0787a6.1571,6.1571,0,0,0-1.7707-5.45l-24.76-24.1347a6.1572,6.1572,0,0,1,3.4124-10.5022l34.217-4.9721a6.1572,6.1572,0,0,0,4.636-3.3682l15.3022-31.0058A6.1572,6.1572,0,0,1,598.8182,171.1247Z"/><path d="M597.3391,171.9893l8.9695,18.1741,5.2093,10.5552c.3637.7369.7138,1.4824,1.0917,2.2121a7.96,7.96,0,0,0,5.7208,4.224c6.9281,1.1669,13.9231,2.0232,20.8755,3.0334l11.2585,1.636c.6809.0989,1.3655.1838,2.0442.297a4.5477,4.5477,0,0,1,4.03,4.5285c-.0213,2.5043-2.58,4.2971-4.2193,5.8953l-9.1676,8.9362-9.3259,9.09c-1.9425,1.8935-4.415,3.7862-5.3473,6.4134-.9371,2.6408.04,5.8674.5,8.5483l2.1894,12.7648,2.1779,12.6985c.4045,2.358,1.4505,5.3444-.21,7.4344a4.5089,4.5089,0,0,1-5.6072,1.1635c-.7867-.3874-1.5552-.8176-2.3313-1.2256l-10.669-5.6091-11.9546-6.2849c-2.0216-1.0628-4.02-2.264-6.1157-3.1791a8.1513,8.1513,0,0,0-7.1625.4048c-.9226.4774-1.8391.9669-2.7586,1.45l-10.95,5.7569-11.8431,6.2263-3.7421,1.9673a7.1056,7.1056,0,0,1-2.6733,1.0224,4.5151,4.5151,0,0,1-4.7841-5.0321c.07-.6026.2067-1.205.3092-1.8026l1.9031-11.096c1.2065-7.0345,2.5035-14.06,3.62-21.1093a8.161,8.161,0,0,0-2.22-7.2079c-.5214-.5332-1.07-1.0427-1.6037-1.5632l-8.27-8.0615c-4.9487-4.8239-10.011-9.5558-14.8576-14.4826a4.5159,4.5159,0,0,1-.4794-5.9,5.1087,5.1087,0,0,1,3.6373-1.82l9.1774-1.3336,23.685-3.4416a8.6413,8.6413,0,0,0,6.8479-4.9711l4.294-8.7007,10.4087-21.09a5.1781,5.1781,0,0,1,2.4967-2.744,4.5315,4.5315,0,0,1,5.8456,2.2219c1.0231,1.9539,3.9808.224,2.9581-1.7291a7.937,7.937,0,0,0-14.01.0191c-1.1315,2.1761-2.1734,4.4038-3.2588,6.6031l-11.2768,22.8492a19.0792,19.0792,0,0,1-1.1076,2.1519,5.2306,5.2306,0,0,1-3.9483,2.0632l-9.7946,1.4233c-7.7738,1.13-15.5511,2.237-23.3217,3.3888a7.9579,7.9579,0,0,0-6.5266,10.3584c.895,2.5614,3.34,4.4275,5.2283,6.2683l18.7965,18.3221c1.8356,1.7893,4.3416,3.554,4.001,6.4424-.2973,2.5214-.8645,5.04-1.2935,7.5417l-4.2921,25.0249a21.1845,21.1845,0,0,0-.3989,2.764,7.9282,7.9282,0,0,0,5.099,7.5588c3.465,1.354,6.3716-.3664,9.3232-1.9181l23.1627-12.1774c2.1028-1.1055,5.0271-3.3233,7.5317-2.8081a9.7434,9.7434,0,0,1,2.4512,1.0977l4.0965,2.1537,22.958,12.07c.7139.3753,1.422.7652,2.143,1.1267a7.8656,7.8656,0,0,0,11.492-8.4086c-.1079-.681-.2333-1.36-.35-2.0394l-4.3672-25.4624c-.38-2.2154-.9413-4.4768-1.1373-6.7181-.2564-2.9322,2.7448-5.005,4.6248-6.8375l18.7965-18.322c2.1186-2.0652,4.5193-3.97,4.955-7.1064a7.989,7.989,0,0,0-3.3447-7.6334,8.7725,8.7725,0,0,0-3.8641-1.3479l-24.1024-3.5022c-2.9978-.4356-5.998-.857-8.9937-1.3069a4.9471,4.9471,0,0,1-3.9781-2.652c-.3565-.683-.6829-1.3837-1.0239-2.0745l-11.4513-23.203-2.8177-5.7091C599.3215,168.2832,596.3658,170.017,597.3391,171.9893Z"/><path class="cls-1" d="M754.35,171.1247l15.3023,31.0058a6.1569,6.1569,0,0,0,4.6359,3.3682l34.217,4.9721a6.1571,6.1571,0,0,1,3.4124,10.5022l-24.76,24.1347a6.1569,6.1569,0,0,0-1.7708,5.45l5.8449,34.0787a6.1571,6.1571,0,0,1-8.9337,6.4907l-30.6046-16.09a6.1568,6.1568,0,0,0-5.73,0l-30.6045,16.09a6.1572,6.1572,0,0,1-8.9338-6.4907l5.8449-34.0787a6.1571,6.1571,0,0,0-1.7707-5.45L685.74,220.973a6.1571,6.1571,0,0,1,3.4124-10.5022l34.2169-4.9721a6.1572,6.1572,0,0,0,4.636-3.3682l15.3022-31.0058A6.1572,6.1572,0,0,1,754.35,171.1247Z"/><path d="M752.8712,171.9893l8.9695,18.1741,5.2093,10.5552c.3637.7369.7138,1.4824,1.0917,2.2121a7.96,7.96,0,0,0,5.7208,4.224c6.9281,1.1669,13.9231,2.0232,20.8755,3.0334l11.2585,1.636c.6809.0989,1.3655.1838,2.0442.297a4.5478,4.5478,0,0,1,4.03,4.5285c-.0214,2.5043-2.58,4.2971-4.2194,5.8953l-9.1676,8.9362-9.3259,9.09c-1.9425,1.8935-4.4149,3.7862-5.3473,6.4134-.9371,2.6408.04,5.8674.5,8.5483L786.7,268.2981l2.1779,12.6985c.4045,2.358,1.4505,5.3444-.21,7.4344a4.5089,4.5089,0,0,1-5.6072,1.1635c-.7867-.3874-1.5552-.8176-2.3313-1.2256l-10.669-5.6091-11.9546-6.2849c-2.0216-1.0628-4.02-2.264-6.1157-3.1791a8.1513,8.1513,0,0,0-7.1625.4048c-.9226.4774-1.8391.9669-2.7586,1.45l-10.95,5.7569-11.8431,6.2263-3.7421,1.9673a7.1056,7.1056,0,0,1-2.6733,1.0224,4.5151,4.5151,0,0,1-4.7841-5.0321c.07-.6026.2067-1.205.3092-1.8026l1.9031-11.096c1.2065-7.0345,2.5035-14.06,3.62-21.1093a8.161,8.161,0,0,0-2.22-7.2079c-.5214-.5332-1.07-1.0427-1.6037-1.5632l-8.27-8.0615c-4.9487-4.8239-10.011-9.5558-14.8576-14.4826a4.5159,4.5159,0,0,1-.4794-5.9,5.1087,5.1087,0,0,1,3.6373-1.82l9.1774-1.3336,23.685-3.4416a8.6412,8.6412,0,0,0,6.8479-4.9711l4.294-8.7007,10.4087-21.09a5.1785,5.1785,0,0,1,2.4967-2.744,4.5315,4.5315,0,0,1,5.8456,2.2219c1.0231,1.9539,3.9808.224,2.9581-1.7291a7.937,7.937,0,0,0-14.01.0191c-1.1315,2.1761-2.1734,4.4038-3.2588,6.6031l-11.2768,22.8492a19.0627,19.0627,0,0,1-1.1076,2.1519,5.2305,5.2305,0,0,1-3.9482,2.0632L712.433,205.37c-7.7739,1.13-15.5512,2.237-23.3218,3.3888a7.9579,7.9579,0,0,0-6.5266,10.3584c.895,2.5614,3.34,4.4275,5.2283,6.2683l18.7965,18.3221c1.8356,1.7893,4.3416,3.554,4.001,6.4424-.2973,2.5214-.8645,5.04-1.2935,7.5417l-4.2921,25.0249a21.1845,21.1845,0,0,0-.3989,2.764,7.9282,7.9282,0,0,0,5.099,7.5588c3.465,1.354,6.3716-.3664,9.3232-1.9181l23.1627-12.1774c2.1028-1.1055,5.0271-3.3233,7.5317-2.8081a9.7434,9.7434,0,0,1,2.4512,1.0977l4.0965,2.1537,22.958,12.07c.7139.3753,1.422.7652,2.143,1.1267a7.8656,7.8656,0,0,0,11.492-8.4086c-.1079-.681-.2333-1.36-.35-2.0394l-4.3672-25.4624c-.38-2.2154-.9413-4.4768-1.1373-6.7181-.2564-2.9322,2.7448-5.005,4.6248-6.8375l18.7965-18.322c2.1186-2.0652,4.5193-3.97,4.955-7.1064a7.989,7.989,0,0,0-3.3447-7.6334,8.7725,8.7725,0,0,0-3.864-1.3479l-24.1025-3.5022c-2.9978-.4356-5.998-.857-8.9937-1.3069a4.9471,4.9471,0,0,1-3.9781-2.652c-.3565-.683-.6829-1.3837-1.0239-2.0745l-11.4513-23.203-2.8177-5.7091C754.8536,168.2832,751.8979,170.017,752.8712,171.9893Z"/><path class="cls-2" d="M915.5663,171.1247l15.3023,31.0058a6.1569,6.1569,0,0,0,4.6359,3.3682l34.217,4.9721a6.1571,6.1571,0,0,1,3.4124,10.5022l-24.76,24.1347a6.1569,6.1569,0,0,0-1.7708,5.45l5.8449,34.0787a6.1571,6.1571,0,0,1-8.9337,6.4907l-30.6046-16.09a6.1568,6.1568,0,0,0-5.73,0l-30.6045,16.09a6.1572,6.1572,0,0,1-8.9338-6.4907l5.8449-34.0787a6.1571,6.1571,0,0,0-1.7707-5.45l-24.76-24.1347a6.1571,6.1571,0,0,1,3.4124-10.5022l34.2169-4.9721a6.1572,6.1572,0,0,0,4.636-3.3682l15.3022-31.0058A6.1572,6.1572,0,0,1,915.5663,171.1247Z"/><path d="M914.0872,171.9893l8.9695,18.1741,5.2093,10.5552c.3637.7369.7138,1.4824,1.0917,2.2121a7.96,7.96,0,0,0,5.7208,4.224c6.9281,1.1669,13.9231,2.0232,20.8755,3.0334l11.2585,1.636c.6809.0989,1.3655.1838,2.0442.297a4.5478,4.5478,0,0,1,4.03,4.5285c-.0214,2.5043-2.58,4.2971-4.2194,5.8953L959.9,231.4811l-9.3259,9.09c-1.9425,1.8935-4.4149,3.7862-5.3473,6.4134-.9371,2.6408.04,5.8674.5,8.5483l2.1894,12.7648,2.1779,12.6985c.4045,2.358,1.4505,5.3444-.21,7.4344a4.5088,4.5088,0,0,1-5.6071,1.1635c-.7867-.3874-1.5553-.8176-2.3314-1.2256l-10.669-5.6091-11.9546-6.2849c-2.0216-1.0628-4.02-2.264-6.1157-3.1791a8.1513,8.1513,0,0,0-7.1625.4048c-.9226.4774-1.8391.9669-2.7586,1.45l-10.95,5.7569-11.8431,6.2263-3.7421,1.9673a7.1056,7.1056,0,0,1-2.6733,1.0224,4.5151,4.5151,0,0,1-4.7841-5.0321c.07-.6026.2067-1.205.3092-1.8026l1.9031-11.096c1.2065-7.0345,2.5035-14.06,3.62-21.1093a8.161,8.161,0,0,0-2.22-7.2079c-.5214-.5332-1.07-1.0427-1.6037-1.5632l-8.27-8.0615c-4.9487-4.8239-10.011-9.5558-14.8576-14.4826a4.5159,4.5159,0,0,1-.4794-5.9,5.1087,5.1087,0,0,1,3.6373-1.82l9.1774-1.3336,23.685-3.4416a8.6412,8.6412,0,0,0,6.8479-4.9711l4.294-8.7007,10.4087-21.09a5.1785,5.1785,0,0,1,2.4967-2.744,4.5315,4.5315,0,0,1,5.8456,2.2219c1.0231,1.9539,3.9808.224,2.9582-1.7291a7.9371,7.9371,0,0,0-14.01.0191c-1.1315,2.1761-2.1734,4.4038-3.2588,6.6031l-11.2768,22.8492a19.0627,19.0627,0,0,1-1.1076,2.1519,5.2305,5.2305,0,0,1-3.9482,2.0632L873.649,205.37c-7.7738,1.13-15.5512,2.237-23.3218,3.3888a7.9579,7.9579,0,0,0-6.5266,10.3584c.895,2.5614,3.34,4.4275,5.2283,6.2683l18.7965,18.3221c1.8356,1.7893,4.3416,3.554,4.001,6.4424-.2973,2.5214-.8644,5.04-1.2935,7.5417l-4.2921,25.0249a21.1845,21.1845,0,0,0-.3989,2.764,7.9282,7.9282,0,0,0,5.099,7.5588c3.465,1.354,6.3716-.3664,9.3232-1.9181l23.1627-12.1774c2.1028-1.1055,5.0271-3.3233,7.5317-2.8081a9.7434,9.7434,0,0,1,2.4512,1.0977l4.0965,2.1537,22.958,12.07c.7139.3753,1.422.7652,2.1431,1.1267a7.8656,7.8656,0,0,0,11.4919-8.4086c-.1078-.681-.2333-1.36-.35-2.0394l-4.3672-25.4624c-.38-2.2154-.9413-4.4768-1.1373-6.7181-.2564-2.9322,2.7448-5.005,4.6248-6.8375l18.7965-18.322c2.1186-2.0652,4.5193-3.97,4.9551-7.1064a7.9893,7.9893,0,0,0-3.3448-7.6334,8.7725,8.7725,0,0,0-3.864-1.3479L945.31,205.2057c-2.9978-.4356-5.998-.857-8.9937-1.3069a4.9473,4.9473,0,0,1-3.9781-2.652c-.3565-.683-.6829-1.3837-1.0239-2.0745l-11.4513-23.203-2.8176-5.7091C916.07,168.2832,913.1139,170.017,914.0872,171.9893Z"/><path class="cls-2" d="M427.7845,171.1247l15.3023,31.0058a6.157,6.157,0,0,0,4.636,3.3682l34.2169,4.9721a6.1571,6.1571,0,0,1,3.4124,10.5022l-24.76,24.1347a6.1575,6.1575,0,0,0-1.7708,5.45l5.845,34.0787a6.1572,6.1572,0,0,1-8.9338,6.4907l-30.6045-16.09a6.1568,6.1568,0,0,0-5.73,0l-30.6046,16.09a6.1572,6.1572,0,0,1-8.9338-6.4907l5.845-34.0787a6.1569,6.1569,0,0,0-1.7708-5.45l-24.76-24.1347a6.1571,6.1571,0,0,1,3.4124-10.5022l34.2169-4.9721a6.157,6.157,0,0,0,4.636-3.3682l15.3023-31.0058A6.1572,6.1572,0,0,1,427.7845,171.1247Z"/><path d="M426.3055,171.9893l8.9695,18.1741,5.2093,10.5552c.3636.7369.7137,1.4824,1.0917,2.2121a7.96,7.96,0,0,0,5.7207,4.224c6.9281,1.1669,13.9231,2.0232,20.8755,3.0334l11.2586,1.636c.6808.0989,1.3655.1838,2.0441.297a4.5478,4.5478,0,0,1,4.03,4.5285c-.0213,2.5043-2.58,4.2971-4.2193,5.8953l-9.1676,8.9362-9.3259,9.09c-1.9425,1.8935-4.415,3.7862-5.3473,6.4134-.9371,2.6408.0405,5.8674.5,8.5483l2.1893,12.7648,2.178,12.6985c.4044,2.358,1.45,5.3444-.21,7.4344a4.5089,4.5089,0,0,1-5.6072,1.1635c-.7867-.3874-1.5552-.8176-2.3313-1.2256L443.4954,282.76l-11.9545-6.2849c-2.0216-1.0628-4.0205-2.264-6.1158-3.1791a8.1513,8.1513,0,0,0-7.1625.4048c-.9225.4774-1.8391.9669-2.7585,1.45l-10.95,5.7569-11.8431,6.2263-3.7421,1.9673a7.1058,7.1058,0,0,1-2.6732,1.0224,4.5151,4.5151,0,0,1-4.7841-5.0321c.07-.6026.2067-1.205.3092-1.8026l1.9031-11.096c1.2065-7.0345,2.5035-14.06,3.62-21.1093a8.1608,8.1608,0,0,0-2.22-7.2079c-.5214-.5332-1.07-1.0427-1.6036-1.5632l-8.27-8.0615c-4.9488-4.8239-10.0111-9.5558-14.8577-14.4826a4.5161,4.5161,0,0,1-.4794-5.9,5.1089,5.1089,0,0,1,3.6373-1.82l9.1774-1.3336,23.6851-3.4416a8.6412,8.6412,0,0,0,6.8478-4.9711l4.2941-8.7007,10.4086-21.09a5.1789,5.1789,0,0,1,2.4967-2.744,4.5316,4.5316,0,0,1,5.8457,2.2219c1.023,1.9539,3.9807.224,2.9581-1.7291a7.937,7.937,0,0,0-14.01.0191c-1.1315,2.1761-2.1734,4.4038-3.2589,6.6031l-11.2767,22.8492a19.0957,19.0957,0,0,1-1.1076,2.1519,5.2309,5.2309,0,0,1-3.9483,2.0632l-9.7946,1.4233c-7.7738,1.13-15.5512,2.237-23.3217,3.3888a7.958,7.958,0,0,0-6.5267,10.3584c.895,2.5614,3.34,4.4275,5.2284,6.2683l18.7965,18.3221c1.8356,1.7893,4.3415,3.554,4.001,6.4424-.2973,2.5214-.8645,5.04-1.2935,7.5417l-4.2921,25.0249a21.1848,21.1848,0,0,0-.399,2.764,7.9281,7.9281,0,0,0,5.0991,7.5588c3.465,1.354,6.3716-.3664,9.3231-1.9181l23.1627-12.1774c2.1028-1.1055,5.0271-3.3233,7.5318-2.8081a9.7411,9.7411,0,0,1,2.4511,1.0977l4.0965,2.1537,22.9581,12.07c.7138.3753,1.422.7652,2.143,1.1267a7.8656,7.8656,0,0,0,11.4919-8.4086c-.1078-.681-.2332-1.36-.35-2.0394l-4.3671-25.4624c-.38-2.2154-.9414-4.4768-1.1373-6.7181-.2564-2.9322,2.7448-5.005,4.6247-6.8375l18.7965-18.322c2.1186-2.0652,4.5194-3.97,4.9551-7.1064a7.9892,7.9892,0,0,0-3.3447-7.6334,8.7729,8.7729,0,0,0-3.8641-1.3479l-24.1024-3.5022c-2.9978-.4356-5.9981-.857-8.9937-1.3069a4.9473,4.9473,0,0,1-3.9782-2.652c-.3565-.683-.6829-1.3837-1.0238-2.0745l-11.4514-23.203-2.8176-5.7091C428.2879,168.2832,425.3321,170.017,426.3055,171.9893Z"/><polyline class="cls-3" points="183.539 410.317 201.625 415.484 193.357 464.572 165.454 460.955"/><path d="M183.0841,411.9688l18.0851,5.1672-1.1963-2.1072-2.7873,16.55-4.45,26.4192-1.0306,6.12,1.6517-1.2576-24.476-3.1728-3.4268-.4442c-.9252-.12-1.7041.8733-1.7129,1.7129a1.7543,1.7543,0,0,0,1.7129,1.7129l24.4761,3.1728,3.4267.4442a1.7036,1.7036,0,0,0,1.6517-1.2575l2.7873-16.55,4.45-26.4192,1.0306-6.1194a1.7575,1.7575,0,0,0-1.1963-2.1071l-18.0852-5.1672c-2.1237-.6068-3.03,2.6979-.9107,3.3035Z"/><path class="cls-4" d="M252.78,287.3382h-34.317a83.9246,83.9246,0,0,0-26.7586,4.38L59.8076,336.0871a51.0968,51.0968,0,0,0-32.1389,32.14v0a51.0967,51.0967,0,0,0,15.3189,55.2069l50.5979,38.3548c13.0788,9.9142,43.5887,16.75,59.4676,12.6015L183.54,463.539l9.8176-50.6384-.723-.4392a22.7432,22.7432,0,0,1-5.6033-4.913c-5.7271-6.8552-16.993-12.0371-25.1792-13.8278l-18.6161-4.0723,84.225-19.6353L252.78,302.84"/><path d="M252.78,285.6252H231.0482c-10.0087,0-19.9495-.2593-29.8274,1.7571a127.7084,127.7084,0,0,0-15.1445,4.4242l-17.6551,5.939L142.88,306.3374l-28.5515,9.6045-26.5859,8.9432L67.7,331.6271c-2.7734.933-5.55,1.858-8.32,2.7989a52.796,52.796,0,0,0-31.8875,70.7026,52.6673,52.6673,0,0,0,13.13,18.5048c1.3918,1.2576,2.9151,2.3518,4.4088,3.4841l19.7057,14.9376,21.8937,16.5962,5.6034,4.2475a51.4127,51.4127,0,0,0,10.286,5.9367,99.5417,99.5417,0,0,0,19.9934,6.3278,91.5557,91.5557,0,0,0,20.8045,2.1564,37.0831,37.0831,0,0,0,11.5651-1.7672l11.184-3.9808,13.2076-4.701,3.9886-1.42c.8506-.3027,1.6669-.5583,1.947-1.5561.5725-2.04.8205-4.2323,1.2233-6.31l2.4889-12.8372,5.1546-26.5871.9315-4.8046a1.7776,1.7776,0,0,0-.7871-1.9344,23.5884,23.5884,0,0,1-5.71-4.7664,35.7247,35.7247,0,0,0-5.5189-5.164,54.5756,54.5756,0,0,0-14.4476-7.5956c-5.6987-2.055-11.8111-3.0458-17.7138-4.337l-7.1407-1.562V391.3l24.9234-5.81L211.67,375.4521l13.79-3.2149a23.9722,23.9722,0,0,0,2.41-.5618c1.1175-.3883,1.3666-1.5378,1.7424-2.5347l12.7317-33.7781,11.8784-31.5141.2086-.5534c.7785-2.0654-2.5319-2.9578-3.3035-.9108l-8.5417,22.6619-13.6294,36.1595-3.148,8.352,1.1963-1.1964-8.4042,1.9593-20.0563,4.6757L174.1664,380.68l-20.9805,4.8912c-3.3994.7925-6.9121,1.4031-10.2614,2.3922-.0471.0139-.0965.0225-.1444.0337a1.7261,1.7261,0,0,0,0,3.3035l15.4764,3.3854c7.6613,1.6759,14.9684,4.1778,21.4926,8.67a33.5167,33.5167,0,0,1,6.34,5.7217,26.6758,26.6758,0,0,0,6.4032,5.3021l-.7872-1.9344-3.32,17.1219-5.2881,27.2757-1.21,6.2407,1.1964-1.1964-16.9985,6.05-10.5388,3.751a32.9181,32.9181,0,0,1-6.9015,1.8217,66.63,66.63,0,0,1-16.4225-.1931,104.527,104.527,0,0,1-18.0992-3.8313c-7.467-2.2644-14.6043-5.3336-20.8433-10.063L79.0677,448.6493,58.7739,433.2659,44.863,422.721c-7.3171-5.5466-12.9324-14.2091-15.7689-23.0577A49.3826,49.3826,0,0,1,59.736,337.92c2.0272-.7066,4.0694-1.3725,6.1042-2.057l14.9873-5.0416,21.1406-7.1115,24.3616-8.195,24.3466-8.19,21.1844-7.1263,14.824-4.9867c2.196-.7387,4.3859-1.5006,6.5922-2.2085a82.4186,82.4186,0,0,1,24.2449-3.9467c2.0387-.0229,4.0783-.0053,6.1171-.0053H252.78a1.714,1.714,0,0,0,0-3.4259Z"/><path d="M350.127,457.2184s4.4461,25.9559-25.5235,23.3723c-33.07-2.5836-124.5666-2.489-124.5666-2.489s-10.9782,7.081-5.47-23.3761S252.78,422.2015,252.78,422.2015"/><path d="M348.4753,457.6738c.082.483-.0282-.34-.0045-.0557.0275.3308.0735.66.0992.9914a26.729,26.729,0,0,1,.0411,3.4349,19.9214,19.9214,0,0,1-2.58,9.1162,16.1124,16.1124,0,0,1-10.2553,7.1188c-5.5436,1.3649-11.2524.5457-16.8691.2116-11.2749-.6707-22.5723-.9818-33.8628-1.246q-19.5326-.4569-39.0707-.6224-16.0989-.1626-32.1986-.2118-4.968-.0162-9.9358-.0212c-1.244-.0011-2.5585-.1233-3.7987-.0008a2.8687,2.8687,0,0,0-.9865.3039c-.1364.0651-.6579.31-.3157.1667.36-.151-.0491.0194-.1549.0506-.1574.0463-.3173.0886-.4741.1364-.2526.077-.5859.0474-.0455.0275-.1778.0066-.3609.0159-.5384.0275-.0875.0058-.1754-.0151-.2626-.0146-.2389.0014.4766.133.1219.0132-.174-.0587-.3626-.1025-.5393-.1556.5855.1759-.003-.04-.1934-.1388-.3343-.1729.1688.166.0194.0232-.095-.0909-.1953-.1743-.2869-.2691-.087-.09-.1662-.1852-.2474-.28-.0039-.0046.1754.2775,0-.0179-.1656-.2787-.3258-.5519-.4684-.8438-.1808-.37.0677.2237-.0756-.1887-.0621-.1785-.1257-.3556-.1818-.5362a13.0145,13.0145,0,0,1-.33-1.3214,31.1569,31.1569,0,0,1-.2462-7.5584,74.2522,74.2522,0,0,1,1.6347-11.8645,26.7578,26.7578,0,0,1,7.2771-12.8908c7.2186-7.2536,17.3309-11.1562,27.0626-13.6782a110.4523,110.4523,0,0,1,20.862-3.4023c.369-.0243.7383-.048,1.1078-.0627,2.1971-.0873,2.2083-3.5136,0-3.4259a107.557,107.557,0,0,0-16.5408,2.1432c-10.2576,2.0339-20.7688,5.32-29.3919,11.402a35.4773,35.4773,0,0,0-10.8594,11.6388,28.4354,28.4354,0,0,0-2.9016,7.7318A84.614,84.614,0,0,0,191.4,465.97c-.24,4.0176-.491,9.4831,2.3453,12.7692a5.2712,5.2712,0,0,0,5.6495,1.5068,4.3182,4.3182,0,0,0,1.4657-.64c.2511-.2173-1.1971.1086-.7148.2084a2.9668,2.9668,0,0,0,.5591,0q3.3008-.001,6.6017.0059,14.61.0264,29.2207.1432,19.7618.1571,39.5213.5159c12.3463.2388,24.6961.5349,37.0313,1.1268,5.2464.2517,10.55.9071,15.8.8776,5.8338-.0327,11.8326-1.3223,16.3832-5.1628,5.3758-4.537,7.294-12.0658,6.7211-18.8645-.0476-.5654-.11-1.1339-.2047-1.6933-.3681-2.169-3.67-1.2493-3.3035.9107Z"/><polyline class="cls-5" points="326.154 774.603 326.154 821.625 271.382 832.476 269.831 761.169"/><path d="M324.4407,774.6032v47.0213l1.2576-1.6517-18.4852,3.6621-29.487,5.8418-6.8,1.3472,2.1682,1.6517-.5238-24.0967-.8348-38.4026-.1915-8.8078c-.0479-2.2012-3.4739-2.209-3.4259,0l.5239,24.0967.8348,38.4026.1915,8.8078a1.7387,1.7387,0,0,0,2.1683,1.6517l18.4851-3.6621,29.4871-5.8418,6.8-1.3471a1.7279,1.7279,0,0,0,1.2575-1.6518V774.6032a1.7139,1.7139,0,0,0-3.4258,0Z"/><path d="M494.2389,695.8716V602.241c0-1.2679.0934-2.5762,0-3.8416-.004-.0542,0-.11,0-.1645a.8689.8689,0,0,0-.8565-.8565,17.54,17.54,0,0,1-14.8115-8.25,18.28,18.28,0,0,1-2.6032-9.7926V507.7262c0-1.3517.0971-2.7442,0-4.0934-.0043-.0592,0-.12,0-.18a.8689.8689,0,0,0-.8565-.8565h-58.81a.8689.8689,0,0,0-.8565.8565v77.6526l.8565-.8565H357.49a.857.857,0,0,0,0,1.713h58.81a.8689.8689,0,0,0,.8564-.8565V503.453l-.8564.8564h58.81l-.8564-.8564v75.6657a20.9373,20.9373,0,0,0,1.8221,8.9932,19.2263,19.2263,0,0,0,13.1475,10.5242,19.48,19.48,0,0,0,4.158.4552l-.8564-.8564v93.6306c0,1.2679-.0935,2.5762,0,3.8416.004.0542,0,.11,0,.1645a.857.857,0,0,0,1.7129,0Z"/><path d="M489.3856,541.9938h42.2522l-.8565-.8565v93.64a.8689.8689,0,0,0,.8565.8564h11.131c3.6715,0,7.5216.3378,11.179-.0912A12.7093,12.7093,0,0,0,565.04,623.011c.0615-3.808,0-7.622,0-11.43V599.3768l-.8564.8565h58.81l-.8565-.8565v58.8105a.8689.8689,0,0,0,.8565.8564H641.265a.8689.8689,0,0,0,.8565-.8564V543.9922l-.8565.8565h39.3973l-.8565-.8565v90.7851a.8689.8689,0,0,0,.8565.8564H714.35l-.8564-.8564v34.2585a.8688.8688,0,0,0,.8564.8564h41.11a.8689.8689,0,0,0,.8565-.8564v-46.249l-.8565.8565a28.5619,28.5619,0,0,0,28.2633-28.3171c.061-9.0538,0-18.11,0-27.1641V557.1246l-.8565.8565h62.5218a.857.857,0,0,0,0-1.7129H782.8668a.8689.8689,0,0,0-.8564.8564v37.08a28.0879,28.0879,0,0,1-4.2755,15.631A26.7325,26.7325,0,0,1,755.46,621.93a.8689.8689,0,0,0-.8564.8565v46.249l.8564-.8565H714.35l.8565.8565V634.7773a.8689.8689,0,0,0-.8565-.8565H680.6623l.8565.8565V543.9922a.8689.8689,0,0,0-.8565-.8564H641.265a.8689.8689,0,0,0-.8565.8564V658.1873l.8565-.8565H622.9938l.8565.8565V599.3768a.8689.8689,0,0,0-.8565-.8565h-58.81a.8689.8689,0,0,0-.8565.8565V621.81a13.93,13.93,0,0,1-.7572,5.2657,10.9563,10.9563,0,0,1-7.9,6.6255c-3.4356.7094-7.3683.2193-10.8419.2193h-12.19l.8564.8565v-93.64a.8688.8688,0,0,0-.8564-.8564H489.3856a.857.857,0,0,0,0,1.7129Z"/><polyline class="cls-5" points="262.394 287.338 263.35 240.003 303.502 255.462 304.756 286.539"/><path d="M264.1069,287.3382l.3219-15.9479.516-25.5566.1178-5.8312-2.1683,1.6518,13.5557,5.2192,21.6185,8.3234,4.9783,1.9167-1.2576-1.6517,1.099,27.25.1544,3.8266c.0886,2.197,3.5149,2.2083,3.4258,0l-1.099-27.25-.1543-3.8266a1.7887,1.7887,0,0,0-1.2576-1.6518l-13.5558-5.2191-21.6184-8.3235-4.9783-1.9167a1.7264,1.7264,0,0,0-2.1683,1.6517l-.322,15.9479-.516,25.5566-.1177,5.8312c-.0445,2.2053,3.3813,2.2052,3.4259,0Z"/><path class="cls-5" d="M296.8289,261.7629a77.6105,77.6105,0,0,0,10.7481,1.5239,10.2,10.2,0,0,0,3.3054-.2973c15.351-3.9791,21.4974-18.3705,23.4842-33.65h1.4664c4.8315.6808,6.6658-.5012,6.108-3.5362-4.3765-4.7814-6.2193-7.4475-6.6988-10.9l-.1187-2.237a155.1611,155.1611,0,0,0-3.0742-26.6426l-77.0756-2.7588s-10.0117,16.4948-9.2756,24.0915c1.2673,13.0823,14.0142,22.4508,17.5349,39.3175"/><path d="M296.3735,263.4146c2.3968.5122,4.8136.9039,7.2464,1.2a21.332,21.332,0,0,0,7.7179.0268,27.8271,27.8271,0,0,0,10.0183-4.764c5.8853-4.4343,9.6467-10.8877,11.9476-17.7952A68.6583,68.6583,0,0,0,336.08,229.34l-1.7129,1.7129c2.9366,0,7.2808,1.0567,8.9316-2.2372a4.7114,4.7114,0,0,0,.446-2.2724c-.0516-1.5254-.8977-2.2682-1.86-3.3583a27.22,27.22,0,0,1-3.9382-5.3461,9.8588,9.8588,0,0,1-.7981-2.0955,8.8128,8.8128,0,0,1-.2145-1.0313c.048.363-.0122-.446-.0191-.5751-.1143-2.1543-.1666-4.3106-.2992-6.4642-.3071-4.9866-.8614-9.9582-1.6174-14.8963-.369-2.4107-.7667-4.8267-1.2968-7.2082a1.7405,1.7405,0,0,0-1.6517-1.2576l-26.1277-.9352-41.3739-1.4809-9.574-.3426a1.7156,1.7156,0,0,0-1.479.8483c-1.3153,2.17-2.522,4.4126-3.672,6.6739a62.0183,62.0183,0,0,0-5.2425,12.9769c-2.4523,9.9081,4.1962,18.8765,9.09,26.8821,3.49,5.7089,6.5021,11.6063,7.9108,18.1961.4606,2.1548,3.7638,1.2429,3.3035-.9108A56.0835,56.0835,0,0,0,258.2391,229.9c-2.6185-4.5144-5.6426-8.8066-7.9731-13.4846-1.8108-3.6346-3.4449-7.949-2.6846-12.0653a48.3215,48.3215,0,0,1,4.5814-12.3126c1.324-2.6871,2.7368-5.3453,4.29-7.9082l-1.4791.8484,26.1277.9352,41.3739,1.4809,9.574.3427-1.6517-1.2576a133.162,133.162,0,0,1,2.5265,17.5862q.3453,4.0506.4728,8.115a24.6532,24.6532,0,0,0,.2782,3.7039c.7008,3.7974,3.3037,6.913,5.7867,9.7233a9.0387,9.0387,0,0,0,.6145.6883q.4474.6528.2728.1829-.0883-.3768-.0307.0647c-.0849.3886.072.41-.0837.7786.0479-.1131-.16.149-.1078.1126a2.0474,2.0474,0,0,1-.8123.2975c-1.597.31-3.3266-.105-4.948-.105a1.7651,1.7651,0,0,0-1.7129,1.713c-1.7026,12.8791-7.0224,27.1092-20.4959,31.4934a12.91,12.91,0,0,1-3.391.7564,26.7868,26.7868,0,0,1-4.0006-.2693,73.1234,73.1234,0,0,1-7.482-1.2088c-2.15-.4595-3.069,2.8422-.9107,3.3034Z"/><path class="cls-6" d="M288.5517,229.9854c-3.741-2.75-9.313-13.5136-9.4977-19.7777-.279-9.4635,4.7356-11.84,11.3456-12.0348s14.285,12.0767,14.5569,21.3l.4762-20a10.469,10.469,0,0,1,11.7167-10.1482l14.34.2465a8.1688,8.1688,0,0,0,7.4549-11.8045l-1.1813-2.3759a27.78,27.78,0,0,0-23.8946-15.3944l-38.692-1.3658A32.7033,32.7033,0,0,0,246.99,172.909l-9.2186,13.54s-19.47,32.5459,25.4271,72.0434c3.427-.1566,20.551-1.3882,26.0325-8.4757S288.5517,229.9854,288.5517,229.9854Z"/><path d="M289.4162,228.5064a16.11,16.11,0,0,1-3.241-3.98,41.6248,41.6248,0,0,1-3.2865-6.2862c-1.7072-4.0787-2.9067-8.6407-1.5887-13.0142.9778-3.2446,3.6944-4.7463,6.9013-5.1806a7.5,7.5,0,0,1,4.8043.538,14.9816,14.9816,0,0,1,4.5427,4.1231,26.7029,26.7029,0,0,1,5.6953,14.7664,1.7139,1.7139,0,0,0,3.4258,0l.2908-12.2144.16-6.7117a10.0318,10.0318,0,0,1,1.84-6.185,8.7728,8.7728,0,0,1,4.3238-3.0038,11.4119,11.4119,0,0,1,4.002-.3175c2.0534.0829,4.1153.0707,6.17.1061,4.8859.0839,10.7465,1.1285,14.7368-2.3523a9.95,9.95,0,0,0,2.9451-10.0958,23.3258,23.3258,0,0,0-1.711-3.8,30.2965,30.2965,0,0,0-2.6439-4.4137,29.8494,29.8494,0,0,0-21.2673-12.0927c-2.948-.28-5.9441-.2593-8.9008-.3637l-16.4186-.5795-13.26-.4681a37.6618,37.6618,0,0,0-16.1279,2.5705,36.1777,36.1777,0,0,0-15.98,13.4973l-8.0672,11.8486c-2.3023,3.3815-3.45,7.7217-4.1545,11.69-1.9418,10.9407.1812,22.0726,4.8314,32.0752a85.42,85.42,0,0,0,14.3051,20.981q2.5486,2.8228,5.281,5.4723,1.3638,1.3269,2.7663,2.6132c.9157.8406,2.0955,2.3838,3.4088,2.4762a34.1079,34.1079,0,0,0,6.6543-.6348c6.3937-.8635,13.5094-2.2781,18.6615-6.4193,5.7611-4.6307,5.2848-12.6323,3.3766-19.06a34.7521,34.7521,0,0,0-1.86-4.97c-.9427-1.9915-3.8972-.2548-2.9581,1.7291.0618.1305.12.2626.1781.3947a1.0574,1.0574,0,0,1,.0805.1887c.1119.2762.2229.5526.3292.8311a37.2636,37.2636,0,0,1,1.3161,4.1518c.8574,3.3923,1.3711,7.3044.0044,10.6376-1.2509,3.0508-4.25,4.8421-7.1637,6.0632a46.994,46.994,0,0,1-10.5038,2.797,69.93,69.93,0,0,1-8.1147.8651l1.2113.5017c-10.83-9.5609-20.8012-21.0212-25.8482-34.76a52.0019,52.0019,0,0,1-3.1418-13.98,47.3641,47.3641,0,0,1-.0711-6.0479,38.5322,38.5322,0,0,1,.532-4.8316,39.8,39.8,0,0,1,2.0348-7.475c.0812-.2113.1664-.4208.25-.6311.2254-.5673-.1.2.1143-.2707.1376-.303.271-.6075.4157-.9072.1629-.3375.3263-.6808.52-1.0026,1.3685-2.2781,3.01-4.43,4.505-6.6257,2.0549-3.0181,3.9786-6.2426,6.3092-9.0622A31.4032,31.4032,0,0,1,267.93,160.9246a41.9793,41.9793,0,0,1,9.9982-.4834l25.3885.8962,9.5386.3367a27.61,27.61,0,0,1,12.8451,3.3844,26.3889,26.3889,0,0,1,7.6238,6.5015,36.6252,36.6252,0,0,1,4.0612,6.9111,6.5233,6.5233,0,0,1-.7706,7.0473,6.7282,6.7282,0,0,1-5.554,2.333c-3.9659-.0581-7.9317-.1363-11.8974-.2045a34.0377,34.0377,0,0,0-4.7289-.01,12.2669,12.2669,0,0,0-8.3024,4.82c-2.5227,3.3552-2.4173,7.22-2.5114,11.172l-.3125,13.1276-.0647,2.7171h3.4258a29.9835,29.9835,0,0,0-5.6223-15.7578c-2.7-3.8178-6.4846-7.522-11.4883-7.2177-4.2264.2571-8.58,1.6515-10.6756,5.6388-2.4364,4.6361-1.7244,10.3246-.0436,15.0738a45.1046,45.1046,0,0,0,4.0352,8.4977,20.3763,20.3763,0,0,0,4.8123,5.7568,1.7249,1.7249,0,0,0,2.3436-.6145A1.7532,1.7532,0,0,0,289.4162,228.5064Z"/><path d="M299.6744,220.0577a40.4423,40.4423,0,0,0-1.7739-4.7414c-1.0463-2.4014-2.3715-5.0208-4.4581-6.6858a5.235,5.235,0,0,0-4.57-1.2131,1.7133,1.7133,0,1,0,.9107,3.3034c.0533-.0127.1134-.0211.1663-.037.2464-.0744-.18.0417-.2076.0247.0483.03.2647-.0151.3268-.0142.0521.0008.1094.01.1619.0073.2471-.0106-.19-.0132-.2146-.0331.0731.0582.3.0623.3959.0909.0508.0152.1043.0389.1563.0512.2429.0575-.161-.05-.1768-.0808.0256.05.2522.1207.3057.15.1026.0555.2027.1157.3007.179.05.0324.0984.0674.1485.1.2578.1674-.0074.1052-.0537-.0481.0435.1438.4536.3962.57.5121.2037.203.3963.4168.5806.6374.08.0963.3789.5229.0935.1088.0818.1186.1722.2318.2554.35q.2722.3845.5212.7845a26.4864,26.4864,0,0,1,1.7422,3.3449c.058.131.114.263.1717.3943.1176.2672-.036-.09-.0492-.1182.0289.0621.0536.1279.08.1914.1126.2755.2241.5513.3317.8287q.2626.6768.5026,1.3622c.1693.4839.3347.9705.4791,1.4626a1.7133,1.7133,0,0,0,3.3034-.9108Z"/><path d="M329.457,203.1865a14.6321,14.6321,0,0,0-5.0722-2.0412,16.5763,16.5763,0,0,0-11.664,1.8069c-1.9273,1.0714-.2015,4.0314,1.7291,2.9581a13.0447,13.0447,0,0,1,5.1013-1.6775,12.6638,12.6638,0,0,1,4.2734.2963,15.4757,15.4757,0,0,1,1.7206.5232c.1352.05.2683.1057.4035.1552.3114.1137-.1583-.0736.0228.0083.1984.09.3968.1783.5922.2743a9.3774,9.3774,0,0,1,1.1643.6545,1.7132,1.7132,0,1,0,1.729-2.9581Z"/><circle cx="323.3471" cy="213.6874" r="2.6988"/><path d="M319.7921,213.6452a3.6088,3.6088,0,0,0,2.32,3.3725,3.5539,3.5539,0,0,0,3.91-.9927,3.5531,3.5531,0,1,0-6.23-2.38.8638.8638,0,0,0,.8565.8565.8736.8736,0,0,0,.8565-.8565c.0022-.0751.01-.15.0127-.2248-.0056.1644-.01.0526,0,.0082.0263-.1188.0514-.2362.089-.3519.01-.03.101-.2467.0169-.0625.02-.0431.04-.086.0618-.1281a2.8732,2.8732,0,0,1,.2228-.36c-.1027.1432-.0116.0153.0206-.0182.0406-.0423.0787-.0866.12-.128q.05-.05.1021-.0964c.0245-.022.2079-.1559.0454-.0427a3.1243,3.1243,0,0,1,.2982-.1878c.0417-.0226.0844-.0424.1263-.0643q.1332-.06-.0083.0024.05-.0194.1011-.0361c.1165-.0326.23-.0689.3492-.0917.05-.01.2086-.0175.0267-.006.0621-.0039.1238-.0093.1861-.0109s.1257-.0013.1886.0014c-.0013,0,.2437.0176.109.0045-.1318-.0128.102.02.104.02q.1067.0227.2112.0535c.0691.02.1365.0448.2041.07-.0313-.0115-.15-.0743-.0082-.0012a3.391,3.391,0,0,1,.308.1742s.1861.1352.0848.0565.0752.0675.0755.0677a3.0323,3.0323,0,0,1,.2892.3062c-.1074-.1285-.0273-.036-.0079-.0042.0367.06.0774.1177.1128.179.0235.0408.046.0824.0674.1244.0156.0308.0956.2436.029.0553a3.2664,3.2664,0,0,1,.1053.3436c.0111.0473.02.0949.0293.1425.0334.1666-.0049-.1226.0071.1022.006.1134-.0018.2253-.0027.3384-.0019.2361.0411-.1623-.0064.0662-.01.0478-.0187.0955-.03.143a3.0458,3.0458,0,0,1-.1071.3442c.0691-.1881-.0153.0258-.03.0553q-.0486.0945-.1046.1848c-.03.0489-.0717.0959-.0979.1467-.0569.1109.1276-.1327-.0178.0206-.081.0855-.1576.1718-.2456.2507-.0009.0008-.1789.1429-.0762.0669s-.0854.0555-.0853.0554a2.6848,2.6848,0,0,1-.3729.2021c.0323-.0143.1563-.0538.0056-.0074-.0688.0212-.1364.0449-.2061.0632q-.07.0185-.1412.0331c-.0034.0007-.2348.03-.1032.0192.1354-.0107-.1087.0036-.1079.0036-.0628.0025-.1255.0025-.1883.0007s-.1247-.0071-.1872-.0117c.196.0145-.0177-.0045-.0636-.0142a2.968,2.968,0,0,1-.4153-.1231c.1666.0612.0184.0084-.0236-.0146-.0726-.04-.1461-.0767-.2166-.12-.04-.0248-.0781-.0524-.118-.0774q-.1171-.0851.0047.0069-.0546-.0444-.1066-.0917c-.0872-.079-.1646-.1658-.2443-.252-.1512-.1634.079.14-.037-.05-.0368-.06-.0774-.1176-.1127-.179s-.066-.125-.0988-.188c-.082-.1574.0309.128-.0223-.0588-.04-.14-.08-.2757-.11-.419-.01-.0472-.0017-.1526.0009.0091-.0016-.1-.0119-.199-.0117-.2992a.8565.8565,0,0,0-1.713,0Z"/><path class="cls-6" d="M275.3069,158.6l70.2272,1.2108s19.6636,38.92-44.5207,37.5526c7.1615-9.9491,8.0963-16.57,8.0963-16.57s-7.6461,7.5-12.4234,6.0511c2.4787-1.0893,7.1615-9.9492,7.1615-9.9492"/><path d="M275.3069,160.3129l23.8129.4106,37.6854.65,8.7289.15-1.4791-.8484a2.1883,2.1883,0,0,1,.1284.2687,3.1583,3.1583,0,0,0,.1316.2908c.1776.3851.1226.2956.0423.0921.3642.9227.711,1.847,1.002,2.7962a31.9964,31.9964,0,0,1,.9634,4.053c.03.1783.0567.357.0855.5355.0175.1086.0317.2177.0473.3266-.0049-.0344-.0539-.4259-.0172-.1248.0527.4327.1.8656.1352,1.3.0682.8479.0974,1.6991.0821,2.55q-.0115.6451-.0574,1.289-.0246.3423-.0592.6838c-.0148.1452-.116.9064-.0456.4217a21.4366,21.4366,0,0,1-.5533,2.66q-.1965.7072-.4447,1.3987c-.0765.213-.1579.424-.2407.6345-.0333.0849-.0681.1693-.1033.2534.1686-.4035-.07.1522-.1036.2227a20.698,20.698,0,0,1-1.4592,2.6175,21.758,21.758,0,0,1-4.519,4.7221,30.7621,30.7621,0,0,1-7.4859,4.0423c-9.6535,3.67-20.3583,4.1455-30.57,3.9416l1.4791,2.5775a57.4457,57.4457,0,0,0,6.86-12.3064,21.5075,21.5075,0,0,0,1.4093-4.6732c.2319-1.5979-1.5318-2.9668-2.8629-1.6666a29.2673,29.2673,0,0,1-3.8442,3.1443c-1.8355,1.2644-4.549,3.11-6.9126,2.4662l.4092,3.1308c2.1944-1.0606,3.7251-3.7975,4.9779-5.7658.9933-1.5607,1.9319-3.1627,2.7981-4.7978,1.0314-1.9471-1.9246-3.68-2.9582-1.7291-.781,1.4745-1.6238,2.92-2.5069,4.3355a37.4055,37.4055,0,0,1-2.1056,3.1061,6.9581,6.9581,0,0,1-1.9344,1.893,1.7307,1.7307,0,0,0,.4092,3.1308c3.1836.8672,6.492-.7843,9.0894-2.499a33.9372,33.9372,0,0,0,5-3.9926l-2.8629-1.6665a20.996,20.996,0,0,1-1.3178,4.4381,53.7013,53.7013,0,0,1-6.6058,11.7231,1.7263,1.7263,0,0,0,1.479,2.5775c9.823.1961,20.04-.28,29.4533-3.35,5.5371-1.8055,11.0218-4.6493,14.7446-9.25,5.1069-6.3111,5.821-14.6072,3.7464-22.2443a28.2445,28.2445,0,0,0-1.9445-5.2861,1.7058,1.7058,0,0,0-1.4791-.8483l-23.8129-.4106-37.6855-.65-8.7288-.15c-2.2054-.038-2.2057,3.3879,0,3.4259Z"/><circle class="cls-6" cx="233.8365" cy="175.8541" r="31.1785"/><path d="M263.302,175.8541a29.3539,29.3539,0,1,1-.3364-4.5346,29.7416,29.7416,0,0,1,.3364,4.5346,1.714,1.714,0,0,0,3.4259,0,32.9425,32.9425,0,1,0-.4318,5.2772,35.6306,35.6306,0,0,0,.4318-5.2772A1.714,1.714,0,0,0,263.302,175.8541Z"/><path d="M283.9977,227.4241a14.6346,14.6346,0,0,0,14.77,6.6873,1.7233,1.7233,0,0,0,1.1964-2.1071,1.7593,1.7593,0,0,0-2.1071-1.1964q.196-.0306-.1249.01-.1895.0192-.3794.033-.37.0268-.7414.0332a12.6825,12.6825,0,0,1-1.4123-.0543q-.17-.016-.3384-.0368.2664.036-.0411-.01c-.2141-.04-.4285-.0763-.6414-.1232q-.5388-.1185-1.0653-.2855-.2905-.0921-.5762-.1985c-.0665-.0247-.6416-.2716-.2776-.1065-.3465-.1571-.688-.3223-1.0213-.506q-.474-.2613-.9258-.56-.2161-.1429-.4268-.2938c-.0376-.0269-.439-.3265-.2288-.1653s-.1705-.1386-.2061-.168q-.18-.1482-.3547-.302-.3269-.2874-.6367-.5935-.5027-.4965-.957-1.0391c-.0558-.0669-.11-.1348-.1657-.2021-.1407-.1713-.1245-.3391.0639.0864a2.3419,2.3419,0,0,0-.2465-.3356c-.068-.0966-.1357-.1938-.1977-.2944-1.1549-1.8734-4.12-.1547-2.9581,1.7291Z"/><path class="cls-7" d="M268.2548,817.0983l.219,52.0643H384.0753s1.9712-32.8267-41.1959-36.2875a15.4189,15.4189,0,0,1-14.125-15.5529c.0227-2.2846.0476-4.1331.0726-5.6262a5.9913,5.9913,0,0,0-5.9933-6.09h-4.9476l-13.162,8.1212a20.9523,20.9523,0,0,1-22.1794-.109l-3.7481-2.3639A6.8746,6.8746,0,0,0,268.2548,817.0983Z"/><path d="M266.5418,817.0983l.0739,17.5635.118,28.0258.0272,6.475a1.7384,1.7384,0,0,0,1.7129,1.7129H369.8683c4.6548,0,9.35.1794,14.0023,0,.068-.0026.1366,0,.2047,0a1.7487,1.7487,0,0,0,1.7129-1.7129,31.8075,31.8075,0,0,0-2.5131-13.2318c-3.9527-9.8486-11.9446-16.8736-21.72-20.7469a56.342,56.342,0,0,0-10.6008-2.9746c-2.1535-.3949-4.3277-.69-6.5061-.9066a18.7649,18.7649,0,0,1-5.6424-1.1537,13.7987,13.7987,0,0,1-7.4466-7.7687,16.2432,16.2432,0,0,1-.8819-6.0108c.0227-2.1013.3211-4.4048-.1271-6.4742a7.8476,7.8476,0,0,0-7.82-6.002c-1.2586-.0084-2.5176,0-3.7762,0a3.6461,3.6461,0,0,0-1.9449.365c-4.0118,2.2649-7.87,4.856-11.7909,7.2753a23.0562,23.0562,0,0,1-7.6946,3.2663,19.238,19.238,0,0,1-13.208-2.2341c-2.04-1.1773-3.9328-2.7893-6.1575-3.6046a8.5929,8.5929,0,0,0-11.4163,8.1371c-.04,2.2054,3.3855,2.2056,3.4259,0a5.2335,5.2335,0,0,1,5.978-5.1464c2.0526.3371,3.995,2.0663,5.7194,3.1361a22.9614,22.9614,0,0,0,23.9792.0843c3.7376-2.2714,7.4452-4.5939,11.1673-6.89a9.7783,9.7783,0,0,0,1.7818-1.0994c.032-.0324.1148-.0474.1393-.086-.0726.1143-1.0422.0829-.708.2228a5.3264,5.3264,0,0,0,1.603,0c2.4844,0,5.3863-.42,6.8812,2.0816.979,1.6383.58,3.8154.5577,5.6368a26.7905,26.7905,0,0,0,.4179,6.3236,17.1286,17.1286,0,0,0,5.8624,9.4226c3.1777,2.5695,6.7156,3.529,10.7128,3.9071A65.3483,65.3483,0,0,1,355.6,836.7923c9.9927,2.81,18.888,8.7367,23.5064,18.13a34.0729,34.0729,0,0,1,2.9036,9.2216c.05.3028.0951.6063.1378.91-.0726-.5169.0395.3431.06.5389q.0789.7372.123,1.4779c.0356.61-.019,1.2422.04,1.8478a1.6272,1.6272,0,0,1-.009.2444l1.7129-1.7129H273.198a40.7771,40.7771,0,0,0-4.5195,0,1.8637,1.8637,0,0,1-.2047,0l1.713,1.7129-.0739-17.5635-.118-28.0258-.0272-6.475A1.714,1.714,0,0,0,266.5418,817.0983Z"/><path d="M229.1877,431.8105s-24.9629,4.8006-27.8432,19.2023,33.6039,17.762,33.6039,17.762"/><path d="M228.7324,430.1588a59.7137,59.7137,0,0,0-11.9975,3.8225c-6.3108,2.6955-13.0665,6.78-15.967,13.307-1.1973,2.6944-1.7941,5.72-.6952,8.5479a13.7274,13.7274,0,0,0,5.2361,6.0894c5.0311,3.5069,11.342,5.2511,17.2591,6.5617a100.2279,100.2279,0,0,0,12.38,2c2.1943.2034,2.18-3.2237,0-3.4258-.8843-.082-1.7663-.1942-2.6467-.31-.4238-.0557.2738.0377-.0049-.0007-.1155-.0159-.2312-.0315-.3467-.0479q-.2929-.0416-.5858-.0836-.8523-.1238-1.7025-.2606-1.8439-.2966-3.6776-.6538c-5.5813-1.09-11.3209-2.5027-16.3746-5.1827a23.7958,23.7958,0,0,1-3.1706-1.99,13.5619,13.5619,0,0,1-2.2617-2.2549,6.166,6.166,0,0,1-.9464-5.7937c1.7411-6.2716,7.9755-10.1969,13.5215-12.7832a56.0354,56.0354,0,0,1,12.8907-4.239c2.1624-.4182,1.2469-3.7208-.9107-3.3035Z"/><polyline class="cls-5" points="178.145 748.721 152.952 788.424 100.891 768.241 137.787 707.201"/><path d="M176.6659,747.8566l-8.5232,13.4323-13.5259,21.3164-3.1437,4.9543,1.9344-.7872-17.57-6.8117L107.81,769.0949l-6.4633-2.5057,1.0237,2.5163,12.4681-20.627,19.87-32.873,4.5574-7.5395c1.1434-1.8917-1.8179-3.6156-2.9582-1.7291l-12.468,20.627-19.87,32.8729-4.5574,7.54a1.7387,1.7387,0,0,0,1.0237,2.5163l17.57,6.8116L146.0335,787.57l6.4633,2.5057a1.7276,1.7276,0,0,0,1.9344-.7872l8.5233-13.4323L176.48,754.54l3.1437-4.9543c1.1846-1.867-1.7789-3.5876-2.9582-1.7291Z"/><path class="cls-7" d="M106.49,753.5817,78.78,797.66l97.61,61.9363s19.2521-26.6615-15.3424-52.7115a15.4189,15.4189,0,0,1-3.5937-20.7c1.2432-1.9168,2.2546-3.4642,3.0756-4.7116a5.9913,5.9913,0,0,0-1.7978-8.353l-4.1775-2.6507-15.4646-.1946A20.9527,20.9527,0,0,1,120.42,758.3l-1.8982-4.0041A6.8747,6.8747,0,0,0,106.49,753.5817Z"/><path d="M105.0106,752.7171l-9.3477,14.87L80.747,791.3138l-3.4461,5.4818a1.7419,1.7419,0,0,0,.6145,2.3436l9.71,6.1612,23.3174,14.7956L139.15,837.9944l24.379,15.4693c3.9244,2.49,7.7819,5.2031,11.8231,7.5021.0591.0336.1154.0732.1728.11a1.7527,1.7527,0,0,0,2.3436-.6146c3.26-4.53,4.9219-10.5336,5.4326-16.0045,1.2693-13.5985-6.1394-25.8244-15.9649-34.6216-3.1451-2.8159-7.0491-4.9927-9.0913-8.8149a13.7844,13.7844,0,0,1-1.0363-10.2235,19.0589,19.0589,0,0,1,2.6126-5.1151,23.9076,23.9076,0,0,0,3.0251-5.1141,7.8258,7.8258,0,0,0-3.3038-8.96c-.8725-.5786-1.77-1.123-2.6538-1.6839a5.7506,5.7506,0,0,0-2.3561-1.1672c-1.5237-.1661-3.1376-.0395-4.6684-.0588-4.0586-.0511-8.194.1294-12.2425-.2053-7.2394-.5986-13.0015-5.3174-16.0392-11.725-1.0275-2.1672-1.8762-4.5665-3.784-6.1331a8.587,8.587,0,0,0-12.7878,2.083c-1.217,1.846,1.7484,3.564,2.9581,1.7291a5.2166,5.2166,0,0,1,6.9324-1.6816c1.9424,1.1194,2.6825,3.5367,3.5931,5.4574a23.3592,23.3592,0,0,0,14.5878,12.883c4.2823,1.2374,8.9516.92,13.3653.9754l6.6688.0839a4.4259,4.4259,0,0,0,1.4164.0178c-.4975.2359-1.1883-.4981-.409.0421.4679.3243.9651.6124,1.4457.9173,2.0121,1.2768,4.3357,2.4326,4.2313,5.2142-.0626,1.6692-1.2566,3.02-2.13,4.3577a33.5436,33.5436,0,0,0-3.1053,5.3262,17.2079,17.2079,0,0,0,4.706,19.61,98.4069,98.4069,0,0,1,10.0069,8.9019,46.11,46.11,0,0,1,6.4273,8.7983,33.1608,33.1608,0,0,1,4.3111,15.6955,32.4988,32.4988,0,0,1-2.1339,11.8478q-.2065.5514-.4315,1.0958a1.863,1.863,0,0,1-.0874.2027c-.0851.193-.17.3858-.2582.5775q-.3862.8421-.8192,1.6616c-.3708.7-.8279,1.3514-1.2015,2.0458a2.4191,2.4191,0,0,1-.1743.2551l2.3436-.6145-9.71-6.1612-23.3173-14.7956L116.02,819.2621,91.64,803.7928l-8.007-5.0806a42.1058,42.1058,0,0,0-3.8161-2.4215,1.8889,1.8889,0,0,1-.1728-.11l.6145,2.3436,9.3477-14.87,14.9159-23.7271,3.4461-5.4818C109.1455,752.5743,106.1824,750.8531,105.0106,752.7171Z"/><path class="cls-8" d="M280.6824,425.3019l-6.7173,188.602L196.9741,778.22,112.8053,731.67s56.1375-110.7369,79.0016-141.5347l3.956-87.03a102.7418,102.7418,0,0,1,15.2327-49.34l25.2491-40.8637"/><path d="M278.97,425.3019l-.6454,18.12-1.558,43.7455-1.8973,53.2707L273.18,587.8472l-.8925,25.06a4.1767,4.1767,0,0,0-.0285.8009c.0986.5656-.4086-.35.2165-.6467-.2566.1218-.58,1.2388-.6943,1.4818L267.44,623.81,250.2426,660.512,227.822,708.3626,207.2936,752.175l-11.278,24.07-.52,1.1111,2.3436-.6145-28.4054-15.71-45.3127-25.0607-10.4508-5.78.6146,2.3436q3.5572-7.0164,7.1751-14.0022,8.7754-17.013,17.7377-33.9288,11.1168-20.9724,22.6183-41.7385c7.024-12.6153,14.1635-25.1849,21.8172-37.4314,2.8426-4.5483,5.7515-9.0667,8.902-13.41a4.4463,4.4463,0,0,0,1.0226-2.7127l.1607-3.5356,1.4743-32.4337,1.7144-37.7159c.4488-9.8741.66-19.7145,2.79-29.421a102.1411,102.1411,0,0,1,12.7905-31.5961q2.6391-4.2928,5.2976-8.5737l18.6128-30.1234,1.3263-2.1464c1.1621-1.8808-1.8-3.6033-2.9582-1.7291l-15.0969,24.4331c-6.288,10.1766-13.1252,20.2064-17.7413,31.2847a104.4259,104.4259,0,0,0-7.8289,34.3921c-.1168,2.1308-.1988,4.2639-.2957,6.3956l-1.524,33.5274-1.6919,37.2223-.446,9.8121a5.97,5.97,0,0,0-.0395.8692,1.1314,1.1314,0,0,1-.0068.1491c.01-.37.317-.6678-.0372-.4854-.2034.1048-.4186.5722-.55.7539-1.4362,1.9837-2.8167,4.0076-4.1693,6.0491-7.4026,11.1729-14.1162,22.81-20.7292,34.4612-7.8458,13.8237-15.4516,27.7833-22.9507,41.7977q-9.9051,18.5107-19.5611,37.1534-5.1819,9.9908-10.2949,20.0171-.2381.4681-.4758.9364a1.7444,1.7444,0,0,0,.6145,2.3436l28.4055,15.71,45.3126,25.0607,10.4508,5.78a1.73,1.73,0,0,0,2.3436-.6145l7.9872-17.0467,18.98-40.5074,22.685-48.415L267.258,632.24l5.8948-12.5809c.7543-1.61,1.6624-3.2185,2.2887-4.8846.5818-1.5479.3332-3.5841.391-5.2083l.4551-12.7762,1.5448-43.3748,1.9018-53.3963L281.43,452.412l.9234-25.9271.0422-1.183c.0785-2.205-3.3475-2.2019-3.4259,0Z"/><path d="M155.35,796.2628a10.4186,10.4186,0,0,0-2.58.2089,11.1755,11.1755,0,0,0-4.7523,2.0339,11.9152,11.9152,0,0,0-2.8811,3.1024,1.727,1.727,0,0,0,.6145,2.3436,1.7507,1.7507,0,0,0,2.3436-.6145c.0969-.15.1956-.3.2993-.4456q.0759-.1066.1545-.2113-.2058.2632-.03.0434c.2143-.25.4274-.498.6611-.73.221-.22.456-.4213.693-.6234q.2166-.1722-.0808.06.0883-.0666.1784-.1311.133-.0951.2693-.1857a10.4378,10.4378,0,0,1,1.4426-.7869c.28-.1279-.4028.158.0344-.01q.1734-.0664.3491-.1266.3144-.1078.6352-.1952c.3947-.1078.794-.1868,1.1971-.2551.41-.0694-.3912.0426-.1132.0138.0851-.0088.17-.02.255-.0281q.2135-.021.4276-.033a6.5555,6.5555,0,0,1,.8831-.0035,1.7206,1.7206,0,0,0,1.7129-1.7129,1.756,1.756,0,0,0-1.7129-1.7129Z"/><path d="M159.5916,803.82a10.4226,10.4226,0,0,0-2.58.2089,11.1769,11.1769,0,0,0-4.7523,2.0339,11.9139,11.9139,0,0,0-2.8812,3.1024,1.7271,1.7271,0,0,0,.6145,2.3436,1.7506,1.7506,0,0,0,2.3436-.6145c.0969-.15.1956-.3.2994-.4455q.0759-.1068.1545-.2114-.2058.2632-.03.0434c.2142-.25.4273-.4979.661-.73.2211-.22.456-.4213.6931-.6233q.2164-.1724-.0809.06.0885-.0666.1785-.131.1329-.0952.2692-.1858a10.4266,10.4266,0,0,1,1.4426-.7868c.28-.1279-.4028.158.0345-.01q.1732-.0666.349-.1267.3144-.1077.6352-.1952c.3948-.1078.794-.1868,1.1972-.2551.41-.0694-.3913.0426-.1132.0138.085-.0088.17-.02.2549-.0281q.2134-.0208.4277-.033a6.554,6.554,0,0,1,.883-.0034,1.7207,1.7207,0,0,0,1.7129-1.713,1.756,1.756,0,0,0-1.7129-1.7129Z"/><path d="M166.082,810.0236a10.4286,10.4286,0,0,0-2.58.2089,11.178,11.178,0,0,0-4.7523,2.0339,11.9141,11.9141,0,0,0-2.8811,3.1025,1.7271,1.7271,0,0,0,.6145,2.3436,1.7507,1.7507,0,0,0,2.3436-.6146c.0969-.15.1956-.3.2994-.4455q.0757-.1068.1545-.2114-.2059.2634-.0306.0434c.2143-.25.4274-.4979.6611-.73.2211-.22.456-.4213.6931-.6233q.2165-.1724-.0809.06.0883-.0667.1785-.1311.1329-.0953.2692-.1857a10.4272,10.4272,0,0,1,1.4426-.7869c.28-.1279-.4028.158.0344-.01q.1734-.0666.3491-.1267.3144-.1077.6352-.1952c.3948-.1078.794-.1868,1.1972-.2551.41-.0694-.3913.0427-.1132.0138.085-.0088.17-.02.2549-.0281q.2135-.0208.4276-.033a6.5555,6.5555,0,0,1,.8831-.0034,1.7207,1.7207,0,0,0,1.7129-1.713,1.756,1.756,0,0,0-1.7129-1.7129Z"/><path class="cls-3" d="M181.07,847.9725a32.4726,32.4726,0,0,1-4.68,11.6239L78.78,797.66l4.33-7.0637-.054-.0343L90.7984,778.36s15.88,3.9565,24.5059,24.1172c7.98,10.5709,17.401,2.474,27.4779,10.704s4.1358,9.535,10.7982,13.673c0,0,7.6721,5.39,15.953,3.9134S183.0562,835.8635,181.07,847.9725Z"/><path d="M179.4178,847.5172a29.8,29.8,0,0,1-4.5075,11.2147l2.3437-.6145-9.71-6.1613-23.3174-14.7956-28.2072-17.8984L91.64,803.7928l-8.007-5.0807a42.0828,42.0828,0,0,0-3.8161-2.4214,1.9117,1.9117,0,0,1-.1728-.11l.6145,2.3436,4.33-7.0637a1.7433,1.7433,0,0,0-.6145-2.3436l-.054-.0343.6145,2.3437,7.7427-12.2023-1.9344.7872c.3332.0838.6608.1941.9855.3056a17.3555,17.3555,0,0,1,2.385.9755,36.2312,36.2312,0,0,1,8.1524,5.3045A43.2171,43.2171,0,0,1,111.12,797.9q1.0937,1.9065,2.0193,3.9028a12.6616,12.6616,0,0,0,2.8854,4.071,15.43,15.43,0,0,0,6.554,3.7234c4.7525,1.3057,9.81.517,14.4893,2.2157a20.8475,20.8475,0,0,1,7.3661,5.1366,14.9254,14.9254,0,0,1,3.0883,4.2424c.43,1.0794.6635,2.2241,1.1945,3.2658a9.6232,9.6232,0,0,0,3.2934,3.4154,28.27,28.27,0,0,0,9.6088,4.2723,22.31,22.31,0,0,0,5.0525.5907c1.4755-.0081,2.8977-.3472,4.3614-.4375a7.7089,7.7089,0,0,1,5.216,1.3712c4.0268,3.0587,3.8721,9.4042,3.1693,13.847a1.7693,1.7693,0,0,0,1.1964,2.1071,1.7246,1.7246,0,0,0,2.1071-1.1964c.7772-4.9133.915-10.6206-2.02-14.9164a10.8207,10.8207,0,0,0-10.3408-4.5789,22.43,22.43,0,0,1-8.54-.2641,25.0487,25.0487,0,0,1-6.2121-2.5687,15.9909,15.9909,0,0,1-2.7989-1.9119,4.434,4.434,0,0,1-1.5-2.4694c-1.3132-4.0987-3.99-7.0609-7.3162-9.7486a20.2824,20.2824,0,0,0-8.1783-4.0986,48.3418,48.3418,0,0,0-7.5584-.8773,18.4406,18.4406,0,0,1-6.7256-1.4074,11.9562,11.9562,0,0,1-3.0844-2.1349,10.0457,10.0457,0,0,1-1.6634-1.8392c-.4217-.6884-.6873-1.555-1.04-2.2833a47.8551,47.8551,0,0,0-9.5565-13.4148c-4.0455-3.9439-9.34-7.7991-14.9331-9.2063a1.7628,1.7628,0,0,0-1.9344.7872l-7.7427,12.2023a1.7413,1.7413,0,0,0,.6145,2.3436l.054.0342-.6145-2.3436-4.33,7.0637a1.7433,1.7433,0,0,0,.6145,2.3436l9.71,6.1613,23.3174,14.7956L139.15,837.9944l24.3792,15.4693c3.9244,2.49,7.7818,5.2031,11.823,7.5021.0591.0336.1154.0732.1729.11a1.7522,1.7522,0,0,0,2.3436-.6145,32.2272,32.2272,0,0,0,4.8528-12.0331C183.1682,846.2764,179.8666,845.3565,179.4178,847.5172Z"/><path class="cls-8" d="M248.445,502.2871c-2.8049,38.2545,13.4025,292.9257,13.4025,292.9257l100.4764.48L333.3877,432.0192,260.53,422.2015"/><path d="M246.7321,502.2871c-.4077,5.6287-.353,11.2995-.3108,16.9387.0666,8.8929.3011,17.7847.5788,26.6732q.5279,16.8954,1.2721,33.7832.8152,19.1372,1.7691,38.2683.9885,20.0667,2.07,40.1287,1.0607,19.7793,2.1854,39.555,1.02,17.9772,2.0821,35.952.8834,14.9634,1.7932,29.9252.647,10.6372,1.3083,21.2737c.2072,3.3309.3628,6.67.6269,9.9975.0113.1432.0182.2869.0273.43a1.7476,1.7476,0,0,0,1.7129,1.713l34.0833.1628,53.9129.2576,12.48.06a1.7254,1.7254,0,0,0,1.7129-1.7129l-.7723-9.7059-2.1112-26.5344L358.041,720.337l-3.7963-47.7121-4.1728-52.4442-4.197-52.7485-3.913-49.18-3.3068-41.56-2.3783-29.8906c-.3758-4.7231-.72-9.45-1.1275-14.17-.0176-.2039-.0325-.408-.0487-.612a1.7455,1.7455,0,0,0-1.2576-1.6518L309.2207,427.05l-39.238-5.2873-8.9969-1.2124c-2.1558-.2905-3.0889,3.01-.9107,3.3035l24.6223,3.3179,39.238,5.2874,8.9969,1.2123-1.2576-1.6517.7723,9.7059,2.1113,26.5344,3.1122,39.1156,3.7963,47.7121,4.1728,52.4441,4.197,52.7486,3.9131,49.18,3.3068,41.56,2.3783,29.8906c.371,4.6627.3651,9.5508,1.1275,14.1705.0329.2.0326.41.0487.612l1.7129-1.7129-34.0834-.1629-53.9128-.2576-12.48-.06,1.7129,1.7129q-.2174-3.417-.43-6.8345-.5865-9.3765-1.16-18.7538-.8581-14.0235-1.6926-28.0484-1.0329-17.358-2.0294-34.7182-1.1116-19.38-2.17-38.7634-1.1-20.19-2.1246-40.3838-.9836-19.4808-1.8611-38.9668-.7819-17.5592-1.412-35.1248c-.3314-9.55-.6194-19.1029-.7667-28.6579-.1006-6.5181-.1846-13.0506.0746-19.5663.0413-1.0367.0941-2.0729.1691-3.1078.1593-2.2-3.2673-2.19-3.4259,0Z"/><path class="cls-4" d="M224.3318,326.9507c-9.6717,35.073-27.7844,103.8264-30.9234,137.6606,14.4017-15.5231,119.8786-9.4885,156.3247-.2026,4.3746-14.4531-22.173-140.7211-22.173-140.7211l-3.99-36.3494H242.4453"/><path d="M222.68,326.4953q-7.215,26.1695-13.8205,52.5027c-4.8559,19.4817-9.4767,39.0494-13.1629,58.79-1.6586,8.8818-3.1589,17.8222-4.0012,26.823-.14,1.4947,1.9594,2.2387,2.9241,1.2113q.2618-.2788.5438-.5369c.1345-.1226.6709-.5594.5319-.4532-.1249.0955.4171-.2946.5736-.3985.27-.18.5468-.35.8274-.5127.5911-.3436,1.2019-.6528,1.823-.9384.1713-.0788.3436-.1549.5162-.2306a1.344,1.344,0,0,1,.1933-.0812q.5605-.2268,1.1276-.4365a63.7355,63.7355,0,0,1,10.9818-2.7728A207.5664,207.5664,0,0,1,242.8635,456.9c12.538-.2883,25.09.01,37.6122.6666,12.3493.6478,24.6859,1.6517,36.9675,3.1029a272.7623,272.7623,0,0,1,29.0672,4.722q1.3873.3187,2.7673.6687a1.7458,1.7458,0,0,0,2.1071-1.1964c.991-3.3372.58-7.2581.3633-10.67-.3867-6.0777-1.1466-12.1316-1.9606-18.1645-2.1556-15.9763-4.9326-31.87-7.8251-47.7271q-4.1264-22.6209-8.68-45.1612-1.4606-7.2781-2.9576-14.5488-.4086-1.9821-.8209-3.9633c-.0742-.3561-.14-.715-.2232-1.0691-.07-.2986-.0141-.6319-.0085.119-.0117-1.5733-.3522-3.2087-.5236-4.77L327.5762,308.23l-2.1612-19.6885-.132-1.2033a1.7543,1.7543,0,0,0-1.713-1.713H242.4453a1.714,1.714,0,0,0,0,3.4259H323.57l-1.7129-1.7129,3.836,34.9463c.1783,1.6239.4908,3.1732.8226,4.7734q1.2738,6.1428,2.5157,12.292,4.3353,21.429,8.3491,42.9216c3.0085,16.1863,5.8944,32.4057,8.2656,48.6992.93,6.3886,1.7825,12.7487,2.3653,19.2285a69.6574,69.6574,0,0,1,.3375,12.47c-.05.5522.0619-.306-.0121.0994-.0263.1444-.0461.29-.0743.4341-.0494.2531-.1077.5037-.1812.7509l2.1071-1.1964a238.59,238.59,0,0,0-28.5175-4.9936c-12.24-1.563-24.5431-2.6442-36.8594-3.3792-12.7577-.7614-25.547-1.151-38.3277-.9759a242.0605,242.0605,0,0,0-32.8993,2.3,78.951,78.951,0,0,0-11.8366,2.5775,25.6284,25.6284,0,0,0-8.3462,4.0241,11.0122,11.0122,0,0,0-1.2045,1.09l2.9241,1.2112c1.6121-17.2261,5.3406-34.3,9.0922-51.1623,4.3889-19.7268,9.3055-39.336,14.4483-58.8786q3.58-13.6038,7.3217-27.1643a1.7144,1.7144,0,0,0-3.3034-.9108Z"/><path d="M332.4314,826.9256a10.3242,10.3242,0,0,0-2.0529,1.5231,11.8679,11.8679,0,0,0-3.09,4.5838,11.0992,11.0992,0,0,0-.6712,3.8487,1.7129,1.7129,0,0,0,3.4258,0c.0016-.2511.0091-.5019.0278-.7524.01-.141.0277-.281.0407-.4216.0183-.1969-.0219.1613-.0221.1617a1.5561,1.5561,0,0,0,.0374-.23,9.2925,9.2925,0,0,1,.3576-1.3972q.0512-.15.1075-.2983c.0184-.0485.04-.0965.0568-.1456.0592-.1749-.0777.1768-.0739.171.1246-.1878.1971-.4326.3023-.6335a9.7128,9.7128,0,0,1,.6383-1.0494q.0771-.1105.1572-.219c.1562-.2117.0746-.0682-.0546.068.1247-.1315.2315-.284.3517-.42q.3328-.3772.7-.7221c.21-.1977.4294-.3844.653-.5668.3155-.2573-.3673.2671-.011.01.0852-.0615.17-.1232.2567-.1827a6.03,6.03,0,0,1,.5917-.3693,1.7269,1.7269,0,0,0,.6145-2.3436,1.7512,1.7512,0,0,0-2.3436-.6145Z"/><path d="M340.0615,831.0341a10.3237,10.3237,0,0,0-2.0529,1.5232,11.8683,11.8683,0,0,0-3.09,4.5837,11.0993,11.0993,0,0,0-.6712,3.8488,1.713,1.713,0,0,0,3.4259,0c.0015-.2512.009-.502.0277-.7525.0105-.1409.0277-.2809.0407-.4216.0183-.1968-.0219.1613-.022.1617a1.5526,1.5526,0,0,0,.0373-.23,9.2907,9.2907,0,0,1,.3576-1.3973q.0512-.15.1075-.2983c.0184-.0485.04-.0965.0569-.1456.0591-.1749-.0778.1769-.0739.1711.1245-.1878.1971-.4327.3023-.6335a9.7134,9.7134,0,0,1,.6382-1.05q.0771-.1105.1572-.219c.1563-.2117.0746-.0682-.0546.0681.1247-.1315.2316-.2841.3518-.42q.3327-.3774.7-.7222c.21-.1977.4295-.3843.6531-.5667.3154-.2573-.3673.267-.0111.01.0852-.0614.17-.1231.2568-.1826a6.0219,6.0219,0,0,1,.5916-.3693,1.7269,1.7269,0,0,0,.6145-2.3436,1.7511,1.7511,0,0,0-2.3436-.6146Z"/><path d="M348.8655,832.7949a10.3237,10.3237,0,0,0-2.0529,1.5232,11.8694,11.8694,0,0,0-3.09,4.5837,11.0993,11.0993,0,0,0-.6712,3.8488,1.713,1.713,0,0,0,3.4259,0c.0015-.2512.009-.502.0277-.7525.01-.1409.0277-.2809.0408-.4216.0182-.1968-.022.1613-.0221.1618a1.556,1.556,0,0,0,.0373-.23,9.303,9.303,0,0,1,.3577-1.3973q.0511-.15.1074-.2983c.0184-.0485.04-.0965.0569-.1456.0591-.1749-.0778.1769-.0739.1711.1245-.1878.1971-.4327.3023-.6335a9.7134,9.7134,0,0,1,.6382-1.05q.0771-.1105.1572-.219c.1563-.2117.0746-.0682-.0546.0681.1247-.1315.2316-.2841.3518-.42q.3327-.3774.7-.7222c.21-.1977.43-.3843.6531-.5667.3154-.2573-.3673.267-.0111.01.0852-.0614.17-.1231.2568-.1826a6.0219,6.0219,0,0,1,.5916-.3693,1.7269,1.7269,0,0,0,.6145-2.3436,1.7511,1.7511,0,0,0-2.3436-.6146Z"/><path class="cls-6" d="M416.36,345.2613a205.943,205.943,0,0,1,10.374-18.2144L452.4089,340.92l7.3051,3.9472,62.1413-112.8636,44.2223,25.2552L513.7248,374.6214c-13.1218,23.5868-42.136,33.7083-67.6973,25.04L429.88,392.9076l-26.7526-14.2129A180.6658,180.6658,0,0,1,416.36,345.2613Z"/><path d="M417.8388,346.1258a209.3482,209.3482,0,0,1,10.374-18.2143l-2.3436.6145,25.6752,13.8733,7.3051,3.9472a1.74,1.74,0,0,0,2.3436-.6146l6.1725-11.2107,14.8263-26.9281,17.9431-32.589,15.523-28.1935,5.1494-9.3526a46.8094,46.8094,0,0,0,2.4165-4.3889,2.1226,2.1226,0,0,1,.1105-.2007l-2.3436.6145L535.956,242.03l23.7507,13.5639,5.5063,3.1447-.6145-2.3436-3.6731,8.2343-9.2416,20.7173-12.0922,27.108L527.21,340.2118l-9.9606,22.3293c-1.6212,3.6343-3.18,7.3048-4.8665,10.91a42.9909,42.9909,0,0,1-8.3867,11.3564,53.6547,53.6547,0,0,1-17.5138,11.8457,56.51,56.51,0,0,1-20.8514,4.3555,51.35,51.35,0,0,1-19.35-3.0829c-3.8346-1.5125-7.6138-3.1846-11.4166-4.7752-1.4672-.6137-2.9322-1.2331-4.4018-1.8411-.3014-.1247.607.315.0009-.03-.4292-.2443-.8742-.4644-1.31-.6961L405.9947,378.28l-2.0025-1.0639.7872,1.9344a175.9166,175.9166,0,0,1,13.0594-33.0242c.99-1.9636-1.964-3.7-2.9582-1.7291a180.4658,180.4658,0,0,0-13.4047,33.8426,1.7406,1.7406,0,0,0,.7872,1.9344l20.7129,11.0042c2.1735,1.1548,4.3255,2.49,6.5982,3.4439q5.7321,2.4046,11.4692,4.7973c1.4653.6128,2.92,1.2687,4.4019,1.8411a47.0787,47.0787,0,0,0,9.0965,2.3136,60.7824,60.7824,0,0,0,22.0225-.3254,57.4991,57.4991,0,0,0,35.809-23.2262,64.79,64.79,0,0,0,5.7663-11.1173l8.8369-19.81,12.0669-27.0511,12.5655-28.1688,10.3327-23.1635,5.3686-12.035.2464-.5525a1.7553,1.7553,0,0,0-.6145-2.3436l-14.9652-8.5467-23.7507-13.5639-5.5063-3.1446a1.7368,1.7368,0,0,0-2.3436.6145L514.2037,242.35l-14.8262,26.9281-17.9431,32.5889-15.523,28.1935-5.1494,9.3526a46.811,46.811,0,0,0-2.4165,4.389,2.1581,2.1581,0,0,1-.1105.2007l2.3436-.6146-27.9411-15.0976-5.0392-2.7229a1.7522,1.7522,0,0,0-2.3436.6146,209.3752,209.3752,0,0,0-10.3741,18.2143C413.8855,346.3586,416.84,348.0946,417.8388,346.1258Z"/><path class="cls-5" d="M512.02,250.0134l4.9846-9.0086a93.4709,93.4709,0,0,0,8.025-19.3607c1.5106-5.2389,3.2877-12.11,4.9813-20.3777,4.1516-20.2663,11.5694-15.4432,45.38,2.6871-12.0869,10.5054-11.7926,15.9971-11.7926,15.9971l-.9828,36.78-11.3347,25.9335"/><path d="M513.4989,250.8779c2.6886-4.8589,5.5354-9.6705,7.8862-14.7049,4.5451-9.7337,7.1882-20.2063,9.4756-30.6647a72.053,72.053,0,0,1,2.5823-10.3,9.9131,9.9131,0,0,1,2.9083-4.4251c-.3394.2706.2084-.1326.2882-.1824.1639-.1023.335-.1889.5031-.2836.0928-.0523.1927-.0945.29-.1383-.05.0226-.3446.132-.0514.0256.2049-.0743.4109-.1434.6213-.2008.2161-.0589.4341-.1034.6538-.1458.3168-.0612.0123-.008-.0471,0,.116-.0151.2332-.0288.35-.0361a12.2255,12.2255,0,0,1,1.4106-.0171,13.5422,13.5422,0,0,1,2.9695.5145,36.1936,36.1936,0,0,1,3.8877,1.2829,115.6808,115.6808,0,0,1,11.3646,5.3473c5.3462,2.762,10.6322,5.64,15.9349,8.4838l-.3467-2.69c-3.9739,3.4735-7.9778,7.3648-10.559,12.0317a12.2544,12.2544,0,0,0-1.7359,5.1486c-.2522,4.5622-.2433,9.1547-.3654,13.7218l-.5542,20.7427a20.2108,20.2108,0,0,0-.0568,2.1246c.0431.5308-.3233.0682.2233-.6347a2.746,2.746,0,0,0-.2445.5594l-3.2205,7.3685L549.8014,281.8c-.8743,2,2.0764,3.7466,2.9582,1.729l6.6628-15.2444,3.9049-8.9343a8.668,8.668,0,0,0,1.0193-3.3115q.4773-17.86.9545-35.7212c.006-.2355.0262-.4736.0295-.7086-.002.1408-.0942.4131.0064.03.0517-.197.0889-.3974.144-.5939.0723-.2576.1619-.5086.2493-.7613.044-.1271.0957-.2524.146-.3771-.1174.2911.0144-.0331.0642-.1411,2.31-5.0072,6.5814-9.0343,10.6614-12.6a1.7249,1.7249,0,0,0-.3467-2.69c-8.5153-4.567-16.9638-9.4748-25.8694-13.2581-4.3571-1.851-9.89-4.1272-14.5646-2.0473-4.3375,1.93-5.953,7.214-6.9738,11.4411-2.4985,10.3463-4.3556,20.8364-8.2555,30.7918-2.7019,6.8973-6.474,13.2821-10.0511,19.7469-1.0682,1.9307,1.8893,3.6607,2.9581,1.7291Z"/><path class="cls-5" d="M553.83,205.4235c-.49-10.29,1.96-16.66,1.96-16.66,4.6814-13.7395,11.3441-14.064,23.3915-13.7928s15.1937-12.7134,4.8637-12.3995c0,0-31.6877-9.1993-43.6988,13.8632-1.1879,2.2284-2.2172,4.0916-3.105,5.6476a67.254,67.254,0,0,0-7.4661,19.8444l-1.3676,6.68"/><path d="M555.5433,205.4235a43.9512,43.9512,0,0,1,1.8971-16.2c1.7339-5.0106,4.3383-10.1171,9.77-11.7242a27.5843,27.5843,0,0,1,7.6258-.8638c3.2109-.027,6.489.3453,9.5927-.6918,4.2416-1.4173,8.9366-5.8656,7.2394-10.7966a6.4281,6.4281,0,0,0-4.96-4.0632,8.705,8.705,0,0,0-2.0983-.2294c-.4885.0262.0429.0742-.1921.0418a7.4508,7.4508,0,0,1-.7377-.1918,58.6491,58.6491,0,0,0-9.1593-1.4562c-10.3536-.872-21.5166.9759-29.4384,8.1745a29.17,29.17,0,0,0-5.748,7.2831c-2.0922,3.7225-4.2654,7.4723-6.0736,11.3412-3.01,6.4391-4.6735,13.1569-6.09,20.0755l-.4152,2.0279c-.4406,2.1521,2.8609,3.0726,3.3035.9108a122.2606,122.2606,0,0,1,3.5535-14.7671,70.766,70.766,0,0,1,5.5345-12.1007c1.7091-3.03,3.1614-6.2766,5.2929-9.045,6.4149-8.3318,17.0441-10.9718,27.1118-10.6478a52.5469,52.5469,0,0,1,9.9534,1.2155c.6743.1459,1.3388.3446,2.0128.4866.7089.1493,1.4475.0422,2.1644.1617a3.842,3.842,0,0,1,2.2432,1.0371,2.26,2.26,0,0,1,.6279,1.5108,4.1652,4.1652,0,0,1-.5158,2.1288,8.1237,8.1237,0,0,1-4.9166,3.7232c-2.897.86-6.0277.399-9.0091.455a29.8705,29.8705,0,0,0-7.7013.9435c-10.227,2.9509-13.5532,15.2884-14.2235,24.7031a57.2732,57.2732,0,0,0-.0705,6.5577c.0954,2.1961,3.5218,2.208,3.4258,0Z"/><path class="cls-5" d="M534.72,276.4744l21.6231.1514s10.9414-19.0717,17.675-31.232a19.9216,19.9216,0,0,0,2.2351-12.6915,29.9629,29.9629,0,0,1,1.85-16.1992s11.498,10.4807,19.8281-1.2795l.2038-.335c3.8472-6.3316,7.1463-16.8152-1.5824-19.0135l-1.3249-2.0179a12.378,12.378,0,0,0-10.3466-5.5839h-5.08l-.685-1.2939c-2.2689-4.2858-6.7243-5.8535-11.5652-5.5662h0c-6.37-6.86-16.6282-2.1461-20.4888,5.0063"/><path d="M534.72,278.1873l18.8751.1322,2.748.0192a1.7185,1.7185,0,0,0,1.4791-.8483q4.9866-8.6928,9.9214-17.4151,3.7457-6.6167,7.4447-13.26a23.1855,23.1855,0,0,0,2.8716-8.6569c.3748-3.2092-.3737-6.2862-.4494-9.4813a29.5185,29.5185,0,0,1,.9435-8.2153c.2167-.8245.4678-1.6414.7651-2.4407.05-.1337.1031-.266.1531-.4.1432-.3823.0025-.0365.0034-.0176-.0031-.0635.0772-.176.1061-.2369l-2.69.3467c3.76,3.4056,9.3436,5.6908,14.4058,4.4506,4.331-1.061,7.44-4.5494,9.416-8.3719,1.697-3.2825,3.1069-7.0152,3.08-10.7616a8.7653,8.7653,0,0,0-6.786-8.808l1.0237.7872a31.2338,31.2338,0,0,0-2.7386-3.8508,14.1154,14.1154,0,0,0-6.4576-4.0321c-2.8878-.8514-6.0574-.5673-9.0345-.5673l1.4791.8483a13.942,13.942,0,0,0-4.7854-5.6964,15.3545,15.3545,0,0,0-8.9439-2.012l1.2113.5017c-7.2062-7.5291-18.7142-2.7069-23.1792,5.353-1.0693,1.93,1.8884,3.66,2.9581,1.7291,2.7-4.8737,9.1879-9.3463,14.8776-6.8117a8.5226,8.5226,0,0,1,1.8844,1.1637c.7478.6091,1.2221,1.3929,2.2478,1.49.9006.0853,1.8258-.05,2.7369.0472a11.9168,11.9168,0,0,1,2.4468.5343c2.7968.92,4.272,2.9454,5.5874,5.43a1.7065,1.7065,0,0,0,1.4791.8484c3.7442,0,7.576-.4,10.8862,1.7174,1.92,1.2286,2.9968,3.0086,4.2486,4.8262.7012,1.0181,1.7058,1.0344,2.7319,1.5607a4.6332,4.6332,0,0,1,1.9383,1.7594c2.0773,3.52-.0681,8.6939-1.7183,11.9558-2.1516,4.2529-5.8049,7.9733-10.9467,7.1837a14.9221,14.9221,0,0,1-5.5459-2.1906q-.45-.2793-.885-.5812c-.1362-.0945-.9086-.673-.5475-.3895-.22-.173-.4405-.348-.6483-.5363a1.7307,1.7307,0,0,0-2.69.3467,27.9,27.9,0,0,0-2.3008,9.2556,48.1969,48.1969,0,0,0,.3759,9.12,18.3154,18.3154,0,0,1-1.5591,9.339c-1.0346,2.2192-2.3551,4.3355-3.5515,6.4706q-1.947,3.4747-3.9082,6.9414-3.52,6.2282-7.0677,12.4412-1.8709,3.2793-3.7482,6.5551l1.4791-.8484-18.875-.1322-2.7481-.0192a1.7139,1.7139,0,0,0,0,3.4258Z"/><polyline class="cls-3" points="509.24 251.974 520.002 235.37 564.121 260.794 556.28 276.474"/><path d="M510.7189,252.8386l10.7623-16.6045-2.3436.6145,14.93,8.604,23.6949,13.6549,5.4934,3.1657-.6146-2.3436-7.84,15.68c-.9831,1.9664,1.971,3.7034,2.9582,1.7291l7.84-15.68a1.7483,1.7483,0,0,0-.6145-2.3436l-14.93-8.6039L526.36,237.0563l-5.4934-3.1658a1.749,1.749,0,0,0-2.3436.6145L507.7608,251.11c-1.2027,1.8556,1.7619,3.5747,2.9581,1.7291Z"/><path class="cls-4" d="M294.3111,286.4155l40.905-.1094a48.813,48.813,0,0,1,22.3647,5.3578l69.1529,35.383,33.0155,18.0283L477.0006,298.08a123.8654,123.8654,0,0,1,35.8088-51.4816l2.3105-1.9744,44.5906,26.95,6.1886,27.36a35.466,35.466,0,0,1-4.1132,25.9593l-44.9787,75.5942a60.5324,60.5324,0,0,1-77.0363,21.3592l-36.2027-17.5231-85.9208-43.5689"/><path d="M294.3111,288.1285l36.1532-.0967c1.5713-.0042,3.1426-.0138,4.7138-.0126a47.268,47.268,0,0,1,19.3515,4.0726c3.0565,1.3779,6.0141,3.01,8.997,4.5357L402.22,316.4256c7.9394,4.0622,15.966,7.99,23.8293,12.1987,10.6488,5.6994,21.2048,11.579,31.8054,17.3676l1.03.5624a1.7407,1.7407,0,0,0,2.5162-1.0237l11.4734-31.2549,5.441-14.8222a125.9286,125.9286,0,0,1,12.765-25.6,132.1627,132.1627,0,0,1,25.2508-28.0182l-2.0758.2678,15.0965,9.1243,23.9466,14.4732,5.5475,3.3529-.7872-1.0237,3.3635,14.87,2.1428,9.473a55.3782,55.3782,0,0,1,1.3494,7.1733,35.5463,35.5463,0,0,1-5.3114,21.6659L553.64,335.2345,532.5852,370.62l-16.3507,27.48A58.728,58.728,0,0,1,447.82,423.2613a113.1756,113.1756,0,0,1-13.9267-6.1562c-9.82-4.7532-19.69-9.4155-29.4644-14.2617-6.6315-3.2879-13.206-6.6965-19.8075-10.044L346.5226,373.48l-26.6315-13.5043-1.3791-.6993c-1.962-.9949-3.6981,1.96-1.7291,2.9581l25.8621,13.1142,44.4418,22.5357c6.6844,3.3895,13.3465,6.82,20.0925,10.0853l21.7589,10.5319c5.65,2.7349,11.287,5.7865,17.2388,7.8183a62.74,62.74,0,0,0,66.6571-17.7914,77.8834,77.8834,0,0,0,8.263-11.9l9.9758-16.7659,25.112-42.205,6.7352-11.32a38.2431,38.2431,0,0,0,4.5417-28.2526q-2.355-10.4757-4.7376-20.9451l-.9937-4.3929a4.9647,4.9647,0,0,0-.8088-2.3844,17.9114,17.9114,0,0,0-3.5218-2.1868l-38.24-23.1124-3.1751-1.919a1.761,1.761,0,0,0-2.0757.2679,137.0875,137.0875,0,0,0-23.026,24.6657,126.6251,126.6251,0,0,0-15.6,29.7254q-6.2127,16.8937-12.4056,33.7946l-4.78,13.0214,2.5162-1.0237-31.269-17.0747c-6.8735-3.7533-13.9308-7.1879-20.9017-10.7547l-39.9951-20.4641q-4.9085-2.5115-9.8167-5.0228a53.7288,53.7288,0,0,0-24.9147-5.6827l-38.318.1025-1.0874.0029a1.714,1.714,0,0,0,0,3.4259Z"/><path class="cls-3" d="M381.7993,856.84a32.4743,32.4743,0,0,1,2.2761,12.3223H268.4737l-.1285-8.2842h-.064V846.427s15.528-5.1672,33.6132,7.234c12.4012,4.6505,16.0182-7.234,28.9362-5.6839s8.6008,5.8352,16.4432,5.76c0,0,9.3662.4411,15.5668-5.2428S376.989,845.5515,381.7993,856.84Z"/><path d="M380.1476,857.2957a29.8228,29.8228,0,0,1,2.2148,11.8669l1.713-1.7129H273.1979a40.7771,40.7771,0,0,0-4.5195,0,1.8637,1.8637,0,0,1-.2047,0l1.7129,1.7129-.1285-8.2842a1.74,1.74,0,0,0-1.7129-1.7129h-.064l1.7129,1.7129V846.427l-1.2575,1.6517a21.0473,21.0473,0,0,1,4.865-.8777,38.2193,38.2193,0,0,1,12.8116,1.1342,43.2583,43.2583,0,0,1,8.3727,3.1268c2.9064,1.4425,5.5142,3.6953,8.6778,4.487,4.3848,1.0972,8.4746.1384,12.4177-1.88,3.6563-1.8717,7.1515-4.1657,11.3671-4.4723a24.34,24.34,0,0,1,8.0882.9476,13.4947,13.4947,0,0,1,2.4715.8915q.4373.2181.8548.4727c.1495.0917.2949.1887.4409.2858.0511.0339.5774.4217.296.2052a20.7822,20.7822,0,0,0,2.6315,2.0075,10.1417,10.1417,0,0,0,4.69,1.0407,29.3743,29.3743,0,0,0,9.1572-1.2153,21.788,21.788,0,0,0,8.0313-4.4,8.5619,8.5619,0,0,1,5.6151-2.4966c5.477.0115,8.9129,6.0258,10.7954,10.3693a1.726,1.726,0,0,0,2.3436.6145,1.7549,1.7549,0,0,0,.6145-2.3436c-2.0788-4.7966-5.3876-9.8153-10.5913-11.5526a10.1609,10.1609,0,0,0-6.071-.089c-2.3639.71-3.9537,2.2166-5.8507,3.6862a21.4161,21.4161,0,0,1-12.3469,4,19.01,19.01,0,0,1-3.0693-.09,7.7938,7.7938,0,0,1-1.04-.2471c-.4587-.1394-.0336.04-.4247-.17-.2408-.13-.469-.27-.6966-.4216-.0094-.0062-.3584-.2636-.1447-.102.1932.146-.2048-.17-.24-.2a19.2963,19.2963,0,0,0-10.1669-4.2846,22.5424,22.5424,0,0,0-8.27.0765,25.6948,25.6948,0,0,0-6.2615,2.4122c-3.4472,1.7809-6.8118,4.0851-10.8465,4.0384a12.7435,12.7435,0,0,1-3.21-.4731,19.3054,19.3054,0,0,1-4.5461-2.4445,49.9863,49.9863,0,0,0-8.9343-4.1063,42.1009,42.1009,0,0,0-16.08-2.2981,26.5814,26.5814,0,0,0-6.6612,1.064,1.7617,1.7617,0,0,0-1.2575,1.6517v14.4514a1.7379,1.7379,0,0,0,1.7129,1.713h.064l-1.713-1.713.1286,8.2842a1.74,1.74,0,0,0,1.7129,1.7129H369.8683c4.6548,0,9.35.1794,14.0024,0,.068-.0026.1366,0,.2047,0a1.7481,1.7481,0,0,0,1.7129-1.7129,32.297,32.297,0,0,0-2.3372-12.7776C382.6813,854.3409,379.3684,855.2266,380.1476,857.2957Z"/><path d="M578.6216,220.2137c.1229-.3982.2594-.7926.3979-1.1856q.2313-.6561.48-1.3058.1439-.3757.2932-.7493.0735-.1839.1485-.3672c.0375-.0918.2443-.5849.0927-.2281.5313-1.25,1.11-2.4815,1.7588-3.6753.346-.6366.7118-1.2627,1.1046-1.8716q.2792-.4327.5775-.8527c.0905-.127.1829-.2526.2759-.3778.16-.2158-.1517.1891.014-.0193.0631-.0794.1265-.1585.191-.2369a13.0457,13.0457,0,0,1,1.5093-1.5526c.2924-.2548-.0989.0456.131-.1062.1453-.0961.285-.1991.4337-.29.1442-.0886.2925-.1681.4418-.2476.0548-.0291.1122-.0533.1678-.0808.2126-.1053-.3889.1506-.0136.0087a1.7613,1.7613,0,0,0,1.1964-2.1071,1.7263,1.7263,0,0,0-2.1071-1.1963c-2.8911,1.0927-4.8489,3.7064-6.3651,6.2883a45.9841,45.9841,0,0,0-3.46,7.5711c-.2013.5532-.3985,1.1092-.5722,1.6717-.6521,2.1113,2.6538,3.0142,3.3035.9108Z"/><line class="cls-3" x1="165.6951" y1="384.4123" x2="111.1989" y2="396.8824"/><path d="M165.24,382.7606l-18.3921,4.2085-29.3385,6.7134-6.7656,1.5481c-2.1483.4916-1.239,3.7954.9107,3.3035l18.392-4.2085,29.3385-6.7134,6.7657-1.5481c2.1483-.4916,1.239-3.7954-.9107-3.3035Z"/><path class="cls-3" d="M316.5613,287.3382H245.6594v0a19.4011,19.4011,0,0,1,19.1882-16.5349h14.3188a19.4012,19.4012,0,0,1,8.738,2.0791Z"/><path d="M316.5613,285.6252H245.6594l1.6517,2.1683a17.8883,17.8883,0,0,1,15.7963-15.2c2.0532-.1834,4.1544-.0774,6.2123-.0774h8.3084a20.6574,20.6574,0,0,1,9.414,1.8464c.9453.4661,1.8823.95,2.8233,1.4242l14.599,7.3644,11.2323,5.6661c1.9636.9906,3.7-1.9639,1.7291-2.9581l-25.3266-12.7759c-1.1031-.5565-2.202-1.1223-3.31-1.67a23.2319,23.2319,0,0,0-10.5057-2.3233c-4.7584,0-9.5565-.192-14.3106.02a21.2787,21.2787,0,0,0-19.9655,17.7723,1.742,1.742,0,0,0,1.6517,2.1683h70.9019A1.714,1.714,0,0,0,316.5613,285.6252Z"/><path d="M322.6077,236.8009a10.4393,10.4393,0,0,0,6.112,4.6716,8.933,8.933,0,0,0,3.8965.0619,1.7225,1.7225,0,0,0,1.1964-2.1071,1.7576,1.7576,0,0,0-2.1071-1.1964q-.1144.0228-.23.0419-.2855.044.1165-.013a1.7785,1.7785,0,0,0-.4412.0379,6.6943,6.6943,0,0,1-.8463-.0078c-.1729-.0126-.5347-.1461-.0486.0049-.1221-.0379-.2635-.044-.3892-.0707a6.7734,6.7734,0,0,1-.74-.2022c-.1182-.0395-.234-.0846-.3509-.1279-.2839-.1049.4057.1868-.0113-.0087q-.3224-.1514-.63-.332-.2957-.1734-.5763-.3708c-.09-.0634-.177-.1326-.2677-.1954.4688.3248.1362.1045.0315.0176a11.7454,11.7454,0,0,1-1.4909-1.53c-.1629-.1944.3128.4181.12.1549-.0337-.0459-.0681-.0912-.1015-.1373q-.08-.1109-.157-.2242c-.0435-.0646-.0868-.13-.1268-.1965a1.7132,1.7132,0,0,0-2.9581,1.7291Z"/><path d="M260.0408,766.9253h92.6643c1.2432,0,2.5281.094,3.7687,0,.0547-.0041.1112,0,.1662,0a.857.857,0,0,0,0-1.7129H263.9757c-1.2432,0-2.5281-.094-3.7688,0-.0546.0041-.1112,0-.1661,0a.857.857,0,0,0,0,1.7129Z"/><line class="cls-4" x1="126.7005" y1="705.363" x2="210.9255" y2="748.7673"/><path d="M126.2682,706.1025l8.3652,4.3109,20.0934,10.3549L179.0451,733.3l21.04,10.8426c3.3989,1.7515,6.7624,3.7322,10.258,5.2863.0513.0228.1.0518.15.0775.9784.5042,1.8459-.9733.8646-1.479l-8.3652-4.3109L182.8992,733.362,158.5809,720.83l-21.04-10.8426c-3.3989-1.7515-6.7624-3.7322-10.258-5.2863-.0513-.0228-.1-.0518-.15-.0775-.9784-.5042-1.8459.9733-.8646,1.479Z"/><path d="M196.7439,493.7386H218.16l-.8565-.8564-1.556,21.3871-.8532,11.7266c-.0551.757-.093,1.5182-.1747,2.273a15.16,15.16,0,0,1-14.89,13.47c-1.9315.0274-3.8649.0019-5.7966.0019a.857.857,0,0,0,0,1.7129c5.115,0,10.1111.2665,14.6339-2.6083a17.24,17.24,0,0,0,7.8427-13.5107q.9361-12.5937,1.8328-25.19l.6738-9.2616a.8651.8651,0,0,0-.8564-.8565H196.7439a.857.857,0,0,0,0,1.7129Z"/><path d="M278.2578,543.4533c5.115,0,10.1111.2665,14.6339-2.6083a17.24,17.24,0,0,0,7.8428-13.5107q.936-12.5937,1.8327-25.19l.6739-9.2616a.8653.8653,0,0,0-.8565-.8565H265.4393a.8689.8689,0,0,0-.8565.8565v31.5521a58.2625,58.2625,0,0,0,.0924,6.6358,14.0747,14.0747,0,0,0,13.5826,12.3832.857.857,0,0,0,0-1.7129,12.3318,12.3318,0,0,1-11.9439-11.5269c-.0988-1.919-.0182-3.8591-.0182-5.7792V492.8822l-.8564.8564h36.9453l-.8565-.8564-1.556,21.3871-.8532,11.7266c-.0551.757-.093,1.5182-.1747,2.273a15.16,15.16,0,0,1-14.89,13.47c-1.9315.0274-3.865.0019-5.7967.0019A.857.857,0,0,0,278.2578,543.4533Z"/><path d="M433.6656,332.7832l14.7429,8.3857,23.4826,13.3568,5.3688,3.0537c1.9192,1.0917,3.6474-1.867,1.7291-2.9581l-14.743-8.3857-23.4826-13.3568-5.3687-3.0537c-1.9193-1.0917-3.6475,1.867-1.7291,2.9581Z"/><path d="M845.96,615.9351V458.4881a13,13,0,0,0,0-2.1552,1.6445,1.6445,0,0,1,0-.2709l-.6288.8259a120.9313,120.9313,0,0,0,13.4748-5.2013A74.43,74.43,0,0,0,900.7732,384.69l-.8564.8565H931.32a.857.857,0,0,0,0-1.7129H899.9168a.8689.8689,0,0,0-.8565.8564,72.7579,72.7579,0,0,1-38.8982,64.397,107.2589,107.2589,0,0,1-15.2866,6.1491.8829.8829,0,0,0-.6288.8258v140.27c0,6.432-.2078,12.903,0,19.3327.0029.09,0,.1807,0,.2709a.857.857,0,0,0,1.7129,0Z"/><path d="M845.1031,496.5837l22.431.0119,35.6057.0189,8.1964.0044a.857.857,0,0,0,0-1.7129l-22.431-.012L853.3,494.8751l-8.1965-.0044a.857.857,0,0,0,0,1.713Z"/><path d="M845.39,527.1311l22.431.0119,35.6057.0189,8.1964.0044a.857.857,0,0,0,0-1.7129l-22.431-.012-35.6056-.0189-8.1965-.0044a.857.857,0,0,0,0,1.713Z"/><path d="M845.6759,557.6785l22.431.0119,35.6057.0189,8.1965.0044a.857.857,0,0,0,0-1.7129l-22.4311-.012-35.6056-.0189-8.1965-.0044a.857.857,0,0,0,0,1.713Z"/><path d="M674.9525,543.1358h-23.41l.8564.8564V529.7178l-.8564.8565h23.41l-.8564-.8565v14.2744a.857.857,0,0,0,1.7129,0V529.7178a.8689.8689,0,0,0-.8565-.8564h-23.41a.8689.8689,0,0,0-.8565.8564v14.2744a.8689.8689,0,0,0,.8565.8565h23.41A.857.857,0,0,0,674.9525,543.1358Z"/><path d="M669.2428,528.8057h-11.99l.8565.8564v-7.3112l-.8565.8564h11.99l-.8565-.8564v7.3112a.857.857,0,0,0,1.7129,0v-7.3112a.8689.8689,0,0,0-.8564-.8565h-11.99a.8689.8689,0,0,0-.8565.8565v7.3112a.8689.8689,0,0,0,.8565.8565h11.99A.857.857,0,0,0,669.2428,528.8057Z"/><path d="M664.104,522.3509V473.7623a.857.857,0,0,0-1.7129,0v48.5886a.857.857,0,0,0,1.7129,0Z"/><path d="M508.2278,778.9485h29.12a.8689.8689,0,0,0,.8565-.8565V705.5782l-.8565.8565H715.6126a18.2967,18.2967,0,0,0,2.4278,0,2.302,2.302,0,0,1,.3063,0l-.8565-.8565a30.829,30.829,0,0,0,24.3359,29.9129,44.7585,44.7585,0,0,0,9.0661.6343l-.8564-.8565V778.092a.857.857,0,0,0,1.7129,0V735.2689a.8689.8689,0,0,0-.8565-.8565,47.6745,47.6745,0,0,1-7.1066-.3051,28.8008,28.8008,0,0,1-9.3959-3.1227,28.7595,28.7595,0,0,1-15.1866-25.4064.8689.8689,0,0,0-.8564-.8565H544.72c-2.352,0-4.7142-.0637-7.0657,0-.1019.0028-.2043,0-.3063,0a.8689.8689,0,0,0-.8564.8565V778.092l.8564-.8564h-29.12a.857.857,0,0,0,0,1.7129Z"/><line class="cls-9" x1="606.8914" y1="154.496" x2="615.8382" y2="139.0536"/><path d="M608.3705,155.3606l7.8265-13.5087,1.12-1.9337a1.7142,1.7142,0,0,0-2.9581-1.7291l-7.8265,13.5087-1.12,1.9337a1.7142,1.7142,0,0,0,2.9582,1.7291Z"/><line class="cls-9" x1="588.8679" y1="148.6634" x2="588.0035" y2="130.8374"/><path d="M590.5808,148.6634l-.7556-15.5828-.1088-2.2432c-.1064-2.1946-3.5329-2.2074-3.4258,0l.7556,15.5829.1088,2.2431c.1064,2.1946,3.5329,2.2075,3.4258,0Z"/><line class="cls-9" x1="619.8629" y1="167.1665" x2="635.8184" y2="159.1704"/><path d="M620.7274,168.6455l13.9747-7.0033,1.9808-.9927a1.7132,1.7132,0,0,0-1.7291-2.9582l-13.9746,7.0034-1.9808.9927a1.7132,1.7132,0,1,0,1.729,2.9581Z"/></svg>