<svg id="Layer_1" data-name="Layer 1" xmlns="http://www.w3.org/2000/svg" width="1000" height="1000" viewBox="0 0 1000 1000"><defs><style>.cls-1{fill:#a8542a;}.cls-2{fill:#ffc41f;}.cls-3{fill:#fc7272;}.cls-4{fill:#fff;}.cls-5{fill:#389b48;}.cls-6{fill:#ea2f2f;}</style></defs><path class="cls-1" d="M705.8585,192.5435s49.3087-9.6287,52.3557,57.7717c0,49.9485-77.6308,32.4966-77.029,74.6219-20.4609-30.0895-1.2036-70.4093,29.4877-84.8523-10.8322-7.8233-15.3144-30.26-15.3144-30.26"/><path d="M706.2876,194.1c.1225-.0238.246-.0434.3693-.0632.1523-.0245.3054-.0438.4577-.0676.1695-.0266-.5116.0587-.1119.0157.1124-.0121.2246-.0278.3369-.0409,1.3173-.153,2.6437-.2313,3.9695-.2547a46.5313,46.5313,0,0,1,5.7752.2586c.2576.0276.5148.0582.7721.0892.1338.0162.4877.0643.16.0194.155.0213.31.043.4647.0663.5679.0851,1.1344.1784,1.6989.2839q1.8675.3491,3.7006.8576a38.062,38.062,0,0,1,14.887,7.9393,46.7784,46.7784,0,0,1,12.683,19.1176,80.07,80.07,0,0,1,3.9274,15.42c.8793,5.56,1.5738,11.3621,1.0071,16.9861a30.8986,30.8986,0,0,1-9.0145,19.0676c-5.1055,5.037-11.6157,8.4164-18.1473,11.2265-6.8643,2.9532-13.9808,5.27-20.9295,8.0093-6.5378,2.5772-13.0857,5.4771-18.5718,9.9511a26.5951,26.5951,0,0,0-9.7439,16.3773,33.3031,33.3031,0,0,0-.4072,5.5787l3.0072-.8145a48.6457,48.6457,0,0,1-7.2967-36.6636,66.3719,66.3719,0,0,1,36.2055-45.9807c1.2041-.5707.879-2.1417,0-2.787-4.3687-3.2067-7.1872-8.3408-9.37-13.1806a80.984,80.984,0,0,1-4.5528-13.3318c-.2347-.9228-.463-1.85-.65-2.7835-.4084-2.0348-3.52-1.1736-3.1123.858a75.9787,75.9787,0,0,0,2.2324,8.2789,63.4962,63.4962,0,0,0,7.1608,15.7246,27.9505,27.9505,0,0,0,6.6627,7.2214v-2.787a69.85,69.85,0,0,0-29.6867,27.3009c-6.8012,11.4115-10.38,24.9576-8.6053,38.2317a50.4439,50.4439,0,0,0,8.2254,21.5277,1.6275,1.6275,0,0,0,3.0073-.8145,23.7211,23.7211,0,0,1,6.8107-17.5148c4.6682-4.6778,10.9175-7.7352,17.0468-10.2729,7.0782-2.93,14.3739-5.2979,21.465-8.1962,6.9285-2.8319,13.7721-6.1265,19.5046-11.0186a33.8935,33.8935,0,0,0,11.3031-18.7263,49.8408,49.8408,0,0,0,.4517-15.2923,96.43,96.43,0,0,0-3.1167-17.2506c-2.3746-8.3264-6.2167-16.3588-12.1389-22.7545a41.5144,41.5144,0,0,0-15.827-10.5964,45.8689,45.8689,0,0,0-14.4067-2.8263,35.6113,35.6113,0,0,0-8.0928.4359c-.1224.024-.2467.0394-.3693.0632-2.0369.3959-1.1745,3.5073.8581,3.1123Z"/><path class="cls-2" d="M648.023,295.8364l-9.2944,144.6011c-3.0332,20.1908-30.8518,35.3347-59.4272,23.32h0a92.3216,92.3216,0,0,1-24.8622-11.4087L481.113,404.706c3.64-4.9524,23.86-24.4352,27.471-31.1488,5.6482-10.5,9.6587-20.5085,11.47-27.9362l60.0207,32.6865,15.906-79.8711A44.9126,44.9126,0,0,1,635.859,262.49l20.51-1.9126"/><path d="M646.4093,295.8364l-.8468,13.1741-2.06,32.0534-2.5537,39.73-2.327,36.2028-1.38,21.4727c-.0375.584-.0629,1.17-.1127,1.7536-.0347.4071.0318-.0786-.0495.3613a25.9631,25.9631,0,0,1-1.601,5.4624c-3.3264,7.811-10.3331,13.5939-18.0117,16.8709a46.942,46.942,0,0,1-29.613,1.9965c-2.7977-.6994-5.4143-1.7576-8.123-2.713-2.692-.9494-5.4337-1.708-8.0974-2.754a91.9013,91.9013,0,0,1-16.3794-8.492q-8.3228-5.3979-16.6367-10.8094l-32.6751-21.23-22.86-14.8532-1.1538-.75.5789,2.208c.0583-.0786.3013-.3032.0336-.0491a3.4122,3.4122,0,0,0,.2493-.3126c.1933-.2345.3868-.4687.5839-.7.4829-.5666.9782-1.1226,1.4772-1.675,1.2639-1.3994,2.5554-2.774,3.85-4.1455,3.2394-3.4326,6.509-6.8366,9.7235-10.2927,2.9438-3.1652,5.8882-6.3532,8.5764-9.7414,3.0908-3.8958,5.1963-8.3278,7.2933-12.8237a108.7219,108.7219,0,0,0,7.3174-19.7305l-2.3707.9644,20.3106,11.0609,32.3364,17.61,7.3738,4.0157a1.63,1.63,0,0,0,2.3706-.9645l3.6343-18.2492,7.1185-35.7455,4.92-24.7074a46.91,46.91,0,0,1,5.114-14.2855,43.6487,43.6487,0,0,1,18.2906-17.2971c5.7437-2.8824,11.8417-4.04,18.17-4.63l16.1925-1.51,1.297-.1209c2.0507-.1912,2.0707-3.4207,0-3.2276l-13.904,1.2966c-5.6781.5294-11.3414.9116-16.8069,2.6951a46.9752,46.9752,0,0,0-31.2549,35.1616c-1.3994,6.9352-2.7637,13.8777-4.1455,20.8163l-7.2195,36.2523-2.9362,14.7441c-.4986,2.5036-1.2133,5.06-1.5129,7.5969-.0139.1177-.047.2359-.07.3524l2.3707-.9644-20.3106-11.0609-32.3364-17.61-7.3737-4.0156a1.6321,1.6321,0,0,0-2.3707.9644,101.0087,101.0087,0,0,1-6.2262,17.2922c-2.0863,4.6148-4.1514,9.4614-7.2776,13.4866-5.4332,6.9957-11.842,13.2663-17.9206,19.691a92.8941,92.8941,0,0,0-7.3544,8.23,1.6353,1.6353,0,0,0,.5789,2.208L497.294,417.142l32.9085,21.3817,22.5393,14.6445a99.7036,99.7036,0,0,0,19.9259,10.11c2.7337,1.0048,5.52,1.8224,8.2442,2.8473a54.8012,54.8012,0,0,0,8.2935,2.4024,51.7506,51.7506,0,0,0,15.7.85,44.5546,44.5546,0,0,0,25.5056-10.9438c5.0255-4.5911,9.297-11.1643,9.9373-18.0921.4687-5.07.6546-10.1827.9811-15.2631l2.1618-33.6334,2.579-40.1233,2.2845-35.5411,1.2248-19.0554.0571-.8889c.1334-2.074-3.0948-2.0659-3.2275,0Z"/><path d="M481.1343,404.8365c3.0365,1.6277,9.4036-3.8691,16.41-13.4323l-13.8123-8.9985C479.24,394.1953,477.9782,403.1448,481.1343,404.8365Z"/><path d="M480.32,406.23c2.9128,1.4562,6.0171-.6519,8.2486-2.4276,4.05-3.2223,7.322-7.4413,10.37-11.5837a1.6357,1.6357,0,0,0-.5789-2.208l-13.8123-8.9985a1.6349,1.6349,0,0,0-2.3707.9645,64.8753,64.8753,0,0,0-4.2724,15.8417c-.2993,2.7742-.3893,6.8058,2.416,8.4116a1.615,1.615,0,0,0,1.629-2.7869c-.0211-.0121-.3113-.224-.1526-.0829.1706.1517-.0961-.096-.1235-.13-.266-.329.104.17-.0388-.0419a2.8508,2.8508,0,0,1-.182-.3043c-.1314-.26.0157.0747-.0541-.1-.05-.1259-.0908-.2559-.1294-.3859a6.432,6.432,0,0,1-.1931-.8707,17.0368,17.0368,0,0,1,.141-4.396,67.2242,67.2242,0,0,1,4.0722-14.2969l-2.3706.9644,13.8123,8.9985-.579-2.2079A61.35,61.35,0,0,1,487.14,400.81a14.4314,14.4314,0,0,1-3.44,2.3425,4.4566,4.4566,0,0,1-.6343.2293,4.2611,4.2611,0,0,0-.4238.1091c-.1188.011-.7082.0083-.341.0364a1.5609,1.5609,0,0,1-.2582-.0562c-.3943-.1015.2665.1521-.0946-.0284C480.0962,402.5169,478.46,405.3,480.32,406.23Z"/><path class="cls-3" d="M508.5826,373.6782c5.6325-10.508,9.628-20.5229,11.4287-27.9534l-11.1441-6.0212-18.3311-9.9044-22.1649,42.599,15.3612,10.0075,13.8123,8.9985A151.6241,151.6241,0,0,0,508.5826,373.6782Z"/><path d="M509.976,374.4927c4.786-8.9589,9.163-18.4371,11.5915-28.3389a1.6476,1.6476,0,0,0-.7417-1.8224L496.695,331.2933l-5.3444-2.8876a1.636,1.636,0,0,0-2.208.579l-7.516,14.4451-11.9087,22.8876-2.74,5.2663a1.6548,1.6548,0,0,0,.5789,2.208l22.9986,14.9831,6.1749,4.0228a1.6509,1.6509,0,0,0,2.2079-.5789,152.4268,152.4268,0,0,0,11.0379-17.726c.9838-1.8292-1.8016-3.461-2.7869-1.629a152.4268,152.4268,0,0,1-11.0379,17.726l2.208-.579q-11.7228-7.6372-23.4457-15.2744l-5.7278-3.7316.579,2.208,7.516-14.4451L489.19,335.88l2.74-5.2663-2.208.5789,22.5054,12.16,6.97,3.7658-.7416-1.8225c-2.3656,9.6454-6.6039,18.8405-11.2661,27.5679C506.2107,374.6952,508.9959,376.3275,509.976,374.4927Z"/><path class="cls-3" d="M501.6229,335.7894l-11.0386-5.94-9.8794-23.6249a21.6788,21.6788,0,0,0-17.988-13.7053l-33.4958,3.7927s-24.8937,1.7285-9.7343,16.6546c0,0-6.2132,6.8066,4.0584,14.1762-2.5433,5.313,11.6075,13.6511,15.6573,14.1418-1.5107,5.7482,2.359,10.0408,9.9639,9.787l6.8129.8367,5.4971,11.8987a23.0169,23.0169,0,0,0,8.493,9.737l8.8277,5.6464"/><path d="M502.4374,334.396l-11.0386-5.94.7416.9645-8.6473-20.6787c-1.6108-3.852-3.1713-7.5989-6.1031-10.6968a23.5475,23.5475,0,0,0-8.8473-5.8148,15.3187,15.3187,0,0,0-6.251-1.2765c-7.9679.6712-15.9237,1.803-23.8689,2.7026-4.6233.5235-9.4172.7882-13.9845,1.7421-3.294.688-6.96,1.8112-9.3785,4.2782-3.0974,3.1593-2.2332,7.4421.1311,10.77a28.3715,28.3715,0,0,0,3.1548,3.6614v-2.2823a9.6318,9.6318,0,0,0-2.3046,5.57c-.4122,4.7634,3.13,8.5349,6.69,11.1407l-.5789-2.208c-1.8974,4.2675,2.2045,8.1847,5.2722,10.5778a39.1745,39.1745,0,0,0,6.1685,3.9586,16.9,16.9,0,0,0,5.1809,1.9761l-1.1271-1.9852a9.3277,9.3277,0,0,0,.9346,7.4125,9.9583,9.9583,0,0,0,6.4042,4.068c2.0246.4238,4.116.3413,6.1676.5933l4.8266.5927-1.3935-.7993,5.2552,11.375a25.3753,25.3753,0,0,0,5.9863,8.3,46.1215,46.1215,0,0,0,6.1948,4.374l5.96,3.8124c1.755,1.1225,3.3755-1.67,1.629-2.7869l-8.1727-5.2275a23.4746,23.4746,0,0,1-8.8851-10.261l-4.6618-10.0907a9.1058,9.1058,0,0,0-.5089-1.1015,2.2549,2.2549,0,0,0-1.9085-.8838l-5.5823-.6855c-2.4771-.3042-4.8987-.057-7.0939-1.519-2.1621-1.44-2.6346-3.914-2.04-6.3143a1.6254,1.6254,0,0,0-1.1271-1.9852,13.2109,13.2109,0,0,1-3.959-1.4229,38.1134,38.1134,0,0,1-5.3861-3.256,20.0628,20.0628,0,0,1-4.247-3.92,6.5159,6.5159,0,0,1-1.0375-1.83,1.9715,1.9715,0,0,1-.0632-1.3419,1.68,1.68,0,0,0-.579-2.208c-2.6554-1.944-5.5389-4.8956-5.0842-8.447a6.191,6.191,0,0,1,.8276-2.4007c.1546-.2709.3306-.5241.5062-.7812.0585-.0857-.2422.2765.0186-.0127a1.6448,1.6448,0,0,0,0-2.2823c-1.827-1.8171-3.9145-4.0226-4.3776-6.6644a2.4779,2.4779,0,0,1-.0393-.4161c-.0043-.1876-.0048-.3734.0061-.5607.0112-.1929-.0287.0048.0515-.3287a4.9472,4.9472,0,0,1,.2181-.7084c-.1122.276.0752-.1337.12-.2111.0981-.1711.2-.3376.313-.4991.1464-.2086-.1425.1716.0182-.0288q.0941-.1173.1962-.2281c.1556-.1692.3153-.3326.4844-.4883a12.5365,12.5365,0,0,1,4.24-2.26,31.78,31.78,0,0,1,5.0678-1.2235c.3039-.05.6084-.0947.9132-.1378-.0042.0006-.2777.0321.0964-.0116.1359-.0159.2716-.0331.4075-.0483.28-.0314.56-.0539.84-.082.612-.0615,1.2228-.137,1.834-.2062l12.8533-1.4554,14.6386-1.6575c1.2777-.1446,2.56-.3373,3.8423-.435,2.31-.176,5.0209.9066,7.0514,1.9232a20.1831,20.1831,0,0,1,8.1458,7.4018,31.8335,31.8335,0,0,1,2.1718,4.52l5.3725,12.8475c1.3068,3.1249,2.5042,6.3267,3.9307,9.3994.6505,1.4013,2.75,2.0546,4.0369,2.7469l6.4865,3.49,1.2618.679c1.829.9842,3.4607-1.8013,1.629-2.7869Z"/><path d="M759.1188,415.0013l1.9864,9.0193A26.7455,26.7455,0,0,1,747.43,453.4473l-30.3838,15.9715-8.1815-61.3966"/><path d="M757.5627,415.43c.9824,4.4608,2.4365,9.0952,2.5486,13.6837A25.29,25.29,0,0,1,749.75,450.1215a77.7385,77.7385,0,0,1-9.1837,5.1123L726.0012,462.89l-9.7695,5.1354,2.4283,1.3935-2.76-20.7125-4.404-33.05-1.0174-7.6345a1.67,1.67,0,0,0-1.6138-1.6138,1.6217,1.6217,0,0,0-1.6138,1.6138l2.76,20.7124,4.404,33.05,1.0174,7.6345a1.64,1.64,0,0,0,2.4283,1.3934l23.408-12.3045c3.0617-1.6094,6.3068-3.077,9.205-4.979A28.6794,28.6794,0,0,0,763.2229,432.35c.5815-6-1.269-11.9712-2.5479-17.7781-.4466-2.0276-3.5589-1.1695-3.1123.858Z"/><path class="cls-3" d="M661.0541,758.4748l-7.809,82.5772L539.8719,830.7s1.0042-32.2992,43.5107-31.9a15.2484,15.2484,0,0,0,15.3858-13.982c.8168-10.0494,1.5619-19.7766,1.5619-19.7766"/><path d="M659.44,758.4748l-2.6543,28.068-4.1962,44.373-.9585,10.1362,1.6138-1.6138-11.2706-1.0291-27.068-2.4716-32.7507-2.99-28.3183-2.5858-9.3626-.8549a38.0825,38.0825,0,0,0-4.4081-.4025,1.6665,1.6665,0,0,1-.1949-.0178l1.6138,1.6138a3.9553,3.9553,0,0,1,.0272-.4342c.0246-.1711.03-.3472.0486-.5192.01-.099.0234-.1977.0336-.2966.0462-.4495-.0049.0124.0037-.0462a33.699,33.699,0,0,1,.924-4.3382,31.5257,31.5257,0,0,1,6.4493-12.0847,35.1515,35.1515,0,0,1,17.137-10.481,57.7991,57.7991,0,0,1,14.1721-2.0563c2.6873-.0792,5.3335.0663,7.95-.6893A17.2263,17.2263,0,0,0,594.73,796.19a16.8825,16.8825,0,0,0,4.7092-6.9188c1.1431-3.1013,1.1137-6.5477,1.3738-9.8035q.5761-7.2124,1.1309-14.4266c.1587-2.0715-3.07-2.0612-3.2276,0q-.4465,5.8274-.91,11.6533c-.443,5.5892-.1039,11.6812-4.1755,16.069a13.7275,13.7275,0,0,1-5.9354,3.7815c-2.5548.7994-5.1527.5922-7.7911.6831a61.3613,61.3613,0,0,0-14.5129,2.12,38.58,38.58,0,0,0-18.1106,10.6886,35.2652,35.2652,0,0,0-7.5318,13.0529,28.4172,28.4172,0,0,0-1.4908,7.6109,1.65,1.65,0,0,0,1.6138,1.6138l11.2706,1.0292,27.068,2.4716,32.7507,2.99,28.3183,2.5857,9.3626.8549c1.4566.133,2.9448.37,4.4081.4025.0647.0015.13.0119.1949.0178.9258.0846,1.5379-.8117,1.6138-1.6138l2.6542-28.0679,4.1962-44.3731.9585-10.1362c.1955-2.0668-3.0334-2.0534-3.2275,0Z"/><path class="cls-4" d="M593.26,793.9177a15.7116,15.7116,0,0,1-11.9372,5.2976c-43.6271-.4094-44.6578,32.7413-44.6578,32.7413l85.6791.1313-1.3426-4.91a52.143,52.143,0,0,0-27.7415-33.26Z"/><path d="M592.1189,792.7766a14.4543,14.4543,0,0,1-5.4628,3.8553,18.9229,18.9229,0,0,1-6.9058.9694,69.9464,69.9464,0,0,0-12.6449,1.2159,43.8094,43.8094,0,0,0-17.4439,7.2229,35.9476,35.9476,0,0,0-13.7855,20.6216,26.5611,26.5611,0,0,0-.8248,5.2949,1.634,1.634,0,0,0,1.6138,1.6138l8.5152.0131,20.451.0313,24.7467.0379,21.4016.0328c3.4582.0053,6.96.1712,10.4154.0159.05-.0022.1,0,.1492,0a1.6308,1.6308,0,0,0,1.5562-2.0429c-1.4294-5.2277-2.8724-10.3722-5.35-15.23a53.8488,53.8488,0,0,0-24.4761-23.9042c-1.8639-.8943-3.503,1.8878-1.629,2.7869a50.936,50.936,0,0,1,26.7954,31.5682c.5415,1.8715,1.0332,3.7582,1.5471,5.6375l1.5561-2.0428-8.5151-.0131-20.4511-.0313-24.7466-.0379L547.23,830.359l-7.0319-.0107a24.8422,24.8422,0,0,0-3.3835-.0052,1.11,1.11,0,0,1-.1493,0l1.6138,1.6137c.0117-.3588.049-.7177.0883-1.0742.02-.182.0437-.3634.0665-.545-.074.59.0209-.1251.0547-.336q.1311-.8179.3056-1.6283a32.5322,32.5322,0,0,1,3.2619-8.9126c5.1133-9.4768,14.5384-15.1337,24.9839-17.3438a65.0784,65.0784,0,0,1,13.4922-1.2914,18.0882,18.0882,0,0,0,13.8692-5.7664C595.7936,793.5232,593.5178,791.2339,592.1189,792.7766Z"/><path class="cls-5" d="M627.4911,420.2068,592.4069,762.8426l90.4212,7.9942S705.067,520.81,705.7418,483.0419s-2.9057-88.4982-2.9057-88.4982"/><path d="M625.8773,420.2068l-.9373,9.1538-2.551,24.9135-3.7733,36.8507-4.6043,44.9659-5.0439,49.2587-5.092,49.7294-4.7489,46.3778-4.0142,39.204-2.8884,28.208c-.4564,4.4571-1.0864,8.9348-1.3728,13.407-.0121.1891-.0387.3783-.0581.567-.0943.9209.8193,1.5435,1.6138,1.6138l30.4677,2.6936,48.7856,4.3132,11.1679.9874a1.6434,1.6434,0,0,0,1.6138-1.6138q.4263-4.7935.8484-9.5876,1.137-12.8852,2.2619-25.7713,1.6361-18.7338,3.25-37.4695,1.9243-22.3392,3.8136-44.6812,2.0025-23.7013,3.9518-47.407,1.8726-22.82,3.665-45.6465,1.5441-19.7691,2.9635-39.5478c.67-9.5013,1.3233-19.0062,1.8056-28.5192.72-14.1974.4784-28.431.0891-42.6353q-.7158-26.12-2.4511-52.2035-.0924-1.4123-.19-2.8242c-.1452-2.06-3.3739-2.0763-3.2276,0,.9066,12.8646,1.5555,25.7521,2.0792,38.6372.7316,17.9992,1.4072,36.1082.6971,54.1188-.3332,8.45-.9,16.8917-1.47,25.3281q-1.2561,18.5909-2.7119,37.1678-1.7083,22.2652-3.5288,44.5218-1.9258,23.6974-3.92,47.3894-1.93,22.98-3.903,45.9558-1.6938,19.7419-3.413,39.4815-1.27,14.5857-2.5537,29.17c-.4049,4.5993-1.15,9.3052-1.23,13.9249-.0035.1982-.0355.4-.0531.5975l1.6138-1.6138L652.36,766.5293l-48.7856-4.3132-11.1679-.9873,1.6138,1.6138.9373-9.1539,2.551-24.9134,3.7734-36.8508,4.6043-44.9658L610.9305,597.7l5.092-49.7294,4.7489-46.3778,4.0143-39.204,2.8883-28.2079c.4564-4.4572,1.0864-8.9348,1.3728-13.407.0122-.1892.0388-.3784.0581-.567.2114-2.0643-3.0177-2.05-3.2276,0Z"/><path class="cls-3" d="M886.9711,635.7963l77.661,29.1333L924.99,771.65s-30.9125-9.4163-19.411-50.3391a15.2484,15.2484,0,0,0-9.4715-18.507c-9.486-3.4166-18.68-6.68-18.68-6.68"/><path d="M886.5421,637.3525l26.3969,9.9023L954.67,662.91l9.5328,3.576-1.1272-1.9851L959.1351,675.11l-9.4646,25.48L938.219,731.4181l-9.9018,26.6565-3.2737,8.8131a37.92,37.92,0,0,0-1.5413,4.1494,1.675,1.675,0,0,1-.0682.1835l1.9852-1.1271c-.1493-.0457-.3024-.0923-.4464-.1522-.1549-.0644-.316-.1167-.4724-.1775-.0978-.0381-.1946-.0784-.2924-.1163-.3978-.1542-.0329-.0108-.0821-.0323a33.7457,33.7457,0,0,1-3.9552-2.0423,31.5891,31.5891,0,0,1-10.051-9.5648,35.4919,35.4919,0,0,1-5.4912-19.7769,59.8518,59.8518,0,0,1,2.08-14.9132,21.834,21.834,0,0,0,1.0027-7.5167,17.3119,17.3119,0,0,0-2.0714-6.8751,16.9184,16.9184,0,0,0-5.5826-5.9613c-2.8347-1.8417-6.3041-2.72-9.46-3.8509q-6.3673-2.2818-12.7409-4.5463c-1.9612-.6961-2.8051,2.4212-.8581,3.1123q5.2965,1.88,10.5875,3.7751c5.0787,1.8173,11.0707,3.025,14.38,7.6839a13.7643,13.7643,0,0,1,2.5176,6.6623c.2372,2.6146-.4626,4.931-1.085,7.4361a63.3073,63.3073,0,0,0-1.9962,14.6847,39.0775,39.0775,0,0,0,5.3741,20.8431,35.1889,35.1889,0,0,0,10.7281,10.9422,28.4764,28.4764,0,0,0,7.0565,3.4984,1.6507,1.6507,0,0,0,1.9851-1.1272l3.9409-10.6092,9.4646-25.4795,11.4515-30.8288,9.9018-26.6565,3.2737-8.8132c.5094-1.3713,1.1263-2.7455,1.5413-4.1494.0183-.062.0456-.1226.0681-.1834a1.6446,1.6446,0,0,0-1.1271-1.9852l-26.3969-9.9024-41.7313-15.6548L887.4,634.24c-1.9471-.7305-2.7881,2.3882-.858,3.1123Z"/><path class="cls-4" d="M903.4506,710.5a15.712,15.712,0,0,1,1.9913,12.9072c-11.8047,42.0017,19.9227,51.6662,19.9227,51.6662l22.5339-82.6628-5.0905.0117A52.1426,52.1426,0,0,0,903.4506,710.5Z"/><path d="M902.0571,711.3146a14.44,14.44,0,0,1,2.3133,6.5609,21.6569,21.6569,0,0,1-1.0616,7.2664,69.0207,69.0207,0,0,0-1.9927,12.218,43.4849,43.4849,0,0,0,2.5445,18.6838,35.9575,35.9575,0,0,0,16.2308,18.4308,26.4413,26.4413,0,0,0,4.8442,2.1552,1.6355,1.6355,0,0,0,1.9851-1.1272l2.24-8.2153,5.3787-19.7311,6.5085-23.8755,5.6287-20.6482c.91-3.3369,1.9824-6.6728,2.7393-10.0487.0109-.0484.0262-.0961.0393-.144a1.6307,1.6307,0,0,0-1.5562-2.0428,79.7028,79.7028,0,0,0-15.7018,1.0967A53.8062,53.8062,0,0,0,902.31,709.359c-1.3509,1.5654.9223,3.8582,2.2822,2.2822a50.9583,50.9583,0,0,1,38.0174-17.6038c1.7631-.0128,3.5263-.0088,5.2894-.0129l-1.5561-2.0428-2.24,8.2154-5.3787,19.7311-6.5084,23.8754-5.6287,20.6482-1.8494,6.7843a24.7728,24.7728,0,0,0-.89,3.2645,1.0883,1.0883,0,0,1-.0393.1439l1.9852-1.1271c-.3413-.1045-.6761-.2336-1.0082-.3639-.1663-.0653-.3312-.1339-.4965-.2015.52.2128-.1313-.0589-.3123-.14q-.7614-.3423-1.5036-.7251a32.5444,32.5444,0,0,1-7.725-5.4514c-7.7045-7.2879-10.7529-17.66-10.2689-28.1409a64.193,64.193,0,0,1,2.1944-13.47,20.614,20.614,0,0,0,.8352-7.9818,17.6543,17.6543,0,0,0-2.6647-7.3565C903.7291,707.94,900.9344,709.5573,902.0571,711.3146Z"/><path class="cls-5" d="M726.1288,385.89l24.56,53.5457a190.8009,190.8009,0,0,1,15.3,51.4979l11.5894,77.9781c36.2773,10.5288,127.0189,49.1015,127.0189,49.1015l-31.3635,85.1834-98.8712-34.9239a132.3037,132.3037,0,0,1-79.7819-78.2074L662.418,504.0743l-2.8625-79.8484"/><path d="M724.7353,386.7044,737.7412,415.06c4.7645,10.3875,9.8268,20.6957,14.2073,31.2548a190.9225,190.9225,0,0,1,11.837,40.9927c.5862,3.4344,1.0683,6.8879,1.5805,10.3339l5.951,40.0406,2.99,20.1149c.5446,3.664.9647,7.3734,1.6373,11.0167.0322.1744.0523.3518.0784.5272a1.5858,1.5858,0,0,0,1.1271,1.1272c19.9262,5.7975,39.3393,13.5626,58.6358,21.1448q28.4812,11.1913,56.6987,23.0422c4.0235,1.6813,7.6616,3.2057,11.299,4.7517l-.7416-1.8224L892.42,646.4321l-16.9009,45.903-3.8411,10.4324,1.9852-1.1271-22.038-7.7844-43.5734-15.3913-31.2531-11.0394A134.9776,134.9776,0,0,1,730.849,640.53a131.6128,131.6128,0,0,1-34.8909-51.3712q-5.3665-14.3256-10.7183-28.6569l-15.7966-42.2341-4.7756-12.7682c-.1708-.4566-.3212-.9286-.5147-1.3761-.1151-.2663-.2083-.8819-.1211-.05-.08-.7619-.0556-1.55-.083-2.3149l-1.36-37.9245-1.343-37.462-.077-2.1453c-.0742-2.0709-3.3021-2.0808-3.2275,0l1.0218,28.5027,1.5617,43.5618.21,5.8569a12.6764,12.6764,0,0,0,.1287,2.3614,62.3428,62.3428,0,0,0,2.7294,7.2975l14.7347,39.395,13.4041,35.8375c1.7546,4.6911,3.5646,9.351,5.7089,13.8838a133.912,133.912,0,0,0,76.4974,68.908q11.3933,4.0435,22.7985,8.053l43.9408,15.521,30.5587,10.7942,1.5684.554a1.6452,1.6452,0,0,0,1.9852-1.1272l10.6215-28.848,16.9009-45.9029,3.8411-10.4325a1.6114,1.6114,0,0,0-.7417-1.8225q-16.5163-7.02-33.1367-13.7951c-21.1686-8.6752-42.4113-17.1995-63.8737-25.1246-10.0334-3.7049-20.12-7.3552-30.394-10.3444l1.1271,1.1271L775.22,542.1433l-6.2407-41.99q-.7071-4.7574-1.4142-9.5149a192.1484,192.1484,0,0,0-8.93-35.8866c-4.3965-12.3909-10.2822-24.2627-15.7586-36.2023l-15.06-32.8342-.2935-.64c-.8649-1.8857-3.6477-.2476-2.7869,1.629Z"/><path class="cls-4" d="M957.4169,690.4424a4.3254,4.3254,0,0,0,2.7369,5.4706l3.8855,1.2944-30.5959,82.0188s-9.5355-2.8911-15.0375-7.7466l39.9307-108.9711L975,668.0057l-7.9185,21.0969-4.1938-1.397A4.3256,4.3256,0,0,0,957.4169,690.4424Z"/><path d="M955.8608,690.0134a6.0152,6.0152,0,0,0,3.5474,7.3366c1.3716.5394,2.8039.9478,4.2021,1.4135l-1.1271-1.9852-3.0328,8.13-7.3282,19.645-8.825,23.6571-7.6321,20.46-2.5292,6.78a27.5565,27.5565,0,0,0-1.1935,3.1994,1.2923,1.2923,0,0,1-.0552.1478l1.9852-1.1272c-5.0386-1.5363-10.3279-3.8642-14.3253-7.3315l.415,1.57,3.9675-10.8274,9.5295-26.0059,11.5317-31.47,9.9744-27.22,3.2908-8.9806a42.2017,42.2017,0,0,0,1.5666-4.2753,1.8827,1.8827,0,0,1,.07-.1913l-1.9851,1.1271,16.6634,5.4972-1.1271-1.9851-6.9326,18.47-.986,2.6268,1.9852-1.1271c-1.3957-.4649-2.7836-.9787-4.1938-1.3971a6.05,6.05,0,0,0-7.4559,3.864c-.7326,1.9461,2.3861,2.787,3.1123.858,1.2305-3.2689,5.4884-.9425,7.6794-.2126a1.6483,1.6483,0,0,0,1.9851-1.1272l6.9326-18.47.9859-2.6268a1.6375,1.6375,0,0,0-1.1271-1.9852l-16.6634-5.4972A1.6473,1.6473,0,0,0,956.78,662.08l-3.9675,10.8273-9.5294,26.006-11.5318,31.47-9.9744,27.22-3.2908,8.9807c-.5184,1.4146-1.1385,2.83-1.5666,4.2753-.0192.0647-.0469.1279-.07.1913a1.5712,1.5712,0,0,0,.415,1.57c4.4332,3.8453,10.16,6.4574,15.75,8.1616A1.6511,1.6511,0,0,0,935,779.6552l3.0327-8.13,7.3283-19.645,8.825-23.6571,7.6321-20.46c1.2283-3.2927,2.7439-6.6013,3.7227-9.9795.0145-.05.0369-.0989.0552-.1478a1.6383,1.6383,0,0,0-1.1272-1.9852c-2.3121-.77-6.487-1.37-5.4952-4.78C959.5543,688.8731,956.4406,688.02,955.8608,690.0134Z"/><path d="M931.5154,740.39c.0395-.1192.0892-.2346.1318-.3526.1466-.4058-.1323.2729.0175-.0422.09-.1888.1731-.38.2652-.5681a18.6354,18.6354,0,0,1,1.8882-3.0553c-.1462.1926.1412-.1778.1884-.2352.1225-.149.2455-.2974.3717-.4432q.4271-.494.8869-.9579a17.3421,17.3421,0,0,1,1.9159-1.682,17.7356,17.7356,0,0,1,5.5822-2.7628,24.6338,24.6338,0,0,1,9.4543-.6687,1.6264,1.6264,0,0,0,1.6138-1.6138,1.6478,1.6478,0,0,0-1.6138-1.6138c-5.5188-.56-11.305.27-15.9918,3.4007a20.8561,20.8561,0,0,0-6.8808,7.6044,14.5425,14.5425,0,0,0-.9418,2.1325c-.6551,1.9761,2.4608,2.8234,3.1123.858Z"/><path class="cls-4" d="M943.736,694.6727l-1.1611-48.2388a6.5611,6.5611,0,0,0-8.71-5.7314h0a5.5422,5.5422,0,0,0-5.4072,5.674l1.161,48.2388Z"/><path d="M945.35,694.6727l-.4849-20.1434-.6369-26.4629c-.0131-.5432-.01-1.09-.0393-1.6325a8.2544,8.2544,0,0,0-5.1921-7.153,9.1346,9.1346,0,0,0-5.1317-.1922c-1.9452.3633-3.5761.6748-5.02,2.19a7.5818,7.5818,0,0,0-1.99,5.5491c.1543,7.89.38,15.7792.57,23.6683.19,7.8952.2611,15.8035.57,23.6951.0056.1413.0068.2829.01.4243a1.6409,1.6409,0,0,0,1.6138,1.6138l14.1173.0574a1.6148,1.6148,0,0,0,0-3.2276l-14.1173-.0574,1.6138,1.6138-.4553-18.9163-.6412-26.6413c-.02-.8317-.0482-1.6637-.06-2.4956a4.0509,4.0509,0,0,1,3.789-4.2458c1.6836-.2445,3.1192-.6166,4.6843.3145a5.1,5.1,0,0,1,2.2668,2.9525,7.9078,7.9078,0,0,1,.1724,1.9858l.5862,24.3559c.1793,7.4461.2393,14.9061.538,22.3486.0053.1329.0064.2661.01.3991C942.1721,696.7462,945.4,696.7539,945.35,694.6727Z"/><circle cx="936.9324" cy="693.1322" r="10.7593"/><path d="M935.79,705.4446a12.3666,12.3666,0,1,0-11.1785-11.2393A12.4474,12.4474,0,0,0,935.79,705.4446a1.6228,1.6228,0,0,0,1.6138-1.6138,1.6532,1.6532,0,0,0-1.6138-1.6138,9.1615,9.1615,0,1,1,9.87-6.3428,9.2422,9.2422,0,0,1-9.87,6.3428C933.7229,702.0249,933.736,705.2537,935.79,705.4446Z"/><path class="cls-4" d="M626.7332,840.76a4.3257,4.3257,0,0,0-4.5645,4.0724l-.2331,4.0888L534.77,840.84s.2967-9.96,3.5443-16.54l115.6215,10.0421-.948,17.5212-22.4336-2.1256.2516-4.4132A4.3256,4.3256,0,0,0,626.7332,840.76Z"/><path d="M626.7332,839.1464a6.0117,6.0117,0,0,0-6.146,5.3494c-.1607,1.4653-.1815,2.9541-.2653,4.4256l1.6137-1.6138-8.64-.801-20.8778-1.9356L567.2761,842.24l-21.7435-2.0158-7.2056-.668a27.6892,27.6892,0,0,0-3.4-.3152,1.2657,1.2657,0,0,1-.1571-.0146l1.6138,1.6138c.1652-5.2571,1.0267-10.9652,3.324-15.7255l-1.3935.7993,11.4882.9978,27.5931,2.3965,33.3908,2.9,28.8814,2.5085,9.5288.8276a42.3856,42.3856,0,0,0,4.5362.394,1.8786,1.8786,0,0,1,.203.0176l-1.6138-1.6138-.948,17.5212,1.6138-1.6138-19.64-1.8609-2.7932-.2647,1.6138,1.6138c.0837-1.4686.2167-2.9426.2516-4.4132a6.0476,6.0476,0,0,0-5.6861-6.1784c-2.0664-.1978-2.0528,3.0311,0,3.2276,3.47.3322,2.338,5.0656,2.2069,7.364a1.6475,1.6475,0,0,0,1.6138,1.6138l19.64,1.8609,2.7932.2647a1.6369,1.6369,0,0,0,1.6138-1.6138l.948-17.5212a1.6465,1.6465,0,0,0-1.6138-1.6138l-11.4882-.9978-27.593-2.3965-33.3909-2.9-28.8814-2.5085-9.5288-.8276c-1.5007-.13-3.0293-.36-4.5362-.394-.0674-.0015-.1357-.0118-.203-.0176a1.5659,1.5659,0,0,0-1.3934.7993c-2.5555,5.2951-3.5808,11.5035-3.7647,17.3545a1.65,1.65,0,0,0,1.6138,1.6138l8.64.801,20.8779,1.9356,25.1417,2.3308,21.7435,2.0158c3.4984.3244,7.09.925,10.6058.9833.052.0008.1051.01.157.0145a1.6374,1.6374,0,0,0,1.6138-1.6137c.1391-2.4391-.3734-6.613,3.1838-6.5474C628.811,842.4124,628.8111,839.1848,626.7332,839.1464Z"/><path d="M571.7576,828.8223c.1275.007.2538.0253.381.0357.48.0391-.455-.0844.0506.0077.2022.0368.4054.067.6072.1063a19.4587,19.4587,0,0,1,3.5027,1.051c.2767.1107.02.0074-.03-.0142.08.0345.1608.0687.24.1051.1836.0843.3675.1674.5494.2554q.6068.2937,1.1922.6289.5227.3,1.026.6323c.3369.2226.9257.6514,1.0285.7333a17.7827,17.7827,0,0,1,4.1545,4.7046,24.6557,24.6557,0,0,1,3.1,8.9267,1.6261,1.6261,0,0,0,1.9852,1.1271,1.6522,1.6522,0,0,0,1.1271-1.9851c-.9-5.4877-3.2363-10.8762-7.5069-14.5755a20.84,20.84,0,0,0-9.1568-4.6291,14.4917,14.4917,0,0,0-2.25-.3378c-2.0755-.1143-2.0691,3.1137,0,3.2276Z"/><path class="cls-4" d="M619.0722,828.6618l46.2563-13.7364a6.561,6.561,0,0,0,3.254-9.9057h0a5.5421,5.5421,0,0,0-6.8906-3.7352l-46.2563,13.7363Z"/><path d="M619.5012,830.2179l19.0794-5.6659,25.3684-7.5334c.597-.1773,1.2017-.3389,1.7937-.5327a8.2625,8.2625,0,0,0,5.5882-7.2286c.1383-2.0927-.7583-3.9009-1.5942-5.7063a7.1763,7.1763,0,0,0-3.99-3.66,7.7878,7.7878,0,0,0-5.0538.0063l-22.9173,6.8056c-7.4511,2.2127-14.946,4.314-22.3624,6.6408-.1349.0423-.2713.0805-.4069.1208A1.6422,1.6422,0,0,0,613.88,815.45l3.6366,13.641a1.6152,1.6152,0,0,0,3.1123-.8581l-3.6366-13.6409-1.1272,1.9852L633.77,811.26l25.48-7.5666c2.5572-.7594,5.7973-2.0905,7.471,1.0292.836,1.5584,1.7145,3.3345,1.2729,5.1448a5.0608,5.0608,0,0,1-2.722,3.3667,13.9193,13.9193,0,0,1-1.6671.52l-23.5065,6.9805c-7.0265,2.0866-14.1148,4.03-21.0961,6.2648-.1187.0379-.2391.0709-.3585.1064C616.6567,827.6955,617.5026,830.8114,619.5012,830.2179Z"/><circle cx="618.7798" cy="821.6921" r="10.7593"/><path d="M606.5987,823.8166a12.3667,12.3667,0,1,0,7.9163-13.7342,12.4425,12.4425,0,0,0-7.9163,13.7342,1.6237,1.6237,0,0,0,1.9852,1.1271,1.6565,1.6565,0,0,0,1.1271-1.9851,9.1608,9.1608,0,1,1,8.6976,7.8747,9.24,9.24,0,0,1-8.6976-7.8747C609.3563,820.916,606.2453,821.7818,606.5987,823.8166Z"/><path d="M684.8274,747.0375l-8.9827-.8181-21.5771-1.9649-26.1158-2.3783-22.5984-2.0579-7.4891-.682a31.6277,31.6277,0,0,0-3.5357-.322,1.4567,1.4567,0,0,1-.1634-.0149c-1.0339-.0941-1.0275,1.52,0,1.6138l8.9828.818,21.5771,1.965,26.1157,2.3782,22.5985,2.058,7.4891.682a31.6259,31.6259,0,0,0,3.5356.322,1.4545,1.4545,0,0,1,.1634.0149c1.0339.0941,1.0275-1.52,0-1.6138Z"/><path d="M884.2507,610.1975l-3.1215,8.4857-7.4531,20.2609-9.0605,24.6311L856.78,684.8763l-2.5727,6.9937a30.5641,30.5641,0,0,0-1.2329,3.3517,1.2993,1.2993,0,0,1-.0526.143c-.3591.9762,1.2,1.3972,1.5561.4291l3.1215-8.4858,7.4531-20.2609,9.06-24.631,7.8357-21.3012,2.5727-6.9936a30.5641,30.5641,0,0,0,1.2329-3.3517,1.2934,1.2934,0,0,1,.0526-.1431c.3591-.9761-1.2-1.3971-1.5561-.429Z"/><path d="M650.2535,424.8865l.3621,29.1335.2454,19.7418c.0418,3.3632-.0856,6.7836.1857,10.14a30.6447,30.6447,0,0,0,5.3056,14.3144l4.97,7.7046c1.1221,1.74,3.9173.1234,2.7869-1.629l-4.3347-6.72c-2.1312-3.3039-4.1011-6.5428-4.9941-10.4457-.88-3.8454-.6252-8.0244-.674-11.9512l-.4873-39.1962-.1378-11.0924c-.0258-2.0754-3.2535-2.081-3.2276,0Z"/><path class="cls-2" d="M642.6311,294.275l-1.7379,16.8743c-.7029.0945-8.1167,2.3154-8.8217,2.4687a26.3577,26.3577,0,0,0-1.35,51.1812L627.0311,443.82s119.691-29.7387,134.53-16.749c-8.4977-42.7227-33.6626-149.0048-33.6626-149.0048-5.1549-12.5994-10.1627-15.779-19.0178-14.8564l-59.257-1.7486"/><path d="M641.0173,294.275l-1.7379,16.8743,1.1848-1.5561a43.91,43.91,0,0,0-4.927,1.3617c-1.7013.4922-3.4059.9465-5.1156,1.4032a27.8486,27.8486,0,0,0-14.5047,9.4484,27.9588,27.9588,0,0,0,14.3761,44.5488l-1.1847-1.5561L627.8536,391.66l-1.983,42.4548-.4533,9.7055a1.63,1.63,0,0,0,2.0428,1.5562c3.9713-.9865,7.9563-1.92,11.9424-2.8444q14.5048-3.3633,29.0892-6.3725c12.0892-2.4888,24.221-4.7913,36.4114-6.73a309.0351,309.0351,0,0,1,33.7867-3.8739,92.554,92.554,0,0,1,12.8305.12,28.3376,28.3376,0,0,1,4.5986.72,19.2727,19.2727,0,0,1,1.9285.5592c.15.0527.2972.11.4459.1648.4215.1563-.0233-.02.1311.05.2621.1193.5227.24.7761.3776.2363.1281.4594.2734.6881.4139.5316.3267-.1281-.1459.3318.2511a1.6282,1.6282,0,0,0,2.6973-1.57c-1.7054-8.5677-3.5367-17.11-5.395-25.6462q-3.4287-15.7491-6.995-31.4678-3.6753-16.2747-7.4258-32.5324-3.3762-14.6572-6.794-29.3049-2.4862-10.66-4.9923-21.3157c-.6773-2.8788-1.1774-5.884-2.0541-8.7111a34.9767,34.9767,0,0,0-3.5141-7.2867,21.12,21.12,0,0,0-5.0952-6.0038,13.6366,13.6366,0,0,0-5.9683-2.6356,29.817,29.817,0,0,0-6.0312-.1426c-4.6739.1217-9.4208-.278-14.0923-.4158l-26.035-.7683-18.1647-.536-.9365-.0276c-2.0776-.0613-2.0758,3.1663,0,3.2276l12.9467.382,25.7868.7609,19.0052.5609c2.1834.0644,4.3765-.2872,6.5454.0509,4.8092.75,7.8069,4.45,10.0135,8.5124a25.7012,25.7012,0,0,1,2.6791,6.2444q.571,2.4164,1.14,4.8331,2.2255,9.4477,4.4337,18.8995,3.2409,13.8672,6.4478,27.7421,3.7,16.0128,7.343,32.0389,3.6134,15.9151,7.1337,31.8514c1.9836,9.0125,3.94,18.0315,5.7975,27.0709q.5625,2.7372,1.1087,5.4776l2.6973-1.57c-2.1227-1.8323-4.9713-2.5877-7.6808-3.0379a67.0454,67.0454,0,0,0-12.0942-.7029c-11.0984.1836-22.1842,1.624-33.15,3.2472-12.4463,1.8424-24.8274,4.12-37.1616,6.5974q-15.5412,3.1221-30.9919,6.6761-5.0362,1.1538-10.0622,2.3523a38.3516,38.3516,0,0,0-4.7507,1.15,1.81,1.81,0,0,1-.2092.0518l2.0428,1.5561L629.9,416.96l1.983-42.4548.4533-9.7055a1.6345,1.6345,0,0,0-1.1847-1.5562,24.7423,24.7423,0,0,1-.7275-47.5292c1.8441-.5593,3.734-.9989,5.5873-1.5353a47.3475,47.3475,0,0,1,5.3113-1.473,1.6407,1.6407,0,0,0,1.1848-1.5562l1.7379-16.8743c.2126-2.0641-3.0165-2.0493-3.2276,0Z"/><path class="cls-2" d="M702.88,321.1716l11.0636,84.17L643.45,413.56c3.273,6.9878,6.3915,17.9655,8.3666,30.5143,1.0914,6.9345-3.419,35.8174-3.2529,41.6151l98.5251-15.9786c29.9289-3.8463,39.3379-34.41,40.7865-59.82l-.2024-16.5031L769.9912,287.505a40.6006,40.6006,0,0,0-44.4969-33.6683l-34.9873,3.8589"/><path d="M701.2657,321.1716l3.7388,28.4445,5.9584,45.33,1.3664,10.395,1.6138-1.6138-23.77,2.7712-38.0262,4.4333-8.697,1.014a1.6417,1.6417,0,0,0-1.3935,2.4283,92.4738,92.4738,0,0,1,5.7317,17.5481q1.3191,5.5272,2.2393,11.14a15.2262,15.2262,0,0,1,.3089,2.3981c.0425.7844.0429,1.5711.03,2.3563-.1466,9.0361-1.5228,18.0787-2.516,27.0482a81.96,81.96,0,0,0-.9007,10.8243,1.6418,1.6418,0,0,0,2.0428,1.5562l24.7431-4.0128,46.6158-7.56c9.0213-1.4631,18.0337-3.0071,27.0677-4.39a48.3021,48.3021,0,0,0,12.172-3.4061,39.8875,39.8875,0,0,0,12.0551-8.4559c7.0162-7.1359,11.3913-16.4938,14.0867-26.03a103.2685,103.2685,0,0,0,2.9828-15.0521,74.5516,74.5516,0,0,0,.75-10.3251l-.1357-11.0607a29.5314,29.5314,0,0,0-.14-4.2235c-1.4117-8.94-2.9821-17.8576-4.4729-26.7846l-7.8013-46.716-5.1737-30.9813a43.5861,43.5861,0,0,0-7.9626-19.2916,42.4728,42.4728,0,0,0-27.4833-16.4937c-6.4262-.9466-12.6938-.03-19.0775.6737l-22.23,2.4518-4.4825.4944c-2.0421.2253-2.065,3.4554,0,3.2276l34.2735-3.78a39.9708,39.9708,0,0,1,26.1309,5.7921,39.2844,39.2844,0,0,1,17.4637,26.2629c1.344,7.6243,2.5524,15.2749,3.8275,22.9109l7.6508,45.8144,5.761,34.4982c.1553.93.2935,1.8652.4663,2.7924.111.5956.0161-.6144-.0178.0877-.0623,1.2923.032,2.6122.0479,3.9054l.1317,10.7368a72.6828,72.6828,0,0,1-.7934,10.3137c-2.452,18.6871-10.2365,40.0962-29.4234,47.2339-4.1655,1.55-8.53,2.1412-12.8867,2.8478l-14.7881,2.3984-45.2034,7.331-33.2882,5.3986-1.7245.28,2.0428,1.5561a72.9258,72.9258,0,0,1,.755-9.4981c.525-4.8284,1.1-9.6512,1.6057-14.4818.4611-4.4086.9225-8.8365,1.0422-13.27.1407-5.2087-1.0923-10.3686-2.2278-15.423a99.9355,99.9355,0,0,0-6.5092-20.2708l-1.3934,2.4283,23.77-2.7712,38.0262-4.4332,8.6971-1.014c.7759-.0905,1.7377-.671,1.6138-1.6138L711.818,376.897l-5.9584-45.33-1.3664-10.395a1.6693,1.6693,0,0,0-1.6137-1.6138,1.6216,1.6216,0,0,0-1.6138,1.6138Z"/><path d="M648.7457,485.4846c3.543-.5577,5.3028-9.4486,4.94-22.0918l-16.9861.6065C640.3252,477.2516,645.0138,486.0719,648.7457,485.4846Z"/><path d="M649.1747,487.0408c3.14-.5794,4.3666-4.6175,4.9763-7.2594a65.4142,65.4142,0,0,0,1.149-16.3886,1.6348,1.6348,0,0,0-1.6138-1.6138l-16.9861.6066a1.6331,1.6331,0,0,0-1.5562,2.0428c1.5674,5.6923,3.4066,11.5109,6.3416,16.6674,1.3868,2.4363,3.9083,6.4411,7.26,6.0026a1.6691,1.6691,0,0,0,1.6138-1.6138,1.6217,1.6217,0,0,0-1.6138-1.6138c-.18.0236-.8039-.048-.4018.038a1.7227,1.7227,0,0,1-.3642-.0974c-.278-.13.139.0743-.045-.0175a3.6225,3.6225,0,0,1-1.25-.9446,17.3375,17.3375,0,0,1-2.804-4.0928,72.8227,72.8227,0,0,1-5.6241-15.1862L636.7,465.6131l16.9861-.6065-1.6138-1.6138a65.6939,65.6939,0,0,1-.8662,14.7561,15.7179,15.7179,0,0,1-1.3639,4.3049,3.4826,3.4826,0,0,1-.815,1.14c-.2748.2708.02.0453-.3019.2179-.3655.1961.3173-.1133-.06.0332a1.9487,1.9487,0,0,1-.3484.0834C646.2769,484.3049,647.1409,487.4161,649.1747,487.0408Z"/><path class="cls-3" d="M651.8167,444.0742c-1.9751-12.5488-5.0936-23.5265-8.3666-30.5143l-11.6988,1.3816L614.51,416.9776l6.4632,47.5832,15.7265-.5615,16.9861-.6065A154.5235,154.5235,0,0,0,651.8167,444.0742Z"/><path d="M653.3728,443.6452c-1.6672-10.498-4.0276-21.2126-8.5293-30.9a1.5545,1.5545,0,0,0-1.3934-.7992l-23.571,2.7835-5.3687.6341a1.6542,1.6542,0,0,0-1.5562,2.0428l2.1916,16.1352,3.4726,25.5656.799,5.8824a1.6118,1.6118,0,0,0,1.5562,1.1848q13.04-.4654,26.0793-.9312l6.6333-.2368a1.6368,1.6368,0,0,0,1.6138-1.6138,159.6136,159.6136,0,0,0-1.9272-19.7476c-.3191-2.0462-3.43-1.1773-3.1123.858a152.6648,152.6648,0,0,1,1.8119,18.89l1.6138-1.6138-25.84.9227-6.8724.2453,1.5561,1.1848-2.1916-16.1352-3.4726-25.5656-.799-5.8824-1.5561,2.0428,22.228-2.6251,6.7117-.7926-1.3935-.7992c4.372,9.4081,6.5859,19.94,8.2039,30.1287C650.5854,446.5489,653.696,445.6805,653.3728,443.6452Z"/><line class="cls-4" x1="702.0714" y1="406.7256" x2="737.4507" y2="402.7057"/><path d="M702.0714,408.3394l31.0093-3.5234,4.37-.4965c2.04-.2318,2.0638-3.4621,0-3.2276l-31.0092,3.5233-4.37.4966c-2.04.2318-2.0638,3.4621,0,3.2276Z"/><path class="cls-3" d="M634.4517,464.8733l-37.9325-1.3943a35.8119,35.8119,0,0,1-10.796.6826h0c-8.2278-.73-15.7846.0415-22.6173,4.6829l-6.6863-2.4527s-1.1651-39.6968,2.2012-41.8926l27.9711-.2829L570.69,416.1105a4.7506,4.7506,0,0,1-.9839-7.7963h0a4.751,4.751,0,0,1,4.4986-.9889l30.1009,8.9734,16.4193-.0551"/><path d="M634.4517,463.26l-20.8352-.7658-13.0882-.4811-3.4749-.1277c-.1754-.0065-.3575-.0276-.5331-.02-1.0784.0492-2.1843.4182-3.26.5546a34.5576,34.5576,0,0,1-3.5272.2572c-2.4181.0571-4.81-.2458-7.2229-.3336a43.012,43.012,0,0,0-7.0206.2839,30.5012,30.5012,0,0,0-13.1985,4.8237l1.2435-.1627-6.6863-2.4528,1.1848,1.5562c-.2867-9.81-.3761-19.6662.1047-29.47.1256-2.5618.3152-5.549.6573-7.8092a19.0427,19.0427,0,0,1,.5336-2.5879c.05-.1692.1093-.3348.1646-.5022.1426-.4314-.1226.2765.049-.1079.0441-.0988.1343-.1877.1693-.2871.0371-.1056-.2829.1781-.1145.1534l.04-.0409q.4859-.4272-1.014.3729a4.2012,4.2012,0,0,0,1.1454-.0116l2.8535-.0288,8.8609-.09,15.1083-.1528c1.5334-.0155,2.2851-2.2576.8145-3.0073L573.5115,415.74c-1.9669-1.0027-4.67-2.2-3.6013-4.9879a3.21,3.21,0,0,1,3.9277-1.8521c.5006.13.9946.2965,1.49.4442l17.1679,5.1179,8.3716,2.4957a16.3732,16.3732,0,0,0,3.5164.9545c2.8535.1658,5.7713-.0194,8.6287-.029l7.7124-.0259a1.6148,1.6148,0,0,0,0-3.2276l-15.8562.0532a2.0438,2.0438,0,0,0-.4417.0015c-.2164.0546-.26-.2623.3051.0573a2.1271,2.1271,0,0,0-.3461-.1031c-.7282-.2526-1.4848-.4427-2.2233-.6628l-8.5768-2.5569-17.7234-5.2835c-.4079-.1216-.8144-.2581-1.2263-.3656a6.3668,6.3668,0,0,0-4.4479,11.8935c5.1776,2.6843,10.3929,5.2978,15.5888,7.9463l.8146-3.0072-13.2366.1339c-4.8562.0491-9.7811-.14-14.63.148-1.7627.1045-2.3524,2.0379-2.6925,3.4882a47.2205,47.2205,0,0,0-.9332,7.3768c-.4716,6.56-.5082,13.1552-.4858,19.7293.0147,4.3043.0662,8.61.192,12.9131a1.6756,1.6756,0,0,0,1.1848,1.5561l6.0041,2.2025a5.6167,5.6167,0,0,0,.6822.25c1.22.2692,2.4146-.9443,3.4252-1.5025a25.9239,25.9239,0,0,1,6.4447-2.4789c4.5878-1.1129,9.2179-.91,13.8835-.589a37.5581,37.5581,0,0,0,7.961-.3347,19.5721,19.5721,0,0,1,2.4838-.39c3.56-.05,7.1629.2633,10.72.394l16.688.6134,10.1689.3738c2.0773.0764,2.0741-3.1513,0-3.2276Z"/><path class="cls-3" d="M571.9747,438.0126c-20.5061-.0863-31.6782-.2175-43.6176.5512s-14.2608-7.8026-2.606-11.4434c18.92-3.9805,59.3654-3.11,59.3654-3.11"/><path d="M571.9747,436.3988c-10.9532-.0464-21.9152-.2011-32.8665.0784q-3.2181.0821-6.4341.2317c-2.2479.1067-4.5266.3766-6.7764.2649a9.0737,9.0737,0,0,1-5.1907-1.5442,2.0741,2.0741,0,0,1-.8383-2.4987c.6631-1.6512,2.5291-2.6928,4.0469-3.4a22.0807,22.0807,0,0,1,5.9834-1.535c4.2366-.6766,8.5162-1.0812,12.7926-1.4035,8.9372-.6735,17.9061-.93,26.8666-1.0191,5.1849-.0516,10.3739-.06,15.5583.05,2.0777.0444,2.0773-3.1832,0-3.2276-14.0209-.3-28.1217-.0917-42.1079.9449-4.5824.34-9.1635.7883-13.7044,1.5008-4.2837.6722-9.2682,1.8552-11.8166,5.74-2.1051,3.2092-.4656,6.7979,2.8008,8.346,4.3674,2.07,9.4679,1.1224,14.1177.9316,12.5114-.5133,25.0509-.2866,37.5686-.2335a1.6148,1.6148,0,0,0,0-3.2276Z"/><path class="cls-1" d="M641.3884,148.917l-19.687.9084a18.5107,18.5107,0,0,0-17.3885,15.3472l-.9453,5.4851a8.4974,8.4974,0,0,1-6.6442,6.8762h0a21.9685,21.9685,0,0,0-17.49,20.941h0a21.9685,21.9685,0,0,0,21.997,22.5361l33.2816-.0541"/><path d="M641.3884,147.3032l-11.2045.517c-3.9293.1813-8.1415.0122-12.0065.8539a20.28,20.28,0,0,0-15.1316,14.7006c-.5273,2.0957-.7854,4.275-1.1565,6.4018a7.2092,7.2092,0,0,1-5.595,6.2012,23.574,23.574,0,0,0,1.3851,46.3747,67.5754,67.5754,0,0,0,9.7178.2624l26.51-.0432.6049-.0009a1.6148,1.6148,0,0,0,0-3.2276l-22.6338.0368q-5.1221.0084-10.2442.0167a20.7053,20.7053,0,0,1-14.9047-6.0338,20.3548,20.3548,0,0,1,7.8764-33.582,39.7108,39.7108,0,0,0,4.8778-1.5112,10.1656,10.1656,0,0,0,4.05-3.6441c1.351-2.1,1.5723-4.6,1.9859-7a22.9762,22.9762,0,0,1,2.2229-7.4456,17.1049,17.1049,0,0,1,7.2282-6.968c3.8352-1.9507,8.0659-1.8345,12.2434-2.0273l13.258-.6117.9157-.0423c2.0683-.0954,2.08-3.3236,0-3.2276Z"/><polyline class="cls-3" points="690.42 263.297 686.405 226.89 656.537 241.584 657.724 265.616"/><path d="M692.0339,263.2972l-3.5161-31.8784-.4994-4.5283a1.64,1.64,0,0,0-2.4283-1.3935L659.4234,238.37l-3.7007,1.8205a1.5792,1.5792,0,0,0-.7992,1.3935l1.0391,21.0373.1479,2.9948c.1022,2.0673,3.33,2.08,3.2276,0l-1.0391-21.0374-.1479-2.9947-.7993,1.3935,26.1666-12.8727,3.7007-1.8206-2.4283-1.3934,3.516,31.8784.5,4.5283c.2252,2.0421,3.4554,2.065,3.2276,0Z"/><path class="cls-3" d="M687.803,239.4593c16.58-15.3717,9.8706-28.7785,9.9409-38.9465.0408-5.9043-8.8159-17.92-8.8159-17.92l-49.0613-9.1887-10.1359,16.6538s-18.158,68.5207,38.2684,53.6769"/><path d="M688.9441,240.6c4.92-4.6045,9.06-10.1935,10.7525-16.8061,1.247-4.8727,1.0417-9.8628.4414-14.8094-.2636-2.1725-.5856-4.3421-.7212-6.5279a21.9164,21.9164,0,0,0-.8826-6.1254,55.0636,55.0636,0,0,0-6.8291-12.5833c-.5673-.8332-1.3329-2.3723-2.3489-2.7122a8.2767,8.2767,0,0,0-1.08-.2024l-7.2386-1.3557L656.8618,174.95c-5.431-1.0171-10.8542-2.1035-16.2977-3.0524-.09-.0156-.179-.0335-.2684-.05a1.6776,1.6776,0,0,0-1.8225.7416l-5.8448,9.6034-3.4662,5.6951a8.9467,8.9467,0,0,0-1.01,1.827,64.8089,64.8089,0,0,0-2.0773,11.4865,75.7751,75.7751,0,0,0,.06,21.6042c1.174,7.2107,4.0806,14.5539,9.95,19.2126,7.747,6.149,18.1764,6.1677,27.461,4.388,1.64-.3144,3.2666-.6938,4.8824-1.1155,2.0082-.524,1.1567-3.638-.858-3.1123-8.96,2.3382-19.6792,3.6738-27.7891-1.4629-5.795-3.67-8.8056-10.1219-10.1892-16.8863a69.0337,69.0337,0,0,1-.5026-20.8015c.182-1.692.2907-2.513.5242-4.0493q.28-1.843.6254-3.6754c.2783-1.4748.6269-2.93.9419-4.3966a1.7965,1.7965,0,0,0,.0911-.3618c-.0033-.1457-.3393.544-.0275.13.9516-1.2631,1.6864-2.7709,2.5077-4.12l7.0211-11.536.4869-.8-1.8224.7417,16.5661,3.1026L682.42,183.01l6.0789,1.1385-.9645-.7416c1.4788,2.01,2.8449,4.1133,4.1289,6.2517,1.84,3.064,4.2184,6.7825,4.4565,10.4517.2272,3.5038.598,6.9523.9714,10.4467a35.1069,35.1069,0,0,1-.4313,12.0762c-1.5163,6.2243-5.3861,11.3687-9.9981,15.6849-1.52,1.4224.766,3.7012,2.2822,2.2823Z"/><path d="M649.2819,202.6032c-.6243.49-.2287.1764-.07.0679.2038-.139.4145-.2681.6285-.3906.3147-.18.6384-.3406.9668-.4938.1847-.0862.2512-.1031.0237-.014.11-.0431.2194-.088.33-.13q.3545-.1332.7169-.2438a12.0873,12.0873,0,0,1,1.5694-.3617q.1752-.0264-.0569.0052.1141-.0143.2286-.0255c.1294-.0122.2588-.0244.3885-.033q.4851-.0323.9718-.0213a10.0791,10.0791,0,0,1,1.0228.0718c-.2365-.03.2893.0514.2787.0494q.2729.05.5432.1145a10.4313,10.4313,0,0,1,2.0755.72,1.6586,1.6586,0,0,0,2.208-.579,1.6277,1.6277,0,0,0-.5789-2.208,13.1217,13.1217,0,0,0-9.3822-.8829A12.3092,12.3092,0,0,0,647,200.3209a1.623,1.623,0,0,0,0,2.2823,1.6545,1.6545,0,0,0,2.2823,0Z"/><path d="M629.4594,203.6821a5.1925,5.1925,0,0,1,5.0369-.289c1.8878.8269,4.604,1.9158,5.4872,3.9586.7862,1.8185-.1231,4.3822-.8688,6.0686a20.1108,20.1108,0,0,1-2.3651,3.9526,4.0925,4.0925,0,0,0-1.1988,2.2226,4.4553,4.4553,0,0,0,.1157,1.5187c.81,3.0167,4.3664,2.7874,6.7852,2.3683a1.6271,1.6271,0,0,0,1.1271-1.9852,1.6507,1.6507,0,0,0-1.9851-1.1271,7.21,7.21,0,0,1-2.6184.07c-.1553-.0574-.1954-.1277-.1508-.0317a1.7693,1.7693,0,0,1-.02-1.0238l-.4727,1.1411c3.318-3.9915,7.5742-11.3042,3.5143-16.1764a11.2429,11.2429,0,0,0-3.15-2.4656,20.0491,20.0491,0,0,0-4.2447-1.9374,8.1485,8.1485,0,0,0-6.62.9487c-1.6849,1.1872-.0741,3.987,1.629,2.7869Z"/><circle cx="631.9229" cy="212.3566" r="2.0879"/><path d="M630.6452,212.474c-.0041-.0969.001-.1921.0035-.2887.005-.1921-.045.1751.0017-.01.0091-.036.0151-.073.024-.1091.012-.0487.0385-.23.0844-.2633l-.0382.0918q.0228-.05.0482-.0983.0379-.0724.0816-.1419c.0236-.0377.0552-.0737.0762-.1127.0517-.0963-.1307.1394-.0081.0142.0636-.065.1228-.1323.1912-.1929a.4388.4388,0,0,1,.0833-.07l-.0763.0605c.03-.0213.06-.0417.0906-.0613s.0621-.0386.0938-.0566c.0223-.0126.21-.1289.1013-.0571-.1028.0679.0322-.0111.0588-.02.0444-.0152.0891-.0286.1344-.0407s.0923-.02.138-.0321c.1814-.0466-.1352.0054-.0153,0,.0972-.0045.1926-.0123.29-.0084.0294.0012.1215-.0077.1423.01q-.1672-.0245-.0748-.0087.0414.007.0825.0162c.0911.02.1774.05.2661.0776.1779.0554-.1523-.0866.0092.0049.0316.0179.0651.033.0968.0507.0515.0287.2.0947.2286.1477l-.0777-.0592c.021.0173.0416.035.0617.0533.0449.0449.0927.0863.1361.1328.0248.0266.0476.0547.0721.0815.1244.1359-.0881-.1485.0053.0106q.0695.1182.1384.2367c.0359.0621.0705.0577-.0132-.0414a.5449.5449,0,0,1,.0562.1576c.0112.0358.0213.0721.0306.1084.0057.0227.0582.2513.0286.1168s.0022.0468.0033.0659c.0021.0387.0033.0777.0033.1165,0,.0577-.0047.1146-.0068.1722-.0062.1656.0066-.0479.0082-.0459.0263.0332-.05.2267-.0636.2715-.009.0294-.03.1384-.0547.1563l.0382-.0918q-.0228.05-.0482.0983c-.0425.0812-.0926.1555-.1418.2325-.0936.1464.0932-.08.01-.0129a1.1214,1.1214,0,0,0-.091.1008.8062.8062,0,0,1-.2011.1829c.1171-.0424.0939-.0661.0314-.0292s-.1229.0786-.1877.1131a.52.52,0,0,1-.0987.0493l.0912-.0372q-.0517.0207-.1044.0388a2.075,2.075,0,0,1-.2445.0669c-.0918.0193-.109.0731.0163.0032a.4252.4252,0,0,1-.1453.011c-.0591.0025-.271.0324-.3161-.01l.1025.0136q-.0554-.0092-.11-.0212c-.0543-.012-.1082-.0261-.1613-.0424-.043-.0131-.0869-.0354-.13-.045q-.0849-.0327.066.0285-.05-.0228-.0983-.0482c-.07-.0367-.2435-.1049-.2766-.1737.0021.0045.1461.13.0362.024-.0391-.0377-.0805-.0729-.1187-.1117s-.0733-.08-.11-.1207c-.1206-.1344.0879.1444-.0053-.0107-.0239-.04-.1785-.236-.1624-.2864-.02.0625.0543.1435.0078.013q-.0331-.0925-.0574-.1878c-.0093-.0368-.0163-.0739-.0248-.1108q-.023-.1344.0027.0442-.0064-.0579-.01-.1161a.8069.8069,0,1,0-1.6137,0,2.8908,2.8908,0,0,0,5.2488,1.555,2.8914,2.8914,0,0,0,.07-3.2483,2.8936,2.8936,0,0,0-5.3187,1.6933.8069.8069,0,1,0,1.6137,0Z"/><circle cx="651.5284" cy="210.4585" r="2.0879"/><path d="M650.2508,210.5759c-.0041-.0969.001-.1921.0035-.2887.0049-.1921-.045.1751.0016-.01.0091-.036.0151-.073.024-.1091.0121-.0487.0386-.23.0845-.2633l-.0382.0918q.0228-.05.0482-.0983.038-.0724.0815-.1419c.0237-.0377.0552-.0737.0762-.1127.0517-.0963-.1306.1394-.0081.0142.0637-.065.1229-.1323.1912-.1929a.44.44,0,0,1,.0834-.07l-.0763.0605q.0444-.032.0905-.0613t.0939-.0566c.0222-.0126.21-.1289.1012-.0571-.1027.0679.0323-.0111.0589-.02.0443-.0152.0891-.0286.1343-.0407s.0923-.02.138-.0321c.1815-.0466-.1351.0054-.0152,0,.0971-.0045.1926-.0123.29-.0084.0294.0012.1216-.0077.1424.01q-.1674-.0245-.0749-.0087.0416.007.0825.0162c.0911.02.1775.05.2662.0776.1779.0554-.1523-.0866.0092.0049.0316.0179.065.033.0968.0507.0515.0287.2.0947.2286.1477l-.0777-.0592c.021.0173.0416.035.0617.0533.0448.0449.0926.0863.136.1328.0248.0266.0477.0547.0722.0815.1243.1359-.0882-.1485.0053.0106.0462.0788.0926.1576.1383.2367.036.0621.0706.0577-.0132-.0414a.5391.5391,0,0,1,.0562.1576c.0112.0358.0214.0721.0306.1084.0058.0227.0582.2513.0286.1168s.0022.0468.0033.0659c.0021.0387.0033.0777.0034.1165,0,.0577-.0048.1146-.0069.1722-.0061.1656.0066-.0479.0082-.0459.0263.0332-.05.2267-.0635.2715-.009.0294-.03.1384-.0548.1563l.0382-.0918q-.0228.05-.0482.0983c-.0425.0812-.0925.1555-.1418.2325-.0936.1464.0932-.08.01-.0129a1.1525,1.1525,0,0,0-.091.1008.8045.8045,0,0,1-.2011.1829c.1172-.0424.094-.0661.0315-.0292s-.1229.0786-.1878.1131a.5191.5191,0,0,1-.0986.0493l.0911-.0372q-.0516.0207-.1044.0388a2.0645,2.0645,0,0,1-.2445.0669c-.0918.0193-.1089.0731.0163.0032a.4248.4248,0,0,1-.1453.011c-.059.0025-.271.0324-.3161-.01l.1025.0136q-.0554-.0092-.11-.0212-.0815-.018-.1614-.0424c-.0429-.0131-.0869-.0354-.13-.045q-.0849-.0327.066.0285-.05-.0228-.0982-.0482c-.07-.0367-.2436-.1049-.2767-.1737.0022.0045.1461.13.0363.024-.0392-.0377-.08-.0729-.1187-.1117s-.0734-.08-.11-.1207c-.12-.1344.0879.1444-.0053-.0107-.0239-.04-.1784-.236-.1623-.2864-.02.0625.0543.1436.0077.013q-.033-.0925-.0573-.1878c-.0093-.0368-.0163-.0739-.0249-.1108q-.0228-.1344.0027.0442-.0064-.0579-.01-.1161a.8069.8069,0,1,0-1.6138,0,2.8908,2.8908,0,0,0,5.2488,1.555,2.8912,2.8912,0,0,0,.07-3.2483,2.8936,2.8936,0,0,0-5.3187,1.6933.8069.8069,0,1,0,1.6138,0Z"/><path d="M646.1428,226.7721a3.3877,3.3877,0,1,0,6.4315-2.1311Z"/><path d="M645.3647,226.9866a4.19,4.19,0,0,0,7.9052.222,4.1805,4.1805,0,0,0,.0825-2.7821.8174.8174,0,0,0-.9926-.5636L646.726,225.73l-.7977.2643a.8252.8252,0,0,0-.5636.9926.815.815,0,0,0,.9926.5635l5.6338-1.8667.7977-.2644-.9926-.5635a2.582,2.582,0,0,1-4.8754,1.7021.8265.8265,0,0,0-.9925-.5636A.8144.8144,0,0,0,645.3647,226.9866Z"/><path d="M685.0271,200.3556a5.0494,5.0494,0,0,0-2.7685.0753,7.6265,7.6265,0,0,0-4.4591,4.2048,20.0794,20.0794,0,0,0-1.6453,5.6877,1.657,1.657,0,0,0,1.1271,1.9852,1.6323,1.6323,0,0,0,1.9852-1.1272,25.315,25.315,0,0,1,.54-2.67q.1409-.5323.3135-1.056.089-.2679.1875-.5327.038-.1016.0775-.2026.0288-.0743.0589-.148.07-.171-.0629.1455a4.0779,4.0779,0,0,0,.3738-.7911c.1345-.2577.28-.51.4376-.7538q.0981-.1517.2028-.2987a1.5756,1.5756,0,0,0,.1139-.1559c-.0022.0042-.2706.33-.1146.1493.1521-.1767.2994-.3551.4644-.52.1345-.1346.2786-.2557.421-.3814.1758-.1553-.3722.2589-.0934.0731.0853-.0569.1677-.1173.2546-.1721a4.4971,4.4971,0,0,1,.432-.24c.0584-.0284.1208-.0507.1778-.0815-.5157.279-.2667.11-.1034.053a7.3843,7.3843,0,0,1,.742-.1821c-.6434.1525-.2695.032-.06.0217q.1461-.0071.2926-.0031c.0944.0027.188.0153.2821.0193.2353.01-.5441-.1077-.2162-.0269.06.0148.1216.023.181.0411a1.63,1.63,0,0,0,1.9852-1.1272,1.6473,1.6473,0,0,0-1.1271-1.9851Z"/><path class="cls-1" d="M617.8726,190.09l46.3261.3862,8.7188,25.9026s-1.6171-11.4286,1.84-16.7127c1.4994-2.1166,3.2886-3.5731,5.1315-3.7515,5.0608-.49,9.1154.8383,9.8169,8.0838.4644,4.7961-2.746,13.5446-5.3338,16.0037l3.4308,19.4572.01-.0094c8.5781-8.49,23.49-22.9962,24.7776-53.7572a36.029,36.029,0,0,0-4.6342-19.2083h0a36.0869,36.0869,0,0,0-32.493-18.3321l-48.2448,1.37"/><path d="M617.8726,191.7038l15.6617.1306,24.9518.208,5.7126.0476-1.5561-1.1848,7.6429,22.7062,1.0759,3.1965a1.6153,1.6153,0,0,0,3.1123-.8581c.0361.2585.0482.418.0069.03-.0391-.3671-.0814-.7335-.1154-1.1011q-.1591-1.7223-.1991-3.453a26.3819,26.3819,0,0,1,.9829-8.82,8.86,8.86,0,0,1,2.5841-3.9,5.5424,5.5424,0,0,1,4.2-1.2647c2.3684.0507,4.3613.93,5.3567,3.1856,1.2767,2.8929.9044,6.1615.1474,9.1273a23.447,23.447,0,0,1-3.6435,8.4876c-.63.8113-1.1237,1.2819-.9433,2.3837.0851.5193.1829,1.0368.2742,1.5551l1.0632,6.0293,2.0592,11.6787a1.6267,1.6267,0,0,0,2.6973.7121c7.5756-7.4369,14.3236-15.5143,18.6728-25.2973a77.6574,77.6574,0,0,0,6.0012-22.3211,54.34,54.34,0,0,0,.2461-13.94,37.6751,37.6751,0,0,0-38.8793-32.49q-11.8848.3325-23.7693.6753c-7.8548.2231-15.7223.3326-23.5732.67-.1414.0061-.283.0081-.4244.0121-2.0726.0589-2.0811,3.2867,0,3.2276l19.1632-.5444,26.5813-.7551a44.2767,44.2767,0,0,1,10.8943.6978,34.4739,34.4739,0,0,1,27.1,35.6047,79.3044,79.3044,0,0,1-4.5264,23.552c-3.7589,10.3192-10.1625,19.0185-17.86,26.7313q-.95.9518-1.9081,1.8952l2.6972.7121-3.4308-19.4571-.415,1.57a15.6946,15.6946,0,0,0,3.0675-4.9014,34.8064,34.8064,0,0,0,2.28-6.9744c.86-4.1569.7968-9.36-2.3817-12.5965-2.59-2.6378-7.7364-3.3178-11.01-1.6764-4.5059,2.259-5.9846,7.344-6.4,11.9723a43.41,43.41,0,0,0,.2929,9.8411l3.1123-.8581-7.6429-22.7062-1.0759-3.1964a1.6642,1.6642,0,0,0-1.5562-1.1848l-15.6617-.1305-24.9519-.208-5.7125-.0477a1.6148,1.6148,0,0,0,0,3.2276Z"/><rect class="cls-4" x="25" y="320.2777" width="440.6516" height="318.205" rx="39.2662"/><path d="M426.3854,636.8689H76.511c-3.9228,0-7.8457.0074-11.7686,0-17.1705-.0321-32.5936-11.4394-36.9351-28.2148-1.5388-5.9456-1.1935-12.1568-1.1935-18.2463V363.6724c0-1.3472-.0075-2.6946,0-4.0417A37.6464,37.6464,0,0,1,64.269,321.8915c.749-.0048,1.4982,0,2.2473,0h355.6c7.6629,0,15.0524.6988,22.0115,4.4338a37.99,37.99,0,0,1,18.9964,24.9341,45.07,45.07,0,0,1,.9137,10.0389V585.9554c0,4.4026.0258,8.806,0,13.2085a38.0564,38.0564,0,0,1-37.6524,37.705,1.6148,1.6148,0,0,0,0,3.2276,41.3359,41.3359,0,0,0,40.88-40.88c.0269-4.0323,0-8.0657,0-12.0981V361.2151a48.6584,48.6584,0,0,0-1.029-10.8137,41.1871,41.1871,0,0,0-17.7436-25.2482c-7.792-5.0384-16.5193-6.4893-25.5713-6.4893H66.2525c-11.9782,0-23.3268,3.924-31.6923,12.798a41.313,41.313,0,0,0-11.174,28.0863c-.0071,1.1327,0,2.2657,0,3.3984V590.4972c0,6.3711-.3041,12.783,1.3088,19.0149,4.6608,18.0093,21.3166,30.5,39.7881,30.5844,3.56.0162,7.12,0,10.68,0H426.3854A1.6148,1.6148,0,0,0,426.3854,636.8689Z"/><path d="M25,364.668V341.4a21.1225,21.1225,0,0,1,21.1225-21.1225H444.5291A21.1225,21.1225,0,0,1,465.6516,341.4V364.668Z"/><path d="M26.6138,364.668c0-7.75-.099-15.5073,0-23.257a19.7728,19.7728,0,0,1,19.9756-19.5195c6.5759-.0237,13.1524,0,19.7284,0H441.8339c3.7049,0,7.27.1368,10.7607,1.7335a19.7671,19.7671,0,0,1,11.4432,17.8181c.049,4.08,0,8.1644,0,12.245v10.98l1.6138-1.6138H42.8873c-5.7091,0-11.43-.1051-17.138,0-.25.0046-.5,0-.7493,0a1.6148,1.6148,0,0,0,0,3.2276H447.7643c5.7091,0,11.43.105,17.138,0,.25-.0046.5,0,.7493,0a1.6373,1.6373,0,0,0,1.6138-1.6138c0-7.8541.1431-15.7212-.0044-23.5737a23.0127,23.0127,0,0,0-22.94-22.43c-6.185-.0531-12.3729,0-18.5582,0H48.102c-5.2949,0-10.437.9057-14.8977,4.03a23.0809,23.0809,0,0,0-9.8181,18.7172c-.0481,4.0185,0,8.0405,0,12.0593V364.668A1.6148,1.6148,0,0,0,26.6138,364.668Z"/><rect class="cls-6" x="275.3525" y="414.2573" width="140.7746" height="140.7746" rx="24.0448"/><path d="M392.0822,553.4181h-91.45a25.2369,25.2369,0,0,1-9.8954-1.72,22.6559,22.6559,0,0,1-13.1651-15.5092,30.5357,30.5357,0,0,1-.6058-7.227V440.7466a35.9705,35.9705,0,0,1,.2967-6.1512A22.7275,22.7275,0,0,1,289.4263,418.2c5.5589-2.7946,11.6355-2.3285,17.6414-2.3285h81.0455c1.3155,0,2.6313-.0073,3.9468,0a22.4169,22.4169,0,0,1,22.4532,22.7151c.0031,1.7379,0,3.4758,0,5.2137v81.3058q0,2.7568,0,5.5138a22.9086,22.9086,0,0,1-4.5749,13.964,22.657,22.657,0,0,1-17.8561,8.8346,1.6148,1.6148,0,0,0,0,3.2276,25.6722,25.6722,0,0,0,25.6586-25.8077c.0134-5.1412,0-10.2827,0-15.4239V454.4557c0-5.3094.0105-10.6191,0-15.9285a25.6885,25.6885,0,0,0-24.6064-25.8611c-4.541-.1929-9.12-.0226-13.6636-.0226H300.28a27.49,27.49,0,0,0-12.1865,2.6229,25.8078,25.8078,0,0,0-13.5109,16.4855c-1.3681,5.2246-.8437,11.09-.8437,16.4464v80.8425a33.546,33.546,0,0,0,.76,8.17,25.8225,25.8225,0,0,0,13.298,16.6658,27.29,27.29,0,0,0,12.4294,2.7692h91.8556A1.6148,1.6148,0,0,0,392.0822,553.4181Z"/><rect class="cls-2" x="74.5733" y="415.4808" width="140.7746" height="140.7746" rx="24.0448"/><path d="M191.3031,554.6416h-91.45a25.2352,25.2352,0,0,1-9.8954-1.7205A22.6557,22.6557,0,0,1,76.7929,537.412a30.5361,30.5361,0,0,1-.6058-7.2271V441.97a35.9807,35.9807,0,0,1,.2967-6.1512,22.7276,22.7276,0,0,1,12.1633-16.3958c5.5589-2.7946,11.6355-2.3285,17.6414-2.3285H187.334c1.3155,0,2.6313-.0074,3.9468,0A22.4169,22.4169,0,0,1,213.734,439.81c.0031,1.7379,0,3.4758,0,5.2137v81.3058q0,2.7568,0,5.5138a22.9088,22.9088,0,0,1-4.5749,13.964,22.6569,22.6569,0,0,1-17.856,8.8346,1.6148,1.6148,0,0,0,0,3.2276,25.6723,25.6723,0,0,0,25.6585-25.8077c.0134-5.1413,0-10.2827,0-15.424V455.6792c0-5.3095.0105-10.6191,0-15.9286a25.6885,25.6885,0,0,0-24.6063-25.861c-4.5411-.1929-9.12-.0226-13.6637-.0226H99.5007A27.49,27.49,0,0,0,87.3141,416.49a25.8075,25.8075,0,0,0-13.5108,16.4854c-1.3681,5.2246-.8438,11.09-.8438,16.4465v80.8425a33.551,33.551,0,0,0,.76,8.17A25.8229,25.8229,0,0,0,87.0181,555.1a27.29,27.29,0,0,0,12.4293,2.7692h91.8557A1.6148,1.6148,0,0,0,191.3031,554.6416Z"/><path d="M141.1585,526.2484,97.71,491.3005a9.749,9.749,0,1,1,12.22-15.1931l28.3035,22.7657,40.29-49.77a9.7488,9.7488,0,1,1,15.1543,12.2681Z"/><path d="M142.3,525.1072,129.0289,514.433l-22.683-18.2451-6.6937-5.3841a16.9272,16.9272,0,0,1-1.836-1.6065A8.1463,8.1463,0,0,1,104.93,475.631a8.9488,8.9488,0,0,1,4.4058,2.0575l8,6.4348q9.6864,7.7912,19.3729,15.5824.1921.1539.3836.3085a1.6372,1.6372,0,0,0,2.2822,0l19.5957-24.2064c6.8791-8.4976,13.6563-17.0906,20.643-25.5a8.1461,8.1461,0,1,1,12.8837,9.9713c-1.7975,2.358-3.7393,4.6192-5.6047,6.9234l-26.7751,33.0752L140.3393,524.71l-.3219.3976c-1.2956,1.6.9744,3.8978,2.2822,2.2823l17.3771-21.4658,28.1113-34.7258c2.27-2.8043,4.55-5.6012,6.81-8.4129a11.7561,11.7561,0,0,0,2.5638-10.146,11.45,11.45,0,0,0-12.6762-8.6346c-5.1553.7265-7.8119,4.8329-10.8035,8.5284l-12.7742,15.78-23.3654,28.8632-.45.5561h2.2822L121.56,483.403l-9.3772-7.5425a20.2708,20.2708,0,0,0-2.9023-2.1224,11.36,11.36,0,0,0-12.8494,18.589c1.382,1.1666,2.82,2.2722,4.2289,3.4056l22.27,17.9127c5.6,4.5041,11.1844,9.0274,16.7993,13.5125.0962.0769.1919.1544.2879.2316C141.6211,528.6794,143.9189,526.41,142.3,525.1072Z"/><path d="M385.5154,534.1692a9.7185,9.7185,0,0,1-6.8936-2.8554l-79.5512-79.5512a9.749,9.749,0,0,1,13.7871-13.7872l79.5512,79.5513a9.749,9.749,0,0,1-6.8935,16.6425Z"/><path d="M385.5154,532.5554c-3.2618-.0655-5.257-1.8873-7.3538-3.9841l-6.1481-6.148-21.3754-21.3755L325.3,475.7092l-19.74-19.74-4.7647-4.7648a14.9752,14.9752,0,0,1-1.2751-1.35,8.1417,8.1417,0,0,1,12.1965-10.738c.2268.22.4473.4473.6708.6708l4.9149,4.9149,19.9993,19.9993,25.3528,25.3528,21.137,21.1371,5.9823,5.9822c2.0022,2.0023,3.82,3.9837,3.8738,7.0765a8.2251,8.2251,0,0,1-8.1321,8.3052c-2.0742.0416-2.0812,3.2694,0,3.2276a11.3615,11.3615,0,0,0,8.0263-19.4057c-.9841-1.0131-1.9984-1.9985-2.997-2.9971l-18.355-18.355-25.9646-25.9646L323.29,446.1257l-6.9742-6.9742a26.8839,26.8839,0,0,0-4.3213-3.9146,11.3666,11.3666,0,0,0-17.1232,12.0905c.65,3.0666,2.6169,5.1353,4.7143,7.2326l16.3786,16.3787,25.5307,25.5307,24.0158,24.0157c3.951,3.951,7.8755,7.9308,11.854,11.8541a11.76,11.76,0,0,0,8.1505,3.4438C387.5931,535.8247,387.593,532.5971,385.5154,532.5554Z"/><path d="M305.9641,534.1692a9.749,9.749,0,0,1-6.8935-16.6425l79.5512-79.5513a9.749,9.749,0,0,1,13.7871,13.7872l-79.5512,79.5512A9.7185,9.7185,0,0,1,305.9641,534.1692Z"/><path d="M305.9641,532.5554a8.2345,8.2345,0,0,1-8.1114-8.8151,8.3777,8.3777,0,0,1,2.544-5.2575c1.2859-1.2978,2.584-2.584,3.8759-3.8759l18.7391-18.739L348.23,470.6493l22.1227-22.1227c3.215-3.215,6.3368-6.5729,9.6733-9.6637a8.1368,8.1368,0,0,1,11.6162,11.36c-.8927,1.0091-1.9045,1.9282-2.8563,2.88l-17.0016,17.0017-24.8728,24.8727-23.16,23.16c-3.9465,3.9466-7.8743,7.913-11.84,11.84a8.4985,8.4985,0,0,1-5.9473,2.5776c-2.0741.0416-2.0812,3.2694,0,3.2276a11.7728,11.7728,0,0,0,8.1663-3.46c.44-.4339.8735-.8735,1.31-1.31l6.1433-6.1433,22.0529-22.053,26.14-26.14,19.5869-19.5868c1.3339-1.3339,2.674-2.6618,4.0018-4.0018a11.3612,11.3612,0,0,0-14.32-17.5539,16.5734,16.5734,0,0,0-2.0826,1.8174l-4.9248,4.9248L351.48,462.8355l-26.2073,26.2073-21.1694,21.1694-5.3707,5.3708c-.2663.2662-.5371.5288-.7993.7992a11.3622,11.3622,0,0,0,8.0313,19.4008C308.0419,535.8247,308.0417,532.5971,305.9641,532.5554Z"/><path d="M147.5115,586.39H337.1967c2.5591,0,5.128.0652,7.6866,0,.112-.0029.2244,0,.3365,0a1.6148,1.6148,0,0,0,0-3.2276H155.5347c-2.5592,0-5.1281-.0653-7.6866,0-.112.0028-.2245,0-.3366,0a1.6148,1.6148,0,0,0,0,3.2276Z"/><path d="M127.4287,602.7686h228.246c3.0743,0,6.1559.0615,9.23,0,.1326-.0027.2655,0,.3981,0a1.6148,1.6148,0,0,0,0-3.2276H137.0566c-3.0743,0-6.1559-.0616-9.23,0-.1326.0026-.2655,0-.3982,0a1.6148,1.6148,0,0,0,0,3.2276Z"/><path d="M127.2925,619.1468H354.3654c3.07,0,6.1477.0649,9.2171,0,.1332-.0029.2667,0,.4,0a1.6148,1.6148,0,0,0,0-3.2276H136.91c-3.07,0-6.1477-.0649-9.217,0-.1333.0028-.2668,0-.4,0a1.6148,1.6148,0,0,0,0,3.2276Z"/><circle class="cls-6" cx="51.9069" cy="341.5378" r="7.9938"/><circle class="cls-2" cx="82.9132" cy="341.5378" r="7.9938"/><circle class="cls-5" cx="113.9194" cy="341.5378" r="7.9938"/><path class="cls-3" d="M471.8545,320.5l-18.1629-7.1738a4.9335,4.9335,0,0,0-6.4691,2.96h0a4.9334,4.9334,0,0,0,1.945,5.75l16.0642,10.5706a25.2355,25.2355,0,0,0,7.9674,27.9854"/><path d="M472.2835,318.9437c-6.0185-2.3771-12-4.8891-18.0678-7.1362a6.5433,6.5433,0,0,0-7.0015,10.7014,17.1481,17.1481,0,0,0,2.9171,2.0907l5.1148,3.3656L464.4171,334l-.7416-1.8224c-2.61,6.5377-1.7592,14.6987,1.3644,20.8558a28.729,28.729,0,0,0,7.0181,8.7c1.5694,1.3448,3.8627-.928,2.2822-2.2823-5.28-4.5245-8.7125-10.6233-8.8988-17.653a22.1429,22.1429,0,0,1,1.3464-8.7622,1.6284,1.6284,0,0,0-.7416-1.8225l-15.5841-10.2546a3.5026,3.5026,0,0,1-1.6834-4.2435c.7563-1.9732,2.8559-2.4537,4.6681-1.76,2.9774,1.14,5.9321,2.343,8.8973,3.5141l9.0814,3.5869c1.9323.7632,2.7707-2.3569.858-3.1123Z"/><path class="cls-3" d="M546.412,436.1086,544.3671,440.5a8.6763,8.6763,0,0,0,.1878,7.7041l1.815,3.448-1.9,2.8441a6.3794,6.3794,0,0,0-.14,6.8682l2.0146,3.3c.111,3.9243-3.4688,5.5753-3.1775,10.9468h0c.2912,5.3714,7.9167,5.7068,12.7982,5.8135l14.7881.3232a16.1466,16.1466,0,0,0,11.4806-4.586h0a16.1467,16.1467,0,0,1,8.9181-4.4146l62.766-9.2563s-1.9974-22.162-3.7811-28.4961"/><path d="M545.0185,435.2941c-1.1581,2.4871-2.7118,5.07-3.0115,7.8316-.3815,3.5157,1.4072,6.3733,2.97,9.3411v-1.6291c-1.1111,1.663-2.5139,3.3486-2.9735,5.3341-.6532,2.8222.3911,5.12,1.8146,7.4515l.8182,1.34a2.3362,2.3362,0,0,0,.2282.3739c.2784.2853.0479-.5294-.1386-.2307a12.1371,12.1371,0,0,0-.3574,1.5562,13.2886,13.2886,0,0,1-.75,1.52,18.4084,18.4084,0,0,0-1.684,3.8019c-.35,1.2759-.895,3.6878.0911,4.7681l-.4726-1.1411c.5212,6.5372,8.1847,7.2361,13.3276,7.3992,3.5623.1129,7.1276.16,10.6907.2381,4.7355.1035,9.2409.3516,13.6261-1.9132,3.3706-1.7407,5.6085-4.92,9.2436-6.2407a18.6145,18.6145,0,0,1,3.6657-.8687l17.757-2.6187,27.6586-4.0789,10.9472-1.6144c1.8579-.2739,3.7726-.4408,5.6112-.8275.0872-.0183.1779-.0262.2662-.0392a1.6075,1.6075,0,0,0,1.1847-1.5562c-.6848-7.5872-1.4765-15.1864-2.6334-22.7172a53.976,53.976,0,0,0-1.2053-6.2079,1.6152,1.6152,0,0,0-3.1123.858,85.0573,85.0573,0,0,1,2.0223,12.1645c.542,4.3542,1.0083,8.7181,1.4343,13.0851q.1374,1.4083.2669,2.8175l1.1847-1.5561L640.0967,463.91l-26.9,3.9671-20.45,3.0157a22.1927,22.1927,0,0,0-8.1058,2.4393,25.6784,25.6784,0,0,0-4.1358,3.2339,14.15,14.15,0,0,1-4.7233,2.75,17.5316,17.5316,0,0,1-6.2192.7927l-12.1853-.2663c-1.5605-.0341-3.1226-.0546-4.68-.1675-2.2783-.1652-5.473-.4086-7.1272-2.2175-.8061-.8815-.5153-2.1683-1.2625-2.9868l.4727,1.1412c-.1008-2.7462,1.1261-4.598,2.2316-6.9809a8.7725,8.7725,0,0,0,.9473-3.6684,4.1717,4.1717,0,0,0-.9194-2.2547c-1.1112-1.82-2.4733-3.591-1.8762-5.8609.4171-1.5857,1.7011-3.0344,2.6-4.38a1.6212,1.6212,0,0,0,0-1.6291c-1.2715-2.4155-2.9488-4.8358-2.5226-7.7038.3207-2.1581,1.655-4.2573,2.5647-6.2108.8713-1.8713-1.91-3.5123-2.787-1.629Z"/><polygon class="cls-2" points="649.445 261.223 649.624 252.854 696.962 248.551 699.114 264.689 682.438 280.289 653.928 274.909 649.445 261.223"/><path d="M651.0588,261.2227l.1792-8.3684-1.6138,1.6137,15.9749-1.4522,25.4841-2.3168,5.879-.5344-1.6138-1.6138L697.5,264.6887a1.67,1.67,0,0,0,1.6138,1.6138,1.6215,1.6215,0,0,0,1.6138-1.6138l-2.1517-16.1379c-.1069-.8017-.6547-1.701-1.6138-1.6138l-15.9749,1.4523-25.4841,2.3167-5.879.5345a1.6538,1.6538,0,0,0-1.6138,1.6138l-.1792,8.3684c-.0445,2.0777,3.1831,2.0773,3.2276,0Z"/><path class="cls-1" d="M758.2142,250.3152c0,49.9485-77.6308,32.4966-77.029,74.6219-20.4609-30.0895-1.2036-70.4093,29.4877-84.8523,0,0,12.6375-3.6107,21.0626,0"/><path d="M756.6,250.3152c-.0224,7.9776-2.2766,15.7539-7.623,21.7862-5,5.6408-11.7306,9.3694-18.5436,12.3909-7.2675,3.2231-14.851,5.6595-22.24,8.5774-6.83,2.697-13.7365,5.7558-19.3228,10.63a26.72,26.72,0,0,0-9.206,18.2628c-.0786.99-.1042,1.9822-.0933,2.9751l3.0072-.8145a47.4092,47.4092,0,0,1-8.0893-22.7016,54.807,54.807,0,0,1,3.4619-23.4228,66.7537,66.7537,0,0,1,31.59-35.5614,23.1021,23.1021,0,0,1,7.5636-1.982c4.7139-.6137,9.7448-.6644,14.2018,1.1862a1.6253,1.6253,0,0,0,1.9851-1.1272,1.6527,1.6527,0,0,0-1.1271-1.9851c-4.2091-1.7477-8.9887-1.8937-13.4716-1.4764a38.4372,38.4372,0,0,0-8.354,1.45,27.2506,27.2506,0,0,0-4.6319,2.338q-2.7685,1.5669-5.3734,3.4021a70.6761,70.6761,0,0,0-9.9023,8.4186c-11.8013,12.0889-19.6961,28.745-19.3182,45.8416a50.7319,50.7319,0,0,0,8.6786,27.249,1.6275,1.6275,0,0,0,3.0073-.8145,23.7516,23.7516,0,0,1,7.3337-18.0259c5.0264-4.7928,11.74-7.86,18.2154-10.45,7.4981-2.9985,15.187-5.4979,22.6059-8.6975,6.9933-3.016,13.9212-6.7408,19.2711-12.2645a34.5761,34.5761,0,0,0,9.4667-21.6512c.0929-1.1757.1329-2.3539.1362-3.5331a1.6148,1.6148,0,0,0-3.2276,0Z"/><path d="M705.06,476.5794l4.1125,12.4022,9.57,28.8594,10.8753,32.7969,8.0294,24.2144c.5507,1.6607,1.091,3.3253,1.6522,4.9825a44.6482,44.6482,0,0,0,10.2,16.5982,45.8948,45.8948,0,0,0,14.178,9.8691q2.5383,1.1442,5.0777,2.2857l22.939,10.3256,31.4654,14.1637,28.9426,13.0281,16.1019,7.248.7534.3392c.9394.4228,1.761-.9674.8145-1.3935l-11.2543-5.066-26.7336-12.0337-31.6691-14.2553-25.99-11.6992c-4.302-1.9365-8.77-3.6993-12.9246-5.9474a43.6919,43.6919,0,0,1-18.2854-18.9691,52.6793,52.6793,0,0,1-2.717-6.9069l-6.777-20.4375-10.55-31.8149-10.2147-30.8046-5.7719-17.4064-.2677-.8075c-.3254-.9811-1.8844-.5607-1.5562.429Z"/><path d="M665.7946,515.2594l-.6445,6.1388-1.7455,16.6249-2.58,24.57-3.1595,30.0919-3.4613,32.9662-3.4806,33.15-3.2455,30.9112-2.7526,26.216-1.9716,18.7775c-.3109,2.9615-.73,5.9341-.935,8.9054-.0089.1288-.027.2576-.0405.3861-.1084,1.0317,1.5062,1.0241,1.6138,0l.6445-6.1387,1.7456-16.625,2.58-24.57,3.1595-30.092,3.4613-32.9662,3.4806-33.15,3.2456-30.9112,2.7525-26.216,1.9716-18.7775c.3109-2.9615.73-5.9341.935-8.9054.0089-.1289.0271-.2577.0405-.3862.1084-1.0317-1.5062-1.0241-1.6138,0Z"/></svg>