<svg id="Layer_1" data-name="Layer 1" xmlns="http://www.w3.org/2000/svg" width="1000" height="1000" viewBox="0 0 1000 1000"><defs><style>.cls-1{fill:#fff;}.cls-2{fill:#458dc9;}.cls-3{fill:#ea2f2f;}.cls-4{fill:#fc7272;}.cls-5{fill:#ffc41f;}.cls-6{fill:#389b48;}.cls-7{fill:#fc7f3a;}.cls-8{stroke:#000;stroke-miterlimit:10;stroke-width:1.1439px;}</style></defs><polygon class="cls-1" points="323.481 457.39 759.464 457.39 621.252 195.436 185.27 195.436 323.481 457.39"/><path d="M323.4814,459.1055h418.21c5.6759,0,11.3739.1466,17.0485,0,.2407-.0062.4824,0,.7233,0a1.7343,1.7343,0,0,0,1.4816-2.5818l-13.7286-26.02-32.9758-62.4994-39.908-75.6382L639.8074,226.93l-11.453-21.707c-1.77-3.3541-3.3341-6.986-5.3747-10.1867-.0933-.1464-.1646-.312-.2457-.4658a1.7087,1.7087,0,0,0-1.4816-.85H203.042c-5.6759,0-11.374-.1467-17.0485,0-.2407.0062-.4824,0-.7233,0a1.7343,1.7343,0,0,0-1.4816,2.5818l13.7286,26.02,32.9758,62.4994L270.401,360.46l34.5253,65.4363,11.4531,21.7071c1.7752,3.3646,3.3643,6.954,5.3747,10.1867.0919.1478.1644.3116.2457.4658,1.031,1.954,3.994.2217,2.9632-1.732l-13.7286-26.02-32.9758-62.4994-39.908-75.6382L203.8252,226.93l-11.453-21.707-3.5184-6.6685a20.5786,20.5786,0,0,0-1.8563-3.5182,2.7222,2.7222,0,0,1-.2457-.4658l-1.4816,2.5819H614.6444a44.8226,44.8226,0,0,0,5.8846,0,5.4913,5.4913,0,0,1,.7234,0l-1.4816-.85,13.7286,26.02,32.9758,62.4994,39.908,75.6381,34.5254,65.4363,11.453,21.7071,3.5184,6.6685a20.5753,20.5753,0,0,0,1.8563,3.5182,2.7222,2.7222,0,0,1,.2457.4658l1.4816-2.5819h-418.21c-5.6758,0-11.3739-.1466-17.0484,0-.2408.0062-.4825,0-.7234,0A1.7169,1.7169,0,0,0,323.4814,459.1055Z"/><polygon points="292.596 457.39 728.578 457.39 590.367 195.436 184.698 195.436 292.596 457.39"/><path d="M292.5961,459.1055H710.8722c5.6545,0,11.33.1421,16.9834,0,.24-.006.482,0,.7227,0a1.7343,1.7343,0,0,0,1.4816-2.5818l-13.8262-26.2049-32.9319-62.4162-39.9364-75.692-34.52-65.4272-11.4-21.6062c-1.7644-3.3442-3.3318-6.9436-5.3519-10.1437-.0923-.1461-.1637-.31-.2445-.4632a1.7086,1.7086,0,0,0-1.4816-.85H201.2184c-5.2757,0-10.5738-.1417-15.8482,0-.2236.006-.4482,0-.672,0a1.7269,1.7269,0,0,0-1.6545,2.1719l10.7747,26.1588,25.7607,62.5417,31.1444,75.6121,26.9256,65.37c4.3625,10.5911,8.46,21.343,13.1044,31.8148.0667.15.1254.3044.188.4564.8295,2.0138,4.151,1.1316,3.3091-.9123l-10.7747-26.1587-25.7607-62.5417L226.5708,292.621l-26.9256-65.37-8.9022-21.6126-2.754-6.6863a18.2068,18.2068,0,0,0-1.4482-3.5159,2.3594,2.3594,0,0,1-.188-.4564l-1.6546,2.172H584.2245a41.4729,41.4729,0,0,0,5.4706,0,5.0723,5.0723,0,0,1,.6719,0l-1.4815-.85,13.8261,26.2049,32.9319,62.4162,39.9365,75.692,34.52,65.4272,11.4,21.6062,3.5039,6.6409a22.4116,22.4116,0,0,0,1.8481,3.5028,2.962,2.962,0,0,1,.2444.4632l1.4816-2.5819H310.3022c-5.6546,0-11.33-.142-16.9834,0-.2406.0061-.482,0-.7227,0A1.7169,1.7169,0,0,0,292.5961,459.1055Z"/><polyline class="cls-2" points="567.07 357.242 499.843 336.708 464.382 411.634 554.75 441.375"/><path d="M567.526,355.5879l-22.7955-6.9628-36.0754-11.0192-8.356-2.5524a1.7288,1.7288,0,0,0-1.9377.7886l-12.0531,25.4671-19.055,40.2614-4.3528,9.197a1.7467,1.7467,0,0,0,1.0254,2.5206l8.9919,2.9593,21.5921,7.1063,26.1182,8.5959,22.4885,7.4012c3.6485,1.2008,7.3013,2.6453,11.0172,3.626.0541.0142.1072.0352.16.0527,2.1026.692,3.0039-2.6207.9123-3.3091l-8.9919-2.9593-21.5921-7.1063-26.1182-8.5959-22.4884-7.4012-7.487-2.4641a30.9228,30.9228,0,0,0-3.53-1.1619,1.3966,1.3966,0,0,1-.16-.0527l1.0255,2.5206,12.0531-25.4672,19.055-40.2614,4.3528-9.197-1.9377.7886,22.7955,6.9628,36.0754,11.0192,8.3559,2.5524c2.1169.6465,3.0218-2.6648.9123-3.3092Z"/><path class="cls-2" d="M557.5036,354.715l91.89,24.2785c10.23,2.7029,14.4566,8.3451,14.8808,24.5184,0,0-7.9692,109.5768-16.5131,160.6354-97.8765-25.86-173.0842-23.2528-173.0842-23.2528l68.2785-148.4077"/><path d="M557.0475,356.37l12.29,3.2473,27.9946,7.3966,30.28,8,19.5234,5.1584a34.8292,34.8292,0,0,1,5.9809,1.9177,13.8725,13.8725,0,0,1,5.3966,4.2153,19.3414,19.3414,0,0,1,3.089,7.6128,38.8458,38.8458,0,0,1,.8768,10.68q-.2378,3.21-.4848,6.4193-1.02,13.2954-2.1325,26.5834-1.5951,19.0975-3.379,38.1787-1.9765,21.0394-4.2877,42.0462c-1.4209,12.7047-2.9491,25.4032-4.85,38.046q-.5886,3.9149-1.2378,7.82l2.1107-1.1985q-26.9887-7.12-54.4712-12.1458-23.3755-4.2744-46.9974-7.02-18.4111-2.1386-36.9215-3.2711c-8.2673-.4943-16.5466-.829-24.8286-.9248-2.3579-.0273-4.7162-.0353-7.0742-.0117a21.6682,21.6682,0,0,0-3.111.0555,1.1274,1.1274,0,0,1-.1365.0043l1.4816,2.5819,6.8226-14.8294L499.2546,491.56l19.7781-42.9889,17.0033-36.9578c2.7632-6.006,5.5749-11.9922,8.2905-18.02.0363-.0806.0739-.1606.1108-.2409.9167-1.9926-2.04-3.7382-2.9632-1.732L534.6515,406.45,518.3783,441.821,498.6,484.81l-17.0033,36.9578c-2.7632,6.0059-5.5749,11.9922-8.2905,18.02-.0363.0806-.0739.1606-.1108.2409a1.7369,1.7369,0,0,0,1.4816,2.5819c2.7249-.0939,5.4559-.0834,8.1818-.067,7.667.0459,15.3329.3126,22.9889.719q17.767.943,35.4627,2.8856,22.8814,2.4765,45.5674,6.4445,26.8125,4.6734,53.2253,11.347,3.6059.9123,7.202,1.8625a1.73,1.73,0,0,0,2.1107-1.1985c2.0212-12.1007,3.5785-24.28,5.023-36.4609,1.6689-14.0728,3.1375-28.1691,4.51-42.2735q1.9575-20.1093,3.6653-40.2418,1.2884-15.0663,2.4652-30.1417c.31-3.9726.8058-7.9875.91-11.9729a45.2087,45.2087,0,0,0-1.2764-11.3891,21.2093,21.2093,0,0,0-3.44-7.8247c-2.835-3.7882-7.0467-5.7918-11.5247-6.9865-4.7642-1.2711-9.5348-2.5192-14.3021-3.7788l-29.0084-7.6644-30.0921-7.9508-17.553-4.6377-.8334-.22c-2.1372-.5647-3.049,2.7446-.9123,3.3091Z"/><rect class="cls-1" x="453.6714" y="526.0238" width="273.808" height="278.5399"/><path d="M727.4793,802.8478H464.79c-3.5287,0-7.14-.2221-10.6634,0-.1505.01-.3043,0-.4552,0l1.7158,1.7159V537.3305c0-3.5876.2137-7.25,0-10.8331-.0093-.1567,0-.3165,0-.4736l-1.7158,1.7158H716.3607c3.5288,0,7.14.2222,10.6635,0,.15-.01.3042,0,.4551,0l-1.7158-1.7158V793.257c0,3.6086-.0688,7.2249,0,10.8331.003.1577,0,.3158,0,.4736a1.7169,1.7169,0,0,0,3.4317,0V537.3305c0-3.6086.0688-7.225,0-10.8331-.003-.1578,0-.3159,0-.4736a1.7408,1.7408,0,0,0-1.7159-1.7159H464.79c-3.5518,0-7.1121-.0714-10.6634,0-.1516.003-.3036,0-.4552,0a1.7408,1.7408,0,0,0-1.7159,1.7159V793.257c0,3.6086-.0688,7.2249,0,10.8331.003.1577,0,.3158,0,.4736a1.7408,1.7408,0,0,0,1.7159,1.7158H716.3607c3.5519,0,7.1121.0715,10.6635,0,.1515-.003.3035,0,.4551,0A1.7169,1.7169,0,0,0,727.4793,802.8478Z"/><rect class="cls-3" x="102.9093" y="526.0238" width="391.2142" height="278.5399"/><path d="M494.1235,802.8478H118.79c-5.0181,0-10.2075-.3823-15.2153,0-.219.0168-.4452,0-.6652,0l1.7158,1.7159V530.2112a32.3484,32.3484,0,0,0,0-3.7185,4.075,4.075,0,0,1,0-.4689l-1.7158,1.7158H478.243c5.0181,0,10.2075.3823,15.2153,0,.219-.0167.4452,0,.6652,0l-1.7159-1.7158V793.1875c0,3.63-.1041,7.278,0,10.9072.0045.1561,0,.3128,0,.469a1.7169,1.7169,0,0,0,3.4317,0V537.4c0-3.63.1042-7.2781,0-10.9073-.0044-.156,0-.3128,0-.4689a1.7408,1.7408,0,0,0-1.7158-1.7159H118.79c-5.0684,0-10.1475-.0959-15.2153,0-.2216.0042-.4436,0-.6652,0a1.7408,1.7408,0,0,0-1.7159,1.7159V793.1875c0,3.63-.1041,7.278,0,10.9072.0045.1561,0,.3128,0,.469a1.7408,1.7408,0,0,0,1.7159,1.7158H478.243c5.0684,0,10.1475.0959,15.2153,0,.2216-.0041.4436,0,.6652,0A1.7169,1.7169,0,0,0,494.1235,802.8478Z"/><path class="cls-2" d="M638.2581,475.3128l78.101,65.558c5.1135-10.6148,17.8277-52.49,27.4156-64.9928a240.3855,240.3855,0,0,1,15.83-18.656L685.34,395.2031a66.7928,66.7928,0,0,0-24.7169-13.0277L638.29,375.89"/><path d="M637.0448,476.5261l7.77,6.5226,18.6595,15.6628,22.5716,18.9466,19.5063,16.3736c3.1506,2.6446,6.27,5.3328,9.4546,7.9362.0467.0381.0924.0775.1385.1162a1.7373,1.7373,0,0,0,2.6949-.3472c1.8523-3.8664,3.295-7.9428,4.778-11.96,2.1325-5.777,4.205-11.576,6.347-17.35,2.2722-6.1249,4.5932-12.2388,7.1549-18.25a107.7756,107.7756,0,0,1,7.24-14.6573,87.2012,87.2012,0,0,1,6.9975-9.1931q5.0307-6.1181,10.46-11.8919a1.7321,1.7321,0,0,0,0-2.4266L747.931,445.2468l-27.5965-23.0462-25.7107-21.4713c-6.5236-5.4479-12.8567-11.0778-20.4643-15.0258-5.84-3.0307-12.02-4.8843-18.3112-6.655l-15.98-4.4976-1.1223-.3159a1.7173,1.7173,0,0,0-.9123,3.3091l12.8361,3.6128c4.9967,1.4064,10.1127,2.64,14.9745,4.4736A65.9093,65.9093,0,0,1,684.56,396.7779l5.6859,4.7483,24.43,20.4016,28.0437,23.42,10.3121,8.6118c1.6779,1.4012,3.3147,3.0534,5.1269,4.2814.0824.0559.1564.1307.233.1947v-2.4266q-4.7877,5.0814-9.2612,10.4455c-2.6495,3.1733-5.3778,6.3678-7.72,9.7785a84.0715,84.0715,0,0,0-7.2346,13.8615c-5.1922,11.7985-9.4551,23.9826-13.8785,36.0819-1.7076,4.6706-3.3842,9.5813-5.4192,13.8287l2.6949-.3473-7.77-6.5225-18.66-15.6628-22.5716-18.9466L649.0644,482.152c-3.15-2.6446-6.27-5.3328-9.4546-7.9362-.0466-.0382-.0923-.0775-.1384-.1162-1.6811-1.4111-4.1209,1.0044-2.4266,2.4265Z"/><path d="M716.7894,540.9552c-4.63-3.55-2.4928-14.87,4.5937-29.58l25.0232,15.4956C733.06,538.8756,721.6963,544.7179,716.7894,540.9552Z"/><path d="M718.0027,539.7419a5.0128,5.0128,0,0,1-1.8111-3.4041,17.6991,17.6991,0,0,1,.2374-6.0054c1.1293-6.3063,3.6806-12.3446,6.4356-18.0909l-2.3476.6156,21.914,13.57,3.1093,1.9253-.3473-2.6948c-5.2512,4.7072-10.8594,9.2959-17.1965,12.4739a20.6965,20.6965,0,0,1-6.1666,2.1574,8.798,8.798,0,0,1-2.36-.0019,3.6668,3.6668,0,0,1-1.8141-.8136c-1.7769-1.3144-3.49,1.6627-1.732,2.9632,3.7815,2.7973,9.1908.84,12.9514-.9269,6.9427-3.2617,13.0726-8.341,18.7448-13.4255a1.7327,1.7327,0,0,0-.3473-2.6949l-21.914-13.57-3.1092-1.9254a1.7279,1.7279,0,0,0-2.3476.6155c-3.0062,6.27-5.8909,12.9241-6.9362,19.85-.5852,3.8775-.8178,9.0809,2.6108,11.8094a1.7722,1.7722,0,0,0,2.4266,0A1.7264,1.7264,0,0,0,718.0027,539.7419Z"/><path class="cls-4" d="M743.7747,475.878a240.3855,240.3855,0,0,1,15.83-18.656l26.4595,21.4535,7.5283,6.1039,95.6326-116.0619,45.28,38.5112L849.13,530.563c-20.1408,24.226-55.6073,29.5771-83.0591,14.1192L749.0052,533.451l-27.6221-22.0755A210.8716,210.8716,0,0,1,743.7747,475.878Z"/><path d="M745.2563,476.744a239.2394,239.2394,0,0,1,15.5615-18.3087h-2.4266l13.3266,10.8052,13.1394,10.6535,7.5218,6.0987a1.7416,1.7416,0,0,0,2.4266,0l9.5826-11.63,22.8344-27.7125,27.59-33.4837,23.8483-28.9428,7.8658-9.5462a58.5723,58.5723,0,0,0,3.7441-4.5438,2.6071,2.6071,0,0,1,.1675-.2033h-2.4266L903.35,382.9762l24.3363,20.6984,5.6053,4.7674-.2683-2.0794-5.96,8.61-15.0041,21.6754L892.396,465.0536l-20.09,29.0222L856.0152,517.61c-2.7017,3.903-5.3628,7.8382-8.107,11.7116A22.1665,22.1665,0,0,1,846,531.5488a60.0855,60.0855,0,0,1-9.5494,8.4762,63.3056,63.3056,0,0,1-23.1367,10.1692,65.69,65.69,0,0,1-25.06.5552c-7.39-1.2746-15.2057-3.6664-21.5778-7.72-4.1666-2.6509-8.2554-5.4329-12.3806-8.1478l-2.8574-1.88a10.4476,10.4476,0,0,0-1.4847-.9771c-.3075-.13.4.329.22.1782-.0973-.0813-.1986-.1582-.2974-.2376q-.6939-.5579-1.391-1.1117l-23.8965-19.098-1.9924-1.5923.2683,2.0793a207.6059,207.6059,0,0,1,22.3917-35.4975,1.7274,1.7274,0,0,0-.6156-2.3476,1.757,1.757,0,0,0-2.3476.6156,207.6045,207.6045,0,0,0-22.3916,35.4974,1.7531,1.7531,0,0,0,.2683,2.0794l21.3094,17.03c2.242,1.7918,4.4233,3.7463,6.7779,5.391,3.9382,2.751,8.0411,5.2919,12.0539,7.9328,1.5767,1.0376,3.1341,2.1151,4.7345,3.1158a56.0339,56.0339,0,0,0,10.097,4.7045,69.5668,69.5668,0,0,0,25.4529,4.3379,66.75,66.75,0,0,0,46.59-19.8068c3.2663-3.3709,5.726-7.1871,8.387-11.0312l14.5286-20.9885L889.7493,474.89l20.4-29.47,16.7936-24.26,8.6453-12.4893.398-.5749a1.7191,1.7191,0,0,0-.2683-2.0793L920.38,392.97l-24.3362-20.6985-5.6053-4.7673a1.7379,1.7379,0,0,0-2.4266,0l-9.5825,11.6295-22.8345,27.7125-27.59,33.4837-23.8483,28.9429-7.8658,9.5461a58.5308,58.5308,0,0,0-3.744,4.5439,2.6273,2.6273,0,0,1-.1676.2033h2.4266l-10.6618-8.6446-18.17-14.7326-5.1556-4.18a1.7525,1.7525,0,0,0-2.4266,0,247.862,247.862,0,0,0-16.0981,19.0033,1.7273,1.7273,0,0,0,.6156,2.3476A1.7574,1.7574,0,0,0,745.2563,476.744Z"/><path class="cls-4" d="M603.6047,411.0935h0a36.1043,36.1043,0,0,1-25.6838-44.1293l1.735-6.5666,69.8131,18.4456-1.735,6.5666A36.1043,36.1043,0,0,1,603.6047,411.0935Z"/><path d="M604.0609,409.439A34.39,34.39,0,0,1,579.2758,368.64c.5957-2.6132,1.35-5.1956,2.0346-7.7865L579.2,362.0522l23.6285,6.2429,37.6139,9.9381,8.5707,2.2645-1.1984-2.1107c-.5743,2.1737-1.14,4.35-1.723,6.5213a35.2506,35.2506,0,0,1-5.5607,11.6834,34.3549,34.3549,0,0,1-36.47,12.8473c-2.1394-.5541-3.052,2.7549-.9123,3.3091A37.821,37.821,0,0,0,648.78,387.9254c.928-2.8252,1.5848-5.7525,2.344-8.6261a1.7423,1.7423,0,0,0-1.1984-2.1107l-23.6284-6.2429-37.6139-9.9381-8.5708-2.2645a1.7422,1.7422,0,0,0-2.1107,1.1984c-.6089,2.3045-1.24,4.6043-1.8252,6.915a37.8211,37.8211,0,0,0,26.9725,45.8916C605.2858,413.3128,606.1975,410.0035,604.0609,409.439Z"/><path class="cls-4" d="M628.9969,381.1247l6.4-24.2216c5.0108-.835,9.0787-2.6242,11.4779-5.5362,11.82-14.3472,20.0688-75.9567,20.0688-75.9567l-70.2007-18.5479s-26.1238,55.9686-20.0687,75.9567c2.0515,6.7725,9.418,12.73,18.7183,17.0919l-5.5161,20.8775"/><path d="M630.6514,381.5808l5.5944-21.1735.8053-3.048-1.1985,1.1984c4.8445-.8382,9.7111-2.6566,12.7849-6.6762a33.2334,33.2334,0,0,0,3.7038-6.43,120.992,120.992,0,0,0,6.5256-19.25,407.6734,407.6734,0,0,0,8.37-41.19c.506-3.1953.9928-6.3945,1.4226-9.6011a1.7164,1.7164,0,0,0-1.26-1.6546l-23.6949-6.2605L605.91,257.5094l-8.7114-2.3017a1.7372,1.7372,0,0,0-1.9377.7885c-4.238,9.0843-7.9873,18.435-11.3972,27.8573A217.4155,217.4155,0,0,0,576.6,307.4912c-1.6127,6.785-3.0478,14.015-2.4292,21.0219a20.6513,20.6513,0,0,0,4.6938,11.639c4.09,4.9941,9.8945,8.5135,15.6612,11.24l-.7885-1.9377-4.8151,18.2242-.701,2.6533c-.5647,2.1372,2.7446,3.0489,3.3091.9122l4.8151-18.2242.701-2.6532a1.7381,1.7381,0,0,0-.7885-1.9378c-5.134-2.4276-10.199-5.4208-14.0586-9.6544a17.6371,17.6371,0,0,1-4.4948-9.2976c-.8442-6.5442.4487-13.3706,1.8934-19.7348,3.3248-14.6465,8.6963-28.8666,14.5226-42.6822,1.2517-2.968,2.6739-6.2676,4.1034-9.332l-1.9377.7885,23.6949,6.2605,37.7943,9.9858,8.7114,2.3016-1.26-1.6545c.1294-.9651.0163-.1253-.0147.0985q-.1032.7459-.2107,1.4913-.3882,2.7056-.8092,5.4063-1.3627,8.7812-3.0037,17.5162c-1.3623,7.23-2.8715,14.436-4.6539,21.5747a150.0258,150.0258,0,0,1-6.13,19.8323,42.1036,42.1036,0,0,1-3.802,7.5231q-.2693.4062-.5552.8009-.0916.1269-.1863.2518c-.3062.4052.2094-.25-.1061.1331a11.2046,11.2046,0,0,1-2.4808,2.265,21.6389,21.6389,0,0,1-8.3339,2.9452,1.685,1.685,0,0,0-1.1985,1.1984l-5.5943,21.1735-.8053,3.048c-.5647,2.1372,2.7446,3.049,3.3091.9123Z"/><path d="M610.36,351.6552c-.52-.0368-1.0385-.0957-1.5557-.1578q-.2118-.0255-.4234-.0527a1.3347,1.3347,0,0,1-.1745-.0234q-.4434-.0629-.8859-.1313-1.1979-.1869-2.3875-.4226a42.119,42.119,0,0,1-11.2652-3.721c-1.9574-1.0167-3.6948,1.9437-1.7321,2.9631a47.89,47.89,0,0,0,18.4243,4.9774,1.7159,1.7159,0,0,0,0-3.4317Z"/><path class="cls-1" d="M244.753,747.3686H161.82v-74.64a41.4663,41.4663,0,0,1,41.4664-41.4663h0A41.4663,41.4663,0,0,1,244.753,672.729Z"/><path d="M244.753,745.6528H161.82l1.7159,1.7158V678.235q0-2.674,0-5.3482a39.7593,39.7593,0,0,1,79.0468-6.2592,51.5159,51.5159,0,0,1,.4543,8.12v72.6211a1.7169,1.7169,0,0,0,3.4317,0V677.3019c0-1.5183.0049-3.0368,0-4.5551a43.1884,43.1884,0,0,0-85.3468-9.3694,50.2959,50.2959,0,0,0-1.0178,10.7949v73.1963a1.7408,1.7408,0,0,0,1.7159,1.7159H244.753A1.7169,1.7169,0,0,0,244.753,745.6528Z"/><path d="M201.5708,631.2627V733.0409c0,4.6953-.1808,9.4311,0,14.1239.0026.0677,0,.136,0,.2038a1.7169,1.7169,0,0,0,3.4317,0V645.59c0-4.6953.1807-9.4311,0-14.1239-.0026-.0677,0-.136,0-.2038a1.7169,1.7169,0,0,0-3.4317,0Z"/><line class="cls-1" x1="161.8202" y1="668.4395" x2="244.753" y2="668.4395"/><path d="M161.82,670.1553H244.753a1.7169,1.7169,0,0,0,0-3.4317H161.82a1.7169,1.7169,0,0,0,0,3.4317Z"/><line class="cls-1" x1="161.8202" y1="711.9077" x2="244.753" y2="711.9077"/><path d="M161.82,713.6235H244.753a1.7169,1.7169,0,0,0,0-3.4317H161.82a1.7169,1.7169,0,0,0,0,3.4317Z"/><path class="cls-5" d="M593.4133,276.7082c19.3978,6.1238,39.7153,11.4473,39.7153,11.4473L626.23,316.5033c2.4208-9.1619,12.9564-19.6482,19.5224-17.9134s11.0281,5.28,8.5444,14.6806c-1.6441,6.2225-9.7249,15.69-14.1074,17.5695l8.0746,18.6976s39.8585-34.4288,42.0612-53.96l7.9624-28.9044a15.0283,15.0283,0,0,0-10.6217-18.5136l-82.0123-21.8376L587.63,263.2706A9.6542,9.6542,0,0,0,593.4133,276.7082Z"/><path d="M592.9572,278.3628q19.7045,6.212,39.7153,11.4473l-1.1984-2.1107-6.0323,24.7888-.866,3.559c-.5217,2.1437,2.7249,3.0478,3.3091.9123a27.3109,27.3109,0,0,1,7.7654-12.2859c2.5461-2.4049,6.3439-5.3483,10.0711-4.3131,3.345.9291,6.6273,2.6263,7.3953,6.2961.9333,4.46-1.3081,9.0579-3.7155,12.6509a42.1766,42.1766,0,0,1-5.1849,6.3118,17.0561,17.0561,0,0,1-4.8926,3.7391,1.7548,1.7548,0,0,0-.6156,2.3476l8.0746,18.6976c.4711,1.091,1.9557.9861,2.6949.3473,3.5992-3.1106,7.0641-6.3875,10.472-9.7046A213.2885,213.2885,0,0,0,679.7728,319.31c5.3-6.8185,10.9471-14.601,12.2224-23.361.0691-.4746-.06.2345.0029.019.0294-.1.0534-.2023.0834-.3026.1138-.38.2112-.7666.3167-1.15l1.1643-4.2268,3.3525-12.17,2.6852-9.7474c1.0723-3.8927,1.34-7.843-.1759-11.6848a16.9958,16.9958,0,0,0-11.3549-10.196c-1.0428-.2869-2.0906-.5567-3.1358-.835l-17.3273-4.6138-24.7047-6.5781-23.1536-6.1652-13.02-3.4669-.6177-.1645a1.7391,1.7391,0,0,0-1.9377.7885l-8.52,17.4652c-3.1446,6.4463-6.3293,12.8747-9.4343,19.34a11.5279,11.5279,0,0,0,6.7388,16.1018c2.0989.7029,2.9992-2.61.9123-3.3091a8.04,8.04,0,0,1-4.6134-11.2133c1.1033-2.2817,2.2223-4.5559,3.3335-6.8337l11.5427-23.6626,3.0032-6.1564-1.9378.7885,8.9189,2.3749,20.9953,5.59,24.8411,6.6145,20.1419,5.3632c3.507.9339,7.7229,1.561,10.836,3.5155a13.4392,13.4392,0,0,1,5.7024,14.7819c-.5178,1.9524-1.0731,3.8957-1.61,5.8431l-5.9809,21.7115a67.8541,67.8541,0,0,1-1.823,6.9433,54.7985,54.7985,0,0,1-6.3025,11.29,168.8936,168.8936,0,0,1-19.1024,22.3509c-4.5266,4.5927-9.1955,9.0572-14.03,13.3256-.2438.2152-.4877.43-.7337.6429l2.6949.3472-8.0746-18.6975-.6155,2.3476a19.26,19.26,0,0,0,5.3584-4.0485,46.8216,46.8216,0,0,0,5.3591-6.3741c3.03-4.2922,5.4615-9.4672,4.8513-14.8618-.5553-4.91-4.024-7.94-8.4874-9.5137a10.5466,10.5466,0,0,0-6.3985-.5,18.1121,18.1121,0,0,0-6.4705,3.4688,30.8345,30.8345,0,0,0-10.6924,15.5548l3.3091.9123,6.0322-24.7889.8661-3.5589a1.7447,1.7447,0,0,0-1.1984-2.1107q-19.9861-5.2393-39.7153-11.4473C591.7583,274.3881,590.8549,277.7,592.9572,278.3628Z"/><path d="M608.9744,298.0971a8.74,8.74,0,0,1,1.19-.2909q.1359-.0256.2723-.0483c.057-.0094.49-.0752.1732-.03-.3228.0463.1543-.017.21-.0229q.1769-.0188.3541-.0331a14.63,14.63,0,0,1,1.7468-.0374q.4531.0174.9045.0635.1568.0159.313.0355-.2473-.0337-.0577-.0054c.19.0306.38.0625.57.1a13.464,13.464,0,0,1,2.2123.6374c.2082.08.4879.2052.82.3732a13.4265,13.4265,0,0,1,1.2387.7121,12.9938,12.9938,0,0,1,2.0971,1.7282,1.7168,1.7168,0,0,0,2.4266-2.4265,15.7288,15.7288,0,0,0-10.2291-4.6352,13.9245,13.9245,0,0,0-5.1541.5705,1.7562,1.7562,0,0,0-1.1985,2.1107,1.7325,1.7325,0,0,0,2.1107,1.1984Z"/><path d="M584.7343,291.101c.0676-.0116.2483-.0478-.023.001-.3165.0571.1488-.0137.2307-.0182.5548-.0306,1.1045-.0591,1.6606-.0469a16.3849,16.3849,0,0,1,5.4336,1.008,6.7707,6.7707,0,0,1,4.3239,6.2426c.0112,2.7235-1.7931,5.3193-3.5569,7.2585a23.978,23.978,0,0,1-4.0812,3.5591c-.7552.5237-1.6683.9172-2.1005,1.759a5.2821,5.2821,0,0,0-.56,1.9844c-.2672,3.5178,3.5763,4.6723,6.3516,5.0727a1.776,1.776,0,0,0,2.1107-1.1984,1.7267,1.7267,0,0,0-1.1984-2.1107c-1.164-.1679-2.8836-.2972-3.7644-1.1971a.4485.4485,0,0,1-.0957-.3217c.02-.2009.3438-.7939.1092-.5253-.3189.365.2705-.0907.3082-.1116a8.6966,8.6966,0,0,0,.759-.5179,24.9339,24.9339,0,0,0,7.2722-7.566,11.1476,11.1476,0,0,0,1.5118-8.7462,10.2564,10.2564,0,0,0-6.3158-6.8331,18.503,18.503,0,0,0-9.2873-1.0013c-2.1721.3743-1.2513,3.6819.9122,3.3091Z"/><path d="M596.2039,325.8056c3.2218.65,7.1117-.0178,9.3379-2.5979a1.7159,1.7159,0,0,0-2.4266-2.4266,6.2067,6.2067,0,0,1-.51.53,3.0484,3.0484,0,0,0-.31.2643c.2262-.2772.1845-.14.0257-.03a6.2439,6.2439,0,0,1-.5851.3568q-.1693.091-.3439.172c-.1365.0634-.3961.0893.0613-.0225-.4149.1015-.81.2824-1.2316.3752-.2008.0442-.4027.0783-.6054.1116-.3225.0531.47-.0486.0769-.012-.096.009-.1917.02-.2878.0278a11.2273,11.2273,0,0,1-1.9248-.0093c-.111-.01-.2216-.0232-.3324-.0351-.313-.0336.5617.0873.1732.0224-.0684-.0114-.137-.0216-.2049-.0353a1.7163,1.7163,0,0,0-.9123,3.3091Z"/><path class="cls-6" d="M244.1088,629.3383,174.9743,691.884,88.8231,597.2727s25.3413-26.02,60.284,6.5648a17.1388,17.1388,0,0,0,23.3671.0813c8.3028-7.7129,16.3015-15.2132,16.3015-15.2132"/><path d="M242.8955,628.125l-6.8963,6.239L219.5338,649.26l-20.0072,18.1-17.225,15.5834-5.73,5.1839a29.7073,29.7073,0,0,0-2.6918,2.4353,1.321,1.321,0,0,1-.1188.1075h2.4266l-8.5755-9.4176L147.0207,658.64l-24.9048-27.3505L100.6,607.6606l-7.0439-7.7356a49.1549,49.1549,0,0,0-3.3722-3.7034,2.1477,2.1477,0,0,1-.1477-.1622v2.4266a19.2321,19.2321,0,0,1,1.5788-1.4065c.1294-.1062.2606-.21.3909-.3153.07-.0562.1408-.1108.2112-.1662.1938-.1524-.3442.2612-.0347.0272.3667-.2771.7365-.55,1.1125-.8142q1.2568-.8838,2.5827-1.6636a35.4474,35.4474,0,0,1,16.3479-4.96c8.8319-.4087,17.311,2.6353,24.7071,7.3a68.32,68.32,0,0,1,7.3441,5.3665c2.2783,1.9033,4.3329,4.1385,6.8966,5.6708a19.0816,19.0816,0,0,0,14.2305,2.114c6.4809-1.5907,10.9732-7.0029,15.6621-11.3776q4.4659-4.1667,8.9229-8.3429c1.6145-1.5138-.8158-3.9369-2.4266-2.4266q-3.6664,3.4379-7.3412,6.8667-3.5654,3.3289-7.1368,6.6515a21.2664,21.2664,0,0,1-6.409,4.6239,15.61,15.61,0,0,1-13.77-1.0722c-2.5625-1.528-4.6138-3.8453-6.9167-5.7241a74.3451,74.3451,0,0,0-7.324-5.3132c-7.585-4.7809-16.3539-7.9636-25.4056-7.8019a39.1685,39.1685,0,0,0-17.855,4.751,32.4926,32.4926,0,0,0-7.7945,5.5854,1.7526,1.7526,0,0,0,0,2.4266l8.5755,9.4176,20.5914,22.6134,24.9048,27.35,21.5157,23.6285c3.4572,3.7968,6.7777,7.8132,10.4161,11.4391.0516.0514.0986.1083.1477.1621a1.7454,1.7454,0,0,0,2.4266,0l6.8963-6.239,16.4654-14.8962,20.0072-18.1,17.225-15.5834c2.7893-2.5234,5.7861-4.9329,8.4218-7.6192.0372-.0379.0794-.0718.1188-.1074,1.6412-1.4849-.7916-3.9058-2.4266-2.4266Z"/><path class="cls-1" d="M432.3528,512.8689l41.2706-11.3475a90.4319,90.4319,0,0,0-43.3672-60.2383h0a90.432,90.432,0,0,0-106.36,11.6487L179.2624,585.5557l63.2028,72.0167S358.4217,552.64,387.1877,521.4125Z"/><path d="M432.809,514.5234l36.1919-9.9511,5.0787-1.3964a1.7549,1.7549,0,0,0,1.1984-2.1107,92.129,92.129,0,0,0-145.9851-54.86c-4.4216,3.3755-8.4489,7.2-12.5433,10.954l-18.7334,17.1779-26.87,24.6391-30.3013,27.7853-28.6893,26.3071-22.3683,20.511-11.2477,10.3137-.49.4495a1.7487,1.7487,0,0,0,0,2.4266l21.3947,24.3783,34.0541,38.803,7.754,8.8354a1.7434,1.7434,0,0,0,2.4266,0q2.5647-2.321,5.1242-4.6474,6.9216-6.2857,13.8286-12.5876,9.9846-9.108,19.9423-18.2451,11.8519-10.8759,23.6612-21.7984,12.5007-11.5659,24.9361-23.2024,11.9893-11.2285,23.8784-22.5636,10.1427-9.6909,20.13-19.5435,4.0209-3.9915,7.9773-8.0472,1.6542-1.7033,3.2865-3.4276c.485-.5134,1.019-1.0111,1.4622-1.5611.0635-.0788.3218-.2627.3322-.3588.0283-.2636-.45.3548-.5779.2611.0247.0181.1472-.0344.1778-.0337a12.538,12.538,0,0,0,2.3691-.4481l4.6575-.881,13.06-2.47,23.5144-4.448,1.3709-.2594c2.1674-.41,1.25-3.718-.9123-3.3091L414.04,514.5922,389.1533,519.3c-.7474.1414-1.5337.2288-2.2682.4291-1.0991.3-1.9238,1.5656-2.6865,2.3746-2.3152,2.4558-4.6738,4.8707-7.0489,7.2684-6.1688,6.2273-12.4525,12.3407-18.7672,18.42q-11.5074,11.0775-23.1578,22.005-12.4515,11.7109-24.9893,23.33-12.1434,11.2654-24.34,22.4732-10.5894,9.735-21.2106,19.4353-7.7917,7.1172-15.6,14.2162c-2.48,2.2544-5.1873,4.3964-7.5095,6.8158-.1.1039-.216.1956-.323.2924h2.4266l-21.3947-24.3783L188.23,593.1778l-7.754-8.8354v2.4266l7.6065-6.9749,19.7993-18.1553L235.0564,536.72l29.9415-27.4553,28.1386-25.8022,21.4591-19.6771q5.1126-4.6881,10.2252-9.3763a88.7312,88.7312,0,0,1,142.9,33.0555,91.89,91.89,0,0,1,4.2481,14.5126l1.1984-2.1107-36.1919,9.9511-5.0787,1.3964A1.7173,1.7173,0,0,0,432.809,514.5234Z"/><path class="cls-1" d="M231.0262,640.9858s149.8511-140.7,154.9986-153.2827"/><path d="M232.24,642.1991q2.0241-1.9005,4.0447-3.805,5.4878-5.168,10.9656-10.3467,8.1294-7.6839,16.2409-15.3866,9.9492-9.4477,19.8706-18.9248,10.9942-10.5035,21.9472-21.05,11.1252-10.7166,22.1911-21.4945,10.4813-10.2168,20.8771-20.521,9.0223-8.9591,17.9175-18.0455c4.52-4.6389,9.0145-9.3085,13.3555-14.1161a68.0713,68.0713,0,0,0,7.2721-8.866,9.6183,9.6183,0,0,0,.7576-1.4835,1.728,1.728,0,0,0-1.1984-2.1107,1.7573,1.7573,0,0,0-2.1107,1.1984c.3079-.742.0053-.0472-.1.1436-.1189.2164-.2508.4258-.3847.6331-.3527.5462-.7429,1.0654-1.1313,1.5862-.3013.4038.22-.2725-.1374.1772-.13.163-.2579.3269-.388.4894q-.425.53-.86,1.0527-1.0229,1.2312-2.0808,2.4327c-3.8827,4.4341-7.9521,8.706-12.041,12.9491q-8.4262,8.7441-17.0458,17.3-10.0818,10.067-20.2783,20.0182-10.9825,10.742-22.04,21.407-10.969,10.59-21.9874,21.13-10.2229,9.783-20.4784,19.5319-8.5743,8.1523-17.1686,16.2836-6.1755,5.8428-12.3618,11.6742c-1.9363,1.825-3.938,3.6-5.8216,5.48-.0818.0816-.1687.1585-.253.2376-1.6134,1.5149.8168,3.9381,2.4266,2.4266Z"/><path class="cls-1" d="M211.58,620.9676s156.1717-144.558,171.5852-161.29"/><path d="M212.7932,622.1808q2.1058-1.9493,4.2106-3.9,5.7313-5.31,11.46-10.6234,8.5316-7.9132,17.0575-15.8326,10.5516-9.8007,21.0946-19.611,11.66-10.85,23.3065-21.7131,11.9814-11.1766,23.9449-22.3727,11.4791-10.7451,22.9323-21.5178,10.1532-9.5543,20.2688-19.1484,8.0328-7.6273,16.0075-15.3159c3.3534-3.2451,6.7152-6.4884,9.9616-9.8413.4519-.4668.9008-.9364,1.3413-1.414,1.4953-1.6214-.9255-4.0543-2.4266-2.4266-2.6552,2.879-5.4917,5.5984-8.2939,8.3324q-7.2712,7.0941-14.6456,14.0821-9.6547,9.1974-19.3645,18.3369-11.2459,10.6011-22.5266,21.1655-11.9146,11.1648-23.8519,22.3052Q281.4714,553.7,269.658,564.6969q-10.8548,10.1061-21.72,20.2013-9.0853,8.4423-18.1771,16.8778-6.51,6.04-13.0231,12.0762c-2.0324,1.8834-4.132,3.7155-6.1082,5.6583-.0852.0837-.1756.1626-.2633.2438-1.6242,1.5034.807,3.9257,2.4266,2.4265Z"/><line class="cls-1" x1="359.1432" y1="451.0982" x2="194.4214" y2="601.5212"/><path d="M357.93,449.8849l-4.4215,4.0376-11.9722,10.9331L323.843,481.0129l-21.6722,19.7909-23.65,21.597L254.557,544.2845l-22.2591,20.3269-18.88,17.2409-13.5206,12.347c-2.1339,1.9487-4.3345,3.8454-6.4116,5.855-.09.0871-.1852.1692-.2777.2536-1.6344,1.4925.7978,3.914,2.4266,2.4266l4.4214-4.0376,11.9723-10.933,17.6931-16.1573,21.6722-19.7909,23.65-21.597,23.9638-21.8837,22.2592-20.3269,18.88-17.241L353.6671,458.42c2.134-1.9487,4.3345-3.8454,6.4116-5.8551.09-.087.1853-.1691.2777-.2536,1.6344-1.4925-.7978-3.9139-2.4265-2.4266Z"/><path class="cls-1" d="M174.9744,691.884,88.8231,597.2727a35.9473,35.9473,0,0,1,11.7847-7.3219l59.6367,65.4931a13.3644,13.3644,0,0,0,13.9441,3.7341h0a13.3644,13.3644,0,0,1,13.944,3.734l8.5215,9.3583Z"/><path d="M176.1877,690.6708l-8.5755-9.4176L147.0208,658.64l-24.9049-27.35L100.6,607.6606l-7.0439-7.7357a49.1951,49.1951,0,0,0-3.3723-3.7034,2.1644,2.1644,0,0,1-.1476-.1621v2.4265a32.1946,32.1946,0,0,1,11.0275-6.88l-1.6694-.4413,9.5717,10.5117,20.9192,22.9735,20.5114,22.5256,6.53,7.1711a31.4393,31.4393,0,0,0,4.2618,4.2321,15.167,15.167,0,0,0,11.9881,2.6329c1.9892-.3964,3.7361-1.0471,5.8126-.93a11.7163,11.7163,0,0,1,5.7071,1.9222,24.9928,24.9928,0,0,1,4.4577,4.3757l5.1986,5.7091,1.0883,1.1952V671.057l-18.9579,17.1513-2.7218,2.4625c-1.6412,1.4848.7916,3.9057,2.4266,2.4265l18.9579-17.1513,2.7218-2.4624a1.7445,1.7445,0,0,0,0-2.4266q-4.1124-4.5161-8.2247-9.0323a15.1077,15.1077,0,0,0-14.8109-4.8013,18.0719,18.0719,0,0,1-5.8116.8256c-3.6846-.3188-6.3341-2.4695-8.6935-5.06l-5.5741-6.1215L135.08,625.2621l-21.5041-23.6157C109.73,597.4229,106.0237,592.99,102,588.9339c-.0622-.0627-.1194-.1311-.1788-.1964a1.67,1.67,0,0,0-1.6695-.4412A36.3182,36.3182,0,0,0,87.61,596.0594a1.7521,1.7521,0,0,0,0,2.4265l8.5755,9.4176,20.5914,22.6135,24.9048,27.35,21.5157,23.6286c3.4573,3.7967,6.7777,7.8132,10.4162,11.4391.0516.0514.0986.1083.1477.1621C175.2512,694.7338,177.6725,692.3014,176.1877,690.6708Z"/><path d="M158.3689,608.9135c.0227.088.0405.1774.0579.2666.0189.0965.0344.1936.0509.29.0834.4907-.04-.4015,0-.0064a12.6413,12.6413,0,0,1,.0238,2.4341c-.005.0545-.0669.2809-.0353.3308q.0564-.403.015-.1166-.0175.1157-.0374.2309-.0618.3578-.1465.7111-.1043.4335-.2438.8574-.0621.1883-.1312.3741-.0468.126-.097.2509.13-.3.0123-.0319a11.5,11.5,0,0,1-.926,1.64q-.0874.1262-.1786.25.1434-.1792.03-.0371-.1748.22-.3613.43c-.2612.2938-.5393.5706-.828.8374a1.73,1.73,0,0,0,0,2.4266,1.7529,1.7529,0,0,0,2.4266,0,12.6224,12.6224,0,0,0,3.6782-12.05,1.7163,1.7163,0,1,0-3.3091.9123Z"/><path d="M149.32,605.7306c.0227.0881.0405.1775.058.2667.0188.0965.0343.1935.0508.29.0834.4907-.04-.4016,0-.0064a12.6494,12.6494,0,0,1,.0238,2.4341c-.0051.0544-.0669.2808-.0354.3307q.0564-.403.015-.1165-.0174.1155-.0373.2308-.0618.3578-.1465.7111-.1043.4335-.2438.8575-.0621.1882-.1312.374-.0469.1261-.0971.2509.13-.3.0124-.0319a11.5041,11.5041,0,0,1-.926,1.64q-.0875.1263-.1787.25.1434-.1793.03-.0371-.1747.22-.3613.43c-.2613.2938-.5394.5706-.828.8374a1.73,1.73,0,0,0,0,2.4266,1.7529,1.7529,0,0,0,2.4266,0,12.6224,12.6224,0,0,0,3.6781-12.05,1.7163,1.7163,0,0,0-3.3091.9123Z"/><path class="cls-1" d="M444.3638,747.3686H361.431v-74.64a41.4663,41.4663,0,0,1,41.4663-41.4663h0a41.4663,41.4663,0,0,1,41.4664,41.4663Z"/><path d="M444.3638,745.6528H361.431l1.7158,1.7158V678.235q0-2.674,0-5.3482a39.7593,39.7593,0,0,1,79.0468-6.2592,51.5159,51.5159,0,0,1,.4543,8.12v72.6211a1.7169,1.7169,0,0,0,3.4317,0V677.3019c0-1.5183.005-3.0368,0-4.5551a43.1884,43.1884,0,0,0-85.3468-9.3694,50.2958,50.2958,0,0,0-1.0177,10.7949v73.1963a1.7408,1.7408,0,0,0,1.7159,1.7159h82.9328A1.7169,1.7169,0,0,0,444.3638,745.6528Z"/><path d="M401.1815,631.2627V733.0409c0,4.6953-.1807,9.4311,0,14.1239.0026.0677,0,.136,0,.2038a1.7169,1.7169,0,0,0,3.4317,0V645.59c0-4.6953.1808-9.4311,0-14.1239-.0026-.0677,0-.136,0-.2038a1.7169,1.7169,0,0,0-3.4317,0Z"/><line class="cls-1" x1="361.431" y1="668.4395" x2="444.3638" y2="668.4395"/><path d="M361.431,670.1553h82.9328a1.7169,1.7169,0,0,0,0-3.4317H361.431a1.7169,1.7169,0,0,0,0,3.4317Z"/><line class="cls-1" x1="361.431" y1="711.9077" x2="444.3638" y2="711.9077"/><path d="M361.431,713.6235h82.9328a1.7169,1.7169,0,0,0,0-3.4317H361.431a1.7169,1.7169,0,0,0,0,3.4317Z"/><path d="M141.3178,599.8374c.0227.088.0405.1775.0579.2667.0189.0965.0344.1935.0509.29.0834.4907-.04-.4016,0-.0064a12.6494,12.6494,0,0,1,.0237,2.4341c-.005.0544-.0669.2808-.0353.3307q.0564-.403.015-.1166-.0174.1157-.0374.2309-.0617.3578-.1465.7111-.1041.4335-.2437.8575-.0621.1882-.1312.374-.047.1262-.0971.2509.13-.3.0124-.0319a11.5041,11.5041,0,0,1-.926,1.64q-.0875.1262-.1787.25.1434-.1793.03-.0371-.1747.22-.3612.43c-.2613.2938-.5394.5706-.828.8374a1.73,1.73,0,0,0,0,2.4266,1.7529,1.7529,0,0,0,2.4266,0,12.6227,12.6227,0,0,0,3.6781-12.05,1.7163,1.7163,0,1,0-3.3091.9123Z"/><path d="M634.405,320.0251a37.8233,37.8233,0,0,1,2.3917-3.6626c.173-.2372.3532-.4691.5271-.7057-.2821.3837.0049-.0052.08-.0995q.1783-.2253.3607-.4473c.4179-.5085.8519-1.004,1.3078-1.4789a16.9859,16.9859,0,0,1,1.3575-1.278c.0957-.08.5332-.3919.1175-.1023.115-.08.2252-.1675.34-.2476a8.4968,8.4968,0,0,1,.7273-.4563c.1267-.07.256-.1344.3856-.199.4052-.2019-.31.0912.1033-.0407.1415-.0451.281-.0933.4253-.1292.0834-.0208.5312-.0957.1941-.05s.1039,0,.19-.0005c.0553,0,.1106.0036.1657.003.3471-.0037-.0468.0469-.1277-.0281a1.5283,1.5283,0,0,0,.4044.0945c.404.1-.323-.1709.0649.0226a1.7588,1.7588,0,0,0,2.3477-.6156,1.7324,1.7324,0,0,0-.6156-2.3476c-2.8294-1.4112-5.6473.25-7.7332,2.1854a32.3757,32.3757,0,0,0-5.04,6.3164c-.3235.5041-.6423,1.013-.937,1.5347a1.7161,1.7161,0,1,0,2.9632,1.732Z"/><circle cx="587.7594" cy="299.8555" r="2.5505"/><path d="M589.398,300.279c-.0188.0674-.041.1332-.0616.2-.0461.1495-.0038.017.01-.0136a2.67,2.67,0,0,1-.1757.3265c-.03.047-.0618.0922-.0938.1377.1078-.1533.0221-.0312-.0112.0065-.08.0909-.1691.17-.2574.253-.1553.1453.1474-.0859-.0337.025-.0371.0227-.0724.0485-.1094.0713q-.0834.0514-.17.0964c-.0074.0037-.2018.0928-.0753.039s-.073.0243-.0808.027q-.0779.0259-.1573.0468c-.053.0141-.1073.0234-.16.0372-.1889.0491.1463-.0021-.0342.0067-.1121.0055-.2228.0126-.3351.0078-.0408-.0018-.2645-.0306-.0435.0043-.0571-.0091-.1138-.0195-.17-.032-.1144-.0253-.2223-.0668-.3347-.0981-.1264-.0352.1728.0938-.0158-.0065-.06-.0318-.12-.0607-.179-.0948s-.1129-.0713-.1692-.1076c-.13-.0834-.009-.0057.0146.0145a2.994,2.994,0,0,1-.263-.2482c-.037-.04-.0721-.0818-.1071-.1238.1222.1463.0248.0329-.0014-.01-.062-.103-.1208-.2058-.1787-.3111-.1027-.187.0479.1683-.0152-.0359-.0161-.0521-.0355-.1032-.0508-.1557s-.0293-.1056-.0412-.1591c-.0021-.01-.0475-.2222-.0195-.0811.0275.1386-.0051-.0713-.0059-.0842-.0035-.0558-.005-.1116-.0048-.1674s.0056-.1126.0059-.1689c.0012-.1959-.0359.1343.0032-.0438a3.4742,3.4742,0,0,1,.0958-.3716c.0157-.0465.079-.19.0009-.0193.0235-.0516.048-.1024.0745-.1524.0526-.0994.1165-.19.1758-.2848.068-.1091-.1354.1424.0086-.0088.0454-.0477.0878-.0981.1345-.1446s.0967-.0884.1447-.1332c.1461-.1362-.1007.0439.0071-.0061.0958-.0443.1833-.121.2777-.1712.0481-.0256.0973-.0485.1463-.0722-.1752.0846-.0432.0168.0077.0017.1266-.0378.2534-.0672.3809-.1008s-.2109.0094.0018-.0008c.0557-.0027.111-.0079.1668-.0092s.1122-.001.1683.0015c.0071,0,.23.0125.09.0026-.1388-.01.08.0155.09.0175.0572.0118.1138.0258.17.0415s.1105.0362.1663.0522c.1635.0469-.1177-.0638.0786.0335.1112.0551.2128.1222.3179.1873.1841.1141-.1229-.1176.0359.028.0487.0446.0979.0876.1446.1345s.0884.0966.1332.1447c.1185.1272-.0737-.1272.0249.0337.0689.1123.1337.2228.1969.3382.0967.1768-.02-.1135.0037.0053.0146.0727.0516.1457.0716.2179q.0175.0633.032.1276t.0254.13q-.021-.1785-.0051-.0308c.0063.1352.0048.2677.0039.4028,0,.0431-.0238.1655.0081-.0242-.0154.0918-.0339.1821-.0565.2725a.8582.8582,0,0,0,1.6546.4561,3.47,3.47,0,0,0-1.38-3.6981,3.4056,3.4056,0,0,0-3.8478.016,3.4069,3.4069,0,1,0,5.2279,3.6821.8582.8582,0,0,0-1.6546-.4561Z"/><circle cx="610.9843" cy="305.9919" r="2.5505"/><path d="M612.6229,306.4153c-.0188.0675-.041.1333-.0616.2-.046.1495-.0038.017.01-.0136a2.6794,2.6794,0,0,1-.1758.3266c-.03.0469-.0618.0921-.0938.1376.1078-.1533.0221-.0311-.0111.0065-.08.0909-.1691.1705-.2574.2531-.1553.1452.1473-.0859-.0338.0249-.037.0227-.0723.0485-.1093.0714q-.0834.0513-.1705.0963c-.0073.0038-.2017.0929-.0753.0391s-.0729.0243-.0808.0269c-.0519.0174-.1043.0328-.1572.0469s-.1073.0233-.16.0371c-.1889.0491.1464-.002-.0342.0068-.112.0054-.2228.0126-.3351.0077-.0408-.0017-.2644-.0306-.0434.0043-.0572-.009-.1139-.0195-.17-.032-.1145-.0253-.2224-.0668-.3347-.0981-.1264-.0352.1728.0938-.0158-.0065-.06-.0317-.1206-.0607-.179-.0947s-.1129-.0714-.1693-.1076c-.13-.0835-.009-.0057.0147.0144a2.9952,2.9952,0,0,1-.2631-.2482c-.037-.04-.072-.0818-.1071-.1237.1223.1462.0248.0328-.0013-.0106-.062-.1029-.1208-.2058-.1787-.3111-.1027-.1869.0478.1683-.0152-.0358-.0162-.0522-.0355-.1033-.0509-.1558s-.0292-.1056-.0412-.1591c-.0021-.0094-.0475-.2222-.0194-.0811.0275.1387-.0052-.0713-.006-.0841-.0035-.0558-.0049-.1116-.0048-.1675s.0057-.1126.006-.1688c.0011-.196-.0359.1342.0031-.0439a3.4742,3.4742,0,0,1,.0958-.3716c.0157-.0465.079-.19.001-.0193.0235-.0515.048-.1023.0745-.1524.0526-.0994.1164-.19.1757-.2847.068-.1091-.1353.1423.0087-.0089.0454-.0477.0877-.0981.1345-.1446s.0966-.0884.1447-.1331c.1461-.1363-.1008.0438.0071-.0061.0957-.0444.1832-.121.2776-.1712.0482-.0257.0973-.0486.1464-.0723-.1753.0847-.0432.0169.0076.0017.1267-.0378.2535-.0672.381-.1007s-.2109.0094.0017-.0009c.0557-.0026.111-.0078.1668-.0091s.1122-.001.1683.0014c.0072,0,.23.0126.0895.0026-.1388-.01.0806.0155.09.0175.0572.0119.1138.0259.17.0416s.1105.0361.1663.0521c.1634.047-.1177-.0637.0785.0335.1112.0551.2128.1222.3179.1873.1841.1142-.1229-.1176.036.028.0487.0446.0978.0877.1445.1345s.0885.0966.1332.1447c.1186.1273-.0737-.1272.025.0338.0688.1122.1337.2227.1968.3382.0967.1767-.02-.1136.0037.0052.0147.0728.0516.1458.0716.2179.0117.0422.0225.0848.032.1276s.0181.0861.0254.13q-.0208-.1783-.0051-.0307c.0063.1351.0049.2676.004.4027,0,.0431-.0238.1655.0081-.0242-.0155.0919-.034.1821-.0566.2725a.8582.8582,0,1,0,1.6546.4561,3.4691,3.4691,0,0,0-1.38-3.698,3.4054,3.4054,0,0,0-3.8477.0159,3.4069,3.4069,0,1,0,5.2278,3.6821.8582.8582,0,0,0-1.6546-.4561Z"/><path class="cls-6" d="M384.6411,687.9152,352.3047,775.356,232.1475,731.361s10.4211-34.7938,56.477-22.0816a17.1389,17.1389,0,0,0,20.7514-10.7429c3.79-10.68,7.4094-21.0305,7.4094-21.0305"/><path d="M382.9865,687.459l-3.2256,8.7224L372.06,717.0068l-9.358,25.3049-8.0566,21.786-2.68,7.2474a30.7269,30.7269,0,0,0-1.259,3.4046,1.3711,1.3711,0,0,1-.0556.15l2.1107-1.1985-11.96-4.3792-28.7193-10.5154-34.7354-12.7182-30.0085-10.9875-9.8243-3.5971c-1.5393-.5636-3.1131-1.3148-4.7033-1.7221-.07-.0179-.1383-.0506-.206-.0754l1.1984,2.1107c.1824-.6062.4259-1.1943.665-1.7795-.25.612.174-.39.2652-.5892q.2482-.5418.5152-1.0748.6394-1.2785,1.3754-2.5055a35.6078,35.6078,0,0,1,10.6534-11.3268,39.846,39.846,0,0,1,22.0338-6.3381,66.5887,66.5887,0,0,1,16.5011,2.1134c2.8958.7165,5.6779,1.4832,8.6984,1.258a19.3214,19.3214,0,0,0,7.7779-2.2634,18.9159,18.9159,0,0,0,6.6864-6.1441c2.1124-3.1692,3.09-7.0847,4.3458-10.6416q2.57-7.2782,5.12-14.5634c.7305-2.0889-2.5836-2.987-3.3091-.9123q-2.09,5.9768-4.1972,11.9475a107.087,107.087,0,0,1-3.72,10.3177,15.3473,15.3473,0,0,1-5.0843,6.0693,15.5944,15.5944,0,0,1-7.2792,2.73c-2.9878.2921-5.6426-.5051-8.5131-1.2015A70.6918,70.6918,0,0,0,269.771,704.77a43.7213,43.7213,0,0,0-23.2762,6.1917,39.4579,39.4579,0,0,0-12.1549,12.08,31.8429,31.8429,0,0,0-3.847,7.8631,1.7549,1.7549,0,0,0,1.1984,2.1107l11.96,4.3792L272.3711,747.91l34.7353,12.7182,30.0085,10.9874,9.8243,3.5971c1.5575.57,3.1137,1.246,4.7034,1.7222.07.0208.1376.05.2059.0754a1.7482,1.7482,0,0,0,2.1107-1.1985l3.2257-8.7223,7.7014-20.8254,9.358-25.3049,8.0566-21.786,2.68-7.2474c.4155-1.1238.9264-2.2525,1.259-3.4046.0147-.0508.0372-.1.0556-.15.767-2.0743-2.5485-2.9693-3.3092-.9123Z"/><path class="cls-1" d="M575.7631,526.0238,528.937,468.3865A90.4318,90.4318,0,0,0,462.6143,435.06h0a90.4318,90.4318,0,0,0-88.8916,59.5524L306.8943,679.1168l95.7171,32.7909s47.864-144.889,58.9109-185.8839Z"/><path d="M576.9764,524.8105l-21.5846-26.5681L530.5537,467.67a92.1478,92.1478,0,0,0-131.3155-12.6083,91.7552,91.7552,0,0,0-22.7364,28.7943,113.1745,113.1745,0,0,0-5.1954,12.4031l-9.0516,24.99-15.661,43.238L328.8,613.6152,313.6446,655.456l-8.0409,22.2-.3639,1.0048a1.7442,1.7442,0,0,0,1.1984,2.1107l9.49,3.2512,22.9267,7.8543,27.6128,9.46,23.8775,8.18c3.85,1.319,7.7089,2.9189,11.6386,3.9872.0578.0157.1144.0391.1711.0586a1.7442,1.7442,0,0,0,2.1107-1.1985q2.4451-7.4017,4.8734-14.8091,6.0178-18.3289,11.9854-36.6744,7.7494-23.8233,15.3977-47.6794,7.5924-23.7114,14.9981-47.4824c3.7161-11.99,7.423-23.9919,10.7914-36.0856q.4386-1.5748.8649-3.153l-1.6546,1.26h100.12c4.6261,0,9.3.194,13.9227,0,.0658-.0028.1322,0,.198,0a1.7169,1.7169,0,0,0,0-3.4317H475.643c-4.626,0-9.2995-.194-13.9227,0-.0657.0028-.1321,0-.198,0a1.7483,1.7483,0,0,0-1.6545,1.26c-3.0935,11.4688-6.5978,22.83-10.0937,34.1813q-7.1857,23.3317-14.6535,46.5756-7.71,24.1439-15.55,48.2457-6.2831,19.3436-12.623,38.6685-2.0079,6.121-4.0218,12.24a55.3739,55.3739,0,0,0-1.8859,5.7221,2.3946,2.3946,0,0,1-.0828.2507l2.1107-1.1985-9.49-3.2512L370.65,699.1476l-27.6128-9.46-23.8775-8.18-7.8808-2.7a31.3411,31.3411,0,0,0-3.7578-1.2874,1.4253,1.4253,0,0,1-.171-.0585l1.1984,2.1107,5.5767-15.3968L327.86,626.2588l17.3024-47.77,16.58-45.7755,11.2389-31.0293q1.1393-3.1453,2.2785-6.2906a90.1339,90.1339,0,0,1,12.8917-23.7414,88.72,88.72,0,0,1,133.7838-8.5179c3.5819,3.6336,6.7337,7.6286,9.9455,11.582l13.641,16.79,27.3375,33.6489,1.691,2.0814C575.9429,528.9517,578.3579,526.5108,576.9764,524.8105Z"/><path class="cls-1" d="M352.3048,775.356,232.1474,731.361a35.9491,35.9491,0,0,1,7.0578-11.9447l83.1769,30.4548a13.3643,13.3643,0,0,0,14.0889-3.1436h0a13.3643,13.3643,0,0,1,14.0889-3.1436l11.8851,4.3516Z"/><path d="M352.7609,773.7015l-11.96-4.3793-28.7194-10.5154-34.7354-12.7182-30.0085-10.9875-9.8243-3.5971c-1.5393-.5636-3.1131-1.3148-4.7034-1.7221-.07-.0179-.1382-.0507-.206-.0754l1.1985,2.1107a32.2427,32.2427,0,0,1,6.6165-11.1876l-1.6694.4413,13.2613,4.8555,29.0306,10.63,28.6709,10.4977,9.1842,3.3627a32.5361,32.5361,0,0,0,5.27,1.7155,15.2559,15.2559,0,0,0,12.21-3.0344c1.6314-1.29,2.9224-2.7545,4.87-3.623a11.7671,11.7671,0,0,1,5.938-.9342,26.1708,26.1708,0,0,1,6.14,1.8777l7.2256,2.6456,1.4383.5266-1.1984-2.1107-8.8672,23.978L350.65,774.9c-.767,2.0743,2.5485,2.9693,3.3092.9123l8.8671-23.978,1.2731-3.4425a1.7474,1.7474,0,0,0-1.1984-2.1107q-5.7356-2.1-11.4712-4.2a15.0669,15.0669,0,0,0-15.6072,2.8952,14.7477,14.7477,0,0,1-4.7655,3.26,12.0316,12.0316,0,0,1-8.3243-.0586c-.5275-.19-1.053-.3855-1.5794-.5783l-7.8227-2.8642-27.5162-10.0749L255.96,723.73l-10.7327-3.93c-1.7675-.6472-3.53-1.4014-5.3309-1.9519-.0795-.0243-.1571-.0575-.2353-.0861a1.67,1.67,0,0,0-1.6694.4412,36.366,36.366,0,0,0-7.4991,12.7019,1.7545,1.7545,0,0,0,1.1985,2.1107l11.96,4.3792L272.3711,747.91l34.7354,12.7182,30.0085,10.9874,9.8243,3.5972c1.5575.57,3.1137,1.2459,4.7034,1.7221.07.0208.1376.05.206.0754C353.9257,777.7711,354.8212,774.4559,352.7609,773.7015Z"/><path d="M299.2261,709.5355c.061.0677.1157.14.1748.21.1974.231-.3159-.4371-.0557-.0686.0766.1085.1547.2157.2292.3258.2013.2976.3881.6051.5611.92q.162.2949.3075.5984c.048.1.0927.2017.14.3023.1446.31-.126-.3377.0075.0178a13.3846,13.3846,0,0,1,.4674,1.4411c.0725.289.1273.58.1812.8724q.0177.1046.0327.21-.0387-.2937-.0163-.1c.0112.171.0334.3414.0436.5126a9.8752,9.8752,0,0,1-.06,1.8711c.0456-.3465-.029.1333-.0423.203q-.0483.2538-.1089.5049a11.8748,11.8748,0,0,1-.3673,1.2105,1.726,1.726,0,0,0,1.1985,2.1107,1.76,1.76,0,0,0,2.1107-1.1984,12.6045,12.6045,0,0,0-2.3766-12.37,1.7277,1.7277,0,0,0-2.4266,0,1.7552,1.7552,0,0,0,0,2.4266Z"/><path d="M289.7317,710.9021c.061.0677.1157.14.1748.21.1974.231-.3159-.4371-.0557-.0686.0765.1085.1547.2158.2291.3258q.3019.4466.5612.92.162.2948.3075.5983c.0479.1.0927.2018.14.3024.1447.31-.126-.3378.0075.0177a13.3624,13.3624,0,0,1,.4674,1.4411c.0726.289.1273.58.1813.8724q.0177.1047.0326.21-.0385-.2937-.0162-.1c.0112.171.0334.3413.0436.5126a9.8827,9.8827,0,0,1-.06,1.871c.0456-.3465-.0291.1333-.0423.203q-.0483.2538-.109.5049a11.8837,11.8837,0,0,1-.3672,1.2106,1.7259,1.7259,0,0,0,1.1984,2.1107,1.76,1.76,0,0,0,2.1107-1.1985,12.6044,12.6044,0,0,0-2.3765-12.37,1.7277,1.7277,0,0,0-2.4266,0,1.7551,1.7551,0,0,0,0,2.4266Z"/><path d="M279.9106,709.3817c.061.0677.1157.14.1748.21.1974.231-.3159-.4371-.0557-.0685.0766.1084.1547.2157.2291.3257q.3019.4466.5612.92.162.2948.3075.5984c.048.1.0927.2017.14.3023.1446.31-.1261-.3378.0074.0177a13.3624,13.3624,0,0,1,.4674,1.4411c.0726.289.1273.58.1813.8725q.0177.1046.0327.21-.0387-.2938-.0163-.1c.0112.171.0334.3413.0436.5126a9.8825,9.8825,0,0,1-.06,1.871c.0456-.3464-.0291.1333-.0423.203q-.0483.2538-.1089.5049a11.91,11.91,0,0,1-.3673,1.2106,1.7259,1.7259,0,0,0,1.1984,2.1107,1.76,1.76,0,0,0,2.1107-1.1985,12.6042,12.6042,0,0,0-2.3765-12.37,1.7276,1.7276,0,0,0-2.4266,0,1.755,1.755,0,0,0,0,2.4265Z"/><polyline points="461.522 526.024 469.53 496.282 476.882 525.453 461.522 525.453"/><path d="M463.1769,526.48l7.0017-26.0066,1.0056-3.7348h-3.3091l6.4342,25.5264.9186,3.6443,1.6545-2.172h-15.36a1.7169,1.7169,0,0,0,0,3.4317h15.36a1.7355,1.7355,0,0,0,1.6546-2.172l-6.4342-25.5264-.9186-3.6443a1.73,1.73,0,0,0-3.3091,0l-7.0018,26.0065-1.0055,3.7349a1.7173,1.7173,0,0,0,3.3091.9123Z"/><path class="cls-1" d="M612.3553,212.2428,500.7875,443.04a40.5974,40.5974,0,0,1-36.5509,22.9286H53.7215L184.4974,195.4363H620.48"/><path d="M610.8737,211.3768l-18.9818,39.2671-40.62,84.029-38.71,80.0778-10.9917,22.7382c-.7145,1.4782-1.42,2.9613-2.1438,4.4348a39.78,39.78,0,0,1-17.9821,18.3186c-6.9707,3.467-14.2761,4.0108-21.8268,4.0108H53.7215l1.4816,2.5819,13.0224-26.939,31.267-64.6814L137.1857,297.24,169.88,229.6059l10.7464-22.2307,3.3708-6.9732a18.6483,18.6483,0,0,0,1.7618-3.6446,2.3174,2.3174,0,0,1,.22-.4551l-1.4816.85h418.289c5.6474,0,11.3159.1425,16.962,0,.2434-.0062.4877,0,.7312,0a1.7169,1.7169,0,0,0,0-3.4317H202.1907c-5.6474,0-11.316-.1426-16.9621,0-.2434.0061-.4877,0-.7312,0a1.6949,1.6949,0,0,0-1.4816.85l-13.0223,26.9389-31.2671,64.6814-37.6932,77.9749L68.3389,431.7993,57.5926,454.03c-1.7023,3.5215-3.6164,7.0107-5.1327,10.6179-.065.1546-.1469.3039-.22.455a1.7368,1.7368,0,0,0,1.4816,2.5819H429.3433c11.531,0,23.0643.0673,34.5953,0a42.93,42.93,0,0,0,38.4338-23.9922c2.2183-4.5145,4.3788-9.0583,6.568-13.587L543.3,359.0277l42.6655-88.261,26.5863-54.9983,1.2856-2.66c.957-1.98-2.0012-3.7219-2.9632-1.732Z"/><polygon class="cls-7" points="461.106 465.969 25.124 465.969 155.9 195.436 591.882 195.436 461.106 465.969"/><path d="M461.1062,464.2531H31.7178a41.1009,41.1009,0,0,0-5.8626,0,5.1276,5.1276,0,0,1-.7312,0l1.4816,2.5819,13.0223-26.939L70.895,375.2146,108.5882,297.24l32.6943-67.6338,10.7463-22.2307L155.4,200.402a18.66,18.66,0,0,0,1.7618-3.6446,2.3117,2.3117,0,0,1,.22-.4551l-1.4816.85H585.2883a41.1156,41.1156,0,0,0,5.8626,0,5.113,5.113,0,0,1,.7312,0l-1.4816-2.5819-13.0223,26.9389-31.2671,64.6814-37.6932,77.9749-32.6943,67.6338c-5.2774,10.9173-11.0443,21.725-15.879,32.8486-.067.1541-.1468.3037-.22.455-.957,1.98,2.0013,3.722,2.9632,1.7321L475.61,439.896l31.2671-64.6814L544.57,297.24l32.6943-67.6338,10.7463-22.2307c1.7023-3.5215,3.6164-7.0106,5.1327-10.6178.065-.1547.1469-.3039.22-.4551a1.7368,1.7368,0,0,0-1.4816-2.5818H173.5931c-5.6474,0-11.3159-.1426-16.962,0-.2434.0061-.4877,0-.7312,0a1.6947,1.6947,0,0,0-1.4816.85L141.396,221.5092l-31.2671,64.6814L72.4357,364.1655,39.7414,431.7993,28.9951,454.03c-1.7023,3.5215-3.6164,7.0107-5.1327,10.6179-.065.1546-.1469.3039-.22.455a1.7368,1.7368,0,0,0,1.4816,2.5819H443.413c5.6474,0,11.3159.1425,16.962,0,.2434-.0062.4877,0,.7312,0A1.7169,1.7169,0,0,0,461.1062,464.2531Z"/><path d="M356.232,695.8615l2.5918-6.9977,6.8473-18.4874,9.7107-26.2183L386.52,614.0846l11.2633-30.41,9.9556-26.88,7.235-19.5343c1.0606-2.8635,2.1134-5.73,3.1818-8.5906A40.0323,40.0323,0,0,1,488.73,520.003a68.5122,68.5122,0,0,1,3.9115,6.8868l1.4816-2.5819-16.3778.2735q-8.9007.1487-17.8013.2972a23.1189,23.1189,0,0,0-14.5422,5.2756,22.0466,22.0466,0,0,0-5.4372,6.7276,39.6624,39.6624,0,0,0-2.4433,6.552c-2.4957,7.9091-5.0693,15.7935-7.6674,23.6694q-4.6274,14.0277-9.3572,28.0215-5.025,14.9034-10.1138,29.7853-4.8711,14.2593-9.7817,28.5052-4.2458,12.3219-8.5151,24.6355-3.1381,9.0516-6.2887,18.0986c-.9978,2.8648-2.16,5.7217-3.0118,8.6343-.0371.1271-.0878.2515-.1316.3765l2.1107-1.1984-19.142-6.574-30.4976-10.474-6.9835-2.3983,1.1984,2.1107,4.0075-11.3672,10.0836-28.6021L356.88,608.5092l14.0155-39.7549,11.777-33.4054,6.8474-19.4226a71.1321,71.1321,0,0,1,20.6952-30.7917A68.7865,68.7865,0,0,1,496.4,482.6525a81.8754,81.8754,0,0,1,13.96,14.0583L533.3,524.8633l1.9344,2.3737c1.3956,1.7128,3.8108-.7278,2.4265-2.4265l-20.248-24.8481c-2.5454-3.1236-5.0412-6.2967-7.652-9.3665a72.1893,72.1893,0,0,0-122.8944,22.5584c-1.6414,4.6-3.2481,9.213-4.872,13.8194l-10.7618,30.5257L357.4316,596.647l-13.9909,39.6849-11.33,32.138-5.8193,16.5064-.26.7375a1.7453,1.7453,0,0,0,1.1984,2.1107l19.142,6.574,30.4977,10.4739,6.9834,2.3984a1.7471,1.7471,0,0,0,2.1107-1.1984q3.7892-10.8324,7.547-21.6756,8.7354-25.1635,17.3722-50.3611,9.8885-28.8675,19.5606-57.8089,4.161-12.5122,8.2142-25.06c1.1894-3.7011,2.117-7.6271,3.6285-11.2091a19.1977,19.1977,0,0,1,11.8158-10.7553,28.1071,28.1071,0,0,1,8.1254-.93l9.8451-.1644,20.7648-.3467,1.2864-.0215a1.7354,1.7354,0,0,0,1.4816-2.5819,65.8661,65.8661,0,0,0-4.2244-7.34,43.3223,43.3223,0,0,0-8.2931-8.9375,43.4645,43.4645,0,0,0-63.1626,9.0321c-3.0234,4.3508-4.8295,9.1737-6.6462,14.0788l-6.151,16.6074-9.3167,25.1546L386.636,603.9254,375.16,634.9092l-10.3754,28.0131-7.8576,21.2153c-1.2776,3.4493-2.642,6.88-3.8367,10.3587-.0522.1522-.1119.3021-.1677.453-.7681,2.0738,2.5474,2.9688,3.3091.9122Z"/><path d="M51.24,415.8336c13.2222,14.8,37.3393,14.8,50.5616,0H99.3753c13.2222,14.8,37.3393,14.8,50.5615,0H147.51c13.2221,14.8,37.3392,14.8,50.5615,0h-2.4266c13.2222,14.8,37.3393,14.8,50.5615,0H243.78c13.2221,14.8,37.3393,14.8,50.5615,0h-2.4266c13.2222,14.8,37.3393,14.8,50.5616,0H340.05c13.2221,14.8,37.3393,14.8,50.5615,0H388.185c13.2222,14.8,37.3393,14.8,50.5616,0H436.32c13.2222,14.8,37.3393,14.8,50.5615,0,1.4675-1.6425-.9515-4.0777-2.4265-2.4266a30.9,30.9,0,0,1-45.7084,0,1.7275,1.7275,0,0,0-2.4266,0,30.9,30.9,0,0,1-45.7084,0,1.7275,1.7275,0,0,0-2.4266,0,30.8994,30.8994,0,0,1-45.7083,0,1.7275,1.7275,0,0,0-2.4266,0,30.9,30.9,0,0,1-45.7084,0,1.7275,1.7275,0,0,0-2.4266,0,30.9,30.9,0,0,1-45.7084,0,1.7273,1.7273,0,0,0-2.4265,0,30.9,30.9,0,0,1-45.7084,0,1.7275,1.7275,0,0,0-2.4266,0,30.9,30.9,0,0,1-45.7084,0,1.7273,1.7273,0,0,0-2.4265,0,30.9,30.9,0,0,1-45.7084,0,1.7275,1.7275,0,0,0-2.4266,0,30.9,30.9,0,0,1-45.7084,0c-1.4744-1.65-3.8946.7834-2.4266,2.4266Z"/><path class="cls-7" d="M37.0127,441.3751,25,467.24a32.3365,32.3365,0,0,0,48.135,0,32.3364,32.3364,0,0,0,48.1349,0,32.3365,32.3365,0,0,0,48.135,0,32.3364,32.3364,0,0,0,48.1349,0,32.3365,32.3365,0,0,0,48.135,0,32.3364,32.3364,0,0,0,48.1349,0,32.3365,32.3365,0,0,0,48.135,0,32.3365,32.3365,0,0,0,48.135,0,31.8816,31.8816,0,0,0,24.0674,10.74c9.6783,0,20.4922-4.3058,26.2313-10.8671l11.9885-24.4385"/><path d="M35.5311,440.509,23.5184,466.3737a1.8,1.8,0,0,0,.2683,2.0794c13.2282,14.7985,37.3334,14.7985,50.5615,0H71.9217c13.2281,14.7985,37.3333,14.7985,50.5615,0h-2.4266c13.2282,14.7985,37.3334,14.7985,50.5616,0h-2.4266c13.2281,14.7985,37.3333,14.7985,50.5615,0h-2.4266c13.2282,14.7985,37.3334,14.7985,50.5616,0h-2.4266c13.2281,14.7985,37.3334,14.7985,50.5615,0h-2.4265c13.2281,14.7985,37.3333,14.7985,50.5615,0h-2.4266c13.2282,14.7985,37.3334,14.7985,50.5616,0h-2.4266c11.0836,12.3994,29.1481,14.0657,43.5754,6.739,4.2448-2.1556,8.316-4.9665,10.4374-9.2909l6.1412-12.5188,4.8281-9.8421c.9691-1.9755-1.99-3.7168-2.9632-1.7321l-9.577,19.5229c-.6719,1.37-1.3162,2.7574-2.0173,4.1123a11.3137,11.3137,0,0,1-3.3054,3.4723,36.098,36.098,0,0,1-21.8385,7.3484,30.5856,30.5856,0,0,1-22.8541-10.2376,1.7275,1.7275,0,0,0-2.4266,0,30.9008,30.9008,0,0,1-45.7084,0,1.7275,1.7275,0,0,0-2.4266,0,30.9008,30.9008,0,0,1-45.7084,0,1.7273,1.7273,0,0,0-2.4265,0,30.9008,30.9008,0,0,1-45.7084,0,1.7275,1.7275,0,0,0-2.4266,0,30.9008,30.9008,0,0,1-45.7084,0,1.7275,1.7275,0,0,0-2.4266,0,30.9007,30.9007,0,0,1-45.7083,0,1.7275,1.7275,0,0,0-2.4266,0,30.9008,30.9008,0,0,1-45.7084,0,1.7275,1.7275,0,0,0-2.4266,0,30.9008,30.9008,0,0,1-45.7084,0,1.7273,1.7273,0,0,0-2.4265,0,30.9008,30.9008,0,0,1-45.7084,0l.2683,2.0793,12.0127-25.8647c.9244-1.99-2.0328-3.7353-2.9632-1.7321Z"/><path d="M79.8379,354.6349c13.2221,14.8,37.3393,14.8,50.5615,0h-2.4266c13.2222,14.8,37.3393,14.8,50.5616,0h-2.4266c13.2221,14.8,37.3393,14.8,50.5615,0h-2.4266c13.2222,14.8,37.3393,14.8,50.5616,0h-2.4266c13.2222,14.8,37.3393,14.8,50.5615,0h-2.4265c13.2221,14.8,37.3393,14.8,50.5615,0h-2.4266c13.2222,14.8,37.3393,14.8,50.5616,0h-2.4266c13.2221,14.8,37.3393,14.8,50.5615,0h-2.4266a33.9176,33.9176,0,0,0,25.6269,11.2381c9.9151-.14,19.9616-5.1705,26.5265-12.5089,1.4686-1.6417-.95-4.0767-2.4266-2.4266-5.9748,6.6788-15.0492,11.3757-24.1,11.5038a30.5491,30.5491,0,0,1-23.2-10.233,1.7275,1.7275,0,0,0-2.4266,0,30.9,30.9,0,0,1-45.7083,0,1.7275,1.7275,0,0,0-2.4266,0,30.9,30.9,0,0,1-45.7084,0,1.7275,1.7275,0,0,0-2.4266,0,30.9,30.9,0,0,1-45.7084,0,1.7273,1.7273,0,0,0-2.4265,0,30.9,30.9,0,0,1-45.7084,0,1.7275,1.7275,0,0,0-2.4266,0,30.9,30.9,0,0,1-45.7084,0,1.7275,1.7275,0,0,0-2.4266,0,30.9,30.9,0,0,1-45.7083,0,1.7275,1.7275,0,0,0-2.4266,0,30.9,30.9,0,0,1-45.7084,0,1.7275,1.7275,0,0,0-2.4266,0,30.9,30.9,0,0,1-45.7084,0c-1.4744-1.65-3.8946.7834-2.4265,2.4266Z"/><path d="M108.4354,293.4362c13.2222,14.8,37.3393,14.8,50.5615,0H156.57c13.2221,14.8,37.3393,14.8,50.5615,0h-2.4266c13.2222,14.8,37.3393,14.8,50.5616,0H252.84c13.2221,14.8,37.3393,14.8,50.5615,0h-2.4266c13.2222,14.8,37.3393,14.8,50.5616,0H349.11c13.2221,14.8,37.3393,14.8,50.5615,0h-2.4266c13.2222,14.8,37.3393,14.8,50.5616,0H445.38c13.2222,14.8,37.3393,14.8,50.5615,0h-2.4265c6.8612,7.68,17.6063,12.2839,27.9567,11.0723,9.7609-1.1427,19.9551-6.7529,26.4844-14.059,1.4677-1.6423-.9512-4.0774-2.4265-2.4266-5.92,6.6241-15.1321,11.8684-23.98,13.04-9.5192,1.26-19.3126-3.0072-25.6078-10.0534a1.7273,1.7273,0,0,0-2.4265,0,30.9,30.9,0,0,1-45.7084,0,1.7275,1.7275,0,0,0-2.4266,0,30.9,30.9,0,0,1-45.7084,0,1.7275,1.7275,0,0,0-2.4266,0,30.9,30.9,0,0,1-45.7083,0,1.7275,1.7275,0,0,0-2.4266,0,30.9,30.9,0,0,1-45.7084,0,1.7275,1.7275,0,0,0-2.4266,0,30.9,30.9,0,0,1-45.7083,0,1.7275,1.7275,0,0,0-2.4266,0,30.9,30.9,0,0,1-45.7084,0,1.7275,1.7275,0,0,0-2.4266,0,30.9,30.9,0,0,1-45.7084,0,1.7273,1.7273,0,0,0-2.4265,0,30.9,30.9,0,0,1-45.7084,0c-1.4745-1.65-3.8946.7834-2.4266,2.4266Z"/><path d="M139.8927,232.2375c13.2221,14.8,37.3393,14.8,50.5615,0h-2.4266c13.2222,14.8,37.3393,14.8,50.5616,0h-2.4266c13.2222,14.8,37.3393,14.8,50.5615,0h-2.4265c13.2221,14.8,37.3392,14.8,50.5615,0h-2.4266c13.2222,14.8,37.3393,14.8,50.5615,0h-2.4265c13.2221,14.8,37.3393,14.8,50.5615,0h-2.4266c13.2222,14.8,37.3393,14.8,50.5616,0h-2.4266c13.2221,14.8,37.3393,14.8,50.5615,0h-2.4266c13.2222,14.8,37.3393,14.8,50.5616,0,1.4674-1.6425-.9515-4.0777-2.4266-2.4266a30.9,30.9,0,0,1-45.7084,0,1.7275,1.7275,0,0,0-2.4266,0,30.9,30.9,0,0,1-45.7083,0,1.7275,1.7275,0,0,0-2.4266,0,30.9,30.9,0,0,1-45.7084,0,1.7275,1.7275,0,0,0-2.4266,0,30.9,30.9,0,0,1-45.7084,0,1.7273,1.7273,0,0,0-2.4265,0,30.9,30.9,0,0,1-45.7084,0,1.7275,1.7275,0,0,0-2.4266,0,30.9,30.9,0,0,1-45.7084,0,1.7273,1.7273,0,0,0-2.4265,0,30.9,30.9,0,0,1-45.7084,0,1.7275,1.7275,0,0,0-2.4266,0,30.9,30.9,0,0,1-45.7084,0,1.7275,1.7275,0,0,0-2.4266,0,30.9,30.9,0,0,1-45.7083,0c-1.4745-1.65-3.8947.7834-2.4266,2.4266Z"/><path d="M638.255,802.8478H546.6544a30.0164,30.0164,0,0,0-3.7474,0,1.3405,1.3405,0,0,1-.1677,0l1.7159,1.7159V638.331c0-2.2281.1887-4.55,0-6.7727-.0083-.0971,0-.198,0-.2956l-1.7159,1.7158H634.34a30.0164,30.0164,0,0,0,3.7474,0,1.3389,1.3389,0,0,1,.1676,0l-1.7158-1.7158V797.4954c0,2.2541-.0652,4.5193,0,6.7727.0028.0983,0,.1972,0,.2956a1.7169,1.7169,0,0,0,3.4317,0V638.331c0-2.2541.0652-4.5193,0-6.7727-.0028-.0984,0-.1972,0-.2956a1.7408,1.7408,0,0,0-1.7159-1.7159H554.5261c-3.86,0-7.7618-.1674-11.6191,0-.0557.0024-.112,0-.1677,0a1.7408,1.7408,0,0,0-1.7159,1.7159V797.4954c0,2.2541-.0651,4.5193,0,6.7727.0029.0983,0,.1972,0,.2956a1.7408,1.7408,0,0,0,1.7159,1.7158h83.7289c3.86,0,7.7619.1674,11.6192,0,.0556-.0024.1119,0,.1676,0A1.7169,1.7169,0,0,0,638.255,802.8478Z"/><circle class="cls-8" cx="620.5246" cy="705.6162" r="6.2915"/><rect class="cls-1" x="650.266" y="563.2005" width="29.1695" height="14.8707"/><path d="M679.4355,577.2133h-29.17l.8579.858V563.2005l-.8579.858h29.17l-.8579-.858v14.8708a.8584.8584,0,0,0,1.7158,0V563.2005a.87.87,0,0,0-.8579-.8579h-29.17a.87.87,0,0,0-.8579.8579v14.8708a.87.87,0,0,0,.8579.8579h29.17A.8585.8585,0,0,0,679.4355,577.2133Z"/><polyline class="cls-1" points="702.599 578.357 679.721 578.357 679.721 563.487 702.599 563.487"/><path d="M702.6,577.4993h-22.878l.8579.8579V563.4865l-.8579.8579H702.6a.8584.8584,0,0,0,0-1.7158h-22.878a.87.87,0,0,0-.858.8579v14.8707a.87.87,0,0,0,.858.858H702.6a.8585.8585,0,0,0,0-1.7159Z"/><polyline class="cls-1" points="639.113 578.357 663.707 578.357 663.707 593.228 643.403 593.228"/><path d="M639.113,579.2152h24.5939l-.858-.858v14.8707l.858-.8579H643.4026a.8585.8585,0,0,0,0,1.7159h20.3043a.87.87,0,0,0,.8579-.858V578.3572a.87.87,0,0,0-.8579-.8579H639.113a.8585.8585,0,0,0,0,1.7159Z"/><polyline class="cls-1" points="667.711 719.629 692.304 719.629 692.304 734.5 672 734.5"/><path d="M667.7105,720.487h24.5939l-.8579-.858V734.5l.8579-.8579H672a.8585.8585,0,0,0,0,1.7159h20.3043a.87.87,0,0,0,.8579-.858V719.629a.87.87,0,0,0-.8579-.8579H667.7105a.8585.8585,0,0,0,0,1.7159Z"/><rect class="cls-1" x="663.7069" y="578.3572" width="29.1695" height="14.8707"/><path d="M692.8763,592.37H663.7069l.8579.8579V578.3572l-.8579.858h29.1694l-.8579-.858v14.8707a.8585.8585,0,0,0,1.7159,0V578.3572a.87.87,0,0,0-.858-.8579H663.7069a.87.87,0,0,0-.858.8579v14.8707a.87.87,0,0,0,.858.858h29.1694A.8585.8585,0,0,0,692.8763,592.37Z"/><polyline class="cls-1" points="499.557 604.095 524.151 604.095 524.151 618.966 503.847 618.966"/><path d="M499.557,604.9529h24.5939l-.8579-.8579v14.8707l.8579-.8579H503.8467a.8585.8585,0,0,0,0,1.7159h20.3042a.87.87,0,0,0,.8579-.858V604.095a.87.87,0,0,0-.8579-.8579H499.557a.8584.8584,0,0,0,0,1.7158Z"/><polyline class="cls-1" points="548.745 604.095 524.151 604.095 524.151 618.966 544.455 618.966"/><path d="M548.7448,603.2371H524.1509a.87.87,0,0,0-.8579.8579v14.8707a.87.87,0,0,0,.8579.858h20.3043a.8585.8585,0,0,0,0-1.7159H524.1509l.8579.8579V604.095l-.8579.8579h24.5939a.8584.8584,0,0,0,0-1.7158Z"/><rect class="cls-1" x="513.2838" y="589.2243" width="29.1695" height="14.8707"/><path d="M542.4533,603.2371H513.2838l.858.8579V589.2243l-.858.8579h29.1695l-.8579-.8579V604.095a.8584.8584,0,0,0,1.7158,0V589.2243a.87.87,0,0,0-.8579-.8579H513.2838a.87.87,0,0,0-.8579.8579V604.095a.87.87,0,0,0,.8579.8579h29.1695A.8584.8584,0,0,0,542.4533,603.2371Z"/><rect class="cls-1" x="678.5776" y="734.4997" width="29.1695" height="14.8707"/><path d="M707.747,748.5125H678.5776l.8579.858V734.5l-.8579.858H707.747l-.8579-.858v14.8708a.8585.8585,0,0,0,1.7159,0V734.5a.87.87,0,0,0-.858-.8579H678.5776a.87.87,0,0,0-.858.8579v14.8708a.87.87,0,0,0,.858.8579H707.747A.8585.8585,0,0,0,707.747,748.5125Z"/><polyline class="cls-1" points="715.182 719.629 692.304 719.629 692.304 734.5 712.323 734.5"/><path d="M715.1824,718.7711h-22.878a.87.87,0,0,0-.8579.8579V734.5a.87.87,0,0,0,.8579.858h20.0183a.8585.8585,0,0,0,0-1.7159H692.3044l.8579.8579V719.629l-.8579.858h22.878a.8585.8585,0,0,0,0-1.7159Z"/><path d="M649.98,562.0566H627.102a.87.87,0,0,0-.8579.858V570.35a.8584.8584,0,0,0,1.7158,0v-7.4353l-.8579.8579H649.98a.8585.8585,0,0,0,0-1.7159Z"/><path d="M627.102,562.0566H615.949a.8585.8585,0,0,0,0,1.7159h11.153a.8585.8585,0,0,0,0-1.7159Z"/><path class="cls-4" d="M883.3152,375.89l33.48-42.0411L928.8482,317.56a8.3618,8.3618,0,0,1,14.54,2.0084h0a8.3611,8.3611,0,0,1,.373,4.6458l-4.088,19.9291,22.93,10.4179a21.0749,21.0749,0,0,1,10.1669,28.628l-11.2569,22.5138a21.075,21.075,0,0,1-18.85,11.65h0a28.9437,28.9437,0,0,0-23.7983,12.47l-7.2831,10.5214"/><path d="M884.5285,377.1028l10.9408-13.7385L913.32,340.9489c3.0043-3.7726,5.9362-7.5582,8.8052-11.4352l7.765-10.4932a7.2138,7.2138,0,0,1,4.0919-2.9492,6.71,6.71,0,0,1,7.0025,2.587c2.3142,3.2935.5664,7.8085-.1657,11.3772L938.186,342.87l-.1675.8169a1.751,1.751,0,0,0,.7885,1.9377l20.383,9.2609c3.7742,1.7148,7.3176,3.5408,9.9559,6.8961a19.5767,19.5767,0,0,1,3.0456,18.3964,72.998,72.998,0,0,1-4.055,8.4478l-6.2626,12.5251c-1.7808,3.5617-3.4283,7.0283-6.496,9.7292a19.505,19.505,0,0,1-9.37,4.4722,41.4578,41.4578,0,0,1-5.0711.3366,31.5109,31.5109,0,0,0-5.696.86,31.0519,31.0519,0,0,0-17.873,12.4287c-2.1984,3.1414-4.3649,6.3056-6.5471,9.4582l-.7215,1.0423c-1.26,1.82,1.7132,3.5377,2.9632,1.732l6.516-9.4132A28.5192,28.5192,0,0,1,933.81,420.5451a27.4218,27.4218,0,0,1,5.4188-1.272c1.8111-.2247,3.6311-.1274,5.4432-.3006a22.7692,22.7692,0,0,0,17.982-11.7517c.4874-.8943.9237-1.8191,1.3791-2.73,3.4054-6.8109,6.86-13.5994,10.2171-20.4342a22.7975,22.7975,0,0,0-11.33-31.226l-21.756-9.8847-.6259-.2843.7886,1.9377,2.1685-10.5718,1.3977-6.8136a25.7,25.7,0,0,0,.7488-4.4936,10.1689,10.1689,0,0,0-14.19-9.3874c-3.5477,1.56-5.7806,5.6511-8.0043,8.6561L915.64,332.5406c-.2545.3439-.4917.5883-.0824.1244-.1348.1527-.2555.3208-.3824.48l-2.0022,2.5143-17.1952,21.5924q-6.8189,8.5625-13.6378,17.1252-.1188.15-.2383.2993a1.7719,1.7719,0,0,0,0,2.4265,1.7262,1.7262,0,0,0,2.4265,0Z"/><path class="cls-4" d="M931.6753,410.49s-19.6939-7.3152-24.1409-10.3632-6.3529-10.3633,1.2706-12.1921c-2.5412-2.4384-1.2706-9.1441,5.0823-11.5825-3.1765-3.6576-1.2706-7.9248,5.7175-10.9728a10.2007,10.2007,0,0,1-.6585-6.25,5.7991,5.7991,0,0,1,7.7979-3.7831l22.6943,8.872a8.4514,8.4514,0,0,0,10.8247-4.3252h0"/><path d="M932.1314,408.8352q-6.1535-2.2869-12.2293-4.7814c-2.83-1.1609-5.6554-2.35-8.4028-3.6967-2.12-1.0392-4.1571-2.1085-5.3582-4.246a4.8539,4.8539,0,0,1-.6063-3.8629c.5668-1.5923,2.2074-2.27,3.7263-2.6592a1.732,1.732,0,0,0,.7571-2.8679,2.58,2.58,0,0,1-.6945-1.5006,5.5662,5.5662,0,0,1,.3417-2.6212,8.0989,8.0989,0,0,1,4.678-4.5928,1.746,1.746,0,0,0,.7571-2.8679c-3.1934-3.8112,2.4231-6.9631,5.37-8.278a1.7124,1.7124,0,0,0,.7885-1.9377c-.8494-2.22-1.5862-5.5289.5458-7.3069a4.504,4.504,0,0,1,4.5932-.5725c2.0761.7688,4.1273,1.6135,6.1892,2.42,5.4146,2.1168,10.8153,4.2738,16.2452,6.3509,4.8056,1.8382,10.7971-.1847,12.912-5.0554a1.7747,1.7747,0,0,0-.6155-2.3476,1.727,1.727,0,0,0-2.3477.6156c-1.6393,3.7753-5.7116,4.7681-9.316,3.369-2.4629-.9561-4.9213-1.9239-7.3819-2.8859L931.89,355.5246a37.95,37.95,0,0,0-5.6783-2.1257,7.707,7.707,0,0,0-7.9482,3.0848c-1.85,2.7263-1.427,6.44-.3131,9.3515l.7885-1.9377c-2.9458,1.3141-6.132,3.2231-7.4808,6.3073-1.1509,2.6316-.3613,5.2394,1.416,7.36l.7571-2.8678a11.7944,11.7944,0,0,0-7.0748,6.99c-.86,2.477-.6774,5.5164,1.2354,7.4607l.7571-2.8679c-3.6892.9445-6.7613,3.6743-6.389,7.7521a10.7548,10.7548,0,0,0,5.37,7.9954,66.2542,66.2542,0,0,0,8.1261,3.8582c3.351,1.427,6.7306,2.7854,10.1247,4.1063,1.8748.73,3.7529,1.4517,5.6387,2.1525,2.0729.77,2.9676-2.5453.9122-3.3091Z"/><path d="M938.46,345.3568c.2057.2416-.3227-.4567-.114-.1467.1208.1793.2437.3556.3551.5411.1706.284.3254.5774.467.8768.039.0826.0743.1672.1141.2494.1411.2911-.1515-.3985-.0019-.0028.0825.2181.166.435.24.6563a13.0551,13.0551,0,0,1,.4125,1.5547c.0551.2734.1025.5486.14.8249-.0577-.4217.0077.1221.0156.2068q.0252.27.0406.541a15.2166,15.2166,0,0,1-.3945,4.468,1.7163,1.7163,0,1,0,3.3091.9123,17.6432,17.6432,0,0,0-.2145-9.42,11.045,11.045,0,0,0-1.9426-3.6884,1.73,1.73,0,0,0-2.4266,0,1.7515,1.7515,0,0,0,0,2.4266Z"/><line class="cls-4" x1="919.6547" y1="365.3056" x2="943.6767" y2="375.6007"/><path d="M918.7887,366.7872l21.0576,9.0247,2.9643,1.27a1.7762,1.7762,0,0,0,2.3477-.6155,1.7265,1.7265,0,0,0-.6156-2.3476l-21.0576-9.0247-2.9643-1.27a1.7761,1.7761,0,0,0-2.3476.6156,1.7264,1.7264,0,0,0,.6155,2.3476Z"/><line class="cls-4" x1="913.3633" y1="376.1727" x2="937.3852" y2="386.4678"/><path d="M912.4973,377.6543l21.0575,9.0247,2.9644,1.27a1.7761,1.7761,0,0,0,2.3476-.6156,1.7266,1.7266,0,0,0-.6156-2.3476l-21.0575-9.0247-2.9644-1.27a1.7761,1.7761,0,0,0-2.3476.6156,1.7266,1.7266,0,0,0,.6156,2.3476Z"/><line class="cls-4" x1="909.3596" y1="387.6117" x2="933.3816" y2="397.9068"/><path d="M908.4936,389.0933l21.0576,9.0247,2.9643,1.27a1.776,1.776,0,0,0,2.3476-.6156,1.7265,1.7265,0,0,0-.6155-2.3476L913.19,387.4006l-2.9643-1.27a1.7762,1.7762,0,0,0-2.3477.6156,1.7266,1.7266,0,0,0,.6156,2.3476Z"/><path d="M924.7876,290.9586l4.1122,11.59.592,1.6687a1.76,1.76,0,0,0,2.1107,1.1984,1.7311,1.7311,0,0,0,1.1984-2.1107l-4.1121-11.59-.5921-1.6686a1.76,1.76,0,0,0-2.1107-1.1985,1.7313,1.7313,0,0,0-1.1984,2.1108Z"/><path d="M909.4224,303.4882l9.3115,8.05,1.3308,1.15a1.7159,1.7159,0,0,0,2.4266-2.4266l-9.3116-8.05-1.3308-1.1505a1.7158,1.7158,0,1,0-2.4265,2.4266Z"/><path d="M946.051,290.7234l-5.183,11.184-.7323,1.58a1.7657,1.7657,0,0,0,.6156,2.3476,1.73,1.73,0,0,0,2.3476-.6156l5.183-11.1839.7323-1.58a1.7657,1.7657,0,0,0-.6155-2.3476,1.73,1.73,0,0,0-2.3477.6155Z"/><path d="M739.7456,727.5784c2.2215-6.1047,4.73-12.1191,7.3839-18.0468,2.2783-5.09,4.6979-10.124,7.3935-15.0072a69.83,69.83,0,0,1,8.2837-12.4691c1.7279-1.9689,4.721-5.1791,7.5683-4.7372a2.2252,2.2252,0,0,1,1.7813,1.5272,10.1423,10.1423,0,0,1,.5662,4.0519,53.5893,53.5893,0,0,1-2.0391,12.4168c-1.258,4.97-2.802,9.866-4.4582,14.7159q-2.1894,6.4115-4.6494,12.7266c-.893,2.3055-1.9258,4.5761-2.76,6.9026-.0392.1094-.09.2158-.1348.3229-.3908.9288,1.0683,1.4414,1.5681.6611,2.3189-3.62,4.8176-7.1388,7.4133-10.5647a97.928,97.928,0,0,1,6.7433-8.0929c1.8977-2.0123,4-4.2048,6.5356-5.41,1.3473-.64,2.8269-.7509,3.3126.634.6829,1.9474-.0538,4.47-.5569,6.3694-1.7252,6.5124-4.6772,12.7309-7.629,18.7611-2.0342,4.1556-4.1595,8.2773-6.4335,12.3077a.8646.8646,0,0,0,1.1738,1.1738,79.4993,79.4993,0,0,1,9.9785-4.6406,54.7911,54.7911,0,0,1,9.0549-2.7538,18.4254,18.4254,0,0,1,8.1609-.1624,6.5847,6.5847,0,0,1,4.8914,4.7423,7.35,7.35,0,0,1-1.441,6.3131c-3.3479,4.5825-9.3211,7.2753-14.422,9.3523a85.5462,85.5462,0,0,1-11.7362,3.8835.8618.8618,0,0,0,.2281,1.6852,82.6694,82.6694,0,0,1,10.8415.5826,56.5347,56.5347,0,0,1,9.0123,1.6984,20.2293,20.2293,0,0,1,7.5435,3.5407,6.445,6.445,0,0,1,2.5871,5.7911c-.3185,2.07-2.0325,3.4743-3.7726,4.4156-4.9875,2.6978-11.2728,3.1534-16.8262,3.4441a103.8121,103.8121,0,0,1-12.2454-.0262v1.7158a49.683,49.683,0,0,1,7.37.6127c4.364.6628,9.0672,1.7488,12.6813,4.4162a8.9353,8.9353,0,0,1,3.7158,5.78c.0985.6038.8107.71,1.26.5127,5.0843-2.2265,10.6989,1.7553,13.8311,5.5854a.8564.8564,0,0,0,1.04.1341,26.2143,26.2143,0,0,1,4.4182-2.5566c2.514-1.1647,5.8052-2.2536,8.4426-.8751a.8674.8674,0,0,0,1.291-.7408,32.4828,32.4828,0,0,1,2.6945-12.8044c1.2647-2.8669,3.3116-6.581,6.5777-7.49,6.3663-1.7723,5.53,8.0348,4.9864,11.56a41.9689,41.9689,0,0,1-1.0731,5.0748.8619.8619,0,0,0,1.5681.661,32.0652,32.0652,0,0,1,3.259-4.4046c.9464-1.0745,4.2086-4.8052,5.9642-3.2317,1.144,1.0255-.2233,3.9283-.6624,5a51.3938,51.3938,0,0,1-3.8837,7.3113c-.8707,1.4173-1.77,2.8213-2.727,4.1827-.6362.9054.8508,1.7637,1.4816.866a57.4493,57.4493,0,0,0,7.0287-12.5283c.6542-1.7453,1.5887-4.5706-.0581-6.0719-2.1859-1.9927-5.2984.235-6.9544,1.7969a30.4862,30.4862,0,0,0-4.93,6.2141l1.568.6611a42.0538,42.0538,0,0,0,1.1068-5.2965c.4475-3.0047.765-6.2822-.0968-9.2455-.7817-2.6878-2.8526-4.6112-5.7758-4.4182-3.6942.2439-6.3317,3.6544-7.9553,6.6456a33.345,33.345,0,0,0-3.8348,15.5182l1.291-.7408c-4.6495-2.43-10.7572.6345-14.5929,3.4317l1.04.1342c-3.7092-4.5355-10.0475-8.4212-15.91-5.8537l1.26.5128c-.7784-4.7752-4.9841-7.6271-9.19-9.2672a45.49,45.49,0,0,0-13.2026-2.6674c-1.0066-.0732-2.0184-.1332-3.0282-.1343a.8584.8584,0,0,0,0,1.7158,103.89,103.89,0,0,0,11.1306.0784c6.0337-.25,12.6217-.7367,18.1444-3.3932a9.29,9.29,0,0,0,4.9186-4.6971,7.29,7.29,0,0,0-1.0406-6.7319c-3.4427-4.7886-10.5636-6.2205-16.0063-7.0845a82.0728,82.0728,0,0,0-14.2869-1.05l.2281,1.6852a85.6443,85.6443,0,0,0,10.6757-3.46c5.6134-2.1969,11.8941-4.9545,15.838-9.7022a9.75,9.75,0,0,0,2.5566-6.9019,8.36,8.36,0,0,0-3.8626-6.5008c-5.0957-3.1006-12.3921-.9761-17.5758.7711a80.1219,80.1219,0,0,0-13.4406,5.9234l1.1738,1.1738c2.0424-3.62,3.9588-7.3165,5.8075-11.0384,3.1719-6.3857,6.3358-12.97,8.2682-19.8552.8239-2.936,2.6038-10.76-2.8952-10.219-2.51.2469-4.7584,2.2152-6.5405,3.835a68.0412,68.0412,0,0,0-7.2313,7.9606,159.8461,159.8461,0,0,0-9.7573,13.58l1.5681.6611c2.427-5.7673,4.6349-11.637,6.708-17.54,1.752-4.9881,3.3922-10.022,4.77-15.1274a69.1364,69.1364,0,0,0,2.5706-13.5024c.1625-2.5516.2522-6.3447-2.1285-8.009-2.521-1.7624-5.8253.15-7.84,1.8-3.5772,2.9294-6.2564,7.0169-8.6541,10.916a155.1236,155.1236,0,0,0-8.0975,15.2928c-2.2221,4.7245-4.2954,9.5191-6.2632,14.3548-1.0906,2.68-2.2475,5.37-3.1691,8.1154-.0432.1289-.0945.2555-.141.3833-.3782,1.0393,1.2793,1.4873,1.6545.4561Z"/><path d="M739.7456,764.1833a30.6249,30.6249,0,0,1,1.5342-4.08,16.5883,16.5883,0,0,1,1.6757-2.9768c.4289-.5783,1.1465-1.5108,1.9616-1.4894,1.04.0273.9641,2.75.96,3.5581a42.061,42.061,0,0,1-.6927,6.7173c-.2313,1.3742-.489,2.7472-.8015,4.1056a.8624.8624,0,0,0,1.5681.6611c-.2609.3434.202-.2306.2694-.3053a9.8376,9.8376,0,0,1,.9242-.9009,4.7318,4.7318,0,0,1,2.8468-1.2969c.63-.0093,1.8289.2426,1.9246,1.01.0689.5519-.4874,1.2562-.7841,1.6566a25.3275,25.3275,0,0,1-6.3547,5.5266c-.9136.6106-.0555,2.0975.866,1.4816a30.4273,30.4273,0,0,0,6.373-5.3845c.86-1.0166,1.9155-2.4313,1.5446-3.8567-.4881-1.8754-3.0386-2.3953-4.6625-2.0032a8.4074,8.4074,0,0,0-4.4289,3.2071l1.5681.6611a48.44,48.44,0,0,0,1.55-11.8719c-.0395-1.5513-.1994-4.1033-2.0516-4.6054-2.3052-.625-4.06,2.0621-4.9838,3.7352a30.2269,30.2269,0,0,0-2.461,5.9945.8586.8586,0,0,0,1.6545.4562Z"/></svg>