<svg id="Layer_1" data-name="Layer 1" xmlns="http://www.w3.org/2000/svg" width="1000" height="1000" viewBox="0 0 1000 1000"><defs><style>.cls-1{fill:#458dc9;}.cls-2{fill:#fcb332;}.cls-3{fill:#fc7f3a;}.cls-4{fill:#389b48;}.cls-5{fill:#a8542a;}.cls-6{fill:#fff;}.cls-7{fill:#ffc41f;}</style></defs><path class="cls-1" d="M561.3113,121.4719v41.84A510.3458,510.3458,0,0,1,404.5848,531.2882l0,0a40.6389,40.6389,0,0,1-56.3176,0l0,0A510.3458,510.3458,0,0,1,191.54,163.3123v-41.84L376.4258,35.504Z"/><path d="M559.29,121.4719c0,15.82.1422,31.6473-.031,47.467A508.3815,508.3815,0,0,1,513.34,374.531a511.03,511.03,0,0,1-53.666,91.0477,505.0519,505.0519,0,0,1-33.837,41.0524q-9.0673,9.8963-18.6464,19.3068c-5.7654,5.6646-11.5786,10.5961-19.47,12.9851a39.08,39.08,0,0,1-23.2489-.2061c-7.8773-2.532-13.612-7.6535-19.384-13.3424A511.1169,511.1169,0,0,1,308.98,485.85,508.4683,508.4683,0,0,1,194.5184,194.5644c-1.3536-22.0561-.9568-44.1875-.9568-66.2739v-6.8186l-1.0011,1.7453,18.4014-8.5563,44.1857-20.5454L308.373,69.3668l46.2387-21.5,15.3029-7.1155c2.2792-1.06,5.1336-1.9144,7.2088-3.352a2.21,2.21,0,0,1,.3226-.15h-2.04l18.4015,8.5563L437.9927,66.351,491.2182,91.1l46.2386,21.5c7.4825,3.4792,14.8957,7.2865,22.5118,10.4675.1091.0456.2152.1.3225.15,2.3442,1.09,4.4-2.3936,2.04-3.4906l-18.5428-8.622L499.3161,90.4257,445.8648,65.572,399.6672,44.0911c-7.2834-3.3866-14.5111-7.25-21.9785-10.2195-1.7977-.7149-3.3246.3714-4.97,1.1363l-11.3013,5.2549-41.84,19.4547L266.19,84.5415,218.1548,106.877l-26.4069,12.2786-1.2278.571a1.99,1.99,0,0,0-1.0011,1.7453c0,16.3547-.1813,32.72.0512,49.0734A512.6553,512.6553,0,0,0,326.5958,512.1342q9.28,9.9854,19.0838,19.4671a44.9525,44.9525,0,0,0,19.7022,11.5977,43.0851,43.0851,0,0,0,22.7521-.1832c7.6461-2.1791,13.9647-6.492,19.6155-11.9739a510.58,510.58,0,0,0,36.9513-39.8789A512.2263,512.2263,0,0,0,562.2233,196.9577c1.5062-22.79,1.1093-45.6531,1.1093-68.479v-7.0068C563.3326,118.8707,559.29,118.8664,559.29,121.4719Z"/><path d="M341.9879,522.8261a403.8438,403.8438,0,0,1-51.1153-62.2533c-11.9756-18.1-22.9537-37.55-29.3419-58.396a95.9555,95.9555,0,0,1-4.1455-25.62l-.7226-24.8236-1.1644-39.998-1.3444-46.1814-1.2626-43.3741-.9193-31.5765c-.1561-5.3637.1987-11.2955-.7947-16.5821A26.2364,26.2364,0,0,0,230.31,153.37c-2.2988-.4052-4.6182-.2993-6.9168-.67a27.1641,27.1641,0,0,1-19.2777-13.23c-1.9161-3.3132-2.8079-6.9139-3.7712-10.5744-.6615-2.5137-4.5619-1.4477-3.8982,1.0747a46.917,46.917,0,0,0,3.9093,11.0637,31.1669,31.1669,0,0,0,26.1058,16.0013,21.7913,21.7913,0,0,1,13.6122,5.37c5.3034,4.6872,7.4168,10.8989,7.5532,17.8076.0391,1.9768.1151,3.9537.1727,5.93l.8133,27.9378,1.2108,41.5947,1.3545,46.5293,1.2287,42.2063.8378,28.7785c.1878,6.4524.378,12.7783,1.623,19.1578,3.8667,19.8137,13.31,38.6109,23.4925,55.86a386.26,386.26,0,0,0,46.6971,62.6951q6.8548,7.5618,14.0721,14.7822c1.84,1.8436,4.7-1.0143,2.8585-2.8585Z"/><path d="M374.2466,66.773q-.2018,4.1636-.3814,8.328-.5094,11.4825-.9593,22.9675-.6913,17.5039-1.2776,35.0118-.7377,21.9677-1.3173,43.94-.6642,25.2321-1.101,50.4693-.4588,26.8677-.6077,53.7394-.1381,27.35.1484,54.7006c.2,17.458.5574,34.9152,1.17,52.3638.5585,15.9135,1.32,31.8231,2.4705,47.7056.9688,13.375,2.204,26.7388,4.042,40.0246q.5781,4.1789,1.2547,8.3431c.4177,2.5612,4.3139,1.4745,3.8981-1.0746-2.0235-12.4059-3.3306-24.9237-4.3833-37.4455-1.2862-15.2988-2.1459-30.6324-2.7928-45.9706-.727-17.2349-1.1726-34.4812-1.4491-51.7289q-.4346-27.1059-.3588-54.2168.0461-27.0774.4562-54.1527.374-25.6564,1.0056-51.3081.5559-22.844,1.2891-45.683.5965-18.64,1.3069-37.277.4982-13.0465,1.0591-26.0907c.1744-4.0323.5043-8.0869.5455-12.1232.0018-.1741.0166-.349.025-.523.126-2.6-3.9169-2.5939-4.0425,0Z"/><path d="M252.8336,268.1547c4.2568-1.3291,8.6067-2.3962,12.94-3.4412,12.16-2.9331,24.4595-5.29,36.8092-7.2659,18.913-3.0257,37.9762-5.0982,57.0858-6.3713a695.8619,695.8619,0,0,1,74.8532-.9134,713.7389,713.7389,0,0,1,88.7081,9.2279q5.7622.9666,11.5082,2.0264c2.5433.468,3.6338-3.4273,1.0747-3.8982a726.1123,726.1123,0,0,0-90.7845-10.8885,700.1187,700.1187,0,0,0-77.01-.1011q-30.2147,1.6376-60.1949,6.0455c-13.3284,1.9819-26.6026,4.3987-39.732,7.4387-5.3743,1.2444-10.8911,2.4119-16.1276,4.18-.0675.0228-.1367.0416-.2048.0629-2.4752.7728-1.4186,4.6767,1.0747,3.8981Z"/><path d="M195.3027,283.3961a46.8416,46.8416,0,0,0,7.6476,9.6111,86.058,86.058,0,0,0,25.78,17.7739,114.3864,114.3864,0,0,0,24.355,7.8915c2.5387.5279,3.6242-3.368,1.0747-3.8981-13.16-2.7362-25.91-7.5488-37.04-15.1671a75.4266,75.4266,0,0,1-10.3459-8.491q-1.86-1.8308-3.5769-3.8-.7082-.8154-1.3867-1.656c-.1812-.2247-.3594-.4518-.5381-.6784-.0332-.042.222.2959-.0272-.0357-.0947-.1259-.1906-.251-.285-.3771a28.6452,28.6452,0,0,1-2.1661-3.2137c-1.2615-2.2759-4.7541-.2392-3.4906,2.04Z"/><circle class="cls-2" cx="635.0887" cy="78.3243" r="38.3069"/><path d="M633.0674,40.0175a36.6192,36.6192,0,0,1-23.6129,34.0186,37.07,37.07,0,0,1-12.6727,2.267,2.0225,2.0225,0,0,0,0,4.0425A36.6192,36.6192,0,0,1,630.8,103.9585a37.0675,37.0675,0,0,1,2.267,12.6727,2.0225,2.0225,0,0,0,4.0425,0,36.6194,36.6194,0,0,1,23.6129-34.0186,37.0651,37.0651,0,0,1,12.6727-2.267,2.0225,2.0225,0,0,0,0-4.0425A36.6194,36.6194,0,0,1,639.3769,52.69a37.0679,37.0679,0,0,1-2.267-12.6727c-.0117-2.6007-4.0543-2.606-4.0425,0a40.3156,40.3156,0,0,0,40.3281,40.3281V76.3031a40.3156,40.3156,0,0,0-40.3281,40.3281H637.11a40.3156,40.3156,0,0,0-40.3281-40.3281v4.0425a40.7785,40.7785,0,0,0,37.8593-26.4243A40.45,40.45,0,0,0,637.11,40.0175C637.1216,37.4158,633.0791,37.4125,633.0674,40.0175Z"/><circle class="cls-2" cx="75.8688" cy="309.4236" r="38.3069"/><path d="M73.8475,271.1168a36.6194,36.6194,0,0,1-23.6128,34.0186,37.0708,37.0708,0,0,1-12.6728,2.267,2.0225,2.0225,0,0,0,0,4.0425,36.6193,36.6193,0,0,1,34.0187,23.6129,37.0674,37.0674,0,0,1,2.2669,12.6727,2.0225,2.0225,0,0,0,4.0426,0,36.62,36.62,0,0,1,23.6128-34.0187,37.0679,37.0679,0,0,1,12.6728-2.2669,2.0225,2.0225,0,0,0,0-4.0425A36.62,36.62,0,0,1,80.157,283.79,37.0678,37.0678,0,0,1,77.89,271.1168c-.0117-2.6007-4.0543-2.606-4.0426,0a40.3157,40.3157,0,0,0,40.3282,40.3281v-4.0425a40.3156,40.3156,0,0,0-40.3282,40.3281H77.89a40.7787,40.7787,0,0,0-26.4244-37.8594,40.449,40.449,0,0,0-13.9038-2.4687v4.0425A40.3156,40.3156,0,0,0,77.89,271.1168C77.9018,268.5151,73.8592,268.5118,73.8475,271.1168Z"/><circle class="cls-2" cx="530.0797" cy="49.2553" r="24.2553"/><path d="M528.0584,25a22.464,22.464,0,0,1-22.2341,22.234,2.0225,2.0225,0,0,0,0,4.0426,22.464,22.464,0,0,1,22.2341,22.234,2.0225,2.0225,0,0,0,4.0425,0,22.464,22.464,0,0,1,22.2341-22.234,2.0225,2.0225,0,0,0,0-4.0426A22.464,22.464,0,0,1,532.1009,25c-.0184-2.6-4.061-2.6062-4.0425,0A26.2768,26.2768,0,0,0,554.335,51.2766V47.234a26.2768,26.2768,0,0,0-26.2766,26.2766h4.0425A26.2766,26.2766,0,0,0,505.8243,47.234v4.0426A26.2766,26.2766,0,0,0,532.1009,25C532.1194,22.3981,528.0769,22.3954,528.0584,25Z"/><path class="cls-3" d="M448.36,254.7518c1.6716-24.379,1.6636-23.8743,1.663-38.1314s10.37-16.3617,13.8078-2.2233c3.2859,22.8033.0256,62.7671.0256,62.7671l59.2908,49.006,114.8934,1.3475-2.3757,46.4894-168.44-4.7163-68.7234-74.7873,6.7376-33.6879,24.9291-17.5177"/><path d="M450.3813,254.7518c.55-8.0213,1.2038-16.0472,1.5088-24.083.0941-2.4793.1317-4.96.1449-7.4408.0194-3.6428-.3551-7.5018.44-11.0739a9.8237,9.8237,0,0,1,1.8878-4.2652,2.8222,2.8222,0,0,1,1.2884-.9637c-.3571.1573.3858-.0911.5239-.1157-.4388.0783.326.0108.5025.0257-.4444-.0376.3654.1059.5167.1586.5464.19-.3045-.1872.2185.1065.1175.0659.2325.1328.3481.2025a5.8508,5.8508,0,0,1,1.4418,1.3722,15.74,15.74,0,0,1,2.5289,5.67,35.8227,35.8227,0,0,1,.7524,5.8943c.1968,2.1638.3438,4.332.4571,6.5017.2394,4.5871.33,9.1814.3355,13.7744.01,8.3861-.2591,16.7728-.7019,25.1467q-.2178,4.1209-.4993,8.2383c-.0736,1.0678-.2648,2.1874-.24,3.2586.0271,1.15.8213,1.6243,1.5882,2.2581l3.2362,2.675,11.4822,9.49L507.6969,316.01l10.7368,8.8745c1.2138,1.0032,3.1213,3.2088,4.8,3.3076,1.7842.105,3.5948.0422,5.3813.0631l12.2039.1432,36.28.4255,37.7841.4431,22.0978.2592,1.06.0124-2.0212-2.0213-.8,15.65-1.2825,25.0957-.2935,5.7434,2.0213-2.0213-16.82-.471-40.1313-1.1236-48.7748-1.3657-41.9524-1.1747-13.9009-.3892c-2.1719-.0608-4.4078-.2812-6.58-.1843-.0924.0042-.1871-.0052-.28-.0078l1.4293.592-6.8258-7.428-16.3956-17.8423L425.59,320.9976l-17.1673-18.6821-5.7032-6.2064c-.8731-.95-1.7026-2.04-2.6661-2.9014-.0444-.04-.0823-.0895-.1226-.1334l.52,1.9666,5.8873-29.4365.85-4.2515-.9289,1.208,21.8062-15.3233,3.1228-2.1944c2.1126-1.4845.0949-4.991-2.04-3.4906l-13.9936,9.8333-8.6737,6.095c-1.1735.8246-2.8963,1.6543-3.256,3.1239-1.4781,6.0392-2.45,12.2493-3.669,18.3451l-2.119,10.5948-.6721,3.3608a5.0159,5.0159,0,0,0-.2122,2.1354,6.7785,6.7785,0,0,0,1.73,2.2082l3.4509,3.7555,12.0652,13.13,32.0946,34.9264,13.1831,14.3463c2.1629,2.3538,4.2582,4.8006,6.5032,7.077,1.1,1.1158,2.8886.8627,4.3532.9038l10.6614.2985,38.1784,1.069,48.32,1.3529,43.7356,1.2246,23.7359.6646,1.1008.0309a2.0576,2.0576,0,0,0,2.0213-2.0213l.8-15.65,1.2824-25.0957.2935-5.7434a2.0463,2.0463,0,0,0-2.0213-2.0212l-11.4733-.1346L599.15,325.04l-33.1491-.3888-28.7551-.3372-9.4052-.11c-1.4747-.0173-3.0282-.1781-4.5-.0528-.0635.0054-.13-.0015-.1941-.0023l1.4292.5921-20.0789-16.596-31.95-26.4078-7.262-6.0023.592,1.4293a386.9975,386.9975,0,0,0,1.1638-49.2468c-.1218-2.6149-.29-5.2282-.53-7.835a37.7511,37.7511,0,0,0-1.263-8.1154c-1.28-3.9781-4.07-9.1954-8.9208-9.19-4.6752.0057-7.143,4.9711-7.8808,8.9367-.8077,4.3409-.4231,8.907-.4687,13.3071-.1027,9.9243-.9614,19.8344-1.64,29.7305-.1781,2.5966,3.8652,2.5856,4.0425,0Z"/><line class="cls-3" x1="690.6255" y1="407.6667" x2="588.2392" y2="405.2835"/><path d="M690.6255,405.6455l-10.1731-.2368-24.4345-.5688-29.5686-.6883-25.5754-.5953c-4.1342-.0962-8.32-.3928-12.4549-.29-.06.0015-.12-.0028-.18-.0042-2.6024-.0606-2.6015,3.982,0,4.0425l10.1731.2368,24.4345.5688,29.5686.6883,25.5754.5953c4.1342.0963,8.3195.3928,12.455.29.06-.0014.12.0028.18.0042,2.6024.0606,2.6015-3.982,0-4.0425Z"/><path class="cls-4" d="M683.5019,409.0426l-117.62-1.3193c1.8607-7.1815,13.983-36.2761,14.9908-45.7524,1.5081-14.181,1.4369-27.0028.1014-35.616l73.5563,1.1628H691.587"/><path d="M683.5019,407.0213l-11.7251-.1315-28.1477-.3157-33.9082-.38-29.32-.3288-9.7081-.1089c-1.5118-.0169-3.1008-.1771-4.6094-.0517-.0659.0055-.135-.0015-.2013-.0022l1.9491,2.5586c.9346-3.562,2.3172-7.0271,3.5824-10.48,1.8955-5.1728,3.8246-10.3334,5.6635-15.5268,1.696-4.79,3.3743-9.6081,4.6734-14.5238,1.56-5.9031,1.8173-12.096,2.0871-18.17a121.8132,121.8132,0,0,0-.9142-23.743l-1.9491,2.5587,15.3461.2426,30.9453.4892,24.3979.3857c4.3566.0689,8.7131.0453,13.07.0453H691.587c2.6012,0,2.6055-4.0425,0-4.0425H668.49c-5.1262,0-10.2557.0585-15.3815-.0225l-22.0272-.3483L599.749,324.63c-6.1525-.0972-12.34-.3957-18.4928-.2923-.0939.0015-.1883-.003-.2822-.0045a2.0538,2.0538,0,0,0-1.9491,2.5586,111.5865,111.5865,0,0,1,.8633,20.1834c-.1276,4.1525-.399,8.3-.79,12.4362-.0847.896-.1652,1.7939-.2732,2.6875-.0281.232.0182-.1285.02-.1416-.0158.11-.0311.2212-.05.331-.0347.2029-.0672.406-.104.6086-.1627.8953-.3653,1.7834-.5847,2.6664-2.4848,10.0034-6.412,19.6806-9.9653,29.3373-1.4771,4.0143-3.1215,8.0413-4.2088,12.185a2.0444,2.0444,0,0,0,1.9491,2.5586l11.7251.1315,28.1478.3157,33.9081.38,29.32.3289c4.7585.0534,9.5594.2979,14.3174.1606.0669-.002.1343.0015.2013.0022,2.6021.0292,2.6039-4.0133,0-4.0425Z"/><path d="M622.9726,406.5451c3.4565.3675,7.3517-7.2779,10.4435-19.2107l-16.6177-1.8914C617.3017,397.8276,619.5046,406.1761,622.9726,406.5451Z"/><path d="M622.9726,408.5663c3.2495.2617,5.57-3.2087,6.9244-5.6638a64.9051,64.9051,0,0,0,5.4681-15.0308,2.0551,2.0551,0,0,0-1.949-2.5586l-16.6177-1.8914a2.0314,2.0314,0,0,0-2.0212,2.0213c.2262,5.3521.6176,10.9126,2.1861,16.0658.9314,3.06,2.466,6.59,6.0093,7.0575a2.0312,2.0312,0,0,0,2.0213-2.0212,2.0732,2.0732,0,0,0-2.0213-2.0213c.6324.0834.2349.0067.0922-.0209-.3305-.0639.2958.1728.1054.049a2.7641,2.7641,0,0,1-.2629-.15c-.3417-.28.3305.3308.0008.0052-.1683-.1661-.3333-.3275-.4892-.506-.3238-.3709.2223.35-.058-.0873-.0751-.1172-.1531-.2323-.2257-.3512a13.6208,13.6208,0,0,1-1.5469-3.9885A65.1677,65.1677,0,0,1,618.82,385.443l-2.0213,2.0212,16.6177,1.8915-1.9491-2.5586a64.3781,64.3781,0,0,1-4.7022,13.3937,14.6861,14.6861,0,0,1-2.3262,3.5183c-.1048.1078-.7761.6821-.37.3794-.19.1418-.4.2483-.595.38-.2963.2.28-.0787.0691-.0205-.0762.021-.2122.1059-.2939.09-.401-.0784.4636.1061.0705-.0041a2.0738,2.0738,0,0,0-.3471-.01,2.038,2.038,0,0,0-2.0212,2.0213A2.0617,2.0617,0,0,0,622.9726,408.5663Z"/><line class="cls-3" x1="626.2324" y1="503.3688" x2="760.7468" y2="375.3584"/><path d="M627.6617,504.7981l3.6051-3.4309,9.7533-9.2817,14.4891-13.7885,17.6848-16.83,19.2824-18.35,19.5552-18.61,18.234-17.3524,15.3428-14.6009L756.6992,382c1.7477-1.6631,3.5574-3.2812,5.2525-4.9984.0724-.0734.15-.1425.2244-.2136,1.8884-1.7971-.9733-4.6526-2.8585-2.8585l-3.6052,3.4308-9.7533,9.2818L731.47,400.43l-17.6849,16.83-19.2824,18.35-19.5552,18.61-18.234,17.3523-15.3428,14.601L630.28,496.7275c-1.7477,1.6632-3.5574,3.2813-5.2524,4.9985-.0725.0733-.15.1424-.2245.2135-1.8884,1.7971.9733,4.6526,2.8586,2.8586Z"/><path class="cls-5" d="M902.9669,804.0076,957.09,878.5139l-88.9566,88.2448s-26.5168-23.7034,3.9-59.2531c5.7306-6.6977,3.688-16.9792.52-25.205a49.8883,49.8883,0,0,0-14.1775-19.8588"/><path d="M901.2216,805.0278l5.3867,7.4154,12.9349,17.806,15.645,21.5369,13.4668,18.5384,4.4677,6.15a29.1849,29.1849,0,0,0,2.1271,2.9282,1.3,1.3,0,0,1,.0953.1312l.3161-2.4495-8.8687,8.7977-21.29,21.12L899.85,932.449l-22.1772,22-7.338,7.2792c-1.1409,1.1318-2.4508,2.2154-3.48,3.4523-.0445.0535-.1009.1-.15.1493h2.8585a19.8,19.8,0,0,1-1.63-1.698q-.3649-.4158-.7155-.844c-.1584-.1932-.3133-.3892-.4689-.5847-.0679-.0853-.2278-.2986.0723.095q-.1676-.22-.3331-.4412-1.0088-1.357-1.8924-2.8014a34.1831,34.1831,0,0,1-5.1495-17.8164c-.0435-10.0674,4.3826-19.4863,10.2-27.4892,1.8247-2.51,4.17-4.7521,5.6952-7.46a18.9942,18.9942,0,0,0,2.2444-7.67c.508-5.587-.9858-11.323-2.95-16.5079a52.84,52.84,0,0,0-9.2907-15.5935,38.7511,38.7511,0,0,0-5.54-5.5059,2.0883,2.0883,0,0,0-2.8586,0,2.0345,2.0345,0,0,0,0,2.8585c5.5461,4.3094,9.9243,10.6022,12.8025,16.9282,2.2409,4.9251,3.93,10.5338,3.8829,15.9826a15.4637,15.4637,0,0,1-1.6936,7.3111,20.0051,20.0051,0,0,1-2.2893,3.1179q-1.815,2.1934-3.4938,4.4984c-6.02,8.2858-10.4754,18.0647-10.7406,28.44a38.409,38.409,0,0,0,4.9269,19.6434,32.7927,32.7927,0,0,0,6.3627,8.3949,2.0623,2.0623,0,0,0,2.8585,0l8.8686-8.7977,21.29-21.12,25.652-25.4468,22.1771-22c3.5974-3.5685,7.3523-7.0337,10.8181-10.7315.0482-.0514.1-.1.15-.1492a2.041,2.041,0,0,0,.316-2.45l-5.3867-7.4153-12.9348-17.8061-15.645-21.5369L911.4023,812.197c-2.1979-3.0256-4.3679-6.0739-6.5947-9.0783-.0322-.0434-.0636-.0875-.0954-.1312a2.08,2.08,0,0,0-2.7655-.7252,2.037,2.037,0,0,0-.7251,2.7655Z"/><path class="cls-6" d="M962.4381,886.2259,873.3712,974.58s-9.7284-11.84-12.8939-19.0445l16.9973-16.5823,2.3511-5.3485a36.883,36.883,0,0,1,18.3884-18.6829l5.96-2.7338L922.0561,894.45a13.087,13.087,0,0,0,3.07-13.7983h0a13.087,13.087,0,0,1,3.07-13.7983l11.9466-11.8511Z"/><path d="M961.0088,884.7967l-8.8578,8.7869-21.2724,21.1022L905.1435,940.215l-22.2461,22.0681-7.33,7.271c-1.1395,1.13-2.4475,2.2125-3.4756,3.4478-.0445.0534-.1008.1-.15.149H874.8c-1.7733-2.16-3.3822-4.2748-5.0363-6.538a68,68,0,0,1-7.5415-12.0973l-.316,2.4494,15.96-15.57a6.44,6.44,0,0,0,1.65-2.0963c.8139-1.8515,1.5932-3.7232,2.4553-5.553a35.2866,35.2866,0,0,1,15.529-16.2277c1.9247-1.0078,3.9374-1.8615,5.9112-2.7668a8.4478,8.4478,0,0,0,2.68-1.6178l8.4528-8.3851,8.42-8.3531a15.5821,15.5821,0,0,0,4.0464-16.4617,11.2868,11.2868,0,0,1,1.4605-10.3259,26.7381,26.7381,0,0,1,2.9862-3.144l9.4008-9.3257.7123-.7065-3.1746-.4091,19.5157,27.33,2.7805,3.8938a2.0778,2.0778,0,0,0,2.7654.7251,2.0377,2.0377,0,0,0,.7252-2.7655l-19.5157-27.33-2.78-3.8939a2.053,2.053,0,0,0-3.1745-.409l-7.81,7.7469c-3.2734,3.2472-6.8379,6.2509-8.0823,10.9084a15.1787,15.1787,0,0,0-.3506,6.0268c.2474,1.77,1.0062,3.3761,1.3013,5.1272a11.1874,11.1874,0,0,1-3.1459,9.6395c-2.0842,2.116-4.2186,4.1848-6.3271,6.2764l-9.7386,9.6607-1.3267,1.3161c-.1185.1176-.2544.23-.3612.3583-.2882.3464.0912-.3017.2551-.1778a10.8293,10.8293,0,0,0-2.1792,1l-3.1342,1.4374a39.8972,39.8972,0,0,0-16.0451,13.1867,43.0539,43.0539,0,0,0-4.2127,7.6987l-1.3832,3.1468c-.0728.1655-.4568.7573-.41.9323.0241.0895.5064-.4469.18-.2324a21.2413,21.2413,0,0,0-2.7221,2.6557l-4.8725,4.7535-8.7781,8.5638-.5218.5091a2.0916,2.0916,0,0,0-.3161,2.4494,68.8316,68.8316,0,0,0,7.7259,12.3491c1.7692,2.41,3.5867,4.7929,5.484,7.1044a2.041,2.041,0,0,0,2.8585,0l8.8579-8.7869L904.9307,946.12l25.7351-25.5292,22.246-22.0681c3.5931-3.5643,7.3434-7.0255,10.8053-10.7188.0481-.0513.1-.0994.15-.149C965.717,885.82,962.8586,882.9617,961.0088,884.7967Z"/><path d="M876.6337,898.5815a7.0764,7.0764,0,0,1,.9108-.1974c.5631-.0923-.531.0533.0164-.0041.1878-.02.3756-.0377.5641-.05a11.7281,11.7281,0,0,1,1.3258-.01c.2288.0112.456.0344.6841.0542.4.0347-.5061-.0917-.0006,0,.1431.026.2865.0485.4291.0772a12.8433,12.8433,0,0,1,1.6587.4788c.3865.1334-.3687-.1764.04.0132.1319.0612.2636.1217.3937.1869a9.9484,9.9484,0,0,1,.9181.523q.1985.1274.391.2639c.0626.0444.4515.3791.1078.0754.3.2646.6016.5188.886.801a2.0213,2.0213,0,0,0,2.8585-2.8585,12.6479,12.6479,0,0,0-8.1428-3.6447,11.7444,11.7444,0,0,0-4.1154.3926,2.0218,2.0218,0,1,0,1.0746,3.8981Z"/><path d="M873.8985,907.5676a7.0428,7.0428,0,0,1,.9108-.1974c.5631-.0924-.531.0533.0164-.0041.1878-.02.3756-.0378.5641-.05a11.7516,11.7516,0,0,1,1.3258-.01c.2288.0113.456.0345.6841.0543.4.0347-.5061-.0917-.0006,0,.143.026.2865.0485.4291.0772a12.8372,12.8372,0,0,1,1.6586.4788c.3866.1334-.3686-.1765.04.0131.132.0612.2637.1218.3937.1869a9.9683,9.9683,0,0,1,.9181.523q.1986.1274.3911.2639c.0625.0445.4515.3791.1078.0755.3.2646.6016.5187.886.801a2.0213,2.0213,0,0,0,2.8585-2.8585,12.6481,12.6481,0,0,0-8.1428-3.6447,11.7443,11.7443,0,0,0-4.1154.3925,2.0218,2.0218,0,1,0,1.0746,3.8982Z"/><path d="M868.4679,915.6431a7.0749,7.0749,0,0,1,.9107-.1974c.5631-.0924-.5309.0533.0164-.0041.1879-.02.3756-.0377.5641-.05a11.73,11.73,0,0,1,1.3259-.01c.2287.0112.456.0344.684.0542.4.0347-.5061-.0917-.0005,0,.143.026.2864.0485.429.0772a12.8387,12.8387,0,0,1,1.6587.4788c.3865.1334-.3687-.1764.04.0132.1319.0612.2636.1217.3937.1869a9.9353,9.9353,0,0,1,.9181.523q.1984.1274.391.2639c.0626.0444.4516.3791.1078.0754.3.2646.6016.5188.886.801a2.0213,2.0213,0,0,0,2.8585-2.8585,12.6479,12.6479,0,0,0-8.1428-3.6447,11.7444,11.7444,0,0,0-4.1154.3926,2.0218,2.0218,0,1,0,1.0747,3.8981Z"/><line class="cls-6" x1="866.9505" y1="965.5659" x2="955.9071" y2="877.321"/><path d="M868.38,966.9951l8.8686-8.7977,21.29-21.12,25.652-25.4467,22.1771-22c3.5974-3.5686,7.3522-7.0338,10.8181-10.7315.0482-.0515.1-.1.1505-.1493,1.85-1.8348-1.0088-4.6935-2.8586-2.8585l-8.8686,8.7977-21.29,21.12-25.6521,25.4467-22.1771,22c-3.5974,3.5686-7.3522,7.0338-10.8181,10.7316-.0482.0514-.1.1-.15.1492-1.85,1.8348,1.0088,4.6935,2.8586,2.8585Z"/><path class="cls-5" d="M591.3928,874.7466l-14.0473,91.0122H452.0441s-2.1319-35.5028,44.4982-39.32c8.7853-.7192,14.5761-9.457,18.12-17.5278a49.8888,49.8888,0,0,0,3.92-24.0832"/><path d="M589.4437,874.2093l-1.3981,9.0581-3.3571,21.7508-4.06,26.3081-3.4953,22.6453-1.1595,7.5127a28.717,28.717,0,0,0-.5521,3.5769,1.2985,1.2985,0,0,1-.0247.16l1.9491-1.4839H457.158c-1.6068,0-3.3-.1538-4.902,0-.0692.0066-.1421,0-.2119,0l2.0213,2.0213a18.4,18.4,0,0,1,.0168-1.9565c.0357-.7448.0992-1.4883.1851-2.2289.02-.1695.1271-.9368.0222-.2079.0325-.2255.064-.4512.0992-.6763q.1233-.79.28-1.5747a38.5471,38.5471,0,0,1,2.1012-6.96c.2108-.5186-.169.3822.057-.1353.0681-.1559.1361-.3117.2058-.4668q.2127-.4732.4387-.94.507-1.0476,1.0806-2.0613a35.1522,35.1522,0,0,1,2.6278-3.99,39.7318,39.7318,0,0,1,3.283-3.6469,34.5256,34.5256,0,0,1,4.1945-3.4838,44.8323,44.8323,0,0,1,11.6462-5.7865c5.5464-1.8473,11.1662-2.549,16.935-3.257,6.0721-.7452,10.7481-4.7914,14.2214-9.5882a50.1545,50.1545,0,0,0,8.5714-20.984,45.2547,45.2547,0,0,0,.5729-12.9856,2.0873,2.0873,0,0,0-2.0213-2.0213,2.0329,2.0329,0,0,0-2.0213,2.0213,41.178,41.178,0,0,1-.22,10.5348,48.5224,48.5224,0,0,1-6.753,18.9624c-2.81,4.5749-6.9127,9.2655-12.5435,10.04-3.0768.4234-6.1618.63-9.2241,1.1948a64.4382,64.4382,0,0,0-8.0075,1.9931c-7.9858,2.564-15.5454,6.9174-20.9307,13.449a38.8214,38.8214,0,0,0-7.8277,15.7345,31.9054,31.9054,0,0,0-1.0321,9.0217,2.06,2.06,0,0,0,2.0213,2.0212H561.8955c5.067,0,10.1734.185,15.238,0,.07-.0025.1414,0,.212,0a2.0381,2.0381,0,0,0,1.949-1.4839l1.3981-9.0581,3.3571-21.7508,4.0606-26.308,3.4952-22.6454c.5705-3.6963,1.1643-7.39,1.7116-11.09.0079-.0535.0165-.1069.0248-.16a2.0857,2.0857,0,0,0-1.4118-2.4864,2.0366,2.0366,0,0,0-2.4864,1.4117Z"/><path d="M642.3009,502.7323l-15.7591.3886s-5.4635,17.4312,9.3661,24.9761C650.3145,535.4267,642.3009,502.7323,642.3009,502.7323Z"/><path d="M642.3009,500.711l-15.7591.3886a2.08,2.08,0,0,0-1.9491,1.4839,26.8366,26.8366,0,0,0-.9031,10.6594,20.66,20.66,0,0,0,11.1981,16.5994c2.0351,1.0251,4.4654,1.824,6.7167,1.013a6.9572,6.9572,0,0,0,4.0123-4.5384c1.5218-4.3073,1.0038-9.4126.4538-13.85a89.7761,89.7761,0,0,0-1.8206-10.2717c-.6176-2.5258-4.5169-1.4561-3.8981,1.0747.5753,2.353,1.0138,4.7467,1.3851,7.1393.2956,1.9047.5467,3.9554.6813,6.2251.0675,1.14.1,2.2834.0762,3.4256-.0107.5124-.0324,1.0247-.07,1.5359q-.0268.37-.0643.74c-.0152.1469-.1.7694-.0383.3548a15.2582,15.2582,0,0,1-.6553,2.6939c-.1082.3168.1764-.2932-.08.188-.0872.1633-.1657.33-.26.49-.09.1531-.19.2989-.29.4455.264-.3851.0147-.0273-.1353.1253-.0541.0549-.4843.4082-.2119.2066.2584-.1914-.1267.0582-.2005.1113-.4082.2937.2036-.0274-.075.05-.206.0573-.4065.1142-.6159.1591.45-.0964.1013-.0069-.139-.0132-.1964-.0052-.39-.012-.586-.0288.4757.0408-.0881-.022-.2534-.0631-.26-.0646-.5153-.1362-.769-.2211a16.2182,16.2182,0,0,1-3.7719-2.0765,15.5256,15.5256,0,0,1-3.3476-3.2447A17.1215,17.1215,0,0,1,627.8421,514a23.0592,23.0592,0,0,1-.26-3.8826q.0111-.9107.0822-1.8194.036-.4638.0869-.9263c.0129-.1172.0272-.2342.0409-.3513.047-.4022-.03.1944.0057-.0485a21.6292,21.6292,0,0,1,.6934-3.3137l-1.9491,1.4839,15.7591-.3885C644.8977,504.69,644.9075,500.6467,642.3009,500.711Z"/><path d="M757.1462,483.8684s27.0575,5.2034,30.1795,20.8135-36.4235,19.2524-36.4235,19.2524"/><path d="M756.6089,485.8175a62.8358,62.8358,0,0,1,11.88,3.6719c6.0179,2.4781,12.79,6.3165,15.8054,12.45a12.0741,12.0741,0,0,1,.7831,2.0563,7.8341,7.8341,0,0,1,.3888,1.94,8.2593,8.2593,0,0,1,.0042.8633c-.0082.1689-.0222.3372-.04.5052.047-.4336.0195-.1359.0007-.0415-.06.2981-.1232.5928-.21.8845-.0425.1427-.3562.9458-.1685.5228a11.63,11.63,0,0,1-4.8358,5.0593c-5.2172,3.3088-11.3824,4.96-17.504,6.28q-4.2582.9183-8.5779,1.5169c-.1388.0195-.2776.0384-.4164.0576-.478.0664.4734-.0611.014-.0019-.2376.0306-.475.0619-.7127.0916q-.5709.0714-1.1425.1363c-.3247.0367-.65.0728-.975.1029a2.0762,2.0762,0,0,0-2.0213,2.0213,2.036,2.036,0,0,0,2.0213,2.0213,108.6653,108.6653,0,0,0,11.2165-1.7016c6.5572-1.309,13.3289-3.08,19.1628-6.4445a18.65,18.65,0,0,0,6.6283-5.92,10.7338,10.7338,0,0,0,1.1656-8.6059c-2.0118-7.6671-9.057-12.7978-15.8459-16.072a64.3841,64.3841,0,0,0-15.5459-5.2924c-2.5418-.4913-3.63,3.4042-1.0747,3.8982Z"/><path class="cls-6" d="M706.8609,553.3829,618.2764,717.9258,588.5924,892.669l-106.4142.1207s1.9171-109.85,44.2459-225.8308c28.0038-76.73,92.7949-151.6516,100.2534-163.5417,22.0929-35.22,73.93-56.0075,73.93-56.0075"/><path d="M705.1156,552.3627l-8.4175,15.6352-20.355,37.8088L651.5,651.9518l-22.2183,41.27L617.134,715.7857a8.3112,8.3112,0,0,0-1.0033,2.76l-1.5482,9.1141-6.5543,38.5837L599.2923,817.67l-8.0248,47.24-4.4208,26.0245-.2034,1.1969,1.9491-1.4839-35.9278.0407-57.2951.065-13.1913.015L484.2,892.79c.3421-19.276,2.38-38.6185,4.7276-57.7324a784.5146,784.5146,0,0,1,28.575-135.1886c7.3474-23.8534,15.8738-47.1878,27.1326-69.4911a556.47,556.47,0,0,1,34.1616-57.8866c10.0554-15.07,20.6849-29.7471,31.6343-44.1784,5.9443-7.8346,12.4629-15.4222,17.8542-23.6582,10.0362-15.3317,23.976-27.3149,39.2321-37.2748a216.0209,216.0209,0,0,1,32.236-17.4346q.4011-.1734.8035-.3443c.2289-.0972-.4124.1729.1048-.0433.1608-.0671.3218-.1337.4835-.1986,2.3839-.9579,1.343-4.87-1.0747-3.8982a193.0428,193.0428,0,0,0-23.9448,11.91c-15.5307,8.9174-30.5275,19.6577-42.3485,33.22-4.1155,4.7216-7.3763,9.961-11.06,14.9894-2.8977,3.9553-5.9232,7.8179-8.91,11.7061-10.1469,13.2106-20.129,26.5454-29.6594,40.21a629.4887,629.4887,0,0,0-35.0886,55.869,407.9622,407.9622,0,0,0-28.7216,64.7414c-15.8486,46.144-26.7315,93.9934-33.52,142.2866-3.3218,23.6329-5.9815,47.5295-6.6366,71.4069-.009.33-.0182.66-.024.99a2.0479,2.0479,0,0,0,2.0212,2.0213l35.9278-.0407,57.2952-.065,13.1912-.015a2.0409,2.0409,0,0,0,1.9491-1.4839l3.1158-18.3422,7.3831-43.4627,8.7935-51.7658,7.3709-43.391,2.2214-13.0765.6027-3.5481c.06-.3542.4452-1.7491-.0029-.6822.6438-1.5329,1.6138-2.9975,2.4007-4.4591l6.2743-11.6544,20.4918-38.0628L674.05,618.59l22.0346-40.9285L708.06,555.4169l.5458-1.0138c1.2332-2.2907-2.2556-4.3344-3.4906-2.04Z"/><path class="cls-6" d="M764.2679,458.8912,811.1863,664.49l107.976,163.26-75.3739,74.3228s-75.6725-79.6517-126.8369-192.0148c-33.8492-74.3368-40.2059-173.1837-43.2277-186.89V472.333"/><path d="M762.3188,459.4286l4.3977,19.2707L777.28,524.9878l13.1042,57.4233L802.09,633.7082l6.7007,29.3627c.943,4.1318,4.001,7.5053,6.3105,10.9972l23.645,35.7513,31.87,48.1879,29.7,44.9059,16.325,24.6834.7758,1.1731.3161-2.4494-25.4479,25.093L851.7026,891.43l-9.3434,9.2132h2.8585c-11.5111-12.1229-22.0891-25.2293-32.39-38.3756a799.476,799.476,0,0,1-67.8934-101.6319c-11.9419-21.276-23.3329-43.1653-32.29-65.885A452.6532,452.6532,0,0,1,693.167,630.41c-7.5362-32.6608-11.9015-65.75-16.1652-98.9515-.253-1.97-.5082-3.94-.81-5.9024-.0959-.6235-.1945-1.2469-.3089-1.8674-.05-.2723-.117-.5444-.1587-.818-.0688-.45.034.6365.0206.1177-.0994-3.8567,0-7.73,0-11.5873V472.333c0-2.6012-4.0425-2.6055-4.0425,0v30.0224c0,8.0542-.6332,16.3076.5913,24.2751,1.7114,11.1353,2.8443,22.7841,4.3758,34.1165,2.5186,18.6376,5.5281,37.2129,9.3109,55.6377a515.6394,515.6394,0,0,0,17.3964,64.8985c7.8116,22.5874,18.1383,44.1806,29.2926,65.2894A790.3869,790.3869,0,0,0,802.21,855.067c12.4862,16.442,25.4514,32.6779,39.5433,47.788.2015.2161.4029.4323.6064.6466a2.05,2.05,0,0,0,2.8585,0l25.4479-25.093,40.5826-40.0166,9.3434-9.2132a2.0479,2.0479,0,0,0,.3161-2.4494l-11.5283-17.4308-27.3726-41.3874-32.283-48.812-26.65-40.295-7.7684-11.7458c-.64-.9683-1.2536-1.9628-1.9247-2.91-.14-.1976-.2719-.404-.4022-.6082-.1976-.31.226.7161.13.2923q-2.4562-10.7994-4.9281-21.5951L797.289,594.5129,784.25,537.3741,772.7164,486.835l-6.208-27.2041-.2915-1.277c-.5785-2.5353-4.477-1.4623-3.8981,1.0747Z"/><path class="cls-1" d="M787.3257,503.3405c-15.61-16.8256-160.5237-.48-160.5237-.48L653.44,345.3912c1.0356-10.2177,9.0422-17.9563,18.5782-17.9563h63.63c10.3612,0,15.7742,4.2845,20.2215,19.49C755.87,346.9252,782.6427,452.8637,787.3257,503.3405Z"/><path class="cls-4" d="M654.9,327.4349h80.7482c10.3612,0,15.7742,4.2845,20.2215,19.49,0,0,26.7729,105.9385,31.4559,156.4153-15.61-16.8256-160.7839-.22-160.7839-.22L645.72,393.0825"/><path d="M654.9,329.4562h68.3647c4.2658,0,8.5349-.0486,12.8006.0026,4.8651.0584,9.078,1.3384,12.1449,5.2452,2.886,3.6762,4.5839,8.5039,5.7636,12.9692,1.0977,4.1553,2.073,8.3472,3.0881,12.523q3.3108,13.6194,6.4646,27.2763,4.1379,17.9114,7.9812,35.8891c2.7134,12.7484,5.2979,25.5261,7.6354,38.3492,2.0872,11.45,4.0241,22.955,5.4,34.4981q.4244,3.561.7614,7.1316l3.4505-1.4292c-2.2415-2.388-5.6344-3.5975-8.7018-4.4784a82.7413,82.7413,0,0,0-14.2195-2.4744c-13.04-1.3667-26.2378-1.3255-39.3308-1.0443-14.8331.3186-29.6548,1.1293-44.4533,2.1722q-18.6915,1.3173-37.3436,3.1338-6.0925.5885-12.18,1.2287c-1.8822.1987-3.8815.24-5.7381.6228-.08.0165-.1649.0186-.246.0279l1.9491,2.5586,1.9075-10.9447,4.5809-26.2837,5.5417-31.7966,4.79-27.4837c.7751-4.4473,1.6011-8.8891,2.3258-13.345.01-.0617.0215-.1231.0322-.1847a2.08,2.08,0,0,0-1.4117-2.4864,2.0384,2.0384,0,0,0-2.4865,1.4117L641.8634,403.49l-4.5809,26.2836L631.7408,461.57l-4.79,27.4838c-.7751,4.4472-1.6012,8.8891-2.3259,13.3449-.01.0617-.0214.1232-.0322.1847-.1993,1.1439.5236,2.7216,1.9491,2.5586,4.8353-.5528,9.6782-1.0433,14.5212-1.523q17.5674-1.74,35.1729-3.0672c14.6739-1.1,29.3691-1.98,44.0782-2.4328a384.6328,384.6328,0,0,1,40.5044.4353,101.695,101.695,0,0,1,14.8214,1.9467,43.1852,43.1852,0,0,1,5.54,1.5365c.4075.1468.81.3051,1.2107.4685-.4653-.19-.1-.0442.1331.0638.1954.0906.3908.1807.5838.2762a16.91,16.91,0,0,1,1.7831,1.0358c.1251.0821.2411.1767.3632.2628-.5846-.412-.135-.1131-.0052.0076.2194.2043.4423.3984.648.6175,1.1317,1.2057,3.6155.34,3.4505-1.4293-1.0446-11.1981-2.767-22.3346-4.6627-33.4162-2.202-12.8714-4.7071-25.69-7.3546-38.4768q-3.872-18.7009-8.1324-37.3189-3.4185-15.0245-7.027-30.0051-1.9782-8.2155-4.02-16.4155c-1.9389-7.7521-5.3329-17.1952-13.239-20.6217-4.9916-2.1634-10.7213-1.6727-16.0525-1.6727H654.9c-2.6011,0-2.6055,4.0426,0,4.0426Z"/><path class="cls-6" d="M575.7107,975H450.254s1.4319-15.257,4.2584-22.6011l23.7453.1981,5.4359-2.1414a36.883,36.883,0,0,1,26.2124-.3135l6.1568,2.2568H541.25a13.0868,13.0868,0,0,0,11.8968-7.6341v0a13.0871,13.0871,0,0,1,11.8969-7.6341h16.8276Z"/><path d="M575.7107,972.9787H455.3613c-1.6048,0-3.2961-.1534-4.8957,0-.0692.0067-.1419,0-.2116,0L452.2753,975c.2574-2.7287.61-5.4513,1.02-8.1608a67.9567,67.9567,0,0,1,3.1661-13.9029l-1.949,1.4839,22.1661.1849a6.59,6.59,0,0,0,2.5862-.244c1.7253-.68,3.4463-1.3714,5.1767-2.0378a35.536,35.536,0,0,1,25.0259-.1959c1.8544.6748,3.7057,1.3583,5.5585,2.0375a6.7845,6.7845,0,0,0,2.4671.2553h12.6518c3.6072,0,7.2147.0131,10.8219,0a15.7669,15.7669,0,0,0,7.617-1.9007,14.6434,14.6434,0,0,0,4.1826-3.4412,30.72,30.72,0,0,0,2.7114-4.42,11.1585,11.1585,0,0,1,8.1188-5.4264,33.1863,33.1863,0,0,1,4.2187-.08h14.0564l-1.9491-2.5586L574.53,969.74l-.7683,4.7226a2.0832,2.0832,0,0,0,1.4118,2.4864,2.0373,2.0373,0,0,0,2.4864-1.4118l5.3925-33.1468.7683-4.7226a2.0539,2.0539,0,0,0-1.9491-2.5586h-10.76c-4.4665,0-8.979-.3885-13.0911,1.7353a14.6663,14.6663,0,0,0-4.263,3.3364,23.0421,23.0421,0,0,0-2.7637,4.3755,11.206,11.206,0,0,1-7.9467,5.6828,21.5345,21.5345,0,0,1-3.6168.1384H519.8135a28.2656,28.2656,0,0,0-3.5954,0c-.4114.0543.2788-.212.354.0619-.0244-.0889-.6775-.2483-.7668-.2811l-3.1948-1.1711a49.6736,49.6736,0,0,0-8.4393-2.4837,39.9016,39.9016,0,0,0-13.4695-.0764,44.2266,44.2266,0,0,0-9.0574,2.6749l-3.1562,1.2433c-.03.0119-.7531.3026-.7554.2976-.0417-.0926.8332-.01.3351-.0689a36.574,36.574,0,0,0-3.9492-.033l-6.8625-.0572-12.0147-.1-.729-.006a2.0857,2.0857,0,0,0-1.9491,1.4839,68.7885,68.7885,0,0,0-3.2116,14.2049c-.4429,2.9666-.8372,5.9467-1.119,8.9335a2.04,2.04,0,0,0,2.0213,2.0213H560.2792c5.061,0,10.1612.1846,15.22,0,.07-.0026.1412,0,.2116,0C578.3119,977.0213,578.3162,972.9787,575.7107,972.9787Z"/><path d="M506.0641,923.3263c.1752.0925.343.2008.508.31.1029.0682.5284.2841.5522.3932-.0079-.036-.4728-.3753-.2115-.1624.0516.0421.1038.0833.1551.1256q.1936.1595.38.3272.3755.3372.7212.7057.1965.21.3827.4291c.0595.07.1167.1422.1758.2126.1929.23-.298-.4056-.0553-.0727a11.6766,11.6766,0,0,1,.7137,1.09q.1713.3.3222.6115c.0477.0984.0919.1984.1382.2975.136.2906-.1637-.4335-.011-.0184a11.0445,11.0445,0,0,1,.4785,1.6455c.0287.1434.049.2884.0767.4319.043.2234-.0282-.2328-.0276-.2207.0037.0858.02.1728.0289.2584.0357.3586.0507.7182.0529,1.0784a2.0213,2.0213,0,1,0,4.0425,0,12.8766,12.8766,0,0,0-5.6812-10.4908,6.7527,6.7527,0,0,0-.702-.4423,2.0216,2.0216,0,0,0-2.04,3.4907Z"/><path d="M497.7937,927.78c.1752.0925.3431.2009.508.31.103.0683.5284.2842.5522.3932-.0078-.036-.4727-.3752-.2114-.1623.0515.042.1037.0833.155.1255q.1936.16.38.3273.3756.3372.7212.7057.1966.21.3827.429c.06.07.1167.1422.1758.2127.1929.23-.298-.4056-.0553-.0727a11.61,11.61,0,0,1,.7137,1.09q.1713.3.3223.6115c.0476.0984.0918.1984.1381.2974.136.2907-.1637-.4334-.011-.0184a11.04,11.04,0,0,1,.4785,1.6455c.0288.1435.0491.2884.0767.432.043.2233-.0281-.2329-.0276-.2207.0037.0858.02.1728.0289.2584.0357.3586.0507.7181.0529,1.0784a2.0213,2.0213,0,0,0,4.0426,0,12.8768,12.8768,0,0,0-5.6813-10.4908,6.7527,6.7527,0,0,0-.702-.4423,2.0216,2.0216,0,0,0-2.04,3.4906Z"/><path d="M488.251,929.6881c.1752.0925.343.2008.508.31.1029.0683.5284.2842.5522.3932-.0079-.036-.4728-.3752-.2115-.1623.0516.042.1038.0832.1551.1255q.1936.16.38.3273.3754.337.7211.7056.1967.21.3828.4291c.06.07.1167.1422.1758.2126.1929.23-.298-.4055-.0553-.0727a11.6766,11.6766,0,0,1,.7137,1.09q.1713.3.3222.6115c.0477.0985.0919.1984.1382.2975.1359.2907-.1637-.4335-.011-.0184a11.048,11.048,0,0,1,.4785,1.6455c.0287.1434.049.2884.0767.4319.043.2234-.0282-.2328-.0277-.2207.0038.0858.02.1728.029.2584.0357.3586.0507.7182.0529,1.0785a2.0213,2.0213,0,0,0,4.0425,0,12.8763,12.8763,0,0,0-5.6812-10.4908,6.7465,6.7465,0,0,0-.702-.4423,2.0216,2.0216,0,0,0-2.04,3.4906Z"/><path d="M436.9062,860.312c-5.5-.4769-10.547,4.2091-13.1909,8.4864a36.0175,36.0175,0,0,0-4.0511,10.0972l1.9852.2687c-.6249-12.4069-2.4065-24.9268-6.4131-36.7241-2.4459-7.202-5.7372-14.91-11.2772-20.3176-2.9611-2.8905-7.5891-5.4676-11.4111-2.5313a11.6923,11.6923,0,0,0-3.6662,5.9853,36.4926,36.4926,0,0,0-1.3155,10.6673c-.0113,12.5241,3.07,25.0976,6.5876,37.0333q.91,3.0894,1.8964,6.1557l1.6892-.9833a85.4,85.4,0,0,0-19.5281-13.9c-5.0868-2.5708-10.7132-4.7866-16.4672-5.0885-3.3427-.1754-7.5625.4739-9.188,3.8333-1.9417,4.0127.642,8.9428,2.7715,12.31a66.6672,66.6672,0,0,0,8.49,10.4481,163.496,163.496,0,0,0,14.6508,13.2417l.7147-1.7253a65.9525,65.9525,0,0,0-18.105,2.0853,34.3846,34.3846,0,0,0-12.4433,5.8512c-2.5763,2.0431-4.7932,4.8324-5.1419,8.2015-.3529,3.41,1.495,6.5163,3.8924,8.7882,4.6975,4.4514,11.2655,6.7856,17.3607,8.5443v-1.9491c-6.3763.9987-13.4275,3.4315-16.7389,9.4258a16.7318,16.7318,0,0,0-1.4446,11.384,14.3077,14.3077,0,0,0,.6855,2.4731l1.6892-.9833a18.3573,18.3573,0,0,0-12.6509-5.8644c-6.64-.2157-15.0274,4.0193-16.7343,10.911a9.0786,9.0786,0,0,0-.116,4.3328l1.4846-1.1413c-5.5763-2.4842-14.3646-4.2107-18.802,1.1883-2.0908,2.544-2.6379,5.9278-2.6594,9.13a1.0113,1.0113,0,0,0,2.0213,0c.03-4.5268,1.474-9.1372,6.33-10.297,3.2691-.7807,6.8276-.0591,9.9678.95.5556.1786,1.1068.3718,1.6507.5835.1663.0648.3315.1322.4967.2.0948.0386-.2484-.1089-.0254-.01a1.025,1.025,0,0,0,1.4846-1.1413,1.65,1.65,0,0,1-.0948-.5983,8.5934,8.5934,0,0,1,.0668-1.9706,10.0567,10.0567,0,0,1,3.5074-5.8982,16.1127,16.1127,0,0,1,19.0565-1.8221,15.7525,15.7525,0,0,1,3.5869,2.8764c.6446.725,2.0646-.0387,1.6892-.9833-2.3411-5.89-.7383-12.9744,4.5623-16.6982,3.385-2.3781,7.488-3.4662,11.524-4.0983,1.0341-.162.887-1.6931,0-1.9491-5.2824-1.5242-10.8-3.46-15.1732-6.9043-2.3646-1.8627-4.65-4.4776-4.6425-7.6587.0069-2.8473,1.861-5.2546,3.9225-7.0368a29.8175,29.8175,0,0,1,11.0427-5.55,62.6367,62.6367,0,0,1,18.75-2.35c.8151.0107,1.4137-1.1564.7146-1.7252-7.5562-6.148-15.189-12.7443-21.0033-20.6285-2.3045-3.1249-5.8028-8.0525-4.8519-12.1061a4.0062,4.0062,0,0,1,2.0973-2.7333,9.8538,9.8538,0,0,1,4.6623-.9421c5.1167.0165,10.2479,1.9144,14.8139,4.07A81.9628,81.9628,0,0,1,396.31,879.8789a1.0186,1.0186,0,0,0,1.6892-.9833c-3.9793-12.431-7.4991-25.3635-8.2819-38.4522a48.2979,48.2979,0,0,1,.4515-11.5815,15.2686,15.2686,0,0,1,2.5917-6.6734,4.494,4.494,0,0,1,3.8755-1.8934,6.9519,6.9519,0,0,1,2.2808.6221,12.3889,12.3889,0,0,1,2.6559,1.7584c5.2334,4.4707,8.4067,11.3606,10.7736,17.6668,4.026,10.7267,6.0352,22.1855,6.944,33.5737q.2092,2.6214.3376,5.2482a1.0155,1.0155,0,0,0,1.9852.2686c1.484-5.8262,4.1023-12.2256,9.5186-15.4479a10.2,10.2,0,0,1,5.7743-1.6517c1.2957.1123,1.2882-1.91,0-2.0213Z"/><path d="M433.6827,929.7968a45.97,45.97,0,0,0-2.5665-6.4051c-1.6314-3.3882-3.7488-7.0014-6.9638-9.112a7.0876,7.0876,0,0,0-9.6178,1.3763c-2.3145,3.14-1.5541,7.6959-.628,11.1915a42.435,42.435,0,0,0,3.2358,8.4508l1.1413-1.4846c-4.5365-1.85-10.5894-2.6347-15.0173-.167-1.8946,1.0559-3.04,2.856-2.2284,5.0142a12.0332,12.0332,0,0,0,4.0916,4.783,31.8958,31.8958,0,0,0,3.9792,2.7121v-1.7453c-4.017,2.61-6.5287,7.5344-3.511,11.8778.7371,1.0609,2.49.0516,1.7453-1.02a5.2763,5.2763,0,0,1,.14-6.5888,10.4925,10.4925,0,0,1,2.6456-2.5235,1.0217,1.0217,0,0,0,0-1.7453,20.545,20.545,0,0,1-6.5387-5.28c-.9809-1.3529-1.1492-2.6061.3923-3.5611,2.5175-1.56,5.7365-1.6177,8.5818-1.1839a23.0033,23.0033,0,0,1,5.1819,1.3775c.8836.36,1.5011-.784,1.1414-1.4846a40.7589,40.7589,0,0,1-2.4086-5.8755c-1.0316-3.1367-2.1685-7.1138-.9581-10.3569,1.1593-3.106,4.8081-3.7725,7.4359-2.1334,2.8211,1.76,4.664,4.9942,6.1136,7.8876a42.5763,42.5763,0,0,1,2.6631,6.5341c.3806,1.24,2.3323.7111,1.9491-.5373Z"/><path d="M656.6579,499.9571l-.0385,16.7418c-.016,6.9552-.7,14.3676,1.7853,20.9962,1.5667,4.18,3.7976,8.1692,5.7386,12.1781l9.8276,20.2981,6.4087,13.2366c1.1334,2.3409,4.62.2934,3.4906-2.04l-14.9895-30.96c-1.9569-4.0417-3.9449-8.07-5.8711-12.1263-2.8848-6.0749-2.3681-12.6853-2.3531-19.2007l.0439-19.1238c.006-2.6014-4.0365-2.6052-4.0425,0Z"/><path class="cls-3" d="M712.2538,328.1915V304.5944c4.3622-1.9661,7.636-4.5742,9.12-7.8032,7.3122-15.9094,0-73.9987,0-73.9987H652.9831s-10.3233,57.2534,0,73.9987c3.4977,5.6738,11.6395,9.3266,21.1582,11.061l-.072,40.5521,19.539-2.6951"/><path d="M714.275,328.1915V304.5944l-1.0011,1.7453c4.1006-1.8807,8.1717-4.6756,10.0292-8.9443a30.8155,30.8155,0,0,0,1.9785-6.9774,112.5727,112.5727,0,0,0,1.3626-19.23,381.87,381.87,0,0,0-2.269-39.5509c-.2987-2.9509-.61-5.902-.98-8.845a2.0735,2.0735,0,0,0-2.0213-2.0213H652.9831a2.0421,2.0421,0,0,0-1.949,1.484c-1.6782,9.3188-2.844,18.7638-3.6858,28.1912a203.8642,203.8642,0,0,0-.9255,23.5282c.1746,6.5692.6217,13.5157,2.9016,19.74a19.8981,19.8981,0,0,0,7.1955,9.5642c4.9507,3.594,11.141,5.419,17.0841,6.5222l-1.4839-1.9491-.0631,35.4726-.009,5.0795a2.0568,2.0568,0,0,0,2.5586,1.949l19.539-2.695a2.0337,2.0337,0,0,0,1.4118-2.4864,2.0757,2.0757,0,0,0-2.4865-1.4118l-19.539,2.6951,2.5587,1.9491.063-35.4727.009-5.0794a2.0426,2.0426,0,0,0-1.4839-1.9491c-5.1044-.9475-10.2566-2.39-14.6963-5.159a17.1448,17.1448,0,0,1-4.5785-3.9785,13.51,13.51,0,0,1-1.1883-1.891q-.21-.3947-.4-.7995c-.0521-.11-.1022-.2217-.1533-.3327q-.0762-.1692-.1495-.34.1044.248.0223.0477c-2.3592-5.8041-2.8061-12.064-3.0307-18.2428a192.4355,192.4355,0,0,1,.72-22.8166c.536-6.4857,1.3178-13.2386,2.1874-19.366.46-3.2377.9415-6.4761,1.5212-9.695l-1.9491,1.484H721.374l-2.0212-2.0213c.9864,7.8455,1.6958,15.7349,2.2667,23.62.9622,13.2893,1.808,26.9449.1734,40.2141a41.4826,41.4826,0,0,1-1.67,7.8568c-.0882.2591-.1832.5154-.2787.7718-.0369.0991-.0774.1969-.1162.2952-.1729.4375.1443-.2977-.0371.0838a10.7923,10.7923,0,0,1-1.8007,2.7488,20.3975,20.3975,0,0,1-6.6564,4.4659,1.9882,1.9882,0,0,0-1.0011,1.7453v23.5971c0,2.6012,4.0425,2.6055,4.0425,0Z"/><path d="M674.25,257.7483a8.1712,8.1712,0,0,1,.98-.5351c.09-.0433.1818-.0842.2727-.1267.3686-.1723-.0451-.0424-.0728.0275.032-.0809.4971-.193.5836-.224a13.7231,13.7231,0,0,1,1.6159-.469c.2962-.0665.594-.119.8932-.17.3908-.0666-.1875.0075.0678-.0071.18-.01.3594-.0351.5393-.047a13.6535,13.6535,0,0,1,2.1247.0377c.2057.0185-.1731-.0383.1809.0223.2108.0361.4207.0738.63.1186.4.0856.795.1918,1.1846.3158a10.98,10.98,0,0,1,2.3205,1.057,2.0216,2.0216,0,0,0,2.04-3.4906,15.2779,15.2779,0,0,0-10.74-1.8021,13.3793,13.3793,0,0,0-4.6611,1.8021,2.068,2.068,0,0,0-.7251,2.7655,2.0416,2.0416,0,0,0,2.7654.7251Z"/><path d="M650.4926,257.21c-.4148.19-.3471.1269.0312-.0017.4775-.1623.9543-.315,1.4442-.4372a16.1294,16.1294,0,0,1,4.4092-.4445,6.0372,6.0372,0,0,1,5.7765,4.1845c.7327,2.4388-.2693,5.1977-1.3981,7.3646a22.3129,22.3129,0,0,1-2.9069,4.27,4.7458,4.7458,0,0,0-1.5156,2.4151,5.3311,5.3311,0,0,0,.0323,2.0615c.8172,3.3284,4.58,3.545,7.3831,3.22a2.0831,2.0831,0,0,0,2.0213-2.0213,2.0339,2.0339,0,0,0-2.0213-2.0213,14.2149,14.2149,0,0,1-2.2355.1291c-.2468-.01-.4338-.0265-.659-.0569-.0587-.0079-.664-.1559-.3433-.0634-.09-.026-.4936-.3433-.2011-.0935-.31-.2649.2234.02-.0841-.143q.1434.3186.0381-.0247l.0244.1544a2.9015,2.9015,0,0,0,.0224-.5757l-.52.8919c4.41-4.7379,9.2376-12.7921,5.0838-19.1427-3.5059-5.36-11.0209-5.63-16.4222-3.1564a2.0371,2.0371,0,0,0-.7251,2.7655,2.0687,2.0687,0,0,0,2.7655.7251Z"/><path d="M669.0981,286.11a11.08,11.08,0,0,0,6.4084-2.5024,7.1366,7.1366,0,0,0,1.8012-2.3077,2.162,2.162,0,0,0,.2038-1.5576,2.0218,2.0218,0,0,0-3.6944-.4828,5.8546,5.8546,0,0,1-.6.9786l.3161-.4091a6.2679,6.2679,0,0,1-1.0908,1.0856l.409-.3161a7.9983,7.9983,0,0,1-1.74.9971l.4828-.2037a10.4764,10.4764,0,0,1-2.61.7031l.5373-.0722c-.1407.0186-.2821.0363-.4238.0447a2.0213,2.0213,0,1,0,0,4.0425Z"/><path d="M702.8692,271.3552a35.6389,35.6389,0,0,1,1.3018-3.9237,2.91,2.91,0,0,1,.3163-.7831c-.0085.01-.21.4865-.077.1839.0294-.0666.0577-.1336.0869-.2q.0994-.2269.2025-.4523c.2548-.5563.5267-1.1052.8229-1.6406a16.111,16.111,0,0,1,.9434-1.5172c.0428-.06.3578-.4746.1193-.1709s.08-.0947.1272-.1507a8.0657,8.0657,0,0,1,.5609-.6038c.1107-.1071.2315-.2031.3429-.3089.2-.19-.46.2984-.021.0213.1085-.0685.2135-.1406.3256-.2036.0485-.0272.0988-.0513.1471-.0786.21-.1191.2751-.0084-.1845.0691.1127-.019.23-.0832.3424-.1129.0508-.0135.1044-.0209.1543-.0367.3035-.0964-.1984.04-.2641.0287a2.3822,2.3822,0,0,0,.3974-.0131c.4588-.0106-.5163-.1046-.05-.008a2.0218,2.0218,0,0,0,1.0747-3.8982c-3.1168-.6451-5.4376,1.61-6.9773,4.0465a30.9884,30.9884,0,0,0-3.1015,7.0419c-.1749.5413-.3444,1.086-.4884,1.6365a2.0218,2.0218,0,0,0,3.8981,1.0747Z"/><circle cx="655.147" cy="264.1057" r="2.4023"/><path d="M656.5387,264.1057c-.0009.0671-.0058.1335-.0082.2-.0069.1879-.0039-.0646.0118-.0729a1.7539,1.7539,0,0,0-.0743.3144.8888.8888,0,0,0-.0638.18c-.0089-.0193.1114-.2219.0243-.0679-.0625.1106-.1239.2172-.1933.3237-.1132.1737.1255-.114.0231-.0319a1.3476,1.3476,0,0,0-.1052.1156q-.0436.0447-.09.0872l-.0464.0419q-.1232.1029.0588-.04c-.0582.0008-.212.1427-.2629.1713-.0365.0206-.0751.0381-.1115.0589-.1681.0965.2176-.0625-.0216.0091-.1032.0309-.2038.0646-.3095.0866-.1911.04-.0017-.042.0428,0a.7076.7076,0,0,0-.1655.0122c-.1122.0047-.2221-.0038-.3339-.0091-.1463-.0069.258.0525.0416.0035-.0633-.0144-.1261-.0272-.1887-.0447s-.1215-.0395-.1826-.0591c-.1382-.0443.0538-.0209.0655.0288-.0072-.03-.233-.1231-.2766-.1507s-.0848-.0627-.13-.0884c-.1166-.0668.182.1682.0335.0213a3.0786,3.0786,0,0,0-.2616-.2685c.0429-.0041.1228.1774.0435.0557-.0344-.0527-.0706-.1036-.1029-.1577-.0215-.036-.0421-.0727-.0617-.11l-.0288-.0562q-.0686-.1471.0244.0679c.0184-.0463-.0848-.25-.0985-.3043-.01-.042-.0186-.0843-.0281-.1265-.0454-.2.0161.2386-.002-.0244a2.4411,2.4411,0,0,1-.0023-.3012c.0059-.1065.0748-.2232-.0073.0066a1.1723,1.1723,0,0,0,.0248-.1277c.0234-.1052.0583-.2054.0906-.3078.0667-.2114-.1114.2-.0016.0084.0314-.0546.0581-.1117.0905-.1659.0269-.045.0573-.0876.0851-.132.1013-.1618.0308.0354-.0257.03a2.5642,2.5642,0,0,0,.2151-.2266c.0481-.0444.1658-.0852.0409-.0423-.137.0471.007-.0041.0491-.0323a2.3451,2.3451,0,0,0,.3291-.1851c-.0022.0146-.24.0852-.0655.0289.061-.02.1208-.0419.1826-.0592.0414-.0116.0833-.022.1252-.0314.0338-.0075.2312-.0206.0583-.0157-.1819.0052.0375,0,.0628-.0018.0559-.0031.1117-.004.1676-.0032s.1111.006.1668.0078c.2162.007-.2017-.0485-.0088,0,.1258.0314.2479.0645.3714.1038.2006.0638-.1449-.0928-.037-.0152.0576.0413.133.0674.1945.1041.0359.0215.0714.0439.1061.0673s.0688.0474.1023.0725q-.182-.1427-.0588-.04l.2209.2209c.1543.1545-.122-.1916-.0028-.0082.0343.0529.0705.1036.1028.1578s.0594.1111.0905.1659c.095.1677-.065-.2073-.0015-.0084.0395.1239.0722.2452.1038.3713.0355.142-.05-.0283-.0067-.0745a1.253,1.253,0,0,0,.0146.2661,1.0107,1.0107,0,1,0,2.0213,0,3.4712,3.4712,0,0,0-2.283-3.2176,3.4045,3.4045,0,0,0-3.7106.99,3.4105,3.4105,0,1,0,5.9936,2.2274,1.0107,1.0107,0,0,0-2.0213,0Z"/><circle cx="677.7733" cy="264.1057" r="2.4023"/><path d="M679.165,264.1057c-.001.0671-.0058.1335-.0083.2-.0068.1879-.0039-.0646.0119-.0729a1.7533,1.7533,0,0,0-.0744.3144.8888.8888,0,0,0-.0638.18c-.0089-.0193.1114-.2219.0244-.0679-.0626.1106-.124.2172-.1934.3237-.1131.1737.1256-.114.0232-.0319a1.3325,1.3325,0,0,0-.1053.1156q-.0437.0447-.09.0872l-.0464.0419q-.1231.1029.0588-.04c-.0581.0008-.212.1427-.2628.1713-.0366.0206-.0752.0381-.1115.0589-.1681.0965.2176-.0625-.0217.0091-.1031.0309-.2037.0646-.31.0866-.191.04-.0016-.042.0428,0a.7079.7079,0,0,0-.1655.0122c-.1122.0047-.2221-.0038-.3339-.0091-.1463-.0069.258.0525.0417.0035-.0633-.0144-.1261-.0272-.1887-.0447s-.1216-.0395-.1827-.0591c-.1382-.0443.0538-.0209.0655.0288-.0072-.03-.2329-.1231-.2765-.1507s-.0848-.0627-.13-.0884c-.1165-.0668.182.1682.0335.0213a3.05,3.05,0,0,0-.2616-.2685c.0429-.0041.1229.1774.0435.0557-.0344-.0527-.0705-.1036-.1028-.1577-.0216-.036-.0422-.0727-.0618-.11l-.0287-.0562q-.0687-.1471.0243.0679c.0184-.0463-.0848-.25-.0985-.3043-.01-.042-.0185-.0843-.0281-.1265-.0454-.2.0161.2386-.002-.0244a2.4411,2.4411,0,0,1-.0023-.3012c.0059-.1065.0748-.2232-.0072.0066a1.1489,1.1489,0,0,0,.0247-.1277c.0234-.1052.0583-.2054.0906-.3078.0667-.2114-.1114.2-.0015.0084.0313-.0546.0581-.1117.0905-.1659.0268-.045.0572-.0876.085-.132.1013-.1618.0309.0354-.0257.03a2.5791,2.5791,0,0,0,.2152-.2266c.048-.0444.1657-.0852.0408-.0423-.137.0471.0071-.0041.0491-.0323a2.3394,2.3394,0,0,0,.3291-.1851c-.0021.0146-.24.0852-.0655.0289.0611-.02.1208-.0419.1827-.0592.0414-.0116.0832-.022.1251-.0314.0338-.0075.2312-.0206.0584-.0157-.182.0052.0374,0,.0627-.0018.0559-.0031.1118-.004.1677-.0032s.1111.006.1667.0078c.2162.007-.2016-.0485-.0088,0,.1258.0314.2479.0645.3714.1038.2006.0638-.1449-.0928-.037-.0152.0576.0413.1331.0674.1945.1041.0359.0215.0714.0439.1061.0673s.0688.0474.1023.0725q-.182-.1427-.0588-.04.11.11.2209.2209c.1543.1545-.122-.1916-.0028-.0082.0344.0529.0705.1036.1029.1578s.0594.1111.0905.1659c.095.1677-.0651-.2073-.0016-.0084.04.1239.0723.2452.1038.3713.0355.142-.05-.0283-.0066-.0745a1.253,1.253,0,0,0,.0146.2661,1.0106,1.0106,0,1,0,2.0212,0,3.4713,3.4713,0,0,0-2.2829-3.2176,3.4046,3.4046,0,0,0-3.7107.99,3.4105,3.4105,0,1,0,5.9936,2.2274,1.0106,1.0106,0,1,0-2.0212,0Z"/><path d="M452.0441,966.1H561.8955c5.067,0,10.1734.1849,15.238,0,.07-.0025.1414,0,.212,0,2.6011,0,2.6054-4.0425,0-4.0425H467.494c-5.067,0-10.1733-.1849-15.238,0-.07.0025-.1414,0-.2119,0-2.6012,0-2.6055,4.0425,0,4.0425Z"/><path class="cls-4" d="M660.3064,427.88,557.92,425.4962c1.8607-7.1815,14.2456-35.2121,15.2534-44.6884,1.5081-14.181,1.4369-27.0028.1014-35.616L673.9,348.4043l9.6779-16.394a15.99,15.99,0,0,1,13.77-7.8614H711.8v-7.3142h0a18.4267,18.4267,0,0,1,17.2685,11.9967l.6392,2.855a5.9787,5.9787,0,0,1-5.8343,7.2852H709.1047"/><path d="M660.3064,425.8582l-10.1731-.2368-24.4345-.5687-29.5686-.6883-25.5754-.5953-8.438-.1965a38.5181,38.5181,0,0,0-4.017-.0935,1.7412,1.7412,0,0,1-.18-.0041l1.949,2.5586a102.1914,102.1914,0,0,1,3.7041-10.4536c1.94-5.0587,3.92-10.102,5.8026-15.1824,1.74-4.6938,3.4649-9.4218,4.7609-14.2611,1.5767-5.8878,1.7671-12.1362,2.0213-18.1951a120.9867,120.9867,0,0,0-.934-23.2869l-1.9491,2.5586,9.99.319,23.9985.7661,29.0476.9273,25.1374.8025c4.0747.13,8.2023.4662,12.28.3921.0567-.0011.1141.0036.1708.0054a2.0206,2.0206,0,0,0,1.7453-1.0011l8.9015-15.0789c1.8987-3.2163,4.2538-5.9725,7.8928-7.292,3.1562-1.1444,6.5072-.8833,9.8046-.8833H711.8a2.0507,2.0507,0,0,0,2.0213-2.0213v-7.3142L711.8,318.8559a16.44,16.44,0,0,1,11.2245,4.4392,16.8924,16.8924,0,0,1,3.67,5.0723,16.3036,16.3036,0,0,1,1.0165,3.6449c.6111,2.8409-1.5185,4.9258-4.26,4.9381-2.4863.011-4.9729,0-7.4591,0h-6.8869c-2.6012,0-2.6055,4.0425,0,4.0425,4.891,0,9.7919.0986,14.6817,0a8.0794,8.0794,0,0,0,7.9824-9.1673,19.3705,19.3705,0,0,0-4.9163-10.4021,20.5592,20.5592,0,0,0-15.0527-6.61,2.0506,2.0506,0,0,0-2.0213,2.0213v7.3142l2.0213-2.0212h-8.59c-3.3236,0-6.83-.27-10.0883.5029a18.4444,18.4444,0,0,0-11.5385,8.7808q-2.4578,4.1519-4.9056,8.31l-4.5235,7.6628L673.9,346.383l-9.99-.319-23.9986-.7661-29.0476-.9273-25.1374-.8026c-4.0746-.13-8.2023-.4661-12.28-.392-.0568.001-.1141-.0036-.1709-.0054a2.0523,2.0523,0,0,0-1.949,2.5586,110.64,110.64,0,0,1,.8763,19.7377c-.1143,4.0565-.3671,8.1089-.7351,12.15-.0894.9818-.1826,1.9636-.2889,2.9437-.0114.106-.108.85-.0354.3537q-.0444.3031-.097.6051c-.1487.8587-.3412,1.71-.5518,2.5551-2.4583,9.87-6.56,19.3739-10.2089,28.8441a116.2211,116.2211,0,0,0-4.3141,12.04,2.0454,2.0454,0,0,0,1.9491,2.5586l10.1731.2368,24.4345.5688,29.5686.6883,25.5754.5953c4.1342.0962,8.32.3927,12.4549.29.06-.0015.12.0028.18.0042,2.6024.0606,2.6014-3.982,0-4.0426Z"/><path d="M558.2918,425.41c3.4564.3676,7.3516-7.2778,10.4434-19.2107l-16.6176-1.8914C552.6209,416.6928,554.8237,425.0414,558.2918,425.41Z"/><path d="M558.2918,427.4316c3.2494.2616,5.57-3.2088,6.9244-5.6638a64.9068,64.9068,0,0,0,5.4681-15.0308,2.0552,2.0552,0,0,0-1.9491-2.5586l-16.6176-1.8915a2.0316,2.0316,0,0,0-2.0213,2.0213c.2263,5.3521.6177,10.9126,2.1862,16.0659.9314,3.06,2.466,6.59,6.0093,7.0575a2.0312,2.0312,0,0,0,2.0213-2.0213,2.0732,2.0732,0,0,0-2.0213-2.0213c.6324.0834.2349.0068.0922-.0208-.3305-.0639.2958.1727.1054.0489a2.74,2.74,0,0,1-.2629-.15c-.3417-.28.3305.3309.0007.0053-.1682-.1661-.3333-.3275-.4891-.506-.3239-.3709.2222.35-.058-.0873-.0752-.1173-.1531-.2324-.2258-.3513a13.6161,13.6161,0,0,1-1.5468-3.9884,65.1623,65.1623,0,0,1-1.7686-14.031l-2.0213,2.0213,16.6176,1.8914-1.9491-2.5586a64.3729,64.3729,0,0,1-4.7021,13.3938,14.6863,14.6863,0,0,1-2.3262,3.5182c-.1049.1078-.7761.6821-.37.38-.19.1417-.4.2482-.5951.38-.2962.2.2805-.0788.0691-.0205-.0762.021-.2122.1058-.2939.09-.4009-.0784.4637.1061.07-.0041a2.0723,2.0723,0,0,0-.347-.01,2.0381,2.0381,0,0,0-2.0213,2.0213A2.062,2.062,0,0,0,558.2918,427.4316Z"/><path class="cls-1" d="M674.0713,308.0744a37.8526,37.8526,0,0,0,13.9105.944"/><path d="M673.534,310.0235a37.165,37.165,0,0,0,14.9852.9439,2.0336,2.0336,0,0,0,1.4117-2.4864,2.0756,2.0756,0,0,0-2.4864-1.4117,29.2277,29.2277,0,0,1-4.7384.2025q-1.1166-.0318-2.23-.13-.5436-.0476-1.0859-.11-.258-.03-.5157-.0625c-.37-.0467.4632.0709-.1526-.0214a33.0136,33.0136,0,0,1-4.1134-.823,2.0218,2.0218,0,1,0-1.0747,3.8982Z"/><path class="cls-3" d="M435.2135,252.3619c1.6716-24.379,2.6826-37.6547,2.682-51.9117s10.37-16.3617,13.8078-2.2234c3.2859,22.8034.0256,62.7671.0256,62.7671"/><path d="M437.2348,252.3619c.83-12.0968,1.7573-24.1932,2.3046-36.3072.2086-4.6182.3459-9.24.3724-13.8628a24.8431,24.8431,0,0,1,.8324-7.676,9.12,9.12,0,0,1,1.1243-2.3337,4.4338,4.4338,0,0,1,1.33-1.2608c.057-.0356.5877-.25.1729-.0992.1663-.0605.3345-.1043.5055-.1485.5244-.1357-.39-.0141.15-.02.1754-.0018.3477-.0036.5228.0112-.437-.0368.3667.1064.5168.1586a5.0937,5.0937,0,0,1,.9121.5433,11.3637,11.3637,0,0,1,3.0088,4.8076,30.0753,30.0753,0,0,1,1.3254,7.4252c.2346,2.4867.402,4.9795.5261,7.4741.5233,10.5171.35,21.07-.0736,31.5873-.2462,6.1142-.5612,12.2331-1.0577,18.3328-.2111,2.5932,3.8326,2.5793,4.0425,0a386.9591,386.9591,0,0,0,1.1638-49.2467c-.1218-2.6149-.29-5.2282-.5294-7.835a37.7574,37.7574,0,0,0-1.2631-8.1154c-1.28-3.9781-4.07-9.1954-8.9208-9.1895-4.6751.0057-7.1429,4.9711-7.8808,8.9367a46.5486,46.5486,0,0,0-.4623,8.0953q-.0383,3.644-.16,7.2864c-.4518,13.8288-1.5589,27.6353-2.5055,41.4362-.1782,2.5966,3.8651,2.5856,4.0425,0Z"/><path class="cls-3" d="M421.5511,249.9858c1.6717-24.379,2.6826-37.6546,2.682-51.9117s10.37-16.3617,13.8078-2.2233c3.2859,22.8033-.461,65.1431-.461,65.1431"/><path d="M423.5724,249.9858c.8508-12.4032,1.8092-24.8067,2.3453-37.2287q.31-7.1931.3365-14.3922a17.488,17.488,0,0,1,1.2274-7.2766,6.6354,6.6354,0,0,1,1.3814-2.0442,2.7579,2.7579,0,0,1,1.3513-.7465c.5244-.1357-.39-.014.15-.02.1754-.0019.3477-.0037.5229.0111-.4088-.0344.5059.1455.6924.2244-.3847-.1627.1942.1231.2171.138.1738.1129.3539.2135.5193.34.013.01.5642.53.77.7569a14.197,14.197,0,0,1,3.0441,6.9085,110.7121,110.7121,0,0,1,1.09,14.3307c.3582,10.5813.07,21.1851-.456,31.7559-.3031,6.0878-.6694,12.1788-1.2058,18.2511a2.037,2.037,0,0,0,2.0213,2.0213,2.0636,2.0636,0,0,0,2.0213-2.0213c.4735-5.3611.8075-10.7372,1.0951-16.111.5893-11.0071.9271-22.05.5931-33.0714a150.2358,150.2358,0,0,0-1.1868-15.6884c-.5949-4.3767-3.3185-10.64-8.1515-11.7241-4.6886-1.0513-7.8165,3.2467-8.9385,7.2328a31.7342,31.7342,0,0,0-.8076,8.4737q-.0247,3.7063-.1374,7.4116c-.3627,12.1763-1.2882,24.3331-2.1259,36.4834q-.2063,2.9927-.4118,5.9853c-.1781,2.5967,3.8652,2.5856,4.0425,0Z"/><path class="cls-3" d="M422.0835,263.0152s3.7989-31.8867.513-54.69c-3.4379-14.1384-13.8085-12.0337-13.8079,2.2234.0006,11.8018.3784,13.8591-.8541,38.1394h-1.0207a11.7807,11.7807,0,0,0-11.7807,11.7807V287.766"/><path d="M424.1047,263.0152c.65-5.4732,1.0521-10.9847,1.3655-16.4859a216.3392,216.3392,0,0,0-.2451-33.114c-.4863-5.0193-1.2342-10.4131-4.89-14.2293-2.6082-2.7228-6.52-3.3377-9.4758-.7956-3.417,2.9392-4.085,8.1817-4.092,12.3992-.005,3.004.0368,6.008.0506,9.0119.0444,9.6363-.4177,19.265-.9048,28.8864l2.0213-2.0212c-5.0663,0-9.6286,1.8931-12.5348,6.195a15.4417,15.4417,0,0,0-2.2879,8.9488V287.766c0,2.6011,4.0426,2.6055,4.0426,0V263.6678a22.4214,22.4214,0,0,1,.32-5.6866,9.762,9.762,0,0,1,4.1444-5.7138,11.1705,11.1705,0,0,1,6.316-1.5582,2.0616,2.0616,0,0,0,2.0213-2.0213c.44-8.6984.8779-17.4067.9074-26.1183.0088-2.6128-.021-5.2255-.0383-7.8382-.0244-3.6956-.377-7.7213,1.2123-11.1687a6.8618,6.8618,0,0,1,1.091-1.7457c.091-.0976.7239-.6691.4882-.4922.1577-.1184.9823-.526.648-.4043.1478-.0538.9391-.1969.4826-.1568.1489-.0131.9507.0469.5093-.0267a2.7264,2.7264,0,0,1,1.6155.7281,10.9516,10.9516,0,0,1,2.8234,4.3084,27.4645,27.4645,0,0,1,1.4691,7.4562,211.373,211.373,0,0,1,.3612,31.4943c-.3136,6.1034-.742,12.22-1.4633,18.2912a2.0328,2.0328,0,0,0,2.0213,2.0213,2.07,2.07,0,0,0,2.0212-2.0213Z"/><path class="cls-3" d="M392.4381,264.3627c1.6716-24.379,2.6841-31.3565,2.6835-45.6136s10.37-16.3617,13.8078-2.2233c3.2859,22.8033,1.7,29.4671,1.7,29.4671h2.7624a10.7038,10.7038,0,0,1,10.6833,11.3648l-1.6277,26.3061,12.6072,8.3761"/><path d="M394.4593,264.3627c.6127-8.9157,1.3541-17.8217,1.9783-26.7365.45-6.4282.6119-12.8366.708-19.2773a18.037,18.037,0,0,1,.9637-5.94,9.591,9.591,0,0,1,.857-1.7315,2.75,2.75,0,0,1,.4948-.66c.0949-.1018.1936-.1986.29-.2986.0107-.0111.4843-.4086.1978-.1937a4.3413,4.3413,0,0,1,.7185-.4317c.284-.1368-.2809.0953.0132-.0011.14-.0457.28-.0832.4218-.12.095-.0245.384-.0439-.0229-.0082.1151-.01.2312-.0152.3468-.0156.0014,0,.5639.0406.2559.002-.2572-.0322.282.07.3462.0888.1187.0341.2364.0711.3517.1159.3236.1256-.4-.2242.1305.0735a5.8968,5.8968,0,0,1,.6937.4368,9.3159,9.3159,0,0,1,1.2544,1.3579c2.7964,3.8813,2.9748,8.991,3.4945,13.57.4529,3.99.8132,7.9943.9669,12.0075a65.1055,65.1055,0,0,1-.0481,7.1984c-.0238.327-.0551.653-.0866.9793-.0125.13-.0358.26-.0453.3907-.02.2767.12-.6519.0263-.2026-.0338.1619-.0484.3276-.0863.489a2.046,2.046,0,0,0,1.9491,2.5586c2.372,0,4.7119-.1517,6.872,1.03a8.75,8.75,0,0,1,4.5733,7.62c.0019,3.0264-.3545,6.0856-.5413,9.1038l-.8839,14.2848c-.0715,1.1565-.227,2.3415-.2166,3.501.0138,1.541,1.5725,2.239,2.6986,2.9872l10.9029,7.2437c2.1731,1.4438,4.2-2.056,2.04-3.4906l-12.6072-8.3761,1.0011,1.7453,1.0042-16.23.5458-8.8211a13.8109,13.8109,0,0,0-2.1641-9.1487,12.8952,12.8952,0,0,0-7.232-5.0794,23.69,23.69,0,0,0-5.9932-.4134l1.949,2.5586a34.3739,34.3739,0,0,0,.4292-8.5067c-.0988-4.0884-.44-8.17-.8792-12.2348-.569-5.265-.8154-10.8569-3.425-15.5892-1.547-2.8052-4.3218-5.6053-7.796-5.2584-3.5119.3506-5.6712,3.4321-6.744,6.526-1.3857,3.996-1.03,8.3391-1.1131,12.4987-.0651,3.261-.2049,6.52-.4009,9.7753-.6148,10.2151-1.5313,20.4122-2.2328,30.6216-.1784,2.5967,3.8649,2.5856,4.0425,0Z"/><path class="cls-3" d="M419.3884,281.7021,512.1173,343.24l48.0513,1.5341,13.1063.4182c1.3355,8.6132,1.4067,21.435-.1014,35.616a193.1332,193.1332,0,0,1-6.1257,31.4727c-81.2116-3.8291-109.8423-27.5379-109.8423-27.5379L368.3967,311.93l-10.9941-35.44,8.7589-35.8876"/><path d="M418.3682,283.4474l5.7722,3.8306,14.6257,9.706,19.7367,13.0978,20.89,13.8634,18.0643,11.988,11.53,7.6514c.6774.45,1.3435.9664,2.054,1.3631.9458.5281,2.4181.3559,3.4651.3893l20.6393.659,21.6237.69,13.3988.4276,3.1068.0991-1.949-1.4839a119.3577,119.3577,0,0,1,.7035,24.047,191.8471,191.8471,0,0,1-3.3739,27.1826c-.98,4.9743-2.1368,9.9165-3.5568,14.7843l1.9491-1.4839a357.5659,357.5659,0,0,1-47.8441-5.2677,231.5077,231.5077,0,0,1-32.8265-8.3836q-3.0537-1.0423-6.0672-2.1978-1.3737-.528-2.7375-1.0819-.6273-.255-1.2523-.5158-.1749-.0726-.3495-.1464c.0338.0142.265.1122.0511.0214q-.34-.1443-.6793-.29c-2.8216-1.2151-5.6049-2.5227-8.3234-3.9546a66.41,66.41,0,0,1-8.2628-5.0355c-.6126-.4474.3418.2946-.0944-.0715-.0814-.0683-.1643-.1349-.2467-.202-.9917-.8078-1.9783-1.622-2.9674-2.433L441.365,369.1542l-20.6874-16.9611-22.1623-18.17-18.572-15.2269-9.6752-7.9324-.4421-.3625.52.8919-9.6349-31.0585-1.3592-4.3813v1.0746l7.6671-31.4143,1.0918-4.4732c.6166-2.5268-3.2807-3.6049-3.8982-1.0747l-7.1384,29.2479-1.42,5.8183a4.4638,4.4638,0,0,0,.0029,2.5515l4.3367,13.98,5.3389,17.21c.5484,1.7678.8006,3.8025,2.279,5.0146l16.7042,13.6954,29.2756,24.0024,28.3809,23.2689c4.5784,3.7538,9.1267,7.5482,13.7371,11.2627a54.806,54.806,0,0,0,8.47,5.39,151.8671,151.8671,0,0,0,29.6585,11.691c18.0435,5.2512,36.733,8.2013,55.425,9.89q8.8784.802,17.7854,1.2136a2.049,2.049,0,0,0,1.9491-1.4839,184.4415,184.4415,0,0,0,7.28-55.2107,100.5482,100.5482,0,0,0-1.0533-12.9526,2.0344,2.0344,0,0,0-1.9491-1.4839l-19.3051-.6162-32.6444-1.0422-9.2081-.294,1.02.276-9.2344-6.1282-22.1718-14.7138L455.02,302.9255l-23.187-15.3875c-3.7352-2.4788-7.4-5.2051-11.2668-7.477-.054-.0316-.105-.07-.1571-.1042-2.1738-1.4426-4.2006,2.0571-2.04,3.4906Z"/><path class="cls-3" d="M379.9653,256.4044c1.6716-24.379,2.6825-37.6546,2.6819-51.9117s10.37-16.3617,13.8079-2.2233c3.2858,22.8033.0255,62.7671.0255,62.7671"/><path d="M381.9866,256.4044c.83-12.0967,1.7573-24.1932,2.3045-36.3071.2087-4.6183.346-9.24.3724-13.8629a24.8465,24.8465,0,0,1,.8325-7.676,9.1148,9.1148,0,0,1,1.1243-2.3336,4.4329,4.4329,0,0,1,1.33-1.2609c.057-.0355.5877-.25.1729-.0991.1663-.0606.3345-.1043.5054-.1485.5245-.1358-.39-.0141.15-.02.1754-.0019.3477-.0036.5228.0111-.437-.0367.3667.1064.5167.1587a5.0941,5.0941,0,0,1,.9122.5432,11.3651,11.3651,0,0,1,3.0088,4.8077,30.0746,30.0746,0,0,1,1.3254,7.4251c.2346,2.4868.402,4.98.5261,7.4741.5233,10.5172.35,21.07-.0736,31.5873-.2463,6.1143-.5612,12.2331-1.0578,18.3329-.211,2.5931,3.8326,2.5792,4.0426,0a386.9775,386.9775,0,0,0,1.1638-49.2467c-.1218-2.6149-.29-5.2282-.53-7.8351a37.7521,37.7521,0,0,0-1.263-8.1154c-1.28-3.978-4.07-9.1953-8.9208-9.1894-4.6752.0057-7.143,4.971-7.8808,8.9366a46.56,46.56,0,0,0-.4624,8.0954q-.0381,3.6439-.16,7.2863c-.4518,13.8289-1.5589,27.6353-2.5056,41.4362-.1781,2.5967,3.8652,2.5857,4.0426,0Z"/><path class="cls-3" d="M366.3029,254.0284c1.6716-24.379,2.6826-37.6547,2.6819-51.9117s10.37-16.3618,13.8079-2.2234c3.2859,22.8034-.461,65.1432-.461,65.1432"/><path d="M368.3242,254.0284c.8508-12.4032,1.8092-24.8067,2.3453-37.2288q.31-7.1929.3365-14.3921a17.4878,17.4878,0,0,1,1.2274-7.2766,6.6324,6.6324,0,0,1,1.3814-2.0443,2.7586,2.7586,0,0,1,1.3512-.7464c.5245-.1357-.39-.0141.15-.02.1754-.0019.3477-.0036.5228.0112-.4087-.0345.506.1455.6925.2244-.3847-.1627.1942.1231.2171.1379.1738.113.3538.2136.5193.34.0129.01.5642.53.77.7568a14.1978,14.1978,0,0,1,3.0441,6.9086,110.73,110.73,0,0,1,1.09,14.3306c.3582,10.5814.07,21.1852-.4561,31.756-.303,6.0877-.6693,12.1788-1.2057,18.2511a2.0369,2.0369,0,0,0,2.0213,2.0213,2.0636,2.0636,0,0,0,2.0213-2.0213c.4735-5.3611.8075-10.7373,1.0951-16.1111.5892-11.0071.9271-22.05.593-33.0713a150.21,150.21,0,0,0-1.1867-15.6885c-.5949-4.3766-3.3185-10.64-8.1515-11.724-4.6887-1.0514-7.8165,3.2466-8.9385,7.2328a31.73,31.73,0,0,0-.8076,8.4736q-.0247,3.7065-.1374,7.4116c-.3628,12.1763-1.2882,24.3331-2.1259,36.4834q-.2064,2.9926-.4119,5.9854c-.1781,2.5966,3.8652,2.5856,4.0426,0Z"/><path class="cls-3" d="M366.8352,267.0578s3.7989-31.8868.513-54.69C363.91,198.2293,353.54,200.3339,353.54,214.591c.0005,11.8019-.8247,43.1641-2.0571,67.4444a29.2692,29.2692,0,0,0,9.8342,23.4153l18.6478,16.4925"/><path d="M368.8565,267.0578a273.8911,273.8911,0,0,0,1.8389-35.0816c-.0467-4.4713-.2229-8.9442-.6151-13.3993-.3828-4.35-.8106-8.6417-2.9579-12.5355-1.4356-2.6034-3.7946-5.07-6.9277-5.2782-2.8432-.1892-5.213,1.7771-6.5481,4.1288-1.8373,3.2364-2.1171,7.0366-2.1291,10.6762-.01,3.0144-.0546,6.0286-.1077,9.0424q-.2258,12.811-.6594,25.6176-.4626,14.3477-1.1341,28.688c-.2259,4.687-.2229,9.2081,1.17,13.7451a31.64,31.64,0,0,0,6.8445,11.9927,117.2684,117.2684,0,0,0,9.2722,8.43l10.93,9.6672.7027.6215c1.9426,1.718,4.8121-1.1308,2.8586-2.8585l-18.1257-16.0308a27.9487,27.9487,0,0,1-9.6216-17.7085c-.5071-4.4346.0736-9.02.27-13.464q.306-6.91.5566-13.8225c.5528-15.0981.8617-30.1925,1.09-45.2974.0455-3.0041.583-6.543,2.606-8.63a2.5823,2.5823,0,0,1,.9979-.6652c-.37.1632.2537-.0555.3533-.0813.095-.0245.384-.044-.0229-.0082a2.7866,2.7866,0,0,1,.4341-.0137,4.0635,4.0635,0,0,1,.8883.2133,4.798,4.798,0,0,1,1.1576.8311c2.4822,2.3853,3.342,6.1305,3.7211,9.41.4942,4.2749.7532,8.5753.878,12.8759a275.6355,275.6355,0,0,1-1.6873,38.2605c-.0249.2248-.05.45-.0765.6742a2.0327,2.0327,0,0,0,2.0212,2.0213,2.07,2.07,0,0,0,2.0213-2.0213Z"/><path class="cls-3" d="M410.9458,236.7312s-.3162,20.0418-1.6638,29.4745"/><path d="M408.9245,236.7312c-.1528,9.5813-.2807,19.6179-1.5915,28.9371a2.09,2.09,0,0,0,1.4117,2.4864,2.0356,2.0356,0,0,0,2.4864-1.4117c1.3922-9.8977,1.5768-20.0281,1.736-30.0118.0414-2.6023-4.0011-2.603-4.0426,0Z"/><path class="cls-6" d="M715.8423,528.9716s8.0851,28.2979,25.6029,24.2554a751.931,751.931,0,0,0,10.5929,84.1242,188.8594,188.8594,0,0,0,31.37,75.1267l100.2005,142.593"/><path d="M714.8678,529.24a54.948,54.948,0,0,0,4.0562,9.9185c2.7792,5.3848,6.625,10.9349,12.1682,13.7485a15.6847,15.6847,0,0,0,10.6216,1.2942l-1.2793-.9745c1.3685,21.6907,3.9571,43.296,7.3226,64.7636,1.4974,9.5517,2.97,19.1589,5.1435,28.5842a188.6928,188.6928,0,0,0,9.1006,28.7406,193.47,193.47,0,0,0,20.9578,38.2758l7.3489,10.4581L804.6366,744.44l18.4925,26.3163,19.841,28.2352,18.3736,26.1471,14.0906,20.052c2.3306,3.3166,4.642,6.6477,6.9922,9.95.1039.146.2061.2933.3091.44.7423,1.0563,2.4955.0474,1.7453-1.02l-4.7884-6.8143-12.5146-17.8092-17.5543-24.9811-19.6419-27.952L810.9552,749.928l-15.6349-22.25-9.467-13.4723a208.1309,208.1309,0,0,1-15.3846-25.188c-9.1546-17.986-14.8846-37.0871-18.3387-56.92-3.5923-20.6268-6.4933-41.3856-8.3917-62.2393q-.7563-8.3066-1.2825-16.6315a1.0268,1.0268,0,0,0-1.2793-.9746c-12.1065,2.6586-19.6588-10.7778-23.2326-20.2479-.41-1.0864-.8064-2.1848-1.127-3.3015a1.0115,1.0115,0,0,0-1.9491.5373Z"/><path class="cls-6" d="M658.91,538.0674,596.1081,643.2352a217.259,217.259,0,0,0-28.3924,79.6217L542.6092,892.7212"/><path d="M658.037,537.5573,647.5,555.2025,624.7314,593.331l-21.737,36.4009c-4.8483,8.1189-9.8584,16.1745-14.2052,24.5768a219.5513,219.5513,0,0,0-22.1012,68.64q-1.4368,9.6966-2.8666,19.3942l-5.8531,39.6008-6.8854,46.5849-6.0457,40.9037-3.2521,22.0022-.15,1.0182c-.1881,1.2725,1.7592,1.8216,1.949.5374l2.2757-15.3967,5.5168-37.3251,6.85-46.3459,6.2955-42.5939,3.7876-25.626a227.7063,227.7063,0,0,1,13.7936-52.0169c5.2168-12.9453,11.9514-25.04,19.0854-36.9864l19.548-32.7351,23.6442-39.5945,14.6723-24.5705.73-1.2214a1.0114,1.0114,0,0,0-1.7454-1.02Z"/><path class="cls-7" d="M656.4192,242.6889c17.2933.5756,37.2282-.1539,37.2282-.1539l.5388,27.4747c0-8.9256,7.0712-21.01,13.468-21.01s11.3131,2.1549,11.3131,11.3131c0,6.0619-5.0807,16.6282-8.62,19.3936L722.2,294.7907s25.32-35.5555,25.32-59.2591l-.0044-14.3155a21.0747,21.0747,0,0,0-18.9244-20.9579l-7.3582-.7547h0a35.3676,35.3676,0,0,0-30.9167-18.1914H671.3718a35.3126,35.3126,0,0,0-28.5071,14.44,22.2372,22.2372,0,0,0-18.6536,21.9432S617.8825,241.4062,656.4192,242.6889Z"/><path d="M656.4192,244.71c12.3966.4044,24.8332.2976,37.2282-.154l-2.0212-2.0212.4713,24.0357.0674,3.439a2.0225,2.0225,0,0,0,4.0426,0,25.3622,25.3622,0,0,1,4.15-12.9774,17.5583,17.5583,0,0,1,3.978-4.62,5.7815,5.7815,0,0,1,4.1563-1.3779c3.0946.1,5.9857.8669,7.4247,3.6751,1.88,3.67.9781,8.2572-.2727,11.9572a39.1528,39.1528,0,0,1-3.18,7.0168,15.96,15.96,0,0,1-3.5454,4.5941,2.0648,2.0648,0,0,0,0,2.8585L720.77,296.22c.8753,1.1141,2.5079.5278,3.1745-.4091,2.8029-3.9393,5.37-8.0632,7.8419-12.2149a166.13,166.13,0,0,0,13.2253-26.8941,73.7153,73.7153,0,0,0,3.9508-14.4392,62.9649,62.9649,0,0,0,.5769-9.657c-.0024-7.781.9357-16.0762-3.1784-23.0734A23.2457,23.2457,0,0,0,731.87,198.773a82.6767,82.6767,0,0,0-10.6372-1.2907l1.7453,1.0011a37.5856,37.5856,0,0,0-16.0915-15.3148,39.3087,39.3087,0,0,0-17.4681-3.8778H676.2832c-4.6968,0-9.3255-.0383-13.9337,1.0973a37.8976,37.8976,0,0,0-21.23,14.3435l1.208-.9289a24.4937,24.4937,0,0,0-18.6381,15.5013,24.1014,24.1014,0,0,0-1.4134,6.4291c-.0467.5339-.065,1.0667-.0832,1.602.0006-.0162.0728-.2518.0643-.1579-.0049.0547-.0309.1081-.0383.1627-.109.812-.2787,1.613-.3491,2.433-.6608,7.7006,3.3551,14.7223,9.7764,18.8249,7.2465,4.63,16.3634,5.8132,24.7732,6.1124,2.6019.0926,2.5982-3.95,0-4.0426-6.14-.2184-12.3674-.9713-18.1282-3.2169a21.2777,21.2777,0,0,1-9.0227-6.2263c-.1084-.1309-.2156-.2631-.32-.3974.2357.3037-.054-.079-.1323-.19-.2164-.3079-.4278-.6185-.6266-.9381a19.7277,19.7277,0,0,1-1.0117-1.8789c-.0535-.1112-.2611-.6088-.0587-.117-.0543-.132-.11-.2639-.1591-.3977-.1128-.3049-.225-.6093-.3246-.9188a17.6015,17.6015,0,0,1-.472-1.7827c-.06-.2837-.1089-.5688-.1578-.8545-.1147-.669.0114.27-.0532-.4012-.0487-.5074-.0879-1.0144-.1009-1.5242a20.5615,20.5615,0,0,1,.0968-2.4264c.034-.3656.0836-.4754-.0107.0354.0243-.1314.0363-.2652.06-.3967.0345-.1892.0718-.3777.107-.5667.2738-1.4667.1712-2.978.4552-4.4558a20.4687,20.4687,0,0,1,10.2423-14.0841,19.7,19.7,0,0,1,4.2313-1.71c.725-.2009,1.47-.3052,2.1963-.4889,1.0591-.2678,1.5481-1.2163,2.1989-2.0111a33.3619,33.3619,0,0,1,25.9816-12.3857q9.4506-.0365,18.9031,0a33.3868,33.3868,0,0,1,25.8476,12.2594,32.1115,32.1115,0,0,1,2.8615,4.1213c.5621.952,1.0184,1.6689,2.21,1.8108.1592.019.3193.0322.4788.0491,4.1.4359,8.4566.4707,12.2928,2.1436a19.2818,19.2818,0,0,1,11.0125,13.2473c.8315,3.5779.4782,7.5126.4793,11.1594.0011,3.5161.1614,7.0852-.14,10.5932a64.0795,64.0795,0,0,1-4.0169,16.2993,136.7025,136.7025,0,0,1-7.2109,16.0887A206.2765,206.2765,0,0,1,721.2056,292.69c-.2482.3618-.4969.7234-.7513,1.0809l3.1746-.4091L711.777,278.2773v2.8585a18.6539,18.6539,0,0,0,4.0155-5.1342,44.7791,44.7791,0,0,0,3.4051-7.284c1.7131-4.6643,2.6562-10.0626.7491-14.8325-1.7472-4.37-5.5908-6.3755-10.1019-6.8092a10.656,10.656,0,0,0-6.1654.9721,16.3839,16.3839,0,0,0-5.1587,4.605,29.5409,29.5409,0,0,0-6.3558,17.3567h4.0426l-.4714-24.0357-.0674-3.439a2.0464,2.0464,0,0,0-2.0213-2.0213c-12.395.4515-24.8316.5583-37.2282.1539C653.8171,240.5828,653.82,244.6254,656.4192,244.71Z"/><path class="cls-7" d="M641.0551,196.1348h23.01a10.2108,10.2108,0,0,1,9.3308,6.0638h0"/><path d="M641.0551,198.156c7.6131,0,15.2275-.0461,22.84,0a8.3868,8.3868,0,0,1,7.7547,5.0628,2.0356,2.0356,0,0,0,2.7655.7251,2.0713,2.0713,0,0,0,.7251-2.7655,12.2559,12.2559,0,0,0-9.8072-6.9844,37.1631,37.1631,0,0,0-4.1918-.0805H641.0551c-2.6012,0-2.6055,4.0425,0,4.0425Z"/></svg>