<svg id="Layer_1" data-name="Layer 1" xmlns="http://www.w3.org/2000/svg" width="1000" height="1000" viewBox="0 0 1000 1000"><defs><style>.cls-1{fill:#fff;}.cls-2,.cls-8{fill:#050505;}.cls-2,.cls-7{stroke:#000;stroke-miterlimit:10;stroke-width:1.238px;}.cls-2{stroke-linecap:round;}.cls-3{fill:#fc7272;}.cls-4{fill:#a8542a;}.cls-5{fill:#458dc9;}.cls-6{fill:#ffc41f;}</style></defs><path class="cls-1" d="M385.2871,763.5582l1.317-27.3044a11.7271,11.7271,0,0,0-9.6119-12.1023l-38.86-7.0785a11.98,11.98,0,0,1-9.4065-8.7307,126.432,126.432,0,0,0-7.9638-21.6443,11.8158,11.8158,0,0,1,1.5311-12.5742l25.118-30.5993a11.7272,11.7272,0,0,0-.4956-15.447l-18.663-19.9739a11.7271,11.7271,0,0,0-15.3779-1.5414l-32.2674,23.0117a11.7743,11.7743,0,0,1-12.6106.6424,126.3882,126.3882,0,0,0-17.8729-8.2705,11.5637,11.5637,0,0,1-7.5259-9.8624l-3.3265-39.6124A11.7271,11.7271,0,0,0,228.15,561.7388l-27.3045-1.3171a11.7272,11.7272,0,0,0-12.1023,9.612l-7.0785,38.86a11.98,11.98,0,0,1-8.7308,9.4065A126.4313,126.4313,0,0,0,151.29,626.264a11.816,11.816,0,0,1-12.5742-1.5312L108.1166,599.615a11.7271,11.7271,0,0,0-15.447.4956l-19.9739,18.663a11.7273,11.7273,0,0,0-1.5415,15.3779l23.0119,32.2673a11.7744,11.7744,0,0,1,.6424,12.6107,126.38,126.38,0,0,0-8.2706,17.8727,11.5636,11.5636,0,0,1-9.8623,7.5259L37.063,707.7546a11.7271,11.7271,0,0,0-10.7321,11.121L25.0138,746.18a11.7271,11.7271,0,0,0,9.6119,12.1023l38.86,7.0785a11.98,11.98,0,0,1,9.4065,8.7307,126.4323,126.4323,0,0,0,7.9639,21.6443A11.816,11.816,0,0,1,89.325,808.31L64.2071,838.9093a11.7271,11.7271,0,0,0,.4956,15.447L83.3657,874.33a11.7271,11.7271,0,0,0,15.3778,1.5415L131.011,852.86a11.7741,11.7741,0,0,1,12.6105-.6424,126.3922,126.3922,0,0,0,17.8728,8.2705A11.5639,11.5639,0,0,1,169.02,870.35l3.3266,39.6126a11.7271,11.7271,0,0,0,11.1209,10.7321l27.3045,1.3171a11.7272,11.7272,0,0,0,12.1023-9.612l7.0783-38.86a11.98,11.98,0,0,1,8.7309-9.4066,126.4282,126.4282,0,0,0,21.6442-7.9639,11.8159,11.8159,0,0,1,12.5741,1.5312l30.5994,25.1179a11.7272,11.7272,0,0,0,15.4469-.4956L338.9224,863.66a11.7271,11.7271,0,0,0,1.5415-15.3779L317.452,816.0149a11.7743,11.7743,0,0,1-.6424-12.6106,126.3858,126.3858,0,0,0,8.2705-17.8727,11.564,11.564,0,0,1,9.8625-7.5259l39.6123-3.3265A11.7273,11.7273,0,0,0,385.2871,763.5582Z"/><path d="M387.1441,763.5582l.6845-14.191.4521-9.3723a47.7336,47.7336,0,0,0,.1723-4.9872,13.7236,13.7236,0,0,0-7.0635-11.2461,18.4121,18.4121,0,0,0-5.652-1.7192l-16.6158-3.0267-17.779-3.2385a37.8726,37.8726,0,0,1-3.9593-.7936,10.0577,10.0577,0,0,1-5.6558-4.3325c-1.5317-2.4812-1.9666-5.6245-2.84-8.3777q-1.49-4.6955-3.3415-9.265c-1.1589-2.8606-2.8465-5.6948-3.6881-8.6563a10.3193,10.3193,0,0,1,2.1914-9.4551c3.1434-3.8809,6.3382-7.7213,9.5069-11.5815l12.1025-14.7436c.9835-1.1981,1.9778-2.3882,2.9509-3.5948a13.9128,13.9128,0,0,0,3.1751-10.765c-.7829-5.682-5.5808-9.6144-9.2893-13.5834L330.3408,607.62a15.0644,15.0644,0,0,0-7.2657-4.665,13.8007,13.8007,0,0,0-11.2626,2.0925c-3.6385,2.519-7.21,5.1416-10.8127,7.7111l-16.1221,11.4976c-4.1321,2.9468-8.2724,6.811-13.7963,5.2463-2.9486-.8352-5.691-2.846-8.44-4.1915q-4.3422-2.1253-8.8346-3.9231c-2.612-1.0513-5.2012-1.81-7.096-4.0194a9.841,9.841,0,0,1-2.2593-5.3243c-.4657-4.1052-.693-8.252-1.0387-12.3686l-1.6772-19.9729c-.3638-4.3321-.1905-9.3957-2.49-13.2234a13.8587,13.8587,0,0,0-11.101-6.5981c-1.5545-.104-3.1151-.15-4.6712-.2253l-19.1388-.9232a36.5394,36.5394,0,0,0-5.2252-.1216,13.6893,13.6893,0,0,0-11.0807,7.6712c-1.712,3.6651-1.9877,8.2665-2.7031,12.1941l-3.5963,19.743-1.394,7.6532a28.3039,28.3039,0,0,1-.9132,4.2521c-2.0453,5.86-8.0462,6.5538-13.2054,8.2212q-4.6849,1.5141-9.2426,3.39c-2.8032,1.1538-5.6193,2.8824-8.5708,3.5721-5.6646,1.3237-9.5851-2.8826-13.5252-6.1169-8.4479-6.9345-16.8342-13.9525-25.3474-20.8067a13.9463,13.9463,0,0,0-11.2208-3.07,14.9311,14.9311,0,0,0-7.7277,4.2071l-13.0634,12.206c-3.8816,3.6269-8.9333,7.2169-10.0843,12.7127a13.8309,13.8309,0,0,0,2.2375,10.8178c.9091,1.2973,1.84,2.58,2.76,3.87,6.5945,9.2469,13.2248,18.4693,19.784,27.7413a10.3909,10.3909,0,0,1,1.7155,9.6078c-1.0146,2.949-2.9651,5.7036-4.324,8.5182q-2.1027,4.3549-3.88,8.8588c-1.0219,2.58-1.87,5.0358-4.1606,6.7816a9.9377,9.9377,0,0,1-4.96,1.9416c-1.3838.1541-2.78.2335-4.1676.35L37.9856,705.82a15.2591,15.2591,0,0,0-7.3165,2.2138,13.8936,13.8936,0,0,0-6.1964,10.8665c-.3226,4.954-.4788,9.9245-.7179,14.8831l-.4416,9.1542a31.8151,31.8151,0,0,0-.0523,5.47A13.6382,13.6382,0,0,0,31.32,759.1918a21.903,21.903,0,0,0,4.891,1.26l34.4382,6.273a22.2835,22.2835,0,0,1,4.549,1.0609c5.6765,2.3514,6.2541,8.5139,7.9519,13.6718q1.5387,4.675,3.4377,9.22c1.1735,2.8129,3.0491,5.7185,3.4772,8.7639a10.5935,10.5935,0,0,1-2.6377,8.2682L65.58,834.3239c-.8766,1.0679-1.7645,2.1277-2.6305,3.2045a13.9236,13.9236,0,0,0-2.9525,11.6823c1.0852,5.2792,6.06,9.3139,9.587,13.0883l11.8916,12.7269c4.8891,5.2325,12.4447,6.4983,18.4539,2.2717,9.1245-6.4176,18.1667-12.9556,27.2491-19.4328,1.4527-1.036,2.9014-2.0781,4.3584-3.1082a10.3239,10.3239,0,0,1,10.0576-1.4715c2.9529,1.2053,5.7158,3.0521,8.6043,4.4276q4.3678,2.08,8.8829,3.8361c2.6275,1.024,4.9969,2.0618,6.5782,4.5312a10.0728,10.0728,0,0,1,1.5121,4.3772c1.1976,10.9069,1.8393,21.903,2.7576,32.837.3808,4.5347.23,9.5888,2.9652,13.4539a13.8915,13.8915,0,0,0,10.6285,5.8066c1.728.11,3.4612.167,5.1907.25l19.0546.9191a28.36,28.36,0,0,0,5.72-.0268,13.651,13.651,0,0,0,10.4825-8.4348,23.7378,23.7378,0,0,0,1.1043-4.6219l1.33-7.2992,3.5984-19.7552L231.349,876.2a18.645,18.645,0,0,1,1.2382-4.8373c2.6378-5.4684,8.9534-5.9731,14.1085-7.7008q4.6653-1.5636,9.1975-3.4856c2.7942-1.179,5.6672-3.0483,8.7464-3.2721,5.1751-.3761,8.863,3.681,12.5358,6.6958l15.2984,12.5579c3.2236,2.6462,6.42,5.33,9.673,7.94a13.8743,13.8743,0,0,0,12.1465,2.8191,16.0939,16.0939,0,0,0,7.038-4.28l13.2526-12.3827c4.0693-3.8022,8.9333-7.3333,9.7638-13.25.81-5.7681-2.3646-9.777-5.4546-14.11l-11.2323-15.75c-2.7871-3.9083-5.5967-7.8016-8.362-11.7254a10.2577,10.2577,0,0,1-1.1524-10.5746c1.3949-2.9169,3.0712-5.6981,4.4487-8.6312q2.0574-4.381,3.7924-8.9069c1.5475-4.0347,4.2372-6.9749,8.7356-7.4586,1.506-.1619,3.0229-.2538,4.532-.3806l19.0313-1.5981,14.8846-1.25a15.9108,15.9108,0,0,0,6.7685-1.8473,13.8418,13.8418,0,0,0,6.8046-11.2133c.1656-2.3854-3.5491-2.3751-3.714,0a10.0113,10.0113,0,0,1-8.8752,9.264c-1.075.1249-2.1626.1816-3.2408.2721l-18.0046,1.512-16.6053,1.3945a19.2549,19.2549,0,0,0-5.6958,1.05,13.4769,13.4769,0,0,0-5.6639,4.2573c-1.7313,2.2334-2.4884,4.969-3.5447,7.5515-1.2261,2.9978-2.585,5.9423-4.047,8.8321-1.331,2.6308-3.1366,5.1981-3.88,8.0782a13.7939,13.7939,0,0,0,2.115,11.3766c2.5572,3.648,5.1743,7.2554,7.761,10.8825l11.318,15.87c2.7245,3.82,6.4752,7.7812,5.5826,12.86-.4889,2.7813-2.1334,4.7406-4.11,6.5871l-5.81,5.4286-12.5246,11.7025a10.3294,10.3294,0,0,1-8.8921,3.0175,12.0984,12.0984,0,0,1-5.68-2.96l-12.59-10.3348-14.0768-11.5551c-.9138-.75-1.8193-1.5121-2.7423-2.251a13.8587,13.8587,0,0,0-14.09-2.1545,186.018,186.018,0,0,1-17.997,6.979c-2.6619.8056-5.475,1.3128-7.8456,2.8447a13.8816,13.8816,0,0,0-4.8,5.2c-1.8729,3.6217-2.1545,8.317-2.8739,12.2666l-3.5622,19.5564c-.6847,3.7588-1.2148,7.5861-2.0711,11.3112a10.0144,10.0144,0,0,1-10.2113,7.757c-1.4226-.0433-2.8456-.1373-4.2671-.2059l-18.905-.9119c-1.5367-.0741-3.1018-.0688-4.633-.234a10.0049,10.0049,0,0,1-8.7637-8.8448c-.4279-3.7851-.6389-7.6078-.9576-11.4033l-1.6627-19.7994c-.3407-4.0558-.1448-8.9907-1.7957-12.7832a13.5014,13.5014,0,0,0-4.4595-5.5151c-2.3011-1.681-5.1887-2.4273-7.7929-3.51-2.989-1.2421-5.9251-2.6177-8.8049-4.0948-2.5965-1.3319-5.1181-3.0934-8.0136-3.6988a13.8623,13.8623,0,0,0-10.8917,2.2795c-1.3033.9158-2.5941,1.85-3.8911,2.775-9.2,6.5607-18.3784,13.1516-27.5992,19.6826a10.4637,10.4637,0,0,1-8.5595,2.0624c-2.6391-.6118-4.446-2.2409-6.2175-4.1369l-12.4835-13.36c-3.7268-3.9886-8.85-8.0648-7.4419-14.23.91-3.986,4.71-7.4419,7.2179-10.4975,6.594-8.0329,13.2888-15.9936,19.7867-24.1046a13.9183,13.9183,0,0,0,1.9392-14.5658A148.0228,148.0228,0,0,1,85.6108,776.89c-.7792-2.6278-1.3179-5.3252-2.9278-7.6043a13.9007,13.9007,0,0,0-5.3689-4.6077,20.541,20.541,0,0,0-5.2449-1.4557l-34.1368-6.2181c-1.2561-.2289-2.5537-.3961-3.7878-.7328a10.0007,10.0007,0,0,1-7.2735-10.0975c.1425-4.7291.4563-9.4592.6842-14.1847l.4459-9.2441a45.1529,45.1529,0,0,1,.2862-4.8594A10.0077,10.0077,0,0,1,37.08,709.61c1.2125-.136,2.4365-.2046,3.6521-.3067l34.4884-2.8962a17.6579,17.6579,0,0,0,6.29-1.4136,13.5478,13.5478,0,0,0,5.3483-4.6679c1.6532-2.4408,2.4122-5.5023,3.5608-8.196q1.8646-4.3724,4.0634-8.5934c1.3407-2.58,3-5.0374,3.4885-7.9546a13.893,13.893,0,0,0-2.423-10.41c-6.3837-9.0639-12.8752-18.0537-19.3122-27.08-2.87-4.0239-6.532-8.02-5.0408-13.3964.6912-2.492,2.34-4.1674,4.15-5.8582l6.0492-5.6521c4.0646-3.7979,8.1163-7.61,12.1941-11.3939a10.1424,10.1424,0,0,1,9.7-2.6287,13.3145,13.3145,0,0,1,4.9382,2.9337l26.7515,21.9593c.8813.7234,1.7544,1.4581,2.6487,2.1653a13.9967,13.9967,0,0,0,14.9049,1.502,130.4134,130.4134,0,0,1,18.2592-6.8973c2.6109-.7588,5.1353-1.3713,7.3489-3.0306a13.7816,13.7816,0,0,0,4.41-5.5322c1.5806-3.6406,1.8579-8.1047,2.5612-11.9658l3.5971-19.7476c.6835-3.7519,1.0141-7.8246,2.1853-11.4715a10.0009,10.0009,0,0,1,9.9769-6.7985c1.5981.05,3.1964.1542,4.7934.2313l18.8732.91a31.9645,31.9645,0,0,1,5.0845.3693,10.0054,10.0054,0,0,1,7.7957,8.719c1.1764,10.5463,1.7792,21.1879,2.6672,31.7623.3538,4.2131.1685,9.2711,2.1683,13.094,2.7613,5.2782,8.2052,6.537,13.2688,8.7314q4.36,1.8894,8.5676,4.1076c2.5671,1.3516,4.9457,2.8525,7.8738,3.2516,5.784.7883,9.7971-2.4334,14.1371-5.5284l15.7874-11.2589c3.8492-2.7451,7.6869-5.5072,11.5479-8.2355a10.3249,10.3249,0,0,1,9.3763-1.6852c2.341.76,3.8979,2.4225,5.51,4.1476l12.6588,13.548c1.4416,1.5428,2.8914,3.0785,4.3251,4.6288a10.1147,10.1147,0,0,1,2.4126,10.11,14.07,14.07,0,0,1-2.8946,4.5811l-4.4414,5.4106L327.696,664.6292c-2.4037,2.9282-4.9348,5.79-7.2123,8.8189-3.46,4.6018-3.2255,10.0979-.8947,15.1032a123.4893,123.4893,0,0,1,6.8,18.3053,19.1214,19.1214,0,0,0,3.1384,7.0767,13.7434,13.7434,0,0,0,5.6789,4.2122,23.9451,23.9451,0,0,0,4.6855,1.1286l16.9992,3.0965,17.1739,3.1282a24.8741,24.8741,0,0,1,4.3475.961,10.0263,10.0263,0,0,1,6.3321,9.85c-.2885,9.085-.8764,18.1694-1.3143,27.2487C383.3148,765.9474,387.0291,765.9414,387.1441,763.5582Z"/><circle class="cls-1" cx="205.809" cy="741.2169" r="74.5368"/><path d="M275.073,763.2391a72.2756,72.2756,0,1,1,2.5917-10.9625,76.2673,76.2673,0,0,1-2.5917,10.9625c-.7183,2.2854,2.866,3.2633,3.5813.9873a76.2508,76.2508,0,1,0-4.459,11.0536,79.59,79.59,0,0,0,4.459-11.0536C279.3834,761.9443,275.7987,760.9673,275.073,763.2391Z"/><circle class="cls-2" cx="205.809" cy="741.2169" r="29.4557"/><path class="cls-1" d="M745.4386,783.8348l-3.4923-20.8a9.0479,9.0479,0,0,0-9.2339-7.5445l-30.4576,1.0471a9.2434,9.2434,0,0,1-8.5252-5.0366,97.55,97.55,0,0,0-9.559-15.0085,9.1165,9.1165,0,0,1-.9112-9.7307l13.909-27.1935a9.048,9.048,0,0,0-2.911-11.5634l-17.35-11.9918a9.048,9.048,0,0,0-11.8459,1.364l-20.5451,22.6479a9.0845,9.0845,0,0,1-9.401,2.5557,97.5129,97.5129,0,0,0-14.8322-3.2989,8.922,8.922,0,0,1-7.2935-6.1987l-9.0145-29.3156a9.048,9.048,0,0,0-10.1465-6.2638l-20.8,3.4922a9.0481,9.0481,0,0,0-7.5445,9.234l1.047,30.4576a9.2433,9.2433,0,0,1-5.0366,8.5253,97.5476,97.5476,0,0,0-15.0085,9.559,9.1167,9.1167,0,0,1-9.7307.9111l-27.1934-13.9089a9.0481,9.0481,0,0,0-11.5634,2.911l-11.9918,17.35a9.0479,9.0479,0,0,0,1.364,11.8459l22.6479,20.545a9.0845,9.0845,0,0,1,2.5558,9.4011,97.5015,97.5015,0,0,0-3.2991,14.832,8.9218,8.9218,0,0,1-6.1985,7.2935l-29.3158,9.0146a9.048,9.048,0,0,0-6.2637,10.1465l3.4922,20.8a9.048,9.048,0,0,0,9.234,7.5445l30.4577-1.0471a9.2435,9.2435,0,0,1,8.5253,5.0366,97.5471,97.5471,0,0,0,9.5589,15.0085,9.1165,9.1165,0,0,1,.9112,9.7307L515.7675,893.38a9.0479,9.0479,0,0,0,2.911,11.5634l17.35,11.9918a9.0479,9.0479,0,0,0,11.8459-1.3639L568.42,892.9237a9.0843,9.0843,0,0,1,9.401-2.5558,97.5026,97.5026,0,0,0,14.8321,3.299,8.9218,8.9218,0,0,1,7.2934,6.1985l9.0147,29.3158a9.048,9.048,0,0,0,10.1465,6.2637l20.8-3.4922a9.048,9.048,0,0,0,7.5445-9.234l-1.0472-30.4575a9.2436,9.2436,0,0,1,5.0367-8.5254,97.5422,97.5422,0,0,0,15.0085-9.5589,9.1163,9.1163,0,0,1,9.7306-.9112l27.1935,13.9089a9.0479,9.0479,0,0,0,11.5633-2.9109l11.992-17.35a9.0478,9.0478,0,0,0-1.364-11.8459l-22.648-20.5451a9.0841,9.0841,0,0,1-2.5557-9.401,97.5253,97.5253,0,0,0,3.299-14.832,8.922,8.922,0,0,1,6.1986-7.2935l29.3156-9.0146A9.048,9.048,0,0,0,745.4386,783.8348Z"/><path d="M747.2292,783.3411l-1.815-10.81-1.2151-7.2373a31.516,31.516,0,0,0-.7241-3.874,11.0358,11.0358,0,0,0-7.64-7.4245,15.3341,15.3341,0,0,0-4.54-.3129l-13.12.451-13.741.4724a25.54,25.54,0,0,1-3.2031.0508c-4.7767-.4448-6.2733-5.0019-8.362-8.5808q-1.86-3.1872-3.958-6.2272c-1.3058-1.8926-3.0571-3.6982-4.0674-5.7661a7.5438,7.5438,0,0,1,.2642-6.8631c1.7662-3.4759,3.551-6.9425,5.3265-10.4138L697.16,703.657c.5191-1.015,1.0538-2.0238,1.5581-3.0463a11.1254,11.1254,0,0,0,.5459-9.1124c-1.66-4.1678-5.8844-6.3516-9.399-8.7808l-11.3474-7.8429c-4.7179-3.2608-10.8632-3.0441-14.8758,1.3066-2.3128,2.5076-4.5848,5.054-6.8767,7.5806l-10.2111,11.2561c-2.4915,2.7465-4.8361,6.2122-8.9834,6.1062-2.3312-.0595-4.7393-1.1677-6.9935-1.7272q-3.6947-.9171-7.4533-1.5437c-2.0488-.3416-4.1237-.46-5.8483-1.7449a7.1606,7.1606,0,0,1-2.5015-3.5395c-.9685-2.964-1.8345-5.9657-2.7509-8.946l-4.5315-14.7366c-1.0139-3.2973-1.734-7.1457-4.0869-9.783a11.0742,11.0742,0,0,0-10.0746-3.39c-1.2239.191-2.444.41-3.6656.6155l-14.5674,2.4458a24.8713,24.8713,0,0,0-4.0441.8091,11.0215,11.0215,0,0,0-7.1523,7.885c-.6861,3.1036-.1391,6.6752-.0313,9.81l.5333,15.5116.2041,5.9383a18.9732,18.9732,0,0,1,.0028,3.3368c-.69,4.7032-5.4079,6.1548-8.9808,8.2652q-3.176,1.8759-6.2037,3.9887c-1.8367,1.2814-3.6154,3.0637-5.69,3.9417-3.8679,1.6371-7.3969-.8751-10.7165-2.573-7.479-3.8253-14.9078-7.7735-22.4461-11.4807a11.1533,11.1533,0,0,0-9.4761-.3642,12.286,12.286,0,0,0-5.1995,4.6246l-7.81,11.3c-2.443,3.5346-5.6708,7.11-5.5364,11.6747a11.1429,11.1429,0,0,0,3.66,7.89c.901.8293,1.8142,1.6458,2.7212,2.4685,6.4785,5.877,12.9791,11.7307,19.4361,17.6314a7.5916,7.5916,0,0,1,2.7305,6.35c-.1952,2.3651-1.2722,4.7827-1.8321,7.0911q-.8977,3.7014-1.5043,7.4653c-.3218,1.9969-.5174,3.9314-1.84,5.5579a7.1763,7.1763,0,0,1-3.378,2.2773c-.9863.3212-1.9843.61-2.9757.915l-25.4888,7.8378a12.5936,12.5936,0,0,0-5.26,2.8681,11.1249,11.1249,0,0,0-3.11,9.8314c.5892,3.7857,1.2692,7.5594,1.9035,11.3377L468.8,828.03a21.8191,21.8191,0,0,0,.9092,4.2124,10.9638,10.9638,0,0,0,8.1212,6.8725,18.6979,18.6979,0,0,0,4.0715.1427l26.9638-.927a15.3684,15.3684,0,0,1,3.5432.0686c4.61.9349,6.038,5.7743,8.1771,9.353q1.8918,3.1647,4.0193,6.18c1.2751,1.8076,3.052,3.5663,3.7971,5.6766a7.7648,7.7648,0,0,1-.6529,6.2742l-12.1385,23.7319c-.4757.93-.9672,1.8537-1.4277,2.7912a11.1889,11.1889,0,0,0-.1729,9.8325c1.7579,3.7625,6.2007,6.0154,9.49,8.2888l11.0966,7.67a11.1206,11.1206,0,0,0,14.7657-1.5048c5.8282-6.3447,11.5781-12.7631,17.3666-19.1441,2.5564-2.818,5.0154-6.2755,9.3749-5.6746,2.4388.3362,4.8707,1.3559,7.2725,1.9248q3.708.8784,7.4772,1.4647c1.9687.3064,3.8.6166,5.324,2.0118a7.2419,7.2419,0,0,1,1.9978,3.1485c2.6036,7.9723,4.9337,16.0443,7.3987,24.0606,1.0512,3.4185,1.7887,7.3507,4.4826,9.9045a11.1758,11.1758,0,0,0,9.5869,2.84c1.3574-.2125,2.7108-.4552,4.0658-.6826l14.4934-2.4334a19.4955,19.4955,0,0,0,4.3786-1.0242,10.9223,10.9223,0,0,0,6.5854-8.3482c.4686-3.0867-.01-6.4553-.1167-9.5515l-.5335-15.5186-.1971-5.7307a13.1647,13.1647,0,0,1,.1654-3.7954,7.42,7.42,0,0,1,3.1809-4.3971c2.0956-1.3269,4.39-2.3663,6.5173-3.6531q3.1533-1.9074,6.1565-4.05c1.7908-1.2772,3.514-3.0116,5.67-3.6311,3.6908-1.0607,7.1524,1.4377,10.2971,3.0461l13.7281,7.0217c2.7928,1.4284,5.5657,2.9074,8.3828,4.2876a11.1729,11.1729,0,0,0,10.1536-.0015,12.9665,12.9665,0,0,0,4.6121-4.4952L725.14,872.76c2.5289-3.6589,5.6952-7.2422,5.19-12.0257-.4775-4.5218-3.5192-7.0415-6.6142-9.849l-11.0982-10.0678c-2.7166-2.4643-5.4469-4.9145-8.15-7.3934a7.43,7.43,0,0,1-2.524-6.9952c.4987-2.48,1.3969-4.9018,1.9682-7.373q.8589-3.7147,1.4252-7.4889c.4753-3.1667,1.9-5.7723,5.1115-6.81,1.0832-.35,2.1771-.6695,3.265-1.004l14.0642-4.3248,11.0793-3.4069a13.1888,13.1888,0,0,0,4.8381-2.4877,11.0784,11.0784,0,0,0,3.5346-10.1928,1.871,1.871,0,0,0-2.2843-1.297,1.9031,1.9031,0,0,0-1.297,2.2843,7.2788,7.2788,0,0,1-4.97,7.8632c-.8355.2743-1.6827.5174-2.5232.7759l-13.4543,4.1372-12.1035,3.7218a14.2828,14.2828,0,0,0-4.2872,1.875,10.8524,10.8524,0,0,0-3.6223,4.3853c-.927,2.0814-1.0454,4.3931-1.4524,6.612q-.6858,3.7386-1.6614,7.4165c-.5822,2.1923-1.4621,4.3687-1.4705,6.6663a11.0952,11.0952,0,0,0,3.6361,8.1764c2.5028,2.3064,5.0423,4.5741,7.563,6.8608l11.1782,10.14c2.5378,2.3021,5.9792,4.6118,6.1852,8.3532a8.7656,8.7656,0,0,1-1.9822,5.5932l-3.4881,5.0467-7.5195,10.8794a7.5,7.5,0,0,1-5.6425,3.4612,8.6776,8.6776,0,0,1-4.6716-1.2073l-11.1667-5.7115-12.5584-6.4233c-.8352-.4272-1.6642-.87-2.5071-1.2824a11.1521,11.1521,0,0,0-11.2625.6443c-4.0491,2.7858-7.9048,5.7-12.205,8.1186-1.9406,1.0915-4.0428,1.9664-5.68,3.5137a11.13,11.13,0,0,0-3.0287,5.0181c-.8708,3.0987-.2844,6.83-.1757,9.9937.2742,7.975.77,15.9758.82,23.9556a7.2915,7.2915,0,0,1-5.9936,7.2137c-1.14.2244-2.2948.3894-3.4408.5818l-14.4014,2.4179c-1.14.1914-2.29.4515-3.4419.56a7.2811,7.2811,0,0,1-7.5721-5.01c-.94-2.8865-1.7857-5.807-2.6779-8.7084l-4.5076-14.6588c-.9352-3.0412-1.6117-6.7667-3.58-9.3355a10.8349,10.8349,0,0,0-4.57-3.4656c-2.0984-.8493-4.4746-.9436-6.6855-1.3615q-3.733-.7056-7.404-1.7c-2.1639-.5871-4.2918-1.4211-6.5707-1.3275a11.1691,11.1691,0,0,0-7.8015,3.666c-.8446.9185-1.677,1.8487-2.5154,2.7729q-8.7573,9.6535-17.5148,19.3075a7.6652,7.6652,0,0,1-5.677,2.82,9.1019,9.1019,0,0,1-5.3192-2.0717l-11.502-7.95c-3.2982-2.28-7.7017-4.3922-7.7871-8.9989-.0575-3.1037,2.2745-6.3524,3.6354-9.0131,3.6674-7.17,7.4767-14.2849,11.0085-21.5228a11.1541,11.1541,0,0,0-.91-11.6082,116.5386,116.5386,0,0,1-8.1075-12.2971c-1.0686-1.9225-1.9419-3.9616-3.545-5.5181a11.1086,11.1086,0,0,0-5.1242-2.8442,16.3733,16.3733,0,0,0-4.391-.2545l-26.721.9186c-.9416.0324-1.8932.1046-2.8358.0772a7.3078,7.3078,0,0,1-6.8646-6.1832c-.66-3.5441-1.1948-7.1161-1.7917-10.6712l-1.2053-7.1788a28.9314,28.9314,0,0,1-.5485-3.6331,7.2747,7.2747,0,0,1,5.0487-7.1854c.9348-.3039,1.88-.5782,2.82-.8671l25.4559-7.8276a13.5348,13.5348,0,0,0,4.75-2.3315c3.6246-2.9532,3.76-7.2526,4.5876-11.5067q.7255-3.7276,1.7395-7.3913c.5921-2.1386,1.3576-4.2165,1.1637-6.4744a11.2581,11.2581,0,0,0-3.6822-7.4323c-6.2907-5.772-12.6477-11.4733-18.971-17.2095-2.7089-2.4573-6.0271-4.7442-5.8821-8.847a9.4263,9.4263,0,0,1,2.1486-5.05l3.6318-5.2546c2.44-3.5307,4.8664-7.0716,7.321-10.5924a7.39,7.39,0,0,1,6.2916-3.3225,9.4022,9.4022,0,0,1,4.1232,1.3265l23.8131,12.18c.741.379,1.4764.7734,2.2248,1.1379a11.2439,11.2439,0,0,0,12.006-1.22,100.5872,100.5872,0,0,1,12.3443-8.0467c1.9072-1.0469,3.8664-1.9335,5.3419-3.59a11.0932,11.0932,0,0,0,2.656-5.2245c.5926-3.098.0826-6.5678-.0246-9.6871l-.5249-15.269a76.7755,76.7755,0,0,1-.2562-8.9813,7.3279,7.3279,0,0,1,6.1735-6.4841c1.2151-.2262,2.44-.41,3.6586-.6142l14.3773-2.4139a22.7119,22.7119,0,0,1,3.8274-.5214,7.2631,7.2631,0,0,1,6.8025,5.0763c2.5624,7.8759,4.8717,15.8432,7.306,23.76.9909,3.2224,1.6948,6.9389,3.96,9.5393,3.0534,3.5058,7.5416,3.5462,11.7761,4.3941q3.7221.7452,7.3787,1.7782a16.1263,16.1263,0,0,0,6.3764.9792c4.4876-.52,6.9776-3.5834,9.7692-6.6608l9.91-10.9248c2.48-2.7336,4.95-5.4766,7.4394-8.2009a7.5211,7.5211,0,0,1,6.3522-2.6831,10.131,10.131,0,0,1,4.7872,2.2126l11.7684,8.1339c3.4123,2.3585,7.6411,4.52,7.26,9.4031a10.1206,10.1206,0,0,1-1.366,3.8546l-2.4641,4.8176-7.0218,13.7283c-1.3217,2.584-2.7588,5.1384-3.9668,7.7787-1.92,4.1972-.9851,8.4445,1.7168,12.012a97.5009,97.5009,0,0,1,7.9856,12.3915,16.1541,16.1541,0,0,0,3.6474,5.1507,11.0924,11.0924,0,0,0,5.3187,2.4641,19.9343,19.9343,0,0,0,3.867.0953l13.3447-.4588,13.4091-.461a19.6242,19.6242,0,0,1,3.2368-.0169,7.3518,7.3518,0,0,1,6.17,6.1615c1.2738,6.9,2.3252,13.8488,3.4871,20.7692C744.0428,786.68,747.6224,785.6829,747.2292,783.3411Z"/><circle class="cls-1" cx="606.4679" cy="796.4742" r="57.5085"/><path d="M661.8745,801.7763a55.616,55.616,0,1,1,.152-8.7067,59.1567,59.1567,0,0,1-.152,8.7067c-.2131,2.38,3.5021,2.3655,3.714,0a59.0665,59.0665,0,1,0-1.5573,9.2469,62.4585,62.4585,0,0,0,1.5573-9.2469C665.8159,799.3984,662.1,799.414,661.8745,801.7763Z"/><circle class="cls-2" cx="606.4679" cy="796.4742" r="22.7264"/><path class="cls-1" d="M678.1219,215.7392,563.11,331.318c-4.557-8.3669-16.5106-41.6745-24.7571-51.386a194.3766,194.3766,0,0,0-13.5353-14.43l56.1363-55.2178a35.4277,35.4277,0,0,1,25.9948-10.1521l53.262,1.7316"/><path d="M676.8088,214.4261l-11.48,11.5369-27.4706,27.606L604.56,287.0307l-28.68,28.8209-9.3991,9.4454c-1.476,1.4832-3.1631,2.9043-4.4974,4.5195-.0556.0674-.1256.1263-.1874.1884l2.9165.3758c-1.6352-3.0213-2.9426-6.2308-4.2882-9.3873-1.9684-4.6174-3.8915-9.254-5.872-13.8663-2.1242-4.9469-4.2973-9.8767-6.6606-14.7148a83.7142,83.7142,0,0,0-6.4483-11.4735,78.8987,78.8987,0,0,0-6.3548-7.53q-4.3242-4.7582-8.9588-9.2195v2.6262l16.2963-16.03,28.5862-28.1185,9.3676-9.2144c3.67-3.61,7.5486-6.8281,12.3675-8.858a34.1482,34.1482,0,0,1,14.239-2.6042c1.0237.029,2.0473.0665,3.0709.1l16.3605.5319,33.134,1.0772.658.0213c2.3906.0778,2.3879-3.6363,0-3.7139l-29.1244-.9469-18.275-.5941c-4.5421-.1476-9.0173-.4065-13.5336.3732a38.2156,38.2156,0,0,0-20.244,10.7294l-7.5387,7.4153-28.0937,27.6341c-6.5216,6.4148-13.1623,12.73-19.5747,19.2544-.1055.1074-.2148.2113-.3221.3168a1.8807,1.8807,0,0,0,0,2.6262q4.0449,3.8879,7.8522,8.0116c2.1,2.2735,4.6591,4.99,6.337,7.234a71.1345,71.1345,0,0,1,6.3927,11.0106c4.5969,9.2314,8.4734,18.8046,12.4938,28.2948,1.5492,3.6566,3.0335,7.3919,4.9263,10.8891a1.8748,1.8748,0,0,0,2.9166.3758l11.48-11.5369,27.4706-27.606,33.2978-33.4617,28.68-28.8209c4.6242-4.647,9.4166-9.1774,13.8965-13.965.06-.0646.125-.1256.1874-.1883a1.8581,1.8581,0,0,0-2.6262-2.6262Z"/><path d="M562.7655,331.4034c3.5963-3.0538,1.4147-12.1094-4.9-23.7042L538.28,321.2208C549.5416,330.3788,558.9539,334.64,562.7655,331.4034Z"/><path d="M564.0786,332.7165c2.7733-2.4607,2.4862-6.7143,1.8374-10.0054-1.1061-5.6109-3.7442-10.959-6.4475-15.9492a1.87,1.87,0,0,0-2.5407-.6662l-17.1058,11.81-2.48,1.7121c-.8847.6107-1.3756,2.1069-.3758,2.9165,4.9507,4.009,10.2092,7.9024,16.14,10.3355,3.4783,1.427,7.7891,2.4367,10.9719-.1529a1.8716,1.8716,0,0,0,0-2.6262,1.8978,1.8978,0,0,0-2.6262,0c.234-.19-.3286.1931-.47.2628.2574-.1266-.4791.1467-.6378.1862-.1.0249-.4143.0744-.1557.0408-.1631.0212-.3286.0288-.4928.0354a8.244,8.244,0,0,1-1.1621-.0355,17.139,17.139,0,0,1-4.8573-1.4768,65.5344,65.5344,0,0,1-14.0838-9.1955l-.3759,2.9166,17.1058-11.81,2.48-1.712-2.5407-.6662a57.8536,57.8536,0,0,1,5.8764,14.152,15.0106,15.0106,0,0,1,.4646,4.7544,3.5637,3.5637,0,0,1-1.15,2.5474C559.6609,331.68,562.2954,334.2987,564.0786,332.7165Z"/><path class="cls-3" d="M538.3525,279.932a194.3766,194.3766,0,0,0-13.5353-14.43l-20.5058,18.3912-5.8343,5.2326L397.43,205.9288l-26.1548,32.8394,84.1911,89.5686c31.6517,25.8449,46.764,28.3572,68.3124,14.7682l15.8579-10.3058L562.5,317.1052C556.4747,300.85,546.599,289.6435,538.3525,279.932Z"/><path d="M539.6656,278.6189a197.82,197.82,0,0,0-13.5353-14.43,1.9,1.9,0,0,0-2.6262,0l-20.5133,18.3979-5.8268,5.2259H499.79l-10.117-8.33L465.586,259.6508,436.4717,235.68l-25.33-20.8555c-4.0742-3.3545-8.1213-6.7455-12.2243-10.0648-.0585-.0474-.1162-.0957-.1743-.1435a1.8809,1.8809,0,0,0-2.6262,0l-22.961,28.8294-3.1937,4.01a1.9124,1.9124,0,0,0,0,2.6262l6.3317,6.7362,15.8,16.81,20.4767,21.7847,20.3608,21.6613,15.4526,16.44A79.8432,79.8432,0,0,0,456.44,331.5a155.2432,155.2432,0,0,0,20.7344,14.5117,53.6777,53.6777,0,0,0,17.0088,6.5271c11.013,1.8768,21.3682-1.9723,30.5652-7.8509,5.4282-3.47,10.9047-6.9143,16.2195-10.5552q10.2672-7.0333,20.5212-14.0861l1.9484-1.3374a1.8976,1.8976,0,0,0,.8534-2.0972,95.4636,95.4636,0,0,0-11.4284-21.4837c-4.058-5.7707-8.6344-11.1376-13.197-16.5089-1.55-1.8243-4.1658.8137-2.6262,2.6262,4.358,5.13,8.74,10.2453,12.6163,15.7572A91.8246,91.8246,0,0,1,560.71,317.5989l.8534-2.0972-18.9385,13c-5.3381,3.6642-10.7873,7.154-16.2165,10.6823-7.5648,4.9162-15.5858,9.77-24.8206,10.1594-12.5888.5307-24.159-6.87-33.96-13.9363q-2.745-1.9791-5.419-4.055c-1.8054-1.4-3.7722-2.7555-5.43-4.3286-.1568-.1489-.2987-.3178-.4467-.4753l-3.2268-3.4328-13.7406-14.6183-19.5587-20.808-20.6994-22.0216L381.9437,247.408l-8.9492-9.5209-.4061-.432v2.6262l22.961-28.8294,3.1938-4.01H396.117l10.117,8.33,24.0872,19.8322,29.1143,23.9713,25.33,20.8554c4.0742,3.3545,8.1213,6.7456,12.2243,10.0649.0585.0473.1162.0957.1743.1435a1.9151,1.9151,0,0,0,2.6262,0L522.13,270.4033l4.0007-3.5881h-2.6262a197.82,197.82,0,0,1,13.5353,14.43C538.5908,283.0678,541.2071,280.43,539.6656,278.6189Z"/><path d="M724.36,383.6911l.3256,7.371a23.1425,23.1425,0,0,1-15.1925,22.7638L691.766,420.29l.2356-42.347"/><path d="M722.5034,383.6911c.119,2.6938.31,5.3939.3463,8.09a21.3292,21.3292,0,0,1-5.23,14.2855c-4.8081,5.4621-12.0594,7.2223-18.6474,9.6244l-7.7005,2.8077,2.3507,1.7906.2065-37.1171.0291-5.23c.0133-2.39-3.7007-2.3931-3.714,0l-.2065,37.1172-.0291,5.23A1.8706,1.8706,0,0,0,692.26,422.08l16.6625-6.0753a27.461,27.461,0,0,0,10.3843-6.306,25.3034,25.3034,0,0,0,7.1209-15.0786c.3946-3.5908-.051-7.3319-.21-10.9292-.1052-2.38-3.82-2.3936-3.714,0Z"/><path class="cls-3" d="M782.8456,527.5983,858.23,500.9738,895.107,604.3227s-28.6554,12.207-45.5271-25.13a14.6974,14.6974,0,0,0-18.4617-7.7918c-9.12,3.3568-17.9291,6.646-17.9291,6.646"/><path d="M783.3393,529.389l25.634-9.0535L849.48,506.0291l9.2437-3.2647-2.2844-1.297,3.686,10.33,8.765,24.5647,10.6833,29.94,9.2007,25.7856,3.0432,8.5287a36.1277,36.1277,0,0,0,1.4342,4.02,1.6055,1.6055,0,0,1,.0642.18l.8534-2.0972c.9247-.3922.2087-.089-.0132-.0107-.4058.143-.8126.28-1.2246.4044a32.8042,32.8042,0,0,1-4.3438.9609c-.1161.0184-.2327.0341-.3492.05.0594-.0083.4149-.0525.0642-.01-.2466.03-.4932.0591-.74.0845q-.7819.08-1.5672.124a32.8185,32.8185,0,0,1-3.4432.0106,28.3468,28.3468,0,0,1-7.4325-1.352c-6.6071-2.0894-12.2017-6.6174-16.4808-12.0653a64.975,64.975,0,0,1-7.4557-12.6613,16.5173,16.5173,0,0,0-17.8585-9.3576c-3.099.5131-6.0945,1.9626-9.0265,3.0476q-5.8043,2.1478-11.603,4.3108c-2.2192.8285-1.2585,4.42.9873,3.5813q4.7471-1.7723,9.4989-3.5315c2.9162-1.0808,5.8175-2.2417,8.7652-3.2332a12.7853,12.7853,0,0,1,6.4157-.534,13.306,13.306,0,0,1,9.7036,7.7881,65.105,65.105,0,0,0,7.7415,12.954,38.6323,38.6323,0,0,0,17.389,12.97,33.3441,33.3441,0,0,0,14.8874,1.6045,29.117,29.117,0,0,0,7.96-1.9291,1.8529,1.8529,0,0,0,.8534-2.0972l-3.6859-10.33-8.7651-24.5646-10.6833-29.9405-9.2007-25.7857c-1.4917-4.18-2.9148-8.3934-4.4774-12.5482-.0224-.06-.0428-.12-.0641-.18a1.883,1.883,0,0,0-2.2844-1.297l-25.634,9.0535L791.5956,522.543l-9.2436,3.2647c-2.2385.7905-1.2746,4.38.9873,3.5813Z"/><path class="cls-4" d="M829.3439,571.9418c9.291-3.6458,17.0293.087,20.212,7.12,16.8932,37.3276,45.5416,25.1041,45.5416,25.1041L858.1613,500.8378,827.25,511.8813h0a9.0358,9.0358,0,0,0-11.5334,3.5445l-.4413.7336c1.5757,7.6055,7.399,10.9241,11.7673,12.36a10.7874,10.7874,0,0,1,6.9375,7.1646v0a10.8522,10.8522,0,0,1-6.512,13.2551l-4.0779,1.562Z"/><path d="M829.8375,573.7325c3.789-1.4474,8.0495-1.998,11.8471-.2539,3.6029,1.6547,5.3481,4.6461,6.9911,8.0734,3.3755,7.0411,7.9157,13.8072,14.0782,18.7081a34.4529,34.4529,0,0,0,27.2885,7.1665,26.2117,26.2117,0,0,0,5.9923-1.6577,1.8528,1.8528,0,0,0,.8534-2.0971l-3.6919-10.328-8.7792-24.56L873.7165,538.85l-9.2156-25.78c-1.4941-4.18-2.92-8.3915-4.4847-12.5457-.0224-.06-.0428-.12-.0642-.18a1.8824,1.8824,0,0,0-2.2844-1.297l-27.055,9.6657-3.8562,1.3777,1.4309.1872a10.9875,10.9875,0,0,0-13.0825,2.8317,12.0078,12.0078,0,0,0-1.4166,2.0855c-.6077,1.1949.0956,2.8527.5425,4.0287a17.28,17.28,0,0,0,3.8975,6.1091,19.23,19.23,0,0,0,5.0071,3.5747c1.8086.9024,3.864,1.3386,5.5473,2.47a9.072,9.072,0,0,1,2.89,11.5708c-1.8364,3.4675-5.274,4.4594-8.676,5.7625a1.9,1.9,0,0,0-1.297,2.2843l5.215,18.78.7387,2.66c.6386,2.3,4.2229,1.3231,3.5813-.9873l-5.2149-18.78-.7388-2.66-1.297,2.2843a41.5827,41.5827,0,0,0,6.0971-2.5018,12.745,12.745,0,0,0,2.5945-19.9805c-2.5252-2.5376-5.9469-3.0646-8.9126-4.8463a14.0621,14.0621,0,0,1-6.5968-9.2974l-.1872,1.4309a7.8436,7.8436,0,0,1,4.9-3.9928,6.9923,6.9923,0,0,1,3.3363-.0074c.8881.2181,1.7329.7994,2.6665.562,1.7257-.4388,3.43-1.2254,5.1047-1.8237l20.2606-7.2384,5.5083-1.9679-2.2844-1.297,3.692,10.328,8.7792,24.56,10.7,29.9343,9.2156,25.78,3.0481,8.5269a36.0854,36.0854,0,0,0,1.4365,4.0188,1.6116,1.6116,0,0,1,.0643.18l.8534-2.0971c.5439-.2311.4708-.1842.1063-.0547-.311.1105-.6211.2219-.9356.3227a29.4249,29.4249,0,0,1-3.3739.8535q-.5166.1-1.0361.1836c-.1831.0294-.3665.0566-.55.0837-.3433.0508.01,0,.0679-.008-.1455.0189-.2911.0376-.4369.0541-.8881.1007-1.7786.1722-2.6721.2045a31.9764,31.9764,0,0,1-5.9784-.3475c-13.2973-2.2221-22.26-13.0657-27.7416-24.7525-1.867-3.9808-4.4957-7.3095-8.6345-9.0881a18.7443,18.7443,0,0,0-14.1252.1379C826.64,570.9956,827.5989,574.5877,829.8375,573.7325Z"/><path class="cls-1" d="M868.66,524.137a4.1691,4.1691,0,0,0,5.4121,2.3391l3.67-1.4547,28.2914,79.4919s-8.8286,3.7805-15.8995,3.61L852.0147,502.9558l15.7042-6.2782,7.2413,20.4771-3.9608,1.57A4.1693,4.1693,0,0,0,868.66,524.137Z"/><path d="M867.0567,525.0742a6.056,6.056,0,0,0,7.3478,3.2492c1.2976-.4319,2.56-1.0074,3.8311-1.5114l-2.2843-1.297,9.5745,26.9019,15.2425,42.8277,3.4745,9.7624.8534-2.0972c.7913-.3372.172-.0717-.0325.0083-.37.1448-.74.2905-1.1123.4294q-1.8333.6837-3.71,1.2441a33.7513,33.7513,0,0,1-10.1077,1.6748l1.7907,1.3634-3.781-10.4315-9.1245-25.1735L868.02,541.68l-9.5115-26.2415-3.1391-8.66a38.8359,38.8359,0,0,0-1.5-4.14,1.685,1.685,0,0,1-.0638-.1761l-1.297,2.2844,15.7043-6.2783-2.2843-1.297,6.3338,17.9109.9075,2.5662,1.297-2.2843c-1.32.5233-2.6477,1.03-3.9608,1.57a6.1094,6.1094,0,0,0-3.6363,7.6965c.7853,2.2411,4.3747,1.2768,3.5814-.9873a2.4768,2.4768,0,0,1,.2521-2.4667,2.1939,2.1939,0,0,1,1.3255-.8734l3.4254-1.3579a1.8881,1.8881,0,0,0,1.297-2.2843L870.4171,498.75l-.9075-2.5662a1.8762,1.8762,0,0,0-2.2843-1.297l-15.7043,6.2782a1.8873,1.8873,0,0,0-1.297,2.2844l3.781,10.4315,9.1245,25.1735L874.1284,569.4l9.5115,26.2415c1.5459,4.2648,3.028,8.5594,4.6395,12.8.0222.0583.0426.1174.0638.176a1.9256,1.9256,0,0,0,1.7907,1.3633c5.7305.0832,11.5958-1.63,16.8368-3.8636a1.8535,1.8535,0,0,0,.8534-2.0972L898.25,577.1178,883.0071,534.29l-3.4745-9.7624a1.8769,1.8769,0,0,0-2.2843-1.297c-1.1092.44-2.2155.888-3.328,1.3193-1.5927.6175-2.9235.3009-3.6566-1.35a1.8723,1.8723,0,0,0-2.5408-.6662A1.9008,1.9008,0,0,0,867.0567,525.0742Z"/><line class="cls-1" x1="829.3945" y1="517.7458" x2="827.4159" y2="511.9"/><path d="M831.1852,517.2522l-1.7332-5.1208-.2454-.7251a1.8574,1.8574,0,0,0-3.5813.9873l1.7331,5.1208.2455.7251a1.8574,1.8574,0,0,0,3.5813-.9873Z"/><path class="cls-1" d="M842.1225,571.6568s-.7936-5.1747,5.1989-7.9046"/><path d="M843.9132,571.1631c.1258.8356.0362.3.032-.0422-.0024-.19.0041-.3806.018-.57.0084-.1151.0266-.23.0336-.3451.0049-.0806-.09.5821-.0332.2537.0129-.0747.0243-.15.0382-.2242a7.4663,7.4663,0,0,1,.2113-.8518c.0481-.1542.1031-.3055.159-.457.1264-.3429-.1179.2571-.0633.1417.0373-.0788.0711-.1594.1088-.2381A7.4849,7.4849,0,0,1,845,567.8241c.0564-.0821.1231-.16.1749-.2443.0184-.03-.2812.3485-.1562.2017.0386-.0454.0746-.0931.1126-.139q.2073-.25.4344-.4825.2758-.2829.5773-.5392c.0522-.0445.4287-.3476.1777-.15-.2488.196.1379-.095.2071-.1428a11.5931,11.5931,0,0,1,1.731-.9725,1.8648,1.8648,0,0,0,.6662-2.5408,1.9094,1.9094,0,0,0-2.5407-.6662,10.0536,10.0536,0,0,0-6.153,8.8271,7.296,7.296,0,0,0,.1007,1.1746,1.8558,1.8558,0,0,0,.8534,1.11,1.8573,1.8573,0,0,0,2.728-2.0971Z"/><path class="cls-1" d="M848.1509,576.7333s-.7936-5.1747,5.1989-7.9046"/><path d="M849.9416,576.24c.1259.8356.0363.3.032-.0421-.0023-.19.0041-.3807.018-.5705.0084-.1151.0267-.23.0336-.3451.0049-.08-.09.5822-.0332.2537.0129-.0747.0244-.15.0383-.2241a7.4261,7.4261,0,0,1,.2113-.8519c.0481-.1542.103-.3055.1589-.457.1264-.3428-.1179.2571-.0633.1418.0374-.0789.0711-.1594.1089-.2382a7.4911,7.4911,0,0,1,.5822-1.0056c.0564-.082.1231-.16.1749-.2443.0183-.03-.2813.3486-.1563.2017.0386-.0454.0746-.0931.1127-.139q.2073-.25.4344-.4824.2758-.2829.5772-.5392c.0522-.0445.4288-.3477.1777-.15-.2488.196.1379-.0949.2071-.1427a11.5947,11.5947,0,0,1,1.7311-.9726,1.8648,1.8648,0,0,0,.6662-2.5407,1.9094,1.9094,0,0,0-2.5407-.6662,10.0533,10.0533,0,0,0-6.153,8.827,7.2859,7.2859,0,0,0,.1007,1.1747,1.8557,1.8557,0,0,0,.8534,1.11,1.8573,1.8573,0,0,0,2.7279-2.0972Z"/><path class="cls-1" d="M851.7788,582.1212s-.7936-5.1747,5.1989-7.9046"/><path d="M853.57,581.6275c.1258.8356.0362.3.032-.0421-.0024-.19.0041-.3807.018-.5705.0084-.1151.0266-.23.0336-.3451.0049-.0806-.09.5821-.0332.2537.0129-.0747.0243-.15.0382-.2242a7.4663,7.4663,0,0,1,.2113-.8518c.0481-.1542.1031-.3055.159-.457.1264-.3429-.1179.2571-.0633.1417.0373-.0788.0711-.1594.1088-.2381a7.4957,7.4957,0,0,1,.5822-1.0056c.0564-.0821.1231-.16.175-.2443.0183-.03-.2813.3485-.1563.2017.0386-.0454.0746-.0931.1126-.139q.2073-.25.4344-.4825.2758-.2829.5773-.5392c.0522-.0445.4287-.3476.1777-.15-.2488.196.1379-.095.2071-.1428a11.5931,11.5931,0,0,1,1.731-.9725,1.8648,1.8648,0,0,0,.6662-2.5408,1.9094,1.9094,0,0,0-2.5407-.6662,10.0538,10.0538,0,0,0-6.153,8.8271,7.296,7.296,0,0,0,.1007,1.1746,1.8558,1.8558,0,0,0,.8534,1.11,1.8573,1.8573,0,0,0,2.728-2.0971Z"/><path class="cls-3" d="M476.619,678.5689l-39.8676,69.2987-95.29-54.412s13.7958-27.9252,50.9149-10.5789a14.6976,14.6976,0,0,0,19.0844-6.11c4.7346-8.4869,9.2775-16.72,9.2775-16.72"/><path d="M475.0155,677.6317l-13.5567,23.5645L440.0364,738.433l-4.8885,8.4973,2.5407-.6662-9.5246-5.4386-22.6492-12.933L377.909,712.1291l-23.775-13.5758-7.8636-4.49a38.9555,38.9555,0,0,0-3.7062-2.1163,1.7247,1.7247,0,0,1-.1657-.0947l.6662,2.5408a16.1455,16.1455,0,0,1,.8567-1.4717c.3431-.54.706-1.0668,1.0842-1.5825.1158-.158.2337-.3144.3519-.4706.1918-.2535-.0377.0489-.0645.083.0787-.1.1566-.2011.237-.3.2864-.352.5739-.7024.8717-1.0448a29.7719,29.7719,0,0,1,11.1839-8.2c6.3806-2.6674,13.6251-2.89,20.4038-1.4924a74.01,74.01,0,0,1,14.0986,4.851,16.78,16.78,0,0,0,13.53-.18c5.6009-2.5275,8.0118-7.887,10.8375-12.9736q2.95-5.31,5.8864-10.6274c1.1556-2.0942-2.0506-3.97-3.2069-1.8746q-2.3958,4.3416-4.8033,8.6768c-1.4881,2.6816-2.9446,5.385-4.4743,8.043a12.8323,12.8323,0,0,1-16.5436,5.444,70.9,70.9,0,0,0-14.5026-4.974c-7.1565-1.4481-14.7325-1.3693-21.6078,1.2857a34.113,34.113,0,0,0-12.69,8.5755,27.9207,27.9207,0,0,0-4.6552,6.3579,1.8952,1.8952,0,0,0,.6662,2.5408l9.5246,5.4386,22.6492,12.9331,27.6059,15.7633,23.775,13.5758c3.8475,2.197,7.6451,4.5485,11.57,6.6065.0563.0295.1106.0632.1658.0947a1.8861,1.8861,0,0,0,2.5407-.6662L451.9115,725.24l21.4224-37.2368,4.8885-8.4974c1.194-2.0754-2.014-3.948-3.2069-1.8745Z"/><path class="cls-4" d="M412.3869,675.2491c-4.6764,8.8174-12.98,11.0243-19.9749,7.76-37.1292-17.3249-50.9088,10.6083-50.9088,10.6083l95.3215,54.3571L453.09,719.4633l0,0a9.0358,9.0358,0,0,0,6.4439-10.2009l-.1429-.8441c-6.1488-4.7453-12.729-3.4713-16.9791-1.716a10.7872,10.7872,0,0,1-9.9306-.9189h0a10.8525,10.8525,0,0,1-3.6907-14.3l2.0774-3.8411Z"/><path d="M410.7834,674.3118c-1.833,3.385-4.5454,6.4256-8.2993,7.6555a13.3069,13.3069,0,0,1-9.93-.9271c-7.33-3.3246-15.2915-5.698-23.4091-5.5472a34.2848,34.2848,0,0,0-25.65,12.02A26.5843,26.5843,0,0,0,339.9,692.68a1.8951,1.8951,0,0,0,.6662,2.5407l9.5278,5.4332,22.6566,12.92,27.615,15.7474,23.7827,13.5622c3.849,2.1948,7.6481,4.5433,11.5736,6.6.0563.0295.1107.0631.1659.0945a1.8855,1.8855,0,0,0,2.5407-.6662l14.2363-24.9545,2.0291-3.5569-1.11.8534a11.0308,11.0308,0,0,0,7.9175-9.9148,12.778,12.778,0,0,0-.2308-2.8909c-.2243-1.3542-1.3438-1.998-2.455-2.6783a17.3248,17.3248,0,0,0-7.35-2.429,19.1614,19.1614,0,0,0-6.8317.6448c-2.1974.5913-4.172,1.71-6.5066,1.662a9.1,9.1,0,0,1-8.7323-7.9206c-.4178-3.453,1.5151-6.26,3.0769-9.1475a1.9042,1.9042,0,0,0-.6662-2.5407l-16.1881-10.8555-2.2932-1.5378c-1.9906-1.3349-3.8518,1.881-1.8745,3.2069l16.1881,10.8555,2.2932,1.5378-.6662-2.5407c-.8929,1.651-1.8966,3.2821-2.6275,5.0134a12.7028,12.7028,0,0,0,14.7381,17.2743c1.6074-.3931,3.0989-1.1524,4.7138-1.5467a14.3612,14.3612,0,0,1,12.3649,2.5756l-.8534-1.11a7.716,7.716,0,0,1-1.2173,6.16,7.28,7.28,0,0,1-2.61,2.1552c-.852.421-1.7448.48-2.3065,1.3333-.9866,1.4993-1.7972,3.15-2.686,4.7084L438.12,741.9568l-2.8984,5.0806,2.5407-.6662-9.5278-5.4332-22.6566-12.92-27.615-15.7474L354.18,698.7086l-7.8662-4.4857a38.9453,38.9453,0,0,0-3.7074-2.1142,1.7243,1.7243,0,0,1-.1658-.0945l.6662,2.5407c.1943-.3924.4216-.77.65-1.1432.2607-.425.5347-.8419.8185-1.2519q.2634-.38.5382-.7525c.0936-.1269.1888-.2526.2837-.3785.1913-.2538-.0378.0487-.0646.0829.0786-.1.1566-.2012.2369-.3a35.0044,35.0044,0,0,1,3.4863-3.7339,27.3252,27.3252,0,0,1,4.9156-3.6575,30.5854,30.5854,0,0,1,15.0326-4.2106c8.0695-.18,15.6064,2.4044,22.9035,5.5967a16.1959,16.1959,0,0,0,12,.5921,19.1689,19.1689,0,0,0,10.0825-9.2121C415.1286,674.0842,411.9231,672.207,410.7834,674.3118Z"/><path class="cls-5" d="M574.5672,384.5216,414.688,655.07l76.1286,43.1227S610.0244,500.8207,625.6991,467.9583s32.9423-91.8751,32.9423-91.8751"/><path d="M572.9637,383.5844l-4.2782,7.24-11.6426,19.7016-17.219,29.1382-21.0075,35.549-23.008,38.9343-23.1411,39.1595-21.6538,36.6427L432.7169,620.911,419.6,643.1072c-2.08,3.52-4.2374,7.0071-6.2459,10.5694-.0868.1538-.18.3044-.27.4565a1.8829,1.8829,0,0,0,.6662,2.5407l25.6738,14.5428,41.0719,23.2649,9.383,5.3149a1.8906,1.8906,0,0,0,2.5407-.6662q2.5335-4.1947,5.0613-8.3931,6.7542-11.21,13.4919-22.43,9.7073-16.1631,19.3844-32.3441,11.3939-19.0527,22.739-38.1345,11.8153-19.8783,23.5555-39.8013,10.9749-18.6384,21.8341-37.3448c5.92-10.2191,11.8093-20.4573,17.5746-30.7648,3.7027-6.62,7.44-13.2467,10.7771-20.0613,7.983-16.3029,14.0985-33.5933,19.9847-50.7389q6.8874-20.0621,12.9724-40.3932.3207-1.073.637-2.147c.6728-2.2985-2.91-3.28-3.5813-.9874-2.8987,9.9025-6.0292,19.7418-9.2478,29.5441-6.0339,18.3763-12.38,36.7429-20.1309,54.4761-3.41,7.8016-7.3471,15.286-11.4542,22.7375-5.2792,9.5782-10.7092,19.0735-16.1683,28.55q-10.4491,18.1389-21.0681,36.18Q567.1848,566.83,555.49,586.5241q-11.5507,19.4688-23.1618,38.9018-10.1523,16.9977-20.34,33.9742-7.5615,12.6018-15.1415,25.1923c-2.4261,4.03-5.0675,7.9959-7.3117,12.131-.0986.1815-.2146.3554-.3214.5323l2.5407-.6662L466.08,682.0467l-41.0719-23.2649-9.383-5.3149.6662,2.5407,4.2782-7.24,11.6426-19.7017,17.219-29.1381,21.0075-35.549,23.0081-38.9344,23.141-39.1595,21.6538-36.6426,18.2967-30.9618,13.1167-22.1961c2.08-3.5205,4.2374-7.0072,6.2459-10.5694.0867-.1539.18-.3044.27-.4565,1.2188-2.0623-1.99-3.933-3.2069-1.8745Z"/><path class="cls-5" d="M722.3842,349.2305l4.6149,50.7634c4.0259,17.9192-14.937,51.2574-22.252,68.1038l-31.1833,71.8149c34.0673-12.8475,118.3725-33.3076,118.3725-33.3076l25.0452,83.8324L720.5334,620.648a127.5228,127.5228,0,0,1-106.7422-14.2088l0,0A85.4905,85.4905,0,0,1,591.32,510.8445l34.6549-86.535c3.6586-9.1358,4.5862-13.9906,5.2374-23.81"/><path d="M720.5272,349.2305l3.263,35.8926c.4437,4.88.8259,9.7707,1.3314,14.6451.1187,1.145.3989,2.2587.49,3.411a34.4048,34.4048,0,0,1-.163,6.4943,72.97,72.97,0,0,1-3.6416,14.9849c-5.2406,15.6216-13.2685,30.0788-19.8143,45.1537l-15.8966,36.61L672.1937,538.438l-.2333.5373c-.5652,1.3017.403,3.3657,2.0971,2.728,17.9531-6.7582,36.5845-11.834,55.0652-16.9125q26.2187-7.205,52.6132-13.7518,5.3436-1.3353,10.6941-2.6433l-2.2844-1.297,8.4746,28.3664,13.493,45.1643,3.0776,10.3017,1.297-2.2843-18.97,5.942-39.2817,12.3043L725.5925,617.118q-2.7745.8691-5.5491,1.7382A125.6613,125.6613,0,0,1,616.2952,605.82a32.3247,32.3247,0,0,1-5.9648-5.2926q-2.7662-2.8785-5.2551-6.007A83.8709,83.8709,0,0,1,587.4589,551a84.1573,84.1573,0,0,1,2.8923-31.6458c1.1035-3.8078,2.5441-7.4784,4.015-11.1513l12.0745-30.1506,15.1354-37.7939,4.9338-12.32A116.4894,116.4894,0,0,0,630.6767,416.5a77.4077,77.4077,0,0,0,2.3926-16.001c.1608-2.3859-3.5539-2.376-3.714,0A70.92,70.92,0,0,1,626.7,416.8458c-.7856,2.5408-1.7363,5.0245-2.7246,7.4923l-3.4466,8.6065-14.276,35.6478-13.87,34.6336q-1.4034,3.5043-2.8067,7.0086A87.256,87.256,0,0,0,603.0877,597.94c3.3813,4.1479,7.1364,8.5143,11.7265,11.3293a127.4144,127.4144,0,0,0,16.2822,8.4389,129.5276,129.5276,0,0,0,91.24,4.32l26.6567-8.35L789.39,601.0252l26.7422-8.3765,1.3429-.4206a1.8862,1.8862,0,0,0,1.297-2.2843l-8.4746-28.3664-13.493-45.1643-3.0776-10.3017a1.8947,1.8947,0,0,0-2.2844-1.297c-10.2591,2.49-20.4925,5.09-30.7142,7.7292-19.9131,5.1409-39.7926,10.4555-59.498,16.3482-9.46,2.8288-18.9162,5.75-28.16,9.23l2.0971,2.728,11.8963-27.3972,17.1055-39.394c5.9086-13.6074,12.8457-26.7594,18.3244-40.5528a119.6319,119.6319,0,0,0,5.272-16.01,46.2287,46.2287,0,0,0,1.56-14.3168,19.0117,19.0117,0,0,0-.4275-3.1678c-.1633-.641.005.2947-.06-.2239-.0715-.5689-.1041-1.1455-.156-1.7164l-.699-7.6883-3.6613-40.2737-.08-.8786c-.2147-2.3609-3.9307-2.3835-3.714,0Z"/><path class="cls-1" d="M413.6839,737.1312a4.1691,4.1691,0,0,0-5.63,1.75l-1.8373,3.4937-73.2384-41.8988s4.2376-8.6185,9.7144-13.0941L440.11,742.3645l-7.8287,14.9917L413.45,746.5327l1.9832-3.771A4.1693,4.1693,0,0,0,413.6839,737.1312Z"/><path d="M414.6212,735.5277a6.14,6.14,0,0,0-8,2.12c-.7562,1.2031-1.3475,2.5327-2.0087,3.79l2.5407-.6662-24.7855-14.18-39.4585-22.5738-8.9944-5.1455.6662,2.5407a38.9122,38.9122,0,0,1,9.4241-12.7183l-2.25.29,9.6628,5.4537L374.7362,707.6l28.1089,15.8648,24.3077,13.7194,8.0222,4.5278a40.7757,40.7757,0,0,0,3.8345,2.1642,1.7488,1.7488,0,0,1,.1631.092l-.6662-2.5407-7.8287,14.9917,2.5407-.6662-16.4709-9.4671-2.36-1.3564.6662,2.5407c.66-1.2554,1.36-2.4968,1.9831-3.7709a6.1378,6.1378,0,0,0-2.4157-8.1713c-2.0726-1.1993-3.9449,2.009-1.8745,3.2069,2.7964,1.6181.1148,4.9315-.9,6.8608a1.8916,1.8916,0,0,0,.6662,2.5407l16.471,9.4671,2.36,1.3564a1.8788,1.8788,0,0,0,2.5407-.6662l7.8287-14.9917a1.89,1.89,0,0,0-.6662-2.5407l-9.6628-5.4537-23.3184-13.161L379.957,706.2815l-24.3077-13.7194c-3.9438-2.2259-7.8383-4.602-11.8567-6.692-.0553-.0287-.1088-.0614-.1631-.092a1.9249,1.9249,0,0,0-2.25.29c-4.2413,3.53-7.5712,8.541-10.0049,13.47a1.8956,1.8956,0,0,0,.6662,2.5407l24.7855,14.1795,39.4585,22.5737,8.9944,5.1456a1.88,1.88,0,0,0,2.5407-.6662c.9221-1.7534,2.2053-5.8709,4.9271-4.5772C414.8942,739.7554,416.7811,736.5544,414.6212,735.5277Z"/><path d="M369.9317,704.8919a10.3072,10.3072,0,0,1,1.135.7187c.1081.0762.5773.426.3852.2783-.2271-.1746.099.079.1524.1236.12.1.2412.1979.36.2993a18.7339,18.7339,0,0,1,1.394,1.3205,15.4309,15.4309,0,0,1,2.6979,3.7793,16.5172,16.5172,0,0,1,1.695,5.3314,22.81,22.81,0,0,1-.7769,9.0877c-.6222,2.3107,2.96,3.2965,3.5813.9874,1.4484-5.3788,1.52-11.0232-.7607-16.1758a20.2107,20.2107,0,0,0-6.3749-7.8879,12.0175,12.0175,0,0,0-1.6137-1.0694c-2.1147-1.1091-3.9943,2.0952-1.8745,3.2069Z"/><path d="M502.69,677.218l-7.54-4.2972L476.9305,662.537l-21.94-12.5045-18.975-10.8144c-3.0766-1.7534-6.112-3.6425-9.2553-5.2749-.0466-.0241-.0915-.0521-.1371-.0781-2.08-1.1853-3.9532,2.0223-1.8746,3.2069l7.54,4.2972,18.22,10.3839,21.94,12.5044,18.975,10.8144c3.0766,1.7535,6.112,3.6425,9.2554,5.2749.0465.0242.0915.0522.1371.0782,2.08,1.1853,3.9531-2.0223,1.8745-3.207Z"/><path class="cls-1" d="M632.8445,201.6682l61.2807,8.1587c9.4351.3663,14.2128,4.4592,17.7249,18.4632,0,0,10.3945,115.3674,12.8742,161.4981-13.62-15.8736-141.9852-19.2206-141.9852-19.2206L612.1437,232.4"/><path d="M632.8445,203.5252l13.6972,1.8236,27.0539,3.6018,19.3549,2.5769c2.4923.3318,4.9906.3528,7.3629,1.3206,4.3528,1.7756,6.7175,6.3555,8.22,10.7135a24.4266,24.4266,0,0,1,1.58,6.0651q.2387,2.6619.4751,5.3241.92,10.3458,1.8208,20.6933,1.3088,15.0207,2.581,30.0447,1.4633,17.2938,2.8649,34.5926,1.3921,17.2363,2.6831,34.4807c.7192,9.7075,1.4093,19.4178,1.9928,29.1345q.1768,2.9453.3365,5.8916l3.17-1.3131c-1.96-2.2575-4.916-3.5752-7.6232-4.68a80.5976,80.5976,0,0,0-12.2587-3.6783,309.6133,309.6133,0,0,0-35.0408-5.5566c-13.0645-1.4871-26.1743-2.57-39.2923-3.4551q-16.499-1.1139-33.0229-1.81-5.3732-.23-10.748-.4173a47.61,47.61,0,0,0-5.0857-.1608c-.0741.0056-.1522-.0042-.2267-.0061l1.7907,2.3507,2.9392-13.8108,7.0034-32.9082,8.5191-40.03,7.32-34.3931c1.1908-5.5955,2.4957-11.18,3.5751-16.7986.0145-.0759.0322-.1514.0483-.227.4961-2.3312-3.0833-3.3275-3.5814-.9873l-2.9392,13.8108L600.41,278.6257l-8.5191,40.0295-7.3195,34.3931c-1.1908,5.5955-2.4957,11.18-3.5751,16.7987-.0145.0759-.0322.1513-.0483.2269a1.884,1.884,0,0,0,1.7907,2.3507c4.2542.1111,8.5075.2745,12.76.4466q15.5788.63,31.1415,1.6092c12.9565.82,25.9049,1.8236,38.8174,3.1762,11.8914,1.2457,23.7744,2.716,35.497,5.1226a112.7582,112.7582,0,0,1,13.4314,3.4724c.8915.3011,1.7769.621,2.6515.9682.1729.0687.3452.1389.5174.2091a2.2986,2.2986,0,0,1,.3052.13c.3743.1657.7475.3333,1.1165.5108.6712.3229,1.3317.6695,1.97,1.0535.273.1643.5424.3348.8059.5142.1251.0851.2469.1747.3714.2607.4.2761-.0389-.0443.0857.0611a10.7182,10.7182,0,0,1,1.2014,1.1421,1.8744,1.8744,0,0,0,3.17-1.3131c-.4979-9.2408-1.1318-18.4742-1.7948-27.7044q-1.2179-16.953-2.5835-33.8948-1.4032-17.63-2.8883-35.2532Q717.98,277.0322,716.6,261.1325q-1.0026-11.5645-2.0267-23.1272c-.2854-3.221-.51-6.4551-.8621-9.67a30.895,30.895,0,0,0-2.3079-7.68,25.2978,25.2978,0,0,0-4.1541-7.2368c-3.3174-3.8592-7.9581-5.0875-12.8478-5.4368-4.6616-.333-9.3427-1.2189-13.9734-1.8354l-27.2889-3.6331-19.3-2.57-.9945-.1324c-1.0026-.1334-1.8475.9493-1.8569,1.857a1.9025,1.9025,0,0,0,1.8569,1.857Z"/><path class="cls-5" d="M726.5367,394.3685c-2.48-46.1307-6.8628-75.6225-6.8628-75.6225l-18.4747.4014a22.7269,22.7269,0,0,1-16.7926-6.883l-19.7335-20.3069L650.3647,274.799l-45.9253-6.7941L584.1224,364.03a42.0626,42.0626,0,0,1-4.7247,12.3249l-4.6151,7.9932"/><path d="M728.3937,394.3685q-1.2345-22.8723-3.403-45.6819c-.8347-8.6506-1.77-17.2944-2.9056-25.9111-.1987-1.5087-.3971-3.0179-.62-4.5232a1.8591,1.8591,0,0,0-1.7907-1.3633l-13.3485.29c-1.7026.037-3.4056.0865-5.1085.111a21.3189,21.3189,0,0,1-12.5264-3.7925c-3.3388-2.3122-6.12-5.7866-8.9306-8.6791l-11.5512-11.887c-5.4176-5.575-10.1672-11.8142-15.1432-17.7814-.6357-.7623-1.2947-1.907-2.3183-2.1581-.9528-.2338-1.9859-.2938-2.9552-.4372l-14.2689-2.1109-28.0412-4.1484-.5488-.0812a1.8951,1.8951,0,0,0-2.2843,1.297l-2.586,12.222L594.1139,307.85l-6.6218,31.2966-4.5128,21.3289c-.3072,1.4519-.5905,2.9129-.9428,4.3549-1.5216,6.2274-4.78,11.5188-7.9424,16.9957l-.915,1.5847c-1.1973,2.0736,2.0109,3.946,3.2069,1.8745a130.1339,130.1339,0,0,0,6.62-11.93,51.91,51.91,0,0,0,3.2444-10.4275l4.0639-19.2071,6.5066-30.7525,6.2052-29.3277,2.132-10.0765a48.2114,48.2114,0,0,0,1.0275-4.8565,2.0656,2.0656,0,0,1,.0442-.2087l-2.2843,1.297,24.4431,3.616,15.8561,2.3457,4.5859.6784a3.6219,3.6219,0,0,0,.9661.143c.4089-.0741-.7851-.6147-.7245-.4416.0458.1309.2371.2843.3249.39l9.5283,11.4262c1.7784,2.1327,3.484,4.34,5.42,6.3322,6.246,6.4276,12.45,12.8991,18.74,19.284a24.86,24.86,0,0,0,11.695,6.7158,30.643,30.643,0,0,0,8.0772.6834l15.5164-.3371,1.3-.0282-1.7907-1.3634c.04.2722.079.5446.1175.817q.0712.504.14,1.0083.0429.312.0852.6241c.009.0654.0695.5144.0249.1827-.0434-.3217.0176.1317.0285.2141q.63,4.751,1.1826,9.5117c1.3609,11.6535,2.4626,23.3375,3.3836,35.0337q1.0912,13.8564,1.8338,27.7373c.1283,2.3773,3.8431,2.3923,3.714,0Z"/><path d="M612.5249,456.3821l-2.4951-9.0384a36.0942,36.0942,0,0,1-.0082-19.9255c1.851-6.3024,4.2319-12.4841,6.3573-18.6974l2.6323-7.6952c.7752-2.2663-2.8109-3.24-3.5814-.9873L609.159,418.37c-.7422,2.17-1.4942,4.3362-2.2266,6.5092a39.3828,39.3828,0,0,0-.65,22.85c.8728,3.217,1.7741,6.4266,2.6611,9.64a1.8586,1.8586,0,0,0,3.5813-.9873Z"/><path class="cls-1" d="M686.1516,289.1182l69.8995-7.1168c-1.35-6.0166-14.2644-30.2013-15.0858-37.1181-1.5023-12.6516-.2362-35.21.5924-44.7011l-53.5484,3.1718"/><path d="M686.1516,290.9752l23.7018-2.4132,37.51-3.819,8.6881-.8846a1.89,1.89,0,0,0,1.7907-2.3507c-.9489-4.0957-3.0814-8.05-4.8105-11.8532-2.3774-5.2285-4.8445-10.421-7.0706-15.7167-.9008-2.1429-1.7761-4.3077-2.476-6.5259-.2593-.8218-.467-1.6477-.648-2.4893-.1053-.4895.0039.1162-.0307-.18q-.0587-.5-.1091-1.0011-.1152-1.132-.1981-2.2669a200.3585,200.3585,0,0,1-.2331-20.8681c.2024-6.8145.56-13.6321,1.149-20.4247a1.8658,1.8658,0,0,0-1.857-1.857l-18.0624,1.07-28.8238,1.7073-6.6622.3947c-2.3754.1407-2.3915,3.8556,0,3.7139l18.0623-1.07,28.8238-1.7074,6.6623-.3946-1.857-1.857a277.4961,277.4961,0,0,0-1.0508,39.21,40.6667,40.6667,0,0,0,.8021,7.4244,46.043,46.043,0,0,0,2.0673,6.01c2.1675,5.4258,4.6518,10.722,7.0852,16.0316,1.2549,2.738,2.5155,5.4752,3.6958,8.2464a33.5064,33.5064,0,0,1,1.96,5.39l1.7906-2.3506-23.7017,2.4132-37.51,3.8191-8.6882.8845a1.9125,1.9125,0,0,0-1.857,1.857,1.8682,1.8682,0,0,0,1.857,1.857Z"/><path d="M757.6767,282.0917c4.685-.5563,7.7316-11.69,8.88-24.8425l-22.1509,6.6C746.519,275.0218,752.7114,282.6812,757.6767,282.0917Z"/><path d="M758.17,283.8824c3.8656-.5637,5.7981-5.3422,6.9038-8.5243,2.012-5.79,2.7976-12.0313,3.3394-18.1089a1.87,1.87,0,0,0-2.3507-1.7907l-19.3736,5.7721-2.7773.8275a1.9053,1.9053,0,0,0-1.297,2.2843,34.1214,34.1214,0,0,0,6.0863,14.41c2.0941,2.7053,5.2859,5.5547,8.9755,5.1962a1.9086,1.9086,0,0,0,1.857-1.857,1.87,1.87,0,0,0-1.857-1.857,4.3956,4.3956,0,0,1-3.0348-.84,12.6138,12.6138,0,0,1-3.3457-3.3314,32.0742,32.0742,0,0,1-5.1-12.708l-1.297,2.2843,19.3736-5.7721,2.7773-.8275L764.7,257.2492a75.7309,75.7309,0,0,1-2.8911,16.1693,20.2027,20.2027,0,0,1-2.2307,5.0291,3.44,3.44,0,0,1-2.3947,1.8535,1.8683,1.8683,0,0,0-1.297,2.2843A1.9061,1.9061,0,0,0,758.17,283.8824Z"/><line class="cls-1" x1="447.6435" y1="716.4095" x2="452.9521" y2="719.5571"/><path d="M446.7063,718.0129l4.6507,2.7576.6578.39a1.8573,1.8573,0,1,0,1.8745-3.2069l-4.6507-2.7576-.6578-.39a1.8573,1.8573,0,0,0-1.8745,3.2069Z"/><path class="cls-1" d="M402.8753,683.7875s3.9722,3.41,1.2026,9.3842"/><path d="M401.5622,685.1006a5.1809,5.1809,0,0,1,.5518.5942c.1024.1214.1824.3277-.15-.1962.0386.0609.0869.1173.1286.1763q.1291.1827.2471.3731.1419.2294.2671.4686.0674.1286.13.26c.0731.1541.1286.4587-.0284-.0851.1206.4178.2933.811.387,1.24.0261.12.0461.24.07.3606.0728.3709-.0369-.419-.0069-.0619.0226.2684.0438.5354.0449.805.0012.2908-.0222.5773-.0428.8669-.0271.3794.07-.3982-.0146.0959q-.0409.2389-.0941.4755a10.262,10.262,0,0,1-.28.9957c-.05.1494-.1082.2958-.16.4446q-.1188.2952.0018.0117-.0672.1556-.1385.3093a1.903,1.903,0,0,0,.6662,2.5408,1.8791,1.8791,0,0,0,2.5407-.6662,10.6814,10.6814,0,0,0,.6414-8.3215,8.42,8.42,0,0,0-2.1343-3.3131,1.857,1.857,0,1,0-2.6262,2.6262Z"/><path class="cls-1" d="M394.9944,683.8611s3.9723,3.41,1.2026,9.3842"/><path d="M393.6813,685.1742a5.18,5.18,0,0,1,.5518.5942c.1024.1214.1824.3277-.15-.1962.0387.0609.0869.1173.1286.1763q.1291.1827.2471.3732.142.2292.2671.4685.0674.1286.13.26c.0731.1541.1286.4587-.0284-.0851.1206.4178.2933.811.387,1.24.0261.12.0461.24.07.3606.0727.3709-.037-.419-.0069-.0619.0226.2684.0437.5354.0449.805.0012.2908-.0223.5773-.0429.8669-.0271.3794.07-.3982-.0146.0959q-.0409.239-.0941.4755a10.254,10.254,0,0,1-.28.9957c-.05.1494-.1082.2959-.16.4446q-.1188.2953.0018.0117-.0672.1556-.1385.3094a1.9031,1.9031,0,0,0,.6662,2.5407,1.8792,1.8792,0,0,0,2.5408-.6662,10.6814,10.6814,0,0,0,.6413-8.3215,8.4193,8.4193,0,0,0-2.1343-3.3131,1.857,1.857,0,0,0-2.6262,2.6262Z"/><path class="cls-1" d="M388.7325,682.1351s3.9723,3.41,1.2026,9.3842"/><path d="M387.4194,683.4482a5.172,5.172,0,0,1,.5518.5942c.1024.1214.1824.3277-.15-.1962.0387.0609.0869.1173.1286.1763q.1293.1827.2471.3731.142.2294.2671.4686.0673.1285.13.26c.0731.1541.1286.4587-.0284-.0851.1206.4177.2934.8109.387,1.24.0261.12.0461.24.07.3606.0727.3709-.037-.419-.0069-.0619.0226.2684.0437.5354.0449.8049.0012.2909-.0223.5774-.0429.8669-.0271.38.07-.3981-.0146.096q-.041.239-.0941.4755a10.2337,10.2337,0,0,1-.28.9957c-.05.1494-.1082.2958-.16.4446q-.1189.2952.0017.0117-.0672.1555-.1384.3093a1.903,1.903,0,0,0,.6662,2.5408,1.8791,1.8791,0,0,0,2.5407-.6662,10.6814,10.6814,0,0,0,.6413-8.3215,8.4193,8.4193,0,0,0-2.1343-3.3131,1.857,1.857,0,1,0-2.6262,2.6262Z"/><path d="M682.32,515.1169,675.588,530.24l-10.74,24.1272-2.4791,5.5689a1.918,1.918,0,0,0,.6662,2.5407,1.87,1.87,0,0,0,2.5408-.6662l6.7321-15.1228,10.74-24.1271,2.4791-5.5689a1.918,1.918,0,0,0-.6662-2.5407,1.87,1.87,0,0,0-2.5408.6662Z"/><path class="cls-3" d="M687.9681,203.4732a32.1313,32.1313,0,1,1-64.2143-2.4934Z"/><path d="M686.1111,203.4732a30.2758,30.2758,0,1,1-60.5-2.4934l-1.857,1.857,21.792.8462,34.4522,1.3377,7.97.3095c2.39.0928,2.3861-3.6214,0-3.714l-21.792-.8462-34.4522-1.3377-7.97-.3095a1.8856,1.8856,0,0,0-1.857,1.857,33.987,33.987,0,0,0,67.9283,2.4934C689.9307,201.0835,686.2165,201.0887,686.1111,203.4732Z"/><path class="cls-3" d="M408.6794,215.1909l-1.6714-1.3681a28.0764,28.0764,0,0,1-10.23-19.8417L396.31,187.02a40.2915,40.2915,0,0,0-4.8594-16.644l-4.4971-8.2136a7.6945,7.6945,0,0,0-11.69-2.2032h0a7.6943,7.6943,0,0,0-2.472,7.9609s-44.99-26.8794-55.7829-23.0611c-7.4832,2.6473-18.9783,23.4534-21.3186,38.3615-.99,6.3052-1.4355,17.8378,10.6677,21.4333l13.9776-.94c8.336,2.3073,4.1646-3.9017,9.1592,3.16l3.5327.5226.635,1.5494a53.42,53.42,0,0,0,26.2041,27.8493l17.4932,8.4457,7.3916,7.8638"/><path d="M409.9925,213.8778a37.3936,37.3936,0,0,1-5.7911-5.5289,26.1541,26.1541,0,0,1-4.736-9.4667c-1.0929-4.0709-.999-8.3593-1.35-12.5345a46.42,46.42,0,0,0-5.9741-18.5759l-3.03-5.5336a11.0865,11.0865,0,0,0-4.2331-4.7116A9.5555,9.5555,0,0,0,371,168.414l2.7279-2.0971c-6.8511-4.0917-13.8814-7.9131-20.9927-11.5305-5.76-2.93-11.6079-5.7125-17.6149-8.1017-4.6817-1.862-9.7-3.7646-14.7855-4.0329a9.7692,9.7692,0,0,0-5.5556,1.2145,24.8759,24.8759,0,0,0-6.8557,6.7154A79.1442,79.1442,0,0,0,296.3425,173.13c-2.1593,6.3906-3.7743,13.4636-2.5328,20.2155a16.64,16.64,0,0,0,4.3715,8.6925,16.07,16.07,0,0,0,4.7461,3.2921,8.936,8.936,0,0,0,3.8669,1.1515c2.3892-.0857,4.7827-.3218,7.1678-.4823l4.0485-.2724a14.5784,14.5784,0,0,1,2.2539-.1517c.0184.0018.0377-.0054.0562-.0038-.4369-.0379.5121.2053.2446.12a8.2771,8.2771,0,0,0,1.2557.2476,10.3219,10.3219,0,0,0,2.4256.15,5.5061,5.5061,0,0,0,2.74-.8991c.0521-.0368.1954-.0852.228-.1374-.1873.3-.9356.1559-1.2339.0527-.0655-.0227-.2278-.132-.2048-.1058.1531.1745.3129.3407.46.5211.7414.91,1.6017,2.89,3.0729,3.19,1.06.2161,2.1545.3187,3.2248.4771l-1.297-1.297a60.8693,60.8693,0,0,0,9.9968,16.8927A54.95,54.95,0,0,0,358.5836,238.23c2.9447,1.45,5.9116,2.8557,8.8674,4.2828l6.0238,2.9083,2.055.9922c.1433.0691.7164.4669.8825.426-.1931.0476-.5349-.5056-.0928.0052.25.2891.5259.5595.7876.838l2.5494,2.7122,3.7811,4.0226c1.6405,1.7453,4.2631-.8848,2.6262-2.6262-2.4343-2.59-4.7467-5.42-7.3585-7.8285a11.8828,11.8828,0,0,0-2.9351-1.5452l-6.3326-3.0574c-3.3354-1.61-6.7175-3.15-10.006-4.8554A51.5855,51.5855,0,0,1,341.68,219.4268a52.6466,52.6466,0,0,1-6.2628-11.06c-.4878-1.1794-.7931-2.5188-2.2048-2.8064-1.06-.2159-2.1545-.3188-3.2248-.4771l1.11.8534c-1.09-1.54-2.7813-5.0259-5.2106-4.3238a3.9077,3.9077,0,0,0-.8729.433c-.102.0567-.2072.12-.3062.1817-.2641.165.3581-.098-.1954.0722-.0907.0278-.1834.0465-.2755.0683-.2677.0636.3153-.0283.01.0068a5.64,5.64,0,0,1-.797.0235,13.0869,13.0869,0,0,1-2.4358-.4255c-1.6425-.3578-3.5913.08-5.2468.1915l-7.7946.5245a7.4864,7.4864,0,0,1-1.6093.1082c.33.0576-.7964-.3607-.8917-.397-.3823-.1451-.7551-.3092-1.1218-.49a13.8053,13.8053,0,0,1-2.3982-1.4632,12.522,12.522,0,0,1-4.3507-7.095c-1.4219-5.9338.0424-12.0239,1.8228-17.698a78.5608,78.5608,0,0,1,10.5213-21.5778,27.1762,27.1762,0,0,1,5.87-6.4588,5.9948,5.9948,0,0,1,2.2263-1.1258c.1549-.0378.3114-.0638.4676-.0946.2706-.0533-.3482.0091.1341-.0124.4163-.0187.8281-.0449,1.2455-.0356.4093.0091.8169.04,1.2244.0775.0957.0089.7189.0851.3239.0317.2861.0387.5712.0851.8556.1345,1.0666.1855,2.1222.4322,3.1679.7114a73.339,73.339,0,0,1,7.2894,2.422c5.5383,2.1215,10.9154,4.661,16.2171,7.3123,7.6529,3.8272,15.06,8.0568,22.5064,12.26.1283.0725.254.15.3806.2258a1.8778,1.8778,0,0,0,2.7279-2.0971,5.8365,5.8365,0,0,1,10.0116-5.424,20.253,20.253,0,0,1,2.1935,3.7218l2.7262,4.9793a40.2083,40.2083,0,0,1,4.9656,16.702c.2921,4.2843.3309,8.6813,1.5088,12.8382a29.9146,29.9146,0,0,0,5.0566,10.0507,38.2427,38.2427,0,0,0,6.3223,6.2093,1.9139,1.9139,0,0,0,2.6262,0,1.8694,1.8694,0,0,0,0-2.6262Z"/><path class="cls-1" d="M410.5812,107.95l-2.4244-16.1853A13.4142,13.4142,0,0,0,399.8029,81.27l-12.7,32.2715a13.1937,13.1937,0,0,1-16.7983,7.647,13.0544,13.0544,0,0,1-7.5755-17.008l12.7785-32.4713h0a13.4141,13.4141,0,0,0-13.2662,1.9871L349.4369,83.8879a30.2892,30.2892,0,0,0-11.0918,28.1855l2.9944,17.2625a48.2311,48.2311,0,0,1-4.2842,29.6157l-47.1692,95.4237a26.1042,26.1042,0,0,0,13.8087,35.9258l0,0a26.1042,26.1042,0,0,0,34.5893-16.88l30.1349-102.29a48.23,48.23,0,0,1,17.8225-25.322l13.2478-9.6735A30.2891,30.2891,0,0,0,410.5812,107.95Z"/><path d="M412.3719,107.4564,410.94,97.9c-.5446-3.6356-.7529-7.591-2.3785-10.94a15.5266,15.5266,0,0,0-8.2653-7.48c-.9965-.4076-1.954.4576-2.2844,1.297L391.7535,96.68c-2.1438,5.4475-4.1652,10.9631-6.4376,16.3585a11.491,11.491,0,0,1-12.6893,6.8922,11.33,11.33,0,0,1-8.8855-12.26,26.2761,26.2761,0,0,1,2.1078-6.3743l4.0149-10.2021c2.4254-6.1634,5.099-12.2845,7.2938-18.5344.0424-.1207.094-.2388.1408-.3579a1.8906,1.8906,0,0,0-1.297-2.2843,15.2641,15.2641,0,0,0-10.5044-.1168,18.7829,18.7829,0,0,0-5.2642,3.1353l-9.1287,7.2661c-3.4112,2.7152-6.6486,5.4149-9.19,9.0314a32.1226,32.1226,0,0,0-5.7366,19.5544,79.79,79.79,0,0,0,1.5166,10.3515q.9056,5.2208,1.8112,10.4417a47.5923,47.5923,0,0,1-4.4863,29.3072l-5.6743,11.4793-10.1681,20.57L307.3524,214.86l-10.83,21.91-6.9932,14.1473c-.408.8254-.8189,1.6495-1.224,2.4762A27.96,27.96,0,1,0,338.2624,278.52a65.6814,65.6814,0,0,0,3.5717-10.5769l5.3518-18.166,7.2856-24.7306,7.408-25.1457,5.8437-19.8359c.827-2.8072,1.6454-5.6171,2.4811-8.4218a46.4536,46.4536,0,0,1,8.991-16.7438,57.9035,57.9035,0,0,1,10.3235-9.1957l9.6923-7.0772a32.0014,32.0014,0,0,0,13.1608-31.17,1.8707,1.8707,0,0,0-2.2843-1.297,1.9035,1.9035,0,0,0-1.297,2.2843,28.64,28.64,0,0,1-4.0424,19.0456,31.6119,31.6119,0,0,1-8.8581,8.9865c-7.29,5.3234-15.0757,10.2689-20.6788,17.4758a56.4924,56.4924,0,0,0-9.304,19.1334l-4.255,14.4435L354.96,210.244l-7.4167,25.1754L340.992,257.658l-3.9754,13.4943c-.2891.981-.5617,1.9706-.8967,2.9371a24.19,24.19,0,0,1-10.65,12.8656A24.2446,24.2446,0,0,1,291.6,255.09q2.2776-4.6185,4.5639-9.2328l9.3108-18.836L317.01,203.6846l11.0578-22.37,8.0741-16.3341a90.67,90.67,0,0,0,5.3275-11.9745,50.448,50.448,0,0,0,1.7359-23.719c-.4823-2.9482-1.0193-5.8884-1.53-8.8318-.5125-2.9549-1.0859-5.9062-1.5388-8.8709A28.4035,28.4035,0,0,1,343.98,92.8576c2.3269-3.8516,5.564-6.6966,9.0318-9.4568L362.26,76.04a17.109,17.109,0,0,1,3.241-2.2269,11.797,11.797,0,0,1,9.5136-.3136l-1.297-2.2843-6.663,16.9313-4.4178,11.2262a43.2139,43.2139,0,0,0-2.3041,6.3012,14.8655,14.8655,0,0,0,24.5164,14.2876c2.5081-2.2264,3.731-5.1283,4.92-8.1486l3.94-10.0112,4.7672-12.114c.9846-2.502,2.102-4.99,2.9661-7.5373.0444-.1308.1017-.2584.1524-.387l-2.2844,1.297a11.6743,11.6743,0,0,1,6.1942,6.09,16.8366,16.8366,0,0,1,1.0425,4.308l1.7117,11.4275.533,3.558a1.8713,1.8713,0,0,0,2.2843,1.297A1.9021,1.9021,0,0,0,412.3719,107.4564Z"/><circle class="cls-1" cx="312.4614" cy="264.4794" r="8.9121"/><path d="M318.9638,267.2493a7.07,7.07,0,1,1-2.5475-8.6178,7.1156,7.1156,0,0,1,2.5475,8.6178,1.8721,1.8721,0,0,0,1.297,2.2844,1.8982,1.8982,0,0,0,2.2843-1.297,10.7608,10.7608,0,1,0-12.0755,6.8205,10.9294,10.9294,0,0,0,12.0755-6.8205,1.869,1.869,0,0,0-1.297-2.2844A1.9032,1.9032,0,0,0,318.9638,267.2493Z"/><path class="cls-3" d="M302.4767,202.82a121.4658,121.4658,0,0,0,35.51,11.2742c12.7683.6716,13.612-8.5888,1.6106-12.1838s-15.3078-.7515-27.53-11.4537"/><path d="M301.54,204.4237a93.7938,93.7938,0,0,0,10.4,4.5934,119.5162,119.5162,0,0,0,25.0961,6.7988c4.8432.7334,14.7063-1.1283,12.7027-8.1861-.8211-2.8923-3.542-4.9352-6.1375-6.1615a43.8716,43.8716,0,0,0-10.6135-3.0479,49.9566,49.9566,0,0,1-8.96-2.1531c-3.9869-1.5545-7.4543-4.3437-10.6463-7.1234-1.7952-1.5633-4.4328,1.053-2.6262,2.6262,5.06,4.4067,10.3953,8.0538,17.0424,9.4388,2.788.581,5.6025,1.0054,8.37,1.69,3.0467.7536,6.46,1.61,8.7693,3.8831a4.9728,4.9728,0,0,1,.9015,1.1206,3.0551,3.0551,0,0,1,.3976.9971,1.7469,1.7469,0,0,1-.4133,1.4308c-1.5625,1.8252-5.0431,2.0669-7.4353,1.9252a45.9776,45.9776,0,0,1-6.8043-1.2115q-3.1256-.6732-6.2111-1.516-5.4768-1.4921-10.8054-3.4717a90.1613,90.1613,0,0,1-11.1514-4.8394c-2.1077-1.1255-3.986,2.0794-1.8745,3.2069Z"/><path class="cls-3" d="M307.7515,191.5672a121.4658,121.4658,0,0,0,35.51,11.2742c12.7684.6716,13.6121-8.5888,1.6107-12.1838s-17.4164-2.56-29.6386-13.2626"/><path d="M306.8143,193.1707a93.8117,93.8117,0,0,0,10.4,4.5933,119.5145,119.5145,0,0,0,25.0961,6.7988c4.8432.7334,14.7062-1.1283,12.7027-8.1861-.8211-2.8922-3.542-4.9352-6.1375-6.1615-3.4252-1.6183-7.2305-2.4066-10.896-3.29a54.7958,54.7958,0,0,1-9.88-3.0238,48.1121,48.1121,0,0,1-11.5522-7.8193c-1.7952-1.5633-4.4328,1.053-2.6262,2.6262,5.485,4.7763,11.3708,8.63,18.415,10.6163,2.9979.8454,6.0507,1.4818,9.0605,2.2825,3.0573.8134,6.483,1.627,8.8143,3.9217a4.97,4.97,0,0,1,.9014,1.1206,3.0534,3.0534,0,0,1,.3977.9971,1.7469,1.7469,0,0,1-.4133,1.4308c-1.5625,1.8252-5.0431,2.0669-7.4353,1.9253a46.0073,46.0073,0,0,1-6.8044-1.2115q-3.1254-.6733-6.211-1.5161-5.4768-1.492-10.8055-3.4717a90.16,90.16,0,0,1-11.1513-4.8394c-2.1077-1.1255-3.986,2.0794-1.8745,3.207Z"/><path class="cls-3" d="M311.9358,179.5511a121.4658,121.4658,0,0,0,35.51,11.2742c12.7683.6716,13.612-8.5888,1.6106-12.1837s-17.4164-2.56-29.6386-13.2627"/><path d="M310.9986,181.1546a93.7931,93.7931,0,0,0,10.4,4.5933,119.5145,119.5145,0,0,0,25.0961,6.7988c4.8432.7334,14.7062-1.1283,12.7027-8.1861-.8211-2.8922-3.542-4.9352-6.1375-6.1615-3.4252-1.6183-7.2305-2.4066-10.896-3.29a54.8035,54.8035,0,0,1-9.88-3.0237,48.1125,48.1125,0,0,1-11.5522-7.8194c-1.7952-1.5633-4.4328,1.053-2.6262,2.6262,5.485,4.7764,11.3708,8.63,18.415,10.6164,2.9979.8453,6.0507,1.4817,9.06,2.2825,3.0573.8133,6.483,1.6269,8.8143,3.9216a4.97,4.97,0,0,1,.9014,1.1206,3.0538,3.0538,0,0,1,.3977.9972,1.7468,1.7468,0,0,1-.4133,1.4307c-1.5625,1.8253-5.0431,2.0669-7.4353,1.9253a46.0073,46.0073,0,0,1-6.8044-1.2115q-3.1254-.6733-6.211-1.5161-5.4768-1.492-10.8054-3.4717a90.1613,90.1613,0,0,1-11.1514-4.8394c-2.1077-1.1255-3.986,2.0794-1.8745,3.207Z"/><path class="cls-3" d="M313.765,167.1866a121.4658,121.4658,0,0,0,35.51,11.2742c12.7684.6716,13.6121-8.5888,1.6106-12.1837s-17.4163-2.56-29.6385-13.2627"/><path d="M312.8277,168.79a93.7946,93.7946,0,0,0,10.4,4.5933,119.5145,119.5145,0,0,0,25.0961,6.7988c4.8431.7334,14.7062-1.1283,12.7026-8.186-.821-2.8923-3.5419-4.9353-6.1374-6.1616-3.4252-1.6183-7.2305-2.4066-10.896-3.29a54.7986,54.7986,0,0,1-9.88-3.0237,48.1125,48.1125,0,0,1-11.5522-7.8194c-1.7952-1.5633-4.4328,1.0531-2.6262,2.6262,5.485,4.7764,11.3708,8.63,18.415,10.6164,2.9979.8453,6.0507,1.4817,9.06,2.2825,3.0573.8133,6.483,1.6269,8.8143,3.9216a4.9751,4.9751,0,0,1,.9014,1.1206,3.0569,3.0569,0,0,1,.3977.9972,1.7468,1.7468,0,0,1-.4133,1.4307c-1.5625,1.8253-5.0431,2.0669-7.4353,1.9253A46.0049,46.0049,0,0,1,342.87,175.41q-3.1254-.6734-6.211-1.5161-5.477-1.4921-10.8055-3.4717a90.16,90.16,0,0,1-11.1513-4.8394c-2.1078-1.1255-3.986,2.0794-1.8746,3.207Z"/><path class="cls-3" d="M408.6794,215.1909l-1.6714-1.3681a28.0764,28.0764,0,0,1-10.23-19.8417L396.31,187.02a40.2915,40.2915,0,0,0-4.8594-16.644l-4.4971-8.2136a7.6945,7.6945,0,0,0-11.69-2.2032h0a7.6943,7.6943,0,0,0-2.472,7.9609l3.3846,12.1655s-10.9514,13.6567-13.5631,29.7223"/><path d="M409.9925,213.8778a32.5613,32.5613,0,0,1-7.5079-8.0016,26.4514,26.4514,0,0,1-3.8526-11.941c-.162-2.2291-.2967-4.46-.45-6.69A43.0657,43.0657,0,0,0,395,173.5168a80.732,80.732,0,0,0-3.8413-7.5388,46.6655,46.6655,0,0,0-3.3342-5.8567,9.5348,9.5348,0,0,0-17.1116,6.7013,46.66,46.66,0,0,0,1.8462,7.1944l1.8258,6.5625.4776-1.8068a69.2509,69.2509,0,0,0-6.0926,9.2128,65.889,65.889,0,0,0-7.9481,21.3289c-.3909,2.338,3.1875,3.3432,3.5813.9874,1.6624-9.943,6.2355-19.3543,12.0641-27.5179.2767-.3875.56-.77.8435-1.1523.4316-.581-.0344.2037.1685-.2208a2.5577,2.5577,0,0,0,.445-1.97c-.109-.4712-.2607-.937-.39-1.4027l-2.65-9.5254a7.664,7.664,0,0,1-.3784-3.9183,5.842,5.842,0,0,1,10.31-2.3387,22.2816,22.2816,0,0,1,1.7,2.9733c1.607,2.935,3.358,5.8425,4.7317,8.8971a42.834,42.834,0,0,1,3.3419,14.9232c.3247,4.8247.5662,9.572,2.4062,14.1243a30.7,30.7,0,0,0,5.0744,8.4007,39.7236,39.7236,0,0,0,5.2965,4.9294,1.9139,1.9139,0,0,0,2.6262,0,1.8694,1.8694,0,0,0,0-2.6262Z"/><path class="cls-3" d="M898.3,417.1062l19.1759,15.6309,20.81-20.2592s7.1475,7.8,25.4521,16.449c12.0283,4.3361,15.5145-4.2844,5.066-11.1971-10.0375-6.6408-14.991-10.7851-22.9933-23.3177-.7315-1.1456-1.4983-2.2745-2.2936-3.3766l-30.8945-42.8107-22.0137,7.7615-19.6375,3.5926,9.5412,16.655a28.59,28.59,0,0,1,2.4,17.258"/><path d="M896.9867,418.4193l16.7707,13.67,2.4052,1.9605a1.9057,1.9057,0,0,0,2.6262,0L937.02,416.3014l2.5787-2.51h-2.6262a44.7394,44.7394,0,0,0,6.44,5.4213,97.5929,97.5929,0,0,0,8.3358,5.4843q2.7473,1.625,5.576,3.1062a43.9975,43.9975,0,0,0,6.7178,3.1876c3.07.99,6.7779,1.5653,9.7716.0224a5.7209,5.7209,0,0,0,2.8974-6.34c-.6249-3.2523-3.2635-5.8248-5.803-7.7242-2.8276-2.115-5.8747-3.912-8.648-6.11a65.4218,65.4218,0,0,1-13.8711-15.8559c-1.723-2.6311-3.4939-5.197-5.332-7.7442l-15.8595-21.9766c-4.2521-5.8922-8.4716-11.81-12.757-17.6775-.0721-.0987-.1431-.1982-.2146-.2973a1.9093,1.9093,0,0,0-2.0971-.8534l-17.8929,6.3086a31.4236,31.4236,0,0,1-4.6282,1.5457l-9.9247,1.8156-9.2055,1.6841a1.8729,1.8729,0,0,0-1.11,2.7279l6.1115,10.6682,3.0971,5.4062a14.7877,14.7877,0,0,1,1.2416,2.7131,26.8053,26.8053,0,0,1,1.3034,13.6947c-.4139,2.3372,3.1646,3.3405,3.5813.9873,1.0947-6.1817.3962-13.18-2.6384-18.7791-2.1925-4.0457-4.5811-7.9968-6.8684-11.99l-2.6211-4.5754-1.11,2.7279,18.4445-3.3743a27.127,27.127,0,0,0,4.1629-1.2653l11.0467-3.8948,7.9971-2.82-2.0971-.8534,10.1365,14.0463,16.4933,22.8548q2.0565,2.85,4.113,5.6994c3.7395,5.1908,6.9271,10.7041,11.2256,15.484,4.3752,4.8651,9.6682,8.5553,15.0526,12.2035,2.073,1.4045,4.9422,3.87,5.0966,6.3356a1.6664,1.6664,0,0,1-.6655,1.7007,5.0212,5.0212,0,0,1-2.6706.749c-4.1268.1021-7.86-2.1736-11.3786-4.0508-3.3021-1.762-6.5343-3.6605-9.6493-5.7365a62.4533,62.4533,0,0,1-8.8422-6.9425c-.114-.11-.2245-.2244-.3316-.3408a1.8824,1.8824,0,0,0-2.6262,0l-18.2311,17.7487-2.5787,2.51h2.6262l-16.7707-13.67-2.4053-1.9606a1.9144,1.9144,0,0,0-2.6261,0,1.8692,1.8692,0,0,0,0,2.6262Z"/><path class="cls-3" d="M925.8741,419.3528s13.8737,15.966,30.4006,27.6592c11.0937,6.3568,16.0225-1.5283,6.9314-10.1486S950.2029,424.964,938.28,407.7163"/><path d="M924.561,420.6659c2.9641,3.4072,6.1445,6.642,9.3669,9.8025q4.8243,4.7318,9.9453,9.1486,2.851,2.448,5.8076,4.77a46.3814,46.3814,0,0,0,6.2375,4.5507c3.171,1.7074,7.4006,3.225,10.875,1.4776,2.8807-1.4488,3.4952-4.8814,2.5811-7.7337-1.2358-3.8558-4.2755-6.5838-7.1265-9.2793-2.116-2.0006-4.23-4.005-6.2566-6.0968-6.0684-6.2637-11.1558-13.3706-16.1075-20.526-1.3511-1.9524-4.5717-.0975-3.207,1.8745a184.4735,184.4735,0,0,0,14.1574,18.5674c1.7987,2.0011,3.6875,3.9171,5.6206,5.788,2.2877,2.214,4.794,4.2886,6.8986,6.6783a11.2567,11.2567,0,0,1,2.5522,4.3651,2.9123,2.9123,0,0,1-.2527,2.6432,3.0979,3.0979,0,0,1-2.2713.767,11.4884,11.4884,0,0,1-5.0184-1.4336,36.317,36.317,0,0,1-5.7117-4q-2.891-2.2457-5.6726-4.628-4.92-4.194-9.5539-8.7094c-3.53-3.4238-7.0082-6.94-10.2378-10.6522-1.5715-1.8066-4.1891.8295-2.6262,2.6262Z"/><path class="cls-3" d="M914.7226,419.2548s12.8523,24.5949,26.3064,39.7228c9.3686,8.7012,15.953,2.135,9.047-8.318s-12.5947-20.6764-23.1772-39.3608"/><path d="M913.1191,420.192a223.2894,223.2894,0,0,0,22.8021,35.5764c2.9063,3.6495,6.1326,7.6322,10.8866,8.8249,3.291.8257,6.68-.46,7.6938-3.8941,1.2414-4.2063-1.2492-8.5685-3.4612-11.9488q-3.058-4.6734-5.93-9.4649c-5.7362-9.5229-11.13-19.2516-16.608-28.924-1.1778-2.08-4.3876-.21-3.2069,1.8746,4.7338,8.3587,9.419,16.7478,14.29,25.0278,1.87,3.178,3.7738,6.3359,5.74,9.4553,2.02,3.2049,4.7118,6.3931,5.57,10.1484a4.7353,4.7353,0,0,1-.293,3.5268,1.6182,1.6182,0,0,1-.7.5862,2.9691,2.9691,0,0,1-1.602.145c-4.0317-.5741-6.9126-4.4554-9.2827-7.3962a198.8238,198.8238,0,0,1-15.0986-22.0722c-2.6441-4.376-5.2229-8.8078-7.5931-13.34-1.1082-2.1187-4.3146-.2433-3.207,1.8745Z"/><path class="cls-3" d="M869.7852,363.7465l7.4786,7.9033a28.0771,28.0771,0,0,1,5.401,21.66l-1.1424,6.8825-6.3626,26.1a7.5781,7.5781,0,0,0,5.2886,9.0837h0a7.5782,7.5782,0,0,0,8.5047-3.2794l11.8359-18.9833"/><path d="M868.4721,365.06l6.5536,6.9257a24.6108,24.6108,0,0,1,6.1114,15.0573c.247,4.1434-.5922,8.4194-1.3762,12.481-.3624,1.8771-.8968,3.7346-1.35,5.5915-1.65,6.7691-3.3237,13.5329-4.95,20.3076a9.44,9.44,0,0,0,15.3856,9.664,13.3225,13.3225,0,0,0,2.3474-3.0745l10.89-17.4669.3081-.4942c1.2682-2.034-1.9437-3.9006-3.2069-1.8745l-9.9118,15.8973c-1.5274,2.45-2.8532,5.3389-6.108,5.7061a5.7736,5.7736,0,0,1-6.0788-3.9,6.6586,6.6586,0,0,1,.0171-3.7231l4.9373-20.2533c.4336-1.7786.9457-3.5575,1.2947-5.3549a63.7039,63.7039,0,0,0,1.5648-11.8393c-.0008-6.4157-2.1122-13.5038-6.3689-18.42-2.13-2.46-4.4934-4.7486-6.73-7.1119l-.704-.7439c-1.6462-1.74-4.2692.89-2.6261,2.6262Z"/><path class="cls-3" d="M913.8871,416.6708c9.69,19.1622,15.8126,32.2892,22.2184,43.056s-.4806,17.0154-9.4289,7.8825C913.95,451.8643,900.0984,421.4,900.0984,421.4l-6.4595-15.4208"/><path d="M912.2836,417.608c5.8671,11.6067,11.4516,23.37,17.596,34.8341,1.208,2.254,2.4453,4.4927,3.73,6.7039,1.3345,2.2968,2.8307,4.6456,3.1053,7.3563a5.6082,5.6082,0,0,1-.2229,2.42,1.809,1.809,0,0,1-1.2015,1.1465c-1.6758.4983-3.9771-.8993-5.4191-2.0472a29.5984,29.5984,0,0,1-5.4091-6.4424c-1.5815-2.2515-3.0876-4.5556-4.5447-6.8894-3.0248-4.8448-5.8428-9.818-8.5419-14.8507-3.378-6.2985-6.464-12.7244-9.5729-19.1558-.2773-.5735.1917.4792.04.1133-.1638-.3957-.3309-.79-.4964-1.1851l-2.2568-5.3878-3.66-8.7382a1.922,1.922,0,0,0-2.2843-1.297,1.867,1.867,0,0,0-1.297,2.2843c2.2144,5.2865,4.3371,10.6216,6.6478,15.8666,2.7276,6.1917,5.8765,12.2357,9.0493,18.2063,2.8042,5.2769,5.7348,10.4912,8.886,15.57,1.5728,2.5345,3.2017,5.0355,4.92,7.4741a34.9866,34.9866,0,0,0,5.586,6.8026c2.1113,1.7873,4.72,3.4513,7.5845,3.4823a5.6385,5.6385,0,0,0,5.1307-2.9841c2.6763-5.2291-1.3784-11.0227-3.8753-15.4315-6.2934-11.1129-11.7433-22.6995-17.4616-34.1122q-1.4074-2.8091-2.8248-5.6131c-1.0785-2.1335-4.2837-.2556-3.207,1.8745Z"/><path class="cls-3" d="M880.5122,376.2339,779.2752,259.2683l-7.7545,1.1345-27.2547,3.9877a194.402,194.402,0,0,1-3.3007-19.5072c-1.5023-12.6516-3.5354-27.45.4305-44.3258l27.7282-.4367,18.9116.18c25.4686.59,32.7977,5.9944,54.8217,40.8413l74.3806,113.8235"/><path d="M881.8253,374.9208l-4.0595-4.69L867.0063,357.8l-15.3305-17.7124-17.773-20.5343-18.0866-20.8965-16.2714-18.7995-12.3275-14.2427-6.2435-7.2135a4.9927,4.9927,0,0,0-.3748-.433c-1.0581-.9654-3.099-.3025-4.3858-.1142l-7.0486,1.0313-23.3956,3.423-1.9967.2921,2.2844,1.297A235.9307,235.9307,0,0,1,742.165,239.33a140.6241,140.6241,0,0,1-1.088-23.2567,86.0643,86.0643,0,0,1,2.1094-15.0222l-1.7906,1.3634,24.5849-.3872c6.9715-.11,13.9471.0533,20.9187.12,9.2181.0877,18.7784.8147,26.6361,5.7747a50.7821,50.7821,0,0,1,11.7753,11.07,208.2437,208.2437,0,0,1,13.9433,19.9424q3.2861,5.136,6.63,10.232l12.7382,19.493,17.0889,26.151,17.6614,27.0269,14.4556,22.1212L915.3,355.3914l.3342.5114c1.3024,1.9931,4.5195.1341,3.2069-1.8745l-5.2838-8.0858L900.3426,325.72,882.95,299.1039,865.3429,272.16l-14.101-21.5785c-2.2185-3.3949-4.4513-6.781-6.6557-10.1851-3.5654-5.506-7.0541-11.0548-10.86-16.4012a89.7323,89.7323,0,0,0-12.6285-14.9284A38.0973,38.0973,0,0,0,808.3068,201.3a55.9834,55.9834,0,0,0-15.4813-2.6708c-7.8741-.4506-15.8293-.39-23.7133-.3651-8.3236.0259-16.6516.2622-24.9742.3933l-2.7422.0432a1.89,1.89,0,0,0-1.7907,1.3633c-3.839,16.5549-2.1762,33.443.1915,50.0805q1.0558,7.4186,2.6787,14.74a1.9064,1.9064,0,0,0,2.2844,1.297l27.2646-3.9892,7.7446-1.133-1.8068-.4776L788.0963,272.29l24.1571,27.91,29.1955,33.7314,25.3051,29.2366,8.316,9.608c1.3142,1.5184,2.5707,3.1276,3.9615,4.577.0589.0614.1119.1293.1676.1937,1.567,1.81,4.1842-.8261,2.6262-2.6262Z"/><line class="cls-6" x1="586.9484" y1="133.4639" x2="576.2337" y2="129.8469"/><path d="M587.442,131.6732l-9.3856-3.1683-1.329-.4486a1.87,1.87,0,0,0-2.2843,1.297,1.9009,1.9009,0,0,0,1.297,2.2843l9.3856,3.1683,1.329.4487a1.8706,1.8706,0,0,0,2.2844-1.297,1.9012,1.9012,0,0,0-1.2971-2.2844Z"/><line class="cls-6" x1="585.8015" y1="149.1854" x2="574.5096" y2="149.801"/><path d="M585.8015,147.3284l-9.871.5381-1.4209.0775a1.857,1.857,0,1,0,0,3.714l9.8709-.5381,1.421-.0775a1.857,1.857,0,0,0,0-3.714Z"/><line class="cls-6" x1="588.9167" y1="161.6981" x2="579.9925" y2="168.6439"/><path d="M587.6036,160.385l-7.8194,6.0859-1.1048.86a1.86,1.86,0,0,0,0,2.6262,1.915,1.915,0,0,0,2.6262,0l7.8194-6.086,1.1048-.86a1.86,1.86,0,0,0,0-2.6262,1.9148,1.9148,0,0,0-2.6262,0Z"/><polyline class="cls-3" points="674.606 205.287 674.082 167.387 639.017 171.157 636.369 203.877"/><path d="M676.4627,205.2867l-.4588-33.2307-.0645-4.6685a1.869,1.869,0,0,0-1.857-1.857l-30.66,3.2958-4.4062.4736a1.9222,1.9222,0,0,0-1.857,1.857l-2.3175,28.6382-.33,4.0819c-.1928,2.3825,3.5223,2.37,3.714,0l2.3174-28.6382.33-4.0819-1.857,1.857,30.6595-3.2958,4.4063-.4736-1.857-1.857.4589,33.2307.0644,4.6685c.033,2.3879,3.7471,2.3947,3.714,0Z"/><path class="cls-3" d="M673.8126,172.5358c3.6233-12.8113,13.9539-19.3454,15.6362-29.3612.9769-5.8159-6.2545-22.9695-6.2545-22.9695l-57.9637-4.9059s-24.7759,50.396,7.3653,65.66c0,0,16.436,5.3723,24.5116-4.3493"/><path d="M675.6033,173.03a45.1159,45.1159,0,0,1,7.0719-13.4969c2.5359-3.5606,5.3142-7.0379,7.07-11.0739a18.0836,18.0836,0,0,0,1.6344-5.9493,19.1517,19.1517,0,0,0-.4912-4.8487,76.5515,76.5515,0,0,0-3.2243-10.9925c-.8354-2.339-1.7155-4.6671-2.6793-6.9567a1.9786,1.9786,0,0,0-1.7907-1.3634l-19.5722-1.6565-31.21-2.6415-7.1819-.6079a1.8048,1.8048,0,0,0-1.6035.92,95.1874,95.1874,0,0,0-8.9048,30.1158c-.9247,7.6507-.649,15.7348,2.3556,22.9276a28.4917,28.4917,0,0,0,6.7208,9.8334c2.4388,2.29,5.6293,4.7664,8.8978,5.6873,8.5448,2.4075,19.5332,2.2843,25.7241-5.0032,1.5389-1.8116-1.0759-4.4512-2.6262-2.6262-5.2119,6.1351-14.2436,6.04-21.3439,4.2515-.3477-.0876-.6921-.1855-1.0376-.2812-.0881-.0243-.1788-.0484-.2647-.08-.018-.0066-.0369-.0107-.0549-.0174.4625.1716-.286-.1694-.354-.204a27.3309,27.3309,0,0,1-5.1511-3.3233,25.1645,25.1645,0,0,1-6.6224-8.5707c-3.0981-6.5133-3.3909-14.0514-2.6919-21.1191a88.16,88.16,0,0,1,4.5584-19.7343q.744-2.1727,1.5757-4.314.324-.834.6615-1.6627.1763-.4323.3562-.863c.1828-.44-.0988.2226.1425-.336.4068-.9416.8138-1.8851,1.2659-2.806l-1.6035.92,19.5722,1.6566,31.21,2.6415,7.1819.6078-1.7907-1.3633a103.84,103.84,0,0,1,5.57,16.4032,22.2277,22.2277,0,0,1,.7032,4.4657,11.2086,11.2086,0,0,1-.9837,4.6193c-1.5385,4.0053-4.35,7.464-6.8273,10.9159-3.3136,4.618-6.2507,9.4379-7.8434,14.9393-.6659,2.3,2.9169,3.2824,3.5814.9873Z"/><path class="cls-4" d="M662.4426,126.1726l-1.1249,24.42c.7069-7.0948,7.2845-16.14,12.3691-15.6335s8.8218,2.6088,8.0965,9.8883c-.48,4.8186-5.3554,12.8149-8.3873,14.733l.6151,23.1665,23.963-31.3982a18.7315,18.7315,0,0,0,4.5843-13.3733l.8334-16.7663-40.3937-2.0079Z"/><path d="M660.5856,126.1726l-.9842,21.3664-.1407,3.0536c-.112,2.4312,3.4557,2.3214,3.714,0a19.9775,19.9775,0,0,1,3.8773-9.176c1.36-1.8834,3.7436-4.59,6.1825-4.6207,2.0293-.0256,4.6244.71,5.82,2.4274,1.5988,2.2955,1.054,5.74.2136,8.2087a27.9312,27.9312,0,0,1-4.71,8.4591,15.7575,15.7575,0,0,1-1.2863,1.4116,10.36,10.36,0,0,0-1.3341,1.1525,2.3013,2.3013,0,0,0-.3848,1.6469l.31,11.6818.2911,10.963a1.8748,1.8748,0,0,0,3.4605.9372l16.2205-21.2534,7.39-9.6832a25.0819,25.0819,0,0,0,4.2671-7.5221c.9163-2.8735.85-5.7722.9967-8.7323l.76-15.284a1.8874,1.8874,0,0,0-1.857-1.857l-35.4672-1.763-4.9265-.2449a1.8935,1.8935,0,0,0-1.857,1.857l-.5555,6.9714c-.19,2.3829,3.5251,2.3705,3.714,0l.5555-6.9714-1.857,1.857,35.4673,1.7631,4.9264.2448-1.8569-1.857-.6768,13.615c-.1042,2.0958.014,4.3173-.2534,6.3844-.4709,3.64-2.1739,6.5137-4.3585,9.366q-8.628,11.2652-17.2177,22.56l-6.6208,8.6751,3.46.9373-.538-20.262-.0771-2.9045-.92,1.6034c3.177-2.0987,5.4175-5.8949,7.0451-9.2422,1.83-3.7645,3.1093-8.0961,1.9141-12.2681-1.0115-3.5308-3.9756-5.6028-7.4713-6.2722a8.8934,8.8934,0,0,0-5.1816.2224,13.732,13.732,0,0,0-4.7922,3.4521,24.0713,24.0713,0,0,0-6.3867,13.5168h3.714l.9842-21.3663.1407-3.0537C664.41,123.7832,660.6954,123.7887,660.5856,126.1726Z"/><path class="cls-7" d="M669.8144,327.615l-62.896-9.998-3.135,16.9057c-2.8714,15.484,6.1268,29.9325,19.612,31.4912l17.1147,1.9784c12.5426,1.45,24.2938-8.8565,26.5935-23.3238Z"/><path d="M668.397,152.2619c.0312-.084.0639-.1675.0967-.251q.05-.1281.1023-.2555.0318-.0783.0641-.1564c.0147-.0357.03-.0712.0444-.1069.1-.2454-.1259.3007-.12.2835a17.3624,17.3624,0,0,1,.9919-2.1273,22.3155,22.3155,0,0,1,1.4759-2.5088q.1071-.1552.218-.3081c.0884-.1216.4041-.4856-.0164.0114.1566-.1851.303-.378.4646-.5592a10.8138,10.8138,0,0,1,.9262-.8867c-.49.4345-.1828.1411-.0362.0445.0935-.0616.1892-.12.2874-.1734.19-.1037.502-.1471-.0941.0207.0994-.028.1946-.0733.2946-.1015a2.7475,2.7475,0,0,0,.2973-.0649c-.0053.0224-.5306.037-.3142.0459.0594.0024.12-.0065.18-.006.04,0,.0808.0053.12.0044.2609-.0063-.4824-.0942-.2822-.042.1115.029.2231.0472.3337.0819a1.8738,1.8738,0,0,0,2.2843-1.297,1.8972,1.8972,0,0,0-1.297-2.2843c-2.3522-.7382-4.477.91-5.8417,2.6565a24.3993,24.3993,0,0,0-3.0927,5.37c-.2324.5362-.4657,1.0749-.669,1.6232a1.8661,1.8661,0,0,0,1.297,2.2843,1.9068,1.9068,0,0,0,2.2843-1.297Z"/><path d="M587.4214,372.3486A181.3733,181.3733,0,0,0,611.8905,381.5,271.8871,271.8871,0,0,0,673.646,393.114a239.9235,239.9235,0,0,0,45.0832-1.0519,1.9176,1.9176,0,0,0,1.857-1.857,1.8668,1.8668,0,0,0-1.857-1.857,248.2264,248.2264,0,0,1-75.0223-2.7929,260.365,260.365,0,0,1-46.7635-13.1883q-1.7124-.6687-3.4115-1.37-.3711-.1535-.7415-.3089c-.1144-.0477-.3963-.1674.0694.03q-.2028-.086-.4055-.1721-.5377-.23-1.0742-.4633c-.6982-.305-1.3968-.6115-2.0842-.94-2.1457-1.0264-4.0321,2.1748-1.8745,3.207Z"/><path d="M642.4918,135.7811c.0816-.0466.1659-.0887.25-.1305.11-.0548.2228-.1045.3345-.1564.3709-.1724-.4167.156.0185-.0055a26.7853,26.7853,0,0,1,2.7069-.73c.2148-.0554-.3212.0284.0438-.0067.1607-.0154.3207-.0334.4818-.0455q.4638-.0349.9293-.0349.4917,0,.9821.0392c.0668.0054.5878.0622.25.0176.1594.021.318.05.4759.0792a11.0106,11.0106,0,0,1,4.308,1.8071,1.8573,1.8573,0,1,0,1.8746-3.2069c-4.1749-2.7874-10.0658-3.382-14.53-.8339a1.8573,1.8573,0,1,0,1.8746,3.2069Z"/><rect class="cls-5" x="679.8824" y="419.8852" width="15.7301" height="17.8558" rx="4.295" transform="translate(162.9031 1046.4017) rotate(-81.5849)"/><path d="M691.6731,435.4809c-2.99-.4423-5.9844-.86-8.97-1.3271a2.8963,2.8963,0,0,1-1.9775-.9635,2.498,2.498,0,0,1-.52-1.3782c-.0116-.1678.0381-.8275-.0181-.3048.0093-.0866.0257-.1731.0383-.2592q.39-2.658.7863-5.3148c.2279-1.5406.3686-3.43,2.2751-3.7414.1457-.0238.9117-.0128.6538-.0282-.2279-.0137-.0815-.0112-.0231-.004.23.0282.4594.0679.6887.1018l2.53.3743,5.4057.8a3.5955,3.5955,0,0,1,1.8641.6275,2.581,2.581,0,0,1,.7271,1.0194,2.3646,2.3646,0,0,1,.1556.7318c.0108.1742-.01.341-.014.5139.007-.291.04-.29.0277-.1789-.2065,1.8526-.5473,3.7-.82,5.5438a12.3623,12.3623,0,0,1-.3608,2.0959,2.5552,2.5552,0,0,1-2.9426,1.6256,1.8677,1.8677,0,0,0-1.857,1.857,1.9015,1.9015,0,0,0,1.857,1.857,6.18,6.18,0,0,0,6.71-5.2673c.3056-1.9976.5915-3.9984.8872-5.9975a9.399,9.399,0,0,0,.114-3.0455,6.1413,6.1413,0,0,0-3.0287-4.2258c-1.61-.8865-3.6866-.9386-5.4688-1.2022-1.8361-.2716-3.6711-.5523-5.5086-.8149a6.2276,6.2276,0,0,0-7.2394,4.9214c-.3129,1.8006-.5357,3.6214-.8031,5.4292-.11.7443-.2482,1.493-.3211,2.2423a6.1291,6.1291,0,0,0,1.9339,5.004c1.7873,1.64,4.1985,1.7017,6.4683,2.0375l5.7627.8525a1.9181,1.9181,0,0,0,2.2843-1.297A1.8707,1.8707,0,0,0,691.6731,435.4809Z"/><path d="M619.5778,133.9751c3.98-1.5135,10.0969-1.0734,11.2746,3.8107.5613,2.3278-.6162,4.8956-1.7835,6.8565a20.8485,20.8485,0,0,1-2.9946,3.8462,4.97,4.97,0,0,0-1.612,2.1045,5.098,5.098,0,0,0-.1414,1.714c.3142,3.4642,4.1038,3.94,6.8906,3.8028,2.3789-.1172,2.393-3.8319,0-3.714a13.1092,13.1092,0,0,1-3.07-.262c-.117-.024-.1129-.034-.1167-.0623q-.0457-.1921-.01.0525a2.1713,2.1713,0,0,1-.0038-.2908,3.1317,3.1317,0,0,1,.09-.4848l-.4776.8194c4.46-4.2005,9.2138-11.2383,6-17.4889a9.5921,9.5921,0,0,0-7.74-5.001,16.4178,16.4178,0,0,0-7.2924.7159,1.91,1.91,0,0,0-1.297,2.2843,1.8712,1.8712,0,0,0,2.2843,1.297Z"/><circle cx="622.5779" cy="143.1048" r="2.2805"/><path d="M623.925,143.2547c-.0177.2226.0465-.2121.0028.0044-.0083.0407-.0156.0815-.0251.122a2.6045,2.6045,0,0,0-.09.2932l.0472-.11q-.0246.055-.052.1089c-.0182.0356-.0375.0709-.0575.1055-.03.0519-.0646.1006-.0961.1516-.0935.1511.1314-.1384,0,.0007-.0685.0724-.1331.1455-.2074.2123.0073-.0065-.0894.0781-.09.0771-.0067-.0084.1793-.1249-.0041-.0055-.0837.0545-.1715.0992-.26.1459-.1555.0824.0529-.0313.0567-.0224.0011.0026-.1825.0614-.2.0664-.0488.0137-.098.026-.1476.0364l-.06.0118q-.1218.02.0017.0013l.0621-.0088q-.062.0062-.1242.0088c-.0525.0024-.105.0026-.1575.0013a.8005.8005,0,0,1-.1592-.0091c.0045.0166.2193.0384.0287.0019a2.9117,2.9117,0,0,1-.3274-.0882c-.201-.0632.1821.1-.0023.0008-.0354-.019-.072-.0355-.1073-.0548a2.3092,2.3092,0,0,1-.2525-.16c.0078-.0138.1621.1479.0256.0147-.0354-.0346-.0734-.0665-.1084-.1016s-.0668-.073-.1012-.1085c-.1589-.1641.0739.1292-.019-.0227-.0519-.085-.1068-.1664-.1524-.2555.0044.0087-.0516-.1078-.0517-.1078l.0476.1111q-.0216-.0562-.04-.1135c-.0315-.0969-.0518-.1954-.0743-.2945-.0327-.1439.031.0593.0075.0639-.0011,0-.0108-.1993-.0108-.2186,0-.053.0044-.1058.0048-.1587.0011-.1907-.0029.0646-.0129.0576-.0252-.0178.0552-.2641.0666-.3033a1.273,1.273,0,0,1,.0586-.1738c.0131.0016-.09.1828-.0218.0548.057-.1071.1167-.208.18-.3111.1026-.1664-.111.1036-.0189.0221.036-.0319.0655-.0761.0988-.1111.0123-.0129.2126-.2077.2179-.2012.015.0185-.1844.1192-.02.022.0425-.0252.0831-.0539.126-.0788.0344-.02.0694-.039.1047-.0571s.0715-.0354.1079-.0516q-.1953.08-.0546.0267c.0973-.0281.1919-.0611.2914-.082.0388-.0081.0833-.0108.1206-.0219-.2115.0631-.1147.0154-.0313.0106.1061-.0061.21.0029.316.0035.1359.0008-.2319-.05-.0275-.0053.0608.0133.1218.0242.1821.04s.117.0368.1759.054c.1959.0574-.1769-.0954.0024-.0008.1073.0566.2082.1161.3111.18.1492.0931-.0522-.03-.0449-.0379a2.3617,2.3617,0,0,1,.1763.1593q.042.042.0817.0862c.1541.1713,0,0,.0042-.0035a3.0541,3.0541,0,0,1,.1868.304c.1007.1968-.0058.001.0041-.0032.0012,0,.0561.1643.0581.1712.0144.0485.0269.0975.038.1469q.01.0447.0184.09.0249.1529-.0075-.0638c.0058-.0011.0077.3475.0061.3772a.9346.9346,0,0,0,.9285.9285.9492.9492,0,0,0,.9285-.9285,3.21,3.21,0,0,0-5.5337-2.356,3.2612,3.2612,0,0,0-.5037,3.7115,3.2205,3.2205,0,0,0,5.1428.7224,3.3319,3.3319,0,0,0,.8946-2.0779.9327.9327,0,0,0-.9285-.9285A.9519.9519,0,0,0,623.925,143.2547Z"/><circle cx="642.7897" cy="144.4563" r="2.2805"/><path d="M644.1367,144.6063c-.0177.2226.0465-.2122.0028.0043-.0083.0408-.0156.0815-.0251.122a2.59,2.59,0,0,0-.09.2932l.0472-.11q-.0246.055-.0521.1089c-.0182.0356-.0375.0709-.0575.1055-.03.0519-.0646.1006-.0961.1515-.0935.1512.1314-.1384,0,.0008-.0685.0723-.1331.1455-.2074.2123.0073-.0066-.0894.0781-.09.0771-.0068-.0084.1792-.1249-.0042-.0055-.0837.0545-.1715.0992-.26.1459-.1555.0824.053-.0313.0567-.0224.0012.0026-.1825.0613-.2.0664-.0488.0137-.0979.026-.1476.0364l-.06.0117q-.1218.02.0017.0014l.0622-.0089q-.0621.0061-.1243.0089c-.0525.0023-.105.0026-.1575.0013a.7909.7909,0,0,1-.1591-.0092c.0044.0167.2192.0385.0286.002a2.9473,2.9473,0,0,1-.3273-.0882c-.201-.0632.182.1-.0024.0008-.0354-.019-.0719-.0356-.1073-.0548a2.2945,2.2945,0,0,1-.2525-.16c.0079-.0137.1622.148.0256.0147-.0354-.0345-.0733-.0664-.1084-.1015s-.0668-.073-.1012-.1085c-.1589-.1641.074.1292-.0189-.0227-.052-.085-.1069-.1664-.1525-.2555.0044.0086-.0516-.1078-.0516-.1078l.0475.111q-.0216-.0563-.04-.1135c-.0315-.0968-.0518-.1953-.0744-.2944-.0327-.1439.031.0592.0075.0638-.0011,0-.0108-.1992-.0108-.2185,0-.053.0045-.1058.0048-.1587.0012-.1907-.0029.0646-.0129.0576-.0252-.0178.0552-.2641.0667-.3034a1.2781,1.2781,0,0,1,.0585-.1738c.0131.0017-.09.1829-.0218.0549.057-.1071.1167-.2081.18-.3112.1026-.1663-.111.1037-.0188.0221.0359-.0318.0654-.076.0987-.111.0123-.0129.2126-.2078.2179-.2012.015.0185-.1844.1192-.0205.022.0426-.0253.0831-.054.1261-.0789.0343-.02.0693-.0389.1047-.057s.0714-.0354.1078-.0517q-.1953.08-.0546.0267c.0973-.028.1919-.061.2915-.0819.0387-.0082.0832-.0108.12-.022-.2115.0631-.1147.0155-.0313.0107.1061-.0062.21.0029.316.0035.136.0007-.2319-.05-.0275-.0053.0608.0133.1219.0242.1821.04s.117.0368.176.0541c.1959.0574-.177-.0954.0023-.0008.1073.0566.2082.1161.3111.18.1493.0931-.0522-.03-.0449-.0379a2.3616,2.3616,0,0,1,.1764.1593c.0279.028.0552.0568.0816.0861.1541.1713,0,0,.0042-.0034a3.0425,3.0425,0,0,1,.1868.304c.1007.1968-.0058.001.0041-.0033.0012,0,.0561.1644.0582.1713q.0214.0728.0379.1469c.007.03.0131.06.0185.09q.0249.1527-.0075-.0639c.0058-.0011.0076.3475.006.3773a.9347.9347,0,0,0,.9285.9285.9492.9492,0,0,0,.9285-.9285,3.21,3.21,0,0,0-5.5337-2.356,3.2612,3.2612,0,0,0-.5037,3.7115,3.2206,3.2206,0,0,0,5.1428.7223,3.3308,3.3308,0,0,0,.8946-2.0778.9327.9327,0,0,0-.9285-.9285A.9519.9519,0,0,0,644.1367,144.6063Z"/><path class="cls-5" d="M648.1243,302.1444l-10.1338,30.7838a24.8741,24.8741,0,0,0,7.2907,26.5357l21.3691,18.61a43.0751,43.0751,0,0,1,14.7064,29.8735l.7453,12.2789a6.2133,6.2133,0,0,0,4.3909,5.5671h0a6.2133,6.2133,0,0,0,8.0043-5.4451l1.1306-14.0481a43.0756,43.0756,0,0,0-16.0882-37.14l-18.6044-14.8286a24.8741,24.8741,0,0,1-8.13-27.2071l6.66-20.2946"/><path d="M646.3336,301.6507l-6.7527,20.513-3.1876,9.6831a27.368,27.368,0,0,0-.2906,16.8273,28.309,28.309,0,0,0,8.7531,12.876l8.9541,7.7981,9.73,8.4739a49.5515,49.5515,0,0,1,9.25,10.07,41.6489,41.6489,0,0,1,6.7191,20.2164q.3606,5.78.7018,11.5619a8.5637,8.5637,0,0,0,3.6345,6.9,8.1047,8.1047,0,0,0,9.5239-.4551c3.62-2.89,3.1834-8.2374,3.52-12.4192.359-4.4613.9262-8.9756.6553-13.4546a45.1719,45.1719,0,0,0-7.0637-21.7016c-5.3088-8.2226-13.5245-13.7978-21.06-19.8043-2.39-1.9047-4.7915-3.7956-7.17-5.7147a23.3691,23.3691,0,0,1-8.8288-18.3894c.0405-4.0916,1.4412-7.83,2.6971-11.6569l4.2775-13.0351.8584-2.6157c.7469-2.2763-2.8383-3.2518-3.5814-.9874l-6.4976,19.8a27.1634,27.1634,0,0,0,.0349,17.5677,28.16,28.16,0,0,0,9.309,12.6562q8.7885,7.0048,17.577,14.01a41.8715,41.8715,0,0,1,15.6664,36.02c-.2978,3.8425-.6184,7.6834-.9275,11.525-.1119,1.3907-.0511,2.9431-.7953,4.1755a4.4007,4.4007,0,0,1-7.0857.553c-1.1135-1.3253-1.0317-3.0055-1.13-4.6239l-.4137-6.8155c-.3367-5.5473-.948-10.9695-2.9119-16.223a45.3848,45.3848,0,0,0-12.5448-18.2286c-2.0347-1.7848-4.0823-3.5553-6.1233-5.3328l-10.5107-9.1538c-2.1816-1.9-4.5285-3.7263-6.5145-5.838a23.0979,23.0979,0,0,1-5.8707-19.6859,63.2582,63.2582,0,0,1,2.4732-8.2654l7.92-24.0587.5863-1.7809c.7491-2.2756-2.8362-3.2509-3.5814-.9874Z"/><path class="cls-6" d="M703.3634,126.2345,619.649,121.611l.4888-8.8493.3776-6.8367c.926-16.7674,20.8919-37.9269,44.0089-36.65h0c23.1171,1.2767,40.6314,24.5063,39.7053,41.2737Z"/><path d="M703.3634,124.3775l-28.3715-1.567-44.95-2.4825-10.3931-.574,1.857,1.857.4894-8.8607c.1928-3.49.1352-7.1089.9143-10.5308,2.613-11.4773,11.7894-21.2672,21.9967-26.6321a37.9776,37.9776,0,0,1,18.52-4.5,36.8177,36.8177,0,0,1,17.4982,5.119c9.8544,5.7211,17.9867,15.6554,20.7,26.8259a34.9216,34.9216,0,0,1,.589,10.3974l-.6563,11.8828-.0509.9216c-.1319,2.3882,3.5825,2.3807,3.714,0l.5679-10.2829a54.8222,54.8222,0,0,0-.003-10.9031c-1.72-12.0178-9.8691-22.9762-19.5954-29.8673a40.5165,40.5165,0,0,0-38.0851-5.0922c-12.04,4.6407-22.4735,14.395-27.2938,26.4393-1.7643,4.4083-2.1234,8.8675-2.3816,13.5426l-.55,9.9675-.0869,1.5726a1.8879,1.8879,0,0,0,1.857,1.857l28.3716,1.5669,44.95,2.4826,10.3931.574C705.7516,128.2234,705.7442,124.509,703.3634,124.3775Z"/><path class="cls-6" d="M665.8159,124.1224,600.3768,120.87h0c.2971-5.9765,4.4747-10.6687,9.4179-10.5779l55.5461,1.0206"/><path d="M665.8159,122.2654,643.639,121.163l-35.1846-1.7489-8.0776-.4016,1.857,1.857c.1815-3.6507,2.3771-7.7647,6.2053-8.5954a11.9925,11.9925,0,0,1,2.7449-.1l11.6279.2136,34.036.6254,8.4929.156c2.3909.044,2.391-3.67,0-3.714l-23.9176-.4394-30.2818-.5564a12.4981,12.4981,0,0,0-4.8616.5995c-4.8025,1.8469-7.5131,6.8452-7.76,11.8106a1.8873,1.8873,0,0,0,1.857,1.857l22.177,1.1024,35.1845,1.749,8.0776.4015c2.389.1188,2.3827-3.5955,0-3.714Z"/><path class="cls-6" d="M630.9024,110.7122s2.7015-42.673,30.7341-46.283l8.6839.4317a20.1055,20.1055,0,0,1,18.8051,15.3284h0l-4.42-.4971c-16.6317-1.8706-31.6693,9.4534-33.6863,25.3674l-.75,5.9142Z"/><path d="M632.7594,110.7122c.0468-.73.1264-1.46.21-2.1868.0416-.3633.0872-.726.1328-1.0889a2.2876,2.2876,0,0,1,.0331-.2488c.0382-.2683.0756-.5368.1153-.8049q.2293-1.5479.5131-3.0868a75.8292,75.8292,0,0,1,4.8779-16.5889c2.5942-5.9314,6.2093-11.7345,11.4652-15.6606a24.9215,24.9215,0,0,1,9.1069-4.2919c2.6824-.6444,5.2394-.3284,7.9789-.1922,3.9234.195,7.665.4982,11.204,2.4368a17.9,17.9,0,0,1,8.9385,11.6838l1.7907-2.3507a60.6045,60.6045,0,0,0-9.3852-.67,33.6182,33.6182,0,0,0-13.37,3.416,31.2806,31.2806,0,0,0-16.589,20.4561,87.9124,87.9124,0,0,0-1.3685,9.439l1.857-1.857-19.3671-.2616c-2.3907-.0323-2.3919,3.6817,0,3.714l19.3671.2616a1.91,1.91,0,0,0,1.857-1.857c.2792-2.2022.4886-4.4249.8608-6.6136a27.1838,27.1838,0,0,1,4.811-11.4272A28.8589,28.8589,0,0,1,679.043,81.4146a56.8635,56.8635,0,0,1,10.0825.6317c1.2659.1424,2.0294-1.295,1.7906-2.3506-2.2069-9.7582-11.1728-16.2064-20.9044-16.7071-2.7308-.1406-5.5-.4261-8.2343-.4094-3.4853.0214-7.3526,1.5881-10.3663,3.2275-12.256,6.6673-18.0435,21.2517-20.7764,34.21a75.567,75.567,0,0,0-1.5893,10.6958C628.8927,113.0988,632.6072,113.09,632.7594,110.7122Z"/><circle cx="639.5584" cy="161.6521" r="2.8062"/><path d="M637.6732,161.52a3.1545,3.1545,0,0,1,.0785-.38c.02-.0735.0456-.145.07-.2172.056-.1639.0087-.0173-.0068.0134a3.586,3.586,0,0,1,.1788-.3257c.02-.0312.1666-.2274.0263-.0517q.0686-.0859.1439-.1663a3.4785,3.4785,0,0,1,.2664-.25c-.15.13-.03.0211.0166-.0079.0516-.0323.1015-.0671.154-.0982.0478-.0282.3844-.18.1729-.1a2.9838,2.9838,0,0,1,.4238-.13c.0488-.0108.0976-.019.1466-.0284-.2327.045.0068.0025.0527,0,.1287-.0073.2555,0,.384.0047.048.0015.17.0342-.0135-.0047.0762.0161.1525.0282.2281.0472.0495.0123.0988.0262.1476.0412.0276.0085.2832.1116.1724.0589-.13-.0617.089.0482.0917.05.0547.029.1081.06.1607.0927s.1024.0681.1537.1022c-.1627-.1084-.0267-.0235.0139.0142.0807.0748.1617.148.2361.2294.0262.0287.1727.22.04.0375.0429.0592.0846.119.1234.181a3.4652,3.4652,0,0,1,.1736.322c-.1-.204.001.0111.0147.0517q.0235.07.0434.1413c.0187.0672.0694.425.0519.1927a3.5434,3.5434,0,0,1,.0131.4573c0,.0034-.0273.2548-.0065.11s-.0228.1044-.0235.1073a3.4424,3.4424,0,0,1-.1077.3666c-.056.1639-.0086.0173.0069-.0134-.0336.0668-.0655.1337-.1024.1988q-.0365.0645-.0764.127t-.0828.1222q.108-.1342.01-.0138c-.0822.0907-.1628.181-.2534.2638-.036.0329-.0735.0638-.11.0958.1679-.1457-.0122.0056-.0468.0285-.0919.061-.1889.1109-.2845.1653-.0469.0267-.2034.085-.0122.012-.069.0263-.1382.0516-.2087.0733a3.4779,3.4779,0,0,1-.3617.0852c.2292-.0444-.129.0043-.2053.0045s-.1541-.0054-.2314-.0091c-.1764-.0086-.023-.002.0134.0046a3.1836,3.1836,0,0,1-.4481-.1118c-.0047-.0016-.2286-.0966-.1-.0355.1134.0539-.1345-.0727-.1568-.0853q-.0645-.0366-.127-.0765t-.1222-.0827q.1343.108.0138.01c-.1-.0907-.1935-.1845-.2881-.2807-.0368-.0374-.1342-.1727-.0162-.01-.043-.0591-.0846-.119-.1234-.181s-.0753-.1255-.1092-.19c-.0188-.0361-.1036-.2532-.0285-.045a3.3994,3.3994,0,0,1-.13-.4238c-.0107-.0488-.0189-.0976-.0284-.1466.0466.2407-.0018-.0759-.0033-.1288a3.0838,3.0838,0,0,1,.0248-.4636.93.93,0,0,0-.9285-.9285.9565.9565,0,0,0-.9285.9285,3.7341,3.7341,0,0,0,1.9558,3.6757,3.7936,3.7936,0,0,0,4.3045-.5707,3.7325,3.7325,0,1,0-6.2271-3.3518.9535.9535,0,0,0,.6485,1.1421A.9388.9388,0,0,0,637.6732,161.52Z"/><path class="cls-5" d="M650.3647,274.799l-7.679,27.0531a9.8347,9.8347,0,0,0,9.6614,12.5182l33.1772-.6763Z"/><path d="M648.574,274.3053c-2.5588,9.0149-5.2516,18.0022-7.679,27.0532a11.8566,11.8566,0,0,0,4.5844,12.7809,12.7255,12.7255,0,0,0,7.8882,2.0671l16.8112-.3427,15.3455-.3128a1.88,1.88,0,0,0,1.3131-3.17l-11.896-13.16L656,278.267l-4.322-4.7811c-1.6063-1.7769-4.2263.8561-2.6262,2.6262l11.896,13.16,18.9416,20.954,4.322,4.7812,1.3131-3.17-30.1909.6154a30.122,30.122,0,0,1-4.2176.0141,8.0853,8.0853,0,0,1-6.9008-8.9171,31.7749,31.7749,0,0,1,1.1813-4.4447l2.41-8.4893,4.3494-15.3228C652.8091,272.9893,649.2267,272.0061,648.574,274.3053Z"/><path class="cls-5" d="M601.5082,281.8587,619.1733,199.15a4.41,4.41,0,0,1,4.9577-3.4412h0a4.41,4.41,0,0,1,3.7436,4.7889l-7.6671,78.8647"/><path d="M603.2989,282.3524l5.9588-27.9,9.5089-44.5207c.7208-3.3751,1.3971-6.7633,2.1632-10.1285a2.5691,2.5691,0,1,1,5.083.7451c-.0656.99-.1925,1.98-.2885,2.9671l-3.9261,40.3849-3.391,34.8807-.0565.5813c-.2312,2.3773,3.4844,2.3614,3.7139,0l.8891-9.1453,2.0813-21.4085,2.4058-24.7458,1.8239-18.7612c.1412-1.4523.2887-2.9041.4236-4.3569a6.3518,6.3518,0,0,0-6.4106-7.1329c-3.2651.1516-5.405,2.55-6.05,5.5706l-.98,4.5886L612.3008,222.45l-5.1537,24.13-4.7084,22.0446-2.597,12.1593-.1241.5813c-.4979,2.331,3.0815,3.3272,3.5813.9873Z"/><circle class="cls-7" cx="654.6009" cy="303.1025" r="3.5712"/><path d="M463.8156,418.4088H358.1276c-1.1275,0-2.2551-.0053-3.3825,0a25.9044,25.9044,0,0,0-25.56,21.2618,39.85,39.85,0,0,0-.4205,6.8841v68.418l1.857-1.857H291.1484a19.92,19.92,0,0,0-12.1165,3.7038,19.3859,19.3859,0,0,0-7.834,15.4536c-.0477,6.1881,0,12.3784,0,18.5666,0,6.8911-.1418,13.7986,0,20.6884.0026.1307,0,.2618,0,.3925a1.8581,1.8581,0,0,0,3.7139,0V533.1939a16.3809,16.3809,0,0,1,3.31-10.5108,15.6936,15.6936,0,0,1,12.3725-5.8534c6.5438-.0162,13.0878,0,19.6316,0,6.6708,0,13.3641.1623,20.0332,0,.1208-.003.2419,0,.3627,0a1.884,1.884,0,0,0,1.857-1.857V450.4912q0-2.88,0-5.76a22.797,22.797,0,0,1,3.5136-12.4181,22.404,22.404,0,0,1,15.19-9.93,31.0592,31.0592,0,0,1,5.1107-.26H463.8156a1.8581,1.8581,0,0,0,0-3.714Z"/><path d="M362.81,464.8337h88.45c4.0793,0,8.1991.1686,12.276,0,.0567-.0023.1139,0,.1707,0a1.8581,1.8581,0,0,0,0-3.714h-88.45c-4.0793,0-8.1992-.1685-12.276,0-.0567.0024-.114,0-.1708,0a1.8581,1.8581,0,0,0,0,3.714Z"/><path d="M362.81,485.2607h88.45c4.0793,0,8.1991.1686,12.276,0,.0567-.0023.1139,0,.1707,0a1.8581,1.8581,0,0,0,0-3.714h-88.45c-4.0793,0-8.1992-.1686-12.276,0-.0567.0023-.114,0-.1708,0a1.8581,1.8581,0,0,0,0,3.714Z"/><path d="M362.81,505.6877h88.45c4.0793,0,8.1991.1686,12.276,0,.0567-.0024.1139,0,.1707,0a1.8581,1.8581,0,0,0,0-3.714h-88.45c-4.0793,0-8.1992-.1686-12.276,0-.0567.0023-.114,0-.1708,0a1.8581,1.8581,0,0,0,0,3.714Z"/><path d="M362.81,526.1146h88.45c4.0793,0,8.1991.1686,12.276,0,.0567-.0023.1139,0,.1707,0a1.8581,1.8581,0,0,0,0-3.7139h-88.45c-4.0793,0-8.1992-.1686-12.276,0-.0567.0023-.114,0-.1708,0a1.8581,1.8581,0,0,0,0,3.7139Z"/><path d="M721.9546,649.2292l12.5991,3.7,30.2489,8.8834,36.4585,10.707,31.6157,9.2848,10.41,3.0572a49.9564,49.9564,0,0,0,4.9134,1.443,2.2408,2.2408,0,0,1,.22.0645l-1.3634-1.7906V739.05a1.884,1.884,0,0,0,1.857,1.857H969.8687a47.8173,47.8173,0,0,0,4.9163,0,2.0836,2.0836,0,0,1,.215,0l-1.857-1.857v137.828c0,6.3665-.2175,12.7763,0,19.14.0029.0857,0,.1719,0,.2576a1.8581,1.8581,0,0,0,3.714,0V758.4482c0-6.3665.2175-12.7763,0-19.14-.0029-.0857,0-.1719,0-.2576a1.884,1.884,0,0,0-1.857-1.857H854.0452a47.8173,47.8173,0,0,0-4.9163,0,2.0836,2.0836,0,0,1-.215,0l1.857,1.857V684.5785a1.8975,1.8975,0,0,0-1.3633-1.7907l-12.5991-3.7L806.56,670.2044l-36.4586-10.707-31.6156-9.2848c-5.0916-1.4953-10.1726-3.2195-15.3237-4.5-.0739-.0184-.1467-.0431-.22-.0646-2.2979-.6748-3.2794,2.9082-.9874,3.5814Z"/><circle class="cls-8" cx="793.6332" cy="853.5653" r="16.713"/><path d="M808.4892,853.5653a14.855,14.855,0,1,1-11.94-14.5743,14.9943,14.9943,0,0,1,11.94,14.5743c.0245,2.3884,3.7385,2.3945,3.714,0A18.5727,18.5727,0,1,0,797.205,871.786a18.8165,18.8165,0,0,0,14.9982-18.2207C812.2277,851.1747,808.5137,851.1728,808.4892,853.5653Z"/><circle class="cls-8" cx="924.8611" cy="796.6173" r="35.283"/><path d="M958.287,796.6173a33.3052,33.3052,0,1,1-.39-5.1956,33.7354,33.7354,0,0,1,.39,5.1956c.0117,2.3892,3.7257,2.3942,3.714,0a37.2035,37.2035,0,1,0-.47,5.8457,40.099,40.099,0,0,0,.47-5.8457C962.0127,794.2271,958.2987,794.2241,958.287,796.6173Z"/><path d="M787.02,840.26l11.6467-6.9519L826.6405,816.61l33.8517-20.2061,29.28-17.4772,9.66-5.7662c1.5049-.8983,3.1895-1.6988,4.5988-2.7451.0631-.0468.1381-.0824.2058-.1228l-2.5407-.6662,10.1943,21.02,16.2379,33.4817,3.7126,7.6553,1.11-2.7279L919.7,832.8351l-31.6888,9.0372-38.31,10.9255-33.1155,9.444c-5.3582,1.5281-10.7975,2.8934-16.1047,4.5929-.0753.0241-.1525.0434-.2286.0651-2.2945.6544-1.3191,4.2391.9874,3.5814l13.2513-3.7791,31.6889-9.0372,38.31-10.9256,33.1155-9.444c5.3581-1.5281,10.7975-2.8933,16.1047-4.5928.0753-.0242.1525-.0435.2285-.0652a1.8856,1.8856,0,0,0,1.11-2.7279l-10.1943-21.02-16.2379-33.4816-3.7126-7.6553a1.876,1.876,0,0,0-2.5407-.6662l-11.6468,6.9519L862.742,790.7356,828.89,810.9417l-29.28,17.4772c-4.7443,2.8319-9.6062,5.53-14.259,8.5113-.0672.043-.1373.0819-.2058.1228-2.05,1.2239-.1848,4.4361,1.8745,3.2069Z"/><path d="M784.3482,620.2025v45.9239a1.8581,1.8581,0,0,0,3.714,0V620.2025a1.8581,1.8581,0,0,0-3.714,0Z"/></svg>