<svg id="Layer_1" data-name="Layer 1" xmlns="http://www.w3.org/2000/svg" width="1000" height="1000" viewBox="0 0 1000 1000"><defs><style>.cls-1{fill:#a8542a;}.cls-2{fill:#458dc9;}.cls-3{fill:#fff;}.cls-4{fill:#fc7f3a;}.cls-5{fill:#fc7272;}.cls-6{fill:#389b48;}.cls-7{fill:#ea2f2f;}</style></defs><path class="cls-1" d="M421.0158,191.0392H406.6942l-1.8325-.111a22.051,22.051,0,0,0-23.2291,19.355c-1.4451,11.9334-.3266,34.1364,14.6459,52.3639,0,0,0-13.02,3.2549-15.6236,1.302,7.1608,9.7647,15.6236,9.7647,15.6236s-2.6039-11.7177.651-14.3216c1.3019,3.2549,7.8118,18.2274,14.9725,21.4823s18.8785-46.22,18.8785-46.22"/><path d="M421.0158,189.0863H407.7092c-2.0562,0-4.0944-.2476-6.1525-.0652a24.0138,24.0138,0,0,0-19.455,13.0821,28.9223,28.9223,0,0,0-2.6978,11.0136,76.655,76.655,0,0,0,1.6628,22.2035,68.9335,68.9335,0,0,0,13.8309,28.7077c1.1092,1.36,3.3322.1951,3.3338-1.3809a61.64,61.64,0,0,1,.3634-6.439A31.185,31.185,0,0,1,399.42,251.5a13.377,13.377,0,0,1,.646-1.9123,2.4132,2.4132,0,0,1,.8487-1.1831l-3.2641-.8618c.7877,4.0374,3.12,7.7282,5.5675,10.9636a53.4679,53.4679,0,0,0,4.7,5.5217,1.9688,1.9688,0,0,0,3.2641-1.9,39.4513,39.4513,0,0,1-.8042-5.3986,22.7885,22.7885,0,0,1-.018-4.5148,8.4877,8.4877,0,0,1,.3719-1.6432,1.3308,1.3308,0,0,1,.2159-.4449c.3014-.5062-.0874.16.07-.12a1.4538,1.4538,0,0,1,.3133-.3l-3.2641-.8617c2.6919,6.7031,6.1179,13.6507,11.0918,18.96,1.7333,1.85,4.6054,4.7257,7.4414,3.9787,1.8045-.4753,3.0919-2.11,4.0957-3.5725,3.1131-4.5366,4.9531-10.0883,6.7328-15.2461,2.0925-6.0645,3.8956-12.229,5.5748-18.4194.94-3.4664,1.8524-6.9432,2.6808-10.4383.5793-2.4441-3.1859-3.4871-3.7663-1.0383-1.9777,8.344-4.2761,16.6376-6.9044,24.7992a99.0121,99.0121,0,0,1-6.0952,15.6682,26.61,26.61,0,0,1-1.5547,2.6442c-.1308.1923-.2659.3811-.4036.5685-.1624.2212.2321-.2459-.1349.1624-.2555.2841-.5259.5465-.7891.8222-.3465.363.11-.05-.0314.035a3.5081,3.5081,0,0,0-.3826.2364c-.3216.2629.3225-.0982.0891-.0327-.5222.1464,0,.0337.0007.0337-.379-.0107-.03-.0236.1564.05-.1719-.0677-.59-.2243.04.0654a10.2518,10.2518,0,0,1-1.9381-1.1629c-3.3913-2.5947-5.7761-6.5753-7.8276-10.2418-1.0157-1.8151-1.957-3.672-2.8368-5.5567q-.5064-1.0846-.9836-2.1828-.0721-.1664-.1435-.3329c-.2256-.5232.1427.347-.0558-.1307q-.1467-.3529-.29-.7074a1.9862,1.9862,0,0,0-3.2642-.8618c-2.4618,2.1148-2.3341,6.32-2.1369,9.25a47.2,47.2,0,0,0,.9837,6.9718l3.2641-1.9a47.1244,47.1244,0,0,1-4.0887-4.7312c-2.2624-2.9734-4.4479-6.31-5.1737-10.03-.3041-1.5587-2.24-1.7322-3.2641-.8618-2.5862,2.1971-2.9929,6.6446-3.3732,9.77a60.5721,60.5721,0,0,0-.4537,7.2344l3.3338-1.381c-10.3577-12.6992-15.0935-29.2942-14.4939-45.5521a32.7587,32.7587,0,0,1,1.34-9.2995,20.1334,20.1334,0,0,1,16.0436-13.3687,41.5256,41.5256,0,0,1,6.5825-.0536c4.6277.0223,9.2561,0,13.8839,0,2.5132,0,2.5174-3.9059,0-3.9059Z"/><path class="cls-2" d="M655.3891,568.5048,710.4545,445.291c8.9794-20.0923,29.7929-30.3935,49.5823-24.54h0c15.712,4.6476,26.1762,20.81,24.9279,38.5019l-7.7082,109.2517H902.1284c48.3255,0,83.2494,50.3595,70.065,101.0324L929.7527,832.6537c-8.8857,34.1515-37.4956,57.7207-70.065,57.7207H607.2985v-321.87Z"/><path d="M657.0754,569.4905l21.4591-48.0166,30.3387-67.8857c3.73-8.3454,7.36-16.4138,14.4246-22.6632,15-13.2693,39.7392-13.62,52.41,3.069a37.7824,37.7824,0,0,1,7.2971,25.3543c-.1372,2.1418-.3022,4.2821-.4532,6.4229l-2.3808,33.7447-4.772,67.6356-.0955,1.3533a1.973,1.973,0,0,0,1.9529,1.953H885.77c8.0308,0,16.3225-.4774,24.3173.4625,21.3069,2.5047,39.9184,15.8737,50.9849,33.97a83.53,83.53,0,0,1,9.2371,64.1324c-1.3717,5.3418-2.7775,10.6751-4.1662,16.0125l-9.8035,37.6788-11.997,46.109-10.6,40.7382q-2.824,10.8541-5.6481,21.7082c-4.57,17.5333-14.41,33.58-29.24,44.2659a68.7816,68.7816,0,0,1-40.71,12.8867H607.2985l1.953,1.9529V573.3853a34.3107,34.3107,0,0,0,0-4.3415,4.2516,4.2516,0,0,1,0-.539l-1.953,1.953h48.0906c2.5133,0,2.5174-3.9059,0-3.9059H607.2985a1.9813,1.9813,0,0,0-1.9529,1.9529V877.2792c0,4.1785-.1256,8.3792,0,12.5563.0054.1793,0,.36,0,.5389a1.9813,1.9813,0,0,0,1.9529,1.953H852.9876c7.6489,0,15.1649-.0948,22.6923-1.8765,21.6717-5.1292,39.77-20.72,49.6453-40.4779,4.161-8.3251,6.3979-17.1351,8.72-26.0592l8.84-33.9749,11.9178-45.805L966.14,700.56l7.0985-27.2824c3.6069-13.8627,4.8438-27.8819,2.13-42.0572-4.0259-21.0243-16.107-40.5092-33.9158-52.566-12.6742-8.5806-27.1194-12.1023-42.2681-12.1023H777.2566l1.953,1.9529,4.2827-60.7015,2.6656-37.7809c.6672-9.4559,1.7374-18.7158-1.65-27.8958-3.418-9.2628-10.2076-17.3639-19.2825-21.4923a40.6819,40.6819,0,0,0-28.4035-1.6711c-13.7347,4.1959-23.3045,14.7153-29.0233,27.5116L680.28,508.051l-26.1252,58.4576-.4517,1.01C652.6859,569.7947,656.0506,571.7837,657.0754,569.4905Z"/><rect class="cls-3" x="467.1549" y="546.4864" width="170.9974" height="365.1058" rx="78.4943"/><path d="M545.6492,913.5451c6.6929,0,13.4645.28,20.1431-.2361a80.4064,80.4064,0,0,0,72.2259-61.935c2.04-8.8215,2.0871-17.6327,2.0871-26.5907V627.4478c0-15.0165-3.1772-29.5576-10.7414-42.6543a81.0219,81.0219,0,0,0-52.6386-38.4428c-8.8-1.8883-17.6225-1.8172-26.5585-1.8172-9.6123,0-19.0149.7023-28.2615,3.5623a80.4405,80.4405,0,0,0-56.7025,76.627c-.0058,1.3655-.0009,2.7311-.0009,4.0966v197.997q0,2.9892,0,5.9785a80.4251,80.4251,0,0,0,80.4473,80.75c2.5135.0081,2.517-3.8978,0-3.9058a76.5251,76.5251,0,0,1-76.5414-77.2418q-.0034-9.872,0-19.744V640.0607c0-5.0231-.0137-10.0464,0-15.0694a77.1659,77.1659,0,0,1,26.0808-57.57,76.2729,76.2729,0,0,1,28.6945-15.8436c8.9928-2.6553,18.032-3.1388,27.3305-3.1388,8.8273,0,17.5052,0,26.1638,2.0606a76.5344,76.5344,0,0,1,58.7881,72.1665c.1526,5.269.0339,10.5555.0339,15.8255V831.965a78.0433,78.0433,0,0,1-15.22,46.9676A76.9,76.9,0,0,1,564.0156,909.52c-6.1028.334-12.2572.1194-18.3664.1194C543.1359,909.6393,543.1318,913.5451,545.6492,913.5451Z"/><path class="cls-3" d="M437.9412,429.949,292.8734,451.0421c1.3012-12.7525,13.35-58.8151,11.5773-75.8649a261.5225,261.5225,0,0,0-4.0573-26.3081l108.9047-15.2652,41.0118-1.302"/><path d="M437.4221,428.0658l-14.4595,2.1024L388.25,435.2155,346.4021,441.3l-36.1751,5.26-11.96,1.7391c-1.8677.2715-3.8269.4043-5.6687.8242-.0793.0181-.1633.0237-.2439.0355l2.4721,1.8831c.04-.3829.0857-.765.1339-1.1469.0461-.3659.0017-.0147-.0072.05.0148-.108.03-.216.0453-.3239.0414-.2829.0823-.5659.1255-.8485.1674-1.0945.3538-2.1861.5483-3.2761.4676-2.6208.9821-5.2332,1.505-7.8435,1.3271-6.6233,2.7161-13.2341,4.022-19.8618,1.3935-7.0715,2.7193-14.1613,3.7643-21.2937a116.9567,116.9567,0,0,0,1.6159-17.8793,103.4332,103.4332,0,0,0-1.3508-13.12q-1.1868-8.6217-2.9519-17.1492l-1.364,2.4023,19.2966-2.7048,41.0855-5.759,37.6676-5.28,9.6464-1.3521c.3143-.0441.6288-.0873.943-.1322.5594-.08-.1241.0888-.2217.0315.2225.1305.99-.0314,1.2357-.0392l2.8555-.0906,35.9706-1.142.9181-.0291c2.5073-.08,2.5183-3.9858,0-3.9059L417.2121,331.4a82.7118,82.7118,0,0,0-8.6718.3545q-3.7109.5145-7.42,1.04l-35.4816,4.9735L323.6059,343.66l-15.6646,2.1957c-2.56.3588-5.1714.6-7.7121,1.081-.117.0221-.237.0332-.355.05a1.9827,1.9827,0,0,0-1.364,2.4023q1.5547,7.4736,2.6516,15.0317a122.8672,122.8672,0,0,1,1.48,12.85,94.5328,94.5328,0,0,1-1.231,16.6962c-1.9323,13.7887-4.9215,27.4081-7.6781,41.0478-1.0718,5.3029-2.2523,10.64-2.8128,16.0284-.1459,1.4028,1.3581,2.0452,2.4721,1.8832l14.4595-2.1024,34.7128-5.0473,41.8477-6.0848,36.1751-5.26,11.96-1.739c1.8758-.2728,3.8128-.4335,5.6687-.8243.08-.0168.163-.0237.2439-.0354a1.9657,1.9657,0,0,0,1.364-2.4024,2.0036,2.0036,0,0,0-2.4023-1.364Z"/><path d="M292.4264,450.8754c6.3138-.6564,10.7756-12.3678,12.5786-30.04l-32.0212.1229C278.5249,439.6857,285.735,451.5709,292.4264,450.8754Z"/><path d="M292.4264,452.8284c4.9846-.597,7.8005-5.1827,9.5948-9.4285,3.0022-7.1044,4.1469-14.9451,4.9368-22.5646a1.97,1.97,0,0,0-1.953-1.953l-28.0465.1077-3.9747.0152a1.9721,1.9721,0,0,0-1.8832,2.4722c2.3609,7.9354,5.1706,16.1171,9.7349,23.0929,2.4984,3.8185,6.4563,8.7117,11.5909,8.2581,2.4843-.22,2.5074-4.1275,0-3.9059a5.3964,5.3964,0,0,1-3.9963-1.41,21.9784,21.9784,0,0,1-4.7176-5.6911c-4.0794-6.557-6.6552-14.0206-8.8455-21.3826l-1.8832,2.4721,28.0465-.1076,3.9747-.0153-1.9529-1.9529c-.71,6.8529-1.79,13.8669-4.3041,20.3192a20.3665,20.3665,0,0,1-3.0806,5.5749,7.7479,7.7479,0,0,1-1.6584,1.53c-.1765.1124-.3584.2125-.5422.3119-.4174.2257.0866,0-.2467.1167-.2308.0807-1.1647.2785-.7937.2341a2.0138,2.0138,0,0,0-1.953,1.9529A1.9649,1.9649,0,0,0,292.4264,452.8284Z"/><path class="cls-4" d="M304.4507,375.1772a261.5225,261.5225,0,0,0-4.0573-26.3081l-36.7443,4.8293-10.4546,1.374L230.5936,193.0266,166.69,202.9581l8.95,162.9493c4.8837,33.9264,34.7209,59.0764,68.9725,60.3708l22.2159-.6987,38.1764-4.7442C306.3063,408.0828,306.2232,392.227,304.4507,375.1772Z"/><path d="M306.4036,375.1772a269.8526,269.8526,0,0,0-4.127-26.8272,1.9521,1.9521,0,0,0-1.8832-1.4338l-18.4958,2.4309-18.2561,2.3994-10.447,1.3729,1.8832,1.4338-2.2541-16.1616-5.4109-38.7954-6.5071-46.655-5.653-40.532-1.8605-13.34c-.2905-2.0824-.4632-4.2255-.877-6.2881-.0181-.09-.0256-.1831-.0383-.274-.1569-1.125-1.477-1.5078-2.4023-1.364l-21.6459,3.364-34.3532,5.339-7.9046,1.2285a1.9514,1.9514,0,0,0-1.4338,1.8831l.6416,11.6806,1.61,29.3148,2.1,38.2348,2.1264,38.7136,1.6853,30.6825c.2586,4.7087.4027,9.44.7767,14.1417a46.7178,46.7178,0,0,0,1.44,7.59,70.26,70.26,0,0,0,4.8172,13.221,72.0762,72.0762,0,0,0,16.16,21.7118,76.5578,76.5578,0,0,0,23.3,14.6411,73.9625,73.9625,0,0,0,13.2081,3.9254,61.9277,61.9277,0,0,0,12.14,1.4121c5.1887-.0254,10.3906-.3268,15.5767-.49,2.8493-.09,5.6772-.1013,8.5045-.4527l33.2844-4.1363,2.8971-.36a2.0321,2.0321,0,0,0,1.953-1.9529,225.6779,225.6779,0,0,0-.5544-45.6581,2.009,2.009,0,0,0-1.9529-1.953,1.9663,1.9663,0,0,0-1.953,1.953,225.6707,225.6707,0,0,1,.5544,45.6581l1.9529-1.953-29.3619,3.6489c-2.9951.3722-6.0282.9267-9.0426,1.1025-5.2228.3047-10.4769.3295-15.7059.494-2.0335.0639-4.0718.1751-6.1064.192A56.2519,56.2519,0,0,1,233.3,422.98a72.6848,72.6848,0,0,1-24.8006-10.0581,68.7051,68.7051,0,0,1-30.0964-42.6835,30.9975,30.9975,0,0,1-.83-4.6955c-.0262-.6057-.0665-1.2112-.1-1.8165l-.417-7.5916-1.5244-27.7534-2.0581-37.47-2.1331-38.8358-1.7494-31.85-.9071-16.5135-.0414-.7537-1.4338,1.8832,21.6459-3.364,34.3532-5.339,7.9046-1.2285-2.4023-1.364,2.2541,16.1616,5.4108,38.7955,6.5071,46.655,5.6531,40.5319,1.8605,13.34c.29,2.0818.4607,4.2265.877,6.2881.0182.09.0256.1831.0382.2741a1.94,1.94,0,0,0,1.8832,1.4337l14.8289-1.9489,25.229-3.3158,7.141-.9385-1.8832-1.4338a259.36,259.36,0,0,1,3.9875,25.7889,2.0094,2.0094,0,0,0,1.953,1.9529A1.966,1.966,0,0,0,306.4036,375.1772Z"/><path class="cls-4" d="M231.99,203.04l-7.11-58.0369-1.9036-21.9629a9.0973,9.0973,0,0,0-14.6241-6.4144h0a9.097,9.097,0,0,0-2.99,4.0951l-7.554,20.8046-27.19-3.3932a22.9287,22.9287,0,0,0-25.7224,20.7556L142.5175,186.17a22.9287,22.9287,0,0,0,10.8456,21.5314h0A31.49,31.49,0,0,1,168.33,232.81l.7636,13.9008"/><path d="M233.9432,203.04,231.51,183.1811l-3.8521-31.4436c-.6929-5.6557-1.22-11.2937-1.7124-16.973-.3386-3.9067-.6237-7.8223-1.0162-11.724a11.0478,11.0478,0,0,0-16.2277-8.964c-4.5788,2.4327-5.7554,7.5923-7.3861,12.0835l-5.052,13.9138-.3387.9328,1.8832-1.4338-24.5184-3.06c-1.0655-.133-2.1306-.2827-3.1987-.3934a24.2545,24.2545,0,0,0-11.3359,1.5619,25.1829,25.1829,0,0,0-14.8173,15.9249c-1.1436,3.7343-1.2171,7.8309-1.5546,11.7028l-1.3585,15.5814c-.3759,4.3106-.8839,8.5025.0764,12.8013a25.0282,25.0282,0,0,0,5.5318,10.8468c2.7095,3.1306,6.3434,4.8658,9.4288,7.5243a29.84,29.84,0,0,1,10.3151,20.7529c.2488,4.1639.4576,8.3306.6864,12.4957l.0768,1.3993c.1373,2.5,4.0441,2.5157,3.9059,0l-.6687-12.1742c-.3605-6.5633-1.8685-12.7991-5.5362-18.3525a34.1282,34.1282,0,0,0-8.46-8.8094c-1.5353-1.1151-3.2073-2.0132-4.648-3.2583A20.9948,20.9948,0,0,1,144.392,188.79a38.0862,38.0862,0,0,1,.2314-4.3738c.7358-8.4391,1.4529-16.88,2.2073-25.3174a21.1023,21.1023,0,0,1,9.0759-15.545,22.1735,22.1735,0,0,1,15.6121-3.3557l25.5721,3.1913.7175.09a1.9731,1.9731,0,0,0,1.8831-1.4338l3.82-10.52c1.2682-3.4925,2.3392-7.15,3.8406-10.5517a7.141,7.141,0,0,1,7.9388-4.1647,7.2347,7.2347,0,0,1,5.7257,6.1088c.4834,3.6283.6327,7.3344.9487,10.98.4822,5.5633.9621,11.1014,1.6408,16.642l3.6312,29.64c.9183,7.4956,1.8213,14.9932,2.7548,22.4869.0155.1243.03.2487.0457.373a2.0148,2.0148,0,0,0,1.953,1.953,1.9647,1.9647,0,0,0,1.9529-1.953Z"/><path class="cls-4" d="M167.457,207.5922s22.4235,4.428,28.2817,4.1334,11.7893-5.9922,5.7621-12.0273c3.7441-.8143,6.3831-7.7548,1.881-13.6319,5.0271-1.5831,5.6891-6.6244.945-13.4283a11.0984,11.0984,0,0,0,4.1684-5.42,6.3093,6.3093,0,0,0-5.0766-7.9464l-26.0915-4.6925a9.1951,9.1951,0,0,1-7.5743-10.172h0"/><path d="M166.9378,209.4754q7.2009,1.4208,14.4508,2.5915c3.4665.56,6.9469,1.0935,10.4433,1.43,3.374.3243,6.6874.2691,9.6915-1.5667a8.87,8.87,0,0,0,4.32-5.7765c.522-3.0321-.9076-5.7006-2.9617-7.836l-.8617,3.2642c2.84-.7144,4.7089-3.3984,5.3605-6.1287a12.6172,12.6172,0,0,0-2.3124-10.3721L203.901,187.95c2.9342-.98,5.1367-3.0764,5.5223-6.2389.4407-3.6136-1.4355-7.1763-3.41-10.0583l-.7007,2.672c2.46-1.8824,4.7792-4.3947,5.295-7.5751a8.2112,8.2112,0,0,0-3.3962-7.9345c-2.1023-1.5219-4.8672-1.7129-7.35-2.1595l-20.8936-3.7576a11.0641,11.0641,0,0,1-3.6181-1.0747,7.4606,7.4606,0,0,1-3-3.1372,6.9949,6.9949,0,0,1-.6643-2.0642,6.2563,6.2563,0,0,1-.0635-.8319c-.0026-.1309.079-1.32.0143-.8634a2.019,2.019,0,0,0-1.364-2.4023,1.967,1.967,0,0,0-2.4024,1.364,11.2392,11.2392,0,0,0,8.9414,12.5749c2.0087.3968,4.0333.7254,6.0484,1.0878,6.517,1.1721,13.0378,2.3248,19.5513,3.5163a5.1074,5.1074,0,0,1,3.8644,2.3839c1.58,2.8244-.73,5.8143-2.934,7.5009a1.989,1.989,0,0,0-.7006,2.672c2.01,2.9331,5.2891,8.8668.2221,10.5594-1.0774.36-1.9627,1.7928-1.1671,2.8689a9.0817,9.0817,0,0,1,1.9863,7.0538c-.2951,1.57-1.1689,3.3241-2.7,3.7092a1.9718,1.9718,0,0,0-.8617,3.2641c1.2725,1.3229,2.4671,3.1116,1.7148,5.0051a6.1949,6.1949,0,0,1-3.6293,3.1459c-2.3951.9011-5.0355.516-7.5155.2416-6.0391-.6683-12.04-1.7651-18.0114-2.8695-1.5689-.29-3.1371-.5844-4.7024-.8932-2.4551-.4845-3.5061,3.2794-1.0383,3.7663Z"/><path d="M197.2891,139.6426a10.0481,10.0481,0,0,0-2.4972,1.278,17.0881,17.0881,0,0,0-4.7077,4.8951,21.79,21.79,0,0,0-2.2615,4.82,1.9668,1.9668,0,0,0,1.364,2.4024,2,2,0,0,0,2.4024-1.3641c.1213-.357.2488-.7116.3874-1.0623.0287-.0726.0594-.1445.0874-.2174.103-.2678-.1352.2994-.0181.0421.0724-.1591.1413-.32.2152-.478a18.3908,18.3908,0,0,1,.9539-1.7852q.2337-.3838.4872-.755.1044-.1527.2123-.3032c.0435-.0607.3744-.4818.1685-.2344-.2114.254.0866-.1068.1346-.1656q.124-.1518.252-.3.2616-.304.539-.5941.4695-.49.9838-.9346c.1536-.1324.32-.2526.4707-.3877-.1419.1271-.381.2884-.1034.0825q.1092-.081.22-.16a11.0539,11.0539,0,0,1,1.4891-.897c.0966-.0478.1947-.092.2921-.1378.3578-.1683-.5335.203-.2209.0926.0628-.0222.1239-.0491.1873-.07a1.9534,1.9534,0,1,0-1.0383-3.7663Z"/><line class="cls-5" x1="204.3223" y1="172.5416" x2="176.1897" y2="168.4128"/><path d="M204.8415,170.6585l-24.5823-3.6078-3.55-.5211a2.0176,2.0176,0,0,0-2.4024,1.3641,1.9672,1.9672,0,0,0,1.364,2.4023l24.5823,3.6078,3.55.521a2.0175,2.0175,0,0,0,2.4024-1.364,1.9672,1.9672,0,0,0-1.364-2.4023Z"/><line class="cls-5" x1="203.9696" y1="186.1985" x2="175.837" y2="182.0697"/><path d="M204.4888,184.3153l-24.5823-3.6077-3.55-.5211a2.0175,2.0175,0,0,0-2.4024,1.364,1.9673,1.9673,0,0,0,1.364,2.4024L199.9,187.5606l3.55.5211a2.0176,2.0176,0,0,0,2.4024-1.364,1.9673,1.9673,0,0,0-1.364-2.4024Z"/><line class="cls-5" x1="201.1702" y1="199.0834" x2="173.0376" y2="194.9546"/><path d="M201.6894,197.2l-24.5823-3.6078-3.55-.521a2.0175,2.0175,0,0,0-2.4024,1.364,1.9672,1.9672,0,0,0,1.364,2.4023l24.5823,3.6078,3.55.521a2.0175,2.0175,0,0,0,2.4024-1.364,1.9672,1.9672,0,0,0-1.364-2.4023Z"/><path d="M239.2288,97.9421l-10.43,8.4214L227.32,107.557a1.9584,1.9584,0,0,0,0,2.7619,2.01,2.01,0,0,0,2.7619,0l10.43-8.4214,1.4782-1.1935a1.9584,1.9584,0,0,0,0-2.7619,2.0094,2.0094,0,0,0-2.7618,0Z"/><path d="M248.0445,117.3525l-13.2266,2.1652-1.878.3074a1.968,1.968,0,0,0-1.364,2.4024,2,2,0,0,0,2.4024,1.364l13.2266-2.1652,1.8779-.3074a1.9678,1.9678,0,0,0,1.364-2.4024,2,2,0,0,0-2.4023-1.364Z"/><path d="M218.4836,88.3256l-1.56,13.3116-.2215,1.89a1.9643,1.9643,0,0,0,1.953,1.9529,2,2,0,0,0,1.9529-1.9529l1.56-13.3116.2214-1.89a1.9642,1.9642,0,0,0-1.9529-1.953,2,2,0,0,0-1.953,1.953Z"/><line class="cls-3" x1="167.01" y1="690.1675" x2="204.228" y2="690.1675"/><path d="M167.01,692.1205h37.218c2.5132,0,2.5174-3.9059,0-3.9059H167.01c-2.5132,0-2.5174,3.9059,0,3.9059Z"/><polyline class="cls-4" points="380.86 790.139 380.825 851.566 306.692 832.977 306.692 765.203"/><path d="M378.9074,790.1388l-.0119,20.7631-.0191,33.0839-.0043,7.58,2.4721-1.8831-25.03-6.2761L316.4,833.3983l-9.1887-2.3041,1.4337,1.8832V765.2029c0-2.5132-3.9058-2.5174-3.9058,0v67.7745a1.9859,1.9859,0,0,0,1.4337,1.8832l25.03,6.2761,39.9147,10.0085,9.1887,2.304a1.9754,1.9754,0,0,0,2.4721-1.8832l.012-20.763.019-33.0839.0044-7.58c.0014-2.5133-3.9045-2.5173-3.9059,0Z"/><path d="M402.2029,520.4519l-16.8906.4165s-5.8558,18.6829,10.0386,26.7695C410.7919,555.4938,402.2029,520.4519,402.2029,520.4519Z"/><path d="M402.2029,518.4989l-16.8906.4165a2.0094,2.0094,0,0,0-1.8832,1.4338,28.5753,28.5753,0,0,0-.9641,11.3342,21.9428,21.9428,0,0,0,11.9,17.6408c2.1135,1.0679,4.6564,1.9124,7,1.0778a7.2392,7.2392,0,0,0,4.1843-4.7241c1.64-4.5914,1.0667-10.0692.48-14.8021a95.7249,95.7249,0,0,0-1.9425-10.9431c-.5968-2.44-4.3644-1.4069-3.7664,1.0383.6226,2.5459,1.0961,5.1362,1.4959,7.7251.3275,2.1209.5931,4.3284.7326,6.763.0693,1.2086.1015,2.42.0741,3.63-.0124.5447-.0364,1.0892-.0768,1.6325q-.0276.3707-.0652.74c-.0124.1209-.0261.2416-.04.3623-.0552.4812.0424-.2415-.0257.1882a15.6815,15.6815,0,0,1-.71,2.839c-.0977.2735.1345-.2175-.09.2021-.0984.1837-.1875.37-.2951.5494-.0917.1526-.19.2987-.2924.4442-.1611.2293.3178-.3535.0255-.0424-.0718.0764-.14.1556-.2145.23-.12.1188-.5769.4348-.1191.1342-.1349.0886-.2819.1659-.4128.2588-.4054.2878.2329-.021-.1563.07-.1868.0437-.37.0985-.5582.139.5666-.122-.07,0-.2259-.0045-.222-.0058-.4407-.0119-.6618-.0345.446.0457-.109-.027-.2741-.0676-.2886-.0709-.5739-.15-.8557-.2455a17.8949,17.8949,0,0,1-4.17-2.3082,16.98,16.98,0,0,1-3.497-3.391,18.65,18.65,0,0,1-3.4092-8.21,24.1992,24.1992,0,0,1-.2841-4.2353q.0132-1.0082.095-2.0139.0372-.4617.0882-.9221c.013-.117.0272-.2339.0409-.3508.0511-.4355-.0483.3081.0193-.1493a23.3433,23.3433,0,0,1,.7383-3.5161l-1.8832,1.4338,16.8906-.4165C404.7119,522.343,404.7214,518.4368,402.2029,518.4989Z"/><path d="M525.2945,500.2335s29,5.577,32.3465,22.308-39.0389,20.6348-39.0389,20.6348"/><path d="M524.7753,502.1167a67.2712,67.2712,0,0,1,12.7608,3.9469c6.5441,2.6993,13.791,6.7967,17.0521,13.4544a13.6882,13.6882,0,0,1,.8731,2.3147c.132.4653.2392.9359.3313,1.4106.0133.0686.0618.3864.013.0227.0315.2347.05.472.0608.7084.0134.2873.0133.5755-.0015.8628-.0087.169-.0227.3376-.0409.5058.0516-.4768-.0134.0679-.03.1414-.0615.27-.117.538-.1953.804-.0468.1586-.1034.3134-.1536.4708q-.0557.1555-.1171.3091.1206-.2791.034-.0856a12.9287,12.9287,0,0,1-5.2778,5.469c-5.5909,3.5288-12.2059,5.3055-18.7136,6.7124q-4.6212.9992-9.31,1.6462c-.1383.0193-.2766.0381-.4149.0572-.4021.0556.4174-.054-.004,0-.2577.0333-.5152.0672-.773.0994q-.5981.0748-1.1967.143c-.3562.04-.7127.08-1.07.1131a2.0059,2.0059,0,0,0-1.9529,1.9529,1.9671,1.9671,0,0,0,1.9529,1.9529,115.891,115.891,0,0,0,11.9268-1.8084c7-1.3951,14.2218-3.2789,20.4577-6.8541a19.9139,19.9139,0,0,0,7.0662-6.2607,11.3035,11.3035,0,0,0,1.2416-9.1694c-2.1657-8.1187-9.6376-13.5415-16.8342-17.0183a68.7526,68.7526,0,0,0-16.6465-5.6679c-2.4559-.4746-3.5077,3.2892-1.0384,3.7663Z"/><path class="cls-3" d="M424.5343,332.5676H502.253c11.1051,0,33.3706,5.74,38.1372,22.0379,0,0,5.4026,94.8458,17.2508,166.4983-74.2783,18.9913-169.1743,13.653-169.1743,13.653l28.8641-159.9607"/><path d="M424.5343,334.5205h65.9012c4.1075,0,8.22-.0577,12.327.0041a50.3364,50.3364,0,0,1,14.5918,2.5794,39.2468,39.2468,0,0,1,14.9264,8.2589,23.3226,23.3226,0,0,1,4.9952,6.5913,17.2726,17.2726,0,0,1,.7536,1.7264c.1222.33.2087.6806.3436,1.0052.1609.3871.05-.1316.065-.0665a2.7044,2.7044,0,0,1,.0161.2781c.17,1.5007.1824,3.0366.2773,4.5435q.7319,11.6262,1.6074,23.2427,1.3743,18.4386,3.0384,36.8543,2.0263,22.3879,4.5489,44.7275c1.7743,15.5416,3.7608,31.0624,6.1143,46.5275q.825,5.42,1.7173,10.83l1.364-2.4024a401.17,401.17,0,0,1-44.83,8.5383c-14.752,2.016-29.5953,3.3743-44.4544,4.2912q-19.3693,1.1952-38.7836,1.3936-14.0955.1594-28.1914-.1845-4.2062-.1071-8.4106-.2725a38.0932,38.0932,0,0,0-3.8219-.1739,1.43,1.43,0,0,1-.1637-.0089l1.8832,2.4721,2.8836-15.9805,6.8779-38.1164,8.36-46.33,7.188-39.8352c1.1688-6.4773,2.4087-12.9464,3.5072-19.4361.0148-.0876.0315-.1749.0473-.2624.4435-2.4577-3.32-3.512-3.7663-1.0383l-2.8836,15.9805-6.878,38.1164-8.36,46.33-7.1881,39.8352c-1.1688,6.4773-2.4087,12.9464-3.5071,19.4361-.0148.0876-.0316.1749-.0473.2624a1.9878,1.9878,0,0,0,1.8831,2.4721c3.3314.1869,6.6686.2926,10.0035.39q13.278.3875,26.565.2852,19.0823-.1208,38.1448-1.1568c14.7718-.8156,29.5243-2.07,44.2037-3.9205a428.7889,428.7889,0,0,0,45.3727-7.99q2.7075-.6423,5.4038-1.3309a2.0046,2.0046,0,0,0,1.364-2.4024c-2.5328-15.34-4.6359-30.7486-6.5015-46.183q-2.7631-22.86-4.8992-45.79-1.8666-19.7-3.3854-39.4306-1.0295-13.3145-1.9025-26.64-.2129-3.28-.4114-6.56a15.9891,15.9891,0,0,0-2.26-6.9123c-5.7912-10.3545-18.2311-15.6483-29.41-17.62a85.1311,85.1311,0,0,0-14.9934-.8335H424.5343c-2.5132,0-2.5174,3.9058,0,3.9058Z"/><path class="cls-6" d="M333.4431,829.1361,343.35,837.31a18.9709,18.9709,0,0,0,24.7225-.4958H380.86l-.1134,65.8564H237.7027s-2.4389-40.6143,50.9652-44.9011a19.0851,19.0851,0,0,0,17.4884-19.2443l-.0052-.5105a11.6352,11.6352,0,0,1,11.9427-11.75l8.2457.2153A11.64,11.64,0,0,1,333.4431,829.1361Z"/><path d="M332.0622,830.5171,340.89,837.8a26.0143,26.0143,0,0,0,5.8846,3.92,20.9672,20.9672,0,0,0,22.6793-3.5248l-1.3809.572H380.86l-1.9529-1.953-.0385,22.37-.0609,35.3468-.0141,8.1394,1.953-1.953H243.4853c-1.82,0-3.7152-.153-5.53,0-.0829.007-.169,0-.2523,0l1.9529,1.953a21.4419,21.4419,0,0,1,.0261-2.37c.0478-.9179.1385-1.831.2448-2.7437a1.8443,1.8443,0,0,1,.0482-.353c.0444-.2885.0873-.5772.1354-.8652q.1557-.9318.3521-1.8562.4362-2.0539,1.0691-4.06.3426-1.0846.7423-2.15c.1437-.383.2952-.7626.4475-1.1421.0309-.0772.0632-.1538.095-.2306.1142-.275-.12.2789-.0012.0037q.1343-.3114.2727-.6209a40.6714,40.6714,0,0,1,5.6451-9.1145c6.4619-7.7092,15.522-12.4338,25.1962-14.9961a78.9848,78.9848,0,0,1,9.9293-1.9481c3.5889-.4715,7.2562-.4653,10.6723-1.7952a21.287,21.287,0,0,0,12.9539-14.5975,22.0076,22.0076,0,0,0,.6248-5.3062,10.8685,10.8685,0,0,1,.7411-4.398,9.82,9.82,0,0,1,6.6931-5.6541,22.9168,22.9168,0,0,1,5.9347-.1676c1.8161.0474,3.6637-.0017,5.4745.1609a9.71,9.71,0,0,1,5.11,2.0512,2.017,2.017,0,0,0,2.7618,0,1.9649,1.9649,0,0,0,0-2.7619,14.7311,14.7311,0,0,0-9.12-3.2458l-6.5886-.1719a15.3,15.3,0,0,0-7.7115,1.5618,13.7024,13.7024,0,0,0-6.5738,7.8885c-1.0473,3.2482-.3836,6.6984-1.3807,9.982a17.4155,17.4155,0,0,1-5.4185,8.1665,16.8719,16.8719,0,0,1-8.6634,3.8107c-3.8083.4917-7.6093.77-11.39,1.5-10.97,2.1169-21.79,6.6272-29.7447,14.6753a43.5427,43.5427,0,0,0-11.007,19.31,36.5524,36.5524,0,0,0-1.4836,11.2733c.0032.0549.0039.11.0071.1649a1.9905,1.9905,0,0,0,1.953,1.9529H363.1908c5.7573,0,11.5485.1831,17.3038,0,.0839-.0026.1683,0,.2523,0A1.9816,1.9816,0,0,0,382.7,902.67l.0386-22.37.0609-35.3468.014-8.1394a1.9811,1.9811,0,0,0-1.953-1.9529H368.6637c-.1956,0-.3958-.0132-.591,0-1.3263.0895-2.5759,1.6-3.6787,2.2791a17.228,17.228,0,0,1-14.7644,1.5455c-3.042-1.0725-5.375-3.15-7.8119-5.16l-6.9937-5.77a2.0115,2.0115,0,0,0-2.7618,0A1.9664,1.9664,0,0,0,332.0622,830.5171Z"/><path class="cls-7" d="M394.9267,641.1628c-1.2787,56.2656-5.9805,164.2481-5.9805,164.2481l-93.2606.594-9.9866-211.05a68.2336,68.2336,0,0,1,68.1854-70.7994H568.8387l5.884,30.8046a71.0627,71.0627,0,0,1-68.64,84.386Z"/><path d="M392.9738,641.1628c-.2863,12.5587-.6683,25.1152-1.08,37.67q-.6941,21.1852-1.5,42.3668-.7493,19.97-1.5569,39.9378-.6123,15.1925-1.252,30.3837-.1969,4.6752-.3969,9.35a34.6988,34.6988,0,0,0-.1874,4.3537,1.4819,1.4819,0,0,1-.0081.1856l1.9529-1.9529-31.724.202-50.1195.3192-11.4171.0728,1.9529,1.9529-.343-7.25-.9147-19.3289-1.3233-27.9664-1.5692-33.1633-1.6524-34.9192-1.5787-33.3626-1.3287-28.08-.9226-19.4989c-.1179-2.4921-.2527-4.984-.3538-7.4768a66.2653,66.2653,0,0,1,51.6956-67.255,81.5073,81.5073,0,0,1,18.0472-1.5949H568.8387l-1.8832-1.4338,4.0792,21.3558q.8791,4.6028,1.7583,9.2055a70.5424,70.5424,0,0,1,1.1419,17.2814,69.3291,69.3291,0,0,1-42.675,59.7234,72.6931,72.6931,0,0,1-26.5247,5.1745l-15.215.2486-25.9764.4245-29.4346.4809-25.1989.4118-13.3756.2185-.608.01c-2.5108.041-2.5185,3.947,0,3.9058l9.6175-.1571,23.4358-.3829,29.5875-.4835,27.6141-.4512,17.9634-.2935a83.9441,83.9441,0,0,0,22.2013-2.9212,72.9021,72.9021,0,0,0,52.34-76.21,110.3387,110.3387,0,0,0-1.7059-11.0514l-4.8711-25.5015-.387-2.0265a1.9684,1.9684,0,0,0-1.8832-1.4338H362.9948c-2.993,0-5.9861-.0052-8.9791,0A70.2142,70.2142,0,0,0,287.1188,570.68a72.8125,72.8125,0,0,0-3.285,26.13l.6495,13.7249,1.1494,24.2914,1.4747,31.1642,1.6388,34.6335,1.6381,34.6192,1.4781,31.2369,1.1406,24.1042.6461,13.6544.0836,1.7658a1.9872,1.9872,0,0,0,1.9529,1.953l31.7241-.2021,50.1194-.3192,11.4171-.0728a1.9914,1.9914,0,0,0,1.953-1.9529q.2427-5.577.4769-11.1544.6073-14.3555,1.1893-28.7121.7938-19.5717,1.5389-39.1451.8054-21.2247,1.5263-42.4525.6474-19.3148,1.1509-38.6343.0509-2.0748.0982-4.15C396.937,638.6484,393.0311,638.6492,392.9738,641.1628Z"/><path class="cls-3" d="M380.747,902.67H237.7026s-.0937-5.6824,3.1331-14.0664l20.46-.6394,9.71-3.6631a37.5032,37.5032,0,0,1,24.0226.1027h0a37.5023,37.5023,0,0,0,21.05.9591l7.7122-1.881a37.5038,37.5038,0,0,1,15.7675-.4314l10.9306,2.04a37.503,37.503,0,0,0,23.7943-3.3938l6.5773-3.3234Z"/><path d="M380.747,900.7171H243.4852c-1.82,0-3.7151-.153-5.53,0-.0828.007-.169,0-.2523,0l1.9529,1.953c-.0583-4.5516,1.45-9.299,3.0633-13.5473l-1.8831,1.4338,19.2739-.6023c2.4879-.0777,4.7084-1.24,7.0223-2.1125,4.755-1.7937,9.3777-3.329,14.5415-3.4932a35.8173,35.8173,0,0,1,11.5337,1.5183,50.8006,50.8006,0,0,0,11.5847,2.44c5.6376.3616,10.9647-.855,16.3811-2.1761,1.8018-.44,3.6019-.9216,5.4283-1.2487a34.9419,34.9419,0,0,1,12.2069.0106c3.2586.582,6.5091,1.2134,9.7632,1.8208a42.77,42.77,0,0,0,18.0931-.1442c4.94-1.1888,9.3565-3.5655,13.852-5.8371l1.33-.6718-2.9386-1.6863-.099,21.22-.0143,3.0763c-.0117,2.5137,3.8941,2.5168,3.9059,0l.0989-21.22.0144-3.0763a1.9751,1.9751,0,0,0-2.9387-1.6863c-3.0863,1.5594-6.152,3.3245-9.3762,4.5855a36.218,36.218,0,0,1-19.8235,1.8726c-3.4061-.6317-6.81-1.2747-10.216-1.9067a42.0048,42.0048,0,0,0-17.829.5166c-4.1914,1.0223-8.432,2.3153-12.7491,2.6256a35.8769,35.8769,0,0,1-11.88-1.1125c-1.78-.4772-3.5031-1.1371-5.2893-1.5958a41.1231,41.1231,0,0,0-5.8595-1.0357,38.9662,38.9662,0,0,0-17.8405,2.3376l-5.7178,2.1569c-.694.2618-1.4042.499-2.0875.7875a2.3067,2.3067,0,0,0-.4013.1514c.0047-.07.74-.0174.3492-.0545a27.0074,27.0074,0,0,0-3.2927.1029l-5.9238.1851-10.4651.327-.6373.02a2.0331,2.0331,0,0,0-1.8832,1.4338c-1.7231,4.536-3.2659,9.6676-3.2028,14.5856a1.9831,1.9831,0,0,0,1.9529,1.9529H363.191c5.7573,0,11.5485.1831,17.3037,0,.0839-.0026.1683,0,.2523,0C383.26,904.623,383.2644,900.7171,380.747,900.7171Z"/><path d="M299.5509,853.9229c.2.1056.3916.2293.58.3541.215.1426.4154.3076.63.4489-.093-.0611-.4137-.3286-.17-.13.0589.0479.1184.095.177.1433q.2211.1821.4343.3736.4287.3849.8233.8056.2244.2394.4369.49c.0679.08.1332.1623.2007.2427.1975.2352-.2582-.3542-.0077-.0112a13.195,13.195,0,0,1,.8148,1.2441q.1955.3427.3678.6981c.0544.1124.1052.2263.1578.34.1363.2935-.1325-.3574.0231.0637a12.4688,12.4688,0,0,1,.5463,1.8785c.0328.1638.0563.3291.0875.4931.0421.2211-.0244-.1472-.0188-.1578-.026.0494.0272.2366.033.295.0407.4094.0579.82.06,1.2312a1.953,1.953,0,0,0,3.9059,0,14.33,14.33,0,0,0-6.31-11.67,7.701,7.701,0,0,0-.8014-.5049,1.9533,1.9533,0,1,0-1.9714,3.3726Z"/><path d="M290.11,859.0068c.2.1056.3916.2293.58.3541.2149.1425.4153.3075.63.4489-.093-.0612-.4137-.3286-.17-.13.0589.048.1184.095.177.1433q.2211.1821.4343.3736.4287.3849.8233.8056.2244.2394.4369.49c.0679.08.1332.1624.2007.2428.1976.2352-.2582-.3542-.0077-.0112a13.1822,13.1822,0,0,1,.8148,1.2441q.1954.3428.3678.698c.0545.1124.1052.2264.1578.34.1363.2935-.1325-.3573.0231.0637a12.4722,12.4722,0,0,1,.5463,1.8785c.0328.1638.0564.3292.0876.4931.042.2212-.0245-.1471-.0189-.1577-.026.0494.0272.2366.033.295.0407.4094.0579.82.06,1.2312a1.953,1.953,0,0,0,3.9059,0,14.33,14.33,0,0,0-6.31-11.67,7.7023,7.7023,0,0,0-.8015-.5049,1.9532,1.9532,0,1,0-1.9713,3.3726Z"/><path d="M277.2973,861.1856c.2.1056.3916.2293.58.3541.215.1425.4154.3075.63.4489-.093-.0612-.4137-.3286-.17-.13.0589.048.1184.0951.177.1433q.2211.1821.4343.3736.4286.3849.8232.8056.2245.2394.437.49c.0679.08.1332.1624.2007.2428.1975.2352-.2583-.3542-.0077-.0112a13.2019,13.2019,0,0,1,.8148,1.2441q.1954.3427.3678.698c.0544.1124.1051.2264.1577.34.1364.2935-.1324-.3573.0232.0637a12.4955,12.4955,0,0,1,.5463,1.8785c.0328.1638.0563.3292.0875.4931.0421.2212-.0244-.1471-.0189-.1577-.0259.0494.0273.2366.0331.295.0407.4094.0578.82.06,1.2312a1.953,1.953,0,0,0,3.9059,0,14.33,14.33,0,0,0-6.31-11.67,7.7115,7.7115,0,0,0-.8014-.5049,1.9533,1.9533,0,1,0-1.9714,3.3726Z"/><rect class="cls-5" x="288.1499" y="779.2693" width="108.695" height="29.4116" rx="7.1265"/><path d="M389.7184,806.728H311.3177c-5.3206,0-10.6506.0924-15.9706,0a5.2542,5.2542,0,0,1-5.1985-4.4129,35.0538,35.0538,0,0,1-.0457-5.1805v-8.1318c0-1.9542-.2328-3.9952.996-5.6724,1.6472-2.2483,4.0783-2.1081,6.4988-2.1081h91.5431a6.0983,6.0983,0,0,1,2.9521.5758c2.3031,1.2133,2.799,3.4021,2.799,5.7682,0,4.5993.0353,9.2,0,13.7991a5.2536,5.2536,0,0,1-5.1735,5.3626c-2.5093.06-2.5186,3.9658,0,3.9059a9.1754,9.1754,0,0,0,8.9368-7.5376,37.5574,37.5574,0,0,0,.1426-5.847v-8.4379c0-2.4042.0509-4.7177-1.1857-6.9045a9.2441,9.2441,0,0,0-7.9644-4.59c-.5395-.0088-1.08,0-1.6195,0h-74.13c-6.1186,0-12.2383-.0352-18.3568,0a9.4608,9.4608,0,0,0-6.3308,2.331c-2.3038,2.0308-3.0132,4.8372-3.0132,7.7813,0,4.6783-.0741,9.3628,0,14.04a9.2422,9.2422,0,0,0,6.2454,8.7106,10.7748,10.7748,0,0,0,3.5022.4542h93.7738C392.2316,810.6339,392.2358,806.728,389.7184,806.728Z"/><line class="cls-2" x1="400.5227" y1="631.241" x2="375.3106" y2="631.241"/><path d="M400.5227,629.2881H375.3106c-2.5133,0-2.5175,3.9059,0,3.9059h25.2121c2.5133,0,2.5174-3.9059,0-3.9059Z"/><path d="M427.6184,583.9446H404.9518c-7.6188,0-15.2523-.1416-22.87.0067a38.459,38.459,0,0,0-35.1405,25.2273c-1.993,5.5048-2.1917,11.1211-2.3435,16.8622l-.52,19.6426-.7775,29.39-.8879,33.568-.8511,32.1755-.6669,25.2127-.3354,12.68-.0148.5594c-.0665,2.5144,3.8394,2.5128,3.9058,0l.23-8.6768.5924-22.3982.8081-30.5493.8861-33.496.8144-30.79.6053-22.8817c.0829-3.134.1534-6.2686.2487-9.4023A34.4649,34.4649,0,0,1,372.05,589.57a40.4127,40.4127,0,0,1,12.7982-1.7191h42.77c2.5133,0,2.5175-3.9059,0-3.9059Z"/><polyline class="cls-4" points="203.132 735.827 175.981 790.928 117.671 741.519 147.593 680.708"/><path d="M201.4458,734.8409l-9.1774,18.6247L177.645,783.1423l-3.3505,6.7995,3.0672-.3952-19.6873-16.6817L126.279,746.2626l-7.2275-6.1241.3054,2.3666,10.1318-20.5914,16.1235-32.7683,3.6666-7.452c1.1058-2.2474-2.2617-4.2291-3.3726-1.9713l-10.1318,20.5914-16.1235,32.7683-3.6666,7.4519A1.9986,1.9986,0,0,0,116.29,742.9l19.6873,16.6817,31.3954,26.6023,7.2275,6.1241a1.9776,1.9776,0,0,0,3.0673-.3953l9.1774-18.6247,14.6234-29.6766,3.3505-6.8c1.1072-2.2469-2.26-4.2285-3.3726-1.9714Z"/><path class="cls-7" d="M286.1148,610.6242c-25.9882,49.9206-77.88,144.7336-77.88,144.7336l-83.9418-40.6409,84.2163-193.7764a68.2337,68.2337,0,0,1,92.4378-33.4224l192.8709,94.9007,88.5929-25.5156v0c-9.445,55.97-42.9315,97.9878-99.6481,100.2483l-55.18,1.3227a119.9871,119.9871,0,0,1-51.9588-9.57Z"/><path d="M284.4285,609.6385c-12.31,23.64-24.9387,47.1153-37.594,70.5719q-16.7055,30.964-33.5607,61.8469-3.36,6.1593-6.7257,12.3149l2.672-.7007-28.4068-13.7533L135.73,718.091l-10.452-5.06.7006,2.672,14.5538-33.4873,31.2013-71.7922,29.2183-67.23c6.4209-14.774,11.8018-30.4441,23.6088-41.947a66.9136,66.9136,0,0,1,50.1175-18.6971c9.9348.558,19.16,3.6427,28.0091,7.9967L349.1751,513.42l73.0333,35.9356,59.032,29.0462c3.76,1.85,7.4917,3.9888,11.3657,5.5924,1.4561.6028,2.58.0635,4.0245-.3527l11.3841-3.2787,69.8212-20.1092,5.0938-1.467-2.4024-2.4024c-5.1789,30.69-18.5765,61.8239-44.2821,80.757a93.746,93.746,0,0,1-42.5992,17.1009c-8.621,1.2166-17.392,1.1127-26.0784,1.321l-33.4039.8007c-2.4767.0593-4.9538.11-7.43.1885a118.7422,118.7422,0,0,1-33.7935-3.7763c-8.5468-2.2339-16.5575-5.6548-24.64-9.1113L340.0212,631.57l-51.9093-22.2-1.0114-.4325c-2.2857-.9776-4.278,2.3861-1.9714,3.3726l46.2272,19.77c15.8557,6.781,31.5866,14.0874,47.6761,20.3054,16.36,6.3227,33.3624,8.4056,50.7972,7.9876l31.0225-.7436c8.0495-.1929,16.1395-.1617,24.1792-.6379,16.0576-.9512,31.8874-5.2829,45.752-13.5423,27.451-16.3533,43.76-45.6634,51.0658-76.0354q1.4313-5.9506,2.4446-11.9917a1.9781,1.9781,0,0,0-2.4024-2.4024l-30.0066,8.6422L504.294,577.3688l-10.9956,3.1668,1.5049.1969-23.9314-11.7752-54.9213-27.0237L354.08,511.4906l-44.2162-21.7563c-2.6124-1.2854-5.2206-2.58-7.8376-3.8564a70.1832,70.1832,0,0,0-95.9,35.68l-15.0092,34.5351-26.3111,60.54-26.3475,60.6241-15.1366,34.8284-.7153,1.6458a1.99,1.99,0,0,0,.7006,2.672l28.4068,13.7533,45.083,21.8272,10.452,5.06a1.9913,1.9913,0,0,0,2.672-.7007q9.5547-17.458,19.049-34.9492,19.4631-35.813,38.7121-71.7421,10.142-18.9772,20.1193-38.0423C288.9607,609.3831,285.5911,607.4058,284.4285,609.6385Z"/><rect class="cls-5" x="157.4742" y="670.5249" width="29.4116" height="108.695" rx="7.1265" transform="translate(-554.2387 559.3375) rotate(-63.8008)"/><path d="M209.0429,757.2288l-12.8644-6.33-28.4966-14.0216-28.9852-14.2619c-4.774-2.3491-9.5972-4.6193-14.33-7.051a5.2692,5.2692,0,0,1-2.8483-6.2555,31.4793,31.4793,0,0,1,2.1888-4.61l3.59-7.2964c.86-1.7472,1.5643-3.7315,3.3719-4.716,2.4689-1.3448,4.5506-.2184,6.7306.8542l8.0744,3.973,27.4019,13.4829L202.52,725.5825l17.0188,8.374a6.5,6.5,0,0,1,2.5126,1.8635c1.508,2.031,1.0557,4.2386.0363,6.31-2.03,4.1268-4.03,8.27-6.0922,12.3815a5.2809,5.2809,0,0,1-6.9521,2.717,2.0124,2.0124,0,0,0-2.672.7006,1.9674,1.9674,0,0,0,.7006,2.672,9.216,9.216,0,0,0,11.5-2.79,33.7467,33.7467,0,0,0,2.6138-5.0212l3.7253-7.571c1.0514-2.1369,2.1976-4.2222,2.0551-6.7023a9.2231,9.2231,0,0,0-5.0007-7.709c-.48-.246-.969-.4768-1.4532-.715l-7.8926-3.8835L184.58,712.4129l-30.5834-15.0483c-5.49-2.7013-10.9655-5.4347-16.471-8.1044a9.5379,9.5379,0,0,0-6.7228-.804,9.7347,9.7347,0,0,0-6.1832,5.5626c-2.0656,4.198-4.1944,8.37-6.1988,12.598a9.2827,9.2827,0,0,0,4.5106,12.5842l6.3783,3.1383,26.5941,13.0855,31.1634,15.3337,19.0753,9.3859.9288.457C209.3189,761.7072,211.3006,758.34,209.0429,757.2288Z"/><path d="M367.4257,576.03l-18.8217-6.6311-36.0316-12.6944q-11.2871-3.9767-22.5742-7.9532c-6.8607-2.4107-14.1541-3.6774-21.4022-2.6035a29.82,29.82,0,0,0-20.1712,12.9044c-2.8333,4.124-4.7466,9.0251-6.86,13.5442L229.9513,597.431l-15.7675,33.7174-16.3969,35.063-13.4751,28.8153-7.0105,14.9912-.3151.6738c-1.0584,2.2633,2.3075,4.2489,3.3726,1.9714l4.8295-10.3274,12.1433-25.9674,15.8871-33.9729,16.1756-34.59L242.4068,579.98q3.14-6.7138,6.2792-13.4276c2.3474-5.01,5.628-9.6029,10.3083-12.6746,7.1023-4.6611,15.8457-5.0378,23.93-3.1493a88.4557,88.4557,0,0,1,9.23,2.9152l11.9684,4.2166,35.4441,12.4874,25.5154,8.9894,1.305.46c2.3754.8369,3.3971-2.9353,1.0384-3.7663Z"/><path class="cls-6" d="M143.3693,749.8832l5.2808,11.7076a18.9709,18.9709,0,0,0,22.4015,10.47h0l11.4739,5.6457-29.1769,59.04L25,773.5939s15.7438-37.5215,65.5587-17.785a19.0819,19.0819,0,0,0,24.1817-9.548l.22-.4591a11.636,11.636,0,0,1,15.9044-5.2725l7.3036,3.8335A11.6392,11.6392,0,0,1,143.3693,749.8832Z"/><path d="M141.683,750.8689l4.77,10.5751c2.5719,5.7018,6.835,10.1319,12.8484,12.1851a20.9154,20.9154,0,0,0,12.2694.3148l-1.5049-.1969,11.4739,5.6457-.7006-2.672-9.9109,20.055-15.66,31.6885-3.606,7.297,2.672-.7006-12.8077-6.302-30.6353-15.0738L73.8477,795.4577l-32.11-15.7992-10.5639-5.1979c-1.6293-.8017-3.2648-1.79-4.9622-2.4416-.0774-.03-.1517-.0747-.2264-.1114l.8975,2.2055c-.41.9752-.0252.0827.1045-.1841.2726-.5612.5678-1.1116.8753-1.6544q.7165-1.2645,1.5285-2.472.4857-.7254,1.0011-1.43c.172-.2354.3473-.4683.5232-.7007.2947-.3895-.1415.1767.0787-.1012.1187-.15.237-.2995.3569-.4482a39.3891,39.3891,0,0,1,16.1638-12.1216c9.9756-3.9484,20.9441-3.5758,31.2136-.9944a90.014,90.014,0,0,1,10.5167,3.375,21.9368,21.9368,0,0,0,9.9183,1.6364,21.3547,21.3547,0,0,0,16.2437-9.9141c.822-1.322,1.353-2.8161,2.2779-4.0737a9.7377,9.7377,0,0,1,11.4935-3.15c1.5334.6433,2.992,1.5383,4.4617,2.31a38.1607,38.1607,0,0,1,4.8643,2.67,10.2623,10.2623,0,0,1,3.1781,4.0093c1.0709,2.2721,4.4393.2918,3.3726-1.9714-2.3532-4.9927-7.31-6.96-11.8941-9.3665a17.5,17.5,0,0,0-6.6008-2.2385,13.4951,13.4951,0,0,0-9.152,2.5994,13.837,13.837,0,0,0-3.4718,3.7254c-.8689,1.3757-1.4522,2.8944-2.38,4.243a17.15,17.15,0,0,1-16.44,7.169c-3.6565-.5382-7.0973-2.3372-10.6055-3.4436-11.2574-3.55-23.6581-4.9466-35.0984-1.387a43.4286,43.4286,0,0,0-19.4587,12.5521,39.0821,39.0821,0,0,0-6.5785,9.7158c-.09.2009-.1736.4051-.259.6081a1.9465,1.9465,0,0,0,.8975,2.2055l12.8077,6.302L67.4574,796.656l37.0436,18.2271,32.1095,15.7992c5.1735,2.5456,10.3175,5.166,15.526,7.6395.076.0361.151.0743.2264.1114a1.9823,1.9823,0,0,0,2.672-.7006l9.9109-20.055,15.66-31.6886,3.606-7.2969a1.9818,1.9818,0,0,0-.7006-2.672l-7.176-3.5309c-1.2879-.6337-2.5707-1.2794-3.8643-1.9014a3.2791,3.2791,0,0,0-1.4193-.48c-1.1639,0-2.3518.5368-3.5289.637a17.2213,17.2213,0,0,1-13.6962-5.0006c-2.3595-2.3873-3.5978-5.378-4.95-8.3764l-3.8206-8.47a1.9666,1.9666,0,0,0-2.672-.7006A2.0011,2.0011,0,0,0,141.683,750.8689Z"/><path class="cls-3" d="M153.3487,836.7469,25,773.5939s2.4247-5.14,9.0214-11.2381l18.6405,8.4593,10.33,1a37.502,37.502,0,0,1,21.5092,10.6979h0a37.5027,37.5027,0,0,0,18.4636,10.1538l7.75,1.7171a37.5042,37.5042,0,0,1,14.3381,6.5741l8.907,6.6564a37.5023,37.5023,0,0,0,22.848,7.46l7.3689-.0781Z"/><path d="M154.3344,835.0606l-12.8077-6.3019-30.6353-15.0739L73.8477,795.4577l-32.11-15.7993-10.5639-5.1979c-1.63-.8021-3.265-1.7873-4.9621-2.4416-.0775-.03-.1518-.0746-.2264-.1113l.7006,2.672c1.9774-4.1523,5.4009-7.7513,8.716-10.8429l-2.3666.3054,17.9237,8.1341a7.6633,7.6633,0,0,0,2.5373.6727l5.9062.572a38.9334,38.9334,0,0,1,14.5939,3.8411,35.7831,35.7831,0,0,1,8.6918,6.2066,44.1755,44.1755,0,0,0,8.6178,6.7291c4.7814,2.767,9.93,4.0847,15.2564,5.2649,1.769.3919,3.556.7431,5.3057,1.216a35.8909,35.8909,0,0,1,10.6173,4.8474c3.1154,2.0864,6.0572,4.4634,9.0594,6.707A42.685,42.685,0,0,0,147.08,815.91c5.13,1.2425,10.28,1.1116,15.5047,1.0562l1.5928-.0169-1.6863-2.9386-9.4574,18.9964-1.371,2.754c-1.1169,2.2434,2.2511,4.2241,3.3726,1.9713l9.4574-18.9964,1.371-2.754a1.9752,1.9752,0,0,0-1.6863-2.9386c-2.4335.0258-4.8671.0611-7.3008.0775a35.7768,35.7768,0,0,1-15.9844-3.558c-5.5255-2.7079-10.2519-6.9411-15.2-10.547A39.6362,39.6362,0,0,0,111,792.4491c-2.5008-.5588-5.0062-1.0977-7.5056-1.6629a35.8032,35.8032,0,0,1-14.8683-7.1583c-2.0983-1.7269-3.9163-3.7512-6.0471-5.4431a39.58,39.58,0,0,0-7.1455-4.5639,40.1182,40.1182,0,0,0-13.919-3.9015l-8.8521-.8572.9857.2666-18.64-8.4593a2.0451,2.0451,0,0,0-2.3666.3054c-3.5346,3.2961-7.2192,7.2076-9.3268,11.6333a1.9843,1.9843,0,0,0,.7006,2.672l12.8078,6.3019L67.4574,796.656l37.0436,18.2271,32.11,15.7993c5.1735,2.5456,10.3175,5.166,15.5261,7.6395.0759.036.1509.0742.2263.1113C154.61,839.5391,156.5921,836.1715,154.3344,835.0606Z"/><path d="M101.9585,757.0681a8.0789,8.0789,0,0,1,.5475.901q.1347.2493.258.5046c.0479.0991.2931.6663.1748.3708-.1237-.3088.0122.0341.0387.1015q.07.178.1346.358.1388.3852.2537.7784a14.5792,14.5792,0,0,1,.3627,1.6235c.0783.4554-.0212-.3031.013.1275.0133.1677.03.3346.04.5027.02.3485.0253.6982.0144,1.0471q-.0071.226-.0233.4517c-.0045.0633-.0532.5861-.0305.3865.0268-.2358-.0422.26-.05.305q-.0518.2891-.1184.5751a10.6688,10.6688,0,0,1-.7327,2.1192,1.9532,1.9532,0,1,0,3.3726,1.9713,14.1008,14.1008,0,0,0,.9964-9.8709,13.105,13.105,0,0,0-1.8787-4.2243,1.9991,1.9991,0,0,0-2.672-.7007,1.9752,1.9752,0,0,0-.7006,2.672Z"/><path d="M91.2425,757.4614a8.0607,8.0607,0,0,1,.5475.901q.1347.2493.258.5045c.0479.0992.2931.6663.1748.3708-.1237-.3087.0122.0341.0387.1015q.07.178.1347.358.1386.3852.2536.7784a14.5792,14.5792,0,0,1,.3627,1.6235c.0783.4555-.0212-.3031.013.1275.0133.1678.03.3346.04.5027q.0306.5229.0144,1.0472-.0071.226-.0233.4516c-.0045.0634-.0532.5862-.0305.3866.0268-.2359-.0422.26-.05.305q-.0517.2889-.1184.5751a10.6677,10.6677,0,0,1-.7327,2.1191,1.9533,1.9533,0,0,0,3.3726,1.9714,14.1,14.1,0,0,0,.9964-9.871,13.1028,13.1028,0,0,0-1.8787-4.2243,1.9991,1.9991,0,0,0-2.672-.7006,1.9752,1.9752,0,0,0-.7006,2.672Z"/><path d="M82.0161,755.9653a8.7469,8.7469,0,0,1,.5938.9771q.1461.27.28.5472.0627.1295.1226.26c.0264.0575.2032.46.0753.1615-.1261-.2948.0255.0666.05.13q.0757.193.146.3882.15.4178.2751.8442a15.3786,15.3786,0,0,1,.3933,1.7606c.0776.46-.0142-.2515.02.1821.0144.1819.0328.3628.0435.5451q.0332.567.0156,1.1356-.0076.2451-.0253.49c-.0057.0805-.052.5725-.036.4411.0234-.1922-.0494.3076-.0575.3527q-.0561.3134-.1284.6236a11.5,11.5,0,0,1-.8112,2.3375,2.0056,2.0056,0,0,0,.7007,2.672,1.97,1.97,0,0,0,2.672-.7006A15.1144,15.1144,0,0,0,87.41,758.5356a14.0875,14.0875,0,0,0-2.0208-4.5417,2.01,2.01,0,0,0-2.672-.7006,1.9682,1.9682,0,0,0-.7006,2.672Z"/><path class="cls-3" d="M533.5422,393.1787l-3.3576,84.48a252.2866,252.2866,0,0,1,25.6731.5589c16.4946,1.1762,58.2327,20.3494,70.1292,23.7248L623.3716,391.936c-1.2029-32.9439-18.8007-57.4127-47.5723-59.6426l-73.8276.1014"/><path d="M531.5893,393.1787l-1.1421,28.7347-1.8047,45.4074-.4108,10.3376a1.9709,1.9709,0,0,0,1.9529,1.9529q7.284-.2207,14.5713-.0021c4.1537.1222,8.8264.2074,12.7328.7239a93.4941,93.4941,0,0,1,15.7833,4.0349c12.7552,4.1277,25.1715,9.2388,37.6417,14.14,4.7914,1.883,9.5976,3.9,14.554,5.3177a1.9708,1.9708,0,0,0,2.4722-1.8832l-.2789-11.73-.6623-27.8572-.7842-32.9868L625.57,402.25c-.1082-4.55-.1-9.124-.4261-13.6659-1.0687-14.8728-5.62-29.8887-15.4617-41.3584a48.22,48.22,0,0,0-15.8176-12.1751,46.798,46.798,0,0,0-18.1363-4.71c-5.9281-.1806-11.8924.0163-17.8224.0245l-32.3691.0444-22.4308.0308-1.134.0016c-2.5131.0034-2.5176,3.9093,0,3.9059l15.9678-.022,31.9205-.0438,23.8991-.0328a43.5542,43.5542,0,0,1,26.4115,9.2486c11.1421,8.71,17.3388,22.1173,19.8834,35.7678a118.6742,118.6742,0,0,1,1.5171,19.082l.5771,24.2763.77,32.4022.7078,29.7744.3892,16.37.0184.7718,2.4721-1.8831c-4.3048-1.231-8.4855-2.9453-12.651-4.572-6.0434-2.36-12.0639-4.7784-18.1136-7.1222-6.4277-2.49-12.8831-4.9207-19.4228-7.1029a111.23,111.23,0,0,0-16.62-4.5135,98.682,98.682,0,0,0-12.5687-.9643q-8.4691-.326-16.9459-.0786l1.9529,1.9529,1.1421-28.7346,1.8047-45.4075.4109-10.3376c.1-2.5135-3.8062-2.5091-3.9059,0Z"/><path d="M625.7535,502.3388c.4356-6.1082-9.9417-12.3115-26.4278-16.989L594.0708,515.79C612.7914,513.6681,625.2917,508.8123,625.7535,502.3388Z"/><path d="M627.7065,502.3388c.2548-4.6649-3.9214-8.1776-7.4506-10.4707-6.156-4-13.4026-6.4-20.4111-8.4015a1.9669,1.9669,0,0,0-2.4023,1.3641l-4.6015,26.6554-.6534,3.7852c-.1906,1.1044.5043,2.6306,1.8832,2.4721,8.1021-.9311,16.4048-2.2456,23.95-5.4768,4.2866-1.8356,9.238-4.791,9.6856-9.9278.2181-2.5037-3.689-2.4891-3.9059,0q-.0336.3421.012-.0327-.027.1614-.0638.3209c-.0467.1572-.089.3177-.133.4759q-.0522.1585-.1134.3138.1326-.3108-.01-.0014c-.08.1547-.1611.3087-.25.4585a7.0892,7.0892,0,0,1-1.5785,1.7941,21.4206,21.4206,0,0,1-5.9888,3.374c-6.8578,2.7157-14.3108,3.9575-21.6041,4.7956l1.8832,2.4721,4.6014-26.6554.6534-3.7852-2.4023,1.364c6.4322,1.837,12.96,4.002,18.6968,7.5154a19.3768,19.3768,0,0,1,4.9664,4.0553,9.9122,9.9122,0,0,1,.62.8918c.1016.1693.1941.343.2873.517.0109.02.244.5658.1111.224a6.3709,6.3709,0,0,1,.2983,1.0375c.0939.4593.0033-.2522.0178.173.0079.2319.0093.46-.0034.6918C623.6634,504.8505,627.57,504.8428,627.7065,502.3388Z"/><path class="cls-4" d="M555.8577,478.2173a252.2866,252.2866,0,0,0-25.6731-.5589l-1.5762,35.7171-.4485,10.1622-151.0485-2.6519L360.0492,501.892a49.5077,49.5077,0,0,0-36.83-16.4233H296.0723l30.5382,32.7837a40.3506,40.3506,0,0,1,10.8013,26.1128h0A33.7852,33.7852,0,0,0,355.63,573.1964h0a84.04,84.04,0,0,0,28.6192,8.8231l141.194,17.012c33.0491,1.0518,61.9467-23.0745,68.9222-55.3962l3.063-21.2222,1.8972-37.0633A221.3308,221.3308,0,0,0,555.8577,478.2173Z"/><path d="M555.8577,476.2643a256.4979,256.4979,0,0,0-25.6731-.5588,1.9953,1.9953,0,0,0-1.9529,1.9529q-.7884,17.8644-1.5767,35.7286-.2239,5.0754-.448,10.1507l1.9529-1.9529-15.0174-.2637-36.0666-.6332-43.6369-.7661-37.7284-.6624-12.4363-.2183a49.6072,49.6072,0,0,0-5.9047-.1037,2.1845,2.1845,0,0,1-.2582-.0045l1.381.572-9.6368-10.7277c-3.5762-3.9811-7.0235-8.25-10.9945-11.8518a51.9634,51.9634,0,0,0-29.3505-13.1263c-5.235-.56-10.6153-.2833-15.8706-.2833H296.0723a1.9756,1.9756,0,0,0-1.3809,3.3338l24.97,26.8062c4.0918,4.3926,8.3637,8.5855,11.2486,13.9249a38.24,38.24,0,0,1,3.4738,9.0527,57.7628,57.7628,0,0,1,1.1667,9.3056,35.9081,35.9081,0,0,0,5.7342,16.8451c7.3387,11.1155,20.5044,16.45,33.0137,19.4316a115.6751,115.6751,0,0,0,13.0432,2.1293l30.4337,3.6669,46.82,5.6412L507.3,598.7984l13.3867,1.6129a56.6355,56.6355,0,0,0,6.0534.6015c22.811.2809,44.3092-11.4887,57.5218-29.8719a73.4884,73.4884,0,0,0,8.3182-15.1358,54.3673,54.3673,0,0,0,3.7591-12.4773l2.7982-19.3876c.5741-3.9773.5678-8.051.773-12.06l1.1487-22.4412.22-4.2894a1.9768,1.9768,0,0,0-1.4338-1.8832,220.8659,220.8659,0,0,0-43.9871-7.2023c-2.5079-.1815-2.4964,3.7252,0,3.9059a215.53,215.53,0,0,1,42.9488,7.0628l-1.4338-1.8832-1.8088,35.3361a7.8038,7.8038,0,0,0-.0857,1.6754c.0374.1966.1224-.8061.0393-.2747-.0648.4139-.12.83-.18,1.2442l-1.4528,10.0658c-.44,3.0481-.8534,6.1013-1.32,9.1455a55.7846,55.7846,0,0,1-3.7516,12.4247c-8.4059,20.524-26.8877,36.39-48.68,40.8768a51.3426,51.3426,0,0,1-16.3118,1.04l-9.9768-1.2021-38.7963-4.6744L428.08,585.3475l-35.946-4.331q-3.7486-.4516-7.4973-.9033c-10.1959-1.2353-20.7-4.2447-29.5971-9.474a31.8415,31.8415,0,0,1-14.9537-20.5968,76.77,76.77,0,0,1-.9311-8.6274c-1.0708-9.8441-5.4614-18.4226-12.1567-25.61L299.95,486.7676l-2.4963-2.68-1.3809,3.3339H320.2a58.59,58.59,0,0,1,15.0608,1.55A47.762,47.762,0,0,1,357.01,501.5154c5.9382,5.9906,11.3616,12.56,16.997,18.8331,1.1015,1.2262,1.89,2.4441,3.6389,2.5,1.4062.0447,2.8149.0495,4.2215.0742l18.7317.3288,28.029.4921,32.0208.5622,30.7067.5391,24.087.4229c4.0579.0712,8.1235.2223,12.1822.2139.1782,0,.3567.0062.5348.0093a1.9879,1.9879,0,0,0,1.953-1.9529l1.7184-38.9391.3062-6.94-1.9529,1.9529a256.498,256.498,0,0,1,25.6731.5589C558.3662,480.3463,558.3552,476.44,555.8577,476.2643Z"/><path class="cls-4" d="M477.6022,377.4166h0a37.8933,37.8933,0,0,1-37.8932-37.8933v-7.1285h75.7866v7.1285A37.8933,37.8933,0,0,1,477.6022,377.4166Z"/><path d="M477.6022,375.4636a35.942,35.942,0,0,1-35.9077-34.361c-.1187-2.8967-.0327-5.8092-.0327-8.7078l-1.9529,1.953h75.7866l-1.953-1.953c0,2.3723.01,4.7448,0,7.1171a36.6744,36.6744,0,0,1-2.593,13.4737,35.9033,35.9033,0,0,1-33.3473,22.478c-2.5127.0115-2.5178,3.9174,0,3.9059a39.843,39.843,0,0,0,39.7683-37.3964c.2029-3.18.0779-6.3941.0779-9.5783a1.9813,1.9813,0,0,0-1.9529-1.9529H439.7089a1.9814,1.9814,0,0,0-1.953,1.9529c0,2.61-.0423,5.223.0064,7.8324a39.8491,39.8491,0,0,0,39.84,39.1423C480.1155,379.37,480.12,375.4636,477.6022,375.4636Z"/><polyline class="cls-4" points="503.003 339.598 502.319 288.255 458.658 304.723 457.068 338.417"/><path d="M504.9564,339.5983l-.2312-17.3344-.3688-27.6437-.0849-6.3651a1.9681,1.9681,0,0,0-2.4721-1.8832l-14.698,5.5437-23.5688,8.8895-5.3939,2.0344a2.0431,2.0431,0,0,0-1.4338,1.8832l-1.39,29.4609-.2,4.233c-.1186,2.5128,3.7876,2.5067,3.9059,0l1.39-29.4608.2-4.2331-1.4338,1.8832,14.6981-5.5437,23.5687-8.8895,5.394-2.0344-2.4721-1.8832.2312,17.3344.3687,27.6438.085,6.365c.0335,2.5114,3.9394,2.5184,3.9058,0Z"/><path class="cls-4" d="M502.572,305.9821c25.2121-19.2093,17.6609-38.823,19.1325-53.0017.8546-8.2331-9.8805-26.1964-9.8805-26.1964l-83.61,2.4195S393.62,322.362,474.3609,309.2721"/><path d="M503.5577,307.6684c6.64-5.094,12.6374-11.2455,16.15-18.9447a46.8368,46.8368,0,0,0,3.9167-18.4866c.1263-5.2639-.4163-10.5391-.0865-15.7981a23.78,23.78,0,0,0-.5687-7.55,57.3341,57.3341,0,0,0-3.2271-8.9343,109.0563,109.0563,0,0,0-6.2315-12.1563,1.9568,1.9568,0,0,0-1.6863-.9673L483.54,225.65l-45.0416,1.3034-10.2843.2976a2.0291,2.0291,0,0,0-1.8832,1.4338c-1.133,3.0541-2.0414,6.2047-2.8883,9.3475a134.4727,134.4727,0,0,0-4.1128,22.2636c-.8081,8.5251-.6694,17.362,1.6395,25.66,2.3234,8.35,7.1216,15.8414,14.5407,20.5123,9.8271,6.187,22.2448,6.7288,33.4674,5.4936,1.974-.2173,3.9422-.4911,5.903-.8061a1.9676,1.9676,0,0,0,1.364-2.4024,2,2,0,0,0-2.4024-1.364,78.5423,78.5423,0,0,1-20.0317.9055,44.6312,44.6312,0,0,1-7.5807-1.3995,31.7967,31.7967,0,0,1-6.3554-2.4374,31.2367,31.2367,0,0,1-2.8467-1.6537,22.2118,22.2118,0,0,1-2.2936-1.6788,29.869,29.869,0,0,1-4.2062-4.2951,3.1464,3.1464,0,0,1-.2561-.3319q-.199-.2677-.3937-.5385-.4356-.61-.8417-1.24-.812-1.26-1.5058-2.5909-.3481-.6658-.6673-1.3465-.1423-.3028-.2789-.6085c-.0544-.1216-.3588-.8369-.2014-.4575q-.5817-1.4022-1.0552-2.8461a47.214,47.214,0,0,1-1.5089-5.8835,46.3213,46.3213,0,0,1-.7776-5.7879,81.9251,81.9251,0,0,1,.0059-12.6542c.1477-2.03.36-4.0541.6189-6.0728q.0216-.1674.044-.3348c.0442-.3337-.0658.4739.0091-.0645q.0462-.3318.0933-.6634.106-.7394.2211-1.4773.225-1.4446.4833-2.8838.9218-5.1456,2.2282-10.2124.9574-3.7354,2.112-7.417c.3692-1.1715.8963-2.3491,1.1843-3.5419a1.403,1.403,0,0,1,.0561-.1538l-1.8832,1.4338,28.2843-.8185,45.0416-1.3034,10.2843-.2976-1.6863-.9672c1.8316,3.0692,3.4863,6.2592,5.0151,9.4883a69.0636,69.0636,0,0,1,3.3117,8.1316,19.8038,19.8038,0,0,1,1.3191,7.1915c-.5948,10.5528,1.1966,21.3615-2.4012,31.5548-2.907,8.236-8.96,14.9153-15.7961,20.16a2.0165,2.0165,0,0,0-.7006,2.672,1.9664,1.9664,0,0,0,2.672.7006Z"/><path d="M454.6586,250.9229a13.0621,13.0621,0,0,1,1.2187-.6034c-.5615.2644.2111-.0772.38-.1385q.3578-.13.7214-.244a16.7049,16.7049,0,0,1,1.99-.4918c.162-.03.3243-.0574.4872-.082-.34.0513.2975-.0337.2975-.0337q.594-.06,1.1913-.0752a14.4913,14.4913,0,0,1,2.312.1177,14.79,14.79,0,0,1,5.6953,2.2062c2.1317,1.3458,4.0938-2.0327,1.9714-3.3727-5.3077-3.351-12.7148-3.9963-18.236-.6552-2.1478,1.3-.1868,4.6786,1.9714,3.3726Z"/><path d="M425.2964,249.2988c5.1613-2.1215,13.2686-1.7547,15.1051,4.5482.8879,3.0472-.3659,6.3732-1.8167,9.0512a26.7317,26.7317,0,0,1-3.6686,5.152c-.7828.8687-1.9017,1.65-2.1955,2.8171a6.07,6.07,0,0,0-.1453,2.0733c.432,4.2146,5.1387,4.6007,8.4848,4.3451,2.49-.19,2.5111-4.0978,0-3.9059-1.3209.1009-3.193.23-4.2251-.2907-.3514-.1771-.1-.0333-.3026-.2161.2858.258-.1764-.4456-.0375-.077a2.5147,2.5147,0,0,1,.0487-1.1433l-.5023.8618a31.76,31.76,0,0,0,6.4656-8.7244,17.7,17.7,0,0,0,2.0976-8.3377,11.708,11.708,0,0,0-3.8926-8.1145c-2.6507-2.314-5.8911-3.0442-9.3444-3.0049a19.7231,19.7231,0,0,0-7.1095,1.1994,2.0164,2.0164,0,0,0-1.364,2.4024,1.9655,1.9655,0,0,0,2.4023,1.364Z"/><circle cx="428.2602" cy="260.615" r="2.9269"/><path d="M426.3121,260.4972c.0022-.0417.0351-.31-.0041-.0637.0084-.0526.0173-.1052.0282-.1574.0269-.13.0665-.2533.1059-.3791.0755-.2411-.0978.168.0206-.0535.0243-.0454.0457-.0921.07-.1373q.0552-.1011.1183-.1976c.0295-.0452.1743-.223.0277-.0492a3.3847,3.3847,0,0,1,.259-.2792c.037-.035.0762-.0671.1133-.1018.1792-.1677-.1654.0951.0442-.0329.1093-.0668.2139-.1373.3284-.1957.0457-.0234.092-.045.1386-.0663-.22.1.0422-.0082.0925-.0238.1257-.0388.2526-.063.381-.09.1489-.0315-.2345.0031.0172.002.0673,0,.1346-.0068.2021-.0068s.1363.0065.2044.0065c.2546,0-.1285-.0329.0214-.0019a3.9876,3.9876,0,0,1,.4229.1024c.04.0129.2763.1134.0574.0133.0469.0214.0935.0433.1394.0668.1148.0588.22.13.3292.1971.1976.1222-.0755-.0945.0149.0094.04.0463.0977.0842.1424.1267s.09.0892.1334.1359c.0364.0395.1986.2608.0648.0672a3.5709,3.5709,0,0,1,.204.3228c.0245.0451.0458.0915.07.1367.1161.2183-.0488-.1872.02.0516.0359.1254.0782.2471.105.3753.0107.0516.0194.1034.028.1553-.041-.2469-.0045.0442-.0029.0991.0035.123-.0046.2443-.012.3668.0145-.2408-.0032.0108-.0131.0581-.0108.0516-.0229.1032-.0364.1542-.02.0761-.0462.15-.07.2249-.0524.17-.0039.0177.0119-.0166a3.09,3.09,0,0,1-.2212.405c-.0029.0045-.1493.2074-.0573.0876s-.0658.0731-.07.0774c-.0859.095-.18.1781-.273.2653-.1684.1572.1107-.0465-.0131.0108a1.7379,1.7379,0,0,0-.1592.1053c-.0434.0267-.0877.0523-.1324.0767-.0468.0254-.3477.1441-.1158.0627a3.7136,3.7136,0,0,1-.3713.1147c-.051.0121-.1025.0215-.1539.0321-.2451.05.1385.0019-.0162.0011-.1355-.0007-.2695.0132-.4056.0058-.0569-.0031-.2422-.027-.0228.0063q-.1182-.018-.2348-.0454-.115-.0272-.2276-.0636c-.0387-.0126-.268-.1137-.0574-.0132a3.4539,3.4539,0,0,1-.4051-.2212c-.0428-.028-.084-.0577-.1258-.0871.1992.14-.0586-.0571-.095-.0918a3.2532,3.2532,0,0,1-.2581-.28c.1518.1829-.0036-.0135-.0267-.049-.0416-.0641-.0809-.13-.1174-.1971s-.07-.1366-.1021-.2065c.07.153.0163.0329-.0122-.0553a2.9862,2.9862,0,0,1-.1082-.4571c.0062.039.013.2042.0085.0218-.0026-.1087-.0075-.2159-.0046-.3247a.9851.9851,0,0,0-.9765-.9765.9958.9958,0,0,0-.9765.9765,3.9053,3.9053,0,1,0,3.2361-3.7227,3.9348,3.9348,0,0,0-3.2361,3.7227.9829.9829,0,0,0,.9765.9765A.9984.9984,0,0,0,426.3121,260.4972Z"/><circle cx="455.8735" cy="260.615" r="2.9269"/><path d="M453.9254,260.4972c.0022-.0417.0351-.31-.0041-.0637.0084-.0526.0174-.1052.0282-.1574.0269-.13.0665-.2533.1059-.3791.0755-.2411-.0978.168.0207-.0535.0242-.0454.0456-.0921.07-.1373q.0552-.1011.1183-.1976c.0295-.0452.1743-.223.0277-.0492a3.3859,3.3859,0,0,1,.2591-.2792c.0369-.035.0762-.0671.1133-.1018.1791-.1677-.1654.0951.0442-.0329.1092-.0668.2138-.1373.3283-.1957.0457-.0234.092-.045.1387-.0663-.22.1.0421-.0082.0924-.0238.1257-.0388.2526-.063.381-.09.1489-.0315-.2344.0031.0172.002.0673,0,.1346-.0068.2021-.0068s.1364.0065.2044.0065c.2546,0-.1285-.0329.0214-.0019a3.9817,3.9817,0,0,1,.4229.1024c.04.0129.2763.1134.0574.0133.0469.0214.0935.0433.1394.0668.1149.0588.22.13.3292.1971.1977.1222-.0755-.0945.015.0094.04.0463.0977.0842.1423.1267s.09.0892.1334.1359c.0364.0395.1986.2608.0649.0672a3.5932,3.5932,0,0,1,.204.3228c.0245.0451.0457.0915.07.1367.1161.2183-.0487-.1872.02.0516.0359.1254.0782.2471.105.3753.0107.0516.0194.1034.028.1553-.041-.2469-.0044.0442-.0029.0991.0035.123-.0046.2443-.012.3668.0146-.2408-.0032.0108-.013.0581-.0108.0516-.0229.1032-.0365.1542-.02.0761-.0462.15-.0694.2249-.0525.17-.0039.0177.0118-.0166a3.1017,3.1017,0,0,1-.2211.405c-.003.0045-.1493.2074-.0574.0876s-.0658.0731-.07.0774c-.0859.095-.18.1781-.273.2653-.1684.1572.1107-.0465-.0131.0108a1.7229,1.7229,0,0,0-.1591.1053q-.0653.04-.1325.0767c-.0468.0254-.3477.1441-.1157.0627a3.73,3.73,0,0,1-.3713.1147c-.0511.0121-.1025.0215-.154.0321-.2451.05.1386.0019-.0162.0011-.1355-.0007-.2694.0132-.4055.0058-.057-.0031-.2423-.027-.0228.0063q-.1184-.018-.2349-.0454c-.0767-.0181-.1527-.0392-.2275-.0636-.0388-.0126-.2681-.1137-.0575-.0132a3.4446,3.4446,0,0,1-.405-.2212c-.0429-.028-.0841-.0577-.1259-.0871.1992.14-.0585-.0571-.095-.0918a3.2532,3.2532,0,0,1-.2581-.28c.1519.1829-.0035-.0135-.0266-.049-.0417-.0641-.081-.13-.1175-.1971s-.07-.1366-.102-.2065c.07.153.0162.0329-.0123-.0553a2.9859,2.9859,0,0,1-.1081-.4571c.0061.039.0129.2042.0085.0218-.0026-.1087-.0076-.2159-.0047-.3247a.985.985,0,0,0-.9765-.9765.9959.9959,0,0,0-.9765.9765,3.9053,3.9053,0,1,0,3.2362-3.7227,3.9349,3.9349,0,0,0-3.2362,3.7227.9829.9829,0,0,0,.9765.9765A.9984.9984,0,0,0,453.9254,260.4972Z"/><path d="M443.0622,288.1267l6.6756-1.6689.9384-.2346-2.4721-1.8832q0,.1454-.01.2906c-.0358.5106.0853-.3789.01-.0539-.055.2366-.1321.4594-.2.6915.1716-.59.1055-.2425.0131-.07q-.0815.1518-.1765.2958c-.262.3966.2628-.2914.0508-.0535-.0564.0633-.1107.1282-.1692.19q-.1165.1221-.2434.2337c-.3541.3118.3318-.22.0655-.045a6.6421,6.6421,0,0,1-.5779.3393c-.2854.1493.5266-.195.08-.0359q-.158.0563-.32.0992c-.1086.0287-.2182.0491-.3281.0719-.336.07.56-.0366.1431-.0229-.2138.007-.4215.008-.6353-.004-.33-.0185.5733.1059.0948.0072q-.17-.0353-.3369-.086c-.1766-.0538-.5042-.2527.0518.0432-.1064-.0566-.2185-.1021-.3242-.1609-.1087-.06-.21-.13-.3156-.1958-.296-.1849.3841.3318.0532.0422q-.6021-.5269-1.2048-1.0535a1.9529,1.9529,0,0,0-2.7618,2.7619,8.5858,8.5858,0,0,0,3.8423,2.4235,5.951,5.951,0,0,0,5.9078-2.1762A5.7735,5.7735,0,0,0,452.11,284.34a1.9755,1.9755,0,0,0-2.4721-1.8832l-6.6756,1.6689-.9384.2346a1.9535,1.9535,0,1,0,1.0384,3.7664Z"/><path d="M503.6914,251.2734a6.7408,6.7408,0,0,0-3.7023-.1554c-2.8472.5558-5.0521,2.8365-6.5,5.2209a28.0476,28.0476,0,0,0-3.0057,7.704,1.9534,1.9534,0,1,0,3.7663,1.0384,35.4052,35.4052,0,0,1,1.1065-3.63c.0962-.26.1981-.5169.3-.7743.192-.4838-.1122.2431.018-.0453.0527-.1167.1027-.2346.1556-.3513q.2967-.6537.6384-1.2859c.2052-.377.4239-.7468.6586-1.1062q.1622-.2482.3348-.49c.0443-.0619.09-.1226.1346-.1846.2225-.3115-.3013.3605-.0012.0031a12.2861,12.2861,0,0,1,1.3566-1.3875c.3885-.3378-.2453.1652-.0255.0167.1119-.0757.22-.157.333-.231a6.9144,6.9144,0,0,1,.6861-.395,2.266,2.266,0,0,0,.2869-.135c-.4992.35-.3166.1281-.092.0462a5.9435,5.9435,0,0,1,.6288-.1907c.1745-.0425.3633-.0539.5345-.1036-.6544.19-.4295.0472-.2013.0331.0922-.0058.1841-.0136.2764-.017.2993-.0108.5887.0276.8859.0406-.0821-.0036-.6513-.1112-.3089-.0378.0616.0132.124.0227.1855.0361.0909.02.1814.0415.2707.0674a2.3067,2.3067,0,0,1,.2406.08,1.958,1.958,0,0,0,2.4023-1.364,2.0138,2.0138,0,0,0-1.364-2.4024Z"/><path class="cls-1" d="M407.1259,190.7264l79.5305,1.4728a34.4512,34.4512,0,0,1,26.3207,13.005c3.0791-4.1518,8.97-10.888,14.9008-11.087-3.07,3.4959-7.3072,13.8869-8.7557,17.575.153.0042.3162.0113.4883.0212,1.7466-1.9092,5.8645-5.0369,12.976-2.9783-2.4669.6159-4.55,2.6324-6.1348,4.7522,5.4671,2.6165,11.73,8.942,13.3382,24.0617.7275,6.838-1.3647,15.2535-4.4772,23.4354a107.5289,107.5289,0,0,1-32.7261,44.986l-.0146.0117-2.1588-27.6133c3.9432-3.0818,9.6047-14.8555,9.6047-21.61,0-10.2049-5.4783-12.6061-12.6061-12.6061-2.5955,0-5.2892,1.7906-7.6672,4.5415-5.5377,6.9059-3.3807,20.069-3.38,20.07a67.1426,67.1426,0,0,1-4.8024-24.9363V227.7445s-20.2483,11.1769-43.8211,8.0037c0,0-3.7053-1.0933-12.1681-1.7443a51.1783,51.1783,0,0,0-2.6039,5.8588s-7.8118-3.9058-7.8118-13.02c-4.5568,1.302-5.2078,3.9059-5.2078,3.9059a13.0217,13.0217,0,0,1-3.9059-13.6706"/><path d="M407.1259,192.6794l10.3453.1916,23.6975.4388,26.1505.4842,17.3123.3206c1.78.033,3.556.0485,5.3275.2582a32.5046,32.5046,0,0,1,18.0978,8.3945,35.781,35.781,0,0,1,3.5394,3.8178c.87,1.0809,2.3991.5007,3.0672-.3952a41.3349,41.3349,0,0,1,5.7882-6.381c2.0553-1.805,4.6052-3.587,7.4263-3.7387l-1.3809-3.3339a38.8816,38.8816,0,0,0-5.2913,9.1106c-1.4234,3.0633-2.73,6.183-3.9667,9.3261a1.9691,1.9691,0,0,0,1.8832,2.4721c1.3445.0481,1.8927-.6767,2.8095-1.4637a9.4161,9.4161,0,0,1,2.23-1.3874,11.7487,11.7487,0,0,1,7.9053-.1757V206.852c-3.1247.8742-5.3894,3.1379-7.3019,5.65a1.9585,1.9585,0,0,0,.7006,2.672,19.0654,19.0654,0,0,1,8.5625,8.6088,36.5984,36.5984,0,0,1,3.7593,20.2132c-.8369,8.1257-3.8925,16.1865-7.3681,23.5245a105.9386,105.9386,0,0,1-29.2287,37.081l3.3339,1.381-1.8878-24.1476-.2709-3.4657-.572,1.3809a20.8713,20.8713,0,0,0,4.5749-5.9136,49.3886,49.3886,0,0,0,3.899-8.5842c1.879-5.4327,2.7639-12.0586-.2482-17.283-2.57-4.4578-8.0437-6.056-12.933-5.76-3.5651.2155-6.7552,2.6393-8.9133,5.3476a18.9054,18.9054,0,0,0-3.5273,8.2165,38.91,38.91,0,0,0-.1653,13.5105l3.7663-1.0383a66.7468,66.7468,0,0,1-4.7325-24.541q-.0072-5.7645,0-11.5291v-4.43a1.9727,1.9727,0,0,0-2.9387-1.6863,64.6253,64.6253,0,0,1-13.6928,5.313,77.222,77.222,0,0,1-14.4674,2.7259,69.3076,69.3076,0,0,1-8.46.2228,36.48,36.48,0,0,1-5.9-.5106,90.1159,90.1159,0,0,0-12.4833-1.7583,1.9015,1.9015,0,0,0-1.6863.9672,51.3362,51.3362,0,0,0-2.8008,6.3254l2.8689-1.1672a9.9428,9.9428,0,0,1-1.0736-.6519c-.19-.1284-.3763-.262-.5606-.3983-.2351-.1741.2269.1813-.02-.0141-.0983-.0778-.1959-.1566-.2918-.2373a17.34,17.34,0,0,1-1.4042-1.3145,12.7,12.7,0,0,1-3.4943-8.7172,1.9723,1.9723,0,0,0-2.4721-1.8831c-2.5753.7787-5.8067,2.4059-6.5719,5.27l3.2641-.8617a11.1358,11.1358,0,0,1-3.4036-11.77c.7082-2.417-3.06-3.4493-3.7664-1.0383-1.5842,5.4066-.1108,11.9175,4.4081,15.5707a1.98,1.98,0,0,0,3.2642-.8618c.1125-.421-.172.251-.024.0393.0867-.124.1508-.2721.2317-.4013.2365-.3776-.09.06.1851-.241a7.3667,7.3667,0,0,1,3.451-1.9389l-2.4721-1.8832c.0692,5.9049,3.3874,11.9812,8.779,14.7059a1.9856,1.9856,0,0,0,2.8689-1.1671,43.7323,43.7323,0,0,1,2.407-5.3923l-1.6863.9673a77.37,77.37,0,0,1,11.23,1.5641c4.5223,1.0358,9.5722.8976,14.1754.5916a82.8778,82.8778,0,0,0,26.4123-6.29,53.5305,53.5305,0,0,0,5.1569-2.3919l-2.9386-1.6863c0,8.7355-.4907,17.662.7778,26.3271a68.1373,68.1373,0,0,0,4.0943,15.2116,1.9547,1.9547,0,0,0,3.7663-1.0383q-.01-.065-.02-.13c-.0729-.4967.0368.3361.0044.0432-.0609-.5513-.1268-1.1012-.1733-1.654a43.227,43.227,0,0,1-.1374-4.8977c.115-3.8846.7152-8.3818,3.2045-11.5319,1.3945-1.7645,3.6146-3.758,5.9614-3.96a14.7643,14.7643,0,0,1,5.2023.57c3.27.9476,4.999,3.5044,5.5624,6.9145.7242,4.3836-.5183,8.693-2.1426,12.7332-1.43,3.556-3.3328,7.6415-6.2205,10.2678a2.5569,2.5569,0,0,0-.9853,2.3185l.1954,2.4993.6768,8.6568,1.2436,15.9076a1.9822,1.9822,0,0,0,3.3339,1.3809,108.2728,108.2728,0,0,0,29.2193-36.5854c3.778-7.7025,7.01-16.0274,8.24-24.5545A41.6766,41.6766,0,0,0,538.2659,223.6a23.3849,23.3849,0,0,0-10.8285-11.799l.7006,2.672a9.9635,9.9635,0,0,1,4.9676-3.8547,1.9691,1.9691,0,0,0,0-3.7663c-5.29-1.4632-11.0185-.6711-14.8761,3.4805l1.381-.572q-.2441-.0143-.4883-.0213l1.8831,2.4722c1.1133-2.83,2.2914-5.6349,3.573-8.3931,1.3-2.7969,2.75-6.0711,4.6806-8.32,1.021-1.19.4326-3.4315-1.381-3.3339-7.1354.3838-12.619,6.7329-16.5871,12.0542l3.0672-.3952a37.0563,37.0563,0,0,0-28.4613-13.5911l-14.9929-.2777-25.7592-.477-24.9306-.4616c-4.2842-.0794-8.6165-.3551-12.9011-.2389-.0621.0017-.1248-.0023-.187-.0035-2.5144-.0466-2.5145,3.8593,0,3.9059Z"/><path d="M488.3171,268.7641v0a2.0072,2.0072,0,0,0-1.9529-1.9529l-.5192.07a1.9514,1.9514,0,0,0-.8618.5022l-.3054.3953a1.9443,1.9443,0,0,0-.2666.9856v0a2.0071,2.0071,0,0,0,1.953,1.953l.5191-.07a1.9514,1.9514,0,0,0,.8618-.5022l.3054-.3953a1.9446,1.9446,0,0,0,.2666-.9857v0a2.0072,2.0072,0,0,0-1.9529-1.9529l-.5192.07a1.9514,1.9514,0,0,0-.8618.5022l-.3054.3953a1.9443,1.9443,0,0,0-.2666.9856v0a2.0071,2.0071,0,0,0,1.953,1.953l.5191-.07a1.9514,1.9514,0,0,0,.8618-.5022l.3054-.3953A1.9446,1.9446,0,0,0,488.3171,268.7641Z"/><line class="cls-5" x1="371.4257" y1="514.5564" x2="387.9166" y2="534.6925"/><path d="M370.0448,515.9373l14.4195,17.6069,2.0714,2.5292a1.9667,1.9667,0,0,0,2.7619,0,1.9976,1.9976,0,0,0,0-2.7619l-14.42-17.6068-2.0714-2.5292a1.9665,1.9665,0,0,0-2.7618,0,1.9973,1.9973,0,0,0,0,2.7618Z"/><line class="cls-5" x1="252.2512" y1="595.3217" x2="285.8674" y2="610.329"/><path d="M251.2655,597.008l29.3913,13.1212,4.2249,1.8861a2.0166,2.0166,0,0,0,2.672-.7006,1.9663,1.9663,0,0,0-.7006-2.672l-29.3914-13.1212-4.2249-1.8861a2.0167,2.0167,0,0,0-2.672.7006,1.9664,1.9664,0,0,0,.7007,2.672Z"/><path class="cls-3" d="M552.6536,911.6744H476.5443a37.0027,37.0027,0,0,1-37.0027-37.0027V682.1485a37.0027,37.0027,0,0,1,37.0027-37.0027H560.2a15.6075,15.6075,0,0,0,15.6075-15.6075v0"/><path d="M552.6536,909.7215h-75.46a37.0264,37.0264,0,0,1-12.9632-2.2162,35.3022,35.3022,0,0,1-22.6726-30.66c-.1477-2.5491-.0633-5.1253-.0633-7.677V683.2078a35.0717,35.0717,0,0,1,35.8731-36.1091H551.227c5.3622,0,11.2857.6386,16.291-1.6047A17.6765,17.6765,0,0,0,577.76,629.5382c0-2.5132-3.9059-2.5174-3.9059,0a13.8017,13.8017,0,0,1-11.8327,13.55,36.1736,36.1736,0,0,1-4.7529.1046H481.3774c-1.5694,0-3.1389-.0054-4.7083,0a39.74,39.74,0,0,0-17.0476,3.8651,39.27,39.27,0,0,0-21.9809,33.1128c-.1336,2.5367-.052,5.0969-.052,7.6354V873.8756a39.9011,39.9011,0,0,0,9.2882,26.0328,39.4474,39.4474,0,0,0,30.2885,13.719h75.4883c2.5132,0,2.5174-3.9059,0-3.9059Z"/><circle cx="566.0429" cy="826.44" r="28.9076"/><path d="M592.9975,826.44a26.8335,26.8335,0,1,1-.3036-4.1359,26.8745,26.8745,0,0,1,.3036,4.1359c.015,2.5126,3.9209,2.518,3.9059,0a30.9205,30.9205,0,1,0-.4158,5.0059,33.7677,33.7677,0,0,0,.4158-5.0059C596.9184,823.9262,593.0125,823.9234,592.9975,826.44Z"/></svg>