<svg id="Layer_1" data-name="Layer 1" xmlns="http://www.w3.org/2000/svg" width="1000" height="1000" viewBox="0 0 1000 1000"><defs><style>.cls-1{fill:#a8542a;}.cls-2{fill:#fff;}.cls-3{fill:#fc7f3a;}.cls-4{fill:#ffc41f;}.cls-5{fill:#ea2f2f;}.cls-6{fill:#389b48;}.cls-7{fill:#458dc9;}</style></defs><path class="cls-1" d="M30.8185,868.5054l.5515,52.17.0329,0c1.4746,7.753,69.6847,13.29,153.557,12.4032s151.95-7.8642,153.26-15.6467l.033,0-.5515-52.17Z"/><path d="M28.8744,868.5054l.4834,45.7272.0681,6.4431A1.9717,1.9717,0,0,0,31.37,922.62l.0329,0-1.8746-1.4273c.7312,3.4611,6.1668,4.7147,8.9685,5.4791A147.7278,147.7278,0,0,0,59.79,930.3394c23.9687,2.8759,48.2,3.8057,72.3174,4.3732q47.31,1.1134,94.6428-.6674c25.5973-.9432,51.2666-2.337,76.7-5.4845a221.0042,221.0042,0,0,0,23.8729-3.9479,51.5583,51.5583,0,0,0,7.2211-2.1561,12.1694,12.1694,0,0,0,4.4994-2.6327,3.9748,3.9748,0,0,0,1.052-1.8753L338.22,919.376l.033,0a1.9717,1.9717,0,0,0,1.9441-1.9441l-.4834-45.7273-.0681-6.4431a1.9718,1.9718,0,0,0-1.9441-1.9441l-8.2313.0871-22.3973.2367-32.9916.3488-40.2307.4253-44.06.4658-44.63.4718-41.6087.44-35.0377.37-25.2064.2665c-3.9913.0422-7.99.0167-11.98.1267-.1695.0046-.3393.0035-.5089.0053-2.5.0265-2.5069,3.9148,0,3.8883l8.2313-.087,22.3973-.2368,32.9916-.3488,40.2307-.4253,44.06-.4658,44.63-.4718,41.6086-.44,35.0377-.37,25.2065-.2665c3.9711-.042,8.0156.1346,11.98-.1267.1685-.0111.34-.0035.509-.0053l-1.9441-1.9442.4834,45.7273.0681,6.4431,1.9441-1.9441-.033,0a1.9688,1.9688,0,0,0-1.8746,1.4273c-.1191.6292.1749-.3782-.0518.1587-.14.3307-.0253.0164.0741-.0835-.1012.1017-.1926.2117-.2989.309-.4632.4241.2656-.0977-.3684.2825-.3336.2-.6607.403-1.007.5817-.1861.096-.3753.1854-.5645.2751-.1.0474-.63.2791-.3874.1759.2483-.1058-.342.1374-.4387.1746q-.4362.168-.8762.3253c-1.1059.3929-2.231.7311-3.3623,1.0422a163.0876,163.0876,0,0,1-21.2453,3.9506c-23.5517,3.2088-47.3812,4.606-71.1125,5.6482q-46.4534,2.04-92.986,1.294c-25.0684-.3837-50.2014-1.22-75.165-3.6513a236.7343,236.7343,0,0,1-23.7573-3.2521,62.8009,62.8009,0,0,1-7.68-1.9513c-.4293-.1447-.8527-.3033-1.2768-.4623-.13-.0488-.2588-.1028-.3874-.1558.0449.0185.4051.1781.0964.0392-.2275-.1023-.4547-.2044-.6778-.3161-.2968-.1485-.584-.31-.8688-.48-.14-.0835-.27-.18-.405-.27-.1-.0671.3635.2775-.0487-.05-.0922-.0734-.1623-.1708-.25-.2475-.2974-.2592.152.4135.043.0607-.1932-.625.0469.3757-.0649-.1533a1.962,1.962,0,0,0-1.8747-1.4272l-.0329,0,1.9441,1.9441-.4834-45.7273-.0681-6.443C32.7362,866.0049,28.8479,865.9985,28.8744,868.5054Z"/><ellipse cx="184.2627" cy="867.1256" rx="153.4502" ry="14.2682" transform="matrix(0.9999, -0.0106, 0.0106, 0.9999, -9.156, 1.9963)"/><path d="M335.76,865.5035c.001-.0993-.044-.2.1031-.303-.0267.0186-.1519.2944-.1666.2813-.045-.04.35-.3289.0284-.057-.0995.0839-.2.1861-.2922.2793-.3725.3771.13-.0783-.0314.03-.3064.2049-.6125.4025-.9357.5807-.3435.1893-.6981.3545-1.053.5209-.1021.0479-.2063.0913-.31.1364-.271.1181.45-.1816.0093-.0056-.2551.1019-.5107.202-.7681.2977-1.0894.4053-2.2007.7509-3.3186,1.068a155.1376,155.1376,0,0,1-21.0876,3.999c-23.6514,3.2734-47.5978,4.6712-71.4353,5.7236q-46.8225,2.0671-93.7258,1.3029c-25.189-.3923-50.4473-1.2351-75.5276-3.719a225.0985,225.0985,0,0,1-23.7383-3.3278,56.9569,56.9569,0,0,1-7.4-1.9566,9.3372,9.3372,0,0,1-2.1-.8966c-.2919-.1565-.5656-.3345-.8471-.5077-.4386-.27.0429.0563-.0384-.0209-.1133-.1077-.2316-.2279-.3508-.328-.3917-.3286.3369.3677-.0984-.16-.121-.1466.1852.5357.0655.1285-.1034-.3517.0532.61.0239.1215.0118.1961.0229.2584-.1037.36a2.3659,2.3659,0,0,1,.1666-.2812c.2114.1053-.4551.2962.0256.0011a1.7607,1.7607,0,0,0,.2708-.2513c.358-.3588-.232.15-.0012-.0021.324-.2134.6448-.4223.986-.6081.3473-.1892.7052-.3547,1.0638-.5208.4995-.2312-.014-.0022.2393-.1034.2791-.1115.5589-.2206.8408-.3248,5.7553-2.1254,11.9763-3.13,18.0087-4.0986,22.25-3.5714,44.895-4.9944,67.3767-6.1658,30.8834-1.6092,61.83-2.1836,92.7523-1.9357,26.4966.2124,53.0453.9446,79.4572,3.1737,8.8357.7457,17.6853,1.6279,26.4308,3.1177,2.9963.51,5.989,1.0884,8.9276,1.8705,1.1043.2939,2.2026.6164,3.2791,1.0007.2313.0826.4611.1688.69.2565.1071.0409.6627.2722.4044.161-.2635-.1134.2584.1172.3532.1633.2115.1029.4232.2045.63.3167.3023.1641.5853.3511.8749.5352.392.2493-.275-.2732-.0072-.0058a1.4527,1.4527,0,0,0,.266.2459c.53.2791-.2307-.2465.1512.2147.0866.1046-.1879-.5446-.0655-.1285.11.3741-.0358-.5725-.0233-.1781.0785,2.4961,3.9671,2.507,3.8882,0-.1193-3.7895-5.4615-5.2049-8.3383-6.0351-6.7871-1.9586-13.9049-2.87-20.8973-3.7343-24.221-2.9923-48.7316-3.9223-73.1109-4.502q-47.9541-1.14-95.9321.695c-25.6414.962-51.3621,2.3659-76.8326,5.5839a205.6014,205.6014,0,0,0-23.6941,4.03,46.16,46.16,0,0,0-7.32,2.3535,8.828,8.828,0,0,0-4.0115,2.8561c-5.1677,7.8155,18.9714,10.434,22.107,10.8937,22.628,3.3175,45.6393,4.323,68.4715,5.0627,31.8041,1.03,63.6547.9528,95.46.0067,27.0441-.8044,54.1419-2.1316,81.0445-5.101,8.8271-.9743,17.6742-2.0878,26.383-3.853,4.6479-.9421,10.2071-1.845,14.2274-4.5575a4.6985,4.6985,0,0,0,2.4439-3.6989C339.6742,863.0008,335.786,862.9989,335.76,865.5035Z"/><path class="cls-2" d="M288.1315,439.3421l-.7423-70.2221-218.27,2.3074.7424,70.2222a150.8032,150.8032,0,0,0,37.3559,97.77l60.3668,68.9179a17.6262,17.6262,0,0,1,.2425,22.9447L108.93,701.4607a150.8037,150.8037,0,0,0-35.2807,98.5379l.5953,56.31a13.9129,13.9129,0,0,0,14.0591,13.765L278.75,868.0607a13.9128,13.9128,0,0,0,13.765-14.0591l-.5953-56.31a150.8031,150.8031,0,0,0-37.3559-97.77l-60.3668-68.9177a17.6261,17.6261,0,0,1-.2426-22.9447L252.8509,537.88A150.8035,150.8035,0,0,0,288.1315,439.3421Z"/><path d="M290.0756,439.3421l-.65-61.4932-.0923-8.7289a1.9718,1.9718,0,0,0-1.9441-1.9441l-21.81.2306-52.1011.5507-62.9845.6659-54.46.5757-18.0223.19c-2.8138.03-5.6988-.1216-8.5065.09-.1273.01-.2578.0028-.3856.0041a1.9718,1.9718,0,0,0-1.9441,1.9441l.5515,52.1642c.0651,6.1576.11,12.3159.1964,18.4733a152.943,152.943,0,0,0,11.4993,56.1318,154.8467,154.8467,0,0,0,26.5707,42.7692q5.8922,6.7411,11.7986,13.47l41.9276,47.8668c4.67,5.3315,10.5134,10.4551,10.28,18.1835-.2124,7.0327-5.8515,12.1672-10.0892,17.2166L118.822,686.6612q-5.577,6.6453-11.1541,13.2907a152.7939,152.7939,0,0,0-35.9623,100.07c.0626,7.3917.1563,14.7832.2344,22.1747l.3227,30.524c.0338,3.1982-.0359,6.3138,1.1931,9.3576a16.0781,16.0781,0,0,0,14.8916,9.9393c10.3071.1,20.6359-.2182,30.9423-.3271l64.9877-.6871,64.4333-.6811c10.0022-.1058,20.0293-.013,30.028-.3175a16.0823,16.0823,0,0,0,15.1894-11.7844c.7419-2.7966.5148-5.7594.4845-8.6242l-.3269-30.9258c-.0754-7.1314-.1265-14.2635-.2273-21.3946a152.9259,152.9259,0,0,0-11.4993-56.1318,154.98,154.98,0,0,0-26.5905-42.7917q-5.9493-6.8067-11.9131-13.6006l-41.9-47.8345c-4.6441-5.3019-10.4061-10.3731-10.1739-18.0623.2123-7.0331,5.8514-12.1671,10.0891-17.2167L242.959,552.68q5.5844-6.6541,11.1689-13.3085a152.7937,152.7937,0,0,0,35.9477-100.0291c-.0195-2.5009-3.9078-2.5067-3.8882,0a150.5061,150.5061,0,0,1-35.1536,97.69q-17.05,20.34-34.1226,40.6592l-18.81,22.4136c-4.5665,5.4413-9.6335,10.4723-10.1707,18.0293-.6031,8.4844,4.6831,14.0049,9.7675,19.81l18.93,21.6116,35.8192,40.8929a150.4674,150.4674,0,0,1,37.4276,93.0943c.6933,18.0974.44,36.2675.6318,54.3758.0227,2.14.1068,4.29.06,6.43a12.1065,12.1065,0,0,1-11.9271,11.7689c-3.19.09-6.388.0675-9.5793.1012l-52.3919.5539-68.1642.7206-51.4329.5437c-2.9107.0308-5.8281.1223-8.739.0924a12.1347,12.1347,0,0,1-12.1438-11.9137c-.0718-2.4454-.0518-4.8971-.0777-7.3433l-.3424-32.3909c-.0844-7.9857-.3818-16.0179-.0664-24.0014,1.3261-33.559,14.2483-65.3906,35.77-91.0355l36.2238-43.1628,17.6358-21.0141c1.2408-1.4785,2.4969-2.9456,3.7231-4.4362a19.9944,19.9944,0,0,0,4.1961-17.87c-1.6158-6.1729-6.9051-10.9824-10.9974-15.6544L142.3894,576.63q-16.8039-19.1842-33.6079-38.3685a150.2138,150.2138,0,0,1-36.977-96.6868c-.2239-17.7279-.3748-35.4571-.5623-53.1855l-.1793-16.9619-1.9441,1.9442,21.81-.2306L143.03,372.59l62.9844-.6658,54.46-.5758,18.0222-.19,5.5374-.0585a15.6623,15.6623,0,0,0,2.9692-.0314,2.0323,2.0323,0,0,1,.3856-.0041L285.445,369.12l.65,61.4932.0923,8.7289C286.2138,441.8426,290.1021,441.849,290.0756,439.3421Z"/><path class="cls-3" d="M291.9907,804.3985s-148.655-41.2808-177.8015-32.4022C87.1855,780.222,75.3615,790.8769,73.7676,792.4c-.1006,2.5264-.145,5.0594-.1182,7.5986l.5657,53.5046A16.7185,16.7185,0,0,0,91.11,870.0443L275.9444,868.09a16.7186,16.7186,0,0,0,16.541-16.8945Z"/><path d="M292.5075,802.5238c-3.3828-.9392-6.774-1.8491-10.1658-2.7551q-13.0789-3.4936-26.2063-6.8021-17.7959-4.49-35.6792-8.624c-12.9464-2.9795-25.9323-5.7986-38.9769-8.3163-11.908-2.2984-23.8742-4.3752-35.9192-5.8168-8.6048-1.03-17.5122-2.0062-26.1754-1.12-5.8865.6019-11.467,2.7781-16.9523,4.8963A120.1976,120.1976,0,0,0,81.0567,784.517a46.9586,46.9586,0,0,0-8.5384,6.39,3.2755,3.2755,0,0,0-.73,2.441q-.0769,2.2542-.089,4.51c-.0038.8119.0008,1.6237.009,2.4355q.0166,1.62.0343,3.2409l.3387,32.04.1515,14.3276c.0407,3.8533.0976,7.5236,1.7191,11.1516a18.8363,18.8363,0,0,0,17.2069,10.9344c.9886-.0026,1.9774-.0209,2.966-.0313l17.6678-.1868,28.9105-.3056,35.0887-.371,36.2873-.3836,32.2219-.3406,23.0051-.2432c3.05-.0322,6.1139.02,9.1619-.1058A18.8193,18.8193,0,0,0,294.11,854.7947c.5515-3.1318.29-6.4359.2564-9.6009l-.3525-33.3422-.0788-7.4531c-.0264-2.5-3.9147-2.5069-3.8882,0l.3561,33.6917c.046,4.3471.1265,8.6953.1379,13.0426a14.9385,14.9385,0,0,1-14.66,15.0141c-5.038.0914-10.0786.1066-15.117.16l-34.6368.3662-44.2228.4675-43.87.4638-33.5777.3549c-4.5618.0483-9.1341.1924-13.6963.1412a14.8263,14.8263,0,0,1-12.0269-6.43,15.533,15.533,0,0,1-2.5793-8.7041l-.15-14.1539-.3983-37.6706c-.0308-2.9151-.0058-5.8282.1061-8.7419l-.5694,1.3747c.4788-.4565.9789-.8907,1.4865-1.3147.417-.3484.8412-.6879,1.269-1.023a.9874.9874,0,0,1,.1331-.1018c.1254-.0946.25-.19.3761-.2841q.4754-.3562.9574-.7034a90.7819,90.7819,0,0,1,11.1877-6.8056,134.453,134.453,0,0,1,18.5983-7.8756,67.2068,67.2068,0,0,1,7.0118-2.1762c.5-.1118,1.0029-.2068,1.5081-.29.2384-.0392.4774-.0733.7163-.1093.34-.0513-.4229.05.0386-.0048.1475-.0176.2948-.0363.4424-.0532a90.7218,90.7218,0,0,1,17.5566.1363c8.0151.6467,15.629,1.7052,23.5206,2.9644,9.15,1.46,18.26,3.1628,27.3421,4.991q14.27,2.8725,28.46,6.1259,13.5756,3.0873,27.0951,6.4143,11.642,2.8559,23.2479,5.8562,8.4692,2.1879,16.9185,4.4517c2.7072.7262,5.402,1.5206,8.12,2.2044.1158.0292.2306.0637.3457.0957C293.8886,806.9436,294.9191,803.1934,292.5075,802.5238Z"/><path class="cls-4" d="M73.5605,791.5833s40.57-25.132,85.2869,8.173,133.6176,49.5061,133.1433,4.6422c-.3241-30.6583-99.1489-58.2928-167.8317-43.0947C103.1429,765.9543,85.3569,778.9379,73.5605,791.5833Z"/><path d="M74.5417,793.262c.5964-.3686,1.22-.6973,1.8413-1.02q1.0977-.57,2.2209-1.09.6668-.31,1.34-.6048.3671-.1607.736-.3171c-.37.1564.5048-.2066.6378-.26a75.8063,75.8063,0,0,1,18.8253-4.9367A74.4725,74.4725,0,0,1,127.5,786.63c11.518,2.8783,21.7365,8.511,31.2693,15.4708,13.766,10.0506,29.5294,17.4424,45.6377,22.8773,15.4483,5.2123,31.8654,8.8446,48.233,8.8651,11.8867.0149,26.01-1.8573,34.5963-11.0029a25.2927,25.2927,0,0,0,6.5573-15.0759,20.721,20.721,0,0,0-3.4111-13.9722c-3.2584-4.8648-7.87-8.69-12.6852-11.9384a109.71,109.71,0,0,0-19.8187-10.2389c-17.0616-7.0016-35.2827-11.2543-53.5076-13.8322a248.2253,248.2253,0,0,0-60.99-1.519c-10.3464,1.1049-20.8409,2.7562-30.63,6.3888a104.0115,104.0115,0,0,0-29.5242,17.2209,113.9157,113.9157,0,0,0-11.041,10.335c-1.7087,1.8257,1.0352,4.581,2.7494,2.7494a109.15,109.15,0,0,1,24.7739-19.8517,90.9209,90.9209,0,0,1,15.4755-7.2105,100.8875,100.8875,0,0,1,15.5365-3.9319c19.4268-3.522,39.4553-3.7246,59.0816-1.98a247.2458,247.2458,0,0,1,55.6628,11.1879,144.7206,144.7206,0,0,1,21.9684,9.1187A66.4443,66.4443,0,0,1,282.77,790.8114a28.1181,28.1181,0,0,1,4.6279,5.5157,15.0673,15.0673,0,0,1,2.4159,5.7838c.045.22.0826.441.12.6623.0705.4127-.004-.2374.0443.3682.0455.5694.0717,1.1336.07,1.7052a29.1172,29.1172,0,0,1-.2984,4.1445,21.5653,21.5653,0,0,1-2.3674,7.1083,19.0427,19.0427,0,0,1-4.4682,5.5156,19.83,19.83,0,0,1-2.8947,2.1579,31.41,31.41,0,0,1-3.5963,1.96c-5.0776,2.3644-11.4183,3.5619-17.1748,3.99-15.4986,1.1531-31.2494-1.7506-46.0807-6.0663a176.617,176.617,0,0,1-46.0473-20.5433c-3.8648-2.4808-7.4775-5.3022-11.2843-7.8641a91.9485,91.9485,0,0,0-16.2872-8.7313,78.6531,78.6531,0,0,0-29.4012-5.9688,77.02,77.02,0,0,0-35.8953,8.423c-.5646.2963-1.13.5973-1.6733.9327C70.4546,791.2176,72.405,794.5824,74.5417,793.262Z"/><path class="cls-4" d="M128.32,773.3593a70.0553,70.0553,0,0,1,10.8951-18.9833c6.6214-8.2319,16.5488-16.51,30.55-18.7615,41.4306-6.6632,49.3229,39.81,71.5881,47.6411"/><path d="M130.1943,773.8761a58.08,58.08,0,0,1,5.3272-10.8193A62.3,62.3,0,0,1,148.57,747.5354a44.6727,44.6727,0,0,1,34.26-10.3035c8.7818,1.1771,16.3951,5.7306,22.672,11.8025,6.1948,5.9926,11.1264,13.0434,16.4056,19.8034,4.533,5.8044,9.5737,11.9846,16.364,15.2264a27.1,27.1,0,0,0,2.5648,1.066c2.3609.8428,3.3772-2.9127,1.0336-3.7493a13.5834,13.5834,0,0,1-2.0632-.8839,24.763,24.763,0,0,1-2.2515-1.29,27.436,27.436,0,0,1-4.023-3.1345,73.8161,73.8161,0,0,1-7.9392-8.7943c-5.3613-6.7541-10.3743-14.0435-16.5507-20.2148-6.5-6.4943-14.4129-11.6294-23.561-13.3177a47.92,47.92,0,0,0-36.26,8.3857c-10.1589,7.3527-17.9244,18.176-22.4451,29.8227-.1143.2945-.2279.59-.3308.8886-.8159,2.3711,2.9387,3.39,3.7494,1.0336Z"/><path class="cls-1" d="M332.7266,619.8677l-3.574-3.4992a33.8521,33.8521,0,0,1-10.1675-23.831L316.58,365.0284l-12.7179.1344,2.4,227.0381a33.852,33.852,0,0,1-9.6615,24.0406l-3.9652,4.05a7.45,7.45,0,0,0,.1113,10.5354l4.05,3.9653a33.8524,33.8524,0,0,1,10.1676,23.831l2.0646,195.2952a6.4774,6.4774,0,0,0,6.12,6.4673,6.36,6.36,0,0,0,6.5992-6.4222l-2.0714-195.9457a33.8523,33.8523,0,0,1,9.6615-24.0407l3.4992-3.574A7.45,7.45,0,0,0,332.7266,619.8677Z"/><path d="M334.1013,618.493c-5.1526-5.0448-9.74-10.0809-11.8452-17.201a35.193,35.193,0,0,1-1.3362-9.6314q-.0687-5.69-.12-11.3812l-.545-51.55-.7339-69.4253-.664-62.8137-.2214-20.9425c-.0353-3.3329.1241-6.7352-.1064-10.0619-.0105-.1514-.0032-.3059-.0048-.4577a1.972,1.972,0,0,0-1.9441-1.9442l-12.7179.1345a1.9717,1.9717,0,0,0-1.9441,1.9441l.1453,13.7421.3713,35.1319.4983,47.1351.5338,50.4933.4705,44.5023.31,29.37c.0216,2.0512.0493,4.1024.065,6.1537a32.7223,32.7223,0,0,1-9.1723,23.2633c-2.6007,2.7005-5.8334,5.1754-6.4486,9.1037-.7767,4.9592,2.4954,7.9627,5.68,11.081,6.6028,6.4647,10.5168,14.4723,10.6516,23.8068.0941,6.5152.1378,13.0314.2066,19.5468l.4334,40.9972.53,50.1046.4955,46.8691.3308,31.2906c.0208,1.9731-.01,3.9548.0626,5.9269a8.8569,8.8569,0,0,0,3.9864,7.4121,8.3606,8.3606,0,0,0,12.3524-4.98,22.7535,22.7535,0,0,0,.2333-5.7811l-.1165-11.0208-.4032-38.1387-.522-49.3864-.5114-48.3747-.37-34.9853c-.0945-8.9367-.7477-17.6907,3.7176-25.9243,2.25-4.1478,5.4622-7.1769,8.6133-10.57a9.6067,9.6067,0,0,0,.039-13.4385c-1.7065-1.8374-4.4513.917-2.7494,2.7494,4.0736,4.3861-.2819,8.1407-3.293,11.2633a36.6374,36.6374,0,0,0-8.9491,15.3225,43.0164,43.0164,0,0,0-1.3529,12.4343l.2635,24.9231.4565,43.1856.5256,49.7157.4686,44.3273.2927,27.6937a21.0369,21.0369,0,0,1-.092,4.9714c-1.2844,5.2652-8.37,3.6872-8.7-1.2545-.0367-.5489-.0118-1.1093-.0176-1.6592l-.2527-23.909-.4514-42.7022-.5253-49.6846-.4742-44.8553L308.9527,662.8c-.0147-1.3916-.0168-2.784-.0442-4.1754a36.4624,36.4624,0,0,0-4.903-17.726c-2.3827-4.0705-5.6416-7.2931-8.977-10.5587-1.7479-1.7113-3.0686-3.6527-2.3864-6.2412.4907-1.862,2.0539-3.1333,3.3507-4.4579,3.6441-3.722,6.9147-7.5915,9.0531-12.4048a38.6022,38.6022,0,0,0,3.1471-16.2929l-.2162-20.4548-.41-38.7692-.511-48.3364-.52-49.1551-.4358-41.2257-.26-24.5486-.0348-3.2909-1.9441,1.9441,12.7179-.1344-1.9442-1.9441.2748,25.9875.6448,60.9982.7435,70.3319.5777,54.6464.1443,13.6473c.102,9.6507,2.9559,18.7857,9.6537,25.9717,1.4942,1.6031,3.1119,3.0983,4.6773,4.631C333.1413,622.9944,335.893,620.2473,334.1013,618.493Z"/><path class="cls-1" d="M70.6006,622.6388l-3.574-3.4993a33.852,33.852,0,0,1-10.1676-23.831L54.4539,367.7994l-12.7178.1345,2.4,227.0381a33.8526,33.8526,0,0,1-9.6615,24.0406l-3.9653,4.05a7.45,7.45,0,0,0,.1114,10.5355l4.05,3.9653a33.8522,33.8522,0,0,1,10.1676,23.831L46.9029,856.69a6.4775,6.4775,0,0,0,6.1206,6.4673,6.36,6.36,0,0,0,6.5992-6.4221L57.5512,660.7889a33.8525,33.8525,0,0,1,9.6615-24.0406l3.4992-3.574A7.45,7.45,0,0,0,70.6006,622.6388Z"/><path d="M71.9753,621.2641c-5.1527-5.0449-9.74-10.0809-11.8452-17.201a35.1858,35.1858,0,0,1-1.3362-9.6314q-.0689-5.6905-.12-11.3812l-.5449-51.55-.7339-69.4253-.6641-62.8136-.2214-20.9426c-.0352-3.3329.1242-6.7351-.1063-10.0619-.0105-.1513-.0033-.3058-.0049-.4577a1.9718,1.9718,0,0,0-1.9441-1.9441l-12.7178.1344a1.972,1.972,0,0,0-1.9442,1.9442l.1453,13.7421.3714,35.1319.4983,47.1351.5338,50.4932.47,44.5024.31,29.37c.0217,2.0513.0493,4.1025.0651,6.1538a32.7224,32.7224,0,0,1-9.1724,23.2633c-2.6007,2.7-5.8333,5.1753-6.4485,9.1036-.7767,4.9593,2.4954,7.9628,5.68,11.081,6.6028,6.4647,10.5168,14.4724,10.6516,23.8069.094,6.5151.1377,13.0314.2066,19.5468l.4334,40.9972.53,50.1046.4954,46.869.3308,31.2906c.0209,1.9732-.01,3.9548.0627,5.9269a8.8569,8.8569,0,0,0,3.9863,7.4122,8.3607,8.3607,0,0,0,12.3525-4.98,22.7579,22.7579,0,0,0,.2333-5.7811l-.1165-11.0207-.4032-38.1387-.5221-49.3864-.5114-48.3748-.37-34.9852c-.0945-8.9367-.7478-17.6907,3.7176-25.9243,2.25-4.1479,5.4622-7.1769,8.6133-10.57a9.6068,9.6068,0,0,0,.039-13.4384c-1.7066-1.8375-4.4513.9169-2.7494,2.7494,4.0735,4.3861-.2819,8.1406-3.2931,11.2632a36.6388,36.6388,0,0,0-8.9491,15.3226,43.0122,43.0122,0,0,0-1.3528,12.4342l.2634,24.9232.4566,43.1855.5255,49.7158.4686,44.3272.2928,27.6937a21.0484,21.0484,0,0,1-.092,4.9715c-1.2844,5.2651-8.37,3.6871-8.7-1.2545-.0366-.549-.0117-1.1094-.0175-1.6592l-.2528-23.909-.4514-42.7022-.5252-49.6846-.4742-44.8554-.2983-28.214c-.0147-1.3916-.0167-2.784-.0441-4.1754A36.4632,36.4632,0,0,0,41.88,643.67c-2.3827-4.0706-5.6417-7.2931-8.9771-10.5587-1.7479-1.7114-3.0685-3.6527-2.3864-6.2413.4907-1.8619,2.0539-3.1333,3.3508-4.4578,3.6441-3.722,6.9147-7.5915,9.053-12.4048a38.6026,38.6026,0,0,0,3.1472-16.2929L45.8508,573.26l-.41-38.7693-.511-48.3363-.52-49.1552-.4358-41.2256-.2595-24.5487-.0348-3.2908-1.9441,1.9441,12.7178-.1345L52.51,367.7994l.2747,25.9875.6449,60.9983.7435,70.3318.5777,54.6464.1442,13.6473c.1021,9.6507,2.9559,18.7857,9.6538,25.9717,1.4942,1.6031,3.1118,3.0984,4.6773,4.6311C71.0152,625.7654,73.767,623.0183,71.9753,621.2641Z"/><path class="cls-4" d="M189.536,745.9925,185.95,645.2014c-.7439-22.6786,2.4146-30.4817,8.0047-37.1427L252.8509,537.88a150.8007,150.8007,0,0,0,35.1784-91.2925c-3.4154,1.7622-55.9054,28.75-68.5785,29.3711-13.131.6441-97.2378-5.5582-115.4533,59.6411l.0014.0066c1.0527,1.2851,2.12,2.56,3.2182,3.8133l60.3668,68.9178c5.73,6.5413,11.1434,21.3118,10.7832,34.9275l1.1084,104.85s-8.21-.0755-8.2963,8.8291c-6.897,1.7477-7.16,7.467-7.16,7.467"/><path d="M191.48,745.9925l-.5519-15.5111L189.71,696.2322l-1.23-34.5616c-.1951-5.4826-.4018-10.9649-.5853-16.4479-.4058-12.1323-.68-26.0473,7.4631-35.8233,3.8537-4.6262,7.7416-9.2245,11.6122-13.8366l22.8855-27.2695,19.8551-23.6585c6.532-7.7833,12.863-15.66,18.1594-24.3715a152.7073,152.7073,0,0,0,20.7429-58.3266q1.0506-7.6405,1.3606-15.3491a1.9639,1.9639,0,0,0-2.9253-1.6787c-14.0346,7.24-28.2577,14.1881-42.7353,20.4983-4.3252,1.8852-8.6836,3.7032-13.1116,5.3344a63.9355,63.9355,0,0,1-10.07,3.0562c-.2824.0536-.5655.1028-.85.1455-.5241.0788.2818-.03-.0354.004-.1241.0134-.2484.03-.373.0382-.3985.0256-.7956.0462-1.1948.0576-.7893.0224-1.5793.0267-2.3689.0306-2.2757.0114-4.5513.0061-6.8269.03-15.3309.16-30.7558,1.5059-45.625,5.3961-18.19,4.759-35.8542,13.633-47.88,28.4556a71.3818,71.3818,0,0,0-8.4609,13.0753,78.6483,78.6483,0,0,0-3.3262,7.6834q-.75,2.0135-1.3876,4.0662c-.4632,1.488-1.1243,2.8154-.1784,4.201a57.2576,57.2576,0,0,0,4.4006,5.1632l4.238,4.8384,32.7293,37.3654c7.4035,8.4522,14.88,16.8465,22.2132,25.36,4.138,4.8036,6.5405,11.2184,8.16,17.2613a63.463,63.463,0,0,1,2.06,16.5428c.0039,3.6887.078,7.3788.117,11.0673l.5332,50.44.432,40.86.0236,2.2362,1.9441-1.9441a11.0265,11.0265,0,0,0-5.31,1.4579c-3.3967,1.9359-4.8331,5.5451-4.93,9.3153l1.4273-1.8747c-4.34,1.1832-8.3239,4.5834-8.5872,9.3417-.1383,2.5,3.75,2.4924,3.8882,0,.004-.0721.01-.1456.0207-.2168-.0852.5561-.0179.1106.05-.15a6.87,6.87,0,0,1,.5937-1.6157,7.7253,7.7253,0,0,1,5.0678-3.61,1.988,1.988,0,0,0,1.4273-1.8747c.0674-2.6191.9738-4.9953,3.4311-6.1844a9.4434,9.4434,0,0,1,2.2327-.6559c.4181-.0744-.3613.0283.04-.005.1062-.0088.2122-.0187.3184-.027.1094-.0086.22-.013.33-.0127a1.97,1.97,0,0,0,1.9441-1.9441l-.3176-30.0487-.5612-53.0818-.1889-17.8692c-.0718-6.7969-.2965-13.4821-1.9666-20.1372-1.6669-6.6426-4.2649-13.4572-8.5135-18.9-.7472-.9573-1.5637-1.858-2.3635-2.7712l-11.0828-12.6526-34.6008-39.5021-11.49-13.117q-.8716-.9952-1.7434-1.99-1.0257-1.1758-2.0267-2.3725l-.3988-.4791q-.7914-1.1852-.1846.5352a5.644,5.644,0,0,0,.3376-1.154q.6218-2.069,1.3548-4.1025a69.7219,69.7219,0,0,1,3.2-7.4791c8.7479-17.52,24.6025-29.5171,42.7209-36.2088,15.4215-5.6956,31.9015-7.9937,48.2648-8.6143,5.08-.1926,10.16-.1674,15.2419-.2131,5.7793-.052,11.158-1.9528,16.5185-3.9835,17.383-6.5853,34.1558-14.9421,50.7276-23.3279q2.3355-1.1818,4.6632-2.3791l-2.9254-1.6787a149.3952,149.3952,0,0,1-15.204,60.12,162.5764,162.5764,0,0,1-21.6637,32.4887l-17.6536,21.0353-23.4115,27.8963-14.84,17.6833a37.9392,37.9392,0,0,0-4.95,7.0766c-3.0318,5.9552-3.9372,12.7272-4.2941,19.3233-.4165,7.6988.0247,15.43.2986,23.1291l1.1341,31.8742,1.2765,35.8769.7766,21.8239.0383,1.0768c.0887,2.4949,3.9774,2.5067,3.8882,0Z"/><path class="cls-3" d="M288.0347,446.5236s2.53,32.2124-83.5894,40.685c-61.7818,6.0782-75.87,71.8864-100.3221,47.946-15.8657-15.5338-19.1842-50.2117,12.4029-66.6783s102.4318,5.86,124.4086-10.8939C270.4415,435.0881,290.631,422.3233,288.0347,446.5236Z"/><path d="M286.0906,446.5236a5.923,5.923,0,0,1-.0055.7513c-.0154.2987-.0644.5945-.0831.8923.0427-.68.0448-.27-.0185.0689-.038.2034-.0738.4069-.1165.6095a21.2051,21.2051,0,0,1-.9761,3.1743c-.1891.4964.0056-.0006-.0188.0525-.0694.1509-.1331.3045-.202.4557q-.2365.5183-.4979,1.0247c-.3548.6885-.7422,1.36-1.1567,2.0143q-.34.5377-.7052,1.06-.19.2728-.3868.5414c-.096.1313-.635.8334-.2488.3395q-.9573,1.2245-2.0178,2.3616c-.7952.8517-1.6306,1.6657-2.4969,2.4449q-.6213.5587-1.2635,1.0941-.3639.3036-.734.6-.1889.1513-.3791.3008-.2595.2021.0061-.0029-.1311.101-.2628.201a74.67,74.67,0,0,1-17.9587,9.69,162.6366,162.6366,0,0,1-30.5853,8.1574c-6.9824,1.2378-14.0152,2.1562-21.07,2.864a92.2334,92.2334,0,0,0-16.0183,2.9469c-17.6421,5.0079-32.3564,15.8214-45.393,28.3918-5.0159,4.8365-9.7873,9.9458-15,14.5743a40.2,40.2,0,0,1-6.208,4.7678c-.5005.3086-1.01.6025-1.5307.8762q-.3765.198-.76.3817c-.1542.0736-1.0536.4546-.545.2517a16.8894,16.8894,0,0,1-3.1349.9179c-.6625.1255.1474.0176-.359.0485-.2506.0153-.5.0413-.751.05-.505.0173-1.0018-.0167-1.5051-.0471s.2964.08-.3642-.0516c-.2535-.05-.5065-.0986-.7577-.16a14.0349,14.0349,0,0,1-1.6519-.5332c-.445-.17.389.1831-.0473-.0206-.1283-.06-.2574-.1176-.385-.1791q-.3924-.1895-.7732-.4016a17.8251,17.8251,0,0,1-1.6928-1.0738,27.1148,27.1148,0,0,1-3.2043-2.85,39.718,39.718,0,0,1-4.8417-47.35A44.1759,44.1759,0,0,1,122.95,467.8513c8.8838-3.0245,18.44-3.7019,27.76-3.8542,10.77-.1759,21.5348.4935,32.2807,1.1226,10.229.5987,20.4919,1.2692,30.7434.9768,8.084-.2306,16.61-.921,24.0412-4.3727a23.2472,23.2472,0,0,0,4.1407-2.4627c3.1078-2.3239,6.1845-4.6876,9.3132-6.9838,5.1756-3.7985,10.4229-7.5305,15.9184-10.856,3.7746-2.2841,7.78-4.6161,12.1041-5.6735.3245-.0793.651-.1508.98-.2107.1873-.0341.3756-.0673.5645-.0919-.4238.0552.1664-.01.2085-.0121.3431-.02.684-.0409,1.0281-.0328.1627.0038.3243.0174.4867.0247.5553.0252-.0508-.037.2534.034.29.0676.5706.1428.8555.2287.4584.1383-.3573-.1962.0635.0213.1255.0649.2514.1262.3734.1977s.2379.1483.3539.2277c.3905.2674-.2977-.28.0477.0471.1383.1312.7273.8337.4715.4748a7.6425,7.6425,0,0,1,1.2335,3.4452,27.4039,27.4039,0,0,1-.0809,6.4221,1.957,1.957,0,0,0,1.9441,1.9441,1.988,1.988,0,0,0,1.9441-1.9441c.3889-3.7439.6243-8.3408-1.5543-11.6415-1.8567-2.8129-5.008-3.6654-8.22-3.2458-4.2377.5538-8.2424,2.5827-11.9343,4.6334a162.1836,162.1836,0,0,0-15.6617,10.2232c-3.1035,2.2275-6.1707,4.5051-9.22,6.8054a52.4729,52.4729,0,0,1-5.9848,4.2612,33.9769,33.9769,0,0,1-10.1336,3.3621c-9.0712,1.732-18.64,1.4968-27.8852,1.1536-11.0189-.4091-22.015-1.2754-33.0323-1.7195-10.5877-.4269-21.26-.5445-31.7809.8977-9.8088,1.3447-18.9621,4.4591-26.8911,10.534a43.0713,43.0713,0,0,0-16.3784,25.4159,45.0377,45.0377,0,0,0,2.9856,26.894c2.8214,6.4672,7.6167,13.41,14.1219,16.63,4.68,2.3168,9.6312,1.8322,14.1879-.5285,5.306-2.7489,9.7354-7.1766,13.9593-11.32,5.5638-5.4575,10.989-11.0544,16.865-16.1832A106.6619,106.6619,0,0,1,175.4808,497.54a85.9432,85.9432,0,0,1,30.129-8.5043,239.3686,239.3686,0,0,0,38.74-6.77,111.4981,111.4981,0,0,0,24.6561-9.5753,53.2963,53.2963,0,0,0,13.6227-10.3124,30.678,30.678,0,0,0,6.026-9.361,18.14,18.14,0,0,0,1.32-5.7714,5.8026,5.8026,0,0,0,.004-.7223C289.7881,444.0446,285.8983,444.024,286.0906,446.5236Z"/><path d="M188.7833,774.4092c.0818-.0417.1651-.08.2482-.1192s.1694-.075.2534-.1138c.3115-.144-.4012.1428.0872-.0331a21.536,21.536,0,0,1,2.4628-.768,7.5443,7.5443,0,0,1,5.7126.5561,6.1471,6.1471,0,0,1,2.2036,2.75c.4835,1.1048.605,1.9862,1.9068,2.3561,1.0854.3085,2.1795.5259,3.2478.9032a11.7325,11.7325,0,0,1,6.4524,4.928,12.243,12.243,0,0,1,1.4137,6.2305c.0334,2.5,3.9218,2.5071,3.8882,0a16.0935,16.0935,0,0,0-2.3659-8.87c-2.6958-4.005-7.2265-6.0067-11.8128-6.9861l1.3579,1.3579c-1.4676-4.504-4.96-7.509-9.8138-7.4009a17.038,17.038,0,0,0-7.2046,1.8514c-2.23,1.136-.2648,4.4918,1.9625,3.3574Z"/><path class="cls-1" d="M25,318.1109l.5515,52.17.033,0c1.4746,7.753,69.6847,13.29,153.5569,12.4032s151.95-7.8643,153.26-15.6467l.033,0-.5516-52.17Z"/><path d="M23.0559,318.1109l.4834,45.7273.0681,6.4431a1.9717,1.9717,0,0,0,1.9441,1.9441l.033,0L23.71,370.7978c.7312,3.4611,6.1668,4.7147,8.9685,5.4791A147.7415,147.7415,0,0,0,53.971,379.945c23.9688,2.8759,48.2,3.8057,72.3174,4.3732q47.31,1.1135,94.6428-.6674c25.5973-.9432,51.2666-2.337,76.7-5.4845a221.0347,221.0347,0,0,0,23.873-3.9479,51.5623,51.5623,0,0,0,7.2211-2.1561,12.169,12.169,0,0,0,4.4993-2.6327,3.9753,3.9753,0,0,0,1.052-1.8753l-1.8746,1.4273.033,0a1.9718,1.9718,0,0,0,1.9441-1.9441l-.4834-45.7273-.0681-6.4431a1.972,1.972,0,0,0-1.9442-1.9441l-8.2313.087-22.3973.2368-32.9916.3488-40.2307.4253-44.06.4658-44.63.4718-41.6086.44-35.0377.37-25.2065.2665c-3.9913.0422-7.99.0167-11.98.1267-.1695.0046-.3394.0035-.509.0053-2.5.0265-2.5069,3.9148,0,3.8883l8.2313-.0871,22.3973-.2367,32.9916-.3488,40.2308-.4253,44.06-.4658,44.63-.4718,41.6087-.44,35.0377-.37,25.2065-.2665c3.9711-.042,8.0156.1346,11.98-.1267.1684-.0111.34-.0036.5089-.0053l-1.9441-1.9442.4834,45.7273.0681,6.4431,1.9442-1.9441-.033,0a1.9688,1.9688,0,0,0-1.8747,1.4273c-.1191.6292.175-.3782-.0517.1587-.14.3307-.0254.0164.074-.0835-.1012.1017-.1926.2117-.2988.309-.4633.4241.2656-.0977-.3685.2825-.3335.2-.6607.403-1.007.5817-.1861.096-.3753.1854-.5645.2751-.1.0474-.63.2791-.3874.1759.2484-.1058-.3419.1374-.4387.1746q-.4362.168-.8761.3253c-1.1059.3929-2.231.7311-3.3624,1.0422a163.0876,163.0876,0,0,1-21.2453,3.9506c-23.5516,3.2088-47.3812,4.606-71.1124,5.6482q-46.4535,2.04-92.986,1.294c-25.0685-.3837-50.2015-1.22-75.1651-3.6513A236.7057,236.7057,0,0,1,38.98,373.7514,62.8005,62.8005,0,0,1,31.3,371.8c-.4293-.1447-.8527-.3033-1.2767-.4623-.13-.0488-.2589-.1028-.3874-.1558.0448.0185.405.178.0963.0392-.2274-.1023-.4546-.2044-.6777-.3161-.2968-.1485-.5841-.31-.8688-.48-.14-.0835-.27-.18-.4051-.27-.1-.0671.3635.2775-.0487-.05-.0922-.0734-.1622-.1708-.25-.2476-.2974-.2591.152.4136.0429.0608-.1932-.625.0469.3757-.0649-.1533a1.9621,1.9621,0,0,0-1.8746-1.4273l-.033,0,1.9441,1.9441-.4834-45.7273-.0681-6.4431C26.9177,315.6105,23.0294,315.604,23.0559,318.1109Z"/><ellipse cx="178.4442" cy="316.7312" rx="153.4502" ry="14.2682" transform="translate(-3.3382 1.904) rotate(-0.6057)"/><path d="M329.9417,315.1091c.001-.0993-.044-.2.1032-.303-.0267.0186-.1519.2944-.1666.2813-.0451-.04.35-.3289.0283-.057-.1.0839-.2.1861-.2922.2793-.3725.3771.13-.0783-.0313.03-.3065.2049-.6125.4025-.9357.5807-.3436.1893-.6982.3545-1.0531.5209-.1021.0479-.2063.0913-.31.1364-.271.1181.4494-.1816.0092-.0057-.255.102-.5106.2021-.7681.2978-1.0894.4053-2.2006.7509-3.3186,1.068a155.1362,155.1362,0,0,1-21.0875,3.999c-23.6514,3.2734-47.5979,4.6712-71.4353,5.7236q-46.8225,2.0672-93.7259,1.3029c-25.189-.3923-50.4473-1.2351-75.5276-3.719a225.0985,225.0985,0,0,1-23.7383-3.3278,56.9569,56.9569,0,0,1-7.4-1.9566,9.3372,9.3372,0,0,1-2.1-.8966c-.2919-.1565-.5655-.3345-.8471-.5078-.4386-.27.043.0564-.0383-.0208-.1133-.1077-.2317-.2279-.3509-.328-.3916-.3286.337.3677-.0984-.16-.121-.1466.1852.5357.0655.1285-.1034-.3517.0533.61.024.1215.0117.1961.0228.2584-.1038.36a2.3891,2.3891,0,0,1,.1666-.2813c.2114.1054-.455.2963.0256.0012a1.766,1.766,0,0,0,.2709-.2513c.3579-.3589-.2321.15-.0013-.0021.324-.2134.6448-.4223.986-.6082.3473-.1891.7052-.3546,1.0638-.5207.5-.2312-.014-.0022.2394-.1034.279-.1115.5588-.2206.8407-.3248,5.7553-2.1254,11.9763-3.13,18.0088-4.0986,22.25-3.5714,44.8949-4.9944,67.3767-6.1658,30.8833-1.6092,61.8294-2.1836,92.7522-1.9357,26.4967.2124,53.0454.9445,79.4572,3.1737,8.8357.7457,17.6854,1.6279,26.4308,3.1177,2.9963.51,5.989,1.0884,8.9276,1.87,1.1043.2939,2.2027.6164,3.2792,1.0007.2313.0825.4611.1688.69.2565.1071.0409.6627.2722.4044.161-.2635-.1134.2584.1172.3532.1633.2115.1028.4232.2045.63.3167.3022.1641.5853.3511.8748.5352.3921.2493-.2749-.2732-.0071-.0058a1.4489,1.4489,0,0,0,.2659.2459c.53.2791-.2307-.2465.1513.2147.0866.1046-.1879-.5446-.0656-.1285.11.3741-.0357-.5725-.0233-.1781.0786,2.496,3.9671,2.507,3.8882,0-.1193-3.79-5.4615-5.2049-8.3382-6.0351-6.7872-1.9586-13.905-2.87-20.8974-3.7344-24.221-2.9922-48.7316-3.9222-73.1109-4.5019q-47.9539-1.14-95.932.6949c-25.6414.9621-51.3622,2.366-76.8327,5.584a205.6,205.6,0,0,0-23.694,4.03,46.1533,46.1533,0,0,0-7.32,2.3535,8.8262,8.8262,0,0,0-4.0115,2.8561C18.5252,324.1719,42.6643,326.79,45.8,327.25c22.6281,3.3175,45.6393,4.323,68.4715,5.0627,31.8041,1.03,63.6547.9528,95.46.0067,27.044-.8044,54.1418-2.1316,81.0444-5.101,8.8272-.9743,17.6742-2.0878,26.383-3.853,4.6479-.9421,10.2071-1.845,14.2275-4.5575a4.6986,4.6986,0,0,0,2.4438-3.6989C333.8558,312.6064,329.9676,312.6045,329.9417,315.1091Z"/><path class="cls-3" d="M604.1437,307.0623l-69.9,77.2156L516.738,399.4233c-28.5454,21.4327-69.1778,20.6786-95.3927-3.5491L307.164,269.9874l45.1545-49.9708L476.9447,336.2139l7.5518-7.9723,78.8382-92.1331a45.4015,45.4015,0,0,1,34.496-15.8833h36.1227"/><path d="M602.769,305.6876l-17.1254,18.9176L553.133,360.5181c-6.6675,7.3652-13.1465,14.9725-20.0357,22.1324-.663.6891-1.4211,1.2843-2.1445,1.91l-8.6653,7.4971c-2.2129,1.9146-4.3877,3.8875-6.6453,5.7494a63.1749,63.1749,0,0,1-13.1534,7.9374c-21.9391,10.3642-48.671,9.45-69.4037-3.3726a53.7849,53.7849,0,0,1-11.7091-9.3543l-6.7318-7.4219-25.631-28.2587-33.1-36.4936L325.7668,287.607l-16.4635-18.1513-.7646-.843v2.7494l15.2678-16.8962L348.1283,227.55l5.5649-6.1584h-2.7494L363.36,232.9674,393.1685,260.76l35.9283,33.4983,31.1558,29.0486c5.0272,4.6872,9.9508,9.5266,15.1008,14.0795.0739.0654.1445.1347.2166.202a1.9739,1.9739,0,0,0,2.7494,0c2.7778-2.9325,5.6757-5.78,8.3025-8.85l7.9435-9.283,31.0434-36.2784,30.9557-36.1759,7.5467-8.8193a44.8291,44.8291,0,0,1,23.5968-14.8185c7.0664-1.7077,14.5636-1.1945,21.7822-1.1945h24.4632c2.5019,0,2.5061-3.8882,0-3.8882-12.2107,0-24.4294-.1388-36.6393.0029a47.7435,47.7435,0,0,0-35.3662,16.464c-1.7654,2.0449-3.5131,4.1055-5.27,6.1582l-28.9492,33.831-32.8023,38.3339c-5.4805,6.4047-10.8811,12.82-16.6768,18.9389l-2.68,2.8292h2.7494l-12.4158-11.5761L436.0947,295.47,400.1664,261.972l-31.1558-29.0486c-5.0272-4.6872-9.9508-9.5265-15.1008-14.0795-.0739-.0653-.1445-.1347-.2166-.202a1.97,1.97,0,0,0-2.7494,0l-15.2677,16.8963-24.3219,26.9161-5.5649,6.1584a1.9934,1.9934,0,0,0,0,2.7494l11.7769,12.9842,28.12,31.0033,33.5441,36.9829,28.3982,31.3094c4.0992,4.5195,8.0566,9.2427,12.3328,13.5972a61.325,61.325,0,0,0,13.4131,9.8244,73.9019,73.9019,0,0,0,16.9654,6.9939,78.1873,78.1873,0,0,0,36.0933,1.077,79.2284,79.2284,0,0,0,17.5835-5.8289,65.9263,65.9263,0,0,0,14.2068-8.6037c5.08-4.2063,9.9863-8.64,14.9738-12.9552,5.5984-4.8436,10.2859-10.7827,15.2452-16.261l32.1761-35.5433,23.6495-26.1245,1.25-1.3808c1.6758-1.8512-1.0658-4.6093-2.7494-2.7494Z"/><path class="cls-3" d="M333.86,299.3165l-26.5453-29.7139-12.2855-51.97s-13.6088-6.48-16.201-29.81c7.2247-34.9195,33.303-32.01,47.7524-6.7233"/><path d="M335.2349,297.9418l-23.2334-26.0067-3.3119-3.7072.5.8579-5.1705-21.8718-6.7307-28.4722a5.2273,5.2273,0,0,0-.8843-2.4835,13.51,13.51,0,0,0-2.032-1.303c-.2718-.188-.5376-.3839-.8013-.5829-.2063-.1557.2909.2294.0823.0628-.09-.0718-.181-.142-.2694-.2154-.1889-.1569-.3788-.3121-.565-.4722a28.3085,28.3085,0,0,1-2.1918-2.1055,31.6042,31.6042,0,0,1-4.7453-6.6628,42.8033,42.8033,0,0,1-3.95-10.5466q-.4059-1.6953-.7026-3.4142a11.6192,11.6192,0,0,1-.3573-3.4715,37.24,37.24,0,0,1,1.8019-6.5493c2.026-5.9609,5.393-12.15,10.9781-15.2965a14.841,14.841,0,0,1,6.7669-1.8892,17.6281,17.6281,0,0,1,7.334,1.4281c5.6207,2.2836,10.4571,6.9966,14.0165,11.9513a57.48,57.48,0,0,1,3.1329,4.89c1.2472,2.1686,4.6083.2126,3.3574-1.9624-4.0778-7.09-9.73-13.9039-17.1768-17.6092-6.0437-3.007-13.0311-3.5969-19.1025-.3257-7.3577,3.9642-11.4338,12.1537-13.7114,19.8464q-.5436,1.8357-.971,3.7032a9.0719,9.0719,0,0,0-.389,2.3035,23.8543,23.8543,0,0,0,.3443,2.607,53.8311,53.8311,0,0,0,1.7837,7.9494A42.589,42.589,0,0,0,284.496,210.16c2.3944,3.4836,5.6431,7.277,9.5522,9.1515l-.8935-1.1619,3.3393,14.1257,6.0628,25.6467,2.1846,9.2413c.2935,1.2414.407,2.8709,1.2565,3.8784,4.069,4.8264,8.429,9.4352,12.6344,14.1426,4.5279,5.0683,8.9146,10.3209,13.61,15.2349.0838.0877.162.1813.2429.2718,1.6705,1.87,4.4126-.8875,2.7494-2.7494Z"/><path class="cls-3" d="M306.0461,176.1586c-2.13-9.2968-12.0651-20.3508-21.0538-33.4018s-.1829-22.543,11.8775-11.7676c19.2285,17.6989,31.2576,52.2853,31.2576,52.2853l1.7513,4.109a99.9309,99.9309,0,0,0,22.44,32.6331h0l14.4862,13.5063,16.0733,14.9864c-4.4869,8.5768-12.3281,18.9605-22.4157,29.0481-9.3235,9.3233-18.9024,16.7332-27.0719,21.3449L317.7123,281.617l-10.5483-11.63"/><path d="M307.9207,175.6417c-1.0489-4.4245-3.366-8.4956-5.8118-12.2842-3.0094-4.6618-6.3851-9.0789-9.6736-13.544-1.86-2.5259-3.71-5.0608-5.4917-7.643a21.7123,21.7123,0,0,1-3.2632-6.4527,8.6927,8.6927,0,0,1-.1262-4.939,3.5238,3.5238,0,0,1,2.0141-2.2461c3.4524-1.2891,7.6752,1.7559,10.1688,4.0552a73.7073,73.7073,0,0,1,8.83,9.9086,143.11,143.11,0,0,1,13.5992,22.527c2.7,5.4407,5.0534,10.75,7.1859,16.3323,1.5573,4.0767,3.2209,8.111,5.1533,12.0291a101.7586,101.7586,0,0,0,19.376,26.963c3.5237,3.5128,7.262,6.8239,10.9,10.2163l19.7719,18.4348.9492.885-.304-2.3559a109.93,109.93,0,0,1-15.2151,21.3276,155.0869,155.0869,0,0,1-21.8248,20.51,103.6488,103.6488,0,0,1-11.75,7.8583l2.3559.3039L314.56,275.2513l-6.0214-6.6386c-1.6848-1.8574-4.4279.8989-2.7494,2.7494Q316.49,283.16,327.1914,294.9582l4.8243,5.3188a1.9718,1.9718,0,0,0,2.3559.304,123.2465,123.2465,0,0,0,21.9233-16.3548A156.82,156.82,0,0,0,376.9735,261.42a94.3412,94.3412,0,0,0,7.5832-11.93,1.99,1.99,0,0,0-.304-2.3559q-9.1855-8.5644-18.3711-17.1287c-3.984-3.7145-7.9846-7.4121-11.9524-11.1439a95.4882,95.4882,0,0,1-18.3122-24.0483c-2.0138-3.716-3.7016-7.5715-5.3569-11.4551-.1167-.2738-.2326-.548-.35-.8215-.2-.4645.0607.0516.0895.2133a2.0494,2.0494,0,0,0-.0965-.2719c-.178-.531-.3844-1.0544-.5819-1.5784-2.0944-5.5561-4.4749-11.0136-7.0682-16.354a148.0922,148.0922,0,0,0-13.6023-23.0356,85.4474,85.4474,0,0,0-9.0847-10.6424c-3.269-3.1921-7.4633-6.4257-12.2545-6.4994a7.612,7.612,0,0,0-7.5738,5.6c-1.2445,4.38.6517,9.1948,2.976,12.8612,6.0845,9.5975,14.2,17.9462,19.3284,28.1546a26.0792,26.0792,0,0,1,2.1294,5.6912c.5769,2.4337,4.3271,1.4034,3.7493-1.0337Z"/><path class="cls-3" d="M317.0627,183.287s-16.8585-32.686-37.5862-48.6029c-12.9718-9.6589-18.8053.1195-8.69,12.3185s21.9426,25.918,24.8914,34.9883"/><path d="M318.7414,182.3058c-2.0783-4.0253-4.4108-7.9327-6.7974-11.78a187.1732,187.1732,0,0,0-17.4664-24.0629,100.8608,100.8608,0,0,0-11.2426-11.2365c-3.6091-3.03-8.2316-6.6488-13.2458-6.3918-4.0031.2052-6.4378,3.439-6.2762,7.3254.232,5.5833,3.9807,10.1552,7.3825,14.2448,4.6758,5.6214,9.4022,11.2153,13.7707,17.082,3.4184,4.5909,7.1109,9.53,8.9366,15.0212.7856,2.3629,4.542,1.35,3.7493-1.0336-1.5237-4.5826-4.2023-8.7375-6.9536-12.6671-3.5367-5.0516-7.4193-9.86-11.3355-14.62-1.9842-2.4117-3.986-4.8087-5.9823-7.21a30.2587,30.2587,0,0,1-4.6086-6.8253,10.55,10.55,0,0,1-1.0508-5.062,2.7236,2.7236,0,0,1,.5828-1.5383c-.1668.2326.3113-.3176.4319-.4117-.1279.1.48-.2319.4448-.2195a6.848,6.848,0,0,1,4.6385.5823,26.2792,26.2792,0,0,1,6.5033,4.2534,98.2062,98.2062,0,0,1,10.679,10.5124,175.926,175.926,0,0,1,16.8053,22.8131c2.7084,4.2963,5.3457,8.6716,7.6771,13.1871,1.1484,2.2242,4.5048.26,3.3574-1.9624Z"/><path class="cls-3" d="M307.3421,191.0634s-22.0561-35.9543-45.279-47.941c-14.48-7.2041-20.4633,4.2779-8.3445,14.4887s32.5309,31.7875,37.0422,40.1907"/><path d="M309.0208,190.0822c-3.1469-5.125-6.6778-10.0422-10.3088-14.831-7.2546-9.5679-15.2118-18.8376-24.5944-26.3907-4.7738-3.8429-10.2212-7.894-16.26-9.4071-4.661-1.1678-10.6255-.3855-12.249,4.8928-1.7587,5.7173,2.9256,11.398,6.9393,14.8118,4.4224,3.7614,8.63,7.773,12.7393,11.8721,4.5309,4.52,8.9423,9.1653,13.18,13.9619A107.1688,107.1688,0,0,1,287.8,196.6672c.4546.6886.8884,1.39,1.282,2.1158,1.1939,2.2,4.5523.24,3.3574-1.9624a64.6368,64.6368,0,0,0-7.4728-10.2167c-3.802-4.5588-7.8186-8.94-11.928-13.2224-4.1436-4.3177-8.3942-8.5387-12.7982-12.5912-1.9445-1.7892-3.9819-3.4711-5.9376-5.2456a15.75,15.75,0,0,1-4.8367-6.8681,7.11,7.11,0,0,1-.2966-2.4777,4.7481,4.7481,0,0,1,.3226-1.2064c-.0116.0273.3823-.6266.4281-.68,1.1048-1.2929,2.9645-1.6176,4.9019-1.4633a20.11,20.11,0,0,1,8.1542,2.9837,63.81,63.81,0,0,1,6.9493,4.6445c9.1735,6.9881,16.9623,15.8386,24.0217,24.9029,4.1172,5.2864,7.8758,10.8,11.5494,16.3963.0577.0879.1116.1787.1666.2683,1.3072,2.1288,4.6716.1779,3.3574-1.9625Z"/><path class="cls-3" d="M304.1019,205.9683l-19.98-19.8725a29.4007,29.4007,0,0,0-24.5994.5315l0,0A29.4,29.4,0,0,0,243.57,207.2923L238.8,231.139a7.6536,7.6536,0,0,0,8.4949,9.09h0a7.6535,7.6535,0,0,0,6.0385-4.56l7.9912-18.54a13.6283,13.6283,0,0,1,20.1015-5.9271h0c14.8642,11.7431-3.9612,26.7313-20.7271,24.21a6.91,6.91,0,0,0-6.6155,2.8647v0a6.9918,6.9918,0,0,0,1.2092,9.4317l5.3312,4.45A18.8445,18.8445,0,0,0,273.04,256.476l.0644-.0011A48.4883,48.4883,0,0,1,306.6608,269.52L333.86,299.3165"/><path d="M305.4766,204.5936l-17.1818-17.09c-.8966-.8918-1.7643-1.8324-2.6991-2.6846a10.3908,10.3908,0,0,0-3.8053-1.6654,31.8763,31.8763,0,0,0-6.8251-1.3284,31.5063,31.5063,0,0,0-24.1765,8.53A31.9272,31.9272,0,0,0,241.58,207.35l-2.5387,12.6935c-.7035,3.5171-1.47,7.0279-2.1114,10.5569a9.602,9.602,0,0,0,14.2274,10.3182c3.797-2.2274,5.0924-7.1389,6.7341-10.9477,1.6787-3.8945,3.3422-7.7959,5.0361-11.6837a11.89,11.89,0,0,1,14.4227-6.9148,11.2081,11.2081,0,0,1,6.9615,6.3083,7.6964,7.6964,0,0,1-.7445,7.0891c-3.3647,5.5572-10.7463,8.4138-16.9436,8.8972-3.9676.3095-8.2147-1.22-11.7568,1.205a9.0387,9.0387,0,0,0-3.4824,10.5288c.9794,2.6114,3.0544,4.1178,5.1044,5.8289a36.7472,36.7472,0,0,0,6.5493,4.8526,20.6354,20.6354,0,0,0,6.2247,2.0486,57.5343,57.5343,0,0,0,6.4982.3234,45.5459,45.5459,0,0,1,12.7608,2.42,47.34,47.34,0,0,1,11.59,5.869,31.8343,31.8343,0,0,1,5.5128,4.5216l6.7135,7.3546,18.8569,20.6576,1.2908,1.414c1.6906,1.8521,4.4342-.9036,2.7494-2.7494l-14.69-16.0927-9.4181-10.3174a52.4668,52.4668,0,0,0-7.0787-6.7128,50.4227,50.4227,0,0,0-23.7793-9.8469,48.5945,48.5945,0,0,0-6.55-.4461,20.3865,20.3865,0,0,1-5.9931-.7206,20.7718,20.7718,0,0,1-7.37-4.3918c-1.5562-1.2989-3.8106-2.66-4.8826-4.4289a5.114,5.114,0,0,1,3.5843-7.6626c1.7563-.2522,3.693.3174,5.4772.3158a30.9007,30.9007,0,0,0,5.6926-.563,29.2786,29.2786,0,0,0,10.0084-3.8662c5.1552-3.2228,9.713-8.8084,8.2269-15.2533-1.5955-6.9194-9.01-11.5992-15.89-10.9465a15.886,15.886,0,0,0-13.2184,9.8164l-5.331,12.3681-2.1518,4.9921a10.1859,10.1859,0,0,1-.818,1.6251,5.6421,5.6421,0,0,1-1.8589,1.751,5.4569,5.4569,0,0,1-1,.4693c-.2312.0791-.4634.1281-.6969.1948-.9808.28.1764.0152-.3794.0786a5.7908,5.7908,0,0,1-6.5157-5.2716,14.3352,14.3352,0,0,1,.516-3.5967l2.8277-14.1387a97.7752,97.7752,0,0,1,2.3333-10.7079,27.4377,27.4377,0,0,1,27.8327-18.9377,27.2833,27.2833,0,0,1,6.6442,1.2517c.5308.1685,1.0959.4579,1.6378.5724.0866.0183.6452.175.3713.0131.0857.0507.1431.16.2217.2205a34.4748,34.4748,0,0,1,2.9481,2.9323l5.0469,5.02,9.9938,9.94,1.7508,1.7414c1.7762,1.7667,4.5268-.9816,2.7494-2.7494Z"/><path class="cls-2" d="M597.8307,220.2252a45.4016,45.4016,0,0,0-34.496,15.8832l-78.8383,92.1332-7.5518,7.9723L382.878,248.5093c-4.4869,8.5768-12.3281,18.9605-22.4157,29.0481-9.3235,9.3233-26.5506,26.9128-47.2878,24.9686L407.14,397.14c26.2149,24.2277,77.1166,40.8264,115.43,8.7641l17.5052-15.1454,80.9172-79.8078,12.9607-90.7253Z"/><path d="M597.8307,218.2811a47.9273,47.9273,0,0,0-31.43,11.9428,68.71,68.71,0,0,0-6.5881,7.02l-18.9735,22.1731-27.69,32.3592-23.3131,27.2445c-4.0418,4.7234-8.0954,9.3046-12.3722,13.82l-1.8937,1.9991h2.7494l-9.3519-8.7195-22.46-20.9408L419.333,279.8423l-23.4958-21.9067c-3.8015-3.5444-7.5164-7.2217-11.4232-10.6506-.0552-.0484-.1076-.1-.1613-.15a1.9653,1.9653,0,0,0-3.0534.3935c-6.0645,11.5019-14.79,21.3743-23.9514,30.4928-7.4564,7.4217-15.4435,14.5933-25.0922,19.036a37.578,37.578,0,0,1-18.9812,3.525c-1.7349-.15-2.4894,2.1965-1.3747,3.3188L333.4,325.65l42.21,42.5012,28.8784,29.0776a90.9377,90.9377,0,0,0,18.82,14.1694,104.2419,104.2419,0,0,0,40.1172,13.5963,80.2614,80.2614,0,0,0,43.6064-6.7929c9.9957-4.7171,18.0109-11.8725,26.2677-19.0162,3.2966-2.8522,6.6853-5.6066,9.79-8.6685l12.4-12.23,41.8088-41.2356,17.567-17.3262,5.3342-5.261a29.0781,29.0781,0,0,0,2.16-2.1308c.755-.9229.71-2.2814.8722-3.4172l1.168-8.176,3.753-26.2713,7.2426-50.698.4326-3.0283a1.9779,1.9779,0,0,0-1.8747-2.4609H597.8307c-2.5019,0-2.506,3.8882,0,3.8882h36.1227l-1.8746-2.461L626.57,258.2736l-7.07,49.4928c-.099.6929-.2438,1.3963-.2992,2.0941-.0849,1.069-.2693-.018.3968-.2636-.74.2728-1.6808,1.6577-2.228,2.1974L604.1315,324.85l-41.63,41.0591L545.52,382.6578c-2.27,2.2388-4.48,4.5674-6.8237,6.73-5.4845,5.06-11.3131,9.788-16.9565,14.6706a72.9431,72.9431,0,0,1-37.6468,16.9561c-14.1957,1.9421-28.74-.2467-42.1392-5.126-12.0982-4.4055-24.1153-11.1484-33.44-20.1239-7.2891-7.0162-14.2771-14.3756-21.4059-21.5535l-41.7644-42.0525-29.2756-29.4774-1.5189-1.5295-1.3747,3.3189c12.2546,1.06,23.7529-4.3819,33.2874-11.6425a158.2224,158.2224,0,0,0,25.5352-25.0372,108.4,108.4,0,0,0,12.56-18.3l-3.0534.3935,9.352,8.72,22.46,20.9408L440.49,304.8809l23.4958,21.9067c3.8015,3.5443,7.5164,7.2217,11.4233,10.6506.0551.0484.1076.1.1612.15a1.9738,1.9738,0,0,0,2.7494,0c4.1814-4.4142,8.2665-8.8076,12.2146-13.4214l21.5584-25.1939,27.6722-32.3387,20.9421-24.4737c1.3123-1.5336,2.619-3.0724,3.9372-4.6011a43.4163,43.4163,0,0,1,33.1869-15.3905C600.3319,222.1553,600.3372,218.267,597.8307,218.2811Z"/><path d="M313.4934,302.5311c3.2233,3.2234,10.6588,1.5864,19.897-3.6288L317.7123,281.617C312.04,291.3229,310.1531,299.1908,313.4934,302.5311Z"/><path d="M312.1187,303.9058c2.47,2.3813,5.9945,2.4686,9.1885,1.9222,4.616-.79,9.0177-2.9771,13.0644-5.247a1.9687,1.9687,0,0,0,.3935-3.0534l-13.7317-15.1393-1.9464-2.146a1.9612,1.9612,0,0,0-3.0534.3935c-2.4621,4.2383-4.8342,8.848-5.7652,13.705-.63,3.2895-.6216,7.0024,1.85,9.565,1.74,1.8043,4.488-.947,2.7494-2.7494a2.9882,2.9882,0,0,1-.671-.9809c.0851.1926-.1027-.2938-.1-.2851-.0378-.1211-.0751-.2422-.1077-.3648-.0419-.158-.0759-.317-.1086-.477-.0191-.0935-.0686-.45-.037-.1874a12.284,12.284,0,0,1,.3436-4.2863,44.0878,44.0878,0,0,1,5.2036-11.9767l-3.0534.3935,13.7317,15.1394,1.9464,2.1459.3935-3.0533a41.0681,41.0681,0,0,1-11.337,4.7011,12.8339,12.8339,0,0,1-3.79.2734,11.203,11.203,0,0,1-1.4052-.3585c.1855.08-.2716-.1431-.2637-.1385-.1042-.06-.2066-.1211-.3093-.1832-.1232-.0746-.2-.1292-.04-.0069a4.685,4.685,0,0,1-.3958-.3547C313.0662,299.419,310.3132,302.165,312.1187,303.9058Z"/><path class="cls-5" d="M743.2664,748.1947l81.7847,54.2364L750.973,914.9222S717.84,895.8469,741.98,851.7275a18.0408,18.0408,0,0,0-5.9982-23.8543c-10.0275-6.4611-19.7589-12.6676-19.7589-12.6676"/><path d="M742.2852,749.8734l8.1357,5.3953,19.5373,12.9564,23.6344,15.6733,20.4266,13.5462,6.6832,4.432a37.4781,37.4781,0,0,0,3.221,2.1361,1.6883,1.6883,0,0,1,.1465.0971l-.6975-2.66-7.373,11.1964L798.295,839.5311l-21.4136,32.5176-18.5007,28.0942-6.0886,9.2458c-.9439,1.4333-2.0532,2.8481-2.8707,4.3592-.0362.0669-.0851.1294-.1271.1931l2.66-.6975a19.9063,19.9063,0,0,1-1.77-1.189c-.1325-.0969-.2631-.1963-.3953-.2936-.4945-.3641.2311.1937-.1541-.1177-.3479-.2813-.6981-.5591-1.04-.848q-1.23-1.0395-2.3725-2.1767a37.209,37.209,0,0,1-9.1327-14.5066c-2.7987-8.3268-2.38-17.2385-.0254-25.6319a67.3651,67.3651,0,0,1,2.8357-8.0693c1.3048-3.08,3.019-5.943,4.3953-8.98a20.1865,20.1865,0,0,0,.3457-16.04,19.6968,19.6968,0,0,0-5.2949-7.4085c-3.037-2.6084-6.7234-4.5823-10.0859-6.74q-6.0231-3.8647-12.0557-7.715c-2.1159-1.35-4.0683,2.0142-1.9624,3.3573q5.0029,3.191,9.9976,6.3951,4.6748,2.9968,9.3436,6.0034a16.6768,16.6768,0,0,1,5.6092,5.7958,16.2078,16.2078,0,0,1,.5966,14.712c-1.3767,2.9094-2.976,5.6919-4.2464,8.6577a73.3821,73.3821,0,0,0-3.1311,8.6578c-2.5055,8.7372-3.08,18.1629-.4232,26.9371a41.4918,41.4918,0,0,0,9.5275,16.3409,34.0172,34.0172,0,0,0,7.4759,6.2168,1.9865,1.9865,0,0,0,2.66-.6975l7.373-11.1963,17.7044-26.8849,21.4136-32.5176L817.6434,817.21c2.9744-4.5167,6.2-8.9516,8.9593-13.605.0391-.0661.0848-.1289.1271-.1931a1.9782,1.9782,0,0,0-.6975-2.66l-8.1357-5.3953-19.5373-12.9564-23.6344-15.6733-20.4266-13.5462c-3.2814-2.1761-6.5009-4.5841-9.9043-6.5681-.05-.0293-.0978-.0649-.1464-.0971-2.0913-1.3869-4.0407,1.9792-1.9624,3.3574Z"/><path class="cls-2" d="M825.0512,802.431,750.973,914.9223a37.8394,37.8394,0,0,1-10.5347-10.1143l51.2793-77.87a14.0677,14.0677,0,0,0,.18-15.1939h0a14.0677,14.0677,0,0,1,.18-15.1939l7.3273-11.1268Z"/><path d="M823.3725,801.45l-7.3731,11.1964-17.7044,26.885-21.4136,32.5176-18.5007,28.0942-6.0887,9.2459c-.9438,1.4333-2.0531,2.8481-2.8706,4.3592-.0362.0669-.0852.1293-.1271.193l2.66-.6974a33.7144,33.7144,0,0,1-9.8373-9.4169v1.9625l8.1157-12.324,17.73-26.924,17.6263-26.7663,5.7517-8.7344c.9041-1.3728,1.9022-2.7285,2.6864-4.1766a16.1169,16.1169,0,0,0,.6595-13.9253c-.9029-2.1154-2.236-3.8908-2.7334-6.1821a12.1634,12.1634,0,0,1,.4056-6.4147,26.6149,26.6149,0,0,1,3.3994-5.8514l4.4259-6.7209.8989-1.3651-2.66.6975,22.4262,14.872L824.07,804.11c2.0914,1.3868,4.0408-1.9792,1.9625-3.3574L803.6062,785.88l-3.2206-2.1358a1.9772,1.9772,0,0,0-2.66.6974l-7.0412,10.6924a16.0694,16.0694,0,0,0-.6788,17.2387,13.3892,13.3892,0,0,1,2.0727,6.2019,12.5937,12.5937,0,0,1-2.1478,7.5463c-.346.53-.6966,1.0579-1.045,1.5868l-4.9478,7.5136L767.005,860.9347l-18.3027,27.7935c-3.2546,4.9423-6.7521,9.7982-9.7955,14.875-.0457.0763-.0983.1492-.1472.2235a1.8942,1.8942,0,0,0,0,1.9625c2.9992,4.14,6.7592,8.2136,11.2321,10.8117a1.9861,1.9861,0,0,0,2.66-.6974l7.373-11.1963,17.7044-26.885,21.4136-32.5177L817.6435,817.21c2.9743-4.5167,6.2-8.9516,8.9592-13.6051.0392-.066.0849-.1288.1272-.193C828.11,801.3163,824.7444,799.3664,823.3725,801.45Z"/><path class="cls-5" d="M714.0911,814.3285l-.3246,100.5938H575.6984s-2.3491-39.12,49.032-43.3261a18.493,18.493,0,0,0,17.04-18.5834c-.1218-12.2272-.2947-24.0574-.2947-24.0574"/><path d="M712.147,814.3285l-.0324,10.018L712.037,848.4l-.0934,28.9665-.0812,25.157-.0268,8.2925a37.192,37.192,0,0,0-.0127,3.9351,1.6336,1.6336,0,0,1,0,.1714l1.9441-1.9442H581.3473c-1.7747,0-3.6427-.1678-5.4117,0-.0775.0074-.159,0-.2372,0l1.9441,1.9442a19.6735,19.6735,0,0,1,.0115-2.0012c.0338-.7814.0958-1.5617.1805-2.3392.0225-.2066.0495-.4127.0725-.6192.0463-.416-.0132.0838-.0056.0308.0186-.13.0359-.26.0555-.39.0807-.5345.1682-1.0676.268-1.5989a41.7285,41.7285,0,0,1,2.1119-7.4072q.1945-.501.4023-.9967c-.1316.3121.0169-.0369.07-.1551.093-.2081.1849-.4166.28-.6237q.4772-1.0391,1.0131-2.05a39.3171,39.3171,0,0,1,2.5966-4.2281,34.6141,34.6141,0,0,1,3.3131-4.0161,39.8659,39.8659,0,0,1,4.3621-3.97,46.6188,46.6188,0,0,1,11.5817-6.4878,70.0938,70.0938,0,0,1,16.9083-4.1359c3.2807-.4018,6.58-.4685,9.6957-1.6931A20.4253,20.4253,0,0,0,642.697,859.56c1.119-3.346,1.0171-6.7609.98-10.2409q-.1043-9.6655-.2415-19.3307-.0072-.5168-.0148-1.0333c-.0364-2.5-3.9248-2.5071-3.8882,0q.1021,7.0023.1838,14.0049.0381,3.18.0725,6.3591a49.4134,49.4134,0,0,1-.0571,5.7719A16.5268,16.5268,0,0,1,636.68,862.89a16.759,16.759,0,0,1-6.3945,5.265c-2.8173,1.35-5.81,1.47-8.8546,1.8236a75.7448,75.7448,0,0,0-17.5455,3.9769c-8.2361,3.0426-15.8139,7.8983-21.2424,14.8807a42.3641,42.3641,0,0,0-7.8786,16.7316,33.6361,33.6361,0,0,0-1.0156,9.2259c.0027.0429.0033.086.0058.129a1.9815,1.9815,0,0,0,1.9441,1.9441h121.026c5.5894,0,11.2179.1938,16.8049,0,.0788-.0028.1582,0,.2372,0a1.973,1.973,0,0,0,1.9441-1.9441l.0323-10.018.0776-24.0534.0935-28.9664.0812-25.157c.0131-4.0629.1964-8.1667.04-12.2277-.0022-.0568,0-.1143,0-.1713.0081-2.5022-3.88-2.5056-3.8882,0Z"/><path d="M589.9231,413.3589l-17.3647.4282s-6.02,19.2073,10.32,27.5209C598.7532,449.3844,589.9231,413.3589,589.9231,413.3589Z"/><path d="M589.9231,411.4148l-17.3647.4281a2,2,0,0,0-1.8746,1.4273,29.331,29.331,0,0,0-.99,11.6229,22.4811,22.4811,0,0,0,12.3039,18.1435c2.1721,1.0792,4.77,1.9139,7.1543,1.0089a7.4355,7.4355,0,0,0,4.17-4.8241c1.6563-4.7141,1.0721-10.31.469-15.1632a98.2646,98.2646,0,0,0-1.9926-11.2161c-.5941-2.43-4.3446-1.4006-3.7493,1.0336.6377,2.6075,1.1229,5.2606,1.5332,7.9121.2086,1.348.2873,1.9194.4388,3.2706.1407,1.2554.2528,2.5144.3241,3.7757.0681,1.2061.1,2.415.0748,3.623-.0121.5759-.0369,1.1517-.0793,1.7262q-.0273.37-.0644.7392c-.0153.1507-.0323.3011-.05.4516-.0146.1232.0367-.2062-.0267.1879a16.09,16.09,0,0,1-.73,2.9081c-.1094.3046.1515-.2663-.09.2029-.0954.185-.1867.37-.2933.55-.102.1716-.2118.3368-.3277.4992.2824-.3956-.0612.0515-.19.1866-.0687.0721-.5179.4332-.2676.25s-.2531.1361-.3145.1762c-.3917.2556.1679-.022-.0987.049-.2058.0548-.4075.1125-.6159.1588.5622-.125-.1315,0-.2945.001-.1962.0011-.3909-.0134-.5862-.0294.498.0409-.2156-.0455-.3508-.0762-.2881-.0656-.5717-.1484-.8519-.2417a18.4351,18.4351,0,0,1-7.91-5.834,18.9743,18.9743,0,0,1-3.5493-8.4559,25.309,25.309,0,0,1-.3071-4.3641q.0108-1.014.0892-2.0259.0391-.5112.0951-1.0208c.016-.1466.0336-.293.051-.44.0458-.3849-.0244.1605.0085-.07a23.7166,23.7166,0,0,1,.7686-3.683l-1.8747,1.4273,17.3647-.4282C592.4208,415.2414,592.43,411.3529,589.9231,411.4148Z"/><path class="cls-6" d="M599.6182,392.573s-73.3837,140.4713-62.5566,205.8335S686.52,826.98,686.52,826.98l81.5779-78.9939L661.2692,641.838,743.98,457.9352l-3.7339-76.692"/><path d="M597.94,391.5918c-3.3946,6.5-6.5942,13.1073-9.7543,19.7237q-11.464,24.0021-21.5633,48.6277a608.7879,608.7879,0,0,0-21.8533,61.6923c-5.5358,19.2028-10.1807,39.1435-10.7,59.2049a88.4966,88.4966,0,0,0,2.06,22.7211A125.6608,125.6608,0,0,0,542.9,623.3591c6.9791,16.5157,15.9284,32.1853,25.3081,47.4368,10.9022,17.7273,22.6275,34.9444,34.7194,51.878q17.6072,24.657,36.219,48.5753,14.6728,18.96,29.816,37.5513,7.6712,9.4192,15.4813,18.7252.35.4147.7008.8289a1.9669,1.9669,0,0,0,2.7494,0L715.48,801.643l43.9416-42.55,10.0509-9.7325a1.9709,1.9709,0,0,0,0-2.7494L733.319,710.6885l-57.5556-57.1892-13.12-13.036.304,2.356,14.9294-33.1949,31.44-69.9044,28.6318-63.6615,7-15.5634a8.2725,8.2725,0,0,0,.9674-2.7249,73.2322,73.2322,0,0,0-.3971-8.155L742.27,382.88l-.08-1.6365c-.1213-2.4908-4.01-2.5054-3.8882,0L741.26,442l.6372,13.0867a8.7139,8.7139,0,0,0,.1306,2.6835c.1465.2984.6-1.3142.1206-.4762-2.1685,3.7906-3.67,8.1605-5.459,12.1377l-26.9418,59.9038-32.0914,71.3538c-5.9366,13.2-11.9314,26.3753-17.81,39.6008-.0841.1893-.17.3778-.2549.5667a2.0243,2.0243,0,0,0,.304,2.3559l36.1531,35.9229,57.5556,57.1892,13.12,13.0359v-2.7494l-27.5854,26.7116-43.9416,42.55-10.0509,9.7325h2.7494c-3.5806-4.2162-7.103-8.4827-10.6169-12.7544q-13.5316-16.45-26.6876-33.2038-17.88-22.7517-35.0093-46.081c-12.297-16.8025-24.2617-33.861-35.5669-51.3488-10.2338-15.8306-20.0483-32.025-28.3394-48.97-6.1579-12.5854-12.0206-26.0365-13.3491-40.1323-1.756-18.63,1.8232-37.6638,6.2451-55.6889,5.1794-21.1122,12.2364-41.7522,20.0611-62.0177,6.8774-17.8121,14.4253-35.3636,22.4631-52.6817,4.3486-9.37,8.8193-18.69,13.5357-27.88q.332-.6468.6669-1.2918c1.1571-2.2157-2.1974-4.1838-3.3573-1.9625Z"/><path d="M630.3415,391.5918c-2.8983,5.55-5.6441,11.1827-8.3622,16.8221q-10.0776,20.9088-19.116,42.299c-7.6964,18.224-14.8355,36.701-20.9572,55.5169-5.999,18.439-11.1945,37.3069-13.854,56.5455-2.1039,15.22-2.5369,30.5969,1.6632,45.5018,4.389,15.575,11.71,30.3414,19.4543,44.4843,9.3293,17.0372,19.7925,33.4466,30.7018,49.5089,10.8176,15.9272,22.1315,31.5156,33.7533,46.8644q14.0151,18.51,28.6175,36.5656,7.46,9.2279,15.0944,18.3155.3465.41.694.8186c1.6259,1.907,4.365-.8545,2.7494-2.7494-3.5066-4.1132-6.9421-8.2883-10.3664-12.47q-13.056-15.943-25.6473-32.26-16.9488-21.9606-32.9565-44.629c-11.2434-16.0065-22.08-32.3244-32.0215-49.1757-8.717-14.7756-17-30.0379-22.9833-46.1523a106.607,106.607,0,0,1-5.4422-19.3618,97.8359,97.8359,0,0,1-.7574-22.5369c1.2187-18.575,5.6433-36.915,10.8662-54.727,5.5873-19.0551,12.3953-37.7456,19.8227-56.1549q9.44-23.3984,20.2266-46.2249c3.7531-7.9818,7.5941-15.9276,11.6272-23.7723q.2742-.5335.5507-1.0657c1.1571-2.2157-2.1973-4.1838-3.3573-1.9625Z"/><path d="M628.1905,473.7394c-6.0325,16.457-11.7973,33.0237-16.8045,49.8246-4.8232,16.1834-9.1035,32.661-11.2106,49.4433a103.029,103.029,0,0,0-.8292,20.5228,75.7628,75.7628,0,0,0,2.7659,14.7646,172.7444,172.7444,0,0,0,12.1842,30.2182,375.01,375.01,0,0,0,18.8609,32.9751c7.1741,11.3256,14.7734,22.38,22.6265,33.2439q11.3592,15.7146,23.3779,30.9384,10.4145,13.2505,21.218,26.1893,7.889,9.4579,15.9754,18.7491c2.6064,2.9911,5.1669,6.0567,7.8979,8.9365.1187.1251.2313.2565.3473.3843,1.6854,1.8568,4.4286-.8994,2.7494-2.7494-1.8037-1.9872-3.5792-4-5.3516-6.0153q-7.1417-8.1191-14.1118-16.3869-10.1386-12.0033-19.9588-24.2709Q676.26,725.9257,665.118,710.9346c-7.9047-10.6681-15.5813-21.5094-22.8973-32.5905-7.083-10.7282-13.8466-21.6832-19.9754-32.9871a212.3173,212.3173,0,0,1-14.04-30.7063,106.8053,106.8053,0,0,1-3.9387-13.9239,69.468,69.468,0,0,1-1.1387-17.0008c.69-15.8929,4.4039-31.6537,8.5415-46.9546,4.62-17.0831,10.2037-33.8973,16.1363-50.5645q2.0386-5.7273,4.1345-11.4339c.8625-2.353-2.8938-3.3676-3.7494-1.0336Z"/><path d="M716.47,392.573s29.8143,5.7335,33.2544,22.9341S709.59,436.7212,709.59,436.7212"/><path d="M715.953,394.4477a68.9993,68.9993,0,0,1,13.1827,4.0839c6.7633,2.8016,14.2362,7.0409,17.56,13.9478a14.0764,14.0764,0,0,1,.8595,2.3181c.1307.4651.2358.9351.33,1.4089.0235.1192.0431.2419.0591.362-.0576-.4313.014.295.0179.371a9.0371,9.0371,0,0,1-.0055,1.0331q-.0134.2106-.0371.42c-.0366.3287.0919-.462-.0145.0617-.066.3249-.1358.6465-.2312.9645-.0445.1485-.37.99-.2062.6185a13.177,13.177,0,0,1-5.4215,5.6764c-5.7628,3.659-12.6028,5.4939-19.3137,6.9444q-4.7166,1.0194-9.5016,1.6825c-.1392.0195-.2784.0384-.4176.0578-.37.0515.4284-.0544-.1378.0184-.2379.0306-.4756.0619-.7136.0918q-.6259.0786-1.2527.15c-.3726.0422-.7455.0839-1.1189.1184a1.9969,1.9969,0,0,0-1.9441,1.9442,1.9584,1.9584,0,0,0,1.9441,1.9441,118.9736,118.9736,0,0,0,12.2969-1.8674c7.1433-1.4268,14.5008-3.3511,20.8751-6.9786a20.4413,20.4413,0,0,0,7.3491-6.4928,11.547,11.547,0,0,0,1.26-9.3205c-2.2133-8.3584-9.9192-13.9349-17.3227-17.5052a70.6411,70.6411,0,0,0-17.061-5.8024c-2.4448-.4724-3.4918,3.2744-1.0337,3.7493Z"/><path class="cls-6" d="M641.0819,384.8269l.04,442.3472,94.4364-.5734s20.3078-304.1652,16.7932-349.8543-13.9206-106.5631-13.9206-106.5631"/><path d="M639.1378,384.8269l.001,11.8645.003,32.2834.0043,47.5482.0053,57.9809.0058,63.7295.0058,64.1022.0055,59.78.0046,50.7012.0033,36.4357c.0005,5.7242-.11,11.461.0016,17.1844.0048.2456,0,.4918,0,.7375a1.9712,1.9712,0,0,0,1.9442,1.9441l31.9311-.1939,50.8669-.3088,11.6384-.0706a1.9876,1.9876,0,0,0,1.9441-1.9442q.3926-5.8788.7743-11.7585,1.0265-15.71,2.0232-31.4212,1.4489-22.81,2.8436-45.6236,1.6612-27.1806,3.236-54.3664,1.6656-28.8209,3.2-57.649,1.4724-27.8427,2.7459-55.6953c.7146-15.9257,1.3665-31.8552,1.8386-47.79.3423-11.55.6432-23.1133.5163-34.67-.19-17.2707-2.4955-34.52-4.637-51.6314q-3.9415-31.4964-9.1511-62.8239-.29-1.7532-.5867-3.5053c-.42-2.4614-4.1681-1.4178-3.7493,1.0337,2.6364,15.4332,4.95,30.9279,7.1046,46.4347,1.9167,13.7943,3.6613,27.6153,5.0933,41.4687.8067,7.8048,1.6721,15.6365,1.9247,23.4842.3311,10.2865.0944,20.5977-.1518,30.8832-.3613,15.0909-.9351,30.1767-1.5727,45.2582q-1.14,26.9721-2.553,53.9319-1.48,28.8174-3.1283,57.6257-1.5806,27.8252-3.2662,55.6442-1.4565,24.1032-2.9761,48.2025-1.1123,17.6517-2.2575,35.3012c-.3632,5.5925-1.15,11.3311-1.1107,16.9392.0017.2407-.0323.4864-.0484.7269l1.9441-1.9441-31.9311.1939-50.8669.3088-11.6384.0707,1.9441,1.9441-.0011-11.8645-.0029-32.2834-.0044-47.5482-.0053-57.9809-.0058-63.73-.0058-64.1022-.0054-59.78-.0047-50.7012-.0033-36.4357c0-5.7242.11-11.4611-.0016-17.1844-.0047-.2457,0-.4918,0-.7375,0-2.5019-3.8885-2.506-3.8882,0Z"/><path class="cls-6" d="M719.4945,825.493s10.3686-298.0977,4.7291-365.4671c-1.8874-22.5463-6.8731-52.6144-6.8731-52.6144"/><path d="M721.4386,825.493q.1694-4.8687.3287-9.7377.4407-13.2792.8537-26.5592.6119-19.6038,1.1747-39.2091.6927-24.1162,1.3082-48.2345.6759-26.5661,1.2386-53.1348.5667-27.0261.9705-54.0553.3678-25.3926.503-50.788c.0631-14.6655.0506-29.3325-.1578-43.9969-.1563-11.0008-.383-22.0108-1.0206-32.9958-1.0628-18.3117-3.7425-36.5529-6.5767-54.6623-.2727-1.7425-.5476-3.4847-.8358-5.2247-.4079-2.4628-4.1554-1.4181-3.7493,1.0337,2.921,17.6356,5.5037,35.4257,6.897,53.2514.7775,9.9472,1.0391,19.9381,1.2464,29.9107.2884,13.8721.3524,27.7488.3385,41.6235q-.0249,24.8674-.3689,49.7333-.3358,26.7364-.8763,53.47-.526,26.7413-1.1882,53.48-.61,24.8822-1.31,49.7621-.5838,20.8365-1.2231,41.6715-.4582,14.94-.9462,29.88c-.1546,4.72-.448,9.4578-.4742,14.1811-.0011.2-.0138.4014-.0208.6018-.087,2.5026,3.8013,2.4992,3.8882,0Z"/><path d="M663.7632,408.8043V810.4436c0,5.4236-.1031,10.8587,0,16.2817.0045.237,0,.4746,0,.7118,0,2.5019,3.8882,2.506,3.8882,0V425.7978c0-5.4236.1032-10.8587,0-16.2817-.0045-.237,0-.4746,0-.7118,0-2.5019-3.8882-2.506-3.8882,0Z"/><path d="M694.869,408.8043V810.4436c0,5.4236-.1031,10.8587,0,16.2817.0046.237,0,.4746,0,.7118,0,2.5019,3.8883,2.506,3.8883,0V425.7978c0-5.4236.1031-10.8587,0-16.2817-.0045-.237,0-.4746,0-.7118,0-2.5019-3.8883-2.506-3.8883,0Z"/><path class="cls-2" d="M603.8061,220.2008h88.9755c11.4168,0,17.3814,4.721,22.2818,21.4762,0,0,29.5007,116.7323,34.6609,172.3521-17.2006-18.54-177.1659-.242-177.1659-.242l26.401-150.1434"/><path d="M603.8061,222.1449h75.3532c4.725,0,9.4547-.0628,14.1794.0039,5.3728.0758,10.0893,1.5541,13.4866,5.8628,3.2173,4.08,5.1178,9.4539,6.4236,14.4208,1.2007,4.567,2.2775,9.1705,3.3929,13.7586q3.649,15.01,7.1249,30.0608,4.5625,19.748,8.8,39.5694c2.9919,14.0567,5.8414,28.1456,8.4186,42.2846,2.3027,12.6331,4.4369,25.3144,5.9563,38.0683q.4673,3.9222.8386,7.855l3.3188-1.3747c-2.4458-2.6085-6.1642-3.9185-9.5128-4.876a91.3383,91.3383,0,0,0-15.6681-2.7152c-14.3294-1.4906-28.8287-1.4468-43.2152-1.1377-16.3361.3509-32.66,1.2435-48.9576,2.3918q-20.6342,1.454-41.2248,3.46-6.6859.6459-13.3662,1.3485a63.2591,63.2591,0,0,0-6.3285.6869c-.0864.0183-.1794.02-.2674.03l1.8747,2.461,2.6358-14.99,6.3056-35.86L590.9977,320.1l6.5889-37.4711c1.0673-6.07,2.193-12.1325,3.2024-18.2122.0142-.0856.03-.1708.045-.2562.43-2.4471-3.316-3.4977-3.7493-1.0337l-2.6358,14.99-6.3056,35.86L580.52,357.3307l-6.5889,37.4711c-1.0673,6.07-2.193,12.1325-3.2024,18.2122-.0142.0855-.03.1708-.045.2562-.1935,1.1.5049,2.6176,1.8746,2.461,5.3517-.612,10.7119-1.1546,16.0721-1.6853q19.4442-1.9254,38.9307-3.3911c16.1269-1.2061,32.277-2.1708,48.4424-2.6659a422.4286,422.4286,0,0,1,44.6065.49,113.6428,113.6428,0,0,1,16.3253,2.1508,47.2553,47.2553,0,0,1,6.1805,1.7224c.4063.1477.8076.3064,1.2081.4687-.6024-.2441.1157.0527.2546.1157q.2943.1336.5848.2757a18.319,18.319,0,0,1,2.04,1.1821c.1416.0937.6617.5137.1085.0652.1108.09.2263.1749.3322.2707.242.219.4821.4348.7057.6733,1.0882,1.1606,3.4774.326,3.3188-1.3747-1.1485-12.3179-3.0441-24.5679-5.13-36.7576-2.4165-14.1231-5.164-28.1889-8.0675-42.2193q-4.2808-20.6849-8.9932-41.2775-3.7668-16.5557-7.743-33.0628-2.1764-9.0385-4.4226-18.06c-2.1071-8.4263-5.7616-18.7594-14.3357-22.5344-5.4912-2.4177-11.8378-1.8605-17.7146-1.8605h-81.456c-2.5019,0-2.506,3.8882,0,3.8882Z"/><path class="cls-2" d="M720.1425,303.8221l162.01-19.4411L933.77,267.009l32.3049-35.0739A49.4905,49.4905,0,0,0,918.0312,203.97l-128.0959,8.8813-97.01,7.3736"/><path d="M720.1425,305.7662l11.04-1.3247,27.75-3.33,36.6655-4.4,37.9122-4.5494,31.1647-3.74,16.5167-1.982a14.0552,14.0552,0,0,0,2.9233-.6712l12.1671-4.0948,33.2815-11.2008,4.0338-1.3576a4.1951,4.1951,0,0,0,1.7791-.9828c2.6549-2.6789,5.128-5.5676,7.6828-8.3414L965.8745,235.02l1.5755-1.71a2.0233,2.0233,0,0,0,.304-2.356,51.9073,51.9073,0,0,0-42.7048-28.9167c-5.5068-.4-11.1363.2746-16.6331.6558L879.97,204.6652l-36.2884,2.516-33.2182,2.3031-19.16,1.3284c-3.0488.2114-6.0955.4542-9.1428.6858l-30.464,2.3155L715.9675,216.53,693.9867,218.2l-1.0618.0807c-2.4793.1884-2.5,4.0782,0,3.8882l15.5166-1.1794,33.94-2.58,33.3528-2.5351c4.7459-.3607,9.4909-.7381,14.238-1.0819,4.4737-.324,8.9495-.6205,13.4241-.9308l30.3518-2.1044,36.4068-2.5242,31.5-2.184q7.9965-.5544,15.9931-1.1089a47.5524,47.5524,0,0,1,46.7476,26.9754l.304-2.3559-18.2739,19.84-11.12,12.0727c-.8833.9591-1.8759,1.8835-2.6807,2.9105-.51.6513.3434-.202.566-.2289a4.6845,4.6845,0,0,0-.84.2826l-29.022,9.7673L887.5083,280.53l-4.651,1.5653a6.8185,6.8185,0,0,0-1.0538.3547c-.4132.2243.4252-.0135.3-.007-4.0524.21-8.1529.9783-12.1788,1.4614l-28.4568,3.4149-36.935,4.4321-37.4946,4.4994-30.4608,3.6553-15.7343,1.8881-.7007.0841a2.0076,2.0076,0,0,0-1.9441,1.9441,1.9544,1.9544,0,0,0,1.9441,1.9441Z"/><path class="cls-2" d="M904.6673,254.7459l-97.2038,45.5465c6.7881,7.0449,14.27,18.1724,20.6605,31.4582,4.56,9.481,16.4419,27.1548,8.0174,52.4283L945.66,321.9672c31.4741-17.8972,36.52-57.51,20.4154-90.0321h0A49.49,49.49,0,0,0,918.0311,203.97"/><path d="M903.6861,253.0672l-9.679,4.5352-23.24,10.8895L842.662,281.6611l-24.1977,11.3382-8.013,3.7546c-1.2567.5889-2.5892,1.1075-3.8032,1.7821-.0529.0294-.1109.052-.1658.0777a1.9613,1.9613,0,0,0-.3935,3.0534c9.0819,9.4743,15.2563,21.0611,21.1482,32.6589,4.3459,8.5546,8.5509,17.0862,9.6017,26.7757a53.4687,53.4687,0,0,1-2.572,22.56,1.9647,1.9647,0,0,0,2.8559,2.1956l7.46-4.2378,18.8326-10.6978,24.8832-14.1349,25.612-14.5488,21.0187-11.94,11.1039-6.3076a59.7586,59.7586,0,0,0,21.6233-20.5185c6.9619-11.3083,9.8069-24.8128,9.2095-37.9988a84.0525,84.0525,0,0,0-3.5672-20.5806,76.6824,76.6824,0,0,0-8.7924-19.6927A51.688,51.688,0,0,0,928.94,202.4681a52.7815,52.7815,0,0,0-10.9088-.442c-2.4842.163-2.5024,4.0524,0,3.8883A48.0535,48.0535,0,0,1,955.97,220.6376a56.2181,56.2181,0,0,1,11.0013,17.9883,85.0467,85.0467,0,0,1,5.36,19.7733c1.8018,12.6169.4432,26.0115-5.0462,37.6023a55.2074,55.2074,0,0,1-22.7509,24.3694q-4.5077,2.5673-9.021,5.1244l-19.421,11.032-24.76,14.0648-25.0375,14.2225L846.04,376.32l-10.4091,5.9129-.4711.2676,2.8559,2.1955a56.9884,56.9884,0,0,0-.82-38.247A119.6673,119.6673,0,0,0,831.3321,333.8c-2.9846-5.774-5.7974-11.5988-9.1985-17.15a103.8039,103.8039,0,0,0-13.2954-17.7316l-.3935,3.0534,9.679-4.5353,23.24-10.8894,28.1053-13.1692,24.1976-11.3383,8.013-3.7546c1.2567-.5888,2.5892-1.1075,3.8032-1.782.053-.0295.1109-.052.1659-.0777,2.264-1.0609.2922-4.4139-1.9625-3.3574Z"/><path class="cls-3" d="M788.3818,309.2336,757.73,323.5958l53.35,40.9149a152.7244,152.7244,0,0,1-10.9879-19.2769C793.6536,331.8476,789.6159,318.96,788.3818,309.2336Z"/><path d="M787.4006,307.5549l-26.8352,12.574-3.8164,1.7882c-1.4747.691-1.03,2.5674,0,3.3574l18.0972,13.879,28.6261,21.9538,6.6265,5.0821c1.5547,1.1923,3.7022-1.1154,2.66-2.66a147.8257,147.8257,0,0,1-20.1932-43.552,81.0468,81.0468,0,0,1-2.24-10.7438,2.0076,2.0076,0,0,0-1.9441-1.9441,1.9552,1.9552,0,0,0-1.9441,1.9441,101.6951,101.6951,0,0,0,5.2317,20.8633,163.7232,163.7232,0,0,0,10.6484,23.73q3.2736,5.9912,7.0836,11.6651l2.66-2.66-18.0972-13.879L765.338,326.9992l-6.6266-5.0821v3.3574l26.8352-12.574,3.8164-1.7882C791.6271,309.8514,789.6553,306.4985,787.4006,307.5549Z"/><path class="cls-3" d="M790.8667,308.2741,718.52,340.62c-9.39,4.1311-7.7292,17.9986,2.387,19.7,4.1806.7031,9.6423.5552,16.7769-1.0014,0,0,16.6272,38.4146,24.0808,73.3891,36.6946,5.16,36.6946-12.04,34.9745-56.7619l41.6473-18.9176"/><path d="M789.8855,306.5954l-12.1709,5.4416-26.1671,11.6993L726.5467,334.914l-7.3434,3.2832a15.3972,15.3972,0,0,0-5.9821,3.9892,12.6062,12.6062,0,0,0-.1648,15.6668c4.2266,5.37,11.9358,5.2081,18.1056,4.509,2.366-.2681,4.7112-.6689,7.0387-1.1689l-2.1955-.8935c.1573.3636.3112.7286.4658,1.0934-.28-.66.0265.0638.09.2148q.1476.352.2943.7044.36.8655.7164,1.733,2.255,5.4917,4.372,11.0386c4.4316,11.5755,8.4983,23.3,12.0236,35.1841,2.2479,7.578,4.2682,15.2261,5.923,22.9564a1.8809,1.8809,0,0,0,1.3579,1.3579c9.7344,1.3557,22.2267,2.5717,30.0132-4.8356,7.208-6.8568,7.6963-18.5611,7.9257-27.8193.2146-8.6593-.1711-17.33-.5035-25.9817l-.9629,1.6787L829.8722,363.02c3.0151-1.3695,6.0645-2.6822,9.052-4.1117.1463-.07.2957-.1343.4435-.2015a1.9581,1.9581,0,0,0,.6975-2.66,1.9915,1.9915,0,0,0-2.66-.6974l-2.4532,1.1143-17.3109,7.8632-21.8831,9.94a1.8956,1.8956,0,0,0-.9629,1.6787c.29,7.5481.6008,15.1035.5535,22.6587a89.3556,89.3556,0,0,1-1.259,16.5386,35.0992,35.0992,0,0,1-1.774,6.1609,23.8133,23.8133,0,0,1-1.2247,2.426q-.3405.5763-.7218,1.1276a5.9788,5.9788,0,0,1-.64.8439,16.62,16.62,0,0,1-1.877,1.8893c-.0793.0684-.5634.4541-.2376.2037-.1722.1324-.3483.26-.5263.3845q-.6094.4263-1.2563.7954a17.0788,17.0788,0,0,1-5.2366,1.9438c-5.6926,1.2819-12.302.752-18.3134-.0852l1.3579,1.3579c-5.0055-23.3823-12.9481-46.2186-21.973-68.3347-.753-1.8455-1.5124-3.6894-2.3038-5.5188a1.9639,1.9639,0,0,0-2.1955-.8935,50.7938,50.7938,0,0,1-12.209,1.318c-2.6275-.0805-5.4614-.3215-7.5939-2.0234a8.6339,8.6339,0,0,1-1.31-11.9018c1.341-1.6584,3.2328-2.4418,5.1121-3.2821l7.0319-3.144,23.9482-10.7071,25.73-11.5037,9.21-4.1179c1.5065-.6735,3.088-1.2695,4.5511-2.0347.0678-.0355.141-.0631.211-.0944a1.9572,1.9572,0,0,0,.6974-2.66,1.9928,1.9928,0,0,0-2.66-.6975Z"/><path class="cls-3" d="M787.5656,374.7991c1.7928,9.8514-3.8374,31.1784-7.1089,47.4907s11.9547,21.6835,19.1317,6.2955c7.9927-17.8214,5.2763-40.4451,5.1777-51.4928-.04-4.4523,6.2063-7.6357,10.22-9.5637l14.8129-7.116"/><path d="M785.6909,375.3159c.9182,5.2528-.1287,11.3281-1.0152,16.6577-1.2146,7.302-2.8455,14.5289-4.4061,21.7624-1.2924,5.99-3.5292,12.7293-1.2282,18.7515,1.607,4.2055,5.3925,7.5135,10.1067,7.1516,5.5548-.4263,9.6713-4.9893,11.957-9.7315,3.256-6.7554,4.7517-14.3256,5.5243-21.7363a147.7714,147.7714,0,0,0,.4493-20.5479c-.0982-2.7763-.2393-5.551-.3225-8.3278a9.4349,9.4349,0,0,1,.117-3.1968,6.88,6.88,0,0,1,2.2191-2.8408c2.9066-2.4952,6.6965-3.9649,10.131-5.6148l10.8046-5.19.752-.3613c2.2547-1.0831.2848-4.4369-1.9624-3.3574-5.7176,2.7467-11.5433,5.3353-17.1593,8.2857a20.9923,20.9923,0,0,0-7.1582,5.45c-1.7182,2.2547-1.7045,4.6509-1.6155,7.35.1937,5.8721.5226,11.7359.4479,17.614a92.3259,92.3259,0,0,1-2.4037,21.2021c-1.3767,5.5188-3.3446,12.6267-8.4788,15.8773a7.8114,7.8114,0,0,1-2.6483,1.1273,7.143,7.143,0,0,1-2.1984.07,5.9067,5.9067,0,0,1-3.8449-2.4963c-3.2648-4.6728-1.367-10.8276-.2855-15.9,1.509-7.0774,3.12-14.136,4.4189-21.2562,1.0859-5.95,2.1829-12.1164,1.9346-18.19a27.3058,27.3058,0,0,0-.3861-3.5853c-.43-2.46-4.1778-1.4175-3.7493,1.0336Z"/><path class="cls-3" d="M789.2523,367.5705s6.8023,35.9812-1.0515,60.9072c-5.0883,15.3516-20.0872,11.9539-18.796-3.84s2.6306-39.5579-.1549-48.68"/><path d="M787.3777,368.0874a151.6844,151.6844,0,0,1,2.0223,15.996c.9156,11.0158,1.0958,22.2862-.632,33.2332a76.99,76.99,0,0,1-1.8342,8.5906,21.19,21.19,0,0,1-3.0025,6.8719,9.5356,9.5356,0,0,1-3.9373,3.2645,5.1587,5.1587,0,0,1-4.0185.0434,6.7943,6.7943,0,0,1-3.0634-2.7493,12.4721,12.4721,0,0,1-1.6234-5.9469,69.2787,69.2787,0,0,1,.4606-7.923q.327-4.4813.5765-8.9677c.3646-6.6561.6085-13.3306.4687-19.9972-.1045-4.98-.2327-10.2537-1.67-15.062-.7149-2.3916-4.4687-1.3729-3.7494,1.0337,1.31,4.3829,1.4177,9.1423,1.5234,13.68.1459,6.268-.0591,12.544-.3794,18.8037q-.232,4.5339-.5544,9.0626c-.203,2.8859-.6111,5.8136-.5815,8.7077.047,4.5812,1.5647,9.5051,5.5643,12.1384a9.58,9.58,0,0,0,10.7278-.4357c4.5824-3.2246,6.3972-8.728,7.6383-13.9409,2.7884-11.7126,3.013-24.0111,2.2923-35.978a171.8715,171.8715,0,0,0-2.479-21.459c-.463-2.4559-4.2111-1.4159-3.7493,1.0337Z"/><path class="cls-3" d="M776.03,369.4237s8.0369,35.7257,1.0459,60.9072c-4.5568,15.5177-19.6637,12.6383-18.917-3.191s1.34-43.1779-1.7582-52.1984"/><path d="M774.1556,369.9405a159.0353,159.0353,0,0,1,2.746,17.2818c1.299,11.7171,1.796,23.8238-.1487,35.4975-.82,4.922-1.7619,10.6875-5.6655,14.1959a7.6093,7.6093,0,0,1-2.088,1.3236,6.5279,6.5279,0,0,1-1.9989.4155,5.4987,5.4987,0,0,1-3.5888-1.2892c-3.48-2.9686-3.401-8.0069-3.215-12.2874q.3635-8.3682.474-16.7452c.0772-6.4908.0439-12.9929-.3333-19.475-.2777-4.7717-.5235-9.8668-2.0618-14.4333-.7946-2.3589-4.5513-1.3471-3.7493,1.0336,1.35,4.0076,1.6085,8.41,1.8741,12.5976.3854,6.078.4456,12.1767.4013,18.2651-.0432,5.9484-.2057,11.8961-.4541,17.8393-.2182,5.2182-.2845,10.6069,3.2458,14.853a9.4326,9.4326,0,0,0,10.6082,2.9038c4.9749-1.9374,7.6957-7.02,8.9816-11.932,3.1958-12.2076,3.1494-25.2225,2.0991-37.716-.4309-5.1259-1.0692-10.2369-1.8861-15.3155-.4113-2.5569-.7873-5.1652-1.4118-7.6821-.03-.1206-.0522-.2434-.08-.3647-.5477-2.44-4.2972-1.4076-3.7493,1.0337Z"/><path class="cls-3" d="M736.5372,352.4384s14.1991,51.3352,12.5608,77.549c-2.24,22.7876,26.4272,20.4942,13.24-60.3485"/><path d="M734.6625,352.9552c2.8065,10.1532,5.1709,20.45,7.27,30.77,1.7467,8.5867,3.2876,17.2321,4.301,25.9386.483,4.15.8513,8.3169.9931,12.493.1067,3.1442-.0585,6.2453-.18,9.3819-.18,4.6531,1.25,12.7711,7.3787,12.839,2.81.0311,5.0365-1.9422,6.6153-4.0707,2.392-3.2245,3.6861-7.2794,4.5968-11.1425a92.9393,92.9393,0,0,0,2.12-20.3194,213.1481,213.1481,0,0,0-2.1934-30.6568q-.6126-4.5425-1.3513-9.0663a1.9588,1.9588,0,0,0-2.3915-1.3578,1.9907,1.9907,0,0,0-1.3578,2.3914,248.5421,248.5421,0,0,1,3.3349,32.1741,114.23,114.23,0,0,1-1.085,21.6428,54.6441,54.6441,0,0,1-1.7089,7.4091q-.4623,1.4794-1.0461,2.915c-.1782.439.1223-.28.0026-.0065-.0465.1061-.0915.2128-.14.318-.0939.2046-.1863.41-.2837.6125q-.2754.5743-.5818,1.1333c-.3659.6637-.7825,1.2837-1.21,1.9076-.2951.43.2592-.2939-.0684.0877-.1051.1225-.2056.2486-.3126.37-.2006.2269-.41.4465-.63.6546-.1694.16-.9084.7092-.3035.2881-.2094.1458-.413.2957-.6338.4247s-.9643.3711-.229.1491c-.2175.0657-.4382.142-.6545.2126-.6237.2035.2552.064-.1267.0323a4.8851,4.8851,0,0,0-.6287-.0069c.2066-.0117.3961.1121-.0935-.0428a1.74,1.74,0,0,0-.2831-.09c-.2912-.0313.4437.2778.0772.0315-.1458-.098-.3247-.1942-.48-.2766-.1693-.09-.4381-.3943.0851.08-.0968-.0877-.207-.1611-.298-.2556-.1411-.1465-.2824-.2975-.4262-.4411-.1266-.1264-.3693-.5174.0348.0617-.0845-.121-.1788-.2354-.2565-.3613a13.2031,13.2031,0,0,1-.7539-1.4113c.3224.698-.0669-.2068-.1314-.3995-.1041-.3111-.1952-.6266-.2756-.9448-.0772-.3052-.1436-.6131-.2015-.9225-.0285-.1526-.0518-.3059-.0788-.4587-.1138-.6435.01.2613-.0309-.224-.0637-.7653-.1266-1.5236-.1287-2.2925-.0068-2.5775.2742-5.1458.2544-7.7291-.03-3.9077-.2969-7.8122-.68-11.7-.8609-8.743-2.2848-17.431-3.9472-26.0543-2.2358-11.5972-4.8823-23.1374-7.9732-34.5378q-.0791-.2916-.159-.583c-.6658-2.4086-4.4181-1.3858-3.7494,1.0337Z"/><path d="M617.62,562.8448a227.2787,227.2787,0,0,1,17.8435,29.354,50.8546,50.8546,0,0,1,3.9441,9.9152c.6155,2.4237,4.3665,1.3967,3.7493-1.0336-1.7434-6.8657-5.4556-13.337-8.9631-19.4288-3.3888-5.8857-7.0337-11.6261-10.8213-17.2625-.7894-1.1748-1.5826-2.3477-2.3951-3.5067-1.4257-2.0339-4.7982-.093-3.3574,1.9624Z"/><path d="M625.7542,409.0682c-.5612,8.19-.7349,16.4243-.7007,24.631.0295,7.1043.2565,14.2174.8915,21.2952a92.69,92.69,0,0,0,3.3033,19.1791c1.42,4.5775,3.8112,10.4005,8.925,11.8122,2.4156.6668,3.4464-3.0833,1.0336-3.7493-.1817-.05-.3573-.1168-.5374-.171-.39-.1175.4094.21.0461.0222-.0843-.0437-.1734-.0785-.2562-.1253-.1678-.0949-.3373-.1841-.5007-.2872-.17-.107-.64-.467-.2342-.1413a9.419,9.419,0,0,1-.96-.8861c-.15-.1592-.29-.3266-.4338-.4911-.3812-.4349.04.1039-.2383-.3088a21.6047,21.6047,0,0,1-2.8077-5.8154,80.2463,80.2463,0,0,1-3.3378-17.8142,287.929,287.929,0,0,1-.7333-38.4835c.1075-2.89.2307-5.7813.4284-8.6665.1711-2.4975-3.7179-2.4869-3.8883,0Z"/><path class="cls-2" d="M713.7666,914.9223H575.6984a38.787,38.787,0,0,1,2.72-14.7211h95.5753a14.42,14.42,0,0,0,13.109-8.412h0a14.42,14.42,0,0,1,13.109-8.412h13.6568Z"/><path d="M713.7666,912.9781H581.3472c-1.7746,0-3.6426-.1678-5.4116,0-.0776.0074-.1591,0-.2372,0l1.9441,1.9442a35.5735,35.5735,0,0,1,2.65-14.2043l-1.8746,1.4273h92.471a28.5782,28.5782,0,0,0,7.2019-.52,16.4668,16.4668,0,0,0,10.1957-7.8754,18.9566,18.9566,0,0,1,3.4239-5.0842,12.4678,12.4678,0,0,1,5.4369-2.9623,26.72,26.72,0,0,1,6.6421-.3816h10.0786l-1.9442-1.9441-.0889,27.6022-.0127,3.9429c-.0081,2.5022,3.88,2.5056,3.8882,0L715.8,887.32l.0127-3.9428a1.9719,1.9719,0,0,0-1.9441-1.9441c-4.4,0-8.8-.0088-13.1994,0a16.8132,16.8132,0,0,0-10.0966,3.1537,16.5953,16.5953,0,0,0-4.4742,4.9267c-1.0667,1.8217-1.8124,3.6379-3.3483,5.1537a12.6215,12.6215,0,0,1-8.8114,3.59c-.5264.0047-1.0529,0-1.5793,0h-74.993c-6.2133,0-12.4608-.1917-18.6719,0-.0918.0028-.1841,0-.276,0a2.0094,2.0094,0,0,0-1.8747,1.4273,38.36,38.36,0,0,0-2.7892,15.2379,1.981,1.981,0,0,0,1.9441,1.9441H696.7245c5.5894,0,11.2179.1938,16.8049,0,.0789-.0028.1583,0,.2372,0C716.2685,916.8664,716.2726,912.9781,713.7666,912.9781Z"/><path d="M635.3653,867.9219c.1931.102.378.2213.56.3418.2076.1377.4016.2956.6085.4333-.0857-.057-.4178-.3317-.1757-.1346.0568.0463.1143.0917.1709.1383q.2133.1758.4191.3606.4139.3715.7947.7776.2166.2312.4217.4728c.0655.0773.1285.1567.1937.2342.1947.2319-.2632-.36-.0167-.0227a12.7549,12.7549,0,0,1,.7865,1.2008q.1887.3309.355.6738c.0526.1085.1014.2185.1523.3278.1351.29-.1373-.3688.0164.0473a12.0833,12.0833,0,0,1,.5273,1.8132c.0316.1581.0545.3176.0844.4759.0413.2182-.0212-.16-.02-.1679a1.4218,1.4218,0,0,0,.0319.2847c.0393.3952.0558.7914.0583,1.1884a1.9441,1.9441,0,1,0,3.8882,0,13.893,13.893,0,0,0-6.12-11.3153,7.45,7.45,0,0,0-.7735-.4873,1.9444,1.9444,0,1,0-1.9625,3.3573Z"/><path d="M626.2523,872.8289c.193.102.378.2214.56.3418.2076.1377.4015.2956.6085.4333-.0857-.057-.4178-.3317-.1757-.1346.0568.0463.1143.0917.1708.1383q.2134.1758.4192.3606.4137.3716.7946.7776.2168.2311.4218.4728c.0655.0773.1285.1567.1937.2343.1947.2318-.2633-.3605-.0167-.0228a12.7747,12.7747,0,0,1,.7865,1.2008q.1886.3309.355.6738c.0525.1085.1014.2185.1523.3278.135.29-.1373-.3688.0163.0474a12.0586,12.0586,0,0,1,.5273,1.8131c.0317.1581.0546.3176.0845.476.0413.2181-.0213-.1605-.02-.168a1.4218,1.4218,0,0,0,.0319.2847c.0393.3952.0558.7914.0583,1.1884a1.9441,1.9441,0,0,0,3.8882,0,13.893,13.893,0,0,0-6.12-11.3153,7.441,7.441,0,0,0-.7736-.4873,1.9444,1.9444,0,1,0-1.9624,3.3573Z"/><path d="M615.7373,874.9319c.193.102.378.2214.56.3419.2076.1376.4015.2955.6084.4332-.0856-.057-.4177-.3317-.1756-.1346.0568.0463.1143.0917.1708.1383q.2134.1758.4192.3606.4137.3715.7946.7776.2167.2312.4217.4728c.0656.0773.1286.1567.1938.2343.1947.2318-.2633-.3605-.0167-.0228a12.754,12.754,0,0,1,.7864,1.2008q.1887.3309.3551.6738c.0525.1085.1014.2185.1522.3278.1351.29-.1372-.3688.0164.0474a12.07,12.07,0,0,1,.5273,1.8131c.0317.1581.0545.3177.0845.476.0413.2181-.0213-.16-.02-.168a1.4216,1.4216,0,0,0,.0318.2847c.0393.3952.0559.7914.0583,1.1884a1.9442,1.9442,0,0,0,3.8883,0,13.893,13.893,0,0,0-6.12-11.3153,7.4516,7.4516,0,0,0-.7736-.4873,1.9444,1.9444,0,1,0-1.9624,3.3573Z"/><path d="M745.9669,838.55c.0794-.0458.1613-.0874.2431-.1286.0864-.0435.1737-.0851.2615-.1257.0659-.03.133-.0584.1988-.0891.2667-.1247-.4156.1633-.1944.0825a14.9561,14.9561,0,0,1,2.4333-.7072c.1187-.0218.2395-.0357.3576-.06.237-.0492-.378.0368.0048,0,.2889-.0273.5769-.0524.8671-.0626a10.2045,10.2045,0,0,1,1.7887.0785c-.4267-.0607.1684.0389.2022.0454.1534.03.3059.0635.4579.1q.52.125,1.0258.3007c.0436.0151.48.1768.3364.12-.139-.055.2954.1334.3406.1551a12.781,12.781,0,0,1,1.1551.6375,1.9444,1.9444,0,1,0,1.9624-3.3574,13.446,13.446,0,0,0-13.4033-.3467,1.9444,1.9444,0,1,0,1.9624,3.3573Z"/><path d="M745.2983,848.6245c.0794-.0458.1613-.0874.2431-.1286.0863-.0436.1737-.0851.2615-.1257.0659-.03.133-.0584.1988-.0891.2666-.1247-.4156.1633-.1944.0825a14.9461,14.9461,0,0,1,2.4333-.7072c.1187-.0219.24-.0357.3575-.06.2371-.0492-.3779.0368.0049.0005.2889-.0273.5769-.0524.8671-.0626a10.2146,10.2146,0,0,1,1.7887.0784c-.4267-.0606.1683.039.2021.0455.1534.03.306.0635.4579.1q.52.125,1.0259.3007c.0436.0151.48.1768.3364.12-.139-.055.2954.1334.3406.1551a12.781,12.781,0,0,1,1.1551.6375,1.9444,1.9444,0,1,0,1.9624-3.3574,13.446,13.446,0,0,0-13.4033-.3467,1.9444,1.9444,0,1,0,1.9624,3.3573Z"/><path d="M741.5856,858.4046c.0794-.0459.1613-.0875.2431-.1287.0864-.0435.1737-.0851.2615-.1256.0659-.03.133-.0585.1988-.0892.2667-.1246-.4156.1634-.1944.0826a14.9564,14.9564,0,0,1,2.4333-.7073c.1187-.0218.2395-.0356.3576-.06.237-.0492-.378.0368.0048.0006.2889-.0274.5769-.0525.8671-.0627a10.2045,10.2045,0,0,1,1.7887.0785c-.4267-.0607.1684.0389.2022.0455.1534.03.3059.0634.4579.1q.52.125,1.0258.3007c.0436.0152.48.1768.3364.12-.139-.0551.2954.1333.3406.155a12.781,12.781,0,0,1,1.1551.6375,1.9444,1.9444,0,1,0,1.9624-3.3574,13.4463,13.4463,0,0,0-13.4033-.3467,1.9444,1.9444,0,0,0,1.9624,3.3574Z"/><path class="cls-3" d="M657.07,266.3086h0a38.9568,38.9568,0,0,1-38.9569-38.9568v-7.3286h77.9139v7.3286A38.9568,38.9568,0,0,1,657.07,266.3086Z"/><path d="M657.07,264.3645a37.0165,37.0165,0,0,1-36.9741-35.2586c-.1339-3.0206-.0388-6.06-.0388-9.0827l-1.9441,1.9441h77.9139l-1.9442-1.9441c0,2.4391.01,4.8783,0,7.3174a37.8517,37.8517,0,0,1-2.6461,13.8127A36.9807,36.9807,0,0,1,657.07,264.3645c-2.5014.0111-2.5065,3.8994,0,3.8883a40.8988,40.8988,0,0,0,40.8252-38.4507c.2-3.247.0758-6.5275.0758-9.7789a1.9724,1.9724,0,0,0-1.9441-1.9441H618.1133a1.9723,1.9723,0,0,0-1.9441,1.9441c0,2.6766-.0412,5.3563.0062,8.0325A40.9034,40.9034,0,0,0,657.07,268.2528C659.5722,268.2528,659.5763,264.3645,657.07,264.3645Z"/><path class="cls-3" d="M680.3912,224.9l-2.076-26.9522c4.8095-2.6293,8.3194-5.8963,9.7306-9.7151,6.9522-18.8146-6.51-84.52-6.51-84.52l-78.115,6.0167s-6.7543,66.302,6.51,84.52c4.4942,6.1728,14.1149,9.6287,25.14,10.7724l1.7893,23.2311"/><path d="M682.3353,224.9l-1.8169-23.5888-.259-3.3634-.9629,1.6787c4.6927-2.6014,9.08-6.2055,10.825-11.4509a36.8453,36.8453,0,0,0,1.5015-8.0509A126.749,126.749,0,0,0,691.42,158.33a445.315,445.315,0,0,0-6.1088-45.0975c-.602-3.3511-1.2181-6.7015-1.9011-10.0372a1.9493,1.9493,0,0,0-1.8747-1.4273l-26.45,2.0372-42.0919,3.2421-9.5732.7373a2.0113,2.0113,0,0,0-1.9441,1.9442c-1.0834,10.6552-1.5729,21.4065-1.697,32.1117A233.654,233.654,0,0,0,600.78,168.447c.7849,7.63,1.9414,15.4833,5.0831,22.5445a21.9351,21.9351,0,0,0,8.76,9.9842c6.1129,3.7368,13.4123,5.24,20.4468,5.99l-1.9441-1.9441,1.565,20.3185.2243,2.9126c.1909,2.4789,4.0808,2.5,3.8882,0l-1.565-20.3184-.2243-2.9127a2.0128,2.0128,0,0,0-1.9441-1.9442c-9.4733-1.0105-20.7918-3.7264-25.3623-13.0065a44.4423,44.4423,0,0,1-3.0623-9.232,97.5845,97.5845,0,0,1-1.8623-11.3129c-1.7782-16.1172-1.3383-32.5133-.2982-48.6679.239-3.7123.5032-7.4275.88-11.1289l-1.9442,1.9441,26.45-2.0373,42.092-3.242,9.5731-.7374-1.8747-1.4273c1.8066,8.823,3.3032,17.72,4.6438,26.6241,1.177,7.8177,2.19,15.6635,2.9,23.5382a162.1765,162.1765,0,0,1,.7846,22.1236,42.4266,42.4266,0,0,1-1.1664,9.0746c-1.2828,5.04-5.0687,8.2287-9.4892,10.6791a1.9107,1.9107,0,0,0-.9629,1.6787l1.8169,23.5889.2591,3.3633c.1909,2.4789,4.0807,2.5,3.8882,0Z"/><path d="M655.023,201.4752a48.0134,48.0134,0,0,1-19.0378,1.5858,1.9537,1.9537,0,0,0-1.9441,1.9441,1.9938,1.9938,0,0,0,1.9441,1.9441,48.8329,48.8329,0,0,0,13.6552-.3985,51.81,51.81,0,0,0,6.4162-1.3261c2.4025-.6844,1.3812-4.4372-1.0336-3.7494Z"/><path d="M630.8428,147.2551c-.7806.6078-.251.1957-.054.0623.2693-.1822.5477-.3514.83-.5117.4166-.2363.8487-.4329,1.2768-.646.3852-.1917-.3068.1146.0759-.0347.1452-.0567.29-.1149.4357-.1692q.468-.1739.9462-.3177a15.0516,15.0516,0,0,1,2.0705-.4687q.2067-.031-.026.0022.15-.0183.3014-.0324c.1706-.0153.3412-.0309.5122-.0416q.64-.04,1.2811-.0231a13.0007,13.0007,0,0,1,5.2537,1.3093,1.9969,1.9969,0,0,0,2.66-.6975,1.9613,1.9613,0,0,0-.6975-2.66,17.1026,17.1026,0,0,0-12.2219-1.1869,15.9874,15.9874,0,0,0-5.3939,2.6663,1.9545,1.9545,0,0,0,0,2.7493,1.9937,1.9937,0,0,0,2.7494,0Z"/><path d="M603.2665,149.0339a16.7547,16.7547,0,0,1,6.6462-1.66c3.1812-.1719,6.2031,1.1836,7.5449,4.2251,1.2378,2.8059.3305,6.1964-.7655,8.9033a25.6865,25.6865,0,0,1-2.8171,5.0329c-.6827.9751-1.6025,1.7794-1.712,3.0128a5.8115,5.8115,0,0,0,.139,2.0152c1.0664,3.9155,5.6377,3.5578,8.7728,2.9461,2.4535-.4788,1.4148-4.2271-1.0336-3.7494a9.5753,9.5753,0,0,1-3.5994.1763c-.07-.0221-.4861-.329-.2481-.1256-.1167-.1-.1227-.2013-.0872-.0882a2.8566,2.8566,0,0,1-.0419-1.3058l-.57,1.3747c3.7618-4.7167,7.33-11.1114,6.2412-17.3913a11.0676,11.0676,0,0,0-4.8462-7.1814c-2.7615-1.8255-5.9782-1.9563-9.16-1.5085a18.7366,18.7366,0,0,0-6.4265,1.9661c-2.188,1.2151-.2292,4.5745,1.9625,3.3574Z"/><path d="M627.7364,180.1979a10.1986,10.1986,0,0,0,2.0285-.53,11.6838,11.6838,0,0,0,4.4057-2.647,8.8919,8.8919,0,0,0,1.972-3.1,1.9531,1.9531,0,0,0-.196-1.4981,1.944,1.944,0,0,0-2.66-.6974,2.2451,2.2451,0,0,0-.8934,1.1619c-.1172.2979.2073-.4415.0373-.09-.045.0933-.0889.1868-.137.2786q-.1409.269-.3074.5234c-.0544.0831-.1121.1637-.1689.2453-.1986.2852.1793-.2156.1-.126-.1373.1553-.266.3159-.41.4655q-.1833.19-.38.3665c-.1483.1333-.724.5416-.13.1266-.2858.2-.5667.4-.868.5768-.2942.1724-.5974.3291-.907.4717-.0737.034-.1487.0655-.2223.1-.2526.1167.5266-.2117.1835-.0784-.14.0546-.28.11-.4224.1611a12.2166,12.2166,0,0,1-1.4.4128c-.2172.05-.4367.0976-.6578.1277a1.9374,1.9374,0,0,0-1.1619.8935,1.944,1.944,0,0,0,.6974,2.66,2.2958,2.2958,0,0,0,1.4981.196Z"/><path d="M664.2734,160.8825a40.873,40.873,0,0,1,1.1514-4.6279q.2977-.9759.6456-1.9357.17-.4641.3533-.923c.0328-.0818.0688-.1625.1-.245.0927-.2483-.1537.3392-.0421.099.0831-.1791.1581-.3622.24-.5417a18.2107,18.2107,0,0,1,.9519-1.8169c.1677-.2776.3478-.5459.5326-.8122.2708-.39-.114.1167.0483-.07.1107-.1276.2158-.2593.33-.3841.2149-.2346.4894-.4245.6964-.6607.1271-.145-.1778.1764-.1915.1485-.0038-.008.2355-.1611.2476-.1688.124-.0785.2553-.1412.3817-.2147.3284-.1912-.4375.1186.0188-.001a2.6419,2.6419,0,0,0,.4092-.1024c.2019-.0947-.4623.01-.2371.0317a2.2932,2.2932,0,0,0,.2373-.0122,3.5153,3.5153,0,0,1,.4863.0322,1.9541,1.9541,0,0,0,1.9441-1.9441,1.993,1.993,0,0,0-1.9441-1.9441c-3.1694-.4038-5.5118,2.5339-6.8117,5.0223a35.3652,35.3652,0,0,0-2.8863,8.1368c-.1511.63-.2957,1.2631-.4111,1.9007a1.9985,1.9985,0,0,0,1.3578,2.3915,1.961,1.961,0,0,0,2.3915-1.3578Z"/><circle cx="609.5269" cy="156.7261" r="2.752"/><path d="M611.2988,156.5147a3.077,3.077,0,0,1,.0032.38l-.0055.0748q-.0179.1672.0062-.0372a.584.584,0,0,1-.0287.1445c-.0269.1195-.0662.2332-.1041.3492-.0739.2259.1022-.1716-.017.0329-.0362.0621-.0665.1274-.1036.1892-.0349.0583-.2621.3334-.0969.1536-.0811.0883-.1583.1777-.2468.2594-.0352.0325-.0723.0625-.1079.0946.1788-.1617.01-.0093-.0337.02-.109.0728-.2432.12-.3466.1966-.1069.0794.2106-.0657-.0041.0013-.0589.0183-.1166.04-.1759.0572s-.12.0328-.181.0461c-.011.0024-.2539.04-.0949.0207.1608-.02-.0906.004-.1.0045-.0635.0031-.127.0038-.19.0026s-.1252-.0063-.1879-.01c-.2406-.0134.1962.0506-.0354-.0072-.1187-.03-.2368-.0552-.3528-.095-.0519-.0177-.2543-.1231-.0363-.01-.0427-.0221-.0864-.0416-.129-.0642-.1065-.0565-.2047-.1222-.3052-.1884-.1827-.12.0759.1023-.0007-.0025a1.9255,1.9255,0,0,0-.1829-.1714c-.0332-.0341-.0636-.0716-.0973-.1053-.1662-.1664.1025.1687-.026-.029-.0659-.1015-.1323-.2007-.1888-.3081-.0226-.0431-.0425-.0873-.0642-.1308.11.22.0064.0081-.01-.0408-.0439-.1311-.0688-.2645-.1005-.3984-.0349-.147.0118.2392.0012-.007-.0023-.0512-.0065-.1021-.0076-.1534a1.3016,1.3016,0,0,1,.0174-.3762c-.077.2559.0309-.1037.0511-.1748s.0452-.1381.068-.2074c.0616-.1877-.09.152.0169-.0329.06-.1043.1131-.21.1806-.31.0089-.0133.1539-.1851.0515-.0746-.1055.1137.0559-.0577.0631-.0654.0819-.0884.1752-.1618.26-.2465-.1352.135-.0768.054-.0256.0207.0809-.0528.16-.1069.2443-.1542.0423-.0236.0866-.0438.1287-.0676.2073-.1173-.192.0541.037-.0169.1068-.0331.2112-.07.32-.0949.0614-.0142.1231-.025.185-.0365-.2253.0417-.0539.0092.0081.0053a3.9172,3.9172,0,0,1,.4169.0047c.2473.01-.2035-.0495.0353.0072.0716.017.1429.0315.2138.0515.0585.0165.1153.0376.1732.0557.236.0738-.096-.0654.0671.0292.1248.0724.2483.1416.3693.2213.0523.0345.1058.1138-.0266-.0208.05.0507.1083.0941.16.144s.0981.1044.1479.156c.1611.167-.103-.1645.026.029.0813.122.15.2457.2218.373.1143.2027-.04-.1353.0038.0027.0263.0824.0577.1624.0807.246q.02.0721.0357.1453t.0281.1484q-.0249-.1989-.0077-.03a.9931.9931,0,0,0,.972.9721.9831.9831,0,0,0,.9721-.9721,3.72,3.72,0,0,0-6.7782-1.9015,3.72,3.72,0,0,0-.026,4.19,3.7211,3.7211,0,0,0,6.8042-2.289.9721.9721,0,0,0-1.9441,0Z"/><circle cx="635.3702" cy="154.7355" r="2.752"/><path d="M637.1421,154.5242a3.077,3.077,0,0,1,.0032.38l-.0055.0748q-.0179.1672.0062-.0372a.58.58,0,0,1-.0287.1445c-.0269.1194-.0662.2332-.1041.3492-.0739.2259.1022-.1717-.017.0329-.0361.0621-.0665.1274-.1036.1892-.0349.0583-.2621.3334-.0969.1535-.0811.0883-.1583.1778-.2467.26-.0353.0325-.0724.0624-.1079.0946.1787-.1617.01-.0093-.0338.02-.109.0728-.2432.12-.3466.1965-.1069.08.2106-.0657-.0041.0013-.0589.0184-.1166.04-.1759.0573s-.12.0328-.181.0461c-.011.0023-.2539.04-.0949.0206.1608-.02-.0906.0041-.1.0045-.0635.0032-.127.0039-.19.0027s-.1252-.0063-.1879-.01c-.2406-.0134.1962.0506-.0354-.0072-.1187-.03-.2368-.0553-.3528-.095-.0519-.0178-.2543-.1231-.0363-.01-.0426-.0221-.0864-.0416-.129-.0642-.1065-.0565-.2047-.1222-.3052-.1884-.1827-.12.0759.1023-.0007-.0025a1.9255,1.9255,0,0,0-.1829-.1714c-.0332-.0341-.0636-.0717-.0973-.1053-.1662-.1664.1025.1687-.026-.029-.0659-.1015-.1323-.2007-.1887-.3082-.0227-.043-.0426-.0872-.0643-.1307.11.22.0064.0081-.01-.0409-.0438-.131-.0687-.2644-.1005-.3983-.0349-.1471.0118.2392.0012-.007-.0022-.0512-.0065-.1022-.0076-.1534a1.3051,1.3051,0,0,1,.0174-.3762c-.077.2558.031-.1037.0512-.1749s.0451-.1381.0679-.2073c.0617-.1878-.09.152.0169-.0329.06-.1043.1131-.21.1806-.31.0089-.0133.1539-.1851.0515-.0747-.1055.1138.0559-.0576.0631-.0653.0819-.0884.1752-.1618.26-.2465-.1352.135-.0768.054-.0256.0207.0809-.0528.16-.107.2443-.1542.0423-.0237.0866-.0438.1287-.0676.2073-.1173-.192.054.0371-.0169.1067-.0331.2111-.07.32-.0949.0614-.0142.1231-.0251.185-.0365-.2253.0416-.0539.0092.0081.0053a3.9172,3.9172,0,0,1,.4169.0047c.2473.01-.2035-.0495.0353.0072.0716.017.1429.0314.2138.0515.0585.0165.1153.0376.1732.0557.236.0737-.0959-.0654.0671.0291.1249.0725.2483.1417.3693.2214.0523.0345.1059.1138-.0266-.0208.05.0507.1084.0941.16.144s.0981.1043.1479.156c.1611.167-.103-.1645.026.029.0813.122.15.2457.2218.373.1144.2027-.04-.1353.0038.0027.0263.0823.0577.1624.0807.246.0132.048.0251.0966.0357.1453s.02.0987.0281.1484q-.0249-.199-.0077-.03a.9931.9931,0,0,0,.972.9721.983.983,0,0,0,.9721-.9721,3.72,3.72,0,0,0-6.7782-1.9015,3.72,3.72,0,0,0-.0259,4.19,3.7211,3.7211,0,0,0,6.8041-2.289.9721.9721,0,1,0-1.9441,0Z"/><path class="cls-7" d="M712.5194,115.9628c-1.89-8.3414-6.0289-13.1845-10.2941-15.9981,1.5272-2.77,3.8816-5.9187,6.8628-6.3848-5.2111-2.21-11.7636,2.0947-13.5386,3.3767-.1136-.0315-.2246-.06-.3365-.09.63-2.0419,3.6409-10.75,10.261-14.6211-7.0882-.6154-13.27,4.9421-16.7947,9.0088-2.2485-8.3031-12.1132-24.3949-54.8312-24.32l-17.3439-.1052a44.5445,44.5445,0,0,0-42.0181,29.0094v0c-2.0963,7.0917-6.6326,24.5888,12.1605,35.6054l-.648-9.0725,15.5529,11.6647.6481-15.5529,49.2509,2.5921,3.1857,38.96c-.7853-10.1949,6.2282-24.6194,13.5345-25.1822s13.1114,1.466,13.917,11.9264c.5333,6.924-4.34,19.4394-8.1389,22.91l14.864,16.1863S717.2074,136.6466,712.5194,115.9628Z"/><path d="M714.3941,115.446c-1.6141-6.9259-5.2049-13.1609-11.1876-17.16l.6975,2.66c1.2688-2.2665,2.9555-4.9678,5.7009-5.4914a1.9591,1.9591,0,0,0,1.4273-1.8746,2.0322,2.0322,0,0,0-1.4273-1.8747c-5.06-2.0051-10.9037.609-15.0366,3.5727l1.498-.196-.3365-.09,1.3579,2.3915c1.5936-5.1264,4.586-10.5874,9.3676-13.4592a1.961,1.961,0,0,0-.9813-3.6228c-7.2858-.5193-13.6279,4.3761-18.1694,9.5782l3.2494.8579c-1.8776-6.8719-6.7964-12.3875-12.6955-16.1861a53.8013,53.8013,0,0,0-16.1657-6.6367,112.2,112.2,0,0,0-25.9948-2.9179c-4.4807-.0427-8.9622-.05-13.4431-.0773-5.3459-.0325-10.614-.1076-15.8854,1.023A46.5162,46.5162,0,0,0,577.14,86.2139a44.4924,44.4924,0,0,0-3.01,5.4677q-.6748,1.4594-1.26,2.96a6.1106,6.1106,0,0,0-.2594.68c-.0554.22-.3234.8959-.0408.1387-.0787.2108-.1285.439-.19.6553a39.99,39.99,0,0,0-1.7317,14.903,27.3205,27.3205,0,0,0,9.5211,18.2,39.3133,39.3133,0,0,0,5.4958,3.9042,1.9588,1.9588,0,0,0,2.9254-1.6787l-.6481-9.0725-2.9253,1.6787L600.57,135.7148c1.2563.9422,2.87-.3566,2.9253-1.6787l.6481-15.5529L602.2,120.4273l16.6445.876,26.5245,1.396,6.0819.32-1.9441-1.9441,2.7868,34.0812.3989,4.8786c.202,2.47,4.0613,2.51,3.8883,0a29.3144,29.3144,0,0,1,3.4674-15.2219,21.5929,21.5929,0,0,1,4.2926-5.9438,7.2514,7.2514,0,0,1,4.3965-2.1109c3.6133-.211,7.5234.2115,9.5677,3.5014,2.5584,4.1175,2.0948,9.43.9651,13.9144a45.4108,45.4108,0,0,1-2.9427,8.2967,19.0489,19.0489,0,0,1-3.7529,5.8432,1.9781,1.9781,0,0,0,0,2.7494l12.9683,14.1219,1.8957,2.0644a1.9615,1.9615,0,0,0,3.0534-.3935c3.393-5.8859,6.4817-11.9652,9.4235-18.0861,5.49-11.4234,10.6807-23.3189,13.515-35.7162,1.3016-5.6929,2.2427-11.8243.9641-17.6081-.54-2.4422-4.2893-1.4087-3.7494,1.0337a14.8538,14.8538,0,0,1,.3991,2.8828,31.6724,31.6724,0,0,1,.008,3.5615,48.5681,48.5681,0,0,1-1.0617,7.6845,118.4053,118.4053,0,0,1-5.414,17.7255,265.6659,265.6659,0,0,1-14.0587,30.4c-1.1009,2.0672-2.2135,4.1309-3.3833,6.16l3.0534-.3935-12.9683-14.1219-1.8957-2.0644v2.7494a20.5178,20.5178,0,0,0,4.0088-5.9041,50.4951,50.4951,0,0,0,3.3269-8.6127c1.5995-5.6111,2.1744-11.74-.4105-17.1676-2.1948-4.6082-6.8455-6.4952-11.7182-6.5538a11.7286,11.7286,0,0,0-6.8635,1.6542,19.7478,19.7478,0,0,0-5.5532,5.9157,33.2575,33.2575,0,0,0-5.4217,19.64H656.58l-2.7869-34.0812-.3989-4.8786a1.9983,1.9983,0,0,0-1.9441-1.9441l-16.6445-.876-26.5246-1.3961-6.0818-.32a1.9738,1.9738,0,0,0-1.9441,1.9442l-.6481,15.5529,2.9254-1.6787L586.98,120.6927a1.954,1.954,0,0,0-2.9253,1.6787l.648,9.0725,2.9254-1.6787c-6.0952-3.6154-10.9707-8.8814-12.6083-15.9137a30.9216,30.9216,0,0,1,.53-14.5406c.2221-.8975.5067-1.7793.7288-2.6759.023-.0931.0626-.1855.0823-.28l.0694-.5168.059.1759c.1695-.4021.3149-.8145.4844-1.2168.3957-.939.8359-1.861,1.3-2.7677a42.6073,42.6073,0,0,1,25.3745-21.3592,52.6627,52.6627,0,0,1,16.0939-1.8779q6.8319.0414,13.6637.0828c13.2268.0693,27.47.9745,39.4113,7.2432a30.5032,30.5032,0,0,1,9.5447,7.3682q.3982.4644.7751.9467c-.2628-.3365.0613.0842.1422.1954.1271.1748.2538.35.3773.5273q.6423.9228,1.1988,1.9014.4914.8667.908,1.7731c.0653.1423.1272.2862.1915.429.1105.2452-.1459-.3879.0248.0625.1162.3066.2388.61.348.92q.2668.7557.4768,1.5294a1.9592,1.9592,0,0,0,3.2494.8579c3.8935-4.46,9.1285-8.8878,15.42-8.4393l-.9812-3.6228c-5.644,3.39-9.2407,9.6266-11.1545,15.7829a1.9688,1.9688,0,0,0,1.3579,2.3915c1.3433.3581,2.0452-.2926,3.0918-.955a23.6191,23.6191,0,0,1,3.1553-1.7046c2.429-1.0611,5.0925-1.6321,7.628-.6275V91.7052c-3.74.7131-6.2785,4.1591-8.0247,7.2783a1.9905,1.9905,0,0,0,.6975,2.66c5.1389,3.435,8.0244,8.931,9.4006,14.8363C711.2124,118.9156,714.9623,117.8845,714.3941,115.446Z"/><path class="cls-7" d="M660.6446,99.7735C656.1388,112.4594,674.78,126.26,674.78,126.26s-11.0167,2.5922-19.4412-3.8882c0,0,.648,7.1284,3.8882,10.3686,0,0-62.86,3.8882-62.86-27.8657,0,0-1.2961-10.3686,5.1843-16.2009"/><path d="M658.77,99.2567c-3.4881,10.1989,5.1977,20.3125,12.3469,26.51.8685.7529,1.7585,1.4866,2.6817,2.172l.4644-3.5534a3.8377,3.8377,0,0,1-.43.0877c-.1933.0217-.3888.0676-.5809.0993a1.9129,1.9129,0,0,1-.372.0528,29.9743,29.9743,0,0,1-4.514.1827,21.1109,21.1109,0,0,1-12.0464-4.1147,1.9531,1.9531,0,0,0-2.9253,1.6787c.3846,4.0974,1.5423,8.7035,4.4576,11.7433l1.3747-3.3188a131.0566,131.0566,0,0,1-26.5786-1.224c-6.8738-1.018-14.0733-2.6669-20.1787-5.58a32.2688,32.2688,0,0,1-7.8443-5.079,23.0563,23.0563,0,0,1-2.9239-3.23,20.0434,20.0434,0,0,1-1.2283-1.9585,16.6307,16.6307,0,0,1-.8725-1.8262,24.1938,24.1938,0,0,1-1.3845-8.4851c-.1436-4.8442,1.0393-9.9726,4.71-13.3653,1.8416-1.7021-.9131-4.4465-2.7494-2.7494-3.9279,3.63-5.5855,8.9368-5.8306,14.1586a34.2587,34.2587,0,0,0,.5958,8.4045c1.4386,6.864,6.3339,12.1767,12.2109,15.6963,6.28,3.7608,13.5346,5.8144,20.6846,7.1361a134.5319,134.5319,0,0,0,20.6756,2.0788c3.5638.1,7.1528.13,10.7138-.0889a1.969,1.969,0,0,0,1.3747-3.3188,12.4714,12.4714,0,0,1-2.6948-5.68c-.2192-.864-.3964-1.739-.5343-2.62-.0223-.142-.0428-.2841-.0633-.4263-.0391-.2716.1286.3606.0094.058a1.3325,1.3325,0,0,1-.0358-.3256l-2.9253,1.6787c5.7474,4.3242,13.95,5.7053,20.9392,4.0842,1.7862-.4143,1.7065-2.6313.4644-3.5534-.47-.3486.3013.2489-.124-.0951-.444-.359-.8886-.7162-1.324-1.0857q-2.0835-1.7679-3.9933-3.7291c-3.24-3.33-6.3533-7.2238-7.7613-11.7189a12.0439,12.0439,0,0,1-.0392-7.6618c.8115-2.3727-2.9429-3.3916-3.7493-1.0336Z"/><path class="cls-3" d="M814.7561,367.33l23.2938-8.8311a143.4969,143.4969,0,0,0-9.9259-26.7482c-6.39-13.2858-13.8724-24.4133-20.6605-31.4582l-19.0817,8.9412"/><path d="M815.273,369.2045l20.4075-7.7369,2.8862-1.0942a1.9943,1.9943,0,0,0,1.3579-2.3915,143.2781,143.2781,0,0,0-9.3848-25.6595,147.2347,147.2347,0,0,0-13.6775-23.6249,90.4162,90.4162,0,0,0-8.0241-9.78,2.002,2.002,0,0,0-2.3559-.304l-19.0817,8.9412c-2.2641,1.0609-.2923,4.4139,1.9624,3.3574l19.0817-8.9412-2.3559-.304A101.517,101.517,0,0,1,819.6819,320.11a157.9621,157.9621,0,0,1,12.172,25.2278,127.1482,127.1482,0,0,1,4.3213,13.6774l1.3579-2.3915-20.4076,7.7369-2.8862,1.0942a1.9993,1.9993,0,0,0-1.3578,2.3915,1.9591,1.9591,0,0,0,2.3915,1.3578Z"/><path d="M812.812,368.6259c9.64,14.2351,17.7916,18.3818,23.3466,15.71,4.8421-2.329,5.2473-12.414,1.8913-25.837L814.7561,367.33Z"/><path d="M811.1333,369.6072a61.888,61.888,0,0,0,10.2206,12.1162c2.6092,2.2651,5.6962,4.4232,9.1587,5.08a9.5613,9.5613,0,0,0,8.0425-1.7525c2.661-2.271,3.3554-6.1709,3.5676-9.4731.3784-5.8895-.79-11.9069-2.1981-17.5956a1.9554,1.9554,0,0,0-2.3915-1.3578l-22.1069,8.3811a17.401,17.401,0,0,0-3.5954,1.9421c-2.0722,1.3814-.1275,4.7506,1.9625,3.3573l1.0691-.7127c.2819-.188,1.3854-.7308.4229-.392.3068-.108.6093-.231.9134-.3463l5.1134-1.9386,13.8735-5.26,3.3811-1.2819-2.3915-1.3578a61.9213,61.9213,0,0,1,2.1183,14.2612,21.9472,21.9472,0,0,1-.4418,5.0778,9.1146,9.1146,0,0,1-1.2982,3.19,3.514,3.514,0,0,1-2.0683,1.3619c-.2571.0758-.5171.135-.78.1855-.446.0855.0775.02-.3823.0425-.28.0139-.5577.0233-.8377.0143-.1273-.0041-.2539-.0133-.381-.0208-.0717-.0041-.6129-.076-.2608-.0223a15.0714,15.0714,0,0,1-7.1373-3.6218,55.7711,55.7711,0,0,1-10.2153-11.84C813.0906,365.5882,809.72,367.5313,811.1333,369.6072Z"/></svg>