<svg id="Layer_1" data-name="Layer 1" xmlns="http://www.w3.org/2000/svg" width="1000" height="1000" viewBox="0 0 1000 1000"><defs><style>.cls-1{fill:#fc7f3a;}.cls-2{fill:#fff;}.cls-3{fill:#ffc41f;}.cls-4{fill:#a8542a;}.cls-5{fill:#ea2f2f;}.cls-6{fill:#458dc9;}.cls-7{fill:#389b48;}</style></defs><path d="M217.519,414.907a12.08,12.08,0,0,1-5.2239,23.588c-6.5136-1.4426-14.6167-7.0781-13.1742-13.5918S211.0053,413.4645,217.519,414.907Z"/><path d="M217.08,416.4978a10.4368,10.4368,0,0,1-.4279,20.4962c-4.6864.8273-10.1385-1.8865-13.3752-5.1438-1.5069-1.5165-2.7906-3.496-2.6688-5.7177a7.8464,7.8464,0,0,1,2.6757-5.0083c3.3788-3.2779,9.0628-5.6044,13.7962-4.6264,2.0724.4283,2.9586-2.7516.8771-3.1817-9.8036-2.0257-26.7655,8.079-18.4677,19.17a19.8109,19.8109,0,0,0,7.2,5.7348,18.3227,18.3227,0,0,0,8.89,2.1928,13.73,13.73,0,0,0,2.3773-27.0975C215.8928,412.8275,215.0116,416.0082,217.08,416.4978Z"/><path d="M557.6921,805.5182c2.8749-8.9919,5.4087-18.3718,5.86-27.85.1995-4.1856.2877-9.9289-2.7229-13.2895-2.2235-2.482-5.4275-1.7086-7.7738.1447-3.9263,3.1013-6.2889,8.1177-8.0594,12.6655-3.4717,8.9175-4.8944,18.5976-5.378,28.11l1.62-.2193c-2.1385-5.69-4.6242-11.2738-7.28-16.7386a138.9331,138.9331,0,0,0-7.4721-13.6276,49.946,49.946,0,0,0-8.7092-10.91c-2.451-2.1655-5.6132-4.1582-9.029-3.6-2.9141.4765-4.5064,2.773-4.8413,5.5769-.4414,3.6951.6564,7.577,1.7835,11.0571a106.8088,106.8088,0,0,0,5.431,13.1736c1.9007,3.9664,3.9507,7.8611,6.0977,11.6993q1.152,2.0595,2.3446,4.0958a18.8075,18.8075,0,0,0,1.3748,2.3074,2.8585,2.8585,0,0,1,.1812.2965l1.1286-1.1286c-2.2648-1.1051-4.6074-2.0727-6.9624-2.9661a44.5455,44.5455,0,0,0-12.922-3.2689c-3.2082-.1906-7.3295.6082-7.9472,4.3855-.6243,3.8184,2.7549,7.5036,5.2079,9.9826a53.6723,53.6723,0,0,0,7.7074,6.4362l.6356-1.5077a59.7663,59.7663,0,0,0-14.6976-1.3642c-2.7407.1255-6.01.455-8.18,2.3256-2.6749,2.306-1.8736,6.7334-.6179,9.5784a16.1568,16.1568,0,0,0,5.9591,6.9293l.6356-1.5077a7.1474,7.1474,0,0,0-4.4646-.1086c-3.3152,1.1312-3.5442,4.992-3.1519,7.9459l.6056-.7954c-3.9151.6326-8.3956,2.1647-10.2342,6.0125a7.6673,7.6673,0,0,0-.67,4.8607c.2372,1.0345,1.8282.5966,1.5909-.4386-.019-.0827-.0521-.3514-.0274-.1273a7.2472,7.2472,0,0,1-.0464-.8776,6.3522,6.3522,0,0,1,.5775-2.5845c1.6062-3.4778,5.7812-4.6942,9.2482-5.2544a.8209.8209,0,0,0,.6056-.7954c-.3017-2.2719-.4792-5.8075,2.3657-6.4787a5.8537,5.8537,0,0,1,3.1624.2323c.9106.3167,1.4008-1.025.6357-1.5077a14.7062,14.7062,0,0,1-4.5736-4.8014c-1.3942-2.3257-2.9969-7.0141-.4337-9.1153,1.9407-1.5908,4.9746-1.7719,7.365-1.8562a55.1994,55.1994,0,0,1,8.8713.5033c1.6849.2137,3.372.4706,5.0357.8158a.829.829,0,0,0,.6356-1.5077,53.2728,53.2728,0,0,1-5.674-4.5506c-2.5154-2.2932-6.0164-5.4742-6.4671-9.0675-.4453-3.55,3.4187-4.2508,6.1152-4.124a40.8151,40.8151,0,0,1,11.9208,2.9275,79.0344,79.0344,0,0,1,7.3561,3.0944c.7011.3422,1.59-.38,1.1286-1.1286-2.8451-4.6139-5.46-9.3869-7.9244-14.2126-2.1-4.1123-4.0841-8.2956-5.7676-12.5974a45.8221,45.8221,0,0,1-3.2779-11.6274c-.2413-2.27-.3184-5.5129,1.979-6.8183,2.6156-1.4862,5.7795.0878,7.9114,1.702,3.3875,2.5649,6.0266,6.136,8.3694,9.6352a122.2859,122.2859,0,0,1,7.43,12.9514c3.0595,6.0569,5.7909,12.2749,8.2635,18.5928.0409.1046.08.21.12.3151a.8291.8291,0,0,0,1.62-.2193,93.9876,93.9876,0,0,1,4.2068-24.562c1.5939-4.8535,3.733-10.0317,7.3387-13.7666a8.4343,8.4343,0,0,1,3.5661-2.4281,2.9591,2.9591,0,0,1,2.797.5227,7.2515,7.2515,0,0,1,2.0563,3.7764,26.1735,26.1735,0,0,1,.72,7.2642c-.1517,9.8429-2.8752,19.6654-5.8513,28.9741-.3241,1.0137,1.2682,1.4476,1.5908.4386Z"/><path d="M532.8291,840.9846c1.0172-3.3073,2.64-7.11,5.3011-9.41,1.6149-1.3963,4.28-1.8007,5.5221.3388,1.144,1.9707.4334,4.772-.16,6.8033a28.1094,28.1094,0,0,1-1.9331,4.9234c-.2913.5683.2105,1.5046.9316,1.2117a15.6917,15.6917,0,0,1,4.1643-1.0313,10.1514,10.1514,0,0,1,3.7545.2125c.7518.2051,2.1872.6423,2.3563,1.5667.2341,1.279-1.7162,2.7157-2.56,3.3769a20.5093,20.5093,0,0,1-2.5007,1.68.834.834,0,0,0,0,1.4245c2.1463,1.4009,3.4842,3.8551,1.8978,6.1841-.5992.88.83,1.706,1.4246.8327,2.1138-3.1034.3793-6.5687-2.49-8.4413v1.4245c2.1674-1.2323,6.7057-4.026,5.7761-7.0781-.7234-2.3753-4.2845-2.9231-6.3574-2.9087a16.3088,16.3088,0,0,0-5.9044,1.1665l.9315,1.2118a30.636,30.636,0,0,0,2.03-5.0858c.7522-2.4881,1.4152-5.5848.203-8.0374a4.926,4.926,0,0,0-6.34-2.19c-2.4421,1.0507-4.0823,3.5542-5.2894,5.8126a31.6952,31.6952,0,0,0-2.3492,5.5739c-.3128,1.0171,1.2792,1.452,1.5909.4386Z"/><path class="cls-1" d="M704.4583,783.7457l-4.6236,80.5391-110.5618-5.9893s-.1842-31.4284,41.1432-32.5675a14.83,14.83,0,0,0,14.4516-14.142c.4329-9.7966.8077-19.2775.8077-19.2775"/><path d="M702.8085,783.7457l-1.5728,27.3966-2.4848,43.2828-.566,9.86,1.65-1.65-11.0237-.5972-26.3445-1.4271-31.9885-1.7329-27.5574-1.4928-9.1263-.4944a37.9772,37.9772,0,0,0-4.3325-.2347,1.6427,1.6427,0,0,1-.1889-.01l1.65,1.65a15.9539,15.9539,0,0,1,.0986-1.6293c.026-.2635.0583-.5261.09-.7889.0138-.1147-.057.3534.0148-.0975.0308-.1932.0588-.3869.0909-.58q.2059-1.2387.508-2.4588A30.2267,30.2267,0,0,1,597.5,840.8426a34.1813,34.1813,0,0,1,16.3732-10.8516A56.6374,56.6374,0,0,1,627.6966,827.5c2.5972-.1631,5.157-.1349,7.6489-.9985a16.8587,16.8587,0,0,0,6.137-3.7269,16.5491,16.5491,0,0,0,4.2419-6.75c1.0361-3.1363.8877-6.5645,1.0271-9.8248q.297-6.9447.5737-13.89c.0839-2.1234-3.2158-2.12-3.3,0q-.2286,5.78-.4746,11.56c-.2282,5.4011.3164,11.2874-3.502,15.6345a13.258,13.258,0,0,1-5.4236,3.7621c-2.39.8558-4.81.7907-7.3072.96a60.1464,60.1464,0,0,0-14.1829,2.54,37.66,37.66,0,0,0-17.4016,11.0609,34.3784,34.3784,0,0,0-6.9258,13.0325,27.7178,27.7178,0,0,0-1.1848,7.4377,1.684,1.684,0,0,0,1.65,1.65l11.0237.5971L626.641,861.97l31.9886,1.7328,27.5573,1.4929c4.46.2415,8.99.7424,13.4588.729.0628,0,.1262.0069.189.01a1.6776,1.6776,0,0,0,1.65-1.65l1.5728-27.3967,2.4848-43.2827.5661-9.86c.1218-2.1214-3.1782-2.1144-3.3,0Z"/><path class="cls-2" d="M642.7482,818.4355c-2.7205,3.3126-9.7251,7.644-14.3191,7.7706-2.2736.0626-4.4175.22-6.4529.4512l22.68,30.9042,55.5329,4.421.6556-7.9072a4.6191,4.6191,0,0,0-4.3693-4.9948l-24.1862-1.2267a18.7466,18.7466,0,0,1-14.3676-7.9145Z"/><path d="M641.5817,817.2689a23.7154,23.7154,0,0,1-8.235,5.9091,14.2155,14.2155,0,0,1-4.4971,1.3545c-2.2853.2186-4.5857.2217-6.8734.475-1.0956.1213-2.2474,1.3612-1.4245,2.4824L631.3,842.1362c3.95,5.382,7.8522,10.8026,11.8507,16.1484.8962,1.1982,2.6915,1.0212,4.0712,1.131l9.1169.7258,26.4244,2.1037,11.2464.8953c1.9563.1557,3.9338.4124,5.8962.4694.0941.0027.1889.015.2828.0225a1.68,1.68,0,0,0,1.65-1.65c.2075-2.503.4338-5.0051.6227-7.51a6.396,6.396,0,0,0-6.0873-7.0473c-5.2123-.3707-10.4483-.53-15.6668-.7946-5.7322-.2908-11.78.0623-16.8053-3.1757a20.4056,20.4056,0,0,1-5.5-5.6864l-4.6471-6.586-9.582-13.58c-1.2147-1.7215-4.077-.0748-2.8491,1.6654l8.0184,11.364c2.7389,3.8816,5.2934,8.0339,8.3436,11.6853a20.4848,20.4848,0,0,0,13.46,7.0929c1.7239.189,3.4755.2114,5.206.2992l17.9483.91c.7034.0357,1.4215.0328,2.1221.1077a3.0463,3.0463,0,0,1,2.77,3.3878c-.14,2.624-.4351,5.2481-.6523,7.8671l1.65-1.65-18.8342-1.4994-29.8518-2.3766-6.8469-.5451,1.4245.8172-19.8287-27.02-2.8508-3.8846-1.4246,2.4824c2.3817-.2636,4.7825-.2568,7.16-.5021a18.2918,18.2918,0,0,0,5.5483-1.6292,25.9656,25.9656,0,0,0,9.23-6.5736C645.2741,817.9875,642.9515,815.6418,641.5817,817.2689Z"/><path class="cls-2" d="M604.8167,831.4666a33.1706,33.1706,0,0,0-18.6155,28.1656l54.5016-1.9306-10.476-1.7924-16.8323-22.4667A6.8481,6.8481,0,0,0,604.8167,831.4666Z"/><path d="M603.9841,830.042a35.3964,35.3964,0,0,0-19.2294,27.0344,19.7033,19.7033,0,0,0-.2032,2.5558,1.6687,1.6687,0,0,0,1.65,1.65l18.4221-.6526,29.3539-1.04,6.7256-.2382c1.7669-.0626,2.353-2.9131.4386-3.2407l-10.476-1.7924.9859.7582q-8.3042-11.084-16.6087-22.1682a8.7274,8.7274,0,0,0-11.0585-2.8663c-1.9194.9048-.2465,3.75,1.6653,2.8491a5.3632,5.3632,0,0,1,6.3484,1.4213c.4533.5518.8609,1.149,1.289,1.72l6.2788,8.3805,6.9077,9.22c.9137,1.22,2.1139,3.61,3.7143,3.9351,3.3342.678,6.7226,1.15,10.0766,1.724l.4386-3.2406-18.4221.6526-29.3538,1.04-6.7257.2382,1.65,1.65a16.9738,16.9738,0,0,1,.1157-1.8125c.0168-.1613.036-.3223.0547-.4833.0367-.317.0178-.1431.0207-.1632q.0876-.606.1961-1.2084.246-1.3518.6016-2.68a31.51,31.51,0,0,1,7.3143-13.37,33.9177,33.9177,0,0,1,9.4953-7.0235C607.5415,831.9261,605.8737,829.0783,603.9841,830.042Z"/><polygon class="cls-2" points="644.656 857.562 640.703 857.702 645.341 858.495 644.656 857.562"/><path d="M644.6558,855.9117l-3.953.14a1.657,1.657,0,0,0-1.62,1.4305,1.6306,1.6306,0,0,0,1.1817,1.81l4.0528.6935.5854.1a1.9969,1.9969,0,0,0,.8771,0,1.6362,1.6362,0,0,0,.857-.5912,1.5634,1.5634,0,0,0,.3248-.78,1.5243,1.5243,0,0,0-.1958-1.052l-.6852-.9336a1.7927,1.7927,0,0,0-.9859-.7582,1.6858,1.6858,0,0,0-1.2713.1663,1.6658,1.6658,0,0,0-.7582.986,1.611,1.611,0,0,0,.1664,1.2712l.6851.9336,1.8631-2.4235-4.0528-.6934-.5853-.1-.4386,3.2407,3.953-.14a1.65,1.65,0,0,0,0-3.3Z"/><path class="cls-2" d="M674.0567,864.9535a4.2068,4.2068,0,0,0-4.29,4.1219l-.08,3.9824-85.0088-4.7233s-.0694-9.6907,2.8507-16.2029l112.7358,5.6072-.2921,17.0632-21.88-1.26.0861-4.2984A4.2071,4.2071,0,0,0,674.0567,864.9535Z"/><path d="M674.0567,863.3037a5.9469,5.9469,0,0,0-5.919,5.427c-.1215,1.4317-.0718,2.8908-.1005,4.3271l1.65-1.65-28.873-1.6043-45.6747-2.5377-10.4611-.5813,1.65,1.65c-.0279-5.0932.5723-10.6771,2.6255-15.37l-1.4246.8171,11.2341.5587,26.97,1.3415,32.4885,1.6159,28.1873,1.4019,9.2541.46a39.1354,39.1354,0,0,0,4.4043.219,1.7415,1.7415,0,0,1,.1973.01l-1.65-1.65-.292,17.0632,1.65-1.65-19.09-1.0993-2.7905-.1607,1.65,1.65c.0286-1.43.1076-2.8682.086-4.2984a5.9683,5.9683,0,0,0-5.7717-5.94c-2.1209-.1283-2.1133,3.1717,0,3.2995,3.36.2033,2.431,4.6952,2.3861,6.9388a1.6814,1.6814,0,0,0,1.65,1.65l19.09,1.0994,2.7905.1607a1.67,1.67,0,0,0,1.65-1.65l.292-17.0632a1.68,1.68,0,0,0-1.65-1.65l-11.2341-.5588-26.97-1.3414-32.4885-1.6159-28.1873-1.4019c-4.5282-.2253-9.1227-.7011-13.6584-.6794-.0655,0-.1318-.0065-.1973-.01a1.6015,1.6015,0,0,0-1.4245.8171,42.521,42.521,0,0,0-3.076,17.0356,1.6845,1.6845,0,0,0,1.65,1.65l28.873,1.6042,45.6747,2.5378,10.4611.5812a1.6712,1.6712,0,0,0,1.65-1.65c.0455-2.2742-.6264-6.3862,2.72-6.4546C676.1771,866.56,676.1843,863.26,674.0567,863.3037Z"/><path d="M620.1379,855.4066c.12.0022.24.0112.36.02.1425.0106.2842.0279.4265.041.5532.0507-.4064-.076.2023.0277a19.7237,19.7237,0,0,1,3.4309.89c.174.0632.3466.13.5191.1973.0986.0384.1965.0787.2942.1194-.0519-.0216-.317-.14-.036-.013.3715.1674.74.34,1.1011.5285a16.4719,16.4719,0,0,1,6.2641,5.6,23.8308,23.8308,0,0,1,3.3766,8.5957,1.65,1.65,0,1,0,3.1817-.8771c-1.0709-5.2993-3.5168-10.4789-7.7935-13.93a20.2936,20.2936,0,0,0-9.0813-4.2292,14.2542,14.2542,0,0,0-2.246-.2707c-2.1241-.0383-2.1243,3.2613,0,3.3Z"/><path class="cls-1" d="M835.2277,736.0362l48.3182,64.6009-88.4518,66.6036s-20.3764-23.9286,10.5115-51.4092a14.83,14.83,0,0,0,1.9521-20.1255c-5.9764-7.7746-11.794-15.27-11.794-15.27"/><path d="M833.8032,736.8688l16.4362,21.9751,25.9668,34.7173,5.9152,7.9086.5918-2.2573-8.8191,6.6408-21.0762,15.87-25.5915,19.27L805.18,857.5947l-7.3013,5.4978a32.1183,32.1183,0,0,0-3.4661,2.61,1.4044,1.4044,0,0,1-.1511.1138l1.9992.258c-.1917-.226-.321-.4238-.0661-.0751-.2778-.38-.5558-.7584-.8178-1.15a31,31,0,0,1-5.1854-18.6906c.3968-7.7572,3.9534-15.0272,8.755-21.0113a64.2663,64.2663,0,0,1,5.3408-5.8405,37.6354,37.6354,0,0,0,5.1064-5.3093,16.605,16.605,0,0,0,2.6348-12.031c-.9067-5.6408-5.2206-9.9243-8.5815-14.2764q-3.2541-4.2137-6.5166-8.4207a1.66,1.66,0,0,0-2.3331,0,1.69,1.69,0,0,0,0,2.3331q2.6744,3.4458,5.34,6.8981,2.5708,3.327,5.1352,6.659a17.6627,17.6627,0,0,1,3.41,6.0067,13.3431,13.3431,0,0,1-2.1417,11.4522c-1.4919,2.0179-3.6221,3.5616-5.38,5.3388a63.419,63.419,0,0,0-5.0992,5.8144c-4.8518,6.2776-8.3157,13.6307-8.921,21.6139a33.8188,33.8188,0,0,0,2.7261,15.7928,28.3927,28.3927,0,0,0,4.2606,7.2289,1.6488,1.6488,0,0,0,1.9992.258l8.8192-6.6408,21.0762-15.87,25.5915-19.27L873.46,810.2832c3.589-2.7025,7.1886-5.3916,10.7674-8.1078.05-.0381.1007-.0758.1511-.1138a1.673,1.673,0,0,0,.5919-2.2572l-16.4362-21.975L842.5675,743.112l-5.9152-7.9085c-1.257-1.6806-4.1227-.0375-2.8491,1.6653Z"/><path class="cls-2" d="M810.3461,802.3115c.0513,4.2862-2.5194,12.11-5.953,15.1651-1.6993,1.5119-3.2386,3.0123-4.6469,4.5l37.2512,9.0437,45.3371-32.3727-4.59-6.4723a4.619,4.619,0,0,0-6.5591-1.0085L851.89,805.8007a18.7466,18.7466,0,0,1-16.089,3.195Z"/><path d="M808.6963,802.3115a22.9516,22.9516,0,0,1-2.47,9.6346,14.5414,14.5414,0,0,1-2.6072,3.9908c-1.6445,1.6608-3.4236,3.1767-5.0391,4.8731a1.6656,1.6656,0,0,0,.7279,2.7574l17.6542,4.2861c6.4683,1.57,12.9269,3.3818,19.4476,4.7214,1.3971.287,2.4984-.9,3.5615-1.6587l7.482-5.3425,21.583-15.4112c4.6328-3.308,9.2975-6.5759,13.9-9.9255.0764-.0556.1539-.11.2309-.1649a1.673,1.673,0,0,0,.5918-2.2572c-1.4416-2.0331-2.8734-4.0736-4.3251-6.0995-2.157-3.01-5.9823-4.2069-9.1758-1.9011-4.2306,3.0548-8.3269,6.3152-12.4846,9.4684-4.5983,3.4873-9.1763,7.8486-15.1447,8.5637a21.3911,21.3911,0,0,1-8.0994-.8907l-7.904-2.0755-15.8407-4.1595c-2.0556-.54-2.9325,2.642-.8772,3.1817l13.2107,3.4689c4.4528,1.1693,8.9191,2.6123,13.4426,3.4883a20.5157,20.5157,0,0,0,15.6648-3.2714c1.3254-.9383,2.5987-1.9567,3.8922-2.9377l14.1651-10.7429c.5636-.4274,1.1177-.8725,1.693-1.284a3.0768,3.0768,0,0,1,4.382.4371c1.6394,2.0266,3.0438,4.2925,4.5521,6.4195l.5918-2.2572-15.3763,10.9794-24.371,17.402-5.59,3.9914,1.2712-.1663-32.5686-7.907-4.6825-1.1368.728,2.7574c1.6753-1.7591,3.58-3.304,5.2322-5.0746a18.1678,18.1678,0,0,0,3.0782-4.77,26.697,26.697,0,0,0,2.7727-10.9867A1.6508,1.6508,0,0,0,808.6963,802.3115Z"/><path class="cls-2" d="M789.7133,836.7047a33.17,33.17,0,0,0,3.8912,33.5365l40.4584-36.5686-9.17,5.3737-27.3445-6.3526A6.8481,6.8481,0,0,0,789.7133,836.7047Z"/><path d="M788.1224,836.2661a35.2913,35.2913,0,0,0,2.6521,32.8529,22.2176,22.2176,0,0,0,1.6634,2.2888,1.6747,1.6747,0,0,0,2.3331,0l13.6754-12.3606,21.79-19.6954,4.9927-4.5126c1.4042-1.2692-.4-3.5281-1.9992-2.5911l-9.17,5.3736,1.2713-.1663c-8.9833-2.0869-17.9586-4.2117-26.9505-6.261a8.6713,8.6713,0,0,0-10.0926,4.6776c-.88,1.9162,1.9625,3.5946,2.8491,1.6654a5.342,5.342,0,0,1,5.9979-3.2469c.6849.1409,1.3645.317,2.0456.4752l10.1474,2.3574,11.2555,2.6149c1.5851.3682,3.9189,1.4007,5.4468.554,2.9929-1.6584,5.9123-3.4647,8.8646-5.1948l-1.9992-2.5911L819.221,844.8666l-21.79,19.6954-4.9926,4.5126h2.3331c-.0151-.0178-.0477-.0764-.0671-.0813a.6457.6457,0,0,1-.0976-.1219c.0234-.1521.1623.2158.0769.1-.2805-.38-.5573-.7616-.82-1.1543A32.441,32.441,0,0,1,791.46,863.54a31.5219,31.5219,0,0,1-2.9354-14.8109,34.0341,34.0341,0,0,1,2.7792-11.5857,1.6607,1.6607,0,0,0-1.1522-2.0294A1.6906,1.6906,0,0,0,788.1224,836.2661Z"/><polygon class="cls-2" points="836.997 831.02 834.063 833.673 838.123 831.294 836.997 831.02"/><path d="M835.8308,829.8537l-2.5675,2.3207-.3669.3317a1.6545,1.6545,0,0,0-.4833,1.1665,1.7048,1.7048,0,0,0,.3543,1,1.6512,1.6512,0,0,0,2.1282.4249l3.5514-2.0812.5084-.2979a1.66,1.66,0,0,0-.3941-3.0154l-1.1254-.2732a1.7291,1.7291,0,0,0-1.2712.1663,1.65,1.65,0,0,0,.3941,3.0154l1.1254.2732-.3941-3.0154-3.5515,2.0812-.5083.2979,1.9992,2.5911,2.5675-2.3207.3669-.3316a1.6613,1.6613,0,0,0,0-2.3332A1.6872,1.6872,0,0,0,835.8308,829.8537Z"/><path class="cls-2" d="M864.2526,817.7461a4.2069,4.2069,0,0,0-.6285,5.9161l2.5031,3.0983-68.085,51.12s-6.2925-7.37-8.2512-14.233L879.66,795.3516l10.7629,13.2438L872.87,821.719l-2.7016-3.3442A4.2071,4.2071,0,0,0,864.2526,817.7461Z"/><path d="M863.0861,816.58a5.902,5.902,0,0,0-.8866,7.9153c.8716,1.1785,1.84,2.2924,2.7611,3.4323l.3339-2.5911L842.17,842.6987,805.588,870.1651l-8.3785,6.2907,1.9993.258a38.627,38.627,0,0,1-7.827-13.505l-.7581,1.8631,8.9554-6.8057,21.5-16.3386,25.8988-19.6817,22.47-17.0759,7.3771-5.6062a33.1719,33.1719,0,0,0,3.511-2.6682,1.4944,1.4944,0,0,1,.1572-.1195l-1.9993-.2579,10.763,13.2438.3339-2.5911-15.3141,11.45-2.2386,1.6738,1.9992.2579c-.8968-1.11-1.7593-2.26-2.6958-3.337a5.8971,5.8971,0,0,0-7.9212-.8938c-1.6852,1.2524-.0418,4.1177,1.6653,2.8491,2.9444-2.1882,5.0163,1.7315,6.6186,3.7149a1.6451,1.6451,0,0,0,1.9992.2579l15.3141-11.45,2.2386-1.6737a1.6886,1.6886,0,0,0,.3339-2.5911L880.8268,794.185a1.6452,1.6452,0,0,0-1.9993-.258l-8.9554,6.8057-21.5,16.3387L822.4736,836.753l-22.47,17.076q-5.444,4.1372-10.8881,8.2743-.0784.06-.1572.12a1.7172,1.7172,0,0,0-.7582,1.8631c1.6231,5.49,4.9845,10.6227,8.6755,14.961a1.6493,1.6493,0,0,0,1.9993.258L822,861.9422l36.5817-27.4664,8.3785-6.2907a1.6893,1.6893,0,0,0,.3339-2.5911c-1.5392-1.9052-4.488-4.3894-1.8746-6.6813C867.0187,817.51,864.6774,815.184,863.0861,816.58Z"/><path d="M816.9545,845.0619c-.4512.3648-.0733.0564.2115-.1374.4127-.2808.8419-.5379,1.2795-.7779a16.9229,16.9229,0,0,1,4.7173-1.73c5.7616-1.2281,11.4554.9762,15.9579,4.5331a1.7049,1.7049,0,0,0,2.3332,0,1.66,1.66,0,0,0,0-2.3331c-5.3622-4.236-11.7977-6.75-18.6708-5.4807a18.5142,18.5142,0,0,0-8.1617,3.5927c-1.6516,1.3353.6957,3.657,2.3331,2.3332Z"/><path class="cls-3" d="M731.0488,245.41c-19.25,0-37.1182,10.1942-47.1418,22.7427L614.71,354.7806l-75.0781,52.555c6.0782,5.1451,13.5381,13.54,20.6932,23.69,4.575,6.49,13.3192,34.3982,16.24,40.0945l78.52-46.1539a96.156,96.156,0,0,0,22.2016-17.8574l60.5-94.3227,31.2818-65.9324Z"/><path d="M731.0488,243.76a63.83,63.83,0,0,0-46.3681,20.936c-2.9084,3.2435-5.5266,6.78-8.2433,10.1807l-16.5091,20.6678-20.3561,25.4839L621.955,343.0833l-5.7219,7.1633-1.7452,2.1848a4.9788,4.9788,0,0,0-.8667,1.0849c-.08.2362-.08.0657.2374-.1473-.1071.0719-.2106.149-.3169.2219-.5806.3979-1.1536.8075-1.73,1.2111l-7.1668,5.0168L580.8331,376.487,554.93,394.6193,539.5318,405.398l-.7328.513a1.6689,1.6689,0,0,0-.3339,2.5911,106.1616,106.1616,0,0,1,13.0275,13.6039c3.4164,4.1585,7.0306,8.4238,9.3926,13.2963,4.0312,8.3158,6.8813,17.2325,10.0443,25.9a96.4638,96.4638,0,0,0,4.2108,10.65,1.6691,1.6691,0,0,0,2.2572.5919L595.2514,462.05l34.8329-20.4748L654.63,427.1472a107.3628,107.3628,0,0,0,16.5834-11.8038q3.4715-3.0495,6.6391-6.423a9.6027,9.6027,0,0,0,.9859-1.1781c.4249-.628.82-1.2784,1.2293-1.9166l14.77-23.0266,22.1939-34.6011,18.006-28.072c1.316-2.0516,2.6563-4.09,3.9487-6.1562a36.0824,36.0824,0,0,0,1.8256-3.7241l15.1112-31.85,13.7994-29.0849.771-1.625a1.6723,1.6723,0,0,0-1.4246-2.4824l-33.3734-1.2674-4.646-.1764c-2.1235-.0806-2.12,3.2191,0,3.3l33.3735,1.2673,4.6459.1764-1.4245-2.4824L757.3676,267.68l-16.7065,35.2121a101.8945,101.8945,0,0,1-5.9307,11.605l-15.2246,23.7358-22.115,34.4781-17.7119,27.6136c-1.2117,1.8891-2.3193,3.94-3.6756,5.73a9.8908,9.8908,0,0,1-.7866.8532q-3.177,3.3545-6.6678,6.392a95.4786,95.4786,0,0,1-14.3,10.2435q-9.0138,5.3065-18.0349,10.601L601.3613,454.63l-24.3719,14.3259-1.2573.739,2.2573.5919a86.407,86.407,0,0,1-3.5966-9.0916c-1.6758-4.5772-3.3129-9.1686-5.0228-13.7332-1.604-4.282-3.2377-8.5706-5.1608-12.7217-2.13-4.5982-5.2715-8.54-8.3992-12.503a111.75,111.75,0,0,0-15.0118-16.0687l-.3339,2.5911,10.8977-7.6284,24.39-17.0732,25.4281-17.8c4.67-3.2691,9.3614-6.51,14.0113-9.808a7.2348,7.2348,0,0,0,1.5128-1.54l4.1257-5.165,15.6715-19.6191,20.1773-25.26,18.2183-22.8075,9.7942-12.2613a61.4481,61.4481,0,0,1,33.3115-21.1554,55.9965,55.9965,0,0,1,13.0459-1.5826A1.6508,1.6508,0,0,0,731.0488,243.76Z"/><path d="M576.5245,471.1272c2.9329-2.0675.7869-10.5619-4.847-21.55l-14.8261,8.6605C565.7319,467.924,573.4761,473.2763,576.5245,471.1272Z"/><path d="M577.3572,472.5518c2.7258-2.0317,2.2853-5.8323,1.6622-8.7762-1.1118-5.2525-3.4913-10.2777-5.9174-15.0311a1.67,1.67,0,0,0-2.2572-.5919l-14.826,8.6606a1.6712,1.6712,0,0,0-.3339,2.5911c3.8209,4.1532,7.9242,8.2825,12.69,11.3588,2.3924,1.5443,6.2023,3.6433,8.9822,1.7887,1.758-1.1728.1078-4.032-1.6654-2.8491a2.113,2.113,0,0,1-.313.1864c.1916-.0839.1781-.0832-.0084-.0091a1.8138,1.8138,0,0,1-.3106.0747c.3946-.08-.0067-.0033-.0988-.0066-.1449-.0052-.2892-.0038-.4343-.0134-.3128-.0206.0987.022-.1013-.0132a7.2054,7.2054,0,0,1-.9162-.2313,16.5,16.5,0,0,1-4.1393-2.2223,68.3255,68.3255,0,0,1-11.3519-10.3968l-.3339,2.5912,14.8261-8.6606-2.2572-.5918a63.6122,63.6122,0,0,1,5.3408,13.1949,15.5181,15.5181,0,0,1,.5873,4.281,3.4765,3.4765,0,0,1-.236,1.3687c.0379-.1117-.0536.1326-.1931.3545.157-.25-.3373.3-.06.0937A1.7038,1.7038,0,0,0,575.1,471.96,1.66,1.66,0,0,0,577.3572,472.5518Z"/><path class="cls-1" d="M560.3248,431.0253c-7.1551-10.1495-14.615-18.5446-20.6932-23.69l-10.8084,7.5659-17.7789,12.4452L540.3629,467.87l16.4885-9.6318,14.8261-8.6605A157.9177,157.9177,0,0,0,560.3248,431.0253Z"/><path d="M561.7494,430.1927c-6.1069-8.6382-12.8638-17.1414-20.9512-24.0237a1.69,1.69,0,0,0-1.9992-.258l-23.4571,16.42-5.13,3.5912a1.67,1.67,0,0,0-.5919,2.2572l9.9151,13.7042,15.7928,21.8281,3.6107,4.99a1.6891,1.6891,0,0,0,2.2572.5919l24.7552-14.4607,6.5594-3.8316a1.6853,1.6853,0,0,0,.5918-2.2572,158.6917,158.6917,0,0,0-11.3526-18.5518c-1.212-1.7241-4.074-.0772-2.8491,1.6653A158.7073,158.7073,0,0,1,570.253,450.41l.5918-2.2573L545.75,462.8117l-6.22,3.6332,2.2573.5919-9.9152-13.7042L516.08,431.5045l-3.6106-4.99-.5919,2.2572,21.8776-15.3143,6.71-4.6968-1.9992-.258c7.876,6.7025,14.4868,14.9419,20.4352,23.3559C560.1164,433.5782,562.9788,431.9317,561.7494,430.1927Z"/><path d="M836.9177,418.7712l1.4782,10.5088a13.9058,13.9058,0,0,1-7.7585,14.4761l-25.956,12.4447-111.26-10.31a14.7463,14.7463,0,0,1-13.3857-14.6834v-2.4385l8.1814-12.0315"/><path d="M835.3269,419.21l1.39,9.8815a12.6315,12.6315,0,0,1-6.9134,13.2409c-5.943,2.9287-11.9519,5.73-17.9262,8.5948l-4.9745,2.3851c-.9255.4437-1.95.8207-2.8272,1.3554-.5715.3484.4136-.2287.5874-.1182-.0532-.0338-.17-.0048-.2308-.0214a7.4433,7.4433,0,0,0-1.2163-.1127L789.79,453.1711l-22.9872-2.13L740.1318,448.57l-24.7981-2.2979-17.28-1.6012c-4.4265-.41-8.6939-.5878-12.1955-3.8758a13.28,13.28,0,0,1-4.0348-7.614,20.54,20.54,0,0,1-.1379-3.1924c0-.1779.1322-1.0507,0-1.1881.2332.2423-.5353,1.0577-.0782.5853a28.8821,28.8821,0,0,0,2.64-3.8817l3.6155-5.317,1.7792-2.6165c1.1972-1.76-1.66-3.4131-2.849-1.6654l-5.6577,8.32c-.8119,1.1939-1.7423,2.3659-2.461,3.6191a4.1309,4.1309,0,0,0-.288,2.1441,25.421,25.421,0,0,0,.1746,3.5124,16.5188,16.5188,0,0,0,11.71,13.4726,25.3011,25.3011,0,0,0,4.68.7092l14.0725,1.304,23.7054,2.1966,27.4484,2.5435,24.8786,2.3054,16.43,1.5224c1.0135.0939,2.0629.2789,3.0818.2856a3.1918,3.1918,0,0,0,1.3973-.43c1.08-.5117,2.155-1.0333,3.2325-1.55l21.266-10.1961a16.3748,16.3748,0,0,0,9.0337-9.8811c1.3609-4.3594.1981-9.0195-.4205-13.4171l-.5672-4.0329a1.6619,1.6619,0,0,0-2.0295-1.1523,1.6916,1.6916,0,0,0-1.1522,2.0295Z"/><path d="M832.5944,399.4123l.3782,5.8621a10.9745,10.9745,0,0,1-8.2019,11.331L792.65,424.919l-1.925-40.4257"/><path d="M830.9446,399.4123c.2457,3.8087,1.1162,8.0286-.99,11.4662a9.4635,9.4635,0,0,1-5.6946,4.1547c-.7084.1917-1.4213.3679-2.1316.5517l-22.8773,5.9212-7.04,1.8221L794.3,424.919l-1.69-35.4953-.2347-4.93c-.1007-2.114-3.4009-2.1262-3.3,0l1.69,35.4954.2347,4.93a1.6717,1.6717,0,0,0,2.0884,1.5909l18.7-4.84,11.0863-2.8694c3.3931-.8782,6.5789-1.9439,8.8948-4.8146a12.8949,12.8949,0,0,0,2.8367-8.966c-.1121-1.87-.2412-3.7385-.3617-5.6077-.1361-2.1084-3.4366-2.1237-3.3,0Z"/><path class="cls-4" d="M680.0951,428.55l-25.7637,91.6043A142.8791,142.8791,0,0,0,683.726,652.2106L796.9135,783.6663l61.7329-55.2028S756.1813,579.9876,727.1683,551.6645l57.9362-116.907-16.0359-56.9016"/><path d="M678.5043,428.1115l-6.7937,24.1552-12.5171,44.5054c-2.389,8.494-4.9147,16.9624-7.1464,25.5a144.5169,144.5169,0,0,0,30.835,131.48q6.6024,7.6712,13.2079,15.34l26.3622,30.6169,31.1038,36.1239,27.0122,31.372,14.5067,16.848.672.78a1.6765,1.6765,0,0,0,2.3332,0l20.9224-18.7092,33.1695-29.6609,7.641-6.8327a1.6579,1.6579,0,0,0,.2579-1.9992q-5.201-7.5362-10.45-15.0392-12.9668-18.5853-26.0782-37.0691-16.6894-23.5254-33.6677-46.8444c-11.039-15.1241-22.189-30.1721-33.6568-44.9747-8.19-10.5715-16.4183-21.286-25.6715-30.9636q-1.0884-1.1384-2.2122-2.242l.2579,1.9993L740.0787,529.32,763.55,481.959l19.6813-39.714c1.08-2.18,2.4288-4.3738,3.2961-6.6511.4953-1.3-.2925-2.91-.6522-4.1857l-2.5334-8.99-12.4073-44.0259-.2749-.9754a1.6512,1.6512,0,0,0-3.1817.8772L781.54,428.1938l1.9734,7.0023.1663-1.2713-19.6708,39.6929L732.89,536.4113l-7.1464,14.4205a1.7021,1.7021,0,0,0,.2579,1.9993c8.815,8.6273,16.4351,18.5817,24.0324,28.2646,11.2716,14.3659,22.1716,29.0239,32.9689,43.7482q17.2122,23.4723,34.0492,47.2168,13.7246,19.298,27.2864,38.711,4.3411,6.2122,8.665,12.4367,1.3314,1.917,2.66,3.8358a12.6257,12.6257,0,0,0,1.3833,1.9994,1.581,1.581,0,0,1,.1745.2526l.2579-1.9992-20.9224,18.7092-33.17,29.6608-7.641,6.8327H798.08l-10.0657-11.69L763.44,742.2685,732.9209,706.824,704.602,673.9345l-17.5226-20.3507c-10.0631-11.6872-18.6115-24.3563-24.785-38.5449a141.6443,141.6443,0,0,1-10.3893-75.1476c1.5523-11.4245,4.8908-22.4046,8.0017-33.4657l12.1057-43.0425,9.1777-32.6316.4958-1.7629a1.6512,1.6512,0,0,0-3.1817-.8771Z"/><path class="cls-4" d="M815.6245,404.7548l10.1916,34.9062a77.5287,77.5287,0,0,1-11.1518,66.5357L733.3757,620.9811c2.2878,40.481-15.5186,172.774-15.5186,172.774l-91.9972-.94,2.2647-162.4028a154.6624,154.6624,0,0,1,35.4485-96.3934L723.77,461.21a51.4527,51.4527,0,0,0,11.5248-38.08l-3.9879-38.55"/><path d="M814.0336,405.1934l9.9225,33.9843a77.1039,77.1039,0,0,1-10.782,66.279c-4.2243,6.0013-8.4831,11.9786-12.7245,17.9678l-26.0823,36.83L747.41,598.32c-4.9936,7.0512-10.1164,14.029-14.9887,21.1649a3.8239,3.8239,0,0,0-.6315,2.7642c.1322,2.9615.1552,5.9276.1313,8.8915-.06,7.5128-.4229,15.0229-.8794,22.5208-1.1315,18.5871-2.8858,37.1367-4.8072,55.6567q-2.7491,26.4969-6.0182,52.9366-1.8365,15.017-3.8111,30.0168c-.0409.3086-.2656,1.9869-.1389,1.0454l1.5908-1.2112-31.1339-.318-49.5652-.5062-11.2981-.1154,1.65,1.65.2647-18.98.6187-44.3683.71-50.901.5379-38.5779c.1681-12.056.5215-24,2.7894-35.91a154.366,154.366,0,0,1,32.6164-69.2637q10.7729-13.0434,21.559-26.0761L716.9967,471.98q3.8059-4.6033,7.6119-9.2068a54.2475,54.2475,0,0,0,12.37-29.3978c.6588-6.8526-.3951-13.73-1.1-20.54L733.4374,389.23l-.481-4.6495c-.2164-2.0912-3.5182-2.1135-3.3,0l3.8493,37.21c1.1883,11.4868-.8837,22.8188-6.9773,32.7362a92.18,92.18,0,0,1-7.8453,10.2577l-28.129,34.0227L664.5168,530.3c-13.32,16.1108-23.8742,33.9385-30.3778,53.8828-5.3464,16.3955-7.4838,33.2951-7.7234,50.473l-.4575,32.81-.69,49.4578-.6652,47.7025-.3753,26.9164-.0177,1.2724a1.6737,1.6737,0,0,0,1.65,1.65l31.1339.318,49.5652.5062,11.2981.1154a1.66,1.66,0,0,0,1.5909-1.2112q1.43-10.6251,2.7456-21.2652,3.0846-24.585,5.8029-49.2143c2.0848-19.0062,4.0029-38.0366,5.4523-57.1028,1.1211-14.7483,2.3115-29.6919,1.6346-44.4917-.0349-.7637.1894-1.0051-.2685-.3266a.7448.7448,0,0,1,.1152-.1627,3.5319,3.5319,0,0,0,.5146-.7266l2.159-3.0487,8.0054-11.3041,25.5889-36.133,27.392-38.6791,16.544-23.3612c11.8875-16.7859,17.4788-37.0651,14.7142-57.5726-.9342-6.93-3.0142-13.5448-4.9662-20.23L818.48,408.6475l-1.2646-4.3312c-.5939-2.0342-3.779-1.1687-3.1817.8771Z"/><path class="cls-3" d="M733.6737,248.2971H788.35c8.9031,0,13.5544,3.6816,17.3759,16.7476,0,0,28.1385,118.9071,32.1625,162.2806-89.9953-16.844-157.8528,1.4438-157.8528,1.4438l35.2554-150.7418"/><path d="M733.6737,249.9469h51.5242c1.8075,0,3.64-.0631,5.4417.0929,4.6651.4038,7.9692,2.9264,10.1954,6.9709a36.3114,36.3114,0,0,1,3.4464,9.0942q1.3605,5.7764,2.69,11.56,2.6448,11.4723,5.2156,22.9617,3.3565,14.9952,6.5822,30.0193,3.549,16.5571,6.8829,33.16c2.124,10.6373,4.1661,21.2921,6.0276,31.9787,1.5253,8.7567,2.9678,17.5452,4.0081,26.3579q.3055,2.5883.5511,5.183l2.0884-1.5908a423.9657,423.9657,0,0,0-49.9444-6.2831,419.3278,419.3278,0,0,0-42.8751-.6252q-16.9615.6234-33.8318,2.6812c-7.6039.9416-15.1857,2.0976-22.7034,3.5825-2.1447.4236-4.2845.8737-6.4147,1.3656a17.6417,17.6417,0,0,0-2.8393.6907.9606.9606,0,0,1-.1213.032l2.0295,2.0295,3.5291-15.09,8.4127-35.97,10.1672-43.4721,8.8124-37.6792c1.4236-6.0868,3.0047-12.16,4.2756-18.2812.0173-.0836.0389-.1664.0584-.25.4831-2.0656-2.6976-2.9472-3.1817-.8771l-3.5292,15.09-8.4126,35.97-10.1673,43.4721L682.7785,409.8c-1.4235,6.0868-3.0047,12.16-4.2756,18.2812-.0173.0836-.0389.1665-.0583.25a1.6677,1.6677,0,0,0,2.0294,2.0294c2.4361-.6556,4.9135-1.1765,7.3832-1.6862,6.7811-1.4,13.6224-2.52,20.4846-3.4381,10.6957-1.4316,21.4583-2.3731,32.2358-2.899q20.7783-1.014,41.59.0525a415.2925,415.2925,0,0,1,48.72,5.3536q3.2859.56,6.5624,1.1735c.9536.1778,2.196-.4376,2.0884-1.5909-.7815-8.3756-2.0561-16.7077-3.4206-25.0053-1.7289-10.5144-3.6786-20.9921-5.717-31.45q-3.2754-16.8054-6.8424-33.5522-3.3321-15.7514-6.83-31.467-2.7855-12.5439-5.6575-25.0684-1.6506-7.1982-3.3339-14.3891c-1.4934-6.3647-3.9666-13.8138-9.7887-17.448-4.8349-3.0181-11.1764-2.2975-16.6525-2.2975H733.6737a1.6508,1.6508,0,0,0,0,3.3Z"/><path class="cls-3" d="M793.6124,328.6673l105.8769,21.1754-15.5649,72.2636c7.9887-.881,19.86-.27,32.8954,1.996,7.2037,1.2521,34.1671,15.3966,39.9393,17.1795l17.3253-102.5081c6.2563-30.8-20.7195-50.3392-45.2866-60.299l-16.34-5.3413-93.3112-23.72A129.8917,129.8917,0,0,0,787.146,245.41H745.9678"/><path d="M793.1739,330.2582l10.5294,2.1058,25.2865,5.0573,30.5917,6.1184,26.4447,5.2889,8.6873,1.7375a30.8343,30.8343,0,0,0,4.1582.8316,1.328,1.328,0,0,1,.179.0358l-1.1522-2.0294-5.2727,24.48-8.37,38.86-1.9221,8.9237c-.2029.9421.4584,2.21,1.5908,2.0884a97.7082,97.7082,0,0,1,19.3076.1764c3.9952.3671,7.9736.8929,11.9307,1.5532a27.7823,27.7823,0,0,1,4.79,1.24c8.8507,3.1424,17.2811,7.5575,25.7726,11.5371a87.2582,87.2582,0,0,0,10.5954,4.61A1.6586,1.6586,0,0,0,958.35,441.72l3.5963-21.278,7.2929-43.15,5.7455-33.994c.582-3.444,1.3126-6.9114,1.5584-10.3926a43.181,43.181,0,0,0-8.4145-28.3807c-6.0688-8.3516-14.3589-14.8644-23.2255-20.0308a118.8775,118.8775,0,0,0-13.4712-6.6987c-2.4095-1.0214-4.8782-1.7892-7.3654-2.6023-3.8893-1.2714-7.7725-2.7877-11.74-3.7963l-9.5086-2.4171L863.337,258.9443l-37.15-9.4438q-3.2968-.838-6.5936-1.6761A135.6693,135.6693,0,0,0,786.31,243.76H745.9678a1.6508,1.6508,0,0,0,0,3.3H779.949c6.427,0,12.8364-.0372,19.247.56a139.5908,139.5908,0,0,1,21.4486,3.8768l30.863,7.8455,42.0413,10.6871,14.1652,3.6009c1.7892.4548,3.5918.8611,5.3468,1.4348l9.4562,3.0912c2.2477.7348,4.5553,1.3731,6.7419,2.2784a99.5557,99.5557,0,0,1,26.116,15.3436c7.45,6.2738,13.7991,14.1719,16.5136,23.6611a39.3948,39.3948,0,0,1,1.1891,15.2705c-.1723,1.531-.485,3.0391-.7416,4.5571l-4.671,27.6368L960.34,410.2441l-4.9254,29.142-.2463,1.4571,2.03-1.1522a73.282,73.282,0,0,1-8.8394-3.8242c-4.5453-2.1217-9.0692-4.2892-13.6237-6.3913-4.2247-1.95-8.47-3.8966-12.8272-5.5362-4.9662-1.8688-10.2743-2.3953-15.5214-2.9841a103.3955,103.3955,0,0,0-22.4616-.4987l1.5909,2.0884,5.2727-24.48,8.37-38.86,1.9221-8.9237a1.6724,1.6724,0,0,0-1.1523-2.0295l-10.5295-2.1059-25.2864-5.0573L833.52,334.97l-26.4448-5.2889c-4.2785-.8558-8.55-1.8013-12.8455-2.5691-.06-.0107-.1194-.0239-.179-.0358-2.0736-.4148-2.9609,2.7649-.8771,3.1817Z"/><path d="M956.6183,441.0337c.64-3.6806-7.5356-8.4008-20.1232-12.2886l-5.105,16.9516C945.6736,446.5719,955.9444,444.91,956.6183,441.0337Z"/><path d="M958.2092,441.4722c.5046-3.51-2.7036-5.9494-5.3485-7.6149-4.8609-3.0608-10.4734-5.0068-15.927-6.703a1.6755,1.6755,0,0,0-2.0294,1.1522l-5.1051,16.9516a1.67,1.67,0,0,0,1.5909,2.0884c6.1654.3666,12.5054.4825,18.5992-.69,2.9153-.5612,7.5173-1.7212,8.22-5.1838.4206-2.073-2.7591-2.96-3.1817-.8771a1.9319,1.9319,0,0,1-.1007.3844c.0934-.2126.0487-.1076-.0329.0351-.1513.2641.0622.0273-.2794.3537a5.1346,5.1346,0,0,1-1.3582.8875,18.5848,18.5848,0,0,1-5.0416,1.3784,76.1483,76.1483,0,0,1-16.8246.4127l1.5908,2.0884,5.1051-16.9516-2.0295,1.1523a69.2927,69.2927,0,0,1,14.0909,5.74,17.0906,17.0906,0,0,1,3.8178,2.78,4.2886,4.2886,0,0,1,.8736,1.1653,1.1684,1.1684,0,0,1,.16.4743c.005.0255-.0019.3132.0289.0992a1.7077,1.7077,0,0,0,1.1522,2.0294A1.66,1.66,0,0,0,958.2092,441.4722Z"/><path class="cls-3" d="M759.4284,281.8072c31.3458,3.8495,43.71-17.9226,43.71-17.9226l23.0968-14.97A25.4716,25.4716,0,0,0,837.8527,227.54h0a25.4717,25.4717,0,0,0-26.6282-25.4454L762.9187,204.29q-.6923.0315-1.399.083c-21.261,1.55-38.6436,17.6126-42.5428,38.57l-.83,4.4635a30.1842,30.1842,0,0,0,4.2439,22.07c3.5417,5.4037,9.39,10.426,19.0329,11.7653"/><path d="M759.4284,283.457c12.3261,1.4737,25.1534-.8138,35.25-8.33a41.2866,41.2866,0,0,0,7.713-7.36c.64-.8043,1.2631-1.6263,1.8225-2.4892a2.3677,2.3677,0,0,0,.318-.5089c.01-.0341-.9553.7134-.3428.3981,1.0706-.551,2.0733-1.3437,3.0824-1.9978l5.5562-3.6012,11.4517-7.4225c3.55-2.301,6.9269-4.6318,9.5581-8.0393a27.3594,27.3594,0,0,0,5.35-20.6251c-1.9608-13.5664-14.3654-23.5764-27.9747-23.0362-6.1959.246-12.39.5632-18.584.8448L766.36,202.484c-2.8235.1284-5.6341.2352-8.4378.6386a47.3489,47.3489,0,0,0-19.1526,7.278,49.9111,49.9111,0,0,0-21.4816,32.6315c-.4505,2.4215-.9722,4.8439-1.1957,7.3a31.9953,31.9953,0,0,0,1.3167,12.408,29.0544,29.0544,0,0,0,12.822,16.472,29.9778,29.9778,0,0,0,10.7538,3.621,1.7073,1.7073,0,0,0,2.0294-1.1523,1.66,1.66,0,0,0-1.1523-2.0294c-6.745-.9809-12.8855-4.0606-17.0389-9.567a28.6274,28.6274,0,0,1-5.0856-22.2384,64.6527,64.6527,0,0,1,3.8293-14.4128,46.5609,46.5609,0,0,1,11.3375-15.8857,45.7,45.7,0,0,1,29.1024-11.6566l22.3181-1.0145,23.2264-1.0557a28.5073,28.5073,0,0,1,10.1133,1.0293,23.8258,23.8258,0,0,1,15.0919,30.8775,24.49,24.49,0,0,1-9.9938,12.1774l-20.0144,12.9723a10.1692,10.1692,0,0,0-3.3991,2.7609c-.2027.3117-.4147.6174-.6316.9194-.1378.1917-.2791.3807-.42.57-.1934.2594-.0357.0491-.0526.0707q-.15.192-.3026.3823a38.0234,38.0234,0,0,1-2.9672,3.2747,41.9876,41.9876,0,0,1-26.7127,11.64,58.3336,58.3336,0,0,1-10.8338-.3378,1.6607,1.6607,0,0,0-1.65,1.65,1.6879,1.6879,0,0,0,1.65,1.65Z"/><path class="cls-1" d="M916.82,424.1023c-13.0359-2.2659-24.9067-2.877-32.8954-1.996l-2.5657,11.9986-3.7811,17.6827,49.0859,9.6036,4.7266-15.6945,5.105-16.9516A160.96,160.96,0,0,0,916.82,424.1023Z"/><path d="M917.2584,422.5114c-10.8917-1.878-22.285-3.24-33.334-2.0549a1.7034,1.7034,0,0,0-1.5908,1.2112l-5.1687,24.1715-1.1782,5.51a1.6721,1.6721,0,0,0,1.1523,2.0295l16.6,3.2477,26.4407,5.1731,6.045,1.1827a1.691,1.691,0,0,0,2.0295-1.1523l7.8822-26.1732,1.9494-6.4728a1.6776,1.6776,0,0,0-1.1523-2.0294,162.464,162.464,0,0,0-19.6753-4.6429c-2.0767-.3638-2.9683,2.8154-.8772,3.1817a162.46,162.46,0,0,1,19.6753,4.6429l-1.1522-2.0295q-3.8949,12.933-7.79,25.866l-2.0419,6.78,2.0294-1.1523-16.6-3.2478-26.4407-5.173-6.045-1.1827,1.1522,2.0294q2.4412-11.4168,4.8826-22.8335l1.4643-6.8478-1.5909,1.2112c10.7575-1.1542,21.85.108,32.4568,1.937C918.458,426.0512,919.35,422.8721,917.2584,422.5114Z"/><line class="cls-2" x1="896.8681" y1="362.0125" x2="904.7832" y2="325.7798"/><path d="M898.4589,362.4511l6.9366-31.7534.9785-4.4794c.4522-2.07-2.728-2.954-3.1817-.8771l-6.9366,31.7534-.9785,4.4793c-.4521,2.07,2.728,2.954,3.1817.8772Z"/><path class="cls-1" d="M740.1668,248.9l-.391-20.3493c-8.4515-1.6554-15.6549-5.0021-18.7013-10.093-8.9913-15.0249.8691-65.86.8691-65.86l60.8692.8032s5.8258,51.7865-.8691,65.86c-1.3589,2.8565-4.3033,5.1393-8.2089,6.8379l1.459,16.4722a17.6042,17.6042,0,0,1-8.2666,16.52l-.4682.29a17.6042,17.6042,0,0,1-26.2922-10.48Z"/><path d="M741.8166,248.9l-.391-20.3493a1.6744,1.6744,0,0,0-1.2112-1.5908c-7.08-1.4139-15.9445-4.2493-18.7564-11.4436-2.0042-5.1282-2.3586-10.8681-2.4854-16.3148-.2923-12.5478,1.1692-25.1676,3.0932-37.549.4472-2.8781.9146-5.7566,1.4686-8.6164l-1.5908,1.2112,20.6149.272,32.7156.4317,7.5387.1-1.65-1.65c.7865,7.0017,1.3259,14.0394,1.7414,21.0717.6946,11.7527,1.32,23.8669-.2935,35.5716a36.27,36.27,0,0,1-1.6278,7.2431,8.7076,8.7076,0,0,1-.4321,1.0733,9.3975,9.3975,0,0,1-1.6381,2.3988,18.2749,18.2749,0,0,1-6.0107,3.9151,1.5923,1.5923,0,0,0-.8171,1.4245c.4861,5.4884,1.0221,10.9748,1.4584,16.4673a16.1607,16.1607,0,0,1-7.1315,14.8986,16.3735,16.3735,0,0,1-13.7228,2.2567,16.0249,16.0249,0,0,1-10.9315-11.26c-.5406-2.0515-3.7242-1.1814-3.1817.8772a19.4437,19.4437,0,0,0,26.9628,12.4228,19.732,19.732,0,0,0,11.0459-14.1378c.6292-3.5627.0718-7.1648-.2442-10.7327l-.9559-10.7921-.8171,1.4246c3.6083-1.6006,7.2351-3.993,8.9272-7.7033a27.0187,27.0187,0,0,0,1.8373-6.1085,98.6153,98.6153,0,0,0,1.4511-17.0365,338.5963,338.5963,0,0,0-1.5484-35.3469c-.2323-2.6445-.4758-5.2893-.7721-7.9275a1.6928,1.6928,0,0,0-1.65-1.65l-20.615-.272-32.7155-.4317-7.5387-.1a1.6657,1.6657,0,0,0-1.5909,1.2112c-1.6051,8.2861-2.7488,16.6915-3.6076,25.0844a180.5589,180.5589,0,0,0-1.09,20.998c.0852,5.8218.4123,11.9868,2.3855,17.52a17.4789,17.4789,0,0,0,6.2538,8.4342c4.3566,3.218,9.7929,4.8976,15.0431,5.9461l-1.2112-1.5909.3911,20.3493C738.5578,251.02,741.8575,251.0274,741.8166,248.9Z"/><path d="M752.215,226.7287c-.1152.02-.2309.0382-.3465.0561-.1379.0213-.2764.0393-.4143.0607-.2971.046.2893-.036.0614-.0081-.1031.0127-.2061.0265-.3092.0391q-1.7486.2145-3.51.3a35.0645,35.0645,0,0,1-9.85-.7329c-2.0644-.4908-2.9454,2.69-.8772,3.1817a40.4853,40.4853,0,0,0,16.1226.2855,1.6639,1.6639,0,0,0,1.1523-2.03,1.6869,1.6869,0,0,0-2.0294-1.1522Z"/><path d="M739.3621,182.6377a9.2632,9.2632,0,0,1,.7825-.695c.2245-.1894-.3452.25-.0909.07.08-.0568.1581-.1171.2382-.1742q.2473-.1764.5034-.34a12.2517,12.2517,0,0,1,1.2917-.7209c.1279-.0616.2575-.1188.3865-.178-.2556.1172-.0883.0359.0731-.0268q.4339-.1688.88-.3025.4039-.1208.8161-.2116c.1908-.0419.383-.0734.5746-.1106.3572-.0694-.244.0137.16-.0235a10.2908,10.2908,0,0,1,4.3608.4365,1.65,1.65,0,0,0,.8771-3.1817,13.403,13.403,0,0,0-9.5752.6466,11.7546,11.7546,0,0,0-3.6111,2.4784,1.65,1.65,0,0,0,2.3331,2.3331Z"/><path d="M719.2679,183.0591c-.4657.2058-.2009.0826.0963-.0211a12.5416,12.5416,0,0,1,1.258-.3606,14.1531,14.1531,0,0,1,4.3452-.3234,5.4742,5.4742,0,0,1,4.8807,4.0375c.5872,2.2172-.416,4.7272-1.4726,6.6533A20.2428,20.2428,0,0,1,725.65,196.85a3.606,3.606,0,0,0-1.19,1.8909,4.6707,4.6707,0,0,0,.0123,1.7888c.6749,2.8961,3.9935,3.0678,6.4068,2.8205a1.697,1.697,0,0,0,1.65-1.65,1.6611,1.6611,0,0,0-1.65-1.65,8.2966,8.2966,0,0,1-2.9539-.0625c-.4728-.1717-.1167-.278-.1883-.0253.07-.2461-.0906-.4168-.0237-.7639l-.4243.728c3.9135-4.0949,8.2247-11.0524,4.7708-16.6861-2.971-4.8458-9.6661-5.1471-14.4567-3.0307a1.6612,1.6612,0,0,0-.5919,2.2572,1.691,1.691,0,0,0,2.2572.5919Z"/><path d="M765.6353,196.3423a31.7323,31.7323,0,0,1,1.1917-3.4448,1.5188,1.5188,0,0,0,.14-.3414c-.0246.2529-.125.29-.0564.1344.0256-.058.05-.1165.0754-.1746q.1741-.3995.3606-.7936c.232-.4894.4791-.9718.7473-1.4425.2618-.4593.5474-.9011.8519-1.3331.2466-.35-.1528.1721.02-.0317.077-.0912.15-.1856.2282-.276a7.1738,7.1738,0,0,1,.5331-.5586c.048-.045.3023-.2121.3075-.2679-.0016.0168-.3524.2472-.1457.1135.0541-.035.1052-.0748.159-.11.0944-.0623.1911-.1214.2908-.1752.0419-.0226.09-.0422.1311-.0674.2331-.1442-.3885.1254-.1283.0516.1024-.029.2007-.0693.3045-.0951.0453-.0113.0922-.0178.137-.03.2644-.0739-.141.043-.1961.0242a1.4674,1.4674,0,0,0,.3519-.0065c.39,0-.4032-.0835-.0079.0038a1.65,1.65,0,1,0,.8771-3.1817c-2.6956-.5954-4.7324,1.4055-6.0846,3.4876a27.4766,27.4766,0,0,0-2.8208,6.2026c-.16.4749-.3156.9528-.4489,1.436a1.65,1.65,0,1,0,3.1817.8772Z"/><circle cx="723.3843" cy="189.3922" r="2.1383"/><path d="M724.6975,189.4205c-.0008.0285.01.1579-.01.1782.0255-.0257.0316-.1628.0056-.0454-.0209.0941-.04.1872-.07.279l-.0183.054q-.0483.1266.02-.0392a.4516.4516,0,0,1-.0486.1016c-.0266.0518-.116.2631-.1759.2858l.0609-.0786c-.0174.0217-.0355.043-.054.0637-.0323.0333-.0622.0688-.0951.1016-.0262.0262-.0532.0518-.0807.0767l-.0418.0367q-.1031.0846.0358-.0254c-.0153.0495-.1968.1281-.2359.1494-.0329.0179-.067.0334-.1.0511-.14.0758.1622-.0427-.0383.0126-.0924.0254-.1821.055-.2765.0733-.14.0272-.0334.0535.0178,0-.017.0178-.12.0083-.1474.009-.05.0014-.1.0013-.1495-.0007-.0191-.0008-.206.0065-.0669-.0006.1292-.0065-.0336-.0068-.0631-.013q-.0844-.0176-.1674-.0419c-.0252-.0074-.1493-.0319-.1619-.0548.0009.0015.1841.0911.0414.0161-.0831-.0437-.1657-.0861-.2444-.1374-.012-.0079-.1641-.1136-.0526-.033s-.0332-.031-.0453-.0419c-.0518-.0468-.2183-.1739-.23-.242.01.0606.0829.121.0288.0331-.0293-.0477-.0616-.0931-.09-.1416-.0187-.0323-.0367-.0652-.0537-.0984l-.0249-.05q-.0559-.1227.0162.0417c-.0453-.025-.0727-.2242-.0841-.272-.0089-.0375-.0157-.0752-.0235-.1129-.0344-.1663.0112.1779-.001-.042-.005-.09.0016-.1785.0015-.2681,0-.2-.0405.18-.0007-.0136.0077-.0379.0146-.0758.0235-.1134.0116-.0489.0383-.2466.0842-.2729l-.04.0925q.023-.0515.0486-.1016.0384-.0749.0825-.1467a1.3716,1.3716,0,0,0,.0772-.1164c.0476-.1-.1315.1427-.0091.0131.0641-.0679.1246-.1365.1942-.1992.0124-.0112.1557-.12.0453-.0418-.1123.08.04-.025.0525-.0328.066-.0431.22-.1683.2951-.1609-.004,0-.1926.066-.04.02.0547-.0164.108-.0359.1633-.05.0369-.01.0743-.0187.1117-.0265.03-.0062.1919-.0067.0623-.0131-.1394-.0068.0466,0,.066-.0006.05-.0021.0994-.0022.1492-.0009.028.0008.13-.0092.1483.0089q-.1828-.0277-.0453-.0056l.0569.0111c.053.011.2988.0422.3293.0967l-.0925-.04q.0387.0171.0764.0362c.0574.0318.1159.0605.1719.095.0317.0195.0619.0417.0936.0611q.1082.0781-.033-.0287.0432.0351.0846.0724c.0692.0625.13.1318.194.1993.13.1367-.0916-.1512.0069.01.0292.0478.0615.0931.09.1416s.0521.0992.0786.1488c.0767.1435-.0458-.1584.0034.0115.0321.111.0627.2186.088.3317.0266.1191.0173-.0244-.0055-.0462.0287.0275.01.1974.01.2371a.8249.8249,0,0,0,1.65,0,3.01,3.01,0,0,0-1.9508-2.81,2.9579,2.9579,0,0,0-3.2385.83,2.9613,2.9613,0,1,0,5.1893,1.98.8321.8321,0,0,0-.8249-.8249A.8411.8411,0,0,0,724.6975,189.4205Z"/><circle cx="743.3741" cy="189.5944" r="2.1383"/><path d="M744.6854,189.6893l-.0035.06q-.0136.14.01-.043a.7136.7136,0,0,0-.0211.1149,2.752,2.752,0,0,1-.0785.2767c-.0594.184.0882-.1563-.0047.0121-.0181.0329-.0337.0672-.0518.1q-.0407.0737-.087.144l-.0314.0463q-.0786.1078.0278-.0335c-.0033.0476-.1564.1715-.19.2032-.0271.0254-.0558.0488-.083.074-.1382.1281.1515-.0908-.01.0059-.08.048-.1566.1-.24.142a.447.447,0,0,1-.1015.048q.1662-.069.04-.0211c-.0268.0094-.0537.0182-.0809.0262-.0919.028-.1847.046-.2787.0647-.1185.0237.2088-.0057.017-.0063-.0491,0-.0984.0046-.1476.0044s-.1-.0049-.1494-.0054c-.194-.002.133.0305.0142.0046a3.11,3.11,0,0,1-.3087-.0761l-.054-.0186q-.1266-.0486.0391.0193a.4692.4692,0,0,1-.1017-.0493c-.0837-.0433-.16-.095-.24-.145-.1511-.0948.0822.0946.0122.01a1.26,1.26,0,0,0-.1037-.093q-.05-.0483-.097-.1-.0285-.0306-.0553-.0625-.0843-.1033.0262.0353c-.0443-.0092-.13-.2035-.1481-.2364s-.0331-.067-.0506-.1c-.0885-.1681.0484.1724-.0022-.0114-.0253-.0919-.0565-.1808-.0756-.2745-.0074-.0363-.01-.0788-.02-.1136.0625.2072.009.0308.0072-.0428-.0013-.0517-.0263-.2277.01-.2679l-.0145.1022q.009-.0577.0211-.1149c.008-.0377.017-.0753.027-.1125.015-.0556.0346-.1092.0515-.1641.0474-.1542-.02.036-.0193.039-.01-.0636.1268-.2406.1628-.2952.01-.015.1225-.1531.0338-.0523-.0908.1031.033-.0342.0426-.0448.0631-.0692.1317-.13.2-.193.13-.12-.1126.0543-.0125.01a1.1445,1.1445,0,0,0,.1166-.0764q.0477-.0291.097-.0556t.1-.0506q.123-.0555-.0416.0171c.0182-.0416.2294-.0729.2716-.0827.0373-.0087.0749-.0154.1125-.023.1875-.0375-.1409.004-.0176.004.0991,0,.1968-.0088.2962-.003l.03.0017q.14.0138-.043-.0094a.481.481,0,0,1,.1715.0338c.0559.0135.1114.0292.166.0472q.0408.0132.0808.0285.0869.0332-.0658-.0292c.0689-.0068.2421.1277.2953.1628a.45.45,0,0,1,.0917.064q-.139-.11-.0363-.0246.0421.0365.0823.0751c.051.049.1708.136.1878.2052l-.0616-.0784q.0327.0453.0628.0922.0455.07.0853.1443a.5082.5082,0,0,1,.0739.1511l-.04-.0927c.0133.0353.0258.0709.0372.1068a.8949.8949,0,0,1,.0777.3343c.002-.0083-.012-.2065-.011-.0455,0,.0793.0049.1578.0025.2373a.8317.8317,0,0,0,.8249.8248.8415.8415,0,0,0,.8249-.8248,2.9646,2.9646,0,1,0-2.4544,2.82,2.9822,2.9822,0,0,0,2.4544-2.82.83.83,0,0,0-.8249-.8249A.8437.8437,0,0,0,744.6854,189.6893Z"/><path class="cls-5" d="M720.8779,130.6934c48.0279-24.1934,70.3185,9.3141,76.2817,20.8089,1.785-2.465,4.5364-5.5094,7.8464-6.6568a.943.943,0,0,1,1.0454,1.4766,59.3942,59.3942,0,0,0-5.7765,9.812c.1038.0806.211.1593.3122.2413A12.2642,12.2642,0,0,1,811,153.5637a.9322.9322,0,0,1,.3534,1.6478,37.4612,37.4612,0,0,0-6.168,7.0406c7.688,16.7578-12.8976,46.3143-22.477,55.238l-10.3711-13.5643c3.182-2.42,7.8281-11.7645,7.8993-17.16.1076-8.151-4.2427-10.1267-9.9361-10.2018s-12.1287,10.5971-12.2334,18.5412l1.6365-26.3026s-11.4787-.3979-16.2265-3.3132c.7252,7.9977,3.2743,8.4357,3.2743,8.4357a10.9677,10.9677,0,0,1-13.0642-6.4438c-3.1623,3.1306-2.9311,7.8942-2.9311,7.8942s-9.1049,1.06-11.24-14.0035c-4.4764,10.7779-5.5118,13.7492-5.5118,13.7492s-16.5488-14.2769-6.0852-32.4139A30.8808,30.8808,0,0,1,720.8779,130.6934Z"/><path d="M721.7106,132.118c13.446-6.7377,29.0832-10.94,43.9157-6.486,9.6729,2.905,17.8448,9.2781,24.011,17.1678a63.5575,63.5575,0,0,1,6.0977,9.5351,1.6705,1.6705,0,0,0,2.8491,0,21.7371,21.7371,0,0,1,3.8487-4.1433,11.6211,11.6211,0,0,1,2.3238-1.4722,4.9338,4.9338,0,0,1,.6879-.2831q-.4962-1.7025-1.0195-.6933a5.54,5.54,0,0,0-.7117.9647,61.9458,61.9458,0,0,0-4.8629,8.5937,1.6828,1.6828,0,0,0,.2579,1.9993l.3122.2413a1.7192,1.7192,0,0,0,2.3331,0,10.9074,10.9074,0,0,1,7.3348-2.5837c.1975.0091,1.4532.23,1.4733.1963l-.1873-.5548q.0124-.822-.3243-.4444c-.1177.0265-.3215.2656-.4127.3448a22.8418,22.8418,0,0,0-1.9348,1.9279c-1.1389,1.258-2.188,2.5992-3.1967,3.963-.4635.6267-1.0535,1.2442-.9406,2.08a10.1487,10.1487,0,0,0,.6449,1.7589,18.2913,18.2913,0,0,1,.8206,3.3938,25.4173,25.4173,0,0,1-.08,6.9705c-1.5232,11.0156-7.5219,21.4506-13.8515,30.3887a73.8738,73.8738,0,0,1-9.5571,11.34l2.5911.3339-10.3712-13.5643-.2579,1.9992c3.2612-2.5735,5.2735-7.1577,6.71-10.9286,1.5691-4.1186,2.4534-8.8719.8074-13.1207-1.4851-3.8336-4.8679-5.5919-8.7881-6.0179a9.3035,9.3035,0,0,0-5.2962.7326,14.3033,14.3033,0,0,0-4.7439,4.1036,26.2444,26.2444,0,0,0-5.776,15.2441c-.05,2.137,3.1687,2.1042,3.3,0l1.4335-23.04.203-3.2624a1.6731,1.6731,0,0,0-1.65-1.65c-2.019-.0722-4.0437-.26-6.0457-.5255-3.1225-.4142-6.6-.9268-9.3481-2.5624a1.6616,1.6616,0,0,0-2.4825,1.4245c.2626,2.7109.6194,5.7852,2.1771,8.1138a4.1523,4.1523,0,0,0,2.3084,1.9128v-3.1818a2.2966,2.2966,0,0,1-.3415.0866c-.1344.018-.27.0552-.4033.0823-.1271.0259-.6019.09-.2316.0437a11.6672,11.6672,0,0,1-2.9947.0036c-3.4368-.5093-5.78-2.8543-7.23-5.9018a1.6618,1.6618,0,0,0-2.5911-.3339,12.6149,12.6149,0,0,0-3.4143,9.0608l1.65-1.65a1.8386,1.8386,0,0,1-.3812.0161c-.2179-.023-1.1037-.1035-.5864-.0194a6.673,6.673,0,0,1-2.9473-1.08c-3.734-2.3293-5.11-7.4781-5.7346-11.7093a1.6546,1.6546,0,0,0-1.5908-1.2112,1.7323,1.7323,0,0,0-1.5909,1.2112c-1.8884,4.55-3.8848,9.0956-5.5118,13.7493l2.7574-.728a28.3255,28.3255,0,0,1-6.6507-8.9541,22.5664,22.5664,0,0,1,1.2333-22.1483,29.7458,29.7458,0,0,1,11.9572-10.7345c1.8912-.9668.2236-3.8147-1.6654-2.8491-9,4.6007-16.161,13.296-17.1431,23.5772-.6951,7.2763,2.2413,14.312,6.6922,19.93a25.8159,25.8159,0,0,0,3.2434,3.5119,1.674,1.674,0,0,0,2.7574-.728c1.627-4.6536,3.6234-9.2,5.5118-13.7492h-3.1817c.7508,5.0871,2.5725,10.6486,7.107,13.59a9.3806,9.3806,0,0,0,5.7242,1.6251,1.6821,1.6821,0,0,0,1.65-1.65,9.3019,9.3019,0,0,1,2.4479-6.7277l-2.5911-.3339a12.6888,12.6888,0,0,0,8.9884,7.3815,13.0731,13.0731,0,0,0,5.9389-.1794c1.4673-.436,1.6717-2.86,0-3.1818a.4913.4913,0,0,1-.0988-.03c.6175.2641.1163-.0054.0974.0116-.0432.0391.0259.0137.0767.0629-.0595-.0575-.1287-.1078-.1826-.1711-.3056-.3586-.0786-.0145-.3149-.4006a14.8468,14.8468,0,0,1-1.6409-6.3179l-2.4825,1.4246c3.0629,1.8228,6.8081,2.4423,10.2878,2.9161,2.2438.3055,4.5071.5413,6.7714.6223l-1.65-1.65-1.4335,23.04-.203,3.2624h3.3a22.7921,22.7921,0,0,1,3.8894-11.5907c1.6683-2.573,4.0721-5.4279,7.3983-5.2807,2.74.1213,5.5587.8854,6.7847,3.5807,1.53,3.3632.7156,7.3367-.4587,10.66a35.07,35.07,0,0,1-2.8887,6.1535,14.477,14.477,0,0,1-3.2712,4.1315,1.6426,1.6426,0,0,0-.2579,1.9992l10.3711,13.5644a1.6818,1.6818,0,0,0,2.5911.3338c5.6872-5.3262,10.3682-11.9492,14.3883-18.5846,4.7012-7.76,8.8247-16.3835,9.9874-25.47a24.3307,24.3307,0,0,0-1.6408-13.1829v1.6654a39.8417,39.8417,0,0,1,4.6669-5.6121c.7925-.7649,1.8055-1.3544,2.03-2.5119a2.5724,2.5724,0,0,0-1.6075-2.8877c-2.1877-.8574-5.1393-.4719-7.3009.2814a16.1779,16.1779,0,0,0-4.9786,2.8543h2.3331l-.3121-.2413.258,1.9993c.9517-1.9577,1.96-3.89,3.0633-5.7671.6254-1.0636,1.28-2.1124,2.0033-3.1129.7309-1.0115,1.4545-1.9051.9752-3.22-1.0979-3.012-4.5818-1.2273-6.3525.0092a24.6071,24.6071,0,0,0-5.6538,5.7935h2.8491a61.2778,61.2778,0,0,0-15.54-19.34A48.3848,48.3848,0,0,0,748.8,120.6156c-10.0937.7492-19.758,4.1451-28.7548,8.6533C718.1465,130.22,719.8155,133.0676,721.7106,132.118Z"/><path class="cls-1" d="M552.0206,461.06l-7.7343,4.8108a18.2091,18.2091,0,0,1-16.102,1.5532l-.1509-.0575h0a14.1892,14.1892,0,0,0-14.5325,5.6673l-1.96,2.7631c-3.3136,7.2-9.1168,8.799-13.7639,4.7093-2.3473,3.5417-12.6976,3.5587-16.4574-1.2894-11.6567,6.1241-15.0942-2.8384-15.0942-2.8384-16.2791,7.0039-14.9825-7.5709-14.9825-7.5709l12.1039-32.9591a22.58,22.58,0,0,1,21.1578-10.3515l26.6092,1.8288,10.6834-7.5056"/><path d="M551.188,459.6351l-6.6423,4.1315c-3.77,2.3452-7.8479,3.717-12.3485,3.0261A27.5649,27.5649,0,0,1,528.51,465.79a12.5212,12.5212,0,0,0-3.4333-.386,16.0461,16.0461,0,0,0-7.4724,1.8737,16.3765,16.3765,0,0,0-5.5591,4.9677,24.2942,24.2942,0,0,0-2.2008,3.284c-1.0864,2.1748-2.7083,4.4668-5.1238,5.2648a5.97,5.97,0,0,1-5.7768-1.4546,1.6826,1.6826,0,0,0-2.5912.3339c-1.14,1.6166-4.4692,1.7869-6.42,1.6768-2.7607-.1557-5.662-1.0885-7.446-3.3a1.6681,1.6681,0,0,0-1.9993-.258c-3.1468,1.6206-7.1667,2.8933-10.3305.8273a5.3094,5.3094,0,0,1-1.1029-.9371q-.2577-.2683-.4919-.5582c.2126.2625-.1492-.2095-.2093-.2989-.1914-.2847-.3556-.5812-.5194-.882-.1962-.36-.1275-.2882-.0166-.0035a1.69,1.69,0,0,0-2.4235-.986c-2.4458,1.0362-5.5242,2.0826-8.1324,1.5686a5.4077,5.4077,0,0,1-2.0785-.8694,4.0889,4.0889,0,0,1-1.3133-1.5846,3.3,3.3,0,0,1-.345-.7238,10.8763,10.8763,0,0,1-.3311-1.0645c-.0811-.3191-.14-.6412-.2012-.9646-.0308-.1635-.0615-.4556-.02-.108-.02-.17-.0385-.3406-.0531-.5114a13.0783,13.0783,0,0,1-.0478-1.3771,3.5149,3.5149,0,0,0,.0135-.3765c-.03-.3337.0383.211-.0478.2979a7.344,7.344,0,0,0,.7935-2.1608l1.87-5.091,5.1286-13.965,3.9265-10.6918a9.7965,9.7965,0,0,1,2.3536-3.4381,21.0266,21.0266,0,0,1,9.4019-5.9424c4.0749-1.23,8.1518-.8077,12.3064-.5222l14.3966.9895,5.9668.41c.9086.0624,2.131.3589,2.98-.0874a38.5355,38.5355,0,0,0,3.9242-2.757l5.6734-3.9858,1.0732-.7539c1.7244-1.2115.0775-4.0736-1.6654-2.8491l-9.7958,6.882a4.3491,4.3491,0,0,0-.6815.4787c-.4256.4572.3525-.2193.5992-.0823a3.21,3.21,0,0,0-.9969-.0685l-5.4022-.3713-15.1084-1.0384c-4.2019-.2888-8.3816-.7748-12.5492.154a24.37,24.37,0,0,0-10.4625,5.2856c-1.8836,1.6094-4.0465,3.753-4.9338,6.1083-1.2055,3.2-2.358,6.4207-3.5367,9.63L452.6885,460.1l-2.05,5.5836c-.3171.8635-.7411,1.7475-.97,2.64a11.0757,11.0757,0,0,0,.8335,6.2968c1.9234,4.6927,6.5988,5.9067,11.2655,4.9533a28.0036,28.0036,0,0,0,5.2906-1.7711l-2.4235-.986a9.9686,9.9686,0,0,0,4.0126,4.7511c4.2363,2.6273,9.3949,1.19,13.5051-.9267l-1.9993-.258c2.3748,2.9437,6.42,4.14,10.0706,4.28,3.1893.1225,7.0186-.5473,8.9779-3.3249l-2.5911.3339c3.6585,3.1261,8.4058,3.6038,12.2512.4945,3.1006-2.507,4.3031-6.5223,6.9853-9.4172a12.7444,12.7444,0,0,1,6.7665-3.8057,12.3564,12.3564,0,0,1,3.94-.163,23.8748,23.8748,0,0,1,3.1623.859,20.1669,20.1669,0,0,0,15.5833-2.457c2.5236-1.5572,5.0362-3.1325,7.5542-4.6987,1.7994-1.1193.1447-3.975-1.6653-2.8491Z"/><path class="cls-2" d="M379.1534,457.7841,397.206,459.43,445.6,463.8421l70.3389,6.4129,83.1687,7.5827,87.5464,7.9817,83.2788,7.5927,70.56,6.4331,48.7248,4.4423c6.16.5617,12.3231,1.2437,18.4935,1.6861,2.5069.18-.6754-.1516.761.0634a34.3169,34.3169,0,0,1,3.4085.699,23.5249,23.5249,0,0,1,5.977,2.2007,36.6869,36.6869,0,0,1,3.2093,1.8713q.7745.5057,1.5212,1.0512c1.1023.8053-1.2094-1.109.532.4281a39.1488,39.1488,0,0,1,5.1248,5.2563c-.6693-.862.0731.1251.1625.2609.4051.6152.8292,1.2141,1.2173,1.8409q.8736,1.4112,1.6163,2.8971c.2758.55.5487,1.1052.7882,1.6726-.1377-.3262-.3678-1.08.0855.2909.4716,1.426.9473,2.8277,1.292,4.2933a31.8691,31.8691,0,0,1,.3209,11.403c-1.0062,5.3086-2.3173,8.111-5.4077,12.6669-.818,1.2059-.3863.5253-.177.2617-.4575.5763-.9426,1.1333-1.4379,1.6773q-.99,1.0875-2.0645,2.0941c-.5371.5032-1.0953.9782-1.6526,1.4584-.1277.11-1.1063.8429-.234.197a35.91,35.91,0,0,1-3.3865,2.2127c-.9606.5557-1.9475,1.0514-2.946,1.5338-2.0649.9974,1.2172-.3365-.9656.39-.4715.157-.9345.3342-1.4079.4874a36.6069,36.6069,0,0,1-3.62.97c-.4931.1053-.9886.1937-1.4845.285-2.2358.4119,1.2383.01-1.05.1221a67.5142,67.5142,0,0,1-8.93-.2134l-15.93-1.3115c-4.0011-.3294-7.424,3.648-7.424,7.424,0,4.2907,3.4114,7.0937,7.424,7.4241l16.6966,1.3746a46.2878,46.2878,0,0,0,26.1669-5.1239c20.4132-11.0066,28.3207-36.5272,18.9532-57.4113-6.7455-15.0388-21.4189-24.1529-37.5146-25.63q-3.7268-.3418-7.454-.68l-39.5888-3.6094-64.9649-5.9229-81.0055-7.3854-88.7936-8.0955-86.4445-7.8813L463.2158,450.6l-55.9484-5.1009-26.9332-2.4555-1.1808-.1077c-3.9984-.3645-7.424,3.6731-7.424,7.424,0,4.3189,3.4142,7.0585,7.424,7.4241Z"/><path d="M379.1534,459.4338l208.5613,19.0149,208.3937,19,57.9822,5.2863,29.4615,2.6861q7.1846.6549,14.3648,1.3519c3.5564.3425,7.69,1.34,11.2252.84,1.59-.2246,1.5611-2.9275,0-3.1817a7.4728,7.4728,0,0,0-1.0563-.1181c-1.9129-.0345-2.1695,2.6749-.4385,3.2407,2.7639.9033,5.6293,1.0344,8.3272,2.2865a34.2,34.2,0,0,1,4.26,2.3921,6.4613,6.4613,0,0,0,2.6572,1.4669c1.4614.1624,2.1222-1.8894,1.1666-2.8163a2.6062,2.6062,0,0,0-1.1621-.7887c-1.5139-.268-2.8968,1.5336-1.6051,2.7574a60.8355,60.8355,0,0,1,5.7876,5.8584c1.3379,1.66,3.6294-.6887,2.3331-2.3332l-.27-.3419c-1.1539-1.4639-3.6348.4517-2.5911,1.9992a47.2841,47.2841,0,0,1,4.0538,7.0135c.7611,1.6858,3.6818.4792,3.0154-1.2713q-.0978-.2423-.1788-.4907l-3.1817.8771c3.57,9.9142,2.5665,20.03-3.8379,28.5555l2.8491,1.6654q.14-.2161.2968-.42c1.0978-1.4991-1.3963-3.4416-2.5912-1.9993a38.2941,38.2941,0,0,1-5.7384,5.684c-1.4548,1.149.4886,3.703,1.9993,2.5911l.3494-.2572c1.6859-1.2408.0724-4.0945-1.6653-2.849a41.7228,41.7228,0,0,1-5.3385,3.2579,5.522,5.522,0,0,0-2.2926,1.4672c-.8463,1.2221.55,2.7774,1.8631,2.4236a4.08,4.08,0,0,0,.9161-.3792,1.6677,1.6677,0,0,0-.3941-3.0154c-1.5128-.2849-3.44.8534-4.8636,1.2348-1.4462.3872-3.6285.3508-4.8154,1.3344-1.1515.9544-.1615,2.7935,1.1666,2.8164a3.8416,3.8416,0,0,0,.9823-.1216c1.2845-.3263,1.7168-2.4142.3941-3.0154-1.7077-.7763-4.3-.1376-6.1176-.1862-3.7678-.1007-7.5308-.5074-11.2857-.8165-5.2905-.4356-11.7214-2.326-15.7461,2.1979a9.06,9.06,0,0,0-.6562,11.4405c3.2686,4.3307,9.1334,3.9107,13.9782,4.31,6.6606.5483,13.3658,1.4451,20.0447.7031a46.6093,46.6093,0,0,0,16.9729-5.2274,44.8481,44.8481,0,0,0,19.3031-20.6393c8.1935-17.8136,4.5748-39.9635-10.1521-53.287a48.9226,48.9226,0,0,0-26.8853-12.0091c-13.9067-1.7025-27.9628-2.5781-41.9159-3.85L693.8315,469.976,521.5326,454.2672l-85.7316-7.8163-42-3.8292L383.14,441.65c-2.5026-.2282-5.0555-.7606-7.4473.254a9.4434,9.4434,0,0,0-5.3993,10.4389c.96,4.2971,4.7529,6.56,8.86,7.0912,2.1.2714,2.08-3.0307,0-3.3-2.5071-.324-4.9074-1.7392-5.5851-4.3121a6.0915,6.0915,0,0,1,3.7162-7.0233c2.3526-.7776,5.7046.1366,8.1.355l10.1.9208,38.6385,3.5227,77.2187,7.04L667.08,470.8365l156.7417,14.29q38.5626,3.5159,77.1252,7.0316c10.43.95,20.0705,2.5978,28.8218,8.7754a41.15,41.15,0,0,1,16.0656,23.6688c4.4658,17.846-3.15,37.5639-19.0224,47.1075a42.5962,42.5962,0,0,1-16.29,5.6723c-6.2025.83-12.3875.0925-18.5834-.4176-4.5725-.3764-13.37.6357-14.5835-5.4086a6.0952,6.0952,0,0,1,3.8088-6.6488c2.797-.9267,6.96.1949,9.8348.4315,3.0273.2493,6.0541.5338,9.0845.7418,1.6677.1144,3.3367.1892,5.0087.19a17.3825,17.3825,0,0,0,2.2392-.0413c.4745-.0619,1.6911.2768.5433-.245l.3941-3.0154c-.29.0738.1983.0091-.1051.0038L909.33,565.79c-.8554.7089.236.212.7956.1.8611-.1721,1.7148-.36,2.5637-.5861.845-.2254,1.6727-.4985,2.5023-.7734.5049-.1673,1.8429-.2286.607-.4614l-.3941-3.0154c-.26.1461.161-.0313-.1278.0466l1.8631,2.4235c-.4165.6013-.4.2593.1147.205a8.4028,8.4028,0,0,0,2.4616-1.265,40.0226,40.0226,0,0,0,3.871-2.4815l-1.6653-2.849-.35.2571,1.9993,2.5912a38.2989,38.2989,0,0,0,5.7384-5.684l-2.5911-1.9993q-.1571.2042-.2968.42c-1.2061,1.7961,1.6044,3.3223,2.8491,1.6654,6.8825-9.1614,8.0045-20.45,4.1705-31.098-.7118-1.9768-3.8739-1.1475-3.1817.8771q.081.2484.1788.4908l3.0154-1.2713a47.3472,47.3472,0,0,0-4.0538-7.0135l-2.5911,1.9993.27.342,2.3331-2.3332a60.8118,60.8118,0,0,0-5.7876-5.8584l-1.6051,2.7575c-.6583-.1166-.7053-.4589-.294-.06l1.1666-2.8163c1.2844.1427-.7348-.848-.9918-1.0164-.6478-.4244-1.3115-.8238-1.9853-1.2053a31.0152,31.0152,0,0,0-3.6522-1.795c-2.5161-1.0161-5.2051-1.1832-7.7379-2.011l-.4386,3.2406c.0607.0011.4944.0515.1792,0v-3.1817a34.1209,34.1209,0,0,1-4.9081-.4549c-1.8143-.1569-3.6273-.3287-5.44-.5033q-6.6149-.6369-13.2316-1.2486l-26.0622-2.3761-52.2721-4.7658-103.7256-9.4568L495.518,466.7434,379.1534,456.1343C377.04,455.9415,377.0526,459.2423,379.1534,459.4338Z"/><path class="cls-1" d="M463.0174,467.6828l15.0295-19.9859c1.1854-1.7378,10.0055-3.1927,12.1465-2.9434a5.0352,5.0352,0,0,1,4.5967,4.4378c4.4967-2.9546,10.956-3.6832,10.575,1.2547,5.6743-1.619,10.373-1.66,9.5678,3.2447,7.2287-4.3913,9.27,1.565,7.7754,4.3443l-9.4429,14.991"/><path d="M464.4419,468.5154l9.653-12.8363,4.906-6.5239c.1406-.187.2778-.3773.4222-.5614.0162-.0207.03-.0449.0483-.0643-.3228.3491.2266-.0339-.0776.1176.221-.11.4237-.2572.6484-.3644a21.8508,21.8508,0,0,1,5.6151-1.4906,27.86,27.86,0,0,1,3.1914-.392c.3608-.02.7194-.0111,1.08-.0176.1719-.0031.6615.1034.0528-.0118a3.56,3.56,0,0,1,3.2176,3.2592,1.66,1.66,0,0,0,2.4236.9859c1.6211-1.04,8.2963-4.22,8.0925-.17a1.6639,1.6639,0,0,0,2.0884,1.5909c1.8611-.5214,8.0688-2.5054,7.5383,1.2152a1.6739,1.6739,0,0,0,2.4235,1.8631c1.1638-.6866,2.6583-1.5353,4.0772-1.3241a1.79,1.79,0,0,1,1.4709,1.1677,2.72,2.72,0,0,1-.4141,2.8536l-6.8042,10.802-2.2544,3.579c-1.135,1.8019,1.7189,3.46,2.8491,1.6653l6.5939-10.4682c1.9827-3.1478,4.9987-6.5946,2.6845-10.4583-2.2121-3.6933-6.8337-2.4563-9.8682-.666l2.4235,1.8631c.371-2.6019-.3279-5.0852-3.0516-5.97-2.71-.8807-5.9055-.0435-8.5456.6962l2.0884,1.5908a4.7721,4.7721,0,0,0-4.6-5.1995c-2.9394-.2894-6.0294.9633-8.4571,2.52l2.4235.9859c-.6031-3.8975-4.0721-5.889-7.7483-5.6382a38.3,38.3,0,0,0-6.7417,1.1045c-1.8148.4594-3.99,1.0066-5.195,2.5489-3.6074,4.619-7.0514,9.3752-10.5738,14.0592l-4.5293,6.023c-1.2765,1.6975,1.5869,3.3437,2.8491,1.6653Z"/><path class="cls-1" d="M491.4159,434.8858,476.2581,448.449a5.1385,5.1385,0,0,0-.2638,7.4051h0a5.1386,5.1386,0,0,0,6.2618.8731l17.3411-10.0235a26.2845,26.2845,0,0,0,29.7768,5.6445"/><path d="M490.2493,433.7192c-5.0149,4.4874-10.1258,8.8864-15.0531,13.47a6.7844,6.7844,0,0,0,6.6676,11.5122,20.3033,20.3033,0,0,0,3.2829-1.7388l5.4335-3.1407,9.85-5.6933-1.9992-.258c4.8327,5.4418,12.7747,8.5446,19.9306,8.52a29.8983,29.8983,0,0,0,11.4514-2.4511,1.708,1.708,0,0,0,1.1523-2.0294,1.6588,1.6588,0,0,0-2.0295-1.1523,25.5581,25.5581,0,0,1-17.1046,1.4181,26.0317,26.0317,0,0,1-9.4906-5.1321,16.5053,16.5053,0,0,1-1.5765-1.5062,1.6694,1.6694,0,0,0-1.9992-.258l-16.8234,9.7243c-1.5639.904-3.4016,1.1233-4.78-.3159a3.5681,3.5681,0,0,1,.4267-5.2176c2.481-2.2629,5.006-4.4794,7.5084-6.7186l7.4865-6.6989c1.5857-1.419-.7542-3.746-2.3332-2.3332Z"/><path class="cls-1" d="M895.158,453.7945l-26.5422-3.489a22.58,22.58,0,0,0-21.4393,9.7553l-10.7,15.8069a21.275,21.275,0,0,0,.0991,23.9978s3.4806,6.0708,10.484,2.6669c7.1242,3.25,7.945,3.337,11.9007,1.2684,3.3435,3.6766,10.4072,3.5994,12.59,2.587,2.5227,3.5892,6.7854,5.3653,10.7054,2.217l3.4911-8.4171a13.5821,13.5821,0,0,1,16.407-7.818h0a16.3775,16.3775,0,0,0,19.2679-11.6427l6.4386-23.31"/><path d="M895.158,452.1447l-16.3374-2.1475c-6.4559-.8486-13.186-2.416-19.603-.5765a24.6393,24.6393,0,0,0-13.4752,9.8216c-1.3562,1.9731-2.6846,3.9658-4.0268,5.9484L835.91,473.767a25.4348,25.4348,0,0,0-4.4962,10.7814,23.0328,23.0328,0,0,0,4.0068,16.5556,9.9469,9.9469,0,0,0,4.1537,3.4125c2.776,1.1792,5.6557.6817,8.3176-.56h-1.6653c2.5137,1.1442,5.1742,2.59,7.9707,2.8529a10.1651,10.1651,0,0,0,5.5954-1.5844l-1.9993-.258c3.3777,3.5545,10.0853,4.8028,14.59,2.845l-2.2572-.5919c2.778,3.8161,7.467,6.1042,11.9184,3.5293a3.9916,3.9916,0,0,0,1.8241-1.759c.1482-.3178.27-.6508.4043-.9747l1.5569-3.7536c1.062-2.56,1.812-4.9567,3.7163-6.9924a11.9991,11.9991,0,0,1,10.96-3.6082,23.3165,23.3165,0,0,0,6.21.7,18.3928,18.3928,0,0,0,6.1186-1.48,17.9474,17.9474,0,0,0,8.9447-8.4972,30.312,30.312,0,0,0,1.8128-5.3154l2.0153-7.296,3.8441-13.9171a1.6512,1.6512,0,0,0-3.1817-.8771l-6.21,22.4833c-1.56,5.6462-5.5371,10.0545-11.4043,11.3251a14.2571,14.2571,0,0,1-5.5317.0972,24.27,24.27,0,0,0-5.2874-.7185,15.4285,15.4285,0,0,0-10.1448,4.2859c-2.1679,2.091-3.2862,4.6976-4.4121,7.412l-2.614,6.3025.7581-.986a5.219,5.219,0,0,1-4.6054,1.2518,7.256,7.256,0,0,1-3.8427-2.8769,1.7191,1.7191,0,0,0-2.2573-.5918,6.9064,6.9064,0,0,0-.7411.1861,7.9249,7.9249,0,0,1-1.1031.1494,15.2907,15.2907,0,0,1-2.9646-.07,9.44,9.44,0,0,1-5.7822-2.5951,1.6873,1.6873,0,0,0-1.9993-.2579c-1.5787.8207-2.8438,1.4023-4.4563,1.0224a19.0483,19.0483,0,0,1-2.9842-1.046c-.7895-.3322-1.5663-.6932-2.3486-1.0417a2.9306,2.9306,0,0,0-2.8127.0984,6.025,6.025,0,0,1-5.8625-.5984,8.1127,8.1127,0,0,1-1.3579-1.3251c-.1434-.172.1149.181-.1421-.1989-.0564-.0834-.1072-.1707-.1632-.2542a19.97,19.97,0,0,1-2.3519-17.9524c1.0521-2.9475,3.0018-5.4865,4.7421-8.0573l6.2976-9.303c1.9085-2.8194,3.75-5.58,6.5173-7.6754a21.3116,21.3116,0,0,1,15.4592-4.083c2.1589.2625,4.3134.567,6.47.85l20.0243,2.6322c.8909.1171,1.6413-.8422,1.65-1.65a1.69,1.69,0,0,0-1.65-1.65Z"/><path d="M735.99,209.9768l4.33-1.0967.6087-.1541a1.65,1.65,0,0,0-.8772-3.1817l-4.33,1.0966-.6087.1542a1.65,1.65,0,0,0,.8772,3.1817Z"/><path d="M722.2019,421.72c.4755,4.06,1.0487,8.1209,1.3992,12.1941a60.791,60.791,0,0,1-.6668,15.7929,44.7291,44.7291,0,0,1-2.7017,9.8221l-2.7654,6.4673a1.7079,1.7079,0,0,0,.5918,2.2572,1.66,1.66,0,0,0,2.2572-.5919l2.4648-5.7641a49.2857,49.2857,0,0,0,2.9289-9.2274,64.26,64.26,0,0,0,1.3705-15.9219c-.1089-2.7042-.4493-5.3837-.7638-8.0689l-.8152-6.9594a1.7028,1.7028,0,0,0-1.65-1.65,1.6587,1.6587,0,0,0-1.65,1.65Z"/><line class="cls-3" x1="752.6536" y1="262.0291" x2="729.441" y2="421.3849"/><path d="M751.0627,261.5905l-2.3136,15.8829-5.5542,38.13-6.6977,45.98-5.7892,39.7432c-.94,6.451-1.8972,12.9-2.8191,19.3532-.0127.0888-.0259.1775-.0388.2662a1.7072,1.7072,0,0,0,1.1523,2.0294,1.66,1.66,0,0,0,2.0294-1.1522l2.3136-15.8829L738.9,367.81l6.6977-45.98,5.7892-39.7432c.94-6.451,1.8972-12.9,2.8191-19.3533.0127-.0888.0259-.1774.0388-.2662a1.7073,1.7073,0,0,0-1.1523-2.0294,1.66,1.66,0,0,0-2.0294,1.1523Z"/><path d="M753.4874,261.955l11.0668,6.4217a4.2611,4.2611,0,0,1,.75,6.8179h0a4.2611,4.2611,0,0,1-6.81-1.4649Z"/><path d="M752.6547,263.38l5.6479,3.2773,3.7958,2.2026c.6354.3687,1.3243.7017,1.9224,1.132-.1409-.1013.2469.2246.3172.2983-.0276-.029.31.3805.1916.2163-.0989-.1371.0868.1436.1035.1727.0677.1185.1358.2352.1952.3583-.0323-.0669-.0782-.2561.0193.0554.0323.1031.0668.2046.0945.309.0178.0669.0984.486.0592.1948a4.2854,4.2854,0,0,1,.0177.7244c-.01.2913.0963-.3627-.0109.1232-.0234.1063-.0451.2115-.074.3168s-.0615.21-.0988.3119c.0834-.2281-.0091.0222-.0287.0612-.0631.1254-.1346.2441-.2064.3644q-.0666.1084-.1417.2114.0972-.1272-.0121.0025a3.8652,3.8652,0,0,1-.4375.43c.1557-.1287-.2651.1719-.3507.22.0287-.0161-.4433.2107-.2406.1268s-.2826.0871-.2531.0785c-.1013.0293-.2045.0488-.3062.0762-.3276.0883.1847.0237-.1814.0237-.2079,0-.4133.0057-.6212-.0086.3141.0217-.3036-.0709-.3979-.0983a3.4909,3.4909,0,0,1-.3671-.1244c.0818.034.22.1271-.03-.0273-.0989-.061-.6329-.4261-.4451-.2676-.0807-.0681-.1591-.1407-.2342-.2152.0268.0266-.3248-.3566-.1918-.1947.001.0013-.2477-.3771-.3244-.5244-.0683-.1311-.1265-.2661-.1851-.4015-.1307-.302-.2575-.6056-.3863-.9084L757.93,268.22l-3.0181-7.0976a1.66,1.66,0,0,0-2.2572-.5919,1.6939,1.6939,0,0,0-.5919,2.2573l2.8393,6.6769,1.727,4.0614a7.4561,7.4561,0,0,0,1.8531,2.9484,5.91,5.91,0,0,0,9.62-6.0278,6.3516,6.3516,0,0,0-3.1355-3.7385l-3.2564-1.89-7.39-4.2881A1.651,1.651,0,0,0,752.6547,263.38Z"/><path class="cls-6" d="M501.5316,172.4291c-26.8945-2.928-51.6548,21.8681-55.3037,55.3836-2.6838,24.6509,6.8013,47.1521,22.7071,58.4959-17.9743,7.6551-32.0792,27.5881-34.7629,52.239s6.8012,47.1521,22.7071,58.4959c-17.9743,7.6552-32.0792,27.5881-34.763,52.239s6.8012,47.1521,22.7071,58.4959c-17.9743,7.6552-32.0792,27.5881-34.763,52.2391s6.8012,47.1521,22.7071,58.4959c-17.9743,7.6551-32.0792,27.5881-34.763,52.239-3.6489,33.5155,15.1954,63.0589,42.09,65.9869l-.38-.0413c-93.2919-10.1568-170.096-88.5415-195.3329-199.3525l-25.085-110.1442,49.0339-103.0845c48.6268-102.2286,140.2258-161.81,233.2008-151.6877Z"/><path d="M501.5316,170.7793c-19.068-1.9067-36.1076,9.5929-46.0569,25.1924a75.3407,75.3407,0,0,0-7.3422,64.1522c3.8639,10.943,10.53,20.7569,19.97,27.6092V284.884c-33.5735,14.6165-44.0633,60.4357-29.6617,91.796a55.2516,55.2516,0,0,0,17.6058,21.788v-2.849c-33.5735,14.6164-44.0632,60.4356-29.6617,91.7959a55.2526,55.2526,0,0,0,17.6058,21.7881v-2.8491C410.4171,520.97,399.9274,566.79,414.3289,598.15a55.2536,55.2536,0,0,0,17.6058,21.7881v-2.8491c-39.3036,17.1111-47.8168,77.548-19.044,107.553a44.8584,44.8584,0,0,0,27.2036,13.7473v-3.3a195.6679,195.6679,0,0,1-88.0686-32.74c-27.9458-18.8785-51.0978-44.3529-68.785-72.9665-17.6981-28.6314-29.93-60.307-37.4044-93.0742q-5.8683-25.7261-11.719-51.456l-12.7767-56.1005a5.7349,5.7349,0,0,0-.4069-1.7865c-.31-.3767-.6822,1.4714-.0567.7414,1.1315-1.3209,1.7688-3.7188,2.51-5.2766l11.7253-24.65L264.31,336.3961c10.6736-22.4392,22.1963-44.2427,37.0553-64.2739,21.62-29.1461,48.823-54.4346,80.5162-72.2843,29.3434-16.5263,62.449-26.3221,96.2073-26.8494a189.3505,189.3505,0,0,1,23.4424,1.09c2.1081.23,2.0918-3.0718,0-3.3-33.324-3.628-67.1845,1.8827-98.0372,14.8226-32.8821,13.791-62.0418,35.5536-86.0292,61.8155-21.3349,23.3578-38.293,50.0795-51.855,78.5912l-25.9981,54.6559-14.6155,30.7263c-2.3038,4.8435-5.3127,9.78-7.0678,14.8589-.4153,1.2016-.0462,2.1662.23,3.3792l1.9823,8.7038,6.95,30.5165,14.3708,63.1c6.21,27.2651,14.7662,53.7456,27.4826,78.7249,15.6445,30.7313,36.9063,58.857,63.4483,80.9964,24.7413,20.6373,53.9547,35.8827,85.4464,43.0308a196.6787,196.6787,0,0,0,22.255,3.688c2.1148.23,2.0808-3.0545,0-3.3-18.541-2.1834-31.9671-17.3939-37.5168-34.4136a72.2041,72.2041,0,0,1,7.6188-60.2485,53.5462,53.5462,0,0,1,23.4038-20.49c1.2535-.5457.8782-2.2116,0-2.8491-28.45-20.6526-28.4532-66.617-7.6793-92.5234A52.0429,52.0429,0,0,1,445.656,509.203c1.2534-.5457.8782-2.2116,0-2.8491-28.4505-20.6527-28.4532-66.6171-7.6793-92.5235a52.0453,52.0453,0,0,1,19.7351-15.3624c1.2535-.5457.8782-2.2115,0-2.849-28.45-20.6527-28.4531-66.6171-7.6792-92.5235a52.0453,52.0453,0,0,1,19.7351-15.3624c1.2535-.5457.8782-2.2116,0-2.8491-32.8741-23.8638-28.343-82.1532,4.6116-103.8752a41.5717,41.5717,0,0,1,27.1523-6.93C503.6427,174.29,503.6281,170.989,501.5316,170.7793Z"/><path class="cls-7" d="M432.23,618.7551c.18-.0792.3568-.165.5372-.2417-15.9059-11.3438-25.391-33.845-22.7073-58.496s16.7888-44.5838,34.7631-52.2389c-15.9059-11.3439-25.3909-33.845-22.7071-58.496s16.7887-44.5838,34.7629-52.239c-15.9058-11.3438-25.3909-33.845-22.707-58.4959,2.68-24.6217,16.7556-44.5352,34.6994-52.21l-.0391-.105-.0084-.0063c-127.1945-5.0348-214.4,86.4992-249.18,140.246l-.29.6091C261.9619,582.0015,423.3538,616.9443,432.23,618.7551Z"/><path d="M433.063,620.18l.5371-.2417c1.2406-.5583.8915-2.2066,0-2.8491-13.5221-9.7445-20.7451-26.395-22.09-42.6639-1.4374-17.3884,3.233-35.7234,14.1378-49.5194A51.9427,51.9427,0,0,1,445.656,509.203c1.2533-.5408.879-2.2156,0-2.8491-13.5221-9.7446-20.7451-26.395-22.09-42.6639-1.4374-17.3884,3.233-35.7234,14.1377-49.5195a51.9461,51.9461,0,0,1,20.0081-15.7025c1.2534-.5408.8791-2.2156,0-2.849-13.5221-9.7446-20.7451-26.395-22.09-42.6639-1.4362-17.3751,3.2258-35.6913,14.1109-49.4845a51.9746,51.9746,0,0,1,19.9714-15.7089,1.6459,1.6459,0,0,0,.7581-1.8631c-.5343-1.4361-1.6279-1.3256-2.9861-1.3722q-3.08-.1056-6.1612-.1369-5.5434-.0558-11.0858.1325-10.7922.3687-21.5247,1.6718a251.7584,251.7584,0,0,0-40.8462,8.4384,276.14,276.14,0,0,0-70.5737,32.5732,330.2747,330.2747,0,0,0-54.8139,44.2721,340.9716,340.9716,0,0,0-38.0192,44.9448q-1.7632,2.502-3.474,5.04a29.1868,29.1868,0,0,0-3.0028,4.69c-.5583,1.3428.1783,2.7823.56,4.1147q.7149,2.4937,1.4793,4.9729,1.5039,4.8777,3.2,9.6934a247.757,247.757,0,0,0,54.8941,89.4182,282.6087,282.6087,0,0,0,46.9171,39.37,323.8536,323.8536,0,0,0,46.0339,25.718,337.8692,337.8692,0,0,0,37.6734,14.6406c6.9939,2.2383,14.072,4.2756,21.2418,5.8746.6046.1349,1.21.2662,1.8169.39,2.0728.4234,2.9594-2.7564.8771-3.1817-6.9541-1.42-13.8152-3.3808-20.5879-5.4854A330.0953,330.0953,0,0,1,369.1522,594.93a317.1421,317.1421,0,0,1-53.6981-32.0026A264.8578,264.8578,0,0,1,262.9673,511.62,246.3108,246.3108,0,0,1,224.18,437.4841q-1.7354-5.3852-3.235-10.8417l-.1663,1.2712a59.731,59.731,0,0,1,5.1663-7.8857q2.9459-4.2519,6.0362-8.4013,6.8755-9.2412,14.401-17.9746A347.1772,347.1772,0,0,1,283.8348,356.21a310.7757,310.7757,0,0,1,48.394-34.184A267.1548,267.1548,0,0,1,391.04,297.1454a247.4808,247.4808,0,0,1,68.6778-9.4673q2.134.0077,4.2677.0519,1.2073.0249,2.4142.0613.5382.0162,1.0761.0347c.3373.0115,1.1646.3089.5235-.1693l-.7581-.986.039.105.7582-1.8631c-15.5126,6.7224-26.4673,21.2255-31.8486,36.9217-6.0647,17.6894-5.5825,37.8729,2.2873,54.9244a55.0064,55.0064,0,0,0,17.569,21.7093v-2.849c-15.54,6.7055-26.5156,21.2219-31.906,36.9318-6.0712,17.6939-5.5913,37.8855,2.2811,54.9429a55.0088,55.0088,0,0,0,17.569,21.7093v-2.8491c-15.5395,6.7056-26.5155,21.222-31.906,36.9318-6.0713,17.6939-5.5913,37.8855,2.2811,54.9429a55.0082,55.0082,0,0,0,17.5691,21.7093v-2.8491l-.5371.2418C429.4645,618.2006,431.14,621.045,433.063,620.18Z"/><path class="cls-6" d="M422.1162,449.2825c2.6837-24.6509,16.7887-44.5838,34.7629-52.239-.09-.064-.1766-.1333-.2661-.1981-44.5868-1.7755-197.6171-11.5049-231.6781,21.7532q-2.82,4.0492-5.2911,7.8732l-.2886.6064c16.199,58.1089,215.2888,79.3582,225.0143,80.3625C428.74,495.994,419.4582,473.696,422.1162,449.2825Z"/><path d="M423.7659,449.2825c1.8768-16.8316,9.5557-33.472,22.9243-44.21a47.7549,47.7549,0,0,1,11.0216-6.6046c1.2666-.5447.8628-2.2068,0-2.849-1.0918-.8128-3.3813-.5165-4.7222-.5741q-2.3221-.1-4.6441-.2044-5.2608-.2351-10.5215-.4712-12.9837-.5737-25.9722-1.0263-15.19-.5085-30.3872-.7283c-10.9358-.1454-21.8741-.153-32.8094.0353-11.0514.19-22.1014.5775-33.1333,1.2686-10.5263.6595-21.0408,1.5913-31.496,2.9906a239.0035,239.0035,0,0,0-27.6728,5.1569,103.85,103.85,0,0,0-21.7764,7.8572,50.0974,50.0974,0,0,0-8.161,5.1938,17.894,17.894,0,0,0-3.8815,4.0594q-1.8129,2.6358-3.5661,5.312c-.7059,1.0785-1.4622,2.038-1.1038,3.3779,1.4762,5.52,4.81,10.5527,8.5348,14.8043A76.5631,76.5631,0,0,0,241.69,455.616,150.6877,150.6877,0,0,0,262.08,466.8181c7.97,3.688,16.1593,6.9,24.4453,9.8037,8.797,3.083,17.7143,5.8182,26.6937,8.3174,9.2,2.56,18.4679,4.871,27.7773,6.9961q13.508,3.0836,27.1218,5.6769,12.5258,2.4026,25.1145,4.4588,10.7962,1.77,21.6289,3.3066,8.51,1.208,17.04,2.2716,5.1237.6365,10.2555,1.2049,1.1061.1212,2.2127.2363c1.8121.1873,1.9851-2.2237.8327-3.0743-12.9593-9.5649-20.0294-25.6069-21.5468-41.3313a76.4156,76.4156,0,0,1,.1105-15.4023c.2239-2.109-3.0774-2.0933-3.2995,0-1.8747,17.6658,2.25,36.3195,13.4629,50.3635a51.0243,51.0243,0,0,0,9.6075,9.2192l.8327-3.0743c-2.6224-.271-5.2419-.5716-7.86-.8818q-3.659-.4334-7.3138-.9c-3.1749-.4042-6.0207-.7817-8.9563-1.1849q-11.6289-1.5971-23.219-3.4624-13.9257-2.241-27.7828-4.885-15.2067-2.9124-30.2963-6.3993c-10.3618-2.4124-20.6712-5.06-30.8845-8.0415-9.8357-2.871-19.59-6.0478-29.1611-9.7093a212.0723,212.0723,0,0,1-25.3107-11.4349,103.0285,103.0285,0,0,1-19.5625-13.2558c-4.9559-4.4115-8.9987-9.1251-11.7284-15.1863-.1667-.37-.1144-.2461-.32-.7643q-.19-.4779-.3635-.9618-.37-1.03-.6645-2.0843l-.1663,1.2713a27.51,27.51,0,0,1,2.0606-3.3086,56.8094,56.8094,0,0,1,3.2379-4.7666,17.2755,17.2755,0,0,1,2.7338-2.4353c.2016-.1579.9211-.69,1.38-1.0121q.8339-.5849,1.6941-1.1305c1.1515-.7322,2.3341-1.4149,3.5381-2.057a90.2147,90.2147,0,0,1,17.8728-6.89c15.8-4.5039,32.2633-6.62,48.5919-8.068,18.9569-1.6808,38.0031-2.2905,57.0289-2.4141,17.9971-.1169,35.9949.2366,53.981.849,13.4212.4569,26.834,1.0981,40.25,1.6734q.8521.0366,1.7042.0721.4466.0186.8932.0368c.1455.006.2911.0127.4367.0177.5044.0177.0867.1562-.1363-.01v-2.849c-15.8007,6.796-26.8747,21.7069-32.1693,37.7138a78.3527,78.3527,0,0,0-3.4108,15.95C420.2314,451.39,423.5329,451.3729,423.7659,449.2825Z"/><path d="M123.4293,218.89q4.1369,1.9331,8.2863,3.84,10.7843,4.9726,21.6034,9.87,15.2729,6.9168,30.6108,13.6887,17.28,7.6236,34.6643,15.0082c11.4969,4.87,23.0338,9.6482,34.6513,14.2234,9.7972,3.8584,19.6494,7.6065,29.6442,10.9254,6.6868,2.22,13.5553,4.5079,20.5714,5.4113a12.7728,12.7728,0,0,0,5.607-.151c2.7876-.9455,3.7159-4.471,4.1765-7.0543.941-5.2766.6231-10.7622.1441-16.0693-.6047-6.6994-1.6466-13.361-2.8553-19.9756-1.8379-10.059-4.076-20.0549-6.63-29.9563-.14-.5414-.28-1.0827-.4242-1.6228a1.6512,1.6512,0,0,0-3.1817.8772c1.9309,7.2129,3.5991,14.5058,5.1319,21.8124,2.5773,12.2859,5.1173,24.9714,5.0916,37.5753a38.5836,38.5836,0,0,1-.4873,6.6418,18.8338,18.8338,0,0,1-.7167,2.7225c-.0361.1048-.0779.208-.1188.311-.0981.2473.1641-.3555-.01.0225-.0692.15-.1392.3-.2156.4474a6.7546,6.7546,0,0,1-.6081.9814c.2782-.3652-.0154.0387-.12.0986-.0934.0535.3993-.287-.0142-.0187-.4106.2666.1856-.0329.0029.01-.1548.0362-.3057.0991-.4611.1371s-.3168.0562-.4738.0907c.4027-.0884.1651-.0072-.1832.0083-.4246.0189-.8463.0324-1.2716.02-.5121-.015-1.0234-.0545-1.533-.1069-.2684-.0276-.5361-.0608-.8039-.0943.5583.07-.4013-.06-.61-.0937-1.396-.2221-2.7811-.511-4.1578-.83-3.5123-.8148-6.978-1.8288-10.418-2.9048-9.4377-2.9519-18.72-6.4026-27.9444-9.9582-11.2207-4.3252-22.3553-8.873-33.4467-13.5188q-17.2957-7.2446-34.4613-14.7955-15.7762-6.9132-31.4772-13.997-11.8758-5.3524-23.7132-10.79-5.8388-2.6826-11.6653-5.3915-.2593-.1209-.5187-.242c-1.9122-.8935-3.59,1.95-1.6653,2.8491Z"/><path d="M89.7278,298.796l13.6268,5.6915,32.7219,13.667,39.5792,16.5311,34.1988,14.2838,11.2575,4.7019c1.76.7352,3.517,1.6062,5.3232,2.2234.0762.026.15.0627.2246.0938a1.6612,1.6612,0,0,0,2.03-1.1523,1.69,1.69,0,0,0-1.1523-2.0294L213.91,347.1153l-32.7218-13.667-39.5793-16.531L107.41,302.6334l-11.2575-4.7019c-1.76-.7351-3.517-1.6062-5.3232-2.2234-.0762-.026-.15-.0627-.2246-.0938a1.6612,1.6612,0,0,0-2.0294,1.1523,1.69,1.69,0,0,0,1.1522,2.0294Z"/><path d="M322.1023,260.5224c5.3881-3.1839,10.6253-7.8874,13.4942-13.4942l-1.5077-.6356c-.7488,4.9874-.4632,10.4042,2.9436,14.4113a14.2026,14.2026,0,0,0,7.8207,4.4741,12.5257,12.5257,0,0,0,2.13.3063l-.2193-1.62c-4.2332.7117-8.9915,2.2054-12.2414,5.0972a6.7338,6.7338,0,0,0-2.1831,7.3559c.78,2.2626,2.4383,4.2206,3.88,6.0864a33.3864,33.3864,0,0,0,4.196,4.6672c.9834.87,2.5664,2.2974,4.037,2.0311.8522-.1544.7138-1.36,0-1.5909-3.996-1.2912-8.5255-2.2974-12.7345-1.9366-2.3057.1976-4.9032.9625-5.8218,3.3266a7.0713,7.0713,0,0,0,.003,4.2607c.6291,2.605,1.2928,5.2018,1.92,7.8074.4564,1.8956.9361,3.792,1.32,5.7042l1.3787-.8025c-4.1128-4.6135-14.8175-13.5636-18.8933-4.2325-.4208.9635,1,1.8043,1.4246.8327.81-1.8543,2.1038-3.3645,4.2672-3.315a11.0514,11.0514,0,0,1,5.5308,2.2,33.6741,33.6741,0,0,1,6.5041,5.6815c.5877.6593,1.5291-.0542,1.3787-.8025-.2443-1.2155-.54-2.422-.825-3.6283q-.69-2.9244-1.4127-5.841c-.48-1.9509-1.3949-4.1312-1.2834-6.1692.2785-5.0912,9.012-3.3382,12.066-2.7107a44.6508,44.6508,0,0,1,4.7385,1.2163v-1.5909c.4907-.0889.1172.0109.0571-.0286.2085.1371-.1793-.0513-.35-.1133a8.0065,8.0065,0,0,1-1.8441-1.2095,27.24,27.24,0,0,1-3.4461-3.6084,28.7483,28.7483,0,0,1-4.2855-6.128c-2.4227-5.4344,4.2506-8.4561,8.3659-9.7834a33.4106,33.4106,0,0,1,4.6907-1.1848c.9511-.16.6705-1.5848-.2193-1.62a12.2773,12.2773,0,0,1-10.8383-8.0132,19.6267,19.6267,0,0,1-.4646-9.09c.1269-.8453-1.0434-1.5432-1.5077-.6356-2.7458,5.3661-7.7442,9.8543-12.9024,12.9023a.8255.8255,0,0,0,.8327,1.4246Z"/><path d="M237.58,347.282a11.8092,11.8092,0,0,0,2.068-5.2451c1.0114-5.5019-.1322-11.2186-1.8559-16.4548l-1.3787.8026c3.2,4.0378,8.1508,8.3712,13.7259,6.8113a10.1483,10.1483,0,0,0,6.9-7.1753c.2412-1.0328-1.3491-1.4737-1.5909-.4386a8.479,8.479,0,0,1-5.748,6.023c-4.9625,1.3852-9.3235-2.8571-12.1207-6.387-.5177-.6532-1.6251.0542-1.3787.8026,1.6233,4.9313,2.811,10.382,1.8558,15.5776a13.7412,13.7412,0,0,1-1.0663,3.4851c-.1449.3-.3083.587-.48.8727-.069.1152-.3336.45-.0979.1593-.6624.8179.4979,1.9922,1.1666,1.1666Z"/><path d="M48.4833,457.7251q4.0743,1.5393,8.1439,3.0912,10.8173,4.1169,21.6206,8.27,15.453,5.9381,30.88,11.9428,17.9827,7.0009,35.9231,14.11,18.4081,7.3019,36.749,14.7719c11.0888,4.5282,22.155,9.1141,33.1588,13.8457,8.6242,3.7084,17.2315,7.4772,25.6871,11.5586,2.9348,1.4166,5.8569,2.8685,8.7076,4.4491,1.0231.5672,2.038,1.1512,3.027,1.7764.4.2529.7962.512,1.1837.7836.1561.11.3084.224.4638.3342.4182.2967-.2617-.2462.1605.1263.2346.2069.47.4057.69.6289.0641.065.3174.3827.1051.1033.1287.1694.2386.35.3507.5307.0728.1172.304.6649.1448.2462.0671.1765.113.3568.1708.536.0617.1912.063.47.034.0993.0141.1808.0117.3588.0175.5393.0024.0716-.01.1446-.0135.2161-.0185.3313.0907-.3675-.0138.0482-.041.1633-.085.3248-.1285.4873-.0247.0923-.0631.1814-.0957.271-.0848.2325.1767-.3688.0053-.0148a8.83,8.83,0,0,1-.6327,1.0836c-.2259.3358.0278-.0077-.1935.2612q-.2041.2481-.42.4859c-.3441.3777-.7114.7341-1.0913,1.0756a19.87,19.87,0,0,1-2.5073,1.9188,56.0147,56.0147,0,0,1-7.0187,3.9148c-9.3242,4.48-19.3314,7.6677-29.2831,10.4336-.648.18-1.2963.3592-1.9471.5288-2.0531.5352-1.1826,3.7187.8772,3.1817a209.3587,209.3587,0,0,0,23.6822-7.7007c5.4142-2.1269,10.9355-4.4473,15.7409-7.772,3.0873-2.136,7.09-5.4663,6.2165-9.72-.4763-2.3205-2.2516-3.7641-4.105-5.0042a68.5938,68.5938,0,0,0-6.5011-3.7208c-7.4038-3.8564-15.045-7.267-22.68-10.6333-10.613-4.6791-21.307-9.1745-32.0252-13.6065q-18.2646-7.5525-36.6282-14.8628-18.5039-7.3931-37.0648-14.6423-16.5435-6.47-33.1193-12.8572-12.3875-4.775-24.7914-9.5073-6.038-2.3031-12.0812-4.5928l-.5214-.1972c-1.9885-.7512-2.848,2.4372-.8771,3.1817Z"/><path d="M78.1794,401.6325,92.144,407.02l33.2871,12.8431,40.4724,15.6153,34.775,13.4171,11.52,4.4449c1.7968.6932,3.59,1.51,5.4263,2.0936.08.0254.1577.0608.236.091,1.9825.7649,2.8408-2.4241.8771-3.1817l-13.9646-5.3879-33.287-12.8431L131.014,418.4974,96.239,405.08l-11.52-4.4448c-1.7968-.6933-3.59-1.51-5.4263-2.0937-.08-.0253-.1577-.0608-.236-.091-1.9824-.7649-2.8408,2.4241-.8771,3.1817Z"/><path d="M130.4225,364.2374l24.8523,9.53,39.29,15.0659,8.9984,3.4505c1.9842.7609,2.8429-2.4279.8771-3.1817l-24.8523-9.53-39.29-15.066-8.9984-3.45c-1.9842-.7609-2.8429,2.4279-.8771,3.1817Z"/><path d="M209.2258,473.182a22.1232,22.1232,0,0,1-1.6262,5.73,16.3974,16.3974,0,0,1-8.7668,8.873.8292.8292,0,0,0,.2193,1.62c6.8642.4094,16.9509,2.3664,19.2709,10.1116a8.91,8.91,0,0,1,.2318.9832c.0311.1732.0039-.1117.02.1787.0575,1.0559,1.7076,1.0627,1.65,0-.2933-5.3895-5.7964-9.213-10.3272-10.8958a37.5169,37.5169,0,0,0-10.845-2.0275l.2193,1.62c6.5373-2.6223,10.9215-9.2446,11.6041-16.1934.1038-1.0558-1.5467-1.0487-1.65,0Z"/><path d="M269.7473,544.342c1.768,7.8787,7.2478,16.1389,15.4241,18.1738V560.925c-5.0643,1.1387-10.0926,3.4338-13.0771,7.8614a15.3174,15.3174,0,0,0-2.5308,8.73,11.4271,11.4271,0,0,0,.1838,2.0213l1.3787-.8026a24.6964,24.6964,0,0,0-6.8261-5.7885,6.618,6.618,0,0,0-5.2031-.87c-2.1772.76-3.1408,3.0837-3.6477,5.15l1.2118-.493c-4.34-3.1353-9.6958-4.83-14.7894-2.4975a13.77,13.77,0,0,0-5.5867,4.6662c-.5921.8848.8364,1.7117,1.4246.8327a12.7737,12.7737,0,0,1,4.5908-3.8809c4.6339-2.3237,9.5783-.5492,13.528,2.3041a.83.83,0,0,0,1.2118-.493c.4032-1.6434,1.1407-3.8754,3.0966-4.1579,1.5564-.2248,3.1592.693,4.4067,1.509a25.8077,25.8077,0,0,1,5.4161,4.8856c.5777.68,1.5232-.0678,1.3787-.8025a1.6058,1.6058,0,0,1-.0561-.3963,14.3131,14.3131,0,0,1-.07-1.5327,14.1667,14.1667,0,0,1,.8845-4.8126c2.1274-5.7288,7.8871-8.5763,13.5132-9.8414a.8313.8313,0,0,0,0-1.5908c-7.6286-1.8986-12.6277-9.6948-14.2719-17.0216-.2324-1.0355-1.8233-.5973-1.5908.4386Z"/><path d="M24.1673,208.7166l14.2232,7.4685,33.9252,17.814,41.2434,21.6568L149.03,274.2813c5.7722,3.031,11.4955,6.1911,17.3305,9.1.08.04.159.0835.2384.1252,1.8783.9863,3.5481-1.86,1.6653-2.8491l-14.2232-7.4685-33.9251-17.814L78.8722,233.7183,43.4016,215.0929c-5.7722-3.031-11.4955-6.1911-17.33-9.1-.08-.04-.159-.0834-.2384-.1251-1.8784-.9863-3.5481,1.86-1.6654,2.8491Z"/><path d="M123.7042,136.676l10.2292,6.6189L158.4981,159.19l29.7166,19.2284,25.6848,16.62c4.1353,2.6758,8.1974,5.589,12.4592,8.0618.0622.0361.1215.0786.182.1178,1.788,1.1569,3.4439-1.6983,1.6653-2.8491l-10.2291-6.6189-24.5647-15.8948-29.7167-19.2284-25.6848-16.62c-4.1352-2.6757-8.1974-5.589-12.4591-8.0618-.0623-.0361-.1215-.0786-.182-.1177-1.788-1.157-3.4439,1.6982-1.6654,2.849Z"/><path d="M31.1606,327.1173,61.0152,338.674l4.2409,1.6416c1.9815.767,2.84-2.4221.8771-3.1817L36.2785,325.5772l-4.2408-1.6416c-1.9815-.767-2.84,2.422-.8771,3.1817Z"/><path d="M626.2113,769.2658H708.918c3.8135,0,7.6695.1669,11.4805,0,.0563-.0025.1133,0,.17,0a1.6508,1.6508,0,0,0,0-3.3H637.8616c-3.8136,0-7.67-.1669-11.4805,0-.0564.0025-.1133,0-.17,0a1.6508,1.6508,0,0,0,0,3.3Z"/><path d="M781.7,765.8088l21.8718-18.8233,34.81-29.9584,7.9216-6.8176c1.6122-1.3874-.7305-3.7123-2.3331-2.3331L822.0984,726.7l-34.81,29.9583-7.9216,6.8176c-1.6122,1.3874.7305,3.7124,2.3331,2.3331Z"/></svg>